<?xml version="1.0" encoding="UTF-8" standalone="no"?>
<!DOCTYPE svg PUBLIC "-//W3C//DTD SVG 1.1//EN"
 "http://www.w3.org/Graphics/SVG/1.1/DTD/svg11.dtd">
<!-- Generated by graphviz version 2.40.1 (20161225.0304)
 -->
<!-- Title: src/Core/Animation/AnimationTime.hpp Pages: 1 -->
<svg width="1609pt" height="430pt"
 viewBox="0.00 0.00 1609.00 430.00" xmlns="http://www.w3.org/2000/svg" xmlns:xlink="http://www.w3.org/1999/xlink">
<g id="graph0" class="graph" transform="scale(1 1) rotate(0) translate(4 426)">
<title>src/Core/Animation/AnimationTime.hpp</title>
<polygon fill="#ffffff" stroke="transparent" points="-4,4 -4,-426 1605,-426 1605,4 -4,4"/>
<!-- Node9 -->
<g id="node1" class="node">
<title>Node9</title>
<polygon fill="#bfbfbf" stroke="#000000" points="1092.5,-391.5 1092.5,-421.5 1208.5,-421.5 1208.5,-391.5 1092.5,-391.5"/>
<text text-anchor="start" x="1100.5" y="-409.5" font-family="Helvetica,sans-Serif" font-size="10.00" fill="#000000">src/Core/Animation</text>
<text text-anchor="middle" x="1150.5" y="-398.5" font-family="Helvetica,sans-Serif" font-size="10.00" fill="#000000">/AnimationTime.hpp</text>
</g>
<!-- Node10 -->
<g id="node2" class="node">
<title>Node10</title>
<g id="a_node2"><a xlink:href="KeyFrame_8hpp.html" target="_top" xlink:title="src/Core/Animation\l/KeyFrame.hpp">
<polygon fill="#ffffff" stroke="#000000" points="1095.5,-324.5 1095.5,-354.5 1205.5,-354.5 1205.5,-324.5 1095.5,-324.5"/>
<text text-anchor="start" x="1103.5" y="-342.5" font-family="Helvetica,sans-Serif" font-size="10.00" fill="#000000">src/Core/Animation</text>
<text text-anchor="middle" x="1150.5" y="-331.5" font-family="Helvetica,sans-Serif" font-size="10.00" fill="#000000">/KeyFrame.hpp</text>
</a>
</g>
</g>
<!-- Node9&#45;&gt;Node10 -->
<g id="edge1" class="edge">
<title>Node9&#45;&gt;Node10</title>
<path fill="none" stroke="#191970" d="M1150.5,-381.0249C1150.5,-372.128 1150.5,-362.4287 1150.5,-354.6432"/>
<polygon fill="#191970" stroke="#191970" points="1147.0001,-381.2966 1150.5,-391.2967 1154.0001,-381.2967 1147.0001,-381.2966"/>
</g>
<!-- Node16 -->
<g id="node8" class="node">
<title>Node16</title>
<g id="a_node8"><a xlink:href="AnimationData_8hpp.html" target="_top" xlink:title="src/Core/Asset/Animation\lData.hpp">
<polygon fill="#ffffff" stroke="#000000" points="831.5,-190.5 831.5,-220.5 971.5,-220.5 971.5,-190.5 831.5,-190.5"/>
<text text-anchor="start" x="839.5" y="-208.5" font-family="Helvetica,sans-Serif" font-size="10.00" fill="#000000">src/Core/Asset/Animation</text>
<text text-anchor="middle" x="901.5" y="-197.5" font-family="Helvetica,sans-Serif" font-size="10.00" fill="#000000">Data.hpp</text>
</a>
</g>
</g>
<!-- Node9&#45;&gt;Node16 -->
<g id="edge27" class="edge">
<title>Node9&#45;&gt;Node16</title>
<path fill="none" stroke="#191970" d="M1082.4815,-388.5432C1030.4207,-371.279 960.8983,-339.9772 920.5,-288 905.2568,-268.3878 901.8591,-238.7158 901.3102,-220.8132"/>
<polygon fill="#191970" stroke="#191970" points="1081.7258,-391.9767 1092.3172,-391.7081 1083.87,-385.3132 1081.7258,-391.9767"/>
</g>
<!-- Node32 -->
<g id="node24" class="node">
<title>Node32</title>
<g id="a_node24"><a xlink:href="AssimpAnimationDataLoader_8hpp.html" target="_top" xlink:title="src/IO/AssimpLoader\l/AssimpAnimationDataLoader.hpp">
<polygon fill="#ffffff" stroke="#000000" points="1344.5,-190.5 1344.5,-220.5 1526.5,-220.5 1526.5,-190.5 1344.5,-190.5"/>
<text text-anchor="start" x="1352.5" y="-208.5" font-family="Helvetica,sans-Serif" font-size="10.00" fill="#000000">src/IO/AssimpLoader</text>
<text text-anchor="middle" x="1435.5" y="-197.5" font-family="Helvetica,sans-Serif" font-size="10.00" fill="#000000">/AssimpAnimationDataLoader.hpp</text>
</a>
</g>
</g>
<!-- Node9&#45;&gt;Node32 -->
<g id="edge28" class="edge">
<title>Node9&#45;&gt;Node32</title>
<path fill="none" stroke="#191970" d="M1205.6121,-387.8723C1255.9942,-368.7833 1330.3817,-335.2076 1382.5,-288 1403.9496,-268.5714 1420.2833,-238.5657 1428.8369,-220.5981"/>
<polygon fill="#191970" stroke="#191970" points="1204.3332,-384.6137 1196.1824,-391.3824 1206.7751,-391.174 1204.3332,-384.6137"/>
</g>
<!-- Node11 -->
<g id="node3" class="node">
<title>Node11</title>
<g id="a_node3"><a xlink:href="KeyPose_8hpp.html" target="_top" xlink:title="src/Core/Animation\l/KeyPose.hpp">
<polygon fill="#ffffff" stroke="#000000" points="1095.5,-257.5 1095.5,-287.5 1205.5,-287.5 1205.5,-257.5 1095.5,-257.5"/>
<text text-anchor="start" x="1103.5" y="-275.5" font-family="Helvetica,sans-Serif" font-size="10.00" fill="#000000">src/Core/Animation</text>
<text text-anchor="middle" x="1150.5" y="-264.5" font-family="Helvetica,sans-Serif" font-size="10.00" fill="#000000">/KeyPose.hpp</text>
</a>
</g>
</g>
<!-- Node10&#45;&gt;Node11 -->
<g id="edge2" class="edge">
<title>Node10&#45;&gt;Node11</title>
<path fill="none" stroke="#191970" d="M1150.5,-314.0249C1150.5,-305.128 1150.5,-295.4287 1150.5,-287.6432"/>
<polygon fill="#191970" stroke="#191970" points="1147.0001,-314.2966 1150.5,-324.2967 1154.0001,-314.2967 1147.0001,-314.2966"/>
</g>
<!-- Node12 -->
<g id="node4" class="node">
<title>Node12</title>
<g id="a_node4"><a xlink:href="KeyRotation_8hpp.html" target="_top" xlink:title="src/Core/Animation\l/KeyRotation.hpp">
<polygon fill="#ffffff" stroke="#000000" points="1031.5,-190.5 1031.5,-220.5 1141.5,-220.5 1141.5,-190.5 1031.5,-190.5"/>
<text text-anchor="start" x="1039.5" y="-208.5" font-family="Helvetica,sans-Serif" font-size="10.00" fill="#000000">src/Core/Animation</text>
<text text-anchor="middle" x="1086.5" y="-197.5" font-family="Helvetica,sans-Serif" font-size="10.00" fill="#000000">/KeyRotation.hpp</text>
</a>
</g>
</g>
<!-- Node10&#45;&gt;Node12 -->
<g id="edge3" class="edge">
<title>Node10&#45;&gt;Node12</title>
<path fill="none" stroke="#191970" d="M1113.5533,-318.6709C1102.8098,-310.597 1092.3902,-300.3002 1086.5,-288 1076.1692,-266.4267 1079.3169,-237.8918 1082.7541,-220.6585"/>
<polygon fill="#191970" stroke="#191970" points="1111.5606,-321.5483 1121.7623,-324.4081 1115.5706,-315.8107 1111.5606,-321.5483"/>
</g>
<!-- Node14 -->
<g id="node6" class="node">
<title>Node14</title>
<g id="a_node6"><a xlink:href="KeyScaling_8hpp.html" target="_top" xlink:title="src/Core/Animation\l/KeyScaling.hpp">
<polygon fill="#ffffff" stroke="#000000" points="1178.5,-190.5 1178.5,-220.5 1288.5,-220.5 1288.5,-190.5 1178.5,-190.5"/>
<text text-anchor="start" x="1186.5" y="-208.5" font-family="Helvetica,sans-Serif" font-size="10.00" fill="#000000">src/Core/Animation</text>
<text text-anchor="middle" x="1233.5" y="-197.5" font-family="Helvetica,sans-Serif" font-size="10.00" fill="#000000">/KeyScaling.hpp</text>
</a>
</g>
</g>
<!-- Node10&#45;&gt;Node14 -->
<g id="edge5" class="edge">
<title>Node10&#45;&gt;Node14</title>
<path fill="none" stroke="#191970" d="M1184.792,-318.6014C1195.7755,-310.3372 1207.0169,-299.9415 1214.5,-288 1227.6117,-267.0764 1231.6969,-238.0852 1232.9561,-220.6262"/>
<polygon fill="#191970" stroke="#191970" points="1182.6275,-315.8459 1176.5096,-324.4958 1186.6864,-321.5491 1182.6275,-315.8459"/>
</g>
<!-- Node15 -->
<g id="node7" class="node">
<title>Node15</title>
<g id="a_node7"><a xlink:href="KeyTransform_8hpp.html" target="_top" xlink:title="src/Core/Animation\l/KeyTransform.hpp">
<polygon fill="#ffffff" stroke="#000000" points="929.5,-257.5 929.5,-287.5 1039.5,-287.5 1039.5,-257.5 929.5,-257.5"/>
<text text-anchor="start" x="937.5" y="-275.5" font-family="Helvetica,sans-Serif" font-size="10.00" fill="#000000">src/Core/Animation</text>
<text text-anchor="middle" x="984.5" y="-264.5" font-family="Helvetica,sans-Serif" font-size="10.00" fill="#000000">/KeyTransform.hpp</text>
</a>
</g>
</g>
<!-- Node10&#45;&gt;Node15 -->
<g id="edge7" class="edge">
<title>Node10&#45;&gt;Node15</title>
<path fill="none" stroke="#191970" d="M1103.6475,-320.5897C1077.7865,-310.1518 1046.1069,-297.3654 1021.9161,-287.6017"/>
<polygon fill="#191970" stroke="#191970" points="1102.6632,-323.9667 1113.2464,-324.4639 1105.2832,-317.4754 1102.6632,-323.9667"/>
</g>
<!-- Node31 -->
<g id="node23" class="node">
<title>Node31</title>
<g id="a_node23"><a xlink:href="KeyTranslation_8hpp.html" target="_top" xlink:title="src/Core/Animation\l/KeyTranslation.hpp">
<polygon fill="#ffffff" stroke="#000000" points="1261.5,-257.5 1261.5,-287.5 1373.5,-287.5 1373.5,-257.5 1261.5,-257.5"/>
<text text-anchor="start" x="1269.5" y="-275.5" font-family="Helvetica,sans-Serif" font-size="10.00" fill="#000000">src/Core/Animation</text>
<text text-anchor="middle" x="1317.5" y="-264.5" font-family="Helvetica,sans-Serif" font-size="10.00" fill="#000000">/KeyTranslation.hpp</text>
</a>
</g>
</g>
<!-- Node10&#45;&gt;Node31 -->
<g id="edge25" class="edge">
<title>Node10&#45;&gt;Node31</title>
<path fill="none" stroke="#191970" d="M1197.2912,-320.7275C1223.3706,-310.2645 1255.4148,-297.4084 1279.8585,-287.6017"/>
<polygon fill="#191970" stroke="#191970" points="1195.9558,-317.492 1187.9781,-324.4639 1198.5622,-323.9887 1195.9558,-317.492"/>
</g>
<!-- Node13 -->
<g id="node5" class="node">
<title>Node13</title>
<g id="a_node5"><a xlink:href="AssimpAnimationDataLoader_8cpp.html" target="_top" xlink:title="src/IO/AssimpLoader\l/AssimpAnimationDataLoader.cpp">
<polygon fill="#ffffff" stroke="#000000" points="1147.5,-123.5 1147.5,-153.5 1329.5,-153.5 1329.5,-123.5 1147.5,-123.5"/>
<text text-anchor="start" x="1155.5" y="-141.5" font-family="Helvetica,sans-Serif" font-size="10.00" fill="#000000">src/IO/AssimpLoader</text>
<text text-anchor="middle" x="1238.5" y="-130.5" font-family="Helvetica,sans-Serif" font-size="10.00" fill="#000000">/AssimpAnimationDataLoader.cpp</text>
</a>
</g>
</g>
<!-- Node12&#45;&gt;Node13 -->
<g id="edge4" class="edge">
<title>Node12&#45;&gt;Node13</title>
<path fill="none" stroke="#191970" d="M1130.0282,-186.3132C1153.5917,-175.9267 1182.284,-163.2794 1204.2395,-153.6017"/>
<polygon fill="#191970" stroke="#191970" points="1128.3505,-183.2277 1120.6118,-190.4639 1131.174,-189.6331 1128.3505,-183.2277"/>
</g>
<!-- Node14&#45;&gt;Node13 -->
<g id="edge6" class="edge">
<title>Node14&#45;&gt;Node13</title>
<path fill="none" stroke="#191970" d="M1235.3793,-180.3179C1236.0491,-171.3414 1236.7825,-161.5143 1237.3699,-153.6432"/>
<polygon fill="#191970" stroke="#191970" points="1231.8886,-180.0639 1234.6346,-190.2967 1238.8692,-180.5849 1231.8886,-180.0639"/>
</g>
<!-- Node15&#45;&gt;Node16 -->
<g id="edge8" class="edge">
<title>Node15&#45;&gt;Node16</title>
<path fill="none" stroke="#191970" d="M957.5942,-250.7808C945.4012,-240.9383 931.2821,-229.541 920.2595,-220.6432"/>
<polygon fill="#191970" stroke="#191970" points="955.6864,-253.7389 965.666,-257.2967 960.0832,-248.292 955.6864,-253.7389"/>
</g>
<!-- Node16&#45;&gt;Node13 -->
<g id="edge24" class="edge">
<title>Node16&#45;&gt;Node13</title>
<path fill="none" stroke="#191970" d="M981.7718,-189.5409C1036.6477,-178.6309 1108.9135,-164.2635 1162.789,-153.5523"/>
<polygon fill="#191970" stroke="#191970" points="980.8616,-186.1533 971.736,-191.5362 982.2266,-193.0189 980.8616,-186.1533"/>
</g>
<!-- Node17 -->
<g id="node9" class="node">
<title>Node17</title>
<g id="a_node9"><a xlink:href="AnimationData_8cpp.html" target="_top" xlink:title="src/Core/Asset/Animation\lData.cpp">
<polygon fill="#ffffff" stroke="#000000" points="669.5,-123.5 669.5,-153.5 809.5,-153.5 809.5,-123.5 669.5,-123.5"/>
<text text-anchor="start" x="677.5" y="-141.5" font-family="Helvetica,sans-Serif" font-size="10.00" fill="#000000">src/Core/Asset/Animation</text>
<text text-anchor="middle" x="739.5" y="-130.5" font-family="Helvetica,sans-Serif" font-size="10.00" fill="#000000">Data.cpp</text>
</a>
</g>
</g>
<!-- Node16&#45;&gt;Node17 -->
<g id="edge9" class="edge">
<title>Node16&#45;&gt;Node17</title>
<path fill="none" stroke="#191970" d="M855.7765,-186.5897C830.5386,-176.1518 799.6224,-163.3654 776.0145,-153.6017"/>
<polygon fill="#191970" stroke="#191970" points="854.5655,-189.8763 865.144,-190.4639 857.2408,-183.4077 854.5655,-189.8763"/>
</g>
<!-- Node18 -->
<g id="node10" class="node">
<title>Node18</title>
<g id="a_node10"><a xlink:href="AnimationData_8inl.html" target="_top" xlink:title="src/Core/Asset/Animation\lData.inl">
<polygon fill="#ffffff" stroke="#000000" points="827.5,-123.5 827.5,-153.5 967.5,-153.5 967.5,-123.5 827.5,-123.5"/>
<text text-anchor="start" x="835.5" y="-141.5" font-family="Helvetica,sans-Serif" font-size="10.00" fill="#000000">src/Core/Asset/Animation</text>
<text text-anchor="middle" x="897.5" y="-130.5" font-family="Helvetica,sans-Serif" font-size="10.00" fill="#000000">Data.inl</text>
</a>
</g>
</g>
<!-- Node16&#45;&gt;Node18 -->
<g id="edge10" class="edge">
<title>Node16&#45;&gt;Node18</title>
<path fill="none" stroke="#191970" d="M893.435,-180.3179C892.4846,-171.3414 892.1673,-161.5143 892.6505,-153.6432"/>
<polygon fill="#191970" stroke="#191970" points="889.9793,-180.8783 894.8315,-190.2967 896.9117,-179.9081 889.9793,-180.8783"/>
</g>
<!-- Node19 -->
<g id="node11" class="node">
<title>Node19</title>
<g id="a_node11"><a xlink:href="FileData_8inl.html" target="_top" xlink:title="src/Core/Asset/FileData.inl">
<polygon fill="#ffffff" stroke="#000000" points="985.5,-129 985.5,-148 1129.5,-148 1129.5,-129 985.5,-129"/>
<text text-anchor="middle" x="1057.5" y="-136" font-family="Helvetica,sans-Serif" font-size="10.00" fill="#000000">src/Core/Asset/FileData.inl</text>
</a>
</g>
</g>
<!-- Node16&#45;&gt;Node19 -->
<g id="edge12" class="edge">
<title>Node16&#45;&gt;Node19</title>
<path fill="none" stroke="#191970" d="M946.0617,-186.3613C975.1868,-173.8525 1011.9844,-158.0484 1035.1386,-148.1039"/>
<polygon fill="#191970" stroke="#191970" points="944.3166,-183.3016 936.5094,-190.4639 947.0791,-189.7335 944.3166,-183.3016"/>
</g>
<!-- Node18&#45;&gt;Node16 -->
<g id="edge11" class="edge">
<title>Node18&#45;&gt;Node16</title>
<path fill="none" stroke="#191970" d="M905.5577,-163.6135C906.5113,-172.5857 906.8323,-182.4156 906.3532,-190.2967"/>
<polygon fill="#191970" stroke="#191970" points="909.0143,-163.0593 904.1576,-153.6432 902.0823,-164.0327 909.0143,-163.0593"/>
</g>
<!-- Node20 -->
<g id="node12" class="node">
<title>Node20</title>
<g id="a_node12"><a xlink:href="FileData_8hpp.html" target="_top" xlink:title="src/Core/Asset/FileData.hpp">
<polygon fill="#ffffff" stroke="#000000" points="880.5,-67.5 880.5,-86.5 1030.5,-86.5 1030.5,-67.5 880.5,-67.5"/>
<text text-anchor="middle" x="955.5" y="-74.5" font-family="Helvetica,sans-Serif" font-size="10.00" fill="#000000">src/Core/Asset/FileData.hpp</text>
</a>
</g>
</g>
<!-- Node19&#45;&gt;Node20 -->
<g id="edge13" class="edge">
<title>Node19&#45;&gt;Node20</title>
<path fill="none" stroke="#191970" d="M1032.7903,-123.6015C1013.6649,-112.07 987.7503,-96.445 971.3256,-86.5419"/>
<polygon fill="#191970" stroke="#191970" points="1031.1915,-126.7244 1041.5625,-128.8906 1034.8059,-120.7298 1031.1915,-126.7244"/>
</g>
<!-- Node21 -->
<g id="node13" class="node">
<title>Node21</title>
<g id="a_node13"><a xlink:href="FileData_8cpp.html" target="_top" xlink:title="src/Core/Asset/FileData.cpp">
<polygon fill="#ffffff" stroke="#000000" points="1309,-6 1309,-25 1458,-25 1458,-6 1309,-6"/>
<text text-anchor="middle" x="1383.5" y="-13" font-family="Helvetica,sans-Serif" font-size="10.00" fill="#000000">src/Core/Asset/FileData.cpp</text>
</a>
</g>
</g>
<!-- Node20&#45;&gt;Node21 -->
<g id="edge14" class="edge">
<title>Node20&#45;&gt;Node21</title>
<path fill="none" stroke="#191970" d="M1040.8681,-66.778C1110.5804,-58.1438 1211.589,-44.9798 1299.5,-31 1310.777,-29.2067 1322.8697,-27.0899 1334.267,-25.0065"/>
<polygon fill="#191970" stroke="#191970" points="1040.3111,-63.3201 1030.815,-68.0185 1041.1684,-70.2674 1040.3111,-63.3201"/>
</g>
<!-- Node22 -->
<g id="node14" class="node">
<title>Node22</title>
<g id="a_node14"><a xlink:href="CameraManager_8cpp.html" target="_top" xlink:title="src/Engine/Managers\l/CameraManager/CameraManager.cpp">
<polygon fill="#ffffff" stroke="#000000" points="0,-.5 0,-30.5 203,-30.5 203,-.5 0,-.5"/>
<text text-anchor="start" x="8" y="-18.5" font-family="Helvetica,sans-Serif" font-size="10.00" fill="#000000">src/Engine/Managers</text>
<text text-anchor="middle" x="101.5" y="-7.5" font-family="Helvetica,sans-Serif" font-size="10.00" fill="#000000">/CameraManager/CameraManager.cpp</text>
</a>
</g>
</g>
<!-- Node20&#45;&gt;Node22 -->
<g id="edge15" class="edge">
<title>Node20&#45;&gt;Node22</title>
<path fill="none" stroke="#191970" d="M870.3596,-73.8602C732.0889,-68.2825 450.2301,-54.9216 212.5,-31 209.4024,-30.6883 206.2584,-30.355 203.0859,-30.0041"/>
<polygon fill="#191970" stroke="#191970" points="870.3357,-77.362 880.4676,-74.2644 870.6155,-70.3675 870.3357,-77.362"/>
</g>
<!-- Node23 -->
<g id="node15" class="node">
<title>Node23</title>
<g id="a_node15"><a xlink:href="LightManager_8cpp.html" target="_top" xlink:title="src/Engine/Managers\l/LightManager/LightManager.cpp">
<polygon fill="#ffffff" stroke="#000000" points="221.5,-.5 221.5,-30.5 395.5,-30.5 395.5,-.5 221.5,-.5"/>
<text text-anchor="start" x="229.5" y="-18.5" font-family="Helvetica,sans-Serif" font-size="10.00" fill="#000000">src/Engine/Managers</text>
<text text-anchor="middle" x="308.5" y="-7.5" font-family="Helvetica,sans-Serif" font-size="10.00" fill="#000000">/LightManager/LightManager.cpp</text>
</a>
</g>
</g>
<!-- Node20&#45;&gt;Node23 -->
<g id="edge16" class="edge">
<title>Node20&#45;&gt;Node23</title>
<path fill="none" stroke="#191970" d="M870.2216,-71.9185C761.7595,-64.9878 568.8031,-51.0924 404.5,-31 401.5674,-30.6414 398.5871,-30.2594 395.5794,-29.8588"/>
<polygon fill="#191970" stroke="#191970" points="870.2487,-75.4271 880.4503,-72.5674 870.692,-68.4412 870.2487,-75.4271"/>
</g>
<!-- Node24 -->
<g id="node16" class="node">
<title>Node24</title>
<g id="a_node16"><a xlink:href="RadiumEngine_8cpp.html" target="_top" xlink:title="src/Engine/RadiumEngine.cpp">
<polygon fill="#ffffff" stroke="#000000" points="414,-6 414,-25 575,-25 575,-6 414,-6"/>
<text text-anchor="middle" x="494.5" y="-13" font-family="Helvetica,sans-Serif" font-size="10.00" fill="#000000">src/Engine/RadiumEngine.cpp</text>
</a>
</g>
</g>
<!-- Node20&#45;&gt;Node24 -->
<g id="edge17" class="edge">
<title>Node20&#45;&gt;Node24</title>
<path fill="none" stroke="#191970" d="M870.2463,-67.6703C794.7416,-59.1186 681.5991,-45.5985 583.5,-31 571.5549,-29.2224 558.7437,-27.1119 546.6682,-25.0295"/>
<polygon fill="#191970" stroke="#191970" points="869.8545,-71.1482 880.1839,-68.7917 870.6395,-64.1923 869.8545,-71.1482"/>
</g>
<!-- Node25 -->
<g id="node17" class="node">
<title>Node25</title>
<g id="a_node17"><a xlink:href="Renderer_8cpp.html" target="_top" xlink:title="src/Engine/Renderer\l/Renderer.cpp">
<polygon fill="#ffffff" stroke="#000000" points="593,-.5 593,-30.5 706,-30.5 706,-.5 593,-.5"/>
<text text-anchor="start" x="601" y="-18.5" font-family="Helvetica,sans-Serif" font-size="10.00" fill="#000000">src/Engine/Renderer</text>
<text text-anchor="middle" x="649.5" y="-7.5" font-family="Helvetica,sans-Serif" font-size="10.00" fill="#000000">/Renderer.cpp</text>
</a>
</g>
</g>
<!-- Node20&#45;&gt;Node25 -->
<g id="edge18" class="edge">
<title>Node20&#45;&gt;Node25</title>
<path fill="none" stroke="#191970" d="M892.4347,-65.6481C843.947,-56.7423 775.3494,-43.7577 715.5,-31 712.507,-30.362 709.4412,-29.6937 706.3482,-29.0079"/>
<polygon fill="#191970" stroke="#191970" points="891.9989,-69.1264 902.4658,-67.485 893.2598,-62.2409 891.9989,-69.1264"/>
</g>
<!-- Node26 -->
<g id="node18" class="node">
<title>Node26</title>
<g id="a_node18"><a xlink:href="GeometrySystem_8cpp.html" target="_top" xlink:title="src/Engine/System/Geometry\lSystem.cpp">
<polygon fill="#ffffff" stroke="#000000" points="724.5,-.5 724.5,-30.5 882.5,-30.5 882.5,-.5 724.5,-.5"/>
<text text-anchor="start" x="732.5" y="-18.5" font-family="Helvetica,sans-Serif" font-size="10.00" fill="#000000">src/Engine/System/Geometry</text>
<text text-anchor="middle" x="803.5" y="-7.5" font-family="Helvetica,sans-Serif" font-size="10.00" fill="#000000">System.cpp</text>
</a>
</g>
</g>
<!-- Node20&#45;&gt;Node26 -->
<g id="edge19" class="edge">
<title>Node20&#45;&gt;Node26</title>
<path fill="none" stroke="#191970" d="M922.3235,-63.5766C898.2418,-53.833 865.6445,-40.644 840.6834,-30.5446"/>
<polygon fill="#191970" stroke="#191970" points="921.1673,-66.8844 931.75,-67.3906 923.7928,-60.3954 921.1673,-66.8844"/>
</g>
<!-- Node27 -->
<g id="node19" class="node">
<title>Node27</title>
<g id="a_node19"><a xlink:href="Viewer_8cpp.html" target="_top" xlink:title="src/GuiBase/Viewer\l/Viewer.cpp">
<polygon fill="#ffffff" stroke="#000000" points="900,-.5 900,-30.5 1011,-30.5 1011,-.5 900,-.5"/>
<text text-anchor="start" x="908" y="-18.5" font-family="Helvetica,sans-Serif" font-size="10.00" fill="#000000">src/GuiBase/Viewer</text>
<text text-anchor="middle" x="955.5" y="-7.5" font-family="Helvetica,sans-Serif" font-size="10.00" fill="#000000">/Viewer.cpp</text>
</a>
</g>
</g>
<!-- Node20&#45;&gt;Node27 -->
<g id="edge20" class="edge">
<title>Node20&#45;&gt;Node27</title>
<path fill="none" stroke="#191970" d="M955.5,-57.3693C955.5,-48.681 955.5,-38.6241 955.5,-30.5446"/>
<polygon fill="#191970" stroke="#191970" points="952.0001,-57.3906 955.5,-67.3906 959.0001,-57.3907 952.0001,-57.3906"/>
</g>
<!-- Node28 -->
<g id="node20" class="node">
<title>Node28</title>
<g id="a_node20"><a xlink:href="AssimpFileLoader_8cpp.html" target="_top" xlink:title="src/IO/AssimpLoader\l/AssimpFileLoader.cpp">
<polygon fill="#ffffff" stroke="#000000" points="1476,-.5 1476,-30.5 1601,-30.5 1601,-.5 1476,-.5"/>
<text text-anchor="start" x="1484" y="-18.5" font-family="Helvetica,sans-Serif" font-size="10.00" fill="#000000">src/IO/AssimpLoader</text>
<text text-anchor="middle" x="1538.5" y="-7.5" font-family="Helvetica,sans-Serif" font-size="10.00" fill="#000000">/AssimpFileLoader.cpp</text>
</a>
</g>
</g>
<!-- Node20&#45;&gt;Node28 -->
<g id="edge21" class="edge">
<title>Node20&#45;&gt;Node28</title>
<path fill="none" stroke="#191970" d="M1041.147,-72.594C1143.1464,-66.589 1318.464,-53.8708 1467.5,-31 1470.2436,-30.579 1473.0399,-30.1158 1475.8597,-29.621"/>
<polygon fill="#191970" stroke="#191970" points="1040.6817,-69.1151 1030.9015,-73.1891 1041.0876,-76.1033 1040.6817,-69.1151"/>
</g>
<!-- Node29 -->
<g id="node21" class="node">
<title>Node29</title>
<g id="a_node21"><a xlink:href="CameraLoader_8cpp.html" target="_top" xlink:title="src/IO/CameraLoader\l/CameraLoader.cpp">
<polygon fill="#ffffff" stroke="#000000" points="1029,-.5 1029,-30.5 1148,-30.5 1148,-.5 1029,-.5"/>
<text text-anchor="start" x="1037" y="-18.5" font-family="Helvetica,sans-Serif" font-size="10.00" fill="#000000">src/IO/CameraLoader</text>
<text text-anchor="middle" x="1088.5" y="-7.5" font-family="Helvetica,sans-Serif" font-size="10.00" fill="#000000">/CameraLoader.cpp</text>
</a>
</g>
</g>
<!-- Node20&#45;&gt;Node29 -->
<g id="edge22" class="edge">
<title>Node20&#45;&gt;Node29</title>
<path fill="none" stroke="#191970" d="M985.3763,-63.185C1006.3603,-53.4819 1034.4148,-40.5093 1055.9645,-30.5446"/>
<polygon fill="#191970" stroke="#191970" points="983.8889,-60.0167 976.2813,-67.3906 986.8269,-66.3703 983.8889,-60.0167"/>
</g>
<!-- Node30 -->
<g id="node22" class="node">
<title>Node30</title>
<g id="a_node22"><a xlink:href="TinyPlyFileLoader_8cpp.html" target="_top" xlink:title="src/IO/TinyPlyLoader\l/TinyPlyFileLoader.cpp">
<polygon fill="#ffffff" stroke="#000000" points="1166,-.5 1166,-30.5 1291,-30.5 1291,-.5 1166,-.5"/>
<text text-anchor="start" x="1174" y="-18.5" font-family="Helvetica,sans-Serif" font-size="10.00" fill="#000000">src/IO/TinyPlyLoader</text>
<text text-anchor="middle" x="1228.5" y="-7.5" font-family="Helvetica,sans-Serif" font-size="10.00" fill="#000000">/TinyPlyFileLoader.cpp</text>
</a>
</g>
</g>
<!-- Node20&#45;&gt;Node30 -->
<g id="edge23" class="edge">
<title>Node20&#45;&gt;Node30</title>
<path fill="none" stroke="#191970" d="M1007.7285,-65.2342C1052.8346,-55.073 1118.1086,-40.3684 1165.9836,-29.5834"/>
<polygon fill="#191970" stroke="#191970" points="1006.843,-61.8459 997.8567,-67.4581 1008.3815,-68.6748 1006.843,-61.8459"/>
</g>
<!-- Node31&#45;&gt;Node13 -->
<g id="edge26" class="edge">
<title>Node31&#45;&gt;Node13</title>
<path fill="none" stroke="#191970" d="M1315.3859,-247.0861C1313.0262,-229.9402 1308.038,-207.3628 1297.5,-190 1288.6114,-175.3549 1274.1799,-162.6503 1261.815,-153.5237"/>
<polygon fill="#191970" stroke="#191970" points="1311.9601,-247.9295 1316.5889,-257.4597 1318.9135,-247.1231 1311.9601,-247.9295"/>
</g>
<!-- Node32&#45;&gt;Node13 -->
<g id="edge29" class="edge">
<title>Node32&#45;&gt;Node13</title>
<path fill="none" stroke="#191970" d="M1381.5138,-187.1392C1350.5352,-176.6033 1312.1176,-163.5375 1282.9035,-153.6017"/>
<polygon fill="#191970" stroke="#191970" points="1380.6949,-190.5575 1391.2894,-190.4639 1382.9489,-183.9303 1380.6949,-190.5575"/>
</g>
<!-- Node32&#45;&gt;Node28 -->
<g id="edge30" class="edge">
<title>Node32&#45;&gt;Node28</title>
<path fill="none" stroke="#191970" d="M1448.6469,-181.2484C1470.2384,-141.4195 1512.5831,-63.3079 1530.3489,-30.5361"/>
<polygon fill="#191970" stroke="#191970" points="1445.4437,-179.8133 1443.7548,-190.2727 1451.5976,-183.1494 1445.4437,-179.8133"/>
</g>
</g>
</svg>
