<?xml version="1.0" encoding="UTF-8" standalone="no"?>
<!DOCTYPE svg PUBLIC "-//W3C//DTD SVG 1.1//EN"
 "http://www.w3.org/Graphics/SVG/1.1/DTD/svg11.dtd">
<!-- Generated by graphviz version 2.40.1 (20161225.0304)
 -->
<!-- Title: src/Core/Asset/AnimationData.hpp Pages: 1 -->
<!--zoomable 386 -->
<svg id="main" version="1.1" xmlns="http://www.w3.org/2000/svg" xmlns:xlink="http://www.w3.org/1999/xlink" xml:space="preserve" onload="init(evt)">
<style type="text/css"><![CDATA[
.edge:hover path { stroke: red; }
.edge:hover polygon { stroke: red; fill: red; }
]]></style>
<script type="text/javascript"><![CDATA[
var edges = document.getElementsByTagName('g');
if (edges && edges.length) {
  for (var i=0;i<edges.length;i++) {
    if (edges[i].id.substr(0,4)=='edge') {
      edges[i].setAttribute('class','edge');
    }
  }
}
]]></script>
        <defs>
                <circle id="rim" cx="0" cy="0" r="7"/>
                <circle id="rim2" cx="0" cy="0" r="3.5"/>
                <g id="zoomPlus">
                        <use xlink:href="#rim" fill="#404040">
                                <set attributeName="fill" to="#808080" begin="zoomplus.mouseover" end="zoomplus.mouseout"/>
                        </use>
                        <path d="M-4,0h8M0,-4v8" fill="none" stroke="white" stroke-width="1.5" pointer-events="none"/>
                </g>
                <g id="zoomMin">
                        <use xlink:href="#rim" fill="#404040">
                                <set attributeName="fill" to="#808080" begin="zoomminus.mouseover" end="zoomminus.mouseout"/>
                        </use>
                        <path d="M-4,0h8" fill="none" stroke="white" stroke-width="1.5" pointer-events="none"/>
                </g>
                <g id="dirArrow">
                        <path fill="none" stroke="white" stroke-width="1.5" d="M0,-3.0v7 M-2.5,-0.5L0,-3.0L2.5,-0.5"/>
                </g>
               <g id="resetDef">
                       <use xlink:href="#rim2" fill="#404040">
                               <set attributeName="fill" to="#808080" begin="reset.mouseover" end="reset.mouseout"/>
                       </use>
               </g>
        </defs>

<script type="text/javascript">
var viewWidth = 1082;
var viewHeight = 386;
var sectionId = 'dynsection-0';
</script>
<script xlink:href="svgpan.js"/>
<svg id="graph" class="graph">
<g id="viewport">
<title>src/Core/Asset/AnimationData.hpp</title>
<polygon fill="#ffffff" stroke="transparent" points="-4,4 -4,-382 1077.6153,-382 1077.6153,4 -4,4"/>
<!-- Node0 -->
<g id="node1" class="node">
<title>Node0</title>
<polygon fill="#bfbfbf" stroke="#000000" points="641.6153,-347.5 641.6153,-377.5 781.6153,-377.5 781.6153,-347.5 641.6153,-347.5"/>
<text text-anchor="start" x="649.6153" y="-365.5" font-family="Helvetica,sans-Serif" font-size="10.00" fill="#000000">src/Core/Asset/Animation</text>
<text text-anchor="middle" x="711.6153" y="-354.5" font-family="Helvetica,sans-Serif" font-size="10.00" fill="#000000">Data.hpp</text>
</g>
<!-- Node1 -->
<g id="node2" class="node">
<title>Node1</title>
<polygon fill="#ffffff" stroke="#bfbfbf" points="823.6153,-174 823.6153,-193 867.6153,-193 867.6153,-174 823.6153,-174"/>
<text text-anchor="middle" x="845.6153" y="-181" font-family="Helvetica,sans-Serif" font-size="10.00" fill="#000000">string</text>
</g>
<!-- Node0&#45;&gt;Node1 -->
<g id="edge1" class="edge">
<title>Node0&#45;&gt;Node1</title>
<path fill="none" stroke="#191970" d="M742.154,-347.3963C773.6616,-329.9546 821.1409,-298.0429 842.6153,-255 850.5711,-239.0536 850.5534,-218.5302 848.9997,-203.565"/>
<polygon fill="#191970" stroke="#191970" points="852.4298,-202.8118 847.6188,-193.3723 845.4931,-203.7517 852.4298,-202.8118"/>
</g>
<!-- Node2 -->
<g id="node3" class="node">
<title>Node2</title>
<polygon fill="#ffffff" stroke="#bfbfbf" points="385.1153,-291.5 385.1153,-310.5 432.1153,-310.5 432.1153,-291.5 385.1153,-291.5"/>
<text text-anchor="middle" x="408.6153" y="-298.5" font-family="Helvetica,sans-Serif" font-size="10.00" fill="#000000">vector</text>
</g>
<!-- Node0&#45;&gt;Node2 -->
<g id="edge2" class="edge">
<title>Node0&#45;&gt;Node2</title>
<path fill="none" stroke="#191970" d="M641.5115,-351.4577C588.8733,-342.6426 514.8955,-329.146 442.0918,-311.1801"/>
<polygon fill="#191970" stroke="#191970" points="442.8449,-307.7608 432.2948,-308.7332 441.1486,-314.5521 442.8449,-307.7608"/>
</g>
<!-- Node3 -->
<g id="node4" class="node">
<title>Node3</title>
<g id="a_node4"><a xlink:href="AnimationTime_8hpp.html" target="_top" xlink:title="Core/Animation/Animation\lTime.hpp">
<polygon fill="#ffffff" stroke="#000000" points="30.6153,-168.5 30.6153,-198.5 176.6153,-198.5 176.6153,-168.5 30.6153,-168.5"/>
<text text-anchor="start" x="38.6153" y="-186.5" font-family="Helvetica,sans-Serif" font-size="10.00" fill="#000000">Core/Animation/Animation</text>
<text text-anchor="middle" x="103.6153" y="-175.5" font-family="Helvetica,sans-Serif" font-size="10.00" fill="#000000">Time.hpp</text>
</a>
</g>
</g>
<!-- Node0&#45;&gt;Node3 -->
<g id="edge3" class="edge">
<title>Node0&#45;&gt;Node3</title>
<path fill="none" stroke="#191970" d="M641.4691,-357.6221C572.5834,-351.4714 465.107,-338.2143 375.6153,-311 286.1317,-283.7881 188.5363,-232.131 138.1089,-203.6327"/>
<polygon fill="#191970" stroke="#191970" points="139.6766,-200.4977 129.2545,-198.592 136.2134,-206.581 139.6766,-200.4977"/>
</g>
<!-- Node12 -->
<g id="node13" class="node">
<title>Node12</title>
<g id="a_node13"><a xlink:href="KeyTransform_8hpp.html" target="_top" xlink:title="Core/Animation/KeyTransform.hpp">
<polygon fill="#ffffff" stroke="#000000" points="450.1153,-291.5 450.1153,-310.5 633.1153,-310.5 633.1153,-291.5 450.1153,-291.5"/>
<text text-anchor="middle" x="541.6153" y="-298.5" font-family="Helvetica,sans-Serif" font-size="10.00" fill="#000000">Core/Animation/KeyTransform.hpp</text>
</a>
</g>
</g>
<!-- Node0&#45;&gt;Node12 -->
<g id="edge12" class="edge">
<title>Node0&#45;&gt;Node12</title>
<path fill="none" stroke="#191970" d="M670.0286,-347.4554C641.6637,-337.194 604.482,-323.7429 577.4317,-313.9571"/>
<polygon fill="#191970" stroke="#191970" points="578.5536,-310.641 567.9593,-310.5303 576.1722,-317.2235 578.5536,-310.641"/>
</g>
<!-- Node15 -->
<g id="node16" class="node">
<title>Node15</title>
<g id="a_node16"><a xlink:href="RaCore_8hpp.html" target="_top" xlink:title="Core/RaCore.hpp">
<polygon fill="#ffffff" stroke="#000000" points="750.6153,-112.5 750.6153,-131.5 848.6153,-131.5 848.6153,-112.5 750.6153,-112.5"/>
<text text-anchor="middle" x="799.6153" y="-119.5" font-family="Helvetica,sans-Serif" font-size="10.00" fill="#000000">Core/RaCore.hpp</text>
</a>
</g>
</g>
<!-- Node0&#45;&gt;Node15 -->
<g id="edge34" class="edge">
<title>Node0&#45;&gt;Node15</title>
<path fill="none" stroke="#191970" d="M701.947,-347.4541C687.5803,-323.0642 663.9857,-273.7238 680.6153,-235 699.5851,-190.8271 745.248,-155.7922 774.1739,-137.0402"/>
<polygon fill="#191970" stroke="#191970" points="776.324,-139.8225 782.9222,-131.5331 772.5948,-133.8985 776.324,-139.8225"/>
</g>
<!-- Node27 -->
<g id="node28" class="node">
<title>Node27</title>
<g id="a_node28"><a xlink:href="AssetData_8hpp.html" target="_top" xlink:title="Core/Asset/AssetData.hpp">
<polygon fill="#ffffff" stroke="#000000" points="690.1153,-235.5 690.1153,-254.5 833.1153,-254.5 833.1153,-235.5 690.1153,-235.5"/>
<text text-anchor="middle" x="761.6153" y="-242.5" font-family="Helvetica,sans-Serif" font-size="10.00" fill="#000000">Core/Asset/AssetData.hpp</text>
</a>
</g>
</g>
<!-- Node0&#45;&gt;Node27 -->
<g id="edge31" class="edge">
<title>Node0&#45;&gt;Node27</title>
<path fill="none" stroke="#191970" d="M718.152,-347.1389C727.2422,-325.7768 743.6909,-287.1224 753.5379,-263.982"/>
<polygon fill="#191970" stroke="#191970" points="756.8524,-265.1315 757.5475,-254.5595 750.4113,-262.3906 756.8524,-265.1315"/>
</g>
<!-- Node28 -->
<g id="node29" class="node">
<title>Node28</title>
<g id="a_node29"><a xlink:href="AnimationData_8inl.html" target="_top" xlink:title="Core/Asset/AnimationData.inl">
<polygon fill="#ffffff" stroke="#000000" points="877.1153,-291.5 877.1153,-310.5 1038.1153,-310.5 1038.1153,-291.5 877.1153,-291.5"/>
<text text-anchor="middle" x="957.6153" y="-298.5" font-family="Helvetica,sans-Serif" font-size="10.00" fill="#000000">Core/Asset/AnimationData.inl</text>
</a>
</g>
</g>
<!-- Node0&#45;&gt;Node28 -->
<g id="edge35" class="edge">
<title>Node0&#45;&gt;Node28</title>
<path fill="none" stroke="#191970" d="M765.8966,-347.4554C807.205,-336.8114 863.6536,-322.7356 904.641,-312.8783"/>
<polygon fill="#191970" stroke="#191970" points="905.537,-316.2628 914.447,-310.5303 903.9069,-309.4552 905.537,-316.2628"/>
</g>
<!-- Node4 -->
<g id="node5" class="node">
<title>Node4</title>
<g id="a_node5"><a xlink:href="CoreMacros_8hpp.html" target="_top" xlink:title="Core/CoreMacros.hpp">
<polygon fill="#ffffff" stroke="#000000" points="726.6153,-56.5 726.6153,-75.5 846.6153,-75.5 846.6153,-56.5 726.6153,-56.5"/>
<text text-anchor="middle" x="786.6153" y="-63.5" font-family="Helvetica,sans-Serif" font-size="10.00" fill="#000000">Core/CoreMacros.hpp</text>
</a>
</g>
</g>
<!-- Node3&#45;&gt;Node4 -->
<g id="edge4" class="edge">
<title>Node3&#45;&gt;Node4</title>
<path fill="none" stroke="#191970" d="M56.0805,-168.4885C21.8447,-155.3193 -14.8397,-134.7577 6.6153,-112 30.772,-86.3767 529.0682,-72.0535 716.3185,-67.5593"/>
<polygon fill="#191970" stroke="#191970" points="716.4193,-71.0579 726.3332,-67.3212 716.2528,-64.0599 716.4193,-71.0579"/>
</g>
<!-- Node10 -->
<g id="node11" class="node">
<title>Node10</title>
<polygon fill="#ffffff" stroke="#bfbfbf" points="16.1153,-112.5 16.1153,-131.5 63.1153,-131.5 63.1153,-112.5 16.1153,-112.5"/>
<text text-anchor="middle" x="39.6153" y="-119.5" font-family="Helvetica,sans-Serif" font-size="10.00" fill="#000000">cmath</text>
</g>
<!-- Node3&#45;&gt;Node10 -->
<g id="edge10" class="edge">
<title>Node3&#45;&gt;Node10</title>
<path fill="none" stroke="#191970" d="M87.7951,-168.2977C78.5411,-159.4052 66.8372,-148.1586 57.2823,-138.9769"/>
<polygon fill="#191970" stroke="#191970" points="59.4982,-136.2521 49.8625,-131.8469 54.648,-141.2995 59.4982,-136.2521"/>
</g>
<!-- Node11 -->
<g id="node12" class="node">
<title>Node11</title>
<polygon fill="#ffffff" stroke="#bfbfbf" points="81.6153,-112.5 81.6153,-131.5 125.6153,-131.5 125.6153,-112.5 81.6153,-112.5"/>
<text text-anchor="middle" x="103.6153" y="-119.5" font-family="Helvetica,sans-Serif" font-size="10.00" fill="#000000">limits</text>
</g>
<!-- Node3&#45;&gt;Node11 -->
<g id="edge11" class="edge">
<title>Node3&#45;&gt;Node11</title>
<path fill="none" stroke="#191970" d="M103.6153,-168.2977C103.6153,-160.3834 103.6153,-150.6043 103.6153,-142.0759"/>
<polygon fill="#191970" stroke="#191970" points="107.1154,-141.8469 103.6153,-131.8469 100.1154,-141.847 107.1154,-141.8469"/>
</g>
<!-- Node5 -->
<g id="node6" class="node">
<title>Node5</title>
<polygon fill="#ffffff" stroke="#bfbfbf" points="693.6153,-.5 693.6153,-19.5 745.6153,-19.5 745.6153,-.5 693.6153,-.5"/>
<text text-anchor="middle" x="719.6153" y="-7.5" font-family="Helvetica,sans-Serif" font-size="10.00" fill="#000000">cassert</text>
</g>
<!-- Node4&#45;&gt;Node5 -->
<g id="edge5" class="edge">
<title>Node4&#45;&gt;Node5</title>
<path fill="none" stroke="#191970" d="M774.9448,-56.2455C765.0493,-47.9746 750.6526,-35.9416 739.0253,-26.2232"/>
<polygon fill="#191970" stroke="#191970" points="741.0695,-23.3703 731.1521,-19.6427 736.5803,-28.7413 741.0695,-23.3703"/>
</g>
<!-- Node6 -->
<g id="node7" class="node">
<title>Node6</title>
<polygon fill="#ffffff" stroke="#bfbfbf" points="763.6153,-.5 763.6153,-19.5 809.6153,-19.5 809.6153,-.5 763.6153,-.5"/>
<text text-anchor="middle" x="786.6153" y="-7.5" font-family="Helvetica,sans-Serif" font-size="10.00" fill="#000000">cstdio</text>
</g>
<!-- Node4&#45;&gt;Node6 -->
<g id="edge6" class="edge">
<title>Node4&#45;&gt;Node6</title>
<path fill="none" stroke="#191970" d="M786.6153,-56.2455C786.6153,-48.9382 786.6153,-38.6944 786.6153,-29.7046"/>
<polygon fill="#191970" stroke="#191970" points="790.1154,-29.6426 786.6153,-19.6427 783.1154,-29.6427 790.1154,-29.6426"/>
</g>
<!-- Node7 -->
<g id="node8" class="node">
<title>Node7</title>
<polygon fill="#ffffff" stroke="#bfbfbf" points="827.6153,-.5 827.6153,-19.5 887.6153,-19.5 887.6153,-.5 827.6153,-.5"/>
<text text-anchor="middle" x="857.6153" y="-7.5" font-family="Helvetica,sans-Serif" font-size="10.00" fill="#000000">iostream</text>
</g>
<!-- Node4&#45;&gt;Node7 -->
<g id="edge7" class="edge">
<title>Node4&#45;&gt;Node7</title>
<path fill="none" stroke="#191970" d="M798.9826,-56.2455C809.5707,-47.8943 825.0217,-35.7076 837.4046,-25.9408"/>
<polygon fill="#191970" stroke="#191970" points="839.7056,-28.5837 845.3898,-19.6427 835.3706,-23.0875 839.7056,-28.5837"/>
</g>
<!-- Node8 -->
<g id="node9" class="node">
<title>Node8</title>
<polygon fill="#ffffff" stroke="#bfbfbf" points="905.6153,-.5 905.6153,-19.5 961.6153,-19.5 961.6153,-.5 905.6153,-.5"/>
<text text-anchor="middle" x="933.6153" y="-7.5" font-family="Helvetica,sans-Serif" font-size="10.00" fill="#000000">sstream</text>
</g>
<!-- Node4&#45;&gt;Node8 -->
<g id="edge8" class="edge">
<title>Node4&#45;&gt;Node8</title>
<path fill="none" stroke="#191970" d="M811.8855,-56.3733C836.0119,-47.1822 872.5515,-33.2624 899.303,-23.0713"/>
<polygon fill="#191970" stroke="#191970" points="900.576,-26.3318 908.6749,-19.5011 898.084,-19.7904 900.576,-26.3318"/>
</g>
<!-- Node9 -->
<g id="node10" class="node">
<title>Node9</title>
<polygon fill="#ffffff" stroke="#bfbfbf" points="627.6153,-.5 627.6153,-19.5 675.6153,-19.5 675.6153,-.5 627.6153,-.5"/>
<text text-anchor="middle" x="651.6153" y="-7.5" font-family="Helvetica,sans-Serif" font-size="10.00" fill="#000000">thread</text>
</g>
<!-- Node4&#45;&gt;Node9 -->
<g id="edge9" class="edge">
<title>Node4&#45;&gt;Node9</title>
<path fill="none" stroke="#191970" d="M763.408,-56.3733C741.4454,-47.2629 708.2822,-33.5062 683.7752,-23.3404"/>
<polygon fill="#191970" stroke="#191970" points="685.0977,-20.0999 674.5198,-19.5011 682.4156,-26.5657 685.0977,-20.0999"/>
</g>
<!-- Node13 -->
<g id="node14" class="node">
<title>Node13</title>
<g id="a_node14"><a xlink:href="Interpolation_8hpp.html" target="_top" xlink:title="Core/Animation/Interpolation.hpp">
<polygon fill="#ffffff" stroke="#000000" points="453.1153,-235.5 453.1153,-254.5 632.1153,-254.5 632.1153,-235.5 453.1153,-235.5"/>
<text text-anchor="middle" x="542.6153" y="-242.5" font-family="Helvetica,sans-Serif" font-size="10.00" fill="#000000">Core/Animation/Interpolation.hpp</text>
</a>
</g>
</g>
<!-- Node12&#45;&gt;Node13 -->
<g id="edge13" class="edge">
<title>Node12&#45;&gt;Node13</title>
<path fill="none" stroke="#191970" d="M541.7895,-291.2455C541.92,-283.9382 542.1029,-273.6944 542.2635,-264.7046"/>
<polygon fill="#191970" stroke="#191970" points="545.7639,-264.7036 542.4431,-254.6427 538.7651,-264.5786 545.7639,-264.7036"/>
</g>
<!-- Node19 -->
<g id="node20" class="node">
<title>Node19</title>
<g id="a_node20"><a xlink:href="KeyFrame_8hpp.html" target="_top" xlink:title="Core/Animation/KeyFrame.hpp">
<polygon fill="#ffffff" stroke="#000000" points="267.6153,-235.5 267.6153,-254.5 431.6153,-254.5 431.6153,-235.5 267.6153,-235.5"/>
<text text-anchor="middle" x="349.6153" y="-242.5" font-family="Helvetica,sans-Serif" font-size="10.00" fill="#000000">Core/Animation/KeyFrame.hpp</text>
</a>
</g>
</g>
<!-- Node12&#45;&gt;Node19 -->
<g id="edge20" class="edge">
<title>Node12&#45;&gt;Node19</title>
<path fill="none" stroke="#191970" d="M508.6094,-291.3733C476.4062,-281.9807 427.2711,-267.6496 392.1514,-257.4064"/>
<polygon fill="#191970" stroke="#191970" points="392.7706,-253.9412 382.1906,-254.5011 390.8106,-260.6612 392.7706,-253.9412"/>
</g>
<!-- Node14 -->
<g id="node15" class="node">
<title>Node14</title>
<g id="a_node15"><a xlink:href="Types_8hpp.html" target="_top" xlink:title="Core/Types.hpp">
<polygon fill="#ffffff" stroke="#000000" points="533.1153,-174 533.1153,-193 624.1153,-193 624.1153,-174 533.1153,-174"/>
<text text-anchor="middle" x="578.6153" y="-181" font-family="Helvetica,sans-Serif" font-size="10.00" fill="#000000">Core/Types.hpp</text>
</a>
</g>
</g>
<!-- Node13&#45;&gt;Node14 -->
<g id="edge14" class="edge">
<title>Node13&#45;&gt;Node14</title>
<path fill="none" stroke="#191970" d="M548.2403,-235.3906C553.4406,-226.5068 561.3119,-213.0601 567.7386,-202.0811"/>
<polygon fill="#191970" stroke="#191970" points="570.8797,-203.6432 572.911,-193.2449 564.8386,-200.1069 570.8797,-203.6432"/>
</g>
<!-- Node14&#45;&gt;Node15 -->
<g id="edge15" class="edge">
<title>Node14&#45;&gt;Node15</title>
<path fill="none" stroke="#191970" d="M613.1466,-173.8906C651.5836,-163.1944 713.7897,-145.8836 755.669,-134.2294"/>
<polygon fill="#191970" stroke="#191970" points="756.631,-137.5948 765.3266,-131.5419 754.7543,-130.851 756.631,-137.5948"/>
</g>
<!-- Node16 -->
<g id="node17" class="node">
<title>Node16</title>
<polygon fill="#ffffff" stroke="#bfbfbf" points="550.1153,-112.5 550.1153,-131.5 619.1153,-131.5 619.1153,-112.5 550.1153,-112.5"/>
<text text-anchor="middle" x="584.6153" y="-119.5" font-family="Helvetica,sans-Serif" font-size="10.00" fill="#000000">Eigen/Core</text>
</g>
<!-- Node14&#45;&gt;Node16 -->
<g id="edge17" class="edge">
<title>Node14&#45;&gt;Node16</title>
<path fill="none" stroke="#191970" d="M579.5528,-173.8906C580.3845,-165.3657 581.6261,-152.6392 582.6716,-141.9235"/>
<polygon fill="#191970" stroke="#191970" points="586.177,-142.0375 583.6646,-131.7449 579.2101,-141.3577 586.177,-142.0375"/>
</g>
<!-- Node17 -->
<g id="node18" class="node">
<title>Node17</title>
<polygon fill="#ffffff" stroke="#bfbfbf" points="637.1153,-112.5 637.1153,-131.5 732.1153,-131.5 732.1153,-112.5 637.1153,-112.5"/>
<text text-anchor="middle" x="684.6153" y="-119.5" font-family="Helvetica,sans-Serif" font-size="10.00" fill="#000000">Eigen/Geometry</text>
</g>
<!-- Node14&#45;&gt;Node17 -->
<g id="edge18" class="edge">
<title>Node14&#45;&gt;Node17</title>
<path fill="none" stroke="#191970" d="M595.1778,-173.8906C612.3691,-163.9165 639.4735,-148.1908 659.342,-136.6633"/>
<polygon fill="#191970" stroke="#191970" points="661.276,-139.5877 668.1691,-131.5419 657.7631,-133.533 661.276,-139.5877"/>
</g>
<!-- Node18 -->
<g id="node19" class="node">
<title>Node18</title>
<polygon fill="#ffffff" stroke="#bfbfbf" points="451.6153,-112.5 451.6153,-131.5 531.6153,-131.5 531.6153,-112.5 451.6153,-112.5"/>
<text text-anchor="middle" x="491.6153" y="-119.5" font-family="Helvetica,sans-Serif" font-size="10.00" fill="#000000">Eigen/Sparse</text>
</g>
<!-- Node14&#45;&gt;Node18 -->
<g id="edge19" class="edge">
<title>Node14&#45;&gt;Node18</title>
<path fill="none" stroke="#191970" d="M565.0216,-173.8906C551.231,-164.1421 529.6681,-148.8994 513.4743,-137.4521"/>
<polygon fill="#191970" stroke="#191970" points="515.2998,-134.4563 505.1136,-131.5419 511.2591,-140.1723 515.2998,-134.4563"/>
</g>
<!-- Node15&#45;&gt;Node4 -->
<g id="edge16" class="edge">
<title>Node15&#45;&gt;Node4</title>
<path fill="none" stroke="#191970" d="M797.3509,-112.2455C795.6359,-104.8579 793.2242,-94.4689 791.1209,-85.4087"/>
<polygon fill="#191970" stroke="#191970" points="794.5245,-84.5922 788.8538,-75.6427 787.7058,-86.1751 794.5245,-84.5922"/>
</g>
<!-- Node19&#45;&gt;Node3 -->
<g id="edge30" class="edge">
<title>Node19&#45;&gt;Node3</title>
<path fill="none" stroke="#191970" d="M311.4477,-235.4581C274.8117,-226.2991 218.5985,-212.2458 173.8676,-201.0631"/>
<polygon fill="#191970" stroke="#191970" points="174.4793,-197.6084 163.929,-198.5784 172.7815,-204.3994 174.4793,-197.6084"/>
</g>
<!-- Node19&#45;&gt;Node14 -->
<g id="edge29" class="edge">
<title>Node19&#45;&gt;Node14</title>
<path fill="none" stroke="#191970" d="M385.3966,-235.3906C425.309,-224.6718 489.955,-207.3105 533.3525,-195.6557"/>
<polygon fill="#191970" stroke="#191970" points="534.3354,-199.0159 543.0853,-193.0419 532.5197,-192.2554 534.3354,-199.0159"/>
</g>
<!-- Node20 -->
<g id="node21" class="node">
<title>Node20</title>
<polygon fill="#ffffff" stroke="#bfbfbf" points="461.6153,-174 461.6153,-193 499.6153,-193 499.6153,-174 461.6153,-174"/>
<text text-anchor="middle" x="480.6153" y="-181" font-family="Helvetica,sans-Serif" font-size="10.00" fill="#000000">map</text>
</g>
<!-- Node19&#45;&gt;Node20 -->
<g id="edge21" class="edge">
<title>Node19&#45;&gt;Node20</title>
<path fill="none" stroke="#191970" d="M372.3783,-235.4979C393.4236,-226.557 425.453,-212.5525 452.6153,-199 453.3052,-198.6558 454.0025,-198.3034 454.7044,-197.9447"/>
<polygon fill="#191970" stroke="#191970" points="456.6715,-200.8629 463.8601,-193.0799 453.387,-194.6813 456.6715,-200.8629"/>
</g>
<!-- Node21 -->
<g id="node22" class="node">
<title>Node21</title>
<polygon fill="#ffffff" stroke="#bfbfbf" points="195.6153,-174 195.6153,-193 227.6153,-193 227.6153,-174 195.6153,-174"/>
<text text-anchor="middle" x="211.6153" y="-181" font-family="Helvetica,sans-Serif" font-size="10.00" fill="#000000">set</text>
</g>
<!-- Node19&#45;&gt;Node21 -->
<g id="edge22" class="edge">
<title>Node19&#45;&gt;Node21</title>
<path fill="none" stroke="#191970" d="M322.5655,-235.4543C299.3121,-226.9049 265.1195,-213.5077 236.6153,-199 236.0749,-198.7249 235.5308,-198.442 234.9845,-198.1526"/>
<polygon fill="#191970" stroke="#191970" points="236.5987,-195.0436 226.1834,-193.1018 233.1145,-201.1149 236.5987,-195.0436"/>
</g>
<!-- Node22 -->
<g id="node23" class="node">
<title>Node22</title>
<g id="a_node23"><a xlink:href="AlignedAllocator_8hpp.html" target="_top" xlink:title="Core/Containers/AlignedAllocator.hpp">
<polygon fill="#ffffff" stroke="#000000" points="245.6153,-174 245.6153,-193 443.6153,-193 443.6153,-174 245.6153,-174"/>
<text text-anchor="middle" x="344.6153" y="-181" font-family="Helvetica,sans-Serif" font-size="10.00" fill="#000000">Core/Containers/AlignedAllocator.hpp</text>
</a>
</g>
</g>
<!-- Node19&#45;&gt;Node22 -->
<g id="edge23" class="edge">
<title>Node19&#45;&gt;Node22</title>
<path fill="none" stroke="#191970" d="M348.8341,-235.3906C348.141,-226.8657 347.1063,-214.1392 346.2351,-203.4235"/>
<polygon fill="#191970" stroke="#191970" points="349.7065,-202.9283 345.4076,-193.2449 342.7295,-203.4956 349.7065,-202.9283"/>
</g>
<!-- Node22&#45;&gt;Node15 -->
<g id="edge24" class="edge">
<title>Node22&#45;&gt;Node15</title>
<path fill="none" stroke="#191970" d="M409.6941,-173.9601C423.8371,-171.9428 438.7224,-169.8621 452.6153,-168 577.6479,-151.2417 611.8595,-151.0026 740.3555,-132.1315"/>
<polygon fill="#191970" stroke="#191970" points="741.2129,-135.5428 750.5935,-130.618 740.1892,-128.6181 741.2129,-135.5428"/>
</g>
<!-- Node23 -->
<g id="node24" class="node">
<title>Node23</title>
<polygon fill="#ffffff" stroke="#bfbfbf" points="279.1153,-112.5 279.1153,-131.5 362.1153,-131.5 362.1153,-112.5 279.1153,-112.5"/>
<text text-anchor="middle" x="320.6153" y="-119.5" font-family="Helvetica,sans-Serif" font-size="10.00" fill="#000000">mm_malloc.h</text>
</g>
<!-- Node22&#45;&gt;Node23 -->
<g id="edge25" class="edge">
<title>Node22&#45;&gt;Node23</title>
<path fill="none" stroke="#191970" d="M340.8653,-173.8906C337.4685,-165.1862 332.3623,-152.1015 328.1273,-141.2494"/>
<polygon fill="#191970" stroke="#191970" points="331.3142,-139.7882 324.4182,-131.7449 324.7932,-142.3331 331.3142,-139.7882"/>
</g>
<!-- Node24 -->
<g id="node25" class="node">
<title>Node24</title>
<polygon fill="#ffffff" stroke="#bfbfbf" points="380.1153,-112.5 380.1153,-131.5 433.1153,-131.5 433.1153,-112.5 380.1153,-112.5"/>
<text text-anchor="middle" x="406.6153" y="-119.5" font-family="Helvetica,sans-Serif" font-size="10.00" fill="#000000">cstddef</text>
</g>
<!-- Node22&#45;&gt;Node24 -->
<g id="edge26" class="edge">
<title>Node22&#45;&gt;Node24</title>
<path fill="none" stroke="#191970" d="M354.3028,-173.8906C363.7112,-164.5581 378.196,-150.1902 389.5402,-138.9374"/>
<polygon fill="#191970" stroke="#191970" points="392.1564,-141.2722 396.7912,-131.7449 387.2267,-136.3024 392.1564,-141.2722"/>
</g>
<!-- Node25 -->
<g id="node26" class="node">
<title>Node25</title>
<polygon fill="#ffffff" stroke="#bfbfbf" points="143.6153,-112.5 143.6153,-131.5 193.6153,-131.5 193.6153,-112.5 143.6153,-112.5"/>
<text text-anchor="middle" x="168.6153" y="-119.5" font-family="Helvetica,sans-Serif" font-size="10.00" fill="#000000">cstdint</text>
</g>
<!-- Node22&#45;&gt;Node25 -->
<g id="edge27" class="edge">
<title>Node22&#45;&gt;Node25</title>
<path fill="none" stroke="#191970" d="M317.1153,-173.8906C286.4497,-163.1751 236.7866,-145.8212 203.4333,-134.1665"/>
<polygon fill="#191970" stroke="#191970" points="204.2398,-130.7408 193.6449,-130.7461 201.9306,-137.349 204.2398,-130.7408"/>
</g>
<!-- Node26 -->
<g id="node27" class="node">
<title>Node26</title>
<polygon fill="#ffffff" stroke="#bfbfbf" points="212.1153,-112.5 212.1153,-131.5 261.1153,-131.5 261.1153,-112.5 212.1153,-112.5"/>
<text text-anchor="middle" x="236.6153" y="-119.5" font-family="Helvetica,sans-Serif" font-size="10.00" fill="#000000">cstdlib</text>
</g>
<!-- Node22&#45;&gt;Node26 -->
<g id="edge28" class="edge">
<title>Node22&#45;&gt;Node26</title>
<path fill="none" stroke="#191970" d="M327.7403,-173.8906C310.1455,-163.8713 282.3588,-148.0483 262.0912,-136.5071"/>
<polygon fill="#191970" stroke="#191970" points="263.7936,-133.4489 253.3718,-131.5419 260.3297,-139.5318 263.7936,-133.4489"/>
</g>
<!-- Node27&#45;&gt;Node1 -->
<g id="edge33" class="edge">
<title>Node27&#45;&gt;Node1</title>
<path fill="none" stroke="#191970" d="M774.7403,-235.3906C788.0553,-225.6421 808.8747,-210.3994 824.5101,-198.9521"/>
<polygon fill="#191970" stroke="#191970" points="826.5814,-201.7734 832.5825,-193.0419 822.4462,-196.1253 826.5814,-201.7734"/>
</g>
<!-- Node27&#45;&gt;Node15 -->
<g id="edge32" class="edge">
<title>Node27&#45;&gt;Node15</title>
<path fill="none" stroke="#191970" d="M764.5971,-235.3484C770.8405,-215.1397 785.3908,-168.0427 793.6364,-141.3528"/>
<polygon fill="#191970" stroke="#191970" points="797.0396,-142.1943 796.6474,-131.6068 790.3515,-140.1281 797.0396,-142.1943"/>
</g>
<!-- Node28&#45;&gt;Node0 -->
<g id="edge36" class="edge">
<title>Node28&#45;&gt;Node0</title>
<path fill="none" stroke="#191970" d="M924.5411,-310.5303C889.6006,-319.717 833.4965,-333.8354 787.6134,-345.0393"/>
<polygon fill="#191970" stroke="#191970" points="786.5788,-341.6889 777.6908,-347.4554 788.235,-348.4901 786.5788,-341.6889"/>
</g>
<!-- Node29 -->
<g id="node30" class="node">
<title>Node29</title>
<g id="a_node30"><a xlink:href="Log_8hpp.html" target="_top" xlink:title="Core/Utils/Log.hpp">
<polygon fill="#ffffff" stroke="#000000" points="892.6153,-235.5 892.6153,-254.5 998.6153,-254.5 998.6153,-235.5 892.6153,-235.5"/>
<text text-anchor="middle" x="945.6153" y="-242.5" font-family="Helvetica,sans-Serif" font-size="10.00" fill="#000000">Core/Utils/Log.hpp</text>
</a>
</g>
</g>
<!-- Node28&#45;&gt;Node29 -->
<g id="edge37" class="edge">
<title>Node28&#45;&gt;Node29</title>
<path fill="none" stroke="#191970" d="M955.5251,-291.2455C953.9592,-283.9382 951.7641,-273.6944 949.8377,-264.7046"/>
<polygon fill="#191970" stroke="#191970" points="953.1993,-263.6873 947.6816,-254.6427 946.3547,-265.1541 953.1993,-263.6873"/>
</g>
<!-- Node29&#45;&gt;Node1 -->
<g id="edge42" class="edge">
<title>Node29&#45;&gt;Node1</title>
<path fill="none" stroke="#191970" d="M929.9903,-235.3906C913.8456,-225.4616 888.4332,-209.833 869.713,-198.3201"/>
<polygon fill="#191970" stroke="#191970" points="871.4822,-195.2992 861.1306,-193.0419 867.8151,-201.2619 871.4822,-195.2992"/>
</g>
<!-- Node29&#45;&gt;Node8 -->
<g id="edge40" class="edge">
<title>Node29&#45;&gt;Node8</title>
<path fill="none" stroke="#191970" d="M945.1301,-235.4967C943.3399,-200.4391 937.0831,-77.9096 934.6213,-29.7"/>
<polygon fill="#191970" stroke="#191970" points="938.1122,-29.4301 934.1066,-19.6216 931.1213,-29.7871 938.1122,-29.4301"/>
</g>
<!-- Node29&#45;&gt;Node15 -->
<g id="edge38" class="edge">
<title>Node29&#45;&gt;Node15</title>
<path fill="none" stroke="#191970" d="M938.3596,-235.1385C926.5973,-219.5944 902.1024,-189.0064 876.6153,-168 861.7882,-155.7795 843.3657,-144.6527 828.2583,-136.4044"/>
<polygon fill="#191970" stroke="#191970" points="829.8138,-133.2675 819.3421,-131.6567 826.5237,-139.4461 829.8138,-133.2675"/>
</g>
<!-- Node30 -->
<g id="node31" class="node">
<title>Node30</title>
<polygon fill="#ffffff" stroke="#bfbfbf" points="961.6153,-174 961.6153,-193 1005.6153,-193 1005.6153,-174 961.6153,-174"/>
<text text-anchor="middle" x="983.6153" y="-181" font-family="Helvetica,sans-Serif" font-size="10.00" fill="#000000">ctime</text>
</g>
<!-- Node29&#45;&gt;Node30 -->
<g id="edge39" class="edge">
<title>Node29&#45;&gt;Node30</title>
<path fill="none" stroke="#191970" d="M951.5528,-235.3906C957.042,-226.5068 965.3506,-213.0601 972.1343,-202.0811"/>
<polygon fill="#191970" stroke="#191970" points="975.3151,-203.5917 977.5941,-193.2449 969.3602,-199.9122 975.3151,-203.5917"/>
</g>
<!-- Node31 -->
<g id="node32" class="node">
<title>Node31</title>
<polygon fill="#ffffff" stroke="#bfbfbf" points="1023.6153,-174 1023.6153,-193 1073.6153,-193 1073.6153,-174 1023.6153,-174"/>
<text text-anchor="middle" x="1048.6153" y="-181" font-family="Helvetica,sans-Serif" font-size="10.00" fill="#000000">stdio.h</text>
</g>
<!-- Node29&#45;&gt;Node31 -->
<g id="edge41" class="edge">
<title>Node29&#45;&gt;Node31</title>
<path fill="none" stroke="#191970" d="M961.7091,-235.3906C978.3382,-225.4616 1004.513,-209.833 1023.7947,-198.3201"/>
<polygon fill="#191970" stroke="#191970" points="1025.8429,-201.1736 1032.6346,-193.0419 1022.2543,-195.1634 1025.8429,-201.1736"/>
</g>
</g>
</svg>
        <g id="navigator" transform="translate(0 0)" fill="#404254">
                <rect fill="#f2f5e9" fill-opacity="0.5" stroke="#606060" stroke-width=".5" x="0" y="0" width="60" height="60"/>
                <use id="zoomplus" xlink:href="#zoomPlus" x="17" y="9" onmousedown="handleZoom(evt,'in')"/>
                <use id="zoomminus" xlink:href="#zoomMin" x="42" y="9" onmousedown="handleZoom(evt,'out')"/>
                <use id="reset" xlink:href="#resetDef" x="30" y="36" onmousedown="handleReset()"/>
                <g id="arrowUp" xlink:href="#dirArrow" transform="translate(30 24)" onmousedown="handlePan(0,-1)">
                  <use xlink:href="#rim" fill="#404040">
                        <set attributeName="fill" to="#808080" begin="arrowUp.mouseover" end="arrowUp.mouseout"/>
                  </use>
                  <path fill="none" stroke="white" stroke-width="1.5" d="M0,-3.0v7 M-2.5,-0.5L0,-3.0L2.5,-0.5"/>
                </g>
                <g id="arrowRight" xlink:href="#dirArrow" transform="rotate(90) translate(36 -43)" onmousedown="handlePan(1,0)">
                  <use xlink:href="#rim" fill="#404040">
                        <set attributeName="fill" to="#808080" begin="arrowRight.mouseover" end="arrowRight.mouseout"/>
                  </use>
                  <path fill="none" stroke="white" stroke-width="1.5" d="M0,-3.0v7 M-2.5,-0.5L0,-3.0L2.5,-0.5"/>
                </g>
                <g id="arrowDown" xlink:href="#dirArrow" transform="rotate(180) translate(-30 -48)" onmousedown="handlePan(0,1)">
                  <use xlink:href="#rim" fill="#404040">
                        <set attributeName="fill" to="#808080" begin="arrowDown.mouseover" end="arrowDown.mouseout"/>
                  </use>
                  <path fill="none" stroke="white" stroke-width="1.5" d="M0,-3.0v7 M-2.5,-0.5L0,-3.0L2.5,-0.5"/>
                </g>
                <g id="arrowLeft" xlink:href="#dirArrow" transform="rotate(270) translate(-36 17)" onmousedown="handlePan(-1,0)">
                  <use xlink:href="#rim" fill="#404040">
                        <set attributeName="fill" to="#808080" begin="arrowLeft.mouseover" end="arrowLeft.mouseout"/>
                  </use>
                  <path fill="none" stroke="white" stroke-width="1.5" d="M0,-3.0v7 M-2.5,-0.5L0,-3.0L2.5,-0.5"/>
                </g>
        </g>
        <svg viewBox="0 0 15 15" width="100%" height="30px" preserveAspectRatio="xMaxYMin meet">
         <g id="arrow_out" transform="scale(0.3 0.3)">
          <a xlink:href="AnimationData_8hpp__incl_org.svg" target="_base">
           <rect id="button" ry="5" rx="5" y="6" x="6" height="38" width="38"
                fill="#f2f5e9" fill-opacity="0.5" stroke="#606060" stroke-width="1.0"/>
           <path id="arrow"
             d="M 11.500037,31.436501 C 11.940474,20.09759 22.043105,11.32322 32.158766,21.979434 L 37.068811,17.246167 C 37.068811,17.246167 37.088388,32 37.088388,32 L 22.160133,31.978069 C 22.160133,31.978069 26.997745,27.140456 26.997745,27.140456 C 18.528582,18.264221 13.291696,25.230495 11.500037,31.436501 z"
             style="fill:#404040;"/>
          </a>
         </g>
        </svg>
</svg>
