<?xml version="1.0" encoding="UTF-8" standalone="no"?>
<!DOCTYPE svg PUBLIC "-//W3C//DTD SVG 1.1//EN"
 "http://www.w3.org/Graphics/SVG/1.1/DTD/svg11.dtd">
<!-- Generated by graphviz version 2.40.1 (20161225.0304)
 -->
<!-- Title: src/Core/Asset/AnimationData.inl Pages: 1 -->
<svg width="1127pt" height="442pt"
 viewBox="0.00 0.00 1126.62 442.00" xmlns="http://www.w3.org/2000/svg" xmlns:xlink="http://www.w3.org/1999/xlink">
<g id="graph0" class="graph" transform="scale(1 1) rotate(0) translate(4 438)">
<title>src/Core/Asset/AnimationData.inl</title>
<polygon fill="#ffffff" stroke="transparent" points="-4,4 -4,-438 1122.6207,-438 1122.6207,4 -4,4"/>
<!-- Node0 -->
<g id="node1" class="node">
<title>Node0</title>
<polygon fill="#bfbfbf" stroke="#000000" points="729.6207,-403.5 729.6207,-433.5 869.6207,-433.5 869.6207,-403.5 729.6207,-403.5"/>
<text text-anchor="start" x="737.6207" y="-421.5" font-family="Helvetica,sans-Serif" font-size="10.00" fill="#000000">src/Core/Asset/Animation</text>
<text text-anchor="middle" x="799.6207" y="-410.5" font-family="Helvetica,sans-Serif" font-size="10.00" fill="#000000">Data.inl</text>
</g>
<!-- Node1 -->
<g id="node2" class="node">
<title>Node1</title>
<g id="a_node2"><a xlink:href="AnimationData_8hpp.html" target="_top" xlink:title="Core/Asset/AnimationData.hpp">
<polygon fill="#ffffff" stroke="#000000" points="716.1207,-347.5 716.1207,-366.5 883.1207,-366.5 883.1207,-347.5 716.1207,-347.5"/>
<text text-anchor="middle" x="799.6207" y="-354.5" font-family="Helvetica,sans-Serif" font-size="10.00" fill="#000000">Core/Asset/AnimationData.hpp</text>
</a>
</g>
</g>
<!-- Node0&#45;&gt;Node1 -->
<g id="edge1" class="edge">
<title>Node0&#45;&gt;Node1</title>
<path fill="none" stroke="#191970" d="M793.7049,-403.2977C792.7653,-395.2945 792.6194,-385.3843 793.2672,-376.7889"/>
<polygon fill="#191970" stroke="#191970" points="796.7425,-377.2044 794.5123,-366.8469 789.7967,-376.3345 796.7425,-377.2044"/>
</g>
<!-- Node29 -->
<g id="node30" class="node">
<title>Node29</title>
<g id="a_node30"><a xlink:href="Log_8hpp.html" target="_top" xlink:title="Core/Utils/Log.hpp">
<polygon fill="#ffffff" stroke="#000000" points="993.6207,-291.5 993.6207,-310.5 1099.6207,-310.5 1099.6207,-291.5 993.6207,-291.5"/>
<text text-anchor="middle" x="1046.6207" y="-298.5" font-family="Helvetica,sans-Serif" font-size="10.00" fill="#000000">Core/Utils/Log.hpp</text>
</a>
</g>
</g>
<!-- Node0&#45;&gt;Node29 -->
<g id="edge37" class="edge">
<title>Node0&#45;&gt;Node29</title>
<path fill="none" stroke="#191970" d="M831.1543,-403.4992C879.236,-380.6263 970.2233,-337.3429 1017.0845,-315.0506"/>
<polygon fill="#191970" stroke="#191970" points="1018.8563,-318.0837 1026.383,-310.6272 1015.8492,-311.7624 1018.8563,-318.0837"/>
</g>
<!-- Node1&#45;&gt;Node0 -->
<g id="edge36" class="edge">
<title>Node1&#45;&gt;Node0</title>
<path fill="none" stroke="#191970" d="M804.729,-366.8469C806.091,-373.9883 806.6056,-383.9858 806.2725,-393.2849"/>
<polygon fill="#191970" stroke="#191970" points="802.7791,-393.068 805.5364,-403.2977 809.7603,-393.5813 802.7791,-393.068"/>
</g>
<!-- Node2 -->
<g id="node3" class="node">
<title>Node2</title>
<polygon fill="#ffffff" stroke="#bfbfbf" points="868.6207,-235.5 868.6207,-254.5 912.6207,-254.5 912.6207,-235.5 868.6207,-235.5"/>
<text text-anchor="middle" x="890.6207" y="-242.5" font-family="Helvetica,sans-Serif" font-size="10.00" fill="#000000">string</text>
</g>
<!-- Node1&#45;&gt;Node2 -->
<g id="edge2" class="edge">
<title>Node1&#45;&gt;Node2</title>
<path fill="none" stroke="#191970" d="M829.7099,-347.4587C847.3686,-340.2704 868.526,-328.5901 880.6207,-311 889.8429,-297.5874 891.9558,-279.0255 891.9844,-265.002"/>
<polygon fill="#191970" stroke="#191970" points="895.4796,-264.7944 891.6564,-254.9135 888.4833,-265.022 895.4796,-264.7944"/>
</g>
<!-- Node3 -->
<g id="node4" class="node">
<title>Node3</title>
<polygon fill="#ffffff" stroke="#bfbfbf" points="928.1207,-291.5 928.1207,-310.5 975.1207,-310.5 975.1207,-291.5 928.1207,-291.5"/>
<text text-anchor="middle" x="951.6207" y="-298.5" font-family="Helvetica,sans-Serif" font-size="10.00" fill="#000000">vector</text>
</g>
<!-- Node1&#45;&gt;Node3 -->
<g id="edge3" class="edge">
<title>Node1&#45;&gt;Node3</title>
<path fill="none" stroke="#191970" d="M825.7504,-347.3733C851.3022,-337.9594 890.3193,-323.5847 918.1349,-313.3369"/>
<polygon fill="#191970" stroke="#191970" points="919.6568,-316.5062 927.8302,-309.7649 917.2368,-309.9378 919.6568,-316.5062"/>
</g>
<!-- Node4 -->
<g id="node5" class="node">
<title>Node4</title>
<g id="a_node5"><a xlink:href="AnimationTime_8hpp.html" target="_top" xlink:title="Core/Animation/Animation\lTime.hpp">
<polygon fill="#ffffff" stroke="#000000" points="30.6207,-168.5 30.6207,-198.5 176.6207,-198.5 176.6207,-168.5 30.6207,-168.5"/>
<text text-anchor="start" x="38.6207" y="-186.5" font-family="Helvetica,sans-Serif" font-size="10.00" fill="#000000">Core/Animation/Animation</text>
<text text-anchor="middle" x="103.6207" y="-175.5" font-family="Helvetica,sans-Serif" font-size="10.00" fill="#000000">Time.hpp</text>
</a>
</g>
</g>
<!-- Node1&#45;&gt;Node4 -->
<g id="edge4" class="edge">
<title>Node1&#45;&gt;Node4</title>
<path fill="none" stroke="#191970" d="M715.7761,-353.5791C601.785,-346.3795 393.4629,-324.0663 230.6207,-255 196.8041,-240.6574 160.5005,-219.5887 135.4051,-204.0347"/>
<polygon fill="#191970" stroke="#191970" points="137.0246,-200.9192 126.692,-198.5765 133.3084,-206.8513 137.0246,-200.9192"/>
</g>
<!-- Node13 -->
<g id="node14" class="node">
<title>Node13</title>
<g id="a_node14"><a xlink:href="KeyTransform_8hpp.html" target="_top" xlink:title="Core/Animation/KeyTransform.hpp">
<polygon fill="#ffffff" stroke="#000000" points="428.1207,-291.5 428.1207,-310.5 611.1207,-310.5 611.1207,-291.5 428.1207,-291.5"/>
<text text-anchor="middle" x="519.6207" y="-298.5" font-family="Helvetica,sans-Serif" font-size="10.00" fill="#000000">Core/Animation/KeyTransform.hpp</text>
</a>
</g>
</g>
<!-- Node1&#45;&gt;Node13 -->
<g id="edge13" class="edge">
<title>Node1&#45;&gt;Node13</title>
<path fill="none" stroke="#191970" d="M751.8051,-347.4369C703.4826,-337.7724 628.7834,-322.8326 577.2271,-312.5213"/>
<polygon fill="#191970" stroke="#191970" points="577.7313,-309.0529 567.239,-310.5237 576.3584,-315.9169 577.7313,-309.0529"/>
</g>
<!-- Node16 -->
<g id="node17" class="node">
<title>Node16</title>
<g id="a_node17"><a xlink:href="RaCore_8hpp.html" target="_top" xlink:title="Core/RaCore.hpp">
<polygon fill="#ffffff" stroke="#000000" points="750.6207,-112.5 750.6207,-131.5 848.6207,-131.5 848.6207,-112.5 750.6207,-112.5"/>
<text text-anchor="middle" x="799.6207" y="-119.5" font-family="Helvetica,sans-Serif" font-size="10.00" fill="#000000">Core/RaCore.hpp</text>
</a>
</g>
</g>
<!-- Node1&#45;&gt;Node16 -->
<g id="edge35" class="edge">
<title>Node1&#45;&gt;Node16</title>
<path fill="none" stroke="#191970" d="M766.931,-347.4174C749.2844,-340.3899 729.0344,-328.8899 718.6207,-311 714.1489,-303.3179 716.6507,-299.6679 718.6207,-291 731.9588,-232.3109 768.313,-170.1984 787.4573,-140.2526"/>
<polygon fill="#191970" stroke="#191970" points="790.4983,-141.9965 793.0173,-131.7054 784.6305,-138.1795 790.4983,-141.9965"/>
</g>
<!-- Node28 -->
<g id="node29" class="node">
<title>Node28</title>
<g id="a_node29"><a xlink:href="AssetData_8hpp.html" target="_top" xlink:title="Core/Asset/AssetData.hpp">
<polygon fill="#ffffff" stroke="#000000" points="728.1207,-291.5 728.1207,-310.5 871.1207,-310.5 871.1207,-291.5 728.1207,-291.5"/>
<text text-anchor="middle" x="799.6207" y="-298.5" font-family="Helvetica,sans-Serif" font-size="10.00" fill="#000000">Core/Asset/AssetData.hpp</text>
</a>
</g>
</g>
<!-- Node1&#45;&gt;Node28 -->
<g id="edge32" class="edge">
<title>Node1&#45;&gt;Node28</title>
<path fill="none" stroke="#191970" d="M799.6207,-347.2455C799.6207,-339.9382 799.6207,-329.6944 799.6207,-320.7046"/>
<polygon fill="#191970" stroke="#191970" points="803.1208,-320.6426 799.6207,-310.6427 796.1208,-320.6427 803.1208,-320.6426"/>
</g>
<!-- Node5 -->
<g id="node6" class="node">
<title>Node5</title>
<g id="a_node6"><a xlink:href="CoreMacros_8hpp.html" target="_top" xlink:title="Core/CoreMacros.hpp">
<polygon fill="#ffffff" stroke="#000000" points="739.6207,-56.5 739.6207,-75.5 859.6207,-75.5 859.6207,-56.5 739.6207,-56.5"/>
<text text-anchor="middle" x="799.6207" y="-63.5" font-family="Helvetica,sans-Serif" font-size="10.00" fill="#000000">Core/CoreMacros.hpp</text>
</a>
</g>
</g>
<!-- Node4&#45;&gt;Node5 -->
<g id="edge5" class="edge">
<title>Node4&#45;&gt;Node5</title>
<path fill="none" stroke="#191970" d="M56.0802,-168.4832C21.8409,-155.3107 -14.8454,-134.7473 6.6207,-112 31.2492,-85.9014 540.1833,-71.8308 729.4982,-67.4841"/>
<polygon fill="#191970" stroke="#191970" points="729.7003,-70.9805 739.6181,-67.254 729.5411,-63.9823 729.7003,-70.9805"/>
</g>
<!-- Node11 -->
<g id="node12" class="node">
<title>Node11</title>
<polygon fill="#ffffff" stroke="#bfbfbf" points="16.1207,-112.5 16.1207,-131.5 63.1207,-131.5 63.1207,-112.5 16.1207,-112.5"/>
<text text-anchor="middle" x="39.6207" y="-119.5" font-family="Helvetica,sans-Serif" font-size="10.00" fill="#000000">cmath</text>
</g>
<!-- Node4&#45;&gt;Node11 -->
<g id="edge11" class="edge">
<title>Node4&#45;&gt;Node11</title>
<path fill="none" stroke="#191970" d="M87.8004,-168.2977C78.5464,-159.4052 66.8426,-148.1586 57.2876,-138.9769"/>
<polygon fill="#191970" stroke="#191970" points="59.5035,-136.2521 49.8679,-131.8469 54.6533,-141.2995 59.5035,-136.2521"/>
</g>
<!-- Node12 -->
<g id="node13" class="node">
<title>Node12</title>
<polygon fill="#ffffff" stroke="#bfbfbf" points="81.6207,-112.5 81.6207,-131.5 125.6207,-131.5 125.6207,-112.5 81.6207,-112.5"/>
<text text-anchor="middle" x="103.6207" y="-119.5" font-family="Helvetica,sans-Serif" font-size="10.00" fill="#000000">limits</text>
</g>
<!-- Node4&#45;&gt;Node12 -->
<g id="edge12" class="edge">
<title>Node4&#45;&gt;Node12</title>
<path fill="none" stroke="#191970" d="M103.6207,-168.2977C103.6207,-160.3834 103.6207,-150.6043 103.6207,-142.0759"/>
<polygon fill="#191970" stroke="#191970" points="107.1208,-141.8469 103.6207,-131.8469 100.1208,-141.847 107.1208,-141.8469"/>
</g>
<!-- Node6 -->
<g id="node7" class="node">
<title>Node6</title>
<polygon fill="#ffffff" stroke="#bfbfbf" points="807.6207,-.5 807.6207,-19.5 859.6207,-19.5 859.6207,-.5 807.6207,-.5"/>
<text text-anchor="middle" x="833.6207" y="-7.5" font-family="Helvetica,sans-Serif" font-size="10.00" fill="#000000">cassert</text>
</g>
<!-- Node5&#45;&gt;Node6 -->
<g id="edge6" class="edge">
<title>Node5&#45;&gt;Node6</title>
<path fill="none" stroke="#191970" d="M805.543,-56.2455C810.2234,-48.5367 816.8879,-37.5598 822.5495,-28.2348"/>
<polygon fill="#191970" stroke="#191970" points="825.5681,-30.007 827.7662,-19.6427 819.5846,-26.3741 825.5681,-30.007"/>
</g>
<!-- Node7 -->
<g id="node8" class="node">
<title>Node7</title>
<polygon fill="#ffffff" stroke="#bfbfbf" points="877.6207,-.5 877.6207,-19.5 923.6207,-19.5 923.6207,-.5 877.6207,-.5"/>
<text text-anchor="middle" x="900.6207" y="-7.5" font-family="Helvetica,sans-Serif" font-size="10.00" fill="#000000">cstdio</text>
</g>
<!-- Node5&#45;&gt;Node7 -->
<g id="edge7" class="edge">
<title>Node5&#45;&gt;Node7</title>
<path fill="none" stroke="#191970" d="M817.2135,-56.2455C832.9997,-47.4928 856.3845,-34.527 874.3794,-24.5496"/>
<polygon fill="#191970" stroke="#191970" points="876.1809,-27.5528 883.2294,-19.6427 872.7866,-21.4308 876.1809,-27.5528"/>
</g>
<!-- Node8 -->
<g id="node9" class="node">
<title>Node8</title>
<polygon fill="#ffffff" stroke="#bfbfbf" points="663.6207,-.5 663.6207,-19.5 723.6207,-19.5 723.6207,-.5 663.6207,-.5"/>
<text text-anchor="middle" x="693.6207" y="-7.5" font-family="Helvetica,sans-Serif" font-size="10.00" fill="#000000">iostream</text>
</g>
<!-- Node5&#45;&gt;Node8 -->
<g id="edge8" class="edge">
<title>Node5&#45;&gt;Node8</title>
<path fill="none" stroke="#191970" d="M781.1569,-56.2455C764.5132,-47.4527 739.8214,-34.4079 720.9015,-24.4125"/>
<polygon fill="#191970" stroke="#191970" points="722.3498,-21.2193 711.8729,-19.6427 719.0799,-27.4086 722.3498,-21.2193"/>
</g>
<!-- Node9 -->
<g id="node10" class="node">
<title>Node9</title>
<polygon fill="#ffffff" stroke="#bfbfbf" points="980.6207,-.5 980.6207,-19.5 1036.6207,-19.5 1036.6207,-.5 980.6207,-.5"/>
<text text-anchor="middle" x="1008.6207" y="-7.5" font-family="Helvetica,sans-Serif" font-size="10.00" fill="#000000">sstream</text>
</g>
<!-- Node5&#45;&gt;Node9 -->
<g id="edge9" class="edge">
<title>Node5&#45;&gt;Node9</title>
<path fill="none" stroke="#191970" d="M835.549,-56.3733C873.2614,-46.2685 932.3059,-30.448 970.7365,-20.1508"/>
<polygon fill="#191970" stroke="#191970" points="971.762,-23.4995 980.5154,-17.5306 969.9502,-16.7381 971.762,-23.4995"/>
</g>
<!-- Node10 -->
<g id="node11" class="node">
<title>Node10</title>
<polygon fill="#ffffff" stroke="#bfbfbf" points="741.6207,-.5 741.6207,-19.5 789.6207,-19.5 789.6207,-.5 741.6207,-.5"/>
<text text-anchor="middle" x="765.6207" y="-7.5" font-family="Helvetica,sans-Serif" font-size="10.00" fill="#000000">thread</text>
</g>
<!-- Node5&#45;&gt;Node10 -->
<g id="edge10" class="edge">
<title>Node5&#45;&gt;Node10</title>
<path fill="none" stroke="#191970" d="M793.6983,-56.2455C789.018,-48.5367 782.3534,-37.5598 776.6918,-28.2348"/>
<polygon fill="#191970" stroke="#191970" points="779.6567,-26.3741 771.4751,-19.6427 773.6732,-30.007 779.6567,-26.3741"/>
</g>
<!-- Node14 -->
<g id="node15" class="node">
<title>Node14</title>
<g id="a_node15"><a xlink:href="Interpolation_8hpp.html" target="_top" xlink:title="Core/Animation/Interpolation.hpp">
<polygon fill="#ffffff" stroke="#000000" points="240.1207,-235.5 240.1207,-254.5 419.1207,-254.5 419.1207,-235.5 240.1207,-235.5"/>
<text text-anchor="middle" x="329.6207" y="-242.5" font-family="Helvetica,sans-Serif" font-size="10.00" fill="#000000">Core/Animation/Interpolation.hpp</text>
</a>
</g>
</g>
<!-- Node13&#45;&gt;Node14 -->
<g id="edge14" class="edge">
<title>Node13&#45;&gt;Node14</title>
<path fill="none" stroke="#191970" d="M486.9585,-291.3733C455.0908,-281.9807 406.4675,-267.6496 371.7136,-257.4064"/>
<polygon fill="#191970" stroke="#191970" points="372.4382,-253.9711 361.8566,-254.5011 370.4591,-260.6855 372.4382,-253.9711"/>
</g>
<!-- Node20 -->
<g id="node21" class="node">
<title>Node20</title>
<g id="a_node21"><a xlink:href="KeyFrame_8hpp.html" target="_top" xlink:title="Core/Animation/KeyFrame.hpp">
<polygon fill="#ffffff" stroke="#000000" points="437.6207,-235.5 437.6207,-254.5 601.6207,-254.5 601.6207,-235.5 437.6207,-235.5"/>
<text text-anchor="middle" x="519.6207" y="-242.5" font-family="Helvetica,sans-Serif" font-size="10.00" fill="#000000">Core/Animation/KeyFrame.hpp</text>
</a>
</g>
</g>
<!-- Node13&#45;&gt;Node20 -->
<g id="edge21" class="edge">
<title>Node13&#45;&gt;Node20</title>
<path fill="none" stroke="#191970" d="M519.6207,-291.2455C519.6207,-283.9382 519.6207,-273.6944 519.6207,-264.7046"/>
<polygon fill="#191970" stroke="#191970" points="523.1208,-264.6426 519.6207,-254.6427 516.1208,-264.6427 523.1208,-264.6426"/>
</g>
<!-- Node15 -->
<g id="node16" class="node">
<title>Node15</title>
<g id="a_node16"><a xlink:href="Types_8hpp.html" target="_top" xlink:title="Core/Types.hpp">
<polygon fill="#ffffff" stroke="#000000" points="284.1207,-174 284.1207,-193 375.1207,-193 375.1207,-174 284.1207,-174"/>
<text text-anchor="middle" x="329.6207" y="-181" font-family="Helvetica,sans-Serif" font-size="10.00" fill="#000000">Core/Types.hpp</text>
</a>
</g>
</g>
<!-- Node14&#45;&gt;Node15 -->
<g id="edge15" class="edge">
<title>Node14&#45;&gt;Node15</title>
<path fill="none" stroke="#191970" d="M329.6207,-235.3906C329.6207,-226.8657 329.6207,-214.1392 329.6207,-203.4235"/>
<polygon fill="#191970" stroke="#191970" points="333.1208,-203.2448 329.6207,-193.2449 326.1208,-203.2449 333.1208,-203.2448"/>
</g>
<!-- Node15&#45;&gt;Node16 -->
<g id="edge16" class="edge">
<title>Node15&#45;&gt;Node16</title>
<path fill="none" stroke="#191970" d="M359.9421,-173.9354C367.9056,-171.7048 376.5311,-169.5356 384.6207,-168 538.0811,-138.8687 581.8297,-152.9523 740.4914,-132.0582"/>
<polygon fill="#191970" stroke="#191970" points="741.1654,-135.4992 750.6104,-130.6991 740.2335,-128.5615 741.1654,-135.4992"/>
</g>
<!-- Node17 -->
<g id="node18" class="node">
<title>Node17</title>
<polygon fill="#ffffff" stroke="#bfbfbf" points="144.1207,-112.5 144.1207,-131.5 213.1207,-131.5 213.1207,-112.5 144.1207,-112.5"/>
<text text-anchor="middle" x="178.6207" y="-119.5" font-family="Helvetica,sans-Serif" font-size="10.00" fill="#000000">Eigen/Core</text>
</g>
<!-- Node15&#45;&gt;Node17 -->
<g id="edge18" class="edge">
<title>Node15&#45;&gt;Node17</title>
<path fill="none" stroke="#191970" d="M306.0269,-173.8906C280.651,-163.5554 240.1126,-147.0447 211.5913,-135.4284"/>
<polygon fill="#191970" stroke="#191970" points="212.6303,-132.0725 202.0487,-131.5419 209.9898,-138.5554 212.6303,-132.0725"/>
</g>
<!-- Node18 -->
<g id="node19" class="node">
<title>Node18</title>
<polygon fill="#ffffff" stroke="#bfbfbf" points="231.1207,-112.5 231.1207,-131.5 326.1207,-131.5 326.1207,-112.5 231.1207,-112.5"/>
<text text-anchor="middle" x="278.6207" y="-119.5" font-family="Helvetica,sans-Serif" font-size="10.00" fill="#000000">Eigen/Geometry</text>
</g>
<!-- Node15&#45;&gt;Node18 -->
<g id="edge19" class="edge">
<title>Node15&#45;&gt;Node18</title>
<path fill="none" stroke="#191970" d="M321.6519,-173.8906C314.0616,-164.7376 302.4546,-150.7409 293.2075,-139.59"/>
<polygon fill="#191970" stroke="#191970" points="295.7793,-137.2083 286.7018,-131.7449 290.391,-141.6766 295.7793,-137.2083"/>
</g>
<!-- Node19 -->
<g id="node20" class="node">
<title>Node19</title>
<polygon fill="#ffffff" stroke="#bfbfbf" points="344.6207,-112.5 344.6207,-131.5 424.6207,-131.5 424.6207,-112.5 344.6207,-112.5"/>
<text text-anchor="middle" x="384.6207" y="-119.5" font-family="Helvetica,sans-Serif" font-size="10.00" fill="#000000">Eigen/Sparse</text>
</g>
<!-- Node15&#45;&gt;Node19 -->
<g id="edge20" class="edge">
<title>Node15&#45;&gt;Node19</title>
<path fill="none" stroke="#191970" d="M338.2144,-173.8906C346.4803,-164.6478 359.1633,-150.466 369.1824,-139.2628"/>
<polygon fill="#191970" stroke="#191970" points="371.8484,-141.5321 375.9058,-131.7449 366.6306,-136.8657 371.8484,-141.5321"/>
</g>
<!-- Node16&#45;&gt;Node5 -->
<g id="edge17" class="edge">
<title>Node16&#45;&gt;Node5</title>
<path fill="none" stroke="#191970" d="M799.6207,-112.2455C799.6207,-104.9382 799.6207,-94.6944 799.6207,-85.7046"/>
<polygon fill="#191970" stroke="#191970" points="803.1208,-85.6426 799.6207,-75.6427 796.1208,-85.6427 803.1208,-85.6426"/>
</g>
<!-- Node20&#45;&gt;Node4 -->
<g id="edge31" class="edge">
<title>Node20&#45;&gt;Node4</title>
<path fill="none" stroke="#191970" d="M455.0771,-235.4581C382.8547,-224.781 265.6419,-207.4527 186.6474,-195.7744"/>
<polygon fill="#191970" stroke="#191970" points="187.1322,-192.3081 176.7279,-194.3079 186.1084,-199.2328 187.1322,-192.3081"/>
</g>
<!-- Node20&#45;&gt;Node15 -->
<g id="edge30" class="edge">
<title>Node20&#45;&gt;Node15</title>
<path fill="none" stroke="#191970" d="M489.9332,-235.3906C457.3061,-224.8298 404.7581,-207.8208 368.7782,-196.1747"/>
<polygon fill="#191970" stroke="#191970" points="369.6916,-192.7916 359.0997,-193.0419 367.5359,-199.4514 369.6916,-192.7916"/>
</g>
<!-- Node21 -->
<g id="node22" class="node">
<title>Node21</title>
<polygon fill="#ffffff" stroke="#bfbfbf" points="659.6207,-174 659.6207,-193 697.6207,-193 697.6207,-174 659.6207,-174"/>
<text text-anchor="middle" x="678.6207" y="-181" font-family="Helvetica,sans-Serif" font-size="10.00" fill="#000000">map</text>
</g>
<!-- Node20&#45;&gt;Node21 -->
<g id="edge22" class="edge">
<title>Node20&#45;&gt;Node21</title>
<path fill="none" stroke="#191970" d="M551.432,-235.4822C578.3255,-227.0469 617.6306,-213.7973 650.6207,-199 651.4635,-198.622 652.3149,-198.2277 653.1703,-197.8208"/>
<polygon fill="#191970" stroke="#191970" points="654.9741,-200.8291 662.2732,-193.1497 651.7783,-194.6012 654.9741,-200.8291"/>
</g>
<!-- Node22 -->
<g id="node23" class="node">
<title>Node22</title>
<polygon fill="#ffffff" stroke="#bfbfbf" points="393.6207,-174 393.6207,-193 425.6207,-193 425.6207,-174 393.6207,-174"/>
<text text-anchor="middle" x="409.6207" y="-181" font-family="Helvetica,sans-Serif" font-size="10.00" fill="#000000">set</text>
</g>
<!-- Node20&#45;&gt;Node22 -->
<g id="edge23" class="edge">
<title>Node20&#45;&gt;Node22</title>
<path fill="none" stroke="#191970" d="M501.209,-235.4376C483.8747,-226.3404 457.2643,-212.1314 434.6207,-199 434.3225,-198.8271 434.0226,-198.6525 433.7214,-198.4765"/>
<polygon fill="#191970" stroke="#191970" points="435.2442,-195.3081 424.8709,-193.1527 431.636,-201.3065 435.2442,-195.3081"/>
</g>
<!-- Node23 -->
<g id="node24" class="node">
<title>Node23</title>
<g id="a_node24"><a xlink:href="AlignedAllocator_8hpp.html" target="_top" xlink:title="Core/Containers/AlignedAllocator.hpp">
<polygon fill="#ffffff" stroke="#000000" points="443.6207,-174 443.6207,-193 641.6207,-193 641.6207,-174 443.6207,-174"/>
<text text-anchor="middle" x="542.6207" y="-181" font-family="Helvetica,sans-Serif" font-size="10.00" fill="#000000">Core/Containers/AlignedAllocator.hpp</text>
</a>
</g>
</g>
<!-- Node20&#45;&gt;Node23 -->
<g id="edge24" class="edge">
<title>Node20&#45;&gt;Node23</title>
<path fill="none" stroke="#191970" d="M523.2144,-235.3906C526.4697,-226.6862 531.3632,-213.6015 535.4217,-202.7494"/>
<polygon fill="#191970" stroke="#191970" points="538.7515,-203.8373 538.9762,-193.2449 532.195,-201.3852 538.7515,-203.8373"/>
</g>
<!-- Node23&#45;&gt;Node16 -->
<g id="edge25" class="edge">
<title>Node23&#45;&gt;Node16</title>
<path fill="none" stroke="#191970" d="M582.4949,-173.9581C627.5113,-163.1857 700.8205,-145.6428 749.6286,-133.9631"/>
<polygon fill="#191970" stroke="#191970" points="750.742,-137.2955 759.6529,-131.5643 749.1129,-130.4877 750.742,-137.2955"/>
</g>
<!-- Node24 -->
<g id="node25" class="node">
<title>Node24</title>
<polygon fill="#ffffff" stroke="#bfbfbf" points="510.1207,-112.5 510.1207,-131.5 593.1207,-131.5 593.1207,-112.5 510.1207,-112.5"/>
<text text-anchor="middle" x="551.6207" y="-119.5" font-family="Helvetica,sans-Serif" font-size="10.00" fill="#000000">mm_malloc.h</text>
</g>
<!-- Node23&#45;&gt;Node24 -->
<g id="edge26" class="edge">
<title>Node23&#45;&gt;Node24</title>
<path fill="none" stroke="#191970" d="M544.0269,-173.8906C545.2745,-165.3657 547.1369,-152.6392 548.705,-141.9235"/>
<polygon fill="#191970" stroke="#191970" points="552.2096,-142.1463 550.1946,-131.7449 545.2834,-141.1326 552.2096,-142.1463"/>
</g>
<!-- Node25 -->
<g id="node26" class="node">
<title>Node25</title>
<polygon fill="#ffffff" stroke="#bfbfbf" points="611.1207,-112.5 611.1207,-131.5 664.1207,-131.5 664.1207,-112.5 611.1207,-112.5"/>
<text text-anchor="middle" x="637.6207" y="-119.5" font-family="Helvetica,sans-Serif" font-size="10.00" fill="#000000">cstddef</text>
</g>
<!-- Node23&#45;&gt;Node25 -->
<g id="edge27" class="edge">
<title>Node23&#45;&gt;Node25</title>
<path fill="none" stroke="#191970" d="M557.4644,-173.8906C572.6625,-164.0519 596.5055,-148.6167 614.2413,-137.1351"/>
<polygon fill="#191970" stroke="#191970" points="616.3887,-139.9144 622.8811,-131.5419 612.5846,-134.0382 616.3887,-139.9144"/>
</g>
<!-- Node26 -->
<g id="node27" class="node">
<title>Node26</title>
<polygon fill="#ffffff" stroke="#bfbfbf" points="682.6207,-112.5 682.6207,-131.5 732.6207,-131.5 732.6207,-112.5 682.6207,-112.5"/>
<text text-anchor="middle" x="707.6207" y="-119.5" font-family="Helvetica,sans-Serif" font-size="10.00" fill="#000000">cstdint</text>
</g>
<!-- Node23&#45;&gt;Node26 -->
<g id="edge28" class="edge">
<title>Node23&#45;&gt;Node26</title>
<path fill="none" stroke="#191970" d="M568.4019,-173.8906C596.5363,-163.4042 641.7274,-146.5602 672.9527,-134.9217"/>
<polygon fill="#191970" stroke="#191970" points="674.4129,-138.1127 682.5607,-131.3405 671.968,-131.5535 674.4129,-138.1127"/>
</g>
<!-- Node27 -->
<g id="node28" class="node">
<title>Node27</title>
<polygon fill="#ffffff" stroke="#bfbfbf" points="443.1207,-112.5 443.1207,-131.5 492.1207,-131.5 492.1207,-112.5 443.1207,-112.5"/>
<text text-anchor="middle" x="467.6207" y="-119.5" font-family="Helvetica,sans-Serif" font-size="10.00" fill="#000000">cstdlib</text>
</g>
<!-- Node23&#45;&gt;Node27 -->
<g id="edge29" class="edge">
<title>Node23&#45;&gt;Node27</title>
<path fill="none" stroke="#191970" d="M530.9019,-173.8906C519.3019,-164.3786 501.3227,-149.6357 487.4886,-138.2917"/>
<polygon fill="#191970" stroke="#191970" points="489.4566,-135.3792 479.5046,-131.7449 485.018,-140.7921 489.4566,-135.3792"/>
</g>
<!-- Node28&#45;&gt;Node2 -->
<g id="edge34" class="edge">
<title>Node28&#45;&gt;Node2</title>
<path fill="none" stroke="#191970" d="M815.4717,-291.2455C829.4339,-282.6534 849.9935,-270.0014 866.0802,-260.1018"/>
<polygon fill="#191970" stroke="#191970" points="868.2691,-262.8645 874.9513,-254.6427 864.6004,-256.9029 868.2691,-262.8645"/>
</g>
<!-- Node28&#45;&gt;Node16 -->
<g id="edge33" class="edge">
<title>Node28&#45;&gt;Node16</title>
<path fill="none" stroke="#191970" d="M799.6207,-291.3762C799.6207,-263.2097 799.6207,-180.5126 799.6207,-142.0713"/>
<polygon fill="#191970" stroke="#191970" points="803.1208,-141.6714 799.6207,-131.6714 796.1208,-141.6714 803.1208,-141.6714"/>
</g>
<!-- Node29&#45;&gt;Node2 -->
<g id="edge42" class="edge">
<title>Node29&#45;&gt;Node2</title>
<path fill="none" stroke="#191970" d="M1019.8033,-291.3733C992.8406,-281.6944 951.2691,-266.7712 922.604,-256.4812"/>
<polygon fill="#191970" stroke="#191970" points="923.6427,-253.1354 913.0482,-253.0509 921.2776,-259.7238 923.6427,-253.1354"/>
</g>
<!-- Node29&#45;&gt;Node9 -->
<g id="edge40" class="edge">
<title>Node29&#45;&gt;Node9</title>
<path fill="none" stroke="#191970" d="M1046.6207,-291.2511C1046.6207,-271.1182 1046.6207,-223.4826 1046.6207,-183.5 1046.6207,-183.5 1046.6207,-183.5 1046.6207,-122 1046.6207,-87.6118 1030.3573,-50.2832 1019.1096,-28.5791"/>
<polygon fill="#191970" stroke="#191970" points="1022.0517,-26.6605 1014.2277,-19.5166 1015.889,-29.9804 1022.0517,-26.6605"/>
</g>
<!-- Node29&#45;&gt;Node16 -->
<g id="edge38" class="edge">
<title>Node29&#45;&gt;Node16</title>
<path fill="none" stroke="#191970" d="M1025.5387,-291.3759C1007.4755,-282.7775 981.059,-269.3523 959.6207,-255 904.4356,-218.0554 845.9921,-165.5786 817.4331,-138.934"/>
<polygon fill="#191970" stroke="#191970" points="819.5657,-136.1352 809.8812,-131.8385 814.7725,-141.2367 819.5657,-136.1352"/>
</g>
<!-- Node30 -->
<g id="node31" class="node">
<title>Node30</title>
<polygon fill="#ffffff" stroke="#bfbfbf" points="1074.6207,-235.5 1074.6207,-254.5 1118.6207,-254.5 1118.6207,-235.5 1074.6207,-235.5"/>
<text text-anchor="middle" x="1096.6207" y="-242.5" font-family="Helvetica,sans-Serif" font-size="10.00" fill="#000000">ctime</text>
</g>
<!-- Node29&#45;&gt;Node30 -->
<g id="edge39" class="edge">
<title>Node29&#45;&gt;Node30</title>
<path fill="none" stroke="#191970" d="M1055.33,-291.2455C1062.428,-283.2958 1072.6291,-271.8706 1081.1157,-262.3656"/>
<polygon fill="#191970" stroke="#191970" points="1083.9617,-264.4331 1088.0111,-254.6427 1078.7402,-259.771 1083.9617,-264.4331"/>
</g>
<!-- Node31 -->
<g id="node32" class="node">
<title>Node31</title>
<polygon fill="#ffffff" stroke="#bfbfbf" points="968.6207,-235.5 968.6207,-254.5 1018.6207,-254.5 1018.6207,-235.5 968.6207,-235.5"/>
<text text-anchor="middle" x="993.6207" y="-242.5" font-family="Helvetica,sans-Serif" font-size="10.00" fill="#000000">stdio.h</text>
</g>
<!-- Node29&#45;&gt;Node31 -->
<g id="edge41" class="edge">
<title>Node29&#45;&gt;Node31</title>
<path fill="none" stroke="#191970" d="M1037.3888,-291.2455C1029.7889,-283.2155 1018.8329,-271.6394 1009.7839,-262.0781"/>
<polygon fill="#191970" stroke="#191970" points="1012.1627,-259.4998 1002.7468,-254.6427 1007.0786,-264.3115 1012.1627,-259.4998"/>
</g>
</g>
</svg>
