<?xml version="1.0" encoding="UTF-8" standalone="no"?>
<!DOCTYPE svg PUBLIC "-//W3C//DTD SVG 1.1//EN"
 "http://www.w3.org/Graphics/SVG/1.1/DTD/svg11.dtd">
<!-- Generated by graphviz version 2.40.1 (20161225.0304)
 -->
<!-- Title: src/IO/AssimpLoader/AssimpAnimationDataLoader.cpp Pages: 1 -->
<svg width="1902pt" height="453pt"
 viewBox="0.00 0.00 1902.06 453.00" xmlns="http://www.w3.org/2000/svg" xmlns:xlink="http://www.w3.org/1999/xlink">
<g id="graph0" class="graph" transform="scale(1 1) rotate(0) translate(4 449)">
<title>src/IO/AssimpLoader/AssimpAnimationDataLoader.cpp</title>
<polygon fill="#ffffff" stroke="transparent" points="-4,4 -4,-449 1898.0635,-449 1898.0635,4 -4,4"/>
<!-- Node0 -->
<g id="node1" class="node">
<title>Node0</title>
<polygon fill="#bfbfbf" stroke="#000000" points="795.5635,-414.5 795.5635,-444.5 977.5635,-444.5 977.5635,-414.5 795.5635,-414.5"/>
<text text-anchor="start" x="803.5635" y="-432.5" font-family="Helvetica,sans-Serif" font-size="10.00" fill="#000000">src/IO/AssimpLoader</text>
<text text-anchor="middle" x="886.5635" y="-421.5" font-family="Helvetica,sans-Serif" font-size="10.00" fill="#000000">/AssimpAnimationDataLoader.cpp</text>
</g>
<!-- Node1 -->
<g id="node2" class="node">
<title>Node1</title>
<g id="a_node2"><a xlink:href="AssimpAnimationDataLoader_8hpp.html" target="_top" xlink:title="IO/AssimpLoader/AssimpAnimation\lDataLoader.hpp">
<polygon fill="#ffffff" stroke="#000000" points="465.5635,-347.5 465.5635,-377.5 653.5635,-377.5 653.5635,-347.5 465.5635,-347.5"/>
<text text-anchor="start" x="473.5635" y="-365.5" font-family="Helvetica,sans-Serif" font-size="10.00" fill="#000000">IO/AssimpLoader/AssimpAnimation</text>
<text text-anchor="middle" x="559.5635" y="-354.5" font-family="Helvetica,sans-Serif" font-size="10.00" fill="#000000">DataLoader.hpp</text>
</a>
</g>
</g>
<!-- Node0&#45;&gt;Node1 -->
<g id="edge1" class="edge">
<title>Node0&#45;&gt;Node1</title>
<path fill="none" stroke="#191970" d="M813.1784,-414.4639C762.6732,-404.1157 695.4848,-390.3493 642.9521,-379.5857"/>
<polygon fill="#191970" stroke="#191970" points="643.4852,-376.1223 632.9861,-377.5438 642.08,-382.9798 643.4852,-376.1223"/>
</g>
<!-- Node15 -->
<g id="node16" class="node">
<title>Node15</title>
<polygon fill="#ffffff" stroke="#bfbfbf" points="1010.0635,-353 1010.0635,-372 1101.0635,-372 1101.0635,-353 1010.0635,-353"/>
<text text-anchor="middle" x="1055.5635" y="-360" font-family="Helvetica,sans-Serif" font-size="10.00" fill="#000000">assimp/mesh.h</text>
</g>
<!-- Node0&#45;&gt;Node15 -->
<g id="edge16" class="edge">
<title>Node0&#45;&gt;Node15</title>
<path fill="none" stroke="#191970" d="M924.4904,-414.4639C953.7406,-402.8677 993.8182,-386.9789 1021.9312,-375.8335"/>
<polygon fill="#191970" stroke="#191970" points="1023.3325,-379.0431 1031.3387,-372.1039 1020.7527,-372.5358 1023.3325,-379.0431"/>
</g>
<!-- Node16 -->
<g id="node17" class="node">
<title>Node16</title>
<polygon fill="#ffffff" stroke="#bfbfbf" points="1119.5635,-353 1119.5635,-372 1211.5635,-372 1211.5635,-353 1119.5635,-353"/>
<text text-anchor="middle" x="1165.5635" y="-360" font-family="Helvetica,sans-Serif" font-size="10.00" fill="#000000">assimp/scene.h</text>
</g>
<!-- Node0&#45;&gt;Node16 -->
<g id="edge17" class="edge">
<title>Node0&#45;&gt;Node16</title>
<path fill="none" stroke="#191970" d="M955.8963,-414.4741C1000.2547,-404.6351 1058.9529,-391.197 1110.5635,-378 1114.6183,-376.9632 1118.8303,-375.8472 1123.0376,-374.7062"/>
<polygon fill="#191970" stroke="#191970" points="1124.0593,-378.0552 1132.77,-372.0241 1122.1995,-371.3067 1124.0593,-378.0552"/>
</g>
<!-- Node17 -->
<g id="node18" class="node">
<title>Node17</title>
<polygon fill="#ffffff" stroke="#bfbfbf" points="639.5635,-174 639.5635,-193 671.5635,-193 671.5635,-174 639.5635,-174"/>
<text text-anchor="middle" x="655.5635" y="-181" font-family="Helvetica,sans-Serif" font-size="10.00" fill="#000000">set</text>
</g>
<!-- Node0&#45;&gt;Node17 -->
<g id="edge18" class="edge">
<title>Node0&#45;&gt;Node17</title>
<path fill="none" stroke="#191970" d="M853.174,-414.3419C814.2881,-395.2025 750.321,-358.9035 710.5635,-311 683.3513,-278.2121 667.4972,-229.9213 660.2891,-203.1647"/>
<polygon fill="#191970" stroke="#191970" points="663.59,-201.945 657.7214,-193.124 656.8082,-203.6794 663.59,-201.945"/>
</g>
<!-- Node18 -->
<g id="node19" class="node">
<title>Node18</title>
<g id="a_node19"><a xlink:href="KeyRotation_8hpp.html" target="_top" xlink:title="Core/Animation/KeyRotation.hpp">
<polygon fill="#ffffff" stroke="#000000" points="920.0635,-291.5 920.0635,-310.5 1095.0635,-310.5 1095.0635,-291.5 920.0635,-291.5"/>
<text text-anchor="middle" x="1007.5635" y="-298.5" font-family="Helvetica,sans-Serif" font-size="10.00" fill="#000000">Core/Animation/KeyRotation.hpp</text>
</a>
</g>
</g>
<!-- Node0&#45;&gt;Node18 -->
<g id="edge19" class="edge">
<title>Node0&#45;&gt;Node18</title>
<path fill="none" stroke="#191970" d="M882.9744,-414.1961C879.7153,-396.3024 877.3375,-366.639 891.5635,-347 903.1438,-331.0134 921.1759,-320.5795 939.6001,-313.7708"/>
<polygon fill="#191970" stroke="#191970" points="940.8751,-317.0347 949.2384,-310.5305 938.6444,-310.3997 940.8751,-317.0347"/>
</g>
<!-- Node32 -->
<g id="node32" class="node">
<title>Node32</title>
<g id="a_node32"><a xlink:href="KeyScaling_8hpp.html" target="_top" xlink:title="Core/Animation/KeyScaling.hpp">
<polygon fill="#ffffff" stroke="#000000" points="1113.5635,-291.5 1113.5635,-310.5 1283.5635,-310.5 1283.5635,-291.5 1113.5635,-291.5"/>
<text text-anchor="middle" x="1198.5635" y="-298.5" font-family="Helvetica,sans-Serif" font-size="10.00" fill="#000000">Core/Animation/KeyScaling.hpp</text>
</a>
</g>
</g>
<!-- Node0&#45;&gt;Node32 -->
<g id="edge37" class="edge">
<title>Node0&#45;&gt;Node32</title>
<path fill="none" stroke="#191970" d="M890.0718,-414.297C895.2841,-395.3485 906.9828,-363.4586 929.5635,-347 944.3508,-336.2219 1039.249,-321.7008 1112.1869,-311.8791"/>
<polygon fill="#191970" stroke="#191970" points="1112.8738,-315.3185 1122.3224,-310.5253 1111.947,-308.3801 1112.8738,-315.3185"/>
</g>
<!-- Node33 -->
<g id="node33" class="node">
<title>Node33</title>
<g id="a_node33"><a xlink:href="KeyTranslation_8hpp.html" target="_top" xlink:title="Core/Animation/KeyTranslation.hpp">
<polygon fill="#ffffff" stroke="#000000" points="1301.5635,-291.5 1301.5635,-310.5 1489.5635,-310.5 1489.5635,-291.5 1301.5635,-291.5"/>
<text text-anchor="middle" x="1395.5635" y="-298.5" font-family="Helvetica,sans-Serif" font-size="10.00" fill="#000000">Core/Animation/KeyTranslation.hpp</text>
</a>
</g>
</g>
<!-- Node0&#45;&gt;Node33 -->
<g id="edge40" class="edge">
<title>Node0&#45;&gt;Node33</title>
<path fill="none" stroke="#191970" d="M899.1366,-414.4439C917.4918,-392.8787 951.2129,-354.9148 967.5635,-347 974.8168,-343.4889 1166.6808,-323.8182 1291.0336,-311.3632"/>
<polygon fill="#191970" stroke="#191970" points="1291.7537,-314.8088 1301.3555,-310.3305 1291.0567,-307.8435 1291.7537,-314.8088"/>
</g>
<!-- Node34 -->
<g id="node34" class="node">
<title>Node34</title>
<g id="a_node34"><a xlink:href="AnimationData_8hpp.html" target="_top" xlink:title="Core/Asset/AnimationData.hpp">
<polygon fill="#ffffff" stroke="#000000" points="196.0635,-353 196.0635,-372 363.0635,-372 363.0635,-353 196.0635,-353"/>
<text text-anchor="middle" x="279.5635" y="-360" font-family="Helvetica,sans-Serif" font-size="10.00" fill="#000000">Core/Asset/AnimationData.hpp</text>
</a>
</g>
</g>
<!-- Node0&#45;&gt;Node34 -->
<g id="edge43" class="edge">
<title>Node0&#45;&gt;Node34</title>
<path fill="none" stroke="#191970" d="M795.3611,-419.4332C681.6332,-406.88 488.2251,-385.5318 373.3195,-372.8487"/>
<polygon fill="#191970" stroke="#191970" points="373.4581,-369.3428 363.1344,-371.7245 372.69,-376.3005 373.4581,-369.3428"/>
</g>
<!-- Node39 -->
<g id="node39" class="node">
<title>Node39</title>
<g id="a_node39"><a xlink:href="Log_8hpp.html" target="_top" xlink:title="Core/Utils/Log.hpp">
<polygon fill="#ffffff" stroke="#000000" points="41.5635,-235.5 41.5635,-254.5 147.5635,-254.5 147.5635,-235.5 41.5635,-235.5"/>
<text text-anchor="middle" x="94.5635" y="-242.5" font-family="Helvetica,sans-Serif" font-size="10.00" fill="#000000">Core/Utils/Log.hpp</text>
</a>
</g>
</g>
<!-- Node0&#45;&gt;Node39 -->
<g id="edge62" class="edge">
<title>Node0&#45;&gt;Node39</title>
<path fill="none" stroke="#191970" d="M795.457,-425.9586C633.1085,-419.1219 300.1553,-402.5781 186.5635,-378 102.3172,-359.7714 53.8738,-381.6981 4.5635,-311 -11.7398,-287.6252 20.3992,-269.3236 50.6982,-257.9816"/>
<polygon fill="#191970" stroke="#191970" points="52.1475,-261.1815 60.4072,-254.5461 49.8124,-254.5824 52.1475,-261.1815"/>
</g>
<!-- Node42 -->
<g id="node42" class="node">
<title>Node42</title>
<g id="a_node42"><a xlink:href="AssimpWrapper_8hpp.html" target="_top" xlink:title="IO/AssimpLoader/AssimpWrapper.hpp">
<polygon fill="#ffffff" stroke="#000000" points="1508.0635,-291.5 1508.0635,-310.5 1707.0635,-310.5 1707.0635,-291.5 1508.0635,-291.5"/>
<text text-anchor="middle" x="1607.5635" y="-298.5" font-family="Helvetica,sans-Serif" font-size="10.00" fill="#000000">IO/AssimpLoader/AssimpWrapper.hpp</text>
</a>
</g>
</g>
<!-- Node0&#45;&gt;Node42 -->
<g id="edge63" class="edge">
<title>Node0&#45;&gt;Node42</title>
<path fill="none" stroke="#191970" d="M910.5541,-414.2913C925.9533,-404.3257 946.2381,-390.8162 963.5635,-378 981.0862,-365.0379 981.3087,-355.0502 1001.5635,-347 1101.6539,-307.2196 1372.8194,-319.3364 1497.6075,-310.9862"/>
<polygon fill="#191970" stroke="#191970" points="1498.064,-314.4621 1507.7777,-310.2319 1497.5462,-307.4813 1498.064,-314.4621"/>
</g>
<!-- Node2 -->
<g id="node3" class="node">
<title>Node2</title>
<g id="a_node3"><a xlink:href="AnimationTime_8hpp.html" target="_top" xlink:title="Core/Animation/Animation\lTime.hpp">
<polygon fill="#ffffff" stroke="#000000" points="475.5635,-168.5 475.5635,-198.5 621.5635,-198.5 621.5635,-168.5 475.5635,-168.5"/>
<text text-anchor="start" x="483.5635" y="-186.5" font-family="Helvetica,sans-Serif" font-size="10.00" fill="#000000">Core/Animation/Animation</text>
<text text-anchor="middle" x="548.5635" y="-175.5" font-family="Helvetica,sans-Serif" font-size="10.00" fill="#000000">Time.hpp</text>
</a>
</g>
</g>
<!-- Node1&#45;&gt;Node2 -->
<g id="edge2" class="edge">
<title>Node1&#45;&gt;Node2</title>
<path fill="none" stroke="#191970" d="M595.0567,-347.4687C610.1085,-339.0984 626.1026,-327.0734 634.5635,-311 638.704,-303.1343 636.2175,-299.7336 634.5635,-291 629.5877,-264.7264 628.399,-256.5476 612.5635,-235 604.0836,-223.4612 592.4104,-213.0514 581.3533,-204.6601"/>
<polygon fill="#191970" stroke="#191970" points="583.2288,-201.6965 573.081,-198.6514 579.1149,-207.3601 583.2288,-201.6965"/>
</g>
<!-- Node11 -->
<g id="node12" class="node">
<title>Node11</title>
<g id="a_node12"><a xlink:href="DataLoader_8hpp.html" target="_top" xlink:title="Core/Asset/DataLoader.hpp">
<polygon fill="#ffffff" stroke="#000000" points="476.0635,-291.5 476.0635,-310.5 625.0635,-310.5 625.0635,-291.5 476.0635,-291.5"/>
<text text-anchor="middle" x="550.5635" y="-298.5" font-family="Helvetica,sans-Serif" font-size="10.00" fill="#000000">Core/Asset/DataLoader.hpp</text>
</a>
</g>
</g>
<!-- Node1&#45;&gt;Node11 -->
<g id="edge11" class="edge">
<title>Node1&#45;&gt;Node11</title>
<path fill="none" stroke="#191970" d="M557.3388,-347.2977C556.1676,-339.2945 554.7173,-329.3843 553.4595,-320.7889"/>
<polygon fill="#191970" stroke="#191970" points="556.9157,-320.2347 552.0046,-310.8469 549.9895,-321.2484 556.9157,-320.2347"/>
</g>
<!-- Node14 -->
<g id="node15" class="node">
<title>Node14</title>
<g id="a_node15"><a xlink:href="RaIO_8hpp.html" target="_top" xlink:title="IO/RaIO.hpp">
<polygon fill="#ffffff" stroke="#000000" points="383.5635,-291.5 383.5635,-310.5 457.5635,-310.5 457.5635,-291.5 383.5635,-291.5"/>
<text text-anchor="middle" x="420.5635" y="-298.5" font-family="Helvetica,sans-Serif" font-size="10.00" fill="#000000">IO/RaIO.hpp</text>
</a>
</g>
</g>
<!-- Node1&#45;&gt;Node14 -->
<g id="edge14" class="edge">
<title>Node1&#45;&gt;Node14</title>
<path fill="none" stroke="#191970" d="M525.5603,-347.4554C502.8764,-337.419 473.2962,-324.3314 451.3156,-314.6061"/>
<polygon fill="#191970" stroke="#191970" points="452.6647,-311.3758 442.1036,-310.5303 449.8323,-317.7772 452.6647,-311.3758"/>
</g>
<!-- Node3 -->
<g id="node4" class="node">
<title>Node3</title>
<g id="a_node4"><a xlink:href="CoreMacros_8hpp.html" target="_top" xlink:title="Core/CoreMacros.hpp">
<polygon fill="#ffffff" stroke="#000000" points="488.5635,-56.5 488.5635,-75.5 608.5635,-75.5 608.5635,-56.5 488.5635,-56.5"/>
<text text-anchor="middle" x="548.5635" y="-63.5" font-family="Helvetica,sans-Serif" font-size="10.00" fill="#000000">Core/CoreMacros.hpp</text>
</a>
</g>
</g>
<!-- Node2&#45;&gt;Node3 -->
<g id="edge3" class="edge">
<title>Node2&#45;&gt;Node3</title>
<path fill="none" stroke="#191970" d="M548.5635,-168.1389C548.5635,-146.9692 548.5635,-108.8174 548.5635,-85.6112"/>
<polygon fill="#191970" stroke="#191970" points="552.0636,-85.5594 548.5635,-75.5595 545.0636,-85.5595 552.0636,-85.5594"/>
</g>
<!-- Node9 -->
<g id="node10" class="node">
<title>Node9</title>
<polygon fill="#ffffff" stroke="#bfbfbf" points="736.0635,-112.5 736.0635,-131.5 783.0635,-131.5 783.0635,-112.5 736.0635,-112.5"/>
<text text-anchor="middle" x="759.5635" y="-119.5" font-family="Helvetica,sans-Serif" font-size="10.00" fill="#000000">cmath</text>
</g>
<!-- Node2&#45;&gt;Node9 -->
<g id="edge9" class="edge">
<title>Node2&#45;&gt;Node9</title>
<path fill="none" stroke="#191970" d="M600.1799,-168.4554C639.431,-157.0149 692.2846,-141.6098 726.1485,-131.7394"/>
<polygon fill="#191970" stroke="#191970" points="727.3912,-135.023 736.0123,-128.8645 725.4324,-128.3026 727.3912,-135.023"/>
</g>
<!-- Node10 -->
<g id="node11" class="node">
<title>Node10</title>
<polygon fill="#ffffff" stroke="#bfbfbf" points="476.5635,-112.5 476.5635,-131.5 520.5635,-131.5 520.5635,-112.5 476.5635,-112.5"/>
<text text-anchor="middle" x="498.5635" y="-119.5" font-family="Helvetica,sans-Serif" font-size="10.00" fill="#000000">limits</text>
</g>
<!-- Node2&#45;&gt;Node10 -->
<g id="edge10" class="edge">
<title>Node2&#45;&gt;Node10</title>
<path fill="none" stroke="#191970" d="M536.204,-168.2977C529.1912,-159.672 520.3775,-148.8312 513.0421,-139.8087"/>
<polygon fill="#191970" stroke="#191970" points="515.5932,-137.3982 506.5692,-131.8469 510.1618,-141.8141 515.5932,-137.3982"/>
</g>
<!-- Node4 -->
<g id="node5" class="node">
<title>Node4</title>
<polygon fill="#ffffff" stroke="#bfbfbf" points="489.5635,-.5 489.5635,-19.5 541.5635,-19.5 541.5635,-.5 489.5635,-.5"/>
<text text-anchor="middle" x="515.5635" y="-7.5" font-family="Helvetica,sans-Serif" font-size="10.00" fill="#000000">cassert</text>
</g>
<!-- Node3&#45;&gt;Node4 -->
<g id="edge4" class="edge">
<title>Node3&#45;&gt;Node4</title>
<path fill="none" stroke="#191970" d="M542.8154,-56.2455C538.32,-48.617 531.9387,-37.7881 526.4811,-28.5267"/>
<polygon fill="#191970" stroke="#191970" points="529.3382,-26.4811 521.2458,-19.6427 523.3074,-30.035 529.3382,-26.4811"/>
</g>
<!-- Node5 -->
<g id="node6" class="node">
<title>Node5</title>
<polygon fill="#ffffff" stroke="#bfbfbf" points="559.5635,-.5 559.5635,-19.5 605.5635,-19.5 605.5635,-.5 559.5635,-.5"/>
<text text-anchor="middle" x="582.5635" y="-7.5" font-family="Helvetica,sans-Serif" font-size="10.00" fill="#000000">cstdio</text>
</g>
<!-- Node3&#45;&gt;Node5 -->
<g id="edge5" class="edge">
<title>Node3&#45;&gt;Node5</title>
<path fill="none" stroke="#191970" d="M554.4859,-56.2455C559.1662,-48.5367 565.8308,-37.5598 571.4924,-28.2348"/>
<polygon fill="#191970" stroke="#191970" points="574.511,-30.007 576.7091,-19.6427 568.5275,-26.3741 574.511,-30.007"/>
</g>
<!-- Node6 -->
<g id="node7" class="node">
<title>Node6</title>
<polygon fill="#ffffff" stroke="#bfbfbf" points="623.5635,-.5 623.5635,-19.5 683.5635,-19.5 683.5635,-.5 623.5635,-.5"/>
<text text-anchor="middle" x="653.5635" y="-7.5" font-family="Helvetica,sans-Serif" font-size="10.00" fill="#000000">iostream</text>
</g>
<!-- Node3&#45;&gt;Node6 -->
<g id="edge6" class="edge">
<title>Node3&#45;&gt;Node6</title>
<path fill="none" stroke="#191970" d="M566.8531,-56.2455C583.3398,-47.4527 607.7987,-34.4079 626.5401,-24.4125"/>
<polygon fill="#191970" stroke="#191970" points="628.3071,-27.4368 635.4835,-19.6427 625.0129,-21.2604 628.3071,-27.4368"/>
</g>
<!-- Node7 -->
<g id="node8" class="node">
<title>Node7</title>
<polygon fill="#ffffff" stroke="#bfbfbf" points="173.5635,-.5 173.5635,-19.5 229.5635,-19.5 229.5635,-.5 173.5635,-.5"/>
<text text-anchor="middle" x="201.5635" y="-7.5" font-family="Helvetica,sans-Serif" font-size="10.00" fill="#000000">sstream</text>
</g>
<!-- Node3&#45;&gt;Node7 -->
<g id="edge7" class="edge">
<title>Node3&#45;&gt;Node7</title>
<path fill="none" stroke="#191970" d="M489.3064,-56.4369C417.9429,-44.92 300.16,-25.9118 239.8087,-16.1721"/>
<polygon fill="#191970" stroke="#191970" points="240.3612,-12.7161 229.9312,-14.5781 239.2459,-19.6267 240.3612,-12.7161"/>
</g>
<!-- Node8 -->
<g id="node9" class="node">
<title>Node8</title>
<polygon fill="#ffffff" stroke="#bfbfbf" points="423.5635,-.5 423.5635,-19.5 471.5635,-19.5 471.5635,-.5 423.5635,-.5"/>
<text text-anchor="middle" x="447.5635" y="-7.5" font-family="Helvetica,sans-Serif" font-size="10.00" fill="#000000">thread</text>
</g>
<!-- Node3&#45;&gt;Node8 -->
<g id="edge8" class="edge">
<title>Node3&#45;&gt;Node8</title>
<path fill="none" stroke="#191970" d="M530.9707,-56.2455C515.1845,-47.4928 491.7997,-34.527 473.8048,-24.5496"/>
<polygon fill="#191970" stroke="#191970" points="475.3976,-21.4308 464.9548,-19.6427 472.0033,-27.5528 475.3976,-21.4308"/>
</g>
<!-- Node12 -->
<g id="node13" class="node">
<title>Node12</title>
<polygon fill="#ffffff" stroke="#bfbfbf" points="545.5635,-235.5 545.5635,-254.5 603.5635,-254.5 603.5635,-235.5 545.5635,-235.5"/>
<text text-anchor="middle" x="574.5635" y="-242.5" font-family="Helvetica,sans-Serif" font-size="10.00" fill="#000000">memory</text>
</g>
<!-- Node11&#45;&gt;Node12 -->
<g id="edge12" class="edge">
<title>Node11&#45;&gt;Node12</title>
<path fill="none" stroke="#191970" d="M554.744,-291.2455C557.9446,-283.7776 562.4595,-273.2427 566.3719,-264.1137"/>
<polygon fill="#191970" stroke="#191970" points="569.7087,-265.2129 570.431,-254.6427 563.2747,-262.4554 569.7087,-265.2129"/>
</g>
<!-- Node13 -->
<g id="node14" class="node">
<title>Node13</title>
<polygon fill="#ffffff" stroke="#bfbfbf" points="480.0635,-235.5 480.0635,-254.5 527.0635,-254.5 527.0635,-235.5 480.0635,-235.5"/>
<text text-anchor="middle" x="503.5635" y="-242.5" font-family="Helvetica,sans-Serif" font-size="10.00" fill="#000000">vector</text>
</g>
<!-- Node11&#45;&gt;Node13 -->
<g id="edge13" class="edge">
<title>Node11&#45;&gt;Node13</title>
<path fill="none" stroke="#191970" d="M542.3768,-291.2455C535.7047,-283.2958 526.1156,-271.8706 518.1382,-262.3656"/>
<polygon fill="#191970" stroke="#191970" points="520.7662,-260.0524 511.6565,-254.6427 515.4043,-264.5525 520.7662,-260.0524"/>
</g>
<!-- Node14&#45;&gt;Node3 -->
<g id="edge15" class="edge">
<title>Node14&#45;&gt;Node3</title>
<path fill="none" stroke="#191970" d="M420.412,-291.2304C420.4385,-261.2449 424.2388,-169.1065 467.5635,-112 478.4101,-97.703 495.0731,-87.1574 510.4718,-79.7973"/>
<polygon fill="#191970" stroke="#191970" points="512.1265,-82.8917 519.8331,-75.6212 509.2747,-76.499 512.1265,-82.8917"/>
</g>
<!-- Node19 -->
<g id="node20" class="node">
<title>Node19</title>
<g id="a_node20"><a xlink:href="Interpolation_8hpp.html" target="_top" xlink:title="Core/Animation/Interpolation.hpp">
<polygon fill="#ffffff" stroke="#000000" points="938.0635,-235.5 938.0635,-254.5 1117.0635,-254.5 1117.0635,-235.5 938.0635,-235.5"/>
<text text-anchor="middle" x="1027.5635" y="-242.5" font-family="Helvetica,sans-Serif" font-size="10.00" fill="#000000">Core/Animation/Interpolation.hpp</text>
</a>
</g>
</g>
<!-- Node18&#45;&gt;Node19 -->
<g id="edge20" class="edge">
<title>Node18&#45;&gt;Node19</title>
<path fill="none" stroke="#191970" d="M1011.0473,-291.2455C1013.7144,-283.7776 1017.4769,-273.2427 1020.7372,-264.1137"/>
<polygon fill="#191970" stroke="#191970" points="1024.0524,-265.2373 1024.1197,-254.6427 1017.4602,-262.8829 1024.0524,-265.2373"/>
</g>
<!-- Node25 -->
<g id="node26" class="node">
<title>Node25</title>
<g id="a_node26"><a xlink:href="KeyFrame_8hpp.html" target="_top" xlink:title="Core/Animation/KeyFrame.hpp">
<polygon fill="#ffffff" stroke="#000000" points="755.5635,-235.5 755.5635,-254.5 919.5635,-254.5 919.5635,-235.5 755.5635,-235.5"/>
<text text-anchor="middle" x="837.5635" y="-242.5" font-family="Helvetica,sans-Serif" font-size="10.00" fill="#000000">Core/Animation/KeyFrame.hpp</text>
</a>
</g>
</g>
<!-- Node18&#45;&gt;Node25 -->
<g id="edge27" class="edge">
<title>Node18&#45;&gt;Node25</title>
<path fill="none" stroke="#191970" d="M978.3395,-291.3733C950.0711,-282.0613 907.067,-267.8953 876.0291,-257.671"/>
<polygon fill="#191970" stroke="#191970" points="876.9993,-254.3056 866.4062,-254.5011 874.8091,-260.9542 876.9993,-254.3056"/>
</g>
<!-- Node20 -->
<g id="node21" class="node">
<title>Node20</title>
<g id="a_node21"><a xlink:href="Types_8hpp.html" target="_top" xlink:title="Core/Types.hpp">
<polygon fill="#ffffff" stroke="#000000" points="1100.0635,-174 1100.0635,-193 1191.0635,-193 1191.0635,-174 1100.0635,-174"/>
<text text-anchor="middle" x="1145.5635" y="-181" font-family="Helvetica,sans-Serif" font-size="10.00" fill="#000000">Core/Types.hpp</text>
</a>
</g>
</g>
<!-- Node19&#45;&gt;Node20 -->
<g id="edge21" class="edge">
<title>Node19&#45;&gt;Node20</title>
<path fill="none" stroke="#191970" d="M1046.001,-235.3906C1065.3982,-225.2811 1096.1325,-209.2628 1118.3253,-197.6962"/>
<polygon fill="#191970" stroke="#191970" points="1120.0053,-200.7675 1127.2555,-193.0419 1116.77,-194.56 1120.0053,-200.7675"/>
</g>
<!-- Node21 -->
<g id="node22" class="node">
<title>Node21</title>
<g id="a_node22"><a xlink:href="RaCore_8hpp.html" target="_top" xlink:title="Core/RaCore.hpp">
<polygon fill="#ffffff" stroke="#000000" points="576.5635,-112.5 576.5635,-131.5 674.5635,-131.5 674.5635,-112.5 576.5635,-112.5"/>
<text text-anchor="middle" x="625.5635" y="-119.5" font-family="Helvetica,sans-Serif" font-size="10.00" fill="#000000">Core/RaCore.hpp</text>
</a>
</g>
</g>
<!-- Node20&#45;&gt;Node21 -->
<g id="edge22" class="edge">
<title>Node20&#45;&gt;Node21</title>
<path fill="none" stroke="#191970" d="M1111.8791,-173.9869C1103.0475,-171.7557 1093.4953,-169.5733 1084.5635,-168 1074.828,-166.2851 806.9392,-139.8392 685.0013,-127.8409"/>
<polygon fill="#191970" stroke="#191970" points="685.016,-124.3255 674.7213,-126.8296 684.3306,-131.2919 685.016,-124.3255"/>
</g>
<!-- Node22 -->
<g id="node23" class="node">
<title>Node22</title>
<polygon fill="#ffffff" stroke="#bfbfbf" points="1219.0635,-112.5 1219.0635,-131.5 1288.0635,-131.5 1288.0635,-112.5 1219.0635,-112.5"/>
<text text-anchor="middle" x="1253.5635" y="-119.5" font-family="Helvetica,sans-Serif" font-size="10.00" fill="#000000">Eigen/Core</text>
</g>
<!-- Node20&#45;&gt;Node22 -->
<g id="edge24" class="edge">
<title>Node20&#45;&gt;Node22</title>
<path fill="none" stroke="#191970" d="M1162.4385,-173.8906C1180.0334,-163.8713 1207.8201,-148.0483 1228.0877,-136.5071"/>
<polygon fill="#191970" stroke="#191970" points="1229.8491,-139.5318 1236.807,-131.5419 1226.3852,-133.4489 1229.8491,-139.5318"/>
</g>
<!-- Node23 -->
<g id="node24" class="node">
<title>Node23</title>
<polygon fill="#ffffff" stroke="#bfbfbf" points="1336.0635,-112.5 1336.0635,-131.5 1431.0635,-131.5 1431.0635,-112.5 1336.0635,-112.5"/>
<text text-anchor="middle" x="1383.5635" y="-119.5" font-family="Helvetica,sans-Serif" font-size="10.00" fill="#000000">Eigen/Geometry</text>
</g>
<!-- Node20&#45;&gt;Node23 -->
<g id="edge25" class="edge">
<title>Node20&#45;&gt;Node23</title>
<path fill="none" stroke="#191970" d="M1182.4899,-173.9581C1224.0038,-163.2308 1291.5,-145.7895 1336.6988,-134.11"/>
<polygon fill="#191970" stroke="#191970" points="1337.7442,-137.4549 1346.5505,-131.5643 1335.9929,-130.6775 1337.7442,-137.4549"/>
</g>
<!-- Node24 -->
<g id="node25" class="node">
<title>Node24</title>
<polygon fill="#ffffff" stroke="#bfbfbf" points="1110.5635,-112.5 1110.5635,-131.5 1190.5635,-131.5 1190.5635,-112.5 1110.5635,-112.5"/>
<text text-anchor="middle" x="1150.5635" y="-119.5" font-family="Helvetica,sans-Serif" font-size="10.00" fill="#000000">Eigen/Sparse</text>
</g>
<!-- Node20&#45;&gt;Node24 -->
<g id="edge26" class="edge">
<title>Node20&#45;&gt;Node24</title>
<path fill="none" stroke="#191970" d="M1146.3448,-173.8906C1147.0379,-165.3657 1148.0725,-152.6392 1148.9437,-141.9235"/>
<polygon fill="#191970" stroke="#191970" points="1152.4493,-141.9956 1149.7713,-131.7449 1145.4724,-141.4283 1152.4493,-141.9956"/>
</g>
<!-- Node21&#45;&gt;Node3 -->
<g id="edge23" class="edge">
<title>Node21&#45;&gt;Node3</title>
<path fill="none" stroke="#191970" d="M612.1512,-112.2455C600.5578,-103.814 583.5888,-91.4729 570.0957,-81.6598"/>
<polygon fill="#191970" stroke="#191970" points="571.9682,-78.6938 561.8222,-75.6427 567.851,-84.355 571.9682,-78.6938"/>
</g>
<!-- Node25&#45;&gt;Node2 -->
<g id="edge36" class="edge">
<title>Node25&#45;&gt;Node2</title>
<path fill="none" stroke="#191970" d="M792.7244,-235.4581C749.158,-226.187 682.0261,-211.9012 629.173,-200.6539"/>
<polygon fill="#191970" stroke="#191970" points="629.6516,-197.1775 619.1421,-198.5193 628.1946,-204.0242 629.6516,-197.1775"/>
</g>
<!-- Node25&#45;&gt;Node17 -->
<g id="edge29" class="edge">
<title>Node25&#45;&gt;Node17</title>
<path fill="none" stroke="#191970" d="M793.4597,-235.4603C761.356,-227.7134 717.2604,-215.3881 680.5635,-199 679.8641,-198.6876 679.1608,-198.3587 678.4565,-198.0161"/>
<polygon fill="#191970" stroke="#191970" points="679.9195,-194.8255 669.4757,-193.0428 676.5283,-200.9492 679.9195,-194.8255"/>
</g>
<!-- Node25&#45;&gt;Node20 -->
<g id="edge35" class="edge">
<title>Node25&#45;&gt;Node20</title>
<path fill="none" stroke="#191970" d="M894.6755,-235.4439C944.8739,-226.7876 1019.8098,-213.241 1084.5635,-199 1089.5059,-197.913 1094.6564,-196.7121 1099.7781,-195.474"/>
<polygon fill="#191970" stroke="#191970" points="1100.6593,-198.8616 1109.5293,-193.0673 1098.9819,-192.0655 1100.6593,-198.8616"/>
</g>
<!-- Node26 -->
<g id="node27" class="node">
<title>Node26</title>
<polygon fill="#ffffff" stroke="#bfbfbf" points="689.5635,-174 689.5635,-193 727.5635,-193 727.5635,-174 689.5635,-174"/>
<text text-anchor="middle" x="708.5635" y="-181" font-family="Helvetica,sans-Serif" font-size="10.00" fill="#000000">map</text>
</g>
<!-- Node25&#45;&gt;Node26 -->
<g id="edge28" class="edge">
<title>Node25&#45;&gt;Node26</title>
<path fill="none" stroke="#191970" d="M815.2609,-235.4415C794.6369,-226.4616 763.2377,-212.4315 736.5635,-199 735.875,-198.6533 735.1788,-198.2986 734.4779,-197.9379"/>
<polygon fill="#191970" stroke="#191970" points="735.7997,-194.6763 725.329,-193.0595 732.5061,-200.853 735.7997,-194.6763"/>
</g>
<!-- Node27 -->
<g id="node28" class="node">
<title>Node27</title>
<g id="a_node28"><a xlink:href="AlignedAllocator_8hpp.html" target="_top" xlink:title="Core/Containers/AlignedAllocator.hpp">
<polygon fill="#ffffff" stroke="#ff0000" points="877.5635,-174 877.5635,-193 1075.5635,-193 1075.5635,-174 877.5635,-174"/>
<text text-anchor="middle" x="976.5635" y="-181" font-family="Helvetica,sans-Serif" font-size="10.00" fill="#000000">Core/Containers/AlignedAllocator.hpp</text>
</a>
</g>
</g>
<!-- Node25&#45;&gt;Node27 -->
<g id="edge30" class="edge">
<title>Node25&#45;&gt;Node27</title>
<path fill="none" stroke="#191970" d="M859.2823,-235.3906C882.4375,-225.1457 919.3076,-208.8326 945.5226,-197.2339"/>
<polygon fill="#191970" stroke="#191970" points="947.2686,-200.2888 954.9973,-193.0419 944.4362,-193.8874 947.2686,-200.2888"/>
</g>
<!-- Node27&#45;&gt;Node21 -->
<g id="edge31" class="edge">
<title>Node27&#45;&gt;Node21</title>
<path fill="none" stroke="#191970" d="M922.1049,-173.9581C857.7259,-162.678 750.9775,-143.9742 684.6462,-132.3521"/>
<polygon fill="#191970" stroke="#191970" points="685.2157,-128.8986 674.7617,-130.6202 684.0075,-135.7936 685.2157,-128.8986"/>
</g>
<!-- Node28 -->
<g id="node29" class="node">
<title>Node28</title>
<polygon fill="#ffffff" stroke="#bfbfbf" points="1009.0635,-112.5 1009.0635,-131.5 1092.0635,-131.5 1092.0635,-112.5 1009.0635,-112.5"/>
<text text-anchor="middle" x="1050.5635" y="-119.5" font-family="Helvetica,sans-Serif" font-size="10.00" fill="#000000">mm_malloc.h</text>
</g>
<!-- Node27&#45;&gt;Node28 -->
<g id="edge32" class="edge">
<title>Node27&#45;&gt;Node28</title>
<path fill="none" stroke="#191970" d="M988.126,-173.8906C999.5714,-164.3786 1017.3108,-149.6357 1030.9605,-138.2917"/>
<polygon fill="#191970" stroke="#191970" points="1033.3843,-140.8283 1038.838,-131.7449 1028.9102,-135.4447 1033.3843,-140.8283"/>
</g>
<!-- Node29 -->
<g id="node30" class="node">
<title>Node29</title>
<polygon fill="#ffffff" stroke="#bfbfbf" points="869.0635,-112.5 869.0635,-131.5 922.0635,-131.5 922.0635,-112.5 869.0635,-112.5"/>
<text text-anchor="middle" x="895.5635" y="-119.5" font-family="Helvetica,sans-Serif" font-size="10.00" fill="#000000">cstddef</text>
</g>
<!-- Node27&#45;&gt;Node29 -->
<g id="edge33" class="edge">
<title>Node27&#45;&gt;Node29</title>
<path fill="none" stroke="#191970" d="M963.9073,-173.8906C951.1867,-164.2324 931.3632,-149.1812 916.3351,-137.771"/>
<polygon fill="#191970" stroke="#191970" points="918.2119,-134.8015 908.1309,-131.5419 913.9789,-140.3766 918.2119,-134.8015"/>
</g>
<!-- Node30 -->
<g id="node31" class="node">
<title>Node30</title>
<polygon fill="#ffffff" stroke="#bfbfbf" points="940.5635,-112.5 940.5635,-131.5 990.5635,-131.5 990.5635,-112.5 940.5635,-112.5"/>
<text text-anchor="middle" x="965.5635" y="-119.5" font-family="Helvetica,sans-Serif" font-size="10.00" fill="#000000">cstdint</text>
</g>
<!-- Node27&#45;&gt;Node30 -->
<g id="edge34" class="edge">
<title>Node27&#45;&gt;Node30</title>
<path fill="none" stroke="#191970" d="M974.8448,-173.8906C973.32,-165.3657 971.0437,-152.6392 969.1271,-141.9235"/>
<polygon fill="#191970" stroke="#191970" points="972.5126,-140.9724 967.3065,-131.7449 965.622,-142.2049 972.5126,-140.9724"/>
</g>
<!-- Node32&#45;&gt;Node19 -->
<g id="edge38" class="edge">
<title>Node32&#45;&gt;Node19</title>
<path fill="none" stroke="#191970" d="M1169.1676,-291.3733C1140.7329,-282.0613 1097.4759,-267.8953 1066.2554,-257.671"/>
<polygon fill="#191970" stroke="#191970" points="1067.1686,-254.2872 1056.5759,-254.5011 1064.99,-260.9396 1067.1686,-254.2872"/>
</g>
<!-- Node32&#45;&gt;Node25 -->
<g id="edge39" class="edge">
<title>Node32&#45;&gt;Node25</title>
<path fill="none" stroke="#191970" d="M1136.9156,-291.4369C1073.7055,-281.6314 975.4893,-266.3957 908.9458,-256.0731"/>
<polygon fill="#191970" stroke="#191970" points="909.3756,-252.598 898.9572,-254.5237 908.3025,-259.5153 909.3756,-252.598"/>
</g>
<!-- Node33&#45;&gt;Node19 -->
<g id="edge41" class="edge">
<title>Node33&#45;&gt;Node19</title>
<path fill="none" stroke="#191970" d="M1332.7202,-291.4369C1268.2844,-281.6314 1168.1638,-266.3957 1100.3299,-256.0731"/>
<polygon fill="#191970" stroke="#191970" points="1100.5604,-252.568 1090.1477,-254.5237 1099.5073,-259.4883 1100.5604,-252.568"/>
</g>
<!-- Node33&#45;&gt;Node25 -->
<g id="edge42" class="edge">
<title>Node33&#45;&gt;Node25</title>
<path fill="none" stroke="#191970" d="M1301.4339,-291.8193C1191.2412,-281.0532 1014.1927,-263.6922 929.8731,-255.0201"/>
<polygon fill="#191970" stroke="#191970" points="930.1247,-251.5275 919.818,-253.9814 929.4054,-258.4905 930.1247,-251.5275"/>
</g>
<!-- Node34&#45;&gt;Node2 -->
<g id="edge46" class="edge">
<title>Node34&#45;&gt;Node2</title>
<path fill="none" stroke="#191970" d="M286.0764,-352.658C296.2832,-337.8098 317.3004,-309.4587 340.5635,-291 389.6604,-252.0429 455.069,-221.0167 499.3304,-202.4999"/>
<polygon fill="#191970" stroke="#191970" points="500.8075,-205.6767 508.7171,-198.6277 498.1381,-199.2057 500.8075,-205.6767"/>
</g>
<!-- Node34&#45;&gt;Node13 -->
<g id="edge45" class="edge">
<title>Node34&#45;&gt;Node13</title>
<path fill="none" stroke="#191970" d="M289.9442,-352.9866C306.6744,-338.0645 341.12,-309.0045 374.5635,-291 405.3804,-274.4096 443.4069,-261.6898 470.164,-253.8744"/>
<polygon fill="#191970" stroke="#191970" points="471.1701,-257.2271 479.8287,-251.1213 469.2524,-250.4949 471.1701,-257.2271"/>
</g>
<!-- Node34&#45;&gt;Node21 -->
<g id="edge53" class="edge">
<title>Node34&#45;&gt;Node21</title>
<path fill="none" stroke="#191970" d="M283.0378,-352.9861C288.6067,-338.5665 300.5535,-310.7676 316.5635,-291 330.1289,-274.2508 447.4878,-178.0335 466.5635,-168 497.7742,-151.5837 535.5994,-140.3358 566.5255,-133.0735"/>
<polygon fill="#191970" stroke="#191970" points="567.3293,-136.4802 576.3069,-130.8541 565.7803,-129.6537 567.3293,-136.4802"/>
</g>
<!-- Node35 -->
<g id="node35" class="node">
<title>Node35</title>
<polygon fill="#ffffff" stroke="#bfbfbf" points="237.5635,-174 237.5635,-193 281.5635,-193 281.5635,-174 237.5635,-174"/>
<text text-anchor="middle" x="259.5635" y="-181" font-family="Helvetica,sans-Serif" font-size="10.00" fill="#000000">string</text>
</g>
<!-- Node34&#45;&gt;Node35 -->
<g id="edge44" class="edge">
<title>Node34&#45;&gt;Node35</title>
<path fill="none" stroke="#191970" d="M268.1782,-352.9923C248.6214,-335.8269 209.3272,-297.4751 194.5635,-255 191.6452,-246.6038 190.6941,-243.0025 194.5635,-235 202.1725,-219.2636 217.1834,-206.8703 230.8643,-198.1884"/>
<polygon fill="#191970" stroke="#191970" points="232.7578,-201.1347 239.5713,-193.0213 229.1854,-195.1148 232.7578,-201.1347"/>
</g>
<!-- Node36 -->
<g id="node36" class="node">
<title>Node36</title>
<g id="a_node36"><a xlink:href="KeyTransform_8hpp.html" target="_top" xlink:title="Core/Animation/KeyTransform.hpp">
<polygon fill="#ffffff" stroke="#000000" points="719.0635,-291.5 719.0635,-310.5 902.0635,-310.5 902.0635,-291.5 719.0635,-291.5"/>
<text text-anchor="middle" x="810.5635" y="-298.5" font-family="Helvetica,sans-Serif" font-size="10.00" fill="#000000">Core/Animation/KeyTransform.hpp</text>
</a>
</g>
</g>
<!-- Node34&#45;&gt;Node36 -->
<g id="edge47" class="edge">
<title>Node34&#45;&gt;Node36</title>
<path fill="none" stroke="#191970" d="M361.6589,-352.9918C458.0542,-341.8274 617.5264,-323.3574 718.1687,-311.7011"/>
<polygon fill="#191970" stroke="#191970" points="718.7939,-315.1522 728.3248,-310.5248 717.9885,-308.1987 718.7939,-315.1522"/>
</g>
<!-- Node37 -->
<g id="node37" class="node">
<title>Node37</title>
<g id="a_node37"><a xlink:href="AssetData_8hpp.html" target="_top" xlink:title="Core/Asset/AssetData.hpp">
<polygon fill="#ffffff" stroke="#000000" points="204.0635,-235.5 204.0635,-254.5 347.0635,-254.5 347.0635,-235.5 204.0635,-235.5"/>
<text text-anchor="middle" x="275.5635" y="-242.5" font-family="Helvetica,sans-Serif" font-size="10.00" fill="#000000">Core/Asset/AssetData.hpp</text>
</a>
</g>
</g>
<!-- Node34&#45;&gt;Node37 -->
<g id="edge50" class="edge">
<title>Node34&#45;&gt;Node37</title>
<path fill="none" stroke="#191970" d="M276.0904,-352.7863C272.6285,-342.5493 267.5498,-325.878 265.5635,-311 264.3873,-302.1893 264.614,-299.838 265.5635,-291 266.4999,-282.285 268.4068,-272.7985 270.3068,-264.7166"/>
<polygon fill="#191970" stroke="#191970" points="273.7633,-265.3218 272.8014,-254.7707 266.9736,-263.6187 273.7633,-265.3218"/>
</g>
<!-- Node38 -->
<g id="node38" class="node">
<title>Node38</title>
<g id="a_node38"><a xlink:href="AnimationData_8inl.html" target="_top" xlink:title="Core/Asset/AnimationData.inl">
<polygon fill="#ffffff" stroke="#000000" points="14.0635,-291.5 14.0635,-310.5 175.0635,-310.5 175.0635,-291.5 14.0635,-291.5"/>
<text text-anchor="middle" x="94.5635" y="-298.5" font-family="Helvetica,sans-Serif" font-size="10.00" fill="#000000">Core/Asset/AnimationData.inl</text>
</a>
</g>
</g>
<!-- Node34&#45;&gt;Node38 -->
<g id="edge54" class="edge">
<title>Node34&#45;&gt;Node38</title>
<path fill="none" stroke="#191970" d="M245.5948,-352.8906C212.0548,-342.42 161.3034,-325.6111 127.9661,-313.9745"/>
<polygon fill="#191970" stroke="#191970" points="128.8123,-310.5618 118.2175,-310.5419 126.4874,-317.1645 128.8123,-310.5618"/>
</g>
<!-- Node36&#45;&gt;Node19 -->
<g id="edge48" class="edge">
<title>Node36&#45;&gt;Node19</title>
<path fill="none" stroke="#191970" d="M847.8672,-291.3733C884.732,-281.8598 941.2295,-267.2797 981.0142,-257.0127"/>
<polygon fill="#191970" stroke="#191970" points="981.9385,-260.3889 990.7467,-254.5011 980.1893,-253.611 981.9385,-260.3889"/>
</g>
<!-- Node36&#45;&gt;Node25 -->
<g id="edge49" class="edge">
<title>Node36&#45;&gt;Node25</title>
<path fill="none" stroke="#191970" d="M815.2666,-291.2455C818.9059,-283.6973 824.0559,-273.0158 828.4897,-263.8197"/>
<polygon fill="#191970" stroke="#191970" points="831.724,-265.1704 832.9144,-254.6427 825.4186,-262.1303 831.724,-265.1704"/>
</g>
<!-- Node37&#45;&gt;Node21 -->
<g id="edge51" class="edge">
<title>Node37&#45;&gt;Node21</title>
<path fill="none" stroke="#191970" d="M283.1485,-235.3331C296.8479,-218.6178 327.4802,-184.522 361.5635,-168 396.7818,-150.9279 499.7402,-136.4268 566.1858,-128.4914"/>
<polygon fill="#191970" stroke="#191970" points="566.9982,-131.9201 576.5204,-127.2749 566.1798,-124.9681 566.9982,-131.9201"/>
</g>
<!-- Node37&#45;&gt;Node35 -->
<g id="edge52" class="edge">
<title>Node37&#45;&gt;Node35</title>
<path fill="none" stroke="#191970" d="M273.0635,-235.3906C270.8223,-226.776 267.4649,-213.8708 264.659,-203.0858"/>
<polygon fill="#191970" stroke="#191970" points="268.0039,-202.0414 262.0988,-193.2449 261.2294,-203.804 268.0039,-202.0414"/>
</g>
<!-- Node38&#45;&gt;Node34 -->
<g id="edge55" class="edge">
<title>Node38&#45;&gt;Node34</title>
<path fill="none" stroke="#191970" d="M128.3161,-310.5419C161.7819,-320.9852 212.5336,-337.7916 245.9456,-349.4504"/>
<polygon fill="#191970" stroke="#191970" points="245.125,-352.872 255.7198,-352.8906 247.4491,-346.269 245.125,-352.872"/>
</g>
<!-- Node38&#45;&gt;Node39 -->
<g id="edge56" class="edge">
<title>Node38&#45;&gt;Node39</title>
<path fill="none" stroke="#191970" d="M94.5635,-291.2455C94.5635,-283.9382 94.5635,-273.6944 94.5635,-264.7046"/>
<polygon fill="#191970" stroke="#191970" points="98.0636,-264.6426 94.5635,-254.6427 91.0636,-264.6427 98.0636,-264.6426"/>
</g>
<!-- Node39&#45;&gt;Node7 -->
<g id="edge59" class="edge">
<title>Node39&#45;&gt;Node7</title>
<path fill="none" stroke="#191970" d="M84.6273,-235.4913C76.3875,-226.8654 65.2868,-213.3368 60.5635,-199 56.2523,-185.9141 55.6546,-180.8736 60.5635,-168 84.6129,-104.9315 146.6872,-51.0608 179.8771,-25.6328"/>
<polygon fill="#191970" stroke="#191970" points="182.1373,-28.3126 188.0351,-19.5111 177.9359,-22.7137 182.1373,-28.3126"/>
</g>
<!-- Node39&#45;&gt;Node21 -->
<g id="edge57" class="edge">
<title>Node39&#45;&gt;Node21</title>
<path fill="none" stroke="#191970" d="M118.6723,-235.3434C138.6078,-226.9189 167.3145,-213.757 190.5635,-199 208.9655,-187.3197 208.4867,-176.4842 228.5635,-168 236.2642,-164.7458 457.5004,-140.3068 566.2986,-128.4349"/>
<polygon fill="#191970" stroke="#191970" points="566.9038,-131.8897 576.4655,-127.3263 566.145,-124.9309 566.9038,-131.8897"/>
</g>
<!-- Node39&#45;&gt;Node35 -->
<g id="edge61" class="edge">
<title>Node39&#45;&gt;Node35</title>
<path fill="none" stroke="#191970" d="M122.9414,-235.4657C149.2087,-226.5025 189.264,-212.4834 223.5635,-199 225.1745,-198.3667 226.8207,-197.7063 228.4793,-197.0303"/>
<polygon fill="#191970" stroke="#191970" points="230.0778,-200.1556 237.9546,-193.07 227.3783,-193.6971 230.0778,-200.1556"/>
</g>
<!-- Node40 -->
<g id="node40" class="node">
<title>Node40</title>
<polygon fill="#ffffff" stroke="#bfbfbf" points="137.5635,-174 137.5635,-193 181.5635,-193 181.5635,-174 137.5635,-174"/>
<text text-anchor="middle" x="159.5635" y="-181" font-family="Helvetica,sans-Serif" font-size="10.00" fill="#000000">ctime</text>
</g>
<!-- Node39&#45;&gt;Node40 -->
<g id="edge58" class="edge">
<title>Node39&#45;&gt;Node40</title>
<path fill="none" stroke="#191970" d="M104.7198,-235.3906C114.5834,-226.0581 129.7691,-211.6902 141.6622,-200.4374"/>
<polygon fill="#191970" stroke="#191970" points="144.4056,-202.6601 149.2641,-193.2449 139.5946,-197.5753 144.4056,-202.6601"/>
</g>
<!-- Node41 -->
<g id="node41" class="node">
<title>Node41</title>
<polygon fill="#ffffff" stroke="#bfbfbf" points="69.5635,-174 69.5635,-193 119.5635,-193 119.5635,-174 69.5635,-174"/>
<text text-anchor="middle" x="94.5635" y="-181" font-family="Helvetica,sans-Serif" font-size="10.00" fill="#000000">stdio.h</text>
</g>
<!-- Node39&#45;&gt;Node41 -->
<g id="edge60" class="edge">
<title>Node39&#45;&gt;Node41</title>
<path fill="none" stroke="#191970" d="M94.5635,-235.3906C94.5635,-226.8657 94.5635,-214.1392 94.5635,-203.4235"/>
<polygon fill="#191970" stroke="#191970" points="98.0636,-203.2448 94.5635,-193.2449 91.0636,-203.2449 98.0636,-203.2448"/>
</g>
<!-- Node42&#45;&gt;Node20 -->
<g id="edge69" class="edge">
<title>Node42&#45;&gt;Node20</title>
<path fill="none" stroke="#191970" d="M1509.3389,-291.4895C1379.8323,-278.8531 1167.8261,-257.7888 1164.5635,-255 1149.8088,-242.3879 1145.8531,-219.7493 1145.0883,-203.3173"/>
<polygon fill="#191970" stroke="#191970" points="1148.5861,-203.0929 1144.9751,-193.1324 1141.5866,-203.1707 1148.5861,-203.0929"/>
</g>
<!-- Node43 -->
<g id="node43" class="node">
<title>Node43</title>
<polygon fill="#ffffff" stroke="#bfbfbf" points="1173.5635,-235.5 1173.5635,-254.5 1267.5635,-254.5 1267.5635,-235.5 1173.5635,-235.5"/>
<text text-anchor="middle" x="1220.5635" y="-242.5" font-family="Helvetica,sans-Serif" font-size="10.00" fill="#000000">assimp/color4.h</text>
</g>
<!-- Node42&#45;&gt;Node43 -->
<g id="edge64" class="edge">
<title>Node42&#45;&gt;Node43</title>
<path fill="none" stroke="#191970" d="M1533.1667,-291.4958C1468.2977,-283.0171 1371.4168,-269.8943 1277.548,-255.1101"/>
<polygon fill="#191970" stroke="#191970" points="1278.0193,-251.6412 1267.595,-253.5344 1276.9247,-258.5551 1278.0193,-251.6412"/>
</g>
<!-- Node44 -->
<g id="node44" class="node">
<title>Node44</title>
<polygon fill="#ffffff" stroke="#bfbfbf" points="1285.5635,-235.5 1285.5635,-254.5 1399.5635,-254.5 1399.5635,-235.5 1285.5635,-235.5"/>
<text text-anchor="middle" x="1342.5635" y="-242.5" font-family="Helvetica,sans-Serif" font-size="10.00" fill="#000000">assimp/matrix4x4.h</text>
</g>
<!-- Node42&#45;&gt;Node44 -->
<g id="edge65" class="edge">
<title>Node42&#45;&gt;Node44</title>
<path fill="none" stroke="#191970" d="M1562.3095,-291.4369C1516.7663,-281.8127 1446.467,-266.957 1397.6949,-256.6504"/>
<polygon fill="#191970" stroke="#191970" points="1398.1385,-253.1669 1387.6309,-254.5237 1396.6912,-260.0157 1398.1385,-253.1669"/>
</g>
<!-- Node45 -->
<g id="node45" class="node">
<title>Node45</title>
<polygon fill="#ffffff" stroke="#bfbfbf" points="1549.5635,-235.5 1549.5635,-254.5 1665.5635,-254.5 1665.5635,-235.5 1549.5635,-235.5"/>
<text text-anchor="middle" x="1607.5635" y="-242.5" font-family="Helvetica,sans-Serif" font-size="10.00" fill="#000000">assimp/quaternion.h</text>
</g>
<!-- Node42&#45;&gt;Node45 -->
<g id="edge66" class="edge">
<title>Node42&#45;&gt;Node45</title>
<path fill="none" stroke="#191970" d="M1607.5635,-291.2455C1607.5635,-283.9382 1607.5635,-273.6944 1607.5635,-264.7046"/>
<polygon fill="#191970" stroke="#191970" points="1611.0636,-264.6426 1607.5635,-254.6427 1604.0636,-264.6427 1611.0636,-264.6426"/>
</g>
<!-- Node46 -->
<g id="node46" class="node">
<title>Node46</title>
<polygon fill="#ffffff" stroke="#bfbfbf" points="1684.0635,-235.5 1684.0635,-254.5 1775.0635,-254.5 1775.0635,-235.5 1684.0635,-235.5"/>
<text text-anchor="middle" x="1729.5635" y="-242.5" font-family="Helvetica,sans-Serif" font-size="10.00" fill="#000000">assimp/types.h</text>
</g>
<!-- Node42&#45;&gt;Node46 -->
<g id="edge67" class="edge">
<title>Node42&#45;&gt;Node46</title>
<path fill="none" stroke="#191970" d="M1628.5361,-291.3733C1648.1203,-282.3838 1677.5596,-268.8706 1699.6145,-258.7471"/>
<polygon fill="#191970" stroke="#191970" points="1701.2365,-261.8538 1708.8647,-254.5011 1698.3163,-255.4919 1701.2365,-261.8538"/>
</g>
<!-- Node47 -->
<g id="node47" class="node">
<title>Node47</title>
<polygon fill="#ffffff" stroke="#bfbfbf" points="1793.0635,-235.5 1793.0635,-254.5 1894.0635,-254.5 1894.0635,-235.5 1793.0635,-235.5"/>
<text text-anchor="middle" x="1843.5635" y="-242.5" font-family="Helvetica,sans-Serif" font-size="10.00" fill="#000000">assimp/vector3.h</text>
</g>
<!-- Node42&#45;&gt;Node47 -->
<g id="edge68" class="edge">
<title>Node42&#45;&gt;Node47</title>
<path fill="none" stroke="#191970" d="M1647.8652,-291.4369C1688.17,-281.8731 1750.2456,-267.1432 1793.6453,-256.845"/>
<polygon fill="#191970" stroke="#191970" points="1794.5063,-260.238 1803.4281,-254.5237 1792.8901,-253.4271 1794.5063,-260.238"/>
</g>
<!-- Node48 -->
<g id="node48" class="node">
<title>Node48</title>
<g id="a_node48"><a xlink:href="Color_8hpp.html" target="_top" xlink:title="Core/Utils/Color.hpp">
<polygon fill="#ffffff" stroke="#000000" points="1418.0635,-235.5 1418.0635,-254.5 1531.0635,-254.5 1531.0635,-235.5 1418.0635,-235.5"/>
<text text-anchor="middle" x="1474.5635" y="-242.5" font-family="Helvetica,sans-Serif" font-size="10.00" fill="#000000">Core/Utils/Color.hpp</text>
</a>
</g>
</g>
<!-- Node42&#45;&gt;Node48 -->
<g id="edge70" class="edge">
<title>Node42&#45;&gt;Node48</title>
<path fill="none" stroke="#191970" d="M1584.7,-291.3733C1563.1586,-282.3032 1530.6798,-268.6279 1506.5679,-258.4755"/>
<polygon fill="#191970" stroke="#191970" points="1507.7033,-255.156 1497.1287,-254.5011 1504.9868,-261.6075 1507.7033,-255.156"/>
</g>
<!-- Node48&#45;&gt;Node3 -->
<g id="edge71" class="edge">
<title>Node48&#45;&gt;Node3</title>
<path fill="none" stroke="#191970" d="M1475.5267,-235.3204C1477.4187,-210.269 1478.5524,-143.1003 1440.5635,-112 1408.9262,-86.0996 823.8083,-71.6506 618.804,-67.3665"/>
<polygon fill="#191970" stroke="#191970" points="618.8213,-63.8662 608.7509,-67.1582 618.6762,-70.8647 618.8213,-63.8662"/>
</g>
<!-- Node48&#45;&gt;Node22 -->
<g id="edge75" class="edge">
<title>Node48&#45;&gt;Node22</title>
<path fill="none" stroke="#191970" d="M1437.1887,-235.4898C1410.5843,-227.8262 1374.5596,-215.5906 1345.5635,-199 1316.2471,-182.2261 1287.1557,-155.8059 1269.7678,-138.6911"/>
<polygon fill="#191970" stroke="#191970" points="1272.1842,-136.1576 1262.6435,-131.5504 1267.2287,-141.1017 1272.1842,-136.1576"/>
</g>
<!-- Node48&#45;&gt;Node23 -->
<g id="edge76" class="edge">
<title>Node48&#45;&gt;Node23</title>
<path fill="none" stroke="#191970" d="M1467.4229,-235.3484C1452.206,-214.7804 1416.3825,-166.3596 1396.8428,-139.9489"/>
<polygon fill="#191970" stroke="#191970" points="1399.4323,-137.5642 1390.671,-131.6068 1393.8049,-141.7275 1399.4323,-137.5642"/>
</g>
<!-- Node49 -->
<g id="node49" class="node">
<title>Node49</title>
<g id="a_node49"><a xlink:href="Math_8hpp.html" target="_top" xlink:title="Core/Math/Math.hpp">
<polygon fill="#ffffff" stroke="#ff0000" points="745.5635,-174 745.5635,-193 859.5635,-193 859.5635,-174 745.5635,-174"/>
<text text-anchor="middle" x="802.5635" y="-181" font-family="Helvetica,sans-Serif" font-size="10.00" fill="#000000">Core/Math/Math.hpp</text>
</a>
</g>
</g>
<!-- Node48&#45;&gt;Node49 -->
<g id="edge72" class="edge">
<title>Node48&#45;&gt;Node49</title>
<path fill="none" stroke="#191970" d="M1417.7213,-236.0784C1414.6268,-235.6893 1411.559,-235.3262 1408.5635,-235 1169.4444,-208.9606 1106.4448,-234.6161 868.5635,-199 861.9158,-198.0047 854.9495,-196.6821 848.1376,-195.2277"/>
<polygon fill="#191970" stroke="#191970" points="848.8466,-191.7999 838.3229,-193.0254 847.314,-198.63 848.8466,-191.7999"/>
</g>
<!-- Node52 -->
<g id="node50" class="node">
<title>Node52</title>
<polygon fill="#ffffff" stroke="#bfbfbf" points="1354.5635,-174 1354.5635,-193 1408.5635,-193 1408.5635,-174 1354.5635,-174"/>
<text text-anchor="middle" x="1381.5635" y="-181" font-family="Helvetica,sans-Serif" font-size="10.00" fill="#000000">random</text>
</g>
<!-- Node48&#45;&gt;Node52 -->
<g id="edge77" class="edge">
<title>Node48&#45;&gt;Node52</title>
<path fill="none" stroke="#191970" d="M1460.0323,-235.3906C1445.1542,-225.5519 1421.8131,-210.1167 1404.4507,-198.6351"/>
<polygon fill="#191970" stroke="#191970" points="1406.2645,-195.6385 1395.9927,-193.0419 1402.4033,-201.4773 1406.2645,-195.6385"/>
</g>
<!-- Node49&#45;&gt;Node9 -->
<g id="edge74" class="edge">
<title>Node49&#45;&gt;Node9</title>
<path fill="none" stroke="#191970" d="M795.8448,-173.8906C789.5706,-164.917 780.0413,-151.2879 772.3231,-140.2491"/>
<polygon fill="#191970" stroke="#191970" points="774.9756,-137.9348 766.377,-131.7449 769.2388,-141.9459 774.9756,-137.9348"/>
</g>
<!-- Node49&#45;&gt;Node21 -->
<g id="edge73" class="edge">
<title>Node49&#45;&gt;Node21</title>
<path fill="none" stroke="#191970" d="M774.9073,-173.8906C744.6425,-163.3749 695.978,-146.466 662.4724,-134.8243"/>
<polygon fill="#191970" stroke="#191970" points="663.6204,-131.5179 653.0256,-131.5419 661.3229,-138.1302 663.6204,-131.5179"/>
</g>
</g>
</svg>
