<?xml version="1.0" encoding="UTF-8" standalone="no"?>
<!DOCTYPE svg PUBLIC "-//W3C//DTD SVG 1.1//EN"
 "http://www.w3.org/Graphics/SVG/1.1/DTD/svg11.dtd">
<!-- Generated by graphviz version 2.40.1 (20161225.0304)
 -->
<!-- Title: src/IO/AssimpLoader/AssimpAnimationDataLoader.hpp Pages: 1 -->
<svg width="426pt" height="218pt"
 viewBox="0.00 0.00 426.00 218.00" xmlns="http://www.w3.org/2000/svg" xmlns:xlink="http://www.w3.org/1999/xlink">
<g id="graph0" class="graph" transform="scale(1 1) rotate(0) translate(4 214)">
<title>src/IO/AssimpLoader/AssimpAnimationDataLoader.hpp</title>
<polygon fill="#ffffff" stroke="transparent" points="-4,4 -4,-214 422,-214 422,4 -4,4"/>
<!-- Node0 -->
<g id="node1" class="node">
<title>Node0</title>
<polygon fill="#bfbfbf" stroke="#000000" points="117.5,-179.5 117.5,-209.5 299.5,-209.5 299.5,-179.5 117.5,-179.5"/>
<text text-anchor="start" x="125.5" y="-197.5" font-family="Helvetica,sans-Serif" font-size="10.00" fill="#000000">src/IO/AssimpLoader</text>
<text text-anchor="middle" x="208.5" y="-186.5" font-family="Helvetica,sans-Serif" font-size="10.00" fill="#000000">/AssimpAnimationDataLoader.hpp</text>
</g>
<!-- Node1 -->
<g id="node2" class="node">
<title>Node1</title>
<g id="a_node2"><a xlink:href="AnimationTime_8hpp.html" target="_top" xlink:title="Core/Animation/Animation\lTime.hpp">
<polygon fill="#ffffff" stroke="#000000" points="7.5,-112.5 7.5,-142.5 153.5,-142.5 153.5,-112.5 7.5,-112.5"/>
<text text-anchor="start" x="15.5" y="-130.5" font-family="Helvetica,sans-Serif" font-size="10.00" fill="#000000">Core/Animation/Animation</text>
<text text-anchor="middle" x="80.5" y="-119.5" font-family="Helvetica,sans-Serif" font-size="10.00" fill="#000000">Time.hpp</text>
</a>
</g>
</g>
<!-- Node0&#45;&gt;Node1 -->
<g id="edge1" class="edge">
<title>Node0&#45;&gt;Node1</title>
<path fill="none" stroke="#191970" d="M179.7743,-179.4639C161.7031,-170.0047 138.1753,-157.6894 118.5604,-147.4222"/>
<polygon fill="#191970" stroke="#191970" points="120.0555,-144.2544 109.5727,-142.7177 116.8092,-150.4562 120.0555,-144.2544"/>
</g>
<!-- Node10 -->
<g id="node11" class="node">
<title>Node10</title>
<g id="a_node11"><a xlink:href="DataLoader_8hpp.html" target="_top" xlink:title="Core/Asset/DataLoader.hpp">
<polygon fill="#ffffff" stroke="#000000" points="264,-118 264,-137 413,-137 413,-118 264,-118"/>
<text text-anchor="middle" x="338.5" y="-125" font-family="Helvetica,sans-Serif" font-size="10.00" fill="#000000">Core/Asset/DataLoader.hpp</text>
</a>
</g>
</g>
<!-- Node0&#45;&gt;Node10 -->
<g id="edge10" class="edge">
<title>Node0&#45;&gt;Node10</title>
<path fill="none" stroke="#191970" d="M237.6745,-179.4639C259.5851,-168.1715 289.3938,-152.8086 310.9105,-141.7192"/>
<polygon fill="#191970" stroke="#191970" points="312.5801,-144.7963 319.8655,-137.1039 309.3732,-138.5741 312.5801,-144.7963"/>
</g>
<!-- Node13 -->
<g id="node14" class="node">
<title>Node13</title>
<g id="a_node14"><a xlink:href="RaIO_8hpp.html" target="_top" xlink:title="IO/RaIO.hpp">
<polygon fill="#ffffff" stroke="#000000" points="171.5,-118 171.5,-137 245.5,-137 245.5,-118 171.5,-118"/>
<text text-anchor="middle" x="208.5" y="-125" font-family="Helvetica,sans-Serif" font-size="10.00" fill="#000000">IO/RaIO.hpp</text>
</a>
</g>
</g>
<!-- Node0&#45;&gt;Node13 -->
<g id="edge13" class="edge">
<title>Node0&#45;&gt;Node13</title>
<path fill="none" stroke="#191970" d="M208.5,-179.2967C208.5,-169.7699 208.5,-157.3954 208.5,-147.1306"/>
<polygon fill="#191970" stroke="#191970" points="212.0001,-147.0549 208.5,-137.055 205.0001,-147.055 212.0001,-147.0549"/>
</g>
<!-- Node2 -->
<g id="node3" class="node">
<title>Node2</title>
<g id="a_node3"><a xlink:href="CoreMacros_8hpp.html" target="_top" xlink:title="Core/CoreMacros.hpp">
<polygon fill="#ffffff" stroke="#000000" points="141.5,-56.5 141.5,-75.5 261.5,-75.5 261.5,-56.5 141.5,-56.5"/>
<text text-anchor="middle" x="201.5" y="-63.5" font-family="Helvetica,sans-Serif" font-size="10.00" fill="#000000">Core/CoreMacros.hpp</text>
</a>
</g>
</g>
<!-- Node1&#45;&gt;Node2 -->
<g id="edge2" class="edge">
<title>Node1&#45;&gt;Node2</title>
<path fill="none" stroke="#191970" d="M110.0999,-112.4554C129.4922,-102.599 154.6742,-89.7999 173.6943,-80.1327"/>
<polygon fill="#191970" stroke="#191970" points="175.4205,-83.1815 182.7493,-75.5303 172.2488,-76.9412 175.4205,-83.1815"/>
</g>
<!-- Node8 -->
<g id="node9" class="node">
<title>Node8</title>
<polygon fill="#ffffff" stroke="#bfbfbf" points="0,-56.5 0,-75.5 47,-75.5 47,-56.5 0,-56.5"/>
<text text-anchor="middle" x="23.5" y="-63.5" font-family="Helvetica,sans-Serif" font-size="10.00" fill="#000000">cmath</text>
</g>
<!-- Node1&#45;&gt;Node8 -->
<g id="edge8" class="edge">
<title>Node1&#45;&gt;Node8</title>
<path fill="none" stroke="#191970" d="M66.4101,-112.2977C58.2507,-103.4941 47.9528,-92.3833 39.4905,-83.2529"/>
<polygon fill="#191970" stroke="#191970" points="41.9911,-80.8021 32.6264,-75.8469 36.8571,-85.5604 41.9911,-80.8021"/>
</g>
<!-- Node9 -->
<g id="node10" class="node">
<title>Node9</title>
<polygon fill="#ffffff" stroke="#bfbfbf" points="65.5,-56.5 65.5,-75.5 109.5,-75.5 109.5,-56.5 65.5,-56.5"/>
<text text-anchor="middle" x="87.5" y="-63.5" font-family="Helvetica,sans-Serif" font-size="10.00" fill="#000000">limits</text>
</g>
<!-- Node1&#45;&gt;Node9 -->
<g id="edge9" class="edge">
<title>Node1&#45;&gt;Node9</title>
<path fill="none" stroke="#191970" d="M82.2303,-112.2977C83.1413,-104.2945 84.2693,-94.3843 85.2476,-85.7889"/>
<polygon fill="#191970" stroke="#191970" points="88.7258,-86.1786 86.3792,-75.8469 81.7707,-85.3869 88.7258,-86.1786"/>
</g>
<!-- Node3 -->
<g id="node4" class="node">
<title>Node3</title>
<polygon fill="#ffffff" stroke="#bfbfbf" points="37.5,-.5 37.5,-19.5 89.5,-19.5 89.5,-.5 37.5,-.5"/>
<text text-anchor="middle" x="63.5" y="-7.5" font-family="Helvetica,sans-Serif" font-size="10.00" fill="#000000">cassert</text>
</g>
<!-- Node2&#45;&gt;Node3 -->
<g id="edge3" class="edge">
<title>Node2&#45;&gt;Node3</title>
<path fill="none" stroke="#191970" d="M177.777,-56.3733C155.3263,-47.2629 121.4261,-33.5062 96.3745,-23.3404"/>
<polygon fill="#191970" stroke="#191970" points="97.4957,-20.0182 86.9135,-19.5011 94.8635,-26.5045 97.4957,-20.0182"/>
</g>
<!-- Node4 -->
<g id="node5" class="node">
<title>Node4</title>
<polygon fill="#ffffff" stroke="#bfbfbf" points="107.5,-.5 107.5,-19.5 153.5,-19.5 153.5,-.5 107.5,-.5"/>
<text text-anchor="middle" x="130.5" y="-7.5" font-family="Helvetica,sans-Serif" font-size="10.00" fill="#000000">cstdio</text>
</g>
<!-- Node2&#45;&gt;Node4 -->
<g id="edge4" class="edge">
<title>Node2&#45;&gt;Node4</title>
<path fill="none" stroke="#191970" d="M189.1327,-56.2455C178.5446,-47.8943 163.0936,-35.7076 150.7107,-25.9408"/>
<polygon fill="#191970" stroke="#191970" points="152.7447,-23.0875 142.7255,-19.6427 148.4097,-28.5837 152.7447,-23.0875"/>
</g>
<!-- Node5 -->
<g id="node6" class="node">
<title>Node5</title>
<polygon fill="#ffffff" stroke="#bfbfbf" points="171.5,-.5 171.5,-19.5 231.5,-19.5 231.5,-.5 171.5,-.5"/>
<text text-anchor="middle" x="201.5" y="-7.5" font-family="Helvetica,sans-Serif" font-size="10.00" fill="#000000">iostream</text>
</g>
<!-- Node2&#45;&gt;Node5 -->
<g id="edge5" class="edge">
<title>Node2&#45;&gt;Node5</title>
<path fill="none" stroke="#191970" d="M201.5,-56.2455C201.5,-48.9382 201.5,-38.6944 201.5,-29.7046"/>
<polygon fill="#191970" stroke="#191970" points="205.0001,-29.6426 201.5,-19.6427 198.0001,-29.6427 205.0001,-29.6426"/>
</g>
<!-- Node6 -->
<g id="node7" class="node">
<title>Node6</title>
<polygon fill="#ffffff" stroke="#bfbfbf" points="249.5,-.5 249.5,-19.5 305.5,-19.5 305.5,-.5 249.5,-.5"/>
<text text-anchor="middle" x="277.5" y="-7.5" font-family="Helvetica,sans-Serif" font-size="10.00" fill="#000000">sstream</text>
</g>
<!-- Node2&#45;&gt;Node6 -->
<g id="edge6" class="edge">
<title>Node2&#45;&gt;Node6</title>
<path fill="none" stroke="#191970" d="M214.7382,-56.2455C226.181,-47.814 242.9296,-35.4729 256.2475,-25.6598"/>
<polygon fill="#191970" stroke="#191970" points="258.4391,-28.3924 264.4135,-19.6427 254.2867,-22.757 258.4391,-28.3924"/>
</g>
<!-- Node7 -->
<g id="node8" class="node">
<title>Node7</title>
<polygon fill="#ffffff" stroke="#bfbfbf" points="323.5,-.5 323.5,-19.5 371.5,-19.5 371.5,-.5 323.5,-.5"/>
<text text-anchor="middle" x="347.5" y="-7.5" font-family="Helvetica,sans-Serif" font-size="10.00" fill="#000000">thread</text>
</g>
<!-- Node2&#45;&gt;Node7 -->
<g id="edge7" class="edge">
<title>Node2&#45;&gt;Node7</title>
<path fill="none" stroke="#191970" d="M226.5983,-56.3733C250.6001,-47.1671 286.9713,-33.2165 313.5524,-23.021"/>
<polygon fill="#191970" stroke="#191970" points="315.131,-26.1642 323.2144,-19.315 312.6242,-19.6285 315.131,-26.1642"/>
</g>
<!-- Node11 -->
<g id="node12" class="node">
<title>Node11</title>
<polygon fill="#ffffff" stroke="#bfbfbf" points="294.5,-56.5 294.5,-75.5 352.5,-75.5 352.5,-56.5 294.5,-56.5"/>
<text text-anchor="middle" x="323.5" y="-63.5" font-family="Helvetica,sans-Serif" font-size="10.00" fill="#000000">memory</text>
</g>
<!-- Node10&#45;&gt;Node11 -->
<g id="edge11" class="edge">
<title>Node10&#45;&gt;Node11</title>
<path fill="none" stroke="#191970" d="M336.1563,-117.8906C334.0551,-109.276 330.9075,-96.3708 328.277,-85.5858"/>
<polygon fill="#191970" stroke="#191970" points="331.6468,-84.6307 325.8768,-75.7449 324.8461,-86.2894 331.6468,-84.6307"/>
</g>
<!-- Node12 -->
<g id="node13" class="node">
<title>Node12</title>
<polygon fill="#ffffff" stroke="#bfbfbf" points="371,-56.5 371,-75.5 418,-75.5 418,-56.5 371,-56.5"/>
<text text-anchor="middle" x="394.5" y="-63.5" font-family="Helvetica,sans-Serif" font-size="10.00" fill="#000000">vector</text>
</g>
<!-- Node10&#45;&gt;Node12 -->
<g id="edge12" class="edge">
<title>Node10&#45;&gt;Node12</title>
<path fill="none" stroke="#191970" d="M347.25,-117.8906C355.6662,-108.6478 368.5797,-94.466 378.781,-83.2628"/>
<polygon fill="#191970" stroke="#191970" points="381.4818,-85.4953 385.6266,-75.7449 376.306,-80.7824 381.4818,-85.4953"/>
</g>
<!-- Node13&#45;&gt;Node2 -->
<g id="edge14" class="edge">
<title>Node13&#45;&gt;Node2</title>
<path fill="none" stroke="#191970" d="M207.4063,-117.8906C206.4359,-109.3657 204.9874,-96.6392 203.7677,-85.9235"/>
<polygon fill="#191970" stroke="#191970" points="207.2177,-85.2849 202.6092,-75.7449 200.2626,-86.0766 207.2177,-85.2849"/>
</g>
</g>
</svg>
