<?xml version="1.0" encoding="UTF-8" standalone="no"?>
<!DOCTYPE svg PUBLIC "-//W3C//DTD SVG 1.1//EN"
 "http://www.w3.org/Graphics/SVG/1.1/DTD/svg11.dtd">
<!-- Generated by graphviz version 2.40.1 (20161225.0304)
 -->
<!-- Title: src/IO/CameraLoader/CameraLoader.cpp Pages: 1 -->
<svg width="3288pt" height="554pt"
 viewBox="0.00 0.00 3287.50 554.00" xmlns="http://www.w3.org/2000/svg" xmlns:xlink="http://www.w3.org/1999/xlink">
<g id="graph0" class="graph" transform="scale(1 1) rotate(0) translate(4 550)">
<title>src/IO/CameraLoader/CameraLoader.cpp</title>
<polygon fill="#ffffff" stroke="transparent" points="-4,4 -4,-550 3283.5,-550 3283.5,4 -4,4"/>
<!-- Node0 -->
<g id="node1" class="node">
<title>Node0</title>
<polygon fill="#bfbfbf" stroke="#000000" points="3031.5,-515.5 3031.5,-545.5 3150.5,-545.5 3150.5,-515.5 3031.5,-515.5"/>
<text text-anchor="start" x="3039.5" y="-533.5" font-family="Helvetica,sans-Serif" font-size="10.00" fill="#000000">src/IO/CameraLoader</text>
<text text-anchor="middle" x="3091" y="-522.5" font-family="Helvetica,sans-Serif" font-size="10.00" fill="#000000">/CameraLoader.cpp</text>
</g>
<!-- Node1 -->
<g id="node2" class="node">
<title>Node1</title>
<g id="a_node2"><a xlink:href="CameraLoader_8hpp.html" target="_top" xlink:title="IO/CameraLoader/CameraLoader.hpp">
<polygon fill="#ffffff" stroke="#000000" points="770,-235.5 770,-254.5 966,-254.5 966,-235.5 770,-235.5"/>
<text text-anchor="middle" x="868" y="-242.5" font-family="Helvetica,sans-Serif" font-size="10.00" fill="#000000">IO/CameraLoader/CameraLoader.hpp</text>
</a>
</g>
</g>
<!-- Node0&#45;&gt;Node1 -->
<g id="edge1" class="edge">
<title>Node0&#45;&gt;Node1</title>
<path fill="none" stroke="#191970" d="M3031.2529,-528.9459C2677.0412,-519.5418 868,-468.7824 868,-413 868,-413 868,-413 868,-357 868,-324.7116 868,-287.1872 868,-264.8048"/>
<polygon fill="#191970" stroke="#191970" points="871.5001,-264.5883 868,-254.5884 864.5001,-264.5884 871.5001,-264.5883"/>
</g>
<!-- Node3 -->
<g id="node4" class="node">
<title>Node3</title>
<polygon fill="#ffffff" stroke="#bfbfbf" points="2403,-112.5 2403,-131.5 2447,-131.5 2447,-112.5 2403,-112.5"/>
<text text-anchor="middle" x="2425" y="-119.5" font-family="Helvetica,sans-Serif" font-size="10.00" fill="#000000">string</text>
</g>
<!-- Node0&#45;&gt;Node3 -->
<g id="edge120" class="edge">
<title>Node0&#45;&gt;Node3</title>
<path fill="none" stroke="#191970" d="M3096.0508,-515.3434C3108.3037,-475.7201 3135.7859,-366.8748 3096,-291 3075.6755,-252.2396 3056.1423,-249.9254 3015,-235 2849.7005,-175.0335 2785.3522,-261.5161 2621,-199 2599.3151,-190.7515 2599.7575,-178.3633 2579,-168 2539.1877,-148.1235 2489.2164,-135.1602 2457.1923,-128.2103"/>
<polygon fill="#191970" stroke="#191970" points="2457.5665,-124.7126 2447.0606,-126.0826 2456.1278,-131.5632 2457.5665,-124.7126"/>
</g>
<!-- Node9 -->
<g id="node10" class="node">
<title>Node9</title>
<polygon fill="#ffffff" stroke="#bfbfbf" points="250,-.5 250,-19.5 310,-19.5 310,-.5 250,-.5"/>
<text text-anchor="middle" x="280" y="-7.5" font-family="Helvetica,sans-Serif" font-size="10.00" fill="#000000">iostream</text>
</g>
<!-- Node0&#45;&gt;Node9 -->
<g id="edge119" class="edge">
<title>Node0&#45;&gt;Node9</title>
<path fill="none" stroke="#191970" d="M3031.3295,-529.8421C2601.9123,-524.9185 0,-491.8328 0,-413 0,-413 0,-413 0,-122 0,-70.9544 162.4522,-32.6908 239.877,-17.353"/>
<polygon fill="#191970" stroke="#191970" points="240.6225,-20.7737 249.7691,-15.4267 239.2844,-13.9027 240.6225,-20.7737"/>
</g>
<!-- Node13 -->
<g id="node14" class="node">
<title>Node13</title>
<g id="a_node14"><a xlink:href="FileData_8hpp.html" target="_top" xlink:title="Core/Asset/FileData.hpp">
<polygon fill="#ffffff" stroke="#000000" points="2855.5,-459.5 2855.5,-478.5 2988.5,-478.5 2988.5,-459.5 2855.5,-459.5"/>
<text text-anchor="middle" x="2922" y="-466.5" font-family="Helvetica,sans-Serif" font-size="10.00" fill="#000000">Core/Asset/FileData.hpp</text>
</a>
</g>
</g>
<!-- Node0&#45;&gt;Node13 -->
<g id="edge14" class="edge">
<title>Node0&#45;&gt;Node13</title>
<path fill="none" stroke="#191970" d="M3049.6579,-515.4554C3021.4599,-505.194 2984.4969,-491.7429 2957.6057,-481.9571"/>
<polygon fill="#191970" stroke="#191970" points="2958.783,-478.6611 2948.189,-478.5303 2956.3892,-485.239 2958.783,-478.6611"/>
</g>
<!-- Node60 -->
<g id="node49" class="node">
<title>Node60</title>
<g id="a_node49"><a xlink:href="StringUtils_8hpp.html" target="_top" xlink:title="Core/Utils/StringUtils.hpp">
<polygon fill="#ffffff" stroke="#000000" points="2630,-174 2630,-193 2770,-193 2770,-174 2630,-174"/>
<text text-anchor="middle" x="2700" y="-181" font-family="Helvetica,sans-Serif" font-size="10.00" fill="#000000">Core/Utils/StringUtils.hpp</text>
</a>
</g>
</g>
<!-- Node0&#45;&gt;Node60 -->
<g id="edge114" class="edge">
<title>Node0&#45;&gt;Node60</title>
<path fill="none" stroke="#191970" d="M3125.0961,-515.3229C3141.2075,-506.6769 3159.583,-494.4616 3172,-479 3191.544,-454.6638 3196,-444.2125 3196,-413 3196,-413 3196,-413 3196,-301 3196,-260.7538 3169.9299,-253.1327 3134,-235 3073.8742,-204.6564 2888.4376,-191.6314 2780.3969,-186.4972"/>
<polygon fill="#191970" stroke="#191970" points="2780.3409,-182.991 2770.1898,-186.0247 2780.0172,-189.9835 2780.3409,-182.991"/>
</g>
<!-- Node61 -->
<g id="node50" class="node">
<title>Node61</title>
<polygon fill="#ffffff" stroke="#bfbfbf" points="3224.5,-459.5 3224.5,-478.5 3279.5,-478.5 3279.5,-459.5 3224.5,-459.5"/>
<text text-anchor="middle" x="3252" y="-466.5" font-family="Helvetica,sans-Serif" font-size="10.00" fill="#000000">fstream</text>
</g>
<!-- Node0&#45;&gt;Node61 -->
<g id="edge118" class="edge">
<title>Node0&#45;&gt;Node61</title>
<path fill="none" stroke="#191970" d="M3130.385,-515.4554C3157.0127,-505.284 3191.8444,-491.9787 3217.4034,-482.2155"/>
<polygon fill="#191970" stroke="#191970" points="3218.958,-485.3684 3227.0507,-478.5303 3216.4601,-478.8292 3218.958,-485.3684"/>
</g>
<!-- Node2 -->
<g id="node3" class="node">
<title>Node2</title>
<g id="a_node3"><a xlink:href="FileLoaderInterface_8hpp.html" target="_top" xlink:title="Core/Asset/FileLoaderInterface.hpp">
<polygon fill="#ffffff" stroke="#000000" points="2110,-174 2110,-193 2296,-193 2296,-174 2110,-174"/>
<text text-anchor="middle" x="2203" y="-181" font-family="Helvetica,sans-Serif" font-size="10.00" fill="#000000">Core/Asset/FileLoaderInterface.hpp</text>
</a>
</g>
</g>
<!-- Node1&#45;&gt;Node2 -->
<g id="edge2" class="edge">
<title>Node1&#45;&gt;Node2</title>
<path fill="none" stroke="#191970" d="M966.1526,-241.9807C1238.2659,-233.5194 1989.5692,-209.5109 2101,-199 2112.9812,-197.8699 2125.6992,-196.2653 2137.9421,-194.5131"/>
<polygon fill="#191970" stroke="#191970" points="2138.7069,-197.9382 2148.0878,-193.0138 2137.6835,-191.0134 2138.7069,-197.9382"/>
</g>
<!-- Node12 -->
<g id="node13" class="node">
<title>Node12</title>
<g id="a_node13"><a xlink:href="RaIO_8hpp.html" target="_top" xlink:title="IO/RaIO.hpp">
<polygon fill="#ffffff" stroke="#000000" points="532,-112.5 532,-131.5 606,-131.5 606,-112.5 532,-112.5"/>
<text text-anchor="middle" x="569" y="-119.5" font-family="Helvetica,sans-Serif" font-size="10.00" fill="#000000">IO/RaIO.hpp</text>
</a>
</g>
</g>
<!-- Node1&#45;&gt;Node12 -->
<g id="edge12" class="edge">
<title>Node1&#45;&gt;Node12</title>
<path fill="none" stroke="#191970" d="M780.401,-235.4822C703.647,-226.3584 602.157,-212.0793 588,-199 572.3289,-184.5217 568.6677,-159.3599 568.2191,-141.7521"/>
<polygon fill="#191970" stroke="#191970" points="571.7193,-141.7169 568.285,-131.6942 564.7194,-141.671 571.7193,-141.7169"/>
</g>
<!-- Node2&#45;&gt;Node3 -->
<g id="edge3" class="edge">
<title>Node2&#45;&gt;Node3</title>
<path fill="none" stroke="#191970" d="M2237.6875,-173.8906C2280.1827,-162.1183 2351.6001,-142.3337 2392.8861,-130.8964"/>
<polygon fill="#191970" stroke="#191970" points="2393.9947,-134.2212 2402.6973,-128.1784 2392.1259,-127.4753 2393.9947,-134.2212"/>
</g>
<!-- Node4 -->
<g id="node5" class="node">
<title>Node4</title>
<polygon fill="#ffffff" stroke="#bfbfbf" points="2831.5,-112.5 2831.5,-131.5 2878.5,-131.5 2878.5,-112.5 2831.5,-112.5"/>
<text text-anchor="middle" x="2855" y="-119.5" font-family="Helvetica,sans-Serif" font-size="10.00" fill="#000000">vector</text>
</g>
<!-- Node2&#45;&gt;Node4 -->
<g id="edge4" class="edge">
<title>Node2&#45;&gt;Node4</title>
<path fill="none" stroke="#191970" d="M2296.0692,-174.7212C2443.592,-160.8061 2724.326,-134.3258 2821.1641,-125.1916"/>
<polygon fill="#191970" stroke="#191970" points="2821.6356,-128.6627 2831.2627,-124.239 2820.9782,-121.6937 2821.6356,-128.6627"/>
</g>
<!-- Node5 -->
<g id="node6" class="node">
<title>Node5</title>
<g id="a_node6"><a xlink:href="RaCore_8hpp.html" target="_top" xlink:title="Core/RaCore.hpp">
<polygon fill="#ffffff" stroke="#000000" points="1577,-112.5 1577,-131.5 1675,-131.5 1675,-112.5 1577,-112.5"/>
<text text-anchor="middle" x="1626" y="-119.5" font-family="Helvetica,sans-Serif" font-size="10.00" fill="#000000">Core/RaCore.hpp</text>
</a>
</g>
</g>
<!-- Node2&#45;&gt;Node5 -->
<g id="edge5" class="edge">
<title>Node2&#45;&gt;Node5</title>
<path fill="none" stroke="#191970" d="M2144.0147,-173.9801C2129.9401,-171.8627 2114.9532,-169.7345 2101,-168 1951.7698,-149.4494 1775.3733,-134.0801 1685.3484,-126.7062"/>
<polygon fill="#191970" stroke="#191970" points="1685.5825,-123.2137 1675.3312,-125.8895 1685.0137,-130.1906 1685.5825,-123.2137"/>
</g>
<!-- Node6 -->
<g id="node7" class="node">
<title>Node6</title>
<g id="a_node7"><a xlink:href="CoreMacros_8hpp.html" target="_top" xlink:title="Core/CoreMacros.hpp">
<polygon fill="#ffffff" stroke="#000000" points="574,-56.5 574,-75.5 694,-75.5 694,-56.5 574,-56.5"/>
<text text-anchor="middle" x="634" y="-63.5" font-family="Helvetica,sans-Serif" font-size="10.00" fill="#000000">Core/CoreMacros.hpp</text>
</a>
</g>
</g>
<!-- Node5&#45;&gt;Node6 -->
<g id="edge6" class="edge">
<title>Node5&#45;&gt;Node6</title>
<path fill="none" stroke="#191970" d="M1576.8066,-119.223C1414.3275,-110.0507 894.4117,-80.7007 704.3973,-69.974"/>
<polygon fill="#191970" stroke="#191970" points="704.4299,-66.4704 694.2485,-69.4011 704.0353,-73.4593 704.4299,-66.4704"/>
</g>
<!-- Node7 -->
<g id="node8" class="node">
<title>Node7</title>
<polygon fill="#ffffff" stroke="#bfbfbf" points="608,-.5 608,-19.5 660,-19.5 660,-.5 608,-.5"/>
<text text-anchor="middle" x="634" y="-7.5" font-family="Helvetica,sans-Serif" font-size="10.00" fill="#000000">cassert</text>
</g>
<!-- Node6&#45;&gt;Node7 -->
<g id="edge7" class="edge">
<title>Node6&#45;&gt;Node7</title>
<path fill="none" stroke="#191970" d="M634,-56.2455C634,-48.9382 634,-38.6944 634,-29.7046"/>
<polygon fill="#191970" stroke="#191970" points="637.5001,-29.6426 634,-19.6427 630.5001,-29.6427 637.5001,-29.6426"/>
</g>
<!-- Node8 -->
<g id="node9" class="node">
<title>Node8</title>
<polygon fill="#ffffff" stroke="#bfbfbf" points="678,-.5 678,-19.5 724,-19.5 724,-.5 678,-.5"/>
<text text-anchor="middle" x="701" y="-7.5" font-family="Helvetica,sans-Serif" font-size="10.00" fill="#000000">cstdio</text>
</g>
<!-- Node6&#45;&gt;Node8 -->
<g id="edge8" class="edge">
<title>Node6&#45;&gt;Node8</title>
<path fill="none" stroke="#191970" d="M645.6705,-56.2455C655.5661,-47.9746 669.9627,-35.9416 681.5901,-26.2232"/>
<polygon fill="#191970" stroke="#191970" points="684.035,-28.7413 689.4632,-19.6427 679.5458,-23.3703 684.035,-28.7413"/>
</g>
<!-- Node6&#45;&gt;Node9 -->
<g id="edge9" class="edge">
<title>Node6&#45;&gt;Node9</title>
<path fill="none" stroke="#191970" d="M573.9487,-56.5004C501.7835,-45.0844 382.6721,-26.2419 320.5463,-16.4141"/>
<polygon fill="#191970" stroke="#191970" points="320.7805,-12.9077 310.3564,-14.8021 319.6867,-19.8217 320.7805,-12.9077"/>
</g>
<!-- Node10 -->
<g id="node11" class="node">
<title>Node10</title>
<polygon fill="#ffffff" stroke="#bfbfbf" points="1409,-.5 1409,-19.5 1465,-19.5 1465,-.5 1409,-.5"/>
<text text-anchor="middle" x="1437" y="-7.5" font-family="Helvetica,sans-Serif" font-size="10.00" fill="#000000">sstream</text>
</g>
<!-- Node6&#45;&gt;Node10 -->
<g id="edge10" class="edge">
<title>Node6&#45;&gt;Node10</title>
<path fill="none" stroke="#191970" d="M694.0271,-61.8138C850.9158,-50.8726 1269.9473,-21.65 1398.7793,-12.6655"/>
<polygon fill="#191970" stroke="#191970" points="1399.2121,-16.1439 1408.9443,-11.9566 1398.725,-9.1608 1399.2121,-16.1439"/>
</g>
<!-- Node11 -->
<g id="node12" class="node">
<title>Node11</title>
<polygon fill="#ffffff" stroke="#bfbfbf" points="542,-.5 542,-19.5 590,-19.5 590,-.5 542,-.5"/>
<text text-anchor="middle" x="566" y="-7.5" font-family="Helvetica,sans-Serif" font-size="10.00" fill="#000000">thread</text>
</g>
<!-- Node6&#45;&gt;Node11 -->
<g id="edge11" class="edge">
<title>Node6&#45;&gt;Node11</title>
<path fill="none" stroke="#191970" d="M622.1553,-56.2455C612.112,-47.9746 597.5005,-35.9416 585.6996,-26.2232"/>
<polygon fill="#191970" stroke="#191970" points="587.6533,-23.298 577.709,-19.6427 583.2033,-28.7015 587.6533,-23.298"/>
</g>
<!-- Node12&#45;&gt;Node6 -->
<g id="edge13" class="edge">
<title>Node12&#45;&gt;Node6</title>
<path fill="none" stroke="#191970" d="M580.3221,-112.2455C589.9223,-103.9746 603.8892,-91.9416 615.1695,-82.2232"/>
<polygon fill="#191970" stroke="#191970" points="617.516,-84.8214 622.8076,-75.6427 612.947,-79.5182 617.516,-84.8214"/>
</g>
<!-- Node13&#45;&gt;Node3 -->
<g id="edge16" class="edge">
<title>Node13&#45;&gt;Node3</title>
<path fill="none" stroke="#191970" d="M2962.7887,-459.4547C3010.1927,-445.6536 3082,-415.1507 3082,-357 3082,-357 3082,-357 3082,-301 3082,-234.2134 3011.2346,-253.2855 2947,-235 2792.7715,-191.0961 2739.0952,-252.7049 2588,-199 2564.4217,-190.6194 2563.1922,-179.562 2541,-168 2513.597,-153.7231 2480.7225,-141.0763 2456.9788,-132.6747"/>
<polygon fill="#191970" stroke="#191970" points="2457.9994,-129.324 2447.4045,-129.3415 2455.6978,-135.9348 2457.9994,-129.324"/>
</g>
<!-- Node13&#45;&gt;Node4 -->
<g id="edge17" class="edge">
<title>Node13&#45;&gt;Node4</title>
<path fill="none" stroke="#191970" d="M2988.582,-459.8997C3031.8684,-452.4628 3082.656,-440.3302 3096,-423 3116.6074,-396.2367 3104.4418,-379.7059 3096,-347 3073.279,-258.9725 3067.1485,-225.8297 2997,-168 2965.7416,-142.2309 2919.7075,-130.7805 2888.5997,-125.7705"/>
<polygon fill="#191970" stroke="#191970" points="2889.0686,-122.3018 2878.6653,-124.3069 2888.0483,-129.2271 2889.0686,-122.3018"/>
</g>
<!-- Node13&#45;&gt;Node5 -->
<g id="edge18" class="edge">
<title>Node13&#45;&gt;Node5</title>
<path fill="none" stroke="#191970" d="M2855.3054,-467.6763C2467.6879,-459.7701 522,-417.0914 522,-357 522,-357 522,-357 522,-301 522,-189.1765 645.8271,-234.0973 752,-199 783.1527,-188.7019 787.1703,-175.9631 819,-168 960.6201,-132.5697 1405.0821,-124.3456 1566.5908,-122.5078"/>
<polygon fill="#191970" stroke="#191970" points="1566.8527,-126.0053 1576.8137,-122.3958 1566.7759,-119.0057 1566.8527,-126.0053"/>
</g>
<!-- Node14 -->
<g id="node15" class="node">
<title>Node14</title>
<polygon fill="#ffffff" stroke="#bfbfbf" points="2692,-235.5 2692,-254.5 2750,-254.5 2750,-235.5 2692,-235.5"/>
<text text-anchor="middle" x="2721" y="-242.5" font-family="Helvetica,sans-Serif" font-size="10.00" fill="#000000">memory</text>
</g>
<!-- Node13&#45;&gt;Node14 -->
<g id="edge15" class="edge">
<title>Node13&#45;&gt;Node14</title>
<path fill="none" stroke="#191970" d="M2917.3848,-459.4209C2903.2398,-430.8372 2857.9149,-344.8036 2800,-291 2786.0378,-278.029 2767.7927,-267.1056 2752.3544,-259.1628"/>
<polygon fill="#191970" stroke="#191970" points="2753.6822,-255.9147 2743.1679,-254.6107 2750.5742,-262.1869 2753.6822,-255.9147"/>
</g>
<!-- Node15 -->
<g id="node16" class="node">
<title>Node15</title>
<g id="a_node16"><a xlink:href="FileData_8inl.html" target="_top" xlink:title="Core/Asset/FileData.inl">
<polygon fill="#ffffff" stroke="#000000" points="1855.5,-403.5 1855.5,-422.5 1982.5,-422.5 1982.5,-403.5 1855.5,-403.5"/>
<text text-anchor="middle" x="1919" y="-410.5" font-family="Helvetica,sans-Serif" font-size="10.00" fill="#000000">Core/Asset/FileData.inl</text>
</a>
</g>
</g>
<!-- Node13&#45;&gt;Node15 -->
<g id="edge19" class="edge">
<title>Node13&#45;&gt;Node15</title>
<path fill="none" stroke="#191970" d="M2855.4136,-465.2823C2675.5077,-455.2377 2180.6139,-427.6066 1992.6952,-417.1146"/>
<polygon fill="#191970" stroke="#191970" points="1992.8179,-413.6161 1982.6383,-416.5531 1992.4276,-420.6052 1992.8179,-413.6161"/>
</g>
<!-- Node16 -->
<g id="node17" class="node">
<title>Node16</title>
<g id="a_node17"><a xlink:href="AnimationData_8hpp.html" target="_top" xlink:title="Core/Asset/AnimationData.hpp">
<polygon fill="#ffffff" stroke="#000000" points="1449.5,-347.5 1449.5,-366.5 1616.5,-366.5 1616.5,-347.5 1449.5,-347.5"/>
<text text-anchor="middle" x="1533" y="-354.5" font-family="Helvetica,sans-Serif" font-size="10.00" fill="#000000">Core/Asset/AnimationData.hpp</text>
</a>
</g>
</g>
<!-- Node15&#45;&gt;Node16 -->
<g id="edge20" class="edge">
<title>Node15&#45;&gt;Node16</title>
<path fill="none" stroke="#191970" d="M1855.26,-403.7527C1787.5667,-393.932 1680.6098,-378.4149 1608.6825,-367.9798"/>
<polygon fill="#191970" stroke="#191970" points="1609.1724,-364.5144 1598.7735,-366.5423 1608.1673,-371.4418 1609.1724,-364.5144"/>
</g>
<!-- Node36 -->
<g id="node32" class="node">
<title>Node36</title>
<g id="a_node32"><a xlink:href="Log_8hpp.html" target="_top" xlink:title="Core/Utils/Log.hpp">
<polygon fill="#ffffff" stroke="#000000" points="1986,-174 1986,-193 2092,-193 2092,-174 1986,-174"/>
<text text-anchor="middle" x="2039" y="-181" font-family="Helvetica,sans-Serif" font-size="10.00" fill="#000000">Core/Utils/Log.hpp</text>
</a>
</g>
</g>
<!-- Node15&#45;&gt;Node36 -->
<g id="edge113" class="edge">
<title>Node15&#45;&gt;Node36</title>
<path fill="none" stroke="#191970" d="M1982.6511,-406.1287C2064.117,-397.2919 2209.6008,-381.3687 2334,-367 2593.5055,-337.0258 2774.0627,-477.4629 2911,-255 2915.6596,-247.4303 2917.1443,-241.4234 2911,-235 2879.8639,-202.4494 2145.5737,-205.4951 2101,-199 2094.7316,-198.0866 2088.1753,-196.8096 2081.7714,-195.3768"/>
<polygon fill="#191970" stroke="#191970" points="2082.4355,-191.9371 2071.8968,-193.0265 2080.8146,-198.7469 2082.4355,-191.9371"/>
</g>
<!-- Node39 -->
<g id="node35" class="node">
<title>Node39</title>
<g id="a_node35"><a xlink:href="CameraData_8hpp.html" target="_top" xlink:title="Core/Asset/CameraData.hpp">
<polygon fill="#ffffff" stroke="#000000" points="1700.5,-291.5 1700.5,-310.5 1855.5,-310.5 1855.5,-291.5 1700.5,-291.5"/>
<text text-anchor="middle" x="1778" y="-298.5" font-family="Helvetica,sans-Serif" font-size="10.00" fill="#000000">Core/Asset/CameraData.hpp</text>
</a>
</g>
</g>
<!-- Node15&#45;&gt;Node39 -->
<g id="edge51" class="edge">
<title>Node15&#45;&gt;Node39</title>
<path fill="none" stroke="#191970" d="M1906.9784,-403.4509C1882.7329,-384.1921 1827.7552,-340.5218 1798.0088,-316.8935"/>
<polygon fill="#191970" stroke="#191970" points="1799.9984,-314.0041 1789.9912,-310.5249 1795.6445,-319.4854 1799.9984,-314.0041"/>
</g>
<!-- Node44 -->
<g id="node39" class="node">
<title>Node44</title>
<g id="a_node39"><a xlink:href="GeometryData_8hpp.html" target="_top" xlink:title="Core/Asset/GeometryData.hpp">
<polygon fill="#ffffff" stroke="#000000" points="2056.5,-291.5 2056.5,-310.5 2221.5,-310.5 2221.5,-291.5 2056.5,-291.5"/>
<text text-anchor="middle" x="2139" y="-298.5" font-family="Helvetica,sans-Serif" font-size="10.00" fill="#000000">Core/Asset/GeometryData.hpp</text>
</a>
</g>
</g>
<!-- Node15&#45;&gt;Node44 -->
<g id="edge66" class="edge">
<title>Node15&#45;&gt;Node44</title>
<path fill="none" stroke="#191970" d="M1937.7571,-403.4509C1976.5611,-383.6961 2065.8175,-338.2565 2111.2864,-315.1088"/>
<polygon fill="#191970" stroke="#191970" points="2112.9667,-318.1808 2120.2904,-310.5249 2109.7908,-311.9427 2112.9667,-318.1808"/>
</g>
<!-- Node51 -->
<g id="node43" class="node">
<title>Node51</title>
<g id="a_node43"><a xlink:href="HandleData_8hpp.html" target="_top" xlink:title="Core/Asset/HandleData.hpp">
<polygon fill="#ffffff" stroke="#000000" points="1146.5,-291.5 1146.5,-310.5 1297.5,-310.5 1297.5,-291.5 1146.5,-291.5"/>
<text text-anchor="middle" x="1222" y="-298.5" font-family="Helvetica,sans-Serif" font-size="10.00" fill="#000000">Core/Asset/HandleData.hpp</text>
</a>
</g>
</g>
<!-- Node15&#45;&gt;Node51 -->
<g id="edge84" class="edge">
<title>Node15&#45;&gt;Node51</title>
<path fill="none" stroke="#191970" d="M1855.2694,-410.894C1762.9329,-406.9388 1586.9155,-395.9959 1440,-367 1374.0941,-353.9925 1299.6594,-329.1847 1257.0377,-313.9658"/>
<polygon fill="#191970" stroke="#191970" points="1258.0155,-310.5979 1247.4211,-310.5015 1255.643,-317.1836 1258.0155,-310.5979"/>
</g>
<!-- Node53 -->
<g id="node45" class="node">
<title>Node53</title>
<g id="a_node45"><a xlink:href="LightData_8hpp.html" target="_top" xlink:title="Core/Asset/LightData.hpp">
<polygon fill="#ffffff" stroke="#000000" points="2651,-291.5 2651,-310.5 2791,-310.5 2791,-291.5 2651,-291.5"/>
<text text-anchor="middle" x="2721" y="-298.5" font-family="Helvetica,sans-Serif" font-size="10.00" fill="#000000">Core/Asset/LightData.hpp</text>
</a>
</g>
</g>
<!-- Node15&#45;&gt;Node53 -->
<g id="edge96" class="edge">
<title>Node15&#45;&gt;Node53</title>
<path fill="none" stroke="#191970" d="M1982.602,-404.1179C2127.976,-383.8163 2484.213,-334.0675 2642.7292,-311.9306"/>
<polygon fill="#191970" stroke="#191970" points="2643.4603,-315.3625 2652.8801,-310.513 2642.4921,-308.4298 2643.4603,-315.3625"/>
</g>
<!-- Node59 -->
<g id="node48" class="node">
<title>Node59</title>
<g id="a_node48"><a xlink:href="VolumeData_8hpp.html" target="_top" xlink:title="Core/Asset/VolumeData.hpp">
<polygon fill="#ffffff" stroke="#000000" points="340.5,-235.5 340.5,-254.5 493.5,-254.5 493.5,-235.5 340.5,-235.5"/>
<text text-anchor="middle" x="417" y="-242.5" font-family="Helvetica,sans-Serif" font-size="10.00" fill="#000000">Core/Asset/VolumeData.hpp</text>
</a>
</g>
</g>
<!-- Node15&#45;&gt;Node59 -->
<g id="edge109" class="edge">
<title>Node15&#45;&gt;Node59</title>
<path fill="none" stroke="#191970" d="M1855.2227,-412.3646C1668.1166,-409.5442 1105.0168,-394.2186 647,-311 577.2718,-298.3309 498.3374,-273.2375 453.432,-257.905"/>
<polygon fill="#191970" stroke="#191970" points="454.4407,-254.5507 443.846,-254.6032 452.1611,-261.1691 454.4407,-254.5507"/>
</g>
<!-- Node16&#45;&gt;Node3 -->
<g id="edge21" class="edge">
<title>Node16&#45;&gt;Node3</title>
<path fill="none" stroke="#191970" d="M1616.6889,-355.7518C1880.7084,-351.5649 2685.3869,-336.8125 2800,-311 2861.3733,-297.1778 2895.4171,-307.5524 2930,-255 2976.9219,-183.6973 2630.3635,-227.7651 2550,-199 2526.7885,-190.6917 2524.886,-181.0987 2504,-168 2486.6301,-157.1064 2466.6731,-145.4931 2451.1635,-136.6607"/>
<polygon fill="#191970" stroke="#191970" points="2452.5703,-133.4351 2442.1442,-131.5518 2449.1203,-139.5259 2452.5703,-133.4351"/>
</g>
<!-- Node16&#45;&gt;Node4 -->
<g id="edge22" class="edge">
<title>Node16&#45;&gt;Node4</title>
<path fill="none" stroke="#191970" d="M1616.6049,-356.7049C1889.4226,-355.3823 2742.9651,-348.278 2861,-311 2938.7713,-286.4381 3022.3032,-235.1392 2976,-168 2965.7533,-153.1424 2920.7334,-138.8208 2888.608,-130.2112"/>
<polygon fill="#191970" stroke="#191970" points="2889.251,-126.7619 2878.6912,-127.6232 2887.4833,-133.535 2889.251,-126.7619"/>
</g>
<!-- Node16&#45;&gt;Node5 -->
<g id="edge42" class="edge">
<title>Node16&#45;&gt;Node5</title>
<path fill="none" stroke="#191970" d="M1449.3601,-354.8582C1349.2727,-351.0006 1188.7032,-340.3159 1137,-311 1072.4853,-274.4199 1000.6928,-222.4925 1051,-168 1068.3138,-149.2458 1422.8112,-131.185 1566.3926,-124.6102"/>
<polygon fill="#191970" stroke="#191970" points="1566.9365,-128.0891 1576.7672,-124.1383 1566.6184,-121.0964 1566.9365,-128.0891"/>
</g>
<!-- Node17 -->
<g id="node18" class="node">
<title>Node17</title>
<g id="a_node18"><a xlink:href="AnimationTime_8hpp.html" target="_top" xlink:title="Core/Animation/Animation\lTime.hpp">
<polygon fill="#ffffff" stroke="#000000" points="597,-168.5 597,-198.5 743,-198.5 743,-168.5 597,-168.5"/>
<text text-anchor="start" x="605" y="-186.5" font-family="Helvetica,sans-Serif" font-size="10.00" fill="#000000">Core/Animation/Animation</text>
<text text-anchor="middle" x="670" y="-175.5" font-family="Helvetica,sans-Serif" font-size="10.00" fill="#000000">Time.hpp</text>
</a>
</g>
</g>
<!-- Node16&#45;&gt;Node17 -->
<g id="edge23" class="edge">
<title>Node16&#45;&gt;Node17</title>
<path fill="none" stroke="#191970" d="M1449.4376,-353.7664C1312.8488,-347.8564 1053.3448,-333.7797 1018,-311 985.3787,-289.9756 1006.7746,-257.2833 975,-235 956.9912,-222.3706 837.1059,-204.8124 753.1223,-193.8073"/>
<polygon fill="#191970" stroke="#191970" points="753.4357,-190.3187 743.0676,-192.4985 752.5321,-197.2601 753.4357,-190.3187"/>
</g>
<!-- Node20 -->
<g id="node21" class="node">
<title>Node20</title>
<g id="a_node21"><a xlink:href="KeyTransform_8hpp.html" target="_top" xlink:title="Core/Animation/KeyTransform.hpp">
<polygon fill="#ffffff" stroke="#000000" points="656.5,-291.5 656.5,-310.5 839.5,-310.5 839.5,-291.5 656.5,-291.5"/>
<text text-anchor="middle" x="748" y="-298.5" font-family="Helvetica,sans-Serif" font-size="10.00" fill="#000000">Core/Animation/KeyTransform.hpp</text>
</a>
</g>
</g>
<!-- Node16&#45;&gt;Node20 -->
<g id="edge27" class="edge">
<title>Node16&#45;&gt;Node20</title>
<path fill="none" stroke="#191970" d="M1449.3632,-351.0336C1304.3028,-340.6853 1006.5785,-319.4464 849.7685,-308.2599"/>
<polygon fill="#191970" stroke="#191970" points="849.8703,-304.7584 839.6466,-307.5378 849.3722,-311.7406 849.8703,-304.7584"/>
</g>
<!-- Node34 -->
<g id="node30" class="node">
<title>Node34</title>
<g id="a_node30"><a xlink:href="AssetData_8hpp.html" target="_top" xlink:title="Core/Asset/AssetData.hpp">
<polygon fill="#ffffff" stroke="#000000" points="1504.5,-174 1504.5,-193 1647.5,-193 1647.5,-174 1504.5,-174"/>
<text text-anchor="middle" x="1576" y="-181" font-family="Helvetica,sans-Serif" font-size="10.00" fill="#000000">Core/Asset/AssetData.hpp</text>
</a>
</g>
</g>
<!-- Node16&#45;&gt;Node34 -->
<g id="edge39" class="edge">
<title>Node16&#45;&gt;Node34</title>
<path fill="none" stroke="#191970" d="M1497.4405,-347.437C1466.9463,-337.1736 1429.8493,-318.5385 1443,-291 1464.193,-246.6201 1513.6456,-214.6641 1545.9129,-197.6354"/>
<polygon fill="#191970" stroke="#191970" points="1547.6104,-200.6985 1554.9224,-193.0313 1544.425,-194.4652 1547.6104,-200.6985"/>
</g>
<!-- Node35 -->
<g id="node31" class="node">
<title>Node35</title>
<g id="a_node31"><a xlink:href="AnimationData_8inl.html" target="_top" xlink:title="Core/Asset/AnimationData.inl">
<polygon fill="#ffffff" stroke="#000000" points="1452.5,-291.5 1452.5,-310.5 1613.5,-310.5 1613.5,-291.5 1452.5,-291.5"/>
<text text-anchor="middle" x="1533" y="-298.5" font-family="Helvetica,sans-Serif" font-size="10.00" fill="#000000">Core/Asset/AnimationData.inl</text>
</a>
</g>
</g>
<!-- Node16&#45;&gt;Node35 -->
<g id="edge43" class="edge">
<title>Node16&#45;&gt;Node35</title>
<path fill="none" stroke="#191970" d="M1527.7332,-347.2455C1526.3221,-339.9382 1525.9179,-329.6944 1526.5205,-320.7046"/>
<polygon fill="#191970" stroke="#191970" points="1530.0111,-320.9945 1527.7549,-310.6427 1523.0632,-320.1421 1530.0111,-320.9945"/>
</g>
<!-- Node17&#45;&gt;Node6 -->
<g id="edge24" class="edge">
<title>Node17&#45;&gt;Node6</title>
<path fill="none" stroke="#191970" d="M676.5039,-168.4136C681.9219,-153.5346 687.6265,-130.4121 680,-112 675.1688,-100.3363 665.7863,-90.0881 656.7482,-82.243"/>
<polygon fill="#191970" stroke="#191970" points="658.667,-79.2942 648.6852,-75.7423 654.2734,-84.7436 658.667,-79.2942"/>
</g>
<!-- Node18 -->
<g id="node19" class="node">
<title>Node18</title>
<polygon fill="#ffffff" stroke="#bfbfbf" points="624.5,-112.5 624.5,-131.5 671.5,-131.5 671.5,-112.5 624.5,-112.5"/>
<text text-anchor="middle" x="648" y="-119.5" font-family="Helvetica,sans-Serif" font-size="10.00" fill="#000000">cmath</text>
</g>
<!-- Node17&#45;&gt;Node18 -->
<g id="edge25" class="edge">
<title>Node17&#45;&gt;Node18</title>
<path fill="none" stroke="#191970" d="M664.5618,-168.2977C661.667,-160.2055 658.0749,-150.1639 654.9766,-141.5029"/>
<polygon fill="#191970" stroke="#191970" points="658.1862,-140.0837 651.5225,-131.8469 651.5953,-142.4415 658.1862,-140.0837"/>
</g>
<!-- Node19 -->
<g id="node20" class="node">
<title>Node19</title>
<polygon fill="#ffffff" stroke="#bfbfbf" points="912,-112.5 912,-131.5 956,-131.5 956,-112.5 912,-112.5"/>
<text text-anchor="middle" x="934" y="-119.5" font-family="Helvetica,sans-Serif" font-size="10.00" fill="#000000">limits</text>
</g>
<!-- Node17&#45;&gt;Node19 -->
<g id="edge26" class="edge">
<title>Node17&#45;&gt;Node19</title>
<path fill="none" stroke="#191970" d="M734.5817,-168.4554C787.6347,-156.0965 860.5492,-139.1107 901.9158,-129.4742"/>
<polygon fill="#191970" stroke="#191970" points="902.7766,-132.8674 911.7217,-127.1898 901.1884,-126.05 902.7766,-132.8674"/>
</g>
<!-- Node21 -->
<g id="node22" class="node">
<title>Node21</title>
<g id="a_node22"><a xlink:href="Interpolation_8hpp.html" target="_top" xlink:title="Core/Animation/Interpolation.hpp">
<polygon fill="#ffffff" stroke="#000000" points="28.5,-235.5 28.5,-254.5 207.5,-254.5 207.5,-235.5 28.5,-235.5"/>
<text text-anchor="middle" x="118" y="-242.5" font-family="Helvetica,sans-Serif" font-size="10.00" fill="#000000">Core/Animation/Interpolation.hpp</text>
</a>
</g>
</g>
<!-- Node20&#45;&gt;Node21 -->
<g id="edge28" class="edge">
<title>Node20&#45;&gt;Node21</title>
<path fill="none" stroke="#191970" d="M656.2836,-293.2206C551.3061,-284.2602 374.2163,-268.9737 222,-255 220.6792,-254.8787 219.3489,-254.7563 218.0109,-254.6327"/>
<polygon fill="#191970" stroke="#191970" points="217.9082,-251.1082 207.6271,-253.6675 217.2602,-258.0781 217.9082,-251.1082"/>
</g>
<!-- Node26 -->
<g id="node27" class="node">
<title>Node26</title>
<g id="a_node27"><a xlink:href="KeyFrame_8hpp.html" target="_top" xlink:title="Core/Animation/KeyFrame.hpp">
<polygon fill="#ffffff" stroke="#ff0000" points="588,-235.5 588,-254.5 752,-254.5 752,-235.5 588,-235.5"/>
<text text-anchor="middle" x="670" y="-242.5" font-family="Helvetica,sans-Serif" font-size="10.00" fill="#000000">Core/Animation/KeyFrame.hpp</text>
</a>
</g>
</g>
<!-- Node20&#45;&gt;Node26 -->
<g id="edge34" class="edge">
<title>Node20&#45;&gt;Node26</title>
<path fill="none" stroke="#191970" d="M734.4134,-291.2455C722.6695,-282.814 705.4801,-270.4729 691.8118,-260.6598"/>
<polygon fill="#191970" stroke="#191970" points="693.5954,-257.6316 683.4309,-254.6427 689.5129,-263.3179 693.5954,-257.6316"/>
</g>
<!-- Node22 -->
<g id="node23" class="node">
<title>Node22</title>
<g id="a_node23"><a xlink:href="Types_8hpp.html" target="_top" xlink:title="Core/Types.hpp">
<polygon fill="#ffffff" stroke="#000000" points="202.5,-174 202.5,-193 293.5,-193 293.5,-174 202.5,-174"/>
<text text-anchor="middle" x="248" y="-181" font-family="Helvetica,sans-Serif" font-size="10.00" fill="#000000">Core/Types.hpp</text>
</a>
</g>
</g>
<!-- Node21&#45;&gt;Node22 -->
<g id="edge29" class="edge">
<title>Node21&#45;&gt;Node22</title>
<path fill="none" stroke="#191970" d="M138.3125,-235.3906C159.8731,-225.1908 194.1478,-208.9763 218.6444,-197.3875"/>
<polygon fill="#191970" stroke="#191970" points="220.2874,-200.4822 227.8301,-193.0419 217.2939,-194.1545 220.2874,-200.4822"/>
</g>
<!-- Node22&#45;&gt;Node5 -->
<g id="edge30" class="edge">
<title>Node22&#45;&gt;Node5</title>
<path fill="none" stroke="#191970" d="M293.754,-175.4779C311.5668,-172.6535 332.1841,-169.7495 351,-168 591.5912,-145.6298 1348.1713,-127.9783 1566.4837,-123.2507"/>
<polygon fill="#191970" stroke="#191970" points="1566.8498,-126.7437 1576.772,-123.0289 1566.6988,-119.7454 1566.8498,-126.7437"/>
</g>
<!-- Node23 -->
<g id="node24" class="node">
<title>Node23</title>
<polygon fill="#ffffff" stroke="#bfbfbf" points="233.5,-112.5 233.5,-131.5 302.5,-131.5 302.5,-112.5 233.5,-112.5"/>
<text text-anchor="middle" x="268" y="-119.5" font-family="Helvetica,sans-Serif" font-size="10.00" fill="#000000">Eigen/Core</text>
</g>
<!-- Node22&#45;&gt;Node23 -->
<g id="edge31" class="edge">
<title>Node22&#45;&gt;Node23</title>
<path fill="none" stroke="#191970" d="M251.125,-173.8906C253.9265,-165.276 258.1233,-152.3708 261.6306,-141.5858"/>
<polygon fill="#191970" stroke="#191970" points="265.0667,-142.3371 264.8309,-131.7449 258.4098,-140.1722 265.0667,-142.3371"/>
</g>
<!-- Node24 -->
<g id="node25" class="node">
<title>Node24</title>
<polygon fill="#ffffff" stroke="#bfbfbf" points="320.5,-112.5 320.5,-131.5 415.5,-131.5 415.5,-112.5 320.5,-112.5"/>
<text text-anchor="middle" x="368" y="-119.5" font-family="Helvetica,sans-Serif" font-size="10.00" fill="#000000">Eigen/Geometry</text>
</g>
<!-- Node22&#45;&gt;Node24 -->
<g id="edge32" class="edge">
<title>Node22&#45;&gt;Node24</title>
<path fill="none" stroke="#191970" d="M266.75,-173.8906C286.476,-163.7811 317.7312,-147.7628 340.3,-136.1962"/>
<polygon fill="#191970" stroke="#191970" points="342.0787,-139.2176 349.3817,-131.5419 338.886,-132.9881 342.0787,-139.2176"/>
</g>
<!-- Node25 -->
<g id="node26" class="node">
<title>Node25</title>
<polygon fill="#ffffff" stroke="#bfbfbf" points="135,-112.5 135,-131.5 215,-131.5 215,-112.5 135,-112.5"/>
<text text-anchor="middle" x="175" y="-119.5" font-family="Helvetica,sans-Serif" font-size="10.00" fill="#000000">Eigen/Sparse</text>
</g>
<!-- Node22&#45;&gt;Node25 -->
<g id="edge33" class="edge">
<title>Node22&#45;&gt;Node25</title>
<path fill="none" stroke="#191970" d="M236.5938,-173.8906C225.3031,-164.3786 207.8033,-149.6357 194.3381,-138.2917"/>
<polygon fill="#191970" stroke="#191970" points="196.4699,-135.5111 186.5671,-131.7449 191.9598,-140.8646 196.4699,-135.5111"/>
</g>
<!-- Node26&#45;&gt;Node17 -->
<g id="edge38" class="edge">
<title>Node26&#45;&gt;Node17</title>
<path fill="none" stroke="#191970" d="M670,-235.3906C670,-228.2234 670,-218.0862 670,-208.671"/>
<polygon fill="#191970" stroke="#191970" points="673.5001,-208.5446 670,-198.5446 666.5001,-208.5446 673.5001,-208.5446"/>
</g>
<!-- Node26&#45;&gt;Node22 -->
<g id="edge37" class="edge">
<title>Node26&#45;&gt;Node22</title>
<path fill="none" stroke="#191970" d="M603.0786,-235.472C538.5197,-226.2514 438.0491,-211.826 351,-199 335.7375,-196.7512 319.2086,-194.2798 303.9525,-191.984"/>
<polygon fill="#191970" stroke="#191970" points="304.035,-188.457 293.6251,-190.4275 302.9917,-195.3788 304.035,-188.457"/>
</g>
<!-- Node27 -->
<g id="node28" class="node">
<title>Node27</title>
<polygon fill="#ffffff" stroke="#bfbfbf" points="908,-174 908,-193 946,-193 946,-174 908,-174"/>
<text text-anchor="middle" x="927" y="-181" font-family="Helvetica,sans-Serif" font-size="10.00" fill="#000000">map</text>
</g>
<!-- Node26&#45;&gt;Node27 -->
<g id="edge35" class="edge">
<title>Node26&#45;&gt;Node27</title>
<path fill="none" stroke="#191970" d="M713.19,-235.4608C753.5674,-226.4377 815.4956,-212.3291 869,-199 878.4792,-196.6385 888.7919,-193.9285 898.0571,-191.4418"/>
<polygon fill="#191970" stroke="#191970" points="899.2335,-194.7494 907.9725,-188.7595 897.4055,-187.9923 899.2335,-194.7494"/>
</g>
<!-- Node28 -->
<g id="node29" class="node">
<title>Node28</title>
<polygon fill="#ffffff" stroke="#bfbfbf" points="828,-174 828,-193 860,-193 860,-174 828,-174"/>
<text text-anchor="middle" x="844" y="-181" font-family="Helvetica,sans-Serif" font-size="10.00" fill="#000000">set</text>
</g>
<!-- Node26&#45;&gt;Node28 -->
<g id="edge36" class="edge">
<title>Node26&#45;&gt;Node28</title>
<path fill="none" stroke="#191970" d="M697.1875,-235.3906C730.3063,-223.6848 785.8386,-204.057 818.2789,-192.5911"/>
<polygon fill="#191970" stroke="#191970" points="819.6804,-195.808 827.9424,-189.1755 817.3476,-189.2081 819.6804,-195.808"/>
</g>
<!-- Node34&#45;&gt;Node3 -->
<g id="edge41" class="edge">
<title>Node34&#45;&gt;Node3</title>
<path fill="none" stroke="#191970" d="M1642.9377,-173.9866C1659.8977,-171.795 1678.0986,-169.6314 1695,-168 1964.1857,-142.0169 2290.6943,-127.4301 2392.8666,-123.26"/>
<polygon fill="#191970" stroke="#191970" points="2393.0081,-126.7573 2402.8586,-122.8564 2392.7255,-119.763 2393.0081,-126.7573"/>
</g>
<!-- Node34&#45;&gt;Node5 -->
<g id="edge40" class="edge">
<title>Node34&#45;&gt;Node5</title>
<path fill="none" stroke="#191970" d="M1583.8125,-173.8906C1591.254,-164.7376 1602.6334,-150.7409 1611.6992,-139.59"/>
<polygon fill="#191970" stroke="#191970" points="1614.4847,-141.712 1618.0774,-131.7449 1609.0533,-137.2962 1614.4847,-141.712"/>
</g>
<!-- Node35&#45;&gt;Node16 -->
<g id="edge44" class="edge">
<title>Node35&#45;&gt;Node16</title>
<path fill="none" stroke="#191970" d="M1538.2451,-310.6427C1539.6665,-317.9199 1540.081,-328.155 1539.4887,-337.1575"/>
<polygon fill="#191970" stroke="#191970" points="1535.9947,-336.8972 1538.2668,-347.2455 1542.9439,-337.739 1535.9947,-336.8972"/>
</g>
<!-- Node35&#45;&gt;Node36 -->
<g id="edge45" class="edge">
<title>Node35&#45;&gt;Node36</title>
<path fill="none" stroke="#191970" d="M1538.6873,-291.3599C1548.0893,-276.4091 1568.4036,-248.0015 1594,-235 1610.7809,-226.4762 1856.7004,-201.3894 1975.5755,-189.6673"/>
<polygon fill="#191970" stroke="#191970" points="1976.028,-193.1397 1985.6371,-188.6771 1975.3423,-186.1734 1976.028,-193.1397"/>
</g>
<!-- Node36&#45;&gt;Node3 -->
<g id="edge50" class="edge">
<title>Node36&#45;&gt;Node3</title>
<path fill="none" stroke="#191970" d="M2074.5943,-173.9283C2083.2002,-171.8009 2092.3976,-169.6812 2101,-168 2207.0339,-147.2769 2334.3191,-131.9587 2392.7746,-125.4504"/>
<polygon fill="#191970" stroke="#191970" points="2393.3113,-128.9126 2402.8678,-124.3384 2392.5447,-121.9547 2393.3113,-128.9126"/>
</g>
<!-- Node36&#45;&gt;Node5 -->
<g id="edge46" class="edge">
<title>Node36&#45;&gt;Node5</title>
<path fill="none" stroke="#191970" d="M2000.512,-173.9356C1991.2129,-171.808 1981.28,-169.6864 1972,-168 1872.048,-149.8367 1754.626,-135.7356 1685.4784,-128.1654"/>
<polygon fill="#191970" stroke="#191970" points="1685.5393,-124.6516 1675.2199,-127.0516 1684.7836,-131.6107 1685.5393,-124.6516"/>
</g>
<!-- Node36&#45;&gt;Node10 -->
<g id="edge48" class="edge">
<title>Node36&#45;&gt;Node10</title>
<path fill="none" stroke="#191970" d="M2043.6704,-173.8661C2050.2287,-158.7789 2059.8059,-129.4967 2045,-112 2007.7615,-67.9939 1602.5853,-25.8153 1475.1404,-13.5555"/>
<polygon fill="#191970" stroke="#191970" points="1475.3523,-10.0599 1465.0648,-12.5931 1474.6867,-17.0282 1475.3523,-10.0599"/>
</g>
<!-- Node37 -->
<g id="node33" class="node">
<title>Node37</title>
<polygon fill="#ffffff" stroke="#bfbfbf" points="1992,-112.5 1992,-131.5 2036,-131.5 2036,-112.5 1992,-112.5"/>
<text text-anchor="middle" x="2014" y="-119.5" font-family="Helvetica,sans-Serif" font-size="10.00" fill="#000000">ctime</text>
</g>
<!-- Node36&#45;&gt;Node37 -->
<g id="edge47" class="edge">
<title>Node36&#45;&gt;Node37</title>
<path fill="none" stroke="#191970" d="M2035.0938,-173.8906C2031.5554,-165.1862 2026.2364,-152.1015 2021.825,-141.2494"/>
<polygon fill="#191970" stroke="#191970" points="2024.9695,-139.6907 2017.9613,-131.7449 2018.4848,-142.3268 2024.9695,-139.6907"/>
</g>
<!-- Node38 -->
<g id="node34" class="node">
<title>Node38</title>
<polygon fill="#ffffff" stroke="#bfbfbf" points="1924,-112.5 1924,-131.5 1974,-131.5 1974,-112.5 1924,-112.5"/>
<text text-anchor="middle" x="1949" y="-119.5" font-family="Helvetica,sans-Serif" font-size="10.00" fill="#000000">stdio.h</text>
</g>
<!-- Node36&#45;&gt;Node38 -->
<g id="edge49" class="edge">
<title>Node36&#45;&gt;Node38</title>
<path fill="none" stroke="#191970" d="M2024.9375,-173.8906C2010.6714,-164.1421 1988.365,-148.8994 1971.6128,-137.4521"/>
<polygon fill="#191970" stroke="#191970" points="1973.1949,-134.2941 1962.9638,-131.5419 1969.2455,-140.0736 1973.1949,-134.2941"/>
</g>
<!-- Node39&#45;&gt;Node3 -->
<g id="edge53" class="edge">
<title>Node39&#45;&gt;Node3</title>
<path fill="none" stroke="#191970" d="M1855.6418,-297.3217C1994.8452,-290.2938 2276.2299,-273.9586 2317,-255 2367.4018,-231.5626 2401.7691,-171.471 2416.6539,-140.728"/>
<polygon fill="#191970" stroke="#191970" points="2419.8925,-142.0645 2420.9499,-131.5226 2413.5493,-139.1042 2419.8925,-142.0645"/>
</g>
<!-- Node39&#45;&gt;Node4 -->
<g id="edge54" class="edge">
<title>Node39&#45;&gt;Node4</title>
<path fill="none" stroke="#191970" d="M1855.5283,-299.3606C1971.8722,-295.9534 2198.2308,-285.6488 2388,-255 2424.181,-249.1566 2431.8752,-241.1814 2468,-235 2552.0435,-220.6191 2790.5927,-260.1629 2850,-199 2864.3942,-184.1804 2863.2603,-159.2722 2860.0834,-141.8086"/>
<polygon fill="#191970" stroke="#191970" points="2863.4032,-140.6071 2857.8433,-131.5884 2856.5655,-142.1059 2863.4032,-140.6071"/>
</g>
<!-- Node39&#45;&gt;Node5 -->
<g id="edge61" class="edge">
<title>Node39&#45;&gt;Node5</title>
<path fill="none" stroke="#191970" d="M1709.7526,-291.4937C1670.4202,-284.4916 1620.6702,-272.9916 1579,-255 1537.8065,-237.2142 1516.1718,-238.5599 1495,-199 1488.4988,-186.8525 1487.0334,-179.241 1495,-168 1504.4733,-154.6331 1540.8236,-142.4915 1572.836,-134.043"/>
<polygon fill="#191970" stroke="#191970" points="1573.7785,-137.4146 1582.597,-131.5423 1572.0412,-130.6336 1573.7785,-137.4146"/>
</g>
<!-- Node39&#45;&gt;Node14 -->
<g id="edge52" class="edge">
<title>Node39&#45;&gt;Node14</title>
<path fill="none" stroke="#191970" d="M1855.5198,-297.6629C2038.4328,-289.663 2492.9337,-269.017 2645,-255 2656.992,-253.8946 2670.0024,-252.3212 2681.8127,-250.7487"/>
<polygon fill="#191970" stroke="#191970" points="2682.3934,-254.202 2691.8268,-249.3789 2681.4447,-247.2666 2682.3934,-254.202"/>
</g>
<!-- Node39&#45;&gt;Node22 -->
<g id="edge62" class="edge">
<title>Node39&#45;&gt;Node22</title>
<path fill="none" stroke="#191970" d="M1700.2682,-295.4517C1675.2862,-293.82 1647.4841,-292.1629 1622,-291 1548.4937,-287.6458 362.7903,-289.8804 298,-255 277.2355,-243.8212 263.2345,-219.7949 255.4502,-202.6821"/>
<polygon fill="#191970" stroke="#191970" points="258.5169,-200.9473 251.4019,-193.097 252.0685,-203.6709 258.5169,-200.9473"/>
</g>
<!-- Node39&#45;&gt;Node34 -->
<g id="edge55" class="edge">
<title>Node39&#45;&gt;Node34</title>
<path fill="none" stroke="#191970" d="M1709.913,-291.421C1664.578,-283.69 1610.4282,-271.4012 1594,-255 1580.5874,-241.6094 1576.6684,-219.7907 1575.7482,-203.7723"/>
<polygon fill="#191970" stroke="#191970" points="1579.2376,-203.2563 1575.5152,-193.337 1572.2394,-203.4127 1579.2376,-203.2563"/>
</g>
<!-- Node40 -->
<g id="node36" class="node">
<title>Node40</title>
<g id="a_node36"><a xlink:href="VectorArray_8hpp.html" target="_top" xlink:title="Core/Containers/VectorArray.hpp">
<polygon fill="#ffffff" stroke="#000000" points="1846,-235.5 1846,-254.5 2020,-254.5 2020,-235.5 1846,-235.5"/>
<text text-anchor="middle" x="1933" y="-242.5" font-family="Helvetica,sans-Serif" font-size="10.00" fill="#000000">Core/Containers/VectorArray.hpp</text>
</a>
</g>
</g>
<!-- Node39&#45;&gt;Node40 -->
<g id="edge56" class="edge">
<title>Node39&#45;&gt;Node40</title>
<path fill="none" stroke="#191970" d="M1804.6454,-291.3733C1830.1964,-282.1419 1868.9512,-268.1402 1897.1909,-257.9375"/>
<polygon fill="#191970" stroke="#191970" points="1898.4865,-261.1909 1906.7022,-254.5011 1896.1079,-254.6074 1898.4865,-261.1909"/>
</g>
<!-- Node43 -->
<g id="node38" class="node">
<title>Node43</title>
<g id="a_node38"><a xlink:href="CameraData_8inl.html" target="_top" xlink:title="Core/Asset/CameraData.inl">
<polygon fill="#ffffff" stroke="#000000" points="1603.5,-235.5 1603.5,-254.5 1752.5,-254.5 1752.5,-235.5 1603.5,-235.5"/>
<text text-anchor="middle" x="1678" y="-242.5" font-family="Helvetica,sans-Serif" font-size="10.00" fill="#000000">Core/Asset/CameraData.inl</text>
</a>
</g>
</g>
<!-- Node39&#45;&gt;Node43 -->
<g id="edge63" class="edge">
<title>Node39&#45;&gt;Node43</title>
<path fill="none" stroke="#191970" d="M1755.5674,-291.3733C1738.475,-282.7466 1715.36,-269.954 1698.7105,-259.9889"/>
<polygon fill="#191970" stroke="#191970" points="1700.1049,-256.7387 1689.749,-254.5011 1696.4492,-262.7083 1700.1049,-256.7387"/>
</g>
<!-- Node40&#45;&gt;Node5 -->
<g id="edge60" class="edge">
<title>Node40&#45;&gt;Node5</title>
<path fill="none" stroke="#191970" d="M1855.5348,-235.4609C1796.8993,-227.2409 1722.0032,-214.3012 1695,-199 1669.865,-184.7574 1649.0618,-157.9887 1637.0784,-140.0734"/>
<polygon fill="#191970" stroke="#191970" points="1639.9956,-138.1388 1631.6396,-131.6251 1634.1098,-141.928 1639.9956,-138.1388"/>
</g>
<!-- Node41 -->
<g id="node37" class="node">
<title>Node41</title>
<g id="a_node37"><a xlink:href="AlignedStdVector_8hpp.html" target="_top" xlink:title="Core/Containers/AlignedStd\lVector.hpp">
<polygon fill="#ffffff" stroke="#ff0000" points="1704,-168.5 1704,-198.5 1854,-198.5 1854,-168.5 1704,-168.5"/>
<text text-anchor="start" x="1712" y="-186.5" font-family="Helvetica,sans-Serif" font-size="10.00" fill="#000000">Core/Containers/AlignedStd</text>
<text text-anchor="middle" x="1779" y="-175.5" font-family="Helvetica,sans-Serif" font-size="10.00" fill="#000000">Vector.hpp</text>
</a>
</g>
</g>
<!-- Node40&#45;&gt;Node41 -->
<g id="edge57" class="edge">
<title>Node40&#45;&gt;Node41</title>
<path fill="none" stroke="#191970" d="M1908.9375,-235.3906C1886.8411,-226.5664 1853.4719,-213.2404 1826.0828,-202.3026"/>
<polygon fill="#191970" stroke="#191970" points="1827.2576,-199.003 1816.6726,-198.5446 1824.6614,-205.5038 1827.2576,-199.003"/>
</g>
<!-- Node41&#45;&gt;Node4 -->
<g id="edge59" class="edge">
<title>Node41&#45;&gt;Node4</title>
<path fill="none" stroke="#191970" d="M1854.1842,-177.1558C1891.1603,-174.1526 1936.3999,-170.6523 1977,-168 2305.6411,-146.5311 2704.0022,-128.5748 2821.1057,-123.4608"/>
<polygon fill="#191970" stroke="#191970" points="2821.4018,-126.9513 2831.2401,-123.0196 2821.0973,-119.9579 2821.4018,-126.9513"/>
</g>
<!-- Node41&#45;&gt;Node5 -->
<g id="edge58" class="edge">
<title>Node41&#45;&gt;Node5</title>
<path fill="none" stroke="#191970" d="M1741.572,-168.4554C1716.3794,-158.329 1683.4593,-145.0964 1659.2004,-135.3453"/>
<polygon fill="#191970" stroke="#191970" points="1660.2934,-132.0125 1649.7096,-131.5303 1657.6827,-138.5074 1660.2934,-132.0125"/>
</g>
<!-- Node43&#45;&gt;Node36 -->
<g id="edge65" class="edge">
<title>Node43&#45;&gt;Node36</title>
<path fill="none" stroke="#191970" d="M1734.0102,-235.4581C1799.3757,-224.3224 1907.209,-205.9519 1975.5936,-194.3019"/>
<polygon fill="#191970" stroke="#191970" points="1976.532,-197.6926 1985.8022,-192.5628 1975.3564,-190.792 1976.532,-197.6926"/>
</g>
<!-- Node43&#45;&gt;Node39 -->
<g id="edge64" class="edge">
<title>Node43&#45;&gt;Node39</title>
<path fill="none" stroke="#191970" d="M1700.4642,-254.6427C1717.4153,-263.1994 1740.2771,-275.8456 1756.8846,-285.769"/>
<polygon fill="#191970" stroke="#191970" points="1755.49,-289.0185 1765.8482,-291.2455 1759.1397,-283.0451 1755.49,-289.0185"/>
</g>
<!-- Node44&#45;&gt;Node3 -->
<g id="edge68" class="edge">
<title>Node44&#45;&gt;Node3</title>
<path fill="none" stroke="#191970" d="M2221.6304,-292.7868C2261.9652,-286.3797 2310.2399,-275.034 2350,-255 2383.7534,-237.9926 2395.9815,-232.2246 2414,-199 2423.6243,-181.2536 2425.7591,-157.9746 2425.8697,-141.677"/>
<polygon fill="#191970" stroke="#191970" points="2429.369,-141.5988 2425.69,-131.6632 2422.3701,-141.7245 2429.369,-141.5988"/>
</g>
<!-- Node44&#45;&gt;Node4 -->
<g id="edge69" class="edge">
<title>Node44&#45;&gt;Node4</title>
<path fill="none" stroke="#191970" d="M2221.5965,-297.4227C2344.1368,-291.4492 2567.9199,-277.7978 2645,-255 2663.3015,-249.587 2664.9393,-241.1692 2683,-235 2770.5392,-205.098 2828.5141,-269.8425 2888,-199 2902.7888,-181.3879 2886.7179,-156.1556 2872.2677,-139.4362"/>
<polygon fill="#191970" stroke="#191970" points="2874.7798,-136.9969 2865.4465,-131.983 2869.616,-141.7229 2874.7798,-136.9969"/>
</g>
<!-- Node44&#45;&gt;Node5 -->
<g id="edge72" class="edge">
<title>Node44&#45;&gt;Node5</title>
<path fill="none" stroke="#191970" d="M2125.7166,-291.4867C2105.6258,-277.4636 2065.9281,-251.1633 2029,-235 1976.8194,-212.1608 1957.1729,-224.0156 1906,-199 1884.8339,-188.6531 1884.6243,-177.3516 1863,-168 1805.5349,-143.1486 1734.4402,-131.6371 1685.1867,-126.359"/>
<polygon fill="#191970" stroke="#191970" points="1685.3237,-122.855 1675.0208,-125.3248 1684.6151,-129.819 1685.3237,-122.855"/>
</g>
<!-- Node44&#45;&gt;Node14 -->
<g id="edge67" class="edge">
<title>Node44&#45;&gt;Node14</title>
<path fill="none" stroke="#191970" d="M2221.6275,-297.6312C2327.7868,-292.4611 2517.518,-280.3746 2678,-255 2679.2775,-254.798 2680.5734,-254.5792 2681.8798,-254.3466"/>
<polygon fill="#191970" stroke="#191970" points="2682.8385,-257.7248 2691.9667,-252.3466 2681.4769,-250.8585 2682.8385,-257.7248"/>
</g>
<!-- Node44&#45;&gt;Node24 -->
<g id="edge70" class="edge">
<title>Node44&#45;&gt;Node24</title>
<path fill="none" stroke="#191970" d="M2056.2774,-297.7142C2001.6867,-295.6143 1928.5863,-292.9326 1864,-291 1821.424,-289.726 360.7636,-285.4708 331,-255 300.0209,-223.2849 333.1301,-167.961 353.8846,-139.7059"/>
<polygon fill="#191970" stroke="#191970" points="356.8222,-141.6252 360.092,-131.5476 351.2513,-137.3865 356.8222,-141.6252"/>
</g>
<!-- Node44&#45;&gt;Node34 -->
<g id="edge76" class="edge">
<title>Node44&#45;&gt;Node34</title>
<path fill="none" stroke="#191970" d="M2056.2127,-294.7744C1994.7274,-288.6247 1909.3488,-276.8465 1837,-255 1816.8227,-248.9072 1813.9147,-241.903 1794,-235 1764.3381,-224.7183 1685.3819,-206.9215 1631.1059,-195.1782"/>
<polygon fill="#191970" stroke="#191970" points="1631.7891,-191.7451 1621.2761,-193.0591 1630.3139,-198.5879 1631.7891,-191.7451"/>
</g>
<!-- Node44&#45;&gt;Node40 -->
<g id="edge71" class="edge">
<title>Node44&#45;&gt;Node40</title>
<path fill="none" stroke="#191970" d="M2103.5873,-291.3733C2068.7395,-281.9001 2015.4118,-267.4032 1977.6707,-257.1435"/>
<polygon fill="#191970" stroke="#191970" points="1978.5185,-253.747 1967.9506,-254.5011 1976.6822,-260.5019 1978.5185,-253.747"/>
</g>
<!-- Node45 -->
<g id="node40" class="node">
<title>Node45</title>
<g id="a_node40"><a xlink:href="Index_8hpp.html" target="_top" xlink:title="Core/Utils/Index.hpp">
<polygon fill="#ffffff" stroke="#ff0000" points="1060,-174 1060,-193 1176,-193 1176,-174 1060,-174"/>
<text text-anchor="middle" x="1118" y="-181" font-family="Helvetica,sans-Serif" font-size="10.00" fill="#000000">Core/Utils/Index.hpp</text>
</a>
</g>
</g>
<!-- Node44&#45;&gt;Node45 -->
<g id="edge73" class="edge">
<title>Node44&#45;&gt;Node45</title>
<path fill="none" stroke="#191970" d="M2056.2498,-293.9002C1969.9622,-285.7985 1840.8766,-271.5138 1794,-255 1777.8244,-249.3016 1777.32,-240.2708 1761,-235 1655.668,-200.9811 1329.61,-188.7921 1186.512,-185.004"/>
<polygon fill="#191970" stroke="#191970" points="1186.2061,-181.495 1176.1189,-184.7352 1186.025,-188.4927 1186.2061,-181.495"/>
</g>
<!-- Node47 -->
<g id="node41" class="node">
<title>Node47</title>
<g id="a_node41"><a xlink:href="MaterialData_8hpp.html" target="_top" xlink:title="Core/Asset/MaterialData.hpp">
<polygon fill="#ffffff" stroke="#ff0000" points="2152,-235.5 2152,-254.5 2308,-254.5 2308,-235.5 2152,-235.5"/>
<text text-anchor="middle" x="2230" y="-242.5" font-family="Helvetica,sans-Serif" font-size="10.00" fill="#000000">Core/Asset/MaterialData.hpp</text>
</a>
</g>
</g>
<!-- Node44&#45;&gt;Node47 -->
<g id="edge77" class="edge">
<title>Node44&#45;&gt;Node47</title>
<path fill="none" stroke="#191970" d="M2154.851,-291.2455C2168.8132,-282.6534 2189.3728,-270.0014 2205.4596,-260.1018"/>
<polygon fill="#191970" stroke="#191970" points="2207.6484,-262.8645 2214.3307,-254.6427 2203.9797,-256.9029 2207.6484,-262.8645"/>
</g>
<!-- Node49 -->
<g id="node42" class="node">
<title>Node49</title>
<g id="a_node42"><a xlink:href="GeometryData_8inl.html" target="_top" xlink:title="Core/Asset/GeometryData.inl">
<polygon fill="#ffffff" stroke="#ff0000" points="2477.5,-235.5 2477.5,-254.5 2636.5,-254.5 2636.5,-235.5 2477.5,-235.5"/>
<text text-anchor="middle" x="2557" y="-242.5" font-family="Helvetica,sans-Serif" font-size="10.00" fill="#000000">Core/Asset/GeometryData.inl</text>
</a>
</g>
</g>
<!-- Node44&#45;&gt;Node49 -->
<g id="edge82" class="edge">
<title>Node44&#45;&gt;Node49</title>
<path fill="none" stroke="#191970" d="M2205.1523,-291.4369C2276.8511,-281.571 2391.4458,-266.2078 2470.2938,-255.8829"/>
<polygon fill="#191970" stroke="#191970" points="2471.229,-259.2906 2480.6908,-254.5237 2470.3215,-252.3496 2471.229,-259.2906"/>
</g>
<!-- Node45&#45;&gt;Node5 -->
<g id="edge74" class="edge">
<title>Node45&#45;&gt;Node5</title>
<path fill="none" stroke="#191970" d="M1158.5997,-173.9661C1168.8096,-171.7878 1179.773,-169.6355 1190,-168 1323.8387,-146.5963 1482.4425,-132.712 1566.5999,-126.2424"/>
<polygon fill="#191970" stroke="#191970" points="1567.0289,-129.72 1576.7346,-125.4716 1566.4979,-122.7401 1567.0289,-129.72"/>
</g>
<!-- Node45&#45;&gt;Node19 -->
<g id="edge75" class="edge">
<title>Node45&#45;&gt;Node19</title>
<path fill="none" stroke="#191970" d="M1089.25,-173.8906C1055.7644,-162.6984 1000.6115,-144.2642 965.8518,-132.6461"/>
<polygon fill="#191970" stroke="#191970" points="966.7885,-129.2689 956.1947,-129.4183 964.5694,-135.9079 966.7885,-129.2689"/>
</g>
<!-- Node47&#45;&gt;Node3 -->
<g id="edge78" class="edge">
<title>Node47&#45;&gt;Node3</title>
<path fill="none" stroke="#191970" d="M2259.216,-235.4588C2281.6888,-227.4473 2313.0192,-214.7864 2338,-199 2365.2549,-181.7765 2392.3925,-156.0419 2408.9336,-139.1395"/>
<polygon fill="#191970" stroke="#191970" points="2411.7485,-141.2618 2416.1566,-131.6275 2406.7026,-136.41 2411.7485,-141.2618"/>
</g>
<!-- Node47&#45;&gt;Node4 -->
<g id="edge79" class="edge">
<title>Node47&#45;&gt;Node4</title>
<path fill="none" stroke="#191970" d="M2308.0482,-238.8072C2458.3507,-226.8348 2773.7245,-201.4692 2779,-199 2806.6507,-186.058 2829.8267,-158.5099 2843.0636,-140.1203"/>
<polygon fill="#191970" stroke="#191970" points="2846.0799,-141.9123 2848.8953,-131.6983 2840.3249,-137.9273 2846.0799,-141.9123"/>
</g>
<!-- Node47&#45;&gt;Node5 -->
<g id="edge81" class="edge">
<title>Node47&#45;&gt;Node5</title>
<path fill="none" stroke="#191970" d="M2157.7987,-235.4944C2094.8695,-226.551 2008.8374,-212.5449 1977,-199 1955.3207,-189.7767 1955.8223,-176.8796 1934,-168 1890.0275,-150.1073 1761.4427,-135.1161 1685.0263,-127.4657"/>
<polygon fill="#191970" stroke="#191970" points="1685.3573,-123.9814 1675.0613,-126.48 1684.6682,-130.9474 1685.3573,-123.9814"/>
</g>
<!-- Node47&#45;&gt;Node34 -->
<g id="edge80" class="edge">
<title>Node47&#45;&gt;Node34</title>
<path fill="none" stroke="#191970" d="M2151.9717,-238.7143C2025.5438,-228.4581 1781.3709,-208.3336 1695,-199 1682.1252,-197.6087 1668.4872,-195.9793 1655.2156,-194.3094"/>
<polygon fill="#191970" stroke="#191970" points="1655.519,-190.8198 1645.1568,-193.0277 1654.6342,-197.7637 1655.519,-190.8198"/>
</g>
<!-- Node49&#45;&gt;Node44 -->
<g id="edge83" class="edge">
<title>Node49&#45;&gt;Node44</title>
<path fill="none" stroke="#191970" d="M2491.1344,-254.5237C2419.404,-264.3949 2304.4972,-279.8002 2225.539,-290.139"/>
<polygon fill="#191970" stroke="#191970" points="2225.0732,-286.67 2215.6113,-291.4369 2225.9807,-293.6109 2225.0732,-286.67"/>
</g>
<!-- Node51&#45;&gt;Node3 -->
<g id="edge87" class="edge">
<title>Node51&#45;&gt;Node3</title>
<path fill="none" stroke="#191970" d="M1265.5503,-291.4464C1334.7499,-276.6804 1474.2448,-248.6013 1594,-235 1751.1918,-217.1469 2159.4326,-260.9527 2305,-199 2323.5159,-191.1197 2321.6254,-179.6965 2338,-168 2355.4785,-155.5149 2376.7717,-144.1987 2393.9175,-135.9143"/>
<polygon fill="#191970" stroke="#191970" points="2395.4218,-139.0746 2402.9658,-131.6356 2392.4293,-132.7464 2395.4218,-139.0746"/>
</g>
<!-- Node51&#45;&gt;Node4 -->
<g id="edge88" class="edge">
<title>Node51&#45;&gt;Node4</title>
<path fill="none" stroke="#191970" d="M1297.6866,-297.4994C1340.3596,-295.5447 1394.6519,-293.0896 1443,-291 1831.4112,-274.2132 1933.0609,-316.1215 2317,-255 2349.3759,-249.8459 2355.7433,-240.8544 2388,-235 2481.2591,-218.074 2733.6129,-250.7827 2813,-199 2833.1623,-185.8485 2844.4393,-159.577 2850.1161,-141.4043"/>
<polygon fill="#191970" stroke="#191970" points="2853.5458,-142.1381 2852.8966,-131.5631 2846.8095,-140.2348 2853.5458,-142.1381"/>
</g>
<!-- Node51&#45;&gt;Node5 -->
<g id="edge90" class="edge">
<title>Node51&#45;&gt;Node5</title>
<path fill="none" stroke="#191970" d="M1212.9853,-291.1409C1201.533,-277.3856 1184.7568,-252.1934 1198,-235 1242.9196,-176.6816 1460.2842,-142.3667 1566.8509,-128.7881"/>
<polygon fill="#191970" stroke="#191970" points="1567.322,-132.2565 1576.8084,-127.5386 1566.4504,-125.311 1567.322,-132.2565"/>
</g>
<!-- Node51&#45;&gt;Node22 -->
<g id="edge91" class="edge">
<title>Node51&#45;&gt;Node22</title>
<path fill="none" stroke="#191970" d="M1146.3998,-298.6437C922.3683,-291.4999 276.5268,-269.6758 260,-255 245.7767,-242.3696 244.1644,-219.7343 245.2305,-203.3081"/>
<polygon fill="#191970" stroke="#191970" points="248.736,-203.4323 246.2744,-193.1274 241.7725,-202.7182 248.736,-203.4323"/>
</g>
<!-- Node51&#45;&gt;Node27 -->
<g id="edge85" class="edge">
<title>Node51&#45;&gt;Node27</title>
<path fill="none" stroke="#191970" d="M1204.0304,-291.483C1178.0098,-277.9158 1128.1195,-252.7005 1084,-235 1040.2277,-217.4388 987.9216,-201.1922 956.0983,-191.8152"/>
<polygon fill="#191970" stroke="#191970" points="956.7133,-188.3487 946.1332,-188.9065 954.7519,-195.0683 956.7133,-188.3487"/>
</g>
<!-- Node51&#45;&gt;Node28 -->
<g id="edge86" class="edge">
<title>Node51&#45;&gt;Node28</title>
<path fill="none" stroke="#191970" d="M1191.3869,-291.484C1118.814,-268.925 937.3606,-212.5208 869.8437,-191.5334"/>
<polygon fill="#191970" stroke="#191970" points="870.6083,-188.1059 860.02,-188.4798 868.5304,-194.7905 870.6083,-188.1059"/>
</g>
<!-- Node51&#45;&gt;Node34 -->
<g id="edge92" class="edge">
<title>Node51&#45;&gt;Node34</title>
<path fill="none" stroke="#191970" d="M1215.3724,-291.2093C1206.7057,-277.0749 1194.1631,-250.9082 1208,-235 1226.5147,-213.7138 1391.5465,-197.472 1494.2203,-189.3194"/>
<polygon fill="#191970" stroke="#191970" points="1494.5664,-192.8031 1504.2621,-188.532 1494.0191,-185.8246 1494.5664,-192.8031"/>
</g>
<!-- Node51&#45;&gt;Node41 -->
<g id="edge89" class="edge">
<title>Node51&#45;&gt;Node41</title>
<path fill="none" stroke="#191970" d="M1221.6443,-291.1003C1221.7089,-276.3301 1224.2426,-248.7887 1241,-235 1276.7403,-205.5914 1609.9752,-203.8943 1656,-199 1668.2437,-197.698 1681.1575,-196.2039 1693.8305,-194.6685"/>
<polygon fill="#191970" stroke="#191970" points="1694.4251,-198.1219 1703.925,-193.4312 1693.5734,-191.1739 1694.4251,-198.1219"/>
</g>
<!-- Node52 -->
<g id="node44" class="node">
<title>Node52</title>
<g id="a_node44"><a xlink:href="HandleData_8inl.html" target="_top" xlink:title="Core/Asset/HandleData.inl">
<polygon fill="#ffffff" stroke="#000000" points="1250.5,-235.5 1250.5,-254.5 1395.5,-254.5 1395.5,-235.5 1250.5,-235.5"/>
<text text-anchor="middle" x="1323" y="-242.5" font-family="Helvetica,sans-Serif" font-size="10.00" fill="#000000">Core/Asset/HandleData.inl</text>
</a>
</g>
</g>
<!-- Node51&#45;&gt;Node52 -->
<g id="edge93" class="edge">
<title>Node51&#45;&gt;Node52</title>
<path fill="none" stroke="#191970" d="M1234.326,-291.2455C1248.5514,-282.4125 1271.9866,-269.2887 1291.2822,-259.2758"/>
<polygon fill="#191970" stroke="#191970" points="1293.0465,-262.3049 1300.3636,-254.6427 1289.8653,-256.0695 1293.0465,-262.3049"/>
</g>
<!-- Node52&#45;&gt;Node36 -->
<g id="edge95" class="edge">
<title>Node52&#45;&gt;Node36</title>
<path fill="none" stroke="#191970" d="M1395.5007,-238.8903C1499.1542,-230.1403 1695.6768,-213.4946 1863,-199 1900.3875,-195.7613 1942.2369,-192.078 1975.7444,-189.1149"/>
<polygon fill="#191970" stroke="#191970" points="1976.2087,-192.5876 1985.8612,-188.2197 1975.5916,-185.6148 1976.2087,-192.5876"/>
</g>
<!-- Node52&#45;&gt;Node51 -->
<g id="edge94" class="edge">
<title>Node52&#45;&gt;Node51</title>
<path fill="none" stroke="#191970" d="M1311.0813,-254.5011C1296.9109,-263.3278 1273.2378,-276.5932 1253.7659,-286.6992"/>
<polygon fill="#191970" stroke="#191970" points="1251.9216,-283.7109 1244.6045,-291.3733 1255.1029,-289.9463 1251.9216,-283.7109"/>
</g>
<!-- Node53&#45;&gt;Node3 -->
<g id="edge98" class="edge">
<title>Node53&#45;&gt;Node3</title>
<path fill="none" stroke="#191970" d="M2791.0036,-298.0086C2859.9757,-292.61 2949.8091,-277.4683 2911,-235 2850.9435,-169.2809 2593.746,-234.2614 2512,-199 2481.7591,-185.9555 2454.702,-158.2266 2439.0697,-139.8518"/>
<polygon fill="#191970" stroke="#191970" points="2441.4072,-137.1844 2432.3495,-131.6883 2436.0028,-141.6333 2441.4072,-137.1844"/>
</g>
<!-- Node53&#45;&gt;Node4 -->
<g id="edge99" class="edge">
<title>Node53&#45;&gt;Node4</title>
<path fill="none" stroke="#191970" d="M2791.0366,-298.4959C2859.8887,-294.3862 2958.0429,-283.5486 2982,-255 3020.2881,-209.3737 2935.322,-159.6135 2886.4127,-135.9764"/>
<polygon fill="#191970" stroke="#191970" points="2887.6958,-132.7117 2877.1588,-131.6063 2884.7066,-139.0414 2887.6958,-132.7117"/>
</g>
<!-- Node53&#45;&gt;Node5 -->
<g id="edge101" class="edge">
<title>Node53&#45;&gt;Node5</title>
<path fill="none" stroke="#191970" d="M2650.7572,-297.5871C2518.7124,-290.8112 2238.2058,-274.6088 2143,-255 2115.8814,-249.4146 2110.6005,-242.6832 2084,-235 2018.1328,-215.975 1994.8057,-230.672 1934,-199 1915.5703,-189.4005 1917.7481,-176.9617 1899,-168 1862.187,-150.4032 1754.1224,-135.9139 1685.5097,-128.1503"/>
<polygon fill="#191970" stroke="#191970" points="1685.5962,-124.6384 1675.2699,-127.0084 1684.8203,-131.5953 1685.5962,-124.6384"/>
</g>
<!-- Node53&#45;&gt;Node14 -->
<g id="edge97" class="edge">
<title>Node53&#45;&gt;Node14</title>
<path fill="none" stroke="#191970" d="M2721,-291.2455C2721,-283.9382 2721,-273.6944 2721,-264.7046"/>
<polygon fill="#191970" stroke="#191970" points="2724.5001,-264.6426 2721,-254.6427 2717.5001,-264.6427 2724.5001,-264.6426"/>
</g>
<!-- Node53&#45;&gt;Node34 -->
<g id="edge100" class="edge">
<title>Node53&#45;&gt;Node34</title>
<path fill="none" stroke="#191970" d="M2650.9181,-299.5204C2536.8743,-296.2639 2304.3265,-286.0829 2110,-255 2073.3843,-249.1433 2065.5166,-241.4459 2029,-235 1881.9689,-209.046 1843.2581,-216.6432 1695,-199 1682.7568,-197.543 1669.8147,-195.9313 1657.1513,-194.3143"/>
<polygon fill="#191970" stroke="#191970" points="1657.4384,-190.8225 1647.0738,-193.0193 1656.5461,-197.7654 1657.4384,-190.8225"/>
</g>
<!-- Node54 -->
<g id="node46" class="node">
<title>Node54</title>
<g id="a_node46"><a xlink:href="Color_8hpp.html" target="_top" xlink:title="Core/Utils/Color.hpp">
<polygon fill="#ffffff" stroke="#ff0000" points="360.5,-174 360.5,-193 473.5,-193 473.5,-174 360.5,-174"/>
<text text-anchor="middle" x="417" y="-181" font-family="Helvetica,sans-Serif" font-size="10.00" fill="#000000">Core/Utils/Color.hpp</text>
</a>
</g>
</g>
<!-- Node53&#45;&gt;Node54 -->
<g id="edge102" class="edge">
<title>Node53&#45;&gt;Node54</title>
<path fill="none" stroke="#191970" d="M2650.8753,-299.54C2282.2642,-291.8602 585.4733,-256.4377 579,-255 527.5964,-243.583 472.4583,-215.4364 441.5938,-198.0575"/>
<polygon fill="#191970" stroke="#191970" points="443.2433,-194.9689 432.8255,-193.0402 439.7667,-201.0446 443.2433,-194.9689"/>
</g>
<!-- Node58 -->
<g id="node47" class="node">
<title>Node58</title>
<g id="a_node47"><a xlink:href="LightData_8inl.html" target="_top" xlink:title="Core/Asset/LightData.inl">
<polygon fill="#ffffff" stroke="#000000" points="2768,-235.5 2768,-254.5 2902,-254.5 2902,-235.5 2768,-235.5"/>
<text text-anchor="middle" x="2835" y="-242.5" font-family="Helvetica,sans-Serif" font-size="10.00" fill="#000000">Core/Asset/LightData.inl</text>
</a>
</g>
</g>
<!-- Node53&#45;&gt;Node58 -->
<g id="edge106" class="edge">
<title>Node53&#45;&gt;Node58</title>
<path fill="none" stroke="#191970" d="M2735.5904,-291.2455C2752.0882,-282.2921 2779.0723,-268.93 2800.8499,-258.8679"/>
<polygon fill="#191970" stroke="#191970" points="2802.4758,-261.9734 2810.1251,-254.6427 2799.5739,-255.6032 2802.4758,-261.9734"/>
</g>
<!-- Node54&#45;&gt;Node6 -->
<g id="edge103" class="edge">
<title>Node54&#45;&gt;Node6</title>
<path fill="none" stroke="#191970" d="M429.5302,-173.8251C448.8508,-159.1954 487.4135,-131.1255 523,-112 546.9013,-99.1545 575.1716,-87.4866 597.2001,-79.1161"/>
<polygon fill="#191970" stroke="#191970" points="598.7033,-82.2908 606.8439,-75.5098 596.2515,-75.7342 598.7033,-82.2908"/>
</g>
<!-- Node54&#45;&gt;Node23 -->
<g id="edge104" class="edge">
<title>Node54&#45;&gt;Node23</title>
<path fill="none" stroke="#191970" d="M393.7188,-173.8906C368.679,-163.5554 328.6775,-147.0447 300.534,-135.4284"/>
<polygon fill="#191970" stroke="#191970" points="301.6967,-132.122 291.1178,-131.5419 299.026,-138.5925 301.6967,-132.122"/>
</g>
<!-- Node54&#45;&gt;Node24 -->
<g id="edge105" class="edge">
<title>Node54&#45;&gt;Node24</title>
<path fill="none" stroke="#191970" d="M409.3438,-173.8906C402.0511,-164.7376 390.8993,-150.7409 382.0148,-139.59"/>
<polygon fill="#191970" stroke="#191970" points="384.733,-137.3849 375.7642,-131.7449 379.2583,-141.747 384.733,-137.3849"/>
</g>
<!-- Node58&#45;&gt;Node36 -->
<g id="edge108" class="edge">
<title>Node58&#45;&gt;Node36</title>
<path fill="none" stroke="#191970" d="M2767.8944,-235.8885C2764.8907,-235.5695 2761.9152,-235.2711 2759,-235 2467.3768,-207.8765 2390.601,-242.7149 2101,-199 2094.8083,-198.0654 2088.3333,-196.7895 2082.0009,-195.3683"/>
<polygon fill="#191970" stroke="#191970" points="2082.7669,-191.9529 2072.2284,-193.0434 2081.1468,-198.7629 2082.7669,-191.9529"/>
</g>
<!-- Node58&#45;&gt;Node53 -->
<g id="edge107" class="edge">
<title>Node58&#45;&gt;Node53</title>
<path fill="none" stroke="#191970" d="M2820.8757,-254.5011C2804.4351,-263.4482 2777.1721,-276.9559 2755.196,-287.1109"/>
<polygon fill="#191970" stroke="#191970" points="2753.4886,-284.0425 2745.8393,-291.3733 2756.3905,-290.4127 2753.4886,-284.0425"/>
</g>
<!-- Node59&#45;&gt;Node22 -->
<g id="edge111" class="edge">
<title>Node59&#45;&gt;Node22</title>
<path fill="none" stroke="#191970" d="M390.5938,-235.3906C361.8209,-224.92 315.6304,-208.1111 283.6534,-196.4745"/>
<polygon fill="#191970" stroke="#191970" points="284.8149,-193.1726 274.2208,-193.0419 282.421,-199.7506 284.8149,-193.1726"/>
</g>
<!-- Node59&#45;&gt;Node34 -->
<g id="edge110" class="edge">
<title>Node59&#45;&gt;Node34</title>
<path fill="none" stroke="#191970" d="M493.6297,-240.1114C520.6104,-238.4322 551.148,-236.5789 579,-235 918.7938,-215.737 1323.9065,-195.7247 1494.2125,-187.4462"/>
<polygon fill="#191970" stroke="#191970" points="1494.5348,-190.9347 1504.3532,-186.9536 1494.1952,-183.943 1494.5348,-190.9347"/>
</g>
<!-- Node59&#45;&gt;Node54 -->
<g id="edge112" class="edge">
<title>Node59&#45;&gt;Node54</title>
<path fill="none" stroke="#191970" d="M417,-235.3906C417,-226.8657 417,-214.1392 417,-203.4235"/>
<polygon fill="#191970" stroke="#191970" points="420.5001,-203.2448 417,-193.2449 413.5001,-203.2449 420.5001,-203.2448"/>
</g>
<!-- Node60&#45;&gt;Node3 -->
<g id="edge116" class="edge">
<title>Node60&#45;&gt;Node3</title>
<path fill="none" stroke="#191970" d="M2657.333,-173.9581C2601.9806,-161.5793 2506.6513,-140.2602 2457.0653,-129.171"/>
<polygon fill="#191970" stroke="#191970" points="2457.7321,-125.7337 2447.2093,-126.9668 2456.2044,-132.565 2457.7321,-125.7337"/>
</g>
<!-- Node60&#45;&gt;Node4 -->
<g id="edge117" class="edge">
<title>Node60&#45;&gt;Node4</title>
<path fill="none" stroke="#191970" d="M2724.2188,-173.8906C2750.5336,-163.4496 2792.733,-146.7059 2822.0514,-135.0731"/>
<polygon fill="#191970" stroke="#191970" points="2823.4546,-138.2819 2831.4588,-131.3405 2820.8729,-131.7754 2823.4546,-138.2819"/>
</g>
<!-- Node60&#45;&gt;Node5 -->
<g id="edge115" class="edge">
<title>Node60&#45;&gt;Node5</title>
<path fill="none" stroke="#191970" d="M2629.9462,-179.4885C2431.6745,-168.135 1869.0729,-135.919 1685.0516,-125.3814"/>
<polygon fill="#191970" stroke="#191970" points="1685.2093,-121.8848 1675.0255,-124.8073 1684.809,-128.8734 1685.2093,-121.8848"/>
</g>
</g>
</svg>
