<?xml version="1.0" encoding="UTF-8" standalone="no"?>
<!DOCTYPE svg PUBLIC "-//W3C//DTD SVG 1.1//EN"
 "http://www.w3.org/Graphics/SVG/1.1/DTD/svg11.dtd">
<!-- Generated by graphviz version 2.40.1 (20161225.0304)
 -->
<!-- Title: src/GuiBase/Viewer/CameraManipulator.hpp Pages: 1 -->
<svg width="733pt" height="173pt"
 viewBox="0.00 0.00 733.00 173.00" xmlns="http://www.w3.org/2000/svg" xmlns:xlink="http://www.w3.org/1999/xlink">
<g id="graph0" class="graph" transform="scale(1 1) rotate(0) translate(4 169)">
<title>src/GuiBase/Viewer/CameraManipulator.hpp</title>
<polygon fill="#ffffff" stroke="transparent" points="-4,4 -4,-169 729,-169 729,4 -4,4"/>
<!-- Node33 -->
<g id="node1" class="node">
<title>Node33</title>
<polygon fill="#bfbfbf" stroke="#000000" points="252.5,-134.5 252.5,-164.5 388.5,-164.5 388.5,-134.5 252.5,-134.5"/>
<text text-anchor="start" x="260.5" y="-152.5" font-family="Helvetica,sans-Serif" font-size="10.00" fill="#000000">src/GuiBase/Viewer</text>
<text text-anchor="middle" x="320.5" y="-141.5" font-family="Helvetica,sans-Serif" font-size="10.00" fill="#000000">/CameraManipulator.hpp</text>
</g>
<!-- Node34 -->
<g id="node2" class="node">
<title>Node34</title>
<g id="a_node2"><a xlink:href="CameraManipulator_8cpp.html" target="_top" xlink:title="src/GuiBase/Viewer\l/CameraManipulator.cpp">
<polygon fill="#ffffff" stroke="#000000" points="0,-67.5 0,-97.5 135,-97.5 135,-67.5 0,-67.5"/>
<text text-anchor="start" x="8" y="-85.5" font-family="Helvetica,sans-Serif" font-size="10.00" fill="#000000">src/GuiBase/Viewer</text>
<text text-anchor="middle" x="67.5" y="-74.5" font-family="Helvetica,sans-Serif" font-size="10.00" fill="#000000">/CameraManipulator.cpp</text>
</a>
</g>
</g>
<!-- Node33&#45;&gt;Node34 -->
<g id="edge1" class="edge">
<title>Node33&#45;&gt;Node34</title>
<path fill="none" stroke="#191970" d="M253.9927,-131.8874C213.7389,-121.2273 162.9378,-107.774 124.5258,-97.6017"/>
<polygon fill="#191970" stroke="#191970" points="253.1591,-135.2872 263.7219,-134.4639 254.9511,-128.5205 253.1591,-135.2872"/>
</g>
<!-- Node35 -->
<g id="node3" class="node">
<title>Node35</title>
<g id="a_node3"><a xlink:href="FlightCameraManipulator_8hpp.html" target="_top" xlink:title="src/GuiBase/Viewer\l/FlightCameraManipulator.hpp">
<polygon fill="#ffffff" stroke="#000000" points="153,-67.5 153,-97.5 316,-97.5 316,-67.5 153,-67.5"/>
<text text-anchor="start" x="161" y="-85.5" font-family="Helvetica,sans-Serif" font-size="10.00" fill="#000000">src/GuiBase/Viewer</text>
<text text-anchor="middle" x="234.5" y="-74.5" font-family="Helvetica,sans-Serif" font-size="10.00" fill="#000000">/FlightCameraManipulator.hpp</text>
</a>
</g>
</g>
<!-- Node33&#45;&gt;Node35 -->
<g id="edge2" class="edge">
<title>Node33&#45;&gt;Node35</title>
<path fill="none" stroke="#191970" d="M292.9855,-128.0643C280.2696,-118.1577 265.4684,-106.6265 253.9375,-97.6432"/>
<polygon fill="#191970" stroke="#191970" points="290.9456,-130.9119 300.9853,-134.2967 295.2477,-125.3899 290.9456,-130.9119"/>
</g>
<!-- Node37 -->
<g id="node5" class="node">
<title>Node37</title>
<g id="a_node5"><a xlink:href="GizmoManager_8cpp.html" target="_top" xlink:title="src/GuiBase/Viewer\l/Gizmo/GizmoManager.cpp">
<polygon fill="#ffffff" stroke="#000000" points="334,-67.5 334,-97.5 481,-97.5 481,-67.5 334,-67.5"/>
<text text-anchor="start" x="342" y="-85.5" font-family="Helvetica,sans-Serif" font-size="10.00" fill="#000000">src/GuiBase/Viewer</text>
<text text-anchor="middle" x="407.5" y="-74.5" font-family="Helvetica,sans-Serif" font-size="10.00" fill="#000000">/Gizmo/GizmoManager.cpp</text>
</a>
</g>
</g>
<!-- Node33&#45;&gt;Node37 -->
<g id="edge4" class="edge">
<title>Node33&#45;&gt;Node37</title>
<path fill="none" stroke="#191970" d="M348.3344,-128.0643C361.1982,-118.1577 376.1715,-106.6265 387.8365,-97.6432"/>
<polygon fill="#191970" stroke="#191970" points="346.029,-125.4221 340.2416,-134.2967 350.3001,-130.9681 346.029,-125.4221"/>
</g>
<!-- Node38 -->
<g id="node6" class="node">
<title>Node38</title>
<g id="a_node6"><a xlink:href="TrackballCameraManipulator_8hpp.html" target="_top" xlink:title="src/GuiBase/Viewer\l/TrackballCameraManipulator.hpp">
<polygon fill="#ffffff" stroke="#000000" points="499,-67.5 499,-97.5 678,-97.5 678,-67.5 499,-67.5"/>
<text text-anchor="start" x="507" y="-85.5" font-family="Helvetica,sans-Serif" font-size="10.00" fill="#000000">src/GuiBase/Viewer</text>
<text text-anchor="middle" x="588.5" y="-74.5" font-family="Helvetica,sans-Serif" font-size="10.00" fill="#000000">/TrackballCameraManipulator.hpp</text>
</a>
</g>
</g>
<!-- Node33&#45;&gt;Node38 -->
<g id="edge5" class="edge">
<title>Node33&#45;&gt;Node38</title>
<path fill="none" stroke="#191970" d="M390.4101,-132.0225C433.1355,-121.3411 487.2318,-107.8171 528.0932,-97.6017"/>
<polygon fill="#191970" stroke="#191970" points="389.497,-128.643 380.6444,-134.4639 391.1948,-135.434 389.497,-128.643"/>
</g>
<!-- Node36 -->
<g id="node4" class="node">
<title>Node36</title>
<g id="a_node4"><a xlink:href="FlightCameraManipulator_8cpp.html" target="_top" xlink:title="src/GuiBase/Viewer\l/FlightCameraManipulator.cpp">
<polygon fill="#ffffff" stroke="#000000" points="153.5,-.5 153.5,-30.5 315.5,-30.5 315.5,-.5 153.5,-.5"/>
<text text-anchor="start" x="161.5" y="-18.5" font-family="Helvetica,sans-Serif" font-size="10.00" fill="#000000">src/GuiBase/Viewer</text>
<text text-anchor="middle" x="234.5" y="-7.5" font-family="Helvetica,sans-Serif" font-size="10.00" fill="#000000">/FlightCameraManipulator.cpp</text>
</a>
</g>
</g>
<!-- Node35&#45;&gt;Node36 -->
<g id="edge3" class="edge">
<title>Node35&#45;&gt;Node36</title>
<path fill="none" stroke="#191970" d="M234.5,-57.0249C234.5,-48.128 234.5,-38.4287 234.5,-30.6432"/>
<polygon fill="#191970" stroke="#191970" points="231.0001,-57.2966 234.5,-67.2967 238.0001,-57.2967 231.0001,-57.2966"/>
</g>
<!-- Node39 -->
<g id="node7" class="node">
<title>Node39</title>
<g id="a_node7"><a xlink:href="TrackballCameraManipulator_8cpp.html" target="_top" xlink:title="src/GuiBase/Viewer\l/TrackballCameraManipulator.cpp">
<polygon fill="#ffffff" stroke="#000000" points="417,-.5 417,-30.5 596,-30.5 596,-.5 417,-.5"/>
<text text-anchor="start" x="425" y="-18.5" font-family="Helvetica,sans-Serif" font-size="10.00" fill="#000000">src/GuiBase/Viewer</text>
<text text-anchor="middle" x="506.5" y="-7.5" font-family="Helvetica,sans-Serif" font-size="10.00" fill="#000000">/TrackballCameraManipulator.cpp</text>
</a>
</g>
</g>
<!-- Node38&#45;&gt;Node39 -->
<g id="edge6" class="edge">
<title>Node38&#45;&gt;Node39</title>
<path fill="none" stroke="#191970" d="M561.9183,-60.7808C549.8722,-50.9383 535.9233,-39.541 525.0334,-30.6432"/>
<polygon fill="#191970" stroke="#191970" points="559.9346,-63.6797 569.8929,-67.2967 564.3637,-58.2591 559.9346,-63.6797"/>
</g>
<!-- Node40 -->
<g id="node8" class="node">
<title>Node40</title>
<g id="a_node8"><a xlink:href="Viewer_8cpp.html" target="_top" xlink:title="src/GuiBase/Viewer\l/Viewer.cpp">
<polygon fill="#ffffff" stroke="#000000" points="614,-.5 614,-30.5 725,-30.5 725,-.5 614,-.5"/>
<text text-anchor="start" x="622" y="-18.5" font-family="Helvetica,sans-Serif" font-size="10.00" fill="#000000">src/GuiBase/Viewer</text>
<text text-anchor="middle" x="669.5" y="-7.5" font-family="Helvetica,sans-Serif" font-size="10.00" fill="#000000">/Viewer.cpp</text>
</a>
</g>
</g>
<!-- Node38&#45;&gt;Node40 -->
<g id="edge7" class="edge">
<title>Node38&#45;&gt;Node40</title>
<path fill="none" stroke="#191970" d="M614.7575,-60.7808C626.6567,-50.9383 640.4356,-39.541 651.1926,-30.6432"/>
<polygon fill="#191970" stroke="#191970" points="612.3549,-58.2259 606.8802,-67.2967 616.8165,-63.6198 612.3549,-58.2259"/>
</g>
</g>
</svg>
