<?xml version="1.0" encoding="UTF-8" standalone="no"?>
<!DOCTYPE svg PUBLIC "-//W3C//DTD SVG 1.1//EN"
 "http://www.w3.org/Graphics/SVG/1.1/DTD/svg11.dtd">
<!-- Generated by graphviz version 2.40.1 (20161225.0304)
 -->
<!-- Title: src/Engine/Renderer/Camera/Camera.inl Pages: 1 -->
<svg width="1297pt" height="397pt"
 viewBox="0.00 0.00 1296.95 397.00" xmlns="http://www.w3.org/2000/svg" xmlns:xlink="http://www.w3.org/1999/xlink">
<g id="graph0" class="graph" transform="scale(1 1) rotate(0) translate(4 393)">
<title>src/Engine/Renderer/Camera/Camera.inl</title>
<polygon fill="#ffffff" stroke="transparent" points="-4,4 -4,-393 1292.9529,-393 1292.9529,4 -4,4"/>
<!-- Node0 -->
<g id="node1" class="node">
<title>Node0</title>
<polygon fill="#bfbfbf" stroke="#000000" points="412,-358.5 412,-388.5 526,-388.5 526,-358.5 412,-358.5"/>
<text text-anchor="start" x="420" y="-376.5" font-family="Helvetica,sans-Serif" font-size="10.00" fill="#000000">src/Engine/Renderer</text>
<text text-anchor="middle" x="469" y="-365.5" font-family="Helvetica,sans-Serif" font-size="10.00" fill="#000000">/Camera/Camera.inl</text>
</g>
<!-- Node1 -->
<g id="node2" class="node">
<title>Node1</title>
<g id="a_node2"><a xlink:href="Entity_8hpp.html" target="_top" xlink:title="Engine/Entity/Entity.hpp">
<polygon fill="#ffffff" stroke="#000000" points="864,-297 864,-316 996,-316 996,-297 864,-297"/>
<text text-anchor="middle" x="930" y="-304" font-family="Helvetica,sans-Serif" font-size="10.00" fill="#000000">Engine/Entity/Entity.hpp</text>
</a>
</g>
</g>
<!-- Node0&#45;&gt;Node1 -->
<g id="edge1" class="edge">
<title>Node0&#45;&gt;Node1</title>
<path fill="none" stroke="#191970" d="M526.4539,-365.1499C609.2753,-353.1129 762.3387,-330.8673 854.2938,-317.5028"/>
<polygon fill="#191970" stroke="#191970" points="854.9781,-320.9403 864.3708,-316.0383 853.9713,-314.013 854.9781,-320.9403"/>
</g>
<!-- Node22 -->
<g id="node23" class="node">
<title>Node22</title>
<g id="a_node23"><a xlink:href="Camera_8hpp.html" target="_top" xlink:title="Engine/Renderer/Camera\l/Camera.hpp">
<polygon fill="#ffffff" stroke="#000000" points="400.5,-291.5 400.5,-321.5 537.5,-321.5 537.5,-291.5 400.5,-291.5"/>
<text text-anchor="start" x="408.5" y="-309.5" font-family="Helvetica,sans-Serif" font-size="10.00" fill="#000000">Engine/Renderer/Camera</text>
<text text-anchor="middle" x="469" y="-298.5" font-family="Helvetica,sans-Serif" font-size="10.00" fill="#000000">/Camera.hpp</text>
</a>
</g>
</g>
<!-- Node0&#45;&gt;Node22 -->
<g id="edge28" class="edge">
<title>Node0&#45;&gt;Node22</title>
<path fill="none" stroke="#191970" d="M463.2392,-358.2967C462.2895,-350.4156 462.0236,-340.5857 462.4416,-331.6135"/>
<polygon fill="#191970" stroke="#191970" points="465.9304,-331.8924 463.2464,-321.6432 458.9531,-331.3291 465.9304,-331.8924"/>
</g>
<!-- Node2 -->
<g id="node3" class="node">
<title>Node2</title>
<g id="a_node3"><a xlink:href="RaEngine_8hpp.html" target="_top" xlink:title="Engine/RaEngine.hpp">
<polygon fill="#ffffff" stroke="#000000" points="339.5,-168.5 339.5,-187.5 458.5,-187.5 458.5,-168.5 339.5,-168.5"/>
<text text-anchor="middle" x="399" y="-175.5" font-family="Helvetica,sans-Serif" font-size="10.00" fill="#000000">Engine/RaEngine.hpp</text>
</a>
</g>
</g>
<!-- Node1&#45;&gt;Node2 -->
<g id="edge2" class="edge">
<title>Node1&#45;&gt;Node2</title>
<path fill="none" stroke="#191970" d="M863.7689,-303.079C713.7144,-295.0092 359.4365,-274.0305 342,-255 323.7674,-235.1007 351.5506,-209.4909 374.3395,-193.4052"/>
<polygon fill="#191970" stroke="#191970" points="376.3981,-196.2383 382.7227,-187.7383 372.4779,-190.439 376.3981,-196.2383"/>
</g>
<!-- Node8 -->
<g id="node9" class="node">
<title>Node8</title>
<polygon fill="#ffffff" stroke="#bfbfbf" points="1138,-.5 1138,-19.5 1186,-19.5 1186,-.5 1138,-.5"/>
<text text-anchor="middle" x="1162" y="-7.5" font-family="Helvetica,sans-Serif" font-size="10.00" fill="#000000">thread</text>
</g>
<!-- Node1&#45;&gt;Node8 -->
<g id="edge11" class="edge">
<title>Node1&#45;&gt;Node8</title>
<path fill="none" stroke="#191970" d="M996.304,-300.4232C1089.2783,-291.3057 1249.2984,-273.2058 1269,-255 1294.8117,-231.148 1287,-213.1449 1287,-178 1287,-178 1287,-178 1287,-122 1287,-95.1382 1222.1613,-48.8735 1185.8795,-25.0878"/>
<polygon fill="#191970" stroke="#191970" points="1187.6238,-22.0477 1177.3275,-19.5505 1183.8192,-27.9235 1187.6238,-22.0477"/>
</g>
<!-- Node9 -->
<g id="node10" class="node">
<title>Node9</title>
<polygon fill="#ffffff" stroke="#bfbfbf" points="791,-230 791,-249 839,-249 839,-230 791,-230"/>
<text text-anchor="middle" x="815" y="-237" font-family="Helvetica,sans-Serif" font-size="10.00" fill="#000000">mutex</text>
</g>
<!-- Node1&#45;&gt;Node9 -->
<g id="edge9" class="edge">
<title>Node1&#45;&gt;Node9</title>
<path fill="none" stroke="#191970" d="M913.5233,-296.9005C894.3945,-285.7559 862.6267,-267.2477 840.3484,-254.2682"/>
<polygon fill="#191970" stroke="#191970" points="841.8486,-251.0916 831.4461,-249.0817 838.3247,-257.1399 841.8486,-251.0916"/>
</g>
<!-- Node10 -->
<g id="node11" class="node">
<title>Node10</title>
<polygon fill="#ffffff" stroke="#bfbfbf" points="857,-230 857,-249 901,-249 901,-230 857,-230"/>
<text text-anchor="middle" x="879" y="-237" font-family="Helvetica,sans-Serif" font-size="10.00" fill="#000000">string</text>
</g>
<!-- Node1&#45;&gt;Node10 -->
<g id="edge10" class="edge">
<title>Node1&#45;&gt;Node10</title>
<path fill="none" stroke="#191970" d="M922.6929,-296.9005C914.8157,-286.552 902.1054,-269.8542 892.4194,-257.1295"/>
<polygon fill="#191970" stroke="#191970" points="895.1354,-254.9188 886.2935,-249.0817 889.5654,-259.1586 895.1354,-254.9188"/>
</g>
<!-- Node11 -->
<g id="node12" class="node">
<title>Node11</title>
<polygon fill="#ffffff" stroke="#bfbfbf" points="895.5,-168.5 895.5,-187.5 942.5,-187.5 942.5,-168.5 895.5,-168.5"/>
<text text-anchor="middle" x="919" y="-175.5" font-family="Helvetica,sans-Serif" font-size="10.00" fill="#000000">vector</text>
</g>
<!-- Node1&#45;&gt;Node11 -->
<g id="edge12" class="edge">
<title>Node1&#45;&gt;Node11</title>
<path fill="none" stroke="#191970" d="M971.2411,-296.926C1016.5075,-284.397 1079.5834,-259.7452 1054,-224 1047.8651,-215.4284 990.161,-197.9072 952.2065,-187.135"/>
<polygon fill="#191970" stroke="#191970" points="953.1297,-183.7589 942.5555,-184.42 951.234,-190.4973 953.1297,-183.7589"/>
</g>
<!-- Node12 -->
<g id="node13" class="node">
<title>Node12</title>
<g id="a_node13"><a xlink:href="Types_8hpp.html" target="_top" xlink:title="Core/Types.hpp">
<polygon fill="#ffffff" stroke="#000000" points="508.5,-168.5 508.5,-187.5 599.5,-187.5 599.5,-168.5 508.5,-168.5"/>
<text text-anchor="middle" x="554" y="-175.5" font-family="Helvetica,sans-Serif" font-size="10.00" fill="#000000">Core/Types.hpp</text>
</a>
</g>
</g>
<!-- Node1&#45;&gt;Node12 -->
<g id="edge13" class="edge">
<title>Node1&#45;&gt;Node12</title>
<path fill="none" stroke="#191970" d="M863.8788,-300.8214C767.1663,-291.9343 596.2518,-273.8017 575,-255 558.9192,-240.7731 554.6116,-215.5584 553.7164,-197.8696"/>
<polygon fill="#191970" stroke="#191970" points="557.2138,-197.6918 553.5282,-187.7587 550.215,-197.8222 557.2138,-197.6918"/>
</g>
<!-- Node17 -->
<g id="node18" class="node">
<title>Node17</title>
<g id="a_node18"><a xlink:href="IndexedObject_8hpp.html" target="_top" xlink:title="Core/Utils/IndexedObject.hpp">
<polygon fill="#ffffff" stroke="#000000" points="1100.5,-230 1100.5,-249 1259.5,-249 1259.5,-230 1100.5,-230"/>
<text text-anchor="middle" x="1180" y="-237" font-family="Helvetica,sans-Serif" font-size="10.00" fill="#000000">Core/Utils/IndexedObject.hpp</text>
</a>
</g>
</g>
<!-- Node1&#45;&gt;Node17 -->
<g id="edge19" class="edge">
<title>Node1&#45;&gt;Node17</title>
<path fill="none" stroke="#191970" d="M965.5534,-296.9717C1009.854,-285.0991 1085.631,-264.7909 1134.228,-251.7669"/>
<polygon fill="#191970" stroke="#191970" points="1135.4114,-255.0733 1144.1645,-249.1039 1133.5993,-248.3119 1135.4114,-255.0733"/>
</g>
<!-- Node21 -->
<g id="node22" class="node">
<title>Node21</title>
<g id="a_node22"><a xlink:href="Entity_8inl.html" target="_top" xlink:title="Engine/Entity/Entity.inl">
<polygon fill="#ffffff" stroke="#000000" points="919,-230 919,-249 1045,-249 1045,-230 919,-230"/>
<text text-anchor="middle" x="982" y="-237" font-family="Helvetica,sans-Serif" font-size="10.00" fill="#000000">Engine/Entity/Entity.inl</text>
</a>
</g>
</g>
<!-- Node1&#45;&gt;Node21 -->
<g id="edge26" class="edge">
<title>Node1&#45;&gt;Node21</title>
<path fill="none" stroke="#191970" d="M932.5497,-296.9005C938.635,-286.4525 951.404,-269.5325 962.6123,-256.7635"/>
<polygon fill="#191970" stroke="#191970" points="965.4806,-258.8146 969.6664,-249.0817 960.3246,-254.08 965.4806,-258.8146"/>
</g>
<!-- Node3 -->
<g id="node4" class="node">
<title>Node3</title>
<g id="a_node4"><a xlink:href="CoreMacros_8hpp.html" target="_top" xlink:title="Core/CoreMacros.hpp">
<polygon fill="#ffffff" stroke="#000000" points="798,-56.5 798,-75.5 918,-75.5 918,-56.5 798,-56.5"/>
<text text-anchor="middle" x="858" y="-63.5" font-family="Helvetica,sans-Serif" font-size="10.00" fill="#000000">Core/CoreMacros.hpp</text>
</a>
</g>
</g>
<!-- Node2&#45;&gt;Node3 -->
<g id="edge3" class="edge">
<title>Node2&#45;&gt;Node3</title>
<path fill="none" stroke="#191970" d="M399.6333,-168.0587C401.1569,-153.2339 406.3442,-125.6224 424,-112 452.1332,-90.2938 672.0715,-75.6992 787.6119,-69.449"/>
<polygon fill="#191970" stroke="#191970" points="787.9808,-72.9344 797.7799,-68.9059 787.6074,-65.9443 787.9808,-72.9344"/>
</g>
<!-- Node4 -->
<g id="node5" class="node">
<title>Node4</title>
<polygon fill="#ffffff" stroke="#bfbfbf" points="942,-.5 942,-19.5 994,-19.5 994,-.5 942,-.5"/>
<text text-anchor="middle" x="968" y="-7.5" font-family="Helvetica,sans-Serif" font-size="10.00" fill="#000000">cassert</text>
</g>
<!-- Node3&#45;&gt;Node4 -->
<g id="edge4" class="edge">
<title>Node3&#45;&gt;Node4</title>
<path fill="none" stroke="#191970" d="M877.1605,-56.2455C894.5111,-47.4125 920.2901,-34.2887 939.9583,-24.2758"/>
<polygon fill="#191970" stroke="#191970" points="941.7353,-27.2986 949.059,-19.6427 938.5595,-21.0605 941.7353,-27.2986"/>
</g>
<!-- Node5 -->
<g id="node6" class="node">
<title>Node5</title>
<polygon fill="#ffffff" stroke="#bfbfbf" points="726,-.5 726,-19.5 772,-19.5 772,-.5 726,-.5"/>
<text text-anchor="middle" x="749" y="-7.5" font-family="Helvetica,sans-Serif" font-size="10.00" fill="#000000">cstdio</text>
</g>
<!-- Node3&#45;&gt;Node5 -->
<g id="edge5" class="edge">
<title>Node3&#45;&gt;Node5</title>
<path fill="none" stroke="#191970" d="M839.0136,-56.2455C821.8208,-47.4125 796.2762,-34.2887 776.7868,-24.2758"/>
<polygon fill="#191970" stroke="#191970" points="778.263,-21.0993 767.7688,-19.6427 775.0641,-27.3257 778.263,-21.0993"/>
</g>
<!-- Node6 -->
<g id="node7" class="node">
<title>Node6</title>
<polygon fill="#ffffff" stroke="#bfbfbf" points="790,-.5 790,-19.5 850,-19.5 850,-.5 790,-.5"/>
<text text-anchor="middle" x="820" y="-7.5" font-family="Helvetica,sans-Serif" font-size="10.00" fill="#000000">iostream</text>
</g>
<!-- Node3&#45;&gt;Node6 -->
<g id="edge6" class="edge">
<title>Node3&#45;&gt;Node6</title>
<path fill="none" stroke="#191970" d="M851.3809,-56.2455C846.0954,-48.4564 838.5459,-37.3308 832.1762,-27.9439"/>
<polygon fill="#191970" stroke="#191970" points="835.0545,-25.9522 826.5432,-19.6427 829.2621,-29.8827 835.0545,-25.9522"/>
</g>
<!-- Node7 -->
<g id="node8" class="node">
<title>Node7</title>
<polygon fill="#ffffff" stroke="#bfbfbf" points="868,-.5 868,-19.5 924,-19.5 924,-.5 868,-.5"/>
<text text-anchor="middle" x="896" y="-7.5" font-family="Helvetica,sans-Serif" font-size="10.00" fill="#000000">sstream</text>
</g>
<!-- Node3&#45;&gt;Node7 -->
<g id="edge7" class="edge">
<title>Node3&#45;&gt;Node7</title>
<path fill="none" stroke="#191970" d="M864.6191,-56.2455C869.9046,-48.4564 877.4541,-37.3308 883.8238,-27.9439"/>
<polygon fill="#191970" stroke="#191970" points="886.7379,-29.8827 889.4568,-19.6427 880.9455,-25.9522 886.7379,-29.8827"/>
</g>
<!-- Node3&#45;&gt;Node8 -->
<g id="edge8" class="edge">
<title>Node3&#45;&gt;Node8</title>
<path fill="none" stroke="#191970" d="M909.914,-56.4369C972.2355,-44.9566 1074.9659,-26.0326 1127.9884,-16.2653"/>
<polygon fill="#191970" stroke="#191970" points="1128.703,-19.6926 1137.9035,-14.4388 1127.4348,-12.8085 1128.703,-19.6926"/>
</g>
<!-- Node13 -->
<g id="node14" class="node">
<title>Node13</title>
<g id="a_node14"><a xlink:href="RaCore_8hpp.html" target="_top" xlink:title="Core/RaCore.hpp">
<polygon fill="#ffffff" stroke="#000000" points="809,-112.5 809,-131.5 907,-131.5 907,-112.5 809,-112.5"/>
<text text-anchor="middle" x="858" y="-119.5" font-family="Helvetica,sans-Serif" font-size="10.00" fill="#000000">Core/RaCore.hpp</text>
</a>
</g>
</g>
<!-- Node12&#45;&gt;Node13 -->
<g id="edge14" class="edge">
<title>Node12&#45;&gt;Node13</title>
<path fill="none" stroke="#191970" d="M599.5119,-169.6162C652.5603,-159.8442 740.3849,-143.6659 798.7215,-132.9197"/>
<polygon fill="#191970" stroke="#191970" points="799.6961,-136.2992 808.8966,-131.0454 798.4279,-129.415 799.6961,-136.2992"/>
</g>
<!-- Node14 -->
<g id="node15" class="node">
<title>Node14</title>
<polygon fill="#ffffff" stroke="#bfbfbf" points="531.5,-112.5 531.5,-131.5 600.5,-131.5 600.5,-112.5 531.5,-112.5"/>
<text text-anchor="middle" x="566" y="-119.5" font-family="Helvetica,sans-Serif" font-size="10.00" fill="#000000">Eigen/Core</text>
</g>
<!-- Node12&#45;&gt;Node14 -->
<g id="edge16" class="edge">
<title>Node12&#45;&gt;Node14</title>
<path fill="none" stroke="#191970" d="M556.0902,-168.2455C557.6561,-160.9382 559.8512,-150.6944 561.7776,-141.7046"/>
<polygon fill="#191970" stroke="#191970" points="565.2607,-142.1541 563.9337,-131.6427 558.416,-140.6873 565.2607,-142.1541"/>
</g>
<!-- Node15 -->
<g id="node16" class="node">
<title>Node15</title>
<polygon fill="#ffffff" stroke="#bfbfbf" points="618.5,-112.5 618.5,-131.5 713.5,-131.5 713.5,-112.5 618.5,-112.5"/>
<text text-anchor="middle" x="666" y="-119.5" font-family="Helvetica,sans-Serif" font-size="10.00" fill="#000000">Eigen/Geometry</text>
</g>
<!-- Node12&#45;&gt;Node15 -->
<g id="edge17" class="edge">
<title>Node12&#45;&gt;Node15</title>
<path fill="none" stroke="#191970" d="M573.2535,-168.3733C591.0712,-159.4644 617.7747,-146.1127 637.9594,-136.0203"/>
<polygon fill="#191970" stroke="#191970" points="639.6187,-139.1038 646.9978,-131.5011 636.4882,-132.8428 639.6187,-139.1038"/>
</g>
<!-- Node16 -->
<g id="node17" class="node">
<title>Node16</title>
<polygon fill="#ffffff" stroke="#bfbfbf" points="433,-112.5 433,-131.5 513,-131.5 513,-112.5 433,-112.5"/>
<text text-anchor="middle" x="473" y="-119.5" font-family="Helvetica,sans-Serif" font-size="10.00" fill="#000000">Eigen/Sparse</text>
</g>
<!-- Node12&#45;&gt;Node16 -->
<g id="edge18" class="edge">
<title>Node12&#45;&gt;Node16</title>
<path fill="none" stroke="#191970" d="M539.8909,-168.2455C527.5791,-159.7337 509.5042,-147.2375 495.2462,-137.3801"/>
<polygon fill="#191970" stroke="#191970" points="497.1634,-134.4506 486.9474,-131.6427 493.1826,-140.2085 497.1634,-134.4506"/>
</g>
<!-- Node13&#45;&gt;Node3 -->
<g id="edge15" class="edge">
<title>Node13&#45;&gt;Node3</title>
<path fill="none" stroke="#191970" d="M858,-112.2455C858,-104.9382 858,-94.6944 858,-85.7046"/>
<polygon fill="#191970" stroke="#191970" points="861.5001,-85.6426 858,-75.6427 854.5001,-85.6427 861.5001,-85.6426"/>
</g>
<!-- Node17&#45;&gt;Node13 -->
<g id="edge20" class="edge">
<title>Node17&#45;&gt;Node13</title>
<path fill="none" stroke="#191970" d="M1133.7903,-229.9708C1094.741,-221.2143 1037.7098,-206.757 990,-188 972.2381,-181.017 969.0176,-176.6399 952,-168 930.3408,-157.0036 905.6668,-144.9468 887.0342,-135.9363"/>
<polygon fill="#191970" stroke="#191970" points="888.4167,-132.7172 877.8893,-131.5238 885.3747,-139.0217 888.4167,-132.7172"/>
</g>
<!-- Node18 -->
<g id="node19" class="node">
<title>Node18</title>
<g id="a_node19"><a xlink:href="Index_8hpp.html" target="_top" xlink:title="Core/Utils/Index.hpp">
<polygon fill="#ffffff" stroke="#000000" points="999,-168.5 999,-187.5 1115,-187.5 1115,-168.5 999,-168.5"/>
<text text-anchor="middle" x="1057" y="-175.5" font-family="Helvetica,sans-Serif" font-size="10.00" fill="#000000">Core/Utils/Index.hpp</text>
</a>
</g>
</g>
<!-- Node17&#45;&gt;Node18 -->
<g id="edge21" class="edge">
<title>Node17&#45;&gt;Node18</title>
<path fill="none" stroke="#191970" d="M1160.7813,-229.8906C1140.4719,-219.7359 1108.2393,-203.6196 1085.0832,-192.0416"/>
<polygon fill="#191970" stroke="#191970" points="1086.5933,-188.8836 1076.0838,-187.5419 1083.4628,-195.1446 1086.5933,-188.8836"/>
</g>
<!-- Node18&#45;&gt;Node13 -->
<g id="edge22" class="edge">
<title>Node18&#45;&gt;Node13</title>
<path fill="none" stroke="#191970" d="M1022.7907,-168.3733C989.2703,-158.9404 938.0495,-144.5265 901.619,-134.2747"/>
<polygon fill="#191970" stroke="#191970" points="902.3372,-130.8409 891.7629,-131.5011 900.4409,-137.5792 902.3372,-130.8409"/>
</g>
<!-- Node19 -->
<g id="node20" class="node">
<title>Node19</title>
<polygon fill="#ffffff" stroke="#bfbfbf" points="1130,-112.5 1130,-131.5 1174,-131.5 1174,-112.5 1130,-112.5"/>
<text text-anchor="middle" x="1152" y="-119.5" font-family="Helvetica,sans-Serif" font-size="10.00" fill="#000000">limits</text>
</g>
<!-- Node18&#45;&gt;Node19 -->
<g id="edge23" class="edge">
<title>Node18&#45;&gt;Node19</title>
<path fill="none" stroke="#191970" d="M1073.5477,-168.2455C1088.2599,-159.5731 1109.9888,-146.7645 1126.8505,-136.825"/>
<polygon fill="#191970" stroke="#191970" points="1128.8046,-139.736 1135.6419,-131.6427 1125.2498,-133.7057 1128.8046,-139.736"/>
</g>
<!-- Node20 -->
<g id="node21" class="node">
<title>Node20</title>
<g id="a_node21"><a xlink:href="Index_8inl.html" target="_top" xlink:title="Core/Utils/Index.inl">
<polygon fill="#ffffff" stroke="#000000" points="1002,-112.5 1002,-131.5 1112,-131.5 1112,-112.5 1002,-112.5"/>
<text text-anchor="middle" x="1057" y="-119.5" font-family="Helvetica,sans-Serif" font-size="10.00" fill="#000000">Core/Utils/Index.inl</text>
</a>
</g>
</g>
<!-- Node18&#45;&gt;Node20 -->
<g id="edge24" class="edge">
<title>Node18&#45;&gt;Node20</title>
<path fill="none" stroke="#191970" d="M1051.7332,-168.2455C1050.3221,-160.9382 1049.9179,-150.6944 1050.5205,-141.7046"/>
<polygon fill="#191970" stroke="#191970" points="1054.0111,-141.9945 1051.7549,-131.6427 1047.0632,-141.1421 1054.0111,-141.9945"/>
</g>
<!-- Node20&#45;&gt;Node18 -->
<g id="edge25" class="edge">
<title>Node20&#45;&gt;Node18</title>
<path fill="none" stroke="#191970" d="M1062.2451,-131.6427C1063.6665,-138.9199 1064.081,-149.155 1063.4887,-158.1575"/>
<polygon fill="#191970" stroke="#191970" points="1059.9947,-157.8972 1062.2668,-168.2455 1066.9439,-158.739 1059.9947,-157.8972"/>
</g>
<!-- Node21&#45;&gt;Node1 -->
<g id="edge27" class="edge">
<title>Node21&#45;&gt;Node1</title>
<path fill="none" stroke="#191970" d="M979.4606,-249.0817C973.383,-259.5224 960.6169,-276.441 949.4068,-289.2147"/>
<polygon fill="#191970" stroke="#191970" points="946.5354,-287.167 942.3509,-296.9005 951.692,-291.901 946.5354,-287.167"/>
</g>
<!-- Node22&#45;&gt;Node0 -->
<g id="edge48" class="edge">
<title>Node22&#45;&gt;Node0</title>
<path fill="none" stroke="#191970" d="M474.7536,-321.6432C475.7067,-329.5143 475.9761,-339.3414 475.5616,-348.3179"/>
<polygon fill="#191970" stroke="#191970" points="472.072,-348.0487 474.7608,-358.2967 479.0496,-348.6087 472.072,-348.0487"/>
</g>
<!-- Node22&#45;&gt;Node2 -->
<g id="edge45" class="edge">
<title>Node22&#45;&gt;Node2</title>
<path fill="none" stroke="#191970" d="M400.2976,-292.8087C362.2075,-283.6715 320.299,-270.5068 309,-255 300.8863,-243.8647 301.8085,-235.752 309,-224 318.3409,-208.7354 334.5228,-198.3326 350.6126,-191.3404"/>
<polygon fill="#191970" stroke="#191970" points="352.0187,-194.548 360.023,-187.6067 349.4371,-188.0414 352.0187,-194.548"/>
</g>
<!-- Node22&#45;&gt;Node12 -->
<g id="edge35" class="edge">
<title>Node22&#45;&gt;Node12</title>
<path fill="none" stroke="#191970" d="M479.0844,-291.2548C494.8291,-267.4524 525.1871,-221.5584 542.0217,-196.1084"/>
<polygon fill="#191970" stroke="#191970" points="544.9621,-198.0072 547.56,-187.7358 539.1238,-194.1453 544.9621,-198.0072"/>
</g>
<!-- Node23 -->
<g id="node24" class="node">
<title>Node23</title>
<g id="a_node24"><a xlink:href="Math_8hpp.html" target="_top" xlink:title="Core/Math/Math.hpp">
<polygon fill="#ffffff" stroke="#000000" points="143,-230 143,-249 257,-249 257,-230 143,-230"/>
<text text-anchor="middle" x="200" y="-237" font-family="Helvetica,sans-Serif" font-size="10.00" fill="#000000">Core/Math/Math.hpp</text>
</a>
</g>
</g>
<!-- Node22&#45;&gt;Node23 -->
<g id="edge29" class="edge">
<title>Node22&#45;&gt;Node23</title>
<path fill="none" stroke="#191970" d="M408.6311,-291.4639C360.0994,-279.3761 292.8411,-262.624 247.9474,-251.4423"/>
<polygon fill="#191970" stroke="#191970" points="248.7125,-248.026 238.163,-249.0053 247.0206,-254.8185 248.7125,-248.026"/>
</g>
<!-- Node27 -->
<g id="node28" class="node">
<title>Node27</title>
<g id="a_node28"><a xlink:href="Component_8hpp.html" target="_top" xlink:title="Engine/Component/Component.hpp">
<polygon fill="#ffffff" stroke="#000000" points="583.5,-230 583.5,-249 772.5,-249 772.5,-230 583.5,-230"/>
<text text-anchor="middle" x="678" y="-237" font-family="Helvetica,sans-Serif" font-size="10.00" fill="#000000">Engine/Component/Component.hpp</text>
</a>
</g>
</g>
<!-- Node22&#45;&gt;Node27 -->
<g id="edge36" class="edge">
<title>Node22&#45;&gt;Node27</title>
<path fill="none" stroke="#191970" d="M515.9037,-291.4639C552.8183,-279.63 603.6777,-263.3258 638.5261,-252.1543"/>
<polygon fill="#191970" stroke="#191970" points="639.895,-255.391 648.3492,-249.0053 637.758,-248.7251 639.895,-255.391"/>
</g>
<!-- Node29 -->
<g id="node30" class="node">
<title>Node29</title>
<g id="a_node30"><a xlink:href="ViewingParameters_8hpp.html" target="_top" xlink:title="Engine/Renderer/Camera\l/ViewingParameters.hpp">
<polygon fill="#ffffff" stroke="#000000" points="351.5,-224.5 351.5,-254.5 488.5,-254.5 488.5,-224.5 351.5,-224.5"/>
<text text-anchor="start" x="359.5" y="-242.5" font-family="Helvetica,sans-Serif" font-size="10.00" fill="#000000">Engine/Renderer/Camera</text>
<text text-anchor="middle" x="420" y="-231.5" font-family="Helvetica,sans-Serif" font-size="10.00" fill="#000000">/ViewingParameters.hpp</text>
</a>
</g>
</g>
<!-- Node22&#45;&gt;Node29 -->
<g id="edge46" class="edge">
<title>Node22&#45;&gt;Node29</title>
<path fill="none" stroke="#191970" d="M457.8811,-291.2967C451.7415,-282.9016 443.9846,-272.2952 437.0914,-262.8698"/>
<polygon fill="#191970" stroke="#191970" points="439.8032,-260.6488 431.0749,-254.6432 434.153,-264.781 439.8032,-260.6488"/>
</g>
<!-- Node23&#45;&gt;Node13 -->
<g id="edge30" class="edge">
<title>Node23&#45;&gt;Node13</title>
<path fill="none" stroke="#191970" d="M213.1969,-229.768C235.7896,-213.6972 283.9117,-181.9982 330,-168 352.1489,-161.2728 665.8014,-136.6927 798.9317,-126.4879"/>
<polygon fill="#191970" stroke="#191970" points="799.2572,-129.9734 808.9608,-125.7202 798.7228,-122.9938 799.2572,-129.9734"/>
</g>
<!-- Node24 -->
<g id="node25" class="node">
<title>Node24</title>
<polygon fill="#ffffff" stroke="#bfbfbf" points="0,-168.5 0,-187.5 64,-187.5 64,-168.5 0,-168.5"/>
<text text-anchor="middle" x="32" y="-175.5" font-family="Helvetica,sans-Serif" font-size="10.00" fill="#000000">algorithm</text>
</g>
<!-- Node23&#45;&gt;Node24 -->
<g id="edge31" class="edge">
<title>Node23&#45;&gt;Node24</title>
<path fill="none" stroke="#191970" d="M173.75,-229.8906C145.2707,-219.4652 99.6257,-202.7559 67.8543,-191.1252"/>
<polygon fill="#191970" stroke="#191970" points="68.6594,-187.6929 58.0657,-187.5419 66.2531,-194.2663 68.6594,-187.6929"/>
</g>
<!-- Node25 -->
<g id="node26" class="node">
<title>Node25</title>
<polygon fill="#ffffff" stroke="#bfbfbf" points="82.5,-168.5 82.5,-187.5 129.5,-187.5 129.5,-168.5 82.5,-168.5"/>
<text text-anchor="middle" x="106" y="-175.5" font-family="Helvetica,sans-Serif" font-size="10.00" fill="#000000">cmath</text>
</g>
<!-- Node23&#45;&gt;Node25 -->
<g id="edge32" class="edge">
<title>Node23&#45;&gt;Node25</title>
<path fill="none" stroke="#191970" d="M185.3125,-229.8906C170.2744,-220.0519 146.6824,-204.6167 129.1333,-193.1351"/>
<polygon fill="#191970" stroke="#191970" points="130.8687,-190.088 120.5844,-187.5419 127.0363,-195.9457 130.8687,-190.088"/>
</g>
<!-- Node26 -->
<g id="node27" class="node">
<title>Node26</title>
<g id="a_node27"><a xlink:href="Math_8inl.html" target="_top" xlink:title="Core/Math/Math.inl">
<polygon fill="#ffffff" stroke="#000000" points="148,-168.5 148,-187.5 256,-187.5 256,-168.5 148,-168.5"/>
<text text-anchor="middle" x="202" y="-175.5" font-family="Helvetica,sans-Serif" font-size="10.00" fill="#000000">Core/Math/Math.inl</text>
</a>
</g>
</g>
<!-- Node23&#45;&gt;Node26 -->
<g id="edge33" class="edge">
<title>Node23&#45;&gt;Node26</title>
<path fill="none" stroke="#191970" d="M195.25,-229.8906C193.8638,-221.3657 193.844,-208.6392 194.9886,-197.9235"/>
<polygon fill="#191970" stroke="#191970" points="198.4932,-198.1681 196.5943,-187.7449 191.5787,-197.0773 198.4932,-198.1681"/>
</g>
<!-- Node26&#45;&gt;Node23 -->
<g id="edge34" class="edge">
<title>Node26&#45;&gt;Node23</title>
<path fill="none" stroke="#191970" d="M206.7719,-187.7449C208.1436,-196.314 208.15,-209.0519 206.9932,-219.7462"/>
<polygon fill="#191970" stroke="#191970" points="203.494,-219.4641 205.375,-229.8906 210.4066,-220.5668 203.494,-219.4641"/>
</g>
<!-- Node27&#45;&gt;Node2 -->
<g id="edge40" class="edge">
<title>Node27&#45;&gt;Node2</title>
<path fill="none" stroke="#191970" d="M634.7124,-229.9581C585.5358,-219.1181 505.2576,-201.4224 452.277,-189.7439"/>
<polygon fill="#191970" stroke="#191970" points="452.9082,-186.299 442.3892,-187.5643 451.4013,-193.1349 452.9082,-186.299"/>
</g>
<!-- Node27&#45;&gt;Node11 -->
<g id="edge41" class="edge">
<title>Node27&#45;&gt;Node11</title>
<path fill="none" stroke="#191970" d="M719.8331,-229.9878C760.0998,-220.6545 822.9027,-205.6346 885.6264,-188.28"/>
<polygon fill="#191970" stroke="#191970" points="886.589,-191.6452 895.2825,-185.5893 884.7099,-184.9021 886.589,-191.6452"/>
</g>
<!-- Node27&#45;&gt;Node12 -->
<g id="edge42" class="edge">
<title>Node27&#45;&gt;Node12</title>
<path fill="none" stroke="#191970" d="M658.625,-229.8906C638.1505,-219.7359 605.6558,-203.6196 582.3115,-192.0416"/>
<polygon fill="#191970" stroke="#191970" points="583.7528,-188.8496 573.2389,-187.5419 580.6425,-195.1207 583.7528,-188.8496"/>
</g>
<!-- Node27&#45;&gt;Node14 -->
<g id="edge38" class="edge">
<title>Node27&#45;&gt;Node14</title>
<path fill="none" stroke="#191970" d="M668.8346,-229.8845C649.8835,-210.0028 606.1681,-164.1406 582.2908,-139.0908"/>
<polygon fill="#191970" stroke="#191970" points="584.7252,-136.572 575.2921,-131.7484 579.6583,-141.4017 584.7252,-136.572"/>
</g>
<!-- Node27&#45;&gt;Node15 -->
<g id="edge39" class="edge">
<title>Node27&#45;&gt;Node15</title>
<path fill="none" stroke="#191970" d="M677.018,-229.8845C675.0578,-210.6913 670.625,-167.286 668.0187,-141.7663"/>
<polygon fill="#191970" stroke="#191970" points="671.4935,-141.341 666.9956,-131.7484 664.5298,-142.0523 671.4935,-141.341"/>
</g>
<!-- Node27&#45;&gt;Node18 -->
<g id="edge37" class="edge">
<title>Node27&#45;&gt;Node18</title>
<path fill="none" stroke="#191970" d="M736.8029,-229.9581C804.875,-218.9121 916.8171,-200.7474 988.6894,-189.0847"/>
<polygon fill="#191970" stroke="#191970" points="989.6826,-192.4694 998.9928,-187.4128 988.5613,-185.5598 989.6826,-192.4694"/>
</g>
<!-- Node28 -->
<g id="node29" class="node">
<title>Node28</title>
<g id="a_node29"><a xlink:href="Component_8inl.html" target="_top" xlink:title="Engine/Component/Component.inl">
<polygon fill="#ffffff" stroke="#000000" points="694.5,-168.5 694.5,-187.5 877.5,-187.5 877.5,-168.5 694.5,-168.5"/>
<text text-anchor="middle" x="786" y="-175.5" font-family="Helvetica,sans-Serif" font-size="10.00" fill="#000000">Engine/Component/Component.inl</text>
</a>
</g>
</g>
<!-- Node27&#45;&gt;Node28 -->
<g id="edge43" class="edge">
<title>Node27&#45;&gt;Node28</title>
<path fill="none" stroke="#191970" d="M689.8125,-229.8906C705.5933,-219.7811 733.4798,-203.7628 755.2779,-192.1962"/>
<polygon fill="#191970" stroke="#191970" points="756.949,-195.2722 764.1942,-187.5419 753.7097,-189.0667 756.949,-195.2722"/>
</g>
<!-- Node28&#45;&gt;Node27 -->
<g id="edge44" class="edge">
<title>Node28&#45;&gt;Node27</title>
<path fill="none" stroke="#191970" d="M774.2928,-187.5419C758.5661,-197.6251 730.693,-213.6401 708.8678,-225.2264"/>
<polygon fill="#191970" stroke="#191970" points="707.181,-222.1587 699.9375,-229.8906 710.4217,-228.3634 707.181,-222.1587"/>
</g>
<!-- Node29&#45;&gt;Node12 -->
<g id="edge47" class="edge">
<title>Node29&#45;&gt;Node12</title>
<path fill="none" stroke="#191970" d="M452.7801,-224.4554C474.55,-214.464 502.9086,-201.4487 524.0686,-191.7372"/>
<polygon fill="#191970" stroke="#191970" points="525.6062,-194.8826 533.2348,-187.5303 522.6863,-188.5206 525.6062,-194.8826"/>
</g>
</g>
</svg>
