<?xml version="1.0" encoding="UTF-8" standalone="no"?>
<!DOCTYPE svg PUBLIC "-//W3C//DTD SVG 1.1//EN"
 "http://www.w3.org/Graphics/SVG/1.1/DTD/svg11.dtd">
<!-- Generated by graphviz version 2.40.1 (20161225.0304)
 -->
<!-- Title: src/Engine/Renderer/Camera/Camera.hpp Pages: 1 -->
<!--zoomable 442 -->
<svg id="main" version="1.1" xmlns="http://www.w3.org/2000/svg" xmlns:xlink="http://www.w3.org/1999/xlink" xml:space="preserve" onload="init(evt)">
<style type="text/css"><![CDATA[
.edge:hover path { stroke: red; }
.edge:hover polygon { stroke: red; fill: red; }
]]></style>
<script type="text/javascript"><![CDATA[
var edges = document.getElementsByTagName('g');
if (edges && edges.length) {
  for (var i=0;i<edges.length;i++) {
    if (edges[i].id.substr(0,4)=='edge') {
      edges[i].setAttribute('class','edge');
    }
  }
}
]]></script>
        <defs>
                <circle id="rim" cx="0" cy="0" r="7"/>
                <circle id="rim2" cx="0" cy="0" r="3.5"/>
                <g id="zoomPlus">
                        <use xlink:href="#rim" fill="#404040">
                                <set attributeName="fill" to="#808080" begin="zoomplus.mouseover" end="zoomplus.mouseout"/>
                        </use>
                        <path d="M-4,0h8M0,-4v8" fill="none" stroke="white" stroke-width="1.5" pointer-events="none"/>
                </g>
                <g id="zoomMin">
                        <use xlink:href="#rim" fill="#404040">
                                <set attributeName="fill" to="#808080" begin="zoomminus.mouseover" end="zoomminus.mouseout"/>
                        </use>
                        <path d="M-4,0h8" fill="none" stroke="white" stroke-width="1.5" pointer-events="none"/>
                </g>
                <g id="dirArrow">
                        <path fill="none" stroke="white" stroke-width="1.5" d="M0,-3.0v7 M-2.5,-0.5L0,-3.0L2.5,-0.5"/>
                </g>
               <g id="resetDef">
                       <use xlink:href="#rim2" fill="#404040">
                               <set attributeName="fill" to="#808080" begin="reset.mouseover" end="reset.mouseout"/>
                       </use>
               </g>
        </defs>

<script type="text/javascript">
var viewWidth = 1450;
var viewHeight = 442;
var sectionId = 'dynsection-0';
</script>
<script xlink:href="svgpan.js"/>
<svg id="graph" class="graph">
<g id="viewport">
<title>src/Engine/Renderer/Camera/Camera.hpp</title>
<polygon fill="#ffffff" stroke="transparent" points="-4,4 -4,-438 1446,-438 1446,4 -4,4"/>
<!-- Node0 -->
<g id="node1" class="node">
<title>Node0</title>
<polygon fill="#bfbfbf" stroke="#000000" points="562,-403.5 562,-433.5 682,-433.5 682,-403.5 562,-403.5"/>
<text text-anchor="start" x="570" y="-421.5" font-family="Helvetica,sans-Serif" font-size="10.00" fill="#000000">src/Engine/Renderer</text>
<text text-anchor="middle" x="622" y="-410.5" font-family="Helvetica,sans-Serif" font-size="10.00" fill="#000000">/Camera/Camera.hpp</text>
</g>
<!-- Node1 -->
<g id="node2" class="node">
<title>Node1</title>
<g id="a_node2"><a xlink:href="Math_8hpp.html" target="_top" xlink:title="Core/Math/Math.hpp">
<polygon fill="#ffffff" stroke="#000000" points="145,-342 145,-361 259,-361 259,-342 145,-342"/>
<text text-anchor="middle" x="202" y="-349" font-family="Helvetica,sans-Serif" font-size="10.00" fill="#000000">Core/Math/Math.hpp</text>
</a>
</g>
</g>
<!-- Node0&#45;&gt;Node1 -->
<g id="edge1" class="edge">
<title>Node0&#45;&gt;Node1</title>
<path fill="none" stroke="#191970" d="M561.8242,-408.9005C484.2782,-396.5301 349.8593,-375.0871 269.0939,-362.2031"/>
<polygon fill="#191970" stroke="#191970" points="269.4605,-358.7174 259.034,-360.5983 268.3578,-365.63 269.4605,-358.7174"/>
</g>
<!-- Node12 -->
<g id="node13" class="node">
<title>Node12</title>
<g id="a_node13"><a xlink:href="Types_8hpp.html" target="_top" xlink:title="Core/Types.hpp">
<polygon fill="#ffffff" stroke="#000000" points="344.5,-224.5 344.5,-243.5 435.5,-243.5 435.5,-224.5 344.5,-224.5"/>
<text text-anchor="middle" x="390" y="-231.5" font-family="Helvetica,sans-Serif" font-size="10.00" fill="#000000">Core/Types.hpp</text>
</a>
</g>
</g>
<!-- Node0&#45;&gt;Node12 -->
<g id="edge13" class="edge">
<title>Node0&#45;&gt;Node12</title>
<path fill="none" stroke="#191970" d="M561.5725,-407.9156C514.8441,-398.6188 455.1514,-383.9542 437,-367 404.6107,-336.7471 394.5271,-282.7996 391.3986,-253.7781"/>
<polygon fill="#191970" stroke="#191970" points="394.8695,-253.297 390.4845,-243.6522 387.8978,-253.9264 394.8695,-253.297"/>
</g>
<!-- Node16 -->
<g id="node17" class="node">
<title>Node16</title>
<g id="a_node17"><a xlink:href="Component_8hpp.html" target="_top" xlink:title="Engine/Component/Component.hpp">
<polygon fill="#ffffff" stroke="#000000" points="527.5,-280.5 527.5,-299.5 716.5,-299.5 716.5,-280.5 527.5,-280.5"/>
<text text-anchor="middle" x="622" y="-287.5" font-family="Helvetica,sans-Serif" font-size="10.00" fill="#000000">Engine/Component/Component.hpp</text>
</a>
</g>
</g>
<!-- Node0&#45;&gt;Node16 -->
<g id="edge18" class="edge">
<title>Node0&#45;&gt;Node16</title>
<path fill="none" stroke="#191970" d="M622,-403.2548C622,-379.9744 622,-335.5607 622,-309.8117"/>
<polygon fill="#191970" stroke="#191970" points="625.5001,-309.7358 622,-299.7358 618.5001,-309.7358 625.5001,-309.7358"/>
</g>
<!-- Node20 -->
<g id="node21" class="node">
<title>Node20</title>
<g id="a_node21"><a xlink:href="RaEngine_8hpp.html" target="_top" xlink:title="Engine/RaEngine.hpp">
<polygon fill="#ffffff" stroke="#000000" points="770.5,-224.5 770.5,-243.5 889.5,-243.5 889.5,-224.5 770.5,-224.5"/>
<text text-anchor="middle" x="830" y="-231.5" font-family="Helvetica,sans-Serif" font-size="10.00" fill="#000000">Engine/RaEngine.hpp</text>
</a>
</g>
</g>
<!-- Node0&#45;&gt;Node20 -->
<g id="edge32" class="edge">
<title>Node0&#45;&gt;Node20</title>
<path fill="none" stroke="#191970" d="M639.0215,-403.4016C677.6092,-369.1736 771.4824,-285.9063 811.4686,-250.4377"/>
<polygon fill="#191970" stroke="#191970" points="813.9855,-252.8837 819.144,-243.6295 809.3404,-247.647 813.9855,-252.8837"/>
</g>
<!-- Node23 -->
<g id="node24" class="node">
<title>Node23</title>
<g id="a_node24"><a xlink:href="ViewingParameters_8hpp.html" target="_top" xlink:title="Engine/Renderer/Camera\l/ViewingParameters.hpp">
<polygon fill="#ffffff" stroke="#000000" points="446.5,-336.5 446.5,-366.5 583.5,-366.5 583.5,-336.5 446.5,-336.5"/>
<text text-anchor="start" x="454.5" y="-354.5" font-family="Helvetica,sans-Serif" font-size="10.00" fill="#000000">Engine/Renderer/Camera</text>
<text text-anchor="middle" x="515" y="-343.5" font-family="Helvetica,sans-Serif" font-size="10.00" fill="#000000">/ViewingParameters.hpp</text>
</a>
</g>
</g>
<!-- Node0&#45;&gt;Node23 -->
<g id="edge33" class="edge">
<title>Node0&#45;&gt;Node23</title>
<path fill="none" stroke="#191970" d="M597.9871,-403.4639C583.2225,-394.2188 564.1005,-382.2452 547.9339,-372.1222"/>
<polygon fill="#191970" stroke="#191970" points="549.636,-369.0584 539.303,-366.7177 545.921,-374.9913 549.636,-369.0584"/>
</g>
<!-- Node24 -->
<g id="node25" class="node">
<title>Node24</title>
<g id="a_node25"><a xlink:href="Camera_8inl.html" target="_top" xlink:title="Engine/Renderer/Camera\l/Camera.inl">
<polygon fill="#ffffff" stroke="#000000" points="773.5,-336.5 773.5,-366.5 910.5,-366.5 910.5,-336.5 773.5,-336.5"/>
<text text-anchor="start" x="781.5" y="-354.5" font-family="Helvetica,sans-Serif" font-size="10.00" fill="#000000">Engine/Renderer/Camera</text>
<text text-anchor="middle" x="842" y="-343.5" font-family="Helvetica,sans-Serif" font-size="10.00" fill="#000000">/Camera.inl</text>
</a>
</g>
</g>
<!-- Node0&#45;&gt;Node24 -->
<g id="edge35" class="edge">
<title>Node0&#45;&gt;Node24</title>
<path fill="none" stroke="#191970" d="M665.6318,-403.4639C697.4066,-393.4131 740.8902,-380.1375 776.7636,-369.5208"/>
<polygon fill="#191970" stroke="#191970" points="778.062,-372.787 786.6638,-366.6017 776.0822,-366.0728 778.062,-372.787"/>
</g>
<!-- Node2 -->
<g id="node3" class="node">
<title>Node2</title>
<g id="a_node3"><a xlink:href="RaCore_8hpp.html" target="_top" xlink:title="Core/RaCore.hpp">
<polygon fill="#ffffff" stroke="#000000" points="514,-112.5 514,-131.5 612,-131.5 612,-112.5 514,-112.5"/>
<text text-anchor="middle" x="563" y="-119.5" font-family="Helvetica,sans-Serif" font-size="10.00" fill="#000000">Core/RaCore.hpp</text>
</a>
</g>
</g>
<!-- Node1&#45;&gt;Node2 -->
<g id="edge2" class="edge">
<title>Node1&#45;&gt;Node2</title>
<path fill="none" stroke="#191970" d="M216.9809,-341.905C230.7717,-332.505 251.1324,-317.1279 265,-300 306.527,-248.7099 280.3141,-207.7411 333,-168 359.4295,-148.0642 445.0668,-134.8961 504.041,-127.9408"/>
<polygon fill="#191970" stroke="#191970" points="504.4574,-131.4161 513.9918,-126.796 503.6573,-124.462 504.4574,-131.4161"/>
</g>
<!-- Node9 -->
<g id="node10" class="node">
<title>Node9</title>
<polygon fill="#ffffff" stroke="#bfbfbf" points="0,-280.5 0,-299.5 64,-299.5 64,-280.5 0,-280.5"/>
<text text-anchor="middle" x="32" y="-287.5" font-family="Helvetica,sans-Serif" font-size="10.00" fill="#000000">algorithm</text>
</g>
<!-- Node1&#45;&gt;Node9 -->
<g id="edge9" class="edge">
<title>Node1&#45;&gt;Node9</title>
<path fill="none" stroke="#191970" d="M175.4375,-341.8906C146.4944,-331.42 100.0306,-314.6111 67.8644,-302.9745"/>
<polygon fill="#191970" stroke="#191970" points="68.9702,-299.6526 58.376,-299.5419 66.5889,-306.2351 68.9702,-299.6526"/>
</g>
<!-- Node10 -->
<g id="node11" class="node">
<title>Node10</title>
<polygon fill="#ffffff" stroke="#bfbfbf" points="82.5,-280.5 82.5,-299.5 129.5,-299.5 129.5,-280.5 82.5,-280.5"/>
<text text-anchor="middle" x="106" y="-287.5" font-family="Helvetica,sans-Serif" font-size="10.00" fill="#000000">cmath</text>
</g>
<!-- Node1&#45;&gt;Node10 -->
<g id="edge10" class="edge">
<title>Node1&#45;&gt;Node10</title>
<path fill="none" stroke="#191970" d="M187,-341.8906C171.6419,-332.0519 147.5479,-316.6167 129.6255,-305.1351"/>
<polygon fill="#191970" stroke="#191970" points="131.203,-301.9891 120.8947,-299.5419 127.427,-307.8833 131.203,-301.9891"/>
</g>
<!-- Node11 -->
<g id="node12" class="node">
<title>Node11</title>
<g id="a_node12"><a xlink:href="Math_8inl.html" target="_top" xlink:title="Core/Math/Math.inl">
<polygon fill="#ffffff" stroke="#000000" points="148,-280.5 148,-299.5 256,-299.5 256,-280.5 148,-280.5"/>
<text text-anchor="middle" x="202" y="-287.5" font-family="Helvetica,sans-Serif" font-size="10.00" fill="#000000">Core/Math/Math.inl</text>
</a>
</g>
</g>
<!-- Node1&#45;&gt;Node11 -->
<g id="edge11" class="edge">
<title>Node1&#45;&gt;Node11</title>
<path fill="none" stroke="#191970" d="M196.9375,-341.8906C195.2741,-333.3657 194.8404,-320.6392 195.6365,-309.9235"/>
<polygon fill="#191970" stroke="#191970" points="199.1414,-310.1023 196.9112,-299.7449 192.1956,-309.2324 199.1414,-310.1023"/>
</g>
<!-- Node3 -->
<g id="node4" class="node">
<title>Node3</title>
<g id="a_node4"><a xlink:href="CoreMacros_8hpp.html" target="_top" xlink:title="Core/CoreMacros.hpp">
<polygon fill="#ffffff" stroke="#000000" points="771,-56.5 771,-75.5 891,-75.5 891,-56.5 771,-56.5"/>
<text text-anchor="middle" x="831" y="-63.5" font-family="Helvetica,sans-Serif" font-size="10.00" fill="#000000">Core/CoreMacros.hpp</text>
</a>
</g>
</g>
<!-- Node2&#45;&gt;Node3 -->
<g id="edge3" class="edge">
<title>Node2&#45;&gt;Node3</title>
<path fill="none" stroke="#191970" d="M608.7663,-112.4369C654.9215,-102.7925 726.2178,-87.8948 775.5537,-77.5858"/>
<polygon fill="#191970" stroke="#191970" points="776.3498,-80.9951 785.4224,-75.5237 774.9179,-74.1431 776.3498,-80.9951"/>
</g>
<!-- Node4 -->
<g id="node5" class="node">
<title>Node4</title>
<polygon fill="#ffffff" stroke="#bfbfbf" points="915,-.5 915,-19.5 967,-19.5 967,-.5 915,-.5"/>
<text text-anchor="middle" x="941" y="-7.5" font-family="Helvetica,sans-Serif" font-size="10.00" fill="#000000">cassert</text>
</g>
<!-- Node3&#45;&gt;Node4 -->
<g id="edge4" class="edge">
<title>Node3&#45;&gt;Node4</title>
<path fill="none" stroke="#191970" d="M850.1605,-56.2455C867.5111,-47.4125 893.2901,-34.2887 912.9583,-24.2758"/>
<polygon fill="#191970" stroke="#191970" points="914.7353,-27.2986 922.059,-19.6427 911.5595,-21.0605 914.7353,-27.2986"/>
</g>
<!-- Node5 -->
<g id="node6" class="node">
<title>Node5</title>
<polygon fill="#ffffff" stroke="#bfbfbf" points="699,-.5 699,-19.5 745,-19.5 745,-.5 699,-.5"/>
<text text-anchor="middle" x="722" y="-7.5" font-family="Helvetica,sans-Serif" font-size="10.00" fill="#000000">cstdio</text>
</g>
<!-- Node3&#45;&gt;Node5 -->
<g id="edge5" class="edge">
<title>Node3&#45;&gt;Node5</title>
<path fill="none" stroke="#191970" d="M812.0136,-56.2455C794.8208,-47.4125 769.2762,-34.2887 749.7868,-24.2758"/>
<polygon fill="#191970" stroke="#191970" points="751.263,-21.0993 740.7688,-19.6427 748.0641,-27.3257 751.263,-21.0993"/>
</g>
<!-- Node6 -->
<g id="node7" class="node">
<title>Node6</title>
<polygon fill="#ffffff" stroke="#bfbfbf" points="763,-.5 763,-19.5 823,-19.5 823,-.5 763,-.5"/>
<text text-anchor="middle" x="793" y="-7.5" font-family="Helvetica,sans-Serif" font-size="10.00" fill="#000000">iostream</text>
</g>
<!-- Node3&#45;&gt;Node6 -->
<g id="edge6" class="edge">
<title>Node3&#45;&gt;Node6</title>
<path fill="none" stroke="#191970" d="M824.3809,-56.2455C819.0954,-48.4564 811.5459,-37.3308 805.1762,-27.9439"/>
<polygon fill="#191970" stroke="#191970" points="808.0545,-25.9522 799.5432,-19.6427 802.2621,-29.8827 808.0545,-25.9522"/>
</g>
<!-- Node7 -->
<g id="node8" class="node">
<title>Node7</title>
<polygon fill="#ffffff" stroke="#bfbfbf" points="841,-.5 841,-19.5 897,-19.5 897,-.5 841,-.5"/>
<text text-anchor="middle" x="869" y="-7.5" font-family="Helvetica,sans-Serif" font-size="10.00" fill="#000000">sstream</text>
</g>
<!-- Node3&#45;&gt;Node7 -->
<g id="edge7" class="edge">
<title>Node3&#45;&gt;Node7</title>
<path fill="none" stroke="#191970" d="M837.6191,-56.2455C842.9046,-48.4564 850.4541,-37.3308 856.8238,-27.9439"/>
<polygon fill="#191970" stroke="#191970" points="859.7379,-29.8827 862.4568,-19.6427 853.9455,-25.9522 859.7379,-29.8827"/>
</g>
<!-- Node8 -->
<g id="node9" class="node">
<title>Node8</title>
<polygon fill="#ffffff" stroke="#bfbfbf" points="1133,-.5 1133,-19.5 1181,-19.5 1181,-.5 1133,-.5"/>
<text text-anchor="middle" x="1157" y="-7.5" font-family="Helvetica,sans-Serif" font-size="10.00" fill="#000000">thread</text>
</g>
<!-- Node3&#45;&gt;Node8 -->
<g id="edge8" class="edge">
<title>Node3&#45;&gt;Node8</title>
<path fill="none" stroke="#191970" d="M886.671,-56.4369C954.3251,-44.8153 1066.3859,-25.5656 1122.6023,-15.9088"/>
<polygon fill="#191970" stroke="#191970" points="1123.4857,-19.3084 1132.7488,-14.1658 1122.3006,-12.4094 1123.4857,-19.3084"/>
</g>
<!-- Node11&#45;&gt;Node1 -->
<g id="edge12" class="edge">
<title>Node11&#45;&gt;Node1</title>
<path fill="none" stroke="#191970" d="M207.0888,-299.7449C208.7392,-308.314 209.1598,-321.0519 208.3508,-331.7462"/>
<polygon fill="#191970" stroke="#191970" points="204.8503,-331.5293 207.0625,-341.8906 211.7945,-332.4113 204.8503,-331.5293"/>
</g>
<!-- Node12&#45;&gt;Node2 -->
<g id="edge14" class="edge">
<title>Node12&#45;&gt;Node2</title>
<path fill="none" stroke="#191970" d="M373.9898,-224.3991C354.2498,-211.3697 325.1434,-187.479 341,-168 361.1594,-143.2352 444.9474,-131.3838 503.6073,-126.0249"/>
<polygon fill="#191970" stroke="#191970" points="504.2245,-129.4845 513.8824,-125.1285 503.616,-122.511 504.2245,-129.4845"/>
</g>
<!-- Node13 -->
<g id="node14" class="node">
<title>Node13</title>
<polygon fill="#ffffff" stroke="#bfbfbf" points="448.5,-168.5 448.5,-187.5 517.5,-187.5 517.5,-168.5 448.5,-168.5"/>
<text text-anchor="middle" x="483" y="-175.5" font-family="Helvetica,sans-Serif" font-size="10.00" fill="#000000">Eigen/Core</text>
</g>
<!-- Node12&#45;&gt;Node13 -->
<g id="edge15" class="edge">
<title>Node12&#45;&gt;Node13</title>
<path fill="none" stroke="#191970" d="M406.1994,-224.2455C420.6018,-215.5731 441.8732,-202.7645 458.3799,-192.825"/>
<polygon fill="#191970" stroke="#191970" points="460.225,-195.7996 466.9863,-187.6427 456.614,-189.8028 460.225,-195.7996"/>
</g>
<!-- Node14 -->
<g id="node15" class="node">
<title>Node14</title>
<polygon fill="#ffffff" stroke="#bfbfbf" points="535.5,-168.5 535.5,-187.5 630.5,-187.5 630.5,-168.5 535.5,-168.5"/>
<text text-anchor="middle" x="583" y="-175.5" font-family="Helvetica,sans-Serif" font-size="10.00" fill="#000000">Eigen/Geometry</text>
</g>
<!-- Node12&#45;&gt;Node14 -->
<g id="edge16" class="edge">
<title>Node12&#45;&gt;Node14</title>
<path fill="none" stroke="#191970" d="M423.1779,-224.3733C455.5487,-214.9807 504.9398,-200.6496 540.2424,-190.4064"/>
<polygon fill="#191970" stroke="#191970" points="541.6265,-193.6492 550.2551,-187.5011 539.6758,-186.9264 541.6265,-193.6492"/>
</g>
<!-- Node15 -->
<g id="node16" class="node">
<title>Node15</title>
<polygon fill="#ffffff" stroke="#bfbfbf" points="350,-168.5 350,-187.5 430,-187.5 430,-168.5 350,-168.5"/>
<text text-anchor="middle" x="390" y="-175.5" font-family="Helvetica,sans-Serif" font-size="10.00" fill="#000000">Eigen/Sparse</text>
</g>
<!-- Node12&#45;&gt;Node15 -->
<g id="edge17" class="edge">
<title>Node12&#45;&gt;Node15</title>
<path fill="none" stroke="#191970" d="M390,-224.2455C390,-216.9382 390,-206.6944 390,-197.7046"/>
<polygon fill="#191970" stroke="#191970" points="393.5001,-197.6426 390,-187.6427 386.5001,-197.6427 393.5001,-197.6426"/>
</g>
<!-- Node16&#45;&gt;Node12 -->
<g id="edge29" class="edge">
<title>Node16&#45;&gt;Node12</title>
<path fill="none" stroke="#191970" d="M582.3814,-280.4369C542.8432,-270.8932 481.9931,-256.2052 439.3418,-245.9101"/>
<polygon fill="#191970" stroke="#191970" points="439.9973,-242.4679 429.4552,-243.5237 438.3548,-249.2724 439.9973,-242.4679"/>
</g>
<!-- Node16&#45;&gt;Node13 -->
<g id="edge24" class="edge">
<title>Node16&#45;&gt;Node13</title>
<path fill="none" stroke="#191970" d="M581.8226,-280.4979C559.5681,-273.5165 532.7056,-262.0358 514,-244 500.9283,-231.3964 492.7727,-212.1965 488.1279,-197.7489"/>
<polygon fill="#191970" stroke="#191970" points="491.3919,-196.4387 485.2371,-187.815 484.6707,-198.3947 491.3919,-196.4387"/>
</g>
<!-- Node16&#45;&gt;Node14 -->
<g id="edge25" class="edge">
<title>Node16&#45;&gt;Node14</title>
<path fill="none" stroke="#191970" d="M574.744,-280.4668C554.5882,-273.8095 532.989,-262.6342 521,-244 508.2725,-224.2179 531.6024,-205.0139 553.1885,-192.4699"/>
<polygon fill="#191970" stroke="#191970" points="555.135,-195.3943 562.2227,-187.5194 551.7711,-189.2556 555.135,-195.3943"/>
</g>
<!-- Node17 -->
<g id="node18" class="node">
<title>Node17</title>
<g id="a_node18"><a xlink:href="Index_8hpp.html" target="_top" xlink:title="Core/Utils/Index.hpp">
<polygon fill="#ffffff" stroke="#000000" points="687,-168.5 687,-187.5 803,-187.5 803,-168.5 687,-168.5"/>
<text text-anchor="middle" x="745" y="-175.5" font-family="Helvetica,sans-Serif" font-size="10.00" fill="#000000">Core/Utils/Index.hpp</text>
</a>
</g>
</g>
<!-- Node16&#45;&gt;Node17 -->
<g id="edge19" class="edge">
<title>Node16&#45;&gt;Node17</title>
<path fill="none" stroke="#191970" d="M661.1226,-280.424C682.0427,-273.4743 706.7635,-262.0489 723,-244 734.473,-231.2464 739.9872,-212.3287 742.6231,-198.0125"/>
<polygon fill="#191970" stroke="#191970" points="746.1444,-198.1342 744.1788,-187.7233 739.2231,-197.0877 746.1444,-198.1342"/>
</g>
<!-- Node16&#45;&gt;Node20 -->
<g id="edge26" class="edge">
<title>Node16&#45;&gt;Node20</title>
<path fill="none" stroke="#191970" d="M657.7565,-280.3733C692.9426,-270.9001 746.7881,-256.4032 784.8956,-246.1435"/>
<polygon fill="#191970" stroke="#191970" points="785.9639,-249.4806 794.7101,-243.5011 784.144,-242.7213 785.9639,-249.4806"/>
</g>
<!-- Node21 -->
<g id="node22" class="node">
<title>Node21</title>
<polygon fill="#ffffff" stroke="#bfbfbf" points="907.5,-224.5 907.5,-243.5 954.5,-243.5 954.5,-224.5 907.5,-224.5"/>
<text text-anchor="middle" x="931" y="-231.5" font-family="Helvetica,sans-Serif" font-size="10.00" fill="#000000">vector</text>
</g>
<!-- Node16&#45;&gt;Node21 -->
<g id="edge28" class="edge">
<title>Node16&#45;&gt;Node21</title>
<path fill="none" stroke="#191970" d="M696.6263,-280.4616C750.2907,-272.9439 824.4811,-261.2076 897.5085,-244.1285"/>
<polygon fill="#191970" stroke="#191970" points="898.4146,-247.5108 907.3358,-241.7957 896.7978,-240.7 898.4146,-247.5108"/>
</g>
<!-- Node22 -->
<g id="node23" class="node">
<title>Node22</title>
<g id="a_node23"><a xlink:href="Component_8inl.html" target="_top" xlink:title="Engine/Component/Component.inl">
<polygon fill="#ffffff" stroke="#000000" points="530.5,-224.5 530.5,-243.5 713.5,-243.5 713.5,-224.5 530.5,-224.5"/>
<text text-anchor="middle" x="622" y="-231.5" font-family="Helvetica,sans-Serif" font-size="10.00" fill="#000000">Engine/Component/Component.inl</text>
</a>
</g>
</g>
<!-- Node16&#45;&gt;Node22 -->
<g id="edge30" class="edge">
<title>Node16&#45;&gt;Node22</title>
<path fill="none" stroke="#191970" d="M616.7332,-280.2455C615.3221,-272.9382 614.9179,-262.6944 615.5205,-253.7046"/>
<polygon fill="#191970" stroke="#191970" points="619.0111,-253.9945 616.7549,-243.6427 612.0632,-253.1421 619.0111,-253.9945"/>
</g>
<!-- Node17&#45;&gt;Node2 -->
<g id="edge20" class="edge">
<title>Node17&#45;&gt;Node2</title>
<path fill="none" stroke="#191970" d="M713.7131,-168.3733C683.3182,-159.021 637.0107,-144.7725 603.75,-134.5385"/>
<polygon fill="#191970" stroke="#191970" points="604.4658,-131.0968 593.8786,-131.5011 602.4071,-137.7873 604.4658,-131.0968"/>
</g>
<!-- Node18 -->
<g id="node19" class="node">
<title>Node18</title>
<polygon fill="#ffffff" stroke="#bfbfbf" points="630,-112.5 630,-131.5 674,-131.5 674,-112.5 630,-112.5"/>
<text text-anchor="middle" x="652" y="-119.5" font-family="Helvetica,sans-Serif" font-size="10.00" fill="#000000">limits</text>
</g>
<!-- Node17&#45;&gt;Node18 -->
<g id="edge21" class="edge">
<title>Node17&#45;&gt;Node18</title>
<path fill="none" stroke="#191970" d="M728.8006,-168.2455C714.3982,-159.5731 693.1268,-146.7645 676.6201,-136.825"/>
<polygon fill="#191970" stroke="#191970" points="678.386,-133.8028 668.0137,-131.6427 674.775,-139.7996 678.386,-133.8028"/>
</g>
<!-- Node19 -->
<g id="node20" class="node">
<title>Node19</title>
<g id="a_node20"><a xlink:href="Index_8inl.html" target="_top" xlink:title="Core/Utils/Index.inl">
<polygon fill="#ffffff" stroke="#000000" points="692,-112.5 692,-131.5 802,-131.5 802,-112.5 692,-112.5"/>
<text text-anchor="middle" x="747" y="-119.5" font-family="Helvetica,sans-Serif" font-size="10.00" fill="#000000">Core/Utils/Index.inl</text>
</a>
</g>
</g>
<!-- Node17&#45;&gt;Node19 -->
<g id="edge22" class="edge">
<title>Node17&#45;&gt;Node19</title>
<path fill="none" stroke="#191970" d="M740.0815,-168.2455C738.9315,-160.9382 738.8931,-150.6944 739.8168,-141.7046"/>
<polygon fill="#191970" stroke="#191970" points="743.3029,-142.0671 741.4105,-131.6427 736.3891,-140.972 743.3029,-142.0671"/>
</g>
<!-- Node19&#45;&gt;Node17 -->
<g id="edge23" class="edge">
<title>Node19&#45;&gt;Node17</title>
<path fill="none" stroke="#191970" d="M751.9008,-131.6427C753.0622,-138.9199 753.1111,-149.155 752.1973,-158.1575"/>
<polygon fill="#191970" stroke="#191970" points="748.7069,-157.824 750.6152,-168.2455 755.6224,-158.9086 748.7069,-157.824"/>
</g>
<!-- Node20&#45;&gt;Node3 -->
<g id="edge27" class="edge">
<title>Node20&#45;&gt;Node3</title>
<path fill="none" stroke="#191970" d="M830.0566,-224.4862C830.2147,-197.9293 830.6633,-122.5651 830.88,-86.1655"/>
<polygon fill="#191970" stroke="#191970" points="834.3818,-85.8486 830.9415,-75.8279 827.3819,-85.8068 834.3818,-85.8486"/>
</g>
<!-- Node22&#45;&gt;Node16 -->
<g id="edge31" class="edge">
<title>Node22&#45;&gt;Node16</title>
<path fill="none" stroke="#191970" d="M627.2451,-243.6427C628.6665,-250.9199 629.081,-261.155 628.4887,-270.1575"/>
<polygon fill="#191970" stroke="#191970" points="624.9947,-269.8972 627.2668,-280.2455 631.9439,-270.739 624.9947,-269.8972"/>
</g>
<!-- Node23&#45;&gt;Node12 -->
<g id="edge34" class="edge">
<title>Node23&#45;&gt;Node12</title>
<path fill="none" stroke="#191970" d="M498.9143,-336.3795C475.4547,-314.3274 432.0076,-273.4871 407.6789,-250.6181"/>
<polygon fill="#191970" stroke="#191970" points="409.9012,-247.9035 400.2177,-243.6046 405.1068,-253.0039 409.9012,-247.9035"/>
</g>
<!-- Node24&#45;&gt;Node0 -->
<g id="edge48" class="edge">
<title>Node24&#45;&gt;Node0</title>
<path fill="none" stroke="#191970" d="M798.1609,-366.6017C766.3352,-376.6665 722.8428,-389.9432 687.0026,-400.5484"/>
<polygon fill="#191970" stroke="#191970" points="685.715,-397.279 677.1128,-403.4639 687.6944,-403.9933 685.715,-397.279"/>
</g>
<!-- Node25 -->
<g id="node26" class="node">
<title>Node25</title>
<g id="a_node26"><a xlink:href="Entity_8hpp.html" target="_top" xlink:title="Engine/Entity/Entity.hpp">
<polygon fill="#ffffff" stroke="#000000" points="1066,-280.5 1066,-299.5 1198,-299.5 1198,-280.5 1066,-280.5"/>
<text text-anchor="middle" x="1132" y="-287.5" font-family="Helvetica,sans-Serif" font-size="10.00" fill="#000000">Engine/Entity/Entity.hpp</text>
</a>
</g>
</g>
<!-- Node24&#45;&gt;Node25 -->
<g id="edge36" class="edge">
<title>Node24&#45;&gt;Node25</title>
<path fill="none" stroke="#191970" d="M910.726,-336.9254C961.4403,-326.1704 1029.557,-311.725 1076.7574,-301.7152"/>
<polygon fill="#191970" stroke="#191970" points="1077.7382,-305.0852 1086.7945,-299.5867 1076.2859,-298.2375 1077.7382,-305.0852"/>
</g>
<!-- Node25&#45;&gt;Node8 -->
<g id="edge40" class="edge">
<title>Node25&#45;&gt;Node8</title>
<path fill="none" stroke="#191970" d="M1181.4503,-280.4815C1220.3619,-272.0458 1270.3769,-258.796 1285,-244 1306.4569,-222.2893 1304,-208.5246 1304,-178 1304,-178 1304,-178 1304,-122 1304,-65.4452 1234.3066,-33.6726 1190.8949,-19.3674"/>
<polygon fill="#191970" stroke="#191970" points="1191.8636,-16.003 1181.2741,-16.339 1189.7618,-22.6801 1191.8636,-16.003"/>
</g>
<!-- Node25&#45;&gt;Node12 -->
<g id="edge42" class="edge">
<title>Node25&#45;&gt;Node12</title>
<path fill="none" stroke="#191970" d="M1065.9952,-285.0534C953.9459,-276.6511 719.355,-259.0375 521,-244 496.3339,-242.13 469.0564,-240.0498 445.8068,-238.273"/>
<polygon fill="#191970" stroke="#191970" points="446.0091,-234.7783 435.7714,-237.5058 445.4755,-241.7579 446.0091,-234.7783"/>
</g>
<!-- Node25&#45;&gt;Node20 -->
<g id="edge37" class="edge">
<title>Node25&#45;&gt;Node20</title>
<path fill="none" stroke="#191970" d="M1080.4275,-280.4369C1028.091,-270.7321 947.068,-255.708 891.4388,-245.3926"/>
<polygon fill="#191970" stroke="#191970" points="891.8303,-241.9056 881.3598,-243.5237 890.554,-248.7883 891.8303,-241.9056"/>
</g>
<!-- Node25&#45;&gt;Node21 -->
<g id="edge41" class="edge">
<title>Node25&#45;&gt;Node21</title>
<path fill="none" stroke="#191970" d="M1096.1994,-280.4974C1064.1961,-271.9361 1015.7818,-258.8221 964.6805,-244.1435"/>
<polygon fill="#191970" stroke="#191970" points="965.3486,-240.6936 954.7703,-241.2867 963.4096,-247.4197 965.3486,-240.6936"/>
</g>
<!-- Node26 -->
<g id="node27" class="node">
<title>Node26</title>
<polygon fill="#ffffff" stroke="#bfbfbf" points="1332,-224.5 1332,-243.5 1380,-243.5 1380,-224.5 1332,-224.5"/>
<text text-anchor="middle" x="1356" y="-231.5" font-family="Helvetica,sans-Serif" font-size="10.00" fill="#000000">mutex</text>
</g>
<!-- Node25&#45;&gt;Node26 -->
<g id="edge38" class="edge">
<title>Node25&#45;&gt;Node26</title>
<path fill="none" stroke="#191970" d="M1171.2319,-280.477C1208.9044,-271.2901 1267.3967,-256.915 1318,-244 1319.2642,-243.6774 1320.5515,-243.3471 1321.8515,-243.0122"/>
<polygon fill="#191970" stroke="#191970" points="1323.0936,-246.3057 1331.8913,-240.4021 1321.3323,-239.5309 1323.0936,-246.3057"/>
</g>
<!-- Node27 -->
<g id="node28" class="node">
<title>Node27</title>
<polygon fill="#ffffff" stroke="#bfbfbf" points="1398,-224.5 1398,-243.5 1442,-243.5 1442,-224.5 1398,-224.5"/>
<text text-anchor="middle" x="1420" y="-231.5" font-family="Helvetica,sans-Serif" font-size="10.00" fill="#000000">string</text>
</g>
<!-- Node25&#45;&gt;Node27 -->
<g id="edge39" class="edge">
<title>Node25&#45;&gt;Node27</title>
<path fill="none" stroke="#191970" d="M1198.0087,-280.6956C1247.8844,-273.0907 1318.138,-261.1569 1387.9126,-244.0253"/>
<polygon fill="#191970" stroke="#191970" points="1388.8958,-247.3874 1397.7528,-241.5733 1387.2032,-240.5951 1388.8958,-247.3874"/>
</g>
<!-- Node28 -->
<g id="node29" class="node">
<title>Node28</title>
<g id="a_node29"><a xlink:href="IndexedObject_8hpp.html" target="_top" xlink:title="Core/Utils/IndexedObject.hpp">
<polygon fill="#ffffff" stroke="#000000" points="972.5,-224.5 972.5,-243.5 1131.5,-243.5 1131.5,-224.5 972.5,-224.5"/>
<text text-anchor="middle" x="1052" y="-231.5" font-family="Helvetica,sans-Serif" font-size="10.00" fill="#000000">Core/Utils/IndexedObject.hpp</text>
</a>
</g>
</g>
<!-- Node25&#45;&gt;Node28 -->
<g id="edge43" class="edge">
<title>Node25&#45;&gt;Node28</title>
<path fill="none" stroke="#191970" d="M1118.0651,-280.2455C1105.9053,-271.7337 1088.0536,-259.2375 1073.9715,-249.3801"/>
<polygon fill="#191970" stroke="#191970" points="1075.9747,-246.51 1065.7752,-243.6427 1071.9605,-252.2447 1075.9747,-246.51"/>
</g>
<!-- Node29 -->
<g id="node30" class="node">
<title>Node29</title>
<g id="a_node30"><a xlink:href="Entity_8inl.html" target="_top" xlink:title="Engine/Entity/Entity.inl">
<polygon fill="#ffffff" stroke="#000000" points="1150,-224.5 1150,-243.5 1276,-243.5 1276,-224.5 1150,-224.5"/>
<text text-anchor="middle" x="1213" y="-231.5" font-family="Helvetica,sans-Serif" font-size="10.00" fill="#000000">Engine/Entity/Entity.inl</text>
</a>
</g>
</g>
<!-- Node25&#45;&gt;Node29 -->
<g id="edge46" class="edge">
<title>Node25&#45;&gt;Node29</title>
<path fill="none" stroke="#191970" d="M1140.8423,-280.2455C1151.611,-271.6534 1169.6442,-259.0014 1185.088,-249.1018"/>
<polygon fill="#191970" stroke="#191970" points="1187.1889,-251.9159 1193.8074,-243.6427 1183.4742,-245.9828 1187.1889,-251.9159"/>
</g>
<!-- Node28&#45;&gt;Node2 -->
<g id="edge44" class="edge">
<title>Node28&#45;&gt;Node2</title>
<path fill="none" stroke="#191970" d="M972.2804,-224.5932C864.5254,-211.8216 684.9337,-190.3108 678,-188 668.5001,-184.8339 618.787,-155.4814 587.9142,-137.0022"/>
<polygon fill="#191970" stroke="#191970" points="589.3793,-133.7997 579.0033,-131.6575 585.7787,-139.8027 589.3793,-133.7997"/>
</g>
<!-- Node28&#45;&gt;Node17 -->
<g id="edge45" class="edge">
<title>Node28&#45;&gt;Node17</title>
<path fill="none" stroke="#191970" d="M999.5736,-224.4369C946.2603,-214.712 863.6643,-199.6456 807.1044,-189.3285"/>
<polygon fill="#191970" stroke="#191970" points="807.6759,-185.8751 797.2101,-187.5237 806.4197,-192.7614 807.6759,-185.8751"/>
</g>
<!-- Node29&#45;&gt;Node25 -->
<g id="edge47" class="edge">
<title>Node29&#45;&gt;Node25</title>
<path fill="none" stroke="#191970" d="M1204.2977,-243.6427C1193.5923,-252.1994 1175.5796,-264.8456 1160.1134,-274.769"/>
<polygon fill="#191970" stroke="#191970" points="1157.9903,-271.969 1151.376,-280.2455 1161.708,-277.9002 1157.9903,-271.969"/>
</g>
</g>
</svg>
        <g id="navigator" transform="translate(0 0)" fill="#404254">
                <rect fill="#f2f5e9" fill-opacity="0.5" stroke="#606060" stroke-width=".5" x="0" y="0" width="60" height="60"/>
                <use id="zoomplus" xlink:href="#zoomPlus" x="17" y="9" onmousedown="handleZoom(evt,'in')"/>
                <use id="zoomminus" xlink:href="#zoomMin" x="42" y="9" onmousedown="handleZoom(evt,'out')"/>
                <use id="reset" xlink:href="#resetDef" x="30" y="36" onmousedown="handleReset()"/>
                <g id="arrowUp" xlink:href="#dirArrow" transform="translate(30 24)" onmousedown="handlePan(0,-1)">
                  <use xlink:href="#rim" fill="#404040">
                        <set attributeName="fill" to="#808080" begin="arrowUp.mouseover" end="arrowUp.mouseout"/>
                  </use>
                  <path fill="none" stroke="white" stroke-width="1.5" d="M0,-3.0v7 M-2.5,-0.5L0,-3.0L2.5,-0.5"/>
                </g>
                <g id="arrowRight" xlink:href="#dirArrow" transform="rotate(90) translate(36 -43)" onmousedown="handlePan(1,0)">
                  <use xlink:href="#rim" fill="#404040">
                        <set attributeName="fill" to="#808080" begin="arrowRight.mouseover" end="arrowRight.mouseout"/>
                  </use>
                  <path fill="none" stroke="white" stroke-width="1.5" d="M0,-3.0v7 M-2.5,-0.5L0,-3.0L2.5,-0.5"/>
                </g>
                <g id="arrowDown" xlink:href="#dirArrow" transform="rotate(180) translate(-30 -48)" onmousedown="handlePan(0,1)">
                  <use xlink:href="#rim" fill="#404040">
                        <set attributeName="fill" to="#808080" begin="arrowDown.mouseover" end="arrowDown.mouseout"/>
                  </use>
                  <path fill="none" stroke="white" stroke-width="1.5" d="M0,-3.0v7 M-2.5,-0.5L0,-3.0L2.5,-0.5"/>
                </g>
                <g id="arrowLeft" xlink:href="#dirArrow" transform="rotate(270) translate(-36 17)" onmousedown="handlePan(-1,0)">
                  <use xlink:href="#rim" fill="#404040">
                        <set attributeName="fill" to="#808080" begin="arrowLeft.mouseover" end="arrowLeft.mouseout"/>
                  </use>
                  <path fill="none" stroke="white" stroke-width="1.5" d="M0,-3.0v7 M-2.5,-0.5L0,-3.0L2.5,-0.5"/>
                </g>
        </g>
        <svg viewBox="0 0 15 15" width="100%" height="30px" preserveAspectRatio="xMaxYMin meet">
         <g id="arrow_out" transform="scale(0.3 0.3)">
          <a xlink:href="Camera_8hpp__incl_org.svg" target="_base">
           <rect id="button" ry="5" rx="5" y="6" x="6" height="38" width="38"
                fill="#f2f5e9" fill-opacity="0.5" stroke="#606060" stroke-width="1.0"/>
           <path id="arrow"
             d="M 11.500037,31.436501 C 11.940474,20.09759 22.043105,11.32322 32.158766,21.979434 L 37.068811,17.246167 C 37.068811,17.246167 37.088388,32 37.088388,32 L 22.160133,31.978069 C 22.160133,31.978069 26.997745,27.140456 26.997745,27.140456 C 18.528582,18.264221 13.291696,25.230495 11.500037,31.436501 z"
             style="fill:#404040;"/>
          </a>
         </g>
        </svg>
</svg>
