<?xml version="1.0" encoding="UTF-8" standalone="no"?>
<!DOCTYPE svg PUBLIC "-//W3C//DTD SVG 1.1//EN"
 "http://www.w3.org/Graphics/SVG/1.1/DTD/svg11.dtd">
<!-- Generated by graphviz version 2.40.1 (20161225.0304)
 -->
<!-- Title: Ra::Core::Animation::AnimationTime::intersect Pages: 1 -->
<svg width="330pt" height="88pt"
 viewBox="0.00 0.00 330.00 88.00" xmlns="http://www.w3.org/2000/svg" xmlns:xlink="http://www.w3.org/1999/xlink">
<g id="graph0" class="graph" transform="scale(1 1) rotate(0) translate(4 84)">
<title>Ra::Core::Animation::AnimationTime::intersect</title>
<polygon fill="#ffffff" stroke="transparent" points="-4,4 -4,-84 326,-84 326,4 -4,4"/>
<!-- Node7 -->
<g id="node1" class="node">
<title>Node7</title>
<polygon fill="#bfbfbf" stroke="#000000" points="0,-24.5 0,-54.5 146,-54.5 146,-24.5 0,-24.5"/>
<text text-anchor="start" x="8" y="-42.5" font-family="Helvetica,sans-Serif" font-size="10.00" fill="#000000">Ra::Core::Animation</text>
<text text-anchor="middle" x="73" y="-31.5" font-family="Helvetica,sans-Serif" font-size="10.00" fill="#000000">::AnimationTime::intersect</text>
</g>
<!-- Node8 -->
<g id="node2" class="node">
<title>Node8</title>
<g id="a_node2"><a xlink:href="classRa_1_1Core_1_1Animation_1_1AnimationTime.html#a4b0f8b3323c6a3157201808ee5412548" target="_top" xlink:title="Ra::Core::Animation\l::AnimationTime::isValid">
<polygon fill="#ffffff" stroke="#000000" points="184,-49.5 184,-79.5 320,-79.5 320,-49.5 184,-49.5"/>
<text text-anchor="start" x="192" y="-67.5" font-family="Helvetica,sans-Serif" font-size="10.00" fill="#000000">Ra::Core::Animation</text>
<text text-anchor="middle" x="252" y="-56.5" font-family="Helvetica,sans-Serif" font-size="10.00" fill="#000000">::AnimationTime::isValid</text>
</a>
</g>
</g>
<!-- Node7&#45;&gt;Node8 -->
<g id="edge1" class="edge">
<title>Node7&#45;&gt;Node8</title>
<path fill="none" stroke="#191970" d="M146.0643,-49.7045C155.2224,-50.9836 164.6182,-52.2958 173.8502,-53.5852"/>
<polygon fill="#191970" stroke="#191970" points="173.3967,-57.0558 183.7847,-54.9727 174.365,-50.1231 173.3967,-57.0558"/>
</g>
<!-- Node9 -->
<g id="node3" class="node">
<title>Node9</title>
<g id="a_node3"><a xlink:href="classRa_1_1Core_1_1Animation_1_1AnimationTime.html#a9d7a4ded2a8dababc92a0ca5d01ebb93" target="_top" xlink:title="QUERY. ">
<polygon fill="#ffffff" stroke="#000000" points="182,-.5 182,-30.5 322,-30.5 322,-.5 182,-.5"/>
<text text-anchor="start" x="190" y="-18.5" font-family="Helvetica,sans-Serif" font-size="10.00" fill="#000000">Ra::Core::Animation</text>
<text text-anchor="middle" x="252" y="-7.5" font-family="Helvetica,sans-Serif" font-size="10.00" fill="#000000">::AnimationTime::contain</text>
</a>
</g>
</g>
<!-- Node7&#45;&gt;Node9 -->
<g id="edge2" class="edge">
<title>Node7&#45;&gt;Node9</title>
<path fill="none" stroke="#191970" d="M146.0643,-29.7037C154.5411,-28.5671 163.2217,-27.4032 171.7875,-26.2548"/>
<polygon fill="#191970" stroke="#191970" points="172.3251,-29.7141 181.7712,-24.9161 171.3948,-22.7762 172.3251,-29.7141"/>
</g>
</g>
</svg>
