<?xml version="1.0" encoding="UTF-8" standalone="no"?>
<!DOCTYPE svg PUBLIC "-//W3C//DTD SVG 1.1//EN"
 "http://www.w3.org/Graphics/SVG/1.1/DTD/svg11.dtd">
<!-- Generated by graphviz version 2.40.1 (20161225.0304)
 -->
<!-- Title: Ra::Engine::IndexedAttribArrayDisplayable&lt; I &gt; Pages: 1 -->
<!--zoomable 922 -->
<svg id="main" version="1.1" xmlns="http://www.w3.org/2000/svg" xmlns:xlink="http://www.w3.org/1999/xlink" xml:space="preserve" onload="init(evt)">
<style type="text/css"><![CDATA[
.edge:hover path { stroke: red; }
.edge:hover polygon { stroke: red; fill: red; }
]]></style>
<script type="text/javascript"><![CDATA[
var edges = document.getElementsByTagName('g');
if (edges && edges.length) {
  for (var i=0;i<edges.length;i++) {
    if (edges[i].id.substr(0,4)=='edge') {
      edges[i].setAttribute('class','edge');
    }
  }
}
]]></script>
        <defs>
                <circle id="rim" cx="0" cy="0" r="7"/>
                <circle id="rim2" cx="0" cy="0" r="3.5"/>
                <g id="zoomPlus">
                        <use xlink:href="#rim" fill="#404040">
                                <set attributeName="fill" to="#808080" begin="zoomplus.mouseover" end="zoomplus.mouseout"/>
                        </use>
                        <path d="M-4,0h8M0,-4v8" fill="none" stroke="white" stroke-width="1.5" pointer-events="none"/>
                </g>
                <g id="zoomMin">
                        <use xlink:href="#rim" fill="#404040">
                                <set attributeName="fill" to="#808080" begin="zoomminus.mouseover" end="zoomminus.mouseout"/>
                        </use>
                        <path d="M-4,0h8" fill="none" stroke="white" stroke-width="1.5" pointer-events="none"/>
                </g>
                <g id="dirArrow">
                        <path fill="none" stroke="white" stroke-width="1.5" d="M0,-3.0v7 M-2.5,-0.5L0,-3.0L2.5,-0.5"/>
                </g>
               <g id="resetDef">
                       <use xlink:href="#rim2" fill="#404040">
                               <set attributeName="fill" to="#808080" begin="reset.mouseover" end="reset.mouseout"/>
                       </use>
               </g>
        </defs>

<script type="text/javascript">
var viewWidth = 1209;
var viewHeight = 922;
var sectionId = 'dynsection-1';
</script>
<script xlink:href="svgpan.js"/>
<svg id="graph" class="graph">
<g id="viewport">
<title>Ra::Engine::IndexedAttribArrayDisplayable&lt; I &gt;</title>
<polygon fill="#ffffff" stroke="transparent" points="-4,4 -4,-918 1205,-918 1205,4 -4,4"/>
<!-- Node4 -->
<g id="node1" class="node">
<title>Node4</title>
<polygon fill="#bfbfbf" stroke="#000000" points="725,-.5 725,-68.5 865,-68.5 865,-.5 725,-.5"/>
<text text-anchor="start" x="733" y="-56.5" font-family="Helvetica,sans-Serif" font-size="10.00" fill="#000000">Ra::Engine::IndexedAttrib</text>
<text text-anchor="middle" x="795" y="-45.5" font-family="Helvetica,sans-Serif" font-size="10.00" fill="#000000">ArrayDisplayable&lt; I &gt;</text>
<polyline fill="none" stroke="#000000" points="725,-38.5 865,-38.5 "/>
<text text-anchor="middle" x="795" y="-26.5" font-family="Helvetica,sans-Serif" font-size="10.00" fill="#000000"> </text>
<polyline fill="none" stroke="#000000" points="725,-19.5 865,-19.5 "/>
<text text-anchor="middle" x="795" y="-7.5" font-family="Helvetica,sans-Serif" font-size="10.00" fill="#000000"> </text>
</g>
<!-- Node5 -->
<g id="node2" class="node">
<title>Node5</title>
<g id="a_node2"><a xlink:href="classRa_1_1Engine_1_1AttribArrayDisplayable.html" target="_top" xlink:title="{Ra::Engine::AttribArrayDisplayable\n||+ AttribArrayDisplayable()\l+ AttribArrayDisplayable()\l+ operator=()\l+ ~AttribArrayDisplayable()\l+ setRenderMode()\l+ getRenderMode()\l+ updateGL()\l+ setDirty()\l+ setDirty()\l+ setDirty()\l+ getAttribName()\l# updatePickingRenderMode()\l* setDirty()\l* setDirty()\l* setDirty()\l* getAttribName()\l}">
<polygon fill="#ffffff" stroke="#000000" points="380.5,-106.5 380.5,-328.5 565.5,-328.5 565.5,-106.5 380.5,-106.5"/>
<text text-anchor="middle" x="473" y="-316.5" font-family="Helvetica,sans-Serif" font-size="10.00" fill="#000000">Ra::Engine::AttribArrayDisplayable</text>
<polyline fill="none" stroke="#000000" points="380.5,-309.5 565.5,-309.5 "/>
<text text-anchor="middle" x="473" y="-297.5" font-family="Helvetica,sans-Serif" font-size="10.00" fill="#000000"> </text>
<polyline fill="none" stroke="#000000" points="380.5,-290.5 565.5,-290.5 "/>
<text text-anchor="start" x="388.5" y="-278.5" font-family="Helvetica,sans-Serif" font-size="10.00" fill="#000000">+ AttribArrayDisplayable()</text>
<text text-anchor="start" x="388.5" y="-267.5" font-family="Helvetica,sans-Serif" font-size="10.00" fill="#000000">+ AttribArrayDisplayable()</text>
<text text-anchor="start" x="388.5" y="-256.5" font-family="Helvetica,sans-Serif" font-size="10.00" fill="#000000">+ operator=()</text>
<text text-anchor="start" x="388.5" y="-245.5" font-family="Helvetica,sans-Serif" font-size="10.00" fill="#000000">+ ~AttribArrayDisplayable()</text>
<text text-anchor="start" x="388.5" y="-234.5" font-family="Helvetica,sans-Serif" font-size="10.00" fill="#000000">+ setRenderMode()</text>
<text text-anchor="start" x="388.5" y="-223.5" font-family="Helvetica,sans-Serif" font-size="10.00" fill="#000000">+ getRenderMode()</text>
<text text-anchor="start" x="388.5" y="-212.5" font-family="Helvetica,sans-Serif" font-size="10.00" fill="#000000">+ updateGL()</text>
<text text-anchor="start" x="388.5" y="-201.5" font-family="Helvetica,sans-Serif" font-size="10.00" fill="#000000">+ setDirty()</text>
<text text-anchor="start" x="388.5" y="-190.5" font-family="Helvetica,sans-Serif" font-size="10.00" fill="#000000">+ setDirty()</text>
<text text-anchor="start" x="388.5" y="-179.5" font-family="Helvetica,sans-Serif" font-size="10.00" fill="#000000">+ setDirty()</text>
<text text-anchor="start" x="388.5" y="-168.5" font-family="Helvetica,sans-Serif" font-size="10.00" fill="#000000">+ getAttribName()</text>
<text text-anchor="start" x="388.5" y="-157.5" font-family="Helvetica,sans-Serif" font-size="10.00" fill="#000000"># updatePickingRenderMode()</text>
<text text-anchor="start" x="388.5" y="-146.5" font-family="Helvetica,sans-Serif" font-size="10.00" fill="#000000">* setDirty()</text>
<text text-anchor="start" x="388.5" y="-135.5" font-family="Helvetica,sans-Serif" font-size="10.00" fill="#000000">* setDirty()</text>
<text text-anchor="start" x="388.5" y="-124.5" font-family="Helvetica,sans-Serif" font-size="10.00" fill="#000000">* setDirty()</text>
<text text-anchor="start" x="388.5" y="-113.5" font-family="Helvetica,sans-Serif" font-size="10.00" fill="#000000">* getAttribName()</text>
</a>
</g>
</g>
<!-- Node5&#45;&gt;Node4 -->
<g id="edge1" class="edge">
<title>Node5&#45;&gt;Node4</title>
<path fill="none" stroke="#191970" d="M574.4177,-159.862C627.1759,-129.8783 689.872,-94.2467 734.9129,-68.6489"/>
<polygon fill="none" stroke="#191970" points="572.6684,-156.8303 565.7037,-164.8143 576.1272,-162.9162 572.6684,-156.8303"/>
</g>
<!-- Node6 -->
<g id="node3" class="node">
<title>Node6</title>
<g id="a_node3"><a xlink:href="classRa_1_1Engine_1_1Displayable.html" target="_top" xlink:title="{Ra::Engine::Displayable\n||+ Displayable()\l+ Displayable()\l+ operator=()\l+ ~Displayable()\l+ pickingRenderMode()\l+ getName()\l+ getAbstractGeometry()\l+ getAbstractGeometry()\l+ updateGL()\l+ render()\l+ getNumFaces()\l+ getNumVertices()\l}">
<polygon fill="#ffffff" stroke="#000000" points="350,-376.5 350,-554.5 490,-554.5 490,-376.5 350,-376.5"/>
<text text-anchor="middle" x="420" y="-542.5" font-family="Helvetica,sans-Serif" font-size="10.00" fill="#000000">Ra::Engine::Displayable</text>
<polyline fill="none" stroke="#000000" points="350,-535.5 490,-535.5 "/>
<text text-anchor="middle" x="420" y="-523.5" font-family="Helvetica,sans-Serif" font-size="10.00" fill="#000000"> </text>
<polyline fill="none" stroke="#000000" points="350,-516.5 490,-516.5 "/>
<text text-anchor="start" x="358" y="-504.5" font-family="Helvetica,sans-Serif" font-size="10.00" fill="#000000">+ Displayable()</text>
<text text-anchor="start" x="358" y="-493.5" font-family="Helvetica,sans-Serif" font-size="10.00" fill="#000000">+ Displayable()</text>
<text text-anchor="start" x="358" y="-482.5" font-family="Helvetica,sans-Serif" font-size="10.00" fill="#000000">+ operator=()</text>
<text text-anchor="start" x="358" y="-471.5" font-family="Helvetica,sans-Serif" font-size="10.00" fill="#000000">+ ~Displayable()</text>
<text text-anchor="start" x="358" y="-460.5" font-family="Helvetica,sans-Serif" font-size="10.00" fill="#000000">+ pickingRenderMode()</text>
<text text-anchor="start" x="358" y="-449.5" font-family="Helvetica,sans-Serif" font-size="10.00" fill="#000000">+ getName()</text>
<text text-anchor="start" x="358" y="-438.5" font-family="Helvetica,sans-Serif" font-size="10.00" fill="#000000">+ getAbstractGeometry()</text>
<text text-anchor="start" x="358" y="-427.5" font-family="Helvetica,sans-Serif" font-size="10.00" fill="#000000">+ getAbstractGeometry()</text>
<text text-anchor="start" x="358" y="-416.5" font-family="Helvetica,sans-Serif" font-size="10.00" fill="#000000">+ updateGL()</text>
<text text-anchor="start" x="358" y="-405.5" font-family="Helvetica,sans-Serif" font-size="10.00" fill="#000000">+ render()</text>
<text text-anchor="start" x="358" y="-394.5" font-family="Helvetica,sans-Serif" font-size="10.00" fill="#000000">+ getNumFaces()</text>
<text text-anchor="start" x="358" y="-383.5" font-family="Helvetica,sans-Serif" font-size="10.00" fill="#000000">+ getNumVertices()</text>
</a>
</g>
</g>
<!-- Node6&#45;&gt;Node5 -->
<g id="edge2" class="edge">
<title>Node6&#45;&gt;Node5</title>
<path fill="none" stroke="#191970" d="M441.1641,-366.4682C443.8109,-354.0828 446.5319,-341.3508 449.2153,-328.7944"/>
<polygon fill="none" stroke="#191970" points="437.7266,-365.806 439.0593,-376.3167 444.572,-367.269 437.7266,-365.806"/>
</g>
<!-- Node7 -->
<g id="node4" class="node">
<title>Node7</title>
<polygon fill="#ffffff" stroke="#bfbfbf" points="386,-619 386,-676 498,-676 498,-619 386,-619"/>
<text text-anchor="middle" x="442" y="-664" font-family="Helvetica,sans-Serif" font-size="10.00" fill="#000000">PickingRenderMode</text>
<polyline fill="none" stroke="#bfbfbf" points="386,-657 498,-657 "/>
<text text-anchor="middle" x="442" y="-645" font-family="Helvetica,sans-Serif" font-size="10.00" fill="#000000"> </text>
<polyline fill="none" stroke="#bfbfbf" points="386,-638 498,-638 "/>
<text text-anchor="middle" x="442" y="-626" font-family="Helvetica,sans-Serif" font-size="10.00" fill="#000000"> </text>
</g>
<!-- Node7&#45;&gt;Node6 -->
<g id="edge3" class="edge">
<title>Node7&#45;&gt;Node6</title>
<path fill="none" stroke="#404040" d="M408.2952,-618.9243C402.0545,-611.8076 396.429,-603.6994 393,-595 389.4767,-586.0612 387.826,-576.5855 387.53,-566.9871"/>
<polygon fill="none" stroke="#404040" points="387.5349,-566.7908 383.6891,-560.6908 387.8406,-554.7947 391.6865,-560.8946 387.5349,-566.7908"/>
<text text-anchor="middle" x="454" y="-581.5" font-family="Helvetica,sans-Serif" font-size="10.00" fill="#000000"> #m_pickingRenderMode</text>
</g>
<!-- Node8 -->
<g id="node5" class="node">
<title>Node8</title>
<polygon fill="#ffffff" stroke="#bfbfbf" points="0,-437 0,-494 102,-494 102,-437 0,-437"/>
<text text-anchor="middle" x="51" y="-482" font-family="Helvetica,sans-Serif" font-size="10.00" fill="#000000">MeshRenderMode</text>
<polyline fill="none" stroke="#bfbfbf" points="0,-475 102,-475 "/>
<text text-anchor="middle" x="51" y="-463" font-family="Helvetica,sans-Serif" font-size="10.00" fill="#000000"> </text>
<polyline fill="none" stroke="#bfbfbf" points="0,-456 102,-456 "/>
<text text-anchor="middle" x="51" y="-444" font-family="Helvetica,sans-Serif" font-size="10.00" fill="#000000"> </text>
</g>
<!-- Node8&#45;&gt;Node5 -->
<g id="edge4" class="edge">
<title>Node8&#45;&gt;Node5</title>
<path fill="none" stroke="#404040" d="M42.503,-436.9111C36.622,-410.8634 32.884,-372.6528 52,-347 90.0244,-295.9729 256.555,-256.5581 368.4259,-235.2245"/>
<polygon fill="none" stroke="#404040" points="368.6353,-235.1852 373.7916,-230.1441 380.4282,-232.9648 375.2719,-238.0059 368.6353,-235.1852"/>
<text text-anchor="middle" x="94.5" y="-350" font-family="Helvetica,sans-Serif" font-size="10.00" fill="#000000"> #m_renderMode</text>
</g>
<!-- Node9 -->
<g id="node6" class="node">
<title>Node9</title>
<polygon fill="#ffffff" stroke="#bfbfbf" points="222.5,-613.5 222.5,-681.5 367.5,-681.5 367.5,-613.5 222.5,-613.5"/>
<text text-anchor="start" x="230.5" y="-669.5" font-family="Helvetica,sans-Serif" font-size="10.00" fill="#000000">std::unique_ptr&lt; globjects</text>
<text text-anchor="middle" x="295" y="-658.5" font-family="Helvetica,sans-Serif" font-size="10.00" fill="#000000">::VertexArray &gt;</text>
<polyline fill="none" stroke="#bfbfbf" points="222.5,-651.5 367.5,-651.5 "/>
<text text-anchor="middle" x="295" y="-639.5" font-family="Helvetica,sans-Serif" font-size="10.00" fill="#000000"> </text>
<polyline fill="none" stroke="#bfbfbf" points="222.5,-632.5 367.5,-632.5 "/>
<text text-anchor="start" x="230.5" y="-620.5" font-family="Helvetica,sans-Serif" font-size="10.00" fill="#000000">+ operator&#45;&gt;()</text>
</g>
<!-- Node9&#45;&gt;Node5 -->
<g id="edge5" class="edge">
<title>Node9&#45;&gt;Node5</title>
<path fill="none" stroke="#404040" d="M286.6695,-613.4926C275.4165,-560.1873 260.5667,-454.9031 296,-376 312.1628,-340.0085 340.9566,-308.7857 370.6865,-283.7924"/>
<polygon fill="none" stroke="#404040" points="371.061,-283.4867 373.1796,-276.5939 380.3571,-275.8984 378.2385,-282.7913 371.061,-283.4867"/>
<text text-anchor="middle" x="318.5" y="-463" font-family="Helvetica,sans-Serif" font-size="10.00" fill="#000000"> #m_vao</text>
</g>
<!-- Node10 -->
<g id="node7" class="node">
<title>Node10</title>
<polygon fill="#ffffff" stroke="#bfbfbf" points="324,-740.5 324,-797.5 398,-797.5 398,-740.5 324,-740.5"/>
<text text-anchor="middle" x="361" y="-785.5" font-family="Helvetica,sans-Serif" font-size="10.00" fill="#000000">VertexArray</text>
<polyline fill="none" stroke="#bfbfbf" points="324,-778.5 398,-778.5 "/>
<text text-anchor="middle" x="361" y="-766.5" font-family="Helvetica,sans-Serif" font-size="10.00" fill="#000000"> </text>
<polyline fill="none" stroke="#bfbfbf" points="324,-759.5 398,-759.5 "/>
<text text-anchor="middle" x="361" y="-747.5" font-family="Helvetica,sans-Serif" font-size="10.00" fill="#000000"> </text>
</g>
<!-- Node10&#45;&gt;Node9 -->
<g id="edge6" class="edge">
<title>Node10&#45;&gt;Node9</title>
<path fill="none" stroke="#404040" d="M354.5814,-740.4535C351.0293,-727.614 345.9108,-712.5576 339,-700 337.4411,-697.1674 335.7171,-694.3443 333.8806,-691.5606"/>
<polygon fill="none" stroke="#404040" points="333.8136,-691.467 327.0695,-688.9141 326.8321,-681.7069 333.5762,-684.2598 333.8136,-691.467"/>
<text text-anchor="middle" x="361.5" y="-708.5" font-family="Helvetica,sans-Serif" font-size="10.00" fill="#000000"> +ptr</text>
</g>
<!-- Node11 -->
<g id="node8" class="node">
<title>Node11</title>
<g id="a_node8"><a xlink:title="STL class. ">
<polygon fill="#ffffff" stroke="#bfbfbf" points="577,-740.5 577,-797.5 695,-797.5 695,-740.5 577,-740.5"/>
<text text-anchor="middle" x="636" y="-785.5" font-family="Helvetica,sans-Serif" font-size="10.00" fill="#000000">std::unique_ptr&lt; T &gt;</text>
<polyline fill="none" stroke="#bfbfbf" points="577,-778.5 695,-778.5 "/>
<text text-anchor="middle" x="636" y="-766.5" font-family="Helvetica,sans-Serif" font-size="10.00" fill="#000000"> </text>
<polyline fill="none" stroke="#bfbfbf" points="577,-759.5 695,-759.5 "/>
<text text-anchor="start" x="585" y="-747.5" font-family="Helvetica,sans-Serif" font-size="10.00" fill="#000000">+ operator&#45;&gt;()</text>
</a>
</g>
</g>
<!-- Node11&#45;&gt;Node9 -->
<g id="edge7" class="edge">
<title>Node11&#45;&gt;Node9</title>
<path fill="none" stroke="#ffa500" d="M567.2538,-741.5225C565.8252,-741.0058 564.4061,-740.4977 563,-740 481.3705,-711.1056 458.3349,-711.7136 377,-682 373.9535,-680.887 370.8551,-679.7245 367.7337,-678.5281"/>
<polygon fill="#ffa500" stroke="#ffa500" points="566.1867,-744.8594 576.78,-745.0388 568.6107,-738.2925 566.1867,-744.8594"/>
<text text-anchor="middle" x="573" y="-708.5" font-family="Helvetica,sans-Serif" font-size="10.00" fill="#000000"> &lt; globjects::VertexArray &gt;</text>
</g>
<!-- Node21 -->
<g id="node18" class="node">
<title>Node21</title>
<polygon fill="#ffffff" stroke="#bfbfbf" points="1004.5,-613.5 1004.5,-681.5 1149.5,-681.5 1149.5,-613.5 1004.5,-613.5"/>
<text text-anchor="start" x="1012.5" y="-669.5" font-family="Helvetica,sans-Serif" font-size="10.00" fill="#000000">std::unique_ptr&lt; globjects</text>
<text text-anchor="middle" x="1077" y="-658.5" font-family="Helvetica,sans-Serif" font-size="10.00" fill="#000000">::Buffer &gt;</text>
<polyline fill="none" stroke="#bfbfbf" points="1004.5,-651.5 1149.5,-651.5 "/>
<text text-anchor="middle" x="1077" y="-639.5" font-family="Helvetica,sans-Serif" font-size="10.00" fill="#000000"> </text>
<polyline fill="none" stroke="#bfbfbf" points="1004.5,-632.5 1149.5,-632.5 "/>
<text text-anchor="start" x="1012.5" y="-620.5" font-family="Helvetica,sans-Serif" font-size="10.00" fill="#000000">+ operator&#45;&gt;()</text>
</g>
<!-- Node11&#45;&gt;Node21 -->
<g id="edge20" class="edge">
<title>Node11&#45;&gt;Node21</title>
<path fill="none" stroke="#ffa500" d="M705.0071,-755.113C777.1307,-739.8978 893.1997,-713.4275 991,-682 995.2884,-680.6219 999.6676,-679.1326 1004.0663,-677.5728"/>
<polygon fill="#ffa500" stroke="#ffa500" points="704.1971,-751.7066 695.1283,-757.1845 705.6338,-758.5576 704.1971,-751.7066"/>
<text text-anchor="middle" x="978" y="-708.5" font-family="Helvetica,sans-Serif" font-size="10.00" fill="#000000"> &lt; globjects::Buffer &gt;</text>
</g>
<!-- Node12 -->
<g id="node9" class="node">
<title>Node12</title>
<polygon fill="#ffffff" stroke="#bfbfbf" points="486.5,-851 486.5,-908 515.5,-908 515.5,-851 486.5,-851"/>
<text text-anchor="middle" x="501" y="-896" font-family="Helvetica,sans-Serif" font-size="10.00" fill="#000000">T</text>
<polyline fill="none" stroke="#bfbfbf" points="486.5,-889 515.5,-889 "/>
<text text-anchor="middle" x="501" y="-877" font-family="Helvetica,sans-Serif" font-size="10.00" fill="#000000"> </text>
<polyline fill="none" stroke="#bfbfbf" points="486.5,-870 515.5,-870 "/>
<text text-anchor="middle" x="501" y="-858" font-family="Helvetica,sans-Serif" font-size="10.00" fill="#000000"> </text>
</g>
<!-- Node12&#45;&gt;Node11 -->
<g id="edge8" class="edge">
<title>Node12&#45;&gt;Node11</title>
<path fill="none" stroke="#404040" d="M515.7044,-867.4642C533.7808,-852.6683 565.2875,-826.8795 591.5226,-805.4056"/>
<polygon fill="none" stroke="#404040" points="591.6291,-805.3184 593.7385,-798.4227 600.9151,-797.7177 598.8057,-804.6134 591.6291,-805.3184"/>
<text text-anchor="middle" x="589.5" y="-819" font-family="Helvetica,sans-Serif" font-size="10.00" fill="#000000"> +ptr</text>
</g>
<!-- Node17 -->
<g id="node14" class="node">
<title>Node17</title>
<g id="a_node14"><a xlink:title="STL class. ">
<polygon fill="#ffffff" stroke="#bfbfbf" points="190.5,-740.5 190.5,-797.5 291.5,-797.5 291.5,-740.5 190.5,-740.5"/>
<text text-anchor="middle" x="241" y="-785.5" font-family="Helvetica,sans-Serif" font-size="10.00" fill="#000000">std::map&lt; K, T &gt;</text>
<polyline fill="none" stroke="#bfbfbf" points="190.5,-778.5 291.5,-778.5 "/>
<text text-anchor="middle" x="241" y="-766.5" font-family="Helvetica,sans-Serif" font-size="10.00" fill="#000000"> </text>
<polyline fill="none" stroke="#bfbfbf" points="190.5,-759.5 291.5,-759.5 "/>
<text text-anchor="middle" x="241" y="-747.5" font-family="Helvetica,sans-Serif" font-size="10.00" fill="#000000"> </text>
</a>
</g>
</g>
<!-- Node12&#45;&gt;Node17 -->
<g id="edge15" class="edge">
<title>Node12&#45;&gt;Node17</title>
<path fill="none" stroke="#404040" d="M486.2763,-873.2424C451.7111,-858.5522 363.7209,-821.1564 303.106,-795.3951"/>
<polygon fill="none" stroke="#404040" points="302.793,-795.2621 295.7064,-796.5965 291.749,-790.5683 298.8356,-789.2339 302.793,-795.2621"/>
<text text-anchor="middle" x="400" y="-819" font-family="Helvetica,sans-Serif" font-size="10.00" fill="#000000"> +elements</text>
</g>
<!-- Node23 -->
<g id="node20" class="node">
<title>Node23</title>
<g id="a_node20"><a xlink:title="STL class. ">
<polygon fill="#ffffff" stroke="#bfbfbf" points="606.5,-619 606.5,-676 703.5,-676 703.5,-619 606.5,-619"/>
<text text-anchor="middle" x="655" y="-664" font-family="Helvetica,sans-Serif" font-size="10.00" fill="#000000">std::vector&lt; T &gt;</text>
<polyline fill="none" stroke="#bfbfbf" points="606.5,-657 703.5,-657 "/>
<text text-anchor="middle" x="655" y="-645" font-family="Helvetica,sans-Serif" font-size="10.00" fill="#000000"> </text>
<polyline fill="none" stroke="#bfbfbf" points="606.5,-638 703.5,-638 "/>
<text text-anchor="middle" x="655" y="-626" font-family="Helvetica,sans-Serif" font-size="10.00" fill="#000000"> </text>
</a>
</g>
</g>
<!-- Node12&#45;&gt;Node23 -->
<g id="edge22" class="edge">
<title>Node12&#45;&gt;Node23</title>
<path fill="none" stroke="#404040" d="M493.5941,-850.7793C485.3376,-811.4323 477.6078,-740.9897 515,-700 540.1463,-672.4344 562.2992,-695.7131 597,-682 597.681,-681.7309 598.3633,-681.4543 599.0465,-681.1709"/>
<polygon fill="none" stroke="#404040" points="599.2205,-681.0906 602.9897,-674.9429 610.1141,-676.0578 606.3449,-682.2054 599.2205,-681.0906"/>
<text text-anchor="middle" x="522" y="-766.5" font-family="Helvetica,sans-Serif" font-size="10.00" fill="#000000"> +elements</text>
</g>
<!-- Node13 -->
<g id="node10" class="node">
<title>Node13</title>
<polygon fill="#ffffff" stroke="#bfbfbf" points="82,-613.5 82,-681.5 204,-681.5 204,-613.5 82,-613.5"/>
<text text-anchor="start" x="90" y="-669.5" font-family="Helvetica,sans-Serif" font-size="10.00" fill="#000000">std::map&lt; std::string,</text>
<text text-anchor="middle" x="143" y="-658.5" font-family="Helvetica,sans-Serif" font-size="10.00" fill="#000000"> unsigned int &gt;</text>
<polyline fill="none" stroke="#bfbfbf" points="82,-651.5 204,-651.5 "/>
<text text-anchor="middle" x="143" y="-639.5" font-family="Helvetica,sans-Serif" font-size="10.00" fill="#000000"> </text>
<polyline fill="none" stroke="#bfbfbf" points="82,-632.5 204,-632.5 "/>
<text text-anchor="middle" x="143" y="-620.5" font-family="Helvetica,sans-Serif" font-size="10.00" fill="#000000"> </text>
</g>
<!-- Node13&#45;&gt;Node5 -->
<g id="edge9" class="edge">
<title>Node13&#45;&gt;Node5</title>
<path fill="none" stroke="#404040" d="M136.7612,-613.1909C128.6958,-558.0681 120.9563,-448.6213 170,-376 215.9347,-307.9823 300.6257,-267.2035 368.8158,-244.0804"/>
<polygon fill="none" stroke="#404040" points="369.0757,-243.9949 373.5241,-238.3194 380.474,-240.2427 376.0256,-245.9182 369.0757,-243.9949"/>
<text text-anchor="middle" x="220" y="-463" font-family="Helvetica,sans-Serif" font-size="10.00" fill="#000000"> #m_handleToBuffer</text>
</g>
<!-- Node14 -->
<g id="node11" class="node">
<title>Node14</title>
<g id="a_node11"><a xlink:href="classint.html" target="_top" xlink:title="{int\n||}">
<polygon fill="#ffffff" stroke="#000000" points="128.5,-740.5 128.5,-797.5 157.5,-797.5 157.5,-740.5 128.5,-740.5"/>
<text text-anchor="middle" x="143" y="-785.5" font-family="Helvetica,sans-Serif" font-size="10.00" fill="#000000">int</text>
<polyline fill="none" stroke="#000000" points="128.5,-778.5 157.5,-778.5 "/>
<text text-anchor="middle" x="143" y="-766.5" font-family="Helvetica,sans-Serif" font-size="10.00" fill="#000000"> </text>
<polyline fill="none" stroke="#000000" points="128.5,-759.5 157.5,-759.5 "/>
<text text-anchor="middle" x="143" y="-747.5" font-family="Helvetica,sans-Serif" font-size="10.00" fill="#000000"> </text>
</a>
</g>
</g>
<!-- Node14&#45;&gt;Node13 -->
<g id="edge10" class="edge">
<title>Node14&#45;&gt;Node13</title>
<path fill="none" stroke="#404040" d="M143,-740.2062C143,-726.3632 143,-709.4255 143,-693.8327"/>
<polygon fill="none" stroke="#404040" points="143.0001,-693.7007 139,-687.7008 143,-681.7007 147,-687.7007 143.0001,-693.7007"/>
<text text-anchor="middle" x="172" y="-708.5" font-family="Helvetica,sans-Serif" font-size="10.00" fill="#000000"> +elements</text>
</g>
<!-- Node15 -->
<g id="node12" class="node">
<title>Node15</title>
<g id="a_node12"><a xlink:title="STL class. ">
<polygon fill="#ffffff" stroke="#bfbfbf" points="45.5,-740.5 45.5,-797.5 110.5,-797.5 110.5,-740.5 45.5,-740.5"/>
<text text-anchor="middle" x="78" y="-785.5" font-family="Helvetica,sans-Serif" font-size="10.00" fill="#000000">std::string</text>
<polyline fill="none" stroke="#bfbfbf" points="45.5,-778.5 110.5,-778.5 "/>
<text text-anchor="middle" x="78" y="-766.5" font-family="Helvetica,sans-Serif" font-size="10.00" fill="#000000"> </text>
<polyline fill="none" stroke="#bfbfbf" points="45.5,-759.5 110.5,-759.5 "/>
<text text-anchor="middle" x="78" y="-747.5" font-family="Helvetica,sans-Serif" font-size="10.00" fill="#000000"> </text>
</a>
</g>
</g>
<!-- Node15&#45;&gt;Node13 -->
<g id="edge11" class="edge">
<title>Node15&#45;&gt;Node13</title>
<path fill="none" stroke="#404040" d="M86.7871,-740.349C91.1915,-727.6291 97.0695,-712.6973 104,-700 105.4756,-697.2966 107.0763,-694.5767 108.7591,-691.8742"/>
<polygon fill="none" stroke="#404040" points="108.9345,-691.6095 108.916,-684.3984 115.5653,-681.6078 115.5838,-688.8189 108.9345,-691.6095"/>
<text text-anchor="middle" x="121.5" y="-708.5" font-family="Helvetica,sans-Serif" font-size="10.00" fill="#000000"> +keys</text>
</g>
<!-- Node16 -->
<g id="node13" class="node">
<title>Node16</title>
<g id="a_node13"><a xlink:title="STL class. ">
<polygon fill="#ffffff" stroke="#bfbfbf" points="26,-845.5 26,-913.5 130,-913.5 130,-845.5 26,-845.5"/>
<text text-anchor="start" x="34" y="-901.5" font-family="Helvetica,sans-Serif" font-size="10.00" fill="#000000">std::basic_string&lt;</text>
<text text-anchor="middle" x="78" y="-890.5" font-family="Helvetica,sans-Serif" font-size="10.00" fill="#000000"> char &gt;</text>
<polyline fill="none" stroke="#bfbfbf" points="26,-883.5 130,-883.5 "/>
<text text-anchor="middle" x="78" y="-871.5" font-family="Helvetica,sans-Serif" font-size="10.00" fill="#000000"> </text>
<polyline fill="none" stroke="#bfbfbf" points="26,-864.5 130,-864.5 "/>
<text text-anchor="middle" x="78" y="-852.5" font-family="Helvetica,sans-Serif" font-size="10.00" fill="#000000"> </text>
</a>
</g>
</g>
<!-- Node16&#45;&gt;Node15 -->
<g id="edge12" class="edge">
<title>Node16&#45;&gt;Node15</title>
<path fill="none" stroke="#191970" d="M78,-835.0661C78,-822.4172 78,-808.9812 78,-797.5519"/>
<polygon fill="none" stroke="#191970" points="74.5001,-835.4447 78,-845.4447 81.5001,-835.4447 74.5001,-835.4447"/>
</g>
<!-- Node17&#45;&gt;Node13 -->
<g id="edge13" class="edge">
<title>Node17&#45;&gt;Node13</title>
<path fill="none" stroke="#ffa500" d="M222.6721,-731.3674C216.74,-720.7596 209.6867,-709.5242 202,-700 196.9194,-693.7049 191.0468,-687.5228 185.0171,-681.7361"/>
<polygon fill="#ffa500" stroke="#ffa500" points="219.7547,-733.3312 227.5842,-740.469 225.9148,-730.0065 219.7547,-733.3312"/>
<text text-anchor="start" x="217" y="-714" font-family="Helvetica,sans-Serif" font-size="10.00" fill="#000000"> &lt; std::string, unsigned</text>
<text text-anchor="middle" x="274" y="-703" font-family="Helvetica,sans-Serif" font-size="10.00" fill="#000000"> int &gt;</text>
</g>
<!-- Node18 -->
<g id="node15" class="node">
<title>Node18</title>
<polygon fill="#ffffff" stroke="#bfbfbf" points="226.5,-851 226.5,-908 255.5,-908 255.5,-851 226.5,-851"/>
<text text-anchor="middle" x="241" y="-896" font-family="Helvetica,sans-Serif" font-size="10.00" fill="#000000">K</text>
<polyline fill="none" stroke="#bfbfbf" points="226.5,-889 255.5,-889 "/>
<text text-anchor="middle" x="241" y="-877" font-family="Helvetica,sans-Serif" font-size="10.00" fill="#000000"> </text>
<polyline fill="none" stroke="#bfbfbf" points="226.5,-870 255.5,-870 "/>
<text text-anchor="middle" x="241" y="-858" font-family="Helvetica,sans-Serif" font-size="10.00" fill="#000000"> </text>
</g>
<!-- Node18&#45;&gt;Node17 -->
<g id="edge14" class="edge">
<title>Node18&#45;&gt;Node17</title>
<path fill="none" stroke="#404040" d="M241,-850.7559C241,-838.2224 241,-823.3039 241,-809.6631"/>
<polygon fill="none" stroke="#404040" points="241.0001,-809.6002 237,-803.6002 241,-797.6002 245,-803.6002 241.0001,-809.6002"/>
<text text-anchor="middle" x="258.5" y="-819" font-family="Helvetica,sans-Serif" font-size="10.00" fill="#000000"> +keys</text>
</g>
<!-- Node19 -->
<g id="node16" class="node">
<title>Node19</title>
<g id="a_node16"><a xlink:href="classbool.html" target="_top" xlink:title="{bool\n||}">
<polygon fill="#ffffff" stroke="#000000" points="550,-619 550,-676 588,-676 588,-619 550,-619"/>
<text text-anchor="middle" x="569" y="-664" font-family="Helvetica,sans-Serif" font-size="10.00" fill="#000000">bool</text>
<polyline fill="none" stroke="#000000" points="550,-657 588,-657 "/>
<text text-anchor="middle" x="569" y="-645" font-family="Helvetica,sans-Serif" font-size="10.00" fill="#000000"> </text>
<polyline fill="none" stroke="#000000" points="550,-638 588,-638 "/>
<text text-anchor="middle" x="569" y="-626" font-family="Helvetica,sans-Serif" font-size="10.00" fill="#000000"> </text>
</a>
</g>
</g>
<!-- Node19&#45;&gt;Node5 -->
<g id="edge16" class="edge">
<title>Node19&#45;&gt;Node5</title>
<path fill="none" stroke="#404040" d="M556.99,-618.7505C549.8111,-600.6967 540.9578,-576.7846 535,-555 524.1438,-515.3045 506.9477,-420.1568 493.4165,-340.971"/>
<polygon fill="none" stroke="#404040" points="493.3775,-340.7416 488.427,-335.4983 491.363,-328.9119 496.3135,-334.1552 493.3775,-340.7416"/>
<text text-anchor="middle" x="564.5" y="-463" font-family="Helvetica,sans-Serif" font-size="10.00" fill="#000000"> #m_isDirty</text>
</g>
<!-- Node24 -->
<g id="node21" class="node">
<title>Node24</title>
<polygon fill="#ffffff" stroke="#bfbfbf" points="603,-437 603,-494 715,-494 715,-437 603,-437"/>
<text text-anchor="middle" x="659" y="-482" font-family="Helvetica,sans-Serif" font-size="10.00" fill="#000000">std::vector&lt; bool &gt;</text>
<polyline fill="none" stroke="#bfbfbf" points="603,-475 715,-475 "/>
<text text-anchor="middle" x="659" y="-463" font-family="Helvetica,sans-Serif" font-size="10.00" fill="#000000"> </text>
<polyline fill="none" stroke="#bfbfbf" points="603,-456 715,-456 "/>
<text text-anchor="middle" x="659" y="-444" font-family="Helvetica,sans-Serif" font-size="10.00" fill="#000000"> </text>
</g>
<!-- Node19&#45;&gt;Node24 -->
<g id="edge24" class="edge">
<title>Node19&#45;&gt;Node24</title>
<path fill="none" stroke="#404040" d="M575.9617,-618.917C579.8681,-604.7809 585.3085,-587.6527 592,-573 602.9186,-549.0913 618.246,-524.0754 631.4856,-504.1976"/>
<polygon fill="none" stroke="#404040" points="631.6538,-503.9492 631.7072,-496.7383 638.384,-494.0142 638.3306,-501.2251 631.6538,-503.9492"/>
<text text-anchor="middle" x="621" y="-581.5" font-family="Helvetica,sans-Serif" font-size="10.00" fill="#000000"> +elements</text>
</g>
<!-- Node25 -->
<g id="node22" class="node">
<title>Node25</title>
<g id="a_node22"><a xlink:href="classRa_1_1Engine_1_1VaoIndices.html" target="_top" xlink:title="Concept class to ensure consistent naming of VaoIndices accross derived classes. ">
<polygon fill="#ffffff" stroke="#000000" points="900.5,-437 900.5,-494 1027.5,-494 1027.5,-437 900.5,-437"/>
<text text-anchor="middle" x="964" y="-482" font-family="Helvetica,sans-Serif" font-size="10.00" fill="#000000">Ra::Engine::VaoIndices</text>
<polyline fill="none" stroke="#000000" points="900.5,-475 1027.5,-475 "/>
<text text-anchor="middle" x="964" y="-463" font-family="Helvetica,sans-Serif" font-size="10.00" fill="#000000"> </text>
<polyline fill="none" stroke="#000000" points="900.5,-456 1027.5,-456 "/>
<text text-anchor="start" x="908.5" y="-444" font-family="Helvetica,sans-Serif" font-size="10.00" fill="#000000">+ setIndicesDirty()</text>
</a>
</g>
</g>
<!-- Node19&#45;&gt;Node25 -->
<g id="edge29" class="edge">
<title>Node19&#45;&gt;Node25</title>
<path fill="none" stroke="#404040" d="M588.2696,-619.2698C590.9409,-616.8189 593.8579,-614.6487 597,-613 642.7896,-588.9732 779.9998,-611.5213 829,-595 875.931,-579.1763 914.8535,-536.2523 938.6554,-504.1295"/>
<polygon fill="none" stroke="#404040" points="938.8402,-503.8724 939.0933,-496.6658 945.843,-494.1277 945.5899,-501.3343 938.8402,-503.8724"/>
<text text-anchor="middle" x="912.5" y="-581.5" font-family="Helvetica,sans-Serif" font-size="10.00" fill="#000000"> #m_indicesDirty</text>
</g>
<!-- Node20 -->
<g id="node17" class="node">
<title>Node20</title>
<polygon fill="#ffffff" stroke="#bfbfbf" points="733.5,-431.5 733.5,-499.5 882.5,-499.5 882.5,-431.5 733.5,-431.5"/>
<text text-anchor="start" x="741.5" y="-487.5" font-family="Helvetica,sans-Serif" font-size="10.00" fill="#000000">std::vector&lt; std::unique</text>
<text text-anchor="middle" x="808" y="-476.5" font-family="Helvetica,sans-Serif" font-size="10.00" fill="#000000">_ptr&lt; globjects::Buffer &gt; &gt;</text>
<polyline fill="none" stroke="#bfbfbf" points="733.5,-469.5 882.5,-469.5 "/>
<text text-anchor="middle" x="808" y="-457.5" font-family="Helvetica,sans-Serif" font-size="10.00" fill="#000000"> </text>
<polyline fill="none" stroke="#bfbfbf" points="733.5,-450.5 882.5,-450.5 "/>
<text text-anchor="middle" x="808" y="-438.5" font-family="Helvetica,sans-Serif" font-size="10.00" fill="#000000"> </text>
</g>
<!-- Node20&#45;&gt;Node5 -->
<g id="edge17" class="edge">
<title>Node20&#45;&gt;Node5</title>
<path fill="none" stroke="#404040" d="M779.5278,-431.2109C764.0653,-413.6544 744.0481,-392.552 724,-376 678.3689,-338.3264 623.1795,-302.5633 576.1845,-274.5751"/>
<polygon fill="none" stroke="#404040" points="576.0006,-274.4665 568.8001,-274.8572 565.67,-268.3608 572.8705,-267.9701 576.0006,-274.4665"/>
<text text-anchor="middle" x="724" y="-350" font-family="Helvetica,sans-Serif" font-size="10.00" fill="#000000"> #m_vbos</text>
</g>
<!-- Node21&#45;&gt;Node20 -->
<g id="edge18" class="edge">
<title>Node21&#45;&gt;Node20</title>
<path fill="none" stroke="#404040" d="M1075.0884,-613.2669C1072.4462,-598.7153 1066.7936,-582.863 1055,-573 1026.8756,-549.4795 923.7509,-571.4796 891,-555 870.2702,-544.5691 852.0877,-526.6852 838.0666,-509.6332"/>
<polygon fill="none" stroke="#404040" points="837.7172,-509.1885 830.8652,-506.9413 830.3041,-499.752 837.1562,-501.9992 837.7172,-509.1885"/>
<text text-anchor="middle" x="1100" y="-581.5" font-family="Helvetica,sans-Serif" font-size="10.00" fill="#000000"> +elements</text>
</g>
<!-- Node21&#45;&gt;Node25 -->
<g id="edge27" class="edge">
<title>Node21&#45;&gt;Node25</title>
<path fill="none" stroke="#404040" d="M1125.9855,-613.1814C1137.1664,-601.0836 1143.7581,-586.9976 1136,-573 1115.1154,-535.3189 1074.9088,-509.1015 1038.6183,-491.9968"/>
<polygon fill="none" stroke="#404040" points="1038.4435,-491.9179 1031.3289,-493.0936 1027.5072,-486.9784 1034.6219,-485.8027 1038.4435,-491.9179"/>
<text text-anchor="middle" x="1170.5" y="-581.5" font-family="Helvetica,sans-Serif" font-size="10.00" fill="#000000"> #m_indices</text>
</g>
<!-- Node22 -->
<g id="node19" class="node">
<title>Node22</title>
<polygon fill="#ffffff" stroke="#bfbfbf" points="1054,-740.5 1054,-797.5 1100,-797.5 1100,-740.5 1054,-740.5"/>
<text text-anchor="middle" x="1077" y="-785.5" font-family="Helvetica,sans-Serif" font-size="10.00" fill="#000000">Buffer</text>
<polyline fill="none" stroke="#bfbfbf" points="1054,-778.5 1100,-778.5 "/>
<text text-anchor="middle" x="1077" y="-766.5" font-family="Helvetica,sans-Serif" font-size="10.00" fill="#000000"> </text>
<polyline fill="none" stroke="#bfbfbf" points="1054,-759.5 1100,-759.5 "/>
<text text-anchor="middle" x="1077" y="-747.5" font-family="Helvetica,sans-Serif" font-size="10.00" fill="#000000"> </text>
</g>
<!-- Node22&#45;&gt;Node21 -->
<g id="edge19" class="edge">
<title>Node22&#45;&gt;Node21</title>
<path fill="none" stroke="#404040" d="M1077,-740.2062C1077,-726.3632 1077,-709.4255 1077,-693.8327"/>
<polygon fill="none" stroke="#404040" points="1077.0001,-693.7007 1073,-687.7008 1077,-681.7007 1081,-687.7007 1077.0001,-693.7007"/>
<text text-anchor="middle" x="1089.5" y="-708.5" font-family="Helvetica,sans-Serif" font-size="10.00" fill="#000000"> +ptr</text>
</g>
<!-- Node23&#45;&gt;Node20 -->
<g id="edge21" class="edge">
<title>Node23&#45;&gt;Node20</title>
<path fill="none" stroke="#ffa500" d="M687.1985,-611.0256C691.8541,-605.6725 696.5678,-600.2088 701,-595 728.3104,-562.9046 758.8809,-525.7823 780.3299,-499.5337"/>
<polygon fill="#ffa500" stroke="#ffa500" points="684.398,-608.9116 680.4586,-618.7469 689.6715,-613.5149 684.398,-608.9116"/>
<text text-anchor="start" x="719" y="-587" font-family="Helvetica,sans-Serif" font-size="10.00" fill="#000000"> &lt; std::unique_ptr&lt;</text>
<text text-anchor="middle" x="772" y="-576" font-family="Helvetica,sans-Serif" font-size="10.00" fill="#000000"> globjects::Buffer &gt; &gt;</text>
</g>
<!-- Node23&#45;&gt;Node24 -->
<g id="edge25" class="edge">
<title>Node23&#45;&gt;Node24</title>
<path fill="none" stroke="#ffa500" d="M654.18,-608.8354C654.1058,-604.1739 654.0427,-599.4796 654,-595 653.9069,-585.2227 653.7728,-582.7751 654,-573 654.6208,-546.29 656.1082,-515.8772 657.3003,-494.2325"/>
<polygon fill="#ffa500" stroke="#ffa500" points="650.6814,-608.9547 654.3563,-618.8917 657.6803,-608.8319 650.6814,-608.9547"/>
<text text-anchor="middle" x="677.5" y="-581.5" font-family="Helvetica,sans-Serif" font-size="10.00" fill="#000000"> &lt; bool &gt;</text>
</g>
<!-- Node24&#45;&gt;Node5 -->
<g id="edge23" class="edge">
<title>Node24&#45;&gt;Node5</title>
<path fill="none" stroke="#404040" d="M637.2994,-436.5659C618.87,-411.9933 591.1049,-374.9732 563.6176,-338.3234"/>
<polygon fill="none" stroke="#404040" points="563.4622,-338.1162 556.6621,-335.7162 556.2621,-328.5161 563.0621,-330.9161 563.4622,-338.1162"/>
<text text-anchor="middle" x="614.5" y="-350" font-family="Helvetica,sans-Serif" font-size="10.00" fill="#000000"> #m_dataDirty</text>
</g>
<!-- Node25&#45;&gt;Node4 -->
<g id="edge26" class="edge">
<title>Node25&#45;&gt;Node4</title>
<path fill="none" stroke="#191970" d="M949.0324,-427.3282C916.4451,-344.2209 839.5078,-148.0079 808.3999,-68.6738"/>
<polygon fill="none" stroke="#191970" points="945.8715,-428.8549 952.7806,-436.8871 952.3884,-426.2995 945.8715,-428.8549"/>
</g>
<!-- Node26 -->
<g id="node23" class="node">
<title>Node26</title>
<polygon fill="#ffffff" stroke="#bfbfbf" points="937.5,-619 937.5,-676 982.5,-676 982.5,-619 937.5,-619"/>
<text text-anchor="middle" x="960" y="-664" font-family="Helvetica,sans-Serif" font-size="10.00" fill="#000000">size_t</text>
<polyline fill="none" stroke="#bfbfbf" points="937.5,-657 982.5,-657 "/>
<text text-anchor="middle" x="960" y="-645" font-family="Helvetica,sans-Serif" font-size="10.00" fill="#000000"> </text>
<polyline fill="none" stroke="#bfbfbf" points="937.5,-638 982.5,-638 "/>
<text text-anchor="middle" x="960" y="-626" font-family="Helvetica,sans-Serif" font-size="10.00" fill="#000000"> </text>
</g>
<!-- Node26&#45;&gt;Node25 -->
<g id="edge28" class="edge">
<title>Node26&#45;&gt;Node25</title>
<path fill="none" stroke="#404040" d="M960.2878,-618.8426C960.4516,-604.9926 960.6873,-588.1309 961,-573 961.4546,-550.9991 962.1265,-526.4698 962.7193,-506.4039"/>
<polygon fill="none" stroke="#404040" points="962.7242,-506.237 958.9064,-500.1195 963.0849,-494.2424 966.9027,-500.3599 962.7242,-506.237"/>
<text text-anchor="middle" x="1008" y="-581.5" font-family="Helvetica,sans-Serif" font-size="10.00" fill="#000000"> #m_numElements</text>
</g>
</g>
</svg>
        <g id="navigator" transform="translate(0 0)" fill="#404254">
                <rect fill="#f2f5e9" fill-opacity="0.5" stroke="#606060" stroke-width=".5" x="0" y="0" width="60" height="60"/>
                <use id="zoomplus" xlink:href="#zoomPlus" x="17" y="9" onmousedown="handleZoom(evt,'in')"/>
                <use id="zoomminus" xlink:href="#zoomMin" x="42" y="9" onmousedown="handleZoom(evt,'out')"/>
                <use id="reset" xlink:href="#resetDef" x="30" y="36" onmousedown="handleReset()"/>
                <g id="arrowUp" xlink:href="#dirArrow" transform="translate(30 24)" onmousedown="handlePan(0,-1)">
                  <use xlink:href="#rim" fill="#404040">
                        <set attributeName="fill" to="#808080" begin="arrowUp.mouseover" end="arrowUp.mouseout"/>
                  </use>
                  <path fill="none" stroke="white" stroke-width="1.5" d="M0,-3.0v7 M-2.5,-0.5L0,-3.0L2.5,-0.5"/>
                </g>
                <g id="arrowRight" xlink:href="#dirArrow" transform="rotate(90) translate(36 -43)" onmousedown="handlePan(1,0)">
                  <use xlink:href="#rim" fill="#404040">
                        <set attributeName="fill" to="#808080" begin="arrowRight.mouseover" end="arrowRight.mouseout"/>
                  </use>
                  <path fill="none" stroke="white" stroke-width="1.5" d="M0,-3.0v7 M-2.5,-0.5L0,-3.0L2.5,-0.5"/>
                </g>
                <g id="arrowDown" xlink:href="#dirArrow" transform="rotate(180) translate(-30 -48)" onmousedown="handlePan(0,1)">
                  <use xlink:href="#rim" fill="#404040">
                        <set attributeName="fill" to="#808080" begin="arrowDown.mouseover" end="arrowDown.mouseout"/>
                  </use>
                  <path fill="none" stroke="white" stroke-width="1.5" d="M0,-3.0v7 M-2.5,-0.5L0,-3.0L2.5,-0.5"/>
                </g>
                <g id="arrowLeft" xlink:href="#dirArrow" transform="rotate(270) translate(-36 17)" onmousedown="handlePan(-1,0)">
                  <use xlink:href="#rim" fill="#404040">
                        <set attributeName="fill" to="#808080" begin="arrowLeft.mouseover" end="arrowLeft.mouseout"/>
                  </use>
                  <path fill="none" stroke="white" stroke-width="1.5" d="M0,-3.0v7 M-2.5,-0.5L0,-3.0L2.5,-0.5"/>
                </g>
        </g>
        <svg viewBox="0 0 15 15" width="100%" height="30px" preserveAspectRatio="xMaxYMin meet">
         <g id="arrow_out" transform="scale(0.3 0.3)">
          <a xlink:href="classRa_1_1Engine_1_1IndexedAttribArrayDisplayable__coll__graph_org.svg" target="_base">
           <rect id="button" ry="5" rx="5" y="6" x="6" height="38" width="38"
                fill="#f2f5e9" fill-opacity="0.5" stroke="#606060" stroke-width="1.0"/>
           <path id="arrow"
             d="M 11.500037,31.436501 C 11.940474,20.09759 22.043105,11.32322 32.158766,21.979434 L 37.068811,17.246167 C 37.068811,17.246167 37.088388,32 37.088388,32 L 22.160133,31.978069 C 22.160133,31.978069 26.997745,27.140456 26.997745,27.140456 C 18.528582,18.264221 13.291696,25.230495 11.500037,31.436501 z"
             style="fill:#404040;"/>
          </a>
         </g>
        </svg>
</svg>
