<?xml version="1.0" encoding="UTF-8" standalone="no"?>
<!DOCTYPE svg PUBLIC "-//W3C//DTD SVG 1.1//EN"
 "http://www.w3.org/Graphics/SVG/1.1/DTD/svg11.dtd">
<!-- Generated by graphviz version 2.40.1 (20161225.0304)
 -->
<!-- Title: Ra::IO::AssimpAnimationDataLoader::loadData Pages: 1 -->
<!--zoomable 617 -->
<svg id="main" version="1.1" xmlns="http://www.w3.org/2000/svg" xmlns:xlink="http://www.w3.org/1999/xlink" xml:space="preserve" onload="init(evt)">
<style type="text/css"><![CDATA[
.edge:hover path { stroke: red; }
.edge:hover polygon { stroke: red; fill: red; }
]]></style>
<script type="text/javascript"><![CDATA[
var edges = document.getElementsByTagName('g');
if (edges && edges.length) {
  for (var i=0;i<edges.length;i++) {
    if (edges[i].id.substr(0,4)=='edge') {
      edges[i].setAttribute('class','edge');
    }
  }
}
]]></script>
        <defs>
                <circle id="rim" cx="0" cy="0" r="7"/>
                <circle id="rim2" cx="0" cy="0" r="3.5"/>
                <g id="zoomPlus">
                        <use xlink:href="#rim" fill="#404040">
                                <set attributeName="fill" to="#808080" begin="zoomplus.mouseover" end="zoomplus.mouseout"/>
                        </use>
                        <path d="M-4,0h8M0,-4v8" fill="none" stroke="white" stroke-width="1.5" pointer-events="none"/>
                </g>
                <g id="zoomMin">
                        <use xlink:href="#rim" fill="#404040">
                                <set attributeName="fill" to="#808080" begin="zoomminus.mouseover" end="zoomminus.mouseout"/>
                        </use>
                        <path d="M-4,0h8" fill="none" stroke="white" stroke-width="1.5" pointer-events="none"/>
                </g>
                <g id="dirArrow">
                        <path fill="none" stroke="white" stroke-width="1.5" d="M0,-3.0v7 M-2.5,-0.5L0,-3.0L2.5,-0.5"/>
                </g>
               <g id="resetDef">
                       <use xlink:href="#rim2" fill="#404040">
                               <set attributeName="fill" to="#808080" begin="reset.mouseover" end="reset.mouseout"/>
                       </use>
               </g>
        </defs>

<script type="text/javascript">
var viewWidth = 967;
var viewHeight = 617;
var sectionId = 'dynsection-8';
</script>
<script xlink:href="svgpan.js"/>
<svg id="graph" class="graph">
<g id="viewport">
<title>Ra::IO::AssimpAnimationDataLoader::loadData</title>
<polygon fill="#ffffff" stroke="transparent" points="-4,4 -4,-613 963,-613 963,4 -4,4"/>
<!-- Node52 -->
<g id="node1" class="node">
<title>Node52</title>
<polygon fill="#bfbfbf" stroke="#000000" points="0,-464.5 0,-494.5 161,-494.5 161,-464.5 0,-464.5"/>
<text text-anchor="start" x="8" y="-482.5" font-family="Helvetica,sans-Serif" font-size="10.00" fill="#000000">Ra::IO::AssimpAnimationData</text>
<text text-anchor="middle" x="80.5" y="-471.5" font-family="Helvetica,sans-Serif" font-size="10.00" fill="#000000">Loader::loadData</text>
</g>
<!-- Node53 -->
<g id="node2" class="node">
<title>Node53</title>
<g id="a_node2"><a xlink:href="classRa_1_1IO_1_1AssimpAnimationDataLoader.html#a7fd20fa230b2d20ca4725fffe9a10fd9" target="_top" xlink:title="QUERY. ">
<polygon fill="#ffffff" stroke="#000000" points="197,-501.5 197,-531.5 358,-531.5 358,-501.5 197,-501.5"/>
<text text-anchor="start" x="205" y="-519.5" font-family="Helvetica,sans-Serif" font-size="10.00" fill="#000000">Ra::IO::AssimpAnimationData</text>
<text text-anchor="middle" x="277.5" y="-508.5" font-family="Helvetica,sans-Serif" font-size="10.00" fill="#000000">Loader::sceneHasAnimation</text>
</a>
</g>
</g>
<!-- Node52&#45;&gt;Node53 -->
<g id="edge1" class="edge">
<title>Node52&#45;&gt;Node53</title>
<path fill="none" stroke="#191970" d="M160.6274,-494.5493C169.4507,-496.2065 178.4778,-497.9019 187.412,-499.5799"/>
<polygon fill="#191970" stroke="#191970" points="186.9693,-503.0579 197.4436,-501.464 188.2615,-496.1782 186.9693,-503.0579"/>
</g>
<!-- Node55 -->
<g id="node4" class="node">
<title>Node55</title>
<g id="a_node4"><a xlink:href="classRa_1_1IO_1_1AssimpAnimationDataLoader.html#aebe6ef158998fba6b7e4f8f07dfd6293" target="_top" xlink:title="KEY FRAME. ">
<polygon fill="#ffffff" stroke="#000000" points="197,-440.5 197,-470.5 358,-470.5 358,-440.5 197,-440.5"/>
<text text-anchor="start" x="205" y="-458.5" font-family="Helvetica,sans-Serif" font-size="10.00" fill="#000000">Ra::IO::AssimpAnimationData</text>
<text text-anchor="middle" x="277.5" y="-447.5" font-family="Helvetica,sans-Serif" font-size="10.00" fill="#000000">Loader::loadAnimationData</text>
</a>
</g>
</g>
<!-- Node52&#45;&gt;Node55 -->
<g id="edge3" class="edge">
<title>Node52&#45;&gt;Node55</title>
<path fill="none" stroke="#191970" d="M161.1959,-469.669C169.6733,-468.6363 178.3327,-467.5813 186.9115,-466.5362"/>
<polygon fill="#191970" stroke="#191970" points="187.4263,-469.9994 196.9296,-465.3157 186.5797,-463.0508 187.4263,-469.9994"/>
</g>
<!-- Node54 -->
<g id="node3" class="node">
<title>Node54</title>
<g id="a_node3"><a xlink:href="classRa_1_1IO_1_1AssimpAnimationDataLoader.html#a9179b9b54341520c9925633795318f77" target="_top" xlink:title="Ra::IO::AssimpAnimationData\lLoader::sceneAnimationSize">
<polygon fill="#ffffff" stroke="#000000" points="394,-514.5 394,-544.5 555,-544.5 555,-514.5 394,-514.5"/>
<text text-anchor="start" x="402" y="-532.5" font-family="Helvetica,sans-Serif" font-size="10.00" fill="#000000">Ra::IO::AssimpAnimationData</text>
<text text-anchor="middle" x="474.5" y="-521.5" font-family="Helvetica,sans-Serif" font-size="10.00" fill="#000000">Loader::sceneAnimationSize</text>
</a>
</g>
</g>
<!-- Node53&#45;&gt;Node54 -->
<g id="edge2" class="edge">
<title>Node53&#45;&gt;Node54</title>
<path fill="none" stroke="#191970" d="M358.1959,-521.8251C366.6733,-522.3845 375.3327,-522.956 383.9115,-523.5221"/>
<polygon fill="#191970" stroke="#191970" points="383.7209,-527.017 393.9296,-524.1832 384.1818,-520.0322 383.7209,-527.017"/>
</g>
<!-- Node55&#45;&gt;Node54 -->
<g id="edge4" class="edge">
<title>Node55&#45;&gt;Node54</title>
<path fill="none" stroke="#191970" d="M309.7374,-470.5296C332.9031,-481.0346 365.0289,-495.0042 394,-505.5 399.5339,-507.5048 405.3237,-509.4741 411.1512,-511.3691"/>
<polygon fill="#191970" stroke="#191970" points="410.3652,-514.7916 420.9555,-514.4813 412.4832,-508.1197 410.3652,-514.7916"/>
</g>
<!-- Node56 -->
<g id="node5" class="node">
<title>Node56</title>
<g id="a_node5"><a xlink:href="classRa_1_1IO_1_1AssimpAnimationDataLoader.html#ae74ab8122612fa2f4264a0d7bb67d5a8" target="_top" xlink:title="NAME. ">
<polygon fill="#ffffff" stroke="#000000" points="394,-465.5 394,-495.5 555,-495.5 555,-465.5 394,-465.5"/>
<text text-anchor="start" x="402" y="-483.5" font-family="Helvetica,sans-Serif" font-size="10.00" fill="#000000">Ra::IO::AssimpAnimationData</text>
<text text-anchor="middle" x="474.5" y="-472.5" font-family="Helvetica,sans-Serif" font-size="10.00" fill="#000000">Loader::fetchName</text>
</a>
</g>
</g>
<!-- Node55&#45;&gt;Node56 -->
<g id="edge5" class="edge">
<title>Node55&#45;&gt;Node56</title>
<path fill="none" stroke="#191970" d="M358.1959,-465.7406C366.6733,-466.8164 375.3327,-467.9153 383.9115,-469.004"/>
<polygon fill="#191970" stroke="#191970" points="383.5685,-472.4885 393.9296,-470.2753 384.4499,-465.5442 383.5685,-472.4885"/>
</g>
<!-- Node59 -->
<g id="node8" class="node">
<title>Node59</title>
<g id="a_node8"><a xlink:href="classRa_1_1IO_1_1AssimpAnimationDataLoader.html#a613aa15b88bec1218b7078b6de2353dd" target="_top" xlink:title="TIME. ">
<polygon fill="#ffffff" stroke="#000000" points="394,-416.5 394,-446.5 555,-446.5 555,-416.5 394,-416.5"/>
<text text-anchor="start" x="402" y="-434.5" font-family="Helvetica,sans-Serif" font-size="10.00" fill="#000000">Ra::IO::AssimpAnimationData</text>
<text text-anchor="middle" x="474.5" y="-423.5" font-family="Helvetica,sans-Serif" font-size="10.00" fill="#000000">Loader::fetchTime</text>
</a>
</g>
</g>
<!-- Node55&#45;&gt;Node59 -->
<g id="edge8" class="edge">
<title>Node55&#45;&gt;Node59</title>
<path fill="none" stroke="#191970" d="M358.1959,-445.669C366.6733,-444.6363 375.3327,-443.5813 383.9115,-442.5362"/>
<polygon fill="#191970" stroke="#191970" points="384.4263,-445.9994 393.9296,-441.3157 383.5797,-439.0508 384.4263,-445.9994"/>
</g>
<!-- Node64 -->
<g id="node13" class="node">
<title>Node64</title>
<g id="a_node13"><a xlink:href="classRa_1_1IO_1_1AssimpAnimationDataLoader.html#ac1fbf58707a86fb1de042632a3d8f9b0" target="_top" xlink:title="Ra::IO::AssimpAnimationData\lLoader::fetchAnimation">
<polygon fill="#ffffff" stroke="#000000" points="394,-245.5 394,-275.5 555,-275.5 555,-245.5 394,-245.5"/>
<text text-anchor="start" x="402" y="-263.5" font-family="Helvetica,sans-Serif" font-size="10.00" fill="#000000">Ra::IO::AssimpAnimationData</text>
<text text-anchor="middle" x="474.5" y="-252.5" font-family="Helvetica,sans-Serif" font-size="10.00" fill="#000000">Loader::fetchAnimation</text>
</a>
</g>
</g>
<!-- Node55&#45;&gt;Node64 -->
<g id="edge13" class="edge">
<title>Node55&#45;&gt;Node64</title>
<path fill="none" stroke="#191970" d="M292.9583,-440.1987C327.5547,-405.9534 411.354,-323.0049 451.8484,-282.9216"/>
<polygon fill="#191970" stroke="#191970" points="454.4687,-285.2526 459.1135,-275.7302 449.5442,-280.2777 454.4687,-285.2526"/>
</g>
<!-- Node74 -->
<g id="node23" class="node">
<title>Node74</title>
<g id="a_node23"><a xlink:href="classRa_1_1Core_1_1Asset_1_1AnimationData.html#a2fd298ecce8aa6a3bc951b4ef2b14c36" target="_top" xlink:title="Print stat info to the Debug output. ">
<polygon fill="#ffffff" stroke="#000000" points="401,-49.5 401,-79.5 548,-79.5 548,-49.5 401,-49.5"/>
<text text-anchor="start" x="409" y="-67.5" font-family="Helvetica,sans-Serif" font-size="10.00" fill="#000000">Ra::Core::Asset::Animation</text>
<text text-anchor="middle" x="474.5" y="-56.5" font-family="Helvetica,sans-Serif" font-size="10.00" fill="#000000">Data::displayInfo</text>
</a>
</g>
</g>
<!-- Node55&#45;&gt;Node74 -->
<g id="edge25" class="edge">
<title>Node55&#45;&gt;Node74</title>
<path fill="none" stroke="#191970" d="M285.2226,-440.1723C315.3825,-380.3119 425.3774,-161.9971 462.3116,-88.6912"/>
<polygon fill="#191970" stroke="#191970" points="465.4569,-90.2271 466.8308,-79.7217 459.2055,-87.0774 465.4569,-90.2271"/>
</g>
<!-- Node57 -->
<g id="node6" class="node">
<title>Node57</title>
<g id="a_node6"><a xlink:href="classRa_1_1Core_1_1Asset_1_1AnimationData.html#ad73e13ac16296d39c830255b0a5888a3" target="_top" xlink:title="Returns the name of the object. ">
<polygon fill="#ffffff" stroke="#000000" points="600,-578.5 600,-608.5 747,-608.5 747,-578.5 600,-578.5"/>
<text text-anchor="start" x="608" y="-596.5" font-family="Helvetica,sans-Serif" font-size="10.00" fill="#000000">Ra::Core::Asset::Animation</text>
<text text-anchor="middle" x="673.5" y="-585.5" font-family="Helvetica,sans-Serif" font-size="10.00" fill="#000000">Data::setName</text>
</a>
</g>
</g>
<!-- Node56&#45;&gt;Node57 -->
<g id="edge6" class="edge">
<title>Node56&#45;&gt;Node57</title>
<path fill="none" stroke="#191970" d="M538.6108,-495.6267C544.445,-498.3893 550.0219,-501.6508 555,-505.5 579.0014,-524.0588 567.4476,-544.3746 591,-563.5 595.8914,-567.472 601.3546,-570.9435 607.0775,-573.9726"/>
<polygon fill="#191970" stroke="#191970" points="605.7101,-577.1986 616.2392,-578.3767 608.7429,-570.8897 605.7101,-577.1986"/>
</g>
<!-- Node58 -->
<g id="node7" class="node">
<title>Node58</title>
<g id="a_node7"><a xlink:href="namespaceRa_1_1IO.html#aef6c50424873964fcea0008be55d4a34" target="_top" xlink:title="Ra::IO::assimpToCore">
<polygon fill="#ffffff" stroke="#000000" points="815.5,-466 815.5,-485 935.5,-485 935.5,-466 815.5,-466"/>
<text text-anchor="middle" x="875.5" y="-473" font-family="Helvetica,sans-Serif" font-size="10.00" fill="#000000">Ra::IO::assimpToCore</text>
</a>
</g>
</g>
<!-- Node56&#45;&gt;Node58 -->
<g id="edge7" class="edge">
<title>Node56&#45;&gt;Node58</title>
<path fill="none" stroke="#191970" d="M530.7871,-495.5506C539.0686,-498.458 547.3722,-501.7772 555,-505.5 572.5059,-514.044 572.4106,-524.6784 591,-530.5 660.9819,-552.4161 684.3656,-546.1937 756,-530.5 791.098,-522.8107 828.1886,-503.8005 851.5673,-490.2879"/>
<polygon fill="#191970" stroke="#191970" points="853.5825,-493.1625 860.4086,-485.0597 850.0194,-487.1371 853.5825,-493.1625"/>
</g>
<!-- Node60 -->
<g id="node9" class="node">
<title>Node60</title>
<g id="a_node9"><a xlink:href="classRa_1_1Core_1_1Animation_1_1AnimationTime.html#a4bf7c5506fe62e4bfcb26d49391d4bb8" target="_top" xlink:title="Ra::Core::Animation\l::AnimationTime::setStart">
<polygon fill="#ffffff" stroke="#000000" points="602.5,-490.5 602.5,-520.5 744.5,-520.5 744.5,-490.5 602.5,-490.5"/>
<text text-anchor="start" x="610.5" y="-508.5" font-family="Helvetica,sans-Serif" font-size="10.00" fill="#000000">Ra::Core::Animation</text>
<text text-anchor="middle" x="673.5" y="-497.5" font-family="Helvetica,sans-Serif" font-size="10.00" fill="#000000">::AnimationTime::setStart</text>
</a>
</g>
</g>
<!-- Node59&#45;&gt;Node60 -->
<g id="edge9" class="edge">
<title>Node59&#45;&gt;Node60</title>
<path fill="none" stroke="#191970" d="M530.7871,-446.5506C539.0686,-449.458 547.3722,-452.7772 555,-456.5 572.5059,-465.044 573.4178,-473.1141 591,-481.5 595.0475,-483.4305 599.2821,-485.2385 603.604,-486.9263"/>
<polygon fill="#191970" stroke="#191970" points="602.5725,-490.2758 613.1663,-490.4297 604.9807,-483.7031 602.5725,-490.2758"/>
</g>
<!-- Node61 -->
<g id="node10" class="node">
<title>Node61</title>
<g id="a_node10"><a xlink:href="classRa_1_1Core_1_1Animation_1_1AnimationTime.html#a580eb83650065fd51d318abb4c79b563" target="_top" xlink:title="Ra::Core::Animation\l::AnimationTime::setEnd">
<polygon fill="#ffffff" stroke="#000000" points="605,-441.5 605,-471.5 742,-471.5 742,-441.5 605,-441.5"/>
<text text-anchor="start" x="613" y="-459.5" font-family="Helvetica,sans-Serif" font-size="10.00" fill="#000000">Ra::Core::Animation</text>
<text text-anchor="middle" x="673.5" y="-448.5" font-family="Helvetica,sans-Serif" font-size="10.00" fill="#000000">::AnimationTime::setEnd</text>
</a>
</g>
</g>
<!-- Node59&#45;&gt;Node61 -->
<g id="edge10" class="edge">
<title>Node59&#45;&gt;Node61</title>
<path fill="none" stroke="#191970" d="M555.154,-441.6324C568.161,-443.2665 581.6139,-444.9565 594.5793,-446.5853"/>
<polygon fill="#191970" stroke="#191970" points="594.4967,-450.1024 604.855,-447.8763 595.3693,-443.157 594.4967,-450.1024"/>
</g>
<!-- Node62 -->
<g id="node11" class="node">
<title>Node62</title>
<g id="a_node11"><a xlink:href="classRa_1_1Core_1_1Asset_1_1AnimationData.html#afa3d60833227971fb049197741da0126" target="_top" xlink:title="Set the AnimationTime for the object. ">
<polygon fill="#ffffff" stroke="#000000" points="600,-343.5 600,-373.5 747,-373.5 747,-343.5 600,-343.5"/>
<text text-anchor="start" x="608" y="-361.5" font-family="Helvetica,sans-Serif" font-size="10.00" fill="#000000">Ra::Core::Asset::Animation</text>
<text text-anchor="middle" x="673.5" y="-350.5" font-family="Helvetica,sans-Serif" font-size="10.00" fill="#000000">Data::setTime</text>
</a>
</g>
</g>
<!-- Node59&#45;&gt;Node62 -->
<g id="edge11" class="edge">
<title>Node59&#45;&gt;Node62</title>
<path fill="none" stroke="#191970" d="M508.571,-416.443C531.6211,-406.5096 562.875,-393.5289 591,-383.5 597.4404,-381.2034 604.2097,-378.9303 610.9853,-376.7455"/>
<polygon fill="#191970" stroke="#191970" points="612.401,-379.9686 620.8794,-373.6151 610.2894,-373.2947 612.401,-379.9686"/>
</g>
<!-- Node63 -->
<g id="node12" class="node">
<title>Node63</title>
<g id="a_node12"><a xlink:href="classRa_1_1Core_1_1Asset_1_1AnimationData.html#a830222af692dea0d510274b8537618f0" target="_top" xlink:title="Set the animation timestep. ">
<polygon fill="#ffffff" stroke="#000000" points="600,-392.5 600,-422.5 747,-422.5 747,-392.5 600,-392.5"/>
<text text-anchor="start" x="608" y="-410.5" font-family="Helvetica,sans-Serif" font-size="10.00" fill="#000000">Ra::Core::Asset::Animation</text>
<text text-anchor="middle" x="673.5" y="-399.5" font-family="Helvetica,sans-Serif" font-size="10.00" fill="#000000">Data::setTimeStep</text>
</a>
</g>
</g>
<!-- Node59&#45;&gt;Node63 -->
<g id="edge12" class="edge">
<title>Node59&#45;&gt;Node63</title>
<path fill="none" stroke="#191970" d="M555.154,-421.7729C566.5702,-420.3961 578.3298,-418.9778 589.8019,-417.5942"/>
<polygon fill="#191970" stroke="#191970" points="590.2845,-421.0615 599.7935,-416.3892 589.4463,-414.1118 590.2845,-421.0615"/>
</g>
<!-- Node64&#45;&gt;Node62 -->
<g id="edge24" class="edge">
<title>Node64&#45;&gt;Node62</title>
<path fill="none" stroke="#191970" d="M494.5398,-275.7313C516.9908,-292.1825 554.9733,-318.2168 591,-334.5 595.3582,-336.4698 599.9188,-338.3226 604.5628,-340.0569"/>
<polygon fill="#191970" stroke="#191970" points="603.5793,-343.4214 614.1741,-343.4498 605.9094,-336.8206 603.5793,-343.4214"/>
</g>
<!-- Node65 -->
<g id="node14" class="node">
<title>Node65</title>
<g id="a_node14"><a xlink:href="classRa_1_1Core_1_1Asset_1_1AnimationData.html#a0905ac7f4d44a97207551fd3af75c0f1" target="_top" xlink:title="Return the AnimationTime linked to the object. ">
<polygon fill="#ffffff" stroke="#000000" points="600,-294.5 600,-324.5 747,-324.5 747,-294.5 600,-294.5"/>
<text text-anchor="start" x="608" y="-312.5" font-family="Helvetica,sans-Serif" font-size="10.00" fill="#000000">Ra::Core::Asset::Animation</text>
<text text-anchor="middle" x="673.5" y="-301.5" font-family="Helvetica,sans-Serif" font-size="10.00" fill="#000000">Data::getTime</text>
</a>
</g>
</g>
<!-- Node64&#45;&gt;Node65 -->
<g id="edge14" class="edge">
<title>Node64&#45;&gt;Node65</title>
<path fill="none" stroke="#191970" d="M535.559,-275.5346C556.7616,-280.7554 580.7162,-286.6537 602.6423,-292.0526"/>
<polygon fill="#191970" stroke="#191970" points="602.0097,-295.5013 612.5565,-294.4938 603.6834,-288.7043 602.0097,-295.5013"/>
</g>
<!-- Node66 -->
<g id="node15" class="node">
<title>Node66</title>
<g id="a_node15"><a xlink:href="classRa_1_1IO_1_1AssimpAnimationDataLoader.html#aee50bf85bf9c74c13fbf1daa386640eb" target="_top" xlink:title="Ra::IO::AssimpAnimationData\lLoader::fetchHandleAnimation">
<polygon fill="#ffffff" stroke="#000000" points="591,-245.5 591,-275.5 756,-275.5 756,-245.5 591,-245.5"/>
<text text-anchor="start" x="599" y="-263.5" font-family="Helvetica,sans-Serif" font-size="10.00" fill="#000000">Ra::IO::AssimpAnimationData</text>
<text text-anchor="middle" x="673.5" y="-252.5" font-family="Helvetica,sans-Serif" font-size="10.00" fill="#000000">Loader::fetchHandleAnimation</text>
</a>
</g>
</g>
<!-- Node64&#45;&gt;Node66 -->
<g id="edge15" class="edge">
<title>Node64&#45;&gt;Node66</title>
<path fill="none" stroke="#191970" d="M555.154,-260.5C563.5947,-260.5 572.2232,-260.5 580.7844,-260.5"/>
<polygon fill="#191970" stroke="#191970" points="580.7883,-264.0001 590.7883,-260.5 580.7882,-257.0001 580.7883,-264.0001"/>
</g>
<!-- Node71 -->
<g id="node20" class="node">
<title>Node71</title>
<g id="a_node20"><a xlink:href="classRa_1_1Core_1_1Asset_1_1AnimationData.html#ae9d421923883b4a7ef1cdac8134d6e31" target="_top" xlink:title="Return the animation timestep. ">
<polygon fill="#ffffff" stroke="#000000" points="600,-196.5 600,-226.5 747,-226.5 747,-196.5 600,-196.5"/>
<text text-anchor="start" x="608" y="-214.5" font-family="Helvetica,sans-Serif" font-size="10.00" fill="#000000">Ra::Core::Asset::Animation</text>
<text text-anchor="middle" x="673.5" y="-203.5" font-family="Helvetica,sans-Serif" font-size="10.00" fill="#000000">Data::getTimeStep</text>
</a>
</g>
</g>
<!-- Node64&#45;&gt;Node71 -->
<g id="edge21" class="edge">
<title>Node64&#45;&gt;Node71</title>
<path fill="none" stroke="#191970" d="M535.559,-245.4654C556.7616,-240.2446 580.7162,-234.3463 602.6423,-228.9474"/>
<polygon fill="#191970" stroke="#191970" points="603.6834,-232.2957 612.5565,-226.5062 602.0097,-225.4987 603.6834,-232.2957"/>
</g>
<!-- Node72 -->
<g id="node21" class="node">
<title>Node72</title>
<g id="a_node21"><a xlink:href="classRa_1_1Core_1_1Animation_1_1AnimationTime.html#a36df32bef71eb889b59753012266bf27" target="_top" xlink:title="Ra::Core::Animation\l::AnimationTime::merge">
<polygon fill="#ffffff" stroke="#000000" points="606,-147.5 606,-177.5 741,-177.5 741,-147.5 606,-147.5"/>
<text text-anchor="start" x="614" y="-165.5" font-family="Helvetica,sans-Serif" font-size="10.00" fill="#000000">Ra::Core::Animation</text>
<text text-anchor="middle" x="673.5" y="-154.5" font-family="Helvetica,sans-Serif" font-size="10.00" fill="#000000">::AnimationTime::merge</text>
</a>
</g>
</g>
<!-- Node64&#45;&gt;Node72 -->
<g id="edge22" class="edge">
<title>Node64&#45;&gt;Node72</title>
<path fill="none" stroke="#191970" d="M495.019,-245.2734C517.5796,-229.1109 555.3705,-203.7111 591,-187.5 596.0232,-185.2145 601.3111,-183.0687 606.6831,-181.0698"/>
<polygon fill="#191970" stroke="#191970" points="608.1437,-184.2657 616.4047,-177.6319 605.8099,-177.6662 608.1437,-184.2657"/>
</g>
<!-- Node73 -->
<g id="node22" class="node">
<title>Node73</title>
<g id="a_node22"><a xlink:href="classRa_1_1Core_1_1Asset_1_1AnimationData.html#a0e5c12649e21fc27a09540b23b06cfd4" target="_top" xlink:title="Set the animation frames. ">
<polygon fill="#ffffff" stroke="#000000" points="600,-98.5 600,-128.5 747,-128.5 747,-98.5 600,-98.5"/>
<text text-anchor="start" x="608" y="-116.5" font-family="Helvetica,sans-Serif" font-size="10.00" fill="#000000">Ra::Core::Asset::Animation</text>
<text text-anchor="middle" x="673.5" y="-105.5" font-family="Helvetica,sans-Serif" font-size="10.00" fill="#000000">Data::setFrames</text>
</a>
</g>
</g>
<!-- Node64&#45;&gt;Node73 -->
<g id="edge23" class="edge">
<title>Node64&#45;&gt;Node73</title>
<path fill="none" stroke="#191970" d="M484.8654,-245.3541C503.2552,-219.6174 544.1,-167.3415 591,-138.5 594.4162,-136.3992 598.0211,-134.4643 601.7379,-132.6835"/>
<polygon fill="#191970" stroke="#191970" points="603.3994,-135.7772 611.1632,-128.568 600.5982,-129.3621 603.3994,-135.7772"/>
</g>
<!-- Node66&#45;&gt;Node58 -->
<g id="edge18" class="edge">
<title>Node66&#45;&gt;Node58</title>
<path fill="none" stroke="#191970" d="M740.8364,-275.5895C746.2817,-278.3552 751.4346,-281.6277 756,-285.5 783.588,-308.8997 773.4321,-327.4537 792,-358.5 814.0501,-395.3688 844.2031,-435.5593 861.5904,-457.9322"/>
<polygon fill="#191970" stroke="#191970" points="858.8699,-460.1349 867.7909,-465.8504 864.3812,-455.8192 858.8699,-460.1349"/>
</g>
<!-- Node67 -->
<g id="node16" class="node">
<title>Node67</title>
<g id="a_node16"><a xlink:href="classRa_1_1Core_1_1Animation_1_1KeyFrame.html#aeca1b8f8c3c59e2f48e79725ec6d6e16" target="_top" xlink:title="RESET. ">
<polygon fill="#ffffff" stroke="#000000" points="818.5,-318.5 818.5,-348.5 932.5,-348.5 932.5,-318.5 818.5,-318.5"/>
<text text-anchor="start" x="826.5" y="-336.5" font-family="Helvetica,sans-Serif" font-size="10.00" fill="#000000">Ra::Core::Animation</text>
<text text-anchor="middle" x="875.5" y="-325.5" font-family="Helvetica,sans-Serif" font-size="10.00" fill="#000000">::KeyFrame::reset</text>
</a>
</g>
</g>
<!-- Node66&#45;&gt;Node67 -->
<g id="edge16" class="edge">
<title>Node66&#45;&gt;Node67</title>
<path fill="none" stroke="#191970" d="M731.1279,-275.5807C739.6232,-278.4839 748.1506,-281.7939 756,-285.5 773.3888,-293.7101 774.5527,-301.4149 792,-309.5 797.348,-311.9783 803.009,-314.2592 808.7627,-316.3452"/>
<polygon fill="#191970" stroke="#191970" points="807.9001,-319.7491 818.4946,-319.6723 810.1646,-313.1255 807.9001,-319.7491"/>
</g>
<!-- Node68 -->
<g id="node17" class="node">
<title>Node68</title>
<g id="a_node17"><a xlink:href="classRa_1_1Core_1_1Animation_1_1KeyFrame.html#a86175e67c429b471659603f8a2514eef" target="_top" xlink:title="Ra::Core::Animation\l::KeyFrame::insertKeyFrame">
<polygon fill="#ffffff" stroke="#000000" points="799.5,-269.5 799.5,-299.5 951.5,-299.5 951.5,-269.5 799.5,-269.5"/>
<text text-anchor="start" x="807.5" y="-287.5" font-family="Helvetica,sans-Serif" font-size="10.00" fill="#000000">Ra::Core::Animation</text>
<text text-anchor="middle" x="875.5" y="-276.5" font-family="Helvetica,sans-Serif" font-size="10.00" fill="#000000">::KeyFrame::insertKeyFrame</text>
</a>
</g>
</g>
<!-- Node66&#45;&gt;Node68 -->
<g id="edge17" class="edge">
<title>Node66&#45;&gt;Node68</title>
<path fill="none" stroke="#191970" d="M756.244,-270.331C767.1718,-271.6293 778.3946,-272.9627 789.3775,-274.2676"/>
<polygon fill="#191970" stroke="#191970" points="789.0378,-277.7518 799.381,-275.4562 789.8638,-270.8007 789.0378,-277.7518"/>
</g>
<!-- Node69 -->
<g id="node18" class="node">
<title>Node69</title>
<g id="a_node18"><a xlink:href="classRa_1_1Core_1_1Animation_1_1KeyFrame.html#af940695555c9d6f064dee70435f33519" target="_top" xlink:title="Ra::Core::Animation\l::KeyFrame::setAnimationTime">
<polygon fill="#ffffff" stroke="#000000" points="792,-220.5 792,-250.5 959,-250.5 959,-220.5 792,-220.5"/>
<text text-anchor="start" x="800" y="-238.5" font-family="Helvetica,sans-Serif" font-size="10.00" fill="#000000">Ra::Core::Animation</text>
<text text-anchor="middle" x="875.5" y="-227.5" font-family="Helvetica,sans-Serif" font-size="10.00" fill="#000000">::KeyFrame::setAnimationTime</text>
</a>
</g>
</g>
<!-- Node66&#45;&gt;Node69 -->
<g id="edge19" class="edge">
<title>Node66&#45;&gt;Node69</title>
<path fill="none" stroke="#191970" d="M756.244,-250.2594C764.7016,-249.2127 773.3359,-248.1441 781.8989,-247.0843"/>
<polygon fill="#191970" stroke="#191970" points="782.4092,-250.5479 791.9035,-245.8461 781.5493,-243.6009 782.4092,-250.5479"/>
</g>
<!-- Node70 -->
<g id="node19" class="node">
<title>Node70</title>
<g id="a_node19"><a xlink:href="classRa_1_1Core_1_1Animation_1_1KeyFrame.html#a8dd187293f7124519b2f6a6153f79711" target="_top" xlink:title="Ra::Core::Animation\l::KeyFrame::at">
<polygon fill="#ffffff" stroke="#000000" points="818.5,-171.5 818.5,-201.5 932.5,-201.5 932.5,-171.5 818.5,-171.5"/>
<text text-anchor="start" x="826.5" y="-189.5" font-family="Helvetica,sans-Serif" font-size="10.00" fill="#000000">Ra::Core::Animation</text>
<text text-anchor="middle" x="875.5" y="-178.5" font-family="Helvetica,sans-Serif" font-size="10.00" fill="#000000">::KeyFrame::at</text>
</a>
</g>
</g>
<!-- Node66&#45;&gt;Node70 -->
<g id="edge20" class="edge">
<title>Node66&#45;&gt;Node70</title>
<path fill="none" stroke="#191970" d="M733.8337,-245.4297C741.438,-242.8121 748.9989,-239.8392 756,-236.5 773.5822,-228.1141 774.4507,-219.9545 792,-211.5 797.3274,-208.9335 802.9741,-206.5679 808.7184,-204.4019"/>
<polygon fill="#191970" stroke="#191970" points="810.1899,-207.5934 818.4387,-200.9446 807.844,-200.9981 810.1899,-207.5934"/>
</g>
<!-- Node75 -->
<g id="node24" class="node">
<title>Node75</title>
<g id="a_node24"><a xlink:href="classRa_1_1Core_1_1Animation_1_1AnimationTime.html#a2441e81d42370fb788b349302adb0872" target="_top" xlink:title="TIME. ">
<polygon fill="#ffffff" stroke="#000000" points="602,-49.5 602,-79.5 745,-79.5 745,-49.5 602,-49.5"/>
<text text-anchor="start" x="610" y="-67.5" font-family="Helvetica,sans-Serif" font-size="10.00" fill="#000000">Ra::Core::Animation</text>
<text text-anchor="middle" x="673.5" y="-56.5" font-family="Helvetica,sans-Serif" font-size="10.00" fill="#000000">::AnimationTime::getStart</text>
</a>
</g>
</g>
<!-- Node74&#45;&gt;Node75 -->
<g id="edge26" class="edge">
<title>Node74&#45;&gt;Node75</title>
<path fill="none" stroke="#191970" d="M548.0349,-64.5C562.2007,-64.5 577.1216,-64.5 591.5354,-64.5"/>
<polygon fill="#191970" stroke="#191970" points="591.9233,-68.0001 601.9233,-64.5 591.9233,-61.0001 591.9233,-68.0001"/>
</g>
<!-- Node76 -->
<g id="node25" class="node">
<title>Node76</title>
<g id="a_node25"><a xlink:href="classRa_1_1Core_1_1Animation_1_1AnimationTime.html#a01e57638a087e0a09678c284c295bd69" target="_top" xlink:title="Ra::Core::Animation\l::AnimationTime::getEnd">
<polygon fill="#ffffff" stroke="#000000" points="605,-.5 605,-30.5 742,-30.5 742,-.5 605,-.5"/>
<text text-anchor="start" x="613" y="-18.5" font-family="Helvetica,sans-Serif" font-size="10.00" fill="#000000">Ra::Core::Animation</text>
<text text-anchor="middle" x="673.5" y="-7.5" font-family="Helvetica,sans-Serif" font-size="10.00" fill="#000000">::AnimationTime::getEnd</text>
</a>
</g>
</g>
<!-- Node74&#45;&gt;Node76 -->
<g id="edge27" class="edge">
<title>Node74&#45;&gt;Node76</title>
<path fill="none" stroke="#191970" d="M535.559,-49.4654C556.7616,-44.2446 580.7162,-38.3463 602.6423,-32.9474"/>
<polygon fill="#191970" stroke="#191970" points="603.6834,-36.2957 612.5565,-30.5062 602.0097,-29.4987 603.6834,-36.2957"/>
</g>
</g>
</svg>
        <g id="navigator" transform="translate(0 0)" fill="#404254">
                <rect fill="#f2f5e9" fill-opacity="0.5" stroke="#606060" stroke-width=".5" x="0" y="0" width="60" height="60"/>
                <use id="zoomplus" xlink:href="#zoomPlus" x="17" y="9" onmousedown="handleZoom(evt,'in')"/>
                <use id="zoomminus" xlink:href="#zoomMin" x="42" y="9" onmousedown="handleZoom(evt,'out')"/>
                <use id="reset" xlink:href="#resetDef" x="30" y="36" onmousedown="handleReset()"/>
                <g id="arrowUp" xlink:href="#dirArrow" transform="translate(30 24)" onmousedown="handlePan(0,-1)">
                  <use xlink:href="#rim" fill="#404040">
                        <set attributeName="fill" to="#808080" begin="arrowUp.mouseover" end="arrowUp.mouseout"/>
                  </use>
                  <path fill="none" stroke="white" stroke-width="1.5" d="M0,-3.0v7 M-2.5,-0.5L0,-3.0L2.5,-0.5"/>
                </g>
                <g id="arrowRight" xlink:href="#dirArrow" transform="rotate(90) translate(36 -43)" onmousedown="handlePan(1,0)">
                  <use xlink:href="#rim" fill="#404040">
                        <set attributeName="fill" to="#808080" begin="arrowRight.mouseover" end="arrowRight.mouseout"/>
                  </use>
                  <path fill="none" stroke="white" stroke-width="1.5" d="M0,-3.0v7 M-2.5,-0.5L0,-3.0L2.5,-0.5"/>
                </g>
                <g id="arrowDown" xlink:href="#dirArrow" transform="rotate(180) translate(-30 -48)" onmousedown="handlePan(0,1)">
                  <use xlink:href="#rim" fill="#404040">
                        <set attributeName="fill" to="#808080" begin="arrowDown.mouseover" end="arrowDown.mouseout"/>
                  </use>
                  <path fill="none" stroke="white" stroke-width="1.5" d="M0,-3.0v7 M-2.5,-0.5L0,-3.0L2.5,-0.5"/>
                </g>
                <g id="arrowLeft" xlink:href="#dirArrow" transform="rotate(270) translate(-36 17)" onmousedown="handlePan(-1,0)">
                  <use xlink:href="#rim" fill="#404040">
                        <set attributeName="fill" to="#808080" begin="arrowLeft.mouseover" end="arrowLeft.mouseout"/>
                  </use>
                  <path fill="none" stroke="white" stroke-width="1.5" d="M0,-3.0v7 M-2.5,-0.5L0,-3.0L2.5,-0.5"/>
                </g>
        </g>
        <svg viewBox="0 0 15 15" width="100%" height="30px" preserveAspectRatio="xMaxYMin meet">
         <g id="arrow_out" transform="scale(0.3 0.3)">
          <a xlink:href="classRa_1_1IO_1_1AssimpAnimationDataLoader_ae70539c711179086512ee305e03fcb92_cgraph_org.svg" target="_base">
           <rect id="button" ry="5" rx="5" y="6" x="6" height="38" width="38"
                fill="#f2f5e9" fill-opacity="0.5" stroke="#606060" stroke-width="1.0"/>
           <path id="arrow"
             d="M 11.500037,31.436501 C 11.940474,20.09759 22.043105,11.32322 32.158766,21.979434 L 37.068811,17.246167 C 37.068811,17.246167 37.088388,32 37.088388,32 L 22.160133,31.978069 C 22.160133,31.978069 26.997745,27.140456 26.997745,27.140456 C 18.528582,18.264221 13.291696,25.230495 11.500037,31.436501 z"
             style="fill:#404040;"/>
          </a>
         </g>
        </svg>
</svg>
