<?xml version="1.0" encoding="UTF-8" standalone="no"?>
<!DOCTYPE svg PUBLIC "-//W3C//DTD SVG 1.1//EN"
 "http://www.w3.org/Graphics/SVG/1.1/DTD/svg11.dtd">
<!-- Generated by graphviz version 2.40.1 (20161225.0304)
 -->
<!-- Title: Ra::Engine::TriangleMeshComponent::TriangleMeshComponent Pages: 1 -->
<!--zoomable 1264 -->
<svg id="main" version="1.1" xmlns="http://www.w3.org/2000/svg" xmlns:xlink="http://www.w3.org/1999/xlink" xml:space="preserve" onload="init(evt)">
<style type="text/css"><![CDATA[
.edge:hover path { stroke: red; }
.edge:hover polygon { stroke: red; fill: red; }
]]></style>
<script type="text/javascript"><![CDATA[
var edges = document.getElementsByTagName('g');
if (edges && edges.length) {
  for (var i=0;i<edges.length;i++) {
    if (edges[i].id.substr(0,4)=='edge') {
      edges[i].setAttribute('class','edge');
    }
  }
}
]]></script>
        <defs>
                <circle id="rim" cx="0" cy="0" r="7"/>
                <circle id="rim2" cx="0" cy="0" r="3.5"/>
                <g id="zoomPlus">
                        <use xlink:href="#rim" fill="#404040">
                                <set attributeName="fill" to="#808080" begin="zoomplus.mouseover" end="zoomplus.mouseout"/>
                        </use>
                        <path d="M-4,0h8M0,-4v8" fill="none" stroke="white" stroke-width="1.5" pointer-events="none"/>
                </g>
                <g id="zoomMin">
                        <use xlink:href="#rim" fill="#404040">
                                <set attributeName="fill" to="#808080" begin="zoomminus.mouseover" end="zoomminus.mouseout"/>
                        </use>
                        <path d="M-4,0h8" fill="none" stroke="white" stroke-width="1.5" pointer-events="none"/>
                </g>
                <g id="dirArrow">
                        <path fill="none" stroke="white" stroke-width="1.5" d="M0,-3.0v7 M-2.5,-0.5L0,-3.0L2.5,-0.5"/>
                </g>
               <g id="resetDef">
                       <use xlink:href="#rim2" fill="#404040">
                               <set attributeName="fill" to="#808080" begin="reset.mouseover" end="reset.mouseout"/>
                       </use>
               </g>
        </defs>

<script type="text/javascript">
var viewWidth = 841;
var viewHeight = 1264;
var sectionId = 'dynsection-2';
</script>
<script xlink:href="svgpan.js"/>
<svg id="graph" class="graph">
<g id="viewport">
<title>Ra::Engine::TriangleMeshComponent::TriangleMeshComponent</title>
<polygon fill="#ffffff" stroke="transparent" points="-4,4 -4,-1260 837,-1260 837,4 -4,4"/>
<!-- Node1 -->
<g id="node1" class="node">
<title>Node1</title>
<polygon fill="#bfbfbf" stroke="#000000" points="0,-612.5 0,-642.5 199,-642.5 199,-612.5 0,-612.5"/>
<text text-anchor="start" x="8" y="-630.5" font-family="Helvetica,sans-Serif" font-size="10.00" fill="#000000">Ra::Engine::TriangleMesh</text>
<text text-anchor="middle" x="99.5" y="-619.5" font-family="Helvetica,sans-Serif" font-size="10.00" fill="#000000">Component::TriangleMeshComponent</text>
</g>
<!-- Node2 -->
<g id="node2" class="node">
<title>Node2</title>
<g id="a_node2"><a xlink:href="classRa_1_1Engine_1_1GeometryComponent.html#a710572c93084edcc03233025d5e08f64" target="_top" xlink:title="Ra::Engine::GeometryComponent\l::setContentName">
<polygon fill="#ffffff" stroke="#000000" points="249,-1225.5 249,-1255.5 428,-1255.5 428,-1225.5 249,-1225.5"/>
<text text-anchor="start" x="257" y="-1243.5" font-family="Helvetica,sans-Serif" font-size="10.00" fill="#000000">Ra::Engine::GeometryComponent</text>
<text text-anchor="middle" x="338.5" y="-1232.5" font-family="Helvetica,sans-Serif" font-size="10.00" fill="#000000">::setContentName</text>
</a>
</g>
</g>
<!-- Node1&#45;&gt;Node2 -->
<g id="edge1" class="edge">
<title>Node1&#45;&gt;Node2</title>
<path fill="none" stroke="#191970" d="M100.8459,-642.661C108.58,-726.3719 150.0277,-1131.3797 235,-1216.5 236.6412,-1218.144 238.3713,-1219.6844 240.1778,-1221.1273"/>
<polygon fill="#191970" stroke="#191970" points="238.3168,-1224.0947 248.5474,-1226.8488 242.2672,-1218.3159 238.3168,-1224.0947"/>
</g>
<!-- Node3 -->
<g id="node3" class="node">
<title>Node3</title>
<g id="a_node3"><a xlink:href="classRa_1_1Engine_1_1TriangleMeshComponent.html#a6f1b4aa262bf9ff54f20ae29afa5f741" target="_top" xlink:title="Ra::Engine::TriangleMesh\lComponent::~TriangleMeshComponent">
<polygon fill="#ffffff" stroke="#000000" points="235,-1176.5 235,-1206.5 442,-1206.5 442,-1176.5 235,-1176.5"/>
<text text-anchor="start" x="243" y="-1194.5" font-family="Helvetica,sans-Serif" font-size="10.00" fill="#000000">Ra::Engine::TriangleMesh</text>
<text text-anchor="middle" x="338.5" y="-1183.5" font-family="Helvetica,sans-Serif" font-size="10.00" fill="#000000">Component::~TriangleMeshComponent</text>
</a>
</g>
</g>
<!-- Node1&#45;&gt;Node3 -->
<g id="edge2" class="edge">
<title>Node1&#45;&gt;Node3</title>
<path fill="none" stroke="#191970" d="M101.187,-642.6958C110.3231,-722.2752 156.3873,-1090.2892 235,-1167.5 235.9623,-1168.4451 236.9541,-1169.3559 237.9729,-1170.2334"/>
<polygon fill="#191970" stroke="#191970" points="236.1403,-1173.23 246.2714,-1176.3301 240.2848,-1167.5888 236.1403,-1173.23"/>
</g>
<!-- Node4 -->
<g id="node4" class="node">
<title>Node4</title>
<g id="a_node4"><a xlink:href="classRa_1_1Core_1_1Asset_1_1AssetData.html#a45d10620e8b4afeadcbd70da2fa8b119" target="_top" xlink:title="Acces to the name of the asset. ">
<polygon fill="#ffffff" stroke="#000000" points="265,-1127.5 265,-1157.5 412,-1157.5 412,-1127.5 265,-1127.5"/>
<text text-anchor="start" x="273" y="-1145.5" font-family="Helvetica,sans-Serif" font-size="10.00" fill="#000000">Ra::Core::Asset::AssetData</text>
<text text-anchor="middle" x="338.5" y="-1134.5" font-family="Helvetica,sans-Serif" font-size="10.00" fill="#000000">::getName</text>
</a>
</g>
</g>
<!-- Node1&#45;&gt;Node4 -->
<g id="edge3" class="edge">
<title>Node1&#45;&gt;Node4</title>
<path fill="none" stroke="#191970" d="M101.6044,-642.7953C112.2744,-718.1611 162.735,-1049.167 235,-1118.5 240.8492,-1124.1119 247.7401,-1128.5043 255.1428,-1131.9305"/>
<polygon fill="#191970" stroke="#191970" points="254.1685,-1135.3103 264.7533,-1135.7728 256.7672,-1128.8105 254.1685,-1135.3103"/>
</g>
<!-- Node5 -->
<g id="node5" class="node">
<title>Node5</title>
<g id="a_node5"><a xlink:href="classRa_1_1Core_1_1Asset_1_1GeometryData.html#ab6d428e893d8214e7d25cfe8302d6e39" target="_top" xlink:title="Return the number of vertices. ">
<polygon fill="#ffffff" stroke="#000000" points="265.5,-1078.5 265.5,-1108.5 411.5,-1108.5 411.5,-1078.5 265.5,-1078.5"/>
<text text-anchor="start" x="273.5" y="-1096.5" font-family="Helvetica,sans-Serif" font-size="10.00" fill="#000000">Ra::Core::Asset::Geometry</text>
<text text-anchor="middle" x="338.5" y="-1085.5" font-family="Helvetica,sans-Serif" font-size="10.00" fill="#000000">Data::getVerticesSize</text>
</a>
</g>
</g>
<!-- Node1&#45;&gt;Node5 -->
<g id="edge4" class="edge">
<title>Node1&#45;&gt;Node5</title>
<path fill="none" stroke="#191970" d="M102.0748,-642.6651C114.3378,-713.15 168.9698,-1007.9131 235,-1069.5 241.0895,-1075.1797 248.2499,-1079.6026 255.9142,-1083.0353"/>
<polygon fill="#191970" stroke="#191970" points="254.8859,-1086.3906 265.4746,-1086.7492 257.4207,-1079.8656 254.8859,-1086.3906"/>
</g>
<!-- Node6 -->
<g id="node6" class="node">
<title>Node6</title>
<g id="a_node6"><a xlink:href="classRa_1_1Core_1_1Asset_1_1GeometryData.html#a343a1ef88bb043988108858b6c6de313" target="_top" xlink:title="Return the list of vertices. ">
<polygon fill="#ffffff" stroke="#000000" points="265.5,-1029.5 265.5,-1059.5 411.5,-1059.5 411.5,-1029.5 265.5,-1029.5"/>
<text text-anchor="start" x="273.5" y="-1047.5" font-family="Helvetica,sans-Serif" font-size="10.00" fill="#000000">Ra::Core::Asset::Geometry</text>
<text text-anchor="middle" x="338.5" y="-1036.5" font-family="Helvetica,sans-Serif" font-size="10.00" fill="#000000">Data::getVertices</text>
</a>
</g>
</g>
<!-- Node1&#45;&gt;Node6 -->
<g id="edge5" class="edge">
<title>Node1&#45;&gt;Node6</title>
<path fill="none" stroke="#191970" d="M102.6939,-642.7226C116.7684,-708.4037 175.2139,-966.6382 235,-1020.5 241.138,-1026.0298 248.2964,-1030.3593 255.9302,-1033.7392"/>
<polygon fill="#191970" stroke="#191970" points="254.8513,-1037.0743 265.4409,-1037.4078 257.3706,-1030.5433 254.8513,-1037.0743"/>
</g>
<!-- Node7 -->
<g id="node7" class="node">
<title>Node7</title>
<g id="a_node7"><a xlink:href="classRa_1_1Core_1_1Asset_1_1GeometryData.html#ac6a98d1d64d63da77c59b9e9c9b87112" target="_top" xlink:title="Return true if the object has vertex normals. ">
<polygon fill="#ffffff" stroke="#000000" points="265.5,-980.5 265.5,-1010.5 411.5,-1010.5 411.5,-980.5 265.5,-980.5"/>
<text text-anchor="start" x="273.5" y="-998.5" font-family="Helvetica,sans-Serif" font-size="10.00" fill="#000000">Ra::Core::Asset::Geometry</text>
<text text-anchor="middle" x="338.5" y="-987.5" font-family="Helvetica,sans-Serif" font-size="10.00" fill="#000000">Data::hasNormals</text>
</a>
</g>
</g>
<!-- Node1&#45;&gt;Node7 -->
<g id="edge6" class="edge">
<title>Node1&#45;&gt;Node7</title>
<path fill="none" stroke="#191970" d="M100.6323,-642.6846C105.5033,-696.6102 129.5243,-880.5265 235,-971.5 241.2064,-976.8531 248.3764,-981.0709 255.9884,-984.3863"/>
<polygon fill="#191970" stroke="#191970" points="254.867,-987.7045 265.4577,-987.9985 257.3619,-981.1642 254.867,-987.7045"/>
</g>
<!-- Node8 -->
<g id="node8" class="node">
<title>Node8</title>
<g id="a_node8"><a xlink:href="classRa_1_1Core_1_1Asset_1_1GeometryData.html#acf6f7d15ee8d3a23a286fc463f326ae5" target="_top" xlink:title="Return the list of vertex normals. ">
<polygon fill="#ffffff" stroke="#000000" points="265.5,-931.5 265.5,-961.5 411.5,-961.5 411.5,-931.5 265.5,-931.5"/>
<text text-anchor="start" x="273.5" y="-949.5" font-family="Helvetica,sans-Serif" font-size="10.00" fill="#000000">Ra::Core::Asset::Geometry</text>
<text text-anchor="middle" x="338.5" y="-938.5" font-family="Helvetica,sans-Serif" font-size="10.00" fill="#000000">Data::getNormals</text>
</a>
</g>
</g>
<!-- Node1&#45;&gt;Node8 -->
<g id="edge7" class="edge">
<title>Node1&#45;&gt;Node8</title>
<path fill="none" stroke="#191970" d="M101.6967,-642.5612C109.6421,-691.348 141.5243,-846.2836 235,-922.5 241.1818,-927.5404 248.2283,-931.5628 255.671,-934.7672"/>
<polygon fill="#191970" stroke="#191970" points="254.6836,-938.1358 265.275,-938.4039 257.1624,-931.5894 254.6836,-938.1358"/>
</g>
<!-- Node9 -->
<g id="node9" class="node">
<title>Node9</title>
<g id="a_node9"><a xlink:href="classRa_1_1Core_1_1Asset_1_1GeometryData.html#ab6a1417d3aea242d4be51240e8c662a5" target="_top" xlink:title="Ra::Core::Asset::Geometry\lData::getFaces">
<polygon fill="#ffffff" stroke="#000000" points="265.5,-882.5 265.5,-912.5 411.5,-912.5 411.5,-882.5 265.5,-882.5"/>
<text text-anchor="start" x="273.5" y="-900.5" font-family="Helvetica,sans-Serif" font-size="10.00" fill="#000000">Ra::Core::Asset::Geometry</text>
<text text-anchor="middle" x="338.5" y="-889.5" font-family="Helvetica,sans-Serif" font-size="10.00" fill="#000000">Data::getFaces</text>
</a>
</g>
</g>
<!-- Node1&#45;&gt;Node9 -->
<g id="edge8" class="edge">
<title>Node1&#45;&gt;Node9</title>
<path fill="none" stroke="#191970" d="M103.224,-642.8011C114.6583,-686.3642 153.5322,-811.8766 235,-873.5 241.3096,-878.2727 248.4103,-882.1198 255.8598,-885.2176"/>
<polygon fill="#191970" stroke="#191970" points="254.8557,-888.5776 265.4491,-888.7538 257.2777,-882.01 254.8557,-888.5776"/>
</g>
<!-- Node10 -->
<g id="node10" class="node">
<title>Node10</title>
<g id="a_node10"><a xlink:href="classRa_1_1Core_1_1Asset_1_1GeometryData.html#af2915cec9f0eda10e9469bf26fd755af" target="_top" xlink:title="Return true if the object has vertex tangent vectors. ">
<polygon fill="#ffffff" stroke="#000000" points="265.5,-833.5 265.5,-863.5 411.5,-863.5 411.5,-833.5 265.5,-833.5"/>
<text text-anchor="start" x="273.5" y="-851.5" font-family="Helvetica,sans-Serif" font-size="10.00" fill="#000000">Ra::Core::Asset::Geometry</text>
<text text-anchor="middle" x="338.5" y="-840.5" font-family="Helvetica,sans-Serif" font-size="10.00" fill="#000000">Data::hasTangents</text>
</a>
</g>
</g>
<!-- Node1&#45;&gt;Node10 -->
<g id="edge9" class="edge">
<title>Node1&#45;&gt;Node10</title>
<path fill="none" stroke="#191970" d="M105.3385,-642.6806C120.5257,-680.033 165.0174,-776.8198 235,-824.5 241.431,-828.8815 248.5531,-832.4707 255.964,-835.4097"/>
<polygon fill="#191970" stroke="#191970" points="254.8806,-838.7391 265.4753,-838.7954 257.2282,-832.1445 254.8806,-838.7391"/>
</g>
<!-- Node11 -->
<g id="node11" class="node">
<title>Node11</title>
<g id="a_node11"><a xlink:href="classRa_1_1Engine_1_1AttribArrayDisplayable.html#acd5ce549b1358c2f319a884725633ed2" target="_top" xlink:title="Get the name expected for a given attrib. ">
<polygon fill="#ffffff" stroke="#000000" points="246,-784.5 246,-814.5 431,-814.5 431,-784.5 246,-784.5"/>
<text text-anchor="start" x="254" y="-802.5" font-family="Helvetica,sans-Serif" font-size="10.00" fill="#000000">Ra::Engine::AttribArrayDisplayable</text>
<text text-anchor="middle" x="338.5" y="-791.5" font-family="Helvetica,sans-Serif" font-size="10.00" fill="#000000">::getAttribName</text>
</a>
</g>
</g>
<!-- Node1&#45;&gt;Node11 -->
<g id="edge10" class="edge">
<title>Node1&#45;&gt;Node11</title>
<path fill="none" stroke="#191970" d="M108.9224,-642.8686C128.4267,-673.2996 176.3421,-741.2369 235,-775.5 238.0387,-777.2749 241.1992,-778.9186 244.4467,-780.4407"/>
<polygon fill="#191970" stroke="#191970" points="243.2272,-783.7254 253.7994,-784.4166 245.9657,-777.2833 243.2272,-783.7254"/>
</g>
<!-- Node12 -->
<g id="node12" class="node">
<title>Node12</title>
<g id="a_node12"><a xlink:href="classRa_1_1Core_1_1Asset_1_1GeometryData.html#ae06b77a36b83e92e1fb73c0feff970de" target="_top" xlink:title="Return the list of vertex tangent vectors. ">
<polygon fill="#ffffff" stroke="#000000" points="265.5,-735.5 265.5,-765.5 411.5,-765.5 411.5,-735.5 265.5,-735.5"/>
<text text-anchor="start" x="273.5" y="-753.5" font-family="Helvetica,sans-Serif" font-size="10.00" fill="#000000">Ra::Core::Asset::Geometry</text>
<text text-anchor="middle" x="338.5" y="-742.5" font-family="Helvetica,sans-Serif" font-size="10.00" fill="#000000">Data::getTangents</text>
</a>
</g>
</g>
<!-- Node1&#45;&gt;Node12 -->
<g id="edge11" class="edge">
<title>Node1&#45;&gt;Node12</title>
<path fill="none" stroke="#191970" d="M115.6292,-642.7224C139.7007,-664.5921 187.3197,-704.6662 235,-726.5 241.5721,-729.5095 248.5573,-732.16 255.6752,-734.4909"/>
<polygon fill="#191970" stroke="#191970" points="254.8511,-737.8988 265.4374,-737.475 256.8974,-731.2045 254.8511,-737.8988"/>
</g>
<!-- Node13 -->
<g id="node13" class="node">
<title>Node13</title>
<g id="a_node13"><a xlink:href="classRa_1_1Core_1_1Asset_1_1GeometryData.html#ae1380c755066e114a74c184af2333bca" target="_top" xlink:title="Return true if the object has vertex bitangent vectors. ">
<polygon fill="#ffffff" stroke="#000000" points="265.5,-686.5 265.5,-716.5 411.5,-716.5 411.5,-686.5 265.5,-686.5"/>
<text text-anchor="start" x="273.5" y="-704.5" font-family="Helvetica,sans-Serif" font-size="10.00" fill="#000000">Ra::Core::Asset::Geometry</text>
<text text-anchor="middle" x="338.5" y="-693.5" font-family="Helvetica,sans-Serif" font-size="10.00" fill="#000000">Data::hasBiTangents</text>
</a>
</g>
</g>
<!-- Node1&#45;&gt;Node13 -->
<g id="edge12" class="edge">
<title>Node1&#45;&gt;Node13</title>
<path fill="none" stroke="#191970" d="M136.4582,-642.5701C163.4626,-653.2281 201.1277,-667.367 235,-677.5 242.6009,-679.7738 250.5694,-681.9611 258.5673,-684.0267"/>
<polygon fill="#191970" stroke="#191970" points="257.7628,-687.4333 268.315,-686.4835 259.4737,-680.6456 257.7628,-687.4333"/>
</g>
<!-- Node14 -->
<g id="node14" class="node">
<title>Node14</title>
<g id="a_node14"><a xlink:href="classRa_1_1Core_1_1Asset_1_1GeometryData.html#a445eb7beaa898a5c2177a2e114361349" target="_top" xlink:title="Return the list of vertex bitangent vectors. ">
<polygon fill="#ffffff" stroke="#000000" points="265.5,-637.5 265.5,-667.5 411.5,-667.5 411.5,-637.5 265.5,-637.5"/>
<text text-anchor="start" x="273.5" y="-655.5" font-family="Helvetica,sans-Serif" font-size="10.00" fill="#000000">Ra::Core::Asset::Geometry</text>
<text text-anchor="middle" x="338.5" y="-644.5" font-family="Helvetica,sans-Serif" font-size="10.00" fill="#000000">Data::getBiTangents</text>
</a>
</g>
</g>
<!-- Node1&#45;&gt;Node14 -->
<g id="edge13" class="edge">
<title>Node1&#45;&gt;Node14</title>
<path fill="none" stroke="#191970" d="M199.1269,-637.9212C217.7365,-639.8678 237.0078,-641.8837 255.0665,-643.7726"/>
<polygon fill="#191970" stroke="#191970" points="254.9426,-647.2787 265.2525,-644.8381 255.6709,-640.3167 254.9426,-647.2787"/>
</g>
<!-- Node15 -->
<g id="node15" class="node">
<title>Node15</title>
<g id="a_node15"><a xlink:href="classRa_1_1Core_1_1Asset_1_1GeometryData.html#a4613a77be8c92ae9d1ea906b0d9b5d9d" target="_top" xlink:title="Return true if the object has vertex texture coordinates. ">
<polygon fill="#ffffff" stroke="#000000" points="259.5,-588.5 259.5,-618.5 417.5,-618.5 417.5,-588.5 259.5,-588.5"/>
<text text-anchor="start" x="267.5" y="-606.5" font-family="Helvetica,sans-Serif" font-size="10.00" fill="#000000">Ra::Core::Asset::Geometry</text>
<text text-anchor="middle" x="338.5" y="-595.5" font-family="Helvetica,sans-Serif" font-size="10.00" fill="#000000">Data::hasTextureCoordinates</text>
</a>
</g>
</g>
<!-- Node1&#45;&gt;Node15 -->
<g id="edge14" class="edge">
<title>Node1&#45;&gt;Node15</title>
<path fill="none" stroke="#191970" d="M199.1269,-617.4956C215.7798,-615.8234 232.9624,-614.0979 249.3319,-612.4541"/>
<polygon fill="#191970" stroke="#191970" points="249.807,-615.9241 259.4072,-611.4424 249.1075,-608.9591 249.807,-615.9241"/>
</g>
<!-- Node16 -->
<g id="node16" class="node">
<title>Node16</title>
<g id="a_node16"><a xlink:href="classRa_1_1Core_1_1Asset_1_1GeometryData.html#a4135cc230509ac75f9849fd3d26b6b4a" target="_top" xlink:title="Return the list of vertex texture coordinates. ">
<polygon fill="#ffffff" stroke="#000000" points="265.5,-539.5 265.5,-569.5 411.5,-569.5 411.5,-539.5 265.5,-539.5"/>
<text text-anchor="start" x="273.5" y="-557.5" font-family="Helvetica,sans-Serif" font-size="10.00" fill="#000000">Ra::Core::Asset::Geometry</text>
<text text-anchor="middle" x="338.5" y="-546.5" font-family="Helvetica,sans-Serif" font-size="10.00" fill="#000000">Data::getTexCoords</text>
</a>
</g>
</g>
<!-- Node1&#45;&gt;Node16 -->
<g id="edge15" class="edge">
<title>Node1&#45;&gt;Node16</title>
<path fill="none" stroke="#191970" d="M138.5763,-612.4476C165.4565,-602.3929 202.105,-589.2708 235,-579.5 243.6539,-576.9295 252.7726,-574.43 261.8638,-572.0679"/>
<polygon fill="#191970" stroke="#191970" points="262.8691,-575.4236 271.6946,-569.5618 261.1399,-568.6406 262.8691,-575.4236"/>
</g>
<!-- Node17 -->
<g id="node17" class="node">
<title>Node17</title>
<g id="a_node17"><a xlink:href="classRa_1_1Core_1_1Asset_1_1GeometryData.html#adecd896759aa64c31e07559d158ead31" target="_top" xlink:title="Return true if the object has vertex colors. ">
<polygon fill="#ffffff" stroke="#000000" points="265.5,-490.5 265.5,-520.5 411.5,-520.5 411.5,-490.5 265.5,-490.5"/>
<text text-anchor="start" x="273.5" y="-508.5" font-family="Helvetica,sans-Serif" font-size="10.00" fill="#000000">Ra::Core::Asset::Geometry</text>
<text text-anchor="middle" x="338.5" y="-497.5" font-family="Helvetica,sans-Serif" font-size="10.00" fill="#000000">Data::hasColors</text>
</a>
</g>
</g>
<!-- Node1&#45;&gt;Node17 -->
<g id="edge16" class="edge">
<title>Node1&#45;&gt;Node17</title>
<path fill="none" stroke="#191970" d="M116.1209,-612.3008C140.4255,-590.8865 187.91,-552.0481 235,-530.5 241.5871,-527.4858 248.5828,-524.8086 255.7077,-522.4358"/>
<polygon fill="#191970" stroke="#191970" points="256.9745,-525.707 265.4772,-519.3859 254.8885,-519.025 256.9745,-525.707"/>
</g>
<!-- Node18 -->
<g id="node18" class="node">
<title>Node18</title>
<g id="a_node18"><a xlink:href="classRa_1_1Core_1_1Asset_1_1GeometryData.html#aa3dd156b0cc006ba40882908e484ef43" target="_top" xlink:title="Return the list of vertex colors. ">
<polygon fill="#ffffff" stroke="#000000" points="265.5,-441.5 265.5,-471.5 411.5,-471.5 411.5,-441.5 265.5,-441.5"/>
<text text-anchor="start" x="273.5" y="-459.5" font-family="Helvetica,sans-Serif" font-size="10.00" fill="#000000">Ra::Core::Asset::Geometry</text>
<text text-anchor="middle" x="338.5" y="-448.5" font-family="Helvetica,sans-Serif" font-size="10.00" fill="#000000">Data::getColors</text>
</a>
</g>
</g>
<!-- Node1&#45;&gt;Node18 -->
<g id="edge17" class="edge">
<title>Node1&#45;&gt;Node18</title>
<path fill="none" stroke="#191970" d="M109.0025,-612.3869C128.6507,-582.4531 176.8123,-515.5809 235,-481.5 241.4152,-477.7425 248.3693,-474.5487 255.5346,-471.834"/>
<polygon fill="#191970" stroke="#191970" points="257.0981,-474.9968 265.4056,-468.4214 254.8108,-468.3811 257.0981,-474.9968"/>
</g>
<!-- Node19 -->
<g id="node19" class="node">
<title>Node19</title>
<g id="a_node19"><a xlink:href="classRa_1_1Core_1_1Asset_1_1GeometryData.html#ac64d8907e104153c3a5f2b988a3c010c" target="_top" xlink:title="Return true if the object has MaterialData. ">
<polygon fill="#ffffff" stroke="#000000" points="265.5,-392.5 265.5,-422.5 411.5,-422.5 411.5,-392.5 265.5,-392.5"/>
<text text-anchor="start" x="273.5" y="-410.5" font-family="Helvetica,sans-Serif" font-size="10.00" fill="#000000">Ra::Core::Asset::Geometry</text>
<text text-anchor="middle" x="338.5" y="-399.5" font-family="Helvetica,sans-Serif" font-size="10.00" fill="#000000">Data::hasMaterial</text>
</a>
</g>
</g>
<!-- Node1&#45;&gt;Node19 -->
<g id="edge18" class="edge">
<title>Node1&#45;&gt;Node19</title>
<path fill="none" stroke="#191970" d="M105.5243,-612.2393C120.9835,-575.157 165.7728,-479.8877 235,-432.5 241.4353,-428.0949 248.5603,-424.4627 255.9731,-421.4684"/>
<polygon fill="#191970" stroke="#191970" points="257.2859,-424.7153 265.4861,-418.0065 254.8921,-418.1373 257.2859,-424.7153"/>
</g>
<!-- Node20 -->
<g id="node20" class="node">
<title>Node20</title>
<g id="a_node20"><a xlink:href="classRa_1_1Core_1_1Asset_1_1GeometryData.html#a46bf8bc9927a32a66c4cde6b92731ef2" target="_top" xlink:title="Return the MaterialData associated to the objet. ">
<polygon fill="#ffffff" stroke="#000000" points="265.5,-343.5 265.5,-373.5 411.5,-373.5 411.5,-343.5 265.5,-343.5"/>
<text text-anchor="start" x="273.5" y="-361.5" font-family="Helvetica,sans-Serif" font-size="10.00" fill="#000000">Ra::Core::Asset::Geometry</text>
<text text-anchor="middle" x="338.5" y="-350.5" font-family="Helvetica,sans-Serif" font-size="10.00" fill="#000000">Data::getMaterial</text>
</a>
</g>
</g>
<!-- Node1&#45;&gt;Node20 -->
<g id="edge19" class="edge">
<title>Node1&#45;&gt;Node20</title>
<path fill="none" stroke="#191970" d="M103.2916,-612.3577C114.9061,-569.2405 154.2145,-444.9695 235,-383.5 241.3097,-378.699 248.4104,-374.8049 255.8599,-371.6487"/>
<polygon fill="#191970" stroke="#191970" points="257.3273,-374.8361 265.4492,-368.0328 254.8574,-368.2862 257.3273,-374.8361"/>
</g>
<!-- Node21 -->
<g id="node21" class="node">
<title>Node21</title>
<g id="a_node21"><a xlink:href="classRa_1_1Core_1_1Asset_1_1GeometryData.html#a00f83425f2eb4a1ea3265b438d3e1992" target="_top" xlink:title="Return the Transform of the object. ">
<polygon fill="#ffffff" stroke="#000000" points="265.5,-294.5 265.5,-324.5 411.5,-324.5 411.5,-294.5 265.5,-294.5"/>
<text text-anchor="start" x="273.5" y="-312.5" font-family="Helvetica,sans-Serif" font-size="10.00" fill="#000000">Ra::Core::Asset::Geometry</text>
<text text-anchor="middle" x="338.5" y="-301.5" font-family="Helvetica,sans-Serif" font-size="10.00" fill="#000000">Data::getFrame</text>
</a>
</g>
</g>
<!-- Node1&#45;&gt;Node21 -->
<g id="edge20" class="edge">
<title>Node1&#45;&gt;Node21</title>
<path fill="none" stroke="#191970" d="M101.8165,-612.2321C110.0472,-563.497 142.5132,-410.4167 235,-334.5 241.1786,-329.4284 248.223,-325.3568 255.6643,-322.0921"/>
<polygon fill="#191970" stroke="#191970" points="257.2056,-325.2486 265.2671,-318.3738 254.678,-318.7209 257.2056,-325.2486"/>
</g>
<!-- Node22 -->
<g id="node22" class="node">
<title>Node22</title>
<g id="a_node22"><a xlink:href="namespaceRa_1_1Engine_1_1EngineMaterialConverters.html#ad440019d5fdaa657b3a483a705dc3657" target="_top" xlink:title="Ra::Engine::EngineMaterial\lConverters::getMaterialConverter">
<polygon fill="#ffffff" stroke="#000000" points="249,-245.5 249,-275.5 428,-275.5 428,-245.5 249,-245.5"/>
<text text-anchor="start" x="257" y="-263.5" font-family="Helvetica,sans-Serif" font-size="10.00" fill="#000000">Ra::Engine::EngineMaterial</text>
<text text-anchor="middle" x="338.5" y="-252.5" font-family="Helvetica,sans-Serif" font-size="10.00" fill="#000000">Converters::getMaterialConverter</text>
</a>
</g>
</g>
<!-- Node1&#45;&gt;Node22 -->
<g id="edge21" class="edge">
<title>Node1&#45;&gt;Node22</title>
<path fill="none" stroke="#191970" d="M100.6918,-612.4347C105.7638,-558.9275 130.3795,-376.3908 235,-285.5 236.9537,-283.8027 239.0032,-282.2163 241.1323,-280.7337"/>
<polygon fill="#191970" stroke="#191970" points="242.9826,-283.7049 249.704,-275.515 239.3424,-277.7258 242.9826,-283.7049"/>
</g>
<!-- Node23 -->
<g id="node23" class="node">
<title>Node23</title>
<g id="a_node23"><a xlink:href="classRa_1_1Core_1_1Asset_1_1MaterialData.html#aca3bb0601cd8a60732bfa08205576c57" target="_top" xlink:title="TYPE. ">
<polygon fill="#ffffff" stroke="#000000" points="270,-196.5 270,-226.5 407,-226.5 407,-196.5 270,-196.5"/>
<text text-anchor="start" x="278" y="-214.5" font-family="Helvetica,sans-Serif" font-size="10.00" fill="#000000">Ra::Core::Asset::Material</text>
<text text-anchor="middle" x="338.5" y="-203.5" font-family="Helvetica,sans-Serif" font-size="10.00" fill="#000000">Data::getType</text>
</a>
</g>
</g>
<!-- Node1&#45;&gt;Node23 -->
<g id="edge22" class="edge">
<title>Node1&#45;&gt;Node23</title>
<path fill="none" stroke="#191970" d="M102.7176,-612.3676C116.8909,-547.0736 175.6892,-290.3419 235,-236.5 242.3397,-229.8371 251.1459,-224.8686 260.4821,-221.1771"/>
<polygon fill="#191970" stroke="#191970" points="261.6558,-224.4747 269.9604,-217.8957 259.3657,-217.8599 261.6558,-224.4747"/>
</g>
<!-- Node24 -->
<g id="node24" class="node">
<title>Node24</title>
<g id="a_node24"><a xlink:href="classRa_1_1Engine_1_1RenderObject.html#a1caa13e664fd949edb8b432616e78fbc" target="_top" xlink:title="Ra::Engine::RenderObject\l::createRenderObject">
<polygon fill="#ffffff" stroke="#000000" points="268.5,-147.5 268.5,-177.5 408.5,-177.5 408.5,-147.5 268.5,-147.5"/>
<text text-anchor="start" x="276.5" y="-165.5" font-family="Helvetica,sans-Serif" font-size="10.00" fill="#000000">Ra::Engine::RenderObject</text>
<text text-anchor="middle" x="338.5" y="-154.5" font-family="Helvetica,sans-Serif" font-size="10.00" fill="#000000">::createRenderObject</text>
</a>
</g>
</g>
<!-- Node1&#45;&gt;Node24 -->
<g id="edge23" class="edge">
<title>Node1&#45;&gt;Node24</title>
<path fill="none" stroke="#191970" d="M102.0975,-612.416C114.4625,-542.306 169.4848,-249.0906 235,-187.5 241.8247,-181.0841 250.0027,-176.2287 258.7309,-172.5672"/>
<polygon fill="#191970" stroke="#191970" points="260.186,-175.762 268.3798,-169.0455 257.7859,-169.1863 260.186,-175.762"/>
</g>
<!-- Node27 -->
<g id="node27" class="node">
<title>Node27</title>
<g id="a_node27"><a xlink:href="classRa_1_1Engine_1_1RenderObject.html#a96ad4a09262781b68118922a41505430" target="_top" xlink:title="Ra::Engine::RenderObject\l::setTransparent">
<polygon fill="#ffffff" stroke="#000000" points="268.5,-98.5 268.5,-128.5 408.5,-128.5 408.5,-98.5 268.5,-98.5"/>
<text text-anchor="start" x="276.5" y="-116.5" font-family="Helvetica,sans-Serif" font-size="10.00" fill="#000000">Ra::Engine::RenderObject</text>
<text text-anchor="middle" x="338.5" y="-105.5" font-family="Helvetica,sans-Serif" font-size="10.00" fill="#000000">::setTransparent</text>
</a>
</g>
</g>
<!-- Node1&#45;&gt;Node27 -->
<g id="edge26" class="edge">
<title>Node1&#45;&gt;Node27</title>
<path fill="none" stroke="#191970" d="M101.6091,-612.2355C112.3017,-537.0215 162.8536,-206.6829 235,-137.5 241.8674,-130.9147 250.1693,-126.0088 259.0489,-122.3729"/>
<polygon fill="#191970" stroke="#191970" points="260.2227,-125.6703 268.4756,-119.0264 257.8808,-119.0736 260.2227,-125.6703"/>
</g>
<!-- Node28 -->
<g id="node28" class="node">
<title>Node28</title>
<g id="a_node28"><a xlink:href="classRa_1_1Engine_1_1TriangleMeshComponent.html#aa691e07a75bc18fd27104e691c988bdf" target="_top" xlink:title="Ra::Engine::TriangleMesh\lComponent::setupIO">
<polygon fill="#ffffff" stroke="#000000" points="269.5,-49.5 269.5,-79.5 407.5,-79.5 407.5,-49.5 269.5,-49.5"/>
<text text-anchor="start" x="277.5" y="-67.5" font-family="Helvetica,sans-Serif" font-size="10.00" fill="#000000">Ra::Engine::TriangleMesh</text>
<text text-anchor="middle" x="338.5" y="-56.5" font-family="Helvetica,sans-Serif" font-size="10.00" fill="#000000">Component::setupIO</text>
</a>
</g>
</g>
<!-- Node1&#45;&gt;Node28 -->
<g id="edge27" class="edge">
<title>Node1&#45;&gt;Node28</title>
<path fill="none" stroke="#191970" d="M101.1913,-612.3321C110.3494,-532.8984 156.5074,-165.5591 235,-88.5 241.9849,-81.6427 250.5213,-76.597 259.6659,-72.9065"/>
<polygon fill="#191970" stroke="#191970" points="261.0792,-76.1208 269.3762,-69.5321 258.7813,-69.5087 261.0792,-76.1208"/>
</g>
<!-- Node31 -->
<g id="node31" class="node">
<title>Node31</title>
<g id="a_node31"><a xlink:href="classRa_1_1Engine_1_1Component.html#aea20d8186eb969b255cd83218a809178" target="_top" xlink:title="Add a new render object to the component. This adds the RO to the manager for drawing. ">
<polygon fill="#ffffff" stroke="#000000" points="273,-.5 273,-30.5 404,-30.5 404,-.5 273,-.5"/>
<text text-anchor="start" x="281" y="-18.5" font-family="Helvetica,sans-Serif" font-size="10.00" fill="#000000">Ra::Engine::Component</text>
<text text-anchor="middle" x="338.5" y="-7.5" font-family="Helvetica,sans-Serif" font-size="10.00" fill="#000000">::addRenderObject</text>
</a>
</g>
</g>
<!-- Node1&#45;&gt;Node31 -->
<g id="edge30" class="edge">
<title>Node1&#45;&gt;Node31</title>
<path fill="none" stroke="#191970" d="M100.8499,-612.3644C108.6054,-528.7942 150.1489,-124.4673 235,-39.5 242.8337,-31.6556 252.6937,-26.1717 263.197,-22.3722"/>
<polygon fill="#191970" stroke="#191970" points="264.4695,-25.6421 272.984,-19.3371 262.396,-18.9563 264.4695,-25.6421"/>
</g>
<!-- Node25 -->
<g id="node25" class="node">
<title>Node25</title>
<g id="a_node25"><a xlink:href="classRa_1_1Engine_1_1RenderObject.html#acf300c8fdb55fee54d27b3fb46a1e523" target="_top" xlink:title="Ra::Engine::RenderObject\l::RenderObject">
<polygon fill="#ffffff" stroke="#000000" points="497.5,-147.5 497.5,-177.5 637.5,-177.5 637.5,-147.5 497.5,-147.5"/>
<text text-anchor="start" x="505.5" y="-165.5" font-family="Helvetica,sans-Serif" font-size="10.00" fill="#000000">Ra::Engine::RenderObject</text>
<text text-anchor="middle" x="567.5" y="-154.5" font-family="Helvetica,sans-Serif" font-size="10.00" fill="#000000">::RenderObject</text>
</a>
</g>
</g>
<!-- Node24&#45;&gt;Node25 -->
<g id="edge24" class="edge">
<title>Node24&#45;&gt;Node25</title>
<path fill="none" stroke="#191970" d="M408.7638,-162.5C433.6025,-162.5 461.7231,-162.5 487.3218,-162.5"/>
<polygon fill="#191970" stroke="#191970" points="487.3691,-166.0001 497.369,-162.5 487.369,-159.0001 487.3691,-166.0001"/>
</g>
<!-- Node26 -->
<g id="node26" class="node">
<title>Node26</title>
<g id="a_node26"><a xlink:href="classRa_1_1Engine_1_1RenderObject.html#a8ea17931e62bea93890d44815bf7fcf5" target="_top" xlink:title="Ra::Engine::RenderObject\l::~RenderObject">
<polygon fill="#ffffff" stroke="#000000" points="693,-147.5 693,-177.5 833,-177.5 833,-147.5 693,-147.5"/>
<text text-anchor="start" x="701" y="-165.5" font-family="Helvetica,sans-Serif" font-size="10.00" fill="#000000">Ra::Engine::RenderObject</text>
<text text-anchor="middle" x="763" y="-154.5" font-family="Helvetica,sans-Serif" font-size="10.00" fill="#000000">::~RenderObject</text>
</a>
</g>
</g>
<!-- Node25&#45;&gt;Node26 -->
<g id="edge25" class="edge">
<title>Node25&#45;&gt;Node26</title>
<path fill="none" stroke="#191970" d="M637.5278,-162.5C652.1272,-162.5 667.6259,-162.5 682.5671,-162.5"/>
<polygon fill="#191970" stroke="#191970" points="682.8041,-166.0001 692.8041,-162.5 682.804,-159.0001 682.8041,-166.0001"/>
</g>
<!-- Node29 -->
<g id="node29" class="node">
<title>Node29</title>
<g id="a_node29"><a xlink:href="classRa_1_1Engine_1_1Component.html#a2fea450b5fd9ea6a6e9b0ce1847b9727" target="_top" xlink:title="Return the entity the component belongs to. ">
<polygon fill="#ffffff" stroke="#000000" points="502,-98.5 502,-128.5 633,-128.5 633,-98.5 502,-98.5"/>
<text text-anchor="start" x="510" y="-116.5" font-family="Helvetica,sans-Serif" font-size="10.00" fill="#000000">Ra::Engine::Component</text>
<text text-anchor="middle" x="567.5" y="-105.5" font-family="Helvetica,sans-Serif" font-size="10.00" fill="#000000">::getEntity</text>
</a>
</g>
</g>
<!-- Node28&#45;&gt;Node29 -->
<g id="edge28" class="edge">
<title>Node28&#45;&gt;Node29</title>
<path fill="none" stroke="#191970" d="M407.5181,-79.2681C434.1429,-84.9651 464.6856,-91.5004 491.9007,-97.3237"/>
<polygon fill="#191970" stroke="#191970" points="491.2524,-100.7642 501.7634,-99.4341 492.7171,-93.9191 491.2524,-100.7642"/>
</g>
<!-- Node30 -->
<g id="node30" class="node">
<title>Node30</title>
<g id="a_node30"><a xlink:href="classRa_1_1Engine_1_1GeometryComponent.html#acd66e05ec26dd556df24c544cee48440" target="_top" xlink:title="Ra::Engine::GeometryComponent\l::setupIO">
<polygon fill="#ffffff" stroke="#000000" points="478,-49.5 478,-79.5 657,-79.5 657,-49.5 478,-49.5"/>
<text text-anchor="start" x="486" y="-67.5" font-family="Helvetica,sans-Serif" font-size="10.00" fill="#000000">Ra::Engine::GeometryComponent</text>
<text text-anchor="middle" x="567.5" y="-56.5" font-family="Helvetica,sans-Serif" font-size="10.00" fill="#000000">::setupIO</text>
</a>
</g>
</g>
<!-- Node28&#45;&gt;Node30 -->
<g id="edge29" class="edge">
<title>Node28&#45;&gt;Node30</title>
<path fill="none" stroke="#191970" d="M407.5181,-64.5C426.445,-64.5 447.3518,-64.5 467.6356,-64.5"/>
<polygon fill="#191970" stroke="#191970" points="467.8505,-68.0001 477.8505,-64.5 467.8505,-61.0001 467.8505,-68.0001"/>
</g>
<!-- Node32 -->
<g id="node32" class="node">
<title>Node32</title>
<g id="a_node32"><a xlink:href="classRa_1_1Engine_1_1Component.html#a10b0bc182b76165744ebea603ae32dfe" target="_top" xlink:title="Shortcut to access the render object manager. ">
<polygon fill="#ffffff" stroke="#000000" points="502,-.5 502,-30.5 633,-30.5 633,-.5 502,-.5"/>
<text text-anchor="start" x="510" y="-18.5" font-family="Helvetica,sans-Serif" font-size="10.00" fill="#000000">Ra::Engine::Component</text>
<text text-anchor="middle" x="567.5" y="-7.5" font-family="Helvetica,sans-Serif" font-size="10.00" fill="#000000">::getRoMgr</text>
</a>
</g>
</g>
<!-- Node31&#45;&gt;Node32 -->
<g id="edge31" class="edge">
<title>Node31&#45;&gt;Node32</title>
<path fill="none" stroke="#191970" d="M404.1222,-15.5C431.431,-15.5 463.3065,-15.5 491.6152,-15.5"/>
<polygon fill="#191970" stroke="#191970" points="491.8682,-19.0001 501.8682,-15.5 491.8682,-12.0001 491.8682,-19.0001"/>
</g>
</g>
</svg>
        <g id="navigator" transform="translate(0 0)" fill="#404254">
                <rect fill="#f2f5e9" fill-opacity="0.5" stroke="#606060" stroke-width=".5" x="0" y="0" width="60" height="60"/>
                <use id="zoomplus" xlink:href="#zoomPlus" x="17" y="9" onmousedown="handleZoom(evt,'in')"/>
                <use id="zoomminus" xlink:href="#zoomMin" x="42" y="9" onmousedown="handleZoom(evt,'out')"/>
                <use id="reset" xlink:href="#resetDef" x="30" y="36" onmousedown="handleReset()"/>
                <g id="arrowUp" xlink:href="#dirArrow" transform="translate(30 24)" onmousedown="handlePan(0,-1)">
                  <use xlink:href="#rim" fill="#404040">
                        <set attributeName="fill" to="#808080" begin="arrowUp.mouseover" end="arrowUp.mouseout"/>
                  </use>
                  <path fill="none" stroke="white" stroke-width="1.5" d="M0,-3.0v7 M-2.5,-0.5L0,-3.0L2.5,-0.5"/>
                </g>
                <g id="arrowRight" xlink:href="#dirArrow" transform="rotate(90) translate(36 -43)" onmousedown="handlePan(1,0)">
                  <use xlink:href="#rim" fill="#404040">
                        <set attributeName="fill" to="#808080" begin="arrowRight.mouseover" end="arrowRight.mouseout"/>
                  </use>
                  <path fill="none" stroke="white" stroke-width="1.5" d="M0,-3.0v7 M-2.5,-0.5L0,-3.0L2.5,-0.5"/>
                </g>
                <g id="arrowDown" xlink:href="#dirArrow" transform="rotate(180) translate(-30 -48)" onmousedown="handlePan(0,1)">
                  <use xlink:href="#rim" fill="#404040">
                        <set attributeName="fill" to="#808080" begin="arrowDown.mouseover" end="arrowDown.mouseout"/>
                  </use>
                  <path fill="none" stroke="white" stroke-width="1.5" d="M0,-3.0v7 M-2.5,-0.5L0,-3.0L2.5,-0.5"/>
                </g>
                <g id="arrowLeft" xlink:href="#dirArrow" transform="rotate(270) translate(-36 17)" onmousedown="handlePan(-1,0)">
                  <use xlink:href="#rim" fill="#404040">
                        <set attributeName="fill" to="#808080" begin="arrowLeft.mouseover" end="arrowLeft.mouseout"/>
                  </use>
                  <path fill="none" stroke="white" stroke-width="1.5" d="M0,-3.0v7 M-2.5,-0.5L0,-3.0L2.5,-0.5"/>
                </g>
        </g>
        <svg viewBox="0 0 15 15" width="100%" height="30px" preserveAspectRatio="xMaxYMin meet">
         <g id="arrow_out" transform="scale(0.3 0.3)">
          <a xlink:href="classRa_1_1Engine_1_1TriangleMeshComponent_a1a322bc492dcf23aa11d4d925856172f_cgraph_org.svg" target="_base">
           <rect id="button" ry="5" rx="5" y="6" x="6" height="38" width="38"
                fill="#f2f5e9" fill-opacity="0.5" stroke="#606060" stroke-width="1.0"/>
           <path id="arrow"
             d="M 11.500037,31.436501 C 11.940474,20.09759 22.043105,11.32322 32.158766,21.979434 L 37.068811,17.246167 C 37.068811,17.246167 37.088388,32 37.088388,32 L 22.160133,31.978069 C 22.160133,31.978069 26.997745,27.140456 26.997745,27.140456 C 18.528582,18.264221 13.291696,25.230495 11.500037,31.436501 z"
             style="fill:#404040;"/>
          </a>
         </g>
        </svg>
</svg>
