<?xml version="1.0" encoding="UTF-8" standalone="no"?>
<!DOCTYPE svg PUBLIC "-//W3C//DTD SVG 1.1//EN"
 "http://www.w3.org/Graphics/SVG/1.1/DTD/svg11.dtd">
<!-- Generated by graphviz version 2.40.1 (20161225.0304)
 -->
<!-- Title: Ra::Engine::DebugRender::initialize Pages: 1 -->
<svg width="566pt" height="88pt"
 viewBox="0.00 0.00 566.00 88.00" xmlns="http://www.w3.org/2000/svg" xmlns:xlink="http://www.w3.org/1999/xlink">
<g id="graph0" class="graph" transform="scale(1 1) rotate(0) translate(4 84)">
<title>Ra::Engine::DebugRender::initialize</title>
<polygon fill="#ffffff" stroke="transparent" points="-4,4 -4,-84 562,-84 562,4 -4,4"/>
<!-- Node73 -->
<g id="node1" class="node">
<title>Node73</title>
<polygon fill="#bfbfbf" stroke="#000000" points="0,-24.5 0,-54.5 140,-54.5 140,-24.5 0,-24.5"/>
<text text-anchor="start" x="8" y="-42.5" font-family="Helvetica,sans-Serif" font-size="10.00" fill="#000000">Ra::Engine::DebugRender</text>
<text text-anchor="middle" x="70" y="-31.5" font-family="Helvetica,sans-Serif" font-size="10.00" fill="#000000">::initialize</text>
</g>
<!-- Node74 -->
<g id="node2" class="node">
<title>Node74</title>
<g id="a_node2"><a xlink:href="classRa_1_1Engine_1_1ShaderConfiguration.html#a01b1f142d289033a7ef850625426f12e" target="_top" xlink:title="Ra::Engine::ShaderConfiguration\l::addShaderSource">
<polygon fill="#ffffff" stroke="#000000" points="176,-49.5 176,-79.5 349,-79.5 349,-49.5 176,-49.5"/>
<text text-anchor="start" x="184" y="-67.5" font-family="Helvetica,sans-Serif" font-size="10.00" fill="#000000">Ra::Engine::ShaderConfiguration</text>
<text text-anchor="middle" x="262.5" y="-56.5" font-family="Helvetica,sans-Serif" font-size="10.00" fill="#000000">::addShaderSource</text>
</a>
</g>
</g>
<!-- Node73&#45;&gt;Node74 -->
<g id="edge1" class="edge">
<title>Node73&#45;&gt;Node74</title>
<path fill="none" stroke="#191970" d="M140.0415,-48.5963C148.3862,-49.68 157.0155,-50.8007 165.6512,-51.9222"/>
<polygon fill="#191970" stroke="#191970" points="165.4075,-55.4199 175.7751,-53.237 166.3091,-48.4782 165.4075,-55.4199"/>
</g>
<!-- Node75 -->
<g id="node3" class="node">
<title>Node75</title>
<g id="a_node3"><a xlink:href="classRa_1_1Engine_1_1ShaderProgramManager.html#a82a7361639c0fbd401447e2d253dc961" target="_top" xlink:title="Ra::Engine::ShaderProgram\lManager::addShaderProgram">
<polygon fill="#ffffff" stroke="#000000" points="183.5,-.5 183.5,-30.5 341.5,-30.5 341.5,-.5 183.5,-.5"/>
<text text-anchor="start" x="191.5" y="-18.5" font-family="Helvetica,sans-Serif" font-size="10.00" fill="#000000">Ra::Engine::ShaderProgram</text>
<text text-anchor="middle" x="262.5" y="-7.5" font-family="Helvetica,sans-Serif" font-size="10.00" fill="#000000">Manager::addShaderProgram</text>
</a>
</g>
</g>
<!-- Node73&#45;&gt;Node75 -->
<g id="edge2" class="edge">
<title>Node73&#45;&gt;Node75</title>
<path fill="none" stroke="#191970" d="M140.0415,-30.7676C150.8235,-29.4233 162.0805,-28.0198 173.2126,-26.6319"/>
<polygon fill="#191970" stroke="#191970" points="173.8935,-30.0742 183.3837,-25.3639 173.0274,-23.128 173.8935,-30.0742"/>
</g>
<!-- Node76 -->
<g id="node4" class="node">
<title>Node76</title>
<g id="a_node4"><a xlink:href="classRa_1_1Engine_1_1ShaderConfiguration.html#a90822998fc1253faf6655348f7d9f43e" target="_top" xlink:title="Ra::Engine::ShaderConfiguration\l::getNamedStrings">
<polygon fill="#ffffff" stroke="#000000" points="385,-.5 385,-30.5 558,-30.5 558,-.5 385,-.5"/>
<text text-anchor="start" x="393" y="-18.5" font-family="Helvetica,sans-Serif" font-size="10.00" fill="#000000">Ra::Engine::ShaderConfiguration</text>
<text text-anchor="middle" x="471.5" y="-7.5" font-family="Helvetica,sans-Serif" font-size="10.00" fill="#000000">::getNamedStrings</text>
</a>
</g>
</g>
<!-- Node75&#45;&gt;Node76 -->
<g id="edge3" class="edge">
<title>Node75&#45;&gt;Node76</title>
<path fill="none" stroke="#191970" d="M341.5139,-15.5C352.3113,-15.5 363.4953,-15.5 374.5655,-15.5"/>
<polygon fill="#191970" stroke="#191970" points="374.6856,-19.0001 384.6856,-15.5 374.6856,-12.0001 374.6856,-19.0001"/>
</g>
</g>
</svg>
