<?xml version="1.0" encoding="UTF-8" standalone="no"?>
<!DOCTYPE svg PUBLIC "-//W3C//DTD SVG 1.1//EN"
 "http://www.w3.org/Graphics/SVG/1.1/DTD/svg11.dtd">
<!-- Generated by graphviz version 2.40.1 (20161225.0304)
 -->
<!-- Title: Ra::Engine::AttribArrayDisplayable Pages: 1 -->
<svg width="1045pt" height="816pt"
 viewBox="0.00 0.00 1045.00 816.00" xmlns="http://www.w3.org/2000/svg" xmlns:xlink="http://www.w3.org/1999/xlink">
<g id="graph0" class="graph" transform="scale(1 1) rotate(0) translate(4 812)">
<title>Ra::Engine::AttribArrayDisplayable</title>
<polygon fill="#ffffff" stroke="transparent" points="-4,4 -4,-812 1041,-812 1041,4 -4,4"/>
<!-- Node13 -->
<g id="node1" class="node">
<title>Node13</title>
<polygon fill="#bfbfbf" stroke="#000000" points="297.5,-.5 297.5,-222.5 482.5,-222.5 482.5,-.5 297.5,-.5"/>
<text text-anchor="middle" x="390" y="-210.5" font-family="Helvetica,sans-Serif" font-size="10.00" fill="#000000">Ra::Engine::AttribArrayDisplayable</text>
<polyline fill="none" stroke="#000000" points="297.5,-203.5 482.5,-203.5 "/>
<text text-anchor="middle" x="390" y="-191.5" font-family="Helvetica,sans-Serif" font-size="10.00" fill="#000000"> </text>
<polyline fill="none" stroke="#000000" points="297.5,-184.5 482.5,-184.5 "/>
<text text-anchor="start" x="305.5" y="-172.5" font-family="Helvetica,sans-Serif" font-size="10.00" fill="#000000">+ AttribArrayDisplayable()</text>
<text text-anchor="start" x="305.5" y="-161.5" font-family="Helvetica,sans-Serif" font-size="10.00" fill="#000000">+ AttribArrayDisplayable()</text>
<text text-anchor="start" x="305.5" y="-150.5" font-family="Helvetica,sans-Serif" font-size="10.00" fill="#000000">+ operator=()</text>
<text text-anchor="start" x="305.5" y="-139.5" font-family="Helvetica,sans-Serif" font-size="10.00" fill="#000000">+ ~AttribArrayDisplayable()</text>
<text text-anchor="start" x="305.5" y="-128.5" font-family="Helvetica,sans-Serif" font-size="10.00" fill="#000000">+ setRenderMode()</text>
<text text-anchor="start" x="305.5" y="-117.5" font-family="Helvetica,sans-Serif" font-size="10.00" fill="#000000">+ getRenderMode()</text>
<text text-anchor="start" x="305.5" y="-106.5" font-family="Helvetica,sans-Serif" font-size="10.00" fill="#000000">+ updateGL()</text>
<text text-anchor="start" x="305.5" y="-95.5" font-family="Helvetica,sans-Serif" font-size="10.00" fill="#000000">+ setDirty()</text>
<text text-anchor="start" x="305.5" y="-84.5" font-family="Helvetica,sans-Serif" font-size="10.00" fill="#000000">+ setDirty()</text>
<text text-anchor="start" x="305.5" y="-73.5" font-family="Helvetica,sans-Serif" font-size="10.00" fill="#000000">+ setDirty()</text>
<text text-anchor="start" x="305.5" y="-62.5" font-family="Helvetica,sans-Serif" font-size="10.00" fill="#000000">+ getAttribName()</text>
<text text-anchor="start" x="305.5" y="-51.5" font-family="Helvetica,sans-Serif" font-size="10.00" fill="#000000"># updatePickingRenderMode()</text>
<text text-anchor="start" x="305.5" y="-40.5" font-family="Helvetica,sans-Serif" font-size="10.00" fill="#000000">* setDirty()</text>
<text text-anchor="start" x="305.5" y="-29.5" font-family="Helvetica,sans-Serif" font-size="10.00" fill="#000000">* setDirty()</text>
<text text-anchor="start" x="305.5" y="-18.5" font-family="Helvetica,sans-Serif" font-size="10.00" fill="#000000">* setDirty()</text>
<text text-anchor="start" x="305.5" y="-7.5" font-family="Helvetica,sans-Serif" font-size="10.00" fill="#000000">* getAttribName()</text>
</g>
<!-- Node14 -->
<g id="node2" class="node">
<title>Node14</title>
<g id="a_node2"><a xlink:href="classRa_1_1Engine_1_1Displayable.html" target="_top" xlink:title="{Ra::Engine::Displayable\n||+ Displayable()\l+ Displayable()\l+ operator=()\l+ ~Displayable()\l+ pickingRenderMode()\l+ getName()\l+ getAbstractGeometry()\l+ getAbstractGeometry()\l+ updateGL()\l+ render()\l+ getNumFaces()\l+ getNumVertices()\l}">
<polygon fill="#ffffff" stroke="#000000" points="0,-270.5 0,-448.5 140,-448.5 140,-270.5 0,-270.5"/>
<text text-anchor="middle" x="70" y="-436.5" font-family="Helvetica,sans-Serif" font-size="10.00" fill="#000000">Ra::Engine::Displayable</text>
<polyline fill="none" stroke="#000000" points="0,-429.5 140,-429.5 "/>
<text text-anchor="middle" x="70" y="-417.5" font-family="Helvetica,sans-Serif" font-size="10.00" fill="#000000"> </text>
<polyline fill="none" stroke="#000000" points="0,-410.5 140,-410.5 "/>
<text text-anchor="start" x="8" y="-398.5" font-family="Helvetica,sans-Serif" font-size="10.00" fill="#000000">+ Displayable()</text>
<text text-anchor="start" x="8" y="-387.5" font-family="Helvetica,sans-Serif" font-size="10.00" fill="#000000">+ Displayable()</text>
<text text-anchor="start" x="8" y="-376.5" font-family="Helvetica,sans-Serif" font-size="10.00" fill="#000000">+ operator=()</text>
<text text-anchor="start" x="8" y="-365.5" font-family="Helvetica,sans-Serif" font-size="10.00" fill="#000000">+ ~Displayable()</text>
<text text-anchor="start" x="8" y="-354.5" font-family="Helvetica,sans-Serif" font-size="10.00" fill="#000000">+ pickingRenderMode()</text>
<text text-anchor="start" x="8" y="-343.5" font-family="Helvetica,sans-Serif" font-size="10.00" fill="#000000">+ getName()</text>
<text text-anchor="start" x="8" y="-332.5" font-family="Helvetica,sans-Serif" font-size="10.00" fill="#000000">+ getAbstractGeometry()</text>
<text text-anchor="start" x="8" y="-321.5" font-family="Helvetica,sans-Serif" font-size="10.00" fill="#000000">+ getAbstractGeometry()</text>
<text text-anchor="start" x="8" y="-310.5" font-family="Helvetica,sans-Serif" font-size="10.00" fill="#000000">+ updateGL()</text>
<text text-anchor="start" x="8" y="-299.5" font-family="Helvetica,sans-Serif" font-size="10.00" fill="#000000">+ render()</text>
<text text-anchor="start" x="8" y="-288.5" font-family="Helvetica,sans-Serif" font-size="10.00" fill="#000000">+ getNumFaces()</text>
<text text-anchor="start" x="8" y="-277.5" font-family="Helvetica,sans-Serif" font-size="10.00" fill="#000000">+ getNumVertices()</text>
</a>
</g>
</g>
<!-- Node14&#45;&gt;Node13 -->
<g id="edge1" class="edge">
<title>Node14&#45;&gt;Node13</title>
<path fill="none" stroke="#191970" d="M147.6064,-271.2177C148.0707,-270.8092 148.5353,-270.4032 149,-270 194.5776,-230.4514 250.6444,-193.0166 297.2277,-164.4681"/>
<polygon fill="none" stroke="#191970" points="145.1496,-268.7211 140.1117,-278.0416 149.8623,-273.8971 145.1496,-268.7211"/>
</g>
<!-- Node15 -->
<g id="node3" class="node">
<title>Node15</title>
<polygon fill="#ffffff" stroke="#bfbfbf" points="14,-513 14,-570 126,-570 126,-513 14,-513"/>
<text text-anchor="middle" x="70" y="-558" font-family="Helvetica,sans-Serif" font-size="10.00" fill="#000000">PickingRenderMode</text>
<polyline fill="none" stroke="#bfbfbf" points="14,-551 126,-551 "/>
<text text-anchor="middle" x="70" y="-539" font-family="Helvetica,sans-Serif" font-size="10.00" fill="#000000"> </text>
<polyline fill="none" stroke="#bfbfbf" points="14,-532 126,-532 "/>
<text text-anchor="middle" x="70" y="-520" font-family="Helvetica,sans-Serif" font-size="10.00" fill="#000000"> </text>
</g>
<!-- Node15&#45;&gt;Node14 -->
<g id="edge2" class="edge">
<title>Node15&#45;&gt;Node14</title>
<path fill="none" stroke="#404040" d="M70,-512.6616C70,-498.2868 70,-479.948 70,-460.9937"/>
<polygon fill="none" stroke="#404040" points="70.0001,-460.8151 66,-454.8151 70,-448.8151 74,-454.815 70.0001,-460.8151"/>
<text text-anchor="middle" x="131" y="-475.5" font-family="Helvetica,sans-Serif" font-size="10.00" fill="#000000"> #m_pickingRenderMode</text>
</g>
<!-- Node16 -->
<g id="node4" class="node">
<title>Node16</title>
<polygon fill="#ffffff" stroke="#bfbfbf" points="158,-331 158,-388 260,-388 260,-331 158,-331"/>
<text text-anchor="middle" x="209" y="-376" font-family="Helvetica,sans-Serif" font-size="10.00" fill="#000000">MeshRenderMode</text>
<polyline fill="none" stroke="#bfbfbf" points="158,-369 260,-369 "/>
<text text-anchor="middle" x="209" y="-357" font-family="Helvetica,sans-Serif" font-size="10.00" fill="#000000"> </text>
<polyline fill="none" stroke="#bfbfbf" points="158,-350 260,-350 "/>
<text text-anchor="middle" x="209" y="-338" font-family="Helvetica,sans-Serif" font-size="10.00" fill="#000000"> </text>
</g>
<!-- Node16&#45;&gt;Node13 -->
<g id="edge3" class="edge">
<title>Node16&#45;&gt;Node13</title>
<path fill="none" stroke="#404040" d="M202.3262,-330.9626C197.9958,-305.8205 195.526,-268.9526 210,-241 227.0171,-208.136 256.6363,-181.6928 286.9933,-161.4823"/>
<polygon fill="none" stroke="#404040" points="287.2008,-161.3492 290.0894,-154.7419 297.2994,-154.867 294.4108,-161.4743 287.2008,-161.3492"/>
<text text-anchor="middle" x="252.5" y="-244" font-family="Helvetica,sans-Serif" font-size="10.00" fill="#000000"> #m_renderMode</text>
</g>
<!-- Node17 -->
<g id="node5" class="node">
<title>Node17</title>
<polygon fill="#ffffff" stroke="#bfbfbf" points="236.5,-507.5 236.5,-575.5 381.5,-575.5 381.5,-507.5 236.5,-507.5"/>
<text text-anchor="start" x="244.5" y="-563.5" font-family="Helvetica,sans-Serif" font-size="10.00" fill="#000000">std::unique_ptr&lt; globjects</text>
<text text-anchor="middle" x="309" y="-552.5" font-family="Helvetica,sans-Serif" font-size="10.00" fill="#000000">::VertexArray &gt;</text>
<polyline fill="none" stroke="#bfbfbf" points="236.5,-545.5 381.5,-545.5 "/>
<text text-anchor="middle" x="309" y="-533.5" font-family="Helvetica,sans-Serif" font-size="10.00" fill="#000000"> </text>
<polyline fill="none" stroke="#bfbfbf" points="236.5,-526.5 381.5,-526.5 "/>
<text text-anchor="start" x="244.5" y="-514.5" font-family="Helvetica,sans-Serif" font-size="10.00" fill="#000000">+ operator&#45;&gt;()</text>
</g>
<!-- Node17&#45;&gt;Node13 -->
<g id="edge4" class="edge">
<title>Node17&#45;&gt;Node13</title>
<path fill="none" stroke="#404040" d="M310.7955,-507.301C313.9883,-455.4915 322.0812,-354.2216 340,-270 342.4544,-258.4641 345.3996,-246.5713 348.6165,-234.7295"/>
<polygon fill="none" stroke="#404040" points="348.6869,-234.4774 346.4489,-227.6224 351.9158,-222.92 354.1538,-229.775 348.6869,-234.4774"/>
<text text-anchor="middle" x="362.5" y="-357" font-family="Helvetica,sans-Serif" font-size="10.00" fill="#000000"> #m_vao</text>
</g>
<!-- Node18 -->
<g id="node6" class="node">
<title>Node18</title>
<polygon fill="#ffffff" stroke="#bfbfbf" points="272,-634.5 272,-691.5 346,-691.5 346,-634.5 272,-634.5"/>
<text text-anchor="middle" x="309" y="-679.5" font-family="Helvetica,sans-Serif" font-size="10.00" fill="#000000">VertexArray</text>
<polyline fill="none" stroke="#bfbfbf" points="272,-672.5 346,-672.5 "/>
<text text-anchor="middle" x="309" y="-660.5" font-family="Helvetica,sans-Serif" font-size="10.00" fill="#000000"> </text>
<polyline fill="none" stroke="#bfbfbf" points="272,-653.5 346,-653.5 "/>
<text text-anchor="middle" x="309" y="-641.5" font-family="Helvetica,sans-Serif" font-size="10.00" fill="#000000"> </text>
</g>
<!-- Node18&#45;&gt;Node17 -->
<g id="edge5" class="edge">
<title>Node18&#45;&gt;Node17</title>
<path fill="none" stroke="#404040" d="M309,-634.2062C309,-620.3632 309,-603.4255 309,-587.8327"/>
<polygon fill="none" stroke="#404040" points="309.0001,-587.7007 305,-581.7008 309,-575.7007 313,-581.7007 309.0001,-587.7007"/>
<text text-anchor="middle" x="321.5" y="-602.5" font-family="Helvetica,sans-Serif" font-size="10.00" fill="#000000"> +ptr</text>
</g>
<!-- Node19 -->
<g id="node7" class="node">
<title>Node19</title>
<g id="a_node7"><a xlink:title="STL class. ">
<polygon fill="#ffffff" stroke="#bfbfbf" points="495,-634.5 495,-691.5 613,-691.5 613,-634.5 495,-634.5"/>
<text text-anchor="middle" x="554" y="-679.5" font-family="Helvetica,sans-Serif" font-size="10.00" fill="#000000">std::unique_ptr&lt; T &gt;</text>
<polyline fill="none" stroke="#bfbfbf" points="495,-672.5 613,-672.5 "/>
<text text-anchor="middle" x="554" y="-660.5" font-family="Helvetica,sans-Serif" font-size="10.00" fill="#000000"> </text>
<polyline fill="none" stroke="#bfbfbf" points="495,-653.5 613,-653.5 "/>
<text text-anchor="start" x="503" y="-641.5" font-family="Helvetica,sans-Serif" font-size="10.00" fill="#000000">+ operator&#45;&gt;()</text>
</a>
</g>
</g>
<!-- Node19&#45;&gt;Node17 -->
<g id="edge6" class="edge">
<title>Node19&#45;&gt;Node17</title>
<path fill="none" stroke="#ffa500" d="M485.2306,-636.9723C469.5253,-630.5236 453.0371,-623.3444 438,-616 413.2508,-603.912 386.7679,-588.9879 364.277,-575.6796"/>
<polygon fill="#ffa500" stroke="#ffa500" points="484.3058,-640.374 494.8882,-640.888 486.9361,-633.887 484.3058,-640.374"/>
<text text-anchor="middle" x="505" y="-602.5" font-family="Helvetica,sans-Serif" font-size="10.00" fill="#000000"> &lt; globjects::VertexArray &gt;</text>
</g>
<!-- Node29 -->
<g id="node17" class="node">
<title>Node29</title>
<polygon fill="#ffffff" stroke="#bfbfbf" points="623.5,-507.5 623.5,-575.5 768.5,-575.5 768.5,-507.5 623.5,-507.5"/>
<text text-anchor="start" x="631.5" y="-563.5" font-family="Helvetica,sans-Serif" font-size="10.00" fill="#000000">std::unique_ptr&lt; globjects</text>
<text text-anchor="middle" x="696" y="-552.5" font-family="Helvetica,sans-Serif" font-size="10.00" fill="#000000">::Buffer &gt;</text>
<polyline fill="none" stroke="#bfbfbf" points="623.5,-545.5 768.5,-545.5 "/>
<text text-anchor="middle" x="696" y="-533.5" font-family="Helvetica,sans-Serif" font-size="10.00" fill="#000000"> </text>
<polyline fill="none" stroke="#bfbfbf" points="623.5,-526.5 768.5,-526.5 "/>
<text text-anchor="start" x="631.5" y="-514.5" font-family="Helvetica,sans-Serif" font-size="10.00" fill="#000000">+ operator&#45;&gt;()</text>
</g>
<!-- Node19&#45;&gt;Node29 -->
<g id="edge19" class="edge">
<title>Node19&#45;&gt;Node29</title>
<path fill="none" stroke="#ffa500" d="M570.2171,-625.1775C576.2186,-614.1773 583.8391,-602.7746 593,-594 601.9141,-585.4617 612.4897,-577.9959 623.414,-571.5801"/>
<polygon fill="#ffa500" stroke="#ffa500" points="567.0098,-623.7615 565.5583,-634.2565 573.2377,-626.9574 567.0098,-623.7615"/>
<text text-anchor="middle" x="646" y="-602.5" font-family="Helvetica,sans-Serif" font-size="10.00" fill="#000000"> &lt; globjects::Buffer &gt;</text>
</g>
<!-- Node20 -->
<g id="node8" class="node">
<title>Node20</title>
<polygon fill="#ffffff" stroke="#bfbfbf" points="539.5,-745 539.5,-802 568.5,-802 568.5,-745 539.5,-745"/>
<text text-anchor="middle" x="554" y="-790" font-family="Helvetica,sans-Serif" font-size="10.00" fill="#000000">T</text>
<polyline fill="none" stroke="#bfbfbf" points="539.5,-783 568.5,-783 "/>
<text text-anchor="middle" x="554" y="-771" font-family="Helvetica,sans-Serif" font-size="10.00" fill="#000000"> </text>
<polyline fill="none" stroke="#bfbfbf" points="539.5,-764 568.5,-764 "/>
<text text-anchor="middle" x="554" y="-752" font-family="Helvetica,sans-Serif" font-size="10.00" fill="#000000"> </text>
</g>
<!-- Node20&#45;&gt;Node19 -->
<g id="edge7" class="edge">
<title>Node20&#45;&gt;Node19</title>
<path fill="none" stroke="#404040" d="M554,-744.7559C554,-732.2224 554,-717.3039 554,-703.6631"/>
<polygon fill="none" stroke="#404040" points="554.0001,-703.6002 550,-697.6002 554,-691.6002 558,-697.6002 554.0001,-703.6002"/>
<text text-anchor="middle" x="566.5" y="-713" font-family="Helvetica,sans-Serif" font-size="10.00" fill="#000000"> +ptr</text>
</g>
<!-- Node25 -->
<g id="node13" class="node">
<title>Node25</title>
<g id="a_node13"><a xlink:title="STL class. ">
<polygon fill="#ffffff" stroke="#bfbfbf" points="798.5,-634.5 798.5,-691.5 899.5,-691.5 899.5,-634.5 798.5,-634.5"/>
<text text-anchor="middle" x="849" y="-679.5" font-family="Helvetica,sans-Serif" font-size="10.00" fill="#000000">std::map&lt; K, T &gt;</text>
<polyline fill="none" stroke="#bfbfbf" points="798.5,-672.5 899.5,-672.5 "/>
<text text-anchor="middle" x="849" y="-660.5" font-family="Helvetica,sans-Serif" font-size="10.00" fill="#000000"> </text>
<polyline fill="none" stroke="#bfbfbf" points="798.5,-653.5 899.5,-653.5 "/>
<text text-anchor="middle" x="849" y="-641.5" font-family="Helvetica,sans-Serif" font-size="10.00" fill="#000000"> </text>
</a>
</g>
</g>
<!-- Node20&#45;&gt;Node25 -->
<g id="edge14" class="edge">
<title>Node20&#45;&gt;Node25</title>
<path fill="none" stroke="#404040" d="M568.6006,-769.1532C604.4483,-758.3383 699.7135,-728.7347 787.1632,-693.0159"/>
<polygon fill="none" stroke="#404040" points="787.2449,-692.9822 791.263,-686.9943 798.3357,-688.4002 794.3176,-694.3881 787.2449,-692.9822"/>
<text text-anchor="middle" x="769" y="-713" font-family="Helvetica,sans-Serif" font-size="10.00" fill="#000000"> +elements</text>
</g>
<!-- Node31 -->
<g id="node19" class="node">
<title>Node31</title>
<g id="a_node19"><a xlink:title="STL class. ">
<polygon fill="#ffffff" stroke="#bfbfbf" points="456.5,-513 456.5,-570 553.5,-570 553.5,-513 456.5,-513"/>
<text text-anchor="middle" x="505" y="-558" font-family="Helvetica,sans-Serif" font-size="10.00" fill="#000000">std::vector&lt; T &gt;</text>
<polyline fill="none" stroke="#bfbfbf" points="456.5,-551 553.5,-551 "/>
<text text-anchor="middle" x="505" y="-539" font-family="Helvetica,sans-Serif" font-size="10.00" fill="#000000"> </text>
<polyline fill="none" stroke="#bfbfbf" points="456.5,-532 553.5,-532 "/>
<text text-anchor="middle" x="505" y="-520" font-family="Helvetica,sans-Serif" font-size="10.00" fill="#000000"> </text>
</a>
</g>
</g>
<!-- Node20&#45;&gt;Node31 -->
<g id="edge21" class="edge">
<title>Node20&#45;&gt;Node31</title>
<path fill="none" stroke="#404040" d="M539.1297,-767.9277C512.7559,-757.2851 457.7692,-731.547 428,-692 406.7759,-663.8048 410.1668,-650.9104 405,-616 403.5685,-606.3276 399.6174,-602.1629 405,-594 416.1798,-577.0454 428.9003,-585.2111 447,-576 447.1142,-575.9419 447.2285,-575.8836 447.3429,-575.8252"/>
<polygon fill="none" stroke="#404040" points="447.5347,-575.7232 450.9509,-569.3726 458.1268,-570.0835 454.7107,-576.4341 447.5347,-575.7232"/>
<text text-anchor="middle" x="457" y="-660.5" font-family="Helvetica,sans-Serif" font-size="10.00" fill="#000000"> +elements</text>
</g>
<!-- Node21 -->
<g id="node9" class="node">
<title>Node21</title>
<polygon fill="#ffffff" stroke="#bfbfbf" points="787,-507.5 787,-575.5 909,-575.5 909,-507.5 787,-507.5"/>
<text text-anchor="start" x="795" y="-563.5" font-family="Helvetica,sans-Serif" font-size="10.00" fill="#000000">std::map&lt; std::string,</text>
<text text-anchor="middle" x="848" y="-552.5" font-family="Helvetica,sans-Serif" font-size="10.00" fill="#000000"> unsigned int &gt;</text>
<polyline fill="none" stroke="#bfbfbf" points="787,-545.5 909,-545.5 "/>
<text text-anchor="middle" x="848" y="-533.5" font-family="Helvetica,sans-Serif" font-size="10.00" fill="#000000"> </text>
<polyline fill="none" stroke="#bfbfbf" points="787,-526.5 909,-526.5 "/>
<text text-anchor="middle" x="848" y="-514.5" font-family="Helvetica,sans-Serif" font-size="10.00" fill="#000000"> </text>
</g>
<!-- Node21&#45;&gt;Node13 -->
<g id="edge8" class="edge">
<title>Node21&#45;&gt;Node13</title>
<path fill="none" stroke="#404040" d="M845.0966,-507.4287C838.5856,-451.163 818.0371,-338.27 755,-270 686.0973,-195.3775 575.9531,-154.19 494.6622,-132.646"/>
<polygon fill="none" stroke="#404040" points="494.5058,-132.6058 487.6968,-134.9802 482.8862,-129.6083 489.6951,-127.2338 494.5058,-132.6058"/>
<text text-anchor="middle" x="885" y="-357" font-family="Helvetica,sans-Serif" font-size="10.00" fill="#000000"> #m_handleToBuffer</text>
</g>
<!-- Node22 -->
<g id="node10" class="node">
<title>Node22</title>
<g id="a_node10"><a xlink:href="classint.html" target="_top" xlink:title="{int\n||}">
<polygon fill="#ffffff" stroke="#000000" points="751.5,-634.5 751.5,-691.5 780.5,-691.5 780.5,-634.5 751.5,-634.5"/>
<text text-anchor="middle" x="766" y="-679.5" font-family="Helvetica,sans-Serif" font-size="10.00" fill="#000000">int</text>
<polyline fill="none" stroke="#000000" points="751.5,-672.5 780.5,-672.5 "/>
<text text-anchor="middle" x="766" y="-660.5" font-family="Helvetica,sans-Serif" font-size="10.00" fill="#000000"> </text>
<polyline fill="none" stroke="#000000" points="751.5,-653.5 780.5,-653.5 "/>
<text text-anchor="middle" x="766" y="-641.5" font-family="Helvetica,sans-Serif" font-size="10.00" fill="#000000"> </text>
</a>
</g>
</g>
<!-- Node22&#45;&gt;Node21 -->
<g id="edge9" class="edge">
<title>Node22&#45;&gt;Node21</title>
<path fill="none" stroke="#404040" d="M770.4177,-634.2154C773.3696,-621.1818 778.1979,-606.0354 786,-594 788.0439,-590.847 790.3339,-587.7817 792.7966,-584.82"/>
<polygon fill="none" stroke="#404040" points="793.0335,-584.5626 794.1534,-577.439 801.1598,-575.7329 800.0399,-582.8565 793.0335,-584.5626"/>
<text text-anchor="middle" x="815" y="-602.5" font-family="Helvetica,sans-Serif" font-size="10.00" fill="#000000"> +elements</text>
</g>
<!-- Node23 -->
<g id="node11" class="node">
<title>Node23</title>
<g id="a_node11"><a xlink:title="STL class. ">
<polygon fill="#ffffff" stroke="#bfbfbf" points="952.5,-634.5 952.5,-691.5 1017.5,-691.5 1017.5,-634.5 952.5,-634.5"/>
<text text-anchor="middle" x="985" y="-679.5" font-family="Helvetica,sans-Serif" font-size="10.00" fill="#000000">std::string</text>
<polyline fill="none" stroke="#bfbfbf" points="952.5,-672.5 1017.5,-672.5 "/>
<text text-anchor="middle" x="985" y="-660.5" font-family="Helvetica,sans-Serif" font-size="10.00" fill="#000000"> </text>
<polyline fill="none" stroke="#bfbfbf" points="952.5,-653.5 1017.5,-653.5 "/>
<text text-anchor="middle" x="985" y="-641.5" font-family="Helvetica,sans-Serif" font-size="10.00" fill="#000000"> </text>
</a>
</g>
</g>
<!-- Node23&#45;&gt;Node21 -->
<g id="edge10" class="edge">
<title>Node23&#45;&gt;Node21</title>
<path fill="none" stroke="#404040" d="M981.3722,-634.4844C978.3805,-620.8899 972.9286,-605.1934 963,-594 951.4036,-580.9264 935.8955,-570.9065 920.031,-563.3054"/>
<polygon fill="none" stroke="#404040" points="920.0017,-563.2925 912.8946,-564.5128 909.0346,-558.4218 916.1417,-557.2014 920.0017,-563.2925"/>
<text text-anchor="middle" x="992.5" y="-602.5" font-family="Helvetica,sans-Serif" font-size="10.00" fill="#000000"> +keys</text>
</g>
<!-- Node24 -->
<g id="node12" class="node">
<title>Node24</title>
<g id="a_node12"><a xlink:title="STL class. ">
<polygon fill="#ffffff" stroke="#bfbfbf" points="933,-739.5 933,-807.5 1037,-807.5 1037,-739.5 933,-739.5"/>
<text text-anchor="start" x="941" y="-795.5" font-family="Helvetica,sans-Serif" font-size="10.00" fill="#000000">std::basic_string&lt;</text>
<text text-anchor="middle" x="985" y="-784.5" font-family="Helvetica,sans-Serif" font-size="10.00" fill="#000000"> char &gt;</text>
<polyline fill="none" stroke="#bfbfbf" points="933,-777.5 1037,-777.5 "/>
<text text-anchor="middle" x="985" y="-765.5" font-family="Helvetica,sans-Serif" font-size="10.00" fill="#000000"> </text>
<polyline fill="none" stroke="#bfbfbf" points="933,-758.5 1037,-758.5 "/>
<text text-anchor="middle" x="985" y="-746.5" font-family="Helvetica,sans-Serif" font-size="10.00" fill="#000000"> </text>
</a>
</g>
</g>
<!-- Node24&#45;&gt;Node23 -->
<g id="edge11" class="edge">
<title>Node24&#45;&gt;Node23</title>
<path fill="none" stroke="#191970" d="M985,-729.0661C985,-716.4172 985,-702.9812 985,-691.5519"/>
<polygon fill="none" stroke="#191970" points="981.5001,-729.4447 985,-739.4447 988.5001,-729.4447 981.5001,-729.4447"/>
</g>
<!-- Node25&#45;&gt;Node21 -->
<g id="edge12" class="edge">
<title>Node25&#45;&gt;Node21</title>
<path fill="none" stroke="#ffa500" d="M848.678,-623.8733C848.5503,-608.3628 848.4049,-590.6896 848.2815,-575.7007"/>
<polygon fill="#ffa500" stroke="#ffa500" points="845.1807,-624.2354 848.763,-634.2062 852.1805,-624.1777 845.1807,-624.2354"/>
<text text-anchor="start" x="848" y="-608" font-family="Helvetica,sans-Serif" font-size="10.00" fill="#000000"> &lt; std::string, unsigned</text>
<text text-anchor="middle" x="905" y="-597" font-family="Helvetica,sans-Serif" font-size="10.00" fill="#000000"> int &gt;</text>
</g>
<!-- Node26 -->
<g id="node14" class="node">
<title>Node26</title>
<polygon fill="#ffffff" stroke="#bfbfbf" points="834.5,-745 834.5,-802 863.5,-802 863.5,-745 834.5,-745"/>
<text text-anchor="middle" x="849" y="-790" font-family="Helvetica,sans-Serif" font-size="10.00" fill="#000000">K</text>
<polyline fill="none" stroke="#bfbfbf" points="834.5,-783 863.5,-783 "/>
<text text-anchor="middle" x="849" y="-771" font-family="Helvetica,sans-Serif" font-size="10.00" fill="#000000"> </text>
<polyline fill="none" stroke="#bfbfbf" points="834.5,-764 863.5,-764 "/>
<text text-anchor="middle" x="849" y="-752" font-family="Helvetica,sans-Serif" font-size="10.00" fill="#000000"> </text>
</g>
<!-- Node26&#45;&gt;Node25 -->
<g id="edge13" class="edge">
<title>Node26&#45;&gt;Node25</title>
<path fill="none" stroke="#404040" d="M849,-744.7559C849,-732.2224 849,-717.3039 849,-703.6631"/>
<polygon fill="none" stroke="#404040" points="849.0001,-703.6002 845,-697.6002 849,-691.6002 853,-697.6002 849.0001,-703.6002"/>
<text text-anchor="middle" x="866.5" y="-713" font-family="Helvetica,sans-Serif" font-size="10.00" fill="#000000"> +keys</text>
</g>
<!-- Node27 -->
<g id="node15" class="node">
<title>Node27</title>
<g id="a_node15"><a xlink:href="classbool.html" target="_top" xlink:title="{bool\n||}">
<polygon fill="#ffffff" stroke="#000000" points="400,-513 400,-570 438,-570 438,-513 400,-513"/>
<text text-anchor="middle" x="419" y="-558" font-family="Helvetica,sans-Serif" font-size="10.00" fill="#000000">bool</text>
<polyline fill="none" stroke="#000000" points="400,-551 438,-551 "/>
<text text-anchor="middle" x="419" y="-539" font-family="Helvetica,sans-Serif" font-size="10.00" fill="#000000"> </text>
<polyline fill="none" stroke="#000000" points="400,-532 438,-532 "/>
<text text-anchor="middle" x="419" y="-520" font-family="Helvetica,sans-Serif" font-size="10.00" fill="#000000"> </text>
</a>
</g>
</g>
<!-- Node27&#45;&gt;Node13 -->
<g id="edge15" class="edge">
<title>Node27&#45;&gt;Node13</title>
<path fill="none" stroke="#404040" d="M411.3943,-512.9838C406.9078,-494.8149 401.6116,-470.6954 399,-449 390.5104,-378.4744 388.0418,-299.0868 387.796,-235.0328"/>
<polygon fill="none" stroke="#404040" points="387.7958,-234.8456 383.7855,-228.8525 387.7752,-222.8457 391.7855,-228.8388 387.7958,-234.8456"/>
<text text-anchor="middle" x="428.5" y="-357" font-family="Helvetica,sans-Serif" font-size="10.00" fill="#000000"> #m_isDirty</text>
</g>
<!-- Node32 -->
<g id="node20" class="node">
<title>Node32</title>
<polygon fill="#ffffff" stroke="#bfbfbf" points="467,-331 467,-388 579,-388 579,-331 467,-331"/>
<text text-anchor="middle" x="523" y="-376" font-family="Helvetica,sans-Serif" font-size="10.00" fill="#000000">std::vector&lt; bool &gt;</text>
<polyline fill="none" stroke="#bfbfbf" points="467,-369 579,-369 "/>
<text text-anchor="middle" x="523" y="-357" font-family="Helvetica,sans-Serif" font-size="10.00" fill="#000000"> </text>
<polyline fill="none" stroke="#bfbfbf" points="467,-350 579,-350 "/>
<text text-anchor="middle" x="523" y="-338" font-family="Helvetica,sans-Serif" font-size="10.00" fill="#000000"> </text>
</g>
<!-- Node27&#45;&gt;Node32 -->
<g id="edge23" class="edge">
<title>Node27&#45;&gt;Node32</title>
<path fill="none" stroke="#404040" d="M425.9008,-512.6784C429.8878,-498.4837 435.5944,-481.375 443,-467 455.669,-442.4082 473.8289,-417.4683 489.6455,-397.8095"/>
<polygon fill="none" stroke="#404040" points="489.8142,-397.6037 490.5259,-390.4278 497.4236,-388.3248 496.7119,-395.5007 489.8142,-397.6037"/>
<text text-anchor="middle" x="472" y="-475.5" font-family="Helvetica,sans-Serif" font-size="10.00" fill="#000000"> +elements</text>
</g>
<!-- Node28 -->
<g id="node16" class="node">
<title>Node28</title>
<polygon fill="#ffffff" stroke="#bfbfbf" points="597.5,-325.5 597.5,-393.5 746.5,-393.5 746.5,-325.5 597.5,-325.5"/>
<text text-anchor="start" x="605.5" y="-381.5" font-family="Helvetica,sans-Serif" font-size="10.00" fill="#000000">std::vector&lt; std::unique</text>
<text text-anchor="middle" x="672" y="-370.5" font-family="Helvetica,sans-Serif" font-size="10.00" fill="#000000">_ptr&lt; globjects::Buffer &gt; &gt;</text>
<polyline fill="none" stroke="#bfbfbf" points="597.5,-363.5 746.5,-363.5 "/>
<text text-anchor="middle" x="672" y="-351.5" font-family="Helvetica,sans-Serif" font-size="10.00" fill="#000000"> </text>
<polyline fill="none" stroke="#bfbfbf" points="597.5,-344.5 746.5,-344.5 "/>
<text text-anchor="middle" x="672" y="-332.5" font-family="Helvetica,sans-Serif" font-size="10.00" fill="#000000"> </text>
</g>
<!-- Node28&#45;&gt;Node13 -->
<g id="edge16" class="edge">
<title>Node28&#45;&gt;Node13</title>
<path fill="none" stroke="#404040" d="M641.9674,-325.256C626.4097,-308.1074 606.779,-287.357 588,-270 558.1097,-242.373 523.9896,-214.0318 492.5916,-189.0943"/>
<polygon fill="none" stroke="#404040" points="492.3574,-188.9093 485.1698,-188.3274 482.9424,-181.4689 490.13,-182.0508 492.3574,-188.9093"/>
<text text-anchor="middle" x="593" y="-244" font-family="Helvetica,sans-Serif" font-size="10.00" fill="#000000"> #m_vbos</text>
</g>
<!-- Node29&#45;&gt;Node28 -->
<g id="edge17" class="edge">
<title>Node29&#45;&gt;Node28</title>
<path fill="none" stroke="#404040" d="M691.4858,-507.2672C687.6978,-478.5416 682.2528,-437.2508 678.0811,-405.6152"/>
<polygon fill="none" stroke="#404040" points="678.0629,-405.4763 673.3128,-400.0508 676.494,-393.5793 681.2441,-399.0048 678.0629,-405.4763"/>
<text text-anchor="middle" x="718" y="-475.5" font-family="Helvetica,sans-Serif" font-size="10.00" fill="#000000"> +elements</text>
</g>
<!-- Node30 -->
<g id="node18" class="node">
<title>Node30</title>
<polygon fill="#ffffff" stroke="#bfbfbf" points="687,-634.5 687,-691.5 733,-691.5 733,-634.5 687,-634.5"/>
<text text-anchor="middle" x="710" y="-679.5" font-family="Helvetica,sans-Serif" font-size="10.00" fill="#000000">Buffer</text>
<polyline fill="none" stroke="#bfbfbf" points="687,-672.5 733,-672.5 "/>
<text text-anchor="middle" x="710" y="-660.5" font-family="Helvetica,sans-Serif" font-size="10.00" fill="#000000"> </text>
<polyline fill="none" stroke="#bfbfbf" points="687,-653.5 733,-653.5 "/>
<text text-anchor="middle" x="710" y="-641.5" font-family="Helvetica,sans-Serif" font-size="10.00" fill="#000000"> </text>
</g>
<!-- Node30&#45;&gt;Node29 -->
<g id="edge18" class="edge">
<title>Node30&#45;&gt;Node29</title>
<path fill="none" stroke="#404040" d="M706.6822,-634.2062C705.0871,-620.3632 703.1355,-603.4255 701.3388,-587.8327"/>
<polygon fill="none" stroke="#404040" points="701.3145,-587.6219 696.654,-582.1192 699.9408,-575.7007 704.6014,-581.2034 701.3145,-587.6219"/>
<text text-anchor="middle" x="717.5" y="-602.5" font-family="Helvetica,sans-Serif" font-size="10.00" fill="#000000"> +ptr</text>
</g>
<!-- Node31&#45;&gt;Node28 -->
<g id="edge20" class="edge">
<title>Node31&#45;&gt;Node28</title>
<path fill="none" stroke="#ffa500" d="M538.3444,-505.1606C568.1037,-472.7283 611.3663,-425.5799 640.538,-393.7879"/>
<polygon fill="#ffa500" stroke="#ffa500" points="535.6437,-502.927 531.4616,-512.6616 540.8015,-507.6597 535.6437,-502.927"/>
<text text-anchor="start" x="569" y="-481" font-family="Helvetica,sans-Serif" font-size="10.00" fill="#000000"> &lt; std::unique_ptr&lt;</text>
<text text-anchor="middle" x="622" y="-470" font-family="Helvetica,sans-Serif" font-size="10.00" fill="#000000"> globjects::Buffer &gt; &gt;</text>
</g>
<!-- Node31&#45;&gt;Node32 -->
<g id="edge24" class="edge">
<title>Node31&#45;&gt;Node32</title>
<path fill="none" stroke="#ffa500" d="M504.4693,-502.619C504.5966,-491.1325 505.0148,-478.5451 506,-467 508.2975,-440.0778 513.3327,-409.6899 517.3302,-388.1085"/>
<polygon fill="#ffa500" stroke="#ffa500" points="500.9686,-502.7822 504.4262,-512.7969 507.9686,-502.8119 500.9686,-502.7822"/>
<text text-anchor="middle" x="529.5" y="-475.5" font-family="Helvetica,sans-Serif" font-size="10.00" fill="#000000"> &lt; bool &gt;</text>
</g>
<!-- Node32&#45;&gt;Node13 -->
<g id="edge22" class="edge">
<title>Node32&#45;&gt;Node13</title>
<path fill="none" stroke="#404040" d="M507.4829,-330.5659C494.417,-306.2025 474.7888,-269.6025 455.2983,-233.2592"/>
<polygon fill="none" stroke="#404040" points="455.2083,-233.0914 448.8475,-229.6942 449.5369,-222.5161 455.8977,-225.9133 455.2083,-233.0914"/>
<text text-anchor="middle" x="501.5" y="-244" font-family="Helvetica,sans-Serif" font-size="10.00" fill="#000000"> #m_dataDirty</text>
</g>
</g>
</svg>
