<?xml version="1.0" encoding="UTF-8" standalone="no"?>
<!DOCTYPE svg PUBLIC "-//W3C//DTD SVG 1.1//EN"
 "http://www.w3.org/Graphics/SVG/1.1/DTD/svg11.dtd">
<!-- Generated by graphviz version 2.40.1 (20161225.0304)
 -->
<!-- Title: Ra::Core::Geometry::TopologicalMesh::toTriangleMesh Pages: 1 -->
<!--zoomable 357 -->
<svg id="main" version="1.1" xmlns="http://www.w3.org/2000/svg" xmlns:xlink="http://www.w3.org/1999/xlink" xml:space="preserve" onload="init(evt)">
<style type="text/css"><![CDATA[
.edge:hover path { stroke: red; }
.edge:hover polygon { stroke: red; fill: red; }
]]></style>
<script type="text/javascript"><![CDATA[
var edges = document.getElementsByTagName('g');
if (edges && edges.length) {
  for (var i=0;i<edges.length;i++) {
    if (edges[i].id.substr(0,4)=='edge') {
      edges[i].setAttribute('class','edge');
    }
  }
}
]]></script>
        <defs>
                <circle id="rim" cx="0" cy="0" r="7"/>
                <circle id="rim2" cx="0" cy="0" r="3.5"/>
                <g id="zoomPlus">
                        <use xlink:href="#rim" fill="#404040">
                                <set attributeName="fill" to="#808080" begin="zoomplus.mouseover" end="zoomplus.mouseout"/>
                        </use>
                        <path d="M-4,0h8M0,-4v8" fill="none" stroke="white" stroke-width="1.5" pointer-events="none"/>
                </g>
                <g id="zoomMin">
                        <use xlink:href="#rim" fill="#404040">
                                <set attributeName="fill" to="#808080" begin="zoomminus.mouseover" end="zoomminus.mouseout"/>
                        </use>
                        <path d="M-4,0h8" fill="none" stroke="white" stroke-width="1.5" pointer-events="none"/>
                </g>
                <g id="dirArrow">
                        <path fill="none" stroke="white" stroke-width="1.5" d="M0,-3.0v7 M-2.5,-0.5L0,-3.0L2.5,-0.5"/>
                </g>
               <g id="resetDef">
                       <use xlink:href="#rim2" fill="#404040">
                               <set attributeName="fill" to="#808080" begin="reset.mouseover" end="reset.mouseout"/>
                       </use>
               </g>
        </defs>

<script type="text/javascript">
var viewWidth = 1299;
var viewHeight = 357;
var sectionId = 'dynsection-15';
</script>
<script xlink:href="svgpan.js"/>
<svg id="graph" class="graph">
<g id="viewport">
<title>Ra::Core::Geometry::TopologicalMesh::toTriangleMesh</title>
<polygon fill="#ffffff" stroke="transparent" points="-4,4 -4,-352.5 1295,-352.5 1295,4 -4,4"/>
<!-- Node95 -->
<g id="node1" class="node">
<title>Node95</title>
<polygon fill="#bfbfbf" stroke="#000000" points="0,-171 0,-201 182,-201 182,-171 0,-171"/>
<text text-anchor="start" x="8" y="-189" font-family="Helvetica,sans-Serif" font-size="10.00" fill="#000000">Ra::Core::Geometry</text>
<text text-anchor="middle" x="91" y="-178" font-family="Helvetica,sans-Serif" font-size="10.00" fill="#000000">::TopologicalMesh::toTriangleMesh</text>
</g>
<!-- Node96 -->
<g id="node2" class="node">
<title>Node96</title>
<g id="a_node2"><a xlink:href="namespaceRa_1_1Core_1_1Geometry.html#a2466c1d911e2bd07add946156a1459d2" target="_top" xlink:title="Ra::Core::Geometry\l::addAttribPairToCore">
<polygon fill="#ffffff" stroke="#000000" points="227,-269 227,-299 346,-299 346,-269 227,-269"/>
<text text-anchor="start" x="235" y="-287" font-family="Helvetica,sans-Serif" font-size="10.00" fill="#000000">Ra::Core::Geometry</text>
<text text-anchor="middle" x="286.5" y="-276" font-family="Helvetica,sans-Serif" font-size="10.00" fill="#000000">::addAttribPairToCore</text>
</a>
</g>
</g>
<!-- Node95&#45;&gt;Node96 -->
<g id="edge1" class="edge">
<title>Node95&#45;&gt;Node96</title>
<path fill="none" stroke="#191970" d="M113.694,-201.0089C138.5664,-217.0283 179.9996,-242.4667 218,-260 221.8617,-261.7818 225.8957,-263.5109 229.9895,-265.1702"/>
<polygon fill="#191970" stroke="#191970" points="229.0087,-268.5441 239.5973,-268.9074 231.5464,-262.0203 229.0087,-268.5441"/>
</g>
<!-- Node104 -->
<g id="node10" class="node">
<title>Node104</title>
<g id="a_node10"><a xlink:href="namespaceRa_1_1Core_1_1Geometry.html#a20374bd28518c1b22ab5ca5e6bbe954c" target="_top" xlink:title="Ra::Core::Geometry\l::copyAttribToCoreVertex">
<polygon fill="#ffffff" stroke="#000000" points="218,-220 218,-250 355,-250 355,-220 218,-220"/>
<text text-anchor="start" x="226" y="-238" font-family="Helvetica,sans-Serif" font-size="10.00" fill="#000000">Ra::Core::Geometry</text>
<text text-anchor="middle" x="286.5" y="-227" font-family="Helvetica,sans-Serif" font-size="10.00" fill="#000000">::copyAttribToCoreVertex</text>
</a>
</g>
</g>
<!-- Node95&#45;&gt;Node104 -->
<g id="edge9" class="edge">
<title>Node95&#45;&gt;Node104</title>
<path fill="none" stroke="#191970" d="M150.985,-201.0346C171.8148,-206.2554 195.348,-212.1537 216.8885,-217.5526"/>
<polygon fill="#191970" stroke="#191970" points="216.0775,-220.9575 226.6284,-219.9938 217.7794,-214.1676 216.0775,-220.9575"/>
</g>
<!-- Node105 -->
<g id="node11" class="node">
<title>Node105</title>
<g id="a_node11"><a xlink:href="namespaceRa_1_1Core_1_1Geometry.html#a5b7df5286d950cbf7c9f75d90444623f" target="_top" xlink:title="Ra::Core::Geometry\l::copyAttribToCore">
<polygon fill="#ffffff" stroke="#000000" points="230,-171 230,-201 343,-201 343,-171 230,-171"/>
<text text-anchor="start" x="238" y="-189" font-family="Helvetica,sans-Serif" font-size="10.00" fill="#000000">Ra::Core::Geometry</text>
<text text-anchor="middle" x="286.5" y="-178" font-family="Helvetica,sans-Serif" font-size="10.00" fill="#000000">::copyAttribToCore</text>
</a>
</g>
</g>
<!-- Node95&#45;&gt;Node105 -->
<g id="edge10" class="edge">
<title>Node95&#45;&gt;Node105</title>
<path fill="none" stroke="#191970" d="M182.1678,-186C194.7175,-186 207.4127,-186 219.4207,-186"/>
<polygon fill="#191970" stroke="#191970" points="219.7754,-189.5001 229.7754,-186 219.7753,-182.5001 219.7754,-189.5001"/>
</g>
<!-- Node108 -->
<g id="node14" class="node">
<title>Node108</title>
<g id="a_node14"><a xlink:href="classRa_1_1Core_1_1Geometry_1_1AttribArrayGeometry.html#a887411177386edbcdc35d0c6bf78a83a" target="_top" xlink:title="Set vertices. ">
<polygon fill="#ffffff" stroke="#000000" points="224,-110.5 224,-151.5 349,-151.5 349,-110.5 224,-110.5"/>
<text text-anchor="start" x="232" y="-139.5" font-family="Helvetica,sans-Serif" font-size="10.00" fill="#000000">Ra::Core::Geometry</text>
<text text-anchor="start" x="232" y="-128.5" font-family="Helvetica,sans-Serif" font-size="10.00" fill="#000000">::AttribArrayGeometry</text>
<text text-anchor="middle" x="286.5" y="-117.5" font-family="Helvetica,sans-Serif" font-size="10.00" fill="#000000">::setVertices</text>
</a>
</g>
</g>
<!-- Node95&#45;&gt;Node108 -->
<g id="edge13" class="edge">
<title>Node95&#45;&gt;Node108</title>
<path fill="none" stroke="#191970" d="M144.4212,-170.971C165.8875,-164.9319 190.9722,-157.8748 214.0394,-151.3853"/>
<polygon fill="#191970" stroke="#191970" points="215.107,-154.7209 223.7854,-148.6435 213.2112,-147.9825 215.107,-154.7209"/>
</g>
<!-- Node111 -->
<g id="node17" class="node">
<title>Node111</title>
<g id="a_node17"><a xlink:href="classRa_1_1Core_1_1Geometry_1_1AttribArrayGeometry.html#a646faabae9b936589fe03d8a9d2002e9" target="_top" xlink:title="Set normals. ">
<polygon fill="#ffffff" stroke="#000000" points="224,-50.5 224,-91.5 349,-91.5 349,-50.5 224,-50.5"/>
<text text-anchor="start" x="232" y="-79.5" font-family="Helvetica,sans-Serif" font-size="10.00" fill="#000000">Ra::Core::Geometry</text>
<text text-anchor="start" x="232" y="-68.5" font-family="Helvetica,sans-Serif" font-size="10.00" fill="#000000">::AttribArrayGeometry</text>
<text text-anchor="middle" x="286.5" y="-57.5" font-family="Helvetica,sans-Serif" font-size="10.00" fill="#000000">::setNormals</text>
</a>
</g>
</g>
<!-- Node95&#45;&gt;Node111 -->
<g id="edge17" class="edge">
<title>Node95&#45;&gt;Node111</title>
<path fill="none" stroke="#191970" d="M111.4097,-170.6875C135.9267,-152.6893 178.6792,-122.5478 218,-101 221.0527,-99.3271 224.2174,-97.6756 227.4371,-96.0592"/>
<polygon fill="#191970" stroke="#191970" points="229.1403,-99.1231 236.6093,-91.6088 226.0845,-92.8253 229.1403,-99.1231"/>
</g>
<!-- Node97 -->
<g id="node3" class="node">
<title>Node97</title>
<g id="a_node3"><a xlink:href="classRa_1_1Core_1_1Geometry_1_1AttribArrayGeometry.html#ae1956b0396dadd84f55a12f2160e5671" target="_top" xlink:title="Ra::Core::Geometry\l::AttribArrayGeometry\l::addAttrib">
<polygon fill="#ffffff" stroke="#000000" points="409,-263.5 409,-304.5 534,-304.5 534,-263.5 409,-263.5"/>
<text text-anchor="start" x="417" y="-292.5" font-family="Helvetica,sans-Serif" font-size="10.00" fill="#000000">Ra::Core::Geometry</text>
<text text-anchor="start" x="417" y="-281.5" font-family="Helvetica,sans-Serif" font-size="10.00" fill="#000000">::AttribArrayGeometry</text>
<text text-anchor="middle" x="471.5" y="-270.5" font-family="Helvetica,sans-Serif" font-size="10.00" fill="#000000">::addAttrib</text>
</a>
</g>
</g>
<!-- Node96&#45;&gt;Node97 -->
<g id="edge2" class="edge">
<title>Node96&#45;&gt;Node97</title>
<path fill="none" stroke="#191970" d="M346.0535,-284C362.8301,-284 381.27,-284 398.7268,-284"/>
<polygon fill="#191970" stroke="#191970" points="398.8715,-287.5001 408.8715,-284 398.8714,-280.5001 398.8715,-287.5001"/>
</g>
<!-- Node98 -->
<g id="node4" class="node">
<title>Node98</title>
<g id="a_node4"><a xlink:href="classRa_1_1Core_1_1Utils_1_1AttribManager.html#ac2d3cdc360ffe1904a15ff8504de95b8" target="_top" xlink:title="Ra::Core::Utils::AttribManager\l::addAttrib">
<polygon fill="#ffffff" stroke="#000000" points="588,-269 588,-299 749,-299 749,-269 588,-269"/>
<text text-anchor="start" x="596" y="-287" font-family="Helvetica,sans-Serif" font-size="10.00" fill="#000000">Ra::Core::Utils::AttribManager</text>
<text text-anchor="middle" x="668.5" y="-276" font-family="Helvetica,sans-Serif" font-size="10.00" fill="#000000">::addAttrib</text>
</a>
</g>
</g>
<!-- Node97&#45;&gt;Node98 -->
<g id="edge3" class="edge">
<title>Node97&#45;&gt;Node98</title>
<path fill="none" stroke="#191970" d="M534.1027,-284C547.9253,-284 562.8405,-284 577.5309,-284"/>
<polygon fill="#191970" stroke="#191970" points="577.6492,-287.5001 587.6492,-284 577.6491,-280.5001 577.6492,-287.5001"/>
</g>
<!-- Node99 -->
<g id="node5" class="node">
<title>Node99</title>
<g id="a_node5"><a xlink:href="classRa_1_1Core_1_1Utils_1_1AttribManager.html#ae61e2c70f407d49d854ee4b98a39121f" target="_top" xlink:title="Return true if h correspond to an existing attribute in *this. ">
<polygon fill="#ffffff" stroke="#000000" points="785,-294 785,-324 946,-324 946,-294 785,-294"/>
<text text-anchor="start" x="793" y="-312" font-family="Helvetica,sans-Serif" font-size="10.00" fill="#000000">Ra::Core::Utils::AttribManager</text>
<text text-anchor="middle" x="865.5" y="-301" font-family="Helvetica,sans-Serif" font-size="10.00" fill="#000000">::isValid</text>
</a>
</g>
</g>
<!-- Node98&#45;&gt;Node99 -->
<g id="edge4" class="edge">
<title>Node98&#45;&gt;Node99</title>
<path fill="none" stroke="#191970" d="M749.1959,-294.2406C757.6733,-295.3164 766.3327,-296.4153 774.9115,-297.504"/>
<polygon fill="#191970" stroke="#191970" points="774.5685,-300.9885 784.9296,-298.7753 775.4499,-294.0442 774.5685,-300.9885"/>
</g>
<!-- Node103 -->
<g id="node9" class="node">
<title>Node103</title>
<g id="a_node9"><a xlink:href="classRa_1_1Core_1_1Utils_1_1Observable.html#a7e5fe761726d56a51f95192eb6555f8f" target="_top" xlink:title="Notify (i.e. call) each attached observer with argument p. ">
<polygon fill="#ffffff" stroke="#000000" points="786,-245 786,-275 945,-275 945,-245 786,-245"/>
<text text-anchor="start" x="794" y="-263" font-family="Helvetica,sans-Serif" font-size="10.00" fill="#000000">Ra::Core::Utils::Observable</text>
<text text-anchor="middle" x="865.5" y="-252" font-family="Helvetica,sans-Serif" font-size="10.00" fill="#000000">&lt; const std::string &amp;&gt;::notify</text>
</a>
</g>
</g>
<!-- Node98&#45;&gt;Node103 -->
<g id="edge8" class="edge">
<title>Node98&#45;&gt;Node103</title>
<path fill="none" stroke="#191970" d="M749.1959,-274.169C757.997,-273.0968 766.9944,-272.0007 775.8941,-270.9165"/>
<polygon fill="#191970" stroke="#191970" points="776.3817,-274.383 785.885,-269.6993 775.5351,-267.4344 776.3817,-274.383"/>
</g>
<!-- Node100 -->
<g id="node6" class="node">
<title>Node100</title>
<g id="a_node6"><a xlink:href="classRa_1_1Core_1_1Utils_1_1AttribHandle.html#a17afbd6718234d480c05258369bdfde9" target="_top" xlink:title="Ra::Core::Utils::AttribHandle\l::attribName">
<polygon fill="#ffffff" stroke="#000000" points="982,-318 982,-348 1136,-348 1136,-318 982,-318"/>
<text text-anchor="start" x="990" y="-336" font-family="Helvetica,sans-Serif" font-size="10.00" fill="#000000">Ra::Core::Utils::AttribHandle</text>
<text text-anchor="middle" x="1059" y="-325" font-family="Helvetica,sans-Serif" font-size="10.00" fill="#000000">::attribName</text>
</a>
</g>
</g>
<!-- Node99&#45;&gt;Node100 -->
<g id="edge5" class="edge">
<title>Node99&#45;&gt;Node100</title>
<path fill="none" stroke="#191970" d="M946.1603,-319.0044C954.6571,-320.0582 963.3244,-321.1333 971.8898,-322.1956"/>
<polygon fill="#191970" stroke="#191970" points="971.527,-325.6774 981.8818,-323.435 972.3887,-318.7306 971.527,-325.6774"/>
</g>
<!-- Node101 -->
<g id="node7" class="node">
<title>Node101</title>
<g id="a_node7"><a xlink:href="classRa_1_1Core_1_1Utils_1_1Index.html#a771f93efd49538950e3cb9e57e46fbaf" target="_top" xlink:title="Ra::Core::Utils::Index\l::Invalid">
<polygon fill="#ffffff" stroke="#000000" points="999.5,-269 999.5,-299 1118.5,-299 1118.5,-269 999.5,-269"/>
<text text-anchor="start" x="1007.5" y="-287" font-family="Helvetica,sans-Serif" font-size="10.00" fill="#000000">Ra::Core::Utils::Index</text>
<text text-anchor="middle" x="1059" y="-276" font-family="Helvetica,sans-Serif" font-size="10.00" fill="#000000">::Invalid</text>
</a>
</g>
</g>
<!-- Node99&#45;&gt;Node101 -->
<g id="edge6" class="edge">
<title>Node99&#45;&gt;Node101</title>
<path fill="none" stroke="#191970" d="M946.1603,-298.5788C960.5129,-296.7244 975.3516,-294.8073 989.3648,-292.9968"/>
<polygon fill="#191970" stroke="#191970" points="989.9348,-296.4523 999.4039,-291.6998 989.0378,-289.51 989.9348,-296.4523"/>
</g>
<!-- Node102 -->
<g id="node8" class="node">
<title>Node102</title>
<g id="a_node8"><a xlink:href="classRa_1_1Core_1_1Utils_1_1Index.html#ab3376097b792b1ac2068c6da1cb6c8e4" target="_top" xlink:title="CONSTRUCTOR. ">
<polygon fill="#ffffff" stroke="#000000" points="1172,-269 1172,-299 1291,-299 1291,-269 1172,-269"/>
<text text-anchor="start" x="1180" y="-287" font-family="Helvetica,sans-Serif" font-size="10.00" fill="#000000">Ra::Core::Utils::Index</text>
<text text-anchor="middle" x="1231.5" y="-276" font-family="Helvetica,sans-Serif" font-size="10.00" fill="#000000">::Index</text>
</a>
</g>
</g>
<!-- Node101&#45;&gt;Node102 -->
<g id="edge7" class="edge">
<title>Node101&#45;&gt;Node102</title>
<path fill="none" stroke="#191970" d="M1118.848,-284C1132.6294,-284 1147.406,-284 1161.5728,-284"/>
<polygon fill="#191970" stroke="#191970" points="1161.7578,-287.5001 1171.7578,-284 1161.7577,-280.5001 1161.7578,-287.5001"/>
</g>
<!-- Node106 -->
<g id="node12" class="node">
<title>Node106</title>
<g id="a_node12"><a xlink:href="classRa_1_1Core_1_1Geometry_1_1AttribArrayGeometry.html#aeb68d9cd8cf8c1e05886a23f0ad33c59" target="_top" xlink:title="Ra::Core::Geometry\l::AttribArrayGeometry\l::getAttrib">
<polygon fill="#ffffff" stroke="#000000" points="409,-170.5 409,-211.5 534,-211.5 534,-170.5 409,-170.5"/>
<text text-anchor="start" x="417" y="-199.5" font-family="Helvetica,sans-Serif" font-size="10.00" fill="#000000">Ra::Core::Geometry</text>
<text text-anchor="start" x="417" y="-188.5" font-family="Helvetica,sans-Serif" font-size="10.00" fill="#000000">::AttribArrayGeometry</text>
<text text-anchor="middle" x="471.5" y="-177.5" font-family="Helvetica,sans-Serif" font-size="10.00" fill="#000000">::getAttrib</text>
</a>
</g>
</g>
<!-- Node105&#45;&gt;Node106 -->
<g id="edge11" class="edge">
<title>Node105&#45;&gt;Node106</title>
<path fill="none" stroke="#191970" d="M343.0113,-187.5273C360.5841,-188.0023 380.2098,-188.5327 398.729,-189.0332"/>
<polygon fill="#191970" stroke="#191970" points="398.7926,-192.5361 408.8836,-189.3077 398.9818,-185.5387 398.7926,-192.5361"/>
</g>
<!-- Node107 -->
<g id="node13" class="node">
<title>Node107</title>
<g id="a_node13"><a xlink:href="classRa_1_1Core_1_1Utils_1_1AttribManager.html#ae0cb7281ec72606a5392602b4ea50d2c" target="_top" xlink:title="Ra::Core::Utils::AttribManager\l::getAttrib">
<polygon fill="#ffffff" stroke="#000000" points="588,-116 588,-146 749,-146 749,-116 588,-116"/>
<text text-anchor="start" x="596" y="-134" font-family="Helvetica,sans-Serif" font-size="10.00" fill="#000000">Ra::Core::Utils::AttribManager</text>
<text text-anchor="middle" x="668.5" y="-123" font-family="Helvetica,sans-Serif" font-size="10.00" fill="#000000">::getAttrib</text>
</a>
</g>
</g>
<!-- Node106&#45;&gt;Node107 -->
<g id="edge12" class="edge">
<title>Node106&#45;&gt;Node107</title>
<path fill="none" stroke="#191970" d="M534.1027,-171.9332C558.2641,-164.5744 585.7637,-156.1989 609.5663,-148.9493"/>
<polygon fill="#191970" stroke="#191970" points="610.6294,-152.2844 619.1758,-146.0226 608.5899,-145.5881 610.6294,-152.2844"/>
</g>
<!-- Node109 -->
<g id="node15" class="node">
<title>Node109</title>
<g id="a_node15"><a xlink:href="classRa_1_1Core_1_1Utils_1_1AttribManager.html#a056b7697cfbedd6b20dde6ce7955094e" target="_top" xlink:title="Ra::Core::Utils::AttribManager\l::setAttrib">
<polygon fill="#ffffff" stroke="#000000" points="391,-61 391,-91 552,-91 552,-61 391,-61"/>
<text text-anchor="start" x="399" y="-79" font-family="Helvetica,sans-Serif" font-size="10.00" fill="#000000">Ra::Core::Utils::AttribManager</text>
<text text-anchor="middle" x="471.5" y="-68" font-family="Helvetica,sans-Serif" font-size="10.00" fill="#000000">::setAttrib</text>
</a>
</g>
</g>
<!-- Node108&#45;&gt;Node109 -->
<g id="edge14" class="edge">
<title>Node108&#45;&gt;Node109</title>
<path fill="none" stroke="#191970" d="M349.1326,-112.3795C369.1298,-106.4344 391.2133,-99.869 411.0522,-93.971"/>
<polygon fill="#191970" stroke="#191970" points="412.3065,-97.2495 420.8944,-91.0449 410.3116,-90.5398 412.3065,-97.2495"/>
</g>
<!-- Node110 -->
<g id="node16" class="node">
<title>Node110</title>
<g id="a_node16"><a xlink:href="classRa_1_1Core_1_1Geometry_1_1AttribArrayGeometry.html#acabe05880d71a8dc4406964c258fff5a" target="_top" xlink:title="Access the vertices positions. ">
<polygon fill="#ffffff" stroke="#000000" points="409,-110.5 409,-151.5 534,-151.5 534,-110.5 409,-110.5"/>
<text text-anchor="start" x="417" y="-139.5" font-family="Helvetica,sans-Serif" font-size="10.00" fill="#000000">Ra::Core::Geometry</text>
<text text-anchor="start" x="417" y="-128.5" font-family="Helvetica,sans-Serif" font-size="10.00" fill="#000000">::AttribArrayGeometry</text>
<text text-anchor="middle" x="471.5" y="-117.5" font-family="Helvetica,sans-Serif" font-size="10.00" fill="#000000">::vertices</text>
</a>
</g>
</g>
<!-- Node108&#45;&gt;Node110 -->
<g id="edge15" class="edge">
<title>Node108&#45;&gt;Node110</title>
<path fill="none" stroke="#191970" d="M349.1326,-131C365.1051,-131 382.4087,-131 398.8363,-131"/>
<polygon fill="#191970" stroke="#191970" points="398.932,-134.5001 408.9319,-131 398.9319,-127.5001 398.932,-134.5001"/>
</g>
<!-- Node110&#45;&gt;Node107 -->
<g id="edge16" class="edge">
<title>Node110&#45;&gt;Node107</title>
<path fill="none" stroke="#191970" d="M534.1027,-131C547.9253,-131 562.8405,-131 577.5309,-131"/>
<polygon fill="#191970" stroke="#191970" points="577.6492,-134.5001 587.6492,-131 577.6491,-127.5001 577.6492,-134.5001"/>
</g>
<!-- Node111&#45;&gt;Node109 -->
<g id="edge18" class="edge">
<title>Node111&#45;&gt;Node109</title>
<path fill="none" stroke="#191970" d="M349.1326,-72.6928C359.3005,-72.9676 370.0078,-73.257 380.6852,-73.5455"/>
<polygon fill="#191970" stroke="#191970" points="380.8035,-77.0499 390.8945,-73.8215 380.9927,-70.0525 380.8035,-77.0499"/>
</g>
<!-- Node112 -->
<g id="node18" class="node">
<title>Node112</title>
<g id="a_node18"><a xlink:href="classRa_1_1Core_1_1Geometry_1_1AttribArrayGeometry.html#abfd2320cb73c0cb14805c234af594b5e" target="_top" xlink:title="Access the vertices normals. ">
<polygon fill="#ffffff" stroke="#000000" points="409,-.5 409,-41.5 534,-41.5 534,-.5 409,-.5"/>
<text text-anchor="start" x="417" y="-29.5" font-family="Helvetica,sans-Serif" font-size="10.00" fill="#000000">Ra::Core::Geometry</text>
<text text-anchor="start" x="417" y="-18.5" font-family="Helvetica,sans-Serif" font-size="10.00" fill="#000000">::AttribArrayGeometry</text>
<text text-anchor="middle" x="471.5" y="-7.5" font-family="Helvetica,sans-Serif" font-size="10.00" fill="#000000">::normals</text>
</a>
</g>
</g>
<!-- Node111&#45;&gt;Node112 -->
<g id="edge19" class="edge">
<title>Node111&#45;&gt;Node112</title>
<path fill="none" stroke="#191970" d="M349.1326,-54.0723C365.1051,-49.7554 382.4087,-45.0787 398.8363,-40.6388"/>
<polygon fill="#191970" stroke="#191970" points="400.1915,-43.8982 408.9319,-37.9103 398.3651,-37.1407 400.1915,-43.8982"/>
</g>
<!-- Node112&#45;&gt;Node107 -->
<g id="edge20" class="edge">
<title>Node112&#45;&gt;Node107</title>
<path fill="none" stroke="#191970" d="M531.5614,-41.5137C538.5635,-44.4513 545.5151,-47.6302 552,-51 584.4325,-67.8531 618.5685,-92.1818 641.4432,-109.579"/>
<polygon fill="#191970" stroke="#191970" points="639.5713,-112.5547 649.6317,-115.8772 643.839,-107.0061 639.5713,-112.5547"/>
</g>
</g>
</svg>
        <g id="navigator" transform="translate(0 0)" fill="#404254">
                <rect fill="#f2f5e9" fill-opacity="0.5" stroke="#606060" stroke-width=".5" x="0" y="0" width="60" height="60"/>
                <use id="zoomplus" xlink:href="#zoomPlus" x="17" y="9" onmousedown="handleZoom(evt,'in')"/>
                <use id="zoomminus" xlink:href="#zoomMin" x="42" y="9" onmousedown="handleZoom(evt,'out')"/>
                <use id="reset" xlink:href="#resetDef" x="30" y="36" onmousedown="handleReset()"/>
                <g id="arrowUp" xlink:href="#dirArrow" transform="translate(30 24)" onmousedown="handlePan(0,-1)">
                  <use xlink:href="#rim" fill="#404040">
                        <set attributeName="fill" to="#808080" begin="arrowUp.mouseover" end="arrowUp.mouseout"/>
                  </use>
                  <path fill="none" stroke="white" stroke-width="1.5" d="M0,-3.0v7 M-2.5,-0.5L0,-3.0L2.5,-0.5"/>
                </g>
                <g id="arrowRight" xlink:href="#dirArrow" transform="rotate(90) translate(36 -43)" onmousedown="handlePan(1,0)">
                  <use xlink:href="#rim" fill="#404040">
                        <set attributeName="fill" to="#808080" begin="arrowRight.mouseover" end="arrowRight.mouseout"/>
                  </use>
                  <path fill="none" stroke="white" stroke-width="1.5" d="M0,-3.0v7 M-2.5,-0.5L0,-3.0L2.5,-0.5"/>
                </g>
                <g id="arrowDown" xlink:href="#dirArrow" transform="rotate(180) translate(-30 -48)" onmousedown="handlePan(0,1)">
                  <use xlink:href="#rim" fill="#404040">
                        <set attributeName="fill" to="#808080" begin="arrowDown.mouseover" end="arrowDown.mouseout"/>
                  </use>
                  <path fill="none" stroke="white" stroke-width="1.5" d="M0,-3.0v7 M-2.5,-0.5L0,-3.0L2.5,-0.5"/>
                </g>
                <g id="arrowLeft" xlink:href="#dirArrow" transform="rotate(270) translate(-36 17)" onmousedown="handlePan(-1,0)">
                  <use xlink:href="#rim" fill="#404040">
                        <set attributeName="fill" to="#808080" begin="arrowLeft.mouseover" end="arrowLeft.mouseout"/>
                  </use>
                  <path fill="none" stroke="white" stroke-width="1.5" d="M0,-3.0v7 M-2.5,-0.5L0,-3.0L2.5,-0.5"/>
                </g>
        </g>
        <svg viewBox="0 0 15 15" width="100%" height="30px" preserveAspectRatio="xMaxYMin meet">
         <g id="arrow_out" transform="scale(0.3 0.3)">
          <a xlink:href="classRa_1_1Core_1_1Geometry_1_1TopologicalMesh_aa9a2d79990cf7cfb6abac7a2a648440f_cgraph_org.svg" target="_base">
           <rect id="button" ry="5" rx="5" y="6" x="6" height="38" width="38"
                fill="#f2f5e9" fill-opacity="0.5" stroke="#606060" stroke-width="1.0"/>
           <path id="arrow"
             d="M 11.500037,31.436501 C 11.940474,20.09759 22.043105,11.32322 32.158766,21.979434 L 37.068811,17.246167 C 37.068811,17.246167 37.088388,32 37.088388,32 L 22.160133,31.978069 C 22.160133,31.978069 26.997745,27.140456 26.997745,27.140456 C 18.528582,18.264221 13.291696,25.230495 11.500037,31.436501 z"
             style="fill:#404040;"/>
          </a>
         </g>
        </svg>
</svg>
