<?xml version="1.0" encoding="UTF-8" standalone="no"?>
<!DOCTYPE svg PUBLIC "-//W3C//DTD SVG 1.1//EN"
 "http://www.w3.org/Graphics/SVG/1.1/DTD/svg11.dtd">
<!-- Generated by graphviz version 2.40.1 (20161225.0304)
 -->
<!-- Title: Ra::Gui::ScaleGizmo::ScaleGizmo Pages: 1 -->
<!--zoomable 856 -->
<svg id="main" version="1.1" xmlns="http://www.w3.org/2000/svg" xmlns:xlink="http://www.w3.org/1999/xlink" xml:space="preserve" onload="init(evt)">
<style type="text/css"><![CDATA[
.edge:hover path { stroke: red; }
.edge:hover polygon { stroke: red; fill: red; }
]]></style>
<script type="text/javascript"><![CDATA[
var edges = document.getElementsByTagName('g');
if (edges && edges.length) {
  for (var i=0;i<edges.length;i++) {
    if (edges[i].id.substr(0,4)=='edge') {
      edges[i].setAttribute('class','edge');
    }
  }
}
]]></script>
        <defs>
                <circle id="rim" cx="0" cy="0" r="7"/>
                <circle id="rim2" cx="0" cy="0" r="3.5"/>
                <g id="zoomPlus">
                        <use xlink:href="#rim" fill="#404040">
                                <set attributeName="fill" to="#808080" begin="zoomplus.mouseover" end="zoomplus.mouseout"/>
                        </use>
                        <path d="M-4,0h8M0,-4v8" fill="none" stroke="white" stroke-width="1.5" pointer-events="none"/>
                </g>
                <g id="zoomMin">
                        <use xlink:href="#rim" fill="#404040">
                                <set attributeName="fill" to="#808080" begin="zoomminus.mouseover" end="zoomminus.mouseout"/>
                        </use>
                        <path d="M-4,0h8" fill="none" stroke="white" stroke-width="1.5" pointer-events="none"/>
                </g>
                <g id="dirArrow">
                        <path fill="none" stroke="white" stroke-width="1.5" d="M0,-3.0v7 M-2.5,-0.5L0,-3.0L2.5,-0.5"/>
                </g>
               <g id="resetDef">
                       <use xlink:href="#rim2" fill="#404040">
                               <set attributeName="fill" to="#808080" begin="reset.mouseover" end="reset.mouseout"/>
                       </use>
               </g>
        </defs>

<script type="text/javascript">
var viewWidth = 1105;
var viewHeight = 856;
var sectionId = 'dynsection-2';
</script>
<script xlink:href="svgpan.js"/>
<svg id="graph" class="graph">
<g id="viewport">
<title>Ra::Gui::ScaleGizmo::ScaleGizmo</title>
<polygon fill="#ffffff" stroke="transparent" points="-4,4 -4,-852 1101,-852 1101,4 -4,4"/>
<!-- Node0 -->
<g id="node1" class="node">
<title>Node0</title>
<polygon fill="#bfbfbf" stroke="#000000" points="0,-275 0,-305 116,-305 116,-275 0,-275"/>
<text text-anchor="start" x="8" y="-293" font-family="Helvetica,sans-Serif" font-size="10.00" fill="#000000">Ra::Gui::ScaleGizmo</text>
<text text-anchor="middle" x="58" y="-282" font-family="Helvetica,sans-Serif" font-size="10.00" fill="#000000">::ScaleGizmo</text>
</g>
<!-- Node1 -->
<g id="node2" class="node">
<title>Node1</title>
<g id="a_node2"><a xlink:href="namespaceRa_1_1Core_1_1Geometry.html#a74a11ca06c2edbf3724842ed69b6e58b" target="_top" xlink:title="Ra::Core::Geometry\l::makeCylinder">
<polygon fill="#ffffff" stroke="#000000" points="174,-669 174,-699 287,-699 287,-669 174,-669"/>
<text text-anchor="start" x="182" y="-687" font-family="Helvetica,sans-Serif" font-size="10.00" fill="#000000">Ra::Core::Geometry</text>
<text text-anchor="middle" x="230.5" y="-676" font-family="Helvetica,sans-Serif" font-size="10.00" fill="#000000">::makeCylinder</text>
</a>
</g>
</g>
<!-- Node0&#45;&gt;Node1 -->
<g id="edge1" class="edge">
<title>Node0&#45;&gt;Node1</title>
<path fill="none" stroke="#191970" d="M58.8894,-305.0572C62.4811,-354.8478 79.4403,-517.0847 152,-624 162.7095,-639.7803 178.9229,-653.1707 193.8397,-663.2707"/>
<polygon fill="#191970" stroke="#191970" points="192.1255,-666.3305 202.4212,-668.8304 195.9316,-660.4556 192.1255,-666.3305"/>
</g>
<!-- Node15 -->
<g id="node16" class="node">
<title>Node15</title>
<g id="a_node16"><a xlink:href="namespaceRa_1_1Core_1_1Geometry.html#a97444ae32c928b107e10c0a30dd4fb96" target="_top" xlink:title="Create an axis&#45;aligned cubic mesh with the given half extents, centered on the origin. ">
<polygon fill="#ffffff" stroke="#000000" points="174,-324 174,-354 287,-354 287,-324 174,-324"/>
<text text-anchor="start" x="182" y="-342" font-family="Helvetica,sans-Serif" font-size="10.00" fill="#000000">Ra::Core::Geometry</text>
<text text-anchor="middle" x="230.5" y="-331" font-family="Helvetica,sans-Serif" font-size="10.00" fill="#000000">::makeSharpBox</text>
</a>
</g>
</g>
<!-- Node0&#45;&gt;Node15 -->
<g id="edge19" class="edge">
<title>Node0&#45;&gt;Node15</title>
<path fill="none" stroke="#191970" d="M111.1632,-305.1014C129.0366,-310.1785 149.1442,-315.8902 167.6878,-321.1577"/>
<polygon fill="#191970" stroke="#191970" points="166.9365,-324.5827 177.5123,-323.9484 168.8493,-317.8491 166.9365,-324.5827"/>
</g>
<!-- Node16 -->
<g id="node17" class="node">
<title>Node16</title>
<g id="a_node17"><a xlink:href="classRa_1_1Core_1_1Geometry_1_1IndexedGeometry.html#a911ec504149568146f3371aa357c1ab9" target="_top" xlink:title="Ra::Core::Geometry\l::IndexedGeometry::append">
<polygon fill="#ffffff" stroke="#000000" points="154.5,-275 154.5,-305 306.5,-305 306.5,-275 154.5,-275"/>
<text text-anchor="start" x="162.5" y="-293" font-family="Helvetica,sans-Serif" font-size="10.00" fill="#000000">Ra::Core::Geometry</text>
<text text-anchor="middle" x="230.5" y="-282" font-family="Helvetica,sans-Serif" font-size="10.00" fill="#000000">::IndexedGeometry::append</text>
</a>
</g>
</g>
<!-- Node0&#45;&gt;Node16 -->
<g id="edge20" class="edge">
<title>Node0&#45;&gt;Node16</title>
<path fill="none" stroke="#191970" d="M116.4006,-290C125.373,-290 134.7958,-290 144.219,-290"/>
<polygon fill="#191970" stroke="#191970" points="144.4232,-293.5001 154.4232,-290 144.4231,-286.5001 144.4232,-293.5001"/>
</g>
<!-- Node17 -->
<g id="node18" class="node">
<title>Node17</title>
<g id="a_node18"><a xlink:href="classRa_1_1Gui_1_1Gizmo.html#aff3c8a79b3f5994f7ee38a49ac9bdf37" target="_top" xlink:title="Ra::Gui::Gizmo::makeRender\lTechnique">
<polygon fill="#ffffff" stroke="#000000" points="152,-226 152,-256 309,-256 309,-226 152,-226"/>
<text text-anchor="start" x="160" y="-244" font-family="Helvetica,sans-Serif" font-size="10.00" fill="#000000">Ra::Gui::Gizmo::makeRender</text>
<text text-anchor="middle" x="230.5" y="-233" font-family="Helvetica,sans-Serif" font-size="10.00" fill="#000000">Technique</text>
</a>
</g>
</g>
<!-- Node0&#45;&gt;Node17 -->
<g id="edge21" class="edge">
<title>Node0&#45;&gt;Node17</title>
<path fill="none" stroke="#191970" d="M111.1632,-274.8986C129.0366,-269.8215 149.1442,-264.1098 167.6878,-258.8423"/>
<polygon fill="#191970" stroke="#191970" points="168.8493,-262.1509 177.5123,-256.0516 166.9365,-255.4173 168.8493,-262.1509"/>
</g>
<!-- Node19 -->
<g id="node20" class="node">
<title>Node19</title>
<g id="a_node20"><a xlink:href="classRa_1_1Engine_1_1RenderObject.html#ae1ea453e2b698cda9956586d11b9cfbd" target="_top" xlink:title="Ra::Engine::RenderObject\l::setRenderTechnique">
<polygon fill="#ffffff" stroke="#000000" points="160.5,-177 160.5,-207 300.5,-207 300.5,-177 160.5,-177"/>
<text text-anchor="start" x="168.5" y="-195" font-family="Helvetica,sans-Serif" font-size="10.00" fill="#000000">Ra::Engine::RenderObject</text>
<text text-anchor="middle" x="230.5" y="-184" font-family="Helvetica,sans-Serif" font-size="10.00" fill="#000000">::setRenderTechnique</text>
</a>
</g>
</g>
<!-- Node0&#45;&gt;Node19 -->
<g id="edge23" class="edge">
<title>Node0&#45;&gt;Node19</title>
<path fill="none" stroke="#191970" d="M73.7511,-274.9027C91.4997,-258.611 121.8275,-232.8738 152,-217 156.2088,-214.7857 160.6485,-212.7249 165.1883,-210.8151"/>
<polygon fill="#191970" stroke="#191970" points="166.5835,-214.0273 174.6051,-207.106 164.0181,-207.5143 166.5835,-214.0273"/>
</g>
<!-- Node20 -->
<g id="node21" class="node">
<title>Node20</title>
<g id="a_node21"><a xlink:href="classRa_1_1Engine_1_1RenderObject.html#a509302aefbb1081540efecdfb1fbc9ea" target="_top" xlink:title="Ra::Engine::RenderObject\l::setMesh">
<polygon fill="#ffffff" stroke="#000000" points="160.5,-128 160.5,-158 300.5,-158 300.5,-128 160.5,-128"/>
<text text-anchor="start" x="168.5" y="-146" font-family="Helvetica,sans-Serif" font-size="10.00" fill="#000000">Ra::Engine::RenderObject</text>
<text text-anchor="middle" x="230.5" y="-135" font-family="Helvetica,sans-Serif" font-size="10.00" fill="#000000">::setMesh</text>
</a>
</g>
</g>
<!-- Node0&#45;&gt;Node20 -->
<g id="edge24" class="edge">
<title>Node0&#45;&gt;Node20</title>
<path fill="none" stroke="#191970" d="M65.6603,-274.8561C79.4366,-249.1225 110.8357,-196.851 152,-168 154.8385,-166.0106 157.843,-164.1738 160.9568,-162.4786"/>
<polygon fill="#191970" stroke="#191970" points="162.5296,-165.6055 169.9738,-158.0666 159.453,-159.3178 162.5296,-165.6055"/>
</g>
<!-- Node21 -->
<g id="node22" class="node">
<title>Node21</title>
<g id="a_node22"><a xlink:href="classRa_1_1Gui_1_1Gizmo.html#a1de8fbf60b72d5909b8467c973381a28" target="_top" xlink:title="add a render object to display the Gizmo ">
<polygon fill="#ffffff" stroke="#000000" points="157,-79 157,-109 304,-109 304,-79 157,-79"/>
<text text-anchor="start" x="165" y="-97" font-family="Helvetica,sans-Serif" font-size="10.00" fill="#000000">Ra::Gui::Gizmo::addRender</text>
<text text-anchor="middle" x="230.5" y="-86" font-family="Helvetica,sans-Serif" font-size="10.00" fill="#000000">Object</text>
</a>
</g>
</g>
<!-- Node0&#45;&gt;Node21 -->
<g id="edge25" class="edge">
<title>Node0&#45;&gt;Node21</title>
<path fill="none" stroke="#191970" d="M62.0871,-274.9617C71.872,-241.7981 99.7998,-161.9291 152,-119 154.0782,-117.2909 156.2749,-115.698 158.5615,-114.2134"/>
<polygon fill="#191970" stroke="#191970" points="160.7844,-116.9772 167.7656,-109.0077 157.3383,-110.8842 160.7844,-116.9772"/>
</g>
<!-- Node24 -->
<g id="node25" class="node">
<title>Node24</title>
<g id="a_node25"><a xlink:href="namespaceRa_1_1Core_1_1Geometry.html#a9f66e13e9a53313225543f2f1abcda8e" target="_top" xlink:title="Create a 2D grid mesh with given number of row and columns. ">
<polygon fill="#ffffff" stroke="#000000" points="174,-584 174,-614 287,-614 287,-584 174,-584"/>
<text text-anchor="start" x="182" y="-602" font-family="Helvetica,sans-Serif" font-size="10.00" fill="#000000">Ra::Core::Geometry</text>
<text text-anchor="middle" x="230.5" y="-591" font-family="Helvetica,sans-Serif" font-size="10.00" fill="#000000">::makePlaneGrid</text>
</a>
</g>
</g>
<!-- Node0&#45;&gt;Node24 -->
<g id="edge28" class="edge">
<title>Node0&#45;&gt;Node24</title>
<path fill="none" stroke="#191970" d="M63.5299,-305.0532C76.6058,-339.8801 111.3985,-428.2135 152,-496 169.4647,-525.1582 193.6766,-555.7966 210.577,-575.9994"/>
<polygon fill="#191970" stroke="#191970" points="207.9798,-578.3484 217.1094,-583.7244 213.3249,-573.8285 207.9798,-578.3484"/>
</g>
<!-- Node26 -->
<g id="node27" class="node">
<title>Node26</title>
<g id="a_node27"><a xlink:href="classRa_1_1Core_1_1Geometry_1_1AttribArrayGeometry.html#a365e4d1e66fb093b775a17562408126c" target="_top" xlink:title="Ra::Core::Geometry\l::AttribArrayGeometry\l::normalsWithLock">
<polygon fill="#ffffff" stroke="#000000" points="602,-464.5 602,-505.5 727,-505.5 727,-464.5 602,-464.5"/>
<text text-anchor="start" x="610" y="-493.5" font-family="Helvetica,sans-Serif" font-size="10.00" fill="#000000">Ra::Core::Geometry</text>
<text text-anchor="start" x="610" y="-482.5" font-family="Helvetica,sans-Serif" font-size="10.00" fill="#000000">::AttribArrayGeometry</text>
<text text-anchor="middle" x="664.5" y="-471.5" font-family="Helvetica,sans-Serif" font-size="10.00" fill="#000000">::normalsWithLock</text>
</a>
</g>
</g>
<!-- Node0&#45;&gt;Node26 -->
<g id="edge34" class="edge">
<title>Node0&#45;&gt;Node26</title>
<path fill="none" stroke="#191970" d="M64.126,-305.3377C76.2944,-333.6923 106.3388,-394.1346 152,-424 222.7495,-470.2748 467.6442,-481.4736 591.524,-484.1636"/>
<polygon fill="#191970" stroke="#191970" points="591.6088,-487.666 601.6782,-484.3709 591.7518,-480.6674 591.6088,-487.666"/>
</g>
<!-- Node27 -->
<g id="node28" class="node">
<title>Node27</title>
<g id="a_node28"><a xlink:href="classRa_1_1Core_1_1Geometry_1_1AttribArrayGeometry.html#a71452620a83df6e6f6b995a503dc8a52" target="_top" xlink:title="Release lock on vertices normals. ">
<polygon fill="#ffffff" stroke="#000000" points="168,-373.5 168,-414.5 293,-414.5 293,-373.5 168,-373.5"/>
<text text-anchor="start" x="176" y="-402.5" font-family="Helvetica,sans-Serif" font-size="10.00" fill="#000000">Ra::Core::Geometry</text>
<text text-anchor="start" x="176" y="-391.5" font-family="Helvetica,sans-Serif" font-size="10.00" fill="#000000">::AttribArrayGeometry</text>
<text text-anchor="middle" x="230.5" y="-380.5" font-family="Helvetica,sans-Serif" font-size="10.00" fill="#000000">::normalsUnlock</text>
</a>
</g>
</g>
<!-- Node0&#45;&gt;Node27 -->
<g id="edge36" class="edge">
<title>Node0&#45;&gt;Node27</title>
<path fill="none" stroke="#191970" d="M74.2154,-305.2908C92.1275,-321.5513 122.3723,-347.1944 152,-364 155.0754,-365.7445 158.2721,-367.4275 161.5394,-369.0451"/>
<polygon fill="#191970" stroke="#191970" points="160.3523,-372.354 170.8927,-373.4272 163.3222,-366.0152 160.3523,-372.354"/>
</g>
<!-- Node37 -->
<g id="node38" class="node">
<title>Node37</title>
<g id="a_node38"><a xlink:href="classRa_1_1Gui_1_1ScaleGizmo.html#aa51b01edb58183c9b461be7400311d22" target="_top" xlink:title="Called every time the underlying transform may have changed. ">
<polygon fill="#ffffff" stroke="#000000" points="172.5,-30 172.5,-60 288.5,-60 288.5,-30 172.5,-30"/>
<text text-anchor="start" x="180.5" y="-48" font-family="Helvetica,sans-Serif" font-size="10.00" fill="#000000">Ra::Gui::ScaleGizmo</text>
<text text-anchor="middle" x="230.5" y="-37" font-family="Helvetica,sans-Serif" font-size="10.00" fill="#000000">::updateTransform</text>
</a>
</g>
</g>
<!-- Node0&#45;&gt;Node37 -->
<g id="edge47" class="edge">
<title>Node0&#45;&gt;Node37</title>
<path fill="none" stroke="#191970" d="M60.0052,-274.8665C66.0851,-235.0683 87.9948,-126.5882 152,-69 155.4299,-65.914 159.2477,-63.2247 163.3005,-60.8811"/>
<polygon fill="#191970" stroke="#191970" points="165.1124,-63.8883 172.4888,-56.2831 161.9797,-57.6283 165.1124,-63.8883"/>
</g>
<!-- Node2 -->
<g id="node3" class="node">
<title>Node2</title>
<g id="a_node3"><a xlink:href="namespaceRa_1_1Core_1_1Math.html#a5f25a31a29b0688e349dc35a353b9766" target="_top" xlink:title="Ra::Core::Math::getOrthogonal\lVectors">
<polygon fill="#ffffff" stroke="#000000" points="364.5,-779 364.5,-809 528.5,-809 528.5,-779 364.5,-779"/>
<text text-anchor="start" x="372.5" y="-797" font-family="Helvetica,sans-Serif" font-size="10.00" fill="#000000">Ra::Core::Math::getOrthogonal</text>
<text text-anchor="middle" x="446.5" y="-786" font-family="Helvetica,sans-Serif" font-size="10.00" fill="#000000">Vectors</text>
</a>
</g>
</g>
<!-- Node1&#45;&gt;Node2 -->
<g id="edge2" class="edge">
<title>Node1&#45;&gt;Node2</title>
<path fill="none" stroke="#191970" d="M246.5835,-699.2577C267.5833,-718.3516 306.2503,-750.7552 345,-769 350.2593,-771.4763 355.7915,-773.7242 361.446,-775.7623"/>
<polygon fill="#191970" stroke="#191970" points="360.4569,-779.1223 371.051,-778.9973 362.6912,-772.4884 360.4569,-779.1223"/>
</g>
<!-- Node5 -->
<g id="node6" class="node">
<title>Node5</title>
<g id="a_node6"><a xlink:href="namespaceRa_1_1Core_1_1Math.html#a4f441ac6a56092d52849a4f48e274aa8" target="_top" xlink:title="Ra::Core::Math::cos">
<polygon fill="#ffffff" stroke="#000000" points="391.5,-828.5 391.5,-847.5 501.5,-847.5 501.5,-828.5 391.5,-828.5"/>
<text text-anchor="middle" x="446.5" y="-835.5" font-family="Helvetica,sans-Serif" font-size="10.00" fill="#000000">Ra::Core::Math::cos</text>
</a>
</g>
</g>
<!-- Node1&#45;&gt;Node5 -->
<g id="edge5" class="edge">
<title>Node1&#45;&gt;Node5</title>
<path fill="none" stroke="#191970" d="M238.5716,-699.091C254.6773,-727.6067 293.711,-789.2091 345,-819 356.009,-825.3945 368.7209,-829.7034 381.3437,-832.5917"/>
<polygon fill="#191970" stroke="#191970" points="380.9199,-836.0765 391.4136,-834.6162 382.2997,-829.2138 380.9199,-836.0765"/>
</g>
<!-- Node6 -->
<g id="node7" class="node">
<title>Node6</title>
<g id="a_node7"><a xlink:href="classRa_1_1Core_1_1Geometry_1_1AttribArrayGeometry.html#a887411177386edbcdc35d0c6bf78a83a" target="_top" xlink:title="Set vertices. ">
<polygon fill="#ffffff" stroke="#000000" points="384,-608.5 384,-649.5 509,-649.5 509,-608.5 384,-608.5"/>
<text text-anchor="start" x="392" y="-637.5" font-family="Helvetica,sans-Serif" font-size="10.00" fill="#000000">Ra::Core::Geometry</text>
<text text-anchor="start" x="392" y="-626.5" font-family="Helvetica,sans-Serif" font-size="10.00" fill="#000000">::AttribArrayGeometry</text>
<text text-anchor="middle" x="446.5" y="-615.5" font-family="Helvetica,sans-Serif" font-size="10.00" fill="#000000">::setVertices</text>
</a>
</g>
</g>
<!-- Node1&#45;&gt;Node6 -->
<g id="edge6" class="edge">
<title>Node1&#45;&gt;Node6</title>
<path fill="none" stroke="#191970" d="M287.2515,-669.5494C313.7507,-662.8019 345.6087,-654.6899 373.8442,-647.5003"/>
<polygon fill="#191970" stroke="#191970" points="374.8385,-650.8589 383.6656,-644.9995 373.1112,-644.0753 374.8385,-650.8589"/>
</g>
<!-- Node10 -->
<g id="node11" class="node">
<title>Node10</title>
<g id="a_node11"><a xlink:href="classRa_1_1Core_1_1Geometry_1_1AttribArrayGeometry.html#a646faabae9b936589fe03d8a9d2002e9" target="_top" xlink:title="Set normals. ">
<polygon fill="#ffffff" stroke="#000000" points="384,-548.5 384,-589.5 509,-589.5 509,-548.5 384,-548.5"/>
<text text-anchor="start" x="392" y="-577.5" font-family="Helvetica,sans-Serif" font-size="10.00" fill="#000000">Ra::Core::Geometry</text>
<text text-anchor="start" x="392" y="-566.5" font-family="Helvetica,sans-Serif" font-size="10.00" fill="#000000">::AttribArrayGeometry</text>
<text text-anchor="middle" x="446.5" y="-555.5" font-family="Helvetica,sans-Serif" font-size="10.00" fill="#000000">::setNormals</text>
</a>
</g>
</g>
<!-- Node1&#45;&gt;Node10 -->
<g id="edge10" class="edge">
<title>Node1&#45;&gt;Node10</title>
<path fill="none" stroke="#191970" d="M250.1588,-668.8181C280.1176,-645.7722 334.8106,-604.0863 345,-599 354.2196,-594.3978 364.2705,-590.3723 374.3461,-586.8917"/>
<polygon fill="#191970" stroke="#191970" points="375.5816,-590.1699 383.9874,-583.7206 373.3944,-583.5203 375.5816,-590.1699"/>
</g>
<!-- Node12 -->
<g id="node13" class="node">
<title>Node12</title>
<g id="a_node13"><a xlink:href="classRa_1_1Core_1_1Geometry_1_1AttribArrayGeometry.html#a3a3a1458f93f23c7c8663bc3d52f7841" target="_top" xlink:title="Ra::Core::Geometry\l::AttribArrayGeometry\l::colorize">
<polygon fill="#ffffff" stroke="#000000" points="384,-718.5 384,-759.5 509,-759.5 509,-718.5 384,-718.5"/>
<text text-anchor="start" x="392" y="-747.5" font-family="Helvetica,sans-Serif" font-size="10.00" fill="#000000">Ra::Core::Geometry</text>
<text text-anchor="start" x="392" y="-736.5" font-family="Helvetica,sans-Serif" font-size="10.00" fill="#000000">::AttribArrayGeometry</text>
<text text-anchor="middle" x="446.5" y="-725.5" font-family="Helvetica,sans-Serif" font-size="10.00" fill="#000000">::colorize</text>
</a>
</g>
</g>
<!-- Node1&#45;&gt;Node12 -->
<g id="edge14" class="edge">
<title>Node1&#45;&gt;Node12</title>
<path fill="none" stroke="#191970" d="M287.2515,-698.4506C313.7507,-705.1981 345.6087,-713.3101 373.8442,-720.4997"/>
<polygon fill="#191970" stroke="#191970" points="373.1112,-723.9247 383.6656,-723.0005 374.8385,-717.1411 373.1112,-723.9247"/>
</g>
<!-- Node14 -->
<g id="node15" class="node">
<title>Node14</title>
<g id="a_node15"><a xlink:href="classRa_1_1Core_1_1Geometry_1_1IndexedGeometry.html#a927f636cf0698e637cc23e2f7f012a48" target="_top" xlink:title="Ra::Core::Geometry\l::IndexedGeometry::checkConsistency">
<polygon fill="#ffffff" stroke="#000000" points="345,-669 345,-699 548,-699 548,-669 345,-669"/>
<text text-anchor="start" x="353" y="-687" font-family="Helvetica,sans-Serif" font-size="10.00" fill="#000000">Ra::Core::Geometry</text>
<text text-anchor="middle" x="446.5" y="-676" font-family="Helvetica,sans-Serif" font-size="10.00" fill="#000000">::IndexedGeometry::checkConsistency</text>
</a>
</g>
</g>
<!-- Node1&#45;&gt;Node14 -->
<g id="edge18" class="edge">
<title>Node1&#45;&gt;Node14</title>
<path fill="none" stroke="#191970" d="M287.2515,-684C301.8465,-684 318.0671,-684 334.4127,-684"/>
<polygon fill="#191970" stroke="#191970" points="334.5929,-687.5001 344.5929,-684 334.5929,-680.5001 334.5929,-687.5001"/>
</g>
<!-- Node3 -->
<g id="node4" class="node">
<title>Node3</title>
<g id="a_node4"><a xlink:href="namespaceRa_1_1Core_1_1Math.html#a90f0fe9079f5bb86c721ea4b61738470" target="_top" xlink:title="Returns the sign of any numeric type as { &#45;1, 0, 1}. ">
<polygon fill="#ffffff" stroke="#000000" points="607.5,-784.5 607.5,-803.5 721.5,-803.5 721.5,-784.5 607.5,-784.5"/>
<text text-anchor="middle" x="664.5" y="-791.5" font-family="Helvetica,sans-Serif" font-size="10.00" fill="#000000">Ra::Core::Math::sign</text>
</a>
</g>
</g>
<!-- Node2&#45;&gt;Node3 -->
<g id="edge3" class="edge">
<title>Node2&#45;&gt;Node3</title>
<path fill="none" stroke="#191970" d="M528.6058,-794C551.2161,-794 575.4731,-794 597.145,-794"/>
<polygon fill="#191970" stroke="#191970" points="597.2303,-797.5001 607.2303,-794 597.2303,-790.5001 597.2303,-797.5001"/>
</g>
<!-- Node4 -->
<g id="node5" class="node">
<title>Node4</title>
<g id="a_node5"><a xlink:href="namespaceRa_1_1Core_1_1Math.html#a1e6a5327cb1c73b29e0c6539576d02b0" target="_top" xlink:title="Ra::Core::Math::signum">
<polygon fill="#ffffff" stroke="#000000" points="796.5,-784.5 796.5,-803.5 926.5,-803.5 926.5,-784.5 796.5,-784.5"/>
<text text-anchor="middle" x="861.5" y="-791.5" font-family="Helvetica,sans-Serif" font-size="10.00" fill="#000000">Ra::Core::Math::signum</text>
</a>
</g>
</g>
<!-- Node3&#45;&gt;Node4 -->
<g id="edge4" class="edge">
<title>Node3&#45;&gt;Node4</title>
<path fill="none" stroke="#191970" d="M721.7452,-794C741.9479,-794 764.9767,-794 786.431,-794"/>
<polygon fill="#191970" stroke="#191970" points="786.4884,-797.5001 796.4884,-794 786.4883,-790.5001 786.4884,-797.5001"/>
</g>
<!-- Node7 -->
<g id="node8" class="node">
<title>Node7</title>
<g id="a_node8"><a xlink:href="classRa_1_1Core_1_1Utils_1_1AttribManager.html#a056b7697cfbedd6b20dde6ce7955094e" target="_top" xlink:title="Ra::Core::Utils::AttribManager\l::setAttrib">
<polygon fill="#ffffff" stroke="#000000" points="584,-589 584,-619 745,-619 745,-589 584,-589"/>
<text text-anchor="start" x="592" y="-607" font-family="Helvetica,sans-Serif" font-size="10.00" fill="#000000">Ra::Core::Utils::AttribManager</text>
<text text-anchor="middle" x="664.5" y="-596" font-family="Helvetica,sans-Serif" font-size="10.00" fill="#000000">::setAttrib</text>
</a>
</g>
</g>
<!-- Node6&#45;&gt;Node7 -->
<g id="edge7" class="edge">
<title>Node6&#45;&gt;Node7</title>
<path fill="none" stroke="#191970" d="M509.2622,-621.8025C529.3508,-619.4988 552.0115,-616.9001 573.6851,-614.4146"/>
<polygon fill="#191970" stroke="#191970" points="574.358,-617.8604 583.894,-613.2438 573.5604,-610.906 574.358,-617.8604"/>
</g>
<!-- Node8 -->
<g id="node9" class="node">
<title>Node8</title>
<g id="a_node9"><a xlink:href="classRa_1_1Core_1_1Geometry_1_1AttribArrayGeometry.html#acabe05880d71a8dc4406964c258fff5a" target="_top" xlink:title="Access the vertices positions. ">
<polygon fill="#ffffff" stroke="#000000" points="602,-638.5 602,-679.5 727,-679.5 727,-638.5 602,-638.5"/>
<text text-anchor="start" x="610" y="-667.5" font-family="Helvetica,sans-Serif" font-size="10.00" fill="#000000">Ra::Core::Geometry</text>
<text text-anchor="start" x="610" y="-656.5" font-family="Helvetica,sans-Serif" font-size="10.00" fill="#000000">::AttribArrayGeometry</text>
<text text-anchor="middle" x="664.5" y="-645.5" font-family="Helvetica,sans-Serif" font-size="10.00" fill="#000000">::vertices</text>
</a>
</g>
</g>
<!-- Node6&#45;&gt;Node8 -->
<g id="edge8" class="edge">
<title>Node6&#45;&gt;Node8</title>
<path fill="none" stroke="#191970" d="M509.2622,-637.637C535.0268,-641.1826 565.0223,-645.3104 591.7399,-648.9871"/>
<polygon fill="#191970" stroke="#191970" points="591.4197,-652.476 601.8035,-650.372 592.374,-645.5413 591.4197,-652.476"/>
</g>
<!-- Node9 -->
<g id="node10" class="node">
<title>Node9</title>
<g id="a_node10"><a xlink:href="classRa_1_1Core_1_1Utils_1_1AttribManager.html#ae0cb7281ec72606a5392602b4ea50d2c" target="_top" xlink:title="Ra::Core::Utils::AttribManager\l::getAttrib">
<polygon fill="#ffffff" stroke="#000000" points="781,-534 781,-564 942,-564 942,-534 781,-534"/>
<text text-anchor="start" x="789" y="-552" font-family="Helvetica,sans-Serif" font-size="10.00" fill="#000000">Ra::Core::Utils::AttribManager</text>
<text text-anchor="middle" x="861.5" y="-541" font-family="Helvetica,sans-Serif" font-size="10.00" fill="#000000">::getAttrib</text>
</a>
</g>
</g>
<!-- Node8&#45;&gt;Node9 -->
<g id="edge9" class="edge">
<title>Node8&#45;&gt;Node9</title>
<path fill="none" stroke="#191970" d="M724.5614,-638.4863C731.5635,-635.5487 738.5151,-632.3698 745,-629 777.4325,-612.1469 811.5685,-587.8182 834.4432,-570.421"/>
<polygon fill="#191970" stroke="#191970" points="836.839,-572.9939 842.6317,-564.1228 832.5713,-567.4453 836.839,-572.9939"/>
</g>
<!-- Node10&#45;&gt;Node7 -->
<g id="edge11" class="edge">
<title>Node10&#45;&gt;Node7</title>
<path fill="none" stroke="#191970" d="M509.2622,-579.0765C529.4417,-582.3163 552.2166,-585.9729 573.9792,-589.4668"/>
<polygon fill="#191970" stroke="#191970" points="573.4656,-592.9291 583.894,-591.0587 574.5753,-586.0176 573.4656,-592.9291"/>
</g>
<!-- Node11 -->
<g id="node12" class="node">
<title>Node11</title>
<g id="a_node12"><a xlink:href="classRa_1_1Core_1_1Geometry_1_1AttribArrayGeometry.html#abfd2320cb73c0cb14805c234af594b5e" target="_top" xlink:title="Access the vertices normals. ">
<polygon fill="#ffffff" stroke="#000000" points="602,-528.5 602,-569.5 727,-569.5 727,-528.5 602,-528.5"/>
<text text-anchor="start" x="610" y="-557.5" font-family="Helvetica,sans-Serif" font-size="10.00" fill="#000000">Ra::Core::Geometry</text>
<text text-anchor="start" x="610" y="-546.5" font-family="Helvetica,sans-Serif" font-size="10.00" fill="#000000">::AttribArrayGeometry</text>
<text text-anchor="middle" x="664.5" y="-535.5" font-family="Helvetica,sans-Serif" font-size="10.00" fill="#000000">::normals</text>
</a>
</g>
</g>
<!-- Node10&#45;&gt;Node11 -->
<g id="edge12" class="edge">
<title>Node10&#45;&gt;Node11</title>
<path fill="none" stroke="#191970" d="M509.2622,-563.242C535.0268,-560.8783 565.0223,-558.1264 591.7399,-555.6752"/>
<polygon fill="#191970" stroke="#191970" points="592.1651,-559.151 601.8035,-554.752 591.5255,-552.1803 592.1651,-559.151"/>
</g>
<!-- Node11&#45;&gt;Node9 -->
<g id="edge13" class="edge">
<title>Node11&#45;&gt;Node9</title>
<path fill="none" stroke="#191970" d="M727.1027,-549C740.9253,-549 755.8405,-549 770.5309,-549"/>
<polygon fill="#191970" stroke="#191970" points="770.6492,-552.5001 780.6492,-549 770.6491,-545.5001 770.6492,-552.5001"/>
</g>
<!-- Node12&#45;&gt;Node8 -->
<g id="edge17" class="edge">
<title>Node12&#45;&gt;Node8</title>
<path fill="none" stroke="#191970" d="M509.1436,-721.7457C522.0826,-717.83 535.5558,-713.4918 548,-709 568.7267,-701.5187 591.0599,-692.2417 610.5729,-683.7178"/>
<polygon fill="#191970" stroke="#191970" points="612.1666,-686.8404 619.9061,-679.605 609.3438,-680.4347 612.1666,-686.8404"/>
</g>
<!-- Node13 -->
<g id="node14" class="node">
<title>Node13</title>
<g id="a_node14"><a xlink:href="classRa_1_1Core_1_1Geometry_1_1AttribArrayGeometry.html#aeb68d9cd8cf8c1e05886a23f0ad33c59" target="_top" xlink:title="Ra::Core::Geometry\l::AttribArrayGeometry\l::getAttrib">
<polygon fill="#ffffff" stroke="#000000" points="602,-705.5 602,-746.5 727,-746.5 727,-705.5 602,-705.5"/>
<text text-anchor="start" x="610" y="-734.5" font-family="Helvetica,sans-Serif" font-size="10.00" fill="#000000">Ra::Core::Geometry</text>
<text text-anchor="start" x="610" y="-723.5" font-family="Helvetica,sans-Serif" font-size="10.00" fill="#000000">::AttribArrayGeometry</text>
<text text-anchor="middle" x="664.5" y="-712.5" font-family="Helvetica,sans-Serif" font-size="10.00" fill="#000000">::getAttrib</text>
</a>
</g>
</g>
<!-- Node12&#45;&gt;Node13 -->
<g id="edge15" class="edge">
<title>Node12&#45;&gt;Node13</title>
<path fill="none" stroke="#191970" d="M509.2622,-735.2573C535.0268,-733.7209 565.0223,-731.9322 591.7399,-730.3389"/>
<polygon fill="#191970" stroke="#191970" points="592.0296,-733.8279 601.8035,-729.7388 591.6128,-726.8404 592.0296,-733.8279"/>
</g>
<!-- Node13&#45;&gt;Node9 -->
<g id="edge16" class="edge">
<title>Node13&#45;&gt;Node9</title>
<path fill="none" stroke="#191970" d="M718.3907,-705.3129C727.688,-700.6242 736.9418,-695.1743 745,-689 788.4457,-655.7114 826.4009,-603.4342 846.4281,-573.0654"/>
<polygon fill="#191970" stroke="#191970" points="849.55,-574.6839 852.0541,-564.3892 843.6767,-570.8754 849.55,-574.6839"/>
</g>
<!-- Node18 -->
<g id="node19" class="node">
<title>Node18</title>
<g id="a_node19"><a xlink:href="namespaceRa_1_1Engine_1_1ShaderConfigurationFactory.html#ad6fe3c60f8f2b9f9f5d8220ffe4d5ba6" target="_top" xlink:title="Ra::Engine::ShaderConfiguration\lFactory::getConfiguration">
<polygon fill="#ffffff" stroke="#000000" points="360,-188 360,-218 533,-218 533,-188 360,-188"/>
<text text-anchor="start" x="368" y="-206" font-family="Helvetica,sans-Serif" font-size="10.00" fill="#000000">Ra::Engine::ShaderConfiguration</text>
<text text-anchor="middle" x="446.5" y="-195" font-family="Helvetica,sans-Serif" font-size="10.00" fill="#000000">Factory::getConfiguration</text>
</a>
</g>
</g>
<!-- Node17&#45;&gt;Node18 -->
<g id="edge22" class="edge">
<title>Node17&#45;&gt;Node18</title>
<path fill="none" stroke="#191970" d="M309.092,-227.1736C322.6811,-224.783 336.9426,-222.274 350.9227,-219.8145"/>
<polygon fill="#191970" stroke="#191970" points="351.7967,-223.2146 361.039,-218.0348 350.5838,-216.3205 351.7967,-223.2146"/>
</g>
<!-- Node22 -->
<g id="node23" class="node">
<title>Node22</title>
<g id="a_node23"><a xlink:href="classRa_1_1Engine_1_1Component.html#aea20d8186eb969b255cd83218a809178" target="_top" xlink:title="Add a new render object to the component. This adds the RO to the manager for drawing. ">
<polygon fill="#ffffff" stroke="#000000" points="381,-79 381,-109 512,-109 512,-79 381,-79"/>
<text text-anchor="start" x="389" y="-97" font-family="Helvetica,sans-Serif" font-size="10.00" fill="#000000">Ra::Engine::Component</text>
<text text-anchor="middle" x="446.5" y="-86" font-family="Helvetica,sans-Serif" font-size="10.00" fill="#000000">::addRenderObject</text>
</a>
</g>
</g>
<!-- Node21&#45;&gt;Node22 -->
<g id="edge26" class="edge">
<title>Node21&#45;&gt;Node22</title>
<path fill="none" stroke="#191970" d="M304.2308,-94C325.6483,-94 349.0718,-94 370.6188,-94"/>
<polygon fill="#191970" stroke="#191970" points="370.6995,-97.5001 380.6995,-94 370.6995,-90.5001 370.6995,-97.5001"/>
</g>
<!-- Node23 -->
<g id="node24" class="node">
<title>Node23</title>
<g id="a_node24"><a xlink:href="classRa_1_1Engine_1_1Component.html#a10b0bc182b76165744ebea603ae32dfe" target="_top" xlink:title="Shortcut to access the render object manager. ">
<polygon fill="#ffffff" stroke="#000000" points="599,-79 599,-109 730,-109 730,-79 599,-79"/>
<text text-anchor="start" x="607" y="-97" font-family="Helvetica,sans-Serif" font-size="10.00" fill="#000000">Ra::Engine::Component</text>
<text text-anchor="middle" x="664.5" y="-86" font-family="Helvetica,sans-Serif" font-size="10.00" fill="#000000">::getRoMgr</text>
</a>
</g>
</g>
<!-- Node22&#45;&gt;Node23 -->
<g id="edge27" class="edge">
<title>Node22&#45;&gt;Node23</title>
<path fill="none" stroke="#191970" d="M512.2028,-94C536.3338,-94 563.8453,-94 588.7853,-94"/>
<polygon fill="#191970" stroke="#191970" points="588.9318,-97.5001 598.9318,-94 588.9317,-90.5001 588.9318,-97.5001"/>
</g>
<!-- Node24&#45;&gt;Node6 -->
<g id="edge30" class="edge">
<title>Node24&#45;&gt;Node6</title>
<path fill="none" stroke="#191970" d="M287.2515,-606.8821C313.635,-610.5465 345.3306,-614.9487 373.4741,-618.8575"/>
<polygon fill="#191970" stroke="#191970" points="373.2792,-622.364 383.6656,-620.273 374.2422,-615.4305 373.2792,-622.364"/>
</g>
<!-- Node24&#45;&gt;Node10 -->
<g id="edge31" class="edge">
<title>Node24&#45;&gt;Node10</title>
<path fill="none" stroke="#191970" d="M287.2515,-591.1179C313.635,-587.4535 345.3306,-583.0513 373.4741,-579.1425"/>
<polygon fill="#191970" stroke="#191970" points="374.2422,-582.5695 383.6656,-577.727 373.2792,-575.636 374.2422,-582.5695"/>
</g>
<!-- Node24&#45;&gt;Node12 -->
<g id="edge32" class="edge">
<title>Node24&#45;&gt;Node12</title>
<path fill="none" stroke="#191970" d="M253.1663,-614.0681C269.6222,-625.5903 291.9052,-642.4378 309,-660 327.8491,-679.3645 322.8855,-693.4688 345,-709 353.8073,-715.1855 363.8976,-720.1109 374.2227,-724.0291"/>
<polygon fill="#191970" stroke="#191970" points="373.1462,-727.3604 383.741,-727.3516 375.4531,-720.7515 373.1462,-727.3604"/>
</g>
<!-- Node24&#45;&gt;Node14 -->
<g id="edge33" class="edge">
<title>Node24&#45;&gt;Node14</title>
<path fill="none" stroke="#191970" d="M255.1538,-614.1545C277.8098,-627.5316 312.6797,-646.7575 345,-659 351.7674,-661.5634 358.8891,-663.9348 366.0906,-666.1118"/>
<polygon fill="#191970" stroke="#191970" points="365.3558,-669.5426 375.9345,-668.9597 367.3012,-662.8184 365.3558,-669.5426"/>
</g>
<!-- Node25 -->
<g id="node26" class="node">
<title>Node25</title>
<g id="a_node26"><a xlink:href="classRa_1_1Core_1_1Grid.html#ac78b9eee5519a5287b1bc7a898b4ea01" target="_top" xlink:title="Access an element with a D&#45;dimensional index. ">
<polygon fill="#ffffff" stroke="#000000" points="396.5,-510.5 396.5,-529.5 496.5,-529.5 496.5,-510.5 396.5,-510.5"/>
<text text-anchor="middle" x="446.5" y="-517.5" font-family="Helvetica,sans-Serif" font-size="10.00" fill="#000000">Ra::Core::Grid::at</text>
</a>
</g>
</g>
<!-- Node24&#45;&gt;Node25 -->
<g id="edge29" class="edge">
<title>Node24&#45;&gt;Node25</title>
<path fill="none" stroke="#191970" d="M254.123,-583.9385C276.6404,-570.2433 311.923,-550.4727 345,-539 358.1525,-534.4381 372.6648,-530.8955 386.5019,-528.1737"/>
<polygon fill="#191970" stroke="#191970" points="387.2342,-531.5976 396.4289,-526.3339 385.9586,-524.7148 387.2342,-531.5976"/>
</g>
<!-- Node26&#45;&gt;Node9 -->
<g id="edge35" class="edge">
<title>Node26&#45;&gt;Node9</title>
<path fill="none" stroke="#191970" d="M727.1027,-505.3379C752.3661,-513.5453 781.2792,-522.9384 805.7995,-530.9044"/>
<polygon fill="#191970" stroke="#191970" points="804.7211,-534.2341 815.3132,-533.9952 806.884,-527.5766 804.7211,-534.2341"/>
</g>
<!-- Node27&#45;&gt;Node9 -->
<g id="edge37" class="edge">
<title>Node27&#45;&gt;Node9</title>
<path fill="none" stroke="#191970" d="M293.3809,-389.003C393.9715,-383.6585 594.9974,-384.005 745,-455 782.4029,-472.7025 818.3471,-504.7484 840.1776,-526.4469"/>
<polygon fill="#191970" stroke="#191970" points="837.7732,-528.9933 847.2899,-533.6498 842.7542,-524.075 837.7732,-528.9933"/>
</g>
<!-- Node28 -->
<g id="node29" class="node">
<title>Node28</title>
<g id="a_node29"><a xlink:href="classRa_1_1Core_1_1Utils_1_1AttribManager.html#ac2d3cdc360ffe1904a15ff8504de95b8" target="_top" xlink:title="Ra::Core::Utils::AttribManager\l::addAttrib">
<polygon fill="#ffffff" stroke="#000000" points="366,-335 366,-365 527,-365 527,-335 366,-335"/>
<text text-anchor="start" x="374" y="-353" font-family="Helvetica,sans-Serif" font-size="10.00" fill="#000000">Ra::Core::Utils::AttribManager</text>
<text text-anchor="middle" x="446.5" y="-342" font-family="Helvetica,sans-Serif" font-size="10.00" fill="#000000">::addAttrib</text>
</a>
</g>
</g>
<!-- Node27&#45;&gt;Node28 -->
<g id="edge38" class="edge">
<title>Node27&#45;&gt;Node28</title>
<path fill="none" stroke="#191970" d="M293.2663,-381.2143C314.8584,-376.8159 339.3948,-371.8177 362.4066,-367.1301"/>
<polygon fill="#191970" stroke="#191970" points="363.4078,-370.4981 372.508,-365.0725 362.0105,-363.639 363.4078,-370.4981"/>
</g>
<!-- Node34 -->
<g id="node35" class="node">
<title>Node34</title>
<g id="a_node35"><a xlink:href="classRa_1_1Core_1_1Utils_1_1AttribManager.html#af89047a2747bc4e08144bbb3477e1d8e" target="_top" xlink:title="findAttrib Grab an attribute handler by name. ">
<polygon fill="#ffffff" stroke="#000000" points="366,-286 366,-316 527,-316 527,-286 366,-286"/>
<text text-anchor="start" x="374" y="-304" font-family="Helvetica,sans-Serif" font-size="10.00" fill="#000000">Ra::Core::Utils::AttribManager</text>
<text text-anchor="middle" x="446.5" y="-293" font-family="Helvetica,sans-Serif" font-size="10.00" fill="#000000">::findAttrib</text>
</a>
</g>
</g>
<!-- Node27&#45;&gt;Node34 -->
<g id="edge44" class="edge">
<title>Node27&#45;&gt;Node34</title>
<path fill="none" stroke="#191970" d="M292.264,-373.49C298.1031,-370.6436 303.7826,-367.4838 309,-364 328.3478,-351.0812 324.8916,-337.6998 345,-326 348.8541,-323.7575 352.9035,-321.7152 357.075,-319.8553"/>
<polygon fill="#191970" stroke="#191970" points="358.4329,-323.0814 366.3741,-316.068 355.7925,-316.5985 358.4329,-323.0814"/>
</g>
<!-- Node35 -->
<g id="node36" class="node">
<title>Node35</title>
<g id="a_node36"><a xlink:href="classRa_1_1Core_1_1Utils_1_1AttribBase.html#ae2dd0a9753d036b781460b05348c13ca" target="_top" xlink:title="Return the attribute&#39;s name. ">
<polygon fill="#ffffff" stroke="#000000" points="375,-237 375,-267 518,-267 518,-237 375,-237"/>
<text text-anchor="start" x="383" y="-255" font-family="Helvetica,sans-Serif" font-size="10.00" fill="#000000">Ra::Core::Utils::AttribBase</text>
<text text-anchor="middle" x="446.5" y="-244" font-family="Helvetica,sans-Serif" font-size="10.00" fill="#000000">::getName</text>
</a>
</g>
</g>
<!-- Node27&#45;&gt;Node35 -->
<g id="edge45" class="edge">
<title>Node27&#45;&gt;Node35</title>
<path fill="none" stroke="#191970" d="M293.3746,-375.5647C299.0609,-372.3011 304.3992,-368.4769 309,-364 338.991,-334.8169 313.2648,-304.2761 345,-277 351.0483,-271.8016 358.011,-267.6512 365.396,-264.3423"/>
<polygon fill="#191970" stroke="#191970" points="366.9163,-267.5053 374.9391,-260.5854 364.3521,-260.9918 366.9163,-267.5053"/>
</g>
<!-- Node36 -->
<g id="node37" class="node">
<title>Node36</title>
<g id="a_node37"><a xlink:href="classRa_1_1Core_1_1Utils_1_1AttribBase.html#abda7afaabfc16d1b5f9ea51ce0f391fd" target="_top" xlink:title="Downcast from AttribBase to Attrib&lt;T&gt;. ">
<polygon fill="#ffffff" stroke="#000000" points="375,-423 375,-453 518,-453 518,-423 375,-423"/>
<text text-anchor="start" x="383" y="-441" font-family="Helvetica,sans-Serif" font-size="10.00" fill="#000000">Ra::Core::Utils::AttribBase</text>
<text text-anchor="middle" x="446.5" y="-430" font-family="Helvetica,sans-Serif" font-size="10.00" fill="#000000">::cast</text>
</a>
</g>
</g>
<!-- Node27&#45;&gt;Node36 -->
<g id="edge46" class="edge">
<title>Node27&#45;&gt;Node36</title>
<path fill="none" stroke="#191970" d="M293.2663,-406.7857C315.6092,-411.3371 341.1046,-416.5306 364.8012,-421.3577"/>
<polygon fill="#191970" stroke="#191970" points="364.335,-424.8345 374.8324,-423.401 365.7323,-417.9754 364.335,-424.8345"/>
</g>
<!-- Node29 -->
<g id="node30" class="node">
<title>Node29</title>
<g id="a_node30"><a xlink:href="classRa_1_1Core_1_1Utils_1_1AttribManager.html#ae61e2c70f407d49d854ee4b98a39121f" target="_top" xlink:title="Return true if h correspond to an existing attribute in *this. ">
<polygon fill="#ffffff" stroke="#000000" points="584,-286 584,-316 745,-316 745,-286 584,-286"/>
<text text-anchor="start" x="592" y="-304" font-family="Helvetica,sans-Serif" font-size="10.00" fill="#000000">Ra::Core::Utils::AttribManager</text>
<text text-anchor="middle" x="664.5" y="-293" font-family="Helvetica,sans-Serif" font-size="10.00" fill="#000000">::isValid</text>
</a>
</g>
</g>
<!-- Node28&#45;&gt;Node29 -->
<g id="edge39" class="edge">
<title>Node28&#45;&gt;Node29</title>
<path fill="none" stroke="#191970" d="M513.3887,-334.9654C536.9296,-329.6741 563.5672,-323.6867 587.8495,-318.2288"/>
<polygon fill="#191970" stroke="#191970" points="588.7488,-321.6141 597.7378,-316.0062 587.2136,-314.7845 588.7488,-321.6141"/>
</g>
<!-- Node33 -->
<g id="node34" class="node">
<title>Node33</title>
<g id="a_node34"><a xlink:href="classRa_1_1Core_1_1Utils_1_1Observable.html#a7e5fe761726d56a51f95192eb6555f8f" target="_top" xlink:title="Notify (i.e. call) each attached observer with argument p. ">
<polygon fill="#ffffff" stroke="#000000" points="585,-335 585,-365 744,-365 744,-335 585,-335"/>
<text text-anchor="start" x="593" y="-353" font-family="Helvetica,sans-Serif" font-size="10.00" fill="#000000">Ra::Core::Utils::Observable</text>
<text text-anchor="middle" x="664.5" y="-342" font-family="Helvetica,sans-Serif" font-size="10.00" fill="#000000">&lt; const std::string &amp;&gt;::notify</text>
</a>
</g>
</g>
<!-- Node28&#45;&gt;Node33 -->
<g id="edge43" class="edge">
<title>Node28&#45;&gt;Node33</title>
<path fill="none" stroke="#191970" d="M527.0558,-350C542.4775,-350 558.716,-350 574.4146,-350"/>
<polygon fill="#191970" stroke="#191970" points="574.6388,-353.5001 584.6388,-350 574.6387,-346.5001 574.6388,-353.5001"/>
</g>
<!-- Node30 -->
<g id="node31" class="node">
<title>Node30</title>
<g id="a_node31"><a xlink:href="classRa_1_1Core_1_1Utils_1_1AttribHandle.html#a17afbd6718234d480c05258369bdfde9" target="_top" xlink:title="Ra::Core::Utils::AttribHandle\l::attribName">
<polygon fill="#ffffff" stroke="#000000" points="784.5,-310 784.5,-340 938.5,-340 938.5,-310 784.5,-310"/>
<text text-anchor="start" x="792.5" y="-328" font-family="Helvetica,sans-Serif" font-size="10.00" fill="#000000">Ra::Core::Utils::AttribHandle</text>
<text text-anchor="middle" x="861.5" y="-317" font-family="Helvetica,sans-Serif" font-size="10.00" fill="#000000">::attribName</text>
</a>
</g>
</g>
<!-- Node29&#45;&gt;Node30 -->
<g id="edge40" class="edge">
<title>Node29&#45;&gt;Node30</title>
<path fill="none" stroke="#191970" d="M745.1959,-310.831C754.8172,-312.0031 764.673,-313.2038 774.3794,-314.3863"/>
<polygon fill="#191970" stroke="#191970" points="774.0744,-317.875 784.4243,-315.6101 774.921,-310.9263 774.0744,-317.875"/>
</g>
<!-- Node31 -->
<g id="node32" class="node">
<title>Node31</title>
<g id="a_node32"><a xlink:href="classRa_1_1Core_1_1Utils_1_1Index.html#a771f93efd49538950e3cb9e57e46fbaf" target="_top" xlink:title="Ra::Core::Utils::Index\l::Invalid">
<polygon fill="#ffffff" stroke="#000000" points="802,-261 802,-291 921,-291 921,-261 802,-261"/>
<text text-anchor="start" x="810" y="-279" font-family="Helvetica,sans-Serif" font-size="10.00" fill="#000000">Ra::Core::Utils::Index</text>
<text text-anchor="middle" x="861.5" y="-268" font-family="Helvetica,sans-Serif" font-size="10.00" fill="#000000">::Invalid</text>
</a>
</g>
</g>
<!-- Node29&#45;&gt;Node31 -->
<g id="edge41" class="edge">
<title>Node29&#45;&gt;Node31</title>
<path fill="none" stroke="#191970" d="M745.1959,-290.7594C760.5635,-288.8092 776.5291,-286.7831 791.5288,-284.8796"/>
<polygon fill="#191970" stroke="#191970" points="792.2599,-288.315 801.7397,-283.5838 791.3786,-281.3707 792.2599,-288.315"/>
</g>
<!-- Node32 -->
<g id="node33" class="node">
<title>Node32</title>
<g id="a_node33"><a xlink:href="classRa_1_1Core_1_1Utils_1_1Index.html#ab3376097b792b1ac2068c6da1cb6c8e4" target="_top" xlink:title="CONSTRUCTOR. ">
<polygon fill="#ffffff" stroke="#000000" points="978,-261 978,-291 1097,-291 1097,-261 978,-261"/>
<text text-anchor="start" x="986" y="-279" font-family="Helvetica,sans-Serif" font-size="10.00" fill="#000000">Ra::Core::Utils::Index</text>
<text text-anchor="middle" x="1037.5" y="-268" font-family="Helvetica,sans-Serif" font-size="10.00" fill="#000000">::Index</text>
</a>
</g>
</g>
<!-- Node31&#45;&gt;Node32 -->
<g id="edge42" class="edge">
<title>Node31&#45;&gt;Node32</title>
<path fill="none" stroke="#191970" d="M921.0856,-276C936.1377,-276 952.4324,-276 967.9288,-276"/>
<polygon fill="#191970" stroke="#191970" points="967.9758,-279.5001 977.9758,-276 967.9758,-272.5001 967.9758,-279.5001"/>
</g>
<!-- Node38 -->
<g id="node39" class="node">
<title>Node38</title>
<g id="a_node39"><a xlink:href="namespaceRa_1_1Core_1_1Geometry.html#aa04e6052d8911b1df1bd881474debb45" target="_top" xlink:title="Ra::Core::Geometry::t">
<polygon fill="#ffffff" stroke="#000000" points="385.5,-.5 385.5,-19.5 507.5,-19.5 507.5,-.5 385.5,-.5"/>
<text text-anchor="middle" x="446.5" y="-7.5" font-family="Helvetica,sans-Serif" font-size="10.00" fill="#000000">Ra::Core::Geometry::t</text>
</a>
</g>
</g>
<!-- Node37&#45;&gt;Node38 -->
<g id="edge48" class="edge">
<title>Node37&#45;&gt;Node38</title>
<path fill="none" stroke="#191970" d="M288.6682,-35.5746C316.1647,-31.1191 349.1807,-25.7693 377.8925,-21.117"/>
<polygon fill="#191970" stroke="#191970" points="378.5412,-24.5576 387.8526,-19.5031 377.4215,-17.6477 378.5412,-24.5576"/>
</g>
<!-- Node39 -->
<g id="node40" class="node">
<title>Node39</title>
<g id="a_node40"><a xlink:href="classRa_1_1Gui_1_1Gizmo.html#a34cb0247b502236be30ed5949f3bbc90" target="_top" xlink:title="read access to the gizmo render objects id ">
<polygon fill="#ffffff" stroke="#000000" points="391.5,-38.5 391.5,-57.5 501.5,-57.5 501.5,-38.5 391.5,-38.5"/>
<text text-anchor="middle" x="446.5" y="-45.5" font-family="Helvetica,sans-Serif" font-size="10.00" fill="#000000">Ra::Gui::Gizmo::ros</text>
</a>
</g>
</g>
<!-- Node37&#45;&gt;Node39 -->
<g id="edge49" class="edge">
<title>Node37&#45;&gt;Node39</title>
<path fill="none" stroke="#191970" d="M288.6682,-45.8079C317.1707,-46.2038 351.6039,-46.682 381.026,-47.0906"/>
<polygon fill="#191970" stroke="#191970" points="381.1584,-50.5927 391.206,-47.232 381.2556,-43.5934 381.1584,-50.5927"/>
</g>
</g>
</svg>
        <g id="navigator" transform="translate(0 0)" fill="#404254">
                <rect fill="#f2f5e9" fill-opacity="0.5" stroke="#606060" stroke-width=".5" x="0" y="0" width="60" height="60"/>
                <use id="zoomplus" xlink:href="#zoomPlus" x="17" y="9" onmousedown="handleZoom(evt,'in')"/>
                <use id="zoomminus" xlink:href="#zoomMin" x="42" y="9" onmousedown="handleZoom(evt,'out')"/>
                <use id="reset" xlink:href="#resetDef" x="30" y="36" onmousedown="handleReset()"/>
                <g id="arrowUp" xlink:href="#dirArrow" transform="translate(30 24)" onmousedown="handlePan(0,-1)">
                  <use xlink:href="#rim" fill="#404040">
                        <set attributeName="fill" to="#808080" begin="arrowUp.mouseover" end="arrowUp.mouseout"/>
                  </use>
                  <path fill="none" stroke="white" stroke-width="1.5" d="M0,-3.0v7 M-2.5,-0.5L0,-3.0L2.5,-0.5"/>
                </g>
                <g id="arrowRight" xlink:href="#dirArrow" transform="rotate(90) translate(36 -43)" onmousedown="handlePan(1,0)">
                  <use xlink:href="#rim" fill="#404040">
                        <set attributeName="fill" to="#808080" begin="arrowRight.mouseover" end="arrowRight.mouseout"/>
                  </use>
                  <path fill="none" stroke="white" stroke-width="1.5" d="M0,-3.0v7 M-2.5,-0.5L0,-3.0L2.5,-0.5"/>
                </g>
                <g id="arrowDown" xlink:href="#dirArrow" transform="rotate(180) translate(-30 -48)" onmousedown="handlePan(0,1)">
                  <use xlink:href="#rim" fill="#404040">
                        <set attributeName="fill" to="#808080" begin="arrowDown.mouseover" end="arrowDown.mouseout"/>
                  </use>
                  <path fill="none" stroke="white" stroke-width="1.5" d="M0,-3.0v7 M-2.5,-0.5L0,-3.0L2.5,-0.5"/>
                </g>
                <g id="arrowLeft" xlink:href="#dirArrow" transform="rotate(270) translate(-36 17)" onmousedown="handlePan(-1,0)">
                  <use xlink:href="#rim" fill="#404040">
                        <set attributeName="fill" to="#808080" begin="arrowLeft.mouseover" end="arrowLeft.mouseout"/>
                  </use>
                  <path fill="none" stroke="white" stroke-width="1.5" d="M0,-3.0v7 M-2.5,-0.5L0,-3.0L2.5,-0.5"/>
                </g>
        </g>
        <svg viewBox="0 0 15 15" width="100%" height="30px" preserveAspectRatio="xMaxYMin meet">
         <g id="arrow_out" transform="scale(0.3 0.3)">
          <a xlink:href="classRa_1_1Gui_1_1ScaleGizmo_a6a265e9762e0a1a55f5d81ba1368374b_cgraph_org.svg" target="_base">
           <rect id="button" ry="5" rx="5" y="6" x="6" height="38" width="38"
                fill="#f2f5e9" fill-opacity="0.5" stroke="#606060" stroke-width="1.0"/>
           <path id="arrow"
             d="M 11.500037,31.436501 C 11.940474,20.09759 22.043105,11.32322 32.158766,21.979434 L 37.068811,17.246167 C 37.068811,17.246167 37.088388,32 37.088388,32 L 22.160133,31.978069 C 22.160133,31.978069 26.997745,27.140456 26.997745,27.140456 C 18.528582,18.264221 13.291696,25.230495 11.500037,31.436501 z"
             style="fill:#404040;"/>
          </a>
         </g>
        </svg>
</svg>
