<?xml version="1.0" encoding="UTF-8" standalone="no"?>
<!DOCTYPE svg PUBLIC "-//W3C//DTD SVG 1.1//EN"
 "http://www.w3.org/Graphics/SVG/1.1/DTD/svg11.dtd">
<!-- Generated by graphviz version 2.40.1 (20161225.0304)
 -->
<!-- Title: Ra::Engine::ForwardRenderer::buildRenderTechnique Pages: 1 -->
<svg width="527pt" height="284pt"
 viewBox="0.00 0.00 527.00 284.00" xmlns="http://www.w3.org/2000/svg" xmlns:xlink="http://www.w3.org/1999/xlink">
<g id="graph0" class="graph" transform="scale(1 1) rotate(0) translate(4 280)">
<title>Ra::Engine::ForwardRenderer::buildRenderTechnique</title>
<polygon fill="#ffffff" stroke="transparent" points="-4,4 -4,-280 523,-280 523,4 -4,4"/>
<!-- Node2 -->
<g id="node1" class="node">
<title>Node2</title>
<polygon fill="#bfbfbf" stroke="#000000" points="0,-122.5 0,-152.5 157,-152.5 157,-122.5 0,-122.5"/>
<text text-anchor="start" x="8" y="-140.5" font-family="Helvetica,sans-Serif" font-size="10.00" fill="#000000">Ra::Engine::ForwardRenderer</text>
<text text-anchor="middle" x="78.5" y="-129.5" font-family="Helvetica,sans-Serif" font-size="10.00" fill="#000000">::buildRenderTechnique</text>
</g>
<!-- Node3 -->
<g id="node2" class="node">
<title>Node3</title>
<g id="a_node2"><a xlink:href="classRa_1_1Engine_1_1RenderObject.html#af1c1d822a15a0cfd05db6a8b8ac29608" target="_top" xlink:title="Ra::Engine::RenderObject\l::getMaterial">
<polygon fill="#ffffff" stroke="#000000" points="211.5,-245.5 211.5,-275.5 351.5,-275.5 351.5,-245.5 211.5,-245.5"/>
<text text-anchor="start" x="219.5" y="-263.5" font-family="Helvetica,sans-Serif" font-size="10.00" fill="#000000">Ra::Engine::RenderObject</text>
<text text-anchor="middle" x="281.5" y="-252.5" font-family="Helvetica,sans-Serif" font-size="10.00" fill="#000000">::getMaterial</text>
</a>
</g>
</g>
<!-- Node2&#45;&gt;Node3 -->
<g id="edge1" class="edge">
<title>Node2&#45;&gt;Node3</title>
<path fill="none" stroke="#191970" d="M91.7408,-152.6218C111.5975,-174.3662 151.2393,-214.2858 193,-236.5 196.5357,-238.3808 200.231,-240.1236 204.0206,-241.7376"/>
<polygon fill="#191970" stroke="#191970" points="203.0093,-245.1003 213.597,-245.4889 205.5625,-238.5825 203.0093,-245.1003"/>
</g>
<!-- Node4 -->
<g id="node3" class="node">
<title>Node4</title>
<g id="a_node3"><a xlink:href="namespaceRa_1_1Engine_1_1EngineRenderTechniques.html#a5e831d5088144082e9bd3828323aa57a" target="_top" xlink:title="Ra::Engine::EngineRender\lTechniques::getDefaultTechnique">
<polygon fill="#ffffff" stroke="#000000" points="193,-196.5 193,-226.5 370,-226.5 370,-196.5 193,-196.5"/>
<text text-anchor="start" x="201" y="-214.5" font-family="Helvetica,sans-Serif" font-size="10.00" fill="#000000">Ra::Engine::EngineRender</text>
<text text-anchor="middle" x="281.5" y="-203.5" font-family="Helvetica,sans-Serif" font-size="10.00" fill="#000000">Techniques::getDefaultTechnique</text>
</a>
</g>
</g>
<!-- Node2&#45;&gt;Node4 -->
<g id="edge2" class="edge">
<title>Node2&#45;&gt;Node4</title>
<path fill="none" stroke="#191970" d="M109.592,-152.56C132.3442,-163.2132 164.1487,-177.3504 193,-187.5 198.9131,-189.5802 205.1009,-191.5882 211.3389,-193.4971"/>
<polygon fill="#191970" stroke="#191970" points="210.5681,-196.9192 221.1508,-196.4113 212.5612,-190.209 210.5681,-196.9192"/>
</g>
<!-- Node5 -->
<g id="node4" class="node">
<title>Node5</title>
<g id="a_node4"><a xlink:href="classRa_1_1Engine_1_1RenderObject.html#a9f861cfd68883b1f25111a51b204ee2b" target="_top" xlink:title="Ra::Engine::RenderObject\l::getMesh">
<polygon fill="#ffffff" stroke="#000000" points="211.5,-147.5 211.5,-177.5 351.5,-177.5 351.5,-147.5 211.5,-147.5"/>
<text text-anchor="start" x="219.5" y="-165.5" font-family="Helvetica,sans-Serif" font-size="10.00" fill="#000000">Ra::Engine::RenderObject</text>
<text text-anchor="middle" x="281.5" y="-154.5" font-family="Helvetica,sans-Serif" font-size="10.00" fill="#000000">::getMesh</text>
</a>
</g>
</g>
<!-- Node2&#45;&gt;Node5 -->
<g id="edge3" class="edge">
<title>Node2&#45;&gt;Node5</title>
<path fill="none" stroke="#191970" d="M157.2757,-147.2014C171.764,-148.9857 186.9036,-150.8502 201.4295,-152.6391"/>
<polygon fill="#191970" stroke="#191970" points="201.0196,-156.115 211.3724,-153.8636 201.8752,-149.1675 201.0196,-156.115"/>
</g>
<!-- Node6 -->
<g id="node5" class="node">
<title>Node6</title>
<g id="a_node5"><a xlink:href="classRa_1_1Engine_1_1ShaderConfiguration.html#a8ffa1714a9e63a320acaa7873fb99797" target="_top" xlink:title="Ra::Engine::ShaderConfiguration\l::addShader">
<polygon fill="#ffffff" stroke="#000000" points="195,-98.5 195,-128.5 368,-128.5 368,-98.5 195,-98.5"/>
<text text-anchor="start" x="203" y="-116.5" font-family="Helvetica,sans-Serif" font-size="10.00" fill="#000000">Ra::Engine::ShaderConfiguration</text>
<text text-anchor="middle" x="281.5" y="-105.5" font-family="Helvetica,sans-Serif" font-size="10.00" fill="#000000">::addShader</text>
</a>
</g>
</g>
<!-- Node2&#45;&gt;Node6 -->
<g id="edge4" class="edge">
<title>Node2&#45;&gt;Node6</title>
<path fill="none" stroke="#191970" d="M157.2757,-128.1866C166.2786,-127.1222 175.5331,-126.0281 184.7355,-124.9401"/>
<polygon fill="#191970" stroke="#191970" points="185.1664,-128.4137 194.6863,-123.7637 184.3445,-121.4621 185.1664,-128.4137"/>
</g>
<!-- Node7 -->
<g id="node6" class="node">
<title>Node7</title>
<g id="a_node6"><a xlink:href="namespaceRa_1_1Core_1_1Resources.html#aefb858008bce4916fa3cfcef244aeda0" target="_top" xlink:title="Ra::Core::Resources\l::getRadiumResourcesDir">
<polygon fill="#ffffff" stroke="#000000" points="211.5,-49.5 211.5,-79.5 351.5,-79.5 351.5,-49.5 211.5,-49.5"/>
<text text-anchor="start" x="219.5" y="-67.5" font-family="Helvetica,sans-Serif" font-size="10.00" fill="#000000">Ra::Core::Resources</text>
<text text-anchor="middle" x="281.5" y="-56.5" font-family="Helvetica,sans-Serif" font-size="10.00" fill="#000000">::getRadiumResourcesDir</text>
</a>
</g>
</g>
<!-- Node2&#45;&gt;Node7 -->
<g id="edge5" class="edge">
<title>Node2&#45;&gt;Node7</title>
<path fill="none" stroke="#191970" d="M111.6508,-122.341C134.2911,-112.3021 165.1229,-99.2401 193,-89.5 199.8391,-87.1105 207.0341,-84.7826 214.244,-82.5696"/>
<polygon fill="#191970" stroke="#191970" points="215.4797,-85.8531 224.0529,-79.6281 213.4689,-79.1481 215.4797,-85.8531"/>
</g>
<!-- Node9 -->
<g id="node8" class="node">
<title>Node9</title>
<g id="a_node8"><a xlink:href="classRa_1_1Engine_1_1RenderObject.html#ae1ea453e2b698cda9956586d11b9cfbd" target="_top" xlink:title="Ra::Engine::RenderObject\l::setRenderTechnique">
<polygon fill="#ffffff" stroke="#000000" points="211.5,-.5 211.5,-30.5 351.5,-30.5 351.5,-.5 211.5,-.5"/>
<text text-anchor="start" x="219.5" y="-18.5" font-family="Helvetica,sans-Serif" font-size="10.00" fill="#000000">Ra::Engine::RenderObject</text>
<text text-anchor="middle" x="281.5" y="-7.5" font-family="Helvetica,sans-Serif" font-size="10.00" fill="#000000">::setRenderTechnique</text>
</a>
</g>
</g>
<!-- Node2&#45;&gt;Node9 -->
<g id="edge7" class="edge">
<title>Node2&#45;&gt;Node9</title>
<path fill="none" stroke="#191970" d="M92.1716,-122.3989C112.2554,-101.1039 151.8326,-62.4095 193,-40.5 197.2679,-38.2286 201.7643,-36.1448 206.3756,-34.2359"/>
<polygon fill="#191970" stroke="#191970" points="207.8812,-37.4072 215.9656,-30.5594 205.3754,-30.871 207.8812,-37.4072"/>
</g>
<!-- Node8 -->
<g id="node7" class="node">
<title>Node8</title>
<g id="a_node7"><a xlink:href="namespaceRa_1_1Core_1_1Resources.html#a96e7523ac5a9f47629ee73938db23790" target="_top" xlink:title="Ra::Core::Resources\l::searchPath">
<polygon fill="#ffffff" stroke="#000000" points="406,-49.5 406,-79.5 519,-79.5 519,-49.5 406,-49.5"/>
<text text-anchor="start" x="414" y="-67.5" font-family="Helvetica,sans-Serif" font-size="10.00" fill="#000000">Ra::Core::Resources</text>
<text text-anchor="middle" x="462.5" y="-56.5" font-family="Helvetica,sans-Serif" font-size="10.00" fill="#000000">::searchPath</text>
</a>
</g>
</g>
<!-- Node7&#45;&gt;Node8 -->
<g id="edge6" class="edge">
<title>Node7&#45;&gt;Node8</title>
<path fill="none" stroke="#191970" d="M351.7384,-64.5C366.1316,-64.5 381.2456,-64.5 395.5206,-64.5"/>
<polygon fill="#191970" stroke="#191970" points="395.7446,-68.0001 405.7445,-64.5 395.7445,-61.0001 395.7446,-68.0001"/>
</g>
</g>
</svg>
