<?xml version="1.0" encoding="UTF-8" standalone="no"?>
<!DOCTYPE svg PUBLIC "-//W3C//DTD SVG 1.1//EN"
 "http://www.w3.org/Graphics/SVG/1.1/DTD/svg11.dtd">
<!-- Generated by graphviz version 2.40.1 (20161225.0304)
 -->
<!-- Title: Ra::Engine::System Pages: 1 -->
<svg width="331pt" height="524pt"
 viewBox="0.00 0.00 331.00 524.00" xmlns="http://www.w3.org/2000/svg" xmlns:xlink="http://www.w3.org/1999/xlink">
<g id="graph0" class="graph" transform="scale(1 1) rotate(0) translate(4 520)">
<title>Ra::Engine::System</title>
<polygon fill="#ffffff" stroke="transparent" points="-4,4 -4,-520 327,-520 327,4 -4,4"/>
<!-- Node9 -->
<g id="node1" class="node">
<title>Node9</title>
<polygon fill="#bfbfbf" stroke="#000000" points="24.5,-.5 24.5,-134.5 183.5,-134.5 183.5,-.5 24.5,-.5"/>
<text text-anchor="middle" x="104" y="-122.5" font-family="Helvetica,sans-Serif" font-size="10.00" fill="#000000">Ra::Engine::System</text>
<polyline fill="none" stroke="#000000" points="24.5,-115.5 183.5,-115.5 "/>
<text text-anchor="middle" x="104" y="-103.5" font-family="Helvetica,sans-Serif" font-size="10.00" fill="#000000"> </text>
<polyline fill="none" stroke="#000000" points="24.5,-96.5 183.5,-96.5 "/>
<text text-anchor="start" x="32.5" y="-84.5" font-family="Helvetica,sans-Serif" font-size="10.00" fill="#000000">+ System()</text>
<text text-anchor="start" x="32.5" y="-73.5" font-family="Helvetica,sans-Serif" font-size="10.00" fill="#000000">+ ~System()</text>
<text text-anchor="start" x="32.5" y="-62.5" font-family="Helvetica,sans-Serif" font-size="10.00" fill="#000000">+ handleAssetLoading()</text>
<text text-anchor="start" x="32.5" y="-51.5" font-family="Helvetica,sans-Serif" font-size="10.00" fill="#000000">+ generateTasks()</text>
<text text-anchor="start" x="32.5" y="-40.5" font-family="Helvetica,sans-Serif" font-size="10.00" fill="#000000">+ getEntityComponents()</text>
<text text-anchor="start" x="32.5" y="-29.5" font-family="Helvetica,sans-Serif" font-size="10.00" fill="#000000"># registerComponent()</text>
<text text-anchor="start" x="32.5" y="-18.5" font-family="Helvetica,sans-Serif" font-size="10.00" fill="#000000"># unregisterComponent()</text>
<text text-anchor="start" x="32.5" y="-7.5" font-family="Helvetica,sans-Serif" font-size="10.00" fill="#000000"># unregisterAllComponents()</text>
</g>
<!-- Node10 -->
<g id="node2" class="node">
<title>Node10</title>
<polygon fill="#ffffff" stroke="#bfbfbf" points="17.5,-182.5 17.5,-261.5 190.5,-261.5 190.5,-182.5 17.5,-182.5"/>
<text text-anchor="start" x="25.5" y="-249.5" font-family="Helvetica,sans-Serif" font-size="10.00" fill="#000000">std::vector&lt; std::pair</text>
<text text-anchor="start" x="25.5" y="-238.5" font-family="Helvetica,sans-Serif" font-size="10.00" fill="#000000">&lt; const Ra::Engine::Entity</text>
<text text-anchor="middle" x="104" y="-227.5" font-family="Helvetica,sans-Serif" font-size="10.00" fill="#000000"> *, Ra::Engine::Component *&gt; &gt;</text>
<polyline fill="none" stroke="#bfbfbf" points="17.5,-220.5 190.5,-220.5 "/>
<text text-anchor="middle" x="104" y="-208.5" font-family="Helvetica,sans-Serif" font-size="10.00" fill="#000000"> </text>
<polyline fill="none" stroke="#bfbfbf" points="17.5,-201.5 190.5,-201.5 "/>
<text text-anchor="middle" x="104" y="-189.5" font-family="Helvetica,sans-Serif" font-size="10.00" fill="#000000"> </text>
</g>
<!-- Node10&#45;&gt;Node9 -->
<g id="edge1" class="edge">
<title>Node10&#45;&gt;Node9</title>
<path fill="none" stroke="#404040" d="M104,-182.2124C104,-171.3493 104,-159.182 104,-146.9413"/>
<polygon fill="none" stroke="#404040" points="104.0001,-146.7217 100,-140.7218 104,-134.7217 108,-140.7217 104.0001,-146.7217"/>
<text text-anchor="middle" x="147.5" y="-156" font-family="Helvetica,sans-Serif" font-size="10.00" fill="#000000"> #m_components</text>
</g>
<!-- Node11 -->
<g id="node3" class="node">
<title>Node11</title>
<polygon fill="#ffffff" stroke="#bfbfbf" points="0,-331.5 0,-410.5 128,-410.5 128,-331.5 0,-331.5"/>
<text text-anchor="start" x="8" y="-398.5" font-family="Helvetica,sans-Serif" font-size="10.00" fill="#000000">pair&lt; const Ra::Engine</text>
<text text-anchor="start" x="8" y="-387.5" font-family="Helvetica,sans-Serif" font-size="10.00" fill="#000000">::Entity *, Ra::Engine</text>
<text text-anchor="middle" x="64" y="-376.5" font-family="Helvetica,sans-Serif" font-size="10.00" fill="#000000">::Component * &gt;</text>
<polyline fill="none" stroke="#bfbfbf" points="0,-369.5 128,-369.5 "/>
<text text-anchor="middle" x="64" y="-357.5" font-family="Helvetica,sans-Serif" font-size="10.00" fill="#000000"> </text>
<polyline fill="none" stroke="#bfbfbf" points="0,-350.5 128,-350.5 "/>
<text text-anchor="middle" x="64" y="-338.5" font-family="Helvetica,sans-Serif" font-size="10.00" fill="#000000"> </text>
</g>
<!-- Node11&#45;&gt;Node10 -->
<g id="edge2" class="edge">
<title>Node11&#45;&gt;Node10</title>
<path fill="none" stroke="#404040" d="M74.6142,-331.4619C79.3834,-313.697 85.0733,-292.5019 90.1705,-273.5149"/>
<polygon fill="none" stroke="#404040" points="90.2248,-273.3125 87.9172,-266.4805 93.3362,-261.7228 95.6437,-268.5548 90.2248,-273.3125"/>
<text text-anchor="middle" x="117" y="-294" font-family="Helvetica,sans-Serif" font-size="10.00" fill="#000000"> +elements</text>
</g>
<!-- Node12 -->
<g id="node4" class="node">
<title>Node12</title>
<g id="a_node4"><a xlink:title="STL class. ">
<polygon fill="#ffffff" stroke="#bfbfbf" points="146.5,-342.5 146.5,-399.5 243.5,-399.5 243.5,-342.5 146.5,-342.5"/>
<text text-anchor="middle" x="195" y="-387.5" font-family="Helvetica,sans-Serif" font-size="10.00" fill="#000000">std::vector&lt; T &gt;</text>
<polyline fill="none" stroke="#bfbfbf" points="146.5,-380.5 243.5,-380.5 "/>
<text text-anchor="middle" x="195" y="-368.5" font-family="Helvetica,sans-Serif" font-size="10.00" fill="#000000"> </text>
<polyline fill="none" stroke="#bfbfbf" points="146.5,-361.5 243.5,-361.5 "/>
<text text-anchor="middle" x="195" y="-349.5" font-family="Helvetica,sans-Serif" font-size="10.00" fill="#000000"> </text>
</a>
</g>
</g>
<!-- Node12&#45;&gt;Node10 -->
<g id="edge3" class="edge">
<title>Node12&#45;&gt;Node10</title>
<path fill="none" stroke="#ffa500" d="M177.2076,-333.0076C168.9544,-316.3715 158.6285,-296.8451 148,-280 144.1557,-273.9072 139.8419,-267.6521 135.4584,-261.6092"/>
<polygon fill="#ffa500" stroke="#ffa500" points="174.2765,-334.981 181.814,-342.4266 180.5647,-331.9056 174.2765,-334.981"/>
<text text-anchor="start" x="166" y="-305" font-family="Helvetica,sans-Serif" font-size="10.00" fill="#000000"> &lt; std::pair&lt; const</text>
<text text-anchor="start" x="166" y="-294" font-family="Helvetica,sans-Serif" font-size="10.00" fill="#000000"> Ra::Engine::Entity</text>
<text text-anchor="middle" x="244.5" y="-283" font-family="Helvetica,sans-Serif" font-size="10.00" fill="#000000"> *, Ra::Engine::Component *&gt; &gt;</text>
</g>
<!-- Node13 -->
<g id="node5" class="node">
<title>Node13</title>
<polygon fill="#ffffff" stroke="#bfbfbf" points="180.5,-458.5 180.5,-515.5 209.5,-515.5 209.5,-458.5 180.5,-458.5"/>
<text text-anchor="middle" x="195" y="-503.5" font-family="Helvetica,sans-Serif" font-size="10.00" fill="#000000">T</text>
<polyline fill="none" stroke="#bfbfbf" points="180.5,-496.5 209.5,-496.5 "/>
<text text-anchor="middle" x="195" y="-484.5" font-family="Helvetica,sans-Serif" font-size="10.00" fill="#000000"> </text>
<polyline fill="none" stroke="#bfbfbf" points="180.5,-477.5 209.5,-477.5 "/>
<text text-anchor="middle" x="195" y="-465.5" font-family="Helvetica,sans-Serif" font-size="10.00" fill="#000000"> </text>
</g>
<!-- Node13&#45;&gt;Node12 -->
<g id="edge4" class="edge">
<title>Node13&#45;&gt;Node12</title>
<path fill="none" stroke="#404040" d="M195,-458.3258C195,-444.3834 195,-427.3727 195,-412.0815"/>
<polygon fill="none" stroke="#404040" points="195.0001,-411.7463 191,-405.7464 195,-399.7463 199,-405.7463 195.0001,-411.7463"/>
<text text-anchor="middle" x="224" y="-432" font-family="Helvetica,sans-Serif" font-size="10.00" fill="#000000"> +elements</text>
</g>
</g>
</svg>
