<?xml version="1.0" encoding="UTF-8" standalone="no"?>
<!DOCTYPE svg PUBLIC "-//W3C//DTD SVG 1.1//EN"
 "http://www.w3.org/Graphics/SVG/1.1/DTD/svg11.dtd">
<!-- Generated by graphviz version 2.40.1 (20161225.0304)
 -->
<!-- Title: Ra::Core::Geometry::AttribArrayGeometry Pages: 1 -->
<svg width="756pt" height="1171pt"
 viewBox="0.00 0.00 756.00 1171.00" xmlns="http://www.w3.org/2000/svg" xmlns:xlink="http://www.w3.org/1999/xlink">
<g id="graph0" class="graph" transform="scale(1 1) rotate(0) translate(4 1167)">
<title>Ra::Core::Geometry::AttribArrayGeometry</title>
<polygon fill="#ffffff" stroke="transparent" points="-4,4 -4,-1167 752,-1167 752,4 -4,4"/>
<!-- Node0 -->
<g id="node1" class="node">
<title>Node0</title>
<polygon fill="#bfbfbf" stroke="#000000" points="377.5,-504.5 377.5,-1001.5 523.5,-1001.5 523.5,-504.5 377.5,-504.5"/>
<text text-anchor="start" x="385.5" y="-989.5" font-family="Helvetica,sans-Serif" font-size="10.00" fill="#000000">Ra::Core::Geometry</text>
<text text-anchor="middle" x="450.5" y="-978.5" font-family="Helvetica,sans-Serif" font-size="10.00" fill="#000000">::AttribArrayGeometry</text>
<polyline fill="none" stroke="#000000" points="377.5,-971.5 523.5,-971.5 "/>
<text text-anchor="middle" x="450.5" y="-959.5" font-family="Helvetica,sans-Serif" font-size="10.00" fill="#000000"> </text>
<polyline fill="none" stroke="#000000" points="377.5,-952.5 523.5,-952.5 "/>
<text text-anchor="start" x="385.5" y="-940.5" font-family="Helvetica,sans-Serif" font-size="10.00" fill="#000000">+ AttribArrayGeometry()</text>
<text text-anchor="start" x="385.5" y="-929.5" font-family="Helvetica,sans-Serif" font-size="10.00" fill="#000000">+ AttribArrayGeometry()</text>
<text text-anchor="start" x="385.5" y="-918.5" font-family="Helvetica,sans-Serif" font-size="10.00" fill="#000000">+ AttribArrayGeometry()</text>
<text text-anchor="start" x="385.5" y="-907.5" font-family="Helvetica,sans-Serif" font-size="10.00" fill="#000000">+ operator=()</text>
<text text-anchor="start" x="385.5" y="-896.5" font-family="Helvetica,sans-Serif" font-size="10.00" fill="#000000">+ operator=()</text>
<text text-anchor="start" x="385.5" y="-885.5" font-family="Helvetica,sans-Serif" font-size="10.00" fill="#000000">+ ~AttribArrayGeometry()</text>
<text text-anchor="start" x="385.5" y="-874.5" font-family="Helvetica,sans-Serif" font-size="10.00" fill="#000000">+ append()</text>
<text text-anchor="start" x="385.5" y="-863.5" font-family="Helvetica,sans-Serif" font-size="10.00" fill="#000000">+ clear()</text>
<text text-anchor="start" x="385.5" y="-852.5" font-family="Helvetica,sans-Serif" font-size="10.00" fill="#000000">+ setVertices()</text>
<text text-anchor="start" x="385.5" y="-841.5" font-family="Helvetica,sans-Serif" font-size="10.00" fill="#000000">+ setVertices()</text>
<text text-anchor="start" x="385.5" y="-830.5" font-family="Helvetica,sans-Serif" font-size="10.00" fill="#000000">+ vertices()</text>
<text text-anchor="start" x="385.5" y="-819.5" font-family="Helvetica,sans-Serif" font-size="10.00" fill="#000000">+ setNormals()</text>
<text text-anchor="start" x="385.5" y="-808.5" font-family="Helvetica,sans-Serif" font-size="10.00" fill="#000000">+ setNormals()</text>
<text text-anchor="start" x="385.5" y="-797.5" font-family="Helvetica,sans-Serif" font-size="10.00" fill="#000000">+ normals()</text>
<text text-anchor="start" x="385.5" y="-786.5" font-family="Helvetica,sans-Serif" font-size="10.00" fill="#000000">+ getAttribHandle()</text>
<text text-anchor="start" x="385.5" y="-775.5" font-family="Helvetica,sans-Serif" font-size="10.00" fill="#000000">+ isValid()</text>
<text text-anchor="start" x="385.5" y="-764.5" font-family="Helvetica,sans-Serif" font-size="10.00" fill="#000000">+ getAttrib()</text>
<text text-anchor="start" x="385.5" y="-753.5" font-family="Helvetica,sans-Serif" font-size="10.00" fill="#000000">+ getAttribPtr()</text>
<text text-anchor="start" x="385.5" y="-742.5" font-family="Helvetica,sans-Serif" font-size="10.00" fill="#000000">+ getAttrib()</text>
<text text-anchor="start" x="385.5" y="-731.5" font-family="Helvetica,sans-Serif" font-size="10.00" fill="#000000">+ getAttribBase()</text>
<text text-anchor="start" x="385.5" y="-720.5" font-family="Helvetica,sans-Serif" font-size="10.00" fill="#000000">+ hasAttrib()</text>
<text text-anchor="start" x="385.5" y="-709.5" font-family="Helvetica,sans-Serif" font-size="10.00" fill="#000000">+ removeAttrib()</text>
<text text-anchor="start" x="385.5" y="-698.5" font-family="Helvetica,sans-Serif" font-size="10.00" fill="#000000">+ clearAttributes()</text>
<text text-anchor="start" x="385.5" y="-687.5" font-family="Helvetica,sans-Serif" font-size="10.00" fill="#000000">+ copyBaseGeometry()</text>
<text text-anchor="start" x="385.5" y="-676.5" font-family="Helvetica,sans-Serif" font-size="10.00" fill="#000000">+ copyAttributes()</text>
<text text-anchor="start" x="385.5" y="-665.5" font-family="Helvetica,sans-Serif" font-size="10.00" fill="#000000">+ copyAllAttributes()</text>
<text text-anchor="start" x="385.5" y="-654.5" font-family="Helvetica,sans-Serif" font-size="10.00" fill="#000000">+ computeAabb()</text>
<text text-anchor="start" x="385.5" y="-643.5" font-family="Helvetica,sans-Serif" font-size="10.00" fill="#000000">+ colorize()</text>
<text text-anchor="start" x="385.5" y="-632.5" font-family="Helvetica,sans-Serif" font-size="10.00" fill="#000000">+ vertexAttribs()</text>
<text text-anchor="start" x="385.5" y="-621.5" font-family="Helvetica,sans-Serif" font-size="10.00" fill="#000000">+ vertexAttribs()</text>
<text text-anchor="start" x="385.5" y="-610.5" font-family="Helvetica,sans-Serif" font-size="10.00" fill="#000000">+ verticesWithLock()</text>
<text text-anchor="start" x="385.5" y="-599.5" font-family="Helvetica,sans-Serif" font-size="10.00" fill="#000000">+ verticesUnlock()</text>
<text text-anchor="start" x="385.5" y="-588.5" font-family="Helvetica,sans-Serif" font-size="10.00" fill="#000000">+ normalsWithLock()</text>
<text text-anchor="start" x="385.5" y="-577.5" font-family="Helvetica,sans-Serif" font-size="10.00" fill="#000000">+ normalsUnlock()</text>
<text text-anchor="start" x="385.5" y="-566.5" font-family="Helvetica,sans-Serif" font-size="10.00" fill="#000000">+ addAttrib()</text>
<text text-anchor="start" x="385.5" y="-555.5" font-family="Helvetica,sans-Serif" font-size="10.00" fill="#000000">+ addAttrib()</text>
<text text-anchor="start" x="385.5" y="-544.5" font-family="Helvetica,sans-Serif" font-size="10.00" fill="#000000">+ addAttrib()</text>
<text text-anchor="start" x="385.5" y="-533.5" font-family="Helvetica,sans-Serif" font-size="10.00" fill="#000000">* addAttrib()</text>
<text text-anchor="start" x="385.5" y="-522.5" font-family="Helvetica,sans-Serif" font-size="10.00" fill="#000000">* addAttrib()</text>
<text text-anchor="start" x="385.5" y="-511.5" font-family="Helvetica,sans-Serif" font-size="10.00" fill="#000000">* addAttrib()</text>
</g>
<!-- Node2 -->
<g id="node3" class="node">
<title>Node2</title>
<g id="a_node3"><a xlink:href="classRa_1_1Core_1_1Geometry_1_1IndexedGeometry.html" target="_top" xlink:title="{Ra::Core::Geometry\l::IndexedGeometry\&lt; Vector1ui \&gt;\n|+ m_indices\l|+ IndexedGeometry()\l+ IndexedGeometry()\l+ IndexedGeometry()\l+ operator=()\l+ operator=()\l+ clear()\l+ copy()\l+ checkConsistency()\l+ append()\l}">
<polygon fill="#ffffff" stroke="#000000" points="0,-106.5 0,-262.5 179,-262.5 179,-106.5 0,-106.5"/>
<text text-anchor="start" x="8" y="-250.5" font-family="Helvetica,sans-Serif" font-size="10.00" fill="#000000">Ra::Core::Geometry</text>
<text text-anchor="middle" x="89.5" y="-239.5" font-family="Helvetica,sans-Serif" font-size="10.00" fill="#000000">::IndexedGeometry&lt; Vector1ui &gt;</text>
<polyline fill="none" stroke="#000000" points="0,-232.5 179,-232.5 "/>
<text text-anchor="start" x="8" y="-220.5" font-family="Helvetica,sans-Serif" font-size="10.00" fill="#000000">+ m_indices</text>
<polyline fill="none" stroke="#000000" points="0,-213.5 179,-213.5 "/>
<text text-anchor="start" x="8" y="-201.5" font-family="Helvetica,sans-Serif" font-size="10.00" fill="#000000">+ IndexedGeometry()</text>
<text text-anchor="start" x="8" y="-190.5" font-family="Helvetica,sans-Serif" font-size="10.00" fill="#000000">+ IndexedGeometry()</text>
<text text-anchor="start" x="8" y="-179.5" font-family="Helvetica,sans-Serif" font-size="10.00" fill="#000000">+ IndexedGeometry()</text>
<text text-anchor="start" x="8" y="-168.5" font-family="Helvetica,sans-Serif" font-size="10.00" fill="#000000">+ operator=()</text>
<text text-anchor="start" x="8" y="-157.5" font-family="Helvetica,sans-Serif" font-size="10.00" fill="#000000">+ operator=()</text>
<text text-anchor="start" x="8" y="-146.5" font-family="Helvetica,sans-Serif" font-size="10.00" fill="#000000">+ clear()</text>
<text text-anchor="start" x="8" y="-135.5" font-family="Helvetica,sans-Serif" font-size="10.00" fill="#000000">+ copy()</text>
<text text-anchor="start" x="8" y="-124.5" font-family="Helvetica,sans-Serif" font-size="10.00" fill="#000000">+ checkConsistency()</text>
<text text-anchor="start" x="8" y="-113.5" font-family="Helvetica,sans-Serif" font-size="10.00" fill="#000000">+ append()</text>
</a>
</g>
</g>
<!-- Node0&#45;&gt;Node2 -->
<g id="edge2" class="edge">
<title>Node0&#45;&gt;Node2</title>
<path fill="none" stroke="#191970" d="M370.4656,-674.9045C317.863,-620.3414 250.3555,-543.775 203.5,-467 163.9634,-402.2174 132.9308,-321.297 113.2913,-262.6864"/>
<polygon fill="none" stroke="#191970" points="367.9846,-677.3737 377.4575,-682.1188 373.0112,-672.502 367.9846,-677.3737"/>
</g>
<!-- Node4 -->
<g id="node5" class="node">
<title>Node4</title>
<g id="a_node5"><a xlink:href="classRa_1_1Core_1_1Geometry_1_1IndexedGeometry.html" target="_top" xlink:title="{Ra::Core::Geometry\l::IndexedGeometry\&lt; Vector2ui \&gt;\n|+ m_indices\l|+ IndexedGeometry()\l+ IndexedGeometry()\l+ IndexedGeometry()\l+ operator=()\l+ operator=()\l+ clear()\l+ copy()\l+ checkConsistency()\l+ append()\l}">
<polygon fill="#ffffff" stroke="#000000" points="394,-106.5 394,-262.5 573,-262.5 573,-106.5 394,-106.5"/>
<text text-anchor="start" x="402" y="-250.5" font-family="Helvetica,sans-Serif" font-size="10.00" fill="#000000">Ra::Core::Geometry</text>
<text text-anchor="middle" x="483.5" y="-239.5" font-family="Helvetica,sans-Serif" font-size="10.00" fill="#000000">::IndexedGeometry&lt; Vector2ui &gt;</text>
<polyline fill="none" stroke="#000000" points="394,-232.5 573,-232.5 "/>
<text text-anchor="start" x="402" y="-220.5" font-family="Helvetica,sans-Serif" font-size="10.00" fill="#000000">+ m_indices</text>
<polyline fill="none" stroke="#000000" points="394,-213.5 573,-213.5 "/>
<text text-anchor="start" x="402" y="-201.5" font-family="Helvetica,sans-Serif" font-size="10.00" fill="#000000">+ IndexedGeometry()</text>
<text text-anchor="start" x="402" y="-190.5" font-family="Helvetica,sans-Serif" font-size="10.00" fill="#000000">+ IndexedGeometry()</text>
<text text-anchor="start" x="402" y="-179.5" font-family="Helvetica,sans-Serif" font-size="10.00" fill="#000000">+ IndexedGeometry()</text>
<text text-anchor="start" x="402" y="-168.5" font-family="Helvetica,sans-Serif" font-size="10.00" fill="#000000">+ operator=()</text>
<text text-anchor="start" x="402" y="-157.5" font-family="Helvetica,sans-Serif" font-size="10.00" fill="#000000">+ operator=()</text>
<text text-anchor="start" x="402" y="-146.5" font-family="Helvetica,sans-Serif" font-size="10.00" fill="#000000">+ clear()</text>
<text text-anchor="start" x="402" y="-135.5" font-family="Helvetica,sans-Serif" font-size="10.00" fill="#000000">+ copy()</text>
<text text-anchor="start" x="402" y="-124.5" font-family="Helvetica,sans-Serif" font-size="10.00" fill="#000000">+ checkConsistency()</text>
<text text-anchor="start" x="402" y="-113.5" font-family="Helvetica,sans-Serif" font-size="10.00" fill="#000000">+ append()</text>
</a>
</g>
</g>
<!-- Node0&#45;&gt;Node4 -->
<g id="edge4" class="edge">
<title>Node0&#45;&gt;Node4</title>
<path fill="none" stroke="#191970" d="M465.5059,-494.4884C470.394,-410.2804 475.4584,-323.0348 478.9642,-262.6389"/>
<polygon fill="none" stroke="#191970" points="462.0117,-494.2886 464.9263,-504.4746 469,-494.6943 462.0117,-494.2886"/>
</g>
<!-- Node6 -->
<g id="node7" class="node">
<title>Node6</title>
<g id="a_node7"><a xlink:href="classRa_1_1Core_1_1Geometry_1_1IndexedGeometry.html" target="_top" xlink:title="{Ra::Core::Geometry\l::IndexedGeometry\&lt; Vector3ui \&gt;\n|+ m_indices\l|+ IndexedGeometry()\l+ IndexedGeometry()\l+ IndexedGeometry()\l+ operator=()\l+ operator=()\l+ clear()\l+ copy()\l+ checkConsistency()\l+ append()\l}">
<polygon fill="#ffffff" stroke="#000000" points="197,-106.5 197,-262.5 376,-262.5 376,-106.5 197,-106.5"/>
<text text-anchor="start" x="205" y="-250.5" font-family="Helvetica,sans-Serif" font-size="10.00" fill="#000000">Ra::Core::Geometry</text>
<text text-anchor="middle" x="286.5" y="-239.5" font-family="Helvetica,sans-Serif" font-size="10.00" fill="#000000">::IndexedGeometry&lt; Vector3ui &gt;</text>
<polyline fill="none" stroke="#000000" points="197,-232.5 376,-232.5 "/>
<text text-anchor="start" x="205" y="-220.5" font-family="Helvetica,sans-Serif" font-size="10.00" fill="#000000">+ m_indices</text>
<polyline fill="none" stroke="#000000" points="197,-213.5 376,-213.5 "/>
<text text-anchor="start" x="205" y="-201.5" font-family="Helvetica,sans-Serif" font-size="10.00" fill="#000000">+ IndexedGeometry()</text>
<text text-anchor="start" x="205" y="-190.5" font-family="Helvetica,sans-Serif" font-size="10.00" fill="#000000">+ IndexedGeometry()</text>
<text text-anchor="start" x="205" y="-179.5" font-family="Helvetica,sans-Serif" font-size="10.00" fill="#000000">+ IndexedGeometry()</text>
<text text-anchor="start" x="205" y="-168.5" font-family="Helvetica,sans-Serif" font-size="10.00" fill="#000000">+ operator=()</text>
<text text-anchor="start" x="205" y="-157.5" font-family="Helvetica,sans-Serif" font-size="10.00" fill="#000000">+ operator=()</text>
<text text-anchor="start" x="205" y="-146.5" font-family="Helvetica,sans-Serif" font-size="10.00" fill="#000000">+ clear()</text>
<text text-anchor="start" x="205" y="-135.5" font-family="Helvetica,sans-Serif" font-size="10.00" fill="#000000">+ copy()</text>
<text text-anchor="start" x="205" y="-124.5" font-family="Helvetica,sans-Serif" font-size="10.00" fill="#000000">+ checkConsistency()</text>
<text text-anchor="start" x="205" y="-113.5" font-family="Helvetica,sans-Serif" font-size="10.00" fill="#000000">+ append()</text>
</a>
</g>
</g>
<!-- Node0&#45;&gt;Node6 -->
<g id="edge6" class="edge">
<title>Node0&#45;&gt;Node6</title>
<path fill="none" stroke="#191970" d="M371.1924,-652.3575C332.4689,-599.5019 287.6377,-532.2826 256.5,-467 221.5144,-393.6498 215.4063,-372.3896 203.5,-292 201.9973,-281.8539 203.4018,-272.0521 206.7688,-262.7704"/>
<polygon fill="none" stroke="#191970" points="368.6014,-654.7413 377.3518,-660.7147 374.2363,-650.5883 368.6014,-654.7413"/>
</g>
<!-- Node8 -->
<g id="node9" class="node">
<title>Node8</title>
<g id="a_node9"><a xlink:href="classRa_1_1Core_1_1Geometry_1_1IndexedGeometry.html" target="_top" xlink:title="{Ra::Core::Geometry\l::IndexedGeometry\&lt; T \&gt;\n|+ m_indices\l|+ IndexedGeometry()\l+ IndexedGeometry()\l+ IndexedGeometry()\l+ operator=()\l+ operator=()\l+ clear()\l+ copy()\l+ checkConsistency()\l+ append()\l}">
<polygon fill="#ffffff" stroke="#000000" points="266,-310.5 266,-466.5 405,-466.5 405,-310.5 266,-310.5"/>
<text text-anchor="start" x="274" y="-454.5" font-family="Helvetica,sans-Serif" font-size="10.00" fill="#000000">Ra::Core::Geometry</text>
<text text-anchor="middle" x="335.5" y="-443.5" font-family="Helvetica,sans-Serif" font-size="10.00" fill="#000000">::IndexedGeometry&lt; T &gt;</text>
<polyline fill="none" stroke="#000000" points="266,-436.5 405,-436.5 "/>
<text text-anchor="start" x="274" y="-424.5" font-family="Helvetica,sans-Serif" font-size="10.00" fill="#000000">+ m_indices</text>
<polyline fill="none" stroke="#000000" points="266,-417.5 405,-417.5 "/>
<text text-anchor="start" x="274" y="-405.5" font-family="Helvetica,sans-Serif" font-size="10.00" fill="#000000">+ IndexedGeometry()</text>
<text text-anchor="start" x="274" y="-394.5" font-family="Helvetica,sans-Serif" font-size="10.00" fill="#000000">+ IndexedGeometry()</text>
<text text-anchor="start" x="274" y="-383.5" font-family="Helvetica,sans-Serif" font-size="10.00" fill="#000000">+ IndexedGeometry()</text>
<text text-anchor="start" x="274" y="-372.5" font-family="Helvetica,sans-Serif" font-size="10.00" fill="#000000">+ operator=()</text>
<text text-anchor="start" x="274" y="-361.5" font-family="Helvetica,sans-Serif" font-size="10.00" fill="#000000">+ operator=()</text>
<text text-anchor="start" x="274" y="-350.5" font-family="Helvetica,sans-Serif" font-size="10.00" fill="#000000">+ clear()</text>
<text text-anchor="start" x="274" y="-339.5" font-family="Helvetica,sans-Serif" font-size="10.00" fill="#000000">+ copy()</text>
<text text-anchor="start" x="274" y="-328.5" font-family="Helvetica,sans-Serif" font-size="10.00" fill="#000000">+ checkConsistency()</text>
<text text-anchor="start" x="274" y="-317.5" font-family="Helvetica,sans-Serif" font-size="10.00" fill="#000000">+ append()</text>
</a>
</g>
</g>
<!-- Node0&#45;&gt;Node8 -->
<g id="edge8" class="edge">
<title>Node0&#45;&gt;Node8</title>
<path fill="none" stroke="#191970" d="M374.2915,-511.4522C369.3012,-495.6351 364.5219,-480.4868 360.1282,-466.5607"/>
<polygon fill="none" stroke="#191970" points="371.0777,-512.8985 377.4244,-521.382 377.7533,-510.7923 371.0777,-512.8985"/>
</g>
<!-- Node9 -->
<g id="node10" class="node">
<title>Node9</title>
<g id="a_node10"><a xlink:href="classRa_1_1Core_1_1Geometry_1_1LineStrip.html" target="_top" xlink:title="{Ra::Core::Geometry\l::LineStrip\n||}">
<polygon fill="#ffffff" stroke="#000000" points="504,-354.5 504,-422.5 617,-422.5 617,-354.5 504,-354.5"/>
<text text-anchor="start" x="512" y="-410.5" font-family="Helvetica,sans-Serif" font-size="10.00" fill="#000000">Ra::Core::Geometry</text>
<text text-anchor="middle" x="560.5" y="-399.5" font-family="Helvetica,sans-Serif" font-size="10.00" fill="#000000">::LineStrip</text>
<polyline fill="none" stroke="#000000" points="504,-392.5 617,-392.5 "/>
<text text-anchor="middle" x="560.5" y="-380.5" font-family="Helvetica,sans-Serif" font-size="10.00" fill="#000000"> </text>
<polyline fill="none" stroke="#000000" points="504,-373.5 617,-373.5 "/>
<text text-anchor="middle" x="560.5" y="-361.5" font-family="Helvetica,sans-Serif" font-size="10.00" fill="#000000"> </text>
</a>
</g>
</g>
<!-- Node0&#45;&gt;Node9 -->
<g id="edge12" class="edge">
<title>Node0&#45;&gt;Node9</title>
<path fill="none" stroke="#191970" d="M526.4736,-501.251C535.7517,-470.5067 544.0933,-442.8659 550.1951,-422.6466"/>
<polygon fill="none" stroke="#191970" points="523.104,-500.3024 523.5656,-510.8872 529.8055,-502.3249 523.104,-500.3024"/>
</g>
<!-- Node10 -->
<g id="node11" class="node">
<title>Node10</title>
<g id="a_node11"><a xlink:href="classRa_1_1Core_1_1Geometry_1_1PointCloud.html" target="_top" xlink:title="{Ra::Core::Geometry\l::PointCloud\n||}">
<polygon fill="#ffffff" stroke="#000000" points="635,-354.5 635,-422.5 748,-422.5 748,-354.5 635,-354.5"/>
<text text-anchor="start" x="643" y="-410.5" font-family="Helvetica,sans-Serif" font-size="10.00" fill="#000000">Ra::Core::Geometry</text>
<text text-anchor="middle" x="691.5" y="-399.5" font-family="Helvetica,sans-Serif" font-size="10.00" fill="#000000">::PointCloud</text>
<polyline fill="none" stroke="#000000" points="635,-392.5 748,-392.5 "/>
<text text-anchor="middle" x="691.5" y="-380.5" font-family="Helvetica,sans-Serif" font-size="10.00" fill="#000000"> </text>
<polyline fill="none" stroke="#000000" points="635,-373.5 748,-373.5 "/>
<text text-anchor="middle" x="691.5" y="-361.5" font-family="Helvetica,sans-Serif" font-size="10.00" fill="#000000"> </text>
</a>
</g>
</g>
<!-- Node0&#45;&gt;Node10 -->
<g id="edge13" class="edge">
<title>Node0&#45;&gt;Node10</title>
<path fill="none" stroke="#191970" d="M529.3747,-633.7061C578.0994,-560.0125 637.1762,-470.662 668.8404,-422.7714"/>
<polygon fill="none" stroke="#191970" points="526.3853,-631.8814 523.7895,-642.1534 532.2244,-635.7422 526.3853,-631.8814"/>
</g>
<!-- Node1 -->
<g id="node2" class="node">
<title>Node1</title>
<g id="a_node2"><a xlink:href="structRa_1_1Core_1_1Geometry_1_1AbstractGeometry.html" target="_top" xlink:title="{Ra::Core::Geometry\l::AbstractGeometry\n||+ ~AbstractGeometry()\l+ AbstractGeometry()\l+ AbstractGeometry()\l+ operator=()\l+ clear()\l+ computeAabb()\l}">
<polygon fill="#ffffff" stroke="#000000" points="384,-1039.5 384,-1162.5 517,-1162.5 517,-1039.5 384,-1039.5"/>
<text text-anchor="start" x="392" y="-1150.5" font-family="Helvetica,sans-Serif" font-size="10.00" fill="#000000">Ra::Core::Geometry</text>
<text text-anchor="middle" x="450.5" y="-1139.5" font-family="Helvetica,sans-Serif" font-size="10.00" fill="#000000">::AbstractGeometry</text>
<polyline fill="none" stroke="#000000" points="384,-1132.5 517,-1132.5 "/>
<text text-anchor="middle" x="450.5" y="-1120.5" font-family="Helvetica,sans-Serif" font-size="10.00" fill="#000000"> </text>
<polyline fill="none" stroke="#000000" points="384,-1113.5 517,-1113.5 "/>
<text text-anchor="start" x="392" y="-1101.5" font-family="Helvetica,sans-Serif" font-size="10.00" fill="#000000">+ ~AbstractGeometry()</text>
<text text-anchor="start" x="392" y="-1090.5" font-family="Helvetica,sans-Serif" font-size="10.00" fill="#000000">+ AbstractGeometry()</text>
<text text-anchor="start" x="392" y="-1079.5" font-family="Helvetica,sans-Serif" font-size="10.00" fill="#000000">+ AbstractGeometry()</text>
<text text-anchor="start" x="392" y="-1068.5" font-family="Helvetica,sans-Serif" font-size="10.00" fill="#000000">+ operator=()</text>
<text text-anchor="start" x="392" y="-1057.5" font-family="Helvetica,sans-Serif" font-size="10.00" fill="#000000">+ clear()</text>
<text text-anchor="start" x="392" y="-1046.5" font-family="Helvetica,sans-Serif" font-size="10.00" fill="#000000">+ computeAabb()</text>
</a>
</g>
</g>
<!-- Node1&#45;&gt;Node0 -->
<g id="edge1" class="edge">
<title>Node1&#45;&gt;Node0</title>
<path fill="none" stroke="#191970" d="M450.5,-1028.9157C450.5,-1020.2775 450.5,-1011.1218 450.5,-1001.5983"/>
<polygon fill="none" stroke="#191970" points="447.0001,-1029.1855 450.5,-1039.1856 454.0001,-1029.1856 447.0001,-1029.1855"/>
</g>
<!-- Node3 -->
<g id="node4" class="node">
<title>Node3</title>
<g id="a_node4"><a xlink:href="classRa_1_1Core_1_1Geometry_1_1IndexedPointCloud.html" target="_top" xlink:title="{Ra::Core::Geometry\l::IndexedPointCloud\n||}">
<polygon fill="#ffffff" stroke="#000000" points="32.5,-.5 32.5,-68.5 146.5,-68.5 146.5,-.5 32.5,-.5"/>
<text text-anchor="start" x="40.5" y="-56.5" font-family="Helvetica,sans-Serif" font-size="10.00" fill="#000000">Ra::Core::Geometry</text>
<text text-anchor="middle" x="89.5" y="-45.5" font-family="Helvetica,sans-Serif" font-size="10.00" fill="#000000">::IndexedPointCloud</text>
<polyline fill="none" stroke="#000000" points="32.5,-38.5 146.5,-38.5 "/>
<text text-anchor="middle" x="89.5" y="-26.5" font-family="Helvetica,sans-Serif" font-size="10.00" fill="#000000"> </text>
<polyline fill="none" stroke="#000000" points="32.5,-19.5 146.5,-19.5 "/>
<text text-anchor="middle" x="89.5" y="-7.5" font-family="Helvetica,sans-Serif" font-size="10.00" fill="#000000"> </text>
</a>
</g>
</g>
<!-- Node2&#45;&gt;Node3 -->
<g id="edge3" class="edge">
<title>Node2&#45;&gt;Node3</title>
<path fill="none" stroke="#191970" d="M89.5,-96.2377C89.5,-86.5412 89.5,-77.1503 89.5,-68.7412"/>
<polygon fill="none" stroke="#191970" points="86.0001,-96.4246 89.5,-106.4246 93.0001,-96.4246 86.0001,-96.4246"/>
</g>
<!-- Node5 -->
<g id="node6" class="node">
<title>Node5</title>
<g id="a_node6"><a xlink:href="classRa_1_1Core_1_1Geometry_1_1LineMesh.html" target="_top" xlink:title="{Ra::Core::Geometry\l::LineMesh\n||}">
<polygon fill="#ffffff" stroke="#000000" points="427,-.5 427,-68.5 540,-68.5 540,-.5 427,-.5"/>
<text text-anchor="start" x="435" y="-56.5" font-family="Helvetica,sans-Serif" font-size="10.00" fill="#000000">Ra::Core::Geometry</text>
<text text-anchor="middle" x="483.5" y="-45.5" font-family="Helvetica,sans-Serif" font-size="10.00" fill="#000000">::LineMesh</text>
<polyline fill="none" stroke="#000000" points="427,-38.5 540,-38.5 "/>
<text text-anchor="middle" x="483.5" y="-26.5" font-family="Helvetica,sans-Serif" font-size="10.00" fill="#000000"> </text>
<polyline fill="none" stroke="#000000" points="427,-19.5 540,-19.5 "/>
<text text-anchor="middle" x="483.5" y="-7.5" font-family="Helvetica,sans-Serif" font-size="10.00" fill="#000000"> </text>
</a>
</g>
</g>
<!-- Node4&#45;&gt;Node5 -->
<g id="edge5" class="edge">
<title>Node4&#45;&gt;Node5</title>
<path fill="none" stroke="#191970" d="M483.5,-96.2377C483.5,-86.5412 483.5,-77.1503 483.5,-68.7412"/>
<polygon fill="none" stroke="#191970" points="480.0001,-96.4246 483.5,-106.4246 487.0001,-96.4246 480.0001,-96.4246"/>
</g>
<!-- Node7 -->
<g id="node8" class="node">
<title>Node7</title>
<g id="a_node8"><a xlink:href="classRa_1_1Core_1_1Geometry_1_1TriangleMesh.html" target="_top" xlink:title="{Ra::Core::Geometry\l::TriangleMesh\n||}">
<polygon fill="#ffffff" stroke="#000000" points="230,-.5 230,-68.5 343,-68.5 343,-.5 230,-.5"/>
<text text-anchor="start" x="238" y="-56.5" font-family="Helvetica,sans-Serif" font-size="10.00" fill="#000000">Ra::Core::Geometry</text>
<text text-anchor="middle" x="286.5" y="-45.5" font-family="Helvetica,sans-Serif" font-size="10.00" fill="#000000">::TriangleMesh</text>
<polyline fill="none" stroke="#000000" points="230,-38.5 343,-38.5 "/>
<text text-anchor="middle" x="286.5" y="-26.5" font-family="Helvetica,sans-Serif" font-size="10.00" fill="#000000"> </text>
<polyline fill="none" stroke="#000000" points="230,-19.5 343,-19.5 "/>
<text text-anchor="middle" x="286.5" y="-7.5" font-family="Helvetica,sans-Serif" font-size="10.00" fill="#000000"> </text>
</a>
</g>
</g>
<!-- Node6&#45;&gt;Node7 -->
<g id="edge7" class="edge">
<title>Node6&#45;&gt;Node7</title>
<path fill="none" stroke="#191970" d="M286.5,-96.2377C286.5,-86.5412 286.5,-77.1503 286.5,-68.7412"/>
<polygon fill="none" stroke="#191970" points="283.0001,-96.4246 286.5,-106.4246 290.0001,-96.4246 283.0001,-96.4246"/>
</g>
<!-- Node8&#45;&gt;Node2 -->
<g id="edge9" class="edge">
<title>Node8&#45;&gt;Node2</title>
<path fill="none" stroke="#ffa500" d="M257.9116,-325.2897C244.4141,-314.2246 230.5304,-302.7991 217.5,-292 205.0992,-281.7227 192.0593,-270.849 179.2401,-260.1206"/>
<polygon fill="#ffa500" stroke="#ffa500" points="255.851,-328.1261 265.8048,-331.7556 260.2869,-322.711 255.851,-328.1261"/>
<text text-anchor="middle" x="253.5" y="-284" font-family="Helvetica,sans-Serif" font-size="10.00" fill="#000000"> &lt; Vector1ui &gt;</text>
</g>
<!-- Node8&#45;&gt;Node4 -->
<g id="edge10" class="edge">
<title>Node8&#45;&gt;Node4</title>
<path fill="none" stroke="#ffa500" d="M376.2778,-301.4485C380.4759,-294.367 384.8996,-287.4591 389.5,-281 393.9097,-274.8087 398.7147,-268.6341 403.7436,-262.5718"/>
<polygon fill="#ffa500" stroke="#ffa500" points="373.03,-300.0757 371.0844,-310.4904 379.1,-303.5621 373.03,-300.0757"/>
<text text-anchor="middle" x="425.5" y="-284" font-family="Helvetica,sans-Serif" font-size="10.00" fill="#000000"> &lt; Vector2ui &gt;</text>
</g>
<!-- Node8&#45;&gt;Node6 -->
<g id="edge11" class="edge">
<title>Node8&#45;&gt;Node6</title>
<path fill="none" stroke="#ffa500" d="M296.8812,-300.9282C296.0155,-297.9375 295.2172,-294.9561 294.5,-292 292.2275,-282.6336 290.5456,-272.6852 289.3086,-262.768"/>
<polygon fill="#ffa500" stroke="#ffa500" points="293.5443,-301.9844 299.8587,-310.492 300.2278,-299.9036 293.5443,-301.9844"/>
<text text-anchor="middle" x="330.5" y="-284" font-family="Helvetica,sans-Serif" font-size="10.00" fill="#000000"> &lt; Vector3ui &gt;</text>
</g>
</g>
</svg>
