<?xml version="1.0" encoding="UTF-8" standalone="no"?>
<!DOCTYPE svg PUBLIC "-//W3C//DTD SVG 1.1//EN"
 "http://www.w3.org/Graphics/SVG/1.1/DTD/svg11.dtd">
<!-- Generated by graphviz version 2.40.1 (20161225.0304)
 -->
<!-- Title: Ra::Engine::Renderer::initialize Pages: 1 -->
<!--zoomable 350 -->
<svg id="main" version="1.1" xmlns="http://www.w3.org/2000/svg" xmlns:xlink="http://www.w3.org/1999/xlink" xml:space="preserve" onload="init(evt)">
<style type="text/css"><![CDATA[
.edge:hover path { stroke: red; }
.edge:hover polygon { stroke: red; fill: red; }
]]></style>
<script type="text/javascript"><![CDATA[
var edges = document.getElementsByTagName('g');
if (edges && edges.length) {
  for (var i=0;i<edges.length;i++) {
    if (edges[i].id.substr(0,4)=='edge') {
      edges[i].setAttribute('class','edge');
    }
  }
}
]]></script>
        <defs>
                <circle id="rim" cx="0" cy="0" r="7"/>
                <circle id="rim2" cx="0" cy="0" r="3.5"/>
                <g id="zoomPlus">
                        <use xlink:href="#rim" fill="#404040">
                                <set attributeName="fill" to="#808080" begin="zoomplus.mouseover" end="zoomplus.mouseout"/>
                        </use>
                        <path d="M-4,0h8M0,-4v8" fill="none" stroke="white" stroke-width="1.5" pointer-events="none"/>
                </g>
                <g id="zoomMin">
                        <use xlink:href="#rim" fill="#404040">
                                <set attributeName="fill" to="#808080" begin="zoomminus.mouseover" end="zoomminus.mouseout"/>
                        </use>
                        <path d="M-4,0h8" fill="none" stroke="white" stroke-width="1.5" pointer-events="none"/>
                </g>
                <g id="dirArrow">
                        <path fill="none" stroke="white" stroke-width="1.5" d="M0,-3.0v7 M-2.5,-0.5L0,-3.0L2.5,-0.5"/>
                </g>
               <g id="resetDef">
                       <use xlink:href="#rim2" fill="#404040">
                               <set attributeName="fill" to="#808080" begin="reset.mouseover" end="reset.mouseout"/>
                       </use>
               </g>
        </defs>

<script type="text/javascript">
var viewWidth = 1177;
var viewHeight = 350;
var sectionId = 'dynsection-4';
</script>
<script xlink:href="svgpan.js"/>
<svg id="graph" class="graph">
<g id="viewport">
<title>Ra::Engine::Renderer::initialize</title>
<polygon fill="#ffffff" stroke="transparent" points="-4,4 -4,-346 1173,-346 1173,4 -4,4"/>
<!-- Node28 -->
<g id="node1" class="node">
<title>Node28</title>
<polygon fill="#bfbfbf" stroke="#000000" points="0,-164.5 0,-194.5 118,-194.5 118,-164.5 0,-164.5"/>
<text text-anchor="start" x="8" y="-182.5" font-family="Helvetica,sans-Serif" font-size="10.00" fill="#000000">Ra::Engine::Renderer</text>
<text text-anchor="middle" x="59" y="-171.5" font-family="Helvetica,sans-Serif" font-size="10.00" fill="#000000">::initialize</text>
</g>
<!-- Node29 -->
<g id="node2" class="node">
<title>Node29</title>
<g id="a_node2"><a xlink:href="namespaceRa_1_1Core_1_1Resources.html#aefb858008bce4916fa3cfcef244aeda0" target="_top" xlink:title="Ra::Core::Resources\l::getRadiumResourcesDir">
<polygon fill="#ffffff" stroke="#000000" points="170.5,-311.5 170.5,-341.5 310.5,-341.5 310.5,-311.5 170.5,-311.5"/>
<text text-anchor="start" x="178.5" y="-329.5" font-family="Helvetica,sans-Serif" font-size="10.00" fill="#000000">Ra::Core::Resources</text>
<text text-anchor="middle" x="240.5" y="-318.5" font-family="Helvetica,sans-Serif" font-size="10.00" fill="#000000">::getRadiumResourcesDir</text>
</a>
</g>
</g>
<!-- Node28&#45;&gt;Node29 -->
<g id="edge1" class="edge">
<title>Node28&#45;&gt;Node29</title>
<path fill="none" stroke="#191970" d="M66.419,-194.5186C80.0672,-220.5647 111.6794,-274.0478 154,-302.5 156.2856,-304.0366 158.6678,-305.4754 161.1225,-306.8227"/>
<polygon fill="#191970" stroke="#191970" points="159.7637,-310.0544 170.2838,-311.3111 162.8435,-303.7683 159.7637,-310.0544"/>
</g>
<!-- Node31 -->
<g id="node4" class="node">
<title>Node31</title>
<g id="a_node4"><a xlink:href="classRa_1_1Engine_1_1ShaderProgramManager.html#a82a7361639c0fbd401447e2d253dc961" target="_top" xlink:title="Ra::Engine::ShaderProgram\lManager::addShaderProgram">
<polygon fill="#ffffff" stroke="#000000" points="161.5,-262.5 161.5,-292.5 319.5,-292.5 319.5,-262.5 161.5,-262.5"/>
<text text-anchor="start" x="169.5" y="-280.5" font-family="Helvetica,sans-Serif" font-size="10.00" fill="#000000">Ra::Engine::ShaderProgram</text>
<text text-anchor="middle" x="240.5" y="-269.5" font-family="Helvetica,sans-Serif" font-size="10.00" fill="#000000">Manager::addShaderProgram</text>
</a>
</g>
</g>
<!-- Node28&#45;&gt;Node31 -->
<g id="edge3" class="edge">
<title>Node28&#45;&gt;Node31</title>
<path fill="none" stroke="#191970" d="M74.4744,-194.7233C92.2579,-211.4165 122.9993,-237.9002 154,-253.5 157.7588,-255.3915 161.6869,-257.1509 165.7068,-258.7851"/>
<polygon fill="#191970" stroke="#191970" points="164.625,-262.1178 175.2168,-262.3743 167.0968,-255.5687 164.625,-262.1178"/>
</g>
<!-- Node33 -->
<g id="node6" class="node">
<title>Node33</title>
<g id="a_node6"><a xlink:href="classRa_1_1Engine_1_1ShaderConfiguration.html#a8ffa1714a9e63a320acaa7873fb99797" target="_top" xlink:title="Ra::Engine::ShaderConfiguration\l::addShader">
<polygon fill="#ffffff" stroke="#000000" points="154,-213.5 154,-243.5 327,-243.5 327,-213.5 154,-213.5"/>
<text text-anchor="start" x="162" y="-231.5" font-family="Helvetica,sans-Serif" font-size="10.00" fill="#000000">Ra::Engine::ShaderConfiguration</text>
<text text-anchor="middle" x="240.5" y="-220.5" font-family="Helvetica,sans-Serif" font-size="10.00" fill="#000000">::addShader</text>
</a>
</g>
</g>
<!-- Node28&#45;&gt;Node33 -->
<g id="edge5" class="edge">
<title>Node28&#45;&gt;Node33</title>
<path fill="none" stroke="#191970" d="M114.937,-194.6014C133.9161,-199.7253 155.2898,-205.4956 174.9497,-210.8032"/>
<polygon fill="#191970" stroke="#191970" points="174.1811,-214.221 184.7477,-213.4484 176.0056,-207.4629 174.1811,-214.221"/>
</g>
<!-- Node34 -->
<g id="node7" class="node">
<title>Node34</title>
<g id="a_node7"><a xlink:href="namespaceRa_1_1Engine_1_1ShaderConfigurationFactory.html#a36842535508a390108fb1205210a5c49" target="_top" xlink:title="Ra::Engine::ShaderConfiguration\lFactory::addConfiguration">
<polygon fill="#ffffff" stroke="#000000" points="154,-164.5 154,-194.5 327,-194.5 327,-164.5 154,-164.5"/>
<text text-anchor="start" x="162" y="-182.5" font-family="Helvetica,sans-Serif" font-size="10.00" fill="#000000">Ra::Engine::ShaderConfiguration</text>
<text text-anchor="middle" x="240.5" y="-171.5" font-family="Helvetica,sans-Serif" font-size="10.00" fill="#000000">Factory::addConfiguration</text>
</a>
</g>
</g>
<!-- Node28&#45;&gt;Node34 -->
<g id="edge6" class="edge">
<title>Node28&#45;&gt;Node34</title>
<path fill="none" stroke="#191970" d="M118.1787,-179.5C126.3576,-179.5 134.9273,-179.5 143.572,-179.5"/>
<polygon fill="#191970" stroke="#191970" points="143.7359,-183.0001 153.7359,-179.5 143.7358,-176.0001 143.7359,-183.0001"/>
</g>
<!-- Node35 -->
<g id="node8" class="node">
<title>Node35</title>
<g id="a_node8"><a xlink:href="namespaceRa_1_1Core_1_1Geometry.html#ad5f12dda8ca32de7363062238f1d6ccd" target="_top" xlink:title="Create a 2D quad mesh given half extents, centered on the origin with z axis as normal. ">
<polygon fill="#ffffff" stroke="#000000" points="181,-115.5 181,-145.5 300,-145.5 300,-115.5 181,-115.5"/>
<text text-anchor="start" x="189" y="-133.5" font-family="Helvetica,sans-Serif" font-size="10.00" fill="#000000">Ra::Core::Geometry</text>
<text text-anchor="middle" x="240.5" y="-122.5" font-family="Helvetica,sans-Serif" font-size="10.00" fill="#000000">::makeZNormalQuad</text>
</a>
</g>
</g>
<!-- Node28&#45;&gt;Node35 -->
<g id="edge7" class="edge">
<title>Node28&#45;&gt;Node35</title>
<path fill="none" stroke="#191970" d="M114.937,-164.3986C133.9161,-159.2747 155.2898,-153.5044 174.9497,-148.1968"/>
<polygon fill="#191970" stroke="#191970" points="176.0056,-151.5371 184.7477,-145.5516 174.1811,-144.779 176.0056,-151.5371"/>
</g>
<!-- Node47 -->
<g id="node20" class="node">
<title>Node47</title>
<g id="a_node20"><a xlink:href="classRa_1_1Engine_1_1Renderer.html#ab793c712188ab407165f2e8a5f80ceb0" target="_top" xlink:title="initializeInternal Initialize the renderer dependant resources. ">
<polygon fill="#ffffff" stroke="#000000" points="181.5,-66.5 181.5,-96.5 299.5,-96.5 299.5,-66.5 181.5,-66.5"/>
<text text-anchor="start" x="189.5" y="-84.5" font-family="Helvetica,sans-Serif" font-size="10.00" fill="#000000">Ra::Engine::Renderer</text>
<text text-anchor="middle" x="240.5" y="-73.5" font-family="Helvetica,sans-Serif" font-size="10.00" fill="#000000">::initializeInternal</text>
</a>
</g>
</g>
<!-- Node28&#45;&gt;Node47 -->
<g id="edge23" class="edge">
<title>Node28&#45;&gt;Node47</title>
<path fill="none" stroke="#191970" d="M74.8686,-164.2573C92.7622,-147.8382 123.3745,-121.9901 154,-106.5 159.584,-103.6756 165.5368,-101.1233 171.6065,-98.8269"/>
<polygon fill="#191970" stroke="#191970" points="172.9473,-102.0651 181.2045,-95.4268 170.6098,-95.4669 172.9473,-102.0651"/>
</g>
<!-- Node48 -->
<g id="node21" class="node">
<title>Node48</title>
<g id="a_node21"><a xlink:href="classRa_1_1Engine_1_1Renderer.html#a7343dbeb04c9699cc2abf2690c9941ee" target="_top" xlink:title="Resize the viewport and all the screen textures, fbos. This function must be overrided as soon as som...">
<polygon fill="#ffffff" stroke="#000000" points="181.5,-17.5 181.5,-47.5 299.5,-47.5 299.5,-17.5 181.5,-17.5"/>
<text text-anchor="start" x="189.5" y="-35.5" font-family="Helvetica,sans-Serif" font-size="10.00" fill="#000000">Ra::Engine::Renderer</text>
<text text-anchor="middle" x="240.5" y="-24.5" font-family="Helvetica,sans-Serif" font-size="10.00" fill="#000000">::resize</text>
</a>
</g>
</g>
<!-- Node28&#45;&gt;Node48 -->
<g id="edge24" class="edge">
<title>Node28&#45;&gt;Node48</title>
<path fill="none" stroke="#191970" d="M66.7026,-164.2393C80.5663,-138.3292 112.2126,-85.799 154,-57.5 159.5656,-53.7309 165.702,-50.5226 172.0604,-47.7932"/>
<polygon fill="#191970" stroke="#191970" points="173.4411,-51.0117 181.4943,-44.1272 170.9056,-44.487 173.4411,-51.0117"/>
</g>
<!-- Node30 -->
<g id="node3" class="node">
<title>Node30</title>
<g id="a_node3"><a xlink:href="namespaceRa_1_1Core_1_1Resources.html#a96e7523ac5a9f47629ee73938db23790" target="_top" xlink:title="Ra::Core::Resources\l::searchPath">
<polygon fill="#ffffff" stroke="#000000" points="393,-311.5 393,-341.5 506,-341.5 506,-311.5 393,-311.5"/>
<text text-anchor="start" x="401" y="-329.5" font-family="Helvetica,sans-Serif" font-size="10.00" fill="#000000">Ra::Core::Resources</text>
<text text-anchor="middle" x="449.5" y="-318.5" font-family="Helvetica,sans-Serif" font-size="10.00" fill="#000000">::searchPath</text>
</a>
</g>
</g>
<!-- Node29&#45;&gt;Node30 -->
<g id="edge2" class="edge">
<title>Node29&#45;&gt;Node30</title>
<path fill="none" stroke="#191970" d="M310.6754,-326.5C333.918,-326.5 359.7092,-326.5 382.6917,-326.5"/>
<polygon fill="#191970" stroke="#191970" points="382.6929,-330.0001 392.6928,-326.5 382.6928,-323.0001 382.6929,-330.0001"/>
</g>
<!-- Node32 -->
<g id="node5" class="node">
<title>Node32</title>
<g id="a_node5"><a xlink:href="classRa_1_1Engine_1_1ShaderConfiguration.html#a90822998fc1253faf6655348f7d9f43e" target="_top" xlink:title="Ra::Engine::ShaderConfiguration\l::getNamedStrings">
<polygon fill="#ffffff" stroke="#000000" points="363,-262.5 363,-292.5 536,-292.5 536,-262.5 363,-262.5"/>
<text text-anchor="start" x="371" y="-280.5" font-family="Helvetica,sans-Serif" font-size="10.00" fill="#000000">Ra::Engine::ShaderConfiguration</text>
<text text-anchor="middle" x="449.5" y="-269.5" font-family="Helvetica,sans-Serif" font-size="10.00" fill="#000000">::getNamedStrings</text>
</a>
</g>
</g>
<!-- Node31&#45;&gt;Node32 -->
<g id="edge4" class="edge">
<title>Node31&#45;&gt;Node32</title>
<path fill="none" stroke="#191970" d="M319.5139,-277.5C330.3113,-277.5 341.4953,-277.5 352.5655,-277.5"/>
<polygon fill="#191970" stroke="#191970" points="352.6856,-281.0001 362.6856,-277.5 352.6856,-274.0001 352.6856,-281.0001"/>
</g>
<!-- Node36 -->
<g id="node9" class="node">
<title>Node36</title>
<g id="a_node9"><a xlink:href="namespaceRa_1_1Core_1_1Geometry.html#a9f66e13e9a53313225543f2f1abcda8e" target="_top" xlink:title="Create a 2D grid mesh with given number of row and columns. ">
<polygon fill="#ffffff" stroke="#000000" points="393,-115.5 393,-145.5 506,-145.5 506,-115.5 393,-115.5"/>
<text text-anchor="start" x="401" y="-133.5" font-family="Helvetica,sans-Serif" font-size="10.00" fill="#000000">Ra::Core::Geometry</text>
<text text-anchor="middle" x="449.5" y="-122.5" font-family="Helvetica,sans-Serif" font-size="10.00" fill="#000000">::makePlaneGrid</text>
</a>
</g>
</g>
<!-- Node35&#45;&gt;Node36 -->
<g id="edge8" class="edge">
<title>Node35&#45;&gt;Node36</title>
<path fill="none" stroke="#191970" d="M300.1113,-130.5C325.7813,-130.5 355.9132,-130.5 382.3661,-130.5"/>
<polygon fill="#191970" stroke="#191970" points="382.6869,-134.0001 392.6869,-130.5 382.6869,-127.0001 382.6869,-134.0001"/>
</g>
<!-- Node37 -->
<g id="node10" class="node">
<title>Node37</title>
<g id="a_node10"><a xlink:href="classRa_1_1Core_1_1Grid.html#ac78b9eee5519a5287b1bc7a898b4ea01" target="_top" xlink:title="Access an element with a D&#45;dimensional index. ">
<polygon fill="#ffffff" stroke="#000000" points="623.5,-230 623.5,-249 723.5,-249 723.5,-230 623.5,-230"/>
<text text-anchor="middle" x="673.5" y="-237" font-family="Helvetica,sans-Serif" font-size="10.00" fill="#000000">Ra::Core::Grid::at</text>
</a>
</g>
</g>
<!-- Node36&#45;&gt;Node37 -->
<g id="edge9" class="edge">
<title>Node36&#45;&gt;Node37</title>
<path fill="none" stroke="#191970" d="M465.0549,-145.6111C486.9924,-166.002 529.1485,-201.9089 572,-220.5 584.9034,-226.0981 599.4312,-230.0495 613.3757,-232.8377"/>
<polygon fill="#191970" stroke="#191970" points="612.9284,-236.3138 623.3948,-234.6692 614.1873,-229.4279 612.9284,-236.3138"/>
</g>
<!-- Node38 -->
<g id="node11" class="node">
<title>Node38</title>
<g id="a_node11"><a xlink:href="classRa_1_1Core_1_1Geometry_1_1AttribArrayGeometry.html#a887411177386edbcdc35d0c6bf78a83a" target="_top" xlink:title="Set vertices. ">
<polygon fill="#ffffff" stroke="#000000" points="611,-110 611,-151 736,-151 736,-110 611,-110"/>
<text text-anchor="start" x="619" y="-139" font-family="Helvetica,sans-Serif" font-size="10.00" fill="#000000">Ra::Core::Geometry</text>
<text text-anchor="start" x="619" y="-128" font-family="Helvetica,sans-Serif" font-size="10.00" fill="#000000">::AttribArrayGeometry</text>
<text text-anchor="middle" x="673.5" y="-117" font-family="Helvetica,sans-Serif" font-size="10.00" fill="#000000">::setVertices</text>
</a>
</g>
</g>
<!-- Node36&#45;&gt;Node38 -->
<g id="edge10" class="edge">
<title>Node36&#45;&gt;Node38</title>
<path fill="none" stroke="#191970" d="M506.0247,-130.5C534.6696,-130.5 569.7915,-130.5 600.4608,-130.5"/>
<polygon fill="#191970" stroke="#191970" points="600.6753,-134.0001 610.6752,-130.5 600.6752,-127.0001 600.6753,-134.0001"/>
</g>
<!-- Node42 -->
<g id="node15" class="node">
<title>Node42</title>
<g id="a_node15"><a xlink:href="classRa_1_1Core_1_1Geometry_1_1AttribArrayGeometry.html#a646faabae9b936589fe03d8a9d2002e9" target="_top" xlink:title="Set normals. ">
<polygon fill="#ffffff" stroke="#000000" points="611,-50 611,-91 736,-91 736,-50 611,-50"/>
<text text-anchor="start" x="619" y="-79" font-family="Helvetica,sans-Serif" font-size="10.00" fill="#000000">Ra::Core::Geometry</text>
<text text-anchor="start" x="619" y="-68" font-family="Helvetica,sans-Serif" font-size="10.00" fill="#000000">::AttribArrayGeometry</text>
<text text-anchor="middle" x="673.5" y="-57" font-family="Helvetica,sans-Serif" font-size="10.00" fill="#000000">::setNormals</text>
</a>
</g>
</g>
<!-- Node36&#45;&gt;Node42 -->
<g id="edge14" class="edge">
<title>Node36&#45;&gt;Node42</title>
<path fill="none" stroke="#191970" d="M505.7355,-115.4369C534.6197,-107.7001 570.1473,-98.1838 601.061,-89.9033"/>
<polygon fill="#191970" stroke="#191970" points="602.1676,-93.2304 610.9215,-87.2621 600.3564,-86.4687 602.1676,-93.2304"/>
</g>
<!-- Node44 -->
<g id="node17" class="node">
<title>Node44</title>
<g id="a_node17"><a xlink:href="classRa_1_1Core_1_1Geometry_1_1AttribArrayGeometry.html#a3a3a1458f93f23c7c8663bc3d52f7841" target="_top" xlink:title="Ra::Core::Geometry\l::AttribArrayGeometry\l::colorize">
<polygon fill="#ffffff" stroke="#000000" points="611,-170 611,-211 736,-211 736,-170 611,-170"/>
<text text-anchor="start" x="619" y="-199" font-family="Helvetica,sans-Serif" font-size="10.00" fill="#000000">Ra::Core::Geometry</text>
<text text-anchor="start" x="619" y="-188" font-family="Helvetica,sans-Serif" font-size="10.00" fill="#000000">::AttribArrayGeometry</text>
<text text-anchor="middle" x="673.5" y="-177" font-family="Helvetica,sans-Serif" font-size="10.00" fill="#000000">::colorize</text>
</a>
</g>
</g>
<!-- Node36&#45;&gt;Node44 -->
<g id="edge18" class="edge">
<title>Node36&#45;&gt;Node44</title>
<path fill="none" stroke="#191970" d="M505.7355,-145.5631C534.6197,-153.2999 570.1473,-162.8162 601.061,-171.0967"/>
<polygon fill="#191970" stroke="#191970" points="600.3564,-174.5313 610.9215,-173.7379 602.1676,-167.7696 600.3564,-174.5313"/>
</g>
<!-- Node46 -->
<g id="node19" class="node">
<title>Node46</title>
<g id="a_node19"><a xlink:href="classRa_1_1Core_1_1Geometry_1_1IndexedGeometry.html#a927f636cf0698e637cc23e2f7f012a48" target="_top" xlink:title="Ra::Core::Geometry\l::IndexedGeometry::checkConsistency">
<polygon fill="#ffffff" stroke="#000000" points="572,-.5 572,-30.5 775,-30.5 775,-.5 572,-.5"/>
<text text-anchor="start" x="580" y="-18.5" font-family="Helvetica,sans-Serif" font-size="10.00" fill="#000000">Ra::Core::Geometry</text>
<text text-anchor="middle" x="673.5" y="-7.5" font-family="Helvetica,sans-Serif" font-size="10.00" fill="#000000">::IndexedGeometry::checkConsistency</text>
</a>
</g>
</g>
<!-- Node36&#45;&gt;Node46 -->
<g id="edge22" class="edge">
<title>Node36&#45;&gt;Node46</title>
<path fill="none" stroke="#191970" d="M465.5864,-115.3919C487.8054,-95.3398 529.9292,-60.1811 572,-40.5 577.2654,-38.0368 582.8022,-35.7986 588.4601,-33.7677"/>
<polygon fill="#191970" stroke="#191970" points="589.703,-37.0424 598.0696,-30.5423 587.4756,-30.4063 589.703,-37.0424"/>
</g>
<!-- Node39 -->
<g id="node12" class="node">
<title>Node39</title>
<g id="a_node12"><a xlink:href="classRa_1_1Core_1_1Utils_1_1AttribManager.html#a056b7697cfbedd6b20dde6ce7955094e" target="_top" xlink:title="Ra::Core::Utils::AttribManager\l::setAttrib">
<polygon fill="#ffffff" stroke="#000000" points="811,-85.5 811,-115.5 972,-115.5 972,-85.5 811,-85.5"/>
<text text-anchor="start" x="819" y="-103.5" font-family="Helvetica,sans-Serif" font-size="10.00" fill="#000000">Ra::Core::Utils::AttribManager</text>
<text text-anchor="middle" x="891.5" y="-92.5" font-family="Helvetica,sans-Serif" font-size="10.00" fill="#000000">::setAttrib</text>
</a>
</g>
</g>
<!-- Node38&#45;&gt;Node39 -->
<g id="edge11" class="edge">
<title>Node38&#45;&gt;Node39</title>
<path fill="none" stroke="#191970" d="M736.2622,-121.863C756.4417,-119.086 779.2166,-115.9518 800.9792,-112.957"/>
<polygon fill="#191970" stroke="#191970" points="801.4646,-116.4233 810.894,-111.5926 800.5102,-109.4886 801.4646,-116.4233"/>
</g>
<!-- Node40 -->
<g id="node13" class="node">
<title>Node40</title>
<g id="a_node13"><a xlink:href="classRa_1_1Core_1_1Geometry_1_1AttribArrayGeometry.html#acabe05880d71a8dc4406964c258fff5a" target="_top" xlink:title="Access the vertices positions. ">
<polygon fill="#ffffff" stroke="#000000" points="829,-135 829,-176 954,-176 954,-135 829,-135"/>
<text text-anchor="start" x="837" y="-164" font-family="Helvetica,sans-Serif" font-size="10.00" fill="#000000">Ra::Core::Geometry</text>
<text text-anchor="start" x="837" y="-153" font-family="Helvetica,sans-Serif" font-size="10.00" fill="#000000">::AttribArrayGeometry</text>
<text text-anchor="middle" x="891.5" y="-142" font-family="Helvetica,sans-Serif" font-size="10.00" fill="#000000">::vertices</text>
</a>
</g>
</g>
<!-- Node38&#45;&gt;Node40 -->
<g id="edge12" class="edge">
<title>Node38&#45;&gt;Node40</title>
<path fill="none" stroke="#191970" d="M736.2622,-137.6975C762.0268,-140.6522 792.0223,-144.092 818.7399,-147.1559"/>
<polygon fill="#191970" stroke="#191970" points="818.4698,-150.6478 828.8035,-148.31 819.2674,-143.6934 818.4698,-150.6478"/>
</g>
<!-- Node41 -->
<g id="node14" class="node">
<title>Node41</title>
<g id="a_node14"><a xlink:href="classRa_1_1Core_1_1Utils_1_1AttribManager.html#ae0cb7281ec72606a5392602b4ea50d2c" target="_top" xlink:title="Ra::Core::Utils::AttribManager\l::getAttrib">
<polygon fill="#ffffff" stroke="#000000" points="1008,-140.5 1008,-170.5 1169,-170.5 1169,-140.5 1008,-140.5"/>
<text text-anchor="start" x="1016" y="-158.5" font-family="Helvetica,sans-Serif" font-size="10.00" fill="#000000">Ra::Core::Utils::AttribManager</text>
<text text-anchor="middle" x="1088.5" y="-147.5" font-family="Helvetica,sans-Serif" font-size="10.00" fill="#000000">::getAttrib</text>
</a>
</g>
</g>
<!-- Node40&#45;&gt;Node41 -->
<g id="edge13" class="edge">
<title>Node40&#45;&gt;Node41</title>
<path fill="none" stroke="#191970" d="M954.1027,-155.5C967.9253,-155.5 982.8405,-155.5 997.5309,-155.5"/>
<polygon fill="#191970" stroke="#191970" points="997.6492,-159.0001 1007.6492,-155.5 997.6491,-152.0001 997.6492,-159.0001"/>
</g>
<!-- Node42&#45;&gt;Node39 -->
<g id="edge15" class="edge">
<title>Node42&#45;&gt;Node39</title>
<path fill="none" stroke="#191970" d="M736.2622,-79.137C756.4417,-81.914 779.2166,-85.0482 800.9792,-88.043"/>
<polygon fill="#191970" stroke="#191970" points="800.5102,-91.5114 810.894,-89.4074 801.4646,-84.5767 800.5102,-91.5114"/>
</g>
<!-- Node43 -->
<g id="node16" class="node">
<title>Node43</title>
<g id="a_node16"><a xlink:href="classRa_1_1Core_1_1Geometry_1_1AttribArrayGeometry.html#abfd2320cb73c0cb14805c234af594b5e" target="_top" xlink:title="Access the vertices normals. ">
<polygon fill="#ffffff" stroke="#000000" points="829,-25 829,-66 954,-66 954,-25 829,-25"/>
<text text-anchor="start" x="837" y="-54" font-family="Helvetica,sans-Serif" font-size="10.00" fill="#000000">Ra::Core::Geometry</text>
<text text-anchor="start" x="837" y="-43" font-family="Helvetica,sans-Serif" font-size="10.00" fill="#000000">::AttribArrayGeometry</text>
<text text-anchor="middle" x="891.5" y="-32" font-family="Helvetica,sans-Serif" font-size="10.00" fill="#000000">::normals</text>
</a>
</g>
</g>
<!-- Node42&#45;&gt;Node43 -->
<g id="edge16" class="edge">
<title>Node42&#45;&gt;Node43</title>
<path fill="none" stroke="#191970" d="M736.2622,-63.3025C762.0268,-60.3478 792.0223,-56.908 818.7399,-53.8441"/>
<polygon fill="#191970" stroke="#191970" points="819.2674,-57.3066 828.8035,-52.69 818.4698,-50.3522 819.2674,-57.3066"/>
</g>
<!-- Node43&#45;&gt;Node41 -->
<g id="edge17" class="edge">
<title>Node43&#45;&gt;Node41</title>
<path fill="none" stroke="#191970" d="M949.8085,-66.1267C957.3941,-69.3389 964.966,-72.8225 972,-76.5 1004.069,-93.2663 1038.0185,-117.0692 1060.9426,-134.1581"/>
<polygon fill="#191970" stroke="#191970" points="1059.0687,-137.1284 1069.1618,-140.3501 1063.2808,-131.5374 1059.0687,-137.1284"/>
</g>
<!-- Node44&#45;&gt;Node40 -->
<g id="edge21" class="edge">
<title>Node44&#45;&gt;Node40</title>
<path fill="none" stroke="#191970" d="M736.2622,-180.4235C762.0268,-176.287 792.0223,-171.4712 818.7399,-167.1817"/>
<polygon fill="#191970" stroke="#191970" points="819.4848,-170.607 828.8035,-165.566 818.3751,-163.6955 819.4848,-170.607"/>
</g>
<!-- Node45 -->
<g id="node18" class="node">
<title>Node45</title>
<g id="a_node18"><a xlink:href="classRa_1_1Core_1_1Geometry_1_1AttribArrayGeometry.html#aeb68d9cd8cf8c1e05886a23f0ad33c59" target="_top" xlink:title="Ra::Core::Geometry\l::AttribArrayGeometry\l::getAttrib">
<polygon fill="#ffffff" stroke="#000000" points="829,-195 829,-236 954,-236 954,-195 829,-195"/>
<text text-anchor="start" x="837" y="-224" font-family="Helvetica,sans-Serif" font-size="10.00" fill="#000000">Ra::Core::Geometry</text>
<text text-anchor="start" x="837" y="-213" font-family="Helvetica,sans-Serif" font-size="10.00" fill="#000000">::AttribArrayGeometry</text>
<text text-anchor="middle" x="891.5" y="-202" font-family="Helvetica,sans-Serif" font-size="10.00" fill="#000000">::getAttrib</text>
</a>
</g>
</g>
<!-- Node44&#45;&gt;Node45 -->
<g id="edge19" class="edge">
<title>Node44&#45;&gt;Node45</title>
<path fill="none" stroke="#191970" d="M736.2622,-197.6975C762.0268,-200.6522 792.0223,-204.092 818.7399,-207.1559"/>
<polygon fill="#191970" stroke="#191970" points="818.4698,-210.6478 828.8035,-208.31 819.2674,-203.6934 818.4698,-210.6478"/>
</g>
<!-- Node45&#45;&gt;Node41 -->
<g id="edge20" class="edge">
<title>Node45&#45;&gt;Node41</title>
<path fill="none" stroke="#191970" d="M954.1027,-196.4332C978.2641,-189.0744 1005.7637,-180.6989 1029.5663,-173.4493"/>
<polygon fill="#191970" stroke="#191970" points="1030.6294,-176.7844 1039.1758,-170.5226 1028.5899,-170.0881 1030.6294,-176.7844"/>
</g>
<!-- Node49 -->
<g id="node22" class="node">
<title>Node49</title>
<g id="a_node22"><a xlink:href="classRa_1_1Engine_1_1Renderer.html#a18a293f1c7c6864e4f1de7f6b88b0f4a" target="_top" xlink:title="Ra::Engine::Renderer\l::resizeInternal">
<polygon fill="#ffffff" stroke="#000000" points="390.5,-17.5 390.5,-47.5 508.5,-47.5 508.5,-17.5 390.5,-17.5"/>
<text text-anchor="start" x="398.5" y="-35.5" font-family="Helvetica,sans-Serif" font-size="10.00" fill="#000000">Ra::Engine::Renderer</text>
<text text-anchor="middle" x="449.5" y="-24.5" font-family="Helvetica,sans-Serif" font-size="10.00" fill="#000000">::resizeInternal</text>
</a>
</g>
</g>
<!-- Node48&#45;&gt;Node49 -->
<g id="edge25" class="edge">
<title>Node48&#45;&gt;Node49</title>
<path fill="none" stroke="#191970" d="M299.553,-32.5C324.5956,-32.5 353.9629,-32.5 380.0385,-32.5"/>
<polygon fill="#191970" stroke="#191970" points="380.2308,-36.0001 390.2307,-32.5 380.2307,-29.0001 380.2308,-36.0001"/>
</g>
</g>
</svg>
        <g id="navigator" transform="translate(0 0)" fill="#404254">
                <rect fill="#f2f5e9" fill-opacity="0.5" stroke="#606060" stroke-width=".5" x="0" y="0" width="60" height="60"/>
                <use id="zoomplus" xlink:href="#zoomPlus" x="17" y="9" onmousedown="handleZoom(evt,'in')"/>
                <use id="zoomminus" xlink:href="#zoomMin" x="42" y="9" onmousedown="handleZoom(evt,'out')"/>
                <use id="reset" xlink:href="#resetDef" x="30" y="36" onmousedown="handleReset()"/>
                <g id="arrowUp" xlink:href="#dirArrow" transform="translate(30 24)" onmousedown="handlePan(0,-1)">
                  <use xlink:href="#rim" fill="#404040">
                        <set attributeName="fill" to="#808080" begin="arrowUp.mouseover" end="arrowUp.mouseout"/>
                  </use>
                  <path fill="none" stroke="white" stroke-width="1.5" d="M0,-3.0v7 M-2.5,-0.5L0,-3.0L2.5,-0.5"/>
                </g>
                <g id="arrowRight" xlink:href="#dirArrow" transform="rotate(90) translate(36 -43)" onmousedown="handlePan(1,0)">
                  <use xlink:href="#rim" fill="#404040">
                        <set attributeName="fill" to="#808080" begin="arrowRight.mouseover" end="arrowRight.mouseout"/>
                  </use>
                  <path fill="none" stroke="white" stroke-width="1.5" d="M0,-3.0v7 M-2.5,-0.5L0,-3.0L2.5,-0.5"/>
                </g>
                <g id="arrowDown" xlink:href="#dirArrow" transform="rotate(180) translate(-30 -48)" onmousedown="handlePan(0,1)">
                  <use xlink:href="#rim" fill="#404040">
                        <set attributeName="fill" to="#808080" begin="arrowDown.mouseover" end="arrowDown.mouseout"/>
                  </use>
                  <path fill="none" stroke="white" stroke-width="1.5" d="M0,-3.0v7 M-2.5,-0.5L0,-3.0L2.5,-0.5"/>
                </g>
                <g id="arrowLeft" xlink:href="#dirArrow" transform="rotate(270) translate(-36 17)" onmousedown="handlePan(-1,0)">
                  <use xlink:href="#rim" fill="#404040">
                        <set attributeName="fill" to="#808080" begin="arrowLeft.mouseover" end="arrowLeft.mouseout"/>
                  </use>
                  <path fill="none" stroke="white" stroke-width="1.5" d="M0,-3.0v7 M-2.5,-0.5L0,-3.0L2.5,-0.5"/>
                </g>
        </g>
        <svg viewBox="0 0 15 15" width="100%" height="30px" preserveAspectRatio="xMaxYMin meet">
         <g id="arrow_out" transform="scale(0.3 0.3)">
          <a xlink:href="classRa_1_1Engine_1_1Renderer_af7d65da9d3a185ede31e308d79398259_cgraph_org.svg" target="_base">
           <rect id="button" ry="5" rx="5" y="6" x="6" height="38" width="38"
                fill="#f2f5e9" fill-opacity="0.5" stroke="#606060" stroke-width="1.0"/>
           <path id="arrow"
             d="M 11.500037,31.436501 C 11.940474,20.09759 22.043105,11.32322 32.158766,21.979434 L 37.068811,17.246167 C 37.068811,17.246167 37.088388,32 37.088388,32 L 22.160133,31.978069 C 22.160133,31.978069 26.997745,27.140456 26.997745,27.140456 C 18.528582,18.264221 13.291696,25.230495 11.500037,31.436501 z"
             style="fill:#404040;"/>
          </a>
         </g>
        </svg>
</svg>
