<?xml version="1.0" encoding="UTF-8" standalone="no"?>
<!DOCTYPE svg PUBLIC "-//W3C//DTD SVG 1.1//EN"
 "http://www.w3.org/Graphics/SVG/1.1/DTD/svg11.dtd">
<!-- Generated by graphviz version 2.40.1 (20161225.0304)
 -->
<!-- Title: Ra::Core::Utils::AttribHandle&lt; T &gt; Pages: 1 -->
<svg width="334pt" height="226pt"
 viewBox="0.00 0.00 334.00 226.00" xmlns="http://www.w3.org/2000/svg" xmlns:xlink="http://www.w3.org/1999/xlink">
<g id="graph0" class="graph" transform="scale(1 1) rotate(0) translate(4 222)">
<title>Ra::Core::Utils::AttribHandle&lt; T &gt;</title>
<polygon fill="#ffffff" stroke="transparent" points="-4,4 -4,-222 330,-222 330,4 -4,4"/>
<!-- Node0 -->
<g id="node1" class="node">
<title>Node0</title>
<polygon fill="#bfbfbf" stroke="#000000" points="72,-138.5 72,-217.5 254,-217.5 254,-138.5 72,-138.5"/>
<text text-anchor="middle" x="163" y="-205.5" font-family="Helvetica,sans-Serif" font-size="10.00" fill="#000000">Ra::Core::Utils::AttribHandle&lt; T &gt;</text>
<polyline fill="none" stroke="#000000" points="72,-198.5 254,-198.5 "/>
<text text-anchor="middle" x="163" y="-186.5" font-family="Helvetica,sans-Serif" font-size="10.00" fill="#000000"> </text>
<polyline fill="none" stroke="#000000" points="72,-179.5 254,-179.5 "/>
<text text-anchor="start" x="80" y="-167.5" font-family="Helvetica,sans-Serif" font-size="10.00" fill="#000000">+ operator==()</text>
<text text-anchor="start" x="80" y="-156.5" font-family="Helvetica,sans-Serif" font-size="10.00" fill="#000000">+ idx()</text>
<text text-anchor="start" x="80" y="-145.5" font-family="Helvetica,sans-Serif" font-size="10.00" fill="#000000">+ attribName()</text>
</g>
<!-- Node1 -->
<g id="node2" class="node">
<title>Node1</title>
<g id="a_node2"><a xlink:href="classRa_1_1Core_1_1Utils_1_1AttribHandle.html" target="_top" xlink:title="{Ra::Core::Utils::AttribHandle\l\&lt; Normal \&gt;\n||+ operator==()\l+ idx()\l+ attribName()\l}">
<polygon fill="#ffffff" stroke="#000000" points="0,-.5 0,-90.5 154,-90.5 154,-.5 0,-.5"/>
<text text-anchor="start" x="8" y="-78.5" font-family="Helvetica,sans-Serif" font-size="10.00" fill="#000000">Ra::Core::Utils::AttribHandle</text>
<text text-anchor="middle" x="77" y="-67.5" font-family="Helvetica,sans-Serif" font-size="10.00" fill="#000000">&lt; Normal &gt;</text>
<polyline fill="none" stroke="#000000" points="0,-60.5 154,-60.5 "/>
<text text-anchor="middle" x="77" y="-48.5" font-family="Helvetica,sans-Serif" font-size="10.00" fill="#000000"> </text>
<polyline fill="none" stroke="#000000" points="0,-41.5 154,-41.5 "/>
<text text-anchor="start" x="8" y="-29.5" font-family="Helvetica,sans-Serif" font-size="10.00" fill="#000000">+ operator==()</text>
<text text-anchor="start" x="8" y="-18.5" font-family="Helvetica,sans-Serif" font-size="10.00" fill="#000000">+ idx()</text>
<text text-anchor="start" x="8" y="-7.5" font-family="Helvetica,sans-Serif" font-size="10.00" fill="#000000">+ attribName()</text>
</a>
</g>
</g>
<!-- Node0&#45;&gt;Node1 -->
<g id="edge1" class="edge">
<title>Node0&#45;&gt;Node1</title>
<path fill="none" stroke="#ffa500" d="M131.6115,-129.6398C123.3779,-116.9543 114.5302,-103.3228 106.4046,-90.8036"/>
<polygon fill="#ffa500" stroke="#ffa500" points="128.817,-131.7631 137.1972,-138.2456 134.6886,-127.952 128.817,-131.7631"/>
<text text-anchor="middle" x="157" y="-112" font-family="Helvetica,sans-Serif" font-size="10.00" fill="#000000"> &lt; Normal &gt;</text>
</g>
<!-- Node2 -->
<g id="node3" class="node">
<title>Node2</title>
<g id="a_node3"><a xlink:href="classRa_1_1Core_1_1Utils_1_1AttribHandle.html" target="_top" xlink:title="{Ra::Core::Utils::AttribHandle\l\&lt; Point \&gt;\n||+ operator==()\l+ idx()\l+ attribName()\l}">
<polygon fill="#ffffff" stroke="#000000" points="172,-.5 172,-90.5 326,-90.5 326,-.5 172,-.5"/>
<text text-anchor="start" x="180" y="-78.5" font-family="Helvetica,sans-Serif" font-size="10.00" fill="#000000">Ra::Core::Utils::AttribHandle</text>
<text text-anchor="middle" x="249" y="-67.5" font-family="Helvetica,sans-Serif" font-size="10.00" fill="#000000">&lt; Point &gt;</text>
<polyline fill="none" stroke="#000000" points="172,-60.5 326,-60.5 "/>
<text text-anchor="middle" x="249" y="-48.5" font-family="Helvetica,sans-Serif" font-size="10.00" fill="#000000"> </text>
<polyline fill="none" stroke="#000000" points="172,-41.5 326,-41.5 "/>
<text text-anchor="start" x="180" y="-29.5" font-family="Helvetica,sans-Serif" font-size="10.00" fill="#000000">+ operator==()</text>
<text text-anchor="start" x="180" y="-18.5" font-family="Helvetica,sans-Serif" font-size="10.00" fill="#000000">+ idx()</text>
<text text-anchor="start" x="180" y="-7.5" font-family="Helvetica,sans-Serif" font-size="10.00" fill="#000000">+ attribName()</text>
</a>
</g>
</g>
<!-- Node0&#45;&gt;Node2 -->
<g id="edge2" class="edge">
<title>Node0&#45;&gt;Node2</title>
<path fill="none" stroke="#ffa500" d="M194.3885,-129.6398C202.6221,-116.9543 211.4698,-103.3228 219.5954,-90.8036"/>
<polygon fill="#ffa500" stroke="#ffa500" points="191.3114,-127.952 188.8028,-138.2456 197.183,-131.7631 191.3114,-127.952"/>
<text text-anchor="middle" x="231.5" y="-112" font-family="Helvetica,sans-Serif" font-size="10.00" fill="#000000"> &lt; Point &gt;</text>
</g>
</g>
</svg>
