<?xml version="1.0" encoding="UTF-8" standalone="no"?>
<!DOCTYPE svg PUBLIC "-//W3C//DTD SVG 1.1//EN"
 "http://www.w3.org/Graphics/SVG/1.1/DTD/svg11.dtd">
<!-- Generated by graphviz version 2.40.1 (20161225.0304)
 -->
<!-- Title: Ra::Core::Animation::Skeleton::setTransform Pages: 1 -->
<svg width="935pt" height="470pt"
 viewBox="0.00 0.00 935.00 470.00" xmlns="http://www.w3.org/2000/svg" xmlns:xlink="http://www.w3.org/1999/xlink">
<g id="graph0" class="graph" transform="scale(1 1) rotate(0) translate(4 466)">
<title>Ra::Core::Animation::Skeleton::setTransform</title>
<polygon fill="#ffffff" stroke="transparent" points="-4,4 -4,-466 931,-466 931,4 -4,4"/>
<!-- Node60 -->
<g id="node1" class="node">
<title>Node60</title>
<polygon fill="#bfbfbf" stroke="#000000" points="0,-98.5 0,-128.5 135,-128.5 135,-98.5 0,-98.5"/>
<text text-anchor="start" x="8" y="-116.5" font-family="Helvetica,sans-Serif" font-size="10.00" fill="#000000">Ra::Core::Animation</text>
<text text-anchor="middle" x="67.5" y="-105.5" font-family="Helvetica,sans-Serif" font-size="10.00" fill="#000000">::Skeleton::setTransform</text>
</g>
<!-- Node61 -->
<g id="node2" class="node">
<title>Node61</title>
<g id="a_node2"><a xlink:href="classRa_1_1Core_1_1Animation_1_1Skeleton.html#a5679e1beb544b515c4539ce48a2f2ba3" target="_top" xlink:title="Ra::Core::Animation\l::Skeleton::size">
<polygon fill="#ffffff" stroke="#000000" points="171,-147.5 171,-177.5 285,-177.5 285,-147.5 171,-147.5"/>
<text text-anchor="start" x="179" y="-165.5" font-family="Helvetica,sans-Serif" font-size="10.00" fill="#000000">Ra::Core::Animation</text>
<text text-anchor="middle" x="228" y="-154.5" font-family="Helvetica,sans-Serif" font-size="10.00" fill="#000000">::Skeleton::size</text>
</a>
</g>
</g>
<!-- Node60&#45;&gt;Node61 -->
<g id="edge1" class="edge">
<title>Node60&#45;&gt;Node61</title>
<path fill="none" stroke="#191970" d="M116.9649,-128.6014C133.365,-133.6083 151.7869,-139.2324 168.8409,-144.439"/>
<polygon fill="#191970" stroke="#191970" points="168.1122,-147.8759 178.6984,-147.4484 170.1562,-141.181 168.1122,-147.8759"/>
</g>
<!-- Node71 -->
<g id="node12" class="node">
<title>Node71</title>
<g id="a_node12"><a xlink:href="classRa_1_1Core_1_1AdjacencyList.html#a9bf4ac88fdea50ef9916b641617d4827" target="_top" xlink:title="Return true if a node is a root node. ">
<polygon fill="#ffffff" stroke="#000000" points="471,-294.5 471,-324.5 602,-324.5 602,-294.5 471,-294.5"/>
<text text-anchor="start" x="479" y="-312.5" font-family="Helvetica,sans-Serif" font-size="10.00" fill="#000000">Ra::Core::AdjacencyList</text>
<text text-anchor="middle" x="536.5" y="-301.5" font-family="Helvetica,sans-Serif" font-size="10.00" fill="#000000">::isRoot</text>
</a>
</g>
</g>
<!-- Node60&#45;&gt;Node71 -->
<g id="edge23" class="edge">
<title>Node60&#45;&gt;Node71</title>
<path fill="none" stroke="#191970" d="M85.1275,-128.6291C104.9189,-144.9908 138.5287,-170.9471 171,-187.5 267.1096,-236.4939 387.1669,-272.1729 462.8652,-291.8708"/>
<polygon fill="#191970" stroke="#191970" points="462.2298,-295.3214 472.7868,-294.4271 463.9764,-288.5427 462.2298,-295.3214"/>
</g>
<!-- Node75 -->
<g id="node16" class="node">
<title>Node75</title>
<g id="a_node16"><a xlink:href="classRa_1_1Core_1_1AdjacencyList.html#a778181dcdae7c7a6a482401c89d75253" target="_top" xlink:title="Return true if the node is a leaf node. ">
<polygon fill="#ffffff" stroke="#000000" points="471,-98.5 471,-128.5 602,-128.5 602,-98.5 471,-98.5"/>
<text text-anchor="start" x="479" y="-116.5" font-family="Helvetica,sans-Serif" font-size="10.00" fill="#000000">Ra::Core::AdjacencyList</text>
<text text-anchor="middle" x="536.5" y="-105.5" font-family="Helvetica,sans-Serif" font-size="10.00" fill="#000000">::isLeaf</text>
</a>
</g>
</g>
<!-- Node60&#45;&gt;Node75 -->
<g id="edge25" class="edge">
<title>Node60&#45;&gt;Node75</title>
<path fill="none" stroke="#191970" d="M135.1957,-113.5C221.5414,-113.5 370.4449,-113.5 460.5661,-113.5"/>
<polygon fill="#191970" stroke="#191970" points="460.717,-117.0001 470.7169,-113.5 460.7169,-110.0001 460.717,-117.0001"/>
</g>
<!-- Node76 -->
<g id="node17" class="node">
<title>Node76</title>
<g id="a_node17"><a xlink:href="classRa_1_1Core_1_1AdjacencyList.html#a45d58d25c05abf04f4f6526ef3ae5a26" target="_top" xlink:title="Ra::Core::AdjacencyList\l::parents">
<polygon fill="#ffffff" stroke="#000000" points="471,-49.5 471,-79.5 602,-79.5 602,-49.5 471,-49.5"/>
<text text-anchor="start" x="479" y="-67.5" font-family="Helvetica,sans-Serif" font-size="10.00" fill="#000000">Ra::Core::AdjacencyList</text>
<text text-anchor="middle" x="536.5" y="-56.5" font-family="Helvetica,sans-Serif" font-size="10.00" fill="#000000">::parents</text>
</a>
</g>
</g>
<!-- Node60&#45;&gt;Node76 -->
<g id="edge24" class="edge">
<title>Node60&#45;&gt;Node76</title>
<path fill="none" stroke="#191970" d="M135.1957,-106.4273C221.5414,-97.4061 370.4449,-81.849 460.5661,-72.4334"/>
<polygon fill="#191970" stroke="#191970" points="461.1348,-75.8931 470.7169,-71.3729 460.4073,-68.931 461.1348,-75.8931"/>
</g>
<!-- Node77 -->
<g id="node18" class="node">
<title>Node77</title>
<g id="a_node18"><a xlink:href="classRa_1_1Core_1_1AdjacencyList.html#afb228941d27a01e44071d404e8b58aa4" target="_top" xlink:title="Ra::Core::AdjacencyList\l::children">
<polygon fill="#ffffff" stroke="#000000" points="471,-.5 471,-30.5 602,-30.5 602,-.5 471,-.5"/>
<text text-anchor="start" x="479" y="-18.5" font-family="Helvetica,sans-Serif" font-size="10.00" fill="#000000">Ra::Core::AdjacencyList</text>
<text text-anchor="middle" x="536.5" y="-7.5" font-family="Helvetica,sans-Serif" font-size="10.00" fill="#000000">::children</text>
</a>
</g>
</g>
<!-- Node60&#45;&gt;Node77 -->
<g id="edge26" class="edge">
<title>Node60&#45;&gt;Node77</title>
<path fill="none" stroke="#191970" d="M122.3983,-98.4879C138.0507,-94.3958 155.1554,-90.1018 171,-86.5 270.6332,-63.8512 386.5725,-42.1033 460.6979,-28.7784"/>
<polygon fill="#191970" stroke="#191970" points="461.648,-32.164 470.8738,-26.9549 460.4132,-25.2737 461.648,-32.164"/>
</g>
<!-- Node62 -->
<g id="node3" class="node">
<title>Node62</title>
<g id="a_node3"><a xlink:href="namespaceRa_1_1Core_1_1Animation.html#a547f9928803752e611f856afca5b613f" target="_top" xlink:title="Remove all the key Poses. ">
<polygon fill="#ffffff" stroke="#000000" points="321,-196.5 321,-226.5 435,-226.5 435,-196.5 321,-196.5"/>
<text text-anchor="start" x="329" y="-214.5" font-family="Helvetica,sans-Serif" font-size="10.00" fill="#000000">Ra::Core::Animation</text>
<text text-anchor="middle" x="378" y="-203.5" font-family="Helvetica,sans-Serif" font-size="10.00" fill="#000000">::clear</text>
</a>
</g>
</g>
<!-- Node61&#45;&gt;Node62 -->
<g id="edge2" class="edge">
<title>Node61&#45;&gt;Node62</title>
<path fill="none" stroke="#191970" d="M274.2289,-177.6014C289.4128,-182.5615 306.4511,-188.1274 322.2639,-193.2929"/>
<polygon fill="#191970" stroke="#191970" points="321.3312,-196.6702 331.9237,-196.4484 323.5049,-190.0162 321.3312,-196.6702"/>
</g>
<!-- Node63 -->
<g id="node4" class="node">
<title>Node63</title>
<g id="a_node4"><a xlink:href="namespaceRa_1_1Core_1_1Animation.html#a60602749517c440955bc88c5ae5d25ee" target="_top" xlink:title="Ra::Core::Animation\l::getPose">
<polygon fill="#ffffff" stroke="#000000" points="321,-351.5 321,-381.5 435,-381.5 435,-351.5 321,-351.5"/>
<text text-anchor="start" x="329" y="-369.5" font-family="Helvetica,sans-Serif" font-size="10.00" fill="#000000">Ra::Core::Animation</text>
<text text-anchor="middle" x="378" y="-358.5" font-family="Helvetica,sans-Serif" font-size="10.00" fill="#000000">::getPose</text>
</a>
</g>
</g>
<!-- Node61&#45;&gt;Node63 -->
<g id="edge3" class="edge">
<title>Node61&#45;&gt;Node63</title>
<path fill="none" stroke="#191970" d="M239.0299,-177.5006C264.9274,-212.7212 329.7748,-300.9137 360.8595,-343.1889"/>
<polygon fill="#191970" stroke="#191970" points="358.2102,-345.4943 366.954,-351.4774 363.8498,-341.3475 358.2102,-345.4943"/>
</g>
<!-- Node68 -->
<g id="node9" class="node">
<title>Node68</title>
<g id="a_node9"><a xlink:href="namespaceRa_1_1Core_1_1Animation.html#a93d6305ed74ab59961969dce601714c2" target="_top" xlink:title="Ra::Core::Animation\l::operator\&lt;\&lt;">
<polygon fill="#ffffff" stroke="#000000" points="321,-147.5 321,-177.5 435,-177.5 435,-147.5 321,-147.5"/>
<text text-anchor="start" x="329" y="-165.5" font-family="Helvetica,sans-Serif" font-size="10.00" fill="#000000">Ra::Core::Animation</text>
<text text-anchor="middle" x="378" y="-154.5" font-family="Helvetica,sans-Serif" font-size="10.00" fill="#000000">::operator&lt;&lt;</text>
</a>
</g>
</g>
<!-- Node61&#45;&gt;Node68 -->
<g id="edge9" class="edge">
<title>Node61&#45;&gt;Node68</title>
<path fill="none" stroke="#191970" d="M285.1365,-155.9231C293.3769,-155.7606 301.9229,-155.7125 310.3442,-155.7788"/>
<polygon fill="#191970" stroke="#191970" points="310.479,-159.2809 320.5255,-155.9165 310.5738,-152.2815 310.479,-159.2809"/>
</g>
<!-- Node64 -->
<g id="node5" class="node">
<title>Node64</title>
<g id="a_node5"><a xlink:href="namespaceRa_1_1Core_1_1Animation.html#a7613da42bbde2caf7e0b3ff501a09cfe" target="_top" xlink:title="Ra::Core::Animation\l::getTime">
<polygon fill="#ffffff" stroke="#000000" points="479.5,-382.5 479.5,-412.5 593.5,-412.5 593.5,-382.5 479.5,-382.5"/>
<text text-anchor="start" x="487.5" y="-400.5" font-family="Helvetica,sans-Serif" font-size="10.00" fill="#000000">Ra::Core::Animation</text>
<text text-anchor="middle" x="536.5" y="-389.5" font-family="Helvetica,sans-Serif" font-size="10.00" fill="#000000">::getTime</text>
</a>
</g>
</g>
<!-- Node63&#45;&gt;Node64 -->
<g id="edge4" class="edge">
<title>Node63&#45;&gt;Node64</title>
<path fill="none" stroke="#191970" d="M435.2221,-377.6917C446.3325,-379.8647 458.0704,-382.1605 469.4632,-384.3887"/>
<polygon fill="#191970" stroke="#191970" points="468.876,-387.8401 479.3619,-386.3247 470.2196,-380.9702 468.876,-387.8401"/>
</g>
<!-- Node65 -->
<g id="node6" class="node">
<title>Node65</title>
<g id="a_node6"><a xlink:href="namespaceRa_1_1Core_1_1Geometry.html#aa04e6052d8911b1df1bd881474debb45" target="_top" xlink:title="Ra::Core::Geometry::t">
<polygon fill="#ffffff" stroke="#000000" points="805,-378 805,-397 927,-397 927,-378 805,-378"/>
<text text-anchor="middle" x="866" y="-385" font-family="Helvetica,sans-Serif" font-size="10.00" fill="#000000">Ra::Core::Geometry::t</text>
</a>
</g>
</g>
<!-- Node63&#45;&gt;Node65 -->
<g id="edge5" class="edge">
<title>Node63&#45;&gt;Node65</title>
<path fill="none" stroke="#191970" d="M435.0944,-367.942C480.3686,-369.1681 545.2449,-371.1086 602,-373.5 667.3747,-376.2546 741.8086,-380.2829 794.938,-383.312"/>
<polygon fill="#191970" stroke="#191970" points="794.753,-386.807 804.9368,-383.8846 795.1533,-379.8185 794.753,-386.807"/>
</g>
<!-- Node66 -->
<g id="node7" class="node">
<title>Node66</title>
<g id="a_node7"><a xlink:href="namespaceRa_1_1Core_1_1Animation.html#aa5e2e11d79318fd2777aaa259f8210db" target="_top" xlink:title="Ra::Core::Animation\l::interpolatePoses">
<polygon fill="#ffffff" stroke="#000000" points="479.5,-431.5 479.5,-461.5 593.5,-461.5 593.5,-431.5 479.5,-431.5"/>
<text text-anchor="start" x="487.5" y="-449.5" font-family="Helvetica,sans-Serif" font-size="10.00" fill="#000000">Ra::Core::Animation</text>
<text text-anchor="middle" x="536.5" y="-438.5" font-family="Helvetica,sans-Serif" font-size="10.00" fill="#000000">::interpolatePoses</text>
</a>
</g>
</g>
<!-- Node63&#45;&gt;Node66 -->
<g id="edge6" class="edge">
<title>Node63&#45;&gt;Node66</title>
<path fill="none" stroke="#191970" d="M400.2577,-381.5583C418.69,-393.6181 445.8423,-410.4525 471,-422.5 474.7479,-424.2948 478.6679,-426.0397 482.6464,-427.7157"/>
<polygon fill="#191970" stroke="#191970" points="481.3997,-430.9869 491.9825,-431.4927 484.025,-424.4978 481.3997,-430.9869"/>
</g>
<!-- Node67 -->
<g id="node8" class="node">
<title>Node67</title>
<g id="a_node8"><a xlink:href="namespaceRa_1_1Core_1_1Animation.html#a6951de94ba127cd79685e704d658808b" target="_top" xlink:title="Ra::Core::Animation\l::interpolate">
<polygon fill="#ffffff" stroke="#000000" points="646.5,-406.5 646.5,-436.5 760.5,-436.5 760.5,-406.5 646.5,-406.5"/>
<text text-anchor="start" x="654.5" y="-424.5" font-family="Helvetica,sans-Serif" font-size="10.00" fill="#000000">Ra::Core::Animation</text>
<text text-anchor="middle" x="703.5" y="-413.5" font-family="Helvetica,sans-Serif" font-size="10.00" fill="#000000">::interpolate</text>
</a>
</g>
</g>
<!-- Node66&#45;&gt;Node67 -->
<g id="edge7" class="edge">
<title>Node66&#45;&gt;Node67</title>
<path fill="none" stroke="#191970" d="M593.5048,-437.9663C607.2671,-435.9061 622.1006,-433.6855 636.2822,-431.5625"/>
<polygon fill="#191970" stroke="#191970" points="637.0971,-434.9796 646.4687,-430.0376 636.0607,-428.0568 637.0971,-434.9796"/>
</g>
<!-- Node67&#45;&gt;Node65 -->
<g id="edge8" class="edge">
<title>Node67&#45;&gt;Node65</title>
<path fill="none" stroke="#191970" d="M760.7914,-409.5129C776.985,-406.1247 794.5731,-402.4447 810.6502,-399.0809"/>
<polygon fill="#191970" stroke="#191970" points="811.368,-402.5066 820.4392,-397.0327 809.9343,-395.6549 811.368,-402.5066"/>
</g>
<!-- Node68&#45;&gt;Node61 -->
<g id="edge10" class="edge">
<title>Node68&#45;&gt;Node61</title>
<path fill="none" stroke="#191970" d="M320.5255,-169.0835C312.2768,-169.2429 303.7284,-169.2878 295.3106,-169.2184"/>
<polygon fill="#191970" stroke="#191970" points="295.1842,-165.7164 285.1365,-169.0769 295.0868,-172.7157 295.1842,-165.7164"/>
</g>
<!-- Node69 -->
<g id="node10" class="node">
<title>Node69</title>
<g id="a_node10"><a xlink:href="classRa_1_1Core_1_1Animation_1_1HandleArray.html#a1c75459bc9ff0e1f940b97f55fc18a7e" target="_top" xlink:title="Ra::Core::Animation\l::HandleArray::getLabel">
<polygon fill="#ffffff" stroke="#000000" points="471,-245.5 471,-275.5 602,-275.5 602,-245.5 471,-245.5"/>
<text text-anchor="start" x="479" y="-263.5" font-family="Helvetica,sans-Serif" font-size="10.00" fill="#000000">Ra::Core::Animation</text>
<text text-anchor="middle" x="536.5" y="-252.5" font-family="Helvetica,sans-Serif" font-size="10.00" fill="#000000">::HandleArray::getLabel</text>
</a>
</g>
</g>
<!-- Node68&#45;&gt;Node69 -->
<g id="edge11" class="edge">
<title>Node68&#45;&gt;Node69</title>
<path fill="none" stroke="#191970" d="M419.362,-177.5084C424.8923,-180.3934 430.2767,-183.7174 435,-187.5 456.0933,-204.3921 449.3924,-220.2709 471,-236.5 472.849,-237.8887 474.7865,-239.2038 476.7891,-240.4485"/>
<polygon fill="#191970" stroke="#191970" points="475.4642,-243.7141 485.9133,-245.4651 478.8368,-237.5801 475.4642,-243.7141"/>
</g>
<!-- Node68&#45;&gt;Node71 -->
<g id="edge13" class="edge">
<title>Node68&#45;&gt;Node71</title>
<path fill="none" stroke="#191970" d="M422.4193,-177.5375C427.0453,-180.3466 431.3724,-183.643 435,-187.5 466.7901,-221.3006 438.1758,-252.7028 471,-285.5 472.0709,-286.57 473.1934,-287.5928 474.3599,-288.5703"/>
<polygon fill="#191970" stroke="#191970" points="472.4259,-291.4892 482.6166,-294.3876 476.4576,-285.7668 472.4259,-291.4892"/>
</g>
<!-- Node73 -->
<g id="node14" class="node">
<title>Node73</title>
<g id="a_node14"><a xlink:href="classRa_1_1Core_1_1AdjacencyList.html#a5c9f8b77aebc7f3d807c35df4b030727" target="_top" xlink:title="Return true if the node is a joint node. ( |child| == 1 ) ">
<polygon fill="#ffffff" stroke="#000000" points="471,-196.5 471,-226.5 602,-226.5 602,-196.5 471,-196.5"/>
<text text-anchor="start" x="479" y="-214.5" font-family="Helvetica,sans-Serif" font-size="10.00" fill="#000000">Ra::Core::AdjacencyList</text>
<text text-anchor="middle" x="536.5" y="-203.5" font-family="Helvetica,sans-Serif" font-size="10.00" fill="#000000">::isJoint</text>
</a>
</g>
</g>
<!-- Node68&#45;&gt;Node73 -->
<g id="edge15" class="edge">
<title>Node68&#45;&gt;Node73</title>
<path fill="none" stroke="#191970" d="M426.8485,-177.6014C443.0442,-182.6083 461.2366,-188.2324 478.0781,-193.439"/>
<polygon fill="#191970" stroke="#191970" points="477.2251,-196.8386 487.8128,-196.4484 479.2927,-190.1509 477.2251,-196.8386"/>
</g>
<!-- Node74 -->
<g id="node15" class="node">
<title>Node74</title>
<g id="a_node15"><a xlink:href="classRa_1_1Core_1_1AdjacencyList.html#a7cc5e8bee935a36439b9cd62d47e4404" target="_top" xlink:title="Return true if the node is a branch node. ( |child| &gt; 1 ) ">
<polygon fill="#ffffff" stroke="#000000" points="471,-147.5 471,-177.5 602,-177.5 602,-147.5 471,-147.5"/>
<text text-anchor="start" x="479" y="-165.5" font-family="Helvetica,sans-Serif" font-size="10.00" fill="#000000">Ra::Core::AdjacencyList</text>
<text text-anchor="middle" x="536.5" y="-154.5" font-family="Helvetica,sans-Serif" font-size="10.00" fill="#000000">::isBranch</text>
</a>
</g>
</g>
<!-- Node68&#45;&gt;Node74 -->
<g id="edge17" class="edge">
<title>Node68&#45;&gt;Node74</title>
<path fill="none" stroke="#191970" d="M435.2221,-162.5C443.5075,-162.5 452.1418,-162.5 460.7217,-162.5"/>
<polygon fill="#191970" stroke="#191970" points="460.7447,-166.0001 470.7446,-162.5 460.7446,-159.0001 460.7447,-166.0001"/>
</g>
<!-- Node68&#45;&gt;Node75 -->
<g id="edge19" class="edge">
<title>Node68&#45;&gt;Node75</title>
<path fill="none" stroke="#191970" d="M426.8485,-147.3986C443.0442,-142.3917 461.2366,-136.7676 478.0781,-131.561"/>
<polygon fill="#191970" stroke="#191970" points="479.2927,-134.8491 487.8128,-128.5516 477.2251,-128.1614 479.2927,-134.8491"/>
</g>
<!-- Node68&#45;&gt;Node76 -->
<g id="edge21" class="edge">
<title>Node68&#45;&gt;Node76</title>
<path fill="none" stroke="#191970" d="M394.0496,-147.4169C411.7769,-131.3771 441.7048,-106.0814 471,-89.5 474.6346,-87.4428 478.4716,-85.4879 482.3914,-83.6449"/>
<polygon fill="#191970" stroke="#191970" points="483.9059,-86.8021 491.6317,-79.5521 481.071,-80.4018 483.9059,-86.8021"/>
</g>
<!-- Node68&#45;&gt;Node77 -->
<g id="edge22" class="edge">
<title>Node68&#45;&gt;Node77</title>
<path fill="none" stroke="#191970" d="M385.6374,-147.4141C399.3556,-121.7446 430.5502,-69.448 471,-39.5 472.8585,-38.124 474.8041,-36.8198 476.8135,-35.5843"/>
<polygon fill="#191970" stroke="#191970" points="478.8556,-38.4574 485.9601,-30.5976 475.5048,-32.3114 478.8556,-38.4574"/>
</g>
<!-- Node70 -->
<g id="node11" class="node">
<title>Node70</title>
<g id="a_node11"><a xlink:href="classRa_1_1Core_1_1Animation_1_1HandleArray.html#a669862596d63a98a032123f739fc989a" target="_top" xlink:title="Ra::Core::Animation\l::HandleArray::size">
<polygon fill="#ffffff" stroke="#000000" points="646.5,-245.5 646.5,-275.5 760.5,-275.5 760.5,-245.5 646.5,-245.5"/>
<text text-anchor="start" x="654.5" y="-263.5" font-family="Helvetica,sans-Serif" font-size="10.00" fill="#000000">Ra::Core::Animation</text>
<text text-anchor="middle" x="703.5" y="-252.5" font-family="Helvetica,sans-Serif" font-size="10.00" fill="#000000">::HandleArray::size</text>
</a>
</g>
</g>
<!-- Node69&#45;&gt;Node70 -->
<g id="edge12" class="edge">
<title>Node69&#45;&gt;Node70</title>
<path fill="none" stroke="#191970" d="M602.0235,-260.5C613.2174,-260.5 624.8638,-260.5 636.1054,-260.5"/>
<polygon fill="#191970" stroke="#191970" points="636.2909,-264.0001 646.2909,-260.5 636.2909,-257.0001 636.2909,-264.0001"/>
</g>
<!-- Node72 -->
<g id="node13" class="node">
<title>Node72</title>
<g id="a_node13"><a xlink:href="classRa_1_1Core_1_1AdjacencyList.html#a48b78362d882a41b32f0df6aa1d42855" target="_top" xlink:title="Return the number of nodes in the graph. ">
<polygon fill="#ffffff" stroke="#000000" points="638,-172.5 638,-202.5 769,-202.5 769,-172.5 638,-172.5"/>
<text text-anchor="start" x="646" y="-190.5" font-family="Helvetica,sans-Serif" font-size="10.00" fill="#000000">Ra::Core::AdjacencyList</text>
<text text-anchor="middle" x="703.5" y="-179.5" font-family="Helvetica,sans-Serif" font-size="10.00" fill="#000000">::size</text>
</a>
</g>
</g>
<!-- Node71&#45;&gt;Node72 -->
<g id="edge14" class="edge">
<title>Node71&#45;&gt;Node72</title>
<path fill="none" stroke="#191970" d="M587.0867,-294.4651C592.3608,-291.8906 597.4487,-288.9184 602,-285.5 623.6076,-269.2709 618.9743,-255.691 638,-236.5 648.1187,-226.2934 660.4735,-216.4989 671.7151,-208.3857"/>
<polygon fill="#191970" stroke="#191970" points="673.8737,-211.1465 680.0391,-202.5302 669.8462,-205.4211 673.8737,-211.1465"/>
</g>
<!-- Node73&#45;&gt;Node72 -->
<g id="edge16" class="edge">
<title>Node73&#45;&gt;Node72</title>
<path fill="none" stroke="#191970" d="M602.0235,-202.0834C610.496,-200.8658 619.2278,-199.611 627.8471,-198.3723"/>
<polygon fill="#191970" stroke="#191970" points="628.4909,-201.8158 637.8913,-196.9288 627.4951,-194.887 628.4909,-201.8158"/>
</g>
<!-- Node74&#45;&gt;Node72 -->
<g id="edge18" class="edge">
<title>Node74&#45;&gt;Node72</title>
<path fill="none" stroke="#191970" d="M602.0235,-172.3089C610.496,-173.5773 619.2278,-174.8844 627.8471,-176.1747"/>
<polygon fill="#191970" stroke="#191970" points="627.4833,-179.6592 637.8913,-177.6783 628.5197,-172.7363 627.4833,-179.6592"/>
</g>
<!-- Node75&#45;&gt;Node72 -->
<g id="edge20" class="edge">
<title>Node75&#45;&gt;Node72</title>
<path fill="none" stroke="#191970" d="M577.5963,-128.5709C585.7341,-131.7276 594.1764,-135.1258 602,-138.5 623.0579,-147.5821 646.1081,-158.6183 664.913,-167.9159"/>
<polygon fill="#191970" stroke="#191970" points="663.5383,-171.1412 674.0505,-172.4617 666.6562,-164.8739 663.5383,-171.1412"/>
</g>
</g>
</svg>
