<?xml version="1.0" encoding="UTF-8" standalone="no"?>
<!DOCTYPE svg PUBLIC "-//W3C//DTD SVG 1.1//EN"
 "http://www.w3.org/Graphics/SVG/1.1/DTD/svg11.dtd">
<!-- Generated by graphviz version 2.40.1 (20161225.0304)
 -->
<!-- Title: Ra::Engine::DefaultCameraManager Pages: 1 -->
<!--zoomable 912 -->
<svg id="main" version="1.1" xmlns="http://www.w3.org/2000/svg" xmlns:xlink="http://www.w3.org/1999/xlink" xml:space="preserve" onload="init(evt)">
<style type="text/css"><![CDATA[
.edge:hover path { stroke: red; }
.edge:hover polygon { stroke: red; fill: red; }
]]></style>
<script type="text/javascript"><![CDATA[
var edges = document.getElementsByTagName('g');
if (edges && edges.length) {
  for (var i=0;i<edges.length;i++) {
    if (edges[i].id.substr(0,4)=='edge') {
      edges[i].setAttribute('class','edge');
    }
  }
}
]]></script>
        <defs>
                <circle id="rim" cx="0" cy="0" r="7"/>
                <circle id="rim2" cx="0" cy="0" r="3.5"/>
                <g id="zoomPlus">
                        <use xlink:href="#rim" fill="#404040">
                                <set attributeName="fill" to="#808080" begin="zoomplus.mouseover" end="zoomplus.mouseout"/>
                        </use>
                        <path d="M-4,0h8M0,-4v8" fill="none" stroke="white" stroke-width="1.5" pointer-events="none"/>
                </g>
                <g id="zoomMin">
                        <use xlink:href="#rim" fill="#404040">
                                <set attributeName="fill" to="#808080" begin="zoomminus.mouseover" end="zoomminus.mouseout"/>
                        </use>
                        <path d="M-4,0h8" fill="none" stroke="white" stroke-width="1.5" pointer-events="none"/>
                </g>
                <g id="dirArrow">
                        <path fill="none" stroke="white" stroke-width="1.5" d="M0,-3.0v7 M-2.5,-0.5L0,-3.0L2.5,-0.5"/>
                </g>
               <g id="resetDef">
                       <use xlink:href="#rim2" fill="#404040">
                               <set attributeName="fill" to="#808080" begin="reset.mouseover" end="reset.mouseout"/>
                       </use>
               </g>
        </defs>

<script type="text/javascript">
var viewWidth = 591;
var viewHeight = 912;
var sectionId = 'dynsection-1';
</script>
<script xlink:href="svgpan.js"/>
<svg id="graph" class="graph">
<g id="viewport">
<title>Ra::Engine::DefaultCameraManager</title>
<polygon fill="#ffffff" stroke="transparent" points="-4,4 -4,-908 587,-908 587,4 -4,4"/>
<!-- Node3 -->
<g id="node1" class="node">
<title>Node3</title>
<polygon fill="#bfbfbf" stroke="#000000" points="178,-.5 178,-90.5 330,-90.5 330,-.5 178,-.5"/>
<text text-anchor="start" x="186" y="-78.5" font-family="Helvetica,sans-Serif" font-size="10.00" fill="#000000">Ra::Engine::DefaultCamera</text>
<text text-anchor="middle" x="254" y="-67.5" font-family="Helvetica,sans-Serif" font-size="10.00" fill="#000000">Manager</text>
<polyline fill="none" stroke="#000000" points="178,-60.5 330,-60.5 "/>
<text text-anchor="middle" x="254" y="-48.5" font-family="Helvetica,sans-Serif" font-size="10.00" fill="#000000"> </text>
<polyline fill="none" stroke="#000000" points="178,-41.5 330,-41.5 "/>
<text text-anchor="start" x="186" y="-29.5" font-family="Helvetica,sans-Serif" font-size="10.00" fill="#000000">+ DefaultCameraManager()</text>
<text text-anchor="start" x="186" y="-18.5" font-family="Helvetica,sans-Serif" font-size="10.00" fill="#000000">+ getCamera()</text>
<text text-anchor="start" x="186" y="-7.5" font-family="Helvetica,sans-Serif" font-size="10.00" fill="#000000">+ addCamera()</text>
</g>
<!-- Node4 -->
<g id="node2" class="node">
<title>Node4</title>
<g id="a_node2"><a xlink:href="classRa_1_1Engine_1_1CameraManager.html" target="_top" xlink:title="{Ra::Engine::CameraManager\n||+ CameraManager()\l+ CameraManager()\l+ operator=()\l+ ~CameraManager()\l+ getCamera()\l+ addCamera()\l+ count()\l+ generateTasks()\l+ handleAssetLoading()\l# registerComponent()\l# unregisterComponent()\l# unregisterAllComponents()\l}">
<polygon fill="#ffffff" stroke="#000000" points="174.5,-128.5 174.5,-306.5 333.5,-306.5 333.5,-128.5 174.5,-128.5"/>
<text text-anchor="middle" x="254" y="-294.5" font-family="Helvetica,sans-Serif" font-size="10.00" fill="#000000">Ra::Engine::CameraManager</text>
<polyline fill="none" stroke="#000000" points="174.5,-287.5 333.5,-287.5 "/>
<text text-anchor="middle" x="254" y="-275.5" font-family="Helvetica,sans-Serif" font-size="10.00" fill="#000000"> </text>
<polyline fill="none" stroke="#000000" points="174.5,-268.5 333.5,-268.5 "/>
<text text-anchor="start" x="182.5" y="-256.5" font-family="Helvetica,sans-Serif" font-size="10.00" fill="#000000">+ CameraManager()</text>
<text text-anchor="start" x="182.5" y="-245.5" font-family="Helvetica,sans-Serif" font-size="10.00" fill="#000000">+ CameraManager()</text>
<text text-anchor="start" x="182.5" y="-234.5" font-family="Helvetica,sans-Serif" font-size="10.00" fill="#000000">+ operator=()</text>
<text text-anchor="start" x="182.5" y="-223.5" font-family="Helvetica,sans-Serif" font-size="10.00" fill="#000000">+ ~CameraManager()</text>
<text text-anchor="start" x="182.5" y="-212.5" font-family="Helvetica,sans-Serif" font-size="10.00" fill="#000000">+ getCamera()</text>
<text text-anchor="start" x="182.5" y="-201.5" font-family="Helvetica,sans-Serif" font-size="10.00" fill="#000000">+ addCamera()</text>
<text text-anchor="start" x="182.5" y="-190.5" font-family="Helvetica,sans-Serif" font-size="10.00" fill="#000000">+ count()</text>
<text text-anchor="start" x="182.5" y="-179.5" font-family="Helvetica,sans-Serif" font-size="10.00" fill="#000000">+ generateTasks()</text>
<text text-anchor="start" x="182.5" y="-168.5" font-family="Helvetica,sans-Serif" font-size="10.00" fill="#000000">+ handleAssetLoading()</text>
<text text-anchor="start" x="182.5" y="-157.5" font-family="Helvetica,sans-Serif" font-size="10.00" fill="#000000"># registerComponent()</text>
<text text-anchor="start" x="182.5" y="-146.5" font-family="Helvetica,sans-Serif" font-size="10.00" fill="#000000"># unregisterComponent()</text>
<text text-anchor="start" x="182.5" y="-135.5" font-family="Helvetica,sans-Serif" font-size="10.00" fill="#000000"># unregisterAllComponents()</text>
</a>
</g>
</g>
<!-- Node4&#45;&gt;Node3 -->
<g id="edge1" class="edge">
<title>Node4&#45;&gt;Node3</title>
<path fill="none" stroke="#191970" d="M254,-118.3729C254,-108.735 254,-99.3225 254,-90.6348"/>
<polygon fill="none" stroke="#191970" points="250.5001,-118.4771 254,-128.4771 257.5001,-118.4772 250.5001,-118.4771"/>
</g>
<!-- Node5 -->
<g id="node3" class="node">
<title>Node5</title>
<g id="a_node3"><a xlink:href="classRa_1_1Engine_1_1System.html" target="_top" xlink:title="{Ra::Engine::System\n||+ System()\l+ ~System()\l+ handleAssetLoading()\l+ generateTasks()\l+ getEntityComponents()\l# registerComponent()\l# unregisterComponent()\l# unregisterAllComponents()\l}">
<polygon fill="#ffffff" stroke="#000000" points="113.5,-344.5 113.5,-478.5 272.5,-478.5 272.5,-344.5 113.5,-344.5"/>
<text text-anchor="middle" x="193" y="-466.5" font-family="Helvetica,sans-Serif" font-size="10.00" fill="#000000">Ra::Engine::System</text>
<polyline fill="none" stroke="#000000" points="113.5,-459.5 272.5,-459.5 "/>
<text text-anchor="middle" x="193" y="-447.5" font-family="Helvetica,sans-Serif" font-size="10.00" fill="#000000"> </text>
<polyline fill="none" stroke="#000000" points="113.5,-440.5 272.5,-440.5 "/>
<text text-anchor="start" x="121.5" y="-428.5" font-family="Helvetica,sans-Serif" font-size="10.00" fill="#000000">+ System()</text>
<text text-anchor="start" x="121.5" y="-417.5" font-family="Helvetica,sans-Serif" font-size="10.00" fill="#000000">+ ~System()</text>
<text text-anchor="start" x="121.5" y="-406.5" font-family="Helvetica,sans-Serif" font-size="10.00" fill="#000000">+ handleAssetLoading()</text>
<text text-anchor="start" x="121.5" y="-395.5" font-family="Helvetica,sans-Serif" font-size="10.00" fill="#000000">+ generateTasks()</text>
<text text-anchor="start" x="121.5" y="-384.5" font-family="Helvetica,sans-Serif" font-size="10.00" fill="#000000">+ getEntityComponents()</text>
<text text-anchor="start" x="121.5" y="-373.5" font-family="Helvetica,sans-Serif" font-size="10.00" fill="#000000"># registerComponent()</text>
<text text-anchor="start" x="121.5" y="-362.5" font-family="Helvetica,sans-Serif" font-size="10.00" fill="#000000"># unregisterComponent()</text>
<text text-anchor="start" x="121.5" y="-351.5" font-family="Helvetica,sans-Serif" font-size="10.00" fill="#000000"># unregisterAllComponents()</text>
</a>
</g>
</g>
<!-- Node5&#45;&gt;Node4 -->
<g id="edge2" class="edge">
<title>Node5&#45;&gt;Node4</title>
<path fill="none" stroke="#191970" d="M217.1654,-334.646C220.0438,-325.4919 223.0009,-316.0874 225.9279,-306.7784"/>
<polygon fill="none" stroke="#191970" points="213.7389,-333.8751 214.0782,-344.4646 220.4166,-335.9749 213.7389,-333.8751"/>
</g>
<!-- Node6 -->
<g id="node4" class="node">
<title>Node6</title>
<polygon fill="#ffffff" stroke="#bfbfbf" points="58.5,-526.5 58.5,-605.5 231.5,-605.5 231.5,-526.5 58.5,-526.5"/>
<text text-anchor="start" x="66.5" y="-593.5" font-family="Helvetica,sans-Serif" font-size="10.00" fill="#000000">std::vector&lt; std::pair</text>
<text text-anchor="start" x="66.5" y="-582.5" font-family="Helvetica,sans-Serif" font-size="10.00" fill="#000000">&lt; const Ra::Engine::Entity</text>
<text text-anchor="middle" x="145" y="-571.5" font-family="Helvetica,sans-Serif" font-size="10.00" fill="#000000"> *, Ra::Engine::Component *&gt; &gt;</text>
<polyline fill="none" stroke="#bfbfbf" points="58.5,-564.5 231.5,-564.5 "/>
<text text-anchor="middle" x="145" y="-552.5" font-family="Helvetica,sans-Serif" font-size="10.00" fill="#000000"> </text>
<polyline fill="none" stroke="#bfbfbf" points="58.5,-545.5 231.5,-545.5 "/>
<text text-anchor="middle" x="145" y="-533.5" font-family="Helvetica,sans-Serif" font-size="10.00" fill="#000000"> </text>
</g>
<!-- Node6&#45;&gt;Node5 -->
<g id="edge3" class="edge">
<title>Node6&#45;&gt;Node5</title>
<path fill="none" stroke="#404040" d="M157.3612,-526.2124C160.7713,-515.2361 164.5951,-502.9284 168.4381,-490.5588"/>
<polygon fill="none" stroke="#404040" points="168.5552,-490.1814 166.5155,-483.2648 172.1156,-478.7217 174.1553,-485.6384 168.5552,-490.1814"/>
<text text-anchor="middle" x="210.5" y="-500" font-family="Helvetica,sans-Serif" font-size="10.00" fill="#000000"> #m_components</text>
</g>
<!-- Node7 -->
<g id="node5" class="node">
<title>Node7</title>
<polygon fill="#ffffff" stroke="#bfbfbf" points="0,-697.5 0,-776.5 128,-776.5 128,-697.5 0,-697.5"/>
<text text-anchor="start" x="8" y="-764.5" font-family="Helvetica,sans-Serif" font-size="10.00" fill="#000000">pair&lt; const Ra::Engine</text>
<text text-anchor="start" x="8" y="-753.5" font-family="Helvetica,sans-Serif" font-size="10.00" fill="#000000">::Entity *, Ra::Engine</text>
<text text-anchor="middle" x="64" y="-742.5" font-family="Helvetica,sans-Serif" font-size="10.00" fill="#000000">::Component * &gt;</text>
<polyline fill="none" stroke="#bfbfbf" points="0,-735.5 128,-735.5 "/>
<text text-anchor="middle" x="64" y="-723.5" font-family="Helvetica,sans-Serif" font-size="10.00" fill="#000000"> </text>
<polyline fill="none" stroke="#bfbfbf" points="0,-716.5 128,-716.5 "/>
<text text-anchor="middle" x="64" y="-704.5" font-family="Helvetica,sans-Serif" font-size="10.00" fill="#000000"> </text>
</g>
<!-- Node7&#45;&gt;Node6 -->
<g id="edge4" class="edge">
<title>Node7&#45;&gt;Node6</title>
<path fill="none" stroke="#404040" d="M69.3804,-697.3817C73.5815,-674.8908 80.8226,-646.7721 93,-624 94.5316,-621.136 96.2334,-618.2988 98.0601,-615.5088"/>
<polygon fill="none" stroke="#404040" points="98.141,-615.396 98.391,-608.1892 105.1396,-605.6481 104.8896,-612.8549 98.141,-615.396"/>
<text text-anchor="middle" x="122" y="-638" font-family="Helvetica,sans-Serif" font-size="10.00" fill="#000000"> +elements</text>
</g>
<!-- Node8 -->
<g id="node6" class="node">
<title>Node8</title>
<g id="a_node6"><a xlink:title="STL class. ">
<polygon fill="#ffffff" stroke="#bfbfbf" points="147.5,-708.5 147.5,-765.5 244.5,-765.5 244.5,-708.5 147.5,-708.5"/>
<text text-anchor="middle" x="196" y="-753.5" font-family="Helvetica,sans-Serif" font-size="10.00" fill="#000000">std::vector&lt; T &gt;</text>
<polyline fill="none" stroke="#bfbfbf" points="147.5,-746.5 244.5,-746.5 "/>
<text text-anchor="middle" x="196" y="-734.5" font-family="Helvetica,sans-Serif" font-size="10.00" fill="#000000"> </text>
<polyline fill="none" stroke="#bfbfbf" points="147.5,-727.5 244.5,-727.5 "/>
<text text-anchor="middle" x="196" y="-715.5" font-family="Helvetica,sans-Serif" font-size="10.00" fill="#000000"> </text>
</a>
</g>
</g>
<!-- Node8&#45;&gt;Node6 -->
<g id="edge5" class="edge">
<title>Node8&#45;&gt;Node6</title>
<path fill="none" stroke="#ffa500" d="M177.9071,-699.1186C172.1829,-686.0055 166.2479,-671.0665 162,-657 157.0285,-640.5373 153.243,-621.9389 150.5206,-605.8661"/>
<polygon fill="#ffa500" stroke="#ffa500" points="174.7367,-700.6027 182.0109,-708.3057 181.128,-697.7477 174.7367,-700.6027"/>
<text text-anchor="start" x="162" y="-649" font-family="Helvetica,sans-Serif" font-size="10.00" fill="#000000"> &lt; std::pair&lt; const</text>
<text text-anchor="start" x="162" y="-638" font-family="Helvetica,sans-Serif" font-size="10.00" fill="#000000"> Ra::Engine::Entity</text>
<text text-anchor="middle" x="240.5" y="-627" font-family="Helvetica,sans-Serif" font-size="10.00" fill="#000000"> *, Ra::Engine::Component *&gt; &gt;</text>
</g>
<!-- Node9 -->
<g id="node7" class="node">
<title>Node9</title>
<polygon fill="#ffffff" stroke="#bfbfbf" points="244.5,-846.5 244.5,-903.5 273.5,-903.5 273.5,-846.5 244.5,-846.5"/>
<text text-anchor="middle" x="259" y="-891.5" font-family="Helvetica,sans-Serif" font-size="10.00" fill="#000000">T</text>
<polyline fill="none" stroke="#bfbfbf" points="244.5,-884.5 273.5,-884.5 "/>
<text text-anchor="middle" x="259" y="-872.5" font-family="Helvetica,sans-Serif" font-size="10.00" fill="#000000"> </text>
<polyline fill="none" stroke="#bfbfbf" points="244.5,-865.5 273.5,-865.5 "/>
<text text-anchor="middle" x="259" y="-853.5" font-family="Helvetica,sans-Serif" font-size="10.00" fill="#000000"> </text>
</g>
<!-- Node9&#45;&gt;Node8 -->
<g id="edge6" class="edge">
<title>Node9&#45;&gt;Node8</title>
<path fill="none" stroke="#404040" d="M244.2399,-852.0045C239.7128,-844.5006 234.9013,-836.0306 231,-828 223.1608,-811.8636 215.8136,-793.491 209.8946,-777.4996"/>
<polygon fill="none" stroke="#404040" points="209.748,-777.0945 203.9441,-772.8149 205.6622,-765.8114 211.4661,-770.091 209.748,-777.0945"/>
<text text-anchor="middle" x="260" y="-820" font-family="Helvetica,sans-Serif" font-size="10.00" fill="#000000"> +elements</text>
</g>
<!-- Node12 -->
<g id="node10" class="node">
<title>Node12</title>
<g id="a_node10"><a xlink:title="STL class. ">
<polygon fill="#ffffff" stroke="#bfbfbf" points="264,-708.5 264,-765.5 382,-765.5 382,-708.5 264,-708.5"/>
<text text-anchor="middle" x="323" y="-753.5" font-family="Helvetica,sans-Serif" font-size="10.00" fill="#000000">std::unique_ptr&lt; T &gt;</text>
<polyline fill="none" stroke="#bfbfbf" points="264,-746.5 382,-746.5 "/>
<text text-anchor="middle" x="323" y="-734.5" font-family="Helvetica,sans-Serif" font-size="10.00" fill="#000000"> </text>
<polyline fill="none" stroke="#bfbfbf" points="264,-727.5 382,-727.5 "/>
<text text-anchor="start" x="272" y="-715.5" font-family="Helvetica,sans-Serif" font-size="10.00" fill="#000000">+ operator&#45;&gt;()</text>
</a>
</g>
</g>
<!-- Node9&#45;&gt;Node12 -->
<g id="edge10" class="edge">
<title>Node9&#45;&gt;Node12</title>
<path fill="none" stroke="#404040" d="M273.7214,-854.0299C278.9334,-846.091 284.5914,-836.8351 289,-828 297.0408,-811.8857 304.2892,-793.3819 310.0073,-777.2855"/>
<polygon fill="none" stroke="#404040" points="310.1515,-776.8677 308.3296,-769.8905 314.0694,-765.5253 315.8913,-772.5025 310.1515,-776.8677"/>
<text text-anchor="middle" x="305.5" y="-820" font-family="Helvetica,sans-Serif" font-size="10.00" fill="#000000"> +ptr</text>
</g>
<!-- Node10 -->
<g id="node8" class="node">
<title>Node10</title>
<polygon fill="#ffffff" stroke="#bfbfbf" points="250.5,-532 250.5,-600 399.5,-600 399.5,-532 250.5,-532"/>
<text text-anchor="start" x="258.5" y="-588" font-family="Helvetica,sans-Serif" font-size="10.00" fill="#000000">std::unique_ptr&lt; Ra</text>
<text text-anchor="middle" x="325" y="-577" font-family="Helvetica,sans-Serif" font-size="10.00" fill="#000000">::Engine::CameraStorage &gt;</text>
<polyline fill="none" stroke="#bfbfbf" points="250.5,-570 399.5,-570 "/>
<text text-anchor="middle" x="325" y="-558" font-family="Helvetica,sans-Serif" font-size="10.00" fill="#000000"> </text>
<polyline fill="none" stroke="#bfbfbf" points="250.5,-551 399.5,-551 "/>
<text text-anchor="start" x="258.5" y="-539" font-family="Helvetica,sans-Serif" font-size="10.00" fill="#000000">+ operator&#45;&gt;()</text>
</g>
<!-- Node10&#45;&gt;Node4 -->
<g id="edge7" class="edge">
<title>Node10&#45;&gt;Node4</title>
<path fill="none" stroke="#404040" d="M318.3711,-531.7408C309.8908,-488.1045 294.6628,-410.3863 281,-344 279.2883,-335.683 277.4932,-327.063 275.6767,-318.4111"/>
<polygon fill="none" stroke="#404040" points="275.6662,-318.361 270.5151,-313.3145 273.1921,-306.6187 278.3432,-311.6652 275.6662,-318.361"/>
<text text-anchor="middle" x="331.5" y="-409" font-family="Helvetica,sans-Serif" font-size="10.00" fill="#000000"> #m_data</text>
</g>
<!-- Node11 -->
<g id="node9" class="node">
<title>Node11</title>
<g id="a_node9"><a xlink:href="classRa_1_1Engine_1_1CameraStorage.html" target="_top" xlink:title="{Ra::Engine::CameraStorage\n||+ CameraStorage()\l+ ~CameraStorage()\l+ size()\l+ add()\l+ remove()\l+ clear()\l+ operator[]()\l}">
<polygon fill="#ffffff" stroke="#000000" points="433,-675.5 433,-798.5 583,-798.5 583,-675.5 433,-675.5"/>
<text text-anchor="middle" x="508" y="-786.5" font-family="Helvetica,sans-Serif" font-size="10.00" fill="#000000">Ra::Engine::CameraStorage</text>
<polyline fill="none" stroke="#000000" points="433,-779.5 583,-779.5 "/>
<text text-anchor="middle" x="508" y="-767.5" font-family="Helvetica,sans-Serif" font-size="10.00" fill="#000000"> </text>
<polyline fill="none" stroke="#000000" points="433,-760.5 583,-760.5 "/>
<text text-anchor="start" x="441" y="-748.5" font-family="Helvetica,sans-Serif" font-size="10.00" fill="#000000">+ CameraStorage()</text>
<text text-anchor="start" x="441" y="-737.5" font-family="Helvetica,sans-Serif" font-size="10.00" fill="#000000">+ ~CameraStorage()</text>
<text text-anchor="start" x="441" y="-726.5" font-family="Helvetica,sans-Serif" font-size="10.00" fill="#000000">+ size()</text>
<text text-anchor="start" x="441" y="-715.5" font-family="Helvetica,sans-Serif" font-size="10.00" fill="#000000">+ add()</text>
<text text-anchor="start" x="441" y="-704.5" font-family="Helvetica,sans-Serif" font-size="10.00" fill="#000000">+ remove()</text>
<text text-anchor="start" x="441" y="-693.5" font-family="Helvetica,sans-Serif" font-size="10.00" fill="#000000">+ clear()</text>
<text text-anchor="start" x="441" y="-682.5" font-family="Helvetica,sans-Serif" font-size="10.00" fill="#000000">+ operator[]()</text>
</a>
</g>
</g>
<!-- Node11&#45;&gt;Node10 -->
<g id="edge8" class="edge">
<title>Node11&#45;&gt;Node10</title>
<path fill="none" stroke="#404040" d="M507.3615,-675.3607C504.3746,-657.086 498.1619,-638.1881 486,-624 466.9666,-601.7956 438.7658,-588.0916 411.2619,-579.634"/>
<polygon fill="none" stroke="#404040" points="411.0931,-579.5863 404.2311,-581.8027 399.5459,-576.321 406.408,-574.1046 411.0931,-579.5863"/>
<text text-anchor="middle" x="515.5" y="-638" font-family="Helvetica,sans-Serif" font-size="10.00" fill="#000000"> +ptr</text>
</g>
<!-- Node12&#45;&gt;Node10 -->
<g id="edge9" class="edge">
<title>Node12&#45;&gt;Node10</title>
<path fill="none" stroke="#ffa500" d="M323.4559,-698.0167C323.8015,-668.4698 324.2717,-628.268 324.6022,-600.0157"/>
<polygon fill="#ffa500" stroke="#ffa500" points="319.952,-698.3382 323.3348,-708.3784 326.9516,-698.4201 319.952,-698.3382"/>
<text text-anchor="middle" x="404" y="-638" font-family="Helvetica,sans-Serif" font-size="10.00" fill="#000000"> &lt; Ra::Engine::CameraStorage &gt;</text>
</g>
</g>
</svg>
        <g id="navigator" transform="translate(0 0)" fill="#404254">
                <rect fill="#f2f5e9" fill-opacity="0.5" stroke="#606060" stroke-width=".5" x="0" y="0" width="60" height="60"/>
                <use id="zoomplus" xlink:href="#zoomPlus" x="17" y="9" onmousedown="handleZoom(evt,'in')"/>
                <use id="zoomminus" xlink:href="#zoomMin" x="42" y="9" onmousedown="handleZoom(evt,'out')"/>
                <use id="reset" xlink:href="#resetDef" x="30" y="36" onmousedown="handleReset()"/>
                <g id="arrowUp" xlink:href="#dirArrow" transform="translate(30 24)" onmousedown="handlePan(0,-1)">
                  <use xlink:href="#rim" fill="#404040">
                        <set attributeName="fill" to="#808080" begin="arrowUp.mouseover" end="arrowUp.mouseout"/>
                  </use>
                  <path fill="none" stroke="white" stroke-width="1.5" d="M0,-3.0v7 M-2.5,-0.5L0,-3.0L2.5,-0.5"/>
                </g>
                <g id="arrowRight" xlink:href="#dirArrow" transform="rotate(90) translate(36 -43)" onmousedown="handlePan(1,0)">
                  <use xlink:href="#rim" fill="#404040">
                        <set attributeName="fill" to="#808080" begin="arrowRight.mouseover" end="arrowRight.mouseout"/>
                  </use>
                  <path fill="none" stroke="white" stroke-width="1.5" d="M0,-3.0v7 M-2.5,-0.5L0,-3.0L2.5,-0.5"/>
                </g>
                <g id="arrowDown" xlink:href="#dirArrow" transform="rotate(180) translate(-30 -48)" onmousedown="handlePan(0,1)">
                  <use xlink:href="#rim" fill="#404040">
                        <set attributeName="fill" to="#808080" begin="arrowDown.mouseover" end="arrowDown.mouseout"/>
                  </use>
                  <path fill="none" stroke="white" stroke-width="1.5" d="M0,-3.0v7 M-2.5,-0.5L0,-3.0L2.5,-0.5"/>
                </g>
                <g id="arrowLeft" xlink:href="#dirArrow" transform="rotate(270) translate(-36 17)" onmousedown="handlePan(-1,0)">
                  <use xlink:href="#rim" fill="#404040">
                        <set attributeName="fill" to="#808080" begin="arrowLeft.mouseover" end="arrowLeft.mouseout"/>
                  </use>
                  <path fill="none" stroke="white" stroke-width="1.5" d="M0,-3.0v7 M-2.5,-0.5L0,-3.0L2.5,-0.5"/>
                </g>
        </g>
        <svg viewBox="0 0 15 15" width="100%" height="30px" preserveAspectRatio="xMaxYMin meet">
         <g id="arrow_out" transform="scale(0.3 0.3)">
          <a xlink:href="classRa_1_1Engine_1_1DefaultCameraManager__coll__graph_org.svg" target="_base">
           <rect id="button" ry="5" rx="5" y="6" x="6" height="38" width="38"
                fill="#f2f5e9" fill-opacity="0.5" stroke="#606060" stroke-width="1.0"/>
           <path id="arrow"
             d="M 11.500037,31.436501 C 11.940474,20.09759 22.043105,11.32322 32.158766,21.979434 L 37.068811,17.246167 C 37.068811,17.246167 37.088388,32 37.088388,32 L 22.160133,31.978069 C 22.160133,31.978069 26.997745,27.140456 26.997745,27.140456 C 18.528582,18.264221 13.291696,25.230495 11.500037,31.436501 z"
             style="fill:#404040;"/>
          </a>
         </g>
        </svg>
</svg>
