<?xml version="1.0" encoding="UTF-8" standalone="no"?>
<!DOCTYPE svg PUBLIC "-//W3C//DTD SVG 1.1//EN"
 "http://www.w3.org/Graphics/SVG/1.1/DTD/svg11.dtd">
<!-- Generated by graphviz version 2.40.1 (20161225.0304)
 -->
<!-- Title: Ra::Engine::DefaultLightManager Pages: 1 -->
<svg width="569pt" height="923pt"
 viewBox="0.00 0.00 569.00 923.00" xmlns="http://www.w3.org/2000/svg" xmlns:xlink="http://www.w3.org/1999/xlink">
<g id="graph0" class="graph" transform="scale(1 1) rotate(0) translate(4 919)">
<title>Ra::Engine::DefaultLightManager</title>
<polygon fill="#ffffff" stroke="transparent" points="-4,4 -4,-919 565,-919 565,4 -4,4"/>
<!-- Node3 -->
<g id="node1" class="node">
<title>Node3</title>
<polygon fill="#bfbfbf" stroke="#000000" points="185.5,-.5 185.5,-90.5 322.5,-90.5 322.5,-.5 185.5,-.5"/>
<text text-anchor="start" x="193.5" y="-78.5" font-family="Helvetica,sans-Serif" font-size="10.00" fill="#000000">Ra::Engine::DefaultLight</text>
<text text-anchor="middle" x="254" y="-67.5" font-family="Helvetica,sans-Serif" font-size="10.00" fill="#000000">Manager</text>
<polyline fill="none" stroke="#000000" points="185.5,-60.5 322.5,-60.5 "/>
<text text-anchor="middle" x="254" y="-48.5" font-family="Helvetica,sans-Serif" font-size="10.00" fill="#000000"> </text>
<polyline fill="none" stroke="#000000" points="185.5,-41.5 322.5,-41.5 "/>
<text text-anchor="start" x="193.5" y="-29.5" font-family="Helvetica,sans-Serif" font-size="10.00" fill="#000000">+ DefaultLightManager()</text>
<text text-anchor="start" x="193.5" y="-18.5" font-family="Helvetica,sans-Serif" font-size="10.00" fill="#000000">+ getLight()</text>
<text text-anchor="start" x="193.5" y="-7.5" font-family="Helvetica,sans-Serif" font-size="10.00" fill="#000000">+ addLight()</text>
</g>
<!-- Node4 -->
<g id="node2" class="node">
<title>Node4</title>
<g id="a_node2"><a xlink:href="classRa_1_1Engine_1_1LightManager.html" target="_top" xlink:title="{Ra::Engine::LightManager\n||+ LightManager()\l+ LightManager()\l+ operator=()\l+ ~LightManager()\l+ getLight()\l+ addLight()\l+ count()\l+ generateTasks()\l+ handleAssetLoading()\l# registerComponent()\l# unregisterComponent()\l# unregisterAllComponents()\l}">
<polygon fill="#ffffff" stroke="#000000" points="174.5,-128.5 174.5,-306.5 333.5,-306.5 333.5,-128.5 174.5,-128.5"/>
<text text-anchor="middle" x="254" y="-294.5" font-family="Helvetica,sans-Serif" font-size="10.00" fill="#000000">Ra::Engine::LightManager</text>
<polyline fill="none" stroke="#000000" points="174.5,-287.5 333.5,-287.5 "/>
<text text-anchor="middle" x="254" y="-275.5" font-family="Helvetica,sans-Serif" font-size="10.00" fill="#000000"> </text>
<polyline fill="none" stroke="#000000" points="174.5,-268.5 333.5,-268.5 "/>
<text text-anchor="start" x="182.5" y="-256.5" font-family="Helvetica,sans-Serif" font-size="10.00" fill="#000000">+ LightManager()</text>
<text text-anchor="start" x="182.5" y="-245.5" font-family="Helvetica,sans-Serif" font-size="10.00" fill="#000000">+ LightManager()</text>
<text text-anchor="start" x="182.5" y="-234.5" font-family="Helvetica,sans-Serif" font-size="10.00" fill="#000000">+ operator=()</text>
<text text-anchor="start" x="182.5" y="-223.5" font-family="Helvetica,sans-Serif" font-size="10.00" fill="#000000">+ ~LightManager()</text>
<text text-anchor="start" x="182.5" y="-212.5" font-family="Helvetica,sans-Serif" font-size="10.00" fill="#000000">+ getLight()</text>
<text text-anchor="start" x="182.5" y="-201.5" font-family="Helvetica,sans-Serif" font-size="10.00" fill="#000000">+ addLight()</text>
<text text-anchor="start" x="182.5" y="-190.5" font-family="Helvetica,sans-Serif" font-size="10.00" fill="#000000">+ count()</text>
<text text-anchor="start" x="182.5" y="-179.5" font-family="Helvetica,sans-Serif" font-size="10.00" fill="#000000">+ generateTasks()</text>
<text text-anchor="start" x="182.5" y="-168.5" font-family="Helvetica,sans-Serif" font-size="10.00" fill="#000000">+ handleAssetLoading()</text>
<text text-anchor="start" x="182.5" y="-157.5" font-family="Helvetica,sans-Serif" font-size="10.00" fill="#000000"># registerComponent()</text>
<text text-anchor="start" x="182.5" y="-146.5" font-family="Helvetica,sans-Serif" font-size="10.00" fill="#000000"># unregisterComponent()</text>
<text text-anchor="start" x="182.5" y="-135.5" font-family="Helvetica,sans-Serif" font-size="10.00" fill="#000000"># unregisterAllComponents()</text>
</a>
</g>
</g>
<!-- Node4&#45;&gt;Node3 -->
<g id="edge1" class="edge">
<title>Node4&#45;&gt;Node3</title>
<path fill="none" stroke="#191970" d="M254,-118.3729C254,-108.735 254,-99.3225 254,-90.6348"/>
<polygon fill="none" stroke="#191970" points="250.5001,-118.4771 254,-128.4771 257.5001,-118.4772 250.5001,-118.4771"/>
</g>
<!-- Node5 -->
<g id="node3" class="node">
<title>Node5</title>
<g id="a_node3"><a xlink:href="classRa_1_1Engine_1_1System.html" target="_top" xlink:title="{Ra::Engine::System\n||+ System()\l+ ~System()\l+ handleAssetLoading()\l+ generateTasks()\l+ getEntityComponents()\l# registerComponent()\l# unregisterComponent()\l# unregisterAllComponents()\l}">
<polygon fill="#ffffff" stroke="#000000" points="113.5,-344.5 113.5,-478.5 272.5,-478.5 272.5,-344.5 113.5,-344.5"/>
<text text-anchor="middle" x="193" y="-466.5" font-family="Helvetica,sans-Serif" font-size="10.00" fill="#000000">Ra::Engine::System</text>
<polyline fill="none" stroke="#000000" points="113.5,-459.5 272.5,-459.5 "/>
<text text-anchor="middle" x="193" y="-447.5" font-family="Helvetica,sans-Serif" font-size="10.00" fill="#000000"> </text>
<polyline fill="none" stroke="#000000" points="113.5,-440.5 272.5,-440.5 "/>
<text text-anchor="start" x="121.5" y="-428.5" font-family="Helvetica,sans-Serif" font-size="10.00" fill="#000000">+ System()</text>
<text text-anchor="start" x="121.5" y="-417.5" font-family="Helvetica,sans-Serif" font-size="10.00" fill="#000000">+ ~System()</text>
<text text-anchor="start" x="121.5" y="-406.5" font-family="Helvetica,sans-Serif" font-size="10.00" fill="#000000">+ handleAssetLoading()</text>
<text text-anchor="start" x="121.5" y="-395.5" font-family="Helvetica,sans-Serif" font-size="10.00" fill="#000000">+ generateTasks()</text>
<text text-anchor="start" x="121.5" y="-384.5" font-family="Helvetica,sans-Serif" font-size="10.00" fill="#000000">+ getEntityComponents()</text>
<text text-anchor="start" x="121.5" y="-373.5" font-family="Helvetica,sans-Serif" font-size="10.00" fill="#000000"># registerComponent()</text>
<text text-anchor="start" x="121.5" y="-362.5" font-family="Helvetica,sans-Serif" font-size="10.00" fill="#000000"># unregisterComponent()</text>
<text text-anchor="start" x="121.5" y="-351.5" font-family="Helvetica,sans-Serif" font-size="10.00" fill="#000000"># unregisterAllComponents()</text>
</a>
</g>
</g>
<!-- Node5&#45;&gt;Node4 -->
<g id="edge2" class="edge">
<title>Node5&#45;&gt;Node4</title>
<path fill="none" stroke="#191970" d="M217.1654,-334.646C220.0438,-325.4919 223.0009,-316.0874 225.9279,-306.7784"/>
<polygon fill="none" stroke="#191970" points="213.7389,-333.8751 214.0782,-344.4646 220.4166,-335.9749 213.7389,-333.8751"/>
</g>
<!-- Node6 -->
<g id="node4" class="node">
<title>Node6</title>
<polygon fill="#ffffff" stroke="#bfbfbf" points="58.5,-526.5 58.5,-605.5 231.5,-605.5 231.5,-526.5 58.5,-526.5"/>
<text text-anchor="start" x="66.5" y="-593.5" font-family="Helvetica,sans-Serif" font-size="10.00" fill="#000000">std::vector&lt; std::pair</text>
<text text-anchor="start" x="66.5" y="-582.5" font-family="Helvetica,sans-Serif" font-size="10.00" fill="#000000">&lt; const Ra::Engine::Entity</text>
<text text-anchor="middle" x="145" y="-571.5" font-family="Helvetica,sans-Serif" font-size="10.00" fill="#000000"> *, Ra::Engine::Component *&gt; &gt;</text>
<polyline fill="none" stroke="#bfbfbf" points="58.5,-564.5 231.5,-564.5 "/>
<text text-anchor="middle" x="145" y="-552.5" font-family="Helvetica,sans-Serif" font-size="10.00" fill="#000000"> </text>
<polyline fill="none" stroke="#bfbfbf" points="58.5,-545.5 231.5,-545.5 "/>
<text text-anchor="middle" x="145" y="-533.5" font-family="Helvetica,sans-Serif" font-size="10.00" fill="#000000"> </text>
</g>
<!-- Node6&#45;&gt;Node5 -->
<g id="edge3" class="edge">
<title>Node6&#45;&gt;Node5</title>
<path fill="none" stroke="#404040" d="M157.3612,-526.2124C160.7713,-515.2361 164.5951,-502.9284 168.4381,-490.5588"/>
<polygon fill="none" stroke="#404040" points="168.5552,-490.1814 166.5155,-483.2648 172.1156,-478.7217 174.1553,-485.6384 168.5552,-490.1814"/>
<text text-anchor="middle" x="210.5" y="-500" font-family="Helvetica,sans-Serif" font-size="10.00" fill="#000000"> #m_components</text>
</g>
<!-- Node7 -->
<g id="node5" class="node">
<title>Node7</title>
<polygon fill="#ffffff" stroke="#bfbfbf" points="0,-703 0,-782 128,-782 128,-703 0,-703"/>
<text text-anchor="start" x="8" y="-770" font-family="Helvetica,sans-Serif" font-size="10.00" fill="#000000">pair&lt; const Ra::Engine</text>
<text text-anchor="start" x="8" y="-759" font-family="Helvetica,sans-Serif" font-size="10.00" fill="#000000">::Entity *, Ra::Engine</text>
<text text-anchor="middle" x="64" y="-748" font-family="Helvetica,sans-Serif" font-size="10.00" fill="#000000">::Component * &gt;</text>
<polyline fill="none" stroke="#bfbfbf" points="0,-741 128,-741 "/>
<text text-anchor="middle" x="64" y="-729" font-family="Helvetica,sans-Serif" font-size="10.00" fill="#000000"> </text>
<polyline fill="none" stroke="#bfbfbf" points="0,-722 128,-722 "/>
<text text-anchor="middle" x="64" y="-710" font-family="Helvetica,sans-Serif" font-size="10.00" fill="#000000"> </text>
</g>
<!-- Node7&#45;&gt;Node6 -->
<g id="edge4" class="edge">
<title>Node7&#45;&gt;Node6</title>
<path fill="none" stroke="#404040" d="M69.2092,-702.9277C73.4965,-679.0531 81.0486,-648.5997 94,-624 95.5002,-621.1506 97.1677,-618.3254 98.9579,-615.5449"/>
<polygon fill="none" stroke="#404040" points="98.9797,-615.5141 99.1705,-608.3055 105.898,-605.7092 105.7072,-612.9178 98.9797,-615.5141"/>
<text text-anchor="middle" x="123" y="-638" font-family="Helvetica,sans-Serif" font-size="10.00" fill="#000000"> +elements</text>
</g>
<!-- Node8 -->
<g id="node6" class="node">
<title>Node8</title>
<g id="a_node6"><a xlink:title="STL class. ">
<polygon fill="#ffffff" stroke="#bfbfbf" points="147.5,-714 147.5,-771 244.5,-771 244.5,-714 147.5,-714"/>
<text text-anchor="middle" x="196" y="-759" font-family="Helvetica,sans-Serif" font-size="10.00" fill="#000000">std::vector&lt; T &gt;</text>
<polyline fill="none" stroke="#bfbfbf" points="147.5,-752 244.5,-752 "/>
<text text-anchor="middle" x="196" y="-740" font-family="Helvetica,sans-Serif" font-size="10.00" fill="#000000"> </text>
<polyline fill="none" stroke="#bfbfbf" points="147.5,-733 244.5,-733 "/>
<text text-anchor="middle" x="196" y="-721" font-family="Helvetica,sans-Serif" font-size="10.00" fill="#000000"> </text>
</a>
</g>
</g>
<!-- Node8&#45;&gt;Node6 -->
<g id="edge5" class="edge">
<title>Node8&#45;&gt;Node6</title>
<path fill="none" stroke="#ffa500" d="M179.5053,-703.9875C173.7142,-689.452 167.5299,-672.6463 163,-657 158.2078,-640.4477 154.277,-621.8346 151.3247,-605.775"/>
<polygon fill="#ffa500" stroke="#ffa500" points="176.4218,-705.6969 183.4265,-713.6458 182.9076,-703.0636 176.4218,-705.6969"/>
<text text-anchor="start" x="163" y="-649" font-family="Helvetica,sans-Serif" font-size="10.00" fill="#000000"> &lt; std::pair&lt; const</text>
<text text-anchor="start" x="163" y="-638" font-family="Helvetica,sans-Serif" font-size="10.00" fill="#000000"> Ra::Engine::Entity</text>
<text text-anchor="middle" x="241.5" y="-627" font-family="Helvetica,sans-Serif" font-size="10.00" fill="#000000"> *, Ra::Engine::Component *&gt; &gt;</text>
</g>
<!-- Node9 -->
<g id="node7" class="node">
<title>Node9</title>
<polygon fill="#ffffff" stroke="#bfbfbf" points="244.5,-857.5 244.5,-914.5 273.5,-914.5 273.5,-857.5 244.5,-857.5"/>
<text text-anchor="middle" x="259" y="-902.5" font-family="Helvetica,sans-Serif" font-size="10.00" fill="#000000">T</text>
<polyline fill="none" stroke="#bfbfbf" points="244.5,-895.5 273.5,-895.5 "/>
<text text-anchor="middle" x="259" y="-883.5" font-family="Helvetica,sans-Serif" font-size="10.00" fill="#000000"> </text>
<polyline fill="none" stroke="#bfbfbf" points="244.5,-876.5 273.5,-876.5 "/>
<text text-anchor="middle" x="259" y="-864.5" font-family="Helvetica,sans-Serif" font-size="10.00" fill="#000000"> </text>
</g>
<!-- Node9&#45;&gt;Node8 -->
<g id="edge6" class="edge">
<title>Node9&#45;&gt;Node8</title>
<path fill="none" stroke="#404040" d="M244.4359,-863.5266C239.8191,-855.9086 234.9053,-847.2394 231,-839 222.5036,-821.0742 214.7787,-800.4925 208.7607,-782.9538"/>
<polygon fill="none" stroke="#404040" points="208.6912,-782.746 202.9922,-778.3277 204.8786,-771.3677 210.5777,-775.786 208.6912,-782.746"/>
<text text-anchor="middle" x="260" y="-831" font-family="Helvetica,sans-Serif" font-size="10.00" fill="#000000"> +elements</text>
</g>
<!-- Node12 -->
<g id="node10" class="node">
<title>Node12</title>
<g id="a_node10"><a xlink:title="STL class. ">
<polygon fill="#ffffff" stroke="#bfbfbf" points="264,-714 264,-771 382,-771 382,-714 264,-714"/>
<text text-anchor="middle" x="323" y="-759" font-family="Helvetica,sans-Serif" font-size="10.00" fill="#000000">std::unique_ptr&lt; T &gt;</text>
<polyline fill="none" stroke="#bfbfbf" points="264,-752 382,-752 "/>
<text text-anchor="middle" x="323" y="-740" font-family="Helvetica,sans-Serif" font-size="10.00" fill="#000000"> </text>
<polyline fill="none" stroke="#bfbfbf" points="264,-733 382,-733 "/>
<text text-anchor="start" x="272" y="-721" font-family="Helvetica,sans-Serif" font-size="10.00" fill="#000000">+ operator&#45;&gt;()</text>
</a>
</g>
</g>
<!-- Node9&#45;&gt;Node12 -->
<g id="edge10" class="edge">
<title>Node9&#45;&gt;Node12</title>
<path fill="none" stroke="#404040" d="M273.5052,-865.5397C278.8119,-857.5039 284.5899,-848.0502 289,-839 297.7245,-821.0959 305.3289,-800.3634 311.1207,-782.7147"/>
<polygon fill="none" stroke="#404040" points="311.1904,-782.4958 309.2,-775.5648 314.8323,-771.0618 316.8227,-777.9928 311.1904,-782.4958"/>
<text text-anchor="middle" x="305.5" y="-831" font-family="Helvetica,sans-Serif" font-size="10.00" fill="#000000"> +ptr</text>
</g>
<!-- Node10 -->
<g id="node8" class="node">
<title>Node10</title>
<polygon fill="#ffffff" stroke="#bfbfbf" points="258,-532 258,-600 392,-600 392,-532 258,-532"/>
<text text-anchor="start" x="266" y="-588" font-family="Helvetica,sans-Serif" font-size="10.00" fill="#000000">std::unique_ptr&lt; Ra</text>
<text text-anchor="middle" x="325" y="-577" font-family="Helvetica,sans-Serif" font-size="10.00" fill="#000000">::Engine::LightStorage &gt;</text>
<polyline fill="none" stroke="#bfbfbf" points="258,-570 392,-570 "/>
<text text-anchor="middle" x="325" y="-558" font-family="Helvetica,sans-Serif" font-size="10.00" fill="#000000"> </text>
<polyline fill="none" stroke="#bfbfbf" points="258,-551 392,-551 "/>
<text text-anchor="start" x="266" y="-539" font-family="Helvetica,sans-Serif" font-size="10.00" fill="#000000">+ operator&#45;&gt;()</text>
</g>
<!-- Node10&#45;&gt;Node4 -->
<g id="edge7" class="edge">
<title>Node10&#45;&gt;Node4</title>
<path fill="none" stroke="#404040" d="M318.3711,-531.7408C309.8908,-488.1045 294.6628,-410.3863 281,-344 279.2883,-335.683 277.4932,-327.063 275.6767,-318.4111"/>
<polygon fill="none" stroke="#404040" points="275.6662,-318.361 270.5151,-313.3145 273.1921,-306.6187 278.3432,-311.6652 275.6662,-318.361"/>
<text text-anchor="middle" x="331.5" y="-409" font-family="Helvetica,sans-Serif" font-size="10.00" fill="#000000"> #m_data</text>
</g>
<!-- Node11 -->
<g id="node9" class="node">
<title>Node11</title>
<g id="a_node9"><a xlink:href="classRa_1_1Engine_1_1LightStorage.html" target="_top" xlink:title="{Ra::Engine::LightStorage\n||+ LightStorage()\l+ ~LightStorage()\l+ upload()\l+ size()\l+ add()\l+ remove()\l+ clear()\l+ operator[]()\l}">
<polygon fill="#ffffff" stroke="#000000" points="425,-675.5 425,-809.5 561,-809.5 561,-675.5 425,-675.5"/>
<text text-anchor="middle" x="493" y="-797.5" font-family="Helvetica,sans-Serif" font-size="10.00" fill="#000000">Ra::Engine::LightStorage</text>
<polyline fill="none" stroke="#000000" points="425,-790.5 561,-790.5 "/>
<text text-anchor="middle" x="493" y="-778.5" font-family="Helvetica,sans-Serif" font-size="10.00" fill="#000000"> </text>
<polyline fill="none" stroke="#000000" points="425,-771.5 561,-771.5 "/>
<text text-anchor="start" x="433" y="-759.5" font-family="Helvetica,sans-Serif" font-size="10.00" fill="#000000">+ LightStorage()</text>
<text text-anchor="start" x="433" y="-748.5" font-family="Helvetica,sans-Serif" font-size="10.00" fill="#000000">+ ~LightStorage()</text>
<text text-anchor="start" x="433" y="-737.5" font-family="Helvetica,sans-Serif" font-size="10.00" fill="#000000">+ upload()</text>
<text text-anchor="start" x="433" y="-726.5" font-family="Helvetica,sans-Serif" font-size="10.00" fill="#000000">+ size()</text>
<text text-anchor="start" x="433" y="-715.5" font-family="Helvetica,sans-Serif" font-size="10.00" fill="#000000">+ add()</text>
<text text-anchor="start" x="433" y="-704.5" font-family="Helvetica,sans-Serif" font-size="10.00" fill="#000000">+ remove()</text>
<text text-anchor="start" x="433" y="-693.5" font-family="Helvetica,sans-Serif" font-size="10.00" fill="#000000">+ clear()</text>
<text text-anchor="start" x="433" y="-682.5" font-family="Helvetica,sans-Serif" font-size="10.00" fill="#000000">+ operator[]()</text>
</a>
</g>
</g>
<!-- Node11&#45;&gt;Node10 -->
<g id="edge8" class="edge">
<title>Node11&#45;&gt;Node10</title>
<path fill="none" stroke="#404040" d="M492.2271,-675.3737C489.0894,-657.0906 482.8269,-638.3851 471,-624 454.0283,-603.3572 428.6603,-590.0197 403.8094,-581.4193"/>
<polygon fill="none" stroke="#404040" points="403.51,-581.3239 396.5786,-583.3127 392.0768,-577.6794 399.0082,-575.6906 403.51,-581.3239"/>
<text text-anchor="middle" x="499.5" y="-638" font-family="Helvetica,sans-Serif" font-size="10.00" fill="#000000"> +ptr</text>
</g>
<!-- Node12&#45;&gt;Node10 -->
<g id="edge9" class="edge">
<title>Node12&#45;&gt;Node10</title>
<path fill="none" stroke="#ffa500" d="M323.4437,-703.3474C323.794,-672.4337 324.2778,-629.7303 324.6127,-600.183"/>
<polygon fill="#ffa500" stroke="#ffa500" points="319.9394,-703.7104 323.3258,-713.7494 326.939,-703.7897 319.9394,-703.7104"/>
<text text-anchor="middle" x="396.5" y="-638" font-family="Helvetica,sans-Serif" font-size="10.00" fill="#000000"> &lt; Ra::Engine::LightStorage &gt;</text>
</g>
</g>
</svg>
