<?xml version="1.0" encoding="UTF-8" standalone="no"?>
<!DOCTYPE svg PUBLIC "-//W3C//DTD SVG 1.1//EN"
 "http://www.w3.org/Graphics/SVG/1.1/DTD/svg11.dtd">
<!-- Generated by graphviz version 2.40.1 (20161225.0304)
 -->
<!-- Title: Ra::Core::VectorArray&lt; V &gt; Pages: 1 -->
<!--zoomable 521 -->
<svg id="main" version="1.1" xmlns="http://www.w3.org/2000/svg" xmlns:xlink="http://www.w3.org/1999/xlink" xml:space="preserve" onload="init(evt)">
<style type="text/css"><![CDATA[
.edge:hover path { stroke: red; }
.edge:hover polygon { stroke: red; fill: red; }
]]></style>
<script type="text/javascript"><![CDATA[
var edges = document.getElementsByTagName('g');
if (edges && edges.length) {
  for (var i=0;i<edges.length;i++) {
    if (edges[i].id.substr(0,4)=='edge') {
      edges[i].setAttribute('class','edge');
    }
  }
}
]]></script>
        <defs>
                <circle id="rim" cx="0" cy="0" r="7"/>
                <circle id="rim2" cx="0" cy="0" r="3.5"/>
                <g id="zoomPlus">
                        <use xlink:href="#rim" fill="#404040">
                                <set attributeName="fill" to="#808080" begin="zoomplus.mouseover" end="zoomplus.mouseout"/>
                        </use>
                        <path d="M-4,0h8M0,-4v8" fill="none" stroke="white" stroke-width="1.5" pointer-events="none"/>
                </g>
                <g id="zoomMin">
                        <use xlink:href="#rim" fill="#404040">
                                <set attributeName="fill" to="#808080" begin="zoomminus.mouseover" end="zoomminus.mouseout"/>
                        </use>
                        <path d="M-4,0h8" fill="none" stroke="white" stroke-width="1.5" pointer-events="none"/>
                </g>
                <g id="dirArrow">
                        <path fill="none" stroke="white" stroke-width="1.5" d="M0,-3.0v7 M-2.5,-0.5L0,-3.0L2.5,-0.5"/>
                </g>
               <g id="resetDef">
                       <use xlink:href="#rim2" fill="#404040">
                               <set attributeName="fill" to="#808080" begin="reset.mouseover" end="reset.mouseout"/>
                       </use>
               </g>
        </defs>

<script type="text/javascript">
var viewWidth = 466;
var viewHeight = 521;
var sectionId = 'dynsection-0';
</script>
<script xlink:href="svgpan.js"/>
<svg id="graph" class="graph">
<g id="viewport">
<title>Ra::Core::VectorArray&lt; V &gt;</title>
<polygon fill="#ffffff" stroke="transparent" points="-4,4 -4,-517 461.5,-517 461.5,4 -4,4"/>
<!-- Node0 -->
<g id="node1" class="node">
<title>Node0</title>
<polygon fill="#bfbfbf" stroke="#000000" points="130.5,-127.5 130.5,-195.5 280.5,-195.5 280.5,-127.5 130.5,-127.5"/>
<text text-anchor="middle" x="205.5" y="-183.5" font-family="Helvetica,sans-Serif" font-size="10.00" fill="#000000">Ra::Core::VectorArray&lt; V &gt;</text>
<polyline fill="none" stroke="#000000" points="130.5,-176.5 280.5,-176.5 "/>
<text text-anchor="middle" x="205.5" y="-164.5" font-family="Helvetica,sans-Serif" font-size="10.00" fill="#000000"> </text>
<polyline fill="none" stroke="#000000" points="130.5,-157.5 280.5,-157.5 "/>
<text text-anchor="start" x="138.5" y="-145.5" font-family="Helvetica,sans-Serif" font-size="10.00" fill="#000000">+ getMap()</text>
<text text-anchor="start" x="138.5" y="-134.5" font-family="Helvetica,sans-Serif" font-size="10.00" fill="#000000">+ getMap()</text>
</g>
<!-- Node5 -->
<g id="node6" class="node">
<title>Node5</title>
<g id="a_node6"><a xlink:href="classRa_1_1Core_1_1VectorArray.html" target="_top" xlink:title="{Ra::Core::VectorArray\l\&lt; Vector \&gt;\n||+ getMap()\l+ getMap()\l}">
<polygon fill="#ffffff" stroke="#000000" points="0,-.5 0,-79.5 121,-79.5 121,-.5 0,-.5"/>
<text text-anchor="start" x="8" y="-67.5" font-family="Helvetica,sans-Serif" font-size="10.00" fill="#000000">Ra::Core::VectorArray</text>
<text text-anchor="middle" x="60.5" y="-56.5" font-family="Helvetica,sans-Serif" font-size="10.00" fill="#000000">&lt; Vector &gt;</text>
<polyline fill="none" stroke="#000000" points="0,-49.5 121,-49.5 "/>
<text text-anchor="middle" x="60.5" y="-37.5" font-family="Helvetica,sans-Serif" font-size="10.00" fill="#000000"> </text>
<polyline fill="none" stroke="#000000" points="0,-30.5 121,-30.5 "/>
<text text-anchor="start" x="8" y="-18.5" font-family="Helvetica,sans-Serif" font-size="10.00" fill="#000000">+ getMap()</text>
<text text-anchor="start" x="8" y="-7.5" font-family="Helvetica,sans-Serif" font-size="10.00" fill="#000000">+ getMap()</text>
</a>
</g>
</g>
<!-- Node0&#45;&gt;Node5 -->
<g id="edge5" class="edge">
<title>Node0&#45;&gt;Node5</title>
<path fill="none" stroke="#ffa500" d="M156.6641,-120.5789C140.926,-107.3915 123.5169,-92.8038 107.8851,-79.7055"/>
<polygon fill="#ffa500" stroke="#ffa500" points="154.8107,-123.5922 164.7235,-127.3321 159.3066,-118.2268 154.8107,-123.5922"/>
<text text-anchor="middle" x="171" y="-101" font-family="Helvetica,sans-Serif" font-size="10.00" fill="#000000"> &lt; Vector &gt;</text>
</g>
<!-- Node6 -->
<g id="node7" class="node">
<title>Node6</title>
<g id="a_node7"><a xlink:href="classRa_1_1Core_1_1VectorArray.html" target="_top" xlink:title="{Ra::Core::VectorArray\l\&lt; Ra::Core::Vector3ui \&gt;\n||+ getMap()\l+ getMap()\l}">
<polygon fill="#ffffff" stroke="#000000" points="139.5,-.5 139.5,-79.5 271.5,-79.5 271.5,-.5 139.5,-.5"/>
<text text-anchor="start" x="147.5" y="-67.5" font-family="Helvetica,sans-Serif" font-size="10.00" fill="#000000">Ra::Core::VectorArray</text>
<text text-anchor="middle" x="205.5" y="-56.5" font-family="Helvetica,sans-Serif" font-size="10.00" fill="#000000">&lt; Ra::Core::Vector3ui &gt;</text>
<polyline fill="none" stroke="#000000" points="139.5,-49.5 271.5,-49.5 "/>
<text text-anchor="middle" x="205.5" y="-37.5" font-family="Helvetica,sans-Serif" font-size="10.00" fill="#000000"> </text>
<polyline fill="none" stroke="#000000" points="139.5,-30.5 271.5,-30.5 "/>
<text text-anchor="start" x="147.5" y="-18.5" font-family="Helvetica,sans-Serif" font-size="10.00" fill="#000000">+ getMap()</text>
<text text-anchor="start" x="147.5" y="-7.5" font-family="Helvetica,sans-Serif" font-size="10.00" fill="#000000">+ getMap()</text>
</a>
</g>
</g>
<!-- Node0&#45;&gt;Node6 -->
<g id="edge6" class="edge">
<title>Node0&#45;&gt;Node6</title>
<path fill="none" stroke="#ffa500" d="M205.5,-116.967C205.5,-104.8385 205.5,-91.7795 205.5,-79.9243"/>
<polygon fill="#ffa500" stroke="#ffa500" points="202.0001,-117.3321 205.5,-127.3321 209.0001,-117.3322 202.0001,-117.3321"/>
<text text-anchor="middle" x="265" y="-101" font-family="Helvetica,sans-Serif" font-size="10.00" fill="#000000"> &lt; Ra::Core::Vector3ui &gt;</text>
</g>
<!-- Node7 -->
<g id="node8" class="node">
<title>Node7</title>
<g id="a_node8"><a xlink:href="classRa_1_1Core_1_1VectorArray.html" target="_top" xlink:title="{Ra::Core::VectorArray\&lt; T \&gt;\n||+ getMap()\l+ getMap()\l}">
<polygon fill="#ffffff" stroke="#000000" points="290,-6 290,-74 439,-74 439,-6 290,-6"/>
<text text-anchor="middle" x="364.5" y="-62" font-family="Helvetica,sans-Serif" font-size="10.00" fill="#000000">Ra::Core::VectorArray&lt; T &gt;</text>
<polyline fill="none" stroke="#000000" points="290,-55 439,-55 "/>
<text text-anchor="middle" x="364.5" y="-43" font-family="Helvetica,sans-Serif" font-size="10.00" fill="#000000"> </text>
<polyline fill="none" stroke="#000000" points="290,-36 439,-36 "/>
<text text-anchor="start" x="298" y="-24" font-family="Helvetica,sans-Serif" font-size="10.00" fill="#000000">+ getMap()</text>
<text text-anchor="start" x="298" y="-13" font-family="Helvetica,sans-Serif" font-size="10.00" fill="#000000">+ getMap()</text>
</a>
</g>
</g>
<!-- Node0&#45;&gt;Node7 -->
<g id="edge7" class="edge">
<title>Node0&#45;&gt;Node7</title>
<path fill="none" stroke="#ffa500" d="M289.842,-134.7504C303.7843,-127.8417 317.3168,-119.3488 328.5,-109 338.7145,-99.5477 346.5372,-86.5318 352.2392,-74.35"/>
<polygon fill="#ffa500" stroke="#ffa500" points="288.209,-131.6503 280.6412,-139.0651 291.1812,-137.988 288.209,-131.6503"/>
<text text-anchor="middle" x="353.5" y="-101" font-family="Helvetica,sans-Serif" font-size="10.00" fill="#000000"> &lt; T &gt;</text>
</g>
<!-- Node1 -->
<g id="node2" class="node">
<title>Node1</title>
<g id="a_node2"><a xlink:href="structRa_1_1Core_1_1AlignedStdVector.html" target="_top" xlink:title="{Ra::Core::AlignedStdVector\&lt; V \&gt;\n||}">
<polygon fill="#ffffff" stroke="#000000" points="117.5,-233.5 117.5,-290.5 293.5,-290.5 293.5,-233.5 117.5,-233.5"/>
<text text-anchor="middle" x="205.5" y="-278.5" font-family="Helvetica,sans-Serif" font-size="10.00" fill="#000000">Ra::Core::AlignedStdVector&lt; V &gt;</text>
<polyline fill="none" stroke="#000000" points="117.5,-271.5 293.5,-271.5 "/>
<text text-anchor="middle" x="205.5" y="-259.5" font-family="Helvetica,sans-Serif" font-size="10.00" fill="#000000"> </text>
<polyline fill="none" stroke="#000000" points="117.5,-252.5 293.5,-252.5 "/>
<text text-anchor="middle" x="205.5" y="-240.5" font-family="Helvetica,sans-Serif" font-size="10.00" fill="#000000"> </text>
</a>
</g>
</g>
<!-- Node1&#45;&gt;Node0 -->
<g id="edge1" class="edge">
<title>Node1&#45;&gt;Node0</title>
<path fill="none" stroke="#191970" d="M205.5,-223.1903C205.5,-214.1667 205.5,-204.6233 205.5,-195.8097"/>
<polygon fill="none" stroke="#191970" points="202.0001,-223.4695 205.5,-233.4696 209.0001,-223.4696 202.0001,-223.4695"/>
</g>
<!-- Node2 -->
<g id="node3" class="node">
<title>Node2</title>
<g id="a_node3"><a xlink:title="STL class. ">
<polygon fill="#ffffff" stroke="#bfbfbf" points="116,-338.5 116,-406.5 263,-406.5 263,-338.5 116,-338.5"/>
<text text-anchor="start" x="124" y="-394.5" font-family="Helvetica,sans-Serif" font-size="10.00" fill="#000000">std::vector&lt; V, Eigen</text>
<text text-anchor="middle" x="189.5" y="-383.5" font-family="Helvetica,sans-Serif" font-size="10.00" fill="#000000">::aligned_allocator&lt; V &gt; &gt;</text>
<polyline fill="none" stroke="#bfbfbf" points="116,-376.5 263,-376.5 "/>
<text text-anchor="start" x="124" y="-364.5" font-family="Helvetica,sans-Serif" font-size="10.00" fill="#000000">+ elements</text>
<polyline fill="none" stroke="#bfbfbf" points="116,-357.5 263,-357.5 "/>
<text text-anchor="middle" x="189.5" y="-345.5" font-family="Helvetica,sans-Serif" font-size="10.00" fill="#000000"> </text>
</a>
</g>
</g>
<!-- Node2&#45;&gt;Node1 -->
<g id="edge2" class="edge">
<title>Node2&#45;&gt;Node1</title>
<path fill="none" stroke="#191970" d="M195.879,-328.4453C197.7264,-315.6862 199.6943,-302.0955 201.3658,-290.5519"/>
<polygon fill="none" stroke="#191970" points="192.4003,-328.0463 194.4311,-338.4447 199.3281,-329.0495 192.4003,-328.0463"/>
</g>
<!-- Node3 -->
<g id="node4" class="node">
<title>Node3</title>
<g id="a_node4"><a xlink:href="structRa_1_1Core_1_1AlignedStdVector.html" target="_top" xlink:title="{Ra::Core::AlignedStdVector\&lt; T \&gt;\n||}">
<polygon fill="#ffffff" stroke="#000000" points="281.5,-344 281.5,-401 457.5,-401 457.5,-344 281.5,-344"/>
<text text-anchor="middle" x="369.5" y="-389" font-family="Helvetica,sans-Serif" font-size="10.00" fill="#000000">Ra::Core::AlignedStdVector&lt; T &gt;</text>
<polyline fill="none" stroke="#000000" points="281.5,-382 457.5,-382 "/>
<text text-anchor="middle" x="369.5" y="-370" font-family="Helvetica,sans-Serif" font-size="10.00" fill="#000000"> </text>
<polyline fill="none" stroke="#000000" points="281.5,-363 457.5,-363 "/>
<text text-anchor="middle" x="369.5" y="-351" font-family="Helvetica,sans-Serif" font-size="10.00" fill="#000000"> </text>
</a>
</g>
</g>
<!-- Node3&#45;&gt;Node1 -->
<g id="edge3" class="edge">
<title>Node3&#45;&gt;Node1</title>
<path fill="none" stroke="#ffa500" d="M318.3673,-338.0478C295.7481,-322.8074 269.4598,-305.0949 247.9474,-290.6002"/>
<polygon fill="#ffa500" stroke="#ffa500" points="316.5901,-341.0707 326.8391,-343.7559 320.5016,-335.2654 316.5901,-341.0707"/>
<text text-anchor="middle" x="304" y="-312" font-family="Helvetica,sans-Serif" font-size="10.00" fill="#000000"> &lt; V &gt;</text>
</g>
<!-- Node4 -->
<g id="node5" class="node">
<title>Node4</title>
<g id="a_node5"><a xlink:title="STL class. ">
<polygon fill="#ffffff" stroke="#bfbfbf" points="296.5,-444.5 296.5,-512.5 442.5,-512.5 442.5,-444.5 296.5,-444.5"/>
<text text-anchor="start" x="304.5" y="-500.5" font-family="Helvetica,sans-Serif" font-size="10.00" fill="#000000">std::vector&lt; T, Eigen</text>
<text text-anchor="middle" x="369.5" y="-489.5" font-family="Helvetica,sans-Serif" font-size="10.00" fill="#000000">::aligned_allocator&lt; T &gt; &gt;</text>
<polyline fill="none" stroke="#bfbfbf" points="296.5,-482.5 442.5,-482.5 "/>
<text text-anchor="start" x="304.5" y="-470.5" font-family="Helvetica,sans-Serif" font-size="10.00" fill="#000000">+ elements</text>
<polyline fill="none" stroke="#bfbfbf" points="296.5,-463.5 442.5,-463.5 "/>
<text text-anchor="middle" x="369.5" y="-451.5" font-family="Helvetica,sans-Serif" font-size="10.00" fill="#000000"> </text>
</a>
</g>
</g>
<!-- Node4&#45;&gt;Node3 -->
<g id="edge4" class="edge">
<title>Node4&#45;&gt;Node3</title>
<path fill="none" stroke="#191970" d="M369.5,-434.3199C369.5,-423.1388 369.5,-411.4189 369.5,-401.2266"/>
<polygon fill="none" stroke="#191970" points="366.0001,-434.3774 369.5,-444.3775 373.0001,-434.3775 366.0001,-434.3774"/>
</g>
</g>
</svg>
        <g id="navigator" transform="translate(0 0)" fill="#404254">
                <rect fill="#f2f5e9" fill-opacity="0.5" stroke="#606060" stroke-width=".5" x="0" y="0" width="60" height="60"/>
                <use id="zoomplus" xlink:href="#zoomPlus" x="17" y="9" onmousedown="handleZoom(evt,'in')"/>
                <use id="zoomminus" xlink:href="#zoomMin" x="42" y="9" onmousedown="handleZoom(evt,'out')"/>
                <use id="reset" xlink:href="#resetDef" x="30" y="36" onmousedown="handleReset()"/>
                <g id="arrowUp" xlink:href="#dirArrow" transform="translate(30 24)" onmousedown="handlePan(0,-1)">
                  <use xlink:href="#rim" fill="#404040">
                        <set attributeName="fill" to="#808080" begin="arrowUp.mouseover" end="arrowUp.mouseout"/>
                  </use>
                  <path fill="none" stroke="white" stroke-width="1.5" d="M0,-3.0v7 M-2.5,-0.5L0,-3.0L2.5,-0.5"/>
                </g>
                <g id="arrowRight" xlink:href="#dirArrow" transform="rotate(90) translate(36 -43)" onmousedown="handlePan(1,0)">
                  <use xlink:href="#rim" fill="#404040">
                        <set attributeName="fill" to="#808080" begin="arrowRight.mouseover" end="arrowRight.mouseout"/>
                  </use>
                  <path fill="none" stroke="white" stroke-width="1.5" d="M0,-3.0v7 M-2.5,-0.5L0,-3.0L2.5,-0.5"/>
                </g>
                <g id="arrowDown" xlink:href="#dirArrow" transform="rotate(180) translate(-30 -48)" onmousedown="handlePan(0,1)">
                  <use xlink:href="#rim" fill="#404040">
                        <set attributeName="fill" to="#808080" begin="arrowDown.mouseover" end="arrowDown.mouseout"/>
                  </use>
                  <path fill="none" stroke="white" stroke-width="1.5" d="M0,-3.0v7 M-2.5,-0.5L0,-3.0L2.5,-0.5"/>
                </g>
                <g id="arrowLeft" xlink:href="#dirArrow" transform="rotate(270) translate(-36 17)" onmousedown="handlePan(-1,0)">
                  <use xlink:href="#rim" fill="#404040">
                        <set attributeName="fill" to="#808080" begin="arrowLeft.mouseover" end="arrowLeft.mouseout"/>
                  </use>
                  <path fill="none" stroke="white" stroke-width="1.5" d="M0,-3.0v7 M-2.5,-0.5L0,-3.0L2.5,-0.5"/>
                </g>
        </g>
        <svg viewBox="0 0 15 15" width="100%" height="30px" preserveAspectRatio="xMaxYMin meet">
         <g id="arrow_out" transform="scale(0.3 0.3)">
          <a xlink:href="classRa_1_1Core_1_1VectorArray__inherit__graph_org.svg" target="_base">
           <rect id="button" ry="5" rx="5" y="6" x="6" height="38" width="38"
                fill="#f2f5e9" fill-opacity="0.5" stroke="#606060" stroke-width="1.0"/>
           <path id="arrow"
             d="M 11.500037,31.436501 C 11.940474,20.09759 22.043105,11.32322 32.158766,21.979434 L 37.068811,17.246167 C 37.068811,17.246167 37.088388,32 37.088388,32 L 22.160133,31.978069 C 22.160133,31.978069 26.997745,27.140456 26.997745,27.140456 C 18.528582,18.264221 13.291696,25.230495 11.500037,31.436501 z"
             style="fill:#404040;"/>
          </a>
         </g>
        </svg>
</svg>
