<?xml version="1.0" encoding="UTF-8" standalone="no"?>
<!DOCTYPE svg PUBLIC "-//W3C//DTD SVG 1.1//EN"
 "http://www.w3.org/Graphics/SVG/1.1/DTD/svg11.dtd">
<!-- Generated by graphviz version 2.40.1 (20161225.0304)
 -->
<!-- Title: Ra::Core::Geometry::CatmullClarkSubdivider::subdivide Pages: 1 -->
<!--zoomable 889 -->
<svg id="main" version="1.1" xmlns="http://www.w3.org/2000/svg" xmlns:xlink="http://www.w3.org/1999/xlink" xml:space="preserve" onload="init(evt)">
<style type="text/css"><![CDATA[
.edge:hover path { stroke: red; }
.edge:hover polygon { stroke: red; fill: red; }
]]></style>
<script type="text/javascript"><![CDATA[
var edges = document.getElementsByTagName('g');
if (edges && edges.length) {
  for (var i=0;i<edges.length;i++) {
    if (edges[i].id.substr(0,4)=='edge') {
      edges[i].setAttribute('class','edge');
    }
  }
}
]]></script>
        <defs>
                <circle id="rim" cx="0" cy="0" r="7"/>
                <circle id="rim2" cx="0" cy="0" r="3.5"/>
                <g id="zoomPlus">
                        <use xlink:href="#rim" fill="#404040">
                                <set attributeName="fill" to="#808080" begin="zoomplus.mouseover" end="zoomplus.mouseout"/>
                        </use>
                        <path d="M-4,0h8M0,-4v8" fill="none" stroke="white" stroke-width="1.5" pointer-events="none"/>
                </g>
                <g id="zoomMin">
                        <use xlink:href="#rim" fill="#404040">
                                <set attributeName="fill" to="#808080" begin="zoomminus.mouseover" end="zoomminus.mouseout"/>
                        </use>
                        <path d="M-4,0h8" fill="none" stroke="white" stroke-width="1.5" pointer-events="none"/>
                </g>
                <g id="dirArrow">
                        <path fill="none" stroke="white" stroke-width="1.5" d="M0,-3.0v7 M-2.5,-0.5L0,-3.0L2.5,-0.5"/>
                </g>
               <g id="resetDef">
                       <use xlink:href="#rim2" fill="#404040">
                               <set attributeName="fill" to="#808080" begin="reset.mouseover" end="reset.mouseout"/>
                       </use>
               </g>
        </defs>

<script type="text/javascript">
var viewWidth = 1287;
var viewHeight = 889;
var sectionId = 'dynsection-6';
</script>
<script xlink:href="svgpan.js"/>
<svg id="graph" class="graph">
<g id="viewport">
<title>Ra::Core::Geometry::CatmullClarkSubdivider::subdivide</title>
<polygon fill="#ffffff" stroke="transparent" points="-4,4 -4,-884.5 1283,-884.5 1283,4 -4,4"/>
<!-- Node22 -->
<g id="node1" class="node">
<title>Node22</title>
<polygon fill="#bfbfbf" stroke="#000000" points="0,-369.5 0,-410.5 138,-410.5 138,-369.5 0,-369.5"/>
<text text-anchor="start" x="8" y="-398.5" font-family="Helvetica,sans-Serif" font-size="10.00" fill="#000000">Ra::Core::Geometry</text>
<text text-anchor="start" x="8" y="-387.5" font-family="Helvetica,sans-Serif" font-size="10.00" fill="#000000">::CatmullClarkSubdivider</text>
<text text-anchor="middle" x="69" y="-376.5" font-family="Helvetica,sans-Serif" font-size="10.00" fill="#000000">::subdivide</text>
</g>
<!-- Node23 -->
<g id="node2" class="node">
<title>Node23</title>
<g id="a_node2"><a xlink:href="namespaceRa_1_1Engine_1_1DrawPrimitives.html#afd38c03569ecb100b4f5f5036ce84e17" target="_top" xlink:title="Displays given point shown as the crossing of 3 lines of length &#39;scale&#39;. ">
<polygon fill="#ffffff" stroke="#000000" points="180.5,-767 180.5,-797 329.5,-797 329.5,-767 180.5,-767"/>
<text text-anchor="start" x="188.5" y="-785" font-family="Helvetica,sans-Serif" font-size="10.00" fill="#000000">Ra::Engine::DrawPrimitives</text>
<text text-anchor="middle" x="255" y="-774" font-family="Helvetica,sans-Serif" font-size="10.00" fill="#000000">::Point</text>
</a>
</g>
</g>
<!-- Node22&#45;&gt;Node23 -->
<g id="edge1" class="edge">
<title>Node22&#45;&gt;Node23</title>
<path fill="none" stroke="#191970" d="M71.0169,-410.7319C77.3072,-466.2757 100.7493,-621.1198 174,-723 185.1217,-738.4685 201.55,-751.4992 216.71,-761.3473"/>
<polygon fill="#191970" stroke="#191970" points="215.0987,-764.4667 225.4396,-766.7723 218.7935,-758.5212 215.0987,-764.4667"/>
</g>
<!-- Node35 -->
<g id="node14" class="node">
<title>Node35</title>
<g id="a_node14"><a xlink:href="classRa_1_1Core_1_1Geometry_1_1TopologicalMesh.html#afaacfdb6d79a9ccac45b78eba989d41d" target="_top" xlink:title="Ra::Core::Geometry\l::TopologicalMesh::halfedge\l_handle">
<polygon fill="#ffffff" stroke="#000000" points="580.5,-639.5 580.5,-680.5 732.5,-680.5 732.5,-639.5 580.5,-639.5"/>
<text text-anchor="start" x="588.5" y="-668.5" font-family="Helvetica,sans-Serif" font-size="10.00" fill="#000000">Ra::Core::Geometry</text>
<text text-anchor="start" x="588.5" y="-657.5" font-family="Helvetica,sans-Serif" font-size="10.00" fill="#000000">::TopologicalMesh::halfedge</text>
<text text-anchor="middle" x="656.5" y="-646.5" font-family="Helvetica,sans-Serif" font-size="10.00" fill="#000000">_handle</text>
</a>
</g>
</g>
<!-- Node22&#45;&gt;Node35 -->
<g id="edge14" class="edge">
<title>Node22&#45;&gt;Node35</title>
<path fill="none" stroke="#191970" d="M81.4205,-410.672C117.5058,-468.4349 228.9154,-631.149 372,-690 443.6835,-719.4836 533.6977,-701.8708 593.0531,-683.626"/>
<polygon fill="#191970" stroke="#191970" points="594.1951,-686.9358 602.6726,-680.5811 592.0826,-680.2622 594.1951,-686.9358"/>
</g>
<!-- Node36 -->
<g id="node15" class="node">
<title>Node36</title>
<g id="a_node15"><a xlink:href="classRa_1_1Core_1_1Geometry_1_1TopologicalMesh.html#af1f2bcbd11cf5e5a891ecde4345d51d9" target="_top" xlink:title="Ra::Core::Geometry\l::TopologicalMesh::interpolate\lAllPropsOnFaces">
<polygon fill="#ffffff" stroke="#000000" points="174,-399.5 174,-440.5 336,-440.5 336,-399.5 174,-399.5"/>
<text text-anchor="start" x="182" y="-428.5" font-family="Helvetica,sans-Serif" font-size="10.00" fill="#000000">Ra::Core::Geometry</text>
<text text-anchor="start" x="182" y="-417.5" font-family="Helvetica,sans-Serif" font-size="10.00" fill="#000000">::TopologicalMesh::interpolate</text>
<text text-anchor="middle" x="255" y="-406.5" font-family="Helvetica,sans-Serif" font-size="10.00" fill="#000000">AllPropsOnFaces</text>
</a>
</g>
</g>
<!-- Node22&#45;&gt;Node36 -->
<g id="edge15" class="edge">
<title>Node22&#45;&gt;Node36</title>
<path fill="none" stroke="#191970" d="M138.2595,-401.1709C146.5741,-402.5119 155.1599,-403.8968 163.7262,-405.2784"/>
<polygon fill="#191970" stroke="#191970" points="163.3262,-408.7591 173.7559,-406.8961 164.4408,-401.8484 163.3262,-408.7591"/>
</g>
<!-- Node43 -->
<g id="node22" class="node">
<title>Node43</title>
<g id="a_node22"><a xlink:href="classRa_1_1Core_1_1Geometry_1_1TopologicalMesh.html#aa27554cabc24f8da953e7c23a8a5a274" target="_top" xlink:title="Ra::Core::Geometry\l::TopologicalMesh::copyAll\lProps">
<polygon fill="#ffffff" stroke="#000000" points="182.5,-279.5 182.5,-320.5 327.5,-320.5 327.5,-279.5 182.5,-279.5"/>
<text text-anchor="start" x="190.5" y="-308.5" font-family="Helvetica,sans-Serif" font-size="10.00" fill="#000000">Ra::Core::Geometry</text>
<text text-anchor="start" x="190.5" y="-297.5" font-family="Helvetica,sans-Serif" font-size="10.00" fill="#000000">::TopologicalMesh::copyAll</text>
<text text-anchor="middle" x="255" y="-286.5" font-family="Helvetica,sans-Serif" font-size="10.00" fill="#000000">Props</text>
</a>
</g>
</g>
<!-- Node22&#45;&gt;Node43 -->
<g id="edge24" class="edge">
<title>Node22&#45;&gt;Node43</title>
<path fill="none" stroke="#191970" d="M101.8303,-369.379C122.1689,-357.0771 149.0798,-341.6385 174,-330 178.0847,-328.0923 182.327,-326.219 186.6336,-324.3983"/>
<polygon fill="#191970" stroke="#191970" points="188.2047,-327.5369 196.1282,-320.5034 185.548,-321.0606 188.2047,-327.5369"/>
</g>
<!-- Node46 -->
<g id="node25" class="node">
<title>Node46</title>
<g id="a_node25"><a xlink:href="classRa_1_1Core_1_1Geometry_1_1TopologicalMesh.html#aa0720a65ecd0ae4909a2628e9dddf41f" target="_top" xlink:title="Ra::Core::Geometry\l::TopologicalMesh::copyAll\lPropsFromFace">
<polygon fill="#ffffff" stroke="#000000" points="182.5,-219.5 182.5,-260.5 327.5,-260.5 327.5,-219.5 182.5,-219.5"/>
<text text-anchor="start" x="190.5" y="-248.5" font-family="Helvetica,sans-Serif" font-size="10.00" fill="#000000">Ra::Core::Geometry</text>
<text text-anchor="start" x="190.5" y="-237.5" font-family="Helvetica,sans-Serif" font-size="10.00" fill="#000000">::TopologicalMesh::copyAll</text>
<text text-anchor="middle" x="255" y="-226.5" font-family="Helvetica,sans-Serif" font-size="10.00" fill="#000000">PropsFromFace</text>
</a>
</g>
</g>
<!-- Node22&#45;&gt;Node46 -->
<g id="edge31" class="edge">
<title>Node22&#45;&gt;Node46</title>
<path fill="none" stroke="#191970" d="M82.2091,-369.3636C100.0831,-342.9453 134.3363,-297.3301 174,-270 176.3732,-268.3647 178.8466,-266.8059 181.3918,-265.3213"/>
<polygon fill="#191970" stroke="#191970" points="183.1208,-268.3657 190.2805,-260.5562 179.8134,-262.1963 183.1208,-268.3657"/>
</g>
<!-- Node49 -->
<g id="node28" class="node">
<title>Node49</title>
<g id="a_node28"><a xlink:href="classRa_1_1Core_1_1Geometry_1_1TopologicalMesh.html#a05fb96e24dd1bf49ff309e251e426572" target="_top" xlink:title="Ra::Core::Geometry\l::TopologicalMesh::interpolate\lAllProps">
<polygon fill="#ffffff" stroke="#000000" points="174,-339.5 174,-380.5 336,-380.5 336,-339.5 174,-339.5"/>
<text text-anchor="start" x="182" y="-368.5" font-family="Helvetica,sans-Serif" font-size="10.00" fill="#000000">Ra::Core::Geometry</text>
<text text-anchor="start" x="182" y="-357.5" font-family="Helvetica,sans-Serif" font-size="10.00" fill="#000000">::TopologicalMesh::interpolate</text>
<text text-anchor="middle" x="255" y="-346.5" font-family="Helvetica,sans-Serif" font-size="10.00" fill="#000000">AllProps</text>
</a>
</g>
</g>
<!-- Node22&#45;&gt;Node49 -->
<g id="edge38" class="edge">
<title>Node22&#45;&gt;Node49</title>
<path fill="none" stroke="#191970" d="M138.2595,-378.8291C146.5741,-377.4881 155.1599,-376.1032 163.7262,-374.7216"/>
<polygon fill="#191970" stroke="#191970" points="164.4408,-378.1516 173.7559,-373.1039 163.3262,-371.2409 164.4408,-378.1516"/>
</g>
<!-- Node24 -->
<g id="node3" class="node">
<title>Node24</title>
<g id="a_node3"><a xlink:href="classRa_1_1Core_1_1Geometry_1_1AttribArrayGeometry.html#a887411177386edbcdc35d0c6bf78a83a" target="_top" xlink:title="Set vertices. ">
<polygon fill="#ffffff" stroke="#000000" points="393.5,-835.5 393.5,-876.5 518.5,-876.5 518.5,-835.5 393.5,-835.5"/>
<text text-anchor="start" x="401.5" y="-864.5" font-family="Helvetica,sans-Serif" font-size="10.00" fill="#000000">Ra::Core::Geometry</text>
<text text-anchor="start" x="401.5" y="-853.5" font-family="Helvetica,sans-Serif" font-size="10.00" fill="#000000">::AttribArrayGeometry</text>
<text text-anchor="middle" x="456" y="-842.5" font-family="Helvetica,sans-Serif" font-size="10.00" fill="#000000">::setVertices</text>
</a>
</g>
</g>
<!-- Node23&#45;&gt;Node24 -->
<g id="edge2" class="edge">
<title>Node23&#45;&gt;Node24</title>
<path fill="none" stroke="#191970" d="M296.1604,-797.1536C323.3269,-807.1552 359.5061,-820.4749 390.5727,-831.9123"/>
<polygon fill="#191970" stroke="#191970" points="389.4408,-835.2252 400.0343,-835.3957 391.8593,-828.6563 389.4408,-835.2252"/>
</g>
<!-- Node26 -->
<g id="node5" class="node">
<title>Node26</title>
<g id="a_node5"><a xlink:href="classRa_1_1Core_1_1Geometry_1_1AttribArrayGeometry.html#acabe05880d71a8dc4406964c258fff5a" target="_top" xlink:title="Access the vertices positions. ">
<polygon fill="#ffffff" stroke="#000000" points="594,-789.5 594,-830.5 719,-830.5 719,-789.5 594,-789.5"/>
<text text-anchor="start" x="602" y="-818.5" font-family="Helvetica,sans-Serif" font-size="10.00" fill="#000000">Ra::Core::Geometry</text>
<text text-anchor="start" x="602" y="-807.5" font-family="Helvetica,sans-Serif" font-size="10.00" fill="#000000">::AttribArrayGeometry</text>
<text text-anchor="middle" x="656.5" y="-796.5" font-family="Helvetica,sans-Serif" font-size="10.00" fill="#000000">::vertices</text>
</a>
</g>
</g>
<!-- Node23&#45;&gt;Node26 -->
<g id="edge13" class="edge">
<title>Node23&#45;&gt;Node26</title>
<path fill="none" stroke="#191970" d="M329.5781,-787.201C402.096,-792.2583 511.5538,-799.8917 583.5221,-804.9106"/>
<polygon fill="#191970" stroke="#191970" points="583.6402,-808.4273 593.8595,-805.6315 584.1273,-801.4442 583.6402,-808.4273"/>
</g>
<!-- Node28 -->
<g id="node7" class="node">
<title>Node28</title>
<g id="a_node7"><a xlink:href="classRa_1_1Core_1_1Geometry_1_1AttribArrayGeometry.html#ae1956b0396dadd84f55a12f2160e5671" target="_top" xlink:title="Ra::Core::Geometry\l::AttribArrayGeometry\l::addAttrib">
<polygon fill="#ffffff" stroke="#000000" points="393.5,-737.5 393.5,-778.5 518.5,-778.5 518.5,-737.5 393.5,-737.5"/>
<text text-anchor="start" x="401.5" y="-766.5" font-family="Helvetica,sans-Serif" font-size="10.00" fill="#000000">Ra::Core::Geometry</text>
<text text-anchor="start" x="401.5" y="-755.5" font-family="Helvetica,sans-Serif" font-size="10.00" fill="#000000">::AttribArrayGeometry</text>
<text text-anchor="middle" x="456" y="-744.5" font-family="Helvetica,sans-Serif" font-size="10.00" fill="#000000">::addAttrib</text>
</a>
</g>
</g>
<!-- Node23&#45;&gt;Node28 -->
<g id="edge6" class="edge">
<title>Node23&#45;&gt;Node28</title>
<path fill="none" stroke="#191970" d="M329.5593,-773.0974C347.1174,-771.0009 365.8095,-768.769 383.2851,-766.6824"/>
<polygon fill="#191970" stroke="#191970" points="383.9016,-770.1337 393.4161,-765.4727 383.0716,-763.1831 383.9016,-770.1337"/>
</g>
<!-- Node25 -->
<g id="node4" class="node">
<title>Node25</title>
<g id="a_node4"><a xlink:href="classRa_1_1Core_1_1Utils_1_1AttribManager.html#a056b7697cfbedd6b20dde6ce7955094e" target="_top" xlink:title="Ra::Core::Utils::AttribManager\l::setAttrib">
<polygon fill="#ffffff" stroke="#000000" points="576,-850 576,-880 737,-880 737,-850 576,-850"/>
<text text-anchor="start" x="584" y="-868" font-family="Helvetica,sans-Serif" font-size="10.00" fill="#000000">Ra::Core::Utils::AttribManager</text>
<text text-anchor="middle" x="656.5" y="-857" font-family="Helvetica,sans-Serif" font-size="10.00" fill="#000000">::setAttrib</text>
</a>
</g>
</g>
<!-- Node24&#45;&gt;Node25 -->
<g id="edge3" class="edge">
<title>Node24&#45;&gt;Node25</title>
<path fill="none" stroke="#191970" d="M518.6147,-858.8106C533.5069,-859.4791 549.6952,-860.2058 565.5692,-860.9183"/>
<polygon fill="#191970" stroke="#191970" points="565.7916,-864.4317 575.9386,-861.3838 566.1056,-857.4388 565.7916,-864.4317"/>
</g>
<!-- Node24&#45;&gt;Node26 -->
<g id="edge4" class="edge">
<title>Node24&#45;&gt;Node26</title>
<path fill="none" stroke="#191970" d="M518.6147,-841.6345C539.2465,-836.901 562.3662,-831.5968 583.6911,-826.7043"/>
<polygon fill="#191970" stroke="#191970" points="584.7067,-830.0623 593.6708,-824.4147 583.1413,-823.2396 584.7067,-830.0623"/>
</g>
<!-- Node27 -->
<g id="node6" class="node">
<title>Node27</title>
<g id="a_node6"><a xlink:href="classRa_1_1Core_1_1Utils_1_1AttribManager.html#ae0cb7281ec72606a5392602b4ea50d2c" target="_top" xlink:title="Ra::Core::Utils::AttribManager\l::getAttrib">
<polygon fill="#ffffff" stroke="#000000" points="773,-795 773,-825 934,-825 934,-795 773,-795"/>
<text text-anchor="start" x="781" y="-813" font-family="Helvetica,sans-Serif" font-size="10.00" fill="#000000">Ra::Core::Utils::AttribManager</text>
<text text-anchor="middle" x="853.5" y="-802" font-family="Helvetica,sans-Serif" font-size="10.00" fill="#000000">::getAttrib</text>
</a>
</g>
</g>
<!-- Node26&#45;&gt;Node27 -->
<g id="edge5" class="edge">
<title>Node26&#45;&gt;Node27</title>
<path fill="none" stroke="#191970" d="M719.1027,-810C732.9253,-810 747.8405,-810 762.5309,-810"/>
<polygon fill="#191970" stroke="#191970" points="762.6492,-813.5001 772.6492,-810 762.6491,-806.5001 762.6492,-813.5001"/>
</g>
<!-- Node29 -->
<g id="node8" class="node">
<title>Node29</title>
<g id="a_node8"><a xlink:href="classRa_1_1Core_1_1Utils_1_1AttribManager.html#ac2d3cdc360ffe1904a15ff8504de95b8" target="_top" xlink:title="Ra::Core::Utils::AttribManager\l::addAttrib">
<polygon fill="#ffffff" stroke="#000000" points="576,-740 576,-770 737,-770 737,-740 576,-740"/>
<text text-anchor="start" x="584" y="-758" font-family="Helvetica,sans-Serif" font-size="10.00" fill="#000000">Ra::Core::Utils::AttribManager</text>
<text text-anchor="middle" x="656.5" y="-747" font-family="Helvetica,sans-Serif" font-size="10.00" fill="#000000">::addAttrib</text>
</a>
</g>
</g>
<!-- Node28&#45;&gt;Node29 -->
<g id="edge7" class="edge">
<title>Node28&#45;&gt;Node29</title>
<path fill="none" stroke="#191970" d="M518.6147,-757.0631C533.5069,-756.8403 549.6952,-756.5981 565.5692,-756.3606"/>
<polygon fill="#191970" stroke="#191970" points="565.9921,-759.8547 575.9386,-756.2054 565.8873,-752.8555 565.9921,-759.8547"/>
</g>
<!-- Node30 -->
<g id="node9" class="node">
<title>Node30</title>
<g id="a_node9"><a xlink:href="classRa_1_1Core_1_1Utils_1_1AttribManager.html#ae61e2c70f407d49d854ee4b98a39121f" target="_top" xlink:title="Return true if h correspond to an existing attribute in *this. ">
<polygon fill="#ffffff" stroke="#000000" points="773,-743 773,-773 934,-773 934,-743 773,-743"/>
<text text-anchor="start" x="781" y="-761" font-family="Helvetica,sans-Serif" font-size="10.00" fill="#000000">Ra::Core::Utils::AttribManager</text>
<text text-anchor="middle" x="853.5" y="-750" font-family="Helvetica,sans-Serif" font-size="10.00" fill="#000000">::isValid</text>
</a>
</g>
</g>
<!-- Node29&#45;&gt;Node30 -->
<g id="edge8" class="edge">
<title>Node29&#45;&gt;Node30</title>
<path fill="none" stroke="#191970" d="M737.1959,-756.2289C745.6733,-756.358 754.3327,-756.4898 762.9115,-756.6205"/>
<polygon fill="#191970" stroke="#191970" points="762.8775,-760.1203 772.9296,-756.773 762.9841,-753.1211 762.8775,-760.1203"/>
</g>
<!-- Node34 -->
<g id="node13" class="node">
<title>Node34</title>
<g id="a_node13"><a xlink:href="classRa_1_1Core_1_1Utils_1_1Observable.html#a7e5fe761726d56a51f95192eb6555f8f" target="_top" xlink:title="Notify (i.e. call) each attached observer with argument p. ">
<polygon fill="#ffffff" stroke="#000000" points="774,-694 774,-724 933,-724 933,-694 774,-694"/>
<text text-anchor="start" x="782" y="-712" font-family="Helvetica,sans-Serif" font-size="10.00" fill="#000000">Ra::Core::Utils::Observable</text>
<text text-anchor="middle" x="853.5" y="-701" font-family="Helvetica,sans-Serif" font-size="10.00" fill="#000000">&lt; const std::string &amp;&gt;::notify</text>
</a>
</g>
</g>
<!-- Node29&#45;&gt;Node34 -->
<g id="edge12" class="edge">
<title>Node29&#45;&gt;Node34</title>
<path fill="none" stroke="#191970" d="M721.0052,-739.9379C739.6388,-735.5869 760.1225,-730.8039 779.2961,-726.3268"/>
<polygon fill="#191970" stroke="#191970" points="780.2444,-729.6996 789.1865,-724.0174 778.6526,-722.883 780.2444,-729.6996"/>
</g>
<!-- Node31 -->
<g id="node10" class="node">
<title>Node31</title>
<g id="a_node10"><a xlink:href="classRa_1_1Core_1_1Utils_1_1AttribHandle.html#a17afbd6718234d480c05258369bdfde9" target="_top" xlink:title="Ra::Core::Utils::AttribHandle\l::attribName">
<polygon fill="#ffffff" stroke="#000000" points="970,-767 970,-797 1124,-797 1124,-767 970,-767"/>
<text text-anchor="start" x="978" y="-785" font-family="Helvetica,sans-Serif" font-size="10.00" fill="#000000">Ra::Core::Utils::AttribHandle</text>
<text text-anchor="middle" x="1047" y="-774" font-family="Helvetica,sans-Serif" font-size="10.00" fill="#000000">::attribName</text>
</a>
</g>
</g>
<!-- Node30&#45;&gt;Node31 -->
<g id="edge9" class="edge">
<title>Node30&#45;&gt;Node31</title>
<path fill="none" stroke="#191970" d="M934.1603,-768.0044C942.6571,-769.0582 951.3244,-770.1333 959.8898,-771.1956"/>
<polygon fill="#191970" stroke="#191970" points="959.527,-774.6774 969.8818,-772.435 960.3887,-767.7306 959.527,-774.6774"/>
</g>
<!-- Node32 -->
<g id="node11" class="node">
<title>Node32</title>
<g id="a_node11"><a xlink:href="classRa_1_1Core_1_1Utils_1_1Index.html#a771f93efd49538950e3cb9e57e46fbaf" target="_top" xlink:title="Ra::Core::Utils::Index\l::Invalid">
<polygon fill="#ffffff" stroke="#000000" points="987.5,-718 987.5,-748 1106.5,-748 1106.5,-718 987.5,-718"/>
<text text-anchor="start" x="995.5" y="-736" font-family="Helvetica,sans-Serif" font-size="10.00" fill="#000000">Ra::Core::Utils::Index</text>
<text text-anchor="middle" x="1047" y="-725" font-family="Helvetica,sans-Serif" font-size="10.00" fill="#000000">::Invalid</text>
</a>
</g>
</g>
<!-- Node30&#45;&gt;Node32 -->
<g id="edge10" class="edge">
<title>Node30&#45;&gt;Node32</title>
<path fill="none" stroke="#191970" d="M934.1603,-747.5788C948.5129,-745.7244 963.3516,-743.8073 977.3648,-741.9968"/>
<polygon fill="#191970" stroke="#191970" points="977.9348,-745.4523 987.4039,-740.6998 977.0378,-738.51 977.9348,-745.4523"/>
</g>
<!-- Node33 -->
<g id="node12" class="node">
<title>Node33</title>
<g id="a_node12"><a xlink:href="classRa_1_1Core_1_1Utils_1_1Index.html#ab3376097b792b1ac2068c6da1cb6c8e4" target="_top" xlink:title="CONSTRUCTOR. ">
<polygon fill="#ffffff" stroke="#000000" points="1160,-718 1160,-748 1279,-748 1279,-718 1160,-718"/>
<text text-anchor="start" x="1168" y="-736" font-family="Helvetica,sans-Serif" font-size="10.00" fill="#000000">Ra::Core::Utils::Index</text>
<text text-anchor="middle" x="1219.5" y="-725" font-family="Helvetica,sans-Serif" font-size="10.00" fill="#000000">::Index</text>
</a>
</g>
</g>
<!-- Node32&#45;&gt;Node33 -->
<g id="edge11" class="edge">
<title>Node32&#45;&gt;Node33</title>
<path fill="none" stroke="#191970" d="M1106.848,-733C1120.6294,-733 1135.406,-733 1149.5728,-733"/>
<polygon fill="#191970" stroke="#191970" points="1149.7578,-736.5001 1159.7578,-733 1149.7577,-729.5001 1149.7578,-736.5001"/>
</g>
<!-- Node37 -->
<g id="node16" class="node">
<title>Node37</title>
<g id="a_node16"><a xlink:href="classRa_1_1Core_1_1Geometry_1_1TopologicalMesh.html#a188cdce2eb15cd9fc3dbdca27df9a1b9" target="_top" xlink:title="Ra::Core::Geometry\l::TopologicalMesh::interpolate\lNormalOnFaces">
<polygon fill="#ffffff" stroke="#000000" points="375,-579.5 375,-620.5 537,-620.5 537,-579.5 375,-579.5"/>
<text text-anchor="start" x="383" y="-608.5" font-family="Helvetica,sans-Serif" font-size="10.00" fill="#000000">Ra::Core::Geometry</text>
<text text-anchor="start" x="383" y="-597.5" font-family="Helvetica,sans-Serif" font-size="10.00" fill="#000000">::TopologicalMesh::interpolate</text>
<text text-anchor="middle" x="456" y="-586.5" font-family="Helvetica,sans-Serif" font-size="10.00" fill="#000000">NormalOnFaces</text>
</a>
</g>
</g>
<!-- Node36&#45;&gt;Node37 -->
<g id="edge16" class="edge">
<title>Node36&#45;&gt;Node37</title>
<path fill="none" stroke="#191970" d="M266.017,-440.7374C284.0621,-472.8266 322.8771,-534.5065 372,-570 374.0867,-571.5078 376.2567,-572.9462 378.4903,-574.318"/>
<polygon fill="#191970" stroke="#191970" points="376.9424,-577.4623 387.3794,-579.2842 380.3565,-571.3514 376.9424,-577.4623"/>
</g>
<!-- Node38 -->
<g id="node17" class="node">
<title>Node38</title>
<g id="a_node17"><a xlink:href="classRa_1_1Core_1_1Geometry_1_1TopologicalMesh.html#a98391545fbf256845b44ae2d4b81ad44" target="_top" xlink:title="Ra::Core::Geometry\l::TopologicalMesh::interpolate\lPropsOnFaces">
<polygon fill="#ffffff" stroke="#000000" points="375,-639.5 375,-680.5 537,-680.5 537,-639.5 375,-639.5"/>
<text text-anchor="start" x="383" y="-668.5" font-family="Helvetica,sans-Serif" font-size="10.00" fill="#000000">Ra::Core::Geometry</text>
<text text-anchor="start" x="383" y="-657.5" font-family="Helvetica,sans-Serif" font-size="10.00" fill="#000000">::TopologicalMesh::interpolate</text>
<text text-anchor="middle" x="456" y="-646.5" font-family="Helvetica,sans-Serif" font-size="10.00" fill="#000000">PropsOnFaces</text>
</a>
</g>
</g>
<!-- Node36&#45;&gt;Node38 -->
<g id="edge18" class="edge">
<title>Node36&#45;&gt;Node38</title>
<path fill="none" stroke="#191970" d="M261.0833,-440.8066C274.3387,-482.6037 309.7401,-577.2654 372,-630 373.5509,-631.3136 375.1636,-632.5714 376.8276,-633.7756"/>
<polygon fill="#191970" stroke="#191970" points="375.2216,-636.9038 385.5276,-639.3609 379.0033,-631.0132 375.2216,-636.9038"/>
</g>
<!-- Node39 -->
<g id="node18" class="node">
<title>Node39</title>
<g id="a_node18"><a xlink:href="classRa_1_1Core_1_1Geometry_1_1TopologicalMesh.html#ac0bc26a22df41861c7bfa23d79105ba7" target="_top" xlink:title="Ra::Core::Geometry\l::TopologicalMesh::getFloat\lPropsHandles">
<polygon fill="#ffffff" stroke="#000000" points="381.5,-339.5 381.5,-380.5 530.5,-380.5 530.5,-339.5 381.5,-339.5"/>
<text text-anchor="start" x="389.5" y="-368.5" font-family="Helvetica,sans-Serif" font-size="10.00" fill="#000000">Ra::Core::Geometry</text>
<text text-anchor="start" x="389.5" y="-357.5" font-family="Helvetica,sans-Serif" font-size="10.00" fill="#000000">::TopologicalMesh::getFloat</text>
<text text-anchor="middle" x="456" y="-346.5" font-family="Helvetica,sans-Serif" font-size="10.00" fill="#000000">PropsHandles</text>
</a>
</g>
</g>
<!-- Node36&#45;&gt;Node39 -->
<g id="edge20" class="edge">
<title>Node36&#45;&gt;Node39</title>
<path fill="none" stroke="#191970" d="M323.8916,-399.4353C341.1512,-394.2832 359.7955,-388.7178 377.4844,-383.4375"/>
<polygon fill="#191970" stroke="#191970" points="378.6174,-386.752 387.1984,-380.5378 376.6151,-380.0444 378.6174,-386.752"/>
</g>
<!-- Node40 -->
<g id="node19" class="node">
<title>Node40</title>
<g id="a_node19"><a xlink:href="classRa_1_1Core_1_1Geometry_1_1TopologicalMesh.html#a122e0ecbdc766232c88dc7f6ad035475" target="_top" xlink:title="Ra::Core::Geometry\l::TopologicalMesh::getVector2\lPropsHandles">
<polygon fill="#ffffff" stroke="#000000" points="375.5,-279.5 375.5,-320.5 536.5,-320.5 536.5,-279.5 375.5,-279.5"/>
<text text-anchor="start" x="383.5" y="-308.5" font-family="Helvetica,sans-Serif" font-size="10.00" fill="#000000">Ra::Core::Geometry</text>
<text text-anchor="start" x="383.5" y="-297.5" font-family="Helvetica,sans-Serif" font-size="10.00" fill="#000000">::TopologicalMesh::getVector2</text>
<text text-anchor="middle" x="456" y="-286.5" font-family="Helvetica,sans-Serif" font-size="10.00" fill="#000000">PropsHandles</text>
</a>
</g>
</g>
<!-- Node36&#45;&gt;Node40 -->
<g id="edge21" class="edge">
<title>Node36&#45;&gt;Node40</title>
<path fill="none" stroke="#191970" d="M322.0377,-399.4768C327.0018,-396.688 331.7297,-393.5427 336,-390 359.9341,-370.1438 347.9503,-349.716 372,-330 373.7514,-328.5642 375.5769,-327.1945 377.4622,-325.8881"/>
<polygon fill="#191970" stroke="#191970" points="379.4105,-328.7983 386.068,-320.5565 375.7239,-322.8478 379.4105,-328.7983"/>
</g>
<!-- Node41 -->
<g id="node20" class="node">
<title>Node41</title>
<g id="a_node20"><a xlink:href="classRa_1_1Core_1_1Geometry_1_1TopologicalMesh.html#a6e52c5ca0ef3fbca09207722f5115bb7" target="_top" xlink:title="Ra::Core::Geometry\l::TopologicalMesh::getVector3\lPropsHandles">
<polygon fill="#ffffff" stroke="#000000" points="375.5,-219.5 375.5,-260.5 536.5,-260.5 536.5,-219.5 375.5,-219.5"/>
<text text-anchor="start" x="383.5" y="-248.5" font-family="Helvetica,sans-Serif" font-size="10.00" fill="#000000">Ra::Core::Geometry</text>
<text text-anchor="start" x="383.5" y="-237.5" font-family="Helvetica,sans-Serif" font-size="10.00" fill="#000000">::TopologicalMesh::getVector3</text>
<text text-anchor="middle" x="456" y="-226.5" font-family="Helvetica,sans-Serif" font-size="10.00" fill="#000000">PropsHandles</text>
</a>
</g>
</g>
<!-- Node36&#45;&gt;Node41 -->
<g id="edge22" class="edge">
<title>Node36&#45;&gt;Node41</title>
<path fill="none" stroke="#191970" d="M324.9761,-399.3254C328.987,-396.5917 332.7158,-393.4988 336,-390 374.1082,-349.4019 333.6553,-310.3748 372,-270 372.9298,-269.021 373.8936,-268.0739 374.8882,-267.1577"/>
<polygon fill="#191970" stroke="#191970" points="377.3695,-269.6585 383.058,-260.7202 373.0371,-264.1602 377.3695,-269.6585"/>
</g>
<!-- Node42 -->
<g id="node21" class="node">
<title>Node42</title>
<g id="a_node21"><a xlink:href="classRa_1_1Core_1_1Geometry_1_1TopologicalMesh.html#a52b4baf67feb85e44253d9a966a9a886" target="_top" xlink:title="Ra::Core::Geometry\l::TopologicalMesh::getVector4\lPropsHandles">
<polygon fill="#ffffff" stroke="#000000" points="375.5,-399.5 375.5,-440.5 536.5,-440.5 536.5,-399.5 375.5,-399.5"/>
<text text-anchor="start" x="383.5" y="-428.5" font-family="Helvetica,sans-Serif" font-size="10.00" fill="#000000">Ra::Core::Geometry</text>
<text text-anchor="start" x="383.5" y="-417.5" font-family="Helvetica,sans-Serif" font-size="10.00" fill="#000000">::TopologicalMesh::getVector4</text>
<text text-anchor="middle" x="456" y="-406.5" font-family="Helvetica,sans-Serif" font-size="10.00" fill="#000000">PropsHandles</text>
</a>
</g>
</g>
<!-- Node36&#45;&gt;Node42 -->
<g id="edge23" class="edge">
<title>Node36&#45;&gt;Node42</title>
<path fill="none" stroke="#191970" d="M336.175,-420C345.7171,-420 355.5007,-420 365.164,-420"/>
<polygon fill="#191970" stroke="#191970" points="365.1755,-423.5001 375.1755,-420 365.1755,-416.5001 365.1755,-423.5001"/>
</g>
<!-- Node37&#45;&gt;Node35 -->
<g id="edge17" class="edge">
<title>Node37&#45;&gt;Node35</title>
<path fill="none" stroke="#191970" d="M524.7202,-620.5647C541.9369,-625.7168 560.5348,-631.2822 578.1797,-636.5625"/>
<polygon fill="#191970" stroke="#191970" points="577.2859,-639.9483 587.8696,-639.4622 579.2928,-633.2422 577.2859,-639.9483"/>
</g>
<!-- Node38&#45;&gt;Node35 -->
<g id="edge19" class="edge">
<title>Node38&#45;&gt;Node35</title>
<path fill="none" stroke="#191970" d="M537.262,-660C548.0382,-660 559.1183,-660 569.9792,-660"/>
<polygon fill="#191970" stroke="#191970" points="570.3081,-663.5001 580.3081,-660 570.308,-656.5001 570.3081,-663.5001"/>
</g>
<!-- Node43&#45;&gt;Node39 -->
<g id="edge27" class="edge">
<title>Node43&#45;&gt;Node39</title>
<path fill="none" stroke="#191970" d="M323.8916,-320.5647C341.1512,-325.7168 359.7955,-331.2822 377.4844,-336.5625"/>
<polygon fill="#191970" stroke="#191970" points="376.6151,-339.9556 387.1984,-339.4622 378.6174,-333.248 376.6151,-339.9556"/>
</g>
<!-- Node43&#45;&gt;Node40 -->
<g id="edge28" class="edge">
<title>Node43&#45;&gt;Node40</title>
<path fill="none" stroke="#191970" d="M327.5656,-300C339.8103,-300 352.6559,-300 365.293,-300"/>
<polygon fill="#191970" stroke="#191970" points="365.3676,-303.5001 375.3676,-300 365.3676,-296.5001 365.3676,-303.5001"/>
</g>
<!-- Node43&#45;&gt;Node41 -->
<g id="edge29" class="edge">
<title>Node43&#45;&gt;Node41</title>
<path fill="none" stroke="#191970" d="M323.8916,-279.4353C341.1512,-274.2832 359.7955,-268.7178 377.4844,-263.4375"/>
<polygon fill="#191970" stroke="#191970" points="378.6174,-266.752 387.1984,-260.5378 376.6151,-260.0444 378.6174,-266.752"/>
</g>
<!-- Node43&#45;&gt;Node42 -->
<g id="edge30" class="edge">
<title>Node43&#45;&gt;Node42</title>
<path fill="none" stroke="#191970" d="M322.0377,-320.5232C327.0018,-323.312 331.7297,-326.4573 336,-330 359.9341,-349.8562 347.9503,-370.284 372,-390 373.7514,-391.4358 375.5769,-392.8055 377.4622,-394.1119"/>
<polygon fill="#191970" stroke="#191970" points="375.7239,-397.1522 386.068,-399.4435 379.4105,-391.2017 375.7239,-397.1522"/>
</g>
<!-- Node44 -->
<g id="node23" class="node">
<title>Node44</title>
<g id="a_node23"><a xlink:href="classRa_1_1Core_1_1Geometry_1_1TopologicalMesh.html#ac8072a8ec0aba0f10d6d2370d4ff849f" target="_top" xlink:title="Ra::Core::Geometry\l::TopologicalMesh::copyNormal">
<polygon fill="#ffffff" stroke="#000000" points="372,-170 372,-200 540,-200 540,-170 372,-170"/>
<text text-anchor="start" x="380" y="-188" font-family="Helvetica,sans-Serif" font-size="10.00" fill="#000000">Ra::Core::Geometry</text>
<text text-anchor="middle" x="456" y="-177" font-family="Helvetica,sans-Serif" font-size="10.00" fill="#000000">::TopologicalMesh::copyNormal</text>
</a>
</g>
</g>
<!-- Node43&#45;&gt;Node44 -->
<g id="edge25" class="edge">
<title>Node43&#45;&gt;Node44</title>
<path fill="none" stroke="#191970" d="M322.0377,-279.4768C327.0018,-276.688 331.7297,-273.5427 336,-270 359.9341,-250.1438 347.4291,-229.0626 372,-210 374.3104,-208.2075 376.7474,-206.5433 379.2788,-204.9981"/>
<polygon fill="#191970" stroke="#191970" points="381.0597,-208.0143 388.2033,-200.1901 377.7396,-201.8518 381.0597,-208.0143"/>
</g>
<!-- Node45 -->
<g id="node24" class="node">
<title>Node45</title>
<g id="a_node24"><a xlink:href="classRa_1_1Core_1_1Geometry_1_1TopologicalMesh.html#a2e285050a0f20a662f08ba50fbf03b2d" target="_top" xlink:title="Ra::Core::Geometry\l::TopologicalMesh::copyProps">
<polygon fill="#ffffff" stroke="#000000" points="376.5,-121 376.5,-151 535.5,-151 535.5,-121 376.5,-121"/>
<text text-anchor="start" x="384.5" y="-139" font-family="Helvetica,sans-Serif" font-size="10.00" fill="#000000">Ra::Core::Geometry</text>
<text text-anchor="middle" x="456" y="-128" font-family="Helvetica,sans-Serif" font-size="10.00" fill="#000000">::TopologicalMesh::copyProps</text>
</a>
</g>
</g>
<!-- Node43&#45;&gt;Node45 -->
<g id="edge26" class="edge">
<title>Node43&#45;&gt;Node45</title>
<path fill="none" stroke="#191970" d="M324.4979,-279.4843C328.6759,-276.7108 332.5686,-273.5658 336,-270 371.6685,-232.9341 334.9418,-195.6765 372,-160 373.1268,-158.9152 374.2991,-157.8789 375.5114,-156.8889"/>
<polygon fill="#191970" stroke="#191970" points="377.7945,-159.5658 384.0356,-151.0044 373.8177,-153.8052 377.7945,-159.5658"/>
</g>
<!-- Node46&#45;&gt;Node39 -->
<g id="edge34" class="edge">
<title>Node46&#45;&gt;Node39</title>
<path fill="none" stroke="#191970" d="M322.0377,-260.5232C327.0018,-263.312 331.7297,-266.4573 336,-270 359.9341,-289.8562 347.9503,-310.284 372,-330 373.7514,-331.4358 375.5769,-332.8055 377.4622,-334.1119"/>
<polygon fill="#191970" stroke="#191970" points="375.7239,-337.1522 386.068,-339.4435 379.4105,-331.2017 375.7239,-337.1522"/>
</g>
<!-- Node46&#45;&gt;Node40 -->
<g id="edge35" class="edge">
<title>Node46&#45;&gt;Node40</title>
<path fill="none" stroke="#191970" d="M323.8916,-260.5647C341.1512,-265.7168 359.7955,-271.2822 377.4844,-276.5625"/>
<polygon fill="#191970" stroke="#191970" points="376.6151,-279.9556 387.1984,-279.4622 378.6174,-273.248 376.6151,-279.9556"/>
</g>
<!-- Node46&#45;&gt;Node41 -->
<g id="edge36" class="edge">
<title>Node46&#45;&gt;Node41</title>
<path fill="none" stroke="#191970" d="M327.5656,-240C339.8103,-240 352.6559,-240 365.293,-240"/>
<polygon fill="#191970" stroke="#191970" points="365.3676,-243.5001 375.3676,-240 365.3676,-236.5001 365.3676,-243.5001"/>
</g>
<!-- Node46&#45;&gt;Node42 -->
<g id="edge37" class="edge">
<title>Node46&#45;&gt;Node42</title>
<path fill="none" stroke="#191970" d="M324.9761,-260.6746C328.987,-263.4083 332.7158,-266.5012 336,-270 374.1082,-310.5981 333.6553,-349.6252 372,-390 372.9298,-390.979 373.8936,-391.9261 374.8882,-392.8423"/>
<polygon fill="#191970" stroke="#191970" points="373.0371,-395.8398 383.058,-399.2798 377.3695,-390.3415 373.0371,-395.8398"/>
</g>
<!-- Node47 -->
<g id="node26" class="node">
<title>Node47</title>
<g id="a_node26"><a xlink:href="classRa_1_1Core_1_1Geometry_1_1TopologicalMesh.html#a55f50a9118dee08fe611012b93dee3de" target="_top" xlink:title="Ra::Core::Geometry\l::TopologicalMesh::copyNormal\lFromFace">
<polygon fill="#ffffff" stroke="#000000" points="372,-60.5 372,-101.5 540,-101.5 540,-60.5 372,-60.5"/>
<text text-anchor="start" x="380" y="-89.5" font-family="Helvetica,sans-Serif" font-size="10.00" fill="#000000">Ra::Core::Geometry</text>
<text text-anchor="start" x="380" y="-78.5" font-family="Helvetica,sans-Serif" font-size="10.00" fill="#000000">::TopologicalMesh::copyNormal</text>
<text text-anchor="middle" x="456" y="-67.5" font-family="Helvetica,sans-Serif" font-size="10.00" fill="#000000">FromFace</text>
</a>
</g>
</g>
<!-- Node46&#45;&gt;Node47 -->
<g id="edge32" class="edge">
<title>Node46&#45;&gt;Node47</title>
<path fill="none" stroke="#191970" d="M268.8327,-219.2162C288.5973,-191.005 327.4889,-140.7114 372,-111 374.4149,-109.388 376.9268,-107.8512 379.5083,-106.3873"/>
<polygon fill="#191970" stroke="#191970" points="381.2686,-109.4166 388.5146,-101.687 378.0299,-103.2109 381.2686,-109.4166"/>
</g>
<!-- Node48 -->
<g id="node27" class="node">
<title>Node48</title>
<g id="a_node27"><a xlink:href="classRa_1_1Core_1_1Geometry_1_1TopologicalMesh.html#a489fcd771f3bf01c0e4ee1b7ebd738f8" target="_top" xlink:title="Ra::Core::Geometry\l::TopologicalMesh::copyProps\lFromFace">
<polygon fill="#ffffff" stroke="#000000" points="376.5,-.5 376.5,-41.5 535.5,-41.5 535.5,-.5 376.5,-.5"/>
<text text-anchor="start" x="384.5" y="-29.5" font-family="Helvetica,sans-Serif" font-size="10.00" fill="#000000">Ra::Core::Geometry</text>
<text text-anchor="start" x="384.5" y="-18.5" font-family="Helvetica,sans-Serif" font-size="10.00" fill="#000000">::TopologicalMesh::copyProps</text>
<text text-anchor="middle" x="456" y="-7.5" font-family="Helvetica,sans-Serif" font-size="10.00" fill="#000000">FromFace</text>
</a>
</g>
</g>
<!-- Node46&#45;&gt;Node48 -->
<g id="edge33" class="edge">
<title>Node46&#45;&gt;Node48</title>
<path fill="none" stroke="#191970" d="M262.4765,-219.2018C277.3749,-180.6005 314.3748,-97.5761 372,-51 373.7614,-49.5764 375.5956,-48.2175 377.4887,-46.9206"/>
<polygon fill="#191970" stroke="#191970" points="379.4294,-49.8362 386.1222,-41.623 375.7683,-43.8699 379.4294,-49.8362"/>
</g>
<!-- Node49&#45;&gt;Node39 -->
<g id="edge41" class="edge">
<title>Node49&#45;&gt;Node39</title>
<path fill="none" stroke="#191970" d="M336.175,-360C347.72,-360 359.6185,-360 371.2298,-360"/>
<polygon fill="#191970" stroke="#191970" points="371.3436,-363.5001 381.3436,-360 371.3436,-356.5001 371.3436,-363.5001"/>
</g>
<!-- Node49&#45;&gt;Node40 -->
<g id="edge42" class="edge">
<title>Node49&#45;&gt;Node40</title>
<path fill="none" stroke="#191970" d="M323.8916,-339.4353C341.1512,-334.2832 359.7955,-328.7178 377.4844,-323.4375"/>
<polygon fill="#191970" stroke="#191970" points="378.6174,-326.752 387.1984,-320.5378 376.6151,-320.0444 378.6174,-326.752"/>
</g>
<!-- Node49&#45;&gt;Node41 -->
<g id="edge43" class="edge">
<title>Node49&#45;&gt;Node41</title>
<path fill="none" stroke="#191970" d="M322.0377,-339.4768C327.0018,-336.688 331.7297,-333.5427 336,-330 359.9341,-310.1438 347.9503,-289.716 372,-270 373.7514,-268.5642 375.5769,-267.1945 377.4622,-265.8881"/>
<polygon fill="#191970" stroke="#191970" points="379.4105,-268.7983 386.068,-260.5565 375.7239,-262.8478 379.4105,-268.7983"/>
</g>
<!-- Node49&#45;&gt;Node42 -->
<g id="edge44" class="edge">
<title>Node49&#45;&gt;Node42</title>
<path fill="none" stroke="#191970" d="M323.8916,-380.5647C341.1512,-385.7168 359.7955,-391.2822 377.4844,-396.5625"/>
<polygon fill="#191970" stroke="#191970" points="376.6151,-399.9556 387.1984,-399.4622 378.6174,-393.248 376.6151,-399.9556"/>
</g>
<!-- Node50 -->
<g id="node29" class="node">
<title>Node50</title>
<g id="a_node29"><a xlink:href="classRa_1_1Core_1_1Geometry_1_1TopologicalMesh.html#abcc0ec560fca4ee96ae325b20ee501e9" target="_top" xlink:title="Ra::Core::Geometry\l::TopologicalMesh::interpolate\lNormal">
<polygon fill="#ffffff" stroke="#000000" points="375,-519.5 375,-560.5 537,-560.5 537,-519.5 375,-519.5"/>
<text text-anchor="start" x="383" y="-548.5" font-family="Helvetica,sans-Serif" font-size="10.00" fill="#000000">Ra::Core::Geometry</text>
<text text-anchor="start" x="383" y="-537.5" font-family="Helvetica,sans-Serif" font-size="10.00" fill="#000000">::TopologicalMesh::interpolate</text>
<text text-anchor="middle" x="456" y="-526.5" font-family="Helvetica,sans-Serif" font-size="10.00" fill="#000000">Normal</text>
</a>
</g>
</g>
<!-- Node49&#45;&gt;Node50 -->
<g id="edge39" class="edge">
<title>Node49&#45;&gt;Node50</title>
<path fill="none" stroke="#191970" d="M324.9761,-380.6746C328.987,-383.4083 332.7158,-386.5012 336,-390 374.1082,-430.5981 333.6553,-469.6252 372,-510 372.9298,-510.979 373.8936,-511.9261 374.8882,-512.8423"/>
<polygon fill="#191970" stroke="#191970" points="373.0371,-515.8398 383.058,-519.2798 377.3695,-510.3415 373.0371,-515.8398"/>
</g>
<!-- Node51 -->
<g id="node30" class="node">
<title>Node51</title>
<g id="a_node30"><a xlink:href="classRa_1_1Core_1_1Geometry_1_1TopologicalMesh.html#a41d41cb8e6019a7237b169c2d8e6aad6" target="_top" xlink:title="Ra::Core::Geometry\l::TopologicalMesh::interpolate\lProps">
<polygon fill="#ffffff" stroke="#000000" points="375,-459.5 375,-500.5 537,-500.5 537,-459.5 375,-459.5"/>
<text text-anchor="start" x="383" y="-488.5" font-family="Helvetica,sans-Serif" font-size="10.00" fill="#000000">Ra::Core::Geometry</text>
<text text-anchor="start" x="383" y="-477.5" font-family="Helvetica,sans-Serif" font-size="10.00" fill="#000000">::TopologicalMesh::interpolate</text>
<text text-anchor="middle" x="456" y="-466.5" font-family="Helvetica,sans-Serif" font-size="10.00" fill="#000000">Props</text>
</a>
</g>
</g>
<!-- Node49&#45;&gt;Node51 -->
<g id="edge40" class="edge">
<title>Node49&#45;&gt;Node51</title>
<path fill="none" stroke="#191970" d="M322.0377,-380.5232C327.0018,-383.312 331.7297,-386.4573 336,-390 359.9341,-409.8562 347.9503,-430.284 372,-450 373.7514,-451.4358 375.5769,-452.8055 377.4622,-454.1119"/>
<polygon fill="#191970" stroke="#191970" points="375.7239,-457.1522 386.068,-459.4435 379.4105,-451.2017 375.7239,-457.1522"/>
</g>
</g>
</svg>
        <g id="navigator" transform="translate(0 0)" fill="#404254">
                <rect fill="#f2f5e9" fill-opacity="0.5" stroke="#606060" stroke-width=".5" x="0" y="0" width="60" height="60"/>
                <use id="zoomplus" xlink:href="#zoomPlus" x="17" y="9" onmousedown="handleZoom(evt,'in')"/>
                <use id="zoomminus" xlink:href="#zoomMin" x="42" y="9" onmousedown="handleZoom(evt,'out')"/>
                <use id="reset" xlink:href="#resetDef" x="30" y="36" onmousedown="handleReset()"/>
                <g id="arrowUp" xlink:href="#dirArrow" transform="translate(30 24)" onmousedown="handlePan(0,-1)">
                  <use xlink:href="#rim" fill="#404040">
                        <set attributeName="fill" to="#808080" begin="arrowUp.mouseover" end="arrowUp.mouseout"/>
                  </use>
                  <path fill="none" stroke="white" stroke-width="1.5" d="M0,-3.0v7 M-2.5,-0.5L0,-3.0L2.5,-0.5"/>
                </g>
                <g id="arrowRight" xlink:href="#dirArrow" transform="rotate(90) translate(36 -43)" onmousedown="handlePan(1,0)">
                  <use xlink:href="#rim" fill="#404040">
                        <set attributeName="fill" to="#808080" begin="arrowRight.mouseover" end="arrowRight.mouseout"/>
                  </use>
                  <path fill="none" stroke="white" stroke-width="1.5" d="M0,-3.0v7 M-2.5,-0.5L0,-3.0L2.5,-0.5"/>
                </g>
                <g id="arrowDown" xlink:href="#dirArrow" transform="rotate(180) translate(-30 -48)" onmousedown="handlePan(0,1)">
                  <use xlink:href="#rim" fill="#404040">
                        <set attributeName="fill" to="#808080" begin="arrowDown.mouseover" end="arrowDown.mouseout"/>
                  </use>
                  <path fill="none" stroke="white" stroke-width="1.5" d="M0,-3.0v7 M-2.5,-0.5L0,-3.0L2.5,-0.5"/>
                </g>
                <g id="arrowLeft" xlink:href="#dirArrow" transform="rotate(270) translate(-36 17)" onmousedown="handlePan(-1,0)">
                  <use xlink:href="#rim" fill="#404040">
                        <set attributeName="fill" to="#808080" begin="arrowLeft.mouseover" end="arrowLeft.mouseout"/>
                  </use>
                  <path fill="none" stroke="white" stroke-width="1.5" d="M0,-3.0v7 M-2.5,-0.5L0,-3.0L2.5,-0.5"/>
                </g>
        </g>
        <svg viewBox="0 0 15 15" width="100%" height="30px" preserveAspectRatio="xMaxYMin meet">
         <g id="arrow_out" transform="scale(0.3 0.3)">
          <a xlink:href="classRa_1_1Core_1_1Geometry_1_1CatmullClarkSubdivider_a5725ebe92971e786b3645b8a53833c70_cgraph_org.svg" target="_base">
           <rect id="button" ry="5" rx="5" y="6" x="6" height="38" width="38"
                fill="#f2f5e9" fill-opacity="0.5" stroke="#606060" stroke-width="1.0"/>
           <path id="arrow"
             d="M 11.500037,31.436501 C 11.940474,20.09759 22.043105,11.32322 32.158766,21.979434 L 37.068811,17.246167 C 37.068811,17.246167 37.088388,32 37.088388,32 L 22.160133,31.978069 C 22.160133,31.978069 26.997745,27.140456 26.997745,27.140456 C 18.528582,18.264221 13.291696,25.230495 11.500037,31.436501 z"
             style="fill:#404040;"/>
          </a>
         </g>
        </svg>
</svg>
