<?xml version="1.0" encoding="UTF-8" standalone="no"?>
<!DOCTYPE svg PUBLIC "-//W3C//DTD SVG 1.1//EN"
 "http://www.w3.org/Graphics/SVG/1.1/DTD/svg11.dtd">
<!-- Generated by graphviz version 2.40.1 (20161225.0304)
 -->
<!-- Title: Ra::Core::Asset::AnimationData Pages: 1 -->
<svg width="848pt" height="1899pt"
 viewBox="0.00 0.00 847.50 1899.00" xmlns="http://www.w3.org/2000/svg" xmlns:xlink="http://www.w3.org/1999/xlink">
<g id="graph0" class="graph" transform="scale(1 1) rotate(0) translate(4 1895)">
<title>Ra::Core::Asset::AnimationData</title>
<polygon fill="#ffffff" stroke="transparent" points="-4,4 -4,-1895 843.5,-1895 843.5,4 -4,4"/>
<!-- Node2 -->
<g id="node1" class="node">
<title>Node2</title>
<polygon fill="#bfbfbf" stroke="#000000" points="431.5,-.5 431.5,-167.5 601.5,-167.5 601.5,-.5 431.5,-.5"/>
<text text-anchor="middle" x="516.5" y="-155.5" font-family="Helvetica,sans-Serif" font-size="10.00" fill="#000000">Ra::Core::Asset::AnimationData</text>
<polyline fill="none" stroke="#000000" points="431.5,-148.5 601.5,-148.5 "/>
<text text-anchor="middle" x="516.5" y="-136.5" font-family="Helvetica,sans-Serif" font-size="10.00" fill="#000000"> </text>
<polyline fill="none" stroke="#000000" points="431.5,-129.5 601.5,-129.5 "/>
<text text-anchor="start" x="439.5" y="-117.5" font-family="Helvetica,sans-Serif" font-size="10.00" fill="#000000">+ AnimationData()</text>
<text text-anchor="start" x="439.5" y="-106.5" font-family="Helvetica,sans-Serif" font-size="10.00" fill="#000000">+ ~AnimationData()</text>
<text text-anchor="start" x="439.5" y="-95.5" font-family="Helvetica,sans-Serif" font-size="10.00" fill="#000000">+ setName()</text>
<text text-anchor="start" x="439.5" y="-84.5" font-family="Helvetica,sans-Serif" font-size="10.00" fill="#000000">+ getTime()</text>
<text text-anchor="start" x="439.5" y="-73.5" font-family="Helvetica,sans-Serif" font-size="10.00" fill="#000000">+ setTime()</text>
<text text-anchor="start" x="439.5" y="-62.5" font-family="Helvetica,sans-Serif" font-size="10.00" fill="#000000">+ getTimeStep()</text>
<text text-anchor="start" x="439.5" y="-51.5" font-family="Helvetica,sans-Serif" font-size="10.00" fill="#000000">+ setTimeStep()</text>
<text text-anchor="start" x="439.5" y="-40.5" font-family="Helvetica,sans-Serif" font-size="10.00" fill="#000000">+ getFramesSize()</text>
<text text-anchor="start" x="439.5" y="-29.5" font-family="Helvetica,sans-Serif" font-size="10.00" fill="#000000">+ getFrames()</text>
<text text-anchor="start" x="439.5" y="-18.5" font-family="Helvetica,sans-Serif" font-size="10.00" fill="#000000">+ setFrames()</text>
<text text-anchor="start" x="439.5" y="-7.5" font-family="Helvetica,sans-Serif" font-size="10.00" fill="#000000">+ displayInfo()</text>
</g>
<!-- Node3 -->
<g id="node2" class="node">
<title>Node3</title>
<g id="a_node2"><a xlink:href="classRa_1_1Core_1_1Asset_1_1AssetData.html" target="_top" xlink:title="{Ra::Core::Asset::AssetData\n||+ AssetData()\l+ AssetData()\l+ ~AssetData()\l+ getName()\l}">
<polygon fill="#ffffff" stroke="#000000" points="363,-302.5 363,-392.5 510,-392.5 510,-302.5 363,-302.5"/>
<text text-anchor="middle" x="436.5" y="-380.5" font-family="Helvetica,sans-Serif" font-size="10.00" fill="#000000">Ra::Core::Asset::AssetData</text>
<polyline fill="none" stroke="#000000" points="363,-373.5 510,-373.5 "/>
<text text-anchor="middle" x="436.5" y="-361.5" font-family="Helvetica,sans-Serif" font-size="10.00" fill="#000000"> </text>
<polyline fill="none" stroke="#000000" points="363,-354.5 510,-354.5 "/>
<text text-anchor="start" x="371" y="-342.5" font-family="Helvetica,sans-Serif" font-size="10.00" fill="#000000">+ AssetData()</text>
<text text-anchor="start" x="371" y="-331.5" font-family="Helvetica,sans-Serif" font-size="10.00" fill="#000000">+ AssetData()</text>
<text text-anchor="start" x="371" y="-320.5" font-family="Helvetica,sans-Serif" font-size="10.00" fill="#000000">+ ~AssetData()</text>
<text text-anchor="start" x="371" y="-309.5" font-family="Helvetica,sans-Serif" font-size="10.00" fill="#000000">+ getName()</text>
</a>
</g>
</g>
<!-- Node3&#45;&gt;Node2 -->
<g id="edge1" class="edge">
<title>Node3&#45;&gt;Node2</title>
<path fill="none" stroke="#191970" d="M452.9679,-292.8098C460.174,-268.9143 468.7386,-240.5634 476.5,-215 481.1287,-199.7548 486.0744,-183.5165 490.8541,-167.849"/>
<polygon fill="none" stroke="#191970" points="449.6079,-291.8292 450.0723,-302.4139 456.31,-293.8498 449.6079,-291.8292"/>
</g>
<!-- Node4 -->
<g id="node3" class="node">
<title>Node4</title>
<g id="a_node3"><a xlink:title="STL class. ">
<polygon fill="#ffffff" stroke="#bfbfbf" points="410,-544 410,-601 475,-601 475,-544 410,-544"/>
<text text-anchor="middle" x="442.5" y="-589" font-family="Helvetica,sans-Serif" font-size="10.00" fill="#000000">std::string</text>
<polyline fill="none" stroke="#bfbfbf" points="410,-582 475,-582 "/>
<text text-anchor="middle" x="442.5" y="-570" font-family="Helvetica,sans-Serif" font-size="10.00" fill="#000000"> </text>
<polyline fill="none" stroke="#bfbfbf" points="410,-563 475,-563 "/>
<text text-anchor="middle" x="442.5" y="-551" font-family="Helvetica,sans-Serif" font-size="10.00" fill="#000000"> </text>
</a>
</g>
</g>
<!-- Node4&#45;&gt;Node3 -->
<g id="edge2" class="edge">
<title>Node4&#45;&gt;Node3</title>
<path fill="none" stroke="#404040" d="M441.7279,-543.5458C440.7963,-508.6122 439.2082,-449.0564 438.0262,-404.7314"/>
<polygon fill="none" stroke="#404040" points="438.0244,-404.6622 433.8659,-398.771 437.7044,-392.6664 441.863,-398.5576 438.0244,-404.6622"/>
<text text-anchor="middle" x="468" y="-490" font-family="Helvetica,sans-Serif" font-size="10.00" fill="#000000"> #m_name</text>
</g>
<!-- Node9 -->
<g id="node8" class="node">
<title>Node9</title>
<g id="a_node8"><a xlink:href="structRa_1_1Core_1_1Asset_1_1HandleAnimation.html" target="_top" xlink:title="{Ra::Core::Asset::HandleAnimation\n||+ HandleAnimation()\l}">
<polygon fill="#ffffff" stroke="#000000" points="470.5,-411.5 470.5,-468.5 652.5,-468.5 652.5,-411.5 470.5,-411.5"/>
<text text-anchor="middle" x="561.5" y="-456.5" font-family="Helvetica,sans-Serif" font-size="10.00" fill="#000000">Ra::Core::Asset::HandleAnimation</text>
<polyline fill="none" stroke="#000000" points="470.5,-449.5 652.5,-449.5 "/>
<text text-anchor="middle" x="561.5" y="-437.5" font-family="Helvetica,sans-Serif" font-size="10.00" fill="#000000"> </text>
<polyline fill="none" stroke="#000000" points="470.5,-430.5 652.5,-430.5 "/>
<text text-anchor="start" x="478.5" y="-418.5" font-family="Helvetica,sans-Serif" font-size="10.00" fill="#000000">+ HandleAnimation()</text>
</a>
</g>
</g>
<!-- Node4&#45;&gt;Node9 -->
<g id="edge24" class="edge">
<title>Node4&#45;&gt;Node9</title>
<path fill="none" stroke="#404040" d="M463.5019,-543.8744C476.438,-526.8226 493.7111,-505.0565 510.5,-487 513.549,-483.7208 516.7883,-480.4026 520.0984,-477.1258"/>
<polygon fill="none" stroke="#404040" points="520.3015,-476.9301 521.8471,-469.8865 528.9433,-468.6042 527.3977,-475.6477 520.3015,-476.9301"/>
<text text-anchor="middle" x="538" y="-490" font-family="Helvetica,sans-Serif" font-size="10.00" fill="#000000"> +m_name</text>
</g>
<!-- Node5 -->
<g id="node4" class="node">
<title>Node5</title>
<g id="a_node4"><a xlink:title="STL class. ">
<polygon fill="#ffffff" stroke="#bfbfbf" points="370.5,-792 370.5,-860 474.5,-860 474.5,-792 370.5,-792"/>
<text text-anchor="start" x="378.5" y="-848" font-family="Helvetica,sans-Serif" font-size="10.00" fill="#000000">std::basic_string&lt;</text>
<text text-anchor="middle" x="422.5" y="-837" font-family="Helvetica,sans-Serif" font-size="10.00" fill="#000000"> char &gt;</text>
<polyline fill="none" stroke="#bfbfbf" points="370.5,-830 474.5,-830 "/>
<text text-anchor="middle" x="422.5" y="-818" font-family="Helvetica,sans-Serif" font-size="10.00" fill="#000000"> </text>
<polyline fill="none" stroke="#bfbfbf" points="370.5,-811 474.5,-811 "/>
<text text-anchor="middle" x="422.5" y="-799" font-family="Helvetica,sans-Serif" font-size="10.00" fill="#000000"> </text>
</a>
</g>
</g>
<!-- Node5&#45;&gt;Node4 -->
<g id="edge3" class="edge">
<title>Node5&#45;&gt;Node4</title>
<path fill="none" stroke="#191970" d="M426.0066,-781.5534C430.1086,-729.5608 436.7787,-645.017 440.246,-601.0696"/>
<polygon fill="none" stroke="#191970" points="422.4947,-781.5675 425.1973,-791.8119 429.473,-782.1181 422.4947,-781.5675"/>
</g>
<!-- Node6 -->
<g id="node5" class="node">
<title>Node6</title>
<g id="a_node5"><a xlink:href="classRa_1_1Core_1_1Animation_1_1AnimationTime.html" target="_top" xlink:title="{Ra::Core::Animation\l::AnimationTime\n||+ AnimationTime()\l+ AnimationTime()\l+ ~AnimationTime()\l+ getStart()\l+ setStart()\l+ getEnd()\l+ setEnd()\l+ duration()\l+ merge()\l+ contain()\l+ intersect()\l+ isValid()\l+ operator==()\l+ operator!=()\l+ operator\&lt;()\l+ operator==()\l+ operator\&lt;()\l+ operator\&gt;()\l}">
<polygon fill="#ffffff" stroke="#000000" points="499,-1370.5 499,-1625.5 618,-1625.5 618,-1370.5 499,-1370.5"/>
<text text-anchor="start" x="507" y="-1613.5" font-family="Helvetica,sans-Serif" font-size="10.00" fill="#000000">Ra::Core::Animation</text>
<text text-anchor="middle" x="558.5" y="-1602.5" font-family="Helvetica,sans-Serif" font-size="10.00" fill="#000000">::AnimationTime</text>
<polyline fill="none" stroke="#000000" points="499,-1595.5 618,-1595.5 "/>
<text text-anchor="middle" x="558.5" y="-1583.5" font-family="Helvetica,sans-Serif" font-size="10.00" fill="#000000"> </text>
<polyline fill="none" stroke="#000000" points="499,-1576.5 618,-1576.5 "/>
<text text-anchor="start" x="507" y="-1564.5" font-family="Helvetica,sans-Serif" font-size="10.00" fill="#000000">+ AnimationTime()</text>
<text text-anchor="start" x="507" y="-1553.5" font-family="Helvetica,sans-Serif" font-size="10.00" fill="#000000">+ AnimationTime()</text>
<text text-anchor="start" x="507" y="-1542.5" font-family="Helvetica,sans-Serif" font-size="10.00" fill="#000000">+ ~AnimationTime()</text>
<text text-anchor="start" x="507" y="-1531.5" font-family="Helvetica,sans-Serif" font-size="10.00" fill="#000000">+ getStart()</text>
<text text-anchor="start" x="507" y="-1520.5" font-family="Helvetica,sans-Serif" font-size="10.00" fill="#000000">+ setStart()</text>
<text text-anchor="start" x="507" y="-1509.5" font-family="Helvetica,sans-Serif" font-size="10.00" fill="#000000">+ getEnd()</text>
<text text-anchor="start" x="507" y="-1498.5" font-family="Helvetica,sans-Serif" font-size="10.00" fill="#000000">+ setEnd()</text>
<text text-anchor="start" x="507" y="-1487.5" font-family="Helvetica,sans-Serif" font-size="10.00" fill="#000000">+ duration()</text>
<text text-anchor="start" x="507" y="-1476.5" font-family="Helvetica,sans-Serif" font-size="10.00" fill="#000000">+ merge()</text>
<text text-anchor="start" x="507" y="-1465.5" font-family="Helvetica,sans-Serif" font-size="10.00" fill="#000000">+ contain()</text>
<text text-anchor="start" x="507" y="-1454.5" font-family="Helvetica,sans-Serif" font-size="10.00" fill="#000000">+ intersect()</text>
<text text-anchor="start" x="507" y="-1443.5" font-family="Helvetica,sans-Serif" font-size="10.00" fill="#000000">+ isValid()</text>
<text text-anchor="start" x="507" y="-1432.5" font-family="Helvetica,sans-Serif" font-size="10.00" fill="#000000">+ operator==()</text>
<text text-anchor="start" x="507" y="-1421.5" font-family="Helvetica,sans-Serif" font-size="10.00" fill="#000000">+ operator!=()</text>
<text text-anchor="start" x="507" y="-1410.5" font-family="Helvetica,sans-Serif" font-size="10.00" fill="#000000">+ operator&lt;()</text>
<text text-anchor="start" x="507" y="-1399.5" font-family="Helvetica,sans-Serif" font-size="10.00" fill="#000000">+ operator==()</text>
<text text-anchor="start" x="507" y="-1388.5" font-family="Helvetica,sans-Serif" font-size="10.00" fill="#000000">+ operator&lt;()</text>
<text text-anchor="start" x="507" y="-1377.5" font-family="Helvetica,sans-Serif" font-size="10.00" fill="#000000">+ operator&gt;()</text>
</a>
</g>
</g>
<!-- Node6&#45;&gt;Node2 -->
<g id="edge4" class="edge">
<title>Node6&#45;&gt;Node2</title>
<path fill="none" stroke="#404040" d="M498.7785,-1391.8785C491.3617,-1383.7218 483.2666,-1376.2475 474.5,-1370 447.9893,-1351.1072 429.2679,-1371.8939 403.5,-1352 362.1278,-1320.0588 342.5,-1278.8498 342.5,-1173 342.5,-1173 342.5,-1173 342.5,-249.5 342.5,-199.5268 380.6475,-160.0675 421.219,-132.2322"/>
<polygon fill="none" stroke="#404040" points="421.2708,-132.198 424.073,-125.5536 431.2841,-125.5847 428.4819,-132.2291 421.2708,-132.198"/>
<text text-anchor="middle" x="367" y="-570" font-family="Helvetica,sans-Serif" font-size="10.00" fill="#000000"> #m_time</text>
</g>
<!-- Node11 -->
<g id="node10" class="node">
<title>Node11</title>
<g id="a_node10"><a xlink:href="classRa_1_1Core_1_1Animation_1_1KeyFrame.html" target="_top" xlink:title="{Ra::Core::Animation\l::KeyFrame\&lt; Core::Transform \&gt;\n||+ KeyFrame()\l+ KeyFrame()\l+ ~KeyFrame()\l+ getAnimationTime()\l+ setAnimationTime()\l+ getKeyFrame()\l+ getKeyFrame()\l+ at()\l+ setKeyFrame()\l+ setKeyFrame()\l+ insertKeyFrame()\l+ size()\l+ clear()\l+ empty()\l+ timeSchedule()\l+ reset()\l+ operator=()\l+ operator==()\l+ operator!=()\l# defaultFrame()\l# findRange()\l# interpolate()\l}">
<polygon fill="#ffffff" stroke="#000000" points="492.5,-676.5 492.5,-975.5 662.5,-975.5 662.5,-676.5 492.5,-676.5"/>
<text text-anchor="start" x="500.5" y="-963.5" font-family="Helvetica,sans-Serif" font-size="10.00" fill="#000000">Ra::Core::Animation</text>
<text text-anchor="middle" x="577.5" y="-952.5" font-family="Helvetica,sans-Serif" font-size="10.00" fill="#000000">::KeyFrame&lt; Core::Transform &gt;</text>
<polyline fill="none" stroke="#000000" points="492.5,-945.5 662.5,-945.5 "/>
<text text-anchor="middle" x="577.5" y="-933.5" font-family="Helvetica,sans-Serif" font-size="10.00" fill="#000000"> </text>
<polyline fill="none" stroke="#000000" points="492.5,-926.5 662.5,-926.5 "/>
<text text-anchor="start" x="500.5" y="-914.5" font-family="Helvetica,sans-Serif" font-size="10.00" fill="#000000">+ KeyFrame()</text>
<text text-anchor="start" x="500.5" y="-903.5" font-family="Helvetica,sans-Serif" font-size="10.00" fill="#000000">+ KeyFrame()</text>
<text text-anchor="start" x="500.5" y="-892.5" font-family="Helvetica,sans-Serif" font-size="10.00" fill="#000000">+ ~KeyFrame()</text>
<text text-anchor="start" x="500.5" y="-881.5" font-family="Helvetica,sans-Serif" font-size="10.00" fill="#000000">+ getAnimationTime()</text>
<text text-anchor="start" x="500.5" y="-870.5" font-family="Helvetica,sans-Serif" font-size="10.00" fill="#000000">+ setAnimationTime()</text>
<text text-anchor="start" x="500.5" y="-859.5" font-family="Helvetica,sans-Serif" font-size="10.00" fill="#000000">+ getKeyFrame()</text>
<text text-anchor="start" x="500.5" y="-848.5" font-family="Helvetica,sans-Serif" font-size="10.00" fill="#000000">+ getKeyFrame()</text>
<text text-anchor="start" x="500.5" y="-837.5" font-family="Helvetica,sans-Serif" font-size="10.00" fill="#000000">+ at()</text>
<text text-anchor="start" x="500.5" y="-826.5" font-family="Helvetica,sans-Serif" font-size="10.00" fill="#000000">+ setKeyFrame()</text>
<text text-anchor="start" x="500.5" y="-815.5" font-family="Helvetica,sans-Serif" font-size="10.00" fill="#000000">+ setKeyFrame()</text>
<text text-anchor="start" x="500.5" y="-804.5" font-family="Helvetica,sans-Serif" font-size="10.00" fill="#000000">+ insertKeyFrame()</text>
<text text-anchor="start" x="500.5" y="-793.5" font-family="Helvetica,sans-Serif" font-size="10.00" fill="#000000">+ size()</text>
<text text-anchor="start" x="500.5" y="-782.5" font-family="Helvetica,sans-Serif" font-size="10.00" fill="#000000">+ clear()</text>
<text text-anchor="start" x="500.5" y="-771.5" font-family="Helvetica,sans-Serif" font-size="10.00" fill="#000000">+ empty()</text>
<text text-anchor="start" x="500.5" y="-760.5" font-family="Helvetica,sans-Serif" font-size="10.00" fill="#000000">+ timeSchedule()</text>
<text text-anchor="start" x="500.5" y="-749.5" font-family="Helvetica,sans-Serif" font-size="10.00" fill="#000000">+ reset()</text>
<text text-anchor="start" x="500.5" y="-738.5" font-family="Helvetica,sans-Serif" font-size="10.00" fill="#000000">+ operator=()</text>
<text text-anchor="start" x="500.5" y="-727.5" font-family="Helvetica,sans-Serif" font-size="10.00" fill="#000000">+ operator==()</text>
<text text-anchor="start" x="500.5" y="-716.5" font-family="Helvetica,sans-Serif" font-size="10.00" fill="#000000">+ operator!=()</text>
<text text-anchor="start" x="500.5" y="-705.5" font-family="Helvetica,sans-Serif" font-size="10.00" fill="#000000"># defaultFrame()</text>
<text text-anchor="start" x="500.5" y="-694.5" font-family="Helvetica,sans-Serif" font-size="10.00" fill="#000000"># findRange()</text>
<text text-anchor="start" x="500.5" y="-683.5" font-family="Helvetica,sans-Serif" font-size="10.00" fill="#000000"># interpolate()</text>
</a>
</g>
</g>
<!-- Node6&#45;&gt;Node11 -->
<g id="edge11" class="edge">
<title>Node6&#45;&gt;Node11</title>
<path fill="none" stroke="#404040" d="M562.9327,-1370.2064C563.1286,-1364.0512 563.3187,-1357.9573 563.5,-1352 567.2152,-1229.9136 570.8686,-1091.8706 573.5113,-987.8423"/>
<polygon fill="none" stroke="#404040" points="573.5162,-987.6449 569.6696,-981.5454 573.8204,-975.6488 577.667,-981.7482 573.5162,-987.6449"/>
<text text-anchor="middle" x="596" y="-1170.5" font-family="Helvetica,sans-Serif" font-size="10.00" fill="#000000"> #m_time</text>
</g>
<!-- Node18 -->
<g id="node17" class="node">
<title>Node18</title>
<g id="a_node17"><a xlink:href="classRa_1_1Core_1_1Animation_1_1KeyFrame.html" target="_top" xlink:title="{Ra::Core::Animation\l::KeyFrame\&lt; FRAME \&gt;\n||+ KeyFrame()\l+ KeyFrame()\l+ ~KeyFrame()\l+ getAnimationTime()\l+ setAnimationTime()\l+ getKeyFrame()\l+ getKeyFrame()\l+ at()\l+ setKeyFrame()\l+ setKeyFrame()\l+ insertKeyFrame()\l+ size()\l+ clear()\l+ empty()\l+ timeSchedule()\l+ reset()\l+ operator=()\l+ operator==()\l+ operator!=()\l# defaultFrame()\l# findRange()\l# interpolate()\l}">
<polygon fill="#ffffff" stroke="#000000" points="396.5,-1023.5 396.5,-1322.5 522.5,-1322.5 522.5,-1023.5 396.5,-1023.5"/>
<text text-anchor="start" x="404.5" y="-1310.5" font-family="Helvetica,sans-Serif" font-size="10.00" fill="#000000">Ra::Core::Animation</text>
<text text-anchor="middle" x="459.5" y="-1299.5" font-family="Helvetica,sans-Serif" font-size="10.00" fill="#000000">::KeyFrame&lt; FRAME &gt;</text>
<polyline fill="none" stroke="#000000" points="396.5,-1292.5 522.5,-1292.5 "/>
<text text-anchor="middle" x="459.5" y="-1280.5" font-family="Helvetica,sans-Serif" font-size="10.00" fill="#000000"> </text>
<polyline fill="none" stroke="#000000" points="396.5,-1273.5 522.5,-1273.5 "/>
<text text-anchor="start" x="404.5" y="-1261.5" font-family="Helvetica,sans-Serif" font-size="10.00" fill="#000000">+ KeyFrame()</text>
<text text-anchor="start" x="404.5" y="-1250.5" font-family="Helvetica,sans-Serif" font-size="10.00" fill="#000000">+ KeyFrame()</text>
<text text-anchor="start" x="404.5" y="-1239.5" font-family="Helvetica,sans-Serif" font-size="10.00" fill="#000000">+ ~KeyFrame()</text>
<text text-anchor="start" x="404.5" y="-1228.5" font-family="Helvetica,sans-Serif" font-size="10.00" fill="#000000">+ getAnimationTime()</text>
<text text-anchor="start" x="404.5" y="-1217.5" font-family="Helvetica,sans-Serif" font-size="10.00" fill="#000000">+ setAnimationTime()</text>
<text text-anchor="start" x="404.5" y="-1206.5" font-family="Helvetica,sans-Serif" font-size="10.00" fill="#000000">+ getKeyFrame()</text>
<text text-anchor="start" x="404.5" y="-1195.5" font-family="Helvetica,sans-Serif" font-size="10.00" fill="#000000">+ getKeyFrame()</text>
<text text-anchor="start" x="404.5" y="-1184.5" font-family="Helvetica,sans-Serif" font-size="10.00" fill="#000000">+ at()</text>
<text text-anchor="start" x="404.5" y="-1173.5" font-family="Helvetica,sans-Serif" font-size="10.00" fill="#000000">+ setKeyFrame()</text>
<text text-anchor="start" x="404.5" y="-1162.5" font-family="Helvetica,sans-Serif" font-size="10.00" fill="#000000">+ setKeyFrame()</text>
<text text-anchor="start" x="404.5" y="-1151.5" font-family="Helvetica,sans-Serif" font-size="10.00" fill="#000000">+ insertKeyFrame()</text>
<text text-anchor="start" x="404.5" y="-1140.5" font-family="Helvetica,sans-Serif" font-size="10.00" fill="#000000">+ size()</text>
<text text-anchor="start" x="404.5" y="-1129.5" font-family="Helvetica,sans-Serif" font-size="10.00" fill="#000000">+ clear()</text>
<text text-anchor="start" x="404.5" y="-1118.5" font-family="Helvetica,sans-Serif" font-size="10.00" fill="#000000">+ empty()</text>
<text text-anchor="start" x="404.5" y="-1107.5" font-family="Helvetica,sans-Serif" font-size="10.00" fill="#000000">+ timeSchedule()</text>
<text text-anchor="start" x="404.5" y="-1096.5" font-family="Helvetica,sans-Serif" font-size="10.00" fill="#000000">+ reset()</text>
<text text-anchor="start" x="404.5" y="-1085.5" font-family="Helvetica,sans-Serif" font-size="10.00" fill="#000000">+ operator=()</text>
<text text-anchor="start" x="404.5" y="-1074.5" font-family="Helvetica,sans-Serif" font-size="10.00" fill="#000000">+ operator==()</text>
<text text-anchor="start" x="404.5" y="-1063.5" font-family="Helvetica,sans-Serif" font-size="10.00" fill="#000000">+ operator!=()</text>
<text text-anchor="start" x="404.5" y="-1052.5" font-family="Helvetica,sans-Serif" font-size="10.00" fill="#000000"># defaultFrame()</text>
<text text-anchor="start" x="404.5" y="-1041.5" font-family="Helvetica,sans-Serif" font-size="10.00" fill="#000000"># findRange()</text>
<text text-anchor="start" x="404.5" y="-1030.5" font-family="Helvetica,sans-Serif" font-size="10.00" fill="#000000"># interpolate()</text>
</a>
</g>
</g>
<!-- Node6&#45;&gt;Node18 -->
<g id="edge19" class="edge">
<title>Node6&#45;&gt;Node18</title>
<path fill="none" stroke="#404040" d="M519.6567,-1370.4842C516.0237,-1358.5576 512.3102,-1346.367 508.5998,-1334.1862"/>
<polygon fill="none" stroke="#404040" points="508.5428,-1333.999 502.968,-1329.425 505.046,-1322.5198 510.6208,-1327.0938 508.5428,-1333.999"/>
<text text-anchor="middle" x="536" y="-1344" font-family="Helvetica,sans-Serif" font-size="10.00" fill="#000000"> #m_time</text>
</g>
<!-- Node7 -->
<g id="node6" class="node">
<title>Node7</title>
<polygon fill="#ffffff" stroke="#bfbfbf" points="629.5,-1728.5 629.5,-1785.5 667.5,-1785.5 667.5,-1728.5 629.5,-1728.5"/>
<text text-anchor="middle" x="648.5" y="-1773.5" font-family="Helvetica,sans-Serif" font-size="10.00" fill="#000000">float</text>
<polyline fill="none" stroke="#bfbfbf" points="629.5,-1766.5 667.5,-1766.5 "/>
<text text-anchor="middle" x="648.5" y="-1754.5" font-family="Helvetica,sans-Serif" font-size="10.00" fill="#000000"> </text>
<polyline fill="none" stroke="#bfbfbf" points="629.5,-1747.5 667.5,-1747.5 "/>
<text text-anchor="middle" x="648.5" y="-1735.5" font-family="Helvetica,sans-Serif" font-size="10.00" fill="#000000"> </text>
</g>
<!-- Node7&#45;&gt;Node2 -->
<g id="edge6" class="edge">
<title>Node7&#45;&gt;Node2</title>
<path fill="none" stroke="#404040" d="M667.5249,-1729.9391C671.1044,-1723.6524 674.3839,-1716.8019 676.5,-1710 704.5507,-1619.8352 690.5,-1592.4274 690.5,-1498 690.5,-1498 690.5,-1498 690.5,-249.5 690.5,-199.5268 652.3525,-160.0675 611.781,-132.2322"/>
<polygon fill="none" stroke="#404040" points="611.7292,-132.198 604.5181,-132.2291 601.7159,-125.5847 608.927,-125.5536 611.7292,-132.198"/>
<text text-anchor="middle" x="709" y="-650" font-family="Helvetica,sans-Serif" font-size="10.00" fill="#000000"> #m_dt</text>
</g>
<!-- Node7&#45;&gt;Node6 -->
<g id="edge5" class="edge">
<title>Node7&#45;&gt;Node6</title>
<path fill="none" stroke="#404040" d="M637.2824,-1728.2324C634.9957,-1722.2235 632.6369,-1715.9171 630.5,-1710 625.0559,-1694.9258 615.6481,-1667.5647 605.395,-1637.3969"/>
<polygon fill="none" stroke="#404040" points="605.2876,-1637.0803 599.5713,-1632.6844 601.4305,-1625.7171 607.1468,-1630.113 605.2876,-1637.0803"/>
<text text-anchor="middle" x="653.5" y="-1680" font-family="Helvetica,sans-Serif" font-size="10.00" fill="#000000"> #m_end</text>
<text text-anchor="middle" x="653.5" y="-1669" font-family="Helvetica,sans-Serif" font-size="10.00" fill="#000000">#m_start</text>
</g>
<!-- Node8 -->
<g id="node7" class="node">
<title>Node8</title>
<polygon fill="#ffffff" stroke="#bfbfbf" points="485.5,-215.5 485.5,-283.5 637.5,-283.5 637.5,-215.5 485.5,-215.5"/>
<text text-anchor="start" x="493.5" y="-271.5" font-family="Helvetica,sans-Serif" font-size="10.00" fill="#000000">std::vector&lt; Ra::Core</text>
<text text-anchor="middle" x="561.5" y="-260.5" font-family="Helvetica,sans-Serif" font-size="10.00" fill="#000000">::Asset::HandleAnimation &gt;</text>
<polyline fill="none" stroke="#bfbfbf" points="485.5,-253.5 637.5,-253.5 "/>
<text text-anchor="middle" x="561.5" y="-241.5" font-family="Helvetica,sans-Serif" font-size="10.00" fill="#000000"> </text>
<polyline fill="none" stroke="#bfbfbf" points="485.5,-234.5 637.5,-234.5 "/>
<text text-anchor="middle" x="561.5" y="-222.5" font-family="Helvetica,sans-Serif" font-size="10.00" fill="#000000"> </text>
</g>
<!-- Node8&#45;&gt;Node2 -->
<g id="edge7" class="edge">
<title>Node8&#45;&gt;Node2</title>
<path fill="none" stroke="#404040" d="M552.176,-215.2083C549.2786,-204.5524 545.9312,-192.2412 542.4715,-179.5174"/>
<polygon fill="none" stroke="#404040" points="542.421,-179.3315 536.9869,-174.5912 539.2724,-167.7519 544.7066,-172.4922 542.421,-179.3315"/>
<text text-anchor="middle" x="584" y="-189" font-family="Helvetica,sans-Serif" font-size="10.00" fill="#000000"> #m_keyFrame</text>
</g>
<!-- Node9&#45;&gt;Node8 -->
<g id="edge8" class="edge">
<title>Node9&#45;&gt;Node8</title>
<path fill="none" stroke="#404040" d="M561.5,-411.4802C561.5,-380.9332 561.5,-331.9848 561.5,-295.8823"/>
<polygon fill="none" stroke="#404040" points="561.5001,-295.6993 557.5,-289.6994 561.5,-283.6993 565.5,-289.6993 561.5001,-295.6993"/>
<text text-anchor="middle" x="590.5" y="-345" font-family="Helvetica,sans-Serif" font-size="10.00" fill="#000000"> +elements</text>
</g>
<!-- Node10 -->
<g id="node9" class="node">
<title>Node10</title>
<g id="a_node9"><a xlink:href="classRa_1_1Core_1_1Animation_1_1KeyTransform.html" target="_top" xlink:title="{Ra::Core::Animation\l::KeyTransform\n||+ KeyTransform()\l+ KeyTransform()\l+ ~KeyTransform()\l# defaultFrame()\l# interpolate()\l}">
<polygon fill="#ffffff" stroke="#000000" points="526.5,-516.5 526.5,-628.5 640.5,-628.5 640.5,-516.5 526.5,-516.5"/>
<text text-anchor="start" x="534.5" y="-616.5" font-family="Helvetica,sans-Serif" font-size="10.00" fill="#000000">Ra::Core::Animation</text>
<text text-anchor="middle" x="583.5" y="-605.5" font-family="Helvetica,sans-Serif" font-size="10.00" fill="#000000">::KeyTransform</text>
<polyline fill="none" stroke="#000000" points="526.5,-598.5 640.5,-598.5 "/>
<text text-anchor="middle" x="583.5" y="-586.5" font-family="Helvetica,sans-Serif" font-size="10.00" fill="#000000"> </text>
<polyline fill="none" stroke="#000000" points="526.5,-579.5 640.5,-579.5 "/>
<text text-anchor="start" x="534.5" y="-567.5" font-family="Helvetica,sans-Serif" font-size="10.00" fill="#000000">+ KeyTransform()</text>
<text text-anchor="start" x="534.5" y="-556.5" font-family="Helvetica,sans-Serif" font-size="10.00" fill="#000000">+ KeyTransform()</text>
<text text-anchor="start" x="534.5" y="-545.5" font-family="Helvetica,sans-Serif" font-size="10.00" fill="#000000">+ ~KeyTransform()</text>
<text text-anchor="start" x="534.5" y="-534.5" font-family="Helvetica,sans-Serif" font-size="10.00" fill="#000000"># defaultFrame()</text>
<text text-anchor="start" x="534.5" y="-523.5" font-family="Helvetica,sans-Serif" font-size="10.00" fill="#000000"># interpolate()</text>
</a>
</g>
</g>
<!-- Node10&#45;&gt;Node9 -->
<g id="edge9" class="edge">
<title>Node10&#45;&gt;Node9</title>
<path fill="none" stroke="#404040" d="M574.17,-516.3081C572.196,-504.4189 570.1484,-492.0872 568.2898,-480.893"/>
<polygon fill="none" stroke="#404040" points="568.2512,-480.6599 563.3224,-475.3962 566.2855,-468.822 571.2143,-474.0857 568.2512,-480.6599"/>
<text text-anchor="middle" x="596.5" y="-490" font-family="Helvetica,sans-Serif" font-size="10.00" fill="#000000"> +m_anim</text>
</g>
<!-- Node11&#45;&gt;Node10 -->
<g id="edge10" class="edge">
<title>Node11&#45;&gt;Node10</title>
<path fill="none" stroke="#191970" d="M581.2831,-666.1634C581.5953,-652.9735 581.8953,-640.2977 582.1683,-628.7636"/>
<polygon fill="none" stroke="#191970" points="577.78,-666.2595 581.0423,-676.3396 584.778,-666.4252 577.78,-666.2595"/>
</g>
<!-- Node12 -->
<g id="node11" class="node">
<title>Node12</title>
<polygon fill="#ffffff" stroke="#bfbfbf" points="23,-1447.5 23,-1548.5 256,-1548.5 256,-1447.5 23,-1447.5"/>
<text text-anchor="start" x="31" y="-1536.5" font-family="Helvetica,sans-Serif" font-size="10.00" fill="#000000">std::map&lt; Time, Core</text>
<text text-anchor="start" x="31" y="-1525.5" font-family="Helvetica,sans-Serif" font-size="10.00" fill="#000000">::Transform, std::less</text>
<text text-anchor="start" x="31" y="-1514.5" font-family="Helvetica,sans-Serif" font-size="10.00" fill="#000000">&lt; Time &gt;, Ra::Core::AlignedAllocator</text>
<text text-anchor="start" x="31" y="-1503.5" font-family="Helvetica,sans-Serif" font-size="10.00" fill="#000000">&lt; std::pair&lt; const Time, Core::</text>
<text text-anchor="middle" x="139.5" y="-1492.5" font-family="Helvetica,sans-Serif" font-size="10.00" fill="#000000">Transform &gt;, EIGEN_MAX_ALIGN_BYTES &gt; &gt;</text>
<polyline fill="none" stroke="#bfbfbf" points="23,-1485.5 256,-1485.5 "/>
<text text-anchor="middle" x="139.5" y="-1473.5" font-family="Helvetica,sans-Serif" font-size="10.00" fill="#000000"> </text>
<polyline fill="none" stroke="#bfbfbf" points="23,-1466.5 256,-1466.5 "/>
<text text-anchor="middle" x="139.5" y="-1454.5" font-family="Helvetica,sans-Serif" font-size="10.00" fill="#000000"> </text>
</g>
<!-- Node12&#45;&gt;Node11 -->
<g id="edge12" class="edge">
<title>Node12&#45;&gt;Node11</title>
<path fill="none" stroke="#404040" d="M143.2058,-1447.4828C153.0763,-1350.6171 188.5446,-1138.1764 313.5,-1023 368.4378,-972.3617 415.9823,-1018.1047 482.2445,-975.9207"/>
<polygon fill="none" stroke="#404040" points="482.3025,-975.8804 484.9499,-969.1729 492.1598,-969.0369 489.5123,-975.7444 482.3025,-975.8804"/>
<text text-anchor="middle" x="350.5" y="-1170.5" font-family="Helvetica,sans-Serif" font-size="10.00" fill="#000000"> #m_keyframe</text>
</g>
<!-- Node13 -->
<g id="node12" class="node">
<title>Node13</title>
<polygon fill="#ffffff" stroke="#bfbfbf" points="0,-1728.5 0,-1785.5 65,-1785.5 65,-1728.5 0,-1728.5"/>
<text text-anchor="middle" x="32.5" y="-1773.5" font-family="Helvetica,sans-Serif" font-size="10.00" fill="#000000">Transform</text>
<polyline fill="none" stroke="#bfbfbf" points="0,-1766.5 65,-1766.5 "/>
<text text-anchor="middle" x="32.5" y="-1754.5" font-family="Helvetica,sans-Serif" font-size="10.00" fill="#000000"> </text>
<polyline fill="none" stroke="#bfbfbf" points="0,-1747.5 65,-1747.5 "/>
<text text-anchor="middle" x="32.5" y="-1735.5" font-family="Helvetica,sans-Serif" font-size="10.00" fill="#000000"> </text>
</g>
<!-- Node13&#45;&gt;Node12 -->
<g id="edge13" class="edge">
<title>Node13&#45;&gt;Node12</title>
<path fill="none" stroke="#404040" d="M32.2366,-1728.3289C32.855,-1704.9887 35.663,-1671.521 45.5,-1644 56.2462,-1613.9353 74.1891,-1583.7584 91.5349,-1558.7076"/>
<polygon fill="none" stroke="#404040" points="91.7156,-1558.4525 91.9183,-1551.2442 98.6501,-1548.6589 98.4473,-1555.8672 91.7156,-1558.4525"/>
<text text-anchor="middle" x="74.5" y="-1674.5" font-family="Helvetica,sans-Serif" font-size="10.00" fill="#000000"> +elements</text>
</g>
<!-- Node14 -->
<g id="node13" class="node">
<title>Node14</title>
<polygon fill="#ffffff" stroke="#bfbfbf" points="122,-1728.5 122,-1785.5 163,-1785.5 163,-1728.5 122,-1728.5"/>
<text text-anchor="middle" x="142.5" y="-1773.5" font-family="Helvetica,sans-Serif" font-size="10.00" fill="#000000">Time</text>
<polyline fill="none" stroke="#bfbfbf" points="122,-1766.5 163,-1766.5 "/>
<text text-anchor="middle" x="142.5" y="-1754.5" font-family="Helvetica,sans-Serif" font-size="10.00" fill="#000000"> </text>
<polyline fill="none" stroke="#bfbfbf" points="122,-1747.5 163,-1747.5 "/>
<text text-anchor="middle" x="142.5" y="-1735.5" font-family="Helvetica,sans-Serif" font-size="10.00" fill="#000000"> </text>
</g>
<!-- Node14&#45;&gt;Node12 -->
<g id="edge14" class="edge">
<title>Node14&#45;&gt;Node12</title>
<path fill="none" stroke="#404040" d="M122.1508,-1728.2615C118.9934,-1722.462 116.2143,-1716.227 114.5,-1710 100.923,-1660.6824 109.2534,-1602.9187 119.8149,-1560.1524"/>
<polygon fill="none" stroke="#404040" points="119.8225,-1560.1226 117.4578,-1553.3103 122.8366,-1548.5073 125.2013,-1555.3196 119.8225,-1560.1226"/>
<text text-anchor="middle" x="132" y="-1674.5" font-family="Helvetica,sans-Serif" font-size="10.00" fill="#000000"> +keys</text>
</g>
<!-- Node19 -->
<g id="node18" class="node">
<title>Node19</title>
<polygon fill="#ffffff" stroke="#bfbfbf" points="304,-1442 304,-1554 465,-1554 465,-1442 304,-1442"/>
<text text-anchor="start" x="312" y="-1542" font-family="Helvetica,sans-Serif" font-size="10.00" fill="#000000">std::map&lt; Time, FRAME,</text>
<text text-anchor="start" x="312" y="-1531" font-family="Helvetica,sans-Serif" font-size="10.00" fill="#000000"> std::less&lt; Time &gt;, Ra</text>
<text text-anchor="start" x="312" y="-1520" font-family="Helvetica,sans-Serif" font-size="10.00" fill="#000000">::Core::AlignedAllocator</text>
<text text-anchor="start" x="312" y="-1509" font-family="Helvetica,sans-Serif" font-size="10.00" fill="#000000">&lt; std::pair&lt; const Time,</text>
<text text-anchor="start" x="312" y="-1498" font-family="Helvetica,sans-Serif" font-size="10.00" fill="#000000"> FRAME &gt;, EIGEN_MAX_ALIGN</text>
<text text-anchor="middle" x="384.5" y="-1487" font-family="Helvetica,sans-Serif" font-size="10.00" fill="#000000">_BYTES &gt; &gt;</text>
<polyline fill="none" stroke="#bfbfbf" points="304,-1480 465,-1480 "/>
<text text-anchor="middle" x="384.5" y="-1468" font-family="Helvetica,sans-Serif" font-size="10.00" fill="#000000"> </text>
<polyline fill="none" stroke="#bfbfbf" points="304,-1461 465,-1461 "/>
<text text-anchor="middle" x="384.5" y="-1449" font-family="Helvetica,sans-Serif" font-size="10.00" fill="#000000"> </text>
</g>
<!-- Node14&#45;&gt;Node19 -->
<g id="edge22" class="edge">
<title>Node14&#45;&gt;Node19</title>
<path fill="none" stroke="#404040" d="M146.5862,-1728.3838C151.399,-1698.8129 160.3103,-1655.4073 172.5,-1644 202.9211,-1615.5315 228.0452,-1646.173 264.5,-1626 292.1412,-1610.7042 317.0811,-1586.7939 336.9718,-1563.7594"/>
<polygon fill="none" stroke="#404040" points="337.1853,-1563.505 337.9785,-1556.3376 344.8996,-1554.3132 344.1064,-1561.4805 337.1853,-1563.505"/>
<text text-anchor="middle" x="190" y="-1674.5" font-family="Helvetica,sans-Serif" font-size="10.00" fill="#000000"> +keys</text>
</g>
<!-- Node15 -->
<g id="node14" class="node">
<title>Node15</title>
<g id="a_node14"><a xlink:title="STL class. ">
<polygon fill="#ffffff" stroke="#bfbfbf" points="330,-1728.5 330,-1785.5 431,-1785.5 431,-1728.5 330,-1728.5"/>
<text text-anchor="middle" x="380.5" y="-1773.5" font-family="Helvetica,sans-Serif" font-size="10.00" fill="#000000">std::map&lt; K, T &gt;</text>
<polyline fill="none" stroke="#bfbfbf" points="330,-1766.5 431,-1766.5 "/>
<text text-anchor="middle" x="380.5" y="-1754.5" font-family="Helvetica,sans-Serif" font-size="10.00" fill="#000000"> </text>
<polyline fill="none" stroke="#bfbfbf" points="330,-1747.5 431,-1747.5 "/>
<text text-anchor="middle" x="380.5" y="-1735.5" font-family="Helvetica,sans-Serif" font-size="10.00" fill="#000000"> </text>
</a>
</g>
</g>
<!-- Node15&#45;&gt;Node12 -->
<g id="edge15" class="edge">
<title>Node15&#45;&gt;Node12</title>
<path fill="none" stroke="#ffa500" d="M320.1278,-1745.4485C296.0143,-1738.4234 269.3267,-1727.3306 249.5,-1710 236.1536,-1698.3339 191.5571,-1607.6624 163.4136,-1548.7369"/>
<polygon fill="#ffa500" stroke="#ffa500" points="319.3544,-1748.8655 329.9234,-1748.1263 321.2003,-1742.1132 319.3544,-1748.8655"/>
<text text-anchor="start" x="249.5" y="-1702" font-family="Helvetica,sans-Serif" font-size="10.00" fill="#000000"> &lt; Time, Core::Transform,</text>
<text text-anchor="start" x="249.5" y="-1691" font-family="Helvetica,sans-Serif" font-size="10.00" fill="#000000"> std::less&lt; Time &gt;, Ra</text>
<text text-anchor="start" x="249.5" y="-1680" font-family="Helvetica,sans-Serif" font-size="10.00" fill="#000000">::Core::AlignedAllocator</text>
<text text-anchor="start" x="249.5" y="-1669" font-family="Helvetica,sans-Serif" font-size="10.00" fill="#000000">&lt; std::pair&lt; const Time,</text>
<text text-anchor="start" x="249.5" y="-1658" font-family="Helvetica,sans-Serif" font-size="10.00" fill="#000000"> Core::Transform &gt;, EIGEN</text>
<text text-anchor="middle" x="313.5" y="-1647" font-family="Helvetica,sans-Serif" font-size="10.00" fill="#000000">_MAX_ALIGN_BYTES &gt; &gt;</text>
</g>
<!-- Node15&#45;&gt;Node19 -->
<g id="edge23" class="edge">
<title>Node15&#45;&gt;Node19</title>
<path fill="none" stroke="#ffa500" d="M380.7327,-1718.0212C380.8909,-1696.2433 381.1382,-1668.6128 381.5,-1644 381.9359,-1614.3407 382.6,-1581.2957 383.1927,-1554.155"/>
<polygon fill="#ffa500" stroke="#ffa500" points="377.2316,-1718.1791 380.6621,-1728.2031 384.2314,-1718.2277 377.2316,-1718.1791"/>
<text text-anchor="start" x="381.5" y="-1702" font-family="Helvetica,sans-Serif" font-size="10.00" fill="#000000"> &lt; Time, FRAME, std</text>
<text text-anchor="start" x="381.5" y="-1691" font-family="Helvetica,sans-Serif" font-size="10.00" fill="#000000">::less&lt; Time &gt;, Ra::</text>
<text text-anchor="start" x="381.5" y="-1680" font-family="Helvetica,sans-Serif" font-size="10.00" fill="#000000">Core::AlignedAllocator</text>
<text text-anchor="start" x="381.5" y="-1669" font-family="Helvetica,sans-Serif" font-size="10.00" fill="#000000">&lt; std::pair&lt; const Time,</text>
<text text-anchor="start" x="381.5" y="-1658" font-family="Helvetica,sans-Serif" font-size="10.00" fill="#000000"> FRAME &gt;, EIGEN_MAX_ALIGN</text>
<text text-anchor="middle" x="454" y="-1647" font-family="Helvetica,sans-Serif" font-size="10.00" fill="#000000">_BYTES &gt; &gt;</text>
</g>
<!-- Node16 -->
<g id="node15" class="node">
<title>Node16</title>
<polygon fill="#ffffff" stroke="#bfbfbf" points="366,-1833.5 366,-1890.5 395,-1890.5 395,-1833.5 366,-1833.5"/>
<text text-anchor="middle" x="380.5" y="-1878.5" font-family="Helvetica,sans-Serif" font-size="10.00" fill="#000000">K</text>
<polyline fill="none" stroke="#bfbfbf" points="366,-1871.5 395,-1871.5 "/>
<text text-anchor="middle" x="380.5" y="-1859.5" font-family="Helvetica,sans-Serif" font-size="10.00" fill="#000000"> </text>
<polyline fill="none" stroke="#bfbfbf" points="366,-1852.5 395,-1852.5 "/>
<text text-anchor="middle" x="380.5" y="-1840.5" font-family="Helvetica,sans-Serif" font-size="10.00" fill="#000000"> </text>
</g>
<!-- Node16&#45;&gt;Node15 -->
<g id="edge16" class="edge">
<title>Node16&#45;&gt;Node15</title>
<path fill="none" stroke="#404040" d="M380.5,-1833.3083C380.5,-1822.4281 380.5,-1809.817 380.5,-1798.0192"/>
<polygon fill="none" stroke="#404040" points="380.5001,-1797.657 376.5,-1791.6571 380.5,-1785.657 384.5,-1791.657 380.5001,-1797.657"/>
<text text-anchor="middle" x="398" y="-1807" font-family="Helvetica,sans-Serif" font-size="10.00" fill="#000000"> +keys</text>
</g>
<!-- Node17 -->
<g id="node16" class="node">
<title>Node17</title>
<polygon fill="#ffffff" stroke="#bfbfbf" points="601,-1833.5 601,-1890.5 630,-1890.5 630,-1833.5 601,-1833.5"/>
<text text-anchor="middle" x="615.5" y="-1878.5" font-family="Helvetica,sans-Serif" font-size="10.00" fill="#000000">T</text>
<polyline fill="none" stroke="#bfbfbf" points="601,-1871.5 630,-1871.5 "/>
<text text-anchor="middle" x="615.5" y="-1859.5" font-family="Helvetica,sans-Serif" font-size="10.00" fill="#000000"> </text>
<polyline fill="none" stroke="#bfbfbf" points="601,-1852.5 630,-1852.5 "/>
<text text-anchor="middle" x="615.5" y="-1840.5" font-family="Helvetica,sans-Serif" font-size="10.00" fill="#000000"> </text>
</g>
<!-- Node17&#45;&gt;Node15 -->
<g id="edge17" class="edge">
<title>Node17&#45;&gt;Node15</title>
<path fill="none" stroke="#404040" d="M600.7997,-1855.4318C569.7485,-1841.5579 495.9293,-1808.5748 442.2789,-1784.6033"/>
<polygon fill="none" stroke="#404040" points="442.1154,-1784.5303 435.0056,-1785.7347 431.1593,-1779.635 438.2691,-1778.4306 442.1154,-1784.5303"/>
<text text-anchor="middle" x="533.5" y="-1807" font-family="Helvetica,sans-Serif" font-size="10.00" fill="#000000"> +elements</text>
</g>
<!-- Node21 -->
<g id="node20" class="node">
<title>Node21</title>
<g id="a_node20"><a xlink:title="STL class. ">
<polygon fill="#ffffff" stroke="#bfbfbf" points="705,-1648.5 705,-1705.5 802,-1705.5 802,-1648.5 705,-1648.5"/>
<text text-anchor="middle" x="753.5" y="-1693.5" font-family="Helvetica,sans-Serif" font-size="10.00" fill="#000000">std::vector&lt; T &gt;</text>
<polyline fill="none" stroke="#bfbfbf" points="705,-1686.5 802,-1686.5 "/>
<text text-anchor="middle" x="753.5" y="-1674.5" font-family="Helvetica,sans-Serif" font-size="10.00" fill="#000000"> </text>
<polyline fill="none" stroke="#bfbfbf" points="705,-1667.5 802,-1667.5 "/>
<text text-anchor="middle" x="753.5" y="-1655.5" font-family="Helvetica,sans-Serif" font-size="10.00" fill="#000000"> </text>
</a>
</g>
</g>
<!-- Node17&#45;&gt;Node21 -->
<g id="edge26" class="edge">
<title>Node17&#45;&gt;Node21</title>
<path fill="none" stroke="#404040" d="M630.1092,-1844.4298C642.6665,-1829.1796 661.127,-1806.4045 676.5,-1786 693.8729,-1762.9411 712.5768,-1736.5049 727.1997,-1715.4425"/>
<polygon fill="none" stroke="#404040" points="727.2001,-1715.4419 727.3237,-1708.2318 734.0267,-1705.5728 733.9031,-1712.7829 727.2001,-1715.4419"/>
<text text-anchor="middle" x="691.5" y="-1807" font-family="Helvetica,sans-Serif" font-size="10.00" fill="#000000"> +elements</text>
</g>
<!-- Node18&#45;&gt;Node11 -->
<g id="edge18" class="edge">
<title>Node18&#45;&gt;Node11</title>
<path fill="none" stroke="#ffa500" d="M452.882,-1013.2776C454.9477,-1006.6427 457.4647,-1000.1858 460.5,-994 466.2181,-982.3468 474.8121,-985.6444 483.5,-976 486.4826,-972.6891 489.4289,-969.272 492.3334,-965.7714"/>
<polygon fill="#ffa500" stroke="#ffa500" points="449.4537,-1012.5441 450.1705,-1023.1147 456.202,-1014.4043 449.4537,-1012.5441"/>
<text text-anchor="middle" x="512" y="-997" font-family="Helvetica,sans-Serif" font-size="10.00" fill="#000000"> &lt; Core::Transform &gt;</text>
</g>
<!-- Node19&#45;&gt;Node18 -->
<g id="edge20" class="edge">
<title>Node19&#45;&gt;Node18</title>
<path fill="none" stroke="#404040" d="M391.1236,-1441.6841C395.1587,-1411.6096 400.9924,-1374.0741 408.5,-1341 408.9639,-1338.9564 409.4396,-1336.9014 409.9263,-1334.8371"/>
<polygon fill="none" stroke="#404040" points="409.9872,-1334.5865 407.52,-1327.8106 412.8257,-1322.927 415.293,-1329.7029 409.9872,-1334.5865"/>
<text text-anchor="middle" x="445.5" y="-1344" font-family="Helvetica,sans-Serif" font-size="10.00" fill="#000000"> #m_keyframe</text>
</g>
<!-- Node20 -->
<g id="node19" class="node">
<title>Node20</title>
<polygon fill="#ffffff" stroke="#bfbfbf" points="524,-1728.5 524,-1785.5 573,-1785.5 573,-1728.5 524,-1728.5"/>
<text text-anchor="middle" x="548.5" y="-1773.5" font-family="Helvetica,sans-Serif" font-size="10.00" fill="#000000">FRAME</text>
<polyline fill="none" stroke="#bfbfbf" points="524,-1766.5 573,-1766.5 "/>
<text text-anchor="middle" x="548.5" y="-1754.5" font-family="Helvetica,sans-Serif" font-size="10.00" fill="#000000"> </text>
<polyline fill="none" stroke="#bfbfbf" points="524,-1747.5 573,-1747.5 "/>
<text text-anchor="middle" x="548.5" y="-1735.5" font-family="Helvetica,sans-Serif" font-size="10.00" fill="#000000"> </text>
</g>
<!-- Node20&#45;&gt;Node19 -->
<g id="edge21" class="edge">
<title>Node20&#45;&gt;Node19</title>
<path fill="none" stroke="#404040" d="M545.8303,-1728.4979C542.6169,-1699.4946 536.3844,-1657.0099 526.5,-1644 515.6781,-1629.7562 504.5059,-1637.1281 490.5,-1626 468.2633,-1608.3324 447.4554,-1585.3272 430.265,-1563.7012"/>
<polygon fill="none" stroke="#404040" points="430.2498,-1563.6817 423.4077,-1561.4045 422.8781,-1554.2128 429.7203,-1556.4901 430.2498,-1563.6817"/>
<text text-anchor="middle" x="571.5" y="-1674.5" font-family="Helvetica,sans-Serif" font-size="10.00" fill="#000000"> +elements</text>
</g>
<!-- Node21&#45;&gt;Node8 -->
<g id="edge25" class="edge">
<title>Node21&#45;&gt;Node8</title>
<path fill="none" stroke="#ffa500" d="M751.372,-1638.2063C748.1742,-1576.4714 742.5,-1452.0564 742.5,-1346.5 742.5,-1346.5 742.5,-1346.5 742.5,-826 742.5,-587.1811 761.2903,-497.0597 623.5,-302 618.9428,-295.5487 613.4126,-289.4077 607.5531,-283.7499"/>
<polygon fill="#ffa500" stroke="#ffa500" points="747.881,-1638.4728 751.9005,-1648.2755 754.8714,-1638.1058 747.881,-1638.4728"/>
<text text-anchor="start" x="742.5" y="-829" font-family="Helvetica,sans-Serif" font-size="10.00" fill="#000000"> &lt; Ra::Core::Asset::</text>
<text text-anchor="middle" x="791" y="-818" font-family="Helvetica,sans-Serif" font-size="10.00" fill="#000000">HandleAnimation &gt;</text>
</g>
</g>
</svg>
