<?xml version="1.0" encoding="UTF-8" standalone="no"?>
<!DOCTYPE svg PUBLIC "-//W3C//DTD SVG 1.1//EN"
 "http://www.w3.org/Graphics/SVG/1.1/DTD/svg11.dtd">
<!-- Generated by graphviz version 2.40.1 (20161225.0304)
 -->
<!-- Title: Ra::GuiBase::BaseApplication::setupScene Pages: 1 -->
<!--zoomable 333 -->
<svg id="main" version="1.1" xmlns="http://www.w3.org/2000/svg" xmlns:xlink="http://www.w3.org/1999/xlink" xml:space="preserve" onload="init(evt)">
<style type="text/css"><![CDATA[
.edge:hover path { stroke: red; }
.edge:hover polygon { stroke: red; fill: red; }
]]></style>
<script type="text/javascript"><![CDATA[
var edges = document.getElementsByTagName('g');
if (edges && edges.length) {
  for (var i=0;i<edges.length;i++) {
    if (edges[i].id.substr(0,4)=='edge') {
      edges[i].setAttribute('class','edge');
    }
  }
}
]]></script>
        <defs>
                <circle id="rim" cx="0" cy="0" r="7"/>
                <circle id="rim2" cx="0" cy="0" r="3.5"/>
                <g id="zoomPlus">
                        <use xlink:href="#rim" fill="#404040">
                                <set attributeName="fill" to="#808080" begin="zoomplus.mouseover" end="zoomplus.mouseout"/>
                        </use>
                        <path d="M-4,0h8M0,-4v8" fill="none" stroke="white" stroke-width="1.5" pointer-events="none"/>
                </g>
                <g id="zoomMin">
                        <use xlink:href="#rim" fill="#404040">
                                <set attributeName="fill" to="#808080" begin="zoomminus.mouseover" end="zoomminus.mouseout"/>
                        </use>
                        <path d="M-4,0h8" fill="none" stroke="white" stroke-width="1.5" pointer-events="none"/>
                </g>
                <g id="dirArrow">
                        <path fill="none" stroke="white" stroke-width="1.5" d="M0,-3.0v7 M-2.5,-0.5L0,-3.0L2.5,-0.5"/>
                </g>
               <g id="resetDef">
                       <use xlink:href="#rim2" fill="#404040">
                               <set attributeName="fill" to="#808080" begin="reset.mouseover" end="reset.mouseout"/>
                       </use>
               </g>
        </defs>

<script type="text/javascript">
var viewWidth = 953;
var viewHeight = 333;
var sectionId = 'dynsection-11';
</script>
<script xlink:href="svgpan.js"/>
<svg id="graph" class="graph">
<g id="viewport">
<title>Ra::GuiBase::BaseApplication::setupScene</title>
<polygon fill="#ffffff" stroke="transparent" points="-4,4 -4,-329 949,-329 949,4 -4,4"/>
<!-- Node176 -->
<g id="node1" class="node">
<title>Node176</title>
<polygon fill="#bfbfbf" stroke="#000000" points="0,-98.5 0,-128.5 161,-128.5 161,-98.5 0,-98.5"/>
<text text-anchor="start" x="8" y="-116.5" font-family="Helvetica,sans-Serif" font-size="10.00" fill="#000000">Ra::GuiBase::BaseApplication</text>
<text text-anchor="middle" x="80.5" y="-105.5" font-family="Helvetica,sans-Serif" font-size="10.00" fill="#000000">::setupScene</text>
</g>
<!-- Node177 -->
<g id="node2" class="node">
<title>Node177</title>
<g id="a_node2"><a xlink:href="namespaceRa_1_1Engine_1_1DrawPrimitives.html#a70881604443264a7fceb751567eaa5b4" target="_top" xlink:title="Ra::Engine::DrawPrimitives\l::Primitive">
<polygon fill="#ffffff" stroke="#000000" points="197,-196.5 197,-226.5 346,-226.5 346,-196.5 197,-196.5"/>
<text text-anchor="start" x="205" y="-214.5" font-family="Helvetica,sans-Serif" font-size="10.00" fill="#000000">Ra::Engine::DrawPrimitives</text>
<text text-anchor="middle" x="271.5" y="-203.5" font-family="Helvetica,sans-Serif" font-size="10.00" fill="#000000">::Primitive</text>
</a>
</g>
</g>
<!-- Node176&#45;&gt;Node177 -->
<g id="edge1" class="edge">
<title>Node176&#45;&gt;Node177</title>
<path fill="none" stroke="#191970" d="M100.6293,-128.537C123.1586,-144.8181 161.2094,-170.7041 197,-187.5 200.9826,-189.369 205.1494,-191.149 209.39,-192.8328"/>
<polygon fill="#191970" stroke="#191970" points="208.1571,-196.1084 218.7489,-196.3623 210.6272,-189.5587 208.1571,-196.1084"/>
</g>
<!-- Node184 -->
<g id="node9" class="node">
<title>Node184</title>
<g id="a_node9"><a xlink:href="classRa_1_1Engine_1_1SystemEntity.html#a2b341d35802bc8d3e1b7a49833db9730" target="_top" xlink:title="Access the UI Component. ">
<polygon fill="#ffffff" stroke="#000000" points="201.5,-147.5 201.5,-177.5 341.5,-177.5 341.5,-147.5 201.5,-147.5"/>
<text text-anchor="start" x="209.5" y="-165.5" font-family="Helvetica,sans-Serif" font-size="10.00" fill="#000000">Ra::Engine::SystemEntity</text>
<text text-anchor="middle" x="271.5" y="-154.5" font-family="Helvetica,sans-Serif" font-size="10.00" fill="#000000">::uiCmp</text>
</a>
</g>
</g>
<!-- Node176&#45;&gt;Node184 -->
<g id="edge10" class="edge">
<title>Node176&#45;&gt;Node184</title>
<path fill="none" stroke="#191970" d="M139.1043,-128.5346C159.3629,-133.7318 182.2391,-139.6006 203.2063,-144.9796"/>
<polygon fill="#191970" stroke="#191970" points="202.4504,-148.399 213.0065,-147.4938 204.1899,-141.6186 202.4504,-148.399"/>
</g>
<!-- Node187 -->
<g id="node12" class="node">
<title>Node187</title>
<g id="a_node12"><a xlink:href="namespaceRa_1_1Engine_1_1DrawPrimitives.html#aae1fc77011d609ae60212adf315cd630" target="_top" xlink:title="Ra::Engine::DrawPrimitives\l::Grid">
<polygon fill="#ffffff" stroke="#000000" points="197,-98.5 197,-128.5 346,-128.5 346,-98.5 197,-98.5"/>
<text text-anchor="start" x="205" y="-116.5" font-family="Helvetica,sans-Serif" font-size="10.00" fill="#000000">Ra::Engine::DrawPrimitives</text>
<text text-anchor="middle" x="271.5" y="-105.5" font-family="Helvetica,sans-Serif" font-size="10.00" fill="#000000">::Grid</text>
</a>
</g>
</g>
<!-- Node176&#45;&gt;Node187 -->
<g id="edge13" class="edge">
<title>Node176&#45;&gt;Node187</title>
<path fill="none" stroke="#191970" d="M161.2244,-113.5C169.6207,-113.5 178.1733,-113.5 186.6139,-113.5"/>
<polygon fill="#191970" stroke="#191970" points="186.836,-117.0001 196.8359,-113.5 186.8359,-110.0001 186.836,-117.0001"/>
</g>
<!-- Node188 -->
<g id="node13" class="node">
<title>Node188</title>
<g id="a_node13"><a xlink:href="classRa_1_1Core_1_1Utils_1_1ColorBase.html#a7f0a6768d3dff7343b503929b142fc22" target="_top" xlink:title="Ra::Core::Utils::ColorBase\l\&lt; Scalar \&gt;::Grey">
<polygon fill="#ffffff" stroke="#000000" points="200.5,-49.5 200.5,-79.5 342.5,-79.5 342.5,-49.5 200.5,-49.5"/>
<text text-anchor="start" x="208.5" y="-67.5" font-family="Helvetica,sans-Serif" font-size="10.00" fill="#000000">Ra::Core::Utils::ColorBase</text>
<text text-anchor="middle" x="271.5" y="-56.5" font-family="Helvetica,sans-Serif" font-size="10.00" fill="#000000">&lt; Scalar &gt;::Grey</text>
</a>
</g>
</g>
<!-- Node176&#45;&gt;Node188 -->
<g id="edge14" class="edge">
<title>Node176&#45;&gt;Node188</title>
<path fill="none" stroke="#191970" d="M139.1043,-98.4654C159.3629,-93.2682 182.2391,-87.3994 203.2063,-82.0204"/>
<polygon fill="#191970" stroke="#191970" points="204.1899,-85.3814 213.0065,-79.5062 202.4504,-78.601 204.1899,-85.3814"/>
</g>
<!-- Node189 -->
<g id="node14" class="node">
<title>Node189</title>
<g id="a_node14"><a xlink:href="classRa_1_1Engine_1_1Component.html#aea20d8186eb969b255cd83218a809178" target="_top" xlink:title="Add a new render object to the component. This adds the RO to the manager for drawing. ">
<polygon fill="#ffffff" stroke="#000000" points="206,-.5 206,-30.5 337,-30.5 337,-.5 206,-.5"/>
<text text-anchor="start" x="214" y="-18.5" font-family="Helvetica,sans-Serif" font-size="10.00" fill="#000000">Ra::Engine::Component</text>
<text text-anchor="middle" x="271.5" y="-7.5" font-family="Helvetica,sans-Serif" font-size="10.00" fill="#000000">::addRenderObject</text>
</a>
</g>
</g>
<!-- Node176&#45;&gt;Node189 -->
<g id="edge15" class="edge">
<title>Node176&#45;&gt;Node189</title>
<path fill="none" stroke="#191970" d="M100.6293,-98.463C123.1586,-82.1819 161.2094,-56.2959 197,-39.5 200.9826,-37.631 205.1494,-35.851 209.39,-34.1672"/>
<polygon fill="#191970" stroke="#191970" points="210.6272,-37.4413 218.7489,-30.6377 208.1571,-30.8916 210.6272,-37.4413"/>
</g>
<!-- Node178 -->
<g id="node3" class="node">
<title>Node178</title>
<g id="a_node3"><a xlink:href="namespaceRa_1_1Engine_1_1EngineRenderTechniques.html#a5e831d5088144082e9bd3828323aa57a" target="_top" xlink:title="Ra::Engine::EngineRender\lTechniques::getDefaultTechnique">
<polygon fill="#ffffff" stroke="#000000" points="382,-196.5 382,-226.5 559,-226.5 559,-196.5 382,-196.5"/>
<text text-anchor="start" x="390" y="-214.5" font-family="Helvetica,sans-Serif" font-size="10.00" fill="#000000">Ra::Engine::EngineRender</text>
<text text-anchor="middle" x="470.5" y="-203.5" font-family="Helvetica,sans-Serif" font-size="10.00" fill="#000000">Techniques::getDefaultTechnique</text>
</a>
</g>
</g>
<!-- Node177&#45;&gt;Node178 -->
<g id="edge2" class="edge">
<title>Node177&#45;&gt;Node178</title>
<path fill="none" stroke="#191970" d="M346.1664,-211.5C354.4897,-211.5 363.0606,-211.5 371.6253,-211.5"/>
<polygon fill="#191970" stroke="#191970" points="371.6616,-215.0001 381.6615,-211.5 371.6615,-208.0001 371.6616,-215.0001"/>
</g>
<!-- Node179 -->
<g id="node4" class="node">
<title>Node179</title>
<g id="a_node4"><a xlink:href="classRa_1_1Engine_1_1RenderTechnique.html#a006f925de56f6c0858b91c9182d40baf" target="_top" xlink:title="Ra::Engine::RenderTechnique\l::setParametersProvider">
<polygon fill="#ffffff" stroke="#000000" points="392,-245.5 392,-275.5 549,-275.5 549,-245.5 392,-245.5"/>
<text text-anchor="start" x="400" y="-263.5" font-family="Helvetica,sans-Serif" font-size="10.00" fill="#000000">Ra::Engine::RenderTechnique</text>
<text text-anchor="middle" x="470.5" y="-252.5" font-family="Helvetica,sans-Serif" font-size="10.00" fill="#000000">::setParametersProvider</text>
</a>
</g>
</g>
<!-- Node177&#45;&gt;Node179 -->
<g id="edge3" class="edge">
<title>Node177&#45;&gt;Node179</title>
<path fill="none" stroke="#191970" d="M332.559,-226.5346C353.7616,-231.7554 377.7162,-237.6537 399.6423,-243.0526"/>
<polygon fill="#191970" stroke="#191970" points="399.0097,-246.5013 409.5565,-245.4938 400.6834,-239.7043 399.0097,-246.5013"/>
</g>
<!-- Node180 -->
<g id="node5" class="node">
<title>Node180</title>
<g id="a_node5"><a xlink:href="classRa_1_1Core_1_1Utils_1_1Index.html#ac1a3e02d77abd15c2a307673f5b67fa1" target="_top" xlink:title="VALID. ">
<polygon fill="#ffffff" stroke="#000000" points="807,-294.5 807,-324.5 926,-324.5 926,-294.5 807,-294.5"/>
<text text-anchor="start" x="815" y="-312.5" font-family="Helvetica,sans-Serif" font-size="10.00" fill="#000000">Ra::Core::Utils::Index</text>
<text text-anchor="middle" x="866.5" y="-301.5" font-family="Helvetica,sans-Serif" font-size="10.00" fill="#000000">::isValid</text>
</a>
</g>
</g>
<!-- Node179&#45;&gt;Node180 -->
<g id="edge4" class="edge">
<title>Node179&#45;&gt;Node180</title>
<path fill="none" stroke="#191970" d="M538.4362,-275.5481C556.7311,-279.215 576.5617,-282.842 595,-285.5 663.3408,-295.3516 741.9821,-301.7699 796.9781,-305.4682"/>
<polygon fill="#191970" stroke="#191970" points="796.7553,-308.961 806.9641,-306.1273 797.2164,-301.9762 796.7553,-308.961"/>
</g>
<!-- Node181 -->
<g id="node6" class="node">
<title>Node181</title>
<g id="a_node6"><a xlink:href="classRa_1_1Engine_1_1RenderTechnique.html#ad1d5a9d900e46594224f5b8df142081f" target="_top" xlink:title="Ra::Engine::RenderTechnique\l::hasConfiguration">
<polygon fill="#ffffff" stroke="#000000" points="788,-196.5 788,-226.5 945,-226.5 945,-196.5 788,-196.5"/>
<text text-anchor="start" x="796" y="-214.5" font-family="Helvetica,sans-Serif" font-size="10.00" fill="#000000">Ra::Engine::RenderTechnique</text>
<text text-anchor="middle" x="866.5" y="-203.5" font-family="Helvetica,sans-Serif" font-size="10.00" fill="#000000">::hasConfiguration</text>
</a>
</g>
</g>
<!-- Node179&#45;&gt;Node181 -->
<g id="edge5" class="edge">
<title>Node179&#45;&gt;Node181</title>
<path fill="none" stroke="#191970" d="M542.0576,-245.454C559.336,-242.168 577.783,-238.9461 595,-236.5 655.7569,-227.8681 724.6066,-221.5674 777.7703,-217.4505"/>
<polygon fill="#191970" stroke="#191970" points="778.1428,-220.9323 787.8475,-216.6816 777.6102,-213.9526 778.1428,-220.9323"/>
</g>
<!-- Node182 -->
<g id="node7" class="node">
<title>Node182</title>
<g id="a_node7"><a xlink:href="classRa_1_1Engine_1_1RenderTechnique.html#a78ba61b1637743a35f058eeefa631f8a" target="_top" xlink:title="Ra::Engine::RenderTechnique\l::addPassProperties">
<polygon fill="#ffffff" stroke="#000000" points="595,-245.5 595,-275.5 752,-275.5 752,-245.5 595,-245.5"/>
<text text-anchor="start" x="603" y="-263.5" font-family="Helvetica,sans-Serif" font-size="10.00" fill="#000000">Ra::Engine::RenderTechnique</text>
<text text-anchor="middle" x="673.5" y="-252.5" font-family="Helvetica,sans-Serif" font-size="10.00" fill="#000000">::addPassProperties</text>
</a>
</g>
</g>
<!-- Node179&#45;&gt;Node182 -->
<g id="edge6" class="edge">
<title>Node179&#45;&gt;Node182</title>
<path fill="none" stroke="#191970" d="M549.2757,-260.5C560.8263,-260.5 572.7908,-260.5 584.5283,-260.5"/>
<polygon fill="#191970" stroke="#191970" points="584.7687,-264.0001 594.7686,-260.5 584.7686,-257.0001 584.7687,-264.0001"/>
</g>
<!-- Node182&#45;&gt;Node180 -->
<g id="edge7" class="edge">
<title>Node182&#45;&gt;Node180</title>
<path fill="none" stroke="#191970" d="M732.718,-275.5346C753.1887,-280.7318 776.3044,-286.6006 797.4912,-291.9796"/>
<polygon fill="#191970" stroke="#191970" points="796.8402,-295.4253 807.394,-294.4938 798.5628,-288.6406 796.8402,-295.4253"/>
</g>
<!-- Node182&#45;&gt;Node181 -->
<g id="edge8" class="edge">
<title>Node182&#45;&gt;Node181</title>
<path fill="none" stroke="#191970" d="M732.718,-245.4654C753.1887,-240.2682 776.3044,-234.3994 797.4912,-229.0204"/>
<polygon fill="#191970" stroke="#191970" points="798.5628,-232.3594 807.394,-226.5062 796.8402,-225.5747 798.5628,-232.3594"/>
</g>
<!-- Node183 -->
<g id="node8" class="node">
<title>Node183</title>
<g id="a_node8"><a xlink:href="classRa_1_1Engine_1_1RenderTechnique.html#a49da5c66a13007251db4e1511daf3852" target="_top" xlink:title="Ra::Engine::RenderTechnique\l::setDirty">
<polygon fill="#ffffff" stroke="#000000" points="788,-245.5 788,-275.5 945,-275.5 945,-245.5 788,-245.5"/>
<text text-anchor="start" x="796" y="-263.5" font-family="Helvetica,sans-Serif" font-size="10.00" fill="#000000">Ra::Engine::RenderTechnique</text>
<text text-anchor="middle" x="866.5" y="-252.5" font-family="Helvetica,sans-Serif" font-size="10.00" fill="#000000">::setDirty</text>
</a>
</g>
</g>
<!-- Node182&#45;&gt;Node183 -->
<g id="edge9" class="edge">
<title>Node182&#45;&gt;Node183</title>
<path fill="none" stroke="#191970" d="M752.0005,-260.5C760.4766,-260.5 769.1448,-260.5 777.7308,-260.5"/>
<polygon fill="#191970" stroke="#191970" points="777.756,-264.0001 787.7559,-260.5 777.7559,-257.0001 777.756,-264.0001"/>
</g>
<!-- Node185 -->
<g id="node10" class="node">
<title>Node185</title>
<g id="a_node10"><a xlink:href="classRa_1_1Engine_1_1Entity.html#a6325dcb57427a3d8b52880d3b8ed6df8" target="_top" xlink:title="Ra::Engine::Entity\l::getTransformAsMatrix">
<polygon fill="#ffffff" stroke="#000000" points="405.5,-98.5 405.5,-128.5 535.5,-128.5 535.5,-98.5 405.5,-98.5"/>
<text text-anchor="start" x="413.5" y="-116.5" font-family="Helvetica,sans-Serif" font-size="10.00" fill="#000000">Ra::Engine::Entity</text>
<text text-anchor="middle" x="470.5" y="-105.5" font-family="Helvetica,sans-Serif" font-size="10.00" fill="#000000">::getTransformAsMatrix</text>
</a>
</g>
</g>
<!-- Node184&#45;&gt;Node185 -->
<g id="edge11" class="edge">
<title>Node184&#45;&gt;Node185</title>
<path fill="none" stroke="#191970" d="M332.559,-147.4654C353.7616,-142.2446 377.7162,-136.3463 399.6423,-130.9474"/>
<polygon fill="#191970" stroke="#191970" points="400.6834,-134.2957 409.5565,-128.5062 399.0097,-127.4987 400.6834,-134.2957"/>
</g>
<!-- Node186 -->
<g id="node11" class="node">
<title>Node186</title>
<g id="a_node11"><a xlink:href="classRa_1_1Engine_1_1Entity.html#a524712805170bfce52ed0a98f7eee436" target="_top" xlink:title="Get component with a given name. ">
<polygon fill="#ffffff" stroke="#000000" points="419,-147.5 419,-177.5 522,-177.5 522,-147.5 419,-147.5"/>
<text text-anchor="start" x="427" y="-165.5" font-family="Helvetica,sans-Serif" font-size="10.00" fill="#000000">Ra::Engine::Entity</text>
<text text-anchor="middle" x="470.5" y="-154.5" font-family="Helvetica,sans-Serif" font-size="10.00" fill="#000000">::getComponent</text>
</a>
</g>
</g>
<!-- Node184&#45;&gt;Node186 -->
<g id="edge12" class="edge">
<title>Node184&#45;&gt;Node186</title>
<path fill="none" stroke="#191970" d="M341.66,-162.5C363.4894,-162.5 387.388,-162.5 408.61,-162.5"/>
<polygon fill="#191970" stroke="#191970" points="408.7924,-166.0001 418.7923,-162.5 408.7923,-159.0001 408.7924,-166.0001"/>
</g>
<!-- Node190 -->
<g id="node15" class="node">
<title>Node190</title>
<g id="a_node15"><a xlink:href="classRa_1_1Engine_1_1Component.html#a10b0bc182b76165744ebea603ae32dfe" target="_top" xlink:title="Shortcut to access the render object manager. ">
<polygon fill="#ffffff" stroke="#000000" points="405,-.5 405,-30.5 536,-30.5 536,-.5 405,-.5"/>
<text text-anchor="start" x="413" y="-18.5" font-family="Helvetica,sans-Serif" font-size="10.00" fill="#000000">Ra::Engine::Component</text>
<text text-anchor="middle" x="470.5" y="-7.5" font-family="Helvetica,sans-Serif" font-size="10.00" fill="#000000">::getRoMgr</text>
</a>
</g>
</g>
<!-- Node189&#45;&gt;Node190 -->
<g id="edge16" class="edge">
<title>Node189&#45;&gt;Node190</title>
<path fill="none" stroke="#191970" d="M337.2116,-15.5C355.6367,-15.5 375.816,-15.5 394.7724,-15.5"/>
<polygon fill="#191970" stroke="#191970" points="394.8575,-19.0001 404.8574,-15.5 394.8574,-12.0001 394.8575,-19.0001"/>
</g>
</g>
</svg>
        <g id="navigator" transform="translate(0 0)" fill="#404254">
                <rect fill="#f2f5e9" fill-opacity="0.5" stroke="#606060" stroke-width=".5" x="0" y="0" width="60" height="60"/>
                <use id="zoomplus" xlink:href="#zoomPlus" x="17" y="9" onmousedown="handleZoom(evt,'in')"/>
                <use id="zoomminus" xlink:href="#zoomMin" x="42" y="9" onmousedown="handleZoom(evt,'out')"/>
                <use id="reset" xlink:href="#resetDef" x="30" y="36" onmousedown="handleReset()"/>
                <g id="arrowUp" xlink:href="#dirArrow" transform="translate(30 24)" onmousedown="handlePan(0,-1)">
                  <use xlink:href="#rim" fill="#404040">
                        <set attributeName="fill" to="#808080" begin="arrowUp.mouseover" end="arrowUp.mouseout"/>
                  </use>
                  <path fill="none" stroke="white" stroke-width="1.5" d="M0,-3.0v7 M-2.5,-0.5L0,-3.0L2.5,-0.5"/>
                </g>
                <g id="arrowRight" xlink:href="#dirArrow" transform="rotate(90) translate(36 -43)" onmousedown="handlePan(1,0)">
                  <use xlink:href="#rim" fill="#404040">
                        <set attributeName="fill" to="#808080" begin="arrowRight.mouseover" end="arrowRight.mouseout"/>
                  </use>
                  <path fill="none" stroke="white" stroke-width="1.5" d="M0,-3.0v7 M-2.5,-0.5L0,-3.0L2.5,-0.5"/>
                </g>
                <g id="arrowDown" xlink:href="#dirArrow" transform="rotate(180) translate(-30 -48)" onmousedown="handlePan(0,1)">
                  <use xlink:href="#rim" fill="#404040">
                        <set attributeName="fill" to="#808080" begin="arrowDown.mouseover" end="arrowDown.mouseout"/>
                  </use>
                  <path fill="none" stroke="white" stroke-width="1.5" d="M0,-3.0v7 M-2.5,-0.5L0,-3.0L2.5,-0.5"/>
                </g>
                <g id="arrowLeft" xlink:href="#dirArrow" transform="rotate(270) translate(-36 17)" onmousedown="handlePan(-1,0)">
                  <use xlink:href="#rim" fill="#404040">
                        <set attributeName="fill" to="#808080" begin="arrowLeft.mouseover" end="arrowLeft.mouseout"/>
                  </use>
                  <path fill="none" stroke="white" stroke-width="1.5" d="M0,-3.0v7 M-2.5,-0.5L0,-3.0L2.5,-0.5"/>
                </g>
        </g>
        <svg viewBox="0 0 15 15" width="100%" height="30px" preserveAspectRatio="xMaxYMin meet">
         <g id="arrow_out" transform="scale(0.3 0.3)">
          <a xlink:href="classRa_1_1GuiBase_1_1BaseApplication_a2910421794de7e097bb41b17643e1d34_cgraph_org.svg" target="_base">
           <rect id="button" ry="5" rx="5" y="6" x="6" height="38" width="38"
                fill="#f2f5e9" fill-opacity="0.5" stroke="#606060" stroke-width="1.0"/>
           <path id="arrow"
             d="M 11.500037,31.436501 C 11.940474,20.09759 22.043105,11.32322 32.158766,21.979434 L 37.068811,17.246167 C 37.068811,17.246167 37.088388,32 37.088388,32 L 22.160133,31.978069 C 22.160133,31.978069 26.997745,27.140456 26.997745,27.140456 C 18.528582,18.264221 13.291696,25.230495 11.500037,31.436501 z"
             style="fill:#404040;"/>
          </a>
         </g>
        </svg>
</svg>
