<?xml version="1.0" encoding="UTF-8" standalone="no"?>
<!DOCTYPE svg PUBLIC "-//W3C//DTD SVG 1.1//EN"
 "http://www.w3.org/Graphics/SVG/1.1/DTD/svg11.dtd">
<!-- Generated by graphviz version 2.40.1 (20161225.0304)
 -->
<!-- Title: Ra::Gui::Viewer::wheelEvent Pages: 1 -->
<svg width="375pt" height="127pt"
 viewBox="0.00 0.00 375.00 126.50" xmlns="http://www.w3.org/2000/svg" xmlns:xlink="http://www.w3.org/1999/xlink">
<g id="graph0" class="graph" transform="scale(1 1) rotate(0) translate(4 122.5)">
<title>Ra::Gui::Viewer::wheelEvent</title>
<polygon fill="#ffffff" stroke="transparent" points="-4,4 -4,-122.5 371,-122.5 371,4 -4,4"/>
<!-- Node284 -->
<g id="node1" class="node">
<title>Node284</title>
<polygon fill="#bfbfbf" stroke="#000000" points="0,-55 0,-74 155,-74 155,-55 0,-55"/>
<text text-anchor="middle" x="77.5" y="-62" font-family="Helvetica,sans-Serif" font-size="10.00" fill="#000000">Ra::Gui::Viewer::wheelEvent</text>
</g>
<!-- Node285 -->
<g id="node2" class="node">
<title>Node285</title>
<g id="a_node2"><a xlink:href="namespaceRa_1_1Gui.html#abfd4441bc81a4a3a08a755c28ae9b828" target="_top" xlink:title="return the last, still pressed, key code, &#45;1 if no key currently pressed ">
<polygon fill="#ffffff" stroke="#000000" points="226,-99 226,-118 332,-118 332,-99 226,-99"/>
<text text-anchor="middle" x="279" y="-106" font-family="Helvetica,sans-Serif" font-size="10.00" fill="#000000">Ra::Gui::activeKey</text>
</a>
</g>
</g>
<!-- Node284&#45;&gt;Node285 -->
<g id="edge1" class="edge">
<title>Node284&#45;&gt;Node285</title>
<path fill="none" stroke="#191970" d="M120.6076,-74.0392C141.8057,-78.7189 167.7377,-84.4268 191,-89.5 201.8733,-91.8713 213.5058,-94.3934 224.634,-96.7989"/>
<polygon fill="#191970" stroke="#191970" points="224.1622,-100.2776 234.6757,-98.9676 225.64,-93.4354 224.1622,-100.2776"/>
</g>
<!-- Node286 -->
<g id="node3" class="node">
<title>Node286</title>
<g id="a_node3"><a xlink:href="classRa_1_1Gui_1_1KeyMappingManageable.html#a22954323f435085f355701781f846cda" target="_top" xlink:title="Ra::Gui::KeyMappingManageable\l::getContext">
<polygon fill="#ffffff" stroke="#000000" points="191,-49.5 191,-79.5 367,-79.5 367,-49.5 191,-49.5"/>
<text text-anchor="start" x="199" y="-67.5" font-family="Helvetica,sans-Serif" font-size="10.00" fill="#000000">Ra::Gui::KeyMappingManageable</text>
<text text-anchor="middle" x="279" y="-56.5" font-family="Helvetica,sans-Serif" font-size="10.00" fill="#000000">::getContext</text>
</a>
</g>
</g>
<!-- Node284&#45;&gt;Node286 -->
<g id="edge2" class="edge">
<title>Node284&#45;&gt;Node286</title>
<path fill="none" stroke="#191970" d="M155.1169,-64.5C163.4838,-64.5 172.0758,-64.5 180.6446,-64.5"/>
<polygon fill="#191970" stroke="#191970" points="180.6782,-68.0001 190.6781,-64.5 180.6781,-61.0001 180.6782,-68.0001"/>
</g>
<!-- Node287 -->
<g id="node4" class="node">
<title>Node287</title>
<g id="a_node4"><a xlink:href="classRa_1_1Engine_1_1Renderer.html#a1165d48bd1c1d3e77579f326f978d59f" target="_top" xlink:title="Ra::Engine::Renderer\l::setBrushRadius">
<polygon fill="#ffffff" stroke="#000000" points="220,-.5 220,-30.5 338,-30.5 338,-.5 220,-.5"/>
<text text-anchor="start" x="228" y="-18.5" font-family="Helvetica,sans-Serif" font-size="10.00" fill="#000000">Ra::Engine::Renderer</text>
<text text-anchor="middle" x="279" y="-7.5" font-family="Helvetica,sans-Serif" font-size="10.00" fill="#000000">::setBrushRadius</text>
</a>
</g>
</g>
<!-- Node284&#45;&gt;Node287 -->
<g id="edge3" class="edge">
<title>Node284&#45;&gt;Node287</title>
<path fill="none" stroke="#191970" d="M116.8296,-54.936C143.2864,-48.5023 178.8808,-39.8466 209.9822,-32.2835"/>
<polygon fill="#191970" stroke="#191970" points="211.0151,-35.6344 219.9049,-29.8705 209.361,-28.8326 211.0151,-35.6344"/>
</g>
</g>
</svg>
