<?xml version="1.0" encoding="UTF-8" standalone="no"?>
<!DOCTYPE svg PUBLIC "-//W3C//DTD SVG 1.1//EN"
 "http://www.w3.org/Graphics/SVG/1.1/DTD/svg11.dtd">
<!-- Generated by graphviz version 2.40.1 (20161225.0304)
 -->
<!-- Title: Ra::Engine::RenderParameters::TParameter&lt; T &gt; Pages: 1 -->
<svg width="231pt" height="364pt"
 viewBox="0.00 0.00 231.00 364.00" xmlns="http://www.w3.org/2000/svg" xmlns:xlink="http://www.w3.org/1999/xlink">
<g id="graph0" class="graph" transform="scale(1 1) rotate(0) translate(4 360)">
<title>Ra::Engine::RenderParameters::TParameter&lt; T &gt;</title>
<polygon fill="#ffffff" stroke="transparent" points="-4,4 -4,-360 227,-360 227,4 -4,4"/>
<!-- Node2 -->
<g id="node1" class="node">
<title>Node2</title>
<polygon fill="#bfbfbf" stroke="#000000" points="57,-.5 57,-101.5 221,-101.5 221,-.5 57,-.5"/>
<text text-anchor="start" x="65" y="-89.5" font-family="Helvetica,sans-Serif" font-size="10.00" fill="#000000">Ra::Engine::RenderParameters</text>
<text text-anchor="middle" x="139" y="-78.5" font-family="Helvetica,sans-Serif" font-size="10.00" fill="#000000">::TParameter&lt; T &gt;</text>
<polyline fill="none" stroke="#000000" points="57,-71.5 221,-71.5 "/>
<text text-anchor="middle" x="139" y="-59.5" font-family="Helvetica,sans-Serif" font-size="10.00" fill="#000000"> </text>
<polyline fill="none" stroke="#000000" points="57,-52.5 221,-52.5 "/>
<text text-anchor="start" x="65" y="-40.5" font-family="Helvetica,sans-Serif" font-size="10.00" fill="#000000">+ TParameter()</text>
<text text-anchor="start" x="65" y="-29.5" font-family="Helvetica,sans-Serif" font-size="10.00" fill="#000000">+ TParameter()</text>
<text text-anchor="start" x="65" y="-18.5" font-family="Helvetica,sans-Serif" font-size="10.00" fill="#000000">+ ~TParameter()</text>
<text text-anchor="start" x="65" y="-7.5" font-family="Helvetica,sans-Serif" font-size="10.00" fill="#000000">+ bind()</text>
</g>
<!-- Node3 -->
<g id="node2" class="node">
<title>Node3</title>
<g id="a_node2"><a xlink:href="classRa_1_1Engine_1_1RenderParameters_1_1Parameter.html" target="_top" xlink:title="Base abstract parameter Class. ">
<polygon fill="#ffffff" stroke="#000000" points="0,-149.5 0,-250.5 164,-250.5 164,-149.5 0,-149.5"/>
<text text-anchor="start" x="8" y="-238.5" font-family="Helvetica,sans-Serif" font-size="10.00" fill="#000000">Ra::Engine::RenderParameters</text>
<text text-anchor="middle" x="82" y="-227.5" font-family="Helvetica,sans-Serif" font-size="10.00" fill="#000000">::Parameter</text>
<polyline fill="none" stroke="#000000" points="0,-220.5 164,-220.5 "/>
<text text-anchor="middle" x="82" y="-208.5" font-family="Helvetica,sans-Serif" font-size="10.00" fill="#000000"> </text>
<polyline fill="none" stroke="#000000" points="0,-201.5 164,-201.5 "/>
<text text-anchor="start" x="8" y="-189.5" font-family="Helvetica,sans-Serif" font-size="10.00" fill="#000000">+ Parameter()</text>
<text text-anchor="start" x="8" y="-178.5" font-family="Helvetica,sans-Serif" font-size="10.00" fill="#000000">+ Parameter()</text>
<text text-anchor="start" x="8" y="-167.5" font-family="Helvetica,sans-Serif" font-size="10.00" fill="#000000">+ ~Parameter()</text>
<text text-anchor="start" x="8" y="-156.5" font-family="Helvetica,sans-Serif" font-size="10.00" fill="#000000">+ bind()</text>
</a>
</g>
</g>
<!-- Node3&#45;&gt;Node2 -->
<g id="edge1" class="edge">
<title>Node3&#45;&gt;Node2</title>
<path fill="none" stroke="#191970" d="M105.0946,-139.6299C109.9191,-127.0185 114.9581,-113.8463 119.6309,-101.6314"/>
<polygon fill="none" stroke="#191970" points="101.7608,-138.5489 101.4567,-149.1394 108.2988,-141.05 101.7608,-138.5489"/>
</g>
<!-- Node4 -->
<g id="node3" class="node">
<title>Node4</title>
<polygon fill="#ffffff" stroke="#bfbfbf" points="44.5,-298.5 44.5,-355.5 119.5,-355.5 119.5,-298.5 44.5,-298.5"/>
<text text-anchor="middle" x="82" y="-343.5" font-family="Helvetica,sans-Serif" font-size="10.00" fill="#000000">const char *</text>
<polyline fill="none" stroke="#bfbfbf" points="44.5,-336.5 119.5,-336.5 "/>
<text text-anchor="middle" x="82" y="-324.5" font-family="Helvetica,sans-Serif" font-size="10.00" fill="#000000"> </text>
<polyline fill="none" stroke="#bfbfbf" points="44.5,-317.5 119.5,-317.5 "/>
<text text-anchor="middle" x="82" y="-305.5" font-family="Helvetica,sans-Serif" font-size="10.00" fill="#000000"> </text>
</g>
<!-- Node4&#45;&gt;Node3 -->
<g id="edge2" class="edge">
<title>Node4&#45;&gt;Node3</title>
<path fill="none" stroke="#404040" d="M82,-298.4987C82,-287.9128 82,-275.4397 82,-262.9926"/>
<polygon fill="none" stroke="#404040" points="82.0001,-262.625 78,-256.625 82,-250.625 86,-256.625 82.0001,-262.625"/>
<text text-anchor="middle" x="109.5" y="-272" font-family="Helvetica,sans-Serif" font-size="10.00" fill="#000000"> +m_name</text>
</g>
<!-- Node5 -->
<g id="node4" class="node">
<title>Node5</title>
<polygon fill="#ffffff" stroke="#bfbfbf" points="182.5,-171.5 182.5,-228.5 211.5,-228.5 211.5,-171.5 182.5,-171.5"/>
<text text-anchor="middle" x="197" y="-216.5" font-family="Helvetica,sans-Serif" font-size="10.00" fill="#000000">T</text>
<polyline fill="none" stroke="#bfbfbf" points="182.5,-209.5 211.5,-209.5 "/>
<text text-anchor="middle" x="197" y="-197.5" font-family="Helvetica,sans-Serif" font-size="10.00" fill="#000000"> </text>
<polyline fill="none" stroke="#bfbfbf" points="182.5,-190.5 211.5,-190.5 "/>
<text text-anchor="middle" x="197" y="-178.5" font-family="Helvetica,sans-Serif" font-size="10.00" fill="#000000"> </text>
</g>
<!-- Node5&#45;&gt;Node2 -->
<g id="edge3" class="edge">
<title>Node5&#45;&gt;Node2</title>
<path fill="none" stroke="#404040" d="M185.817,-171.2713C179.3755,-154.7232 171.0191,-133.2559 163.1525,-113.0469"/>
<polygon fill="none" stroke="#404040" points="163.0752,-112.8482 157.1711,-108.7079 158.7221,-101.6655 164.6262,-105.8058 163.0752,-112.8482"/>
<text text-anchor="middle" x="196" y="-123" font-family="Helvetica,sans-Serif" font-size="10.00" fill="#000000"> +m_value</text>
</g>
</g>
</svg>
