<?xml version="1.0" encoding="UTF-8" standalone="no"?>
<!DOCTYPE svg PUBLIC "-//W3C//DTD SVG 1.1//EN"
 "http://www.w3.org/Graphics/SVG/1.1/DTD/svg11.dtd">
<!-- Generated by graphviz version 2.40.1 (20161225.0304)
 -->
<!-- Title: Ra::IO::AssimpAnimationDataLoader::fetchAnimation Pages: 1 -->
<svg width="573pt" height="328pt"
 viewBox="0.00 0.00 573.00 328.00" xmlns="http://www.w3.org/2000/svg" xmlns:xlink="http://www.w3.org/1999/xlink">
<g id="graph0" class="graph" transform="scale(1 1) rotate(0) translate(4 324)">
<title>Ra::IO::AssimpAnimationDataLoader::fetchAnimation</title>
<polygon fill="#ffffff" stroke="transparent" points="-4,4 -4,-324 569,-324 569,4 -4,4"/>
<!-- Node3 -->
<g id="node1" class="node">
<title>Node3</title>
<polygon fill="#bfbfbf" stroke="#000000" points="0,-122.5 0,-152.5 161,-152.5 161,-122.5 0,-122.5"/>
<text text-anchor="start" x="8" y="-140.5" font-family="Helvetica,sans-Serif" font-size="10.00" fill="#000000">Ra::IO::AssimpAnimationData</text>
<text text-anchor="middle" x="80.5" y="-129.5" font-family="Helvetica,sans-Serif" font-size="10.00" fill="#000000">Loader::fetchAnimation</text>
</g>
<!-- Node4 -->
<g id="node2" class="node">
<title>Node4</title>
<g id="a_node2"><a xlink:href="classRa_1_1Core_1_1Asset_1_1AnimationData.html#a0905ac7f4d44a97207551fd3af75c0f1" target="_top" xlink:title="Return the AnimationTime linked to the object. ">
<polygon fill="#ffffff" stroke="#000000" points="206,-245.5 206,-275.5 353,-275.5 353,-245.5 206,-245.5"/>
<text text-anchor="start" x="214" y="-263.5" font-family="Helvetica,sans-Serif" font-size="10.00" fill="#000000">Ra::Core::Asset::Animation</text>
<text text-anchor="middle" x="279.5" y="-252.5" font-family="Helvetica,sans-Serif" font-size="10.00" fill="#000000">Data::getTime</text>
</a>
</g>
</g>
<!-- Node3&#45;&gt;Node4 -->
<g id="edge1" class="edge">
<title>Node3&#45;&gt;Node4</title>
<path fill="none" stroke="#191970" d="M94.0831,-152.5088C114.4251,-174.1123 154.9299,-213.8582 197,-236.5 200.448,-238.3557 204.0563,-240.0831 207.7558,-241.6892"/>
<polygon fill="#191970" stroke="#191970" points="206.5158,-244.9628 217.1001,-245.435 209.1205,-238.4654 206.5158,-244.9628"/>
</g>
<!-- Node5 -->
<g id="node3" class="node">
<title>Node5</title>
<g id="a_node3"><a xlink:href="classRa_1_1IO_1_1AssimpAnimationDataLoader.html#aee50bf85bf9c74c13fbf1daa386640eb" target="_top" xlink:title="Ra::IO::AssimpAnimationData\lLoader::fetchHandleAnimation">
<polygon fill="#ffffff" stroke="#000000" points="197,-196.5 197,-226.5 362,-226.5 362,-196.5 197,-196.5"/>
<text text-anchor="start" x="205" y="-214.5" font-family="Helvetica,sans-Serif" font-size="10.00" fill="#000000">Ra::IO::AssimpAnimationData</text>
<text text-anchor="middle" x="279.5" y="-203.5" font-family="Helvetica,sans-Serif" font-size="10.00" fill="#000000">Loader::fetchHandleAnimation</text>
</a>
</g>
</g>
<!-- Node3&#45;&gt;Node5 -->
<g id="edge2" class="edge">
<title>Node3&#45;&gt;Node5</title>
<path fill="none" stroke="#191970" d="M112.716,-152.589C135.8716,-163.1219 167.9942,-177.1006 197,-187.5 202.5771,-189.4996 208.4095,-191.4564 214.2839,-193.3356"/>
<polygon fill="#191970" stroke="#191970" points="213.5831,-196.7832 224.1717,-196.4187 215.6669,-190.1005 213.5831,-196.7832"/>
</g>
<!-- Node11 -->
<g id="node9" class="node">
<title>Node11</title>
<g id="a_node9"><a xlink:href="classRa_1_1Core_1_1Asset_1_1AnimationData.html#ae9d421923883b4a7ef1cdac8134d6e31" target="_top" xlink:title="Return the animation timestep. ">
<polygon fill="#ffffff" stroke="#000000" points="206,-147.5 206,-177.5 353,-177.5 353,-147.5 206,-147.5"/>
<text text-anchor="start" x="214" y="-165.5" font-family="Helvetica,sans-Serif" font-size="10.00" fill="#000000">Ra::Core::Asset::Animation</text>
<text text-anchor="middle" x="279.5" y="-154.5" font-family="Helvetica,sans-Serif" font-size="10.00" fill="#000000">Data::getTimeStep</text>
</a>
</g>
</g>
<!-- Node3&#45;&gt;Node11 -->
<g id="edge8" class="edge">
<title>Node3&#45;&gt;Node11</title>
<path fill="none" stroke="#191970" d="M161.154,-147.6324C172.5702,-149.0666 184.3298,-150.5439 195.8019,-151.9852"/>
<polygon fill="#191970" stroke="#191970" points="195.4352,-155.4665 205.7935,-153.2404 196.3078,-148.5211 195.4352,-155.4665"/>
</g>
<!-- Node12 -->
<g id="node10" class="node">
<title>Node12</title>
<g id="a_node10"><a xlink:href="classRa_1_1Core_1_1Animation_1_1AnimationTime.html#a36df32bef71eb889b59753012266bf27" target="_top" xlink:title="Ra::Core::Animation\l::AnimationTime::merge">
<polygon fill="#ffffff" stroke="#000000" points="212,-98.5 212,-128.5 347,-128.5 347,-98.5 212,-98.5"/>
<text text-anchor="start" x="220" y="-116.5" font-family="Helvetica,sans-Serif" font-size="10.00" fill="#000000">Ra::Core::Animation</text>
<text text-anchor="middle" x="279.5" y="-105.5" font-family="Helvetica,sans-Serif" font-size="10.00" fill="#000000">::AnimationTime::merge</text>
</a>
</g>
</g>
<!-- Node3&#45;&gt;Node12 -->
<g id="edge9" class="edge">
<title>Node3&#45;&gt;Node12</title>
<path fill="none" stroke="#191970" d="M161.154,-127.7729C174.5473,-126.1576 188.4135,-124.4853 201.7333,-122.8789"/>
<polygon fill="#191970" stroke="#191970" points="202.2868,-126.3376 211.7957,-121.6653 201.4486,-119.388 202.2868,-126.3376"/>
</g>
<!-- Node13 -->
<g id="node11" class="node">
<title>Node13</title>
<g id="a_node11"><a xlink:href="classRa_1_1Core_1_1Asset_1_1AnimationData.html#a0e5c12649e21fc27a09540b23b06cfd4" target="_top" xlink:title="Set the animation frames. ">
<polygon fill="#ffffff" stroke="#000000" points="206,-49.5 206,-79.5 353,-79.5 353,-49.5 206,-49.5"/>
<text text-anchor="start" x="214" y="-67.5" font-family="Helvetica,sans-Serif" font-size="10.00" fill="#000000">Ra::Core::Asset::Animation</text>
<text text-anchor="middle" x="279.5" y="-56.5" font-family="Helvetica,sans-Serif" font-size="10.00" fill="#000000">Data::setFrames</text>
</a>
</g>
</g>
<!-- Node3&#45;&gt;Node13 -->
<g id="edge10" class="edge">
<title>Node3&#45;&gt;Node13</title>
<path fill="none" stroke="#191970" d="M113.4958,-122.4241C136.6068,-112.1616 168.3564,-98.6522 197,-88.5 202.8128,-86.4398 208.8998,-84.419 215.0209,-82.4787"/>
<polygon fill="#191970" stroke="#191970" points="216.1163,-85.8036 224.6333,-79.5018 214.0454,-79.1169 216.1163,-85.8036"/>
</g>
<!-- Node14 -->
<g id="node12" class="node">
<title>Node14</title>
<g id="a_node12"><a xlink:href="classRa_1_1Core_1_1Asset_1_1AnimationData.html#afa3d60833227971fb049197741da0126" target="_top" xlink:title="Set the AnimationTime for the object. ">
<polygon fill="#ffffff" stroke="#000000" points="206,-.5 206,-30.5 353,-30.5 353,-.5 206,-.5"/>
<text text-anchor="start" x="214" y="-18.5" font-family="Helvetica,sans-Serif" font-size="10.00" fill="#000000">Ra::Core::Asset::Animation</text>
<text text-anchor="middle" x="279.5" y="-7.5" font-family="Helvetica,sans-Serif" font-size="10.00" fill="#000000">Data::setTime</text>
</a>
</g>
</g>
<!-- Node3&#45;&gt;Node14 -->
<g id="edge11" class="edge">
<title>Node3&#45;&gt;Node14</title>
<path fill="none" stroke="#191970" d="M94.4568,-122.2924C114.9478,-100.8377 155.2843,-61.8166 197,-39.5 200.4526,-37.653 204.0646,-35.9324 207.767,-34.3317"/>
<polygon fill="#191970" stroke="#191970" points="209.1292,-37.5565 217.1169,-30.5962 206.5321,-31.0561 209.1292,-37.5565"/>
</g>
<!-- Node6 -->
<g id="node4" class="node">
<title>Node6</title>
<g id="a_node4"><a xlink:href="classRa_1_1Core_1_1Animation_1_1KeyFrame.html#aeca1b8f8c3c59e2f48e79725ec6d6e16" target="_top" xlink:title="RESET. ">
<polygon fill="#ffffff" stroke="#000000" points="424.5,-289.5 424.5,-319.5 538.5,-319.5 538.5,-289.5 424.5,-289.5"/>
<text text-anchor="start" x="432.5" y="-307.5" font-family="Helvetica,sans-Serif" font-size="10.00" fill="#000000">Ra::Core::Animation</text>
<text text-anchor="middle" x="481.5" y="-296.5" font-family="Helvetica,sans-Serif" font-size="10.00" fill="#000000">::KeyFrame::reset</text>
</a>
</g>
</g>
<!-- Node5&#45;&gt;Node6 -->
<g id="edge3" class="edge">
<title>Node5&#45;&gt;Node6</title>
<path fill="none" stroke="#191970" d="M343.4151,-226.6404C349.9488,-229.4121 356.2781,-232.6718 362,-236.5 383.0003,-250.5502 376.8994,-266.6009 398,-280.5 403.2078,-283.9304 408.9113,-286.8788 414.8146,-289.4113"/>
<polygon fill="#191970" stroke="#191970" points="413.6242,-292.7036 424.2131,-293.0583 416.1565,-286.1777 413.6242,-292.7036"/>
</g>
<!-- Node7 -->
<g id="node5" class="node">
<title>Node7</title>
<g id="a_node5"><a xlink:href="classRa_1_1Core_1_1Animation_1_1KeyFrame.html#a86175e67c429b471659603f8a2514eef" target="_top" xlink:title="Ra::Core::Animation\l::KeyFrame::insertKeyFrame">
<polygon fill="#ffffff" stroke="#000000" points="405.5,-240.5 405.5,-270.5 557.5,-270.5 557.5,-240.5 405.5,-240.5"/>
<text text-anchor="start" x="413.5" y="-258.5" font-family="Helvetica,sans-Serif" font-size="10.00" fill="#000000">Ra::Core::Animation</text>
<text text-anchor="middle" x="481.5" y="-247.5" font-family="Helvetica,sans-Serif" font-size="10.00" fill="#000000">::KeyFrame::insertKeyFrame</text>
</a>
</g>
</g>
<!-- Node5&#45;&gt;Node7 -->
<g id="edge4" class="edge">
<title>Node5&#45;&gt;Node7</title>
<path fill="none" stroke="#191970" d="M348.452,-226.5192C365.9066,-230.3212 384.7859,-234.4336 402.6869,-238.3328"/>
<polygon fill="#191970" stroke="#191970" points="402.0002,-241.7652 412.5161,-240.4738 403.4901,-234.9256 402.0002,-241.7652"/>
</g>
<!-- Node8 -->
<g id="node6" class="node">
<title>Node8</title>
<g id="a_node6"><a xlink:href="namespaceRa_1_1IO.html#aef6c50424873964fcea0008be55d4a34" target="_top" xlink:title="Ra::IO::assimpToCore">
<polygon fill="#ffffff" stroke="#000000" points="421.5,-202 421.5,-221 541.5,-221 541.5,-202 421.5,-202"/>
<text text-anchor="middle" x="481.5" y="-209" font-family="Helvetica,sans-Serif" font-size="10.00" fill="#000000">Ra::IO::assimpToCore</text>
</a>
</g>
</g>
<!-- Node5&#45;&gt;Node8 -->
<g id="edge5" class="edge">
<title>Node5&#45;&gt;Node8</title>
<path fill="none" stroke="#191970" d="M362.244,-211.5C378.5106,-211.5 395.4308,-211.5 411.2403,-211.5"/>
<polygon fill="#191970" stroke="#191970" points="411.451,-215.0001 421.4509,-211.5 411.4509,-208.0001 411.451,-215.0001"/>
</g>
<!-- Node9 -->
<g id="node7" class="node">
<title>Node9</title>
<g id="a_node7"><a xlink:href="classRa_1_1Core_1_1Animation_1_1KeyFrame.html#af940695555c9d6f064dee70435f33519" target="_top" xlink:title="Ra::Core::Animation\l::KeyFrame::setAnimationTime">
<polygon fill="#ffffff" stroke="#000000" points="398,-152.5 398,-182.5 565,-182.5 565,-152.5 398,-152.5"/>
<text text-anchor="start" x="406" y="-170.5" font-family="Helvetica,sans-Serif" font-size="10.00" fill="#000000">Ra::Core::Animation</text>
<text text-anchor="middle" x="481.5" y="-159.5" font-family="Helvetica,sans-Serif" font-size="10.00" fill="#000000">::KeyFrame::setAnimationTime</text>
</a>
</g>
</g>
<!-- Node5&#45;&gt;Node9 -->
<g id="edge6" class="edge">
<title>Node5&#45;&gt;Node9</title>
<path fill="none" stroke="#191970" d="M348.452,-196.4808C365.9066,-192.6788 384.7859,-188.5664 402.6869,-184.6672"/>
<polygon fill="#191970" stroke="#191970" points="403.4901,-188.0744 412.5161,-182.5262 402.0002,-181.2348 403.4901,-188.0744"/>
</g>
<!-- Node10 -->
<g id="node8" class="node">
<title>Node10</title>
<g id="a_node8"><a xlink:href="classRa_1_1Core_1_1Animation_1_1KeyFrame.html#a8dd187293f7124519b2f6a6153f79711" target="_top" xlink:title="Ra::Core::Animation\l::KeyFrame::at">
<polygon fill="#ffffff" stroke="#000000" points="424.5,-103.5 424.5,-133.5 538.5,-133.5 538.5,-103.5 424.5,-103.5"/>
<text text-anchor="start" x="432.5" y="-121.5" font-family="Helvetica,sans-Serif" font-size="10.00" fill="#000000">Ra::Core::Animation</text>
<text text-anchor="middle" x="481.5" y="-110.5" font-family="Helvetica,sans-Serif" font-size="10.00" fill="#000000">::KeyFrame::at</text>
</a>
</g>
</g>
<!-- Node5&#45;&gt;Node10 -->
<g id="edge7" class="edge">
<title>Node5&#45;&gt;Node10</title>
<path fill="none" stroke="#191970" d="M345.573,-196.345C351.3455,-193.8273 356.9167,-190.9005 362,-187.5 383.2885,-173.2592 376.6886,-156.7065 398,-142.5 403.1888,-139.041 408.8795,-136.0733 414.7747,-133.5285"/>
<polygon fill="#191970" stroke="#191970" points="416.1185,-136.7612 424.1639,-129.8675 413.5756,-130.2394 416.1185,-136.7612"/>
</g>
</g>
</svg>
