<?xml version="1.0" encoding="UTF-8" standalone="no"?>
<!DOCTYPE svg PUBLIC "-//W3C//DTD SVG 1.1//EN"
 "http://www.w3.org/Graphics/SVG/1.1/DTD/svg11.dtd">
<!-- Generated by graphviz version 2.40.1 (20161225.0304)
 -->
<!-- Title: Ra::Engine::Texture Pages: 1 -->
<svg width="322pt" height="657pt"
 viewBox="0.00 0.00 321.50 657.00" xmlns="http://www.w3.org/2000/svg" xmlns:xlink="http://www.w3.org/1999/xlink">
<g id="graph0" class="graph" transform="scale(1 1) rotate(0) translate(4 653)">
<title>Ra::Engine::Texture</title>
<polygon fill="#ffffff" stroke="transparent" points="-4,4 -4,-653 317.5,-653 317.5,4 -4,4"/>
<!-- Node1 -->
<g id="node1" class="node">
<title>Node1</title>
<polygon fill="#bfbfbf" stroke="#000000" points="104,-.5 104,-244.5 229,-244.5 229,-.5 104,-.5"/>
<text text-anchor="middle" x="166.5" y="-232.5" font-family="Helvetica,sans-Serif" font-size="10.00" fill="#000000">Ra::Engine::Texture</text>
<polyline fill="none" stroke="#000000" points="104,-225.5 229,-225.5 "/>
<text text-anchor="middle" x="166.5" y="-213.5" font-family="Helvetica,sans-Serif" font-size="10.00" fill="#000000"> </text>
<polyline fill="none" stroke="#000000" points="104,-206.5 229,-206.5 "/>
<text text-anchor="start" x="112" y="-194.5" font-family="Helvetica,sans-Serif" font-size="10.00" fill="#000000">+ Texture()</text>
<text text-anchor="start" x="112" y="-183.5" font-family="Helvetica,sans-Serif" font-size="10.00" fill="#000000">+ operator=()</text>
<text text-anchor="start" x="112" y="-172.5" font-family="Helvetica,sans-Serif" font-size="10.00" fill="#000000">+ Texture()</text>
<text text-anchor="start" x="112" y="-161.5" font-family="Helvetica,sans-Serif" font-size="10.00" fill="#000000">+ ~Texture()</text>
<text text-anchor="start" x="112" y="-150.5" font-family="Helvetica,sans-Serif" font-size="10.00" fill="#000000">+ initializeGL()</text>
<text text-anchor="start" x="112" y="-139.5" font-family="Helvetica,sans-Serif" font-size="10.00" fill="#000000">+ bind()</text>
<text text-anchor="start" x="112" y="-128.5" font-family="Helvetica,sans-Serif" font-size="10.00" fill="#000000">+ bindImageTexture()</text>
<text text-anchor="start" x="112" y="-117.5" font-family="Helvetica,sans-Serif" font-size="10.00" fill="#000000">+ getName()</text>
<text text-anchor="start" x="112" y="-106.5" font-family="Helvetica,sans-Serif" font-size="10.00" fill="#000000">+ updateData()</text>
<text text-anchor="start" x="112" y="-95.5" font-family="Helvetica,sans-Serif" font-size="10.00" fill="#000000">+ updateParameters()</text>
<text text-anchor="start" x="112" y="-84.5" font-family="Helvetica,sans-Serif" font-size="10.00" fill="#000000">+ linearize()</text>
<text text-anchor="start" x="112" y="-73.5" font-family="Helvetica,sans-Serif" font-size="10.00" fill="#000000">+ format()</text>
<text text-anchor="start" x="112" y="-62.5" font-family="Helvetica,sans-Serif" font-size="10.00" fill="#000000">+ width()</text>
<text text-anchor="start" x="112" y="-51.5" font-family="Helvetica,sans-Serif" font-size="10.00" fill="#000000">+ height()</text>
<text text-anchor="start" x="112" y="-40.5" font-family="Helvetica,sans-Serif" font-size="10.00" fill="#000000">+ depth()</text>
<text text-anchor="start" x="112" y="-29.5" font-family="Helvetica,sans-Serif" font-size="10.00" fill="#000000">+ texels()</text>
<text text-anchor="start" x="112" y="-18.5" font-family="Helvetica,sans-Serif" font-size="10.00" fill="#000000">+ texture()</text>
<text text-anchor="start" x="112" y="-7.5" font-family="Helvetica,sans-Serif" font-size="10.00" fill="#000000">+ resize()</text>
</g>
<!-- Node2 -->
<g id="node2" class="node">
<title>Node2</title>
<g id="a_node2"><a xlink:href="structRa_1_1Engine_1_1TextureParameters.html" target="_top" xlink:title="{Ra::Engine::TextureParameters\n||}">
<polygon fill="#ffffff" stroke="#000000" points="83.5,-292.5 83.5,-349.5 249.5,-349.5 249.5,-292.5 83.5,-292.5"/>
<text text-anchor="middle" x="166.5" y="-337.5" font-family="Helvetica,sans-Serif" font-size="10.00" fill="#000000">Ra::Engine::TextureParameters</text>
<polyline fill="none" stroke="#000000" points="83.5,-330.5 249.5,-330.5 "/>
<text text-anchor="middle" x="166.5" y="-318.5" font-family="Helvetica,sans-Serif" font-size="10.00" fill="#000000"> </text>
<polyline fill="none" stroke="#000000" points="83.5,-311.5 249.5,-311.5 "/>
<text text-anchor="middle" x="166.5" y="-299.5" font-family="Helvetica,sans-Serif" font-size="10.00" fill="#000000"> </text>
</a>
</g>
</g>
<!-- Node2&#45;&gt;Node1 -->
<g id="edge1" class="edge">
<title>Node2&#45;&gt;Node1</title>
<path fill="none" stroke="#404040" d="M166.5,-292.1364C166.5,-282.0104 166.5,-269.8706 166.5,-256.8003"/>
<polygon fill="none" stroke="#404040" points="166.5001,-256.5664 162.5,-250.5664 166.5,-244.5664 170.5,-250.5663 166.5001,-256.5664"/>
<text text-anchor="middle" x="225.5" y="-266" font-family="Helvetica,sans-Serif" font-size="10.00" fill="#000000"> +m_textureParameters</text>
</g>
<!-- Node3 -->
<g id="node3" class="node">
<title>Node3</title>
<polygon fill="#ffffff" stroke="#bfbfbf" points="0,-485.5 0,-542.5 57,-542.5 57,-485.5 0,-485.5"/>
<text text-anchor="middle" x="28.5" y="-530.5" font-family="Helvetica,sans-Serif" font-size="10.00" fill="#000000">GLenum</text>
<polyline fill="none" stroke="#bfbfbf" points="0,-523.5 57,-523.5 "/>
<text text-anchor="middle" x="28.5" y="-511.5" font-family="Helvetica,sans-Serif" font-size="10.00" fill="#000000"> </text>
<polyline fill="none" stroke="#bfbfbf" points="0,-504.5 57,-504.5 "/>
<text text-anchor="middle" x="28.5" y="-492.5" font-family="Helvetica,sans-Serif" font-size="10.00" fill="#000000"> </text>
</g>
<!-- Node3&#45;&gt;Node2 -->
<g id="edge2" class="edge">
<title>Node3&#45;&gt;Node2</title>
<path fill="none" stroke="#404040" d="M21.5028,-485.3798C15.4831,-453.4761 11.2821,-401.9191 36.5,-368 41.8808,-360.7626 55.3067,-353.7239 71.5903,-347.3909"/>
<polygon fill="none" stroke="#404040" points="71.986,-347.2463 76.2476,-341.4291 83.2563,-343.1255 78.9947,-348.9427 71.986,-347.2463"/>
<text text-anchor="middle" x="77" y="-459" font-family="Helvetica,sans-Serif" font-size="10.00" fill="#000000"> +type</text>
<text text-anchor="middle" x="77" y="-448" font-family="Helvetica,sans-Serif" font-size="10.00" fill="#000000">+minFilter</text>
<text text-anchor="middle" x="77" y="-437" font-family="Helvetica,sans-Serif" font-size="10.00" fill="#000000">+wrapP</text>
<text text-anchor="middle" x="77" y="-426" font-family="Helvetica,sans-Serif" font-size="10.00" fill="#000000">+magFilter</text>
<text text-anchor="middle" x="77" y="-415" font-family="Helvetica,sans-Serif" font-size="10.00" fill="#000000">+target</text>
<text text-anchor="middle" x="77" y="-404" font-family="Helvetica,sans-Serif" font-size="10.00" fill="#000000">+internalFormat</text>
<text text-anchor="middle" x="77" y="-393" font-family="Helvetica,sans-Serif" font-size="10.00" fill="#000000">+wrapS</text>
<text text-anchor="middle" x="77" y="-382" font-family="Helvetica,sans-Serif" font-size="10.00" fill="#000000">+wrapT</text>
<text text-anchor="middle" x="77" y="-371" font-family="Helvetica,sans-Serif" font-size="10.00" fill="#000000">+format</text>
</g>
<!-- Node4 -->
<g id="node4" class="node">
<title>Node4</title>
<polygon fill="#ffffff" stroke="#bfbfbf" points="107,-485.5 107,-542.5 152,-542.5 152,-485.5 107,-485.5"/>
<text text-anchor="middle" x="129.5" y="-530.5" font-family="Helvetica,sans-Serif" font-size="10.00" fill="#000000">size_t</text>
<polyline fill="none" stroke="#bfbfbf" points="107,-523.5 152,-523.5 "/>
<text text-anchor="middle" x="129.5" y="-511.5" font-family="Helvetica,sans-Serif" font-size="10.00" fill="#000000"> </text>
<polyline fill="none" stroke="#bfbfbf" points="107,-504.5 152,-504.5 "/>
<text text-anchor="middle" x="129.5" y="-492.5" font-family="Helvetica,sans-Serif" font-size="10.00" fill="#000000"> </text>
</g>
<!-- Node4&#45;&gt;Node2 -->
<g id="edge3" class="edge">
<title>Node4&#45;&gt;Node2</title>
<path fill="none" stroke="#404040" d="M125.1688,-485.4312C121.7276,-455.3611 119.4075,-407.0622 132.5,-368 133.4046,-365.301 134.524,-362.625 135.7997,-359.9998"/>
<polygon fill="none" stroke="#404040" points="135.8113,-359.9794 135.3214,-352.785 141.774,-349.5657 142.2639,-356.7601 135.8113,-359.9794"/>
<text text-anchor="middle" x="152.5" y="-426" font-family="Helvetica,sans-Serif" font-size="10.00" fill="#000000"> +depth</text>
<text text-anchor="middle" x="152.5" y="-415" font-family="Helvetica,sans-Serif" font-size="10.00" fill="#000000">+height</text>
<text text-anchor="middle" x="152.5" y="-404" font-family="Helvetica,sans-Serif" font-size="10.00" fill="#000000">+width</text>
</g>
<!-- Node5 -->
<g id="node5" class="node">
<title>Node5</title>
<g id="a_node5"><a xlink:title="STL class. ">
<polygon fill="#ffffff" stroke="#bfbfbf" points="170,-485.5 170,-542.5 235,-542.5 235,-485.5 170,-485.5"/>
<text text-anchor="middle" x="202.5" y="-530.5" font-family="Helvetica,sans-Serif" font-size="10.00" fill="#000000">std::string</text>
<polyline fill="none" stroke="#bfbfbf" points="170,-523.5 235,-523.5 "/>
<text text-anchor="middle" x="202.5" y="-511.5" font-family="Helvetica,sans-Serif" font-size="10.00" fill="#000000"> </text>
<polyline fill="none" stroke="#bfbfbf" points="170,-504.5 235,-504.5 "/>
<text text-anchor="middle" x="202.5" y="-492.5" font-family="Helvetica,sans-Serif" font-size="10.00" fill="#000000"> </text>
</a>
</g>
</g>
<!-- Node5&#45;&gt;Node2 -->
<g id="edge4" class="edge">
<title>Node5&#45;&gt;Node2</title>
<path fill="none" stroke="#404040" d="M197.6995,-485.412C192.6825,-455.94 184.4479,-408.682 176.5,-368 176.1041,-365.9736 175.6913,-363.8997 175.2685,-361.8064"/>
<polygon fill="none" stroke="#404040" points="175.2163,-361.5533 170.0844,-356.4873 172.787,-349.8017 177.9188,-354.8678 175.2163,-361.5533"/>
<text text-anchor="middle" x="213.5" y="-415" font-family="Helvetica,sans-Serif" font-size="10.00" fill="#000000"> +name</text>
</g>
<!-- Node6 -->
<g id="node6" class="node">
<title>Node6</title>
<g id="a_node6"><a xlink:title="STL class. ">
<polygon fill="#ffffff" stroke="#bfbfbf" points="150.5,-580.5 150.5,-648.5 254.5,-648.5 254.5,-580.5 150.5,-580.5"/>
<text text-anchor="start" x="158.5" y="-636.5" font-family="Helvetica,sans-Serif" font-size="10.00" fill="#000000">std::basic_string&lt;</text>
<text text-anchor="middle" x="202.5" y="-625.5" font-family="Helvetica,sans-Serif" font-size="10.00" fill="#000000"> char &gt;</text>
<polyline fill="none" stroke="#bfbfbf" points="150.5,-618.5 254.5,-618.5 "/>
<text text-anchor="middle" x="202.5" y="-606.5" font-family="Helvetica,sans-Serif" font-size="10.00" fill="#000000"> </text>
<polyline fill="none" stroke="#bfbfbf" points="150.5,-599.5 254.5,-599.5 "/>
<text text-anchor="middle" x="202.5" y="-587.5" font-family="Helvetica,sans-Serif" font-size="10.00" fill="#000000"> </text>
</a>
</g>
</g>
<!-- Node6&#45;&gt;Node5 -->
<g id="edge5" class="edge">
<title>Node6&#45;&gt;Node5</title>
<path fill="none" stroke="#191970" d="M202.5,-570.4301C202.5,-561.0073 202.5,-551.2901 202.5,-542.6312"/>
<polygon fill="none" stroke="#191970" points="199.0001,-570.4752 202.5,-580.4753 206.0001,-570.4753 199.0001,-570.4752"/>
</g>
<!-- Node7 -->
<g id="node7" class="node">
<title>Node7</title>
<polygon fill="#ffffff" stroke="#bfbfbf" points="253.5,-485.5 253.5,-542.5 299.5,-542.5 299.5,-485.5 253.5,-485.5"/>
<text text-anchor="middle" x="276.5" y="-530.5" font-family="Helvetica,sans-Serif" font-size="10.00" fill="#000000">void *</text>
<polyline fill="none" stroke="#bfbfbf" points="253.5,-523.5 299.5,-523.5 "/>
<text text-anchor="middle" x="276.5" y="-511.5" font-family="Helvetica,sans-Serif" font-size="10.00" fill="#000000"> </text>
<polyline fill="none" stroke="#bfbfbf" points="253.5,-504.5 299.5,-504.5 "/>
<text text-anchor="middle" x="276.5" y="-492.5" font-family="Helvetica,sans-Serif" font-size="10.00" fill="#000000"> </text>
</g>
<!-- Node7&#45;&gt;Node2 -->
<g id="edge6" class="edge">
<title>Node7&#45;&gt;Node2</title>
<path fill="none" stroke="#404040" d="M274.8298,-485.378C271.7257,-453.942 262.8538,-403.2495 237.5,-368 234.8862,-364.3661 231.8974,-360.9342 228.6588,-357.7075"/>
<polygon fill="none" stroke="#404040" points="228.5587,-357.6185 221.4167,-356.6229 219.5888,-349.6473 226.7309,-350.6429 228.5587,-357.6185"/>
<text text-anchor="middle" x="292.5" y="-415" font-family="Helvetica,sans-Serif" font-size="10.00" fill="#000000"> +texels</text>
</g>
</g>
</svg>
