<?xml version="1.0" encoding="UTF-8" standalone="no"?>
<!DOCTYPE svg PUBLIC "-//W3C//DTD SVG 1.1//EN"
 "http://www.w3.org/Graphics/SVG/1.1/DTD/svg11.dtd">
<!-- Generated by graphviz version 2.40.1 (20161225.0304)
 -->
<!-- Title: Ra::Gui::Viewer::initializeRenderer Pages: 1 -->
<!--zoomable 350 -->
<svg id="main" version="1.1" xmlns="http://www.w3.org/2000/svg" xmlns:xlink="http://www.w3.org/1999/xlink" xml:space="preserve" onload="init(evt)">
<style type="text/css"><![CDATA[
.edge:hover path { stroke: red; }
.edge:hover polygon { stroke: red; fill: red; }
]]></style>
<script type="text/javascript"><![CDATA[
var edges = document.getElementsByTagName('g');
if (edges && edges.length) {
  for (var i=0;i<edges.length;i++) {
    if (edges[i].id.substr(0,4)=='edge') {
      edges[i].setAttribute('class','edge');
    }
  }
}
]]></script>
        <defs>
                <circle id="rim" cx="0" cy="0" r="7"/>
                <circle id="rim2" cx="0" cy="0" r="3.5"/>
                <g id="zoomPlus">
                        <use xlink:href="#rim" fill="#404040">
                                <set attributeName="fill" to="#808080" begin="zoomplus.mouseover" end="zoomplus.mouseout"/>
                        </use>
                        <path d="M-4,0h8M0,-4v8" fill="none" stroke="white" stroke-width="1.5" pointer-events="none"/>
                </g>
                <g id="zoomMin">
                        <use xlink:href="#rim" fill="#404040">
                                <set attributeName="fill" to="#808080" begin="zoomminus.mouseover" end="zoomminus.mouseout"/>
                        </use>
                        <path d="M-4,0h8" fill="none" stroke="white" stroke-width="1.5" pointer-events="none"/>
                </g>
                <g id="dirArrow">
                        <path fill="none" stroke="white" stroke-width="1.5" d="M0,-3.0v7 M-2.5,-0.5L0,-3.0L2.5,-0.5"/>
                </g>
               <g id="resetDef">
                       <use xlink:href="#rim2" fill="#404040">
                               <set attributeName="fill" to="#808080" begin="reset.mouseover" end="reset.mouseout"/>
                       </use>
               </g>
        </defs>

<script type="text/javascript">
var viewWidth = 1356;
var viewHeight = 350;
var sectionId = 'dynsection-11';
</script>
<script xlink:href="svgpan.js"/>
<svg id="graph" class="graph">
<g id="viewport">
<title>Ra::Gui::Viewer::initializeRenderer</title>
<polygon fill="#ffffff" stroke="transparent" points="-4,4 -4,-346 1352,-346 1352,4 -4,4"/>
<!-- Node116 -->
<g id="node1" class="node">
<title>Node116</title>
<polygon fill="#bfbfbf" stroke="#000000" points="0,-115.5 0,-145.5 140,-145.5 140,-115.5 0,-115.5"/>
<text text-anchor="start" x="8" y="-133.5" font-family="Helvetica,sans-Serif" font-size="10.00" fill="#000000">Ra::Gui::Viewer::initialize</text>
<text text-anchor="middle" x="70" y="-122.5" font-family="Helvetica,sans-Serif" font-size="10.00" fill="#000000">Renderer</text>
</g>
<!-- Node117 -->
<g id="node2" class="node">
<title>Node117</title>
<g id="a_node2"><a xlink:href="classRa_1_1Engine_1_1Renderer.html#af7d65da9d3a185ede31e308d79398259" target="_top" xlink:title="Initialize renderer. ">
<polygon fill="#ffffff" stroke="#000000" points="177.5,-164.5 177.5,-194.5 295.5,-194.5 295.5,-164.5 177.5,-164.5"/>
<text text-anchor="start" x="185.5" y="-182.5" font-family="Helvetica,sans-Serif" font-size="10.00" fill="#000000">Ra::Engine::Renderer</text>
<text text-anchor="middle" x="236.5" y="-171.5" font-family="Helvetica,sans-Serif" font-size="10.00" fill="#000000">::initialize</text>
</a>
</g>
</g>
<!-- Node116&#45;&gt;Node117 -->
<g id="edge1" class="edge">
<title>Node116&#45;&gt;Node117</title>
<path fill="none" stroke="#191970" d="M121.3141,-145.6014C138.4862,-150.6551 157.7952,-156.3376 175.625,-161.5848"/>
<polygon fill="#191970" stroke="#191970" points="174.774,-164.9828 185.3554,-164.4484 176.7503,-158.2675 174.774,-164.9828"/>
</g>
<!-- Node139 -->
<g id="node24" class="node">
<title>Node139</title>
<g id="a_node24"><a xlink:href="classRa_1_1Engine_1_1Renderer.html#a756b68241ef8d803e97ddf7f97c4ee39" target="_top" xlink:title="Update the background color (does not trigger a redraw) ">
<polygon fill="#ffffff" stroke="#000000" points="176,-115.5 176,-145.5 297,-145.5 297,-115.5 176,-115.5"/>
<text text-anchor="start" x="184" y="-133.5" font-family="Helvetica,sans-Serif" font-size="10.00" fill="#000000">Ra::Engine::Renderer</text>
<text text-anchor="middle" x="236.5" y="-122.5" font-family="Helvetica,sans-Serif" font-size="10.00" fill="#000000">::setBackgroundColor</text>
</a>
</g>
</g>
<!-- Node116&#45;&gt;Node139 -->
<g id="edge27" class="edge">
<title>Node116&#45;&gt;Node139</title>
<path fill="none" stroke="#191970" d="M140.1284,-130.5C148.595,-130.5 157.2474,-130.5 165.7232,-130.5"/>
<polygon fill="#191970" stroke="#191970" points="165.95,-134.0001 175.95,-130.5 165.9499,-127.0001 165.95,-134.0001"/>
</g>
<!-- Node140 -->
<g id="node25" class="node">
<title>Node140</title>
<g id="a_node25"><a xlink:href="classRa_1_1Engine_1_1Renderer.html#a3166160850c466595fe48a74116bc116" target="_top" xlink:title="Ra::Engine::Renderer\l::lockRendering">
<polygon fill="#ffffff" stroke="#000000" points="177.5,-66.5 177.5,-96.5 295.5,-96.5 295.5,-66.5 177.5,-66.5"/>
<text text-anchor="start" x="185.5" y="-84.5" font-family="Helvetica,sans-Serif" font-size="10.00" fill="#000000">Ra::Engine::Renderer</text>
<text text-anchor="middle" x="236.5" y="-73.5" font-family="Helvetica,sans-Serif" font-size="10.00" fill="#000000">::lockRendering</text>
</a>
</g>
</g>
<!-- Node116&#45;&gt;Node140 -->
<g id="edge28" class="edge">
<title>Node116&#45;&gt;Node140</title>
<path fill="none" stroke="#191970" d="M121.3141,-115.3986C138.4862,-110.3449 157.7952,-104.6624 175.625,-99.4152"/>
<polygon fill="#191970" stroke="#191970" points="176.7503,-102.7325 185.3554,-96.5516 174.774,-96.0172 176.7503,-102.7325"/>
</g>
<!-- Node118 -->
<g id="node3" class="node">
<title>Node118</title>
<g id="a_node3"><a xlink:href="namespaceRa_1_1Core_1_1Resources.html#aefb858008bce4916fa3cfcef244aeda0" target="_top" xlink:title="Ra::Core::Resources\l::getRadiumResourcesDir">
<polygon fill="#ffffff" stroke="#000000" points="349.5,-311.5 349.5,-341.5 489.5,-341.5 489.5,-311.5 349.5,-311.5"/>
<text text-anchor="start" x="357.5" y="-329.5" font-family="Helvetica,sans-Serif" font-size="10.00" fill="#000000">Ra::Core::Resources</text>
<text text-anchor="middle" x="419.5" y="-318.5" font-family="Helvetica,sans-Serif" font-size="10.00" fill="#000000">::getRadiumResourcesDir</text>
</a>
</g>
</g>
<!-- Node117&#45;&gt;Node118 -->
<g id="edge2" class="edge">
<title>Node117&#45;&gt;Node118</title>
<path fill="none" stroke="#191970" d="M244.0996,-194.5172C258.0615,-220.5612 290.3201,-274.0409 333,-302.5 335.4312,-304.1211 337.9703,-305.6335 340.5884,-307.0445"/>
<polygon fill="#191970" stroke="#191970" points="339.2247,-310.2725 349.7527,-311.461 342.2638,-303.9665 339.2247,-310.2725"/>
</g>
<!-- Node120 -->
<g id="node5" class="node">
<title>Node120</title>
<g id="a_node5"><a xlink:href="classRa_1_1Engine_1_1ShaderProgramManager.html#a82a7361639c0fbd401447e2d253dc961" target="_top" xlink:title="Ra::Engine::ShaderProgram\lManager::addShaderProgram">
<polygon fill="#ffffff" stroke="#000000" points="340.5,-262.5 340.5,-292.5 498.5,-292.5 498.5,-262.5 340.5,-262.5"/>
<text text-anchor="start" x="348.5" y="-280.5" font-family="Helvetica,sans-Serif" font-size="10.00" fill="#000000">Ra::Engine::ShaderProgram</text>
<text text-anchor="middle" x="419.5" y="-269.5" font-family="Helvetica,sans-Serif" font-size="10.00" fill="#000000">Manager::addShaderProgram</text>
</a>
</g>
</g>
<!-- Node117&#45;&gt;Node120 -->
<g id="edge4" class="edge">
<title>Node117&#45;&gt;Node120</title>
<path fill="none" stroke="#191970" d="M252.2649,-194.7103C270.3705,-211.3919 301.6343,-237.8652 333,-253.5 336.9512,-255.4695 341.0871,-257.2971 345.3185,-258.9899"/>
<polygon fill="#191970" stroke="#191970" points="344.1069,-262.2734 354.6996,-262.4835 346.5498,-255.7136 344.1069,-262.2734"/>
</g>
<!-- Node122 -->
<g id="node7" class="node">
<title>Node122</title>
<g id="a_node7"><a xlink:href="classRa_1_1Engine_1_1ShaderConfiguration.html#a8ffa1714a9e63a320acaa7873fb99797" target="_top" xlink:title="Ra::Engine::ShaderConfiguration\l::addShader">
<polygon fill="#ffffff" stroke="#000000" points="333,-213.5 333,-243.5 506,-243.5 506,-213.5 333,-213.5"/>
<text text-anchor="start" x="341" y="-231.5" font-family="Helvetica,sans-Serif" font-size="10.00" fill="#000000">Ra::Engine::ShaderConfiguration</text>
<text text-anchor="middle" x="419.5" y="-220.5" font-family="Helvetica,sans-Serif" font-size="10.00" fill="#000000">::addShader</text>
</a>
</g>
</g>
<!-- Node117&#45;&gt;Node122 -->
<g id="edge6" class="edge">
<title>Node117&#45;&gt;Node122</title>
<path fill="none" stroke="#191970" d="M292.8993,-194.6014C312.0353,-199.7253 333.5855,-205.4956 353.4079,-210.8032"/>
<polygon fill="#191970" stroke="#191970" points="352.722,-214.2428 363.287,-213.4484 354.5325,-207.481 352.722,-214.2428"/>
</g>
<!-- Node123 -->
<g id="node8" class="node">
<title>Node123</title>
<g id="a_node8"><a xlink:href="namespaceRa_1_1Engine_1_1ShaderConfigurationFactory.html#a36842535508a390108fb1205210a5c49" target="_top" xlink:title="Ra::Engine::ShaderConfiguration\lFactory::addConfiguration">
<polygon fill="#ffffff" stroke="#000000" points="333,-164.5 333,-194.5 506,-194.5 506,-164.5 333,-164.5"/>
<text text-anchor="start" x="341" y="-182.5" font-family="Helvetica,sans-Serif" font-size="10.00" fill="#000000">Ra::Engine::ShaderConfiguration</text>
<text text-anchor="middle" x="419.5" y="-171.5" font-family="Helvetica,sans-Serif" font-size="10.00" fill="#000000">Factory::addConfiguration</text>
</a>
</g>
</g>
<!-- Node117&#45;&gt;Node123 -->
<g id="edge7" class="edge">
<title>Node117&#45;&gt;Node123</title>
<path fill="none" stroke="#191970" d="M295.6621,-179.5C304.4045,-179.5 313.599,-179.5 322.8638,-179.5"/>
<polygon fill="#191970" stroke="#191970" points="322.9268,-183.0001 332.9267,-179.5 322.9267,-176.0001 322.9268,-183.0001"/>
</g>
<!-- Node124 -->
<g id="node9" class="node">
<title>Node124</title>
<g id="a_node9"><a xlink:href="namespaceRa_1_1Core_1_1Geometry.html#ad5f12dda8ca32de7363062238f1d6ccd" target="_top" xlink:title="Create a 2D quad mesh given half extents, centered on the origin with z axis as normal. ">
<polygon fill="#ffffff" stroke="#000000" points="360,-115.5 360,-145.5 479,-145.5 479,-115.5 360,-115.5"/>
<text text-anchor="start" x="368" y="-133.5" font-family="Helvetica,sans-Serif" font-size="10.00" fill="#000000">Ra::Core::Geometry</text>
<text text-anchor="middle" x="419.5" y="-122.5" font-family="Helvetica,sans-Serif" font-size="10.00" fill="#000000">::makeZNormalQuad</text>
</a>
</g>
</g>
<!-- Node117&#45;&gt;Node124 -->
<g id="edge8" class="edge">
<title>Node117&#45;&gt;Node124</title>
<path fill="none" stroke="#191970" d="M292.8993,-164.3986C312.0353,-159.2747 333.5855,-153.5044 353.4079,-148.1968"/>
<polygon fill="#191970" stroke="#191970" points="354.5325,-151.519 363.287,-145.5516 352.722,-144.7572 354.5325,-151.519"/>
</g>
<!-- Node136 -->
<g id="node21" class="node">
<title>Node136</title>
<g id="a_node21"><a xlink:href="classRa_1_1Engine_1_1Renderer.html#ab793c712188ab407165f2e8a5f80ceb0" target="_top" xlink:title="initializeInternal Initialize the renderer dependant resources. ">
<polygon fill="#ffffff" stroke="#000000" points="360.5,-66.5 360.5,-96.5 478.5,-96.5 478.5,-66.5 360.5,-66.5"/>
<text text-anchor="start" x="368.5" y="-84.5" font-family="Helvetica,sans-Serif" font-size="10.00" fill="#000000">Ra::Engine::Renderer</text>
<text text-anchor="middle" x="419.5" y="-73.5" font-family="Helvetica,sans-Serif" font-size="10.00" fill="#000000">::initializeInternal</text>
</a>
</g>
</g>
<!-- Node117&#45;&gt;Node136 -->
<g id="edge24" class="edge">
<title>Node117&#45;&gt;Node136</title>
<path fill="none" stroke="#191970" d="M282.6021,-164.4377C287.6956,-161.8509 292.6171,-158.8834 297,-155.5 318.3913,-138.9868 310.8387,-121.9644 333,-106.5 338.5123,-102.6534 344.6133,-99.3937 350.9497,-96.6322"/>
<polygon fill="#191970" stroke="#191970" points="352.3345,-99.8487 360.3606,-92.9326 349.7733,-93.334 352.3345,-99.8487"/>
</g>
<!-- Node137 -->
<g id="node22" class="node">
<title>Node137</title>
<g id="a_node22"><a xlink:href="classRa_1_1Engine_1_1Renderer.html#a7343dbeb04c9699cc2abf2690c9941ee" target="_top" xlink:title="Resize the viewport and all the screen textures, fbos. This function must be overrided as soon as som...">
<polygon fill="#ffffff" stroke="#000000" points="360.5,-17.5 360.5,-47.5 478.5,-47.5 478.5,-17.5 360.5,-17.5"/>
<text text-anchor="start" x="368.5" y="-35.5" font-family="Helvetica,sans-Serif" font-size="10.00" fill="#000000">Ra::Engine::Renderer</text>
<text text-anchor="middle" x="419.5" y="-24.5" font-family="Helvetica,sans-Serif" font-size="10.00" fill="#000000">::resize</text>
</a>
</g>
</g>
<!-- Node117&#45;&gt;Node137 -->
<g id="edge25" class="edge">
<title>Node117&#45;&gt;Node137</title>
<path fill="none" stroke="#191970" d="M285.7045,-164.3506C289.8333,-161.8279 293.6874,-158.8985 297,-155.5 329.3879,-122.2719 299.0503,-89.1307 333,-57.5 338.1485,-52.7032 344.161,-48.8203 350.5744,-45.6782"/>
<polygon fill="#191970" stroke="#191970" points="352.3701,-48.7181 360.2038,-41.5848 349.6315,-42.276 352.3701,-48.7181"/>
</g>
<!-- Node119 -->
<g id="node4" class="node">
<title>Node119</title>
<g id="a_node4"><a xlink:href="namespaceRa_1_1Core_1_1Resources.html#a96e7523ac5a9f47629ee73938db23790" target="_top" xlink:title="Ra::Core::Resources\l::searchPath">
<polygon fill="#ffffff" stroke="#000000" points="572,-311.5 572,-341.5 685,-341.5 685,-311.5 572,-311.5"/>
<text text-anchor="start" x="580" y="-329.5" font-family="Helvetica,sans-Serif" font-size="10.00" fill="#000000">Ra::Core::Resources</text>
<text text-anchor="middle" x="628.5" y="-318.5" font-family="Helvetica,sans-Serif" font-size="10.00" fill="#000000">::searchPath</text>
</a>
</g>
</g>
<!-- Node118&#45;&gt;Node119 -->
<g id="edge3" class="edge">
<title>Node118&#45;&gt;Node119</title>
<path fill="none" stroke="#191970" d="M489.6754,-326.5C512.918,-326.5 538.7092,-326.5 561.6917,-326.5"/>
<polygon fill="#191970" stroke="#191970" points="561.6929,-330.0001 571.6928,-326.5 561.6928,-323.0001 561.6929,-330.0001"/>
</g>
<!-- Node121 -->
<g id="node6" class="node">
<title>Node121</title>
<g id="a_node6"><a xlink:href="classRa_1_1Engine_1_1ShaderConfiguration.html#a90822998fc1253faf6655348f7d9f43e" target="_top" xlink:title="Ra::Engine::ShaderConfiguration\l::getNamedStrings">
<polygon fill="#ffffff" stroke="#000000" points="542,-262.5 542,-292.5 715,-292.5 715,-262.5 542,-262.5"/>
<text text-anchor="start" x="550" y="-280.5" font-family="Helvetica,sans-Serif" font-size="10.00" fill="#000000">Ra::Engine::ShaderConfiguration</text>
<text text-anchor="middle" x="628.5" y="-269.5" font-family="Helvetica,sans-Serif" font-size="10.00" fill="#000000">::getNamedStrings</text>
</a>
</g>
</g>
<!-- Node120&#45;&gt;Node121 -->
<g id="edge5" class="edge">
<title>Node120&#45;&gt;Node121</title>
<path fill="none" stroke="#191970" d="M498.5139,-277.5C509.3113,-277.5 520.4953,-277.5 531.5655,-277.5"/>
<polygon fill="#191970" stroke="#191970" points="531.6856,-281.0001 541.6856,-277.5 531.6856,-274.0001 531.6856,-281.0001"/>
</g>
<!-- Node125 -->
<g id="node10" class="node">
<title>Node125</title>
<g id="a_node10"><a xlink:href="namespaceRa_1_1Core_1_1Geometry.html#a9f66e13e9a53313225543f2f1abcda8e" target="_top" xlink:title="Create a 2D grid mesh with given number of row and columns. ">
<polygon fill="#ffffff" stroke="#000000" points="572,-115.5 572,-145.5 685,-145.5 685,-115.5 572,-115.5"/>
<text text-anchor="start" x="580" y="-133.5" font-family="Helvetica,sans-Serif" font-size="10.00" fill="#000000">Ra::Core::Geometry</text>
<text text-anchor="middle" x="628.5" y="-122.5" font-family="Helvetica,sans-Serif" font-size="10.00" fill="#000000">::makePlaneGrid</text>
</a>
</g>
</g>
<!-- Node124&#45;&gt;Node125 -->
<g id="edge9" class="edge">
<title>Node124&#45;&gt;Node125</title>
<path fill="none" stroke="#191970" d="M479.1113,-130.5C504.7813,-130.5 534.9132,-130.5 561.3661,-130.5"/>
<polygon fill="#191970" stroke="#191970" points="561.6869,-134.0001 571.6869,-130.5 561.6869,-127.0001 561.6869,-134.0001"/>
</g>
<!-- Node126 -->
<g id="node11" class="node">
<title>Node126</title>
<g id="a_node11"><a xlink:href="classRa_1_1Core_1_1Grid.html#ac78b9eee5519a5287b1bc7a898b4ea01" target="_top" xlink:title="Access an element with a D&#45;dimensional index. ">
<polygon fill="#ffffff" stroke="#000000" points="802.5,-230 802.5,-249 902.5,-249 902.5,-230 802.5,-230"/>
<text text-anchor="middle" x="852.5" y="-237" font-family="Helvetica,sans-Serif" font-size="10.00" fill="#000000">Ra::Core::Grid::at</text>
</a>
</g>
</g>
<!-- Node125&#45;&gt;Node126 -->
<g id="edge10" class="edge">
<title>Node125&#45;&gt;Node126</title>
<path fill="none" stroke="#191970" d="M644.0549,-145.6111C665.9924,-166.002 708.1485,-201.9089 751,-220.5 763.9034,-226.0981 778.4312,-230.0495 792.3757,-232.8377"/>
<polygon fill="#191970" stroke="#191970" points="791.9284,-236.3138 802.3948,-234.6692 793.1873,-229.4279 791.9284,-236.3138"/>
</g>
<!-- Node127 -->
<g id="node12" class="node">
<title>Node127</title>
<g id="a_node12"><a xlink:href="classRa_1_1Core_1_1Geometry_1_1AttribArrayGeometry.html#a887411177386edbcdc35d0c6bf78a83a" target="_top" xlink:title="Set vertices. ">
<polygon fill="#ffffff" stroke="#000000" points="790,-110 790,-151 915,-151 915,-110 790,-110"/>
<text text-anchor="start" x="798" y="-139" font-family="Helvetica,sans-Serif" font-size="10.00" fill="#000000">Ra::Core::Geometry</text>
<text text-anchor="start" x="798" y="-128" font-family="Helvetica,sans-Serif" font-size="10.00" fill="#000000">::AttribArrayGeometry</text>
<text text-anchor="middle" x="852.5" y="-117" font-family="Helvetica,sans-Serif" font-size="10.00" fill="#000000">::setVertices</text>
</a>
</g>
</g>
<!-- Node125&#45;&gt;Node127 -->
<g id="edge11" class="edge">
<title>Node125&#45;&gt;Node127</title>
<path fill="none" stroke="#191970" d="M685.0247,-130.5C713.6696,-130.5 748.7915,-130.5 779.4608,-130.5"/>
<polygon fill="#191970" stroke="#191970" points="779.6753,-134.0001 789.6752,-130.5 779.6752,-127.0001 779.6753,-134.0001"/>
</g>
<!-- Node131 -->
<g id="node16" class="node">
<title>Node131</title>
<g id="a_node16"><a xlink:href="classRa_1_1Core_1_1Geometry_1_1AttribArrayGeometry.html#a646faabae9b936589fe03d8a9d2002e9" target="_top" xlink:title="Set normals. ">
<polygon fill="#ffffff" stroke="#000000" points="790,-50 790,-91 915,-91 915,-50 790,-50"/>
<text text-anchor="start" x="798" y="-79" font-family="Helvetica,sans-Serif" font-size="10.00" fill="#000000">Ra::Core::Geometry</text>
<text text-anchor="start" x="798" y="-68" font-family="Helvetica,sans-Serif" font-size="10.00" fill="#000000">::AttribArrayGeometry</text>
<text text-anchor="middle" x="852.5" y="-57" font-family="Helvetica,sans-Serif" font-size="10.00" fill="#000000">::setNormals</text>
</a>
</g>
</g>
<!-- Node125&#45;&gt;Node131 -->
<g id="edge15" class="edge">
<title>Node125&#45;&gt;Node131</title>
<path fill="none" stroke="#191970" d="M684.7355,-115.4369C713.6197,-107.7001 749.1473,-98.1838 780.061,-89.9033"/>
<polygon fill="#191970" stroke="#191970" points="781.1676,-93.2304 789.9215,-87.2621 779.3564,-86.4687 781.1676,-93.2304"/>
</g>
<!-- Node133 -->
<g id="node18" class="node">
<title>Node133</title>
<g id="a_node18"><a xlink:href="classRa_1_1Core_1_1Geometry_1_1AttribArrayGeometry.html#a3a3a1458f93f23c7c8663bc3d52f7841" target="_top" xlink:title="Ra::Core::Geometry\l::AttribArrayGeometry\l::colorize">
<polygon fill="#ffffff" stroke="#000000" points="790,-170 790,-211 915,-211 915,-170 790,-170"/>
<text text-anchor="start" x="798" y="-199" font-family="Helvetica,sans-Serif" font-size="10.00" fill="#000000">Ra::Core::Geometry</text>
<text text-anchor="start" x="798" y="-188" font-family="Helvetica,sans-Serif" font-size="10.00" fill="#000000">::AttribArrayGeometry</text>
<text text-anchor="middle" x="852.5" y="-177" font-family="Helvetica,sans-Serif" font-size="10.00" fill="#000000">::colorize</text>
</a>
</g>
</g>
<!-- Node125&#45;&gt;Node133 -->
<g id="edge19" class="edge">
<title>Node125&#45;&gt;Node133</title>
<path fill="none" stroke="#191970" d="M684.7355,-145.5631C713.6197,-153.2999 749.1473,-162.8162 780.061,-171.0967"/>
<polygon fill="#191970" stroke="#191970" points="779.3564,-174.5313 789.9215,-173.7379 781.1676,-167.7696 779.3564,-174.5313"/>
</g>
<!-- Node135 -->
<g id="node20" class="node">
<title>Node135</title>
<g id="a_node20"><a xlink:href="classRa_1_1Core_1_1Geometry_1_1IndexedGeometry.html#a927f636cf0698e637cc23e2f7f012a48" target="_top" xlink:title="Ra::Core::Geometry\l::IndexedGeometry::checkConsistency">
<polygon fill="#ffffff" stroke="#000000" points="751,-.5 751,-30.5 954,-30.5 954,-.5 751,-.5"/>
<text text-anchor="start" x="759" y="-18.5" font-family="Helvetica,sans-Serif" font-size="10.00" fill="#000000">Ra::Core::Geometry</text>
<text text-anchor="middle" x="852.5" y="-7.5" font-family="Helvetica,sans-Serif" font-size="10.00" fill="#000000">::IndexedGeometry::checkConsistency</text>
</a>
</g>
</g>
<!-- Node125&#45;&gt;Node135 -->
<g id="edge23" class="edge">
<title>Node125&#45;&gt;Node135</title>
<path fill="none" stroke="#191970" d="M644.5864,-115.3919C666.8054,-95.3398 708.9292,-60.1811 751,-40.5 756.2654,-38.0368 761.8022,-35.7986 767.4601,-33.7677"/>
<polygon fill="#191970" stroke="#191970" points="768.703,-37.0424 777.0696,-30.5423 766.4756,-30.4063 768.703,-37.0424"/>
</g>
<!-- Node128 -->
<g id="node13" class="node">
<title>Node128</title>
<g id="a_node13"><a xlink:href="classRa_1_1Core_1_1Utils_1_1AttribManager.html#a056b7697cfbedd6b20dde6ce7955094e" target="_top" xlink:title="Ra::Core::Utils::AttribManager\l::setAttrib">
<polygon fill="#ffffff" stroke="#000000" points="990,-85.5 990,-115.5 1151,-115.5 1151,-85.5 990,-85.5"/>
<text text-anchor="start" x="998" y="-103.5" font-family="Helvetica,sans-Serif" font-size="10.00" fill="#000000">Ra::Core::Utils::AttribManager</text>
<text text-anchor="middle" x="1070.5" y="-92.5" font-family="Helvetica,sans-Serif" font-size="10.00" fill="#000000">::setAttrib</text>
</a>
</g>
</g>
<!-- Node127&#45;&gt;Node128 -->
<g id="edge12" class="edge">
<title>Node127&#45;&gt;Node128</title>
<path fill="none" stroke="#191970" d="M915.2622,-121.863C935.4417,-119.086 958.2166,-115.9518 979.9792,-112.957"/>
<polygon fill="#191970" stroke="#191970" points="980.4646,-116.4233 989.894,-111.5926 979.5102,-109.4886 980.4646,-116.4233"/>
</g>
<!-- Node129 -->
<g id="node14" class="node">
<title>Node129</title>
<g id="a_node14"><a xlink:href="classRa_1_1Core_1_1Geometry_1_1AttribArrayGeometry.html#acabe05880d71a8dc4406964c258fff5a" target="_top" xlink:title="Access the vertices positions. ">
<polygon fill="#ffffff" stroke="#000000" points="1008,-135 1008,-176 1133,-176 1133,-135 1008,-135"/>
<text text-anchor="start" x="1016" y="-164" font-family="Helvetica,sans-Serif" font-size="10.00" fill="#000000">Ra::Core::Geometry</text>
<text text-anchor="start" x="1016" y="-153" font-family="Helvetica,sans-Serif" font-size="10.00" fill="#000000">::AttribArrayGeometry</text>
<text text-anchor="middle" x="1070.5" y="-142" font-family="Helvetica,sans-Serif" font-size="10.00" fill="#000000">::vertices</text>
</a>
</g>
</g>
<!-- Node127&#45;&gt;Node129 -->
<g id="edge13" class="edge">
<title>Node127&#45;&gt;Node129</title>
<path fill="none" stroke="#191970" d="M915.2622,-137.6975C941.0268,-140.6522 971.0223,-144.092 997.7399,-147.1559"/>
<polygon fill="#191970" stroke="#191970" points="997.4698,-150.6478 1007.8035,-148.31 998.2674,-143.6934 997.4698,-150.6478"/>
</g>
<!-- Node130 -->
<g id="node15" class="node">
<title>Node130</title>
<g id="a_node15"><a xlink:href="classRa_1_1Core_1_1Utils_1_1AttribManager.html#ae0cb7281ec72606a5392602b4ea50d2c" target="_top" xlink:title="Ra::Core::Utils::AttribManager\l::getAttrib">
<polygon fill="#ffffff" stroke="#000000" points="1187,-140.5 1187,-170.5 1348,-170.5 1348,-140.5 1187,-140.5"/>
<text text-anchor="start" x="1195" y="-158.5" font-family="Helvetica,sans-Serif" font-size="10.00" fill="#000000">Ra::Core::Utils::AttribManager</text>
<text text-anchor="middle" x="1267.5" y="-147.5" font-family="Helvetica,sans-Serif" font-size="10.00" fill="#000000">::getAttrib</text>
</a>
</g>
</g>
<!-- Node129&#45;&gt;Node130 -->
<g id="edge14" class="edge">
<title>Node129&#45;&gt;Node130</title>
<path fill="none" stroke="#191970" d="M1133.1027,-155.5C1146.9253,-155.5 1161.8405,-155.5 1176.5309,-155.5"/>
<polygon fill="#191970" stroke="#191970" points="1176.6492,-159.0001 1186.6492,-155.5 1176.6491,-152.0001 1176.6492,-159.0001"/>
</g>
<!-- Node131&#45;&gt;Node128 -->
<g id="edge16" class="edge">
<title>Node131&#45;&gt;Node128</title>
<path fill="none" stroke="#191970" d="M915.2622,-79.137C935.4417,-81.914 958.2166,-85.0482 979.9792,-88.043"/>
<polygon fill="#191970" stroke="#191970" points="979.5102,-91.5114 989.894,-89.4074 980.4646,-84.5767 979.5102,-91.5114"/>
</g>
<!-- Node132 -->
<g id="node17" class="node">
<title>Node132</title>
<g id="a_node17"><a xlink:href="classRa_1_1Core_1_1Geometry_1_1AttribArrayGeometry.html#abfd2320cb73c0cb14805c234af594b5e" target="_top" xlink:title="Access the vertices normals. ">
<polygon fill="#ffffff" stroke="#000000" points="1008,-25 1008,-66 1133,-66 1133,-25 1008,-25"/>
<text text-anchor="start" x="1016" y="-54" font-family="Helvetica,sans-Serif" font-size="10.00" fill="#000000">Ra::Core::Geometry</text>
<text text-anchor="start" x="1016" y="-43" font-family="Helvetica,sans-Serif" font-size="10.00" fill="#000000">::AttribArrayGeometry</text>
<text text-anchor="middle" x="1070.5" y="-32" font-family="Helvetica,sans-Serif" font-size="10.00" fill="#000000">::normals</text>
</a>
</g>
</g>
<!-- Node131&#45;&gt;Node132 -->
<g id="edge17" class="edge">
<title>Node131&#45;&gt;Node132</title>
<path fill="none" stroke="#191970" d="M915.2622,-63.3025C941.0268,-60.3478 971.0223,-56.908 997.7399,-53.8441"/>
<polygon fill="#191970" stroke="#191970" points="998.2674,-57.3066 1007.8035,-52.69 997.4698,-50.3522 998.2674,-57.3066"/>
</g>
<!-- Node132&#45;&gt;Node130 -->
<g id="edge18" class="edge">
<title>Node132&#45;&gt;Node130</title>
<path fill="none" stroke="#191970" d="M1128.8085,-66.1267C1136.3941,-69.3389 1143.966,-72.8225 1151,-76.5 1183.069,-93.2663 1217.0185,-117.0692 1239.9426,-134.1581"/>
<polygon fill="#191970" stroke="#191970" points="1238.0687,-137.1284 1248.1618,-140.3501 1242.2808,-131.5374 1238.0687,-137.1284"/>
</g>
<!-- Node133&#45;&gt;Node129 -->
<g id="edge22" class="edge">
<title>Node133&#45;&gt;Node129</title>
<path fill="none" stroke="#191970" d="M915.2622,-180.4235C941.0268,-176.287 971.0223,-171.4712 997.7399,-167.1817"/>
<polygon fill="#191970" stroke="#191970" points="998.4848,-170.607 1007.8035,-165.566 997.3751,-163.6955 998.4848,-170.607"/>
</g>
<!-- Node134 -->
<g id="node19" class="node">
<title>Node134</title>
<g id="a_node19"><a xlink:href="classRa_1_1Core_1_1Geometry_1_1AttribArrayGeometry.html#aeb68d9cd8cf8c1e05886a23f0ad33c59" target="_top" xlink:title="Ra::Core::Geometry\l::AttribArrayGeometry\l::getAttrib">
<polygon fill="#ffffff" stroke="#000000" points="1008,-195 1008,-236 1133,-236 1133,-195 1008,-195"/>
<text text-anchor="start" x="1016" y="-224" font-family="Helvetica,sans-Serif" font-size="10.00" fill="#000000">Ra::Core::Geometry</text>
<text text-anchor="start" x="1016" y="-213" font-family="Helvetica,sans-Serif" font-size="10.00" fill="#000000">::AttribArrayGeometry</text>
<text text-anchor="middle" x="1070.5" y="-202" font-family="Helvetica,sans-Serif" font-size="10.00" fill="#000000">::getAttrib</text>
</a>
</g>
</g>
<!-- Node133&#45;&gt;Node134 -->
<g id="edge20" class="edge">
<title>Node133&#45;&gt;Node134</title>
<path fill="none" stroke="#191970" d="M915.2622,-197.6975C941.0268,-200.6522 971.0223,-204.092 997.7399,-207.1559"/>
<polygon fill="#191970" stroke="#191970" points="997.4698,-210.6478 1007.8035,-208.31 998.2674,-203.6934 997.4698,-210.6478"/>
</g>
<!-- Node134&#45;&gt;Node130 -->
<g id="edge21" class="edge">
<title>Node134&#45;&gt;Node130</title>
<path fill="none" stroke="#191970" d="M1133.1027,-196.4332C1157.2641,-189.0744 1184.7637,-180.6989 1208.5663,-173.4493"/>
<polygon fill="#191970" stroke="#191970" points="1209.6294,-176.7844 1218.1758,-170.5226 1207.5899,-170.0881 1209.6294,-176.7844"/>
</g>
<!-- Node138 -->
<g id="node23" class="node">
<title>Node138</title>
<g id="a_node23"><a xlink:href="classRa_1_1Engine_1_1Renderer.html#a18a293f1c7c6864e4f1de7f6b88b0f4a" target="_top" xlink:title="Ra::Engine::Renderer\l::resizeInternal">
<polygon fill="#ffffff" stroke="#000000" points="569.5,-17.5 569.5,-47.5 687.5,-47.5 687.5,-17.5 569.5,-17.5"/>
<text text-anchor="start" x="577.5" y="-35.5" font-family="Helvetica,sans-Serif" font-size="10.00" fill="#000000">Ra::Engine::Renderer</text>
<text text-anchor="middle" x="628.5" y="-24.5" font-family="Helvetica,sans-Serif" font-size="10.00" fill="#000000">::resizeInternal</text>
</a>
</g>
</g>
<!-- Node137&#45;&gt;Node138 -->
<g id="edge26" class="edge">
<title>Node137&#45;&gt;Node138</title>
<path fill="none" stroke="#191970" d="M478.553,-32.5C503.5956,-32.5 532.9629,-32.5 559.0385,-32.5"/>
<polygon fill="#191970" stroke="#191970" points="559.2308,-36.0001 569.2307,-32.5 559.2307,-29.0001 559.2308,-36.0001"/>
</g>
</g>
</svg>
        <g id="navigator" transform="translate(0 0)" fill="#404254">
                <rect fill="#f2f5e9" fill-opacity="0.5" stroke="#606060" stroke-width=".5" x="0" y="0" width="60" height="60"/>
                <use id="zoomplus" xlink:href="#zoomPlus" x="17" y="9" onmousedown="handleZoom(evt,'in')"/>
                <use id="zoomminus" xlink:href="#zoomMin" x="42" y="9" onmousedown="handleZoom(evt,'out')"/>
                <use id="reset" xlink:href="#resetDef" x="30" y="36" onmousedown="handleReset()"/>
                <g id="arrowUp" xlink:href="#dirArrow" transform="translate(30 24)" onmousedown="handlePan(0,-1)">
                  <use xlink:href="#rim" fill="#404040">
                        <set attributeName="fill" to="#808080" begin="arrowUp.mouseover" end="arrowUp.mouseout"/>
                  </use>
                  <path fill="none" stroke="white" stroke-width="1.5" d="M0,-3.0v7 M-2.5,-0.5L0,-3.0L2.5,-0.5"/>
                </g>
                <g id="arrowRight" xlink:href="#dirArrow" transform="rotate(90) translate(36 -43)" onmousedown="handlePan(1,0)">
                  <use xlink:href="#rim" fill="#404040">
                        <set attributeName="fill" to="#808080" begin="arrowRight.mouseover" end="arrowRight.mouseout"/>
                  </use>
                  <path fill="none" stroke="white" stroke-width="1.5" d="M0,-3.0v7 M-2.5,-0.5L0,-3.0L2.5,-0.5"/>
                </g>
                <g id="arrowDown" xlink:href="#dirArrow" transform="rotate(180) translate(-30 -48)" onmousedown="handlePan(0,1)">
                  <use xlink:href="#rim" fill="#404040">
                        <set attributeName="fill" to="#808080" begin="arrowDown.mouseover" end="arrowDown.mouseout"/>
                  </use>
                  <path fill="none" stroke="white" stroke-width="1.5" d="M0,-3.0v7 M-2.5,-0.5L0,-3.0L2.5,-0.5"/>
                </g>
                <g id="arrowLeft" xlink:href="#dirArrow" transform="rotate(270) translate(-36 17)" onmousedown="handlePan(-1,0)">
                  <use xlink:href="#rim" fill="#404040">
                        <set attributeName="fill" to="#808080" begin="arrowLeft.mouseover" end="arrowLeft.mouseout"/>
                  </use>
                  <path fill="none" stroke="white" stroke-width="1.5" d="M0,-3.0v7 M-2.5,-0.5L0,-3.0L2.5,-0.5"/>
                </g>
        </g>
        <svg viewBox="0 0 15 15" width="100%" height="30px" preserveAspectRatio="xMaxYMin meet">
         <g id="arrow_out" transform="scale(0.3 0.3)">
          <a xlink:href="classRa_1_1Gui_1_1Viewer_a0cc3560d7d694b69e93b9d18aec1c607_cgraph_org.svg" target="_base">
           <rect id="button" ry="5" rx="5" y="6" x="6" height="38" width="38"
                fill="#f2f5e9" fill-opacity="0.5" stroke="#606060" stroke-width="1.0"/>
           <path id="arrow"
             d="M 11.500037,31.436501 C 11.940474,20.09759 22.043105,11.32322 32.158766,21.979434 L 37.068811,17.246167 C 37.068811,17.246167 37.088388,32 37.088388,32 L 22.160133,31.978069 C 22.160133,31.978069 26.997745,27.140456 26.997745,27.140456 C 18.528582,18.264221 13.291696,25.230495 11.500037,31.436501 z"
             style="fill:#404040;"/>
          </a>
         </g>
        </svg>
</svg>
