<?xml version="1.0" encoding="UTF-8" standalone="no"?>
<!DOCTYPE svg PUBLIC "-//W3C//DTD SVG 1.1//EN"
 "http://www.w3.org/Graphics/SVG/1.1/DTD/svg11.dtd">
<!-- Generated by graphviz version 2.40.1 (20161225.0304)
 -->
<!-- Title: Ra::Engine::VolumeObject::loadGeometry Pages: 1 -->
<!--zoomable 372 -->
<svg id="main" version="1.1" xmlns="http://www.w3.org/2000/svg" xmlns:xlink="http://www.w3.org/1999/xlink" xml:space="preserve" onload="init(evt)">
<style type="text/css"><![CDATA[
.edge:hover path { stroke: red; }
.edge:hover polygon { stroke: red; fill: red; }
]]></style>
<script type="text/javascript"><![CDATA[
var edges = document.getElementsByTagName('g');
if (edges && edges.length) {
  for (var i=0;i<edges.length;i++) {
    if (edges[i].id.substr(0,4)=='edge') {
      edges[i].setAttribute('class','edge');
    }
  }
}
]]></script>
        <defs>
                <circle id="rim" cx="0" cy="0" r="7"/>
                <circle id="rim2" cx="0" cy="0" r="3.5"/>
                <g id="zoomPlus">
                        <use xlink:href="#rim" fill="#404040">
                                <set attributeName="fill" to="#808080" begin="zoomplus.mouseover" end="zoomplus.mouseout"/>
                        </use>
                        <path d="M-4,0h8M0,-4v8" fill="none" stroke="white" stroke-width="1.5" pointer-events="none"/>
                </g>
                <g id="zoomMin">
                        <use xlink:href="#rim" fill="#404040">
                                <set attributeName="fill" to="#808080" begin="zoomminus.mouseover" end="zoomminus.mouseout"/>
                        </use>
                        <path d="M-4,0h8" fill="none" stroke="white" stroke-width="1.5" pointer-events="none"/>
                </g>
                <g id="dirArrow">
                        <path fill="none" stroke="white" stroke-width="1.5" d="M0,-3.0v7 M-2.5,-0.5L0,-3.0L2.5,-0.5"/>
                </g>
               <g id="resetDef">
                       <use xlink:href="#rim2" fill="#404040">
                               <set attributeName="fill" to="#808080" begin="reset.mouseover" end="reset.mouseout"/>
                       </use>
               </g>
        </defs>

<script type="text/javascript">
var viewWidth = 1035;
var viewHeight = 372;
var sectionId = 'dynsection-3';
</script>
<script xlink:href="svgpan.js"/>
<svg id="graph" class="graph">
<g id="viewport">
<title>Ra::Engine::VolumeObject::loadGeometry</title>
<polygon fill="#ffffff" stroke="transparent" points="-4,4 -4,-368 1031,-368 1031,4 -4,4"/>
<!-- Node12 -->
<g id="node1" class="node">
<title>Node12</title>
<polygon fill="#bfbfbf" stroke="#000000" points="0,-171.5 0,-201.5 143,-201.5 143,-171.5 0,-171.5"/>
<text text-anchor="start" x="8" y="-189.5" font-family="Helvetica,sans-Serif" font-size="10.00" fill="#000000">Ra::Engine::VolumeObject</text>
<text text-anchor="middle" x="71.5" y="-178.5" font-family="Helvetica,sans-Serif" font-size="10.00" fill="#000000">::loadGeometry</text>
</g>
<!-- Node13 -->
<g id="node2" class="node">
<title>Node13</title>
<g id="a_node2"><a xlink:href="classRa_1_1Core_1_1Geometry_1_1AbstractVolume.html#a3896192c57de6b205245e97f15be2736" target="_top" xlink:title="Return true if the volume is dense (implies isDiscrete to be true) ">
<polygon fill="#ffffff" stroke="#000000" points="199,-333.5 199,-363.5 344,-363.5 344,-333.5 199,-333.5"/>
<text text-anchor="start" x="207" y="-351.5" font-family="Helvetica,sans-Serif" font-size="10.00" fill="#000000">Ra::Core::Geometry</text>
<text text-anchor="middle" x="271.5" y="-340.5" font-family="Helvetica,sans-Serif" font-size="10.00" fill="#000000">::AbstractVolume::isDense</text>
</a>
</g>
</g>
<!-- Node12&#45;&gt;Node13 -->
<g id="edge1" class="edge">
<title>Node12&#45;&gt;Node13</title>
<path fill="none" stroke="#191970" d="M79.2212,-201.8988C94.3294,-230.4175 130.5963,-291.46 179,-323.5 182.3378,-325.7094 185.8654,-327.7244 189.5176,-329.5619"/>
<polygon fill="#191970" stroke="#191970" points="188.2623,-332.8355 198.8155,-333.7737 191.1507,-326.4592 188.2623,-332.8355"/>
</g>
<!-- Node14 -->
<g id="node3" class="node">
<title>Node14</title>
<g id="a_node3"><a xlink:href="classRa_1_1Engine_1_1Mesh.html#a5af8256565ff1e10ea58ea1df3c6dcbf" target="_top" xlink:title="Ra::Engine::Mesh::loadGeometry">
<polygon fill="#ffffff" stroke="#000000" points="183.5,-295 183.5,-314 359.5,-314 359.5,-295 183.5,-295"/>
<text text-anchor="middle" x="271.5" y="-302" font-family="Helvetica,sans-Serif" font-size="10.00" fill="#000000">Ra::Engine::Mesh::loadGeometry</text>
</a>
</g>
</g>
<!-- Node12&#45;&gt;Node14 -->
<g id="edge2" class="edge">
<title>Node12&#45;&gt;Node14</title>
<path fill="none" stroke="#191970" d="M83.6152,-201.775C101.8642,-223.6807 138.5968,-263.667 179,-284.5 184.5583,-287.366 190.5086,-289.8219 196.6115,-291.9263"/>
<polygon fill="#191970" stroke="#191970" points="195.704,-295.3096 206.2928,-294.9522 197.7923,-288.6283 195.704,-295.3096"/>
</g>
<!-- Node22 -->
<g id="node11" class="node">
<title>Node22</title>
<g id="a_node11"><a xlink:href="namespaceRa_1_1Core_1_1Geometry.html#a97444ae32c928b107e10c0a30dd4fb96" target="_top" xlink:title="Create an axis&#45;aligned cubic mesh with the given half extents, centered on the origin. ">
<polygon fill="#ffffff" stroke="#000000" points="215,-245.5 215,-275.5 328,-275.5 328,-245.5 215,-245.5"/>
<text text-anchor="start" x="223" y="-263.5" font-family="Helvetica,sans-Serif" font-size="10.00" fill="#000000">Ra::Core::Geometry</text>
<text text-anchor="middle" x="271.5" y="-252.5" font-family="Helvetica,sans-Serif" font-size="10.00" fill="#000000">::makeSharpBox</text>
</a>
</g>
</g>
<!-- Node12&#45;&gt;Node22 -->
<g id="edge10" class="edge">
<title>Node12&#45;&gt;Node22</title>
<path fill="none" stroke="#191970" d="M101.0733,-201.5693C122.3676,-212.0245 151.9852,-225.7666 179,-235.5 187.3008,-238.4908 196.1326,-241.3154 204.9191,-243.9143"/>
<polygon fill="#191970" stroke="#191970" points="204.2116,-247.3526 214.7892,-246.7496 206.1442,-240.6247 204.2116,-247.3526"/>
</g>
<!-- Node23 -->
<g id="node12" class="node">
<title>Node23</title>
<g id="a_node12"><a xlink:href="classRa_1_1Engine_1_1CoreGeometryDisplayable.html#a3f60b11c7b3e07e1017d1e1923492e4b" target="_top" xlink:title="Helper function that calls Ra::Core::CoreGeometry::addAttrib() ">
<polygon fill="#ffffff" stroke="#000000" points="198.5,-196.5 198.5,-226.5 344.5,-226.5 344.5,-196.5 198.5,-196.5"/>
<text text-anchor="start" x="206.5" y="-214.5" font-family="Helvetica,sans-Serif" font-size="10.00" fill="#000000">Ra::Engine::CoreGeometry</text>
<text text-anchor="middle" x="271.5" y="-203.5" font-family="Helvetica,sans-Serif" font-size="10.00" fill="#000000">Displayable::addAttrib</text>
</a>
</g>
</g>
<!-- Node12&#45;&gt;Node23 -->
<g id="edge11" class="edge">
<title>Node12&#45;&gt;Node23</title>
<path fill="none" stroke="#191970" d="M143.1397,-195.455C157.7108,-197.2764 173.1577,-199.2072 188.0963,-201.0745"/>
<polygon fill="#191970" stroke="#191970" points="187.9833,-204.5876 198.3402,-202.355 188.8516,-197.6416 187.9833,-204.5876"/>
</g>
<!-- Node24 -->
<g id="node13" class="node">
<title>Node24</title>
<g id="a_node13"><a xlink:href="classRa_1_1Engine_1_1AttribArrayDisplayable.html#acd5ce549b1358c2f319a884725633ed2" target="_top" xlink:title="Get the name expected for a given attrib. ">
<polygon fill="#ffffff" stroke="#000000" points="179,-147.5 179,-177.5 364,-177.5 364,-147.5 179,-147.5"/>
<text text-anchor="start" x="187" y="-165.5" font-family="Helvetica,sans-Serif" font-size="10.00" fill="#000000">Ra::Engine::AttribArrayDisplayable</text>
<text text-anchor="middle" x="271.5" y="-154.5" font-family="Helvetica,sans-Serif" font-size="10.00" fill="#000000">::getAttribName</text>
</a>
</g>
</g>
<!-- Node12&#45;&gt;Node24 -->
<g id="edge12" class="edge">
<title>Node12&#45;&gt;Node24</title>
<path fill="none" stroke="#191970" d="M143.1397,-177.9032C151.4375,-176.9075 160.0194,-175.8777 168.6296,-174.8444"/>
<polygon fill="#191970" stroke="#191970" points="169.2233,-178.2984 178.7351,-173.6318 168.3892,-171.3483 169.2233,-178.2984"/>
</g>
<!-- Node25 -->
<g id="node14" class="node">
<title>Node25</title>
<g id="a_node14"><a xlink:href="classRa_1_1Core_1_1Geometry_1_1AbstractDiscreteVolume.html#acc43fd53785386c5eaf99372033083cd" target="_top" xlink:title="return the size (number of bins ni each dimension) of the volume ">
<polygon fill="#ffffff" stroke="#000000" points="188.5,-98.5 188.5,-128.5 354.5,-128.5 354.5,-98.5 188.5,-98.5"/>
<text text-anchor="start" x="196.5" y="-116.5" font-family="Helvetica,sans-Serif" font-size="10.00" fill="#000000">Ra::Core::Geometry</text>
<text text-anchor="middle" x="271.5" y="-105.5" font-family="Helvetica,sans-Serif" font-size="10.00" fill="#000000">::AbstractDiscreteVolume::size</text>
</a>
</g>
</g>
<!-- Node12&#45;&gt;Node25 -->
<g id="edge13" class="edge">
<title>Node12&#45;&gt;Node25</title>
<path fill="none" stroke="#191970" d="M101.0433,-171.3466C122.3233,-160.8517 151.9364,-147.0968 179,-137.5 184.9517,-135.3895 191.1785,-133.376 197.4669,-131.4774"/>
<polygon fill="#191970" stroke="#191970" points="198.7478,-134.7497 207.3687,-128.5909 196.7888,-128.0294 198.7478,-134.7497"/>
</g>
<!-- Node26 -->
<g id="node15" class="node">
<title>Node26</title>
<g id="a_node15"><a xlink:href="classRa_1_1Engine_1_1Displayable.html#a0f15d23a4cdd916d1427966ad883b0fb" target="_top" xlink:title="Returns the name of the mesh. ">
<polygon fill="#ffffff" stroke="#000000" points="205.5,-49.5 205.5,-79.5 337.5,-79.5 337.5,-49.5 205.5,-49.5"/>
<text text-anchor="start" x="213.5" y="-67.5" font-family="Helvetica,sans-Serif" font-size="10.00" fill="#000000">Ra::Engine::Displayable</text>
<text text-anchor="middle" x="271.5" y="-56.5" font-family="Helvetica,sans-Serif" font-size="10.00" fill="#000000">::getName</text>
</a>
</g>
</g>
<!-- Node12&#45;&gt;Node26 -->
<g id="edge14" class="edge">
<title>Node12&#45;&gt;Node26</title>
<path fill="none" stroke="#191970" d="M83.7301,-171.4425C102.1223,-149.8075 139.0315,-110.1553 179,-88.5 184.2332,-85.6646 189.8162,-83.1526 195.5482,-80.929"/>
<polygon fill="#191970" stroke="#191970" points="197.0557,-84.1074 205.3,-77.453 194.7053,-77.5138 197.0557,-84.1074"/>
</g>
<!-- Node27 -->
<g id="node16" class="node">
<title>Node27</title>
<g id="a_node16"><a xlink:href="classRa_1_1Core_1_1Geometry_1_1VolumeGrid.html#a2a314c7ff2ae4693dd06a85dec99b64c" target="_top" xlink:title="Direct access to the managed data. ">
<polygon fill="#ffffff" stroke="#000000" points="215,-.5 215,-30.5 328,-30.5 328,-.5 215,-.5"/>
<text text-anchor="start" x="223" y="-18.5" font-family="Helvetica,sans-Serif" font-size="10.00" fill="#000000">Ra::Core::Geometry</text>
<text text-anchor="middle" x="271.5" y="-7.5" font-family="Helvetica,sans-Serif" font-size="10.00" fill="#000000">::VolumeGrid::data</text>
</a>
</g>
</g>
<!-- Node12&#45;&gt;Node27 -->
<g id="edge15" class="edge">
<title>Node12&#45;&gt;Node27</title>
<path fill="none" stroke="#191970" d="M78.2148,-171.3388C92.3213,-141.2996 127.9982,-74.1396 179,-39.5 186.8434,-34.1729 195.7946,-30.0282 204.9681,-26.8034"/>
<polygon fill="#191970" stroke="#191970" points="206.093,-30.1186 214.5713,-23.7649 203.9813,-23.4447 206.093,-30.1186"/>
</g>
<!-- Node15 -->
<g id="node4" class="node">
<title>Node15</title>
<g id="a_node4"><a xlink:href="classRa_1_1Engine_1_1AttribArrayDisplayable.html#a12b15018687ca12e6acff71d27d36358" target="_top" xlink:title="Set the render mode. ">
<polygon fill="#ffffff" stroke="#000000" points="400,-316.5 400,-346.5 585,-346.5 585,-316.5 400,-316.5"/>
<text text-anchor="start" x="408" y="-334.5" font-family="Helvetica,sans-Serif" font-size="10.00" fill="#000000">Ra::Engine::AttribArrayDisplayable</text>
<text text-anchor="middle" x="492.5" y="-323.5" font-family="Helvetica,sans-Serif" font-size="10.00" fill="#000000">::setRenderMode</text>
</a>
</g>
</g>
<!-- Node14&#45;&gt;Node15 -->
<g id="edge3" class="edge">
<title>Node14&#45;&gt;Node15</title>
<path fill="none" stroke="#191970" d="M349.4163,-314.0192C362.3892,-315.6041 376.02,-317.2694 389.5013,-318.9164"/>
<polygon fill="#191970" stroke="#191970" points="389.4173,-322.4321 399.7679,-320.1707 390.2662,-315.4838 389.4173,-322.4321"/>
</g>
<!-- Node18 -->
<g id="node7" class="node">
<title>Node18</title>
<g id="a_node7"><a xlink:href="classRa_1_1Core_1_1Geometry_1_1AttribArrayGeometry.html#a887411177386edbcdc35d0c6bf78a83a" target="_top" xlink:title="Set vertices. ">
<polygon fill="#ffffff" stroke="#000000" points="430,-256 430,-297 555,-297 555,-256 430,-256"/>
<text text-anchor="start" x="438" y="-285" font-family="Helvetica,sans-Serif" font-size="10.00" fill="#000000">Ra::Core::Geometry</text>
<text text-anchor="start" x="438" y="-274" font-family="Helvetica,sans-Serif" font-size="10.00" fill="#000000">::AttribArrayGeometry</text>
<text text-anchor="middle" x="492.5" y="-263" font-family="Helvetica,sans-Serif" font-size="10.00" fill="#000000">::setVertices</text>
</a>
</g>
</g>
<!-- Node14&#45;&gt;Node18 -->
<g id="edge6" class="edge">
<title>Node14&#45;&gt;Node18</title>
<path fill="none" stroke="#191970" d="M346.6289,-294.9814C370.1735,-291.9984 396.1132,-288.7119 419.5079,-285.7479"/>
<polygon fill="#191970" stroke="#191970" points="420.2299,-289.1845 429.7107,-284.4552 419.35,-282.24 420.2299,-289.1845"/>
</g>
<!-- Node16 -->
<g id="node5" class="node">
<title>Node16</title>
<g id="a_node5"><a xlink:href="classRa_1_1Engine_1_1AttribArrayDisplayable.html#af58505fe1067bc667d7abc4333a10d3c" target="_top" xlink:title="Update the picking render mode according to the object render mode. ">
<polygon fill="#ffffff" stroke="#000000" points="621,-316.5 621,-346.5 806,-346.5 806,-316.5 621,-316.5"/>
<text text-anchor="start" x="629" y="-334.5" font-family="Helvetica,sans-Serif" font-size="10.00" fill="#000000">Ra::Engine::AttribArrayDisplayable</text>
<text text-anchor="middle" x="713.5" y="-323.5" font-family="Helvetica,sans-Serif" font-size="10.00" fill="#000000">::updatePickingRenderMode</text>
</a>
</g>
</g>
<!-- Node15&#45;&gt;Node16 -->
<g id="edge4" class="edge">
<title>Node15&#45;&gt;Node16</title>
<path fill="none" stroke="#191970" d="M585.2633,-331.5C593.7534,-331.5 602.3869,-331.5 610.9563,-331.5"/>
<polygon fill="#191970" stroke="#191970" points="610.9742,-335.0001 620.9741,-331.5 610.9741,-328.0001 610.9742,-335.0001"/>
</g>
<!-- Node17 -->
<g id="node6" class="node">
<title>Node17</title>
<g id="a_node6"><a xlink:href="classRa_1_1Engine_1_1AttribArrayDisplayable.html#a42e9f2bbddad3d877b859ccf4a5ec376" target="_top" xlink:title="Get the render mode. ">
<polygon fill="#ffffff" stroke="#000000" points="842,-316.5 842,-346.5 1027,-346.5 1027,-316.5 842,-316.5"/>
<text text-anchor="start" x="850" y="-334.5" font-family="Helvetica,sans-Serif" font-size="10.00" fill="#000000">Ra::Engine::AttribArrayDisplayable</text>
<text text-anchor="middle" x="934.5" y="-323.5" font-family="Helvetica,sans-Serif" font-size="10.00" fill="#000000">::getRenderMode</text>
</a>
</g>
</g>
<!-- Node16&#45;&gt;Node17 -->
<g id="edge5" class="edge">
<title>Node16&#45;&gt;Node17</title>
<path fill="none" stroke="#191970" d="M806.2633,-331.5C814.7534,-331.5 823.3869,-331.5 831.9563,-331.5"/>
<polygon fill="#191970" stroke="#191970" points="831.9742,-335.0001 841.9741,-331.5 831.9741,-328.0001 831.9742,-335.0001"/>
</g>
<!-- Node19 -->
<g id="node8" class="node">
<title>Node19</title>
<g id="a_node8"><a xlink:href="classRa_1_1Core_1_1Utils_1_1AttribManager.html#a056b7697cfbedd6b20dde6ce7955094e" target="_top" xlink:title="Ra::Core::Utils::AttribManager\l::setAttrib">
<polygon fill="#ffffff" stroke="#000000" points="633,-264.5 633,-294.5 794,-294.5 794,-264.5 633,-264.5"/>
<text text-anchor="start" x="641" y="-282.5" font-family="Helvetica,sans-Serif" font-size="10.00" fill="#000000">Ra::Core::Utils::AttribManager</text>
<text text-anchor="middle" x="713.5" y="-271.5" font-family="Helvetica,sans-Serif" font-size="10.00" fill="#000000">::setAttrib</text>
</a>
</g>
</g>
<!-- Node18&#45;&gt;Node19 -->
<g id="edge7" class="edge">
<title>Node18&#45;&gt;Node19</title>
<path fill="none" stroke="#191970" d="M555.2386,-277.3517C576.154,-277.6356 599.8963,-277.9579 622.5123,-278.2649"/>
<polygon fill="#191970" stroke="#191970" points="622.7634,-281.7685 632.8101,-278.4047 622.8585,-274.7692 622.7634,-281.7685"/>
</g>
<!-- Node20 -->
<g id="node9" class="node">
<title>Node20</title>
<g id="a_node9"><a xlink:href="classRa_1_1Core_1_1Geometry_1_1AttribArrayGeometry.html#acabe05880d71a8dc4406964c258fff5a" target="_top" xlink:title="Access the vertices positions. ">
<polygon fill="#ffffff" stroke="#000000" points="651,-204 651,-245 776,-245 776,-204 651,-204"/>
<text text-anchor="start" x="659" y="-233" font-family="Helvetica,sans-Serif" font-size="10.00" fill="#000000">Ra::Core::Geometry</text>
<text text-anchor="start" x="659" y="-222" font-family="Helvetica,sans-Serif" font-size="10.00" fill="#000000">::AttribArrayGeometry</text>
<text text-anchor="middle" x="713.5" y="-211" font-family="Helvetica,sans-Serif" font-size="10.00" fill="#000000">::vertices</text>
</a>
</g>
</g>
<!-- Node18&#45;&gt;Node20 -->
<g id="edge8" class="edge">
<title>Node18&#45;&gt;Node20</title>
<path fill="none" stroke="#191970" d="M555.2386,-261.738C581.9474,-255.4536 613.266,-248.0845 640.9625,-241.5677"/>
<polygon fill="#191970" stroke="#191970" points="642.0548,-244.9063 650.9873,-239.2089 640.4515,-238.0924 642.0548,-244.9063"/>
</g>
<!-- Node21 -->
<g id="node10" class="node">
<title>Node21</title>
<g id="a_node10"><a xlink:href="classRa_1_1Core_1_1Utils_1_1AttribManager.html#ae0cb7281ec72606a5392602b4ea50d2c" target="_top" xlink:title="Ra::Core::Utils::AttribManager\l::getAttrib">
<polygon fill="#ffffff" stroke="#000000" points="854,-209.5 854,-239.5 1015,-239.5 1015,-209.5 854,-209.5"/>
<text text-anchor="start" x="862" y="-227.5" font-family="Helvetica,sans-Serif" font-size="10.00" fill="#000000">Ra::Core::Utils::AttribManager</text>
<text text-anchor="middle" x="934.5" y="-216.5" font-family="Helvetica,sans-Serif" font-size="10.00" fill="#000000">::getAttrib</text>
</a>
</g>
</g>
<!-- Node20&#45;&gt;Node21 -->
<g id="edge9" class="edge">
<title>Node20&#45;&gt;Node21</title>
<path fill="none" stroke="#191970" d="M776.2386,-224.5C797.154,-224.5 820.8963,-224.5 843.5123,-224.5"/>
<polygon fill="#191970" stroke="#191970" points="843.8101,-228.0001 853.8101,-224.5 843.81,-221.0001 843.8101,-228.0001"/>
</g>
</g>
</svg>
        <g id="navigator" transform="translate(0 0)" fill="#404254">
                <rect fill="#f2f5e9" fill-opacity="0.5" stroke="#606060" stroke-width=".5" x="0" y="0" width="60" height="60"/>
                <use id="zoomplus" xlink:href="#zoomPlus" x="17" y="9" onmousedown="handleZoom(evt,'in')"/>
                <use id="zoomminus" xlink:href="#zoomMin" x="42" y="9" onmousedown="handleZoom(evt,'out')"/>
                <use id="reset" xlink:href="#resetDef" x="30" y="36" onmousedown="handleReset()"/>
                <g id="arrowUp" xlink:href="#dirArrow" transform="translate(30 24)" onmousedown="handlePan(0,-1)">
                  <use xlink:href="#rim" fill="#404040">
                        <set attributeName="fill" to="#808080" begin="arrowUp.mouseover" end="arrowUp.mouseout"/>
                  </use>
                  <path fill="none" stroke="white" stroke-width="1.5" d="M0,-3.0v7 M-2.5,-0.5L0,-3.0L2.5,-0.5"/>
                </g>
                <g id="arrowRight" xlink:href="#dirArrow" transform="rotate(90) translate(36 -43)" onmousedown="handlePan(1,0)">
                  <use xlink:href="#rim" fill="#404040">
                        <set attributeName="fill" to="#808080" begin="arrowRight.mouseover" end="arrowRight.mouseout"/>
                  </use>
                  <path fill="none" stroke="white" stroke-width="1.5" d="M0,-3.0v7 M-2.5,-0.5L0,-3.0L2.5,-0.5"/>
                </g>
                <g id="arrowDown" xlink:href="#dirArrow" transform="rotate(180) translate(-30 -48)" onmousedown="handlePan(0,1)">
                  <use xlink:href="#rim" fill="#404040">
                        <set attributeName="fill" to="#808080" begin="arrowDown.mouseover" end="arrowDown.mouseout"/>
                  </use>
                  <path fill="none" stroke="white" stroke-width="1.5" d="M0,-3.0v7 M-2.5,-0.5L0,-3.0L2.5,-0.5"/>
                </g>
                <g id="arrowLeft" xlink:href="#dirArrow" transform="rotate(270) translate(-36 17)" onmousedown="handlePan(-1,0)">
                  <use xlink:href="#rim" fill="#404040">
                        <set attributeName="fill" to="#808080" begin="arrowLeft.mouseover" end="arrowLeft.mouseout"/>
                  </use>
                  <path fill="none" stroke="white" stroke-width="1.5" d="M0,-3.0v7 M-2.5,-0.5L0,-3.0L2.5,-0.5"/>
                </g>
        </g>
        <svg viewBox="0 0 15 15" width="100%" height="30px" preserveAspectRatio="xMaxYMin meet">
         <g id="arrow_out" transform="scale(0.3 0.3)">
          <a xlink:href="classRa_1_1Engine_1_1VolumeObject_afbb45f880bdfd8fe9b25300c94126226_cgraph_org.svg" target="_base">
           <rect id="button" ry="5" rx="5" y="6" x="6" height="38" width="38"
                fill="#f2f5e9" fill-opacity="0.5" stroke="#606060" stroke-width="1.0"/>
           <path id="arrow"
             d="M 11.500037,31.436501 C 11.940474,20.09759 22.043105,11.32322 32.158766,21.979434 L 37.068811,17.246167 C 37.068811,17.246167 37.088388,32 37.088388,32 L 22.160133,31.978069 C 22.160133,31.978069 26.997745,27.140456 26.997745,27.140456 C 18.528582,18.264221 13.291696,25.230495 11.500037,31.436501 z"
             style="fill:#404040;"/>
          </a>
         </g>
        </svg>
</svg>
