<?xml version="1.0" encoding="UTF-8" standalone="no"?>
<!DOCTYPE svg PUBLIC "-//W3C//DTD SVG 1.1//EN"
 "http://www.w3.org/Graphics/SVG/1.1/DTD/svg11.dtd">
<!-- Generated by graphviz version 2.40.1 (20161225.0304)
 -->
<!-- Title: Ra::IO::AssimpAnimationDataLoader::fetchTime Pages: 1 -->
<svg width="352pt" height="186pt"
 viewBox="0.00 0.00 352.00 186.00" xmlns="http://www.w3.org/2000/svg" xmlns:xlink="http://www.w3.org/1999/xlink">
<g id="graph0" class="graph" transform="scale(1 1) rotate(0) translate(4 182)">
<title>Ra::IO::AssimpAnimationDataLoader::fetchTime</title>
<polygon fill="#ffffff" stroke="transparent" points="-4,4 -4,-182 348,-182 348,4 -4,4"/>
<!-- Node24 -->
<g id="node1" class="node">
<title>Node24</title>
<polygon fill="#bfbfbf" stroke="#000000" points="0,-73.5 0,-103.5 161,-103.5 161,-73.5 0,-73.5"/>
<text text-anchor="start" x="8" y="-91.5" font-family="Helvetica,sans-Serif" font-size="10.00" fill="#000000">Ra::IO::AssimpAnimationData</text>
<text text-anchor="middle" x="80.5" y="-80.5" font-family="Helvetica,sans-Serif" font-size="10.00" fill="#000000">Loader::fetchTime</text>
</g>
<!-- Node25 -->
<g id="node2" class="node">
<title>Node25</title>
<g id="a_node2"><a xlink:href="classRa_1_1Core_1_1Animation_1_1AnimationTime.html#a4bf7c5506fe62e4bfcb26d49391d4bb8" target="_top" xlink:title="Ra::Core::Animation\l::AnimationTime::setStart">
<polygon fill="#ffffff" stroke="#000000" points="199.5,-147.5 199.5,-177.5 341.5,-177.5 341.5,-147.5 199.5,-147.5"/>
<text text-anchor="start" x="207.5" y="-165.5" font-family="Helvetica,sans-Serif" font-size="10.00" fill="#000000">Ra::Core::Animation</text>
<text text-anchor="middle" x="270.5" y="-154.5" font-family="Helvetica,sans-Serif" font-size="10.00" fill="#000000">::AnimationTime::setStart</text>
</a>
</g>
</g>
<!-- Node24&#45;&gt;Node25 -->
<g id="edge1" class="edge">
<title>Node24&#45;&gt;Node25</title>
<path fill="none" stroke="#191970" d="M113.3211,-103.5226C136.4872,-113.8947 168.3731,-127.708 197,-138.5 202.1027,-140.4237 207.4369,-142.3412 212.8005,-144.2061"/>
<polygon fill="#191970" stroke="#191970" points="211.8487,-147.5794 222.4433,-147.496 214.1091,-140.9544 211.8487,-147.5794"/>
</g>
<!-- Node26 -->
<g id="node3" class="node">
<title>Node26</title>
<g id="a_node3"><a xlink:href="classRa_1_1Core_1_1Animation_1_1AnimationTime.html#a580eb83650065fd51d318abb4c79b563" target="_top" xlink:title="Ra::Core::Animation\l::AnimationTime::setEnd">
<polygon fill="#ffffff" stroke="#000000" points="202,-98.5 202,-128.5 339,-128.5 339,-98.5 202,-98.5"/>
<text text-anchor="start" x="210" y="-116.5" font-family="Helvetica,sans-Serif" font-size="10.00" fill="#000000">Ra::Core::Animation</text>
<text text-anchor="middle" x="270.5" y="-105.5" font-family="Helvetica,sans-Serif" font-size="10.00" fill="#000000">::AnimationTime::setEnd</text>
</a>
</g>
</g>
<!-- Node24&#45;&gt;Node26 -->
<g id="edge2" class="edge">
<title>Node24&#45;&gt;Node26</title>
<path fill="none" stroke="#191970" d="M161.0771,-99.1023C171.2418,-100.4397 181.6321,-101.8069 191.7678,-103.1405"/>
<polygon fill="#191970" stroke="#191970" points="191.4296,-106.6261 201.8007,-104.4606 192.3428,-99.6859 191.4296,-106.6261"/>
</g>
<!-- Node27 -->
<g id="node4" class="node">
<title>Node27</title>
<g id="a_node4"><a xlink:href="classRa_1_1Core_1_1Asset_1_1AnimationData.html#afa3d60833227971fb049197741da0126" target="_top" xlink:title="Set the AnimationTime for the object. ">
<polygon fill="#ffffff" stroke="#000000" points="197,-49.5 197,-79.5 344,-79.5 344,-49.5 197,-49.5"/>
<text text-anchor="start" x="205" y="-67.5" font-family="Helvetica,sans-Serif" font-size="10.00" fill="#000000">Ra::Core::Asset::Animation</text>
<text text-anchor="middle" x="270.5" y="-56.5" font-family="Helvetica,sans-Serif" font-size="10.00" fill="#000000">Data::setTime</text>
</a>
</g>
</g>
<!-- Node24&#45;&gt;Node27 -->
<g id="edge3" class="edge">
<title>Node24&#45;&gt;Node27</title>
<path fill="none" stroke="#191970" d="M161.0771,-78.3218C169.5825,-77.2475 178.2458,-76.1532 186.7857,-75.0744"/>
<polygon fill="#191970" stroke="#191970" points="187.2547,-78.5431 196.7372,-73.8174 186.3774,-71.5983 187.2547,-78.5431"/>
</g>
<!-- Node28 -->
<g id="node5" class="node">
<title>Node28</title>
<g id="a_node5"><a xlink:href="classRa_1_1Core_1_1Asset_1_1AnimationData.html#a830222af692dea0d510274b8537618f0" target="_top" xlink:title="Set the animation timestep. ">
<polygon fill="#ffffff" stroke="#000000" points="197,-.5 197,-30.5 344,-30.5 344,-.5 197,-.5"/>
<text text-anchor="start" x="205" y="-18.5" font-family="Helvetica,sans-Serif" font-size="10.00" fill="#000000">Ra::Core::Asset::Animation</text>
<text text-anchor="middle" x="270.5" y="-7.5" font-family="Helvetica,sans-Serif" font-size="10.00" fill="#000000">Data::setTimeStep</text>
</a>
</g>
</g>
<!-- Node24&#45;&gt;Node28 -->
<g id="edge4" class="edge">
<title>Node24&#45;&gt;Node28</title>
<path fill="none" stroke="#191970" d="M115.4483,-73.4269C138.4689,-63.6654 169.3547,-50.885 197,-40.5 202.879,-38.2916 209.0527,-36.0589 215.2191,-33.8839"/>
<polygon fill="#191970" stroke="#191970" points="216.5679,-37.1204 224.8599,-30.5254 214.2651,-30.51 216.5679,-37.1204"/>
</g>
</g>
</svg>
