<?xml version="1.0" encoding="UTF-8" standalone="no"?>
<!DOCTYPE svg PUBLIC "-//W3C//DTD SVG 1.1//EN"
 "http://www.w3.org/Graphics/SVG/1.1/DTD/svg11.dtd">
<!-- Generated by graphviz version 2.40.1 (20161225.0304)
 -->
<!-- Title: Ra::IO::AssimpAnimationDataLoader::fetchHandleAnimation Pages: 1 -->
<svg width="376pt" height="225pt"
 viewBox="0.00 0.00 376.00 225.00" xmlns="http://www.w3.org/2000/svg" xmlns:xlink="http://www.w3.org/1999/xlink">
<g id="graph0" class="graph" transform="scale(1 1) rotate(0) translate(4 221)">
<title>Ra::IO::AssimpAnimationDataLoader::fetchHandleAnimation</title>
<polygon fill="#ffffff" stroke="transparent" points="-4,4 -4,-221 372,-221 372,4 -4,4"/>
<!-- Node15 -->
<g id="node1" class="node">
<title>Node15</title>
<polygon fill="#bfbfbf" stroke="#000000" points="0,-93.5 0,-123.5 165,-123.5 165,-93.5 0,-93.5"/>
<text text-anchor="start" x="8" y="-111.5" font-family="Helvetica,sans-Serif" font-size="10.00" fill="#000000">Ra::IO::AssimpAnimationData</text>
<text text-anchor="middle" x="82.5" y="-100.5" font-family="Helvetica,sans-Serif" font-size="10.00" fill="#000000">Loader::fetchHandleAnimation</text>
</g>
<!-- Node16 -->
<g id="node2" class="node">
<title>Node16</title>
<g id="a_node2"><a xlink:href="classRa_1_1Core_1_1Animation_1_1KeyFrame.html#aeca1b8f8c3c59e2f48e79725ec6d6e16" target="_top" xlink:title="RESET. ">
<polygon fill="#ffffff" stroke="#000000" points="227.5,-186.5 227.5,-216.5 341.5,-216.5 341.5,-186.5 227.5,-186.5"/>
<text text-anchor="start" x="235.5" y="-204.5" font-family="Helvetica,sans-Serif" font-size="10.00" fill="#000000">Ra::Core::Animation</text>
<text text-anchor="middle" x="284.5" y="-193.5" font-family="Helvetica,sans-Serif" font-size="10.00" fill="#000000">::KeyFrame::reset</text>
</a>
</g>
</g>
<!-- Node15&#45;&gt;Node16 -->
<g id="edge1" class="edge">
<title>Node15&#45;&gt;Node16</title>
<path fill="none" stroke="#191970" d="M104.7821,-123.7353C127.9691,-139.0374 165.751,-162.4478 201,-177.5 206.3319,-179.7769 211.9451,-181.911 217.6349,-183.8941"/>
<polygon fill="#191970" stroke="#191970" points="216.6532,-187.2559 227.2467,-187.0872 218.8601,-180.6129 216.6532,-187.2559"/>
</g>
<!-- Node17 -->
<g id="node3" class="node">
<title>Node17</title>
<g id="a_node3"><a xlink:href="classRa_1_1Core_1_1Animation_1_1KeyFrame.html#a86175e67c429b471659603f8a2514eef" target="_top" xlink:title="Ra::Core::Animation\l::KeyFrame::insertKeyFrame">
<polygon fill="#ffffff" stroke="#000000" points="208.5,-137.5 208.5,-167.5 360.5,-167.5 360.5,-137.5 208.5,-137.5"/>
<text text-anchor="start" x="216.5" y="-155.5" font-family="Helvetica,sans-Serif" font-size="10.00" fill="#000000">Ra::Core::Animation</text>
<text text-anchor="middle" x="284.5" y="-144.5" font-family="Helvetica,sans-Serif" font-size="10.00" fill="#000000">::KeyFrame::insertKeyFrame</text>
</a>
</g>
</g>
<!-- Node15&#45;&gt;Node17 -->
<g id="edge2" class="edge">
<title>Node15&#45;&gt;Node17</title>
<path fill="none" stroke="#191970" d="M151.452,-123.5192C168.9066,-127.3212 187.7859,-131.4336 205.6869,-135.3328"/>
<polygon fill="#191970" stroke="#191970" points="205.0002,-138.7652 215.5161,-137.4738 206.4901,-131.9256 205.0002,-138.7652"/>
</g>
<!-- Node18 -->
<g id="node4" class="node">
<title>Node18</title>
<g id="a_node4"><a xlink:href="namespaceRa_1_1IO.html#aef6c50424873964fcea0008be55d4a34" target="_top" xlink:title="Ra::IO::assimpToCore">
<polygon fill="#ffffff" stroke="#000000" points="224.5,-99 224.5,-118 344.5,-118 344.5,-99 224.5,-99"/>
<text text-anchor="middle" x="284.5" y="-106" font-family="Helvetica,sans-Serif" font-size="10.00" fill="#000000">Ra::IO::assimpToCore</text>
</a>
</g>
</g>
<!-- Node15&#45;&gt;Node18 -->
<g id="edge3" class="edge">
<title>Node15&#45;&gt;Node18</title>
<path fill="none" stroke="#191970" d="M165.244,-108.5C181.5106,-108.5 198.4308,-108.5 214.2403,-108.5"/>
<polygon fill="#191970" stroke="#191970" points="214.451,-112.0001 224.4509,-108.5 214.4509,-105.0001 214.451,-112.0001"/>
</g>
<!-- Node19 -->
<g id="node5" class="node">
<title>Node19</title>
<g id="a_node5"><a xlink:href="classRa_1_1Core_1_1Animation_1_1KeyFrame.html#af940695555c9d6f064dee70435f33519" target="_top" xlink:title="Ra::Core::Animation\l::KeyFrame::setAnimationTime">
<polygon fill="#ffffff" stroke="#000000" points="201,-49.5 201,-79.5 368,-79.5 368,-49.5 201,-49.5"/>
<text text-anchor="start" x="209" y="-67.5" font-family="Helvetica,sans-Serif" font-size="10.00" fill="#000000">Ra::Core::Animation</text>
<text text-anchor="middle" x="284.5" y="-56.5" font-family="Helvetica,sans-Serif" font-size="10.00" fill="#000000">::KeyFrame::setAnimationTime</text>
</a>
</g>
</g>
<!-- Node15&#45;&gt;Node19 -->
<g id="edge4" class="edge">
<title>Node15&#45;&gt;Node19</title>
<path fill="none" stroke="#191970" d="M151.452,-93.4808C168.9066,-89.6788 187.7859,-85.5664 205.6869,-81.6672"/>
<polygon fill="#191970" stroke="#191970" points="206.4901,-85.0744 215.5161,-79.5262 205.0002,-78.2348 206.4901,-85.0744"/>
</g>
<!-- Node20 -->
<g id="node6" class="node">
<title>Node20</title>
<g id="a_node6"><a xlink:href="classRa_1_1Core_1_1Animation_1_1KeyFrame.html#a8dd187293f7124519b2f6a6153f79711" target="_top" xlink:title="Ra::Core::Animation\l::KeyFrame::at">
<polygon fill="#ffffff" stroke="#000000" points="227.5,-.5 227.5,-30.5 341.5,-30.5 341.5,-.5 227.5,-.5"/>
<text text-anchor="start" x="235.5" y="-18.5" font-family="Helvetica,sans-Serif" font-size="10.00" fill="#000000">Ra::Core::Animation</text>
<text text-anchor="middle" x="284.5" y="-7.5" font-family="Helvetica,sans-Serif" font-size="10.00" fill="#000000">::KeyFrame::at</text>
</a>
</g>
</g>
<!-- Node15&#45;&gt;Node20 -->
<g id="edge5" class="edge">
<title>Node15&#45;&gt;Node20</title>
<path fill="none" stroke="#191970" d="M105.2846,-93.3066C128.5606,-78.3021 166.1329,-55.4861 201,-40.5 206.4329,-38.1649 212.1528,-35.9602 217.9455,-33.9004"/>
<polygon fill="#191970" stroke="#191970" points="219.3853,-37.1077 227.7252,-30.5734 217.1308,-30.4807 219.3853,-37.1077"/>
</g>
</g>
</svg>
