<?xml version="1.0" encoding="UTF-8" standalone="no"?>
<!DOCTYPE svg PUBLIC "-//W3C//DTD SVG 1.1//EN"
 "http://www.w3.org/Graphics/SVG/1.1/DTD/svg11.dtd">
<!-- Generated by graphviz version 2.40.1 (20161225.0304)
 -->
<!-- Title: Ra::Engine::DebugRender::render Pages: 1 -->
<!--zoomable 350 -->
<svg id="main" version="1.1" xmlns="http://www.w3.org/2000/svg" xmlns:xlink="http://www.w3.org/1999/xlink" xml:space="preserve" onload="init(evt)">
<style type="text/css"><![CDATA[
.edge:hover path { stroke: red; }
.edge:hover polygon { stroke: red; fill: red; }
]]></style>
<script type="text/javascript"><![CDATA[
var edges = document.getElementsByTagName('g');
if (edges && edges.length) {
  for (var i=0;i<edges.length;i++) {
    if (edges[i].id.substr(0,4)=='edge') {
      edges[i].setAttribute('class','edge');
    }
  }
}
]]></script>
        <defs>
                <circle id="rim" cx="0" cy="0" r="7"/>
                <circle id="rim2" cx="0" cy="0" r="3.5"/>
                <g id="zoomPlus">
                        <use xlink:href="#rim" fill="#404040">
                                <set attributeName="fill" to="#808080" begin="zoomplus.mouseover" end="zoomplus.mouseout"/>
                        </use>
                        <path d="M-4,0h8M0,-4v8" fill="none" stroke="white" stroke-width="1.5" pointer-events="none"/>
                </g>
                <g id="zoomMin">
                        <use xlink:href="#rim" fill="#404040">
                                <set attributeName="fill" to="#808080" begin="zoomminus.mouseover" end="zoomminus.mouseout"/>
                        </use>
                        <path d="M-4,0h8" fill="none" stroke="white" stroke-width="1.5" pointer-events="none"/>
                </g>
                <g id="dirArrow">
                        <path fill="none" stroke="white" stroke-width="1.5" d="M0,-3.0v7 M-2.5,-0.5L0,-3.0L2.5,-0.5"/>
                </g>
               <g id="resetDef">
                       <use xlink:href="#rim2" fill="#404040">
                               <set attributeName="fill" to="#808080" begin="reset.mouseover" end="reset.mouseout"/>
                       </use>
               </g>
        </defs>

<script type="text/javascript">
var viewWidth = 1187;
var viewHeight = 350;
var sectionId = 'dynsection-9';
</script>
<script xlink:href="svgpan.js"/>
<svg id="graph" class="graph">
<g id="viewport">
<title>Ra::Engine::DebugRender::render</title>
<polygon fill="#ffffff" stroke="transparent" points="-4,4 -4,-346 1183,-346 1183,4 -4,4"/>
<!-- Node77 -->
<g id="node1" class="node">
<title>Node77</title>
<polygon fill="#bfbfbf" stroke="#000000" points="0,-125.5 0,-155.5 140,-155.5 140,-125.5 0,-125.5"/>
<text text-anchor="start" x="8" y="-143.5" font-family="Helvetica,sans-Serif" font-size="10.00" fill="#000000">Ra::Engine::DebugRender</text>
<text text-anchor="middle" x="70" y="-132.5" font-family="Helvetica,sans-Serif" font-size="10.00" fill="#000000">::render</text>
</g>
<!-- Node78 -->
<g id="node2" class="node">
<title>Node78</title>
<g id="a_node2"><a xlink:href="classRa_1_1Engine_1_1Mesh.html#a5af8256565ff1e10ea58ea1df3c6dcbf" target="_top" xlink:title="Ra::Engine::Mesh::loadGeometry">
<polygon fill="#ffffff" stroke="#000000" points="180.5,-259 180.5,-278 356.5,-278 356.5,-259 180.5,-259"/>
<text text-anchor="middle" x="268.5" y="-266" font-family="Helvetica,sans-Serif" font-size="10.00" fill="#000000">Ra::Engine::Mesh::loadGeometry</text>
</a>
</g>
</g>
<!-- Node77&#45;&gt;Node78 -->
<g id="edge1" class="edge">
<title>Node77&#45;&gt;Node78</title>
<path fill="none" stroke="#191970" d="M80.3919,-155.7851C97.4276,-179.5791 133.6664,-225.1615 176,-248.5 181.0697,-251.2949 186.4961,-253.6993 192.085,-255.7678"/>
<polygon fill="#191970" stroke="#191970" points="191.0161,-259.1008 201.6098,-258.9414 193.2289,-252.4597 191.0161,-259.1008"/>
</g>
<!-- Node86 -->
<g id="node10" class="node">
<title>Node86</title>
<g id="a_node10"><a xlink:href="classRa_1_1Engine_1_1CoreGeometryDisplayable.html#a6280c6ec1044cb9cba1eed2ee765ea67" target="_top" xlink:title="Ra::Engine::CoreGeometry\lDisplayable::getCoreGeometry">
<polygon fill="#ffffff" stroke="#000000" points="185,-208.5 185,-238.5 352,-238.5 352,-208.5 185,-208.5"/>
<text text-anchor="start" x="193" y="-226.5" font-family="Helvetica,sans-Serif" font-size="10.00" fill="#000000">Ra::Engine::CoreGeometry</text>
<text text-anchor="middle" x="268.5" y="-215.5" font-family="Helvetica,sans-Serif" font-size="10.00" fill="#000000">Displayable::getCoreGeometry</text>
</a>
</g>
</g>
<!-- Node77&#45;&gt;Node86 -->
<g id="edge9" class="edge">
<title>Node77&#45;&gt;Node86</title>
<path fill="none" stroke="#191970" d="M93.621,-155.5496C114.5941,-168.3875 146.4162,-186.6044 176,-198.5 182.1182,-200.9601 188.5596,-203.2578 195.0773,-205.3844"/>
<polygon fill="#191970" stroke="#191970" points="194.0636,-208.7345 204.6524,-208.3766 196.1516,-202.0531 194.0636,-208.7345"/>
</g>
<!-- Node87 -->
<g id="node11" class="node">
<title>Node87</title>
<g id="a_node11"><a xlink:href="classRa_1_1Core_1_1Geometry_1_1AttribArrayGeometry.html#ae1956b0396dadd84f55a12f2160e5671" target="_top" xlink:title="Ra::Core::Geometry\l::AttribArrayGeometry\l::addAttrib">
<polygon fill="#ffffff" stroke="#000000" points="206,-148 206,-189 331,-189 331,-148 206,-148"/>
<text text-anchor="start" x="214" y="-177" font-family="Helvetica,sans-Serif" font-size="10.00" fill="#000000">Ra::Core::Geometry</text>
<text text-anchor="start" x="214" y="-166" font-family="Helvetica,sans-Serif" font-size="10.00" fill="#000000">::AttribArrayGeometry</text>
<text text-anchor="middle" x="268.5" y="-155" font-family="Helvetica,sans-Serif" font-size="10.00" fill="#000000">::addAttrib</text>
</a>
</g>
</g>
<!-- Node77&#45;&gt;Node87 -->
<g id="edge10" class="edge">
<title>Node77&#45;&gt;Node87</title>
<path fill="none" stroke="#191970" d="M140.263,-150.4112C158.3305,-152.9597 177.8029,-155.7065 195.9823,-158.2708"/>
<polygon fill="#191970" stroke="#191970" points="195.5409,-161.7431 205.9318,-159.6743 196.5187,-154.8117 195.5409,-161.7431"/>
</g>
<!-- Node94 -->
<g id="node18" class="node">
<title>Node94</title>
<g id="a_node18"><a xlink:href="classRa_1_1Engine_1_1AttribArrayDisplayable.html#acd5ce549b1358c2f319a884725633ed2" target="_top" xlink:title="Get the name expected for a given attrib. ">
<polygon fill="#ffffff" stroke="#000000" points="176,-98.5 176,-128.5 361,-128.5 361,-98.5 176,-98.5"/>
<text text-anchor="start" x="184" y="-116.5" font-family="Helvetica,sans-Serif" font-size="10.00" fill="#000000">Ra::Engine::AttribArrayDisplayable</text>
<text text-anchor="middle" x="268.5" y="-105.5" font-family="Helvetica,sans-Serif" font-size="10.00" fill="#000000">::getAttribName</text>
</a>
</g>
</g>
<!-- Node77&#45;&gt;Node94 -->
<g id="edge17" class="edge">
<title>Node77&#45;&gt;Node94</title>
<path fill="none" stroke="#191970" d="M140.263,-130.9428C148.5196,-129.8198 157.0695,-128.6568 165.6553,-127.4889"/>
<polygon fill="#191970" stroke="#191970" points="166.2984,-130.9338 175.7354,-126.1179 165.3549,-123.9977 166.2984,-130.9338"/>
</g>
<!-- Node95 -->
<g id="node19" class="node">
<title>Node95</title>
<g id="a_node19"><a xlink:href="classRa_1_1Engine_1_1CoreGeometryDisplayable.html#a82efcf23c3d3e74189e321dec3793cb5" target="_top" xlink:title="Update (i.e. send to GPU) the buffers marked as dirty. ">
<polygon fill="#ffffff" stroke="#000000" points="195.5,-49.5 195.5,-79.5 341.5,-79.5 341.5,-49.5 195.5,-49.5"/>
<text text-anchor="start" x="203.5" y="-67.5" font-family="Helvetica,sans-Serif" font-size="10.00" fill="#000000">Ra::Engine::CoreGeometry</text>
<text text-anchor="middle" x="268.5" y="-56.5" font-family="Helvetica,sans-Serif" font-size="10.00" fill="#000000">Displayable::updateGL</text>
</a>
</g>
</g>
<!-- Node77&#45;&gt;Node95 -->
<g id="edge18" class="edge">
<title>Node77&#45;&gt;Node95</title>
<path fill="none" stroke="#191970" d="M96.7851,-125.4755C117.8259,-114.1406 148.131,-98.8301 176,-88.5 181.8191,-86.3431 187.9126,-84.304 194.076,-82.3945"/>
<polygon fill="#191970" stroke="#191970" points="195.2043,-85.7105 203.7895,-79.5021 193.2065,-79.0016 195.2043,-85.7105"/>
</g>
<!-- Node96 -->
<g id="node20" class="node">
<title>Node96</title>
<g id="a_node20"><a xlink:href="classRa_1_1Engine_1_1IndexedGeometry.html#a3ca57199f0bbb5e377d9c64a2b1099c2" target="_top" xlink:title="Ra::Engine::IndexedGeometry\l::render">
<polygon fill="#ffffff" stroke="#000000" points="187.5,-.5 187.5,-30.5 349.5,-30.5 349.5,-.5 187.5,-.5"/>
<text text-anchor="start" x="195.5" y="-18.5" font-family="Helvetica,sans-Serif" font-size="10.00" fill="#000000">Ra::Engine::IndexedGeometry</text>
<text text-anchor="middle" x="268.5" y="-7.5" font-family="Helvetica,sans-Serif" font-size="10.00" fill="#000000">::render</text>
</a>
</g>
</g>
<!-- Node77&#45;&gt;Node96 -->
<g id="edge19" class="edge">
<title>Node77&#45;&gt;Node96</title>
<path fill="none" stroke="#191970" d="M81.6099,-125.3308C99.4517,-103.092 135.7915,-61.8621 176,-39.5 179.2351,-37.7008 182.609,-36.0328 186.0729,-34.487"/>
<polygon fill="#191970" stroke="#191970" points="187.4818,-37.6924 195.4186,-30.674 184.8374,-31.211 187.4818,-37.6924"/>
</g>
<!-- Node79 -->
<g id="node3" class="node">
<title>Node79</title>
<g id="a_node3"><a xlink:href="classRa_1_1Engine_1_1AttribArrayDisplayable.html#a12b15018687ca12e6acff71d27d36358" target="_top" xlink:title="Set the render mode. ">
<polygon fill="#ffffff" stroke="#000000" points="397,-310.5 397,-340.5 582,-340.5 582,-310.5 397,-310.5"/>
<text text-anchor="start" x="405" y="-328.5" font-family="Helvetica,sans-Serif" font-size="10.00" fill="#000000">Ra::Engine::AttribArrayDisplayable</text>
<text text-anchor="middle" x="489.5" y="-317.5" font-family="Helvetica,sans-Serif" font-size="10.00" fill="#000000">::setRenderMode</text>
</a>
</g>
</g>
<!-- Node78&#45;&gt;Node79 -->
<g id="edge2" class="edge">
<title>Node78&#45;&gt;Node79</title>
<path fill="none" stroke="#191970" d="M305.4904,-278.0405C336.961,-286.1574 382.9902,-298.0291 421.1383,-307.8683"/>
<polygon fill="#191970" stroke="#191970" points="420.6032,-311.3447 431.1605,-310.4532 422.3515,-304.5665 420.6032,-311.3447"/>
</g>
<!-- Node82 -->
<g id="node6" class="node">
<title>Node82</title>
<g id="a_node6"><a xlink:href="classRa_1_1Core_1_1Geometry_1_1AttribArrayGeometry.html#a887411177386edbcdc35d0c6bf78a83a" target="_top" xlink:title="Set vertices. ">
<polygon fill="#ffffff" stroke="#000000" points="427,-248 427,-289 552,-289 552,-248 427,-248"/>
<text text-anchor="start" x="435" y="-277" font-family="Helvetica,sans-Serif" font-size="10.00" fill="#000000">Ra::Core::Geometry</text>
<text text-anchor="start" x="435" y="-266" font-family="Helvetica,sans-Serif" font-size="10.00" fill="#000000">::AttribArrayGeometry</text>
<text text-anchor="middle" x="489.5" y="-255" font-family="Helvetica,sans-Serif" font-size="10.00" fill="#000000">::setVertices</text>
</a>
</g>
</g>
<!-- Node78&#45;&gt;Node82 -->
<g id="edge5" class="edge">
<title>Node78&#45;&gt;Node82</title>
<path fill="none" stroke="#191970" d="M356.7978,-268.5C376.6708,-268.5 397.5431,-268.5 416.6982,-268.5"/>
<polygon fill="#191970" stroke="#191970" points="416.8439,-272.0001 426.8438,-268.5 416.8438,-265.0001 416.8439,-272.0001"/>
</g>
<!-- Node80 -->
<g id="node4" class="node">
<title>Node80</title>
<g id="a_node4"><a xlink:href="classRa_1_1Engine_1_1AttribArrayDisplayable.html#af58505fe1067bc667d7abc4333a10d3c" target="_top" xlink:title="Update the picking render mode according to the object render mode. ">
<polygon fill="#ffffff" stroke="#000000" points="618,-311.5 618,-341.5 803,-341.5 803,-311.5 618,-311.5"/>
<text text-anchor="start" x="626" y="-329.5" font-family="Helvetica,sans-Serif" font-size="10.00" fill="#000000">Ra::Engine::AttribArrayDisplayable</text>
<text text-anchor="middle" x="710.5" y="-318.5" font-family="Helvetica,sans-Serif" font-size="10.00" fill="#000000">::updatePickingRenderMode</text>
</a>
</g>
</g>
<!-- Node79&#45;&gt;Node80 -->
<g id="edge3" class="edge">
<title>Node79&#45;&gt;Node80</title>
<path fill="none" stroke="#191970" d="M582.2633,-325.9197C590.7534,-325.9582 599.3869,-325.9972 607.9563,-326.036"/>
<polygon fill="#191970" stroke="#191970" points="607.9584,-329.5359 617.9741,-326.0813 607.9901,-322.536 607.9584,-329.5359"/>
</g>
<!-- Node81 -->
<g id="node5" class="node">
<title>Node81</title>
<g id="a_node5"><a xlink:href="classRa_1_1Engine_1_1AttribArrayDisplayable.html#a42e9f2bbddad3d877b859ccf4a5ec376" target="_top" xlink:title="Get the render mode. ">
<polygon fill="#ffffff" stroke="#000000" points="839,-311.5 839,-341.5 1024,-341.5 1024,-311.5 839,-311.5"/>
<text text-anchor="start" x="847" y="-329.5" font-family="Helvetica,sans-Serif" font-size="10.00" fill="#000000">Ra::Engine::AttribArrayDisplayable</text>
<text text-anchor="middle" x="931.5" y="-318.5" font-family="Helvetica,sans-Serif" font-size="10.00" fill="#000000">::getRenderMode</text>
</a>
</g>
</g>
<!-- Node80&#45;&gt;Node81 -->
<g id="edge4" class="edge">
<title>Node80&#45;&gt;Node81</title>
<path fill="none" stroke="#191970" d="M803.2633,-326.5C811.7534,-326.5 820.3869,-326.5 828.9563,-326.5"/>
<polygon fill="#191970" stroke="#191970" points="828.9742,-330.0001 838.9741,-326.5 828.9741,-323.0001 828.9742,-330.0001"/>
</g>
<!-- Node83 -->
<g id="node7" class="node">
<title>Node83</title>
<g id="a_node7"><a xlink:href="classRa_1_1Core_1_1Utils_1_1AttribManager.html#a056b7697cfbedd6b20dde6ce7955094e" target="_top" xlink:title="Ra::Core::Utils::AttribManager\l::setAttrib">
<polygon fill="#ffffff" stroke="#000000" points="630,-262.5 630,-292.5 791,-292.5 791,-262.5 630,-262.5"/>
<text text-anchor="start" x="638" y="-280.5" font-family="Helvetica,sans-Serif" font-size="10.00" fill="#000000">Ra::Core::Utils::AttribManager</text>
<text text-anchor="middle" x="710.5" y="-269.5" font-family="Helvetica,sans-Serif" font-size="10.00" fill="#000000">::setAttrib</text>
</a>
</g>
</g>
<!-- Node82&#45;&gt;Node83 -->
<g id="edge6" class="edge">
<title>Node82&#45;&gt;Node83</title>
<path fill="none" stroke="#191970" d="M552.2386,-271.055C573.2482,-271.9106 597.1102,-272.8823 619.8179,-273.8071"/>
<polygon fill="#191970" stroke="#191970" points="619.6759,-277.3041 629.8101,-274.214 619.9608,-270.3099 619.6759,-277.3041"/>
</g>
<!-- Node84 -->
<g id="node8" class="node">
<title>Node84</title>
<g id="a_node8"><a xlink:href="classRa_1_1Core_1_1Geometry_1_1AttribArrayGeometry.html#acabe05880d71a8dc4406964c258fff5a" target="_top" xlink:title="Access the vertices positions. ">
<polygon fill="#ffffff" stroke="#000000" points="648,-202 648,-243 773,-243 773,-202 648,-202"/>
<text text-anchor="start" x="656" y="-231" font-family="Helvetica,sans-Serif" font-size="10.00" fill="#000000">Ra::Core::Geometry</text>
<text text-anchor="start" x="656" y="-220" font-family="Helvetica,sans-Serif" font-size="10.00" fill="#000000">::AttribArrayGeometry</text>
<text text-anchor="middle" x="710.5" y="-209" font-family="Helvetica,sans-Serif" font-size="10.00" fill="#000000">::vertices</text>
</a>
</g>
</g>
<!-- Node82&#45;&gt;Node84 -->
<g id="edge7" class="edge">
<title>Node82&#45;&gt;Node84</title>
<path fill="none" stroke="#191970" d="M552.2386,-255.4413C578.9474,-249.882 610.266,-243.3632 637.9625,-237.5983"/>
<polygon fill="#191970" stroke="#191970" points="638.9104,-240.9761 647.9873,-235.5117 637.4839,-234.123 638.9104,-240.9761"/>
</g>
<!-- Node85 -->
<g id="node9" class="node">
<title>Node85</title>
<g id="a_node9"><a xlink:href="classRa_1_1Core_1_1Utils_1_1AttribManager.html#ae0cb7281ec72606a5392602b4ea50d2c" target="_top" xlink:title="Ra::Core::Utils::AttribManager\l::getAttrib">
<polygon fill="#ffffff" stroke="#000000" points="851,-207.5 851,-237.5 1012,-237.5 1012,-207.5 851,-207.5"/>
<text text-anchor="start" x="859" y="-225.5" font-family="Helvetica,sans-Serif" font-size="10.00" fill="#000000">Ra::Core::Utils::AttribManager</text>
<text text-anchor="middle" x="931.5" y="-214.5" font-family="Helvetica,sans-Serif" font-size="10.00" fill="#000000">::getAttrib</text>
</a>
</g>
</g>
<!-- Node84&#45;&gt;Node85 -->
<g id="edge8" class="edge">
<title>Node84&#45;&gt;Node85</title>
<path fill="none" stroke="#191970" d="M773.2386,-222.5C794.154,-222.5 817.8963,-222.5 840.5123,-222.5"/>
<polygon fill="#191970" stroke="#191970" points="840.8101,-226.0001 850.8101,-222.5 840.81,-219.0001 840.8101,-226.0001"/>
</g>
<!-- Node88 -->
<g id="node12" class="node">
<title>Node88</title>
<g id="a_node12"><a xlink:href="classRa_1_1Core_1_1Utils_1_1AttribManager.html#ac2d3cdc360ffe1904a15ff8504de95b8" target="_top" xlink:title="Ra::Core::Utils::AttribManager\l::addAttrib">
<polygon fill="#ffffff" stroke="#000000" points="409,-152.5 409,-182.5 570,-182.5 570,-152.5 409,-152.5"/>
<text text-anchor="start" x="417" y="-170.5" font-family="Helvetica,sans-Serif" font-size="10.00" fill="#000000">Ra::Core::Utils::AttribManager</text>
<text text-anchor="middle" x="489.5" y="-159.5" font-family="Helvetica,sans-Serif" font-size="10.00" fill="#000000">::addAttrib</text>
</a>
</g>
</g>
<!-- Node87&#45;&gt;Node88 -->
<g id="edge11" class="edge">
<title>Node87&#45;&gt;Node88</title>
<path fill="none" stroke="#191970" d="M331.2386,-168.2161C352.154,-168.1215 375.8963,-168.014 398.5123,-167.9117"/>
<polygon fill="#191970" stroke="#191970" points="398.826,-171.4104 408.8101,-167.8651 398.7943,-164.4105 398.826,-171.4104"/>
</g>
<!-- Node89 -->
<g id="node13" class="node">
<title>Node89</title>
<g id="a_node13"><a xlink:href="classRa_1_1Core_1_1Utils_1_1AttribManager.html#ae61e2c70f407d49d854ee4b98a39121f" target="_top" xlink:title="Return true if h correspond to an existing attribute in *this. ">
<polygon fill="#ffffff" stroke="#000000" points="630,-152.5 630,-182.5 791,-182.5 791,-152.5 630,-152.5"/>
<text text-anchor="start" x="638" y="-170.5" font-family="Helvetica,sans-Serif" font-size="10.00" fill="#000000">Ra::Core::Utils::AttribManager</text>
<text text-anchor="middle" x="710.5" y="-159.5" font-family="Helvetica,sans-Serif" font-size="10.00" fill="#000000">::isValid</text>
</a>
</g>
</g>
<!-- Node88&#45;&gt;Node89 -->
<g id="edge12" class="edge">
<title>Node88&#45;&gt;Node89</title>
<path fill="none" stroke="#191970" d="M570.2242,-167.5C586.3577,-167.5 603.4064,-167.5 619.8489,-167.5"/>
<polygon fill="#191970" stroke="#191970" points="619.9947,-171.0001 629.9947,-167.5 619.9946,-164.0001 619.9947,-171.0001"/>
</g>
<!-- Node93 -->
<g id="node17" class="node">
<title>Node93</title>
<g id="a_node17"><a xlink:href="classRa_1_1Core_1_1Utils_1_1Observable.html#a7e5fe761726d56a51f95192eb6555f8f" target="_top" xlink:title="Notify (i.e. call) each attached observer with argument p. ">
<polygon fill="#ffffff" stroke="#000000" points="631,-103.5 631,-133.5 790,-133.5 790,-103.5 631,-103.5"/>
<text text-anchor="start" x="639" y="-121.5" font-family="Helvetica,sans-Serif" font-size="10.00" fill="#000000">Ra::Core::Utils::Observable</text>
<text text-anchor="middle" x="710.5" y="-110.5" font-family="Helvetica,sans-Serif" font-size="10.00" fill="#000000">&lt; const std::string &amp;&gt;::notify</text>
</a>
</g>
</g>
<!-- Node88&#45;&gt;Node93 -->
<g id="edge16" class="edge">
<title>Node88&#45;&gt;Node93</title>
<path fill="none" stroke="#191970" d="M557.3092,-152.4654C581.174,-147.1741 608.1782,-141.1867 632.7947,-135.7288"/>
<polygon fill="#191970" stroke="#191970" points="633.8138,-139.0879 642.819,-133.5062 632.2985,-132.2539 633.8138,-139.0879"/>
</g>
<!-- Node90 -->
<g id="node14" class="node">
<title>Node90</title>
<g id="a_node14"><a xlink:href="classRa_1_1Core_1_1Utils_1_1AttribHandle.html#a17afbd6718234d480c05258369bdfde9" target="_top" xlink:title="Ra::Core::Utils::AttribHandle\l::attribName">
<polygon fill="#ffffff" stroke="#000000" points="854.5,-155.5 854.5,-185.5 1008.5,-185.5 1008.5,-155.5 854.5,-155.5"/>
<text text-anchor="start" x="862.5" y="-173.5" font-family="Helvetica,sans-Serif" font-size="10.00" fill="#000000">Ra::Core::Utils::AttribHandle</text>
<text text-anchor="middle" x="931.5" y="-162.5" font-family="Helvetica,sans-Serif" font-size="10.00" fill="#000000">::attribName</text>
</a>
</g>
</g>
<!-- Node89&#45;&gt;Node90 -->
<g id="edge13" class="edge">
<title>Node89&#45;&gt;Node90</title>
<path fill="none" stroke="#191970" d="M791.2242,-168.5958C808.4376,-168.8295 826.6928,-169.0773 844.1419,-169.3141"/>
<polygon fill="#191970" stroke="#191970" points="844.262,-172.816 854.3086,-169.4522 844.357,-165.8166 844.262,-172.816"/>
</g>
<!-- Node91 -->
<g id="node15" class="node">
<title>Node91</title>
<g id="a_node15"><a xlink:href="classRa_1_1Core_1_1Utils_1_1Index.html#a771f93efd49538950e3cb9e57e46fbaf" target="_top" xlink:title="Ra::Core::Utils::Index\l::Invalid">
<polygon fill="#ffffff" stroke="#000000" points="872,-106.5 872,-136.5 991,-136.5 991,-106.5 872,-106.5"/>
<text text-anchor="start" x="880" y="-124.5" font-family="Helvetica,sans-Serif" font-size="10.00" fill="#000000">Ra::Core::Utils::Index</text>
<text text-anchor="middle" x="931.5" y="-113.5" font-family="Helvetica,sans-Serif" font-size="10.00" fill="#000000">::Invalid</text>
</a>
</g>
</g>
<!-- Node89&#45;&gt;Node91 -->
<g id="edge14" class="edge">
<title>Node89&#45;&gt;Node91</title>
<path fill="none" stroke="#191970" d="M782.8637,-152.4379C808.313,-147.1407 836.8385,-141.2033 862.0431,-135.9571"/>
<polygon fill="#191970" stroke="#191970" points="862.8129,-139.372 871.8899,-133.9075 861.3864,-132.5188 862.8129,-139.372"/>
</g>
<!-- Node92 -->
<g id="node16" class="node">
<title>Node92</title>
<g id="a_node16"><a xlink:href="classRa_1_1Core_1_1Utils_1_1Index.html#ab3376097b792b1ac2068c6da1cb6c8e4" target="_top" xlink:title="CONSTRUCTOR. ">
<polygon fill="#ffffff" stroke="#000000" points="1060,-106.5 1060,-136.5 1179,-136.5 1179,-106.5 1060,-106.5"/>
<text text-anchor="start" x="1068" y="-124.5" font-family="Helvetica,sans-Serif" font-size="10.00" fill="#000000">Ra::Core::Utils::Index</text>
<text text-anchor="middle" x="1119.5" y="-113.5" font-family="Helvetica,sans-Serif" font-size="10.00" fill="#000000">::Index</text>
</a>
</g>
</g>
<!-- Node91&#45;&gt;Node92 -->
<g id="edge15" class="edge">
<title>Node91&#45;&gt;Node92</title>
<path fill="none" stroke="#191970" d="M991.2427,-121.5C1009.8349,-121.5 1030.4984,-121.5 1049.7134,-121.5"/>
<polygon fill="#191970" stroke="#191970" points="1049.9128,-125.0001 1059.9127,-121.5 1049.9127,-118.0001 1049.9128,-125.0001"/>
</g>
</g>
</svg>
        <g id="navigator" transform="translate(0 0)" fill="#404254">
                <rect fill="#f2f5e9" fill-opacity="0.5" stroke="#606060" stroke-width=".5" x="0" y="0" width="60" height="60"/>
                <use id="zoomplus" xlink:href="#zoomPlus" x="17" y="9" onmousedown="handleZoom(evt,'in')"/>
                <use id="zoomminus" xlink:href="#zoomMin" x="42" y="9" onmousedown="handleZoom(evt,'out')"/>
                <use id="reset" xlink:href="#resetDef" x="30" y="36" onmousedown="handleReset()"/>
                <g id="arrowUp" xlink:href="#dirArrow" transform="translate(30 24)" onmousedown="handlePan(0,-1)">
                  <use xlink:href="#rim" fill="#404040">
                        <set attributeName="fill" to="#808080" begin="arrowUp.mouseover" end="arrowUp.mouseout"/>
                  </use>
                  <path fill="none" stroke="white" stroke-width="1.5" d="M0,-3.0v7 M-2.5,-0.5L0,-3.0L2.5,-0.5"/>
                </g>
                <g id="arrowRight" xlink:href="#dirArrow" transform="rotate(90) translate(36 -43)" onmousedown="handlePan(1,0)">
                  <use xlink:href="#rim" fill="#404040">
                        <set attributeName="fill" to="#808080" begin="arrowRight.mouseover" end="arrowRight.mouseout"/>
                  </use>
                  <path fill="none" stroke="white" stroke-width="1.5" d="M0,-3.0v7 M-2.5,-0.5L0,-3.0L2.5,-0.5"/>
                </g>
                <g id="arrowDown" xlink:href="#dirArrow" transform="rotate(180) translate(-30 -48)" onmousedown="handlePan(0,1)">
                  <use xlink:href="#rim" fill="#404040">
                        <set attributeName="fill" to="#808080" begin="arrowDown.mouseover" end="arrowDown.mouseout"/>
                  </use>
                  <path fill="none" stroke="white" stroke-width="1.5" d="M0,-3.0v7 M-2.5,-0.5L0,-3.0L2.5,-0.5"/>
                </g>
                <g id="arrowLeft" xlink:href="#dirArrow" transform="rotate(270) translate(-36 17)" onmousedown="handlePan(-1,0)">
                  <use xlink:href="#rim" fill="#404040">
                        <set attributeName="fill" to="#808080" begin="arrowLeft.mouseover" end="arrowLeft.mouseout"/>
                  </use>
                  <path fill="none" stroke="white" stroke-width="1.5" d="M0,-3.0v7 M-2.5,-0.5L0,-3.0L2.5,-0.5"/>
                </g>
        </g>
        <svg viewBox="0 0 15 15" width="100%" height="30px" preserveAspectRatio="xMaxYMin meet">
         <g id="arrow_out" transform="scale(0.3 0.3)">
          <a xlink:href="classRa_1_1Engine_1_1DebugRender_acb908effd287d516ae9535c60adf74c3_cgraph_org.svg" target="_base">
           <rect id="button" ry="5" rx="5" y="6" x="6" height="38" width="38"
                fill="#f2f5e9" fill-opacity="0.5" stroke="#606060" stroke-width="1.0"/>
           <path id="arrow"
             d="M 11.500037,31.436501 C 11.940474,20.09759 22.043105,11.32322 32.158766,21.979434 L 37.068811,17.246167 C 37.068811,17.246167 37.088388,32 37.088388,32 L 22.160133,31.978069 C 22.160133,31.978069 26.997745,27.140456 26.997745,27.140456 C 18.528582,18.264221 13.291696,25.230495 11.500037,31.436501 z"
             style="fill:#404040;"/>
          </a>
         </g>
        </svg>
</svg>
