<?xml version="1.0" encoding="UTF-8" standalone="no"?>
<!DOCTYPE svg PUBLIC "-//W3C//DTD SVG 1.1//EN"
 "http://www.w3.org/Graphics/SVG/1.1/DTD/svg11.dtd">
<!-- Generated by graphviz version 2.40.1 (20161225.0304)
 -->
<!-- Title: Ra::Core::Animation::KeyTransform Pages: 1 -->
<svg width="702pt" height="1373pt"
 viewBox="0.00 0.00 701.50 1373.00" xmlns="http://www.w3.org/2000/svg" xmlns:xlink="http://www.w3.org/1999/xlink">
<g id="graph0" class="graph" transform="scale(1 1) rotate(0) translate(4 1369)">
<title>Ra::Core::Animation::KeyTransform</title>
<polygon fill="#ffffff" stroke="transparent" points="-4,4 -4,-1369 697.5,-1369 697.5,4 -4,4"/>
<!-- Node3 -->
<g id="node1" class="node">
<title>Node3</title>
<polygon fill="#bfbfbf" stroke="#000000" points="153.5,-.5 153.5,-112.5 267.5,-112.5 267.5,-.5 153.5,-.5"/>
<text text-anchor="start" x="161.5" y="-100.5" font-family="Helvetica,sans-Serif" font-size="10.00" fill="#000000">Ra::Core::Animation</text>
<text text-anchor="middle" x="210.5" y="-89.5" font-family="Helvetica,sans-Serif" font-size="10.00" fill="#000000">::KeyTransform</text>
<polyline fill="none" stroke="#000000" points="153.5,-82.5 267.5,-82.5 "/>
<text text-anchor="middle" x="210.5" y="-70.5" font-family="Helvetica,sans-Serif" font-size="10.00" fill="#000000"> </text>
<polyline fill="none" stroke="#000000" points="153.5,-63.5 267.5,-63.5 "/>
<text text-anchor="start" x="161.5" y="-51.5" font-family="Helvetica,sans-Serif" font-size="10.00" fill="#000000">+ KeyTransform()</text>
<text text-anchor="start" x="161.5" y="-40.5" font-family="Helvetica,sans-Serif" font-size="10.00" fill="#000000">+ KeyTransform()</text>
<text text-anchor="start" x="161.5" y="-29.5" font-family="Helvetica,sans-Serif" font-size="10.00" fill="#000000">+ ~KeyTransform()</text>
<text text-anchor="start" x="161.5" y="-18.5" font-family="Helvetica,sans-Serif" font-size="10.00" fill="#000000"># defaultFrame()</text>
<text text-anchor="start" x="161.5" y="-7.5" font-family="Helvetica,sans-Serif" font-size="10.00" fill="#000000"># interpolate()</text>
</g>
<!-- Node4 -->
<g id="node2" class="node">
<title>Node4</title>
<g id="a_node2"><a xlink:href="classRa_1_1Core_1_1Animation_1_1KeyFrame.html" target="_top" xlink:title="{Ra::Core::Animation\l::KeyFrame\&lt; Core::Transform \&gt;\n||+ KeyFrame()\l+ KeyFrame()\l+ ~KeyFrame()\l+ getAnimationTime()\l+ setAnimationTime()\l+ getKeyFrame()\l+ getKeyFrame()\l+ at()\l+ setKeyFrame()\l+ setKeyFrame()\l+ insertKeyFrame()\l+ size()\l+ clear()\l+ empty()\l+ timeSchedule()\l+ reset()\l+ operator=()\l+ operator==()\l+ operator!=()\l# defaultFrame()\l# findRange()\l# interpolate()\l}">
<polygon fill="#ffffff" stroke="#000000" points="125.5,-150.5 125.5,-449.5 295.5,-449.5 295.5,-150.5 125.5,-150.5"/>
<text text-anchor="start" x="133.5" y="-437.5" font-family="Helvetica,sans-Serif" font-size="10.00" fill="#000000">Ra::Core::Animation</text>
<text text-anchor="middle" x="210.5" y="-426.5" font-family="Helvetica,sans-Serif" font-size="10.00" fill="#000000">::KeyFrame&lt; Core::Transform &gt;</text>
<polyline fill="none" stroke="#000000" points="125.5,-419.5 295.5,-419.5 "/>
<text text-anchor="middle" x="210.5" y="-407.5" font-family="Helvetica,sans-Serif" font-size="10.00" fill="#000000"> </text>
<polyline fill="none" stroke="#000000" points="125.5,-400.5 295.5,-400.5 "/>
<text text-anchor="start" x="133.5" y="-388.5" font-family="Helvetica,sans-Serif" font-size="10.00" fill="#000000">+ KeyFrame()</text>
<text text-anchor="start" x="133.5" y="-377.5" font-family="Helvetica,sans-Serif" font-size="10.00" fill="#000000">+ KeyFrame()</text>
<text text-anchor="start" x="133.5" y="-366.5" font-family="Helvetica,sans-Serif" font-size="10.00" fill="#000000">+ ~KeyFrame()</text>
<text text-anchor="start" x="133.5" y="-355.5" font-family="Helvetica,sans-Serif" font-size="10.00" fill="#000000">+ getAnimationTime()</text>
<text text-anchor="start" x="133.5" y="-344.5" font-family="Helvetica,sans-Serif" font-size="10.00" fill="#000000">+ setAnimationTime()</text>
<text text-anchor="start" x="133.5" y="-333.5" font-family="Helvetica,sans-Serif" font-size="10.00" fill="#000000">+ getKeyFrame()</text>
<text text-anchor="start" x="133.5" y="-322.5" font-family="Helvetica,sans-Serif" font-size="10.00" fill="#000000">+ getKeyFrame()</text>
<text text-anchor="start" x="133.5" y="-311.5" font-family="Helvetica,sans-Serif" font-size="10.00" fill="#000000">+ at()</text>
<text text-anchor="start" x="133.5" y="-300.5" font-family="Helvetica,sans-Serif" font-size="10.00" fill="#000000">+ setKeyFrame()</text>
<text text-anchor="start" x="133.5" y="-289.5" font-family="Helvetica,sans-Serif" font-size="10.00" fill="#000000">+ setKeyFrame()</text>
<text text-anchor="start" x="133.5" y="-278.5" font-family="Helvetica,sans-Serif" font-size="10.00" fill="#000000">+ insertKeyFrame()</text>
<text text-anchor="start" x="133.5" y="-267.5" font-family="Helvetica,sans-Serif" font-size="10.00" fill="#000000">+ size()</text>
<text text-anchor="start" x="133.5" y="-256.5" font-family="Helvetica,sans-Serif" font-size="10.00" fill="#000000">+ clear()</text>
<text text-anchor="start" x="133.5" y="-245.5" font-family="Helvetica,sans-Serif" font-size="10.00" fill="#000000">+ empty()</text>
<text text-anchor="start" x="133.5" y="-234.5" font-family="Helvetica,sans-Serif" font-size="10.00" fill="#000000">+ timeSchedule()</text>
<text text-anchor="start" x="133.5" y="-223.5" font-family="Helvetica,sans-Serif" font-size="10.00" fill="#000000">+ reset()</text>
<text text-anchor="start" x="133.5" y="-212.5" font-family="Helvetica,sans-Serif" font-size="10.00" fill="#000000">+ operator=()</text>
<text text-anchor="start" x="133.5" y="-201.5" font-family="Helvetica,sans-Serif" font-size="10.00" fill="#000000">+ operator==()</text>
<text text-anchor="start" x="133.5" y="-190.5" font-family="Helvetica,sans-Serif" font-size="10.00" fill="#000000">+ operator!=()</text>
<text text-anchor="start" x="133.5" y="-179.5" font-family="Helvetica,sans-Serif" font-size="10.00" fill="#000000"># defaultFrame()</text>
<text text-anchor="start" x="133.5" y="-168.5" font-family="Helvetica,sans-Serif" font-size="10.00" fill="#000000"># findRange()</text>
<text text-anchor="start" x="133.5" y="-157.5" font-family="Helvetica,sans-Serif" font-size="10.00" fill="#000000"># interpolate()</text>
</a>
</g>
</g>
<!-- Node4&#45;&gt;Node3 -->
<g id="edge1" class="edge">
<title>Node4&#45;&gt;Node3</title>
<path fill="none" stroke="#191970" d="M210.5,-140.1509C210.5,-130.528 210.5,-121.2582 210.5,-112.6176"/>
<polygon fill="none" stroke="#191970" points="207.0001,-140.2951 210.5,-150.2952 214.0001,-140.2952 207.0001,-140.2951"/>
</g>
<!-- Node5 -->
<g id="node3" class="node">
<title>Node5</title>
<g id="a_node3"><a xlink:href="classRa_1_1Core_1_1Animation_1_1AnimationTime.html" target="_top" xlink:title="{Ra::Core::Animation\l::AnimationTime\n||+ AnimationTime()\l+ AnimationTime()\l+ ~AnimationTime()\l+ getStart()\l+ setStart()\l+ getEnd()\l+ setEnd()\l+ duration()\l+ merge()\l+ contain()\l+ intersect()\l+ isValid()\l+ operator==()\l+ operator!=()\l+ operator\&lt;()\l+ operator==()\l+ operator\&lt;()\l+ operator\&gt;()\l}">
<polygon fill="#ffffff" stroke="#000000" points="0,-844.5 0,-1099.5 119,-1099.5 119,-844.5 0,-844.5"/>
<text text-anchor="start" x="8" y="-1087.5" font-family="Helvetica,sans-Serif" font-size="10.00" fill="#000000">Ra::Core::Animation</text>
<text text-anchor="middle" x="59.5" y="-1076.5" font-family="Helvetica,sans-Serif" font-size="10.00" fill="#000000">::AnimationTime</text>
<polyline fill="none" stroke="#000000" points="0,-1069.5 119,-1069.5 "/>
<text text-anchor="middle" x="59.5" y="-1057.5" font-family="Helvetica,sans-Serif" font-size="10.00" fill="#000000"> </text>
<polyline fill="none" stroke="#000000" points="0,-1050.5 119,-1050.5 "/>
<text text-anchor="start" x="8" y="-1038.5" font-family="Helvetica,sans-Serif" font-size="10.00" fill="#000000">+ AnimationTime()</text>
<text text-anchor="start" x="8" y="-1027.5" font-family="Helvetica,sans-Serif" font-size="10.00" fill="#000000">+ AnimationTime()</text>
<text text-anchor="start" x="8" y="-1016.5" font-family="Helvetica,sans-Serif" font-size="10.00" fill="#000000">+ ~AnimationTime()</text>
<text text-anchor="start" x="8" y="-1005.5" font-family="Helvetica,sans-Serif" font-size="10.00" fill="#000000">+ getStart()</text>
<text text-anchor="start" x="8" y="-994.5" font-family="Helvetica,sans-Serif" font-size="10.00" fill="#000000">+ setStart()</text>
<text text-anchor="start" x="8" y="-983.5" font-family="Helvetica,sans-Serif" font-size="10.00" fill="#000000">+ getEnd()</text>
<text text-anchor="start" x="8" y="-972.5" font-family="Helvetica,sans-Serif" font-size="10.00" fill="#000000">+ setEnd()</text>
<text text-anchor="start" x="8" y="-961.5" font-family="Helvetica,sans-Serif" font-size="10.00" fill="#000000">+ duration()</text>
<text text-anchor="start" x="8" y="-950.5" font-family="Helvetica,sans-Serif" font-size="10.00" fill="#000000">+ merge()</text>
<text text-anchor="start" x="8" y="-939.5" font-family="Helvetica,sans-Serif" font-size="10.00" fill="#000000">+ contain()</text>
<text text-anchor="start" x="8" y="-928.5" font-family="Helvetica,sans-Serif" font-size="10.00" fill="#000000">+ intersect()</text>
<text text-anchor="start" x="8" y="-917.5" font-family="Helvetica,sans-Serif" font-size="10.00" fill="#000000">+ isValid()</text>
<text text-anchor="start" x="8" y="-906.5" font-family="Helvetica,sans-Serif" font-size="10.00" fill="#000000">+ operator==()</text>
<text text-anchor="start" x="8" y="-895.5" font-family="Helvetica,sans-Serif" font-size="10.00" fill="#000000">+ operator!=()</text>
<text text-anchor="start" x="8" y="-884.5" font-family="Helvetica,sans-Serif" font-size="10.00" fill="#000000">+ operator&lt;()</text>
<text text-anchor="start" x="8" y="-873.5" font-family="Helvetica,sans-Serif" font-size="10.00" fill="#000000">+ operator==()</text>
<text text-anchor="start" x="8" y="-862.5" font-family="Helvetica,sans-Serif" font-size="10.00" fill="#000000">+ operator&lt;()</text>
<text text-anchor="start" x="8" y="-851.5" font-family="Helvetica,sans-Serif" font-size="10.00" fill="#000000">+ operator&gt;()</text>
</a>
</g>
</g>
<!-- Node5&#45;&gt;Node4 -->
<g id="edge2" class="edge">
<title>Node5&#45;&gt;Node4</title>
<path fill="none" stroke="#404040" d="M51.0716,-844.4373C48.5335,-747.013 53.4867,-610.6224 89.5,-497 96.8474,-473.8188 107.4943,-450.576 119.4674,-428.5991"/>
<polygon fill="none" stroke="#404040" points="119.584,-428.3905 119.0226,-421.2012 125.4429,-417.9179 126.0043,-425.1072 119.584,-428.3905"/>
<text text-anchor="middle" x="114" y="-644.5" font-family="Helvetica,sans-Serif" font-size="10.00" fill="#000000"> #m_time</text>
</g>
<!-- Node13 -->
<g id="node11" class="node">
<title>Node13</title>
<g id="a_node11"><a xlink:href="classRa_1_1Core_1_1Animation_1_1KeyFrame.html" target="_top" xlink:title="{Ra::Core::Animation\l::KeyFrame\&lt; FRAME \&gt;\n||+ KeyFrame()\l+ KeyFrame()\l+ ~KeyFrame()\l+ getAnimationTime()\l+ setAnimationTime()\l+ getKeyFrame()\l+ getKeyFrame()\l+ at()\l+ setKeyFrame()\l+ setKeyFrame()\l+ insertKeyFrame()\l+ size()\l+ clear()\l+ empty()\l+ timeSchedule()\l+ reset()\l+ operator=()\l+ operator==()\l+ operator!=()\l# defaultFrame()\l# findRange()\l# interpolate()\l}">
<polygon fill="#ffffff" stroke="#000000" points="147.5,-497.5 147.5,-796.5 273.5,-796.5 273.5,-497.5 147.5,-497.5"/>
<text text-anchor="start" x="155.5" y="-784.5" font-family="Helvetica,sans-Serif" font-size="10.00" fill="#000000">Ra::Core::Animation</text>
<text text-anchor="middle" x="210.5" y="-773.5" font-family="Helvetica,sans-Serif" font-size="10.00" fill="#000000">::KeyFrame&lt; FRAME &gt;</text>
<polyline fill="none" stroke="#000000" points="147.5,-766.5 273.5,-766.5 "/>
<text text-anchor="middle" x="210.5" y="-754.5" font-family="Helvetica,sans-Serif" font-size="10.00" fill="#000000"> </text>
<polyline fill="none" stroke="#000000" points="147.5,-747.5 273.5,-747.5 "/>
<text text-anchor="start" x="155.5" y="-735.5" font-family="Helvetica,sans-Serif" font-size="10.00" fill="#000000">+ KeyFrame()</text>
<text text-anchor="start" x="155.5" y="-724.5" font-family="Helvetica,sans-Serif" font-size="10.00" fill="#000000">+ KeyFrame()</text>
<text text-anchor="start" x="155.5" y="-713.5" font-family="Helvetica,sans-Serif" font-size="10.00" fill="#000000">+ ~KeyFrame()</text>
<text text-anchor="start" x="155.5" y="-702.5" font-family="Helvetica,sans-Serif" font-size="10.00" fill="#000000">+ getAnimationTime()</text>
<text text-anchor="start" x="155.5" y="-691.5" font-family="Helvetica,sans-Serif" font-size="10.00" fill="#000000">+ setAnimationTime()</text>
<text text-anchor="start" x="155.5" y="-680.5" font-family="Helvetica,sans-Serif" font-size="10.00" fill="#000000">+ getKeyFrame()</text>
<text text-anchor="start" x="155.5" y="-669.5" font-family="Helvetica,sans-Serif" font-size="10.00" fill="#000000">+ getKeyFrame()</text>
<text text-anchor="start" x="155.5" y="-658.5" font-family="Helvetica,sans-Serif" font-size="10.00" fill="#000000">+ at()</text>
<text text-anchor="start" x="155.5" y="-647.5" font-family="Helvetica,sans-Serif" font-size="10.00" fill="#000000">+ setKeyFrame()</text>
<text text-anchor="start" x="155.5" y="-636.5" font-family="Helvetica,sans-Serif" font-size="10.00" fill="#000000">+ setKeyFrame()</text>
<text text-anchor="start" x="155.5" y="-625.5" font-family="Helvetica,sans-Serif" font-size="10.00" fill="#000000">+ insertKeyFrame()</text>
<text text-anchor="start" x="155.5" y="-614.5" font-family="Helvetica,sans-Serif" font-size="10.00" fill="#000000">+ size()</text>
<text text-anchor="start" x="155.5" y="-603.5" font-family="Helvetica,sans-Serif" font-size="10.00" fill="#000000">+ clear()</text>
<text text-anchor="start" x="155.5" y="-592.5" font-family="Helvetica,sans-Serif" font-size="10.00" fill="#000000">+ empty()</text>
<text text-anchor="start" x="155.5" y="-581.5" font-family="Helvetica,sans-Serif" font-size="10.00" fill="#000000">+ timeSchedule()</text>
<text text-anchor="start" x="155.5" y="-570.5" font-family="Helvetica,sans-Serif" font-size="10.00" fill="#000000">+ reset()</text>
<text text-anchor="start" x="155.5" y="-559.5" font-family="Helvetica,sans-Serif" font-size="10.00" fill="#000000">+ operator=()</text>
<text text-anchor="start" x="155.5" y="-548.5" font-family="Helvetica,sans-Serif" font-size="10.00" fill="#000000">+ operator==()</text>
<text text-anchor="start" x="155.5" y="-537.5" font-family="Helvetica,sans-Serif" font-size="10.00" fill="#000000">+ operator!=()</text>
<text text-anchor="start" x="155.5" y="-526.5" font-family="Helvetica,sans-Serif" font-size="10.00" fill="#000000"># defaultFrame()</text>
<text text-anchor="start" x="155.5" y="-515.5" font-family="Helvetica,sans-Serif" font-size="10.00" fill="#000000"># findRange()</text>
<text text-anchor="start" x="155.5" y="-504.5" font-family="Helvetica,sans-Serif" font-size="10.00" fill="#000000"># interpolate()</text>
</a>
</g>
</g>
<!-- Node5&#45;&gt;Node13 -->
<g id="edge11" class="edge">
<title>Node5&#45;&gt;Node13</title>
<path fill="none" stroke="#404040" d="M118.7458,-844.4842C126.4724,-827.854 134.4375,-810.7106 142.2962,-793.7963"/>
<polygon fill="none" stroke="#404040" points="142.3851,-793.6048 141.2857,-786.4779 147.4415,-782.722 148.5409,-789.8488 142.3851,-793.6048"/>
<text text-anchor="middle" x="154" y="-818" font-family="Helvetica,sans-Serif" font-size="10.00" fill="#000000"> #m_time</text>
</g>
<!-- Node6 -->
<g id="node4" class="node">
<title>Node6</title>
<polygon fill="#ffffff" stroke="#bfbfbf" points="40.5,-1202.5 40.5,-1259.5 78.5,-1259.5 78.5,-1202.5 40.5,-1202.5"/>
<text text-anchor="middle" x="59.5" y="-1247.5" font-family="Helvetica,sans-Serif" font-size="10.00" fill="#000000">float</text>
<polyline fill="none" stroke="#bfbfbf" points="40.5,-1240.5 78.5,-1240.5 "/>
<text text-anchor="middle" x="59.5" y="-1228.5" font-family="Helvetica,sans-Serif" font-size="10.00" fill="#000000"> </text>
<polyline fill="none" stroke="#bfbfbf" points="40.5,-1221.5 78.5,-1221.5 "/>
<text text-anchor="middle" x="59.5" y="-1209.5" font-family="Helvetica,sans-Serif" font-size="10.00" fill="#000000"> </text>
</g>
<!-- Node6&#45;&gt;Node5 -->
<g id="edge3" class="edge">
<title>Node6&#45;&gt;Node5</title>
<path fill="none" stroke="#404040" d="M59.5,-1202.2929C59.5,-1179.6723 59.5,-1146.3138 59.5,-1111.9669"/>
<polygon fill="none" stroke="#404040" points="59.5001,-1111.7928 55.5,-1105.7928 59.5,-1099.7928 63.5,-1105.7927 59.5001,-1111.7928"/>
<text text-anchor="middle" x="82.5" y="-1154" font-family="Helvetica,sans-Serif" font-size="10.00" fill="#000000"> #m_end</text>
<text text-anchor="middle" x="82.5" y="-1143" font-family="Helvetica,sans-Serif" font-size="10.00" fill="#000000">#m_start</text>
</g>
<!-- Node7 -->
<g id="node5" class="node">
<title>Node7</title>
<polygon fill="#ffffff" stroke="#bfbfbf" points="393,-921.5 393,-1022.5 626,-1022.5 626,-921.5 393,-921.5"/>
<text text-anchor="start" x="401" y="-1010.5" font-family="Helvetica,sans-Serif" font-size="10.00" fill="#000000">std::map&lt; Time, Core</text>
<text text-anchor="start" x="401" y="-999.5" font-family="Helvetica,sans-Serif" font-size="10.00" fill="#000000">::Transform, std::less</text>
<text text-anchor="start" x="401" y="-988.5" font-family="Helvetica,sans-Serif" font-size="10.00" fill="#000000">&lt; Time &gt;, Ra::Core::AlignedAllocator</text>
<text text-anchor="start" x="401" y="-977.5" font-family="Helvetica,sans-Serif" font-size="10.00" fill="#000000">&lt; std::pair&lt; const Time, Core::</text>
<text text-anchor="middle" x="509.5" y="-966.5" font-family="Helvetica,sans-Serif" font-size="10.00" fill="#000000">Transform &gt;, EIGEN_MAX_ALIGN_BYTES &gt; &gt;</text>
<polyline fill="none" stroke="#bfbfbf" points="393,-959.5 626,-959.5 "/>
<text text-anchor="middle" x="509.5" y="-947.5" font-family="Helvetica,sans-Serif" font-size="10.00" fill="#000000"> </text>
<polyline fill="none" stroke="#bfbfbf" points="393,-940.5 626,-940.5 "/>
<text text-anchor="middle" x="509.5" y="-928.5" font-family="Helvetica,sans-Serif" font-size="10.00" fill="#000000"> </text>
</g>
<!-- Node7&#45;&gt;Node4 -->
<g id="edge4" class="edge">
<title>Node7&#45;&gt;Node4</title>
<path fill="none" stroke="#404040" d="M493.9504,-921.2049C464.7943,-828.6505 397.5737,-627.39 317.5,-468 312.598,-458.2424 307.2773,-448.3358 301.7157,-438.4654"/>
<polygon fill="none" stroke="#404040" points="301.5586,-438.1911 295.1056,-434.9725 295.5947,-427.778 302.0477,-430.9966 301.5586,-438.1911"/>
<text text-anchor="middle" x="488.5" y="-644.5" font-family="Helvetica,sans-Serif" font-size="10.00" fill="#000000"> #m_keyframe</text>
</g>
<!-- Node8 -->
<g id="node6" class="node">
<title>Node8</title>
<polygon fill="#ffffff" stroke="#bfbfbf" points="616,-1202.5 616,-1259.5 681,-1259.5 681,-1202.5 616,-1202.5"/>
<text text-anchor="middle" x="648.5" y="-1247.5" font-family="Helvetica,sans-Serif" font-size="10.00" fill="#000000">Transform</text>
<polyline fill="none" stroke="#bfbfbf" points="616,-1240.5 681,-1240.5 "/>
<text text-anchor="middle" x="648.5" y="-1228.5" font-family="Helvetica,sans-Serif" font-size="10.00" fill="#000000"> </text>
<polyline fill="none" stroke="#bfbfbf" points="616,-1221.5 681,-1221.5 "/>
<text text-anchor="middle" x="648.5" y="-1209.5" font-family="Helvetica,sans-Serif" font-size="10.00" fill="#000000"> </text>
</g>
<!-- Node8&#45;&gt;Node7 -->
<g id="edge5" class="edge">
<title>Node8&#45;&gt;Node7</title>
<path fill="none" stroke="#404040" d="M641.2482,-1202.2551C634.786,-1178.872 624.2307,-1145.3828 610.5,-1118 595.6205,-1088.3262 575.3839,-1057.7786 556.9316,-1032.3448"/>
<polygon fill="none" stroke="#404040" points="556.8023,-1032.169 550.0255,-1029.7041 549.6943,-1022.5006 556.4711,-1024.9655 556.8023,-1032.169"/>
<text text-anchor="middle" x="664.5" y="-1148.5" font-family="Helvetica,sans-Serif" font-size="10.00" fill="#000000"> +elements</text>
</g>
<!-- Node9 -->
<g id="node7" class="node">
<title>Node9</title>
<polygon fill="#ffffff" stroke="#bfbfbf" points="534,-1202.5 534,-1259.5 575,-1259.5 575,-1202.5 534,-1202.5"/>
<text text-anchor="middle" x="554.5" y="-1247.5" font-family="Helvetica,sans-Serif" font-size="10.00" fill="#000000">Time</text>
<polyline fill="none" stroke="#bfbfbf" points="534,-1240.5 575,-1240.5 "/>
<text text-anchor="middle" x="554.5" y="-1228.5" font-family="Helvetica,sans-Serif" font-size="10.00" fill="#000000"> </text>
<polyline fill="none" stroke="#bfbfbf" points="534,-1221.5 575,-1221.5 "/>
<text text-anchor="middle" x="554.5" y="-1209.5" font-family="Helvetica,sans-Serif" font-size="10.00" fill="#000000"> </text>
</g>
<!-- Node9&#45;&gt;Node7 -->
<g id="edge6" class="edge">
<title>Node9&#45;&gt;Node7</title>
<path fill="none" stroke="#404040" d="M564.4302,-1202.4632C566.1215,-1196.4376 567.6158,-1190.066 568.5,-1184 572.7312,-1154.9734 574.0981,-1146.7942 568.5,-1118 562.9098,-1089.2465 551.664,-1058.9868 540.4758,-1033.5184"/>
<polygon fill="none" stroke="#404040" points="540.4618,-1033.4872 534.3498,-1029.6606 535.5312,-1022.5469 541.6433,-1026.3735 540.4618,-1033.4872"/>
<text text-anchor="middle" x="589" y="-1148.5" font-family="Helvetica,sans-Serif" font-size="10.00" fill="#000000"> +keys</text>
</g>
<!-- Node14 -->
<g id="node12" class="node">
<title>Node14</title>
<polygon fill="#ffffff" stroke="#bfbfbf" points="137,-916 137,-1028 298,-1028 298,-916 137,-916"/>
<text text-anchor="start" x="145" y="-1016" font-family="Helvetica,sans-Serif" font-size="10.00" fill="#000000">std::map&lt; Time, FRAME,</text>
<text text-anchor="start" x="145" y="-1005" font-family="Helvetica,sans-Serif" font-size="10.00" fill="#000000"> std::less&lt; Time &gt;, Ra</text>
<text text-anchor="start" x="145" y="-994" font-family="Helvetica,sans-Serif" font-size="10.00" fill="#000000">::Core::AlignedAllocator</text>
<text text-anchor="start" x="145" y="-983" font-family="Helvetica,sans-Serif" font-size="10.00" fill="#000000">&lt; std::pair&lt; const Time,</text>
<text text-anchor="start" x="145" y="-972" font-family="Helvetica,sans-Serif" font-size="10.00" fill="#000000"> FRAME &gt;, EIGEN_MAX_ALIGN</text>
<text text-anchor="middle" x="217.5" y="-961" font-family="Helvetica,sans-Serif" font-size="10.00" fill="#000000">_BYTES &gt; &gt;</text>
<polyline fill="none" stroke="#bfbfbf" points="137,-954 298,-954 "/>
<text text-anchor="middle" x="217.5" y="-942" font-family="Helvetica,sans-Serif" font-size="10.00" fill="#000000"> </text>
<polyline fill="none" stroke="#bfbfbf" points="137,-935 298,-935 "/>
<text text-anchor="middle" x="217.5" y="-923" font-family="Helvetica,sans-Serif" font-size="10.00" fill="#000000"> </text>
</g>
<!-- Node9&#45;&gt;Node14 -->
<g id="edge14" class="edge">
<title>Node9&#45;&gt;Node14</title>
<path fill="none" stroke="#404040" d="M538.0593,-1202.3701C534.9811,-1196.4066 531.9618,-1190.0827 529.5,-1184 518.0482,-1155.705 533.525,-1138.0401 510.5,-1118 467.8299,-1080.8616 436.6486,-1121.9208 384.5,-1100 348.4961,-1084.8657 313.4373,-1060.0471 284.814,-1036.2729"/>
<polygon fill="none" stroke="#404040" points="284.518,-1036.0222 277.3543,-1035.1962 275.3615,-1028.2659 282.5252,-1029.0919 284.518,-1036.0222"/>
<text text-anchor="middle" x="547" y="-1148.5" font-family="Helvetica,sans-Serif" font-size="10.00" fill="#000000"> +keys</text>
</g>
<!-- Node10 -->
<g id="node8" class="node">
<title>Node10</title>
<g id="a_node8"><a xlink:title="STL class. ">
<polygon fill="#ffffff" stroke="#bfbfbf" points="253,-1202.5 253,-1259.5 354,-1259.5 354,-1202.5 253,-1202.5"/>
<text text-anchor="middle" x="303.5" y="-1247.5" font-family="Helvetica,sans-Serif" font-size="10.00" fill="#000000">std::map&lt; K, T &gt;</text>
<polyline fill="none" stroke="#bfbfbf" points="253,-1240.5 354,-1240.5 "/>
<text text-anchor="middle" x="303.5" y="-1228.5" font-family="Helvetica,sans-Serif" font-size="10.00" fill="#000000"> </text>
<polyline fill="none" stroke="#bfbfbf" points="253,-1221.5 354,-1221.5 "/>
<text text-anchor="middle" x="303.5" y="-1209.5" font-family="Helvetica,sans-Serif" font-size="10.00" fill="#000000"> </text>
</a>
</g>
</g>
<!-- Node10&#45;&gt;Node7 -->
<g id="edge7" class="edge">
<title>Node10&#45;&gt;Node7</title>
<path fill="none" stroke="#ffa500" d="M350.3649,-1195.2652C353.6998,-1191.6774 356.8038,-1187.908 359.5,-1184 377.1406,-1158.4315 366.914,-1144.8703 382.5,-1118 402.6432,-1083.2732 431.654,-1049.1538 456.8646,-1022.6417"/>
<polygon fill="#ffa500" stroke="#ffa500" points="347.8596,-1192.8207 343.2518,-1202.3611 352.8033,-1197.7765 347.8596,-1192.8207"/>
<text text-anchor="start" x="382.5" y="-1176" font-family="Helvetica,sans-Serif" font-size="10.00" fill="#000000"> &lt; Time, Core::Transform,</text>
<text text-anchor="start" x="382.5" y="-1165" font-family="Helvetica,sans-Serif" font-size="10.00" fill="#000000"> std::less&lt; Time &gt;, Ra</text>
<text text-anchor="start" x="382.5" y="-1154" font-family="Helvetica,sans-Serif" font-size="10.00" fill="#000000">::Core::AlignedAllocator</text>
<text text-anchor="start" x="382.5" y="-1143" font-family="Helvetica,sans-Serif" font-size="10.00" fill="#000000">&lt; std::pair&lt; const Time,</text>
<text text-anchor="start" x="382.5" y="-1132" font-family="Helvetica,sans-Serif" font-size="10.00" fill="#000000"> Core::Transform &gt;, EIGEN</text>
<text text-anchor="middle" x="446.5" y="-1121" font-family="Helvetica,sans-Serif" font-size="10.00" fill="#000000">_MAX_ALIGN_BYTES &gt; &gt;</text>
</g>
<!-- Node10&#45;&gt;Node14 -->
<g id="edge15" class="edge">
<title>Node10&#45;&gt;Node14</title>
<path fill="none" stroke="#ffa500" d="M243.771,-1210.968C232.1249,-1204.2514 221.4009,-1195.4483 214.5,-1184 186.376,-1137.3432 191.773,-1073.7769 201.3323,-1028.4467"/>
<polygon fill="#ffa500" stroke="#ffa500" points="242.3267,-1214.1627 252.8085,-1215.7068 245.5774,-1207.9632 242.3267,-1214.1627"/>
<text text-anchor="start" x="214.5" y="-1176" font-family="Helvetica,sans-Serif" font-size="10.00" fill="#000000"> &lt; Time, FRAME, std</text>
<text text-anchor="start" x="214.5" y="-1165" font-family="Helvetica,sans-Serif" font-size="10.00" fill="#000000">::less&lt; Time &gt;, Ra::</text>
<text text-anchor="start" x="214.5" y="-1154" font-family="Helvetica,sans-Serif" font-size="10.00" fill="#000000">Core::AlignedAllocator</text>
<text text-anchor="start" x="214.5" y="-1143" font-family="Helvetica,sans-Serif" font-size="10.00" fill="#000000">&lt; std::pair&lt; const Time,</text>
<text text-anchor="start" x="214.5" y="-1132" font-family="Helvetica,sans-Serif" font-size="10.00" fill="#000000"> FRAME &gt;, EIGEN_MAX_ALIGN</text>
<text text-anchor="middle" x="287" y="-1121" font-family="Helvetica,sans-Serif" font-size="10.00" fill="#000000">_BYTES &gt; &gt;</text>
</g>
<!-- Node11 -->
<g id="node9" class="node">
<title>Node11</title>
<polygon fill="#ffffff" stroke="#bfbfbf" points="260,-1307.5 260,-1364.5 289,-1364.5 289,-1307.5 260,-1307.5"/>
<text text-anchor="middle" x="274.5" y="-1352.5" font-family="Helvetica,sans-Serif" font-size="10.00" fill="#000000">K</text>
<polyline fill="none" stroke="#bfbfbf" points="260,-1345.5 289,-1345.5 "/>
<text text-anchor="middle" x="274.5" y="-1333.5" font-family="Helvetica,sans-Serif" font-size="10.00" fill="#000000"> </text>
<polyline fill="none" stroke="#bfbfbf" points="260,-1326.5 289,-1326.5 "/>
<text text-anchor="middle" x="274.5" y="-1314.5" font-family="Helvetica,sans-Serif" font-size="10.00" fill="#000000"> </text>
</g>
<!-- Node11&#45;&gt;Node10 -->
<g id="edge8" class="edge">
<title>Node11&#45;&gt;Node10</title>
<path fill="none" stroke="#404040" d="M272.0824,-1307.2487C272.0514,-1297.7798 272.8536,-1287.2989 275.5,-1278 276.2288,-1275.4393 277.1336,-1272.8758 278.1673,-1270.341"/>
<polygon fill="none" stroke="#404040" points="278.1765,-1270.3217 277.1721,-1263.1809 283.3774,-1259.5073 284.3818,-1266.6481 278.1765,-1270.3217"/>
<text text-anchor="middle" x="293" y="-1281" font-family="Helvetica,sans-Serif" font-size="10.00" fill="#000000"> +keys</text>
</g>
<!-- Node12 -->
<g id="node10" class="node">
<title>Node12</title>
<polygon fill="#ffffff" stroke="#bfbfbf" points="318,-1307.5 318,-1364.5 347,-1364.5 347,-1307.5 318,-1307.5"/>
<text text-anchor="middle" x="332.5" y="-1352.5" font-family="Helvetica,sans-Serif" font-size="10.00" fill="#000000">T</text>
<polyline fill="none" stroke="#bfbfbf" points="318,-1345.5 347,-1345.5 "/>
<text text-anchor="middle" x="332.5" y="-1333.5" font-family="Helvetica,sans-Serif" font-size="10.00" fill="#000000"> </text>
<polyline fill="none" stroke="#bfbfbf" points="318,-1326.5 347,-1326.5 "/>
<text text-anchor="middle" x="332.5" y="-1314.5" font-family="Helvetica,sans-Serif" font-size="10.00" fill="#000000"> </text>
</g>
<!-- Node12&#45;&gt;Node10 -->
<g id="edge9" class="edge">
<title>Node12&#45;&gt;Node10</title>
<path fill="none" stroke="#404040" d="M324.5756,-1307.3083C321.5067,-1296.1966 317.9391,-1283.2796 314.6214,-1271.2673"/>
<polygon fill="none" stroke="#404040" points="314.6095,-1271.224 309.1565,-1266.5054 311.4148,-1259.657 316.8678,-1264.3756 314.6095,-1271.224"/>
<text text-anchor="middle" x="347.5" y="-1281" font-family="Helvetica,sans-Serif" font-size="10.00" fill="#000000"> +elements</text>
</g>
<!-- Node13&#45;&gt;Node4 -->
<g id="edge10" class="edge">
<title>Node13&#45;&gt;Node4</title>
<path fill="none" stroke="#ffa500" d="M210.5,-487.3098C210.5,-474.7921 210.5,-462.1779 210.5,-449.7301"/>
<polygon fill="#ffa500" stroke="#ffa500" points="207.0001,-487.323 210.5,-497.323 214.0001,-487.3231 207.0001,-487.323"/>
<text text-anchor="middle" x="262" y="-471" font-family="Helvetica,sans-Serif" font-size="10.00" fill="#000000"> &lt; Core::Transform &gt;</text>
</g>
<!-- Node14&#45;&gt;Node13 -->
<g id="edge12" class="edge">
<title>Node14&#45;&gt;Node13</title>
<path fill="none" stroke="#404040" d="M216.2887,-915.7604C215.6461,-885.924 214.8201,-847.5768 213.9946,-809.2484"/>
<polygon fill="none" stroke="#404040" points="213.9853,-808.8128 209.857,-802.9003 213.7268,-796.8155 217.8551,-802.728 213.9853,-808.8128"/>
<text text-anchor="middle" x="250.5" y="-818" font-family="Helvetica,sans-Serif" font-size="10.00" fill="#000000"> #m_keyframe</text>
</g>
<!-- Node15 -->
<g id="node13" class="node">
<title>Node15</title>
<polygon fill="#ffffff" stroke="#bfbfbf" points="108,-1202.5 108,-1259.5 157,-1259.5 157,-1202.5 108,-1202.5"/>
<text text-anchor="middle" x="132.5" y="-1247.5" font-family="Helvetica,sans-Serif" font-size="10.00" fill="#000000">FRAME</text>
<polyline fill="none" stroke="#bfbfbf" points="108,-1240.5 157,-1240.5 "/>
<text text-anchor="middle" x="132.5" y="-1228.5" font-family="Helvetica,sans-Serif" font-size="10.00" fill="#000000"> </text>
<polyline fill="none" stroke="#bfbfbf" points="108,-1221.5 157,-1221.5 "/>
<text text-anchor="middle" x="132.5" y="-1209.5" font-family="Helvetica,sans-Serif" font-size="10.00" fill="#000000"> </text>
</g>
<!-- Node15&#45;&gt;Node14 -->
<g id="edge13" class="edge">
<title>Node15&#45;&gt;Node14</title>
<path fill="none" stroke="#404040" d="M128.7743,-1202.1232C126.727,-1178.9576 125.9335,-1145.8294 133.5,-1118 141.0187,-1090.3463 155.0903,-1062.4698 169.5961,-1038.5934"/>
<polygon fill="none" stroke="#404040" points="169.6871,-1038.4476 169.4733,-1031.2396 176.0446,-1028.27 176.2584,-1035.4779 169.6871,-1038.4476"/>
<text text-anchor="middle" x="162.5" y="-1148.5" font-family="Helvetica,sans-Serif" font-size="10.00" fill="#000000"> +elements</text>
</g>
</g>
</svg>
