<?xml version="1.0" encoding="UTF-8" standalone="no"?>
<!DOCTYPE svg PUBLIC "-//W3C//DTD SVG 1.1//EN"
 "http://www.w3.org/Graphics/SVG/1.1/DTD/svg11.dtd">
<!-- Generated by graphviz version 2.40.1 (20161225.0304)
 -->
<!-- Title: Ra::Engine::DebugRender::addTriangle Pages: 1 -->
<svg width="1233pt" height="195pt"
 viewBox="0.00 0.00 1233.00 195.00" xmlns="http://www.w3.org/2000/svg" xmlns:xlink="http://www.w3.org/1999/xlink">
<g id="graph0" class="graph" transform="scale(1 1) rotate(0) translate(4 191)">
<title>Ra::Engine::DebugRender::addTriangle</title>
<polygon fill="#ffffff" stroke="transparent" points="-4,4 -4,-191 1229,-191 1229,4 -4,4"/>
<!-- Node60 -->
<g id="node1" class="node">
<title>Node60</title>
<polygon fill="#bfbfbf" stroke="#000000" points="0,-99.5 0,-129.5 140,-129.5 140,-99.5 0,-99.5"/>
<text text-anchor="start" x="8" y="-117.5" font-family="Helvetica,sans-Serif" font-size="10.00" fill="#000000">Ra::Engine::DebugRender</text>
<text text-anchor="middle" x="70" y="-106.5" font-family="Helvetica,sans-Serif" font-size="10.00" fill="#000000">::addTriangle</text>
</g>
<!-- Node61 -->
<g id="node2" class="node">
<title>Node61</title>
<g id="a_node2"><a xlink:href="namespaceRa_1_1Engine_1_1DrawPrimitives.html#aee74fccfab8a2a6a6fe209243c9c0005" target="_top" xlink:title="Ra::Engine::DrawPrimitives\l::Triangle">
<polygon fill="#ffffff" stroke="#000000" points="176,-99.5 176,-129.5 325,-129.5 325,-99.5 176,-99.5"/>
<text text-anchor="start" x="184" y="-117.5" font-family="Helvetica,sans-Serif" font-size="10.00" fill="#000000">Ra::Engine::DrawPrimitives</text>
<text text-anchor="middle" x="250.5" y="-106.5" font-family="Helvetica,sans-Serif" font-size="10.00" fill="#000000">::Triangle</text>
</a>
</g>
</g>
<!-- Node60&#45;&gt;Node61 -->
<g id="edge1" class="edge">
<title>Node60&#45;&gt;Node61</title>
<path fill="none" stroke="#191970" d="M140.0444,-114.5C148.449,-114.5 157.1,-114.5 165.6852,-114.5"/>
<polygon fill="#191970" stroke="#191970" points="165.7146,-118.0001 175.7146,-114.5 165.7145,-111.0001 165.7146,-118.0001"/>
</g>
<!-- Node62 -->
<g id="node3" class="node">
<title>Node62</title>
<g id="a_node3"><a xlink:href="classRa_1_1Core_1_1Geometry_1_1AttribArrayGeometry.html#a887411177386edbcdc35d0c6bf78a83a" target="_top" xlink:title="Set vertices. ">
<polygon fill="#ffffff" stroke="#000000" points="361,-143 361,-184 486,-184 486,-143 361,-143"/>
<text text-anchor="start" x="369" y="-172" font-family="Helvetica,sans-Serif" font-size="10.00" fill="#000000">Ra::Core::Geometry</text>
<text text-anchor="start" x="369" y="-161" font-family="Helvetica,sans-Serif" font-size="10.00" fill="#000000">::AttribArrayGeometry</text>
<text text-anchor="middle" x="423.5" y="-150" font-family="Helvetica,sans-Serif" font-size="10.00" fill="#000000">::setVertices</text>
</a>
</g>
</g>
<!-- Node61&#45;&gt;Node62 -->
<g id="edge2" class="edge">
<title>Node61&#45;&gt;Node62</title>
<path fill="none" stroke="#191970" d="M303.8173,-129.6014C318.7807,-133.8396 335.3056,-138.5201 351.176,-143.0152"/>
<polygon fill="#191970" stroke="#191970" points="350.3779,-146.4267 360.9532,-145.7844 352.2856,-139.6917 350.3779,-146.4267"/>
</g>
<!-- Node64 -->
<g id="node5" class="node">
<title>Node64</title>
<g id="a_node5"><a xlink:href="classRa_1_1Core_1_1Geometry_1_1AttribArrayGeometry.html#acabe05880d71a8dc4406964c258fff5a" target="_top" xlink:title="Access the vertices positions. ">
<polygon fill="#ffffff" stroke="#000000" points="540,-96 540,-137 665,-137 665,-96 540,-96"/>
<text text-anchor="start" x="548" y="-125" font-family="Helvetica,sans-Serif" font-size="10.00" fill="#000000">Ra::Core::Geometry</text>
<text text-anchor="start" x="548" y="-114" font-family="Helvetica,sans-Serif" font-size="10.00" fill="#000000">::AttribArrayGeometry</text>
<text text-anchor="middle" x="602.5" y="-103" font-family="Helvetica,sans-Serif" font-size="10.00" fill="#000000">::vertices</text>
</a>
</g>
</g>
<!-- Node61&#45;&gt;Node64 -->
<g id="edge13" class="edge">
<title>Node61&#45;&gt;Node64</title>
<path fill="none" stroke="#191970" d="M325.1501,-114.9241C385.4344,-115.2667 469.7837,-115.7459 529.5967,-116.0858"/>
<polygon fill="#191970" stroke="#191970" points="529.7019,-119.5863 539.7217,-116.1433 529.7417,-112.5864 529.7019,-119.5863"/>
</g>
<!-- Node66 -->
<g id="node7" class="node">
<title>Node66</title>
<g id="a_node7"><a xlink:href="classRa_1_1Core_1_1Geometry_1_1AttribArrayGeometry.html#ae1956b0396dadd84f55a12f2160e5671" target="_top" xlink:title="Ra::Core::Geometry\l::AttribArrayGeometry\l::addAttrib">
<polygon fill="#ffffff" stroke="#000000" points="361,-44 361,-85 486,-85 486,-44 361,-44"/>
<text text-anchor="start" x="369" y="-73" font-family="Helvetica,sans-Serif" font-size="10.00" fill="#000000">Ra::Core::Geometry</text>
<text text-anchor="start" x="369" y="-62" font-family="Helvetica,sans-Serif" font-size="10.00" fill="#000000">::AttribArrayGeometry</text>
<text text-anchor="middle" x="423.5" y="-51" font-family="Helvetica,sans-Serif" font-size="10.00" fill="#000000">::addAttrib</text>
</a>
</g>
</g>
<!-- Node61&#45;&gt;Node66 -->
<g id="edge6" class="edge">
<title>Node61&#45;&gt;Node66</title>
<path fill="none" stroke="#191970" d="M302.4057,-99.4984C317.6537,-95.0914 334.6187,-90.1882 350.9081,-85.4803"/>
<polygon fill="#191970" stroke="#191970" points="352.3068,-88.7194 360.9418,-82.5804 350.3631,-81.9946 352.3068,-88.7194"/>
</g>
<!-- Node63 -->
<g id="node4" class="node">
<title>Node63</title>
<g id="a_node4"><a xlink:href="classRa_1_1Core_1_1Utils_1_1AttribManager.html#a056b7697cfbedd6b20dde6ce7955094e" target="_top" xlink:title="Ra::Core::Utils::AttribManager\l::setAttrib">
<polygon fill="#ffffff" stroke="#000000" points="522,-156.5 522,-186.5 683,-186.5 683,-156.5 522,-156.5"/>
<text text-anchor="start" x="530" y="-174.5" font-family="Helvetica,sans-Serif" font-size="10.00" fill="#000000">Ra::Core::Utils::AttribManager</text>
<text text-anchor="middle" x="602.5" y="-163.5" font-family="Helvetica,sans-Serif" font-size="10.00" fill="#000000">::setAttrib</text>
</a>
</g>
</g>
<!-- Node62&#45;&gt;Node63 -->
<g id="edge3" class="edge">
<title>Node62&#45;&gt;Node63</title>
<path fill="none" stroke="#191970" d="M486.1055,-166.298C494.4387,-166.6704 503.1148,-167.0582 511.8059,-167.4466"/>
<polygon fill="#191970" stroke="#191970" points="511.8494,-170.952 521.9957,-167.902 512.162,-163.959 511.8494,-170.952"/>
</g>
<!-- Node62&#45;&gt;Node64 -->
<g id="edge4" class="edge">
<title>Node62&#45;&gt;Node64</title>
<path fill="none" stroke="#191970" d="M486.1055,-147.0617C500.2766,-143.3408 515.4395,-139.3595 529.9814,-135.5412"/>
<polygon fill="#191970" stroke="#191970" points="531.1466,-138.854 539.9298,-132.929 529.3688,-132.0835 531.1466,-138.854"/>
</g>
<!-- Node65 -->
<g id="node6" class="node">
<title>Node65</title>
<g id="a_node6"><a xlink:href="classRa_1_1Core_1_1Utils_1_1AttribManager.html#ae0cb7281ec72606a5392602b4ea50d2c" target="_top" xlink:title="Ra::Core::Utils::AttribManager\l::getAttrib">
<polygon fill="#ffffff" stroke="#000000" points="719,-101.5 719,-131.5 880,-131.5 880,-101.5 719,-101.5"/>
<text text-anchor="start" x="727" y="-119.5" font-family="Helvetica,sans-Serif" font-size="10.00" fill="#000000">Ra::Core::Utils::AttribManager</text>
<text text-anchor="middle" x="799.5" y="-108.5" font-family="Helvetica,sans-Serif" font-size="10.00" fill="#000000">::getAttrib</text>
</a>
</g>
</g>
<!-- Node64&#45;&gt;Node65 -->
<g id="edge5" class="edge">
<title>Node64&#45;&gt;Node65</title>
<path fill="none" stroke="#191970" d="M665.1027,-116.5C678.9253,-116.5 693.8405,-116.5 708.5309,-116.5"/>
<polygon fill="#191970" stroke="#191970" points="708.6492,-120.0001 718.6492,-116.5 708.6491,-113.0001 708.6492,-120.0001"/>
</g>
<!-- Node67 -->
<g id="node8" class="node">
<title>Node67</title>
<g id="a_node8"><a xlink:href="classRa_1_1Core_1_1Utils_1_1AttribManager.html#ac2d3cdc360ffe1904a15ff8504de95b8" target="_top" xlink:title="Ra::Core::Utils::AttribManager\l::addAttrib">
<polygon fill="#ffffff" stroke="#000000" points="522,-46.5 522,-76.5 683,-76.5 683,-46.5 522,-46.5"/>
<text text-anchor="start" x="530" y="-64.5" font-family="Helvetica,sans-Serif" font-size="10.00" fill="#000000">Ra::Core::Utils::AttribManager</text>
<text text-anchor="middle" x="602.5" y="-53.5" font-family="Helvetica,sans-Serif" font-size="10.00" fill="#000000">::addAttrib</text>
</a>
</g>
</g>
<!-- Node66&#45;&gt;Node67 -->
<g id="edge7" class="edge">
<title>Node66&#45;&gt;Node67</title>
<path fill="none" stroke="#191970" d="M486.1055,-63.4507C494.4387,-63.3111 503.1148,-63.1657 511.8059,-63.02"/>
<polygon fill="#191970" stroke="#191970" points="512.0558,-66.5164 521.9957,-62.8492 511.9385,-59.5174 512.0558,-66.5164"/>
</g>
<!-- Node68 -->
<g id="node9" class="node">
<title>Node68</title>
<g id="a_node9"><a xlink:href="classRa_1_1Core_1_1Utils_1_1AttribManager.html#ae61e2c70f407d49d854ee4b98a39121f" target="_top" xlink:title="Return true if h correspond to an existing attribute in *this. ">
<polygon fill="#ffffff" stroke="#000000" points="719,-49.5 719,-79.5 880,-79.5 880,-49.5 719,-49.5"/>
<text text-anchor="start" x="727" y="-67.5" font-family="Helvetica,sans-Serif" font-size="10.00" fill="#000000">Ra::Core::Utils::AttribManager</text>
<text text-anchor="middle" x="799.5" y="-56.5" font-family="Helvetica,sans-Serif" font-size="10.00" fill="#000000">::isValid</text>
</a>
</g>
</g>
<!-- Node67&#45;&gt;Node68 -->
<g id="edge8" class="edge">
<title>Node67&#45;&gt;Node68</title>
<path fill="none" stroke="#191970" d="M683.1959,-62.7289C691.6733,-62.858 700.3327,-62.9898 708.9115,-63.1205"/>
<polygon fill="#191970" stroke="#191970" points="708.8775,-66.6203 718.9296,-63.273 708.9841,-59.6211 708.8775,-66.6203"/>
</g>
<!-- Node72 -->
<g id="node13" class="node">
<title>Node72</title>
<g id="a_node13"><a xlink:href="classRa_1_1Core_1_1Utils_1_1Observable.html#a7e5fe761726d56a51f95192eb6555f8f" target="_top" xlink:title="Notify (i.e. call) each attached observer with argument p. ">
<polygon fill="#ffffff" stroke="#000000" points="720,-.5 720,-30.5 879,-30.5 879,-.5 720,-.5"/>
<text text-anchor="start" x="728" y="-18.5" font-family="Helvetica,sans-Serif" font-size="10.00" fill="#000000">Ra::Core::Utils::Observable</text>
<text text-anchor="middle" x="799.5" y="-7.5" font-family="Helvetica,sans-Serif" font-size="10.00" fill="#000000">&lt; const std::string &amp;&gt;::notify</text>
</a>
</g>
</g>
<!-- Node67&#45;&gt;Node72 -->
<g id="edge12" class="edge">
<title>Node67&#45;&gt;Node72</title>
<path fill="none" stroke="#191970" d="M667.0052,-46.4379C685.6388,-42.0869 706.1225,-37.3039 725.2961,-32.8268"/>
<polygon fill="#191970" stroke="#191970" points="726.2444,-36.1996 735.1865,-30.5174 724.6526,-29.383 726.2444,-36.1996"/>
</g>
<!-- Node69 -->
<g id="node10" class="node">
<title>Node69</title>
<g id="a_node10"><a xlink:href="classRa_1_1Core_1_1Utils_1_1AttribHandle.html#a17afbd6718234d480c05258369bdfde9" target="_top" xlink:title="Ra::Core::Utils::AttribHandle\l::attribName">
<polygon fill="#ffffff" stroke="#000000" points="916,-73.5 916,-103.5 1070,-103.5 1070,-73.5 916,-73.5"/>
<text text-anchor="start" x="924" y="-91.5" font-family="Helvetica,sans-Serif" font-size="10.00" fill="#000000">Ra::Core::Utils::AttribHandle</text>
<text text-anchor="middle" x="993" y="-80.5" font-family="Helvetica,sans-Serif" font-size="10.00" fill="#000000">::attribName</text>
</a>
</g>
</g>
<!-- Node68&#45;&gt;Node69 -->
<g id="edge9" class="edge">
<title>Node68&#45;&gt;Node69</title>
<path fill="none" stroke="#191970" d="M880.1603,-74.5044C888.6571,-75.5582 897.3244,-76.6333 905.8898,-77.6956"/>
<polygon fill="#191970" stroke="#191970" points="905.527,-81.1774 915.8818,-78.935 906.3887,-74.2306 905.527,-81.1774"/>
</g>
<!-- Node70 -->
<g id="node11" class="node">
<title>Node70</title>
<g id="a_node11"><a xlink:href="classRa_1_1Core_1_1Utils_1_1Index.html#a771f93efd49538950e3cb9e57e46fbaf" target="_top" xlink:title="Ra::Core::Utils::Index\l::Invalid">
<polygon fill="#ffffff" stroke="#000000" points="933.5,-24.5 933.5,-54.5 1052.5,-54.5 1052.5,-24.5 933.5,-24.5"/>
<text text-anchor="start" x="941.5" y="-42.5" font-family="Helvetica,sans-Serif" font-size="10.00" fill="#000000">Ra::Core::Utils::Index</text>
<text text-anchor="middle" x="993" y="-31.5" font-family="Helvetica,sans-Serif" font-size="10.00" fill="#000000">::Invalid</text>
</a>
</g>
</g>
<!-- Node68&#45;&gt;Node70 -->
<g id="edge10" class="edge">
<title>Node68&#45;&gt;Node70</title>
<path fill="none" stroke="#191970" d="M880.1603,-54.0788C894.5129,-52.2244 909.3516,-50.3073 923.3648,-48.4968"/>
<polygon fill="#191970" stroke="#191970" points="923.9348,-51.9523 933.4039,-47.1998 923.0378,-45.01 923.9348,-51.9523"/>
</g>
<!-- Node71 -->
<g id="node12" class="node">
<title>Node71</title>
<g id="a_node12"><a xlink:href="classRa_1_1Core_1_1Utils_1_1Index.html#ab3376097b792b1ac2068c6da1cb6c8e4" target="_top" xlink:title="CONSTRUCTOR. ">
<polygon fill="#ffffff" stroke="#000000" points="1106,-24.5 1106,-54.5 1225,-54.5 1225,-24.5 1106,-24.5"/>
<text text-anchor="start" x="1114" y="-42.5" font-family="Helvetica,sans-Serif" font-size="10.00" fill="#000000">Ra::Core::Utils::Index</text>
<text text-anchor="middle" x="1165.5" y="-31.5" font-family="Helvetica,sans-Serif" font-size="10.00" fill="#000000">::Index</text>
</a>
</g>
</g>
<!-- Node70&#45;&gt;Node71 -->
<g id="edge11" class="edge">
<title>Node70&#45;&gt;Node71</title>
<path fill="none" stroke="#191970" d="M1052.848,-39.5C1066.6294,-39.5 1081.406,-39.5 1095.5728,-39.5"/>
<polygon fill="#191970" stroke="#191970" points="1095.7578,-43.0001 1105.7578,-39.5 1095.7577,-36.0001 1095.7578,-43.0001"/>
</g>
</g>
</svg>
