<?xml version="1.0" encoding="UTF-8" standalone="no"?>
<!DOCTYPE svg PUBLIC "-//W3C//DTD SVG 1.1//EN"
 "http://www.w3.org/Graphics/SVG/1.1/DTD/svg11.dtd">
<!-- Generated by graphviz version 2.40.1 (20161225.0304)
 -->
<!-- Title: Ra::Engine::GeometrySystem Pages: 1 -->
<!--zoomable 652 -->
<svg id="main" version="1.1" xmlns="http://www.w3.org/2000/svg" xmlns:xlink="http://www.w3.org/1999/xlink" xml:space="preserve" onload="init(evt)">
<style type="text/css"><![CDATA[
.edge:hover path { stroke: red; }
.edge:hover polygon { stroke: red; fill: red; }
]]></style>
<script type="text/javascript"><![CDATA[
var edges = document.getElementsByTagName('g');
if (edges && edges.length) {
  for (var i=0;i<edges.length;i++) {
    if (edges[i].id.substr(0,4)=='edge') {
      edges[i].setAttribute('class','edge');
    }
  }
}
]]></script>
        <defs>
                <circle id="rim" cx="0" cy="0" r="7"/>
                <circle id="rim2" cx="0" cy="0" r="3.5"/>
                <g id="zoomPlus">
                        <use xlink:href="#rim" fill="#404040">
                                <set attributeName="fill" to="#808080" begin="zoomplus.mouseover" end="zoomplus.mouseout"/>
                        </use>
                        <path d="M-4,0h8M0,-4v8" fill="none" stroke="white" stroke-width="1.5" pointer-events="none"/>
                </g>
                <g id="zoomMin">
                        <use xlink:href="#rim" fill="#404040">
                                <set attributeName="fill" to="#808080" begin="zoomminus.mouseover" end="zoomminus.mouseout"/>
                        </use>
                        <path d="M-4,0h8" fill="none" stroke="white" stroke-width="1.5" pointer-events="none"/>
                </g>
                <g id="dirArrow">
                        <path fill="none" stroke="white" stroke-width="1.5" d="M0,-3.0v7 M-2.5,-0.5L0,-3.0L2.5,-0.5"/>
                </g>
               <g id="resetDef">
                       <use xlink:href="#rim2" fill="#404040">
                               <set attributeName="fill" to="#808080" begin="reset.mouseover" end="reset.mouseout"/>
                       </use>
               </g>
        </defs>

<script type="text/javascript">
var viewWidth = 331;
var viewHeight = 652;
var sectionId = 'dynsection-1';
</script>
<script xlink:href="svgpan.js"/>
<svg id="graph" class="graph">
<g id="viewport">
<title>Ra::Engine::GeometrySystem</title>
<polygon fill="#ffffff" stroke="transparent" points="-4,4 -4,-648 327,-648 327,4 -4,4"/>
<!-- Node2 -->
<g id="node1" class="node">
<title>Node2</title>
<polygon fill="#bfbfbf" stroke="#000000" points="24,-.5 24,-90.5 184,-90.5 184,-.5 24,-.5"/>
<text text-anchor="middle" x="104" y="-78.5" font-family="Helvetica,sans-Serif" font-size="10.00" fill="#000000">Ra::Engine::GeometrySystem</text>
<polyline fill="none" stroke="#000000" points="24,-71.5 184,-71.5 "/>
<text text-anchor="middle" x="104" y="-59.5" font-family="Helvetica,sans-Serif" font-size="10.00" fill="#000000"> </text>
<polyline fill="none" stroke="#000000" points="24,-52.5 184,-52.5 "/>
<text text-anchor="start" x="32" y="-40.5" font-family="Helvetica,sans-Serif" font-size="10.00" fill="#000000">+ GeometrySystem()</text>
<text text-anchor="start" x="32" y="-29.5" font-family="Helvetica,sans-Serif" font-size="10.00" fill="#000000">+ ~GeometrySystem()</text>
<text text-anchor="start" x="32" y="-18.5" font-family="Helvetica,sans-Serif" font-size="10.00" fill="#000000">+ handleAssetLoading()</text>
<text text-anchor="start" x="32" y="-7.5" font-family="Helvetica,sans-Serif" font-size="10.00" fill="#000000">+ generateTasks()</text>
</g>
<!-- Node3 -->
<g id="node2" class="node">
<title>Node3</title>
<g id="a_node2"><a xlink:href="classRa_1_1Engine_1_1System.html" target="_top" xlink:title="{Ra::Engine::System\n||+ System()\l+ ~System()\l+ handleAssetLoading()\l+ generateTasks()\l+ getEntityComponents()\l# registerComponent()\l# unregisterComponent()\l# unregisterAllComponents()\l}">
<polygon fill="#ffffff" stroke="#000000" points="24.5,-128.5 24.5,-262.5 183.5,-262.5 183.5,-128.5 24.5,-128.5"/>
<text text-anchor="middle" x="104" y="-250.5" font-family="Helvetica,sans-Serif" font-size="10.00" fill="#000000">Ra::Engine::System</text>
<polyline fill="none" stroke="#000000" points="24.5,-243.5 183.5,-243.5 "/>
<text text-anchor="middle" x="104" y="-231.5" font-family="Helvetica,sans-Serif" font-size="10.00" fill="#000000"> </text>
<polyline fill="none" stroke="#000000" points="24.5,-224.5 183.5,-224.5 "/>
<text text-anchor="start" x="32.5" y="-212.5" font-family="Helvetica,sans-Serif" font-size="10.00" fill="#000000">+ System()</text>
<text text-anchor="start" x="32.5" y="-201.5" font-family="Helvetica,sans-Serif" font-size="10.00" fill="#000000">+ ~System()</text>
<text text-anchor="start" x="32.5" y="-190.5" font-family="Helvetica,sans-Serif" font-size="10.00" fill="#000000">+ handleAssetLoading()</text>
<text text-anchor="start" x="32.5" y="-179.5" font-family="Helvetica,sans-Serif" font-size="10.00" fill="#000000">+ generateTasks()</text>
<text text-anchor="start" x="32.5" y="-168.5" font-family="Helvetica,sans-Serif" font-size="10.00" fill="#000000">+ getEntityComponents()</text>
<text text-anchor="start" x="32.5" y="-157.5" font-family="Helvetica,sans-Serif" font-size="10.00" fill="#000000"># registerComponent()</text>
<text text-anchor="start" x="32.5" y="-146.5" font-family="Helvetica,sans-Serif" font-size="10.00" fill="#000000"># unregisterComponent()</text>
<text text-anchor="start" x="32.5" y="-135.5" font-family="Helvetica,sans-Serif" font-size="10.00" fill="#000000"># unregisterAllComponents()</text>
</a>
</g>
</g>
<!-- Node3&#45;&gt;Node2 -->
<g id="edge1" class="edge">
<title>Node3&#45;&gt;Node2</title>
<path fill="none" stroke="#191970" d="M104,-118.1656C104,-108.7284 104,-99.3404 104,-90.6003"/>
<polygon fill="none" stroke="#191970" points="100.5001,-118.3971 104,-128.3971 107.5001,-118.3972 100.5001,-118.3971"/>
</g>
<!-- Node4 -->
<g id="node3" class="node">
<title>Node4</title>
<polygon fill="#ffffff" stroke="#bfbfbf" points="17.5,-310.5 17.5,-389.5 190.5,-389.5 190.5,-310.5 17.5,-310.5"/>
<text text-anchor="start" x="25.5" y="-377.5" font-family="Helvetica,sans-Serif" font-size="10.00" fill="#000000">std::vector&lt; std::pair</text>
<text text-anchor="start" x="25.5" y="-366.5" font-family="Helvetica,sans-Serif" font-size="10.00" fill="#000000">&lt; const Ra::Engine::Entity</text>
<text text-anchor="middle" x="104" y="-355.5" font-family="Helvetica,sans-Serif" font-size="10.00" fill="#000000"> *, Ra::Engine::Component *&gt; &gt;</text>
<polyline fill="none" stroke="#bfbfbf" points="17.5,-348.5 190.5,-348.5 "/>
<text text-anchor="middle" x="104" y="-336.5" font-family="Helvetica,sans-Serif" font-size="10.00" fill="#000000"> </text>
<polyline fill="none" stroke="#bfbfbf" points="17.5,-329.5 190.5,-329.5 "/>
<text text-anchor="middle" x="104" y="-317.5" font-family="Helvetica,sans-Serif" font-size="10.00" fill="#000000"> </text>
</g>
<!-- Node4&#45;&gt;Node3 -->
<g id="edge2" class="edge">
<title>Node4&#45;&gt;Node3</title>
<path fill="none" stroke="#404040" d="M104,-310.2124C104,-299.3493 104,-287.182 104,-274.9413"/>
<polygon fill="none" stroke="#404040" points="104.0001,-274.7217 100,-268.7218 104,-262.7217 108,-268.7217 104.0001,-274.7217"/>
<text text-anchor="middle" x="147.5" y="-284" font-family="Helvetica,sans-Serif" font-size="10.00" fill="#000000"> #m_components</text>
</g>
<!-- Node5 -->
<g id="node4" class="node">
<title>Node5</title>
<polygon fill="#ffffff" stroke="#bfbfbf" points="0,-459.5 0,-538.5 128,-538.5 128,-459.5 0,-459.5"/>
<text text-anchor="start" x="8" y="-526.5" font-family="Helvetica,sans-Serif" font-size="10.00" fill="#000000">pair&lt; const Ra::Engine</text>
<text text-anchor="start" x="8" y="-515.5" font-family="Helvetica,sans-Serif" font-size="10.00" fill="#000000">::Entity *, Ra::Engine</text>
<text text-anchor="middle" x="64" y="-504.5" font-family="Helvetica,sans-Serif" font-size="10.00" fill="#000000">::Component * &gt;</text>
<polyline fill="none" stroke="#bfbfbf" points="0,-497.5 128,-497.5 "/>
<text text-anchor="middle" x="64" y="-485.5" font-family="Helvetica,sans-Serif" font-size="10.00" fill="#000000"> </text>
<polyline fill="none" stroke="#bfbfbf" points="0,-478.5 128,-478.5 "/>
<text text-anchor="middle" x="64" y="-466.5" font-family="Helvetica,sans-Serif" font-size="10.00" fill="#000000"> </text>
</g>
<!-- Node5&#45;&gt;Node4 -->
<g id="edge3" class="edge">
<title>Node5&#45;&gt;Node4</title>
<path fill="none" stroke="#404040" d="M74.6142,-459.4619C79.3834,-441.697 85.0733,-420.5019 90.1705,-401.5149"/>
<polygon fill="none" stroke="#404040" points="90.2248,-401.3125 87.9172,-394.4805 93.3362,-389.7228 95.6437,-396.5548 90.2248,-401.3125"/>
<text text-anchor="middle" x="117" y="-422" font-family="Helvetica,sans-Serif" font-size="10.00" fill="#000000"> +elements</text>
</g>
<!-- Node6 -->
<g id="node5" class="node">
<title>Node6</title>
<g id="a_node5"><a xlink:title="STL class. ">
<polygon fill="#ffffff" stroke="#bfbfbf" points="146.5,-470.5 146.5,-527.5 243.5,-527.5 243.5,-470.5 146.5,-470.5"/>
<text text-anchor="middle" x="195" y="-515.5" font-family="Helvetica,sans-Serif" font-size="10.00" fill="#000000">std::vector&lt; T &gt;</text>
<polyline fill="none" stroke="#bfbfbf" points="146.5,-508.5 243.5,-508.5 "/>
<text text-anchor="middle" x="195" y="-496.5" font-family="Helvetica,sans-Serif" font-size="10.00" fill="#000000"> </text>
<polyline fill="none" stroke="#bfbfbf" points="146.5,-489.5 243.5,-489.5 "/>
<text text-anchor="middle" x="195" y="-477.5" font-family="Helvetica,sans-Serif" font-size="10.00" fill="#000000"> </text>
</a>
</g>
</g>
<!-- Node6&#45;&gt;Node4 -->
<g id="edge4" class="edge">
<title>Node6&#45;&gt;Node4</title>
<path fill="none" stroke="#ffa500" d="M177.2076,-461.0076C168.9544,-444.3715 158.6285,-424.8451 148,-408 144.1557,-401.9072 139.8419,-395.6521 135.4584,-389.6092"/>
<polygon fill="#ffa500" stroke="#ffa500" points="174.2765,-462.981 181.814,-470.4266 180.5647,-459.9056 174.2765,-462.981"/>
<text text-anchor="start" x="166" y="-433" font-family="Helvetica,sans-Serif" font-size="10.00" fill="#000000"> &lt; std::pair&lt; const</text>
<text text-anchor="start" x="166" y="-422" font-family="Helvetica,sans-Serif" font-size="10.00" fill="#000000"> Ra::Engine::Entity</text>
<text text-anchor="middle" x="244.5" y="-411" font-family="Helvetica,sans-Serif" font-size="10.00" fill="#000000"> *, Ra::Engine::Component *&gt; &gt;</text>
</g>
<!-- Node7 -->
<g id="node6" class="node">
<title>Node7</title>
<polygon fill="#ffffff" stroke="#bfbfbf" points="180.5,-586.5 180.5,-643.5 209.5,-643.5 209.5,-586.5 180.5,-586.5"/>
<text text-anchor="middle" x="195" y="-631.5" font-family="Helvetica,sans-Serif" font-size="10.00" fill="#000000">T</text>
<polyline fill="none" stroke="#bfbfbf" points="180.5,-624.5 209.5,-624.5 "/>
<text text-anchor="middle" x="195" y="-612.5" font-family="Helvetica,sans-Serif" font-size="10.00" fill="#000000"> </text>
<polyline fill="none" stroke="#bfbfbf" points="180.5,-605.5 209.5,-605.5 "/>
<text text-anchor="middle" x="195" y="-593.5" font-family="Helvetica,sans-Serif" font-size="10.00" fill="#000000"> </text>
</g>
<!-- Node7&#45;&gt;Node6 -->
<g id="edge5" class="edge">
<title>Node7&#45;&gt;Node6</title>
<path fill="none" stroke="#404040" d="M195,-586.3258C195,-572.3834 195,-555.3727 195,-540.0815"/>
<polygon fill="none" stroke="#404040" points="195.0001,-539.7463 191,-533.7464 195,-527.7463 199,-533.7463 195.0001,-539.7463"/>
<text text-anchor="middle" x="224" y="-560" font-family="Helvetica,sans-Serif" font-size="10.00" fill="#000000"> +elements</text>
</g>
</g>
</svg>
        <g id="navigator" transform="translate(0 0)" fill="#404254">
                <rect fill="#f2f5e9" fill-opacity="0.5" stroke="#606060" stroke-width=".5" x="0" y="0" width="60" height="60"/>
                <use id="zoomplus" xlink:href="#zoomPlus" x="17" y="9" onmousedown="handleZoom(evt,'in')"/>
                <use id="zoomminus" xlink:href="#zoomMin" x="42" y="9" onmousedown="handleZoom(evt,'out')"/>
                <use id="reset" xlink:href="#resetDef" x="30" y="36" onmousedown="handleReset()"/>
                <g id="arrowUp" xlink:href="#dirArrow" transform="translate(30 24)" onmousedown="handlePan(0,-1)">
                  <use xlink:href="#rim" fill="#404040">
                        <set attributeName="fill" to="#808080" begin="arrowUp.mouseover" end="arrowUp.mouseout"/>
                  </use>
                  <path fill="none" stroke="white" stroke-width="1.5" d="M0,-3.0v7 M-2.5,-0.5L0,-3.0L2.5,-0.5"/>
                </g>
                <g id="arrowRight" xlink:href="#dirArrow" transform="rotate(90) translate(36 -43)" onmousedown="handlePan(1,0)">
                  <use xlink:href="#rim" fill="#404040">
                        <set attributeName="fill" to="#808080" begin="arrowRight.mouseover" end="arrowRight.mouseout"/>
                  </use>
                  <path fill="none" stroke="white" stroke-width="1.5" d="M0,-3.0v7 M-2.5,-0.5L0,-3.0L2.5,-0.5"/>
                </g>
                <g id="arrowDown" xlink:href="#dirArrow" transform="rotate(180) translate(-30 -48)" onmousedown="handlePan(0,1)">
                  <use xlink:href="#rim" fill="#404040">
                        <set attributeName="fill" to="#808080" begin="arrowDown.mouseover" end="arrowDown.mouseout"/>
                  </use>
                  <path fill="none" stroke="white" stroke-width="1.5" d="M0,-3.0v7 M-2.5,-0.5L0,-3.0L2.5,-0.5"/>
                </g>
                <g id="arrowLeft" xlink:href="#dirArrow" transform="rotate(270) translate(-36 17)" onmousedown="handlePan(-1,0)">
                  <use xlink:href="#rim" fill="#404040">
                        <set attributeName="fill" to="#808080" begin="arrowLeft.mouseover" end="arrowLeft.mouseout"/>
                  </use>
                  <path fill="none" stroke="white" stroke-width="1.5" d="M0,-3.0v7 M-2.5,-0.5L0,-3.0L2.5,-0.5"/>
                </g>
        </g>
        <svg viewBox="0 0 15 15" width="100%" height="30px" preserveAspectRatio="xMaxYMin meet">
         <g id="arrow_out" transform="scale(0.3 0.3)">
          <a xlink:href="classRa_1_1Engine_1_1GeometrySystem__coll__graph_org.svg" target="_base">
           <rect id="button" ry="5" rx="5" y="6" x="6" height="38" width="38"
                fill="#f2f5e9" fill-opacity="0.5" stroke="#606060" stroke-width="1.0"/>
           <path id="arrow"
             d="M 11.500037,31.436501 C 11.940474,20.09759 22.043105,11.32322 32.158766,21.979434 L 37.068811,17.246167 C 37.068811,17.246167 37.088388,32 37.088388,32 L 22.160133,31.978069 C 22.160133,31.978069 26.997745,27.140456 26.997745,27.140456 C 18.528582,18.264221 13.291696,25.230495 11.500037,31.436501 z"
             style="fill:#404040;"/>
          </a>
         </g>
        </svg>
</svg>
