<?xml version="1.0" encoding="UTF-8" standalone="no"?>
<!DOCTYPE svg PUBLIC "-//W3C//DTD SVG 1.1//EN"
 "http://www.w3.org/Graphics/SVG/1.1/DTD/svg11.dtd">
<!-- Generated by graphviz version 2.40.1 (20161225.0304)
 -->
<!-- Title: Ra::Core::Animation::KeyRotation::interpolate Pages: 1 -->
<svg width="456pt" height="39pt"
 viewBox="0.00 0.00 456.00 39.00" xmlns="http://www.w3.org/2000/svg" xmlns:xlink="http://www.w3.org/1999/xlink">
<g id="graph0" class="graph" transform="scale(1 1) rotate(0) translate(4 35)">
<title>Ra::Core::Animation::KeyRotation::interpolate</title>
<polygon fill="#ffffff" stroke="transparent" points="-4,4 -4,-35 452,-35 452,4 -4,4"/>
<!-- Node4 -->
<g id="node1" class="node">
<title>Node4</title>
<polygon fill="#bfbfbf" stroke="#000000" points="0,-.5 0,-30.5 140,-30.5 140,-.5 0,-.5"/>
<text text-anchor="start" x="8" y="-18.5" font-family="Helvetica,sans-Serif" font-size="10.00" fill="#000000">Ra::Core::Animation</text>
<text text-anchor="middle" x="70" y="-7.5" font-family="Helvetica,sans-Serif" font-size="10.00" fill="#000000">::KeyRotation::interpolate</text>
</g>
<!-- Node5 -->
<g id="node2" class="node">
<title>Node5</title>
<g id="a_node2"><a xlink:href="namespaceRa_1_1Core_1_1Animation.html#a6951de94ba127cd79685e704d658808b" target="_top" xlink:title="Ra::Core::Animation\l::interpolate">
<polygon fill="#ffffff" stroke="#000000" points="176,-.5 176,-30.5 290,-30.5 290,-.5 176,-.5"/>
<text text-anchor="start" x="184" y="-18.5" font-family="Helvetica,sans-Serif" font-size="10.00" fill="#000000">Ra::Core::Animation</text>
<text text-anchor="middle" x="233" y="-7.5" font-family="Helvetica,sans-Serif" font-size="10.00" fill="#000000">::interpolate</text>
</a>
</g>
</g>
<!-- Node4&#45;&gt;Node5 -->
<g id="edge1" class="edge">
<title>Node4&#45;&gt;Node5</title>
<path fill="none" stroke="#191970" d="M140.0726,-15.5C148.5995,-15.5 157.2966,-15.5 165.7805,-15.5"/>
<polygon fill="#191970" stroke="#191970" points="165.9977,-19.0001 175.9977,-15.5 165.9976,-12.0001 165.9977,-19.0001"/>
</g>
<!-- Node6 -->
<g id="node3" class="node">
<title>Node6</title>
<g id="a_node3"><a xlink:href="namespaceRa_1_1Core_1_1Geometry.html#aa04e6052d8911b1df1bd881474debb45" target="_top" xlink:title="Ra::Core::Geometry::t">
<polygon fill="#ffffff" stroke="#000000" points="326,-6 326,-25 448,-25 448,-6 326,-6"/>
<text text-anchor="middle" x="387" y="-13" font-family="Helvetica,sans-Serif" font-size="10.00" fill="#000000">Ra::Core::Geometry::t</text>
</a>
</g>
</g>
<!-- Node5&#45;&gt;Node6 -->
<g id="edge2" class="edge">
<title>Node5&#45;&gt;Node6</title>
<path fill="none" stroke="#191970" d="M290.3439,-15.5C298.7031,-15.5 307.3936,-15.5 315.9841,-15.5"/>
<polygon fill="#191970" stroke="#191970" points="315.9969,-19.0001 325.9969,-15.5 315.9969,-12.0001 315.9969,-19.0001"/>
</g>
</g>
</svg>
