<?xml version="1.0" encoding="UTF-8" standalone="no"?>
<!DOCTYPE svg PUBLIC "-//W3C//DTD SVG 1.1//EN"
 "http://www.w3.org/Graphics/SVG/1.1/DTD/svg11.dtd">
<!-- Generated by graphviz version 2.40.1 (20161225.0304)
 -->
<!-- Title: Ra::Core::Geometry::LoopSubdivider::subdivide Pages: 1 -->
<svg width="1300pt" height="651pt"
 viewBox="0.00 0.00 1300.00 651.00" xmlns="http://www.w3.org/2000/svg" xmlns:xlink="http://www.w3.org/1999/xlink">
<g id="graph0" class="graph" transform="scale(1 1) rotate(0) translate(4 647)">
<title>Ra::Core::Geometry::LoopSubdivider::subdivide</title>
<polygon fill="#ffffff" stroke="transparent" points="-4,4 -4,-647 1296,-647 1296,4 -4,4"/>
<!-- Node19 -->
<g id="node1" class="node">
<title>Node19</title>
<polygon fill="#bfbfbf" stroke="#000000" points="0,-418.5 0,-448.5 151,-448.5 151,-418.5 0,-418.5"/>
<text text-anchor="start" x="8" y="-436.5" font-family="Helvetica,sans-Serif" font-size="10.00" fill="#000000">Ra::Core::Geometry</text>
<text text-anchor="middle" x="75.5" y="-425.5" font-family="Helvetica,sans-Serif" font-size="10.00" fill="#000000">::LoopSubdivider::subdivide</text>
</g>
<!-- Node20 -->
<g id="node2" class="node">
<title>Node20</title>
<g id="a_node2"><a xlink:href="classRa_1_1Core_1_1Geometry_1_1TopologicalMesh.html#afaacfdb6d79a9ccac45b78eba989d41d" target="_top" xlink:title="Ra::Core::Geometry\l::TopologicalMesh::halfedge\l_handle">
<polygon fill="#ffffff" stroke="#000000" points="192,-503 192,-544 344,-544 344,-503 192,-503"/>
<text text-anchor="start" x="200" y="-532" font-family="Helvetica,sans-Serif" font-size="10.00" fill="#000000">Ra::Core::Geometry</text>
<text text-anchor="start" x="200" y="-521" font-family="Helvetica,sans-Serif" font-size="10.00" fill="#000000">::TopologicalMesh::halfedge</text>
<text text-anchor="middle" x="268" y="-510" font-family="Helvetica,sans-Serif" font-size="10.00" fill="#000000">_handle</text>
</a>
</g>
</g>
<!-- Node19&#45;&gt;Node20 -->
<g id="edge1" class="edge">
<title>Node19&#45;&gt;Node20</title>
<path fill="none" stroke="#191970" d="M101.1179,-448.6062C123.3917,-461.4181 156.7485,-479.8382 187,-493.5 191.3008,-495.4423 195.7682,-497.3604 200.2963,-499.2309"/>
<polygon fill="#191970" stroke="#191970" points="199.0585,-502.5055 209.642,-502.996 201.6744,-496.0126 199.0585,-502.5055"/>
</g>
<!-- Node21 -->
<g id="node3" class="node">
<title>Node21</title>
<g id="a_node3"><a xlink:href="classRa_1_1Core_1_1Geometry_1_1TopologicalMesh.html#aa27554cabc24f8da953e7c23a8a5a274" target="_top" xlink:title="Ra::Core::Geometry\l::TopologicalMesh::copyAll\lProps">
<polygon fill="#ffffff" stroke="#000000" points="195.5,-443 195.5,-484 340.5,-484 340.5,-443 195.5,-443"/>
<text text-anchor="start" x="203.5" y="-472" font-family="Helvetica,sans-Serif" font-size="10.00" fill="#000000">Ra::Core::Geometry</text>
<text text-anchor="start" x="203.5" y="-461" font-family="Helvetica,sans-Serif" font-size="10.00" fill="#000000">::TopologicalMesh::copyAll</text>
<text text-anchor="middle" x="268" y="-450" font-family="Helvetica,sans-Serif" font-size="10.00" fill="#000000">Props</text>
</a>
</g>
</g>
<!-- Node19&#45;&gt;Node21 -->
<g id="edge2" class="edge">
<title>Node19&#45;&gt;Node21</title>
<path fill="none" stroke="#191970" d="M151.0286,-445.2707C162.2711,-447.0228 173.9096,-448.8366 185.2905,-450.6102"/>
<polygon fill="#191970" stroke="#191970" points="184.7893,-454.0743 195.209,-452.1559 185.8672,-447.1578 184.7893,-454.0743"/>
</g>
<!-- Node28 -->
<g id="node10" class="node">
<title>Node28</title>
<g id="a_node10"><a xlink:href="classRa_1_1Core_1_1Geometry_1_1TopologicalMesh.html#a05fb96e24dd1bf49ff309e251e426572" target="_top" xlink:title="Ra::Core::Geometry\l::TopologicalMesh::interpolate\lAllProps">
<polygon fill="#ffffff" stroke="#000000" points="187,-383 187,-424 349,-424 349,-383 187,-383"/>
<text text-anchor="start" x="195" y="-412" font-family="Helvetica,sans-Serif" font-size="10.00" fill="#000000">Ra::Core::Geometry</text>
<text text-anchor="start" x="195" y="-401" font-family="Helvetica,sans-Serif" font-size="10.00" fill="#000000">::TopologicalMesh::interpolate</text>
<text text-anchor="middle" x="268" y="-390" font-family="Helvetica,sans-Serif" font-size="10.00" fill="#000000">AllProps</text>
</a>
</g>
</g>
<!-- Node19&#45;&gt;Node28 -->
<g id="edge9" class="edge">
<title>Node19&#45;&gt;Node28</title>
<path fill="none" stroke="#191970" d="M151.0286,-421.7293C159.5078,-420.4079 168.2123,-419.0513 176.8615,-417.7034"/>
<polygon fill="#191970" stroke="#191970" points="177.6311,-421.1258 186.9729,-416.1276 176.5532,-414.2093 177.6311,-421.1258"/>
</g>
<!-- Node31 -->
<g id="node13" class="node">
<title>Node31</title>
<g id="a_node13"><a xlink:href="namespaceRa_1_1Engine_1_1DrawPrimitives.html#afd38c03569ecb100b4f5f5036ce84e17" target="_top" xlink:title="Displays given point shown as the crossing of 3 lines of length &#39;scale&#39;. ">
<polygon fill="#ffffff" stroke="#000000" points="193.5,-124.5 193.5,-154.5 342.5,-154.5 342.5,-124.5 193.5,-124.5"/>
<text text-anchor="start" x="201.5" y="-142.5" font-family="Helvetica,sans-Serif" font-size="10.00" fill="#000000">Ra::Engine::DrawPrimitives</text>
<text text-anchor="middle" x="268" y="-131.5" font-family="Helvetica,sans-Serif" font-size="10.00" fill="#000000">::Point</text>
</a>
</g>
</g>
<!-- Node19&#45;&gt;Node31 -->
<g id="edge16" class="edge">
<title>Node19&#45;&gt;Node31</title>
<path fill="none" stroke="#191970" d="M85.5786,-418.1072C117.1542,-369.8827 214.3185,-221.4863 252.4305,-163.2788"/>
<polygon fill="#191970" stroke="#191970" points="255.4714,-165.0239 258.0212,-154.7404 249.6151,-161.1893 255.4714,-165.0239"/>
</g>
<!-- Node22 -->
<g id="node4" class="node">
<title>Node22</title>
<g id="a_node4"><a xlink:href="classRa_1_1Core_1_1Geometry_1_1TopologicalMesh.html#ac8072a8ec0aba0f10d6d2370d4ff849f" target="_top" xlink:title="Ra::Core::Geometry\l::TopologicalMesh::copyNormal">
<polygon fill="#ffffff" stroke="#000000" points="385,-563.5 385,-593.5 553,-593.5 553,-563.5 385,-563.5"/>
<text text-anchor="start" x="393" y="-581.5" font-family="Helvetica,sans-Serif" font-size="10.00" fill="#000000">Ra::Core::Geometry</text>
<text text-anchor="middle" x="469" y="-570.5" font-family="Helvetica,sans-Serif" font-size="10.00" fill="#000000">::TopologicalMesh::copyNormal</text>
</a>
</g>
</g>
<!-- Node21&#45;&gt;Node22 -->
<g id="edge3" class="edge">
<title>Node21&#45;&gt;Node22</title>
<path fill="none" stroke="#191970" d="M335.0377,-484.0232C340.0018,-486.812 344.7297,-489.9573 349,-493.5 372.9341,-513.3562 360.4291,-534.4374 385,-553.5 387.3104,-555.2925 389.7474,-556.9567 392.2788,-558.5019"/>
<polygon fill="#191970" stroke="#191970" points="390.7396,-561.6482 401.2033,-563.3099 394.0597,-555.4857 390.7396,-561.6482"/>
</g>
<!-- Node23 -->
<g id="node5" class="node">
<title>Node23</title>
<g id="a_node5"><a xlink:href="classRa_1_1Core_1_1Geometry_1_1TopologicalMesh.html#a2e285050a0f20a662f08ba50fbf03b2d" target="_top" xlink:title="Ra::Core::Geometry\l::TopologicalMesh::copyProps">
<polygon fill="#ffffff" stroke="#000000" points="389.5,-612.5 389.5,-642.5 548.5,-642.5 548.5,-612.5 389.5,-612.5"/>
<text text-anchor="start" x="397.5" y="-630.5" font-family="Helvetica,sans-Serif" font-size="10.00" fill="#000000">Ra::Core::Geometry</text>
<text text-anchor="middle" x="469" y="-619.5" font-family="Helvetica,sans-Serif" font-size="10.00" fill="#000000">::TopologicalMesh::copyProps</text>
</a>
</g>
</g>
<!-- Node21&#45;&gt;Node23 -->
<g id="edge4" class="edge">
<title>Node21&#45;&gt;Node23</title>
<path fill="none" stroke="#191970" d="M337.4979,-484.0157C341.6759,-486.7892 345.5686,-489.9342 349,-493.5 384.6685,-530.5659 347.9418,-567.8235 385,-603.5 386.1268,-604.5848 387.2991,-605.6211 388.5114,-606.6111"/>
<polygon fill="#191970" stroke="#191970" points="386.8177,-609.6948 397.0356,-612.4956 390.7945,-603.9342 386.8177,-609.6948"/>
</g>
<!-- Node24 -->
<g id="node6" class="node">
<title>Node24</title>
<g id="a_node6"><a xlink:href="classRa_1_1Core_1_1Geometry_1_1TopologicalMesh.html#ac0bc26a22df41861c7bfa23d79105ba7" target="_top" xlink:title="Ra::Core::Geometry\l::TopologicalMesh::getFloat\lPropsHandles">
<polygon fill="#ffffff" stroke="#000000" points="394.5,-323 394.5,-364 543.5,-364 543.5,-323 394.5,-323"/>
<text text-anchor="start" x="402.5" y="-352" font-family="Helvetica,sans-Serif" font-size="10.00" fill="#000000">Ra::Core::Geometry</text>
<text text-anchor="start" x="402.5" y="-341" font-family="Helvetica,sans-Serif" font-size="10.00" fill="#000000">::TopologicalMesh::getFloat</text>
<text text-anchor="middle" x="469" y="-330" font-family="Helvetica,sans-Serif" font-size="10.00" fill="#000000">PropsHandles</text>
</a>
</g>
</g>
<!-- Node21&#45;&gt;Node24 -->
<g id="edge5" class="edge">
<title>Node21&#45;&gt;Node24</title>
<path fill="none" stroke="#191970" d="M335.0377,-442.9768C340.0018,-440.188 344.7297,-437.0427 349,-433.5 372.9341,-413.6438 360.9503,-393.216 385,-373.5 386.7514,-372.0642 388.5769,-370.6945 390.4622,-369.3881"/>
<polygon fill="#191970" stroke="#191970" points="392.4105,-372.2983 399.068,-364.0565 388.7239,-366.3478 392.4105,-372.2983"/>
</g>
<!-- Node25 -->
<g id="node7" class="node">
<title>Node25</title>
<g id="a_node7"><a xlink:href="classRa_1_1Core_1_1Geometry_1_1TopologicalMesh.html#a122e0ecbdc766232c88dc7f6ad035475" target="_top" xlink:title="Ra::Core::Geometry\l::TopologicalMesh::getVector2\lPropsHandles">
<polygon fill="#ffffff" stroke="#000000" points="388.5,-503 388.5,-544 549.5,-544 549.5,-503 388.5,-503"/>
<text text-anchor="start" x="396.5" y="-532" font-family="Helvetica,sans-Serif" font-size="10.00" fill="#000000">Ra::Core::Geometry</text>
<text text-anchor="start" x="396.5" y="-521" font-family="Helvetica,sans-Serif" font-size="10.00" fill="#000000">::TopologicalMesh::getVector2</text>
<text text-anchor="middle" x="469" y="-510" font-family="Helvetica,sans-Serif" font-size="10.00" fill="#000000">PropsHandles</text>
</a>
</g>
</g>
<!-- Node21&#45;&gt;Node25 -->
<g id="edge6" class="edge">
<title>Node21&#45;&gt;Node25</title>
<path fill="none" stroke="#191970" d="M336.8916,-484.0647C354.1512,-489.2168 372.7955,-494.7822 390.4844,-500.0625"/>
<polygon fill="#191970" stroke="#191970" points="389.6151,-503.4556 400.1984,-502.9622 391.6174,-496.748 389.6151,-503.4556"/>
</g>
<!-- Node26 -->
<g id="node8" class="node">
<title>Node26</title>
<g id="a_node8"><a xlink:href="classRa_1_1Core_1_1Geometry_1_1TopologicalMesh.html#a6e52c5ca0ef3fbca09207722f5115bb7" target="_top" xlink:title="Ra::Core::Geometry\l::TopologicalMesh::getVector3\lPropsHandles">
<polygon fill="#ffffff" stroke="#000000" points="388.5,-443 388.5,-484 549.5,-484 549.5,-443 388.5,-443"/>
<text text-anchor="start" x="396.5" y="-472" font-family="Helvetica,sans-Serif" font-size="10.00" fill="#000000">Ra::Core::Geometry</text>
<text text-anchor="start" x="396.5" y="-461" font-family="Helvetica,sans-Serif" font-size="10.00" fill="#000000">::TopologicalMesh::getVector3</text>
<text text-anchor="middle" x="469" y="-450" font-family="Helvetica,sans-Serif" font-size="10.00" fill="#000000">PropsHandles</text>
</a>
</g>
</g>
<!-- Node21&#45;&gt;Node26 -->
<g id="edge7" class="edge">
<title>Node21&#45;&gt;Node26</title>
<path fill="none" stroke="#191970" d="M340.5656,-463.5C352.8103,-463.5 365.6559,-463.5 378.293,-463.5"/>
<polygon fill="#191970" stroke="#191970" points="378.3676,-467.0001 388.3676,-463.5 378.3676,-460.0001 378.3676,-467.0001"/>
</g>
<!-- Node27 -->
<g id="node9" class="node">
<title>Node27</title>
<g id="a_node9"><a xlink:href="classRa_1_1Core_1_1Geometry_1_1TopologicalMesh.html#a52b4baf67feb85e44253d9a966a9a886" target="_top" xlink:title="Ra::Core::Geometry\l::TopologicalMesh::getVector4\lPropsHandles">
<polygon fill="#ffffff" stroke="#000000" points="388.5,-383 388.5,-424 549.5,-424 549.5,-383 388.5,-383"/>
<text text-anchor="start" x="396.5" y="-412" font-family="Helvetica,sans-Serif" font-size="10.00" fill="#000000">Ra::Core::Geometry</text>
<text text-anchor="start" x="396.5" y="-401" font-family="Helvetica,sans-Serif" font-size="10.00" fill="#000000">::TopologicalMesh::getVector4</text>
<text text-anchor="middle" x="469" y="-390" font-family="Helvetica,sans-Serif" font-size="10.00" fill="#000000">PropsHandles</text>
</a>
</g>
</g>
<!-- Node21&#45;&gt;Node27 -->
<g id="edge8" class="edge">
<title>Node21&#45;&gt;Node27</title>
<path fill="none" stroke="#191970" d="M336.8916,-442.9353C354.1512,-437.7832 372.7955,-432.2178 390.4844,-426.9375"/>
<polygon fill="#191970" stroke="#191970" points="391.6174,-430.252 400.1984,-424.0378 389.6151,-423.5444 391.6174,-430.252"/>
</g>
<!-- Node28&#45;&gt;Node24 -->
<g id="edge12" class="edge">
<title>Node28&#45;&gt;Node24</title>
<path fill="none" stroke="#191970" d="M336.8916,-382.9353C354.1512,-377.7832 372.7955,-372.2178 390.4844,-366.9375"/>
<polygon fill="#191970" stroke="#191970" points="391.6174,-370.252 400.1984,-364.0378 389.6151,-363.5444 391.6174,-370.252"/>
</g>
<!-- Node28&#45;&gt;Node25 -->
<g id="edge13" class="edge">
<title>Node28&#45;&gt;Node25</title>
<path fill="none" stroke="#191970" d="M335.0377,-424.0232C340.0018,-426.812 344.7297,-429.9573 349,-433.5 372.9341,-453.3562 360.9503,-473.784 385,-493.5 386.7514,-494.9358 388.5769,-496.3055 390.4622,-497.6119"/>
<polygon fill="#191970" stroke="#191970" points="388.7239,-500.6522 399.068,-502.9435 392.4105,-494.7017 388.7239,-500.6522"/>
</g>
<!-- Node28&#45;&gt;Node26 -->
<g id="edge14" class="edge">
<title>Node28&#45;&gt;Node26</title>
<path fill="none" stroke="#191970" d="M336.8916,-424.0647C354.1512,-429.2168 372.7955,-434.7822 390.4844,-440.0625"/>
<polygon fill="#191970" stroke="#191970" points="389.6151,-443.4556 400.1984,-442.9622 391.6174,-436.748 389.6151,-443.4556"/>
</g>
<!-- Node28&#45;&gt;Node27 -->
<g id="edge15" class="edge">
<title>Node28&#45;&gt;Node27</title>
<path fill="none" stroke="#191970" d="M349.175,-403.5C358.7171,-403.5 368.5007,-403.5 378.164,-403.5"/>
<polygon fill="#191970" stroke="#191970" points="378.1755,-407.0001 388.1755,-403.5 378.1755,-400.0001 378.1755,-407.0001"/>
</g>
<!-- Node29 -->
<g id="node11" class="node">
<title>Node29</title>
<g id="a_node11"><a xlink:href="classRa_1_1Core_1_1Geometry_1_1TopologicalMesh.html#abcc0ec560fca4ee96ae325b20ee501e9" target="_top" xlink:title="Ra::Core::Geometry\l::TopologicalMesh::interpolate\lNormal">
<polygon fill="#ffffff" stroke="#000000" points="388,-203 388,-244 550,-244 550,-203 388,-203"/>
<text text-anchor="start" x="396" y="-232" font-family="Helvetica,sans-Serif" font-size="10.00" fill="#000000">Ra::Core::Geometry</text>
<text text-anchor="start" x="396" y="-221" font-family="Helvetica,sans-Serif" font-size="10.00" fill="#000000">::TopologicalMesh::interpolate</text>
<text text-anchor="middle" x="469" y="-210" font-family="Helvetica,sans-Serif" font-size="10.00" fill="#000000">Normal</text>
</a>
</g>
</g>
<!-- Node28&#45;&gt;Node29 -->
<g id="edge10" class="edge">
<title>Node28&#45;&gt;Node29</title>
<path fill="none" stroke="#191970" d="M279.017,-382.7626C297.0621,-350.6734 335.8771,-288.9935 385,-253.5 387.0867,-251.9922 389.2567,-250.5538 391.4903,-249.182"/>
<polygon fill="#191970" stroke="#191970" points="393.3565,-252.1486 400.3794,-244.2158 389.9424,-246.0377 393.3565,-252.1486"/>
</g>
<!-- Node30 -->
<g id="node12" class="node">
<title>Node30</title>
<g id="a_node12"><a xlink:href="classRa_1_1Core_1_1Geometry_1_1TopologicalMesh.html#a41d41cb8e6019a7237b169c2d8e6aad6" target="_top" xlink:title="Ra::Core::Geometry\l::TopologicalMesh::interpolate\lProps">
<polygon fill="#ffffff" stroke="#000000" points="388,-263 388,-304 550,-304 550,-263 388,-263"/>
<text text-anchor="start" x="396" y="-292" font-family="Helvetica,sans-Serif" font-size="10.00" fill="#000000">Ra::Core::Geometry</text>
<text text-anchor="start" x="396" y="-281" font-family="Helvetica,sans-Serif" font-size="10.00" fill="#000000">::TopologicalMesh::interpolate</text>
<text text-anchor="middle" x="469" y="-270" font-family="Helvetica,sans-Serif" font-size="10.00" fill="#000000">Props</text>
</a>
</g>
</g>
<!-- Node28&#45;&gt;Node30 -->
<g id="edge11" class="edge">
<title>Node28&#45;&gt;Node30</title>
<path fill="none" stroke="#191970" d="M290.2566,-382.9321C312.7585,-363.0047 349.2288,-333.0121 385,-313.5 388.4199,-311.6346 391.9788,-309.846 395.6163,-308.1374"/>
<polygon fill="#191970" stroke="#191970" points="397.0732,-311.32 404.786,-304.0561 394.2268,-304.9248 397.0732,-311.32"/>
</g>
<!-- Node32 -->
<g id="node14" class="node">
<title>Node32</title>
<g id="a_node14"><a xlink:href="classRa_1_1Core_1_1Geometry_1_1AttribArrayGeometry.html#a887411177386edbcdc35d0c6bf78a83a" target="_top" xlink:title="Set vertices. ">
<polygon fill="#ffffff" stroke="#000000" points="406.5,-143 406.5,-184 531.5,-184 531.5,-143 406.5,-143"/>
<text text-anchor="start" x="414.5" y="-172" font-family="Helvetica,sans-Serif" font-size="10.00" fill="#000000">Ra::Core::Geometry</text>
<text text-anchor="start" x="414.5" y="-161" font-family="Helvetica,sans-Serif" font-size="10.00" fill="#000000">::AttribArrayGeometry</text>
<text text-anchor="middle" x="469" y="-150" font-family="Helvetica,sans-Serif" font-size="10.00" fill="#000000">::setVertices</text>
</a>
</g>
</g>
<!-- Node31&#45;&gt;Node32 -->
<g id="edge17" class="edge">
<title>Node31&#45;&gt;Node32</title>
<path fill="none" stroke="#191970" d="M342.5593,-148.4026C360.1174,-150.4991 378.8095,-152.731 396.2851,-154.8176"/>
<polygon fill="#191970" stroke="#191970" points="396.0716,-158.3169 406.4161,-156.0273 396.9016,-151.3663 396.0716,-158.3169"/>
</g>
<!-- Node34 -->
<g id="node16" class="node">
<title>Node34</title>
<g id="a_node16"><a xlink:href="classRa_1_1Core_1_1Geometry_1_1AttribArrayGeometry.html#acabe05880d71a8dc4406964c258fff5a" target="_top" xlink:title="Access the vertices positions. ">
<polygon fill="#ffffff" stroke="#000000" points="607,-96 607,-137 732,-137 732,-96 607,-96"/>
<text text-anchor="start" x="615" y="-125" font-family="Helvetica,sans-Serif" font-size="10.00" fill="#000000">Ra::Core::Geometry</text>
<text text-anchor="start" x="615" y="-114" font-family="Helvetica,sans-Serif" font-size="10.00" fill="#000000">::AttribArrayGeometry</text>
<text text-anchor="middle" x="669.5" y="-103" font-family="Helvetica,sans-Serif" font-size="10.00" fill="#000000">::vertices</text>
</a>
</g>
</g>
<!-- Node31&#45;&gt;Node34 -->
<g id="edge28" class="edge">
<title>Node31&#45;&gt;Node34</title>
<path fill="none" stroke="#191970" d="M342.5781,-135.2278C415.096,-131.0736 524.5538,-124.8033 596.5221,-120.6806"/>
<polygon fill="#191970" stroke="#191970" points="597.0761,-124.1546 606.8595,-120.0884 596.6757,-117.1661 597.0761,-124.1546"/>
</g>
<!-- Node36 -->
<g id="node18" class="node">
<title>Node36</title>
<g id="a_node18"><a xlink:href="classRa_1_1Core_1_1Geometry_1_1AttribArrayGeometry.html#ae1956b0396dadd84f55a12f2160e5671" target="_top" xlink:title="Ra::Core::Geometry\l::AttribArrayGeometry\l::addAttrib">
<polygon fill="#ffffff" stroke="#000000" points="406.5,-44 406.5,-85 531.5,-85 531.5,-44 406.5,-44"/>
<text text-anchor="start" x="414.5" y="-73" font-family="Helvetica,sans-Serif" font-size="10.00" fill="#000000">Ra::Core::Geometry</text>
<text text-anchor="start" x="414.5" y="-62" font-family="Helvetica,sans-Serif" font-size="10.00" fill="#000000">::AttribArrayGeometry</text>
<text text-anchor="middle" x="469" y="-51" font-family="Helvetica,sans-Serif" font-size="10.00" fill="#000000">::addAttrib</text>
</a>
</g>
</g>
<!-- Node31&#45;&gt;Node36 -->
<g id="edge21" class="edge">
<title>Node31&#45;&gt;Node36</title>
<path fill="none" stroke="#191970" d="M308.6753,-124.3226C336.1203,-114.082 372.9238,-100.3493 404.3468,-88.6243"/>
<polygon fill="#191970" stroke="#191970" points="405.7643,-91.8312 413.9097,-85.0561 403.3171,-85.2729 405.7643,-91.8312"/>
</g>
<!-- Node33 -->
<g id="node15" class="node">
<title>Node33</title>
<g id="a_node15"><a xlink:href="classRa_1_1Core_1_1Utils_1_1AttribManager.html#a056b7697cfbedd6b20dde6ce7955094e" target="_top" xlink:title="Ra::Core::Utils::AttribManager\l::setAttrib">
<polygon fill="#ffffff" stroke="#000000" points="589,-156.5 589,-186.5 750,-186.5 750,-156.5 589,-156.5"/>
<text text-anchor="start" x="597" y="-174.5" font-family="Helvetica,sans-Serif" font-size="10.00" fill="#000000">Ra::Core::Utils::AttribManager</text>
<text text-anchor="middle" x="669.5" y="-163.5" font-family="Helvetica,sans-Serif" font-size="10.00" fill="#000000">::setAttrib</text>
</a>
</g>
</g>
<!-- Node32&#45;&gt;Node33 -->
<g id="edge18" class="edge">
<title>Node32&#45;&gt;Node33</title>
<path fill="none" stroke="#191970" d="M531.6147,-165.9983C546.5069,-166.5925 562.6952,-167.2385 578.5692,-167.8718"/>
<polygon fill="#191970" stroke="#191970" points="578.8069,-171.384 588.9386,-168.2856 579.0861,-164.3896 578.8069,-171.384"/>
</g>
<!-- Node32&#45;&gt;Node34 -->
<g id="edge19" class="edge">
<title>Node32&#45;&gt;Node34</title>
<path fill="none" stroke="#191970" d="M531.6147,-148.8222C552.2465,-143.9859 575.3662,-138.5663 596.6911,-133.5674"/>
<polygon fill="#191970" stroke="#191970" points="597.7335,-136.918 606.6708,-131.2281 596.1359,-130.1028 597.7335,-136.918"/>
</g>
<!-- Node35 -->
<g id="node17" class="node">
<title>Node35</title>
<g id="a_node17"><a xlink:href="classRa_1_1Core_1_1Utils_1_1AttribManager.html#ae0cb7281ec72606a5392602b4ea50d2c" target="_top" xlink:title="Ra::Core::Utils::AttribManager\l::getAttrib">
<polygon fill="#ffffff" stroke="#000000" points="786,-101.5 786,-131.5 947,-131.5 947,-101.5 786,-101.5"/>
<text text-anchor="start" x="794" y="-119.5" font-family="Helvetica,sans-Serif" font-size="10.00" fill="#000000">Ra::Core::Utils::AttribManager</text>
<text text-anchor="middle" x="866.5" y="-108.5" font-family="Helvetica,sans-Serif" font-size="10.00" fill="#000000">::getAttrib</text>
</a>
</g>
</g>
<!-- Node34&#45;&gt;Node35 -->
<g id="edge20" class="edge">
<title>Node34&#45;&gt;Node35</title>
<path fill="none" stroke="#191970" d="M732.1027,-116.5C745.9253,-116.5 760.8405,-116.5 775.5309,-116.5"/>
<polygon fill="#191970" stroke="#191970" points="775.6492,-120.0001 785.6492,-116.5 775.6491,-113.0001 775.6492,-120.0001"/>
</g>
<!-- Node37 -->
<g id="node19" class="node">
<title>Node37</title>
<g id="a_node19"><a xlink:href="classRa_1_1Core_1_1Utils_1_1AttribManager.html#ac2d3cdc360ffe1904a15ff8504de95b8" target="_top" xlink:title="Ra::Core::Utils::AttribManager\l::addAttrib">
<polygon fill="#ffffff" stroke="#000000" points="589,-46.5 589,-76.5 750,-76.5 750,-46.5 589,-46.5"/>
<text text-anchor="start" x="597" y="-64.5" font-family="Helvetica,sans-Serif" font-size="10.00" fill="#000000">Ra::Core::Utils::AttribManager</text>
<text text-anchor="middle" x="669.5" y="-53.5" font-family="Helvetica,sans-Serif" font-size="10.00" fill="#000000">::addAttrib</text>
</a>
</g>
</g>
<!-- Node36&#45;&gt;Node37 -->
<g id="edge22" class="edge">
<title>Node36&#45;&gt;Node37</title>
<path fill="none" stroke="#191970" d="M531.6147,-63.5631C546.5069,-63.3403 562.6952,-63.0981 578.5692,-62.8606"/>
<polygon fill="#191970" stroke="#191970" points="578.9921,-66.3547 588.9386,-62.7054 578.8873,-59.3555 578.9921,-66.3547"/>
</g>
<!-- Node38 -->
<g id="node20" class="node">
<title>Node38</title>
<g id="a_node20"><a xlink:href="classRa_1_1Core_1_1Utils_1_1AttribManager.html#ae61e2c70f407d49d854ee4b98a39121f" target="_top" xlink:title="Return true if h correspond to an existing attribute in *this. ">
<polygon fill="#ffffff" stroke="#000000" points="786,-49.5 786,-79.5 947,-79.5 947,-49.5 786,-49.5"/>
<text text-anchor="start" x="794" y="-67.5" font-family="Helvetica,sans-Serif" font-size="10.00" fill="#000000">Ra::Core::Utils::AttribManager</text>
<text text-anchor="middle" x="866.5" y="-56.5" font-family="Helvetica,sans-Serif" font-size="10.00" fill="#000000">::isValid</text>
</a>
</g>
</g>
<!-- Node37&#45;&gt;Node38 -->
<g id="edge23" class="edge">
<title>Node37&#45;&gt;Node38</title>
<path fill="none" stroke="#191970" d="M750.1959,-62.7289C758.6733,-62.858 767.3327,-62.9898 775.9115,-63.1205"/>
<polygon fill="#191970" stroke="#191970" points="775.8775,-66.6203 785.9296,-63.273 775.9841,-59.6211 775.8775,-66.6203"/>
</g>
<!-- Node42 -->
<g id="node24" class="node">
<title>Node42</title>
<g id="a_node24"><a xlink:href="classRa_1_1Core_1_1Utils_1_1Observable.html#a7e5fe761726d56a51f95192eb6555f8f" target="_top" xlink:title="Notify (i.e. call) each attached observer with argument p. ">
<polygon fill="#ffffff" stroke="#000000" points="787,-.5 787,-30.5 946,-30.5 946,-.5 787,-.5"/>
<text text-anchor="start" x="795" y="-18.5" font-family="Helvetica,sans-Serif" font-size="10.00" fill="#000000">Ra::Core::Utils::Observable</text>
<text text-anchor="middle" x="866.5" y="-7.5" font-family="Helvetica,sans-Serif" font-size="10.00" fill="#000000">&lt; const std::string &amp;&gt;::notify</text>
</a>
</g>
</g>
<!-- Node37&#45;&gt;Node42 -->
<g id="edge27" class="edge">
<title>Node37&#45;&gt;Node42</title>
<path fill="none" stroke="#191970" d="M734.0052,-46.4379C752.6388,-42.0869 773.1225,-37.3039 792.2961,-32.8268"/>
<polygon fill="#191970" stroke="#191970" points="793.2444,-36.1996 802.1865,-30.5174 791.6526,-29.383 793.2444,-36.1996"/>
</g>
<!-- Node39 -->
<g id="node21" class="node">
<title>Node39</title>
<g id="a_node21"><a xlink:href="classRa_1_1Core_1_1Utils_1_1AttribHandle.html#a17afbd6718234d480c05258369bdfde9" target="_top" xlink:title="Ra::Core::Utils::AttribHandle\l::attribName">
<polygon fill="#ffffff" stroke="#000000" points="983,-73.5 983,-103.5 1137,-103.5 1137,-73.5 983,-73.5"/>
<text text-anchor="start" x="991" y="-91.5" font-family="Helvetica,sans-Serif" font-size="10.00" fill="#000000">Ra::Core::Utils::AttribHandle</text>
<text text-anchor="middle" x="1060" y="-80.5" font-family="Helvetica,sans-Serif" font-size="10.00" fill="#000000">::attribName</text>
</a>
</g>
</g>
<!-- Node38&#45;&gt;Node39 -->
<g id="edge24" class="edge">
<title>Node38&#45;&gt;Node39</title>
<path fill="none" stroke="#191970" d="M947.1603,-74.5044C955.6571,-75.5582 964.3244,-76.6333 972.8898,-77.6956"/>
<polygon fill="#191970" stroke="#191970" points="972.527,-81.1774 982.8818,-78.935 973.3887,-74.2306 972.527,-81.1774"/>
</g>
<!-- Node40 -->
<g id="node22" class="node">
<title>Node40</title>
<g id="a_node22"><a xlink:href="classRa_1_1Core_1_1Utils_1_1Index.html#a771f93efd49538950e3cb9e57e46fbaf" target="_top" xlink:title="Ra::Core::Utils::Index\l::Invalid">
<polygon fill="#ffffff" stroke="#000000" points="1000.5,-24.5 1000.5,-54.5 1119.5,-54.5 1119.5,-24.5 1000.5,-24.5"/>
<text text-anchor="start" x="1008.5" y="-42.5" font-family="Helvetica,sans-Serif" font-size="10.00" fill="#000000">Ra::Core::Utils::Index</text>
<text text-anchor="middle" x="1060" y="-31.5" font-family="Helvetica,sans-Serif" font-size="10.00" fill="#000000">::Invalid</text>
</a>
</g>
</g>
<!-- Node38&#45;&gt;Node40 -->
<g id="edge25" class="edge">
<title>Node38&#45;&gt;Node40</title>
<path fill="none" stroke="#191970" d="M947.1603,-54.0788C961.5129,-52.2244 976.3516,-50.3073 990.3648,-48.4968"/>
<polygon fill="#191970" stroke="#191970" points="990.9348,-51.9523 1000.4039,-47.1998 990.0378,-45.01 990.9348,-51.9523"/>
</g>
<!-- Node41 -->
<g id="node23" class="node">
<title>Node41</title>
<g id="a_node23"><a xlink:href="classRa_1_1Core_1_1Utils_1_1Index.html#ab3376097b792b1ac2068c6da1cb6c8e4" target="_top" xlink:title="CONSTRUCTOR. ">
<polygon fill="#ffffff" stroke="#000000" points="1173,-24.5 1173,-54.5 1292,-54.5 1292,-24.5 1173,-24.5"/>
<text text-anchor="start" x="1181" y="-42.5" font-family="Helvetica,sans-Serif" font-size="10.00" fill="#000000">Ra::Core::Utils::Index</text>
<text text-anchor="middle" x="1232.5" y="-31.5" font-family="Helvetica,sans-Serif" font-size="10.00" fill="#000000">::Index</text>
</a>
</g>
</g>
<!-- Node40&#45;&gt;Node41 -->
<g id="edge26" class="edge">
<title>Node40&#45;&gt;Node41</title>
<path fill="none" stroke="#191970" d="M1119.848,-39.5C1133.6294,-39.5 1148.406,-39.5 1162.5728,-39.5"/>
<polygon fill="#191970" stroke="#191970" points="1162.7578,-43.0001 1172.7578,-39.5 1162.7577,-36.0001 1162.7578,-43.0001"/>
</g>
</g>
</svg>
