<?xml version="1.0" encoding="UTF-8" standalone="no"?>
<!DOCTYPE svg PUBLIC "-//W3C//DTD SVG 1.1//EN"
 "http://www.w3.org/Graphics/SVG/1.1/DTD/svg11.dtd">
<!-- Generated by graphviz version 2.40.1 (20161225.0304)
 -->
<!-- Title: Ra::Gui::Viewer::startRendering Pages: 1 -->
<svg width="725pt" height="470pt"
 viewBox="0.00 0.00 725.00 470.00" xmlns="http://www.w3.org/2000/svg" xmlns:xlink="http://www.w3.org/1999/xlink">
<g id="graph0" class="graph" transform="scale(1 1) rotate(0) translate(4 466)">
<title>Ra::Gui::Viewer::startRendering</title>
<polygon fill="#ffffff" stroke="transparent" points="-4,4 -4,-466 721,-466 721,4 -4,4"/>
<!-- Node240 -->
<g id="node1" class="node">
<title>Node240</title>
<polygon fill="#bfbfbf" stroke="#000000" points="0,-326 0,-345 169,-345 169,-326 0,-326"/>
<text text-anchor="middle" x="84.5" y="-333" font-family="Helvetica,sans-Serif" font-size="10.00" fill="#000000">Ra::Gui::Viewer::startRendering</text>
</g>
<!-- Node241 -->
<g id="node2" class="node">
<title>Node241</title>
<g id="a_node2"><a xlink:href="classRa_1_1Gui_1_1PickingManager.html#a0e09b5c72c23cfc60f0c1d2f0d00a809" target="_top" xlink:title="Ra::Gui::PickingManager\l::clear">
<polygon fill="#ffffff" stroke="#000000" points="205,-424.5 205,-454.5 340,-454.5 340,-424.5 205,-424.5"/>
<text text-anchor="start" x="213" y="-442.5" font-family="Helvetica,sans-Serif" font-size="10.00" fill="#000000">Ra::Gui::PickingManager</text>
<text text-anchor="middle" x="272.5" y="-431.5" font-family="Helvetica,sans-Serif" font-size="10.00" fill="#000000">::clear</text>
</a>
</g>
</g>
<!-- Node240&#45;&gt;Node241 -->
<g id="edge1" class="edge">
<title>Node240&#45;&gt;Node241</title>
<path fill="none" stroke="#191970" d="M99.0265,-345.0445C121.3587,-359.5458 165.6715,-387.6436 205,-408.5 212.5334,-412.4951 220.6786,-416.4946 228.6169,-420.2297"/>
<polygon fill="#191970" stroke="#191970" points="227.2465,-423.4521 237.7917,-424.4768 230.1871,-417.0997 227.2465,-423.4521"/>
</g>
<!-- Node244 -->
<g id="node5" class="node">
<title>Node244</title>
<g id="a_node5"><a xlink:href="classRa_1_1Gui_1_1WindowQt.html#a78476baacd2df24a260f604d02c8ddc4" target="_top" xlink:title="Ra::Gui::WindowQt::\lmakeCurrent">
<polygon fill="#ffffff" stroke="#000000" points="215.5,-369.5 215.5,-399.5 329.5,-399.5 329.5,-369.5 215.5,-369.5"/>
<text text-anchor="start" x="223.5" y="-387.5" font-family="Helvetica,sans-Serif" font-size="10.00" fill="#000000">Ra::Gui::WindowQt::</text>
<text text-anchor="middle" x="272.5" y="-376.5" font-family="Helvetica,sans-Serif" font-size="10.00" fill="#000000">makeCurrent</text>
</a>
</g>
</g>
<!-- Node240&#45;&gt;Node244 -->
<g id="edge4" class="edge">
<title>Node240&#45;&gt;Node244</title>
<path fill="none" stroke="#191970" d="M121.1946,-345.064C145.0916,-351.2925 176.9789,-359.6036 205.3175,-366.9897"/>
<polygon fill="#191970" stroke="#191970" points="204.6147,-370.4234 215.1742,-369.5587 206.3803,-363.6497 204.6147,-370.4234"/>
</g>
<!-- Node245 -->
<g id="node6" class="node">
<title>Node245</title>
<g id="a_node6"><a xlink:href="classRa_1_1Engine_1_1Renderer.html#a3792150e8242bf3bf7b9a9b610c6dd5c" target="_top" xlink:title="Tell if the renderer has an usable light. ">
<polygon fill="#ffffff" stroke="#000000" points="213.5,-320.5 213.5,-350.5 331.5,-350.5 331.5,-320.5 213.5,-320.5"/>
<text text-anchor="start" x="221.5" y="-338.5" font-family="Helvetica,sans-Serif" font-size="10.00" fill="#000000">Ra::Engine::Renderer</text>
<text text-anchor="middle" x="272.5" y="-327.5" font-family="Helvetica,sans-Serif" font-size="10.00" fill="#000000">::hasLight</text>
</a>
</g>
</g>
<!-- Node240&#45;&gt;Node245 -->
<g id="edge5" class="edge">
<title>Node240&#45;&gt;Node245</title>
<path fill="none" stroke="#191970" d="M169.1505,-335.5C180.5671,-335.5 192.1696,-335.5 203.2752,-335.5"/>
<polygon fill="#191970" stroke="#191970" points="203.315,-339.0001 213.315,-335.5 203.3149,-332.0001 203.315,-339.0001"/>
</g>
<!-- Node246 -->
<g id="node7" class="node">
<title>Node246</title>
<g id="a_node7"><a xlink:href="classRa_1_1Engine_1_1Renderer.html#ad8e27588477d7e65666598cdfd1d4fbb" target="_top" xlink:title="Ra::Engine::Renderer\l::addLight">
<polygon fill="#ffffff" stroke="#000000" points="213.5,-271.5 213.5,-301.5 331.5,-301.5 331.5,-271.5 213.5,-271.5"/>
<text text-anchor="start" x="221.5" y="-289.5" font-family="Helvetica,sans-Serif" font-size="10.00" fill="#000000">Ra::Engine::Renderer</text>
<text text-anchor="middle" x="272.5" y="-278.5" font-family="Helvetica,sans-Serif" font-size="10.00" fill="#000000">::addLight</text>
</a>
</g>
</g>
<!-- Node240&#45;&gt;Node246 -->
<g id="edge6" class="edge">
<title>Node240&#45;&gt;Node246</title>
<path fill="none" stroke="#191970" d="M121.1946,-325.936C144.996,-319.7324 176.724,-311.4629 204.9772,-304.099"/>
<polygon fill="#191970" stroke="#191970" points="206.0132,-307.446 214.8072,-301.537 204.2477,-300.6723 206.0132,-307.446"/>
</g>
<!-- Node247 -->
<g id="node8" class="node">
<title>Node247</title>
<g id="a_node8"><a xlink:href="classRa_1_1Engine_1_1Renderer.html#affc431edcc808c4bd5ca80bfe03a2c55" target="_top" xlink:title="Tell the renderer it needs to render. This method does the following steps : ">
<polygon fill="#ffffff" stroke="#000000" points="213.5,-210.5 213.5,-240.5 331.5,-240.5 331.5,-210.5 213.5,-210.5"/>
<text text-anchor="start" x="221.5" y="-228.5" font-family="Helvetica,sans-Serif" font-size="10.00" fill="#000000">Ra::Engine::Renderer</text>
<text text-anchor="middle" x="272.5" y="-217.5" font-family="Helvetica,sans-Serif" font-size="10.00" fill="#000000">::render</text>
</a>
</g>
</g>
<!-- Node240&#45;&gt;Node247 -->
<g id="edge7" class="edge">
<title>Node240&#45;&gt;Node247</title>
<path fill="none" stroke="#191970" d="M99.5402,-325.8558C122.1724,-311.4368 166.4456,-283.5924 205,-261.5 214.4312,-256.0957 224.7312,-250.4674 234.3805,-245.3107"/>
<polygon fill="#191970" stroke="#191970" points="236.19,-248.3128 243.383,-240.5339 232.909,-242.1294 236.19,-248.3128"/>
</g>
<!-- Node242 -->
<g id="node3" class="node">
<title>Node242</title>
<g id="a_node3"><a xlink:href="classRa_1_1Core_1_1Utils_1_1Index.html#a771f93efd49538950e3cb9e57e46fbaf" target="_top" xlink:title="Ra::Core::Utils::Index\l::Invalid">
<polygon fill="#ffffff" stroke="#000000" points="409.5,-431.5 409.5,-461.5 528.5,-461.5 528.5,-431.5 409.5,-431.5"/>
<text text-anchor="start" x="417.5" y="-449.5" font-family="Helvetica,sans-Serif" font-size="10.00" fill="#000000">Ra::Core::Utils::Index</text>
<text text-anchor="middle" x="469" y="-438.5" font-family="Helvetica,sans-Serif" font-size="10.00" fill="#000000">::Invalid</text>
</a>
</g>
</g>
<!-- Node241&#45;&gt;Node242 -->
<g id="edge2" class="edge">
<title>Node241&#45;&gt;Node242</title>
<path fill="none" stroke="#191970" d="M340.1242,-441.909C359.2272,-442.5895 380.0466,-443.3312 399.2709,-444.016"/>
<polygon fill="#191970" stroke="#191970" points="399.344,-447.5207 409.4623,-444.3791 399.5933,-440.5252 399.344,-447.5207"/>
</g>
<!-- Node243 -->
<g id="node4" class="node">
<title>Node243</title>
<g id="a_node4"><a xlink:href="classRa_1_1Core_1_1Utils_1_1Index.html#ab3376097b792b1ac2068c6da1cb6c8e4" target="_top" xlink:title="CONSTRUCTOR. ">
<polygon fill="#ffffff" stroke="#000000" points="598,-431.5 598,-461.5 717,-461.5 717,-431.5 598,-431.5"/>
<text text-anchor="start" x="606" y="-449.5" font-family="Helvetica,sans-Serif" font-size="10.00" fill="#000000">Ra::Core::Utils::Index</text>
<text text-anchor="middle" x="657.5" y="-438.5" font-family="Helvetica,sans-Serif" font-size="10.00" fill="#000000">::Index</text>
</a>
</g>
</g>
<!-- Node242&#45;&gt;Node243 -->
<g id="edge3" class="edge">
<title>Node242&#45;&gt;Node243</title>
<path fill="none" stroke="#191970" d="M528.6426,-446.5C547.4718,-446.5 568.4411,-446.5 587.9021,-446.5"/>
<polygon fill="#191970" stroke="#191970" points="587.9222,-450.0001 597.9221,-446.5 587.9221,-443.0001 587.9222,-450.0001"/>
</g>
<!-- Node248 -->
<g id="node9" class="node">
<title>Node248</title>
<g id="a_node9"><a xlink:href="classRa_1_1Engine_1_1Renderer.html#a54631e8470c2638009457f53628dac57" target="_top" xlink:title="Ra::Engine::Renderer\l::updateStepInternal">
<polygon fill="#ffffff" stroke="#000000" points="410,-382.5 410,-412.5 528,-412.5 528,-382.5 410,-382.5"/>
<text text-anchor="start" x="418" y="-400.5" font-family="Helvetica,sans-Serif" font-size="10.00" fill="#000000">Ra::Engine::Renderer</text>
<text text-anchor="middle" x="469" y="-389.5" font-family="Helvetica,sans-Serif" font-size="10.00" fill="#000000">::updateStepInternal</text>
</a>
</g>
</g>
<!-- Node247&#45;&gt;Node248 -->
<g id="edge8" class="edge">
<title>Node247&#45;&gt;Node248</title>
<path fill="none" stroke="#191970" d="M312.9144,-240.6447C322.8747,-245.9694 332.7513,-252.8455 340,-261.5 373.3011,-301.2595 338.4039,-336.7745 376,-372.5 382.9263,-379.0817 391.3948,-383.9707 400.3717,-387.5947"/>
<polygon fill="#191970" stroke="#191970" points="399.2726,-390.9182 409.8674,-390.9314 401.5932,-384.3141 399.2726,-390.9182"/>
</g>
<!-- Node249 -->
<g id="node10" class="node">
<title>Node249</title>
<g id="a_node10"><a xlink:href="classRa_1_1Engine_1_1Renderer.html#a0991bff12be739a189f5a173458b6623" target="_top" xlink:title="All the scene rendering magics basically happens here. ">
<polygon fill="#ffffff" stroke="#000000" points="410,-333.5 410,-363.5 528,-363.5 528,-333.5 410,-333.5"/>
<text text-anchor="start" x="418" y="-351.5" font-family="Helvetica,sans-Serif" font-size="10.00" fill="#000000">Ra::Engine::Renderer</text>
<text text-anchor="middle" x="469" y="-340.5" font-family="Helvetica,sans-Serif" font-size="10.00" fill="#000000">::renderInternal</text>
</a>
</g>
</g>
<!-- Node247&#45;&gt;Node249 -->
<g id="edge9" class="edge">
<title>Node247&#45;&gt;Node249</title>
<path fill="none" stroke="#191970" d="M309.635,-240.6307C320.2574,-246.1354 331.3011,-253.1096 340,-261.5 362.9343,-283.6207 350.7046,-304.1234 376,-323.5 383.2128,-329.0251 391.5542,-333.331 400.2199,-336.6864"/>
<polygon fill="#191970" stroke="#191970" points="399.1177,-340.0085 409.7125,-339.967 401.4043,-333.3925 399.1177,-340.0085"/>
</g>
<!-- Node250 -->
<g id="node11" class="node">
<title>Node250</title>
<g id="a_node11"><a xlink:href="classRa_1_1Engine_1_1Renderer.html#a75b434244e669f4be43889a820011b79" target="_top" xlink:title="Do all post processing stuff. If you override this method, be careful to fill. ">
<polygon fill="#ffffff" stroke="#000000" points="409.5,-284.5 409.5,-314.5 528.5,-314.5 528.5,-284.5 409.5,-284.5"/>
<text text-anchor="start" x="417.5" y="-302.5" font-family="Helvetica,sans-Serif" font-size="10.00" fill="#000000">Ra::Engine::Renderer</text>
<text text-anchor="middle" x="469" y="-291.5" font-family="Helvetica,sans-Serif" font-size="10.00" fill="#000000">::postProcessInternal</text>
</a>
</g>
</g>
<!-- Node247&#45;&gt;Node250 -->
<g id="edge10" class="edge">
<title>Node247&#45;&gt;Node250</title>
<path fill="none" stroke="#191970" d="M300.9032,-240.6476C321.3723,-251.1398 349.8773,-264.8937 376,-274.5 383.5859,-277.2896 391.6233,-279.9172 399.6711,-282.3444"/>
<polygon fill="#191970" stroke="#191970" points="398.8829,-285.7604 409.4631,-285.2032 400.8447,-279.0409 398.8829,-285.7604"/>
</g>
<!-- Node251 -->
<g id="node12" class="node">
<title>Node251</title>
<g id="a_node12"><a xlink:href="classRa_1_1Engine_1_1Renderer.html#a4bf7ab27df3a206bcb0b759f28dab716" target="_top" xlink:title="Add the debug layer with useful informations. ">
<polygon fill="#ffffff" stroke="#000000" points="410,-235.5 410,-265.5 528,-265.5 528,-235.5 410,-235.5"/>
<text text-anchor="start" x="418" y="-253.5" font-family="Helvetica,sans-Serif" font-size="10.00" fill="#000000">Ra::Engine::Renderer</text>
<text text-anchor="middle" x="469" y="-242.5" font-family="Helvetica,sans-Serif" font-size="10.00" fill="#000000">::debugInternal</text>
</a>
</g>
</g>
<!-- Node247&#45;&gt;Node251 -->
<g id="edge11" class="edge">
<title>Node247&#45;&gt;Node251</title>
<path fill="none" stroke="#191970" d="M331.723,-233.0347C353.184,-235.7651 377.6115,-238.873 399.8521,-241.7026"/>
<polygon fill="#191970" stroke="#191970" points="399.5366,-245.1905 409.8984,-242.9807 400.4201,-238.2465 399.5366,-245.1905"/>
</g>
<!-- Node252 -->
<g id="node13" class="node">
<title>Node252</title>
<g id="a_node13"><a xlink:href="classRa_1_1Engine_1_1Renderer.html#a02f80a1fa78786ad58d68393225aed64" target="_top" xlink:title="Draw the UI data. ">
<polygon fill="#ffffff" stroke="#000000" points="410,-186.5 410,-216.5 528,-216.5 528,-186.5 410,-186.5"/>
<text text-anchor="start" x="418" y="-204.5" font-family="Helvetica,sans-Serif" font-size="10.00" fill="#000000">Ra::Engine::Renderer</text>
<text text-anchor="middle" x="469" y="-193.5" font-family="Helvetica,sans-Serif" font-size="10.00" fill="#000000">::uiInternal</text>
</a>
</g>
</g>
<!-- Node247&#45;&gt;Node252 -->
<g id="edge12" class="edge">
<title>Node247&#45;&gt;Node252</title>
<path fill="none" stroke="#191970" d="M331.723,-218.2667C353.184,-215.6455 377.6115,-212.662 399.8521,-209.9455"/>
<polygon fill="#191970" stroke="#191970" points="400.3965,-213.4052 409.8984,-208.7185 399.5478,-206.4568 400.3965,-213.4052"/>
</g>
<!-- Node253 -->
<g id="node14" class="node">
<title>Node253</title>
<g id="a_node14"><a xlink:href="classRa_1_1Engine_1_1RenderObjectManager.html#a76f7d1a089bdf2e183f8084a2d482940" target="_top" xlink:title="Ra::Engine::RenderObject\lManager::getRenderObjectsByType">
<polygon fill="#ffffff" stroke="#000000" points="376,-137.5 376,-167.5 562,-167.5 562,-137.5 376,-137.5"/>
<text text-anchor="start" x="384" y="-155.5" font-family="Helvetica,sans-Serif" font-size="10.00" fill="#000000">Ra::Engine::RenderObject</text>
<text text-anchor="middle" x="469" y="-144.5" font-family="Helvetica,sans-Serif" font-size="10.00" fill="#000000">Manager::getRenderObjectsByType</text>
</a>
</g>
</g>
<!-- Node247&#45;&gt;Node253 -->
<g id="edge13" class="edge">
<title>Node247&#45;&gt;Node253</title>
<path fill="none" stroke="#191970" d="M300.4366,-210.4966C320.9216,-199.938 349.6424,-186.0425 376,-176.5 381.8649,-174.3767 388.0014,-172.3615 394.205,-170.4681"/>
<polygon fill="#191970" stroke="#191970" points="395.3723,-173.7731 403.9794,-167.595 393.3982,-167.0572 395.3723,-173.7731"/>
</g>
<!-- Node254 -->
<g id="node15" class="node">
<title>Node254</title>
<g id="a_node15"><a xlink:href="namespaceOpenMesh.html#a8205f789ce08919bc11c58383574596c" target="_top" xlink:title="OpenMesh::norm">
<polygon fill="#ffffff" stroke="#000000" points="419.5,-99 419.5,-118 518.5,-118 518.5,-99 419.5,-99"/>
<text text-anchor="middle" x="469" y="-106" font-family="Helvetica,sans-Serif" font-size="10.00" fill="#000000">OpenMesh::norm</text>
</a>
</g>
</g>
<!-- Node247&#45;&gt;Node254 -->
<g id="edge14" class="edge">
<title>Node247&#45;&gt;Node254</title>
<path fill="none" stroke="#191970" d="M284.0024,-210.1533C301.3707,-188.1581 336.4876,-148.0615 376,-127.5 386.2889,-122.1459 397.95,-118.2996 409.451,-115.5368"/>
<polygon fill="#191970" stroke="#191970" points="410.4394,-118.9043 419.4782,-113.3771 408.9654,-112.0612 410.4394,-118.9043"/>
</g>
<!-- Node255 -->
<g id="node16" class="node">
<title>Node255</title>
<g id="a_node16"><a xlink:href="classRa_1_1Engine_1_1ShaderProgramManager.html#a5ddf7b2a65b82380204c6bb5da2127d2" target="_top" xlink:title="Ra::Engine::ShaderProgram\lManager::getShaderProgram">
<polygon fill="#ffffff" stroke="#000000" points="391.5,-49.5 391.5,-79.5 546.5,-79.5 546.5,-49.5 391.5,-49.5"/>
<text text-anchor="start" x="399.5" y="-67.5" font-family="Helvetica,sans-Serif" font-size="10.00" fill="#000000">Ra::Engine::ShaderProgram</text>
<text text-anchor="middle" x="469" y="-56.5" font-family="Helvetica,sans-Serif" font-size="10.00" fill="#000000">Manager::getShaderProgram</text>
</a>
</g>
</g>
<!-- Node247&#45;&gt;Node255 -->
<g id="edge15" class="edge">
<title>Node247&#45;&gt;Node255</title>
<path fill="none" stroke="#191970" d="M279.8047,-210.2056C294.1356,-181.8815 328.7086,-121.263 376,-89.5 378.9341,-87.5293 382.0179,-85.7136 385.2065,-84.0407"/>
<polygon fill="#191970" stroke="#191970" points="386.8783,-87.1222 394.4333,-79.6944 383.8952,-80.7896 386.8783,-87.1222"/>
</g>
<!-- Node256 -->
<g id="node17" class="node">
<title>Node256</title>
<g id="a_node17"><a xlink:href="classRa_1_1Engine_1_1ShaderProgram.html#a33ee6eed267bfedd10ba19f32284d7fe" target="_top" xlink:title="Ra::Engine::ShaderProgram\l::bind">
<polygon fill="#ffffff" stroke="#000000" points="394.5,-.5 394.5,-30.5 543.5,-30.5 543.5,-.5 394.5,-.5"/>
<text text-anchor="start" x="402.5" y="-18.5" font-family="Helvetica,sans-Serif" font-size="10.00" fill="#000000">Ra::Engine::ShaderProgram</text>
<text text-anchor="middle" x="469" y="-7.5" font-family="Helvetica,sans-Serif" font-size="10.00" fill="#000000">::bind</text>
</a>
</g>
</g>
<!-- Node247&#45;&gt;Node256 -->
<g id="edge16" class="edge">
<title>Node247&#45;&gt;Node256</title>
<path fill="none" stroke="#191970" d="M276.4875,-210.2552C286.6376,-174.5604 316.9275,-85.1371 376,-39.5 378.9443,-37.2254 382.0818,-35.1649 385.3565,-33.2986"/>
<polygon fill="#191970" stroke="#191970" points="386.945,-36.4175 394.3067,-28.7981 383.8003,-30.1636 386.945,-36.4175"/>
</g>
</g>
</svg>
