<?xml version="1.0" encoding="UTF-8" standalone="no"?>
<!DOCTYPE svg PUBLIC "-//W3C//DTD SVG 1.1//EN"
 "http://www.w3.org/Graphics/SVG/1.1/DTD/svg11.dtd">
<!-- Generated by graphviz version 2.40.1 (20161225.0304)
 -->
<!-- Title: Ra::Core::Geometry::TopologicalMesh::createAllPropsOnFaces Pages: 1 -->
<svg width="372pt" height="350pt"
 viewBox="0.00 0.00 372.00 350.00" xmlns="http://www.w3.org/2000/svg" xmlns:xlink="http://www.w3.org/1999/xlink">
<g id="graph0" class="graph" transform="scale(1 1) rotate(0) translate(4 346)">
<title>Ra::Core::Geometry::TopologicalMesh::createAllPropsOnFaces</title>
<polygon fill="#ffffff" stroke="transparent" points="-4,4 -4,-346 368,-346 368,4 -4,4"/>
<!-- Node37 -->
<g id="node1" class="node">
<title>Node37</title>
<polygon fill="#bfbfbf" stroke="#000000" points="0,-150.5 0,-191.5 152,-191.5 152,-150.5 0,-150.5"/>
<text text-anchor="start" x="8" y="-179.5" font-family="Helvetica,sans-Serif" font-size="10.00" fill="#000000">Ra::Core::Geometry</text>
<text text-anchor="start" x="8" y="-168.5" font-family="Helvetica,sans-Serif" font-size="10.00" fill="#000000">::TopologicalMesh::createAll</text>
<text text-anchor="middle" x="76" y="-157.5" font-family="Helvetica,sans-Serif" font-size="10.00" fill="#000000">PropsOnFaces</text>
</g>
<!-- Node38 -->
<g id="node2" class="node">
<title>Node38</title>
<g id="a_node2"><a xlink:href="classRa_1_1Core_1_1Geometry_1_1TopologicalMesh.html#a6ee8c2aff09a058a2e19ab9642ee42da" target="_top" xlink:title="Ra::Core::Geometry\l::TopologicalMesh::createNormal\lPropOnFaces">
<polygon fill="#ffffff" stroke="#000000" points="188,-300.5 188,-341.5 364,-341.5 364,-300.5 188,-300.5"/>
<text text-anchor="start" x="196" y="-329.5" font-family="Helvetica,sans-Serif" font-size="10.00" fill="#000000">Ra::Core::Geometry</text>
<text text-anchor="start" x="196" y="-318.5" font-family="Helvetica,sans-Serif" font-size="10.00" fill="#000000">::TopologicalMesh::createNormal</text>
<text text-anchor="middle" x="276" y="-307.5" font-family="Helvetica,sans-Serif" font-size="10.00" fill="#000000">PropOnFaces</text>
</a>
</g>
</g>
<!-- Node37&#45;&gt;Node38 -->
<g id="edge1" class="edge">
<title>Node37&#45;&gt;Node38</title>
<path fill="none" stroke="#191970" d="M90.2973,-191.7585C109.5874,-218.3086 146.3666,-264.0664 188,-291 190.6258,-292.6987 193.3582,-294.3121 196.166,-295.8434"/>
<polygon fill="#191970" stroke="#191970" points="194.8448,-299.0965 205.3518,-300.4584 197.9874,-292.8415 194.8448,-299.0965"/>
</g>
<!-- Node39 -->
<g id="node3" class="node">
<title>Node39</title>
<g id="a_node3"><a xlink:href="classRa_1_1Core_1_1Geometry_1_1TopologicalMesh.html#aa0f39c9b822cf5e300a7e67c76be06d6" target="_top" xlink:title="Ra::Core::Geometry\l::TopologicalMesh::createProps\lOnFaces">
<polygon fill="#ffffff" stroke="#000000" points="192.5,-240.5 192.5,-281.5 359.5,-281.5 359.5,-240.5 192.5,-240.5"/>
<text text-anchor="start" x="200.5" y="-269.5" font-family="Helvetica,sans-Serif" font-size="10.00" fill="#000000">Ra::Core::Geometry</text>
<text text-anchor="start" x="200.5" y="-258.5" font-family="Helvetica,sans-Serif" font-size="10.00" fill="#000000">::TopologicalMesh::createProps</text>
<text text-anchor="middle" x="276" y="-247.5" font-family="Helvetica,sans-Serif" font-size="10.00" fill="#000000">OnFaces</text>
</a>
</g>
</g>
<!-- Node37&#45;&gt;Node39 -->
<g id="edge2" class="edge">
<title>Node37&#45;&gt;Node39</title>
<path fill="none" stroke="#191970" d="M111.0773,-191.7033C132.7932,-204.0353 161.4999,-219.4765 188,-231 192.6003,-233.0004 197.3805,-234.9572 202.2292,-236.8516"/>
<polygon fill="#191970" stroke="#191970" points="201.0176,-240.1353 211.6088,-240.4127 203.5022,-233.5911 201.0176,-240.1353"/>
</g>
<!-- Node40 -->
<g id="node4" class="node">
<title>Node40</title>
<g id="a_node4"><a xlink:href="classRa_1_1Core_1_1Geometry_1_1TopologicalMesh.html#ac0bc26a22df41861c7bfa23d79105ba7" target="_top" xlink:title="Ra::Core::Geometry\l::TopologicalMesh::getFloat\lPropsHandles">
<polygon fill="#ffffff" stroke="#000000" points="201.5,-180.5 201.5,-221.5 350.5,-221.5 350.5,-180.5 201.5,-180.5"/>
<text text-anchor="start" x="209.5" y="-209.5" font-family="Helvetica,sans-Serif" font-size="10.00" fill="#000000">Ra::Core::Geometry</text>
<text text-anchor="start" x="209.5" y="-198.5" font-family="Helvetica,sans-Serif" font-size="10.00" fill="#000000">::TopologicalMesh::getFloat</text>
<text text-anchor="middle" x="276" y="-187.5" font-family="Helvetica,sans-Serif" font-size="10.00" fill="#000000">PropsHandles</text>
</a>
</g>
</g>
<!-- Node37&#45;&gt;Node40 -->
<g id="edge3" class="edge">
<title>Node37&#45;&gt;Node40</title>
<path fill="none" stroke="#191970" d="M152.182,-182.4273C164.8993,-184.3349 178.1623,-186.3243 191.0816,-188.2622"/>
<polygon fill="#191970" stroke="#191970" points="190.9433,-191.7806 201.3519,-189.8028 191.9817,-184.858 190.9433,-191.7806"/>
</g>
<!-- Node41 -->
<g id="node5" class="node">
<title>Node41</title>
<g id="a_node5"><a xlink:href="classRa_1_1Core_1_1Geometry_1_1TopologicalMesh.html#a122e0ecbdc766232c88dc7f6ad035475" target="_top" xlink:title="Ra::Core::Geometry\l::TopologicalMesh::getVector2\lPropsHandles">
<polygon fill="#ffffff" stroke="#000000" points="195.5,-120.5 195.5,-161.5 356.5,-161.5 356.5,-120.5 195.5,-120.5"/>
<text text-anchor="start" x="203.5" y="-149.5" font-family="Helvetica,sans-Serif" font-size="10.00" fill="#000000">Ra::Core::Geometry</text>
<text text-anchor="start" x="203.5" y="-138.5" font-family="Helvetica,sans-Serif" font-size="10.00" fill="#000000">::TopologicalMesh::getVector2</text>
<text text-anchor="middle" x="276" y="-127.5" font-family="Helvetica,sans-Serif" font-size="10.00" fill="#000000">PropsHandles</text>
</a>
</g>
</g>
<!-- Node37&#45;&gt;Node41 -->
<g id="edge4" class="edge">
<title>Node37&#45;&gt;Node41</title>
<path fill="none" stroke="#191970" d="M152.182,-159.5727C163.0002,-157.95 174.2134,-156.268 185.2739,-154.6089"/>
<polygon fill="#191970" stroke="#191970" points="186.0027,-158.0388 195.3729,-153.0941 184.9643,-151.1163 186.0027,-158.0388"/>
</g>
<!-- Node42 -->
<g id="node6" class="node">
<title>Node42</title>
<g id="a_node6"><a xlink:href="classRa_1_1Core_1_1Geometry_1_1TopologicalMesh.html#a6e52c5ca0ef3fbca09207722f5115bb7" target="_top" xlink:title="Ra::Core::Geometry\l::TopologicalMesh::getVector3\lPropsHandles">
<polygon fill="#ffffff" stroke="#000000" points="195.5,-60.5 195.5,-101.5 356.5,-101.5 356.5,-60.5 195.5,-60.5"/>
<text text-anchor="start" x="203.5" y="-89.5" font-family="Helvetica,sans-Serif" font-size="10.00" fill="#000000">Ra::Core::Geometry</text>
<text text-anchor="start" x="203.5" y="-78.5" font-family="Helvetica,sans-Serif" font-size="10.00" fill="#000000">::TopologicalMesh::getVector3</text>
<text text-anchor="middle" x="276" y="-67.5" font-family="Helvetica,sans-Serif" font-size="10.00" fill="#000000">PropsHandles</text>
</a>
</g>
</g>
<!-- Node37&#45;&gt;Node42 -->
<g id="edge5" class="edge">
<title>Node37&#45;&gt;Node42</title>
<path fill="none" stroke="#191970" d="M111.0773,-150.2967C132.7932,-137.9647 161.4999,-122.5235 188,-111 192.6003,-108.9996 197.3805,-107.0428 202.2292,-105.1484"/>
<polygon fill="#191970" stroke="#191970" points="203.5022,-108.4089 211.6088,-101.5873 201.0176,-101.8647 203.5022,-108.4089"/>
</g>
<!-- Node43 -->
<g id="node7" class="node">
<title>Node43</title>
<g id="a_node7"><a xlink:href="classRa_1_1Core_1_1Geometry_1_1TopologicalMesh.html#a52b4baf67feb85e44253d9a966a9a886" target="_top" xlink:title="Ra::Core::Geometry\l::TopologicalMesh::getVector4\lPropsHandles">
<polygon fill="#ffffff" stroke="#000000" points="195.5,-.5 195.5,-41.5 356.5,-41.5 356.5,-.5 195.5,-.5"/>
<text text-anchor="start" x="203.5" y="-29.5" font-family="Helvetica,sans-Serif" font-size="10.00" fill="#000000">Ra::Core::Geometry</text>
<text text-anchor="start" x="203.5" y="-18.5" font-family="Helvetica,sans-Serif" font-size="10.00" fill="#000000">::TopologicalMesh::getVector4</text>
<text text-anchor="middle" x="276" y="-7.5" font-family="Helvetica,sans-Serif" font-size="10.00" fill="#000000">PropsHandles</text>
</a>
</g>
</g>
<!-- Node37&#45;&gt;Node43 -->
<g id="edge6" class="edge">
<title>Node37&#45;&gt;Node43</title>
<path fill="none" stroke="#191970" d="M90.2973,-150.2415C109.5874,-123.6914 146.3666,-77.9336 188,-51 190.6258,-49.3013 193.3582,-47.6879 196.166,-46.1566"/>
<polygon fill="#191970" stroke="#191970" points="197.9874,-49.1585 205.3518,-41.5416 194.8448,-42.9035 197.9874,-49.1585"/>
</g>
</g>
</svg>
