<?xml version="1.0" encoding="UTF-8" standalone="no"?>
<!DOCTYPE svg PUBLIC "-//W3C//DTD SVG 1.1//EN"
 "http://www.w3.org/Graphics/SVG/1.1/DTD/svg11.dtd">
<!-- Generated by graphviz version 2.40.1 (20161225.0304)
 -->
<!-- Title: Ra::Core::Asset::GeometryData Pages: 1 -->
<!--zoomable 1734 -->
<svg id="main" version="1.1" xmlns="http://www.w3.org/2000/svg" xmlns:xlink="http://www.w3.org/1999/xlink" xml:space="preserve" onload="init(evt)">
<style type="text/css"><![CDATA[
.edge:hover path { stroke: red; }
.edge:hover polygon { stroke: red; fill: red; }
]]></style>
<script type="text/javascript"><![CDATA[
var edges = document.getElementsByTagName('g');
if (edges && edges.length) {
  for (var i=0;i<edges.length;i++) {
    if (edges[i].id.substr(0,4)=='edge') {
      edges[i].setAttribute('class','edge');
    }
  }
}
]]></script>
        <defs>
                <circle id="rim" cx="0" cy="0" r="7"/>
                <circle id="rim2" cx="0" cy="0" r="3.5"/>
                <g id="zoomPlus">
                        <use xlink:href="#rim" fill="#404040">
                                <set attributeName="fill" to="#808080" begin="zoomplus.mouseover" end="zoomplus.mouseout"/>
                        </use>
                        <path d="M-4,0h8M0,-4v8" fill="none" stroke="white" stroke-width="1.5" pointer-events="none"/>
                </g>
                <g id="zoomMin">
                        <use xlink:href="#rim" fill="#404040">
                                <set attributeName="fill" to="#808080" begin="zoomminus.mouseover" end="zoomminus.mouseout"/>
                        </use>
                        <path d="M-4,0h8" fill="none" stroke="white" stroke-width="1.5" pointer-events="none"/>
                </g>
                <g id="dirArrow">
                        <path fill="none" stroke="white" stroke-width="1.5" d="M0,-3.0v7 M-2.5,-0.5L0,-3.0L2.5,-0.5"/>
                </g>
               <g id="resetDef">
                       <use xlink:href="#rim2" fill="#404040">
                               <set attributeName="fill" to="#808080" begin="reset.mouseover" end="reset.mouseout"/>
                       </use>
               </g>
        </defs>

<script type="text/javascript">
var viewWidth = 1122;
var viewHeight = 1734;
var sectionId = 'dynsection-1';
</script>
<script xlink:href="svgpan.js"/>
<svg id="graph" class="graph">
<g id="viewport">
<title>Ra::Core::Asset::GeometryData</title>
<polygon fill="#ffffff" stroke="transparent" points="-4,4 -4,-1730 1117.5,-1730 1117.5,4 -4,4"/>
<!-- Node2 -->
<g id="node1" class="node">
<title>Node2</title>
<polygon fill="#bfbfbf" stroke="#000000" points="509,-.5 509,-1322.5 678,-1322.5 678,-.5 509,-.5"/>
<text text-anchor="middle" x="593.5" y="-1310.5" font-family="Helvetica,sans-Serif" font-size="10.00" fill="#000000">Ra::Core::Asset::GeometryData</text>
<polyline fill="none" stroke="#000000" points="509,-1303.5 678,-1303.5 "/>
<text text-anchor="middle" x="593.5" y="-1291.5" font-family="Helvetica,sans-Serif" font-size="10.00" fill="#000000"> </text>
<polyline fill="none" stroke="#000000" points="509,-1284.5 678,-1284.5 "/>
<text text-anchor="start" x="517" y="-1272.5" font-family="Helvetica,sans-Serif" font-size="10.00" fill="#000000">+ GeometryData()</text>
<text text-anchor="start" x="517" y="-1261.5" font-family="Helvetica,sans-Serif" font-size="10.00" fill="#000000">+ GeometryData()</text>
<text text-anchor="start" x="517" y="-1250.5" font-family="Helvetica,sans-Serif" font-size="10.00" fill="#000000">+ ~GeometryData()</text>
<text text-anchor="start" x="517" y="-1239.5" font-family="Helvetica,sans-Serif" font-size="10.00" fill="#000000">+ displayInfo()</text>
<text text-anchor="start" x="517" y="-1228.5" font-family="Helvetica,sans-Serif" font-size="10.00" fill="#000000">+ setName()</text>
<text text-anchor="start" x="517" y="-1217.5" font-family="Helvetica,sans-Serif" font-size="10.00" fill="#000000">+ getType()</text>
<text text-anchor="start" x="517" y="-1206.5" font-family="Helvetica,sans-Serif" font-size="10.00" fill="#000000">+ setType()</text>
<text text-anchor="start" x="517" y="-1195.5" font-family="Helvetica,sans-Serif" font-size="10.00" fill="#000000">+ getFrame()</text>
<text text-anchor="start" x="517" y="-1184.5" font-family="Helvetica,sans-Serif" font-size="10.00" fill="#000000">+ setFrame()</text>
<text text-anchor="start" x="517" y="-1173.5" font-family="Helvetica,sans-Serif" font-size="10.00" fill="#000000">+ getVerticesSize()</text>
<text text-anchor="start" x="517" y="-1162.5" font-family="Helvetica,sans-Serif" font-size="10.00" fill="#000000">+ getVertices()</text>
<text text-anchor="start" x="517" y="-1151.5" font-family="Helvetica,sans-Serif" font-size="10.00" fill="#000000">+ getVertices()</text>
<text text-anchor="start" x="517" y="-1140.5" font-family="Helvetica,sans-Serif" font-size="10.00" fill="#000000">+ setVertices()</text>
<text text-anchor="start" x="517" y="-1129.5" font-family="Helvetica,sans-Serif" font-size="10.00" fill="#000000">+ getEdges()</text>
<text text-anchor="start" x="517" y="-1118.5" font-family="Helvetica,sans-Serif" font-size="10.00" fill="#000000">+ getEdges()</text>
<text text-anchor="start" x="517" y="-1107.5" font-family="Helvetica,sans-Serif" font-size="10.00" fill="#000000">+ setEdges()</text>
<text text-anchor="start" x="517" y="-1096.5" font-family="Helvetica,sans-Serif" font-size="10.00" fill="#000000">+ getFaces()</text>
<text text-anchor="start" x="517" y="-1085.5" font-family="Helvetica,sans-Serif" font-size="10.00" fill="#000000">+ getFaces()</text>
<text text-anchor="start" x="517" y="-1074.5" font-family="Helvetica,sans-Serif" font-size="10.00" fill="#000000">+ setFaces()</text>
<text text-anchor="start" x="517" y="-1063.5" font-family="Helvetica,sans-Serif" font-size="10.00" fill="#000000">+ getPolyhedra()</text>
<text text-anchor="start" x="517" y="-1052.5" font-family="Helvetica,sans-Serif" font-size="10.00" fill="#000000">+ getPolyhedra()</text>
<text text-anchor="start" x="517" y="-1041.5" font-family="Helvetica,sans-Serif" font-size="10.00" fill="#000000">+ setPolyhedra()</text>
<text text-anchor="start" x="517" y="-1030.5" font-family="Helvetica,sans-Serif" font-size="10.00" fill="#000000">+ getNormals()</text>
<text text-anchor="start" x="517" y="-1019.5" font-family="Helvetica,sans-Serif" font-size="10.00" fill="#000000">+ getNormals()</text>
<text text-anchor="start" x="517" y="-1008.5" font-family="Helvetica,sans-Serif" font-size="10.00" fill="#000000">+ setNormals()</text>
<text text-anchor="start" x="517" y="-997.5" font-family="Helvetica,sans-Serif" font-size="10.00" fill="#000000">+ getTangents()</text>
<text text-anchor="start" x="517" y="-986.5" font-family="Helvetica,sans-Serif" font-size="10.00" fill="#000000">+ getTangents()</text>
<text text-anchor="start" x="517" y="-975.5" font-family="Helvetica,sans-Serif" font-size="10.00" fill="#000000">+ setTangents()</text>
<text text-anchor="start" x="517" y="-964.5" font-family="Helvetica,sans-Serif" font-size="10.00" fill="#000000">+ getBiTangents()</text>
<text text-anchor="start" x="517" y="-953.5" font-family="Helvetica,sans-Serif" font-size="10.00" fill="#000000">+ getBiTangents()</text>
<text text-anchor="start" x="517" y="-942.5" font-family="Helvetica,sans-Serif" font-size="10.00" fill="#000000">+ setBitangents()</text>
<text text-anchor="start" x="517" y="-931.5" font-family="Helvetica,sans-Serif" font-size="10.00" fill="#000000">+ getTexCoords()</text>
<text text-anchor="start" x="517" y="-920.5" font-family="Helvetica,sans-Serif" font-size="10.00" fill="#000000">+ getTexCoords()</text>
<text text-anchor="start" x="517" y="-909.5" font-family="Helvetica,sans-Serif" font-size="10.00" fill="#000000">+ setTextureCoordinates()</text>
<text text-anchor="start" x="517" y="-898.5" font-family="Helvetica,sans-Serif" font-size="10.00" fill="#000000">+ getColors()</text>
<text text-anchor="start" x="517" y="-887.5" font-family="Helvetica,sans-Serif" font-size="10.00" fill="#000000">+ getColors()</text>
<text text-anchor="start" x="517" y="-876.5" font-family="Helvetica,sans-Serif" font-size="10.00" fill="#000000">+ setColors()</text>
<text text-anchor="start" x="517" y="-865.5" font-family="Helvetica,sans-Serif" font-size="10.00" fill="#000000">+ getWeights()</text>
<text text-anchor="start" x="517" y="-854.5" font-family="Helvetica,sans-Serif" font-size="10.00" fill="#000000">+ getWeights()</text>
<text text-anchor="start" x="517" y="-843.5" font-family="Helvetica,sans-Serif" font-size="10.00" fill="#000000">+ setWeights()</text>
<text text-anchor="start" x="517" y="-832.5" font-family="Helvetica,sans-Serif" font-size="10.00" fill="#000000">+ getMaterial()</text>
<text text-anchor="start" x="517" y="-821.5" font-family="Helvetica,sans-Serif" font-size="10.00" fill="#000000">+ setMaterial()</text>
<text text-anchor="start" x="517" y="-810.5" font-family="Helvetica,sans-Serif" font-size="10.00" fill="#000000">+ isPointCloud()</text>
<text text-anchor="start" x="517" y="-799.5" font-family="Helvetica,sans-Serif" font-size="10.00" fill="#000000">+ isLineMesh()</text>
<text text-anchor="start" x="517" y="-788.5" font-family="Helvetica,sans-Serif" font-size="10.00" fill="#000000">+ isTriMesh()</text>
<text text-anchor="start" x="517" y="-777.5" font-family="Helvetica,sans-Serif" font-size="10.00" fill="#000000">+ isQuadMesh()</text>
<text text-anchor="start" x="517" y="-766.5" font-family="Helvetica,sans-Serif" font-size="10.00" fill="#000000">+ isPolyMesh()</text>
<text text-anchor="start" x="517" y="-755.5" font-family="Helvetica,sans-Serif" font-size="10.00" fill="#000000">+ isTetraMesh()</text>
<text text-anchor="start" x="517" y="-744.5" font-family="Helvetica,sans-Serif" font-size="10.00" fill="#000000">+ isHexMesh()</text>
<text text-anchor="start" x="517" y="-733.5" font-family="Helvetica,sans-Serif" font-size="10.00" fill="#000000">+ hasVertices()</text>
<text text-anchor="start" x="517" y="-722.5" font-family="Helvetica,sans-Serif" font-size="10.00" fill="#000000">+ hasEdges()</text>
<text text-anchor="start" x="517" y="-711.5" font-family="Helvetica,sans-Serif" font-size="10.00" fill="#000000">+ hasFaces()</text>
<text text-anchor="start" x="517" y="-700.5" font-family="Helvetica,sans-Serif" font-size="10.00" fill="#000000">+ hasPolyhedra()</text>
<text text-anchor="start" x="517" y="-689.5" font-family="Helvetica,sans-Serif" font-size="10.00" fill="#000000">+ hasNormals()</text>
<text text-anchor="start" x="517" y="-678.5" font-family="Helvetica,sans-Serif" font-size="10.00" fill="#000000">+ hasTangents()</text>
<text text-anchor="start" x="517" y="-667.5" font-family="Helvetica,sans-Serif" font-size="10.00" fill="#000000">+ hasBiTangents()</text>
<text text-anchor="start" x="517" y="-656.5" font-family="Helvetica,sans-Serif" font-size="10.00" fill="#000000">+ hasTextureCoordinates()</text>
<text text-anchor="start" x="517" y="-645.5" font-family="Helvetica,sans-Serif" font-size="10.00" fill="#000000">+ hasColors()</text>
<text text-anchor="start" x="517" y="-634.5" font-family="Helvetica,sans-Serif" font-size="10.00" fill="#000000">+ hasWeights()</text>
<text text-anchor="start" x="517" y="-623.5" font-family="Helvetica,sans-Serif" font-size="10.00" fill="#000000">+ hasMaterial()</text>
<text text-anchor="start" x="517" y="-612.5" font-family="Helvetica,sans-Serif" font-size="10.00" fill="#000000">* setName()</text>
<text text-anchor="start" x="517" y="-601.5" font-family="Helvetica,sans-Serif" font-size="10.00" fill="#000000">* getType()</text>
<text text-anchor="start" x="517" y="-590.5" font-family="Helvetica,sans-Serif" font-size="10.00" fill="#000000">* setType()</text>
<text text-anchor="start" x="517" y="-579.5" font-family="Helvetica,sans-Serif" font-size="10.00" fill="#000000">* getFrame()</text>
<text text-anchor="start" x="517" y="-568.5" font-family="Helvetica,sans-Serif" font-size="10.00" fill="#000000">* setFrame()</text>
<text text-anchor="start" x="517" y="-557.5" font-family="Helvetica,sans-Serif" font-size="10.00" fill="#000000">* getVerticesSize()</text>
<text text-anchor="start" x="517" y="-546.5" font-family="Helvetica,sans-Serif" font-size="10.00" fill="#000000">* getVertices()</text>
<text text-anchor="start" x="517" y="-535.5" font-family="Helvetica,sans-Serif" font-size="10.00" fill="#000000">* getVertices()</text>
<text text-anchor="start" x="517" y="-524.5" font-family="Helvetica,sans-Serif" font-size="10.00" fill="#000000">* setVertices()</text>
<text text-anchor="start" x="517" y="-513.5" font-family="Helvetica,sans-Serif" font-size="10.00" fill="#000000">* getEdges()</text>
<text text-anchor="start" x="517" y="-502.5" font-family="Helvetica,sans-Serif" font-size="10.00" fill="#000000">* getEdges()</text>
<text text-anchor="start" x="517" y="-491.5" font-family="Helvetica,sans-Serif" font-size="10.00" fill="#000000">* setEdges()</text>
<text text-anchor="start" x="517" y="-480.5" font-family="Helvetica,sans-Serif" font-size="10.00" fill="#000000">* getFaces()</text>
<text text-anchor="start" x="517" y="-469.5" font-family="Helvetica,sans-Serif" font-size="10.00" fill="#000000">* getFaces()</text>
<text text-anchor="start" x="517" y="-458.5" font-family="Helvetica,sans-Serif" font-size="10.00" fill="#000000">* setFaces()</text>
<text text-anchor="start" x="517" y="-447.5" font-family="Helvetica,sans-Serif" font-size="10.00" fill="#000000">* getPolyhedra()</text>
<text text-anchor="start" x="517" y="-436.5" font-family="Helvetica,sans-Serif" font-size="10.00" fill="#000000">* getPolyhedra()</text>
<text text-anchor="start" x="517" y="-425.5" font-family="Helvetica,sans-Serif" font-size="10.00" fill="#000000">* setPolyhedra()</text>
<text text-anchor="start" x="517" y="-414.5" font-family="Helvetica,sans-Serif" font-size="10.00" fill="#000000">* getNormals()</text>
<text text-anchor="start" x="517" y="-403.5" font-family="Helvetica,sans-Serif" font-size="10.00" fill="#000000">* getNormals()</text>
<text text-anchor="start" x="517" y="-392.5" font-family="Helvetica,sans-Serif" font-size="10.00" fill="#000000">* setNormals()</text>
<text text-anchor="start" x="517" y="-381.5" font-family="Helvetica,sans-Serif" font-size="10.00" fill="#000000">* getTangents()</text>
<text text-anchor="start" x="517" y="-370.5" font-family="Helvetica,sans-Serif" font-size="10.00" fill="#000000">* getTangents()</text>
<text text-anchor="start" x="517" y="-359.5" font-family="Helvetica,sans-Serif" font-size="10.00" fill="#000000">* setTangents()</text>
<text text-anchor="start" x="517" y="-348.5" font-family="Helvetica,sans-Serif" font-size="10.00" fill="#000000">* getBiTangents()</text>
<text text-anchor="start" x="517" y="-337.5" font-family="Helvetica,sans-Serif" font-size="10.00" fill="#000000">* getBiTangents()</text>
<text text-anchor="start" x="517" y="-326.5" font-family="Helvetica,sans-Serif" font-size="10.00" fill="#000000">* setBitangents()</text>
<text text-anchor="start" x="517" y="-315.5" font-family="Helvetica,sans-Serif" font-size="10.00" fill="#000000">* getTexCoords()</text>
<text text-anchor="start" x="517" y="-304.5" font-family="Helvetica,sans-Serif" font-size="10.00" fill="#000000">* getTexCoords()</text>
<text text-anchor="start" x="517" y="-293.5" font-family="Helvetica,sans-Serif" font-size="10.00" fill="#000000">* setTextureCoordinates()</text>
<text text-anchor="start" x="517" y="-282.5" font-family="Helvetica,sans-Serif" font-size="10.00" fill="#000000">* getColors()</text>
<text text-anchor="start" x="517" y="-271.5" font-family="Helvetica,sans-Serif" font-size="10.00" fill="#000000">* getColors()</text>
<text text-anchor="start" x="517" y="-260.5" font-family="Helvetica,sans-Serif" font-size="10.00" fill="#000000">* setColors()</text>
<text text-anchor="start" x="517" y="-249.5" font-family="Helvetica,sans-Serif" font-size="10.00" fill="#000000">* getWeights()</text>
<text text-anchor="start" x="517" y="-238.5" font-family="Helvetica,sans-Serif" font-size="10.00" fill="#000000">* getWeights()</text>
<text text-anchor="start" x="517" y="-227.5" font-family="Helvetica,sans-Serif" font-size="10.00" fill="#000000">* setWeights()</text>
<text text-anchor="start" x="517" y="-216.5" font-family="Helvetica,sans-Serif" font-size="10.00" fill="#000000">* getMaterial()</text>
<text text-anchor="start" x="517" y="-205.5" font-family="Helvetica,sans-Serif" font-size="10.00" fill="#000000">* setMaterial()</text>
<text text-anchor="start" x="517" y="-194.5" font-family="Helvetica,sans-Serif" font-size="10.00" fill="#000000">* isPointCloud()</text>
<text text-anchor="start" x="517" y="-183.5" font-family="Helvetica,sans-Serif" font-size="10.00" fill="#000000">* isLineMesh()</text>
<text text-anchor="start" x="517" y="-172.5" font-family="Helvetica,sans-Serif" font-size="10.00" fill="#000000">* isTriMesh()</text>
<text text-anchor="start" x="517" y="-161.5" font-family="Helvetica,sans-Serif" font-size="10.00" fill="#000000">* isQuadMesh()</text>
<text text-anchor="start" x="517" y="-150.5" font-family="Helvetica,sans-Serif" font-size="10.00" fill="#000000">* isPolyMesh()</text>
<text text-anchor="start" x="517" y="-139.5" font-family="Helvetica,sans-Serif" font-size="10.00" fill="#000000">* isTetraMesh()</text>
<text text-anchor="start" x="517" y="-128.5" font-family="Helvetica,sans-Serif" font-size="10.00" fill="#000000">* isHexMesh()</text>
<text text-anchor="start" x="517" y="-117.5" font-family="Helvetica,sans-Serif" font-size="10.00" fill="#000000">* hasVertices()</text>
<text text-anchor="start" x="517" y="-106.5" font-family="Helvetica,sans-Serif" font-size="10.00" fill="#000000">* hasEdges()</text>
<text text-anchor="start" x="517" y="-95.5" font-family="Helvetica,sans-Serif" font-size="10.00" fill="#000000">* hasFaces()</text>
<text text-anchor="start" x="517" y="-84.5" font-family="Helvetica,sans-Serif" font-size="10.00" fill="#000000">* hasPolyhedra()</text>
<text text-anchor="start" x="517" y="-73.5" font-family="Helvetica,sans-Serif" font-size="10.00" fill="#000000">* hasNormals()</text>
<text text-anchor="start" x="517" y="-62.5" font-family="Helvetica,sans-Serif" font-size="10.00" fill="#000000">* hasTangents()</text>
<text text-anchor="start" x="517" y="-51.5" font-family="Helvetica,sans-Serif" font-size="10.00" fill="#000000">* hasBiTangents()</text>
<text text-anchor="start" x="517" y="-40.5" font-family="Helvetica,sans-Serif" font-size="10.00" fill="#000000">* hasTextureCoordinates()</text>
<text text-anchor="start" x="517" y="-29.5" font-family="Helvetica,sans-Serif" font-size="10.00" fill="#000000">* hasColors()</text>
<text text-anchor="start" x="517" y="-18.5" font-family="Helvetica,sans-Serif" font-size="10.00" fill="#000000">* hasWeights()</text>
<text text-anchor="start" x="517" y="-7.5" font-family="Helvetica,sans-Serif" font-size="10.00" fill="#000000">* hasMaterial()</text>
</g>
<!-- Node3 -->
<g id="node2" class="node">
<title>Node3</title>
<g id="a_node2"><a xlink:href="classRa_1_1Core_1_1Asset_1_1AssetData.html" target="_top" xlink:title="{Ra::Core::Asset::AssetData\n||+ AssetData()\l+ AssetData()\l+ ~AssetData()\l+ getName()\l}">
<polygon fill="#ffffff" stroke="#000000" points="0,-1414.5 0,-1504.5 147,-1504.5 147,-1414.5 0,-1414.5"/>
<text text-anchor="middle" x="73.5" y="-1492.5" font-family="Helvetica,sans-Serif" font-size="10.00" fill="#000000">Ra::Core::Asset::AssetData</text>
<polyline fill="none" stroke="#000000" points="0,-1485.5 147,-1485.5 "/>
<text text-anchor="middle" x="73.5" y="-1473.5" font-family="Helvetica,sans-Serif" font-size="10.00" fill="#000000"> </text>
<polyline fill="none" stroke="#000000" points="0,-1466.5 147,-1466.5 "/>
<text text-anchor="start" x="8" y="-1454.5" font-family="Helvetica,sans-Serif" font-size="10.00" fill="#000000">+ AssetData()</text>
<text text-anchor="start" x="8" y="-1443.5" font-family="Helvetica,sans-Serif" font-size="10.00" fill="#000000">+ AssetData()</text>
<text text-anchor="start" x="8" y="-1432.5" font-family="Helvetica,sans-Serif" font-size="10.00" fill="#000000">+ ~AssetData()</text>
<text text-anchor="start" x="8" y="-1421.5" font-family="Helvetica,sans-Serif" font-size="10.00" fill="#000000">+ getName()</text>
</a>
</g>
</g>
<!-- Node3&#45;&gt;Node2 -->
<g id="edge1" class="edge">
<title>Node3&#45;&gt;Node2</title>
<path fill="none" stroke="#191970" d="M108.5869,-1405.6551C189.8784,-1280.9039 393.0035,-969.185 508.9271,-791.2869"/>
<polygon fill="none" stroke="#191970" points="105.4745,-1404.0206 102.9474,-1414.3096 111.3393,-1407.8423 105.4745,-1404.0206"/>
</g>
<!-- Node4 -->
<g id="node3" class="node">
<title>Node4</title>
<g id="a_node3"><a xlink:title="STL class. ">
<polygon fill="#ffffff" stroke="#bfbfbf" points="41,-1552.5 41,-1609.5 106,-1609.5 106,-1552.5 41,-1552.5"/>
<text text-anchor="middle" x="73.5" y="-1597.5" font-family="Helvetica,sans-Serif" font-size="10.00" fill="#000000">std::string</text>
<polyline fill="none" stroke="#bfbfbf" points="41,-1590.5 106,-1590.5 "/>
<text text-anchor="middle" x="73.5" y="-1578.5" font-family="Helvetica,sans-Serif" font-size="10.00" fill="#000000"> </text>
<polyline fill="none" stroke="#bfbfbf" points="41,-1571.5 106,-1571.5 "/>
<text text-anchor="middle" x="73.5" y="-1559.5" font-family="Helvetica,sans-Serif" font-size="10.00" fill="#000000"> </text>
</a>
</g>
</g>
<!-- Node4&#45;&gt;Node3 -->
<g id="edge2" class="edge">
<title>Node4&#45;&gt;Node3</title>
<path fill="none" stroke="#404040" d="M73.5,-1552.2062C73.5,-1541.5748 73.5,-1529.1181 73.5,-1516.847"/>
<polygon fill="none" stroke="#404040" points="73.5001,-1516.7124 69.5,-1510.7125 73.5,-1504.7124 77.5,-1510.7124 73.5001,-1516.7124"/>
<text text-anchor="middle" x="101" y="-1526" font-family="Helvetica,sans-Serif" font-size="10.00" fill="#000000"> #m_name</text>
</g>
<!-- Node5 -->
<g id="node4" class="node">
<title>Node5</title>
<g id="a_node4"><a xlink:title="STL class. ">
<polygon fill="#ffffff" stroke="#bfbfbf" points="21.5,-1657.5 21.5,-1725.5 125.5,-1725.5 125.5,-1657.5 21.5,-1657.5"/>
<text text-anchor="start" x="29.5" y="-1713.5" font-family="Helvetica,sans-Serif" font-size="10.00" fill="#000000">std::basic_string&lt;</text>
<text text-anchor="middle" x="73.5" y="-1702.5" font-family="Helvetica,sans-Serif" font-size="10.00" fill="#000000"> char &gt;</text>
<polyline fill="none" stroke="#bfbfbf" points="21.5,-1695.5 125.5,-1695.5 "/>
<text text-anchor="middle" x="73.5" y="-1683.5" font-family="Helvetica,sans-Serif" font-size="10.00" fill="#000000"> </text>
<polyline fill="none" stroke="#bfbfbf" points="21.5,-1676.5 125.5,-1676.5 "/>
<text text-anchor="middle" x="73.5" y="-1664.5" font-family="Helvetica,sans-Serif" font-size="10.00" fill="#000000"> </text>
</a>
</g>
</g>
<!-- Node5&#45;&gt;Node4 -->
<g id="edge3" class="edge">
<title>Node5&#45;&gt;Node4</title>
<path fill="none" stroke="#191970" d="M73.5,-1647.0661C73.5,-1634.4172 73.5,-1620.9812 73.5,-1609.5519"/>
<polygon fill="none" stroke="#191970" points="70.0001,-1647.4447 73.5,-1657.4447 77.0001,-1647.4447 70.0001,-1647.4447"/>
</g>
<!-- Node6 -->
<g id="node5" class="node">
<title>Node6</title>
<polygon fill="#ffffff" stroke="#bfbfbf" points="165,-1431 165,-1488 326,-1488 326,-1431 165,-1431"/>
<text text-anchor="middle" x="245.5" y="-1476" font-family="Helvetica,sans-Serif" font-size="10.00" fill="#000000">std::vector&lt; VertexWeights &gt;</text>
<polyline fill="none" stroke="#bfbfbf" points="165,-1469 326,-1469 "/>
<text text-anchor="middle" x="245.5" y="-1457" font-family="Helvetica,sans-Serif" font-size="10.00" fill="#000000"> </text>
<polyline fill="none" stroke="#bfbfbf" points="165,-1450 326,-1450 "/>
<text text-anchor="middle" x="245.5" y="-1438" font-family="Helvetica,sans-Serif" font-size="10.00" fill="#000000"> </text>
</g>
<!-- Node6&#45;&gt;Node2 -->
<g id="edge4" class="edge">
<title>Node6&#45;&gt;Node2</title>
<path fill="none" stroke="#404040" d="M258.0911,-1430.6273C297.1382,-1341.0882 418.6902,-1062.3568 504.1787,-866.323"/>
<polygon fill="none" stroke="#404040" points="504.191,-866.2948 502.9229,-859.196 508.9878,-855.2952 510.2559,-862.3939 504.191,-866.2948"/>
<text text-anchor="middle" x="329" y="-1366" font-family="Helvetica,sans-Serif" font-size="10.00" fill="#000000"> #m_weights</text>
</g>
<!-- Node7 -->
<g id="node6" class="node">
<title>Node7</title>
<g id="a_node6"><a xlink:title="STL class. ">
<polygon fill="#ffffff" stroke="#bfbfbf" points="160,-1552.5 160,-1609.5 257,-1609.5 257,-1552.5 160,-1552.5"/>
<text text-anchor="middle" x="208.5" y="-1597.5" font-family="Helvetica,sans-Serif" font-size="10.00" fill="#000000">std::vector&lt; T &gt;</text>
<polyline fill="none" stroke="#bfbfbf" points="160,-1590.5 257,-1590.5 "/>
<text text-anchor="middle" x="208.5" y="-1578.5" font-family="Helvetica,sans-Serif" font-size="10.00" fill="#000000"> </text>
<polyline fill="none" stroke="#bfbfbf" points="160,-1571.5 257,-1571.5 "/>
<text text-anchor="middle" x="208.5" y="-1559.5" font-family="Helvetica,sans-Serif" font-size="10.00" fill="#000000"> </text>
</a>
</g>
</g>
<!-- Node7&#45;&gt;Node6 -->
<g id="edge5" class="edge">
<title>Node7&#45;&gt;Node6</title>
<path fill="none" stroke="#404040" d="M189.6632,-1552.2881C185.7635,-1542.9175 183.8203,-1532.4849 187.5,-1523 191.0705,-1513.7965 196.6656,-1505.1113 203.0012,-1497.2906"/>
<polygon fill="none" stroke="#404040" points="203.0759,-1497.2058 204.0422,-1490.0597 211.0102,-1488.2031 210.044,-1495.3492 203.0759,-1497.2058"/>
<text text-anchor="middle" x="216.5" y="-1526" font-family="Helvetica,sans-Serif" font-size="10.00" fill="#000000"> +elements</text>
</g>
<!-- Node7&#45;&gt;Node6 -->
<g id="edge7" class="edge">
<title>Node7&#45;&gt;Node6</title>
<path fill="none" stroke="#ffa500" d="M241.1034,-1543.8026C242.8402,-1540.6215 244.3433,-1537.3394 245.5,-1534 250.5378,-1519.4563 250.892,-1502.3358 249.8283,-1488.1766"/>
<polygon fill="#ffa500" stroke="#ffa500" points="238.0213,-1542.13 235.683,-1552.4636 243.955,-1545.8436 238.0213,-1542.13"/>
<text text-anchor="middle" x="297" y="-1526" font-family="Helvetica,sans-Serif" font-size="10.00" fill="#000000"> &lt; VertexWeights &gt;</text>
</g>
<!-- Node8 -->
<g id="node7" class="node">
<title>Node8</title>
<polygon fill="#ffffff" stroke="#bfbfbf" points="194,-1663 194,-1720 223,-1720 223,-1663 194,-1663"/>
<text text-anchor="middle" x="208.5" y="-1708" font-family="Helvetica,sans-Serif" font-size="10.00" fill="#000000">T</text>
<polyline fill="none" stroke="#bfbfbf" points="194,-1701 223,-1701 "/>
<text text-anchor="middle" x="208.5" y="-1689" font-family="Helvetica,sans-Serif" font-size="10.00" fill="#000000"> </text>
<polyline fill="none" stroke="#bfbfbf" points="194,-1682 223,-1682 "/>
<text text-anchor="middle" x="208.5" y="-1670" font-family="Helvetica,sans-Serif" font-size="10.00" fill="#000000"> </text>
</g>
<!-- Node8&#45;&gt;Node7 -->
<g id="edge6" class="edge">
<title>Node8&#45;&gt;Node7</title>
<path fill="none" stroke="#404040" d="M208.5,-1662.7559C208.5,-1650.2224 208.5,-1635.3039 208.5,-1621.6631"/>
<polygon fill="none" stroke="#404040" points="208.5001,-1621.6002 204.5,-1615.6002 208.5,-1609.6002 212.5,-1615.6002 208.5001,-1621.6002"/>
<text text-anchor="middle" x="237.5" y="-1631" font-family="Helvetica,sans-Serif" font-size="10.00" fill="#000000"> +elements</text>
</g>
<!-- Node9 -->
<g id="node8" class="node">
<title>Node9</title>
<polygon fill="#ffffff" stroke="#bfbfbf" points="344,-1431 344,-1488 431,-1488 431,-1431 344,-1431"/>
<text text-anchor="middle" x="387.5" y="-1476" font-family="Helvetica,sans-Serif" font-size="10.00" fill="#000000">VectorNuArray</text>
<polyline fill="none" stroke="#bfbfbf" points="344,-1469 431,-1469 "/>
<text text-anchor="middle" x="387.5" y="-1457" font-family="Helvetica,sans-Serif" font-size="10.00" fill="#000000"> </text>
<polyline fill="none" stroke="#bfbfbf" points="344,-1450 431,-1450 "/>
<text text-anchor="middle" x="387.5" y="-1438" font-family="Helvetica,sans-Serif" font-size="10.00" fill="#000000"> </text>
</g>
<!-- Node9&#45;&gt;Node2 -->
<g id="edge8" class="edge">
<title>Node9&#45;&gt;Node2</title>
<path fill="none" stroke="#404040" d="M393.7781,-1430.7019C399.0859,-1406.6661 407.0024,-1371.5322 414.5,-1341 443.0552,-1224.7165 476.0268,-1097.7145 505.8307,-985.3065"/>
<polygon fill="none" stroke="#404040" points="505.9048,-985.027 503.5776,-978.2017 508.9827,-973.4284 511.31,-980.2536 505.9048,-985.027"/>
<text text-anchor="middle" x="455.5" y="-1371.5" font-family="Helvetica,sans-Serif" font-size="10.00" fill="#000000"> #m_polyhedron</text>
<text text-anchor="middle" x="455.5" y="-1360.5" font-family="Helvetica,sans-Serif" font-size="10.00" fill="#000000">#m_faces</text>
</g>
<!-- Node10 -->
<g id="node9" class="node">
<title>Node10</title>
<polygon fill="#ffffff" stroke="#bfbfbf" points="449.5,-1431 449.5,-1488 535.5,-1488 535.5,-1431 449.5,-1431"/>
<text text-anchor="middle" x="492.5" y="-1476" font-family="Helvetica,sans-Serif" font-size="10.00" fill="#000000">Vector2uArray</text>
<polyline fill="none" stroke="#bfbfbf" points="449.5,-1469 535.5,-1469 "/>
<text text-anchor="middle" x="492.5" y="-1457" font-family="Helvetica,sans-Serif" font-size="10.00" fill="#000000"> </text>
<polyline fill="none" stroke="#bfbfbf" points="449.5,-1450 535.5,-1450 "/>
<text text-anchor="middle" x="492.5" y="-1438" font-family="Helvetica,sans-Serif" font-size="10.00" fill="#000000"> </text>
</g>
<!-- Node10&#45;&gt;Node2 -->
<g id="edge9" class="edge">
<title>Node10&#45;&gt;Node2</title>
<path fill="none" stroke="#404040" d="M496.1543,-1430.6273C498.9365,-1408.6452 503.1619,-1375.2601 508.3214,-1334.4953"/>
<polygon fill="none" stroke="#404040" points="508.3316,-1334.414 505.1167,-1327.9592 509.8385,-1322.509 513.0534,-1328.9638 508.3316,-1334.414"/>
<text text-anchor="middle" x="532" y="-1366" font-family="Helvetica,sans-Serif" font-size="10.00" fill="#000000"> #m_edge</text>
</g>
<!-- Node11 -->
<g id="node10" class="node">
<title>Node11</title>
<polygon fill="#ffffff" stroke="#bfbfbf" points="553.5,-1431 553.5,-1488 633.5,-1488 633.5,-1431 553.5,-1431"/>
<text text-anchor="middle" x="593.5" y="-1476" font-family="Helvetica,sans-Serif" font-size="10.00" fill="#000000">Vector3Array</text>
<polyline fill="none" stroke="#bfbfbf" points="553.5,-1469 633.5,-1469 "/>
<text text-anchor="middle" x="593.5" y="-1457" font-family="Helvetica,sans-Serif" font-size="10.00" fill="#000000"> </text>
<polyline fill="none" stroke="#bfbfbf" points="553.5,-1450 633.5,-1450 "/>
<text text-anchor="middle" x="593.5" y="-1438" font-family="Helvetica,sans-Serif" font-size="10.00" fill="#000000"> </text>
</g>
<!-- Node11&#45;&gt;Node2 -->
<g id="edge10" class="edge">
<title>Node11&#45;&gt;Node2</title>
<path fill="none" stroke="#404040" d="M593.5,-1430.6273C593.5,-1408.6923 593.5,-1375.4031 593.5,-1334.757"/>
<polygon fill="none" stroke="#404040" points="593.5001,-1334.509 589.5,-1328.5091 593.5,-1322.509 597.5,-1328.509 593.5001,-1334.509"/>
<text text-anchor="middle" x="628.5" y="-1388" font-family="Helvetica,sans-Serif" font-size="10.00" fill="#000000"> #m_vertex</text>
<text text-anchor="middle" x="628.5" y="-1377" font-family="Helvetica,sans-Serif" font-size="10.00" fill="#000000">#m_tangent</text>
<text text-anchor="middle" x="628.5" y="-1366" font-family="Helvetica,sans-Serif" font-size="10.00" fill="#000000">#m_bitangent</text>
<text text-anchor="middle" x="628.5" y="-1355" font-family="Helvetica,sans-Serif" font-size="10.00" fill="#000000">#m_normal</text>
<text text-anchor="middle" x="628.5" y="-1344" font-family="Helvetica,sans-Serif" font-size="10.00" fill="#000000">#m_texCoord</text>
</g>
<!-- Node12 -->
<g id="node11" class="node">
<title>Node12</title>
<polygon fill="#ffffff" stroke="#bfbfbf" points="651.5,-1431 651.5,-1488 731.5,-1488 731.5,-1431 651.5,-1431"/>
<text text-anchor="middle" x="691.5" y="-1476" font-family="Helvetica,sans-Serif" font-size="10.00" fill="#000000">Vector4Array</text>
<polyline fill="none" stroke="#bfbfbf" points="651.5,-1469 731.5,-1469 "/>
<text text-anchor="middle" x="691.5" y="-1457" font-family="Helvetica,sans-Serif" font-size="10.00" fill="#000000"> </text>
<polyline fill="none" stroke="#bfbfbf" points="651.5,-1450 731.5,-1450 "/>
<text text-anchor="middle" x="691.5" y="-1438" font-family="Helvetica,sans-Serif" font-size="10.00" fill="#000000"> </text>
</g>
<!-- Node12&#45;&gt;Node2 -->
<g id="edge11" class="edge">
<title>Node12&#45;&gt;Node2</title>
<path fill="none" stroke="#404040" d="M687.9542,-1430.6273C685.2547,-1408.6452 681.1548,-1375.2601 676.1485,-1334.4953"/>
<polygon fill="none" stroke="#404040" points="676.1393,-1334.4195 671.4378,-1328.9519 674.6765,-1322.509 679.3781,-1327.9767 676.1393,-1334.4195"/>
<text text-anchor="middle" x="708" y="-1366" font-family="Helvetica,sans-Serif" font-size="10.00" fill="#000000"> #m_color</text>
</g>
<!-- Node13 -->
<g id="node12" class="node">
<title>Node13</title>
<polygon fill="#ffffff" stroke="#bfbfbf" points="749.5,-1425.5 749.5,-1493.5 879.5,-1493.5 879.5,-1425.5 749.5,-1425.5"/>
<text text-anchor="start" x="757.5" y="-1481.5" font-family="Helvetica,sans-Serif" font-size="10.00" fill="#000000">shared_ptr&lt; Ra::Core</text>
<text text-anchor="middle" x="814.5" y="-1470.5" font-family="Helvetica,sans-Serif" font-size="10.00" fill="#000000">::Asset::MaterialData &gt;</text>
<polyline fill="none" stroke="#bfbfbf" points="749.5,-1463.5 879.5,-1463.5 "/>
<text text-anchor="middle" x="814.5" y="-1451.5" font-family="Helvetica,sans-Serif" font-size="10.00" fill="#000000"> </text>
<polyline fill="none" stroke="#bfbfbf" points="749.5,-1444.5 879.5,-1444.5 "/>
<text text-anchor="middle" x="814.5" y="-1432.5" font-family="Helvetica,sans-Serif" font-size="10.00" fill="#000000"> </text>
</g>
<!-- Node13&#45;&gt;Node2 -->
<g id="edge12" class="edge">
<title>Node13&#45;&gt;Node2</title>
<path fill="none" stroke="#404040" d="M805.0746,-1425.4662C783.6611,-1348.1451 729.4662,-1152.4548 681.2902,-978.4982"/>
<polygon fill="none" stroke="#404040" points="681.2556,-978.3729 675.7993,-973.6582 678.0528,-966.8082 683.5091,-971.523 681.2556,-978.3729"/>
<text text-anchor="middle" x="829.5" y="-1366" font-family="Helvetica,sans-Serif" font-size="10.00" fill="#000000"> #m_material</text>
</g>
<!-- Node14 -->
<g id="node13" class="node">
<title>Node14</title>
<polygon fill="#ffffff" stroke="#bfbfbf" points="897.5,-1425.5 897.5,-1493.5 1007.5,-1493.5 1007.5,-1425.5 897.5,-1425.5"/>
<text text-anchor="start" x="905.5" y="-1481.5" font-family="Helvetica,sans-Serif" font-size="10.00" fill="#000000">Transform&lt; Scalar,</text>
<text text-anchor="middle" x="952.5" y="-1470.5" font-family="Helvetica,sans-Serif" font-size="10.00" fill="#000000"> 3, Eigen::Affine &gt;</text>
<polyline fill="none" stroke="#bfbfbf" points="897.5,-1463.5 1007.5,-1463.5 "/>
<text text-anchor="middle" x="952.5" y="-1451.5" font-family="Helvetica,sans-Serif" font-size="10.00" fill="#000000"> </text>
<polyline fill="none" stroke="#bfbfbf" points="897.5,-1444.5 1007.5,-1444.5 "/>
<text text-anchor="middle" x="952.5" y="-1432.5" font-family="Helvetica,sans-Serif" font-size="10.00" fill="#000000"> </text>
</g>
<!-- Node14&#45;&gt;Node2 -->
<g id="edge13" class="edge">
<title>Node14&#45;&gt;Node2</title>
<path fill="none" stroke="#404040" d="M937.1891,-1425.4662C894.1932,-1329.8932 769.8386,-1053.4727 683.1534,-860.7852"/>
<polygon fill="none" stroke="#404040" points="683.0717,-860.6037 676.9622,-856.773 678.1485,-849.6601 684.258,-853.4908 683.0717,-860.6037"/>
<text text-anchor="middle" x="949.5" y="-1366" font-family="Helvetica,sans-Serif" font-size="10.00" fill="#000000"> #m_frame</text>
</g>
<!-- Node15 -->
<g id="node14" class="node">
<title>Node15</title>
<polygon fill="#ffffff" stroke="#bfbfbf" points="1025.5,-1431 1025.5,-1488 1113.5,-1488 1113.5,-1431 1025.5,-1431"/>
<text text-anchor="middle" x="1069.5" y="-1476" font-family="Helvetica,sans-Serif" font-size="10.00" fill="#000000">GeometryType</text>
<polyline fill="none" stroke="#bfbfbf" points="1025.5,-1469 1113.5,-1469 "/>
<text text-anchor="middle" x="1069.5" y="-1457" font-family="Helvetica,sans-Serif" font-size="10.00" fill="#000000"> </text>
<polyline fill="none" stroke="#bfbfbf" points="1025.5,-1450 1113.5,-1450 "/>
<text text-anchor="middle" x="1069.5" y="-1438" font-family="Helvetica,sans-Serif" font-size="10.00" fill="#000000"> </text>
</g>
<!-- Node15&#45;&gt;Node2 -->
<g id="edge14" class="edge">
<title>Node15&#45;&gt;Node2</title>
<path fill="none" stroke="#404040" d="M1052.2777,-1430.6273C993.862,-1332.6951 800.4466,-1008.4399 684.2264,-813.6002"/>
<polygon fill="none" stroke="#404040" points="684.2107,-813.5738 677.7018,-810.47 678.0633,-803.268 684.5723,-806.3717 684.2107,-813.5738"/>
<text text-anchor="middle" x="1053" y="-1366" font-family="Helvetica,sans-Serif" font-size="10.00" fill="#000000"> #m_type</text>
</g>
</g>
</svg>
        <g id="navigator" transform="translate(0 0)" fill="#404254">
                <rect fill="#f2f5e9" fill-opacity="0.5" stroke="#606060" stroke-width=".5" x="0" y="0" width="60" height="60"/>
                <use id="zoomplus" xlink:href="#zoomPlus" x="17" y="9" onmousedown="handleZoom(evt,'in')"/>
                <use id="zoomminus" xlink:href="#zoomMin" x="42" y="9" onmousedown="handleZoom(evt,'out')"/>
                <use id="reset" xlink:href="#resetDef" x="30" y="36" onmousedown="handleReset()"/>
                <g id="arrowUp" xlink:href="#dirArrow" transform="translate(30 24)" onmousedown="handlePan(0,-1)">
                  <use xlink:href="#rim" fill="#404040">
                        <set attributeName="fill" to="#808080" begin="arrowUp.mouseover" end="arrowUp.mouseout"/>
                  </use>
                  <path fill="none" stroke="white" stroke-width="1.5" d="M0,-3.0v7 M-2.5,-0.5L0,-3.0L2.5,-0.5"/>
                </g>
                <g id="arrowRight" xlink:href="#dirArrow" transform="rotate(90) translate(36 -43)" onmousedown="handlePan(1,0)">
                  <use xlink:href="#rim" fill="#404040">
                        <set attributeName="fill" to="#808080" begin="arrowRight.mouseover" end="arrowRight.mouseout"/>
                  </use>
                  <path fill="none" stroke="white" stroke-width="1.5" d="M0,-3.0v7 M-2.5,-0.5L0,-3.0L2.5,-0.5"/>
                </g>
                <g id="arrowDown" xlink:href="#dirArrow" transform="rotate(180) translate(-30 -48)" onmousedown="handlePan(0,1)">
                  <use xlink:href="#rim" fill="#404040">
                        <set attributeName="fill" to="#808080" begin="arrowDown.mouseover" end="arrowDown.mouseout"/>
                  </use>
                  <path fill="none" stroke="white" stroke-width="1.5" d="M0,-3.0v7 M-2.5,-0.5L0,-3.0L2.5,-0.5"/>
                </g>
                <g id="arrowLeft" xlink:href="#dirArrow" transform="rotate(270) translate(-36 17)" onmousedown="handlePan(-1,0)">
                  <use xlink:href="#rim" fill="#404040">
                        <set attributeName="fill" to="#808080" begin="arrowLeft.mouseover" end="arrowLeft.mouseout"/>
                  </use>
                  <path fill="none" stroke="white" stroke-width="1.5" d="M0,-3.0v7 M-2.5,-0.5L0,-3.0L2.5,-0.5"/>
                </g>
        </g>
        <svg viewBox="0 0 15 15" width="100%" height="30px" preserveAspectRatio="xMaxYMin meet">
         <g id="arrow_out" transform="scale(0.3 0.3)">
          <a xlink:href="classRa_1_1Core_1_1Asset_1_1GeometryData__coll__graph_org.svg" target="_base">
           <rect id="button" ry="5" rx="5" y="6" x="6" height="38" width="38"
                fill="#f2f5e9" fill-opacity="0.5" stroke="#606060" stroke-width="1.0"/>
           <path id="arrow"
             d="M 11.500037,31.436501 C 11.940474,20.09759 22.043105,11.32322 32.158766,21.979434 L 37.068811,17.246167 C 37.068811,17.246167 37.088388,32 37.088388,32 L 22.160133,31.978069 C 22.160133,31.978069 26.997745,27.140456 26.997745,27.140456 C 18.528582,18.264221 13.291696,25.230495 11.500037,31.436501 z"
             style="fill:#404040;"/>
          </a>
         </g>
        </svg>
</svg>
