<?xml version="1.0" encoding="UTF-8" standalone="no"?>
<!DOCTYPE svg PUBLIC "-//W3C//DTD SVG 1.1//EN"
 "http://www.w3.org/Graphics/SVG/1.1/DTD/svg11.dtd">
<!-- Generated by graphviz version 2.40.1 (20161225.0304)
 -->
<!-- Title: Ra::Core::Animation::KeyFrame&lt; FRAME &gt; Pages: 1 -->
<svg width="442pt" height="876pt"
 viewBox="0.00 0.00 441.50 876.00" xmlns="http://www.w3.org/2000/svg" xmlns:xlink="http://www.w3.org/1999/xlink">
<g id="graph0" class="graph" transform="scale(1 1) rotate(0) translate(4 872)">
<title>Ra::Core::Animation::KeyFrame&lt; FRAME &gt;</title>
<polygon fill="#ffffff" stroke="transparent" points="-4,4 -4,-872 437.5,-872 437.5,4 -4,4"/>
<!-- Node10 -->
<g id="node1" class="node">
<title>Node10</title>
<polygon fill="#bfbfbf" stroke="#000000" points="75.5,-.5 75.5,-299.5 201.5,-299.5 201.5,-.5 75.5,-.5"/>
<text text-anchor="start" x="83.5" y="-287.5" font-family="Helvetica,sans-Serif" font-size="10.00" fill="#000000">Ra::Core::Animation</text>
<text text-anchor="middle" x="138.5" y="-276.5" font-family="Helvetica,sans-Serif" font-size="10.00" fill="#000000">::KeyFrame&lt; FRAME &gt;</text>
<polyline fill="none" stroke="#000000" points="75.5,-269.5 201.5,-269.5 "/>
<text text-anchor="middle" x="138.5" y="-257.5" font-family="Helvetica,sans-Serif" font-size="10.00" fill="#000000"> </text>
<polyline fill="none" stroke="#000000" points="75.5,-250.5 201.5,-250.5 "/>
<text text-anchor="start" x="83.5" y="-238.5" font-family="Helvetica,sans-Serif" font-size="10.00" fill="#000000">+ KeyFrame()</text>
<text text-anchor="start" x="83.5" y="-227.5" font-family="Helvetica,sans-Serif" font-size="10.00" fill="#000000">+ KeyFrame()</text>
<text text-anchor="start" x="83.5" y="-216.5" font-family="Helvetica,sans-Serif" font-size="10.00" fill="#000000">+ ~KeyFrame()</text>
<text text-anchor="start" x="83.5" y="-205.5" font-family="Helvetica,sans-Serif" font-size="10.00" fill="#000000">+ getAnimationTime()</text>
<text text-anchor="start" x="83.5" y="-194.5" font-family="Helvetica,sans-Serif" font-size="10.00" fill="#000000">+ setAnimationTime()</text>
<text text-anchor="start" x="83.5" y="-183.5" font-family="Helvetica,sans-Serif" font-size="10.00" fill="#000000">+ getKeyFrame()</text>
<text text-anchor="start" x="83.5" y="-172.5" font-family="Helvetica,sans-Serif" font-size="10.00" fill="#000000">+ getKeyFrame()</text>
<text text-anchor="start" x="83.5" y="-161.5" font-family="Helvetica,sans-Serif" font-size="10.00" fill="#000000">+ at()</text>
<text text-anchor="start" x="83.5" y="-150.5" font-family="Helvetica,sans-Serif" font-size="10.00" fill="#000000">+ setKeyFrame()</text>
<text text-anchor="start" x="83.5" y="-139.5" font-family="Helvetica,sans-Serif" font-size="10.00" fill="#000000">+ setKeyFrame()</text>
<text text-anchor="start" x="83.5" y="-128.5" font-family="Helvetica,sans-Serif" font-size="10.00" fill="#000000">+ insertKeyFrame()</text>
<text text-anchor="start" x="83.5" y="-117.5" font-family="Helvetica,sans-Serif" font-size="10.00" fill="#000000">+ size()</text>
<text text-anchor="start" x="83.5" y="-106.5" font-family="Helvetica,sans-Serif" font-size="10.00" fill="#000000">+ clear()</text>
<text text-anchor="start" x="83.5" y="-95.5" font-family="Helvetica,sans-Serif" font-size="10.00" fill="#000000">+ empty()</text>
<text text-anchor="start" x="83.5" y="-84.5" font-family="Helvetica,sans-Serif" font-size="10.00" fill="#000000">+ timeSchedule()</text>
<text text-anchor="start" x="83.5" y="-73.5" font-family="Helvetica,sans-Serif" font-size="10.00" fill="#000000">+ reset()</text>
<text text-anchor="start" x="83.5" y="-62.5" font-family="Helvetica,sans-Serif" font-size="10.00" fill="#000000">+ operator=()</text>
<text text-anchor="start" x="83.5" y="-51.5" font-family="Helvetica,sans-Serif" font-size="10.00" fill="#000000">+ operator==()</text>
<text text-anchor="start" x="83.5" y="-40.5" font-family="Helvetica,sans-Serif" font-size="10.00" fill="#000000">+ operator!=()</text>
<text text-anchor="start" x="83.5" y="-29.5" font-family="Helvetica,sans-Serif" font-size="10.00" fill="#000000"># defaultFrame()</text>
<text text-anchor="start" x="83.5" y="-18.5" font-family="Helvetica,sans-Serif" font-size="10.00" fill="#000000"># findRange()</text>
<text text-anchor="start" x="83.5" y="-7.5" font-family="Helvetica,sans-Serif" font-size="10.00" fill="#000000"># interpolate()</text>
</g>
<!-- Node11 -->
<g id="node2" class="node">
<title>Node11</title>
<g id="a_node2"><a xlink:href="classRa_1_1Core_1_1Animation_1_1AnimationTime.html" target="_top" xlink:title="{Ra::Core::Animation\l::AnimationTime\n||+ AnimationTime()\l+ AnimationTime()\l+ ~AnimationTime()\l+ getStart()\l+ setStart()\l+ getEnd()\l+ setEnd()\l+ duration()\l+ merge()\l+ contain()\l+ intersect()\l+ isValid()\l+ operator==()\l+ operator!=()\l+ operator\&lt;()\l+ operator==()\l+ operator\&lt;()\l+ operator\&gt;()\l}">
<polygon fill="#ffffff" stroke="#000000" points="0,-347.5 0,-602.5 119,-602.5 119,-347.5 0,-347.5"/>
<text text-anchor="start" x="8" y="-590.5" font-family="Helvetica,sans-Serif" font-size="10.00" fill="#000000">Ra::Core::Animation</text>
<text text-anchor="middle" x="59.5" y="-579.5" font-family="Helvetica,sans-Serif" font-size="10.00" fill="#000000">::AnimationTime</text>
<polyline fill="none" stroke="#000000" points="0,-572.5 119,-572.5 "/>
<text text-anchor="middle" x="59.5" y="-560.5" font-family="Helvetica,sans-Serif" font-size="10.00" fill="#000000"> </text>
<polyline fill="none" stroke="#000000" points="0,-553.5 119,-553.5 "/>
<text text-anchor="start" x="8" y="-541.5" font-family="Helvetica,sans-Serif" font-size="10.00" fill="#000000">+ AnimationTime()</text>
<text text-anchor="start" x="8" y="-530.5" font-family="Helvetica,sans-Serif" font-size="10.00" fill="#000000">+ AnimationTime()</text>
<text text-anchor="start" x="8" y="-519.5" font-family="Helvetica,sans-Serif" font-size="10.00" fill="#000000">+ ~AnimationTime()</text>
<text text-anchor="start" x="8" y="-508.5" font-family="Helvetica,sans-Serif" font-size="10.00" fill="#000000">+ getStart()</text>
<text text-anchor="start" x="8" y="-497.5" font-family="Helvetica,sans-Serif" font-size="10.00" fill="#000000">+ setStart()</text>
<text text-anchor="start" x="8" y="-486.5" font-family="Helvetica,sans-Serif" font-size="10.00" fill="#000000">+ getEnd()</text>
<text text-anchor="start" x="8" y="-475.5" font-family="Helvetica,sans-Serif" font-size="10.00" fill="#000000">+ setEnd()</text>
<text text-anchor="start" x="8" y="-464.5" font-family="Helvetica,sans-Serif" font-size="10.00" fill="#000000">+ duration()</text>
<text text-anchor="start" x="8" y="-453.5" font-family="Helvetica,sans-Serif" font-size="10.00" fill="#000000">+ merge()</text>
<text text-anchor="start" x="8" y="-442.5" font-family="Helvetica,sans-Serif" font-size="10.00" fill="#000000">+ contain()</text>
<text text-anchor="start" x="8" y="-431.5" font-family="Helvetica,sans-Serif" font-size="10.00" fill="#000000">+ intersect()</text>
<text text-anchor="start" x="8" y="-420.5" font-family="Helvetica,sans-Serif" font-size="10.00" fill="#000000">+ isValid()</text>
<text text-anchor="start" x="8" y="-409.5" font-family="Helvetica,sans-Serif" font-size="10.00" fill="#000000">+ operator==()</text>
<text text-anchor="start" x="8" y="-398.5" font-family="Helvetica,sans-Serif" font-size="10.00" fill="#000000">+ operator!=()</text>
<text text-anchor="start" x="8" y="-387.5" font-family="Helvetica,sans-Serif" font-size="10.00" fill="#000000">+ operator&lt;()</text>
<text text-anchor="start" x="8" y="-376.5" font-family="Helvetica,sans-Serif" font-size="10.00" fill="#000000">+ operator==()</text>
<text text-anchor="start" x="8" y="-365.5" font-family="Helvetica,sans-Serif" font-size="10.00" fill="#000000">+ operator&lt;()</text>
<text text-anchor="start" x="8" y="-354.5" font-family="Helvetica,sans-Serif" font-size="10.00" fill="#000000">+ operator&gt;()</text>
</a>
</g>
</g>
<!-- Node11&#45;&gt;Node10 -->
<g id="edge1" class="edge">
<title>Node11&#45;&gt;Node10</title>
<path fill="none" stroke="#404040" d="M90.4962,-347.4842C93.3952,-335.5576 96.3585,-323.367 99.3193,-311.1862"/>
<polygon fill="none" stroke="#404040" points="99.3207,-311.1802 96.8511,-304.4052 102.1552,-299.5198 104.6248,-306.2948 99.3207,-311.1802"/>
<text text-anchor="middle" x="122" y="-321" font-family="Helvetica,sans-Serif" font-size="10.00" fill="#000000"> #m_time</text>
</g>
<!-- Node12 -->
<g id="node3" class="node">
<title>Node12</title>
<polygon fill="#ffffff" stroke="#bfbfbf" points="40.5,-705.5 40.5,-762.5 78.5,-762.5 78.5,-705.5 40.5,-705.5"/>
<text text-anchor="middle" x="59.5" y="-750.5" font-family="Helvetica,sans-Serif" font-size="10.00" fill="#000000">float</text>
<polyline fill="none" stroke="#bfbfbf" points="40.5,-743.5 78.5,-743.5 "/>
<text text-anchor="middle" x="59.5" y="-731.5" font-family="Helvetica,sans-Serif" font-size="10.00" fill="#000000"> </text>
<polyline fill="none" stroke="#bfbfbf" points="40.5,-724.5 78.5,-724.5 "/>
<text text-anchor="middle" x="59.5" y="-712.5" font-family="Helvetica,sans-Serif" font-size="10.00" fill="#000000"> </text>
</g>
<!-- Node12&#45;&gt;Node11 -->
<g id="edge2" class="edge">
<title>Node12&#45;&gt;Node11</title>
<path fill="none" stroke="#404040" d="M59.5,-705.2929C59.5,-682.6723 59.5,-649.3138 59.5,-614.9669"/>
<polygon fill="none" stroke="#404040" points="59.5001,-614.7928 55.5,-608.7928 59.5,-602.7928 63.5,-608.7927 59.5001,-614.7928"/>
<text text-anchor="middle" x="82.5" y="-657" font-family="Helvetica,sans-Serif" font-size="10.00" fill="#000000"> #m_end</text>
<text text-anchor="middle" x="82.5" y="-646" font-family="Helvetica,sans-Serif" font-size="10.00" fill="#000000">#m_start</text>
</g>
<!-- Node13 -->
<g id="node4" class="node">
<title>Node13</title>
<polygon fill="#ffffff" stroke="#bfbfbf" points="137,-419 137,-531 298,-531 298,-419 137,-419"/>
<text text-anchor="start" x="145" y="-519" font-family="Helvetica,sans-Serif" font-size="10.00" fill="#000000">std::map&lt; Time, FRAME,</text>
<text text-anchor="start" x="145" y="-508" font-family="Helvetica,sans-Serif" font-size="10.00" fill="#000000"> std::less&lt; Time &gt;, Ra</text>
<text text-anchor="start" x="145" y="-497" font-family="Helvetica,sans-Serif" font-size="10.00" fill="#000000">::Core::AlignedAllocator</text>
<text text-anchor="start" x="145" y="-486" font-family="Helvetica,sans-Serif" font-size="10.00" fill="#000000">&lt; std::pair&lt; const Time,</text>
<text text-anchor="start" x="145" y="-475" font-family="Helvetica,sans-Serif" font-size="10.00" fill="#000000"> FRAME &gt;, EIGEN_MAX_ALIGN</text>
<text text-anchor="middle" x="217.5" y="-464" font-family="Helvetica,sans-Serif" font-size="10.00" fill="#000000">_BYTES &gt; &gt;</text>
<polyline fill="none" stroke="#bfbfbf" points="137,-457 298,-457 "/>
<text text-anchor="middle" x="217.5" y="-445" font-family="Helvetica,sans-Serif" font-size="10.00" fill="#000000"> </text>
<polyline fill="none" stroke="#bfbfbf" points="137,-438 298,-438 "/>
<text text-anchor="middle" x="217.5" y="-426" font-family="Helvetica,sans-Serif" font-size="10.00" fill="#000000"> </text>
</g>
<!-- Node13&#45;&gt;Node10 -->
<g id="edge3" class="edge">
<title>Node13&#45;&gt;Node10</title>
<path fill="none" stroke="#404040" d="M203.8294,-418.7604C196.5455,-388.7948 187.1749,-350.2447 177.8178,-311.7506"/>
<polygon fill="none" stroke="#404040" points="177.7512,-311.476 172.4471,-306.5906 174.9167,-299.8155 180.2208,-304.701 177.7512,-311.476"/>
<text text-anchor="middle" x="217.5" y="-321" font-family="Helvetica,sans-Serif" font-size="10.00" fill="#000000"> #m_keyframe</text>
</g>
<!-- Node14 -->
<g id="node5" class="node">
<title>Node14</title>
<polygon fill="#ffffff" stroke="#bfbfbf" points="112,-705.5 112,-762.5 161,-762.5 161,-705.5 112,-705.5"/>
<text text-anchor="middle" x="136.5" y="-750.5" font-family="Helvetica,sans-Serif" font-size="10.00" fill="#000000">FRAME</text>
<polyline fill="none" stroke="#bfbfbf" points="112,-743.5 161,-743.5 "/>
<text text-anchor="middle" x="136.5" y="-731.5" font-family="Helvetica,sans-Serif" font-size="10.00" fill="#000000"> </text>
<polyline fill="none" stroke="#bfbfbf" points="112,-724.5 161,-724.5 "/>
<text text-anchor="middle" x="136.5" y="-712.5" font-family="Helvetica,sans-Serif" font-size="10.00" fill="#000000"> </text>
</g>
<!-- Node14&#45;&gt;Node13 -->
<g id="edge4" class="edge">
<title>Node14&#45;&gt;Node13</title>
<path fill="none" stroke="#404040" d="M139.4426,-705.2548C142.2556,-682.1636 147.3038,-649.0713 155.5,-621 163.1958,-594.6426 174.3022,-566.6687 184.995,-542.3359"/>
<polygon fill="none" stroke="#404040" points="185.1334,-542.0259 183.9292,-534.9161 190.029,-531.0699 191.2332,-538.1797 185.1334,-542.0259"/>
<text text-anchor="middle" x="184.5" y="-651.5" font-family="Helvetica,sans-Serif" font-size="10.00" fill="#000000"> +elements</text>
</g>
<!-- Node15 -->
<g id="node6" class="node">
<title>Node15</title>
<polygon fill="#ffffff" stroke="#bfbfbf" points="197,-705.5 197,-762.5 238,-762.5 238,-705.5 197,-705.5"/>
<text text-anchor="middle" x="217.5" y="-750.5" font-family="Helvetica,sans-Serif" font-size="10.00" fill="#000000">Time</text>
<polyline fill="none" stroke="#bfbfbf" points="197,-743.5 238,-743.5 "/>
<text text-anchor="middle" x="217.5" y="-731.5" font-family="Helvetica,sans-Serif" font-size="10.00" fill="#000000"> </text>
<polyline fill="none" stroke="#bfbfbf" points="197,-724.5 238,-724.5 "/>
<text text-anchor="middle" x="217.5" y="-712.5" font-family="Helvetica,sans-Serif" font-size="10.00" fill="#000000"> </text>
</g>
<!-- Node15&#45;&gt;Node13 -->
<g id="edge5" class="edge">
<title>Node15&#45;&gt;Node13</title>
<path fill="none" stroke="#404040" d="M217.5,-705.2929C217.5,-666.5186 217.5,-596.1948 217.5,-543.4227"/>
<polygon fill="none" stroke="#404040" points="217.5001,-543.0944 213.5,-537.0945 217.5,-531.0944 221.5,-537.0944 217.5001,-543.0944"/>
<text text-anchor="middle" x="235" y="-651.5" font-family="Helvetica,sans-Serif" font-size="10.00" fill="#000000"> +keys</text>
</g>
<!-- Node16 -->
<g id="node7" class="node">
<title>Node16</title>
<g id="a_node7"><a xlink:title="STL class. ">
<polygon fill="#ffffff" stroke="#bfbfbf" points="256,-705.5 256,-762.5 357,-762.5 357,-705.5 256,-705.5"/>
<text text-anchor="middle" x="306.5" y="-750.5" font-family="Helvetica,sans-Serif" font-size="10.00" fill="#000000">std::map&lt; K, T &gt;</text>
<polyline fill="none" stroke="#bfbfbf" points="256,-743.5 357,-743.5 "/>
<text text-anchor="middle" x="306.5" y="-731.5" font-family="Helvetica,sans-Serif" font-size="10.00" fill="#000000"> </text>
<polyline fill="none" stroke="#bfbfbf" points="256,-724.5 357,-724.5 "/>
<text text-anchor="middle" x="306.5" y="-712.5" font-family="Helvetica,sans-Serif" font-size="10.00" fill="#000000"> </text>
</a>
</g>
</g>
<!-- Node16&#45;&gt;Node13 -->
<g id="edge6" class="edge">
<title>Node16&#45;&gt;Node13</title>
<path fill="none" stroke="#ffa500" d="M293.3251,-695.6595C278.3799,-652.1674 253.8702,-580.8414 236.7757,-531.0944"/>
<polygon fill="#ffa500" stroke="#ffa500" points="290.0755,-696.9731 296.6354,-705.2929 296.6956,-694.6982 290.0755,-696.9731"/>
<text text-anchor="start" x="288.5" y="-679" font-family="Helvetica,sans-Serif" font-size="10.00" fill="#000000"> &lt; Time, FRAME, std</text>
<text text-anchor="start" x="288.5" y="-668" font-family="Helvetica,sans-Serif" font-size="10.00" fill="#000000">::less&lt; Time &gt;, Ra::</text>
<text text-anchor="start" x="288.5" y="-657" font-family="Helvetica,sans-Serif" font-size="10.00" fill="#000000">Core::AlignedAllocator</text>
<text text-anchor="start" x="288.5" y="-646" font-family="Helvetica,sans-Serif" font-size="10.00" fill="#000000">&lt; std::pair&lt; const Time,</text>
<text text-anchor="start" x="288.5" y="-635" font-family="Helvetica,sans-Serif" font-size="10.00" fill="#000000"> FRAME &gt;, EIGEN_MAX_ALIGN</text>
<text text-anchor="middle" x="361" y="-624" font-family="Helvetica,sans-Serif" font-size="10.00" fill="#000000">_BYTES &gt; &gt;</text>
</g>
<!-- Node17 -->
<g id="node8" class="node">
<title>Node17</title>
<polygon fill="#ffffff" stroke="#bfbfbf" points="263,-810.5 263,-867.5 292,-867.5 292,-810.5 263,-810.5"/>
<text text-anchor="middle" x="277.5" y="-855.5" font-family="Helvetica,sans-Serif" font-size="10.00" fill="#000000">K</text>
<polyline fill="none" stroke="#bfbfbf" points="263,-848.5 292,-848.5 "/>
<text text-anchor="middle" x="277.5" y="-836.5" font-family="Helvetica,sans-Serif" font-size="10.00" fill="#000000"> </text>
<polyline fill="none" stroke="#bfbfbf" points="263,-829.5 292,-829.5 "/>
<text text-anchor="middle" x="277.5" y="-817.5" font-family="Helvetica,sans-Serif" font-size="10.00" fill="#000000"> </text>
</g>
<!-- Node17&#45;&gt;Node16 -->
<g id="edge7" class="edge">
<title>Node17&#45;&gt;Node16</title>
<path fill="none" stroke="#404040" d="M275.0824,-810.2487C275.0514,-800.7798 275.8536,-790.2989 278.5,-781 279.2288,-778.4393 280.1336,-775.8758 281.1673,-773.341"/>
<polygon fill="none" stroke="#404040" points="281.1765,-773.3217 280.1721,-766.1809 286.3774,-762.5073 287.3818,-769.6481 281.1765,-773.3217"/>
<text text-anchor="middle" x="296" y="-784" font-family="Helvetica,sans-Serif" font-size="10.00" fill="#000000"> +keys</text>
</g>
<!-- Node18 -->
<g id="node9" class="node">
<title>Node18</title>
<polygon fill="#ffffff" stroke="#bfbfbf" points="321,-810.5 321,-867.5 350,-867.5 350,-810.5 321,-810.5"/>
<text text-anchor="middle" x="335.5" y="-855.5" font-family="Helvetica,sans-Serif" font-size="10.00" fill="#000000">T</text>
<polyline fill="none" stroke="#bfbfbf" points="321,-848.5 350,-848.5 "/>
<text text-anchor="middle" x="335.5" y="-836.5" font-family="Helvetica,sans-Serif" font-size="10.00" fill="#000000"> </text>
<polyline fill="none" stroke="#bfbfbf" points="321,-829.5 350,-829.5 "/>
<text text-anchor="middle" x="335.5" y="-817.5" font-family="Helvetica,sans-Serif" font-size="10.00" fill="#000000"> </text>
</g>
<!-- Node18&#45;&gt;Node16 -->
<g id="edge8" class="edge">
<title>Node18&#45;&gt;Node16</title>
<path fill="none" stroke="#404040" d="M327.5756,-810.3083C324.5067,-799.1966 320.9391,-786.2796 317.6214,-774.2673"/>
<polygon fill="none" stroke="#404040" points="317.6095,-774.224 312.1565,-769.5054 314.4148,-762.657 319.8678,-767.3756 317.6095,-774.224"/>
<text text-anchor="middle" x="350.5" y="-784" font-family="Helvetica,sans-Serif" font-size="10.00" fill="#000000"> +elements</text>
</g>
</g>
</svg>
