<?xml version="1.0" encoding="UTF-8" standalone="no"?>
<!DOCTYPE svg PUBLIC "-//W3C//DTD SVG 1.1//EN"
 "http://www.w3.org/Graphics/SVG/1.1/DTD/svg11.dtd">
<!-- Generated by graphviz version 2.40.1 (20161225.0304)
 -->
<!-- Title: Ra::Gui::Viewer::addRenderer Pages: 1 -->
<svg width="1551pt" height="350pt"
 viewBox="0.00 0.00 1551.00 350.00" xmlns="http://www.w3.org/2000/svg" xmlns:xlink="http://www.w3.org/1999/xlink">
<g id="graph0" class="graph" transform="scale(1 1) rotate(0) translate(4 346)">
<title>Ra::Gui::Viewer::addRenderer</title>
<polygon fill="#ffffff" stroke="transparent" points="-4,4 -4,-346 1547,-346 1547,4 -4,4"/>
<!-- Node4 -->
<g id="node1" class="node">
<title>Node4</title>
<polygon fill="#bfbfbf" stroke="#000000" points="0,-121 0,-140 159,-140 159,-121 0,-121"/>
<text text-anchor="middle" x="79.5" y="-128" font-family="Helvetica,sans-Serif" font-size="10.00" fill="#000000">Ra::Gui::Viewer::addRenderer</text>
</g>
<!-- Node5 -->
<g id="node2" class="node">
<title>Node5</title>
<g id="a_node2"><a xlink:href="classRa_1_1Gui_1_1WindowQt.html#a78476baacd2df24a260f604d02c8ddc4" target="_top" xlink:title="Ra::Gui::WindowQt::\lmakeCurrent">
<polygon fill="#ffffff" stroke="#000000" points="208,-164.5 208,-194.5 322,-194.5 322,-164.5 208,-164.5"/>
<text text-anchor="start" x="216" y="-182.5" font-family="Helvetica,sans-Serif" font-size="10.00" fill="#000000">Ra::Gui::WindowQt::</text>
<text text-anchor="middle" x="265" y="-171.5" font-family="Helvetica,sans-Serif" font-size="10.00" fill="#000000">makeCurrent</text>
</a>
</g>
</g>
<!-- Node4&#45;&gt;Node5 -->
<g id="edge1" class="edge">
<title>Node4&#45;&gt;Node5</title>
<path fill="none" stroke="#191970" d="M115.7066,-140.064C139.1915,-146.2676 170.4976,-154.5371 198.3751,-161.901"/>
<polygon fill="#191970" stroke="#191970" points="197.5121,-165.293 208.0744,-164.463 199.2999,-158.5251 197.5121,-165.293"/>
</g>
<!-- Node6 -->
<g id="node3" class="node">
<title>Node6</title>
<g id="a_node3"><a xlink:href="classRa_1_1Gui_1_1Viewer.html#a0cc3560d7d694b69e93b9d18aec1c607" target="_top" xlink:title="Initialize renderer internal state + configure lights. ">
<polygon fill="#ffffff" stroke="#000000" points="195,-115.5 195,-145.5 335,-145.5 335,-115.5 195,-115.5"/>
<text text-anchor="start" x="203" y="-133.5" font-family="Helvetica,sans-Serif" font-size="10.00" fill="#000000">Ra::Gui::Viewer::initialize</text>
<text text-anchor="middle" x="265" y="-122.5" font-family="Helvetica,sans-Serif" font-size="10.00" fill="#000000">Renderer</text>
</a>
</g>
</g>
<!-- Node4&#45;&gt;Node6 -->
<g id="edge2" class="edge">
<title>Node4&#45;&gt;Node6</title>
<path fill="none" stroke="#191970" d="M159.2452,-130.5C167.6925,-130.5 176.2865,-130.5 184.7396,-130.5"/>
<polygon fill="#191970" stroke="#191970" points="184.9613,-134.0001 194.9613,-130.5 184.9613,-127.0001 184.9613,-134.0001"/>
</g>
<!-- Node31 -->
<g id="node28" class="node">
<title>Node31</title>
<g id="a_node28"><a xlink:href="classRa_1_1Gui_1_1WindowQt.html#acd31b9e580f049491d13c16ef954d964" target="_top" xlink:title="Ra::Gui::WindowQt::\ldoneCurrent">
<polygon fill="#ffffff" stroke="#000000" points="208,-66.5 208,-96.5 322,-96.5 322,-66.5 208,-66.5"/>
<text text-anchor="start" x="216" y="-84.5" font-family="Helvetica,sans-Serif" font-size="10.00" fill="#000000">Ra::Gui::WindowQt::</text>
<text text-anchor="middle" x="265" y="-73.5" font-family="Helvetica,sans-Serif" font-size="10.00" fill="#000000">doneCurrent</text>
</a>
</g>
</g>
<!-- Node4&#45;&gt;Node31 -->
<g id="edge31" class="edge">
<title>Node4&#45;&gt;Node31</title>
<path fill="none" stroke="#191970" d="M115.7066,-120.936C139.1915,-114.7324 170.4976,-106.4629 198.3751,-99.099"/>
<polygon fill="#191970" stroke="#191970" points="199.2999,-102.4749 208.0744,-96.537 197.5121,-95.707 199.2999,-102.4749"/>
</g>
<!-- Node7 -->
<g id="node4" class="node">
<title>Node7</title>
<g id="a_node4"><a xlink:href="classRa_1_1Engine_1_1Renderer.html#af7d65da9d3a185ede31e308d79398259" target="_top" xlink:title="Initialize renderer. ">
<polygon fill="#ffffff" stroke="#000000" points="372.5,-164.5 372.5,-194.5 490.5,-194.5 490.5,-164.5 372.5,-164.5"/>
<text text-anchor="start" x="380.5" y="-182.5" font-family="Helvetica,sans-Serif" font-size="10.00" fill="#000000">Ra::Engine::Renderer</text>
<text text-anchor="middle" x="431.5" y="-171.5" font-family="Helvetica,sans-Serif" font-size="10.00" fill="#000000">::initialize</text>
</a>
</g>
</g>
<!-- Node6&#45;&gt;Node7 -->
<g id="edge3" class="edge">
<title>Node6&#45;&gt;Node7</title>
<path fill="none" stroke="#191970" d="M316.3141,-145.6014C333.4862,-150.6551 352.7952,-156.3376 370.625,-161.5848"/>
<polygon fill="#191970" stroke="#191970" points="369.774,-164.9828 380.3554,-164.4484 371.7503,-158.2675 369.774,-164.9828"/>
</g>
<!-- Node29 -->
<g id="node26" class="node">
<title>Node29</title>
<g id="a_node26"><a xlink:href="classRa_1_1Engine_1_1Renderer.html#a756b68241ef8d803e97ddf7f97c4ee39" target="_top" xlink:title="Update the background color (does not trigger a redraw) ">
<polygon fill="#ffffff" stroke="#000000" points="371,-115.5 371,-145.5 492,-145.5 492,-115.5 371,-115.5"/>
<text text-anchor="start" x="379" y="-133.5" font-family="Helvetica,sans-Serif" font-size="10.00" fill="#000000">Ra::Engine::Renderer</text>
<text text-anchor="middle" x="431.5" y="-122.5" font-family="Helvetica,sans-Serif" font-size="10.00" fill="#000000">::setBackgroundColor</text>
</a>
</g>
</g>
<!-- Node6&#45;&gt;Node29 -->
<g id="edge29" class="edge">
<title>Node6&#45;&gt;Node29</title>
<path fill="none" stroke="#191970" d="M335.1284,-130.5C343.595,-130.5 352.2474,-130.5 360.7232,-130.5"/>
<polygon fill="#191970" stroke="#191970" points="360.95,-134.0001 370.95,-130.5 360.9499,-127.0001 360.95,-134.0001"/>
</g>
<!-- Node30 -->
<g id="node27" class="node">
<title>Node30</title>
<g id="a_node27"><a xlink:href="classRa_1_1Engine_1_1Renderer.html#a3166160850c466595fe48a74116bc116" target="_top" xlink:title="Ra::Engine::Renderer\l::lockRendering">
<polygon fill="#ffffff" stroke="#000000" points="372.5,-66.5 372.5,-96.5 490.5,-96.5 490.5,-66.5 372.5,-66.5"/>
<text text-anchor="start" x="380.5" y="-84.5" font-family="Helvetica,sans-Serif" font-size="10.00" fill="#000000">Ra::Engine::Renderer</text>
<text text-anchor="middle" x="431.5" y="-73.5" font-family="Helvetica,sans-Serif" font-size="10.00" fill="#000000">::lockRendering</text>
</a>
</g>
</g>
<!-- Node6&#45;&gt;Node30 -->
<g id="edge30" class="edge">
<title>Node6&#45;&gt;Node30</title>
<path fill="none" stroke="#191970" d="M316.3141,-115.3986C333.4862,-110.3449 352.7952,-104.6624 370.625,-99.4152"/>
<polygon fill="#191970" stroke="#191970" points="371.7503,-102.7325 380.3554,-96.5516 369.774,-96.0172 371.7503,-102.7325"/>
</g>
<!-- Node8 -->
<g id="node5" class="node">
<title>Node8</title>
<g id="a_node5"><a xlink:href="namespaceRa_1_1Core_1_1Resources.html#aefb858008bce4916fa3cfcef244aeda0" target="_top" xlink:title="Ra::Core::Resources\l::getRadiumResourcesDir">
<polygon fill="#ffffff" stroke="#000000" points="544.5,-311.5 544.5,-341.5 684.5,-341.5 684.5,-311.5 544.5,-311.5"/>
<text text-anchor="start" x="552.5" y="-329.5" font-family="Helvetica,sans-Serif" font-size="10.00" fill="#000000">Ra::Core::Resources</text>
<text text-anchor="middle" x="614.5" y="-318.5" font-family="Helvetica,sans-Serif" font-size="10.00" fill="#000000">::getRadiumResourcesDir</text>
</a>
</g>
</g>
<!-- Node7&#45;&gt;Node8 -->
<g id="edge4" class="edge">
<title>Node7&#45;&gt;Node8</title>
<path fill="none" stroke="#191970" d="M439.0996,-194.5172C453.0615,-220.5612 485.3201,-274.0409 528,-302.5 530.4312,-304.1211 532.9703,-305.6335 535.5884,-307.0445"/>
<polygon fill="#191970" stroke="#191970" points="534.2247,-310.2725 544.7527,-311.461 537.2638,-303.9665 534.2247,-310.2725"/>
</g>
<!-- Node10 -->
<g id="node7" class="node">
<title>Node10</title>
<g id="a_node7"><a xlink:href="classRa_1_1Engine_1_1ShaderProgramManager.html#a82a7361639c0fbd401447e2d253dc961" target="_top" xlink:title="Ra::Engine::ShaderProgram\lManager::addShaderProgram">
<polygon fill="#ffffff" stroke="#000000" points="535.5,-262.5 535.5,-292.5 693.5,-292.5 693.5,-262.5 535.5,-262.5"/>
<text text-anchor="start" x="543.5" y="-280.5" font-family="Helvetica,sans-Serif" font-size="10.00" fill="#000000">Ra::Engine::ShaderProgram</text>
<text text-anchor="middle" x="614.5" y="-269.5" font-family="Helvetica,sans-Serif" font-size="10.00" fill="#000000">Manager::addShaderProgram</text>
</a>
</g>
</g>
<!-- Node7&#45;&gt;Node10 -->
<g id="edge6" class="edge">
<title>Node7&#45;&gt;Node10</title>
<path fill="none" stroke="#191970" d="M447.2649,-194.7103C465.3705,-211.3919 496.6343,-237.8652 528,-253.5 531.9512,-255.4695 536.0871,-257.2971 540.3185,-258.9899"/>
<polygon fill="#191970" stroke="#191970" points="539.1069,-262.2734 549.6996,-262.4835 541.5498,-255.7136 539.1069,-262.2734"/>
</g>
<!-- Node12 -->
<g id="node9" class="node">
<title>Node12</title>
<g id="a_node9"><a xlink:href="classRa_1_1Engine_1_1ShaderConfiguration.html#a8ffa1714a9e63a320acaa7873fb99797" target="_top" xlink:title="Ra::Engine::ShaderConfiguration\l::addShader">
<polygon fill="#ffffff" stroke="#000000" points="528,-213.5 528,-243.5 701,-243.5 701,-213.5 528,-213.5"/>
<text text-anchor="start" x="536" y="-231.5" font-family="Helvetica,sans-Serif" font-size="10.00" fill="#000000">Ra::Engine::ShaderConfiguration</text>
<text text-anchor="middle" x="614.5" y="-220.5" font-family="Helvetica,sans-Serif" font-size="10.00" fill="#000000">::addShader</text>
</a>
</g>
</g>
<!-- Node7&#45;&gt;Node12 -->
<g id="edge8" class="edge">
<title>Node7&#45;&gt;Node12</title>
<path fill="none" stroke="#191970" d="M487.8993,-194.6014C507.0353,-199.7253 528.5855,-205.4956 548.4079,-210.8032"/>
<polygon fill="#191970" stroke="#191970" points="547.722,-214.2428 558.287,-213.4484 549.5325,-207.481 547.722,-214.2428"/>
</g>
<!-- Node13 -->
<g id="node10" class="node">
<title>Node13</title>
<g id="a_node10"><a xlink:href="namespaceRa_1_1Engine_1_1ShaderConfigurationFactory.html#a36842535508a390108fb1205210a5c49" target="_top" xlink:title="Ra::Engine::ShaderConfiguration\lFactory::addConfiguration">
<polygon fill="#ffffff" stroke="#000000" points="528,-164.5 528,-194.5 701,-194.5 701,-164.5 528,-164.5"/>
<text text-anchor="start" x="536" y="-182.5" font-family="Helvetica,sans-Serif" font-size="10.00" fill="#000000">Ra::Engine::ShaderConfiguration</text>
<text text-anchor="middle" x="614.5" y="-171.5" font-family="Helvetica,sans-Serif" font-size="10.00" fill="#000000">Factory::addConfiguration</text>
</a>
</g>
</g>
<!-- Node7&#45;&gt;Node13 -->
<g id="edge9" class="edge">
<title>Node7&#45;&gt;Node13</title>
<path fill="none" stroke="#191970" d="M490.6621,-179.5C499.4045,-179.5 508.599,-179.5 517.8638,-179.5"/>
<polygon fill="#191970" stroke="#191970" points="517.9268,-183.0001 527.9267,-179.5 517.9267,-176.0001 517.9268,-183.0001"/>
</g>
<!-- Node14 -->
<g id="node11" class="node">
<title>Node14</title>
<g id="a_node11"><a xlink:href="namespaceRa_1_1Core_1_1Geometry.html#ad5f12dda8ca32de7363062238f1d6ccd" target="_top" xlink:title="Create a 2D quad mesh given half extents, centered on the origin with z axis as normal. ">
<polygon fill="#ffffff" stroke="#000000" points="555,-115.5 555,-145.5 674,-145.5 674,-115.5 555,-115.5"/>
<text text-anchor="start" x="563" y="-133.5" font-family="Helvetica,sans-Serif" font-size="10.00" fill="#000000">Ra::Core::Geometry</text>
<text text-anchor="middle" x="614.5" y="-122.5" font-family="Helvetica,sans-Serif" font-size="10.00" fill="#000000">::makeZNormalQuad</text>
</a>
</g>
</g>
<!-- Node7&#45;&gt;Node14 -->
<g id="edge10" class="edge">
<title>Node7&#45;&gt;Node14</title>
<path fill="none" stroke="#191970" d="M487.8993,-164.3986C507.0353,-159.2747 528.5855,-153.5044 548.4079,-148.1968"/>
<polygon fill="#191970" stroke="#191970" points="549.5325,-151.519 558.287,-145.5516 547.722,-144.7572 549.5325,-151.519"/>
</g>
<!-- Node26 -->
<g id="node23" class="node">
<title>Node26</title>
<g id="a_node23"><a xlink:href="classRa_1_1Engine_1_1Renderer.html#ab793c712188ab407165f2e8a5f80ceb0" target="_top" xlink:title="initializeInternal Initialize the renderer dependant resources. ">
<polygon fill="#ffffff" stroke="#000000" points="555.5,-66.5 555.5,-96.5 673.5,-96.5 673.5,-66.5 555.5,-66.5"/>
<text text-anchor="start" x="563.5" y="-84.5" font-family="Helvetica,sans-Serif" font-size="10.00" fill="#000000">Ra::Engine::Renderer</text>
<text text-anchor="middle" x="614.5" y="-73.5" font-family="Helvetica,sans-Serif" font-size="10.00" fill="#000000">::initializeInternal</text>
</a>
</g>
</g>
<!-- Node7&#45;&gt;Node26 -->
<g id="edge26" class="edge">
<title>Node7&#45;&gt;Node26</title>
<path fill="none" stroke="#191970" d="M477.6021,-164.4377C482.6956,-161.8509 487.6171,-158.8834 492,-155.5 513.3913,-138.9868 505.8387,-121.9644 528,-106.5 533.5123,-102.6534 539.6133,-99.3937 545.9497,-96.6322"/>
<polygon fill="#191970" stroke="#191970" points="547.3345,-99.8487 555.3606,-92.9326 544.7733,-93.334 547.3345,-99.8487"/>
</g>
<!-- Node27 -->
<g id="node24" class="node">
<title>Node27</title>
<g id="a_node24"><a xlink:href="classRa_1_1Engine_1_1Renderer.html#a7343dbeb04c9699cc2abf2690c9941ee" target="_top" xlink:title="Resize the viewport and all the screen textures, fbos. This function must be overrided as soon as som...">
<polygon fill="#ffffff" stroke="#000000" points="555.5,-17.5 555.5,-47.5 673.5,-47.5 673.5,-17.5 555.5,-17.5"/>
<text text-anchor="start" x="563.5" y="-35.5" font-family="Helvetica,sans-Serif" font-size="10.00" fill="#000000">Ra::Engine::Renderer</text>
<text text-anchor="middle" x="614.5" y="-24.5" font-family="Helvetica,sans-Serif" font-size="10.00" fill="#000000">::resize</text>
</a>
</g>
</g>
<!-- Node7&#45;&gt;Node27 -->
<g id="edge27" class="edge">
<title>Node7&#45;&gt;Node27</title>
<path fill="none" stroke="#191970" d="M480.7045,-164.3506C484.8333,-161.8279 488.6874,-158.8985 492,-155.5 524.3879,-122.2719 494.0503,-89.1307 528,-57.5 533.1485,-52.7032 539.161,-48.8203 545.5744,-45.6782"/>
<polygon fill="#191970" stroke="#191970" points="547.3701,-48.7181 555.2038,-41.5848 544.6315,-42.276 547.3701,-48.7181"/>
</g>
<!-- Node9 -->
<g id="node6" class="node">
<title>Node9</title>
<g id="a_node6"><a xlink:href="namespaceRa_1_1Core_1_1Resources.html#a96e7523ac5a9f47629ee73938db23790" target="_top" xlink:title="Ra::Core::Resources\l::searchPath">
<polygon fill="#ffffff" stroke="#000000" points="767,-311.5 767,-341.5 880,-341.5 880,-311.5 767,-311.5"/>
<text text-anchor="start" x="775" y="-329.5" font-family="Helvetica,sans-Serif" font-size="10.00" fill="#000000">Ra::Core::Resources</text>
<text text-anchor="middle" x="823.5" y="-318.5" font-family="Helvetica,sans-Serif" font-size="10.00" fill="#000000">::searchPath</text>
</a>
</g>
</g>
<!-- Node8&#45;&gt;Node9 -->
<g id="edge5" class="edge">
<title>Node8&#45;&gt;Node9</title>
<path fill="none" stroke="#191970" d="M684.6754,-326.5C707.918,-326.5 733.7092,-326.5 756.6917,-326.5"/>
<polygon fill="#191970" stroke="#191970" points="756.6929,-330.0001 766.6928,-326.5 756.6928,-323.0001 756.6929,-330.0001"/>
</g>
<!-- Node11 -->
<g id="node8" class="node">
<title>Node11</title>
<g id="a_node8"><a xlink:href="classRa_1_1Engine_1_1ShaderConfiguration.html#a90822998fc1253faf6655348f7d9f43e" target="_top" xlink:title="Ra::Engine::ShaderConfiguration\l::getNamedStrings">
<polygon fill="#ffffff" stroke="#000000" points="737,-262.5 737,-292.5 910,-292.5 910,-262.5 737,-262.5"/>
<text text-anchor="start" x="745" y="-280.5" font-family="Helvetica,sans-Serif" font-size="10.00" fill="#000000">Ra::Engine::ShaderConfiguration</text>
<text text-anchor="middle" x="823.5" y="-269.5" font-family="Helvetica,sans-Serif" font-size="10.00" fill="#000000">::getNamedStrings</text>
</a>
</g>
</g>
<!-- Node10&#45;&gt;Node11 -->
<g id="edge7" class="edge">
<title>Node10&#45;&gt;Node11</title>
<path fill="none" stroke="#191970" d="M693.5139,-277.5C704.3113,-277.5 715.4953,-277.5 726.5655,-277.5"/>
<polygon fill="#191970" stroke="#191970" points="726.6856,-281.0001 736.6856,-277.5 726.6856,-274.0001 726.6856,-281.0001"/>
</g>
<!-- Node15 -->
<g id="node12" class="node">
<title>Node15</title>
<g id="a_node12"><a xlink:href="namespaceRa_1_1Core_1_1Geometry.html#a9f66e13e9a53313225543f2f1abcda8e" target="_top" xlink:title="Create a 2D grid mesh with given number of row and columns. ">
<polygon fill="#ffffff" stroke="#000000" points="767,-115.5 767,-145.5 880,-145.5 880,-115.5 767,-115.5"/>
<text text-anchor="start" x="775" y="-133.5" font-family="Helvetica,sans-Serif" font-size="10.00" fill="#000000">Ra::Core::Geometry</text>
<text text-anchor="middle" x="823.5" y="-122.5" font-family="Helvetica,sans-Serif" font-size="10.00" fill="#000000">::makePlaneGrid</text>
</a>
</g>
</g>
<!-- Node14&#45;&gt;Node15 -->
<g id="edge11" class="edge">
<title>Node14&#45;&gt;Node15</title>
<path fill="none" stroke="#191970" d="M674.1113,-130.5C699.7813,-130.5 729.9132,-130.5 756.3661,-130.5"/>
<polygon fill="#191970" stroke="#191970" points="756.6869,-134.0001 766.6869,-130.5 756.6869,-127.0001 756.6869,-134.0001"/>
</g>
<!-- Node16 -->
<g id="node13" class="node">
<title>Node16</title>
<g id="a_node13"><a xlink:href="classRa_1_1Core_1_1Grid.html#ac78b9eee5519a5287b1bc7a898b4ea01" target="_top" xlink:title="Access an element with a D&#45;dimensional index. ">
<polygon fill="#ffffff" stroke="#000000" points="997.5,-230 997.5,-249 1097.5,-249 1097.5,-230 997.5,-230"/>
<text text-anchor="middle" x="1047.5" y="-237" font-family="Helvetica,sans-Serif" font-size="10.00" fill="#000000">Ra::Core::Grid::at</text>
</a>
</g>
</g>
<!-- Node15&#45;&gt;Node16 -->
<g id="edge12" class="edge">
<title>Node15&#45;&gt;Node16</title>
<path fill="none" stroke="#191970" d="M839.0549,-145.6111C860.9924,-166.002 903.1485,-201.9089 946,-220.5 958.9034,-226.0981 973.4312,-230.0495 987.3757,-232.8377"/>
<polygon fill="#191970" stroke="#191970" points="986.9284,-236.3138 997.3948,-234.6692 988.1873,-229.4279 986.9284,-236.3138"/>
</g>
<!-- Node17 -->
<g id="node14" class="node">
<title>Node17</title>
<g id="a_node14"><a xlink:href="classRa_1_1Core_1_1Geometry_1_1AttribArrayGeometry.html#a887411177386edbcdc35d0c6bf78a83a" target="_top" xlink:title="Set vertices. ">
<polygon fill="#ffffff" stroke="#000000" points="985,-110 985,-151 1110,-151 1110,-110 985,-110"/>
<text text-anchor="start" x="993" y="-139" font-family="Helvetica,sans-Serif" font-size="10.00" fill="#000000">Ra::Core::Geometry</text>
<text text-anchor="start" x="993" y="-128" font-family="Helvetica,sans-Serif" font-size="10.00" fill="#000000">::AttribArrayGeometry</text>
<text text-anchor="middle" x="1047.5" y="-117" font-family="Helvetica,sans-Serif" font-size="10.00" fill="#000000">::setVertices</text>
</a>
</g>
</g>
<!-- Node15&#45;&gt;Node17 -->
<g id="edge13" class="edge">
<title>Node15&#45;&gt;Node17</title>
<path fill="none" stroke="#191970" d="M880.0247,-130.5C908.6696,-130.5 943.7915,-130.5 974.4608,-130.5"/>
<polygon fill="#191970" stroke="#191970" points="974.6753,-134.0001 984.6752,-130.5 974.6752,-127.0001 974.6753,-134.0001"/>
</g>
<!-- Node21 -->
<g id="node18" class="node">
<title>Node21</title>
<g id="a_node18"><a xlink:href="classRa_1_1Core_1_1Geometry_1_1AttribArrayGeometry.html#a646faabae9b936589fe03d8a9d2002e9" target="_top" xlink:title="Set normals. ">
<polygon fill="#ffffff" stroke="#000000" points="985,-50 985,-91 1110,-91 1110,-50 985,-50"/>
<text text-anchor="start" x="993" y="-79" font-family="Helvetica,sans-Serif" font-size="10.00" fill="#000000">Ra::Core::Geometry</text>
<text text-anchor="start" x="993" y="-68" font-family="Helvetica,sans-Serif" font-size="10.00" fill="#000000">::AttribArrayGeometry</text>
<text text-anchor="middle" x="1047.5" y="-57" font-family="Helvetica,sans-Serif" font-size="10.00" fill="#000000">::setNormals</text>
</a>
</g>
</g>
<!-- Node15&#45;&gt;Node21 -->
<g id="edge17" class="edge">
<title>Node15&#45;&gt;Node21</title>
<path fill="none" stroke="#191970" d="M879.7355,-115.4369C908.6197,-107.7001 944.1473,-98.1838 975.061,-89.9033"/>
<polygon fill="#191970" stroke="#191970" points="976.1676,-93.2304 984.9215,-87.2621 974.3564,-86.4687 976.1676,-93.2304"/>
</g>
<!-- Node23 -->
<g id="node20" class="node">
<title>Node23</title>
<g id="a_node20"><a xlink:href="classRa_1_1Core_1_1Geometry_1_1AttribArrayGeometry.html#a3a3a1458f93f23c7c8663bc3d52f7841" target="_top" xlink:title="Ra::Core::Geometry\l::AttribArrayGeometry\l::colorize">
<polygon fill="#ffffff" stroke="#000000" points="985,-170 985,-211 1110,-211 1110,-170 985,-170"/>
<text text-anchor="start" x="993" y="-199" font-family="Helvetica,sans-Serif" font-size="10.00" fill="#000000">Ra::Core::Geometry</text>
<text text-anchor="start" x="993" y="-188" font-family="Helvetica,sans-Serif" font-size="10.00" fill="#000000">::AttribArrayGeometry</text>
<text text-anchor="middle" x="1047.5" y="-177" font-family="Helvetica,sans-Serif" font-size="10.00" fill="#000000">::colorize</text>
</a>
</g>
</g>
<!-- Node15&#45;&gt;Node23 -->
<g id="edge21" class="edge">
<title>Node15&#45;&gt;Node23</title>
<path fill="none" stroke="#191970" d="M879.7355,-145.5631C908.6197,-153.2999 944.1473,-162.8162 975.061,-171.0967"/>
<polygon fill="#191970" stroke="#191970" points="974.3564,-174.5313 984.9215,-173.7379 976.1676,-167.7696 974.3564,-174.5313"/>
</g>
<!-- Node25 -->
<g id="node22" class="node">
<title>Node25</title>
<g id="a_node22"><a xlink:href="classRa_1_1Core_1_1Geometry_1_1IndexedGeometry.html#a927f636cf0698e637cc23e2f7f012a48" target="_top" xlink:title="Ra::Core::Geometry\l::IndexedGeometry::checkConsistency">
<polygon fill="#ffffff" stroke="#000000" points="946,-.5 946,-30.5 1149,-30.5 1149,-.5 946,-.5"/>
<text text-anchor="start" x="954" y="-18.5" font-family="Helvetica,sans-Serif" font-size="10.00" fill="#000000">Ra::Core::Geometry</text>
<text text-anchor="middle" x="1047.5" y="-7.5" font-family="Helvetica,sans-Serif" font-size="10.00" fill="#000000">::IndexedGeometry::checkConsistency</text>
</a>
</g>
</g>
<!-- Node15&#45;&gt;Node25 -->
<g id="edge25" class="edge">
<title>Node15&#45;&gt;Node25</title>
<path fill="none" stroke="#191970" d="M839.5864,-115.3919C861.8054,-95.3398 903.9292,-60.1811 946,-40.5 951.2654,-38.0368 956.8022,-35.7986 962.4601,-33.7677"/>
<polygon fill="#191970" stroke="#191970" points="963.703,-37.0424 972.0696,-30.5423 961.4756,-30.4063 963.703,-37.0424"/>
</g>
<!-- Node18 -->
<g id="node15" class="node">
<title>Node18</title>
<g id="a_node15"><a xlink:href="classRa_1_1Core_1_1Utils_1_1AttribManager.html#a056b7697cfbedd6b20dde6ce7955094e" target="_top" xlink:title="Ra::Core::Utils::AttribManager\l::setAttrib">
<polygon fill="#ffffff" stroke="#000000" points="1185,-85.5 1185,-115.5 1346,-115.5 1346,-85.5 1185,-85.5"/>
<text text-anchor="start" x="1193" y="-103.5" font-family="Helvetica,sans-Serif" font-size="10.00" fill="#000000">Ra::Core::Utils::AttribManager</text>
<text text-anchor="middle" x="1265.5" y="-92.5" font-family="Helvetica,sans-Serif" font-size="10.00" fill="#000000">::setAttrib</text>
</a>
</g>
</g>
<!-- Node17&#45;&gt;Node18 -->
<g id="edge14" class="edge">
<title>Node17&#45;&gt;Node18</title>
<path fill="none" stroke="#191970" d="M1110.2622,-121.863C1130.4417,-119.086 1153.2166,-115.9518 1174.9792,-112.957"/>
<polygon fill="#191970" stroke="#191970" points="1175.4646,-116.4233 1184.894,-111.5926 1174.5102,-109.4886 1175.4646,-116.4233"/>
</g>
<!-- Node19 -->
<g id="node16" class="node">
<title>Node19</title>
<g id="a_node16"><a xlink:href="classRa_1_1Core_1_1Geometry_1_1AttribArrayGeometry.html#acabe05880d71a8dc4406964c258fff5a" target="_top" xlink:title="Access the vertices positions. ">
<polygon fill="#ffffff" stroke="#000000" points="1203,-135 1203,-176 1328,-176 1328,-135 1203,-135"/>
<text text-anchor="start" x="1211" y="-164" font-family="Helvetica,sans-Serif" font-size="10.00" fill="#000000">Ra::Core::Geometry</text>
<text text-anchor="start" x="1211" y="-153" font-family="Helvetica,sans-Serif" font-size="10.00" fill="#000000">::AttribArrayGeometry</text>
<text text-anchor="middle" x="1265.5" y="-142" font-family="Helvetica,sans-Serif" font-size="10.00" fill="#000000">::vertices</text>
</a>
</g>
</g>
<!-- Node17&#45;&gt;Node19 -->
<g id="edge15" class="edge">
<title>Node17&#45;&gt;Node19</title>
<path fill="none" stroke="#191970" d="M1110.2622,-137.6975C1136.0268,-140.6522 1166.0223,-144.092 1192.7399,-147.1559"/>
<polygon fill="#191970" stroke="#191970" points="1192.4698,-150.6478 1202.8035,-148.31 1193.2674,-143.6934 1192.4698,-150.6478"/>
</g>
<!-- Node20 -->
<g id="node17" class="node">
<title>Node20</title>
<g id="a_node17"><a xlink:href="classRa_1_1Core_1_1Utils_1_1AttribManager.html#ae0cb7281ec72606a5392602b4ea50d2c" target="_top" xlink:title="Ra::Core::Utils::AttribManager\l::getAttrib">
<polygon fill="#ffffff" stroke="#000000" points="1382,-140.5 1382,-170.5 1543,-170.5 1543,-140.5 1382,-140.5"/>
<text text-anchor="start" x="1390" y="-158.5" font-family="Helvetica,sans-Serif" font-size="10.00" fill="#000000">Ra::Core::Utils::AttribManager</text>
<text text-anchor="middle" x="1462.5" y="-147.5" font-family="Helvetica,sans-Serif" font-size="10.00" fill="#000000">::getAttrib</text>
</a>
</g>
</g>
<!-- Node19&#45;&gt;Node20 -->
<g id="edge16" class="edge">
<title>Node19&#45;&gt;Node20</title>
<path fill="none" stroke="#191970" d="M1328.1027,-155.5C1341.9253,-155.5 1356.8405,-155.5 1371.5309,-155.5"/>
<polygon fill="#191970" stroke="#191970" points="1371.6492,-159.0001 1381.6492,-155.5 1371.6491,-152.0001 1371.6492,-159.0001"/>
</g>
<!-- Node21&#45;&gt;Node18 -->
<g id="edge18" class="edge">
<title>Node21&#45;&gt;Node18</title>
<path fill="none" stroke="#191970" d="M1110.2622,-79.137C1130.4417,-81.914 1153.2166,-85.0482 1174.9792,-88.043"/>
<polygon fill="#191970" stroke="#191970" points="1174.5102,-91.5114 1184.894,-89.4074 1175.4646,-84.5767 1174.5102,-91.5114"/>
</g>
<!-- Node22 -->
<g id="node19" class="node">
<title>Node22</title>
<g id="a_node19"><a xlink:href="classRa_1_1Core_1_1Geometry_1_1AttribArrayGeometry.html#abfd2320cb73c0cb14805c234af594b5e" target="_top" xlink:title="Access the vertices normals. ">
<polygon fill="#ffffff" stroke="#000000" points="1203,-25 1203,-66 1328,-66 1328,-25 1203,-25"/>
<text text-anchor="start" x="1211" y="-54" font-family="Helvetica,sans-Serif" font-size="10.00" fill="#000000">Ra::Core::Geometry</text>
<text text-anchor="start" x="1211" y="-43" font-family="Helvetica,sans-Serif" font-size="10.00" fill="#000000">::AttribArrayGeometry</text>
<text text-anchor="middle" x="1265.5" y="-32" font-family="Helvetica,sans-Serif" font-size="10.00" fill="#000000">::normals</text>
</a>
</g>
</g>
<!-- Node21&#45;&gt;Node22 -->
<g id="edge19" class="edge">
<title>Node21&#45;&gt;Node22</title>
<path fill="none" stroke="#191970" d="M1110.2622,-63.3025C1136.0268,-60.3478 1166.0223,-56.908 1192.7399,-53.8441"/>
<polygon fill="#191970" stroke="#191970" points="1193.2674,-57.3066 1202.8035,-52.69 1192.4698,-50.3522 1193.2674,-57.3066"/>
</g>
<!-- Node22&#45;&gt;Node20 -->
<g id="edge20" class="edge">
<title>Node22&#45;&gt;Node20</title>
<path fill="none" stroke="#191970" d="M1323.8085,-66.1267C1331.3941,-69.3389 1338.966,-72.8225 1346,-76.5 1378.069,-93.2663 1412.0185,-117.0692 1434.9426,-134.1581"/>
<polygon fill="#191970" stroke="#191970" points="1433.0687,-137.1284 1443.1618,-140.3501 1437.2808,-131.5374 1433.0687,-137.1284"/>
</g>
<!-- Node23&#45;&gt;Node19 -->
<g id="edge24" class="edge">
<title>Node23&#45;&gt;Node19</title>
<path fill="none" stroke="#191970" d="M1110.2622,-180.4235C1136.0268,-176.287 1166.0223,-171.4712 1192.7399,-167.1817"/>
<polygon fill="#191970" stroke="#191970" points="1193.4848,-170.607 1202.8035,-165.566 1192.3751,-163.6955 1193.4848,-170.607"/>
</g>
<!-- Node24 -->
<g id="node21" class="node">
<title>Node24</title>
<g id="a_node21"><a xlink:href="classRa_1_1Core_1_1Geometry_1_1AttribArrayGeometry.html#aeb68d9cd8cf8c1e05886a23f0ad33c59" target="_top" xlink:title="Ra::Core::Geometry\l::AttribArrayGeometry\l::getAttrib">
<polygon fill="#ffffff" stroke="#000000" points="1203,-195 1203,-236 1328,-236 1328,-195 1203,-195"/>
<text text-anchor="start" x="1211" y="-224" font-family="Helvetica,sans-Serif" font-size="10.00" fill="#000000">Ra::Core::Geometry</text>
<text text-anchor="start" x="1211" y="-213" font-family="Helvetica,sans-Serif" font-size="10.00" fill="#000000">::AttribArrayGeometry</text>
<text text-anchor="middle" x="1265.5" y="-202" font-family="Helvetica,sans-Serif" font-size="10.00" fill="#000000">::getAttrib</text>
</a>
</g>
</g>
<!-- Node23&#45;&gt;Node24 -->
<g id="edge22" class="edge">
<title>Node23&#45;&gt;Node24</title>
<path fill="none" stroke="#191970" d="M1110.2622,-197.6975C1136.0268,-200.6522 1166.0223,-204.092 1192.7399,-207.1559"/>
<polygon fill="#191970" stroke="#191970" points="1192.4698,-210.6478 1202.8035,-208.31 1193.2674,-203.6934 1192.4698,-210.6478"/>
</g>
<!-- Node24&#45;&gt;Node20 -->
<g id="edge23" class="edge">
<title>Node24&#45;&gt;Node20</title>
<path fill="none" stroke="#191970" d="M1328.1027,-196.4332C1352.2641,-189.0744 1379.7637,-180.6989 1403.5663,-173.4493"/>
<polygon fill="#191970" stroke="#191970" points="1404.6294,-176.7844 1413.1758,-170.5226 1402.5899,-170.0881 1404.6294,-176.7844"/>
</g>
<!-- Node28 -->
<g id="node25" class="node">
<title>Node28</title>
<g id="a_node25"><a xlink:href="classRa_1_1Engine_1_1Renderer.html#a18a293f1c7c6864e4f1de7f6b88b0f4a" target="_top" xlink:title="Ra::Engine::Renderer\l::resizeInternal">
<polygon fill="#ffffff" stroke="#000000" points="764.5,-17.5 764.5,-47.5 882.5,-47.5 882.5,-17.5 764.5,-17.5"/>
<text text-anchor="start" x="772.5" y="-35.5" font-family="Helvetica,sans-Serif" font-size="10.00" fill="#000000">Ra::Engine::Renderer</text>
<text text-anchor="middle" x="823.5" y="-24.5" font-family="Helvetica,sans-Serif" font-size="10.00" fill="#000000">::resizeInternal</text>
</a>
</g>
</g>
<!-- Node27&#45;&gt;Node28 -->
<g id="edge28" class="edge">
<title>Node27&#45;&gt;Node28</title>
<path fill="none" stroke="#191970" d="M673.553,-32.5C698.5956,-32.5 727.9629,-32.5 754.0385,-32.5"/>
<polygon fill="#191970" stroke="#191970" points="754.2308,-36.0001 764.2307,-32.5 754.2307,-29.0001 754.2308,-36.0001"/>
</g>
</g>
</svg>
