<?xml version="1.0" encoding="UTF-8" standalone="no"?>
<!DOCTYPE svg PUBLIC "-//W3C//DTD SVG 1.1//EN"
 "http://www.w3.org/Graphics/SVG/1.1/DTD/svg11.dtd">
<!-- Generated by graphviz version 2.40.1 (20161225.0304)
 -->
<!-- Title: Ra::Engine::CoupledTimedSystem Pages: 1 -->
<svg width="388pt" height="1116pt"
 viewBox="0.00 0.00 388.00 1116.00" xmlns="http://www.w3.org/2000/svg" xmlns:xlink="http://www.w3.org/1999/xlink">
<g id="graph0" class="graph" transform="scale(1 1) rotate(0) translate(4 1112)">
<title>Ra::Engine::CoupledTimedSystem</title>
<polygon fill="#ffffff" stroke="transparent" points="-4,4 -4,-1112 384,-1112 384,4 -4,4"/>
<!-- Node6 -->
<g id="node1" class="node">
<title>Node6</title>
<polygon fill="#bfbfbf" stroke="#000000" points="123.5,-.5 123.5,-112.5 268.5,-112.5 268.5,-.5 123.5,-.5"/>
<text text-anchor="start" x="131.5" y="-100.5" font-family="Helvetica,sans-Serif" font-size="10.00" fill="#000000">Ra::Engine::CoupledTimed</text>
<text text-anchor="middle" x="196" y="-89.5" font-family="Helvetica,sans-Serif" font-size="10.00" fill="#000000">System</text>
<polyline fill="none" stroke="#000000" points="123.5,-82.5 268.5,-82.5 "/>
<text text-anchor="middle" x="196" y="-70.5" font-family="Helvetica,sans-Serif" font-size="10.00" fill="#000000"> </text>
<polyline fill="none" stroke="#000000" points="123.5,-63.5 268.5,-63.5 "/>
<text text-anchor="start" x="131.5" y="-51.5" font-family="Helvetica,sans-Serif" font-size="10.00" fill="#000000">+ play()</text>
<text text-anchor="start" x="131.5" y="-40.5" font-family="Helvetica,sans-Serif" font-size="10.00" fill="#000000">+ step()</text>
<text text-anchor="start" x="131.5" y="-29.5" font-family="Helvetica,sans-Serif" font-size="10.00" fill="#000000">+ reset()</text>
<text text-anchor="start" x="131.5" y="-18.5" font-family="Helvetica,sans-Serif" font-size="10.00" fill="#000000">+ cacheFrame()</text>
<text text-anchor="start" x="131.5" y="-7.5" font-family="Helvetica,sans-Serif" font-size="10.00" fill="#000000">+ restoreFrame()</text>
</g>
<!-- Node7 -->
<g id="node2" class="node">
<title>Node7</title>
<g id="a_node2"><a xlink:href="classRa_1_1Engine_1_1BaseCouplingSystem.html" target="_top" xlink:title="{Ra::Engine::BaseCoupling\lSystem\&lt; AbstractTimedSystem \&gt;\n||+ BaseCouplingSystem()\l+ BaseCouplingSystem()\l+ ~BaseCouplingSystem()\l+ operator=()\l+ addSystem()\l+ generateTasks()\l+ handleAssetLoading()\l# dispatch()\l# dispatch()\l# conditionnaldispatch()\l# conditionnaldispatch()\l}">
<polygon fill="#ffffff" stroke="#000000" points="104,-150.5 104,-328.5 288,-328.5 288,-150.5 104,-150.5"/>
<text text-anchor="start" x="112" y="-316.5" font-family="Helvetica,sans-Serif" font-size="10.00" fill="#000000">Ra::Engine::BaseCoupling</text>
<text text-anchor="middle" x="196" y="-305.5" font-family="Helvetica,sans-Serif" font-size="10.00" fill="#000000">System&lt; AbstractTimedSystem &gt;</text>
<polyline fill="none" stroke="#000000" points="104,-298.5 288,-298.5 "/>
<text text-anchor="middle" x="196" y="-286.5" font-family="Helvetica,sans-Serif" font-size="10.00" fill="#000000"> </text>
<polyline fill="none" stroke="#000000" points="104,-279.5 288,-279.5 "/>
<text text-anchor="start" x="112" y="-267.5" font-family="Helvetica,sans-Serif" font-size="10.00" fill="#000000">+ BaseCouplingSystem()</text>
<text text-anchor="start" x="112" y="-256.5" font-family="Helvetica,sans-Serif" font-size="10.00" fill="#000000">+ BaseCouplingSystem()</text>
<text text-anchor="start" x="112" y="-245.5" font-family="Helvetica,sans-Serif" font-size="10.00" fill="#000000">+ ~BaseCouplingSystem()</text>
<text text-anchor="start" x="112" y="-234.5" font-family="Helvetica,sans-Serif" font-size="10.00" fill="#000000">+ operator=()</text>
<text text-anchor="start" x="112" y="-223.5" font-family="Helvetica,sans-Serif" font-size="10.00" fill="#000000">+ addSystem()</text>
<text text-anchor="start" x="112" y="-212.5" font-family="Helvetica,sans-Serif" font-size="10.00" fill="#000000">+ generateTasks()</text>
<text text-anchor="start" x="112" y="-201.5" font-family="Helvetica,sans-Serif" font-size="10.00" fill="#000000">+ handleAssetLoading()</text>
<text text-anchor="start" x="112" y="-190.5" font-family="Helvetica,sans-Serif" font-size="10.00" fill="#000000"># dispatch()</text>
<text text-anchor="start" x="112" y="-179.5" font-family="Helvetica,sans-Serif" font-size="10.00" fill="#000000"># dispatch()</text>
<text text-anchor="start" x="112" y="-168.5" font-family="Helvetica,sans-Serif" font-size="10.00" fill="#000000"># conditionnaldispatch()</text>
<text text-anchor="start" x="112" y="-157.5" font-family="Helvetica,sans-Serif" font-size="10.00" fill="#000000"># conditionnaldispatch()</text>
</a>
</g>
</g>
<!-- Node7&#45;&gt;Node6 -->
<g id="edge1" class="edge">
<title>Node7&#45;&gt;Node6</title>
<path fill="none" stroke="#191970" d="M196,-140.1324C196,-130.6817 196,-121.3438 196,-112.526"/>
<polygon fill="none" stroke="#191970" points="192.5001,-140.4123 196,-150.4123 199.5001,-140.4124 192.5001,-140.4123"/>
</g>
<!-- Node8 -->
<g id="node3" class="node">
<title>Node8</title>
<g id="a_node3"><a xlink:href="classRa_1_1Engine_1_1AbstractTimedSystem.html" target="_top" xlink:title="Timed Systems are systems which can be disabled or paused, e.g. animation systems. ">
<polygon fill="#ffffff" stroke="#000000" points="28,-398.5 28,-532.5 180,-532.5 180,-398.5 28,-398.5"/>
<text text-anchor="start" x="36" y="-520.5" font-family="Helvetica,sans-Serif" font-size="10.00" fill="#000000">Ra::Engine::AbstractTimed</text>
<text text-anchor="middle" x="104" y="-509.5" font-family="Helvetica,sans-Serif" font-size="10.00" fill="#000000">System</text>
<polyline fill="none" stroke="#000000" points="28,-502.5 180,-502.5 "/>
<text text-anchor="middle" x="104" y="-490.5" font-family="Helvetica,sans-Serif" font-size="10.00" fill="#000000"> </text>
<polyline fill="none" stroke="#000000" points="28,-483.5 180,-483.5 "/>
<text text-anchor="start" x="36" y="-471.5" font-family="Helvetica,sans-Serif" font-size="10.00" fill="#000000">+ AbstractTimedSystem()</text>
<text text-anchor="start" x="36" y="-460.5" font-family="Helvetica,sans-Serif" font-size="10.00" fill="#000000">+ ~AbstractTimedSystem()</text>
<text text-anchor="start" x="36" y="-449.5" font-family="Helvetica,sans-Serif" font-size="10.00" fill="#000000">+ play()</text>
<text text-anchor="start" x="36" y="-438.5" font-family="Helvetica,sans-Serif" font-size="10.00" fill="#000000">+ step()</text>
<text text-anchor="start" x="36" y="-427.5" font-family="Helvetica,sans-Serif" font-size="10.00" fill="#000000">+ reset()</text>
<text text-anchor="start" x="36" y="-416.5" font-family="Helvetica,sans-Serif" font-size="10.00" fill="#000000">+ cacheFrame()</text>
<text text-anchor="start" x="36" y="-405.5" font-family="Helvetica,sans-Serif" font-size="10.00" fill="#000000">+ restoreFrame()</text>
</a>
</g>
</g>
<!-- Node8&#45;&gt;Node7 -->
<g id="edge2" class="edge">
<title>Node8&#45;&gt;Node7</title>
<path fill="none" stroke="#191970" d="M135.1697,-388.9308C143.0589,-369.5509 151.5998,-348.5701 159.7176,-328.6285"/>
<polygon fill="none" stroke="#191970" points="131.8827,-387.7228 131.3539,-398.3044 138.3661,-390.3621 131.8827,-387.7228"/>
</g>
<!-- Node9 -->
<g id="node4" class="node">
<title>Node9</title>
<g id="a_node4"><a xlink:href="classRa_1_1Engine_1_1System.html" target="_top" xlink:title="{Ra::Engine::System\n||+ System()\l+ ~System()\l+ handleAssetLoading()\l+ generateTasks()\l+ getEntityComponents()\l# registerComponent()\l# unregisterComponent()\l# unregisterAllComponents()\l}">
<polygon fill="#ffffff" stroke="#000000" points="24.5,-592.5 24.5,-726.5 183.5,-726.5 183.5,-592.5 24.5,-592.5"/>
<text text-anchor="middle" x="104" y="-714.5" font-family="Helvetica,sans-Serif" font-size="10.00" fill="#000000">Ra::Engine::System</text>
<polyline fill="none" stroke="#000000" points="24.5,-707.5 183.5,-707.5 "/>
<text text-anchor="middle" x="104" y="-695.5" font-family="Helvetica,sans-Serif" font-size="10.00" fill="#000000"> </text>
<polyline fill="none" stroke="#000000" points="24.5,-688.5 183.5,-688.5 "/>
<text text-anchor="start" x="32.5" y="-676.5" font-family="Helvetica,sans-Serif" font-size="10.00" fill="#000000">+ System()</text>
<text text-anchor="start" x="32.5" y="-665.5" font-family="Helvetica,sans-Serif" font-size="10.00" fill="#000000">+ ~System()</text>
<text text-anchor="start" x="32.5" y="-654.5" font-family="Helvetica,sans-Serif" font-size="10.00" fill="#000000">+ handleAssetLoading()</text>
<text text-anchor="start" x="32.5" y="-643.5" font-family="Helvetica,sans-Serif" font-size="10.00" fill="#000000">+ generateTasks()</text>
<text text-anchor="start" x="32.5" y="-632.5" font-family="Helvetica,sans-Serif" font-size="10.00" fill="#000000">+ getEntityComponents()</text>
<text text-anchor="start" x="32.5" y="-621.5" font-family="Helvetica,sans-Serif" font-size="10.00" fill="#000000"># registerComponent()</text>
<text text-anchor="start" x="32.5" y="-610.5" font-family="Helvetica,sans-Serif" font-size="10.00" fill="#000000"># unregisterComponent()</text>
<text text-anchor="start" x="32.5" y="-599.5" font-family="Helvetica,sans-Serif" font-size="10.00" fill="#000000"># unregisterAllComponents()</text>
</a>
</g>
</g>
<!-- Node9&#45;&gt;Node8 -->
<g id="edge3" class="edge">
<title>Node9&#45;&gt;Node8</title>
<path fill="none" stroke="#191970" d="M104,-582.3301C104,-565.8593 104,-548.5916 104,-532.5381"/>
<polygon fill="none" stroke="#191970" points="100.5001,-582.4645 104,-592.4646 107.5001,-582.4646 100.5001,-582.4645"/>
</g>
<!-- Node10 -->
<g id="node5" class="node">
<title>Node10</title>
<polygon fill="#ffffff" stroke="#bfbfbf" points="17.5,-774.5 17.5,-853.5 190.5,-853.5 190.5,-774.5 17.5,-774.5"/>
<text text-anchor="start" x="25.5" y="-841.5" font-family="Helvetica,sans-Serif" font-size="10.00" fill="#000000">std::vector&lt; std::pair</text>
<text text-anchor="start" x="25.5" y="-830.5" font-family="Helvetica,sans-Serif" font-size="10.00" fill="#000000">&lt; const Ra::Engine::Entity</text>
<text text-anchor="middle" x="104" y="-819.5" font-family="Helvetica,sans-Serif" font-size="10.00" fill="#000000"> *, Ra::Engine::Component *&gt; &gt;</text>
<polyline fill="none" stroke="#bfbfbf" points="17.5,-812.5 190.5,-812.5 "/>
<text text-anchor="middle" x="104" y="-800.5" font-family="Helvetica,sans-Serif" font-size="10.00" fill="#000000"> </text>
<polyline fill="none" stroke="#bfbfbf" points="17.5,-793.5 190.5,-793.5 "/>
<text text-anchor="middle" x="104" y="-781.5" font-family="Helvetica,sans-Serif" font-size="10.00" fill="#000000"> </text>
</g>
<!-- Node10&#45;&gt;Node9 -->
<g id="edge4" class="edge">
<title>Node10&#45;&gt;Node9</title>
<path fill="none" stroke="#404040" d="M104,-774.2124C104,-763.3493 104,-751.182 104,-738.9413"/>
<polygon fill="none" stroke="#404040" points="104.0001,-738.7217 100,-732.7218 104,-726.7217 108,-732.7217 104.0001,-738.7217"/>
<text text-anchor="middle" x="147.5" y="-748" font-family="Helvetica,sans-Serif" font-size="10.00" fill="#000000"> #m_components</text>
</g>
<!-- Node11 -->
<g id="node6" class="node">
<title>Node11</title>
<polygon fill="#ffffff" stroke="#bfbfbf" points="0,-923.5 0,-1002.5 128,-1002.5 128,-923.5 0,-923.5"/>
<text text-anchor="start" x="8" y="-990.5" font-family="Helvetica,sans-Serif" font-size="10.00" fill="#000000">pair&lt; const Ra::Engine</text>
<text text-anchor="start" x="8" y="-979.5" font-family="Helvetica,sans-Serif" font-size="10.00" fill="#000000">::Entity *, Ra::Engine</text>
<text text-anchor="middle" x="64" y="-968.5" font-family="Helvetica,sans-Serif" font-size="10.00" fill="#000000">::Component * &gt;</text>
<polyline fill="none" stroke="#bfbfbf" points="0,-961.5 128,-961.5 "/>
<text text-anchor="middle" x="64" y="-949.5" font-family="Helvetica,sans-Serif" font-size="10.00" fill="#000000"> </text>
<polyline fill="none" stroke="#bfbfbf" points="0,-942.5 128,-942.5 "/>
<text text-anchor="middle" x="64" y="-930.5" font-family="Helvetica,sans-Serif" font-size="10.00" fill="#000000"> </text>
</g>
<!-- Node11&#45;&gt;Node10 -->
<g id="edge5" class="edge">
<title>Node11&#45;&gt;Node10</title>
<path fill="none" stroke="#404040" d="M74.6142,-923.4619C79.3834,-905.697 85.0733,-884.5019 90.1705,-865.5149"/>
<polygon fill="none" stroke="#404040" points="90.2248,-865.3125 87.9172,-858.4805 93.3362,-853.7228 95.6437,-860.5548 90.2248,-865.3125"/>
<text text-anchor="middle" x="117" y="-886" font-family="Helvetica,sans-Serif" font-size="10.00" fill="#000000"> +elements</text>
</g>
<!-- Node12 -->
<g id="node7" class="node">
<title>Node12</title>
<g id="a_node7"><a xlink:title="STL class. ">
<polygon fill="#ffffff" stroke="#bfbfbf" points="146.5,-934.5 146.5,-991.5 243.5,-991.5 243.5,-934.5 146.5,-934.5"/>
<text text-anchor="middle" x="195" y="-979.5" font-family="Helvetica,sans-Serif" font-size="10.00" fill="#000000">std::vector&lt; T &gt;</text>
<polyline fill="none" stroke="#bfbfbf" points="146.5,-972.5 243.5,-972.5 "/>
<text text-anchor="middle" x="195" y="-960.5" font-family="Helvetica,sans-Serif" font-size="10.00" fill="#000000"> </text>
<polyline fill="none" stroke="#bfbfbf" points="146.5,-953.5 243.5,-953.5 "/>
<text text-anchor="middle" x="195" y="-941.5" font-family="Helvetica,sans-Serif" font-size="10.00" fill="#000000"> </text>
</a>
</g>
</g>
<!-- Node12&#45;&gt;Node10 -->
<g id="edge6" class="edge">
<title>Node12&#45;&gt;Node10</title>
<path fill="none" stroke="#ffa500" d="M177.2076,-925.0076C168.9544,-908.3715 158.6285,-888.8451 148,-872 144.1557,-865.9072 139.8419,-859.6521 135.4584,-853.6092"/>
<polygon fill="#ffa500" stroke="#ffa500" points="174.2765,-926.981 181.814,-934.4266 180.5647,-923.9056 174.2765,-926.981"/>
<text text-anchor="start" x="167" y="-897" font-family="Helvetica,sans-Serif" font-size="10.00" fill="#000000"> &lt; std::pair&lt; const</text>
<text text-anchor="start" x="167" y="-886" font-family="Helvetica,sans-Serif" font-size="10.00" fill="#000000"> Ra::Engine::Entity</text>
<text text-anchor="middle" x="245.5" y="-875" font-family="Helvetica,sans-Serif" font-size="10.00" fill="#000000"> *, Ra::Engine::Component *&gt; &gt;</text>
</g>
<!-- Node13 -->
<g id="node8" class="node">
<title>Node13</title>
<polygon fill="#ffffff" stroke="#bfbfbf" points="180.5,-1050.5 180.5,-1107.5 209.5,-1107.5 209.5,-1050.5 180.5,-1050.5"/>
<text text-anchor="middle" x="195" y="-1095.5" font-family="Helvetica,sans-Serif" font-size="10.00" fill="#000000">T</text>
<polyline fill="none" stroke="#bfbfbf" points="180.5,-1088.5 209.5,-1088.5 "/>
<text text-anchor="middle" x="195" y="-1076.5" font-family="Helvetica,sans-Serif" font-size="10.00" fill="#000000"> </text>
<polyline fill="none" stroke="#bfbfbf" points="180.5,-1069.5 209.5,-1069.5 "/>
<text text-anchor="middle" x="195" y="-1057.5" font-family="Helvetica,sans-Serif" font-size="10.00" fill="#000000"> </text>
</g>
<!-- Node13&#45;&gt;Node12 -->
<g id="edge7" class="edge">
<title>Node13&#45;&gt;Node12</title>
<path fill="none" stroke="#404040" d="M195,-1050.3258C195,-1036.3834 195,-1019.3727 195,-1004.0815"/>
<polygon fill="none" stroke="#404040" points="195.0001,-1003.7463 191,-997.7464 195,-991.7463 199,-997.7463 195.0001,-1003.7463"/>
<text text-anchor="middle" x="224" y="-1024" font-family="Helvetica,sans-Serif" font-size="10.00" fill="#000000"> +elements</text>
</g>
<!-- Node14 -->
<g id="node9" class="node">
<title>Node14</title>
<g id="a_node9"><a xlink:href="classRa_1_1Engine_1_1BaseCouplingSystem.html" target="_top" xlink:title="{Ra::Engine::BaseCoupling\lSystem\&lt; _BaseAbstractSystem \&gt;\n||+ BaseCouplingSystem()\l+ ~BaseCouplingSystem()\l+ BaseCouplingSystem()\l+ operator=()\l+ addSystem()\l+ generateTasks()\l+ handleAssetLoading()\l# dispatch()\l# dispatch()\l# conditionnaldispatch()\l# conditionnaldispatch()\l}">
<polygon fill="#ffffff" stroke="#000000" points="198,-376.5 198,-554.5 380,-554.5 380,-376.5 198,-376.5"/>
<text text-anchor="start" x="206" y="-542.5" font-family="Helvetica,sans-Serif" font-size="10.00" fill="#000000">Ra::Engine::BaseCoupling</text>
<text text-anchor="middle" x="289" y="-531.5" font-family="Helvetica,sans-Serif" font-size="10.00" fill="#000000">System&lt; _BaseAbstractSystem &gt;</text>
<polyline fill="none" stroke="#000000" points="198,-524.5 380,-524.5 "/>
<text text-anchor="middle" x="289" y="-512.5" font-family="Helvetica,sans-Serif" font-size="10.00" fill="#000000"> </text>
<polyline fill="none" stroke="#000000" points="198,-505.5 380,-505.5 "/>
<text text-anchor="start" x="206" y="-493.5" font-family="Helvetica,sans-Serif" font-size="10.00" fill="#000000">+ BaseCouplingSystem()</text>
<text text-anchor="start" x="206" y="-482.5" font-family="Helvetica,sans-Serif" font-size="10.00" fill="#000000">+ ~BaseCouplingSystem()</text>
<text text-anchor="start" x="206" y="-471.5" font-family="Helvetica,sans-Serif" font-size="10.00" fill="#000000">+ BaseCouplingSystem()</text>
<text text-anchor="start" x="206" y="-460.5" font-family="Helvetica,sans-Serif" font-size="10.00" fill="#000000">+ operator=()</text>
<text text-anchor="start" x="206" y="-449.5" font-family="Helvetica,sans-Serif" font-size="10.00" fill="#000000">+ addSystem()</text>
<text text-anchor="start" x="206" y="-438.5" font-family="Helvetica,sans-Serif" font-size="10.00" fill="#000000">+ generateTasks()</text>
<text text-anchor="start" x="206" y="-427.5" font-family="Helvetica,sans-Serif" font-size="10.00" fill="#000000">+ handleAssetLoading()</text>
<text text-anchor="start" x="206" y="-416.5" font-family="Helvetica,sans-Serif" font-size="10.00" fill="#000000"># dispatch()</text>
<text text-anchor="start" x="206" y="-405.5" font-family="Helvetica,sans-Serif" font-size="10.00" fill="#000000"># dispatch()</text>
<text text-anchor="start" x="206" y="-394.5" font-family="Helvetica,sans-Serif" font-size="10.00" fill="#000000"># conditionnaldispatch()</text>
<text text-anchor="start" x="206" y="-383.5" font-family="Helvetica,sans-Serif" font-size="10.00" fill="#000000"># conditionnaldispatch()</text>
</a>
</g>
</g>
<!-- Node14&#45;&gt;Node7 -->
<g id="edge8" class="edge">
<title>Node14&#45;&gt;Node7</title>
<path fill="none" stroke="#ffa500" d="M248.2867,-366.5623C243.081,-353.912 237.7771,-341.0228 232.6413,-328.5424"/>
<polygon fill="#ffa500" stroke="#ffa500" points="245.2018,-368.2631 252.2439,-376.1788 251.6751,-365.5993 245.2018,-368.2631"/>
<text text-anchor="middle" x="310" y="-350" font-family="Helvetica,sans-Serif" font-size="10.00" fill="#000000"> &lt; AbstractTimedSystem &gt;</text>
</g>
<!-- Node15 -->
<g id="node10" class="node">
<title>Node15</title>
<g id="a_node10"><a xlink:href="classRa_1_1Engine_1_1__BaseAbstractSystem.html" target="_top" xlink:title="{_BaseAbstractSystem\n||}">
<polygon fill="#ffffff" stroke="#000000" points="227.5,-631 227.5,-688 350.5,-688 350.5,-631 227.5,-631"/>
<text text-anchor="middle" x="289" y="-676" font-family="Helvetica,sans-Serif" font-size="10.00" fill="#000000">_BaseAbstractSystem</text>
<polyline fill="none" stroke="#000000" points="227.5,-669 350.5,-669 "/>
<text text-anchor="middle" x="289" y="-657" font-family="Helvetica,sans-Serif" font-size="10.00" fill="#000000"> </text>
<polyline fill="none" stroke="#000000" points="227.5,-650 350.5,-650 "/>
<text text-anchor="middle" x="289" y="-638" font-family="Helvetica,sans-Serif" font-size="10.00" fill="#000000"> </text>
</a>
</g>
</g>
<!-- Node15&#45;&gt;Node14 -->
<g id="edge9" class="edge">
<title>Node15&#45;&gt;Node14</title>
<path fill="none" stroke="#191970" d="M289,-620.831C289,-601.8097 289,-578.0279 289,-554.8343"/>
<polygon fill="none" stroke="#191970" points="285.5001,-620.8746 289,-630.8746 292.5001,-620.8747 285.5001,-620.8746"/>
</g>
</g>
</svg>
