<?xml version="1.0" encoding="UTF-8" standalone="no"?>
<!DOCTYPE svg PUBLIC "-//W3C//DTD SVG 1.1//EN"
 "http://www.w3.org/Graphics/SVG/1.1/DTD/svg11.dtd">
<!-- Generated by graphviz version 2.40.1 (20161225.0304)
 -->
<!-- Title: Ra::Engine::RenderParameters::TextureParameter Pages: 1 -->
<!--zoomable 806 -->
<svg id="main" version="1.1" xmlns="http://www.w3.org/2000/svg" xmlns:xlink="http://www.w3.org/1999/xlink" xml:space="preserve" onload="init(evt)">
<style type="text/css"><![CDATA[
.edge:hover path { stroke: red; }
.edge:hover polygon { stroke: red; fill: red; }
]]></style>
<script type="text/javascript"><![CDATA[
var edges = document.getElementsByTagName('g');
if (edges && edges.length) {
  for (var i=0;i<edges.length;i++) {
    if (edges[i].id.substr(0,4)=='edge') {
      edges[i].setAttribute('class','edge');
    }
  }
}
]]></script>
        <defs>
                <circle id="rim" cx="0" cy="0" r="7"/>
                <circle id="rim2" cx="0" cy="0" r="3.5"/>
                <g id="zoomPlus">
                        <use xlink:href="#rim" fill="#404040">
                                <set attributeName="fill" to="#808080" begin="zoomplus.mouseover" end="zoomplus.mouseout"/>
                        </use>
                        <path d="M-4,0h8M0,-4v8" fill="none" stroke="white" stroke-width="1.5" pointer-events="none"/>
                </g>
                <g id="zoomMin">
                        <use xlink:href="#rim" fill="#404040">
                                <set attributeName="fill" to="#808080" begin="zoomminus.mouseover" end="zoomminus.mouseout"/>
                        </use>
                        <path d="M-4,0h8" fill="none" stroke="white" stroke-width="1.5" pointer-events="none"/>
                </g>
                <g id="dirArrow">
                        <path fill="none" stroke="white" stroke-width="1.5" d="M0,-3.0v7 M-2.5,-0.5L0,-3.0L2.5,-0.5"/>
                </g>
               <g id="resetDef">
                       <use xlink:href="#rim2" fill="#404040">
                               <set attributeName="fill" to="#808080" begin="reset.mouseover" end="reset.mouseout"/>
                       </use>
               </g>
        </defs>

<script type="text/javascript">
var viewWidth = 400;
var viewHeight = 806;
var sectionId = 'dynsection-1';
</script>
<script xlink:href="svgpan.js"/>
<svg id="graph" class="graph">
<g id="viewport">
<title>Ra::Engine::RenderParameters::TextureParameter</title>
<polygon fill="#ffffff" stroke="transparent" points="-4,4 -4,-802 396,-802 396,4 -4,4"/>
<!-- Node2 -->
<g id="node1" class="node">
<title>Node2</title>
<polygon fill="#bfbfbf" stroke="#000000" points="163,-.5 163,-101.5 327,-101.5 327,-.5 163,-.5"/>
<text text-anchor="start" x="171" y="-89.5" font-family="Helvetica,sans-Serif" font-size="10.00" fill="#000000">Ra::Engine::RenderParameters</text>
<text text-anchor="middle" x="245" y="-78.5" font-family="Helvetica,sans-Serif" font-size="10.00" fill="#000000">::TextureParameter</text>
<polyline fill="none" stroke="#000000" points="163,-71.5 327,-71.5 "/>
<text text-anchor="middle" x="245" y="-59.5" font-family="Helvetica,sans-Serif" font-size="10.00" fill="#000000"> </text>
<polyline fill="none" stroke="#000000" points="163,-52.5 327,-52.5 "/>
<text text-anchor="start" x="171" y="-40.5" font-family="Helvetica,sans-Serif" font-size="10.00" fill="#000000">+ TextureParameter()</text>
<text text-anchor="start" x="171" y="-29.5" font-family="Helvetica,sans-Serif" font-size="10.00" fill="#000000">+ TextureParameter()</text>
<text text-anchor="start" x="171" y="-18.5" font-family="Helvetica,sans-Serif" font-size="10.00" fill="#000000">+ ~TextureParameter()</text>
<text text-anchor="start" x="171" y="-7.5" font-family="Helvetica,sans-Serif" font-size="10.00" fill="#000000">+ bind()</text>
</g>
<!-- Node3 -->
<g id="node2" class="node">
<title>Node3</title>
<g id="a_node2"><a xlink:href="classRa_1_1Engine_1_1RenderParameters_1_1Parameter.html" target="_top" xlink:title="Base abstract parameter Class. ">
<polygon fill="#ffffff" stroke="#000000" points="0,-221 0,-322 164,-322 164,-221 0,-221"/>
<text text-anchor="start" x="8" y="-310" font-family="Helvetica,sans-Serif" font-size="10.00" fill="#000000">Ra::Engine::RenderParameters</text>
<text text-anchor="middle" x="82" y="-299" font-family="Helvetica,sans-Serif" font-size="10.00" fill="#000000">::Parameter</text>
<polyline fill="none" stroke="#000000" points="0,-292 164,-292 "/>
<text text-anchor="middle" x="82" y="-280" font-family="Helvetica,sans-Serif" font-size="10.00" fill="#000000"> </text>
<polyline fill="none" stroke="#000000" points="0,-273 164,-273 "/>
<text text-anchor="start" x="8" y="-261" font-family="Helvetica,sans-Serif" font-size="10.00" fill="#000000">+ Parameter()</text>
<text text-anchor="start" x="8" y="-250" font-family="Helvetica,sans-Serif" font-size="10.00" fill="#000000">+ Parameter()</text>
<text text-anchor="start" x="8" y="-239" font-family="Helvetica,sans-Serif" font-size="10.00" fill="#000000">+ ~Parameter()</text>
<text text-anchor="start" x="8" y="-228" font-family="Helvetica,sans-Serif" font-size="10.00" fill="#000000">+ bind()</text>
</a>
</g>
</g>
<!-- Node3&#45;&gt;Node2 -->
<g id="edge1" class="edge">
<title>Node3&#45;&gt;Node2</title>
<path fill="none" stroke="#191970" d="M125.4151,-212.7698C150.9913,-178.1712 183.0232,-134.8397 207.4966,-101.7331"/>
<polygon fill="none" stroke="#191970" points="122.5255,-210.7909 119.3955,-220.9128 128.1544,-214.952 122.5255,-210.7909"/>
</g>
<!-- Node4 -->
<g id="node3" class="node">
<title>Node4</title>
<polygon fill="#ffffff" stroke="#bfbfbf" points="44.5,-441.5 44.5,-498.5 119.5,-498.5 119.5,-441.5 44.5,-441.5"/>
<text text-anchor="middle" x="82" y="-486.5" font-family="Helvetica,sans-Serif" font-size="10.00" fill="#000000">const char *</text>
<polyline fill="none" stroke="#bfbfbf" points="44.5,-479.5 119.5,-479.5 "/>
<text text-anchor="middle" x="82" y="-467.5" font-family="Helvetica,sans-Serif" font-size="10.00" fill="#000000"> </text>
<polyline fill="none" stroke="#bfbfbf" points="44.5,-460.5 119.5,-460.5 "/>
<text text-anchor="middle" x="82" y="-448.5" font-family="Helvetica,sans-Serif" font-size="10.00" fill="#000000"> </text>
</g>
<!-- Node4&#45;&gt;Node3 -->
<g id="edge2" class="edge">
<title>Node4&#45;&gt;Node3</title>
<path fill="none" stroke="#404040" d="M82,-441.1364C82,-413.3387 82,-370.3643 82,-334.6262"/>
<polygon fill="none" stroke="#404040" points="82.0001,-334.3237 78,-328.3237 82,-322.3237 86,-328.3237 82.0001,-334.3237"/>
<text text-anchor="middle" x="109.5" y="-415" font-family="Helvetica,sans-Serif" font-size="10.00" fill="#000000"> +m_name</text>
</g>
<!-- Node5 -->
<g id="node4" class="node">
<title>Node5</title>
<g id="a_node4"><a xlink:href="classRa_1_1Engine_1_1Texture.html" target="_top" xlink:title="{Ra::Engine::Texture\n||+ Texture()\l+ operator=()\l+ Texture()\l+ ~Texture()\l+ initializeGL()\l+ bind()\l+ bindImageTexture()\l+ getName()\l+ updateData()\l+ updateParameters()\l+ linearize()\l+ format()\l+ width()\l+ height()\l+ depth()\l+ texels()\l+ texture()\l+ resize()\l}">
<polygon fill="#ffffff" stroke="#000000" points="182.5,-149.5 182.5,-393.5 307.5,-393.5 307.5,-149.5 182.5,-149.5"/>
<text text-anchor="middle" x="245" y="-381.5" font-family="Helvetica,sans-Serif" font-size="10.00" fill="#000000">Ra::Engine::Texture</text>
<polyline fill="none" stroke="#000000" points="182.5,-374.5 307.5,-374.5 "/>
<text text-anchor="middle" x="245" y="-362.5" font-family="Helvetica,sans-Serif" font-size="10.00" fill="#000000"> </text>
<polyline fill="none" stroke="#000000" points="182.5,-355.5 307.5,-355.5 "/>
<text text-anchor="start" x="190.5" y="-343.5" font-family="Helvetica,sans-Serif" font-size="10.00" fill="#000000">+ Texture()</text>
<text text-anchor="start" x="190.5" y="-332.5" font-family="Helvetica,sans-Serif" font-size="10.00" fill="#000000">+ operator=()</text>
<text text-anchor="start" x="190.5" y="-321.5" font-family="Helvetica,sans-Serif" font-size="10.00" fill="#000000">+ Texture()</text>
<text text-anchor="start" x="190.5" y="-310.5" font-family="Helvetica,sans-Serif" font-size="10.00" fill="#000000">+ ~Texture()</text>
<text text-anchor="start" x="190.5" y="-299.5" font-family="Helvetica,sans-Serif" font-size="10.00" fill="#000000">+ initializeGL()</text>
<text text-anchor="start" x="190.5" y="-288.5" font-family="Helvetica,sans-Serif" font-size="10.00" fill="#000000">+ bind()</text>
<text text-anchor="start" x="190.5" y="-277.5" font-family="Helvetica,sans-Serif" font-size="10.00" fill="#000000">+ bindImageTexture()</text>
<text text-anchor="start" x="190.5" y="-266.5" font-family="Helvetica,sans-Serif" font-size="10.00" fill="#000000">+ getName()</text>
<text text-anchor="start" x="190.5" y="-255.5" font-family="Helvetica,sans-Serif" font-size="10.00" fill="#000000">+ updateData()</text>
<text text-anchor="start" x="190.5" y="-244.5" font-family="Helvetica,sans-Serif" font-size="10.00" fill="#000000">+ updateParameters()</text>
<text text-anchor="start" x="190.5" y="-233.5" font-family="Helvetica,sans-Serif" font-size="10.00" fill="#000000">+ linearize()</text>
<text text-anchor="start" x="190.5" y="-222.5" font-family="Helvetica,sans-Serif" font-size="10.00" fill="#000000">+ format()</text>
<text text-anchor="start" x="190.5" y="-211.5" font-family="Helvetica,sans-Serif" font-size="10.00" fill="#000000">+ width()</text>
<text text-anchor="start" x="190.5" y="-200.5" font-family="Helvetica,sans-Serif" font-size="10.00" fill="#000000">+ height()</text>
<text text-anchor="start" x="190.5" y="-189.5" font-family="Helvetica,sans-Serif" font-size="10.00" fill="#000000">+ depth()</text>
<text text-anchor="start" x="190.5" y="-178.5" font-family="Helvetica,sans-Serif" font-size="10.00" fill="#000000">+ texels()</text>
<text text-anchor="start" x="190.5" y="-167.5" font-family="Helvetica,sans-Serif" font-size="10.00" fill="#000000">+ texture()</text>
<text text-anchor="start" x="190.5" y="-156.5" font-family="Helvetica,sans-Serif" font-size="10.00" fill="#000000">+ resize()</text>
</a>
</g>
</g>
<!-- Node5&#45;&gt;Node2 -->
<g id="edge3" class="edge">
<title>Node5&#45;&gt;Node2</title>
<path fill="none" stroke="#404040" d="M245,-149.3199C245,-137.1191 245,-125.1155 245,-113.9162"/>
<polygon fill="none" stroke="#404040" points="245.0001,-113.6461 241,-107.6461 245,-101.6461 249,-107.646 245.0001,-113.6461"/>
<text text-anchor="middle" x="276" y="-123" font-family="Helvetica,sans-Serif" font-size="10.00" fill="#000000"> +m_texture</text>
</g>
<!-- Node6 -->
<g id="node5" class="node">
<title>Node6</title>
<g id="a_node5"><a xlink:href="structRa_1_1Engine_1_1TextureParameters.html" target="_top" xlink:title="{Ra::Engine::TextureParameters\n||}">
<polygon fill="#ffffff" stroke="#000000" points="162,-441.5 162,-498.5 328,-498.5 328,-441.5 162,-441.5"/>
<text text-anchor="middle" x="245" y="-486.5" font-family="Helvetica,sans-Serif" font-size="10.00" fill="#000000">Ra::Engine::TextureParameters</text>
<polyline fill="none" stroke="#000000" points="162,-479.5 328,-479.5 "/>
<text text-anchor="middle" x="245" y="-467.5" font-family="Helvetica,sans-Serif" font-size="10.00" fill="#000000"> </text>
<polyline fill="none" stroke="#000000" points="162,-460.5 328,-460.5 "/>
<text text-anchor="middle" x="245" y="-448.5" font-family="Helvetica,sans-Serif" font-size="10.00" fill="#000000"> </text>
</a>
</g>
</g>
<!-- Node6&#45;&gt;Node5 -->
<g id="edge4" class="edge">
<title>Node6&#45;&gt;Node5</title>
<path fill="none" stroke="#404040" d="M245,-441.1364C245,-431.0104 245,-418.8706 245,-405.8003"/>
<polygon fill="none" stroke="#404040" points="245.0001,-405.5664 241,-399.5664 245,-393.5664 249,-399.5663 245.0001,-405.5664"/>
<text text-anchor="middle" x="304" y="-415" font-family="Helvetica,sans-Serif" font-size="10.00" fill="#000000"> +m_textureParameters</text>
</g>
<!-- Node7 -->
<g id="node6" class="node">
<title>Node7</title>
<polygon fill="#ffffff" stroke="#bfbfbf" points="78.5,-634.5 78.5,-691.5 135.5,-691.5 135.5,-634.5 78.5,-634.5"/>
<text text-anchor="middle" x="107" y="-679.5" font-family="Helvetica,sans-Serif" font-size="10.00" fill="#000000">GLenum</text>
<polyline fill="none" stroke="#bfbfbf" points="78.5,-672.5 135.5,-672.5 "/>
<text text-anchor="middle" x="107" y="-660.5" font-family="Helvetica,sans-Serif" font-size="10.00" fill="#000000"> </text>
<polyline fill="none" stroke="#bfbfbf" points="78.5,-653.5 135.5,-653.5 "/>
<text text-anchor="middle" x="107" y="-641.5" font-family="Helvetica,sans-Serif" font-size="10.00" fill="#000000"> </text>
</g>
<!-- Node7&#45;&gt;Node6 -->
<g id="edge5" class="edge">
<title>Node7&#45;&gt;Node6</title>
<path fill="none" stroke="#404040" d="M100.2533,-634.3646C94.5015,-602.4471 90.6983,-550.8777 116,-517 121.3019,-509.9011 134.4036,-502.9615 150.3278,-496.6875"/>
<polygon fill="none" stroke="#404040" points="150.4902,-496.6273 154.7258,-490.7913 161.742,-492.4564 157.5064,-498.2925 150.4902,-496.6273"/>
<text text-anchor="middle" x="156.5" y="-608" font-family="Helvetica,sans-Serif" font-size="10.00" fill="#000000"> +type</text>
<text text-anchor="middle" x="156.5" y="-597" font-family="Helvetica,sans-Serif" font-size="10.00" fill="#000000">+minFilter</text>
<text text-anchor="middle" x="156.5" y="-586" font-family="Helvetica,sans-Serif" font-size="10.00" fill="#000000">+wrapP</text>
<text text-anchor="middle" x="156.5" y="-575" font-family="Helvetica,sans-Serif" font-size="10.00" fill="#000000">+magFilter</text>
<text text-anchor="middle" x="156.5" y="-564" font-family="Helvetica,sans-Serif" font-size="10.00" fill="#000000">+target</text>
<text text-anchor="middle" x="156.5" y="-553" font-family="Helvetica,sans-Serif" font-size="10.00" fill="#000000">+internalFormat</text>
<text text-anchor="middle" x="156.5" y="-542" font-family="Helvetica,sans-Serif" font-size="10.00" fill="#000000">+wrapS</text>
<text text-anchor="middle" x="156.5" y="-531" font-family="Helvetica,sans-Serif" font-size="10.00" fill="#000000">+wrapT</text>
<text text-anchor="middle" x="156.5" y="-520" font-family="Helvetica,sans-Serif" font-size="10.00" fill="#000000">+format</text>
</g>
<!-- Node8 -->
<g id="node7" class="node">
<title>Node8</title>
<polygon fill="#ffffff" stroke="#bfbfbf" points="185.5,-634.5 185.5,-691.5 230.5,-691.5 230.5,-634.5 185.5,-634.5"/>
<text text-anchor="middle" x="208" y="-679.5" font-family="Helvetica,sans-Serif" font-size="10.00" fill="#000000">size_t</text>
<polyline fill="none" stroke="#bfbfbf" points="185.5,-672.5 230.5,-672.5 "/>
<text text-anchor="middle" x="208" y="-660.5" font-family="Helvetica,sans-Serif" font-size="10.00" fill="#000000"> </text>
<polyline fill="none" stroke="#bfbfbf" points="185.5,-653.5 230.5,-653.5 "/>
<text text-anchor="middle" x="208" y="-641.5" font-family="Helvetica,sans-Serif" font-size="10.00" fill="#000000"> </text>
</g>
<!-- Node8&#45;&gt;Node6 -->
<g id="edge6" class="edge">
<title>Node8&#45;&gt;Node6</title>
<path fill="none" stroke="#404040" d="M203.6688,-634.4312C200.2276,-604.3611 197.9075,-556.0622 211,-517 211.9046,-514.301 213.024,-511.625 214.2997,-508.9998"/>
<polygon fill="none" stroke="#404040" points="214.3113,-508.9794 213.8214,-501.785 220.274,-498.5657 220.7639,-505.7601 214.3113,-508.9794"/>
<text text-anchor="middle" x="231" y="-575" font-family="Helvetica,sans-Serif" font-size="10.00" fill="#000000"> +depth</text>
<text text-anchor="middle" x="231" y="-564" font-family="Helvetica,sans-Serif" font-size="10.00" fill="#000000">+height</text>
<text text-anchor="middle" x="231" y="-553" font-family="Helvetica,sans-Serif" font-size="10.00" fill="#000000">+width</text>
</g>
<!-- Node9 -->
<g id="node8" class="node">
<title>Node9</title>
<g id="a_node8"><a xlink:title="STL class. ">
<polygon fill="#ffffff" stroke="#bfbfbf" points="248.5,-634.5 248.5,-691.5 313.5,-691.5 313.5,-634.5 248.5,-634.5"/>
<text text-anchor="middle" x="281" y="-679.5" font-family="Helvetica,sans-Serif" font-size="10.00" fill="#000000">std::string</text>
<polyline fill="none" stroke="#bfbfbf" points="248.5,-672.5 313.5,-672.5 "/>
<text text-anchor="middle" x="281" y="-660.5" font-family="Helvetica,sans-Serif" font-size="10.00" fill="#000000"> </text>
<polyline fill="none" stroke="#bfbfbf" points="248.5,-653.5 313.5,-653.5 "/>
<text text-anchor="middle" x="281" y="-641.5" font-family="Helvetica,sans-Serif" font-size="10.00" fill="#000000"> </text>
</a>
</g>
</g>
<!-- Node9&#45;&gt;Node6 -->
<g id="edge7" class="edge">
<title>Node9&#45;&gt;Node6</title>
<path fill="none" stroke="#404040" d="M276.1995,-634.412C271.1825,-604.94 262.9479,-557.682 255,-517 254.6041,-514.9736 254.1913,-512.8997 253.7685,-510.8064"/>
<polygon fill="none" stroke="#404040" points="253.7163,-510.5533 248.5844,-505.4873 251.287,-498.8017 256.4188,-503.8678 253.7163,-510.5533"/>
<text text-anchor="middle" x="292" y="-564" font-family="Helvetica,sans-Serif" font-size="10.00" fill="#000000"> +name</text>
</g>
<!-- Node10 -->
<g id="node9" class="node">
<title>Node10</title>
<g id="a_node9"><a xlink:title="STL class. ">
<polygon fill="#ffffff" stroke="#bfbfbf" points="229,-729.5 229,-797.5 333,-797.5 333,-729.5 229,-729.5"/>
<text text-anchor="start" x="237" y="-785.5" font-family="Helvetica,sans-Serif" font-size="10.00" fill="#000000">std::basic_string&lt;</text>
<text text-anchor="middle" x="281" y="-774.5" font-family="Helvetica,sans-Serif" font-size="10.00" fill="#000000"> char &gt;</text>
<polyline fill="none" stroke="#bfbfbf" points="229,-767.5 333,-767.5 "/>
<text text-anchor="middle" x="281" y="-755.5" font-family="Helvetica,sans-Serif" font-size="10.00" fill="#000000"> </text>
<polyline fill="none" stroke="#bfbfbf" points="229,-748.5 333,-748.5 "/>
<text text-anchor="middle" x="281" y="-736.5" font-family="Helvetica,sans-Serif" font-size="10.00" fill="#000000"> </text>
</a>
</g>
</g>
<!-- Node10&#45;&gt;Node9 -->
<g id="edge8" class="edge">
<title>Node10&#45;&gt;Node9</title>
<path fill="none" stroke="#191970" d="M281,-719.4301C281,-710.0073 281,-700.2901 281,-691.6312"/>
<polygon fill="none" stroke="#191970" points="277.5001,-719.4752 281,-729.4753 284.5001,-719.4753 277.5001,-719.4752"/>
</g>
<!-- Node11 -->
<g id="node10" class="node">
<title>Node11</title>
<polygon fill="#ffffff" stroke="#bfbfbf" points="332,-634.5 332,-691.5 378,-691.5 378,-634.5 332,-634.5"/>
<text text-anchor="middle" x="355" y="-679.5" font-family="Helvetica,sans-Serif" font-size="10.00" fill="#000000">void *</text>
<polyline fill="none" stroke="#bfbfbf" points="332,-672.5 378,-672.5 "/>
<text text-anchor="middle" x="355" y="-660.5" font-family="Helvetica,sans-Serif" font-size="10.00" fill="#000000"> </text>
<polyline fill="none" stroke="#bfbfbf" points="332,-653.5 378,-653.5 "/>
<text text-anchor="middle" x="355" y="-641.5" font-family="Helvetica,sans-Serif" font-size="10.00" fill="#000000"> </text>
</g>
<!-- Node11&#45;&gt;Node6 -->
<g id="edge9" class="edge">
<title>Node11&#45;&gt;Node6</title>
<path fill="none" stroke="#404040" d="M353.3298,-634.378C350.2257,-602.942 341.3538,-552.2495 316,-517 313.3862,-513.3661 310.3974,-509.9342 307.1588,-506.7075"/>
<polygon fill="none" stroke="#404040" points="307.0587,-506.6185 299.9167,-505.6229 298.0888,-498.6473 305.2309,-499.6429 307.0587,-506.6185"/>
<text text-anchor="middle" x="371" y="-564" font-family="Helvetica,sans-Serif" font-size="10.00" fill="#000000"> +texels</text>
</g>
<!-- Node12 -->
<g id="node11" class="node">
<title>Node12</title>
<g id="a_node11"><a xlink:href="classint.html" target="_top" xlink:title="{int\n||}">
<polygon fill="#ffffff" stroke="#000000" points="325.5,-243 325.5,-300 354.5,-300 354.5,-243 325.5,-243"/>
<text text-anchor="middle" x="340" y="-288" font-family="Helvetica,sans-Serif" font-size="10.00" fill="#000000">int</text>
<polyline fill="none" stroke="#000000" points="325.5,-281 354.5,-281 "/>
<text text-anchor="middle" x="340" y="-269" font-family="Helvetica,sans-Serif" font-size="10.00" fill="#000000"> </text>
<polyline fill="none" stroke="#000000" points="325.5,-262 354.5,-262 "/>
<text text-anchor="middle" x="340" y="-250" font-family="Helvetica,sans-Serif" font-size="10.00" fill="#000000"> </text>
</a>
</g>
</g>
<!-- Node12&#45;&gt;Node2 -->
<g id="edge10" class="edge">
<title>Node12&#45;&gt;Node2</title>
<path fill="none" stroke="#404040" d="M339.4159,-242.7973C337.6905,-211.0607 331.6075,-159.2379 311,-120 309.4982,-117.1405 307.8427,-114.3165 306.0655,-111.5393"/>
<polygon fill="none" stroke="#404040" points="306.0559,-111.5256 299.3333,-108.9165 299.156,-101.7076 305.8786,-104.3166 306.0559,-111.5256"/>
<text text-anchor="middle" x="345.5" y="-123" font-family="Helvetica,sans-Serif" font-size="10.00" fill="#000000"> +m_texUnit</text>
</g>
</g>
</svg>
        <g id="navigator" transform="translate(0 0)" fill="#404254">
                <rect fill="#f2f5e9" fill-opacity="0.5" stroke="#606060" stroke-width=".5" x="0" y="0" width="60" height="60"/>
                <use id="zoomplus" xlink:href="#zoomPlus" x="17" y="9" onmousedown="handleZoom(evt,'in')"/>
                <use id="zoomminus" xlink:href="#zoomMin" x="42" y="9" onmousedown="handleZoom(evt,'out')"/>
                <use id="reset" xlink:href="#resetDef" x="30" y="36" onmousedown="handleReset()"/>
                <g id="arrowUp" xlink:href="#dirArrow" transform="translate(30 24)" onmousedown="handlePan(0,-1)">
                  <use xlink:href="#rim" fill="#404040">
                        <set attributeName="fill" to="#808080" begin="arrowUp.mouseover" end="arrowUp.mouseout"/>
                  </use>
                  <path fill="none" stroke="white" stroke-width="1.5" d="M0,-3.0v7 M-2.5,-0.5L0,-3.0L2.5,-0.5"/>
                </g>
                <g id="arrowRight" xlink:href="#dirArrow" transform="rotate(90) translate(36 -43)" onmousedown="handlePan(1,0)">
                  <use xlink:href="#rim" fill="#404040">
                        <set attributeName="fill" to="#808080" begin="arrowRight.mouseover" end="arrowRight.mouseout"/>
                  </use>
                  <path fill="none" stroke="white" stroke-width="1.5" d="M0,-3.0v7 M-2.5,-0.5L0,-3.0L2.5,-0.5"/>
                </g>
                <g id="arrowDown" xlink:href="#dirArrow" transform="rotate(180) translate(-30 -48)" onmousedown="handlePan(0,1)">
                  <use xlink:href="#rim" fill="#404040">
                        <set attributeName="fill" to="#808080" begin="arrowDown.mouseover" end="arrowDown.mouseout"/>
                  </use>
                  <path fill="none" stroke="white" stroke-width="1.5" d="M0,-3.0v7 M-2.5,-0.5L0,-3.0L2.5,-0.5"/>
                </g>
                <g id="arrowLeft" xlink:href="#dirArrow" transform="rotate(270) translate(-36 17)" onmousedown="handlePan(-1,0)">
                  <use xlink:href="#rim" fill="#404040">
                        <set attributeName="fill" to="#808080" begin="arrowLeft.mouseover" end="arrowLeft.mouseout"/>
                  </use>
                  <path fill="none" stroke="white" stroke-width="1.5" d="M0,-3.0v7 M-2.5,-0.5L0,-3.0L2.5,-0.5"/>
                </g>
        </g>
        <svg viewBox="0 0 15 15" width="100%" height="30px" preserveAspectRatio="xMaxYMin meet">
         <g id="arrow_out" transform="scale(0.3 0.3)">
          <a xlink:href="classRa_1_1Engine_1_1RenderParameters_1_1TextureParameter__coll__graph_org.svg" target="_base">
           <rect id="button" ry="5" rx="5" y="6" x="6" height="38" width="38"
                fill="#f2f5e9" fill-opacity="0.5" stroke="#606060" stroke-width="1.0"/>
           <path id="arrow"
             d="M 11.500037,31.436501 C 11.940474,20.09759 22.043105,11.32322 32.158766,21.979434 L 37.068811,17.246167 C 37.068811,17.246167 37.088388,32 37.088388,32 L 22.160133,31.978069 C 22.160133,31.978069 26.997745,27.140456 26.997745,27.140456 C 18.528582,18.264221 13.291696,25.230495 11.500037,31.436501 z"
             style="fill:#404040;"/>
          </a>
         </g>
        </svg>
</svg>
