<?xml version="1.0" encoding="UTF-8" standalone="no"?>
<!DOCTYPE svg PUBLIC "-//W3C//DTD SVG 1.1//EN"
 "http://www.w3.org/Graphics/SVG/1.1/DTD/svg11.dtd">
<!-- Generated by graphviz version 2.40.1 (20161225.0304)
 -->
<!-- Title: Ra::Engine::Renderer::render Pages: 1 -->
<svg width="348pt" height="421pt"
 viewBox="0.00 0.00 348.00 421.00" xmlns="http://www.w3.org/2000/svg" xmlns:xlink="http://www.w3.org/1999/xlink">
<g id="graph0" class="graph" transform="scale(1 1) rotate(0) translate(4 417)">
<title>Ra::Engine::Renderer::render</title>
<polygon fill="#ffffff" stroke="transparent" points="-4,4 -4,-417 344,-417 344,4 -4,4"/>
<!-- Node54 -->
<g id="node1" class="node">
<title>Node54</title>
<polygon fill="#bfbfbf" stroke="#000000" points="0,-186.5 0,-216.5 118,-216.5 118,-186.5 0,-186.5"/>
<text text-anchor="start" x="8" y="-204.5" font-family="Helvetica,sans-Serif" font-size="10.00" fill="#000000">Ra::Engine::Renderer</text>
<text text-anchor="middle" x="59" y="-193.5" font-family="Helvetica,sans-Serif" font-size="10.00" fill="#000000">::render</text>
</g>
<!-- Node55 -->
<g id="node2" class="node">
<title>Node55</title>
<g id="a_node2"><a xlink:href="classRa_1_1Engine_1_1Renderer.html#a54631e8470c2638009457f53628dac57" target="_top" xlink:title="Ra::Engine::Renderer\l::updateStepInternal">
<polygon fill="#ffffff" stroke="#000000" points="188,-382.5 188,-412.5 306,-412.5 306,-382.5 188,-382.5"/>
<text text-anchor="start" x="196" y="-400.5" font-family="Helvetica,sans-Serif" font-size="10.00" fill="#000000">Ra::Engine::Renderer</text>
<text text-anchor="middle" x="247" y="-389.5" font-family="Helvetica,sans-Serif" font-size="10.00" fill="#000000">::updateStepInternal</text>
</a>
</g>
</g>
<!-- Node54&#45;&gt;Node55 -->
<g id="edge1" class="edge">
<title>Node54&#45;&gt;Node55</title>
<path fill="none" stroke="#191970" d="M62.9077,-216.5905C72.4244,-250.2337 100.0751,-331.7037 154,-373.5 161.1622,-379.0513 169.4745,-383.3273 178.1258,-386.6192"/>
<polygon fill="#191970" stroke="#191970" points="177.0139,-389.9378 187.6081,-389.8188 179.252,-383.3052 177.0139,-389.9378"/>
</g>
<!-- Node56 -->
<g id="node3" class="node">
<title>Node56</title>
<g id="a_node3"><a xlink:href="classRa_1_1Engine_1_1Renderer.html#a0991bff12be739a189f5a173458b6623" target="_top" xlink:title="All the scene rendering magics basically happens here. ">
<polygon fill="#ffffff" stroke="#000000" points="188,-333.5 188,-363.5 306,-363.5 306,-333.5 188,-333.5"/>
<text text-anchor="start" x="196" y="-351.5" font-family="Helvetica,sans-Serif" font-size="10.00" fill="#000000">Ra::Engine::Renderer</text>
<text text-anchor="middle" x="247" y="-340.5" font-family="Helvetica,sans-Serif" font-size="10.00" fill="#000000">::renderInternal</text>
</a>
</g>
</g>
<!-- Node54&#45;&gt;Node56 -->
<g id="edge2" class="edge">
<title>Node54&#45;&gt;Node56</title>
<path fill="none" stroke="#191970" d="M66.3664,-216.5975C79.9333,-242.7658 111.4237,-296.4318 154,-324.5 161.384,-329.3679 169.7003,-333.2488 178.2457,-336.3429"/>
<polygon fill="#191970" stroke="#191970" points="177.3611,-339.7358 187.9536,-339.5125 179.5338,-333.0815 177.3611,-339.7358"/>
</g>
<!-- Node57 -->
<g id="node4" class="node">
<title>Node57</title>
<g id="a_node4"><a xlink:href="classRa_1_1Engine_1_1Renderer.html#a75b434244e669f4be43889a820011b79" target="_top" xlink:title="Do all post processing stuff. If you override this method, be careful to fill. ">
<polygon fill="#ffffff" stroke="#000000" points="187.5,-284.5 187.5,-314.5 306.5,-314.5 306.5,-284.5 187.5,-284.5"/>
<text text-anchor="start" x="195.5" y="-302.5" font-family="Helvetica,sans-Serif" font-size="10.00" fill="#000000">Ra::Engine::Renderer</text>
<text text-anchor="middle" x="247" y="-291.5" font-family="Helvetica,sans-Serif" font-size="10.00" fill="#000000">::postProcessInternal</text>
</a>
</g>
</g>
<!-- Node54&#45;&gt;Node57 -->
<g id="edge3" class="edge">
<title>Node54&#45;&gt;Node57</title>
<path fill="none" stroke="#191970" d="M74.1034,-216.5252C91.7897,-233.2937 122.6719,-260.0891 154,-275.5 161.4204,-279.1503 169.4561,-282.2869 177.5901,-284.972"/>
<polygon fill="#191970" stroke="#191970" points="176.5655,-288.3187 187.1529,-287.9203 178.6279,-281.6294 176.5655,-288.3187"/>
</g>
<!-- Node58 -->
<g id="node5" class="node">
<title>Node58</title>
<g id="a_node5"><a xlink:href="classRa_1_1Engine_1_1Renderer.html#a4bf7ab27df3a206bcb0b759f28dab716" target="_top" xlink:title="Add the debug layer with useful informations. ">
<polygon fill="#ffffff" stroke="#000000" points="188,-235.5 188,-265.5 306,-265.5 306,-235.5 188,-235.5"/>
<text text-anchor="start" x="196" y="-253.5" font-family="Helvetica,sans-Serif" font-size="10.00" fill="#000000">Ra::Engine::Renderer</text>
<text text-anchor="middle" x="247" y="-242.5" font-family="Helvetica,sans-Serif" font-size="10.00" fill="#000000">::debugInternal</text>
</a>
</g>
</g>
<!-- Node54&#45;&gt;Node58 -->
<g id="edge4" class="edge">
<title>Node54&#45;&gt;Node58</title>
<path fill="none" stroke="#191970" d="M116.0055,-216.5487C128.5205,-219.8393 141.705,-223.2958 154,-226.5 162.0024,-228.5855 170.3945,-230.7637 178.725,-232.9204"/>
<polygon fill="#191970" stroke="#191970" points="177.8911,-236.3198 188.4489,-235.4354 179.6439,-229.5428 177.8911,-236.3198"/>
</g>
<!-- Node59 -->
<g id="node6" class="node">
<title>Node59</title>
<g id="a_node6"><a xlink:href="classRa_1_1Engine_1_1Renderer.html#a02f80a1fa78786ad58d68393225aed64" target="_top" xlink:title="Draw the UI data. ">
<polygon fill="#ffffff" stroke="#000000" points="188,-186.5 188,-216.5 306,-216.5 306,-186.5 188,-186.5"/>
<text text-anchor="start" x="196" y="-204.5" font-family="Helvetica,sans-Serif" font-size="10.00" fill="#000000">Ra::Engine::Renderer</text>
<text text-anchor="middle" x="247" y="-193.5" font-family="Helvetica,sans-Serif" font-size="10.00" fill="#000000">::uiInternal</text>
</a>
</g>
</g>
<!-- Node54&#45;&gt;Node59 -->
<g id="edge5" class="edge">
<title>Node54&#45;&gt;Node59</title>
<path fill="none" stroke="#191970" d="M118.2263,-201.5C137.107,-201.5 158.1664,-201.5 177.6953,-201.5"/>
<polygon fill="#191970" stroke="#191970" points="177.7485,-205.0001 187.7485,-201.5 177.7484,-198.0001 177.7485,-205.0001"/>
</g>
<!-- Node60 -->
<g id="node7" class="node">
<title>Node60</title>
<g id="a_node7"><a xlink:href="classRa_1_1Engine_1_1RenderObjectManager.html#a76f7d1a089bdf2e183f8084a2d482940" target="_top" xlink:title="Ra::Engine::RenderObject\lManager::getRenderObjectsByType">
<polygon fill="#ffffff" stroke="#000000" points="154,-137.5 154,-167.5 340,-167.5 340,-137.5 154,-137.5"/>
<text text-anchor="start" x="162" y="-155.5" font-family="Helvetica,sans-Serif" font-size="10.00" fill="#000000">Ra::Engine::RenderObject</text>
<text text-anchor="middle" x="247" y="-144.5" font-family="Helvetica,sans-Serif" font-size="10.00" fill="#000000">Manager::getRenderObjectsByType</text>
</a>
</g>
</g>
<!-- Node54&#45;&gt;Node60 -->
<g id="edge6" class="edge">
<title>Node54&#45;&gt;Node60</title>
<path fill="none" stroke="#191970" d="M116.6838,-186.4654C136.534,-181.2917 158.9374,-175.4525 179.4987,-170.0934"/>
<polygon fill="#191970" stroke="#191970" points="180.6313,-173.4152 189.4252,-167.5062 178.8658,-166.6415 180.6313,-173.4152"/>
</g>
<!-- Node61 -->
<g id="node8" class="node">
<title>Node61</title>
<g id="a_node8"><a xlink:href="namespaceOpenMesh.html#a8205f789ce08919bc11c58383574596c" target="_top" xlink:title="OpenMesh::norm">
<polygon fill="#ffffff" stroke="#000000" points="197.5,-99 197.5,-118 296.5,-118 296.5,-99 197.5,-99"/>
<text text-anchor="middle" x="247" y="-106" font-family="Helvetica,sans-Serif" font-size="10.00" fill="#000000">OpenMesh::norm</text>
</a>
</g>
</g>
<!-- Node54&#45;&gt;Node61 -->
<g id="edge7" class="edge">
<title>Node54&#45;&gt;Node61</title>
<path fill="none" stroke="#191970" d="M74.0328,-186.4561C91.6543,-169.7107 122.4771,-143.0911 154,-128.5 164.4326,-123.671 176.0677,-119.9895 187.4801,-117.1883"/>
<polygon fill="#191970" stroke="#191970" points="188.4315,-120.5618 197.416,-114.9467 186.8908,-113.7334 188.4315,-120.5618"/>
</g>
<!-- Node62 -->
<g id="node9" class="node">
<title>Node62</title>
<g id="a_node9"><a xlink:href="classRa_1_1Engine_1_1ShaderProgramManager.html#a5ddf7b2a65b82380204c6bb5da2127d2" target="_top" xlink:title="Ra::Engine::ShaderProgram\lManager::getShaderProgram">
<polygon fill="#ffffff" stroke="#000000" points="169.5,-49.5 169.5,-79.5 324.5,-79.5 324.5,-49.5 169.5,-49.5"/>
<text text-anchor="start" x="177.5" y="-67.5" font-family="Helvetica,sans-Serif" font-size="10.00" fill="#000000">Ra::Engine::ShaderProgram</text>
<text text-anchor="middle" x="247" y="-56.5" font-family="Helvetica,sans-Serif" font-size="10.00" fill="#000000">Manager::getShaderProgram</text>
</a>
</g>
</g>
<!-- Node54&#45;&gt;Node62 -->
<g id="edge8" class="edge">
<title>Node54&#45;&gt;Node62</title>
<path fill="none" stroke="#191970" d="M67.6754,-186.2613C82.2893,-161.9983 114.1603,-114.7545 154,-89.5 157.3206,-87.3951 160.8159,-85.4659 164.4258,-83.6979"/>
<polygon fill="#191970" stroke="#191970" points="165.8794,-86.8821 173.6006,-79.6271 163.0404,-80.4836 165.8794,-86.8821"/>
</g>
<!-- Node63 -->
<g id="node10" class="node">
<title>Node63</title>
<g id="a_node10"><a xlink:href="classRa_1_1Engine_1_1ShaderProgram.html#a33ee6eed267bfedd10ba19f32284d7fe" target="_top" xlink:title="Ra::Engine::ShaderProgram\l::bind">
<polygon fill="#ffffff" stroke="#000000" points="172.5,-.5 172.5,-30.5 321.5,-30.5 321.5,-.5 172.5,-.5"/>
<text text-anchor="start" x="180.5" y="-18.5" font-family="Helvetica,sans-Serif" font-size="10.00" fill="#000000">Ra::Engine::ShaderProgram</text>
<text text-anchor="middle" x="247" y="-7.5" font-family="Helvetica,sans-Serif" font-size="10.00" fill="#000000">::bind</text>
</a>
</g>
</g>
<!-- Node54&#45;&gt;Node63 -->
<g id="edge9" class="edge">
<title>Node54&#45;&gt;Node63</title>
<path fill="none" stroke="#191970" d="M63.5429,-186.442C73.9931,-154.4366 102.8499,-79.3977 154,-40.5 156.9694,-38.2419 160.1276,-36.1875 163.4192,-34.3185"/>
<polygon fill="#191970" stroke="#191970" points="165.0497,-37.4162 172.4058,-29.7914 161.9003,-31.1647 165.0497,-37.4162"/>
</g>
</g>
</svg>
