<?xml version="1.0" encoding="UTF-8" standalone="no"?>
<!DOCTYPE svg PUBLIC "-//W3C//DTD SVG 1.1//EN"
 "http://www.w3.org/Graphics/SVG/1.1/DTD/svg11.dtd">
<!-- Generated by graphviz version 2.40.1 (20161225.0304)
 -->
<!-- Title: Ra::Engine::DebugRender::addFrame Pages: 1 -->
<svg width="511pt" height="137pt"
 viewBox="0.00 0.00 511.00 137.00" xmlns="http://www.w3.org/2000/svg" xmlns:xlink="http://www.w3.org/1999/xlink">
<g id="graph0" class="graph" transform="scale(1 1) rotate(0) translate(4 133)">
<title>Ra::Engine::DebugRender::addFrame</title>
<polygon fill="#ffffff" stroke="transparent" points="-4,4 -4,-133 507,-133 507,4 -4,4"/>
<!-- Node22 -->
<g id="node1" class="node">
<title>Node22</title>
<polygon fill="#bfbfbf" stroke="#000000" points="0,-49.5 0,-79.5 140,-79.5 140,-49.5 0,-49.5"/>
<text text-anchor="start" x="8" y="-67.5" font-family="Helvetica,sans-Serif" font-size="10.00" fill="#000000">Ra::Engine::DebugRender</text>
<text text-anchor="middle" x="70" y="-56.5" font-family="Helvetica,sans-Serif" font-size="10.00" fill="#000000">::addFrame</text>
</g>
<!-- Node23 -->
<g id="node2" class="node">
<title>Node23</title>
<g id="a_node2"><a xlink:href="namespaceRa_1_1Engine_1_1DrawPrimitives.html#a7f215b87c86b521179840ac2f4a4c4e3" target="_top" xlink:title="Ra::Engine::DrawPrimitives\l::Frame">
<polygon fill="#ffffff" stroke="#000000" points="176,-49.5 176,-79.5 325,-79.5 325,-49.5 176,-49.5"/>
<text text-anchor="start" x="184" y="-67.5" font-family="Helvetica,sans-Serif" font-size="10.00" fill="#000000">Ra::Engine::DrawPrimitives</text>
<text text-anchor="middle" x="250.5" y="-56.5" font-family="Helvetica,sans-Serif" font-size="10.00" fill="#000000">::Frame</text>
</a>
</g>
</g>
<!-- Node22&#45;&gt;Node23 -->
<g id="edge1" class="edge">
<title>Node22&#45;&gt;Node23</title>
<path fill="none" stroke="#191970" d="M140.0444,-64.5C148.449,-64.5 157.1,-64.5 165.6852,-64.5"/>
<polygon fill="#191970" stroke="#191970" points="165.7146,-68.0001 175.7146,-64.5 165.7145,-61.0001 165.7146,-68.0001"/>
</g>
<!-- Node24 -->
<g id="node3" class="node">
<title>Node24</title>
<g id="a_node3"><a xlink:href="classRa_1_1Core_1_1Utils_1_1ColorBase.html#a1b7a2d694cf0fe9382aa80868253f0d1" target="_top" xlink:title="Ra::Core::Utils::ColorBase\l\&lt; Scalar \&gt;::Red">
<polygon fill="#ffffff" stroke="#000000" points="361,-98.5 361,-128.5 503,-128.5 503,-98.5 361,-98.5"/>
<text text-anchor="start" x="369" y="-116.5" font-family="Helvetica,sans-Serif" font-size="10.00" fill="#000000">Ra::Core::Utils::ColorBase</text>
<text text-anchor="middle" x="432" y="-105.5" font-family="Helvetica,sans-Serif" font-size="10.00" fill="#000000">&lt; Scalar &gt;::Red</text>
</a>
</g>
</g>
<!-- Node23&#45;&gt;Node24 -->
<g id="edge2" class="edge">
<title>Node23&#45;&gt;Node24</title>
<path fill="none" stroke="#191970" d="M306.437,-79.6014C325.4161,-84.7253 346.7898,-90.4956 366.4497,-95.8032"/>
<polygon fill="#191970" stroke="#191970" points="365.6811,-99.221 376.2477,-98.4484 367.5056,-92.4629 365.6811,-99.221"/>
</g>
<!-- Node25 -->
<g id="node4" class="node">
<title>Node25</title>
<g id="a_node4"><a xlink:href="classRa_1_1Core_1_1Utils_1_1ColorBase.html#a54193413c10301c1edf46fc41fb09dfb" target="_top" xlink:title="Ra::Core::Utils::ColorBase\l\&lt; Scalar \&gt;::Green">
<polygon fill="#ffffff" stroke="#000000" points="361,-49.5 361,-79.5 503,-79.5 503,-49.5 361,-49.5"/>
<text text-anchor="start" x="369" y="-67.5" font-family="Helvetica,sans-Serif" font-size="10.00" fill="#000000">Ra::Core::Utils::ColorBase</text>
<text text-anchor="middle" x="432" y="-56.5" font-family="Helvetica,sans-Serif" font-size="10.00" fill="#000000">&lt; Scalar &gt;::Green</text>
</a>
</g>
</g>
<!-- Node23&#45;&gt;Node25 -->
<g id="edge3" class="edge">
<title>Node23&#45;&gt;Node25</title>
<path fill="none" stroke="#191970" d="M325.1087,-64.5C333.612,-64.5 342.3106,-64.5 350.8929,-64.5"/>
<polygon fill="#191970" stroke="#191970" points="350.8956,-68.0001 360.8956,-64.5 350.8956,-61.0001 350.8956,-68.0001"/>
</g>
<!-- Node26 -->
<g id="node5" class="node">
<title>Node26</title>
<g id="a_node5"><a xlink:href="classRa_1_1Core_1_1Utils_1_1ColorBase.html#aed9cce82f3b09c3ec32a9fdc898d3b7f" target="_top" xlink:title="Ra::Core::Utils::ColorBase\l\&lt; Scalar \&gt;::Blue">
<polygon fill="#ffffff" stroke="#000000" points="361,-.5 361,-30.5 503,-30.5 503,-.5 361,-.5"/>
<text text-anchor="start" x="369" y="-18.5" font-family="Helvetica,sans-Serif" font-size="10.00" fill="#000000">Ra::Core::Utils::ColorBase</text>
<text text-anchor="middle" x="432" y="-7.5" font-family="Helvetica,sans-Serif" font-size="10.00" fill="#000000">&lt; Scalar &gt;::Blue</text>
</a>
</g>
</g>
<!-- Node23&#45;&gt;Node26 -->
<g id="edge4" class="edge">
<title>Node23&#45;&gt;Node26</title>
<path fill="none" stroke="#191970" d="M306.437,-49.3986C325.4161,-44.2747 346.7898,-38.5044 366.4497,-33.1968"/>
<polygon fill="#191970" stroke="#191970" points="367.5056,-36.5371 376.2477,-30.5516 365.6811,-29.779 367.5056,-36.5371"/>
</g>
</g>
</svg>
