<?xml version="1.0" encoding="UTF-8" standalone="no"?>
<!DOCTYPE svg PUBLIC "-//W3C//DTD SVG 1.1//EN"
 "http://www.w3.org/Graphics/SVG/1.1/DTD/svg11.dtd">
<!-- Generated by graphviz version 2.40.1 (20161225.0304)
 -->
<!-- Title: Ra::GuiBase::SelectionManager::onModelRebuilt Pages: 1 -->
<svg width="327pt" height="39pt"
 viewBox="0.00 0.00 327.00 39.00" xmlns="http://www.w3.org/2000/svg" xmlns:xlink="http://www.w3.org/1999/xlink">
<g id="graph0" class="graph" transform="scale(1 1) rotate(0) translate(4 35)">
<title>Ra::GuiBase::SelectionManager::onModelRebuilt</title>
<polygon fill="#ffffff" stroke="transparent" points="-4,4 -4,-35 323,-35 323,4 -4,4"/>
<!-- Node43 -->
<g id="node1" class="node">
<title>Node43</title>
<polygon fill="#bfbfbf" stroke="#000000" points="0,-.5 0,-30.5 169,-30.5 169,-.5 0,-.5"/>
<text text-anchor="start" x="8" y="-18.5" font-family="Helvetica,sans-Serif" font-size="10.00" fill="#000000">Ra::GuiBase::SelectionManager</text>
<text text-anchor="middle" x="84.5" y="-7.5" font-family="Helvetica,sans-Serif" font-size="10.00" fill="#000000">::onModelRebuilt</text>
</g>
<!-- Node44 -->
<g id="node2" class="node">
<title>Node44</title>
<g id="a_node2"><a xlink:href="namespaceRa_1_1Core_1_1Animation.html#a547f9928803752e611f856afca5b613f" target="_top" xlink:title="Remove all the key Poses. ">
<polygon fill="#ffffff" stroke="#000000" points="205,-.5 205,-30.5 319,-30.5 319,-.5 205,-.5"/>
<text text-anchor="start" x="213" y="-18.5" font-family="Helvetica,sans-Serif" font-size="10.00" fill="#000000">Ra::Core::Animation</text>
<text text-anchor="middle" x="262" y="-7.5" font-family="Helvetica,sans-Serif" font-size="10.00" fill="#000000">::clear</text>
</a>
</g>
</g>
<!-- Node43&#45;&gt;Node44 -->
<g id="edge1" class="edge">
<title>Node43&#45;&gt;Node44</title>
<path fill="none" stroke="#191970" d="M169.0912,-15.5C177.7245,-15.5 186.4105,-15.5 194.8212,-15.5"/>
<polygon fill="#191970" stroke="#191970" points="194.9221,-19.0001 204.922,-15.5 194.922,-12.0001 194.9221,-19.0001"/>
</g>
</g>
</svg>
