<?xml version="1.0" encoding="UTF-8" standalone="no"?>
<!DOCTYPE svg PUBLIC "-//W3C//DTD SVG 1.1//EN"
 "http://www.w3.org/Graphics/SVG/1.1/DTD/svg11.dtd">
<!-- Generated by graphviz version 2.40.1 (20161225.0304)
 -->
<!-- Title: Ra::Engine::CameraManager Pages: 1 -->
<svg width="591pt" height="784pt"
 viewBox="0.00 0.00 591.00 784.00" xmlns="http://www.w3.org/2000/svg" xmlns:xlink="http://www.w3.org/1999/xlink">
<g id="graph0" class="graph" transform="scale(1 1) rotate(0) translate(4 780)">
<title>Ra::Engine::CameraManager</title>
<polygon fill="#ffffff" stroke="transparent" points="-4,4 -4,-780 587,-780 587,4 -4,4"/>
<!-- Node3 -->
<g id="node1" class="node">
<title>Node3</title>
<polygon fill="#bfbfbf" stroke="#000000" points="174.5,-.5 174.5,-178.5 333.5,-178.5 333.5,-.5 174.5,-.5"/>
<text text-anchor="middle" x="254" y="-166.5" font-family="Helvetica,sans-Serif" font-size="10.00" fill="#000000">Ra::Engine::CameraManager</text>
<polyline fill="none" stroke="#000000" points="174.5,-159.5 333.5,-159.5 "/>
<text text-anchor="middle" x="254" y="-147.5" font-family="Helvetica,sans-Serif" font-size="10.00" fill="#000000"> </text>
<polyline fill="none" stroke="#000000" points="174.5,-140.5 333.5,-140.5 "/>
<text text-anchor="start" x="182.5" y="-128.5" font-family="Helvetica,sans-Serif" font-size="10.00" fill="#000000">+ CameraManager()</text>
<text text-anchor="start" x="182.5" y="-117.5" font-family="Helvetica,sans-Serif" font-size="10.00" fill="#000000">+ CameraManager()</text>
<text text-anchor="start" x="182.5" y="-106.5" font-family="Helvetica,sans-Serif" font-size="10.00" fill="#000000">+ operator=()</text>
<text text-anchor="start" x="182.5" y="-95.5" font-family="Helvetica,sans-Serif" font-size="10.00" fill="#000000">+ ~CameraManager()</text>
<text text-anchor="start" x="182.5" y="-84.5" font-family="Helvetica,sans-Serif" font-size="10.00" fill="#000000">+ getCamera()</text>
<text text-anchor="start" x="182.5" y="-73.5" font-family="Helvetica,sans-Serif" font-size="10.00" fill="#000000">+ addCamera()</text>
<text text-anchor="start" x="182.5" y="-62.5" font-family="Helvetica,sans-Serif" font-size="10.00" fill="#000000">+ count()</text>
<text text-anchor="start" x="182.5" y="-51.5" font-family="Helvetica,sans-Serif" font-size="10.00" fill="#000000">+ generateTasks()</text>
<text text-anchor="start" x="182.5" y="-40.5" font-family="Helvetica,sans-Serif" font-size="10.00" fill="#000000">+ handleAssetLoading()</text>
<text text-anchor="start" x="182.5" y="-29.5" font-family="Helvetica,sans-Serif" font-size="10.00" fill="#000000"># registerComponent()</text>
<text text-anchor="start" x="182.5" y="-18.5" font-family="Helvetica,sans-Serif" font-size="10.00" fill="#000000"># unregisterComponent()</text>
<text text-anchor="start" x="182.5" y="-7.5" font-family="Helvetica,sans-Serif" font-size="10.00" fill="#000000"># unregisterAllComponents()</text>
</g>
<!-- Node4 -->
<g id="node2" class="node">
<title>Node4</title>
<g id="a_node2"><a xlink:href="classRa_1_1Engine_1_1System.html" target="_top" xlink:title="{Ra::Engine::System\n||+ System()\l+ ~System()\l+ handleAssetLoading()\l+ generateTasks()\l+ getEntityComponents()\l# registerComponent()\l# unregisterComponent()\l# unregisterAllComponents()\l}">
<polygon fill="#ffffff" stroke="#000000" points="113.5,-216.5 113.5,-350.5 272.5,-350.5 272.5,-216.5 113.5,-216.5"/>
<text text-anchor="middle" x="193" y="-338.5" font-family="Helvetica,sans-Serif" font-size="10.00" fill="#000000">Ra::Engine::System</text>
<polyline fill="none" stroke="#000000" points="113.5,-331.5 272.5,-331.5 "/>
<text text-anchor="middle" x="193" y="-319.5" font-family="Helvetica,sans-Serif" font-size="10.00" fill="#000000"> </text>
<polyline fill="none" stroke="#000000" points="113.5,-312.5 272.5,-312.5 "/>
<text text-anchor="start" x="121.5" y="-300.5" font-family="Helvetica,sans-Serif" font-size="10.00" fill="#000000">+ System()</text>
<text text-anchor="start" x="121.5" y="-289.5" font-family="Helvetica,sans-Serif" font-size="10.00" fill="#000000">+ ~System()</text>
<text text-anchor="start" x="121.5" y="-278.5" font-family="Helvetica,sans-Serif" font-size="10.00" fill="#000000">+ handleAssetLoading()</text>
<text text-anchor="start" x="121.5" y="-267.5" font-family="Helvetica,sans-Serif" font-size="10.00" fill="#000000">+ generateTasks()</text>
<text text-anchor="start" x="121.5" y="-256.5" font-family="Helvetica,sans-Serif" font-size="10.00" fill="#000000">+ getEntityComponents()</text>
<text text-anchor="start" x="121.5" y="-245.5" font-family="Helvetica,sans-Serif" font-size="10.00" fill="#000000"># registerComponent()</text>
<text text-anchor="start" x="121.5" y="-234.5" font-family="Helvetica,sans-Serif" font-size="10.00" fill="#000000"># unregisterComponent()</text>
<text text-anchor="start" x="121.5" y="-223.5" font-family="Helvetica,sans-Serif" font-size="10.00" fill="#000000"># unregisterAllComponents()</text>
</a>
</g>
</g>
<!-- Node4&#45;&gt;Node3 -->
<g id="edge1" class="edge">
<title>Node4&#45;&gt;Node3</title>
<path fill="none" stroke="#191970" d="M217.1654,-206.646C220.0438,-197.4919 223.0009,-188.0874 225.9279,-178.7784"/>
<polygon fill="none" stroke="#191970" points="213.7389,-205.8751 214.0782,-216.4646 220.4166,-207.9749 213.7389,-205.8751"/>
</g>
<!-- Node5 -->
<g id="node3" class="node">
<title>Node5</title>
<polygon fill="#ffffff" stroke="#bfbfbf" points="58.5,-398.5 58.5,-477.5 231.5,-477.5 231.5,-398.5 58.5,-398.5"/>
<text text-anchor="start" x="66.5" y="-465.5" font-family="Helvetica,sans-Serif" font-size="10.00" fill="#000000">std::vector&lt; std::pair</text>
<text text-anchor="start" x="66.5" y="-454.5" font-family="Helvetica,sans-Serif" font-size="10.00" fill="#000000">&lt; const Ra::Engine::Entity</text>
<text text-anchor="middle" x="145" y="-443.5" font-family="Helvetica,sans-Serif" font-size="10.00" fill="#000000"> *, Ra::Engine::Component *&gt; &gt;</text>
<polyline fill="none" stroke="#bfbfbf" points="58.5,-436.5 231.5,-436.5 "/>
<text text-anchor="middle" x="145" y="-424.5" font-family="Helvetica,sans-Serif" font-size="10.00" fill="#000000"> </text>
<polyline fill="none" stroke="#bfbfbf" points="58.5,-417.5 231.5,-417.5 "/>
<text text-anchor="middle" x="145" y="-405.5" font-family="Helvetica,sans-Serif" font-size="10.00" fill="#000000"> </text>
</g>
<!-- Node5&#45;&gt;Node4 -->
<g id="edge2" class="edge">
<title>Node5&#45;&gt;Node4</title>
<path fill="none" stroke="#404040" d="M157.3612,-398.2124C160.7713,-387.2361 164.5951,-374.9284 168.4381,-362.5588"/>
<polygon fill="none" stroke="#404040" points="168.5552,-362.1814 166.5155,-355.2648 172.1156,-350.7217 174.1553,-357.6384 168.5552,-362.1814"/>
<text text-anchor="middle" x="210.5" y="-372" font-family="Helvetica,sans-Serif" font-size="10.00" fill="#000000"> #m_components</text>
</g>
<!-- Node6 -->
<g id="node4" class="node">
<title>Node6</title>
<polygon fill="#ffffff" stroke="#bfbfbf" points="0,-569.5 0,-648.5 128,-648.5 128,-569.5 0,-569.5"/>
<text text-anchor="start" x="8" y="-636.5" font-family="Helvetica,sans-Serif" font-size="10.00" fill="#000000">pair&lt; const Ra::Engine</text>
<text text-anchor="start" x="8" y="-625.5" font-family="Helvetica,sans-Serif" font-size="10.00" fill="#000000">::Entity *, Ra::Engine</text>
<text text-anchor="middle" x="64" y="-614.5" font-family="Helvetica,sans-Serif" font-size="10.00" fill="#000000">::Component * &gt;</text>
<polyline fill="none" stroke="#bfbfbf" points="0,-607.5 128,-607.5 "/>
<text text-anchor="middle" x="64" y="-595.5" font-family="Helvetica,sans-Serif" font-size="10.00" fill="#000000"> </text>
<polyline fill="none" stroke="#bfbfbf" points="0,-588.5 128,-588.5 "/>
<text text-anchor="middle" x="64" y="-576.5" font-family="Helvetica,sans-Serif" font-size="10.00" fill="#000000"> </text>
</g>
<!-- Node6&#45;&gt;Node5 -->
<g id="edge3" class="edge">
<title>Node6&#45;&gt;Node5</title>
<path fill="none" stroke="#404040" d="M69.3804,-569.3817C73.5815,-546.8908 80.8226,-518.7721 93,-496 94.5316,-493.136 96.2334,-490.2988 98.0601,-487.5088"/>
<polygon fill="none" stroke="#404040" points="98.141,-487.396 98.391,-480.1892 105.1396,-477.6481 104.8896,-484.8549 98.141,-487.396"/>
<text text-anchor="middle" x="122" y="-510" font-family="Helvetica,sans-Serif" font-size="10.00" fill="#000000"> +elements</text>
</g>
<!-- Node7 -->
<g id="node5" class="node">
<title>Node7</title>
<g id="a_node5"><a xlink:title="STL class. ">
<polygon fill="#ffffff" stroke="#bfbfbf" points="147.5,-580.5 147.5,-637.5 244.5,-637.5 244.5,-580.5 147.5,-580.5"/>
<text text-anchor="middle" x="196" y="-625.5" font-family="Helvetica,sans-Serif" font-size="10.00" fill="#000000">std::vector&lt; T &gt;</text>
<polyline fill="none" stroke="#bfbfbf" points="147.5,-618.5 244.5,-618.5 "/>
<text text-anchor="middle" x="196" y="-606.5" font-family="Helvetica,sans-Serif" font-size="10.00" fill="#000000"> </text>
<polyline fill="none" stroke="#bfbfbf" points="147.5,-599.5 244.5,-599.5 "/>
<text text-anchor="middle" x="196" y="-587.5" font-family="Helvetica,sans-Serif" font-size="10.00" fill="#000000"> </text>
</a>
</g>
</g>
<!-- Node7&#45;&gt;Node5 -->
<g id="edge4" class="edge">
<title>Node7&#45;&gt;Node5</title>
<path fill="none" stroke="#ffa500" d="M177.9071,-571.1186C172.1829,-558.0055 166.2479,-543.0665 162,-529 157.0285,-512.5373 153.243,-493.9389 150.5206,-477.8661"/>
<polygon fill="#ffa500" stroke="#ffa500" points="174.7367,-572.6027 182.0109,-580.3057 181.128,-569.7477 174.7367,-572.6027"/>
<text text-anchor="start" x="162" y="-521" font-family="Helvetica,sans-Serif" font-size="10.00" fill="#000000"> &lt; std::pair&lt; const</text>
<text text-anchor="start" x="162" y="-510" font-family="Helvetica,sans-Serif" font-size="10.00" fill="#000000"> Ra::Engine::Entity</text>
<text text-anchor="middle" x="240.5" y="-499" font-family="Helvetica,sans-Serif" font-size="10.00" fill="#000000"> *, Ra::Engine::Component *&gt; &gt;</text>
</g>
<!-- Node8 -->
<g id="node6" class="node">
<title>Node8</title>
<polygon fill="#ffffff" stroke="#bfbfbf" points="244.5,-718.5 244.5,-775.5 273.5,-775.5 273.5,-718.5 244.5,-718.5"/>
<text text-anchor="middle" x="259" y="-763.5" font-family="Helvetica,sans-Serif" font-size="10.00" fill="#000000">T</text>
<polyline fill="none" stroke="#bfbfbf" points="244.5,-756.5 273.5,-756.5 "/>
<text text-anchor="middle" x="259" y="-744.5" font-family="Helvetica,sans-Serif" font-size="10.00" fill="#000000"> </text>
<polyline fill="none" stroke="#bfbfbf" points="244.5,-737.5 273.5,-737.5 "/>
<text text-anchor="middle" x="259" y="-725.5" font-family="Helvetica,sans-Serif" font-size="10.00" fill="#000000"> </text>
</g>
<!-- Node8&#45;&gt;Node7 -->
<g id="edge5" class="edge">
<title>Node8&#45;&gt;Node7</title>
<path fill="none" stroke="#404040" d="M244.2399,-724.0045C239.7128,-716.5006 234.9013,-708.0306 231,-700 223.1608,-683.8636 215.8136,-665.491 209.8946,-649.4996"/>
<polygon fill="none" stroke="#404040" points="209.748,-649.0945 203.9441,-644.8149 205.6622,-637.8114 211.4661,-642.091 209.748,-649.0945"/>
<text text-anchor="middle" x="260" y="-692" font-family="Helvetica,sans-Serif" font-size="10.00" fill="#000000"> +elements</text>
</g>
<!-- Node11 -->
<g id="node9" class="node">
<title>Node11</title>
<g id="a_node9"><a xlink:title="STL class. ">
<polygon fill="#ffffff" stroke="#bfbfbf" points="264,-580.5 264,-637.5 382,-637.5 382,-580.5 264,-580.5"/>
<text text-anchor="middle" x="323" y="-625.5" font-family="Helvetica,sans-Serif" font-size="10.00" fill="#000000">std::unique_ptr&lt; T &gt;</text>
<polyline fill="none" stroke="#bfbfbf" points="264,-618.5 382,-618.5 "/>
<text text-anchor="middle" x="323" y="-606.5" font-family="Helvetica,sans-Serif" font-size="10.00" fill="#000000"> </text>
<polyline fill="none" stroke="#bfbfbf" points="264,-599.5 382,-599.5 "/>
<text text-anchor="start" x="272" y="-587.5" font-family="Helvetica,sans-Serif" font-size="10.00" fill="#000000">+ operator&#45;&gt;()</text>
</a>
</g>
</g>
<!-- Node8&#45;&gt;Node11 -->
<g id="edge9" class="edge">
<title>Node8&#45;&gt;Node11</title>
<path fill="none" stroke="#404040" d="M273.7214,-726.0299C278.9334,-718.091 284.5914,-708.8351 289,-700 297.0408,-683.8857 304.2892,-665.3819 310.0073,-649.2855"/>
<polygon fill="none" stroke="#404040" points="310.1515,-648.8677 308.3296,-641.8905 314.0694,-637.5253 315.8913,-644.5025 310.1515,-648.8677"/>
<text text-anchor="middle" x="305.5" y="-692" font-family="Helvetica,sans-Serif" font-size="10.00" fill="#000000"> +ptr</text>
</g>
<!-- Node9 -->
<g id="node7" class="node">
<title>Node9</title>
<polygon fill="#ffffff" stroke="#bfbfbf" points="250.5,-404 250.5,-472 399.5,-472 399.5,-404 250.5,-404"/>
<text text-anchor="start" x="258.5" y="-460" font-family="Helvetica,sans-Serif" font-size="10.00" fill="#000000">std::unique_ptr&lt; Ra</text>
<text text-anchor="middle" x="325" y="-449" font-family="Helvetica,sans-Serif" font-size="10.00" fill="#000000">::Engine::CameraStorage &gt;</text>
<polyline fill="none" stroke="#bfbfbf" points="250.5,-442 399.5,-442 "/>
<text text-anchor="middle" x="325" y="-430" font-family="Helvetica,sans-Serif" font-size="10.00" fill="#000000"> </text>
<polyline fill="none" stroke="#bfbfbf" points="250.5,-423 399.5,-423 "/>
<text text-anchor="start" x="258.5" y="-411" font-family="Helvetica,sans-Serif" font-size="10.00" fill="#000000">+ operator&#45;&gt;()</text>
</g>
<!-- Node9&#45;&gt;Node3 -->
<g id="edge6" class="edge">
<title>Node9&#45;&gt;Node3</title>
<path fill="none" stroke="#404040" d="M318.3711,-403.7408C309.8908,-360.1045 294.6628,-282.3863 281,-216 279.2883,-207.683 277.4932,-199.063 275.6767,-190.4111"/>
<polygon fill="none" stroke="#404040" points="275.6662,-190.361 270.5151,-185.3145 273.1921,-178.6187 278.3432,-183.6652 275.6662,-190.361"/>
<text text-anchor="middle" x="331.5" y="-281" font-family="Helvetica,sans-Serif" font-size="10.00" fill="#000000"> #m_data</text>
</g>
<!-- Node10 -->
<g id="node8" class="node">
<title>Node10</title>
<g id="a_node8"><a xlink:href="classRa_1_1Engine_1_1CameraStorage.html" target="_top" xlink:title="{Ra::Engine::CameraStorage\n||+ CameraStorage()\l+ ~CameraStorage()\l+ size()\l+ add()\l+ remove()\l+ clear()\l+ operator[]()\l}">
<polygon fill="#ffffff" stroke="#000000" points="433,-547.5 433,-670.5 583,-670.5 583,-547.5 433,-547.5"/>
<text text-anchor="middle" x="508" y="-658.5" font-family="Helvetica,sans-Serif" font-size="10.00" fill="#000000">Ra::Engine::CameraStorage</text>
<polyline fill="none" stroke="#000000" points="433,-651.5 583,-651.5 "/>
<text text-anchor="middle" x="508" y="-639.5" font-family="Helvetica,sans-Serif" font-size="10.00" fill="#000000"> </text>
<polyline fill="none" stroke="#000000" points="433,-632.5 583,-632.5 "/>
<text text-anchor="start" x="441" y="-620.5" font-family="Helvetica,sans-Serif" font-size="10.00" fill="#000000">+ CameraStorage()</text>
<text text-anchor="start" x="441" y="-609.5" font-family="Helvetica,sans-Serif" font-size="10.00" fill="#000000">+ ~CameraStorage()</text>
<text text-anchor="start" x="441" y="-598.5" font-family="Helvetica,sans-Serif" font-size="10.00" fill="#000000">+ size()</text>
<text text-anchor="start" x="441" y="-587.5" font-family="Helvetica,sans-Serif" font-size="10.00" fill="#000000">+ add()</text>
<text text-anchor="start" x="441" y="-576.5" font-family="Helvetica,sans-Serif" font-size="10.00" fill="#000000">+ remove()</text>
<text text-anchor="start" x="441" y="-565.5" font-family="Helvetica,sans-Serif" font-size="10.00" fill="#000000">+ clear()</text>
<text text-anchor="start" x="441" y="-554.5" font-family="Helvetica,sans-Serif" font-size="10.00" fill="#000000">+ operator[]()</text>
</a>
</g>
</g>
<!-- Node10&#45;&gt;Node9 -->
<g id="edge7" class="edge">
<title>Node10&#45;&gt;Node9</title>
<path fill="none" stroke="#404040" d="M507.3615,-547.3607C504.3746,-529.086 498.1619,-510.1881 486,-496 466.9666,-473.7956 438.7658,-460.0916 411.2619,-451.634"/>
<polygon fill="none" stroke="#404040" points="411.0931,-451.5863 404.2311,-453.8027 399.5459,-448.321 406.408,-446.1046 411.0931,-451.5863"/>
<text text-anchor="middle" x="515.5" y="-510" font-family="Helvetica,sans-Serif" font-size="10.00" fill="#000000"> +ptr</text>
</g>
<!-- Node11&#45;&gt;Node9 -->
<g id="edge8" class="edge">
<title>Node11&#45;&gt;Node9</title>
<path fill="none" stroke="#ffa500" d="M323.4559,-570.0167C323.8015,-540.4698 324.2717,-500.268 324.6022,-472.0157"/>
<polygon fill="#ffa500" stroke="#ffa500" points="319.952,-570.3382 323.3348,-580.3784 326.9516,-570.4201 319.952,-570.3382"/>
<text text-anchor="middle" x="404" y="-510" font-family="Helvetica,sans-Serif" font-size="10.00" fill="#000000"> &lt; Ra::Engine::CameraStorage &gt;</text>
</g>
</g>
</svg>
