<?xml version="1.0" encoding="UTF-8" standalone="no"?>
<!DOCTYPE svg PUBLIC "-//W3C//DTD SVG 1.1//EN"
 "http://www.w3.org/Graphics/SVG/1.1/DTD/svg11.dtd">
<!-- Generated by graphviz version 2.40.1 (20161225.0304)
 -->
<!-- Title: Ra::Engine::DebugRender::addCircle Pages: 1 -->
<!--zoomable 280 -->
<svg id="main" version="1.1" xmlns="http://www.w3.org/2000/svg" xmlns:xlink="http://www.w3.org/1999/xlink" xml:space="preserve" onload="init(evt)">
<style type="text/css"><![CDATA[
.edge:hover path { stroke: red; }
.edge:hover polygon { stroke: red; fill: red; }
]]></style>
<script type="text/javascript"><![CDATA[
var edges = document.getElementsByTagName('g');
if (edges && edges.length) {
  for (var i=0;i<edges.length;i++) {
    if (edges[i].id.substr(0,4)=='edge') {
      edges[i].setAttribute('class','edge');
    }
  }
}
]]></script>
        <defs>
                <circle id="rim" cx="0" cy="0" r="7"/>
                <circle id="rim2" cx="0" cy="0" r="3.5"/>
                <g id="zoomPlus">
                        <use xlink:href="#rim" fill="#404040">
                                <set attributeName="fill" to="#808080" begin="zoomplus.mouseover" end="zoomplus.mouseout"/>
                        </use>
                        <path d="M-4,0h8M0,-4v8" fill="none" stroke="white" stroke-width="1.5" pointer-events="none"/>
                </g>
                <g id="zoomMin">
                        <use xlink:href="#rim" fill="#404040">
                                <set attributeName="fill" to="#808080" begin="zoomminus.mouseover" end="zoomminus.mouseout"/>
                        </use>
                        <path d="M-4,0h8" fill="none" stroke="white" stroke-width="1.5" pointer-events="none"/>
                </g>
                <g id="dirArrow">
                        <path fill="none" stroke="white" stroke-width="1.5" d="M0,-3.0v7 M-2.5,-0.5L0,-3.0L2.5,-0.5"/>
                </g>
               <g id="resetDef">
                       <use xlink:href="#rim2" fill="#404040">
                               <set attributeName="fill" to="#808080" begin="reset.mouseover" end="reset.mouseout"/>
                       </use>
               </g>
        </defs>

<script type="text/javascript">
var viewWidth = 1272;
var viewHeight = 280;
var sectionId = 'dynsection-2';
</script>
<script xlink:href="svgpan.js"/>
<svg id="graph" class="graph">
<g id="viewport">
<title>Ra::Engine::DebugRender::addCircle</title>
<polygon fill="#ffffff" stroke="transparent" points="-4,4 -4,-276 1268,-276 1268,4 -4,4"/>
<!-- Node4 -->
<g id="node1" class="node">
<title>Node4</title>
<polygon fill="#bfbfbf" stroke="#000000" points="0,-148.5 0,-178.5 140,-178.5 140,-148.5 0,-148.5"/>
<text text-anchor="start" x="8" y="-166.5" font-family="Helvetica,sans-Serif" font-size="10.00" fill="#000000">Ra::Engine::DebugRender</text>
<text text-anchor="middle" x="70" y="-155.5" font-family="Helvetica,sans-Serif" font-size="10.00" fill="#000000">::addCircle</text>
</g>
<!-- Node5 -->
<g id="node2" class="node">
<title>Node5</title>
<g id="a_node2"><a xlink:href="namespaceRa_1_1Engine_1_1DrawPrimitives.html#a80e6b453e8ebd8cb6874bf7ac89e2e5e" target="_top" xlink:title="Ra::Engine::DrawPrimitives\l::Circle">
<polygon fill="#ffffff" stroke="#000000" points="176,-148.5 176,-178.5 325,-178.5 325,-148.5 176,-148.5"/>
<text text-anchor="start" x="184" y="-166.5" font-family="Helvetica,sans-Serif" font-size="10.00" fill="#000000">Ra::Engine::DrawPrimitives</text>
<text text-anchor="middle" x="250.5" y="-155.5" font-family="Helvetica,sans-Serif" font-size="10.00" fill="#000000">::Circle</text>
</a>
</g>
</g>
<!-- Node4&#45;&gt;Node5 -->
<g id="edge1" class="edge">
<title>Node4&#45;&gt;Node5</title>
<path fill="none" stroke="#191970" d="M140.0444,-163.5C148.449,-163.5 157.1,-163.5 165.6852,-163.5"/>
<polygon fill="#191970" stroke="#191970" points="165.7146,-167.0001 175.7146,-163.5 165.7145,-160.0001 165.7146,-167.0001"/>
</g>
<!-- Node6 -->
<g id="node3" class="node">
<title>Node6</title>
<g id="a_node3"><a xlink:href="namespaceRa_1_1Core_1_1Math.html#a5f25a31a29b0688e349dc35a353b9766" target="_top" xlink:title="Ra::Core::Math::getOrthogonal\lVectors">
<polygon fill="#ffffff" stroke="#000000" points="361,-241.5 361,-271.5 525,-271.5 525,-241.5 361,-241.5"/>
<text text-anchor="start" x="369" y="-259.5" font-family="Helvetica,sans-Serif" font-size="10.00" fill="#000000">Ra::Core::Math::getOrthogonal</text>
<text text-anchor="middle" x="443" y="-248.5" font-family="Helvetica,sans-Serif" font-size="10.00" fill="#000000">Vectors</text>
</a>
</g>
</g>
<!-- Node5&#45;&gt;Node6 -->
<g id="edge2" class="edge">
<title>Node5&#45;&gt;Node6</title>
<path fill="none" stroke="#191970" d="M271.6032,-178.7632C293.1966,-193.822 328.1475,-216.6794 361,-231.5 366.0874,-233.7951 371.4439,-235.9542 376.8815,-237.968"/>
<polygon fill="#191970" stroke="#191970" points="376.1212,-241.411 386.7161,-241.4337 378.4479,-234.8089 376.1212,-241.411"/>
</g>
<!-- Node9 -->
<g id="node6" class="node">
<title>Node9</title>
<g id="a_node6"><a xlink:href="namespaceRa_1_1Core_1_1Math.html#a4f441ac6a56092d52849a4f48e274aa8" target="_top" xlink:title="Ra::Core::Math::cos">
<polygon fill="#ffffff" stroke="#000000" points="388,-203 388,-222 498,-222 498,-203 388,-203"/>
<text text-anchor="middle" x="443" y="-210" font-family="Helvetica,sans-Serif" font-size="10.00" fill="#000000">Ra::Core::Math::cos</text>
</a>
</g>
</g>
<!-- Node5&#45;&gt;Node9 -->
<g id="edge5" class="edge">
<title>Node5&#45;&gt;Node9</title>
<path fill="none" stroke="#191970" d="M304.3493,-178.5532C322.3272,-183.463 342.493,-188.8454 361,-193.5 370.4664,-195.8809 380.5755,-198.3128 390.3474,-200.6071"/>
<polygon fill="#191970" stroke="#191970" points="389.8343,-204.0812 400.3676,-202.9403 391.4218,-197.2636 389.8343,-204.0812"/>
</g>
<!-- Node10 -->
<g id="node7" class="node">
<title>Node10</title>
<g id="a_node7"><a xlink:href="classRa_1_1Core_1_1Geometry_1_1AttribArrayGeometry.html#a887411177386edbcdc35d0c6bf78a83a" target="_top" xlink:title="Set vertices. ">
<polygon fill="#ffffff" stroke="#000000" points="380.5,-143 380.5,-184 505.5,-184 505.5,-143 380.5,-143"/>
<text text-anchor="start" x="388.5" y="-172" font-family="Helvetica,sans-Serif" font-size="10.00" fill="#000000">Ra::Core::Geometry</text>
<text text-anchor="start" x="388.5" y="-161" font-family="Helvetica,sans-Serif" font-size="10.00" fill="#000000">::AttribArrayGeometry</text>
<text text-anchor="middle" x="443" y="-150" font-family="Helvetica,sans-Serif" font-size="10.00" fill="#000000">::setVertices</text>
</a>
</g>
</g>
<!-- Node5&#45;&gt;Node10 -->
<g id="edge6" class="edge">
<title>Node5&#45;&gt;Node10</title>
<path fill="none" stroke="#191970" d="M325.201,-163.5C339.9704,-163.5 355.4534,-163.5 370.1601,-163.5"/>
<polygon fill="#191970" stroke="#191970" points="370.1993,-167.0001 380.1993,-163.5 370.1993,-160.0001 370.1993,-167.0001"/>
</g>
<!-- Node12 -->
<g id="node9" class="node">
<title>Node12</title>
<g id="a_node9"><a xlink:href="classRa_1_1Core_1_1Geometry_1_1AttribArrayGeometry.html#acabe05880d71a8dc4406964c258fff5a" target="_top" xlink:title="Access the vertices positions. ">
<polygon fill="#ffffff" stroke="#000000" points="579,-96 579,-137 704,-137 704,-96 579,-96"/>
<text text-anchor="start" x="587" y="-125" font-family="Helvetica,sans-Serif" font-size="10.00" fill="#000000">Ra::Core::Geometry</text>
<text text-anchor="start" x="587" y="-114" font-family="Helvetica,sans-Serif" font-size="10.00" fill="#000000">::AttribArrayGeometry</text>
<text text-anchor="middle" x="641.5" y="-103" font-family="Helvetica,sans-Serif" font-size="10.00" fill="#000000">::vertices</text>
</a>
</g>
</g>
<!-- Node5&#45;&gt;Node12 -->
<g id="edge17" class="edge">
<title>Node5&#45;&gt;Node12</title>
<path fill="none" stroke="#191970" d="M297.623,-148.4241C317.0511,-142.8088 339.9133,-136.964 361,-133.5 430.908,-122.0161 511.7597,-118.0905 568.6467,-116.8435"/>
<polygon fill="#191970" stroke="#191970" points="569.0524,-120.3363 578.9818,-116.6406 568.915,-113.3377 569.0524,-120.3363"/>
</g>
<!-- Node14 -->
<g id="node11" class="node">
<title>Node14</title>
<g id="a_node11"><a xlink:href="classRa_1_1Core_1_1Geometry_1_1AttribArrayGeometry.html#ae1956b0396dadd84f55a12f2160e5671" target="_top" xlink:title="Ra::Core::Geometry\l::AttribArrayGeometry\l::addAttrib">
<polygon fill="#ffffff" stroke="#000000" points="380.5,-44 380.5,-85 505.5,-85 505.5,-44 380.5,-44"/>
<text text-anchor="start" x="388.5" y="-73" font-family="Helvetica,sans-Serif" font-size="10.00" fill="#000000">Ra::Core::Geometry</text>
<text text-anchor="start" x="388.5" y="-62" font-family="Helvetica,sans-Serif" font-size="10.00" fill="#000000">::AttribArrayGeometry</text>
<text text-anchor="middle" x="443" y="-51" font-family="Helvetica,sans-Serif" font-size="10.00" fill="#000000">::addAttrib</text>
</a>
</g>
</g>
<!-- Node5&#45;&gt;Node14 -->
<g id="edge10" class="edge">
<title>Node5&#45;&gt;Node14</title>
<path fill="none" stroke="#191970" d="M275.11,-148.4827C297.2404,-135.2174 330.8147,-115.6789 361,-100.5 368.4878,-96.7347 376.458,-92.9589 384.3755,-89.344"/>
<polygon fill="#191970" stroke="#191970" points="385.9323,-92.4815 393.6137,-85.1845 383.0584,-86.0987 385.9323,-92.4815"/>
</g>
<!-- Node7 -->
<g id="node4" class="node">
<title>Node7</title>
<g id="a_node4"><a xlink:href="namespaceRa_1_1Core_1_1Math.html#a90f0fe9079f5bb86c721ea4b61738470" target="_top" xlink:title="Returns the sign of any numeric type as { &#45;1, 0, 1}. ">
<polygon fill="#ffffff" stroke="#000000" points="584.5,-247 584.5,-266 698.5,-266 698.5,-247 584.5,-247"/>
<text text-anchor="middle" x="641.5" y="-254" font-family="Helvetica,sans-Serif" font-size="10.00" fill="#000000">Ra::Core::Math::sign</text>
</a>
</g>
</g>
<!-- Node6&#45;&gt;Node7 -->
<g id="edge3" class="edge">
<title>Node6&#45;&gt;Node7</title>
<path fill="none" stroke="#191970" d="M525.1704,-256.5C541.5315,-256.5 558.531,-256.5 574.3178,-256.5"/>
<polygon fill="#191970" stroke="#191970" points="574.4979,-260.0001 584.4979,-256.5 574.4979,-253.0001 574.4979,-260.0001"/>
</g>
<!-- Node8 -->
<g id="node5" class="node">
<title>Node8</title>
<g id="a_node5"><a xlink:href="namespaceRa_1_1Core_1_1Math.html#a1e6a5327cb1c73b29e0c6539576d02b0" target="_top" xlink:title="Ra::Core::Math::signum">
<polygon fill="#ffffff" stroke="#000000" points="773.5,-247 773.5,-266 903.5,-266 903.5,-247 773.5,-247"/>
<text text-anchor="middle" x="838.5" y="-254" font-family="Helvetica,sans-Serif" font-size="10.00" fill="#000000">Ra::Core::Math::signum</text>
</a>
</g>
</g>
<!-- Node7&#45;&gt;Node8 -->
<g id="edge4" class="edge">
<title>Node7&#45;&gt;Node8</title>
<path fill="none" stroke="#191970" d="M698.7452,-256.5C718.9479,-256.5 741.9767,-256.5 763.431,-256.5"/>
<polygon fill="#191970" stroke="#191970" points="763.4884,-260.0001 773.4884,-256.5 763.4883,-253.0001 763.4884,-260.0001"/>
</g>
<!-- Node11 -->
<g id="node8" class="node">
<title>Node11</title>
<g id="a_node8"><a xlink:href="classRa_1_1Core_1_1Utils_1_1AttribManager.html#a056b7697cfbedd6b20dde6ce7955094e" target="_top" xlink:title="Ra::Core::Utils::AttribManager\l::setAttrib">
<polygon fill="#ffffff" stroke="#000000" points="561,-156.5 561,-186.5 722,-186.5 722,-156.5 561,-156.5"/>
<text text-anchor="start" x="569" y="-174.5" font-family="Helvetica,sans-Serif" font-size="10.00" fill="#000000">Ra::Core::Utils::AttribManager</text>
<text text-anchor="middle" x="641.5" y="-163.5" font-family="Helvetica,sans-Serif" font-size="10.00" fill="#000000">::setAttrib</text>
</a>
</g>
</g>
<!-- Node10&#45;&gt;Node11 -->
<g id="edge7" class="edge">
<title>Node10&#45;&gt;Node11</title>
<path fill="none" stroke="#191970" d="M505.5342,-166.0203C519.7535,-166.5933 535.1433,-167.2136 550.2822,-167.8237"/>
<polygon fill="#191970" stroke="#191970" points="550.5726,-171.3382 560.7054,-168.2438 550.8545,-164.3438 550.5726,-171.3382"/>
</g>
<!-- Node10&#45;&gt;Node12 -->
<g id="edge8" class="edge">
<title>Node10&#45;&gt;Node12</title>
<path fill="none" stroke="#191970" d="M505.5342,-148.6934C525.7437,-143.9083 548.3174,-138.5634 569.1749,-133.6248"/>
<polygon fill="#191970" stroke="#191970" points="570.0147,-137.0228 578.9392,-131.3129 568.4018,-130.2112 570.0147,-137.0228"/>
</g>
<!-- Node13 -->
<g id="node10" class="node">
<title>Node13</title>
<g id="a_node10"><a xlink:href="classRa_1_1Core_1_1Utils_1_1AttribManager.html#ae0cb7281ec72606a5392602b4ea50d2c" target="_top" xlink:title="Ra::Core::Utils::AttribManager\l::getAttrib">
<polygon fill="#ffffff" stroke="#000000" points="758,-101.5 758,-131.5 919,-131.5 919,-101.5 758,-101.5"/>
<text text-anchor="start" x="766" y="-119.5" font-family="Helvetica,sans-Serif" font-size="10.00" fill="#000000">Ra::Core::Utils::AttribManager</text>
<text text-anchor="middle" x="838.5" y="-108.5" font-family="Helvetica,sans-Serif" font-size="10.00" fill="#000000">::getAttrib</text>
</a>
</g>
</g>
<!-- Node12&#45;&gt;Node13 -->
<g id="edge9" class="edge">
<title>Node12&#45;&gt;Node13</title>
<path fill="none" stroke="#191970" d="M704.1027,-116.5C717.9253,-116.5 732.8405,-116.5 747.5309,-116.5"/>
<polygon fill="#191970" stroke="#191970" points="747.6492,-120.0001 757.6492,-116.5 747.6491,-113.0001 747.6492,-120.0001"/>
</g>
<!-- Node15 -->
<g id="node12" class="node">
<title>Node15</title>
<g id="a_node12"><a xlink:href="classRa_1_1Core_1_1Utils_1_1AttribManager.html#ac2d3cdc360ffe1904a15ff8504de95b8" target="_top" xlink:title="Ra::Core::Utils::AttribManager\l::addAttrib">
<polygon fill="#ffffff" stroke="#000000" points="561,-46.5 561,-76.5 722,-76.5 722,-46.5 561,-46.5"/>
<text text-anchor="start" x="569" y="-64.5" font-family="Helvetica,sans-Serif" font-size="10.00" fill="#000000">Ra::Core::Utils::AttribManager</text>
<text text-anchor="middle" x="641.5" y="-53.5" font-family="Helvetica,sans-Serif" font-size="10.00" fill="#000000">::addAttrib</text>
</a>
</g>
</g>
<!-- Node14&#45;&gt;Node15 -->
<g id="edge11" class="edge">
<title>Node14&#45;&gt;Node15</title>
<path fill="none" stroke="#191970" d="M505.5342,-63.5549C519.7535,-63.34 535.1433,-63.1074 550.2822,-62.8786"/>
<polygon fill="#191970" stroke="#191970" points="550.7595,-66.3719 560.7054,-62.7211 550.6536,-59.3727 550.7595,-66.3719"/>
</g>
<!-- Node16 -->
<g id="node13" class="node">
<title>Node16</title>
<g id="a_node13"><a xlink:href="classRa_1_1Core_1_1Utils_1_1AttribManager.html#ae61e2c70f407d49d854ee4b98a39121f" target="_top" xlink:title="Return true if h correspond to an existing attribute in *this. ">
<polygon fill="#ffffff" stroke="#000000" points="758,-49.5 758,-79.5 919,-79.5 919,-49.5 758,-49.5"/>
<text text-anchor="start" x="766" y="-67.5" font-family="Helvetica,sans-Serif" font-size="10.00" fill="#000000">Ra::Core::Utils::AttribManager</text>
<text text-anchor="middle" x="838.5" y="-56.5" font-family="Helvetica,sans-Serif" font-size="10.00" fill="#000000">::isValid</text>
</a>
</g>
</g>
<!-- Node15&#45;&gt;Node16 -->
<g id="edge12" class="edge">
<title>Node15&#45;&gt;Node16</title>
<path fill="none" stroke="#191970" d="M722.1959,-62.7289C730.6733,-62.858 739.3327,-62.9898 747.9115,-63.1205"/>
<polygon fill="#191970" stroke="#191970" points="747.8775,-66.6203 757.9296,-63.273 747.9841,-59.6211 747.8775,-66.6203"/>
</g>
<!-- Node20 -->
<g id="node17" class="node">
<title>Node20</title>
<g id="a_node17"><a xlink:href="classRa_1_1Core_1_1Utils_1_1Observable.html#a7e5fe761726d56a51f95192eb6555f8f" target="_top" xlink:title="Notify (i.e. call) each attached observer with argument p. ">
<polygon fill="#ffffff" stroke="#000000" points="759,-.5 759,-30.5 918,-30.5 918,-.5 759,-.5"/>
<text text-anchor="start" x="767" y="-18.5" font-family="Helvetica,sans-Serif" font-size="10.00" fill="#000000">Ra::Core::Utils::Observable</text>
<text text-anchor="middle" x="838.5" y="-7.5" font-family="Helvetica,sans-Serif" font-size="10.00" fill="#000000">&lt; const std::string &amp;&gt;::notify</text>
</a>
</g>
</g>
<!-- Node15&#45;&gt;Node20 -->
<g id="edge16" class="edge">
<title>Node15&#45;&gt;Node20</title>
<path fill="none" stroke="#191970" d="M706.0052,-46.4379C724.6388,-42.0869 745.1225,-37.3039 764.2961,-32.8268"/>
<polygon fill="#191970" stroke="#191970" points="765.2444,-36.1996 774.1865,-30.5174 763.6526,-29.383 765.2444,-36.1996"/>
</g>
<!-- Node17 -->
<g id="node14" class="node">
<title>Node17</title>
<g id="a_node14"><a xlink:href="classRa_1_1Core_1_1Utils_1_1AttribHandle.html#a17afbd6718234d480c05258369bdfde9" target="_top" xlink:title="Ra::Core::Utils::AttribHandle\l::attribName">
<polygon fill="#ffffff" stroke="#000000" points="955,-73.5 955,-103.5 1109,-103.5 1109,-73.5 955,-73.5"/>
<text text-anchor="start" x="963" y="-91.5" font-family="Helvetica,sans-Serif" font-size="10.00" fill="#000000">Ra::Core::Utils::AttribHandle</text>
<text text-anchor="middle" x="1032" y="-80.5" font-family="Helvetica,sans-Serif" font-size="10.00" fill="#000000">::attribName</text>
</a>
</g>
</g>
<!-- Node16&#45;&gt;Node17 -->
<g id="edge13" class="edge">
<title>Node16&#45;&gt;Node17</title>
<path fill="none" stroke="#191970" d="M919.1603,-74.5044C927.6571,-75.5582 936.3244,-76.6333 944.8898,-77.6956"/>
<polygon fill="#191970" stroke="#191970" points="944.527,-81.1774 954.8818,-78.935 945.3887,-74.2306 944.527,-81.1774"/>
</g>
<!-- Node18 -->
<g id="node15" class="node">
<title>Node18</title>
<g id="a_node15"><a xlink:href="classRa_1_1Core_1_1Utils_1_1Index.html#a771f93efd49538950e3cb9e57e46fbaf" target="_top" xlink:title="Ra::Core::Utils::Index\l::Invalid">
<polygon fill="#ffffff" stroke="#000000" points="972.5,-24.5 972.5,-54.5 1091.5,-54.5 1091.5,-24.5 972.5,-24.5"/>
<text text-anchor="start" x="980.5" y="-42.5" font-family="Helvetica,sans-Serif" font-size="10.00" fill="#000000">Ra::Core::Utils::Index</text>
<text text-anchor="middle" x="1032" y="-31.5" font-family="Helvetica,sans-Serif" font-size="10.00" fill="#000000">::Invalid</text>
</a>
</g>
</g>
<!-- Node16&#45;&gt;Node18 -->
<g id="edge14" class="edge">
<title>Node16&#45;&gt;Node18</title>
<path fill="none" stroke="#191970" d="M919.1603,-54.0788C933.5129,-52.2244 948.3516,-50.3073 962.3648,-48.4968"/>
<polygon fill="#191970" stroke="#191970" points="962.9348,-51.9523 972.4039,-47.1998 962.0378,-45.01 962.9348,-51.9523"/>
</g>
<!-- Node19 -->
<g id="node16" class="node">
<title>Node19</title>
<g id="a_node16"><a xlink:href="classRa_1_1Core_1_1Utils_1_1Index.html#ab3376097b792b1ac2068c6da1cb6c8e4" target="_top" xlink:title="CONSTRUCTOR. ">
<polygon fill="#ffffff" stroke="#000000" points="1145,-24.5 1145,-54.5 1264,-54.5 1264,-24.5 1145,-24.5"/>
<text text-anchor="start" x="1153" y="-42.5" font-family="Helvetica,sans-Serif" font-size="10.00" fill="#000000">Ra::Core::Utils::Index</text>
<text text-anchor="middle" x="1204.5" y="-31.5" font-family="Helvetica,sans-Serif" font-size="10.00" fill="#000000">::Index</text>
</a>
</g>
</g>
<!-- Node18&#45;&gt;Node19 -->
<g id="edge15" class="edge">
<title>Node18&#45;&gt;Node19</title>
<path fill="none" stroke="#191970" d="M1091.848,-39.5C1105.6294,-39.5 1120.406,-39.5 1134.5728,-39.5"/>
<polygon fill="#191970" stroke="#191970" points="1134.7578,-43.0001 1144.7578,-39.5 1134.7577,-36.0001 1134.7578,-43.0001"/>
</g>
</g>
</svg>
        <g id="navigator" transform="translate(0 0)" fill="#404254">
                <rect fill="#f2f5e9" fill-opacity="0.5" stroke="#606060" stroke-width=".5" x="0" y="0" width="60" height="60"/>
                <use id="zoomplus" xlink:href="#zoomPlus" x="17" y="9" onmousedown="handleZoom(evt,'in')"/>
                <use id="zoomminus" xlink:href="#zoomMin" x="42" y="9" onmousedown="handleZoom(evt,'out')"/>
                <use id="reset" xlink:href="#resetDef" x="30" y="36" onmousedown="handleReset()"/>
                <g id="arrowUp" xlink:href="#dirArrow" transform="translate(30 24)" onmousedown="handlePan(0,-1)">
                  <use xlink:href="#rim" fill="#404040">
                        <set attributeName="fill" to="#808080" begin="arrowUp.mouseover" end="arrowUp.mouseout"/>
                  </use>
                  <path fill="none" stroke="white" stroke-width="1.5" d="M0,-3.0v7 M-2.5,-0.5L0,-3.0L2.5,-0.5"/>
                </g>
                <g id="arrowRight" xlink:href="#dirArrow" transform="rotate(90) translate(36 -43)" onmousedown="handlePan(1,0)">
                  <use xlink:href="#rim" fill="#404040">
                        <set attributeName="fill" to="#808080" begin="arrowRight.mouseover" end="arrowRight.mouseout"/>
                  </use>
                  <path fill="none" stroke="white" stroke-width="1.5" d="M0,-3.0v7 M-2.5,-0.5L0,-3.0L2.5,-0.5"/>
                </g>
                <g id="arrowDown" xlink:href="#dirArrow" transform="rotate(180) translate(-30 -48)" onmousedown="handlePan(0,1)">
                  <use xlink:href="#rim" fill="#404040">
                        <set attributeName="fill" to="#808080" begin="arrowDown.mouseover" end="arrowDown.mouseout"/>
                  </use>
                  <path fill="none" stroke="white" stroke-width="1.5" d="M0,-3.0v7 M-2.5,-0.5L0,-3.0L2.5,-0.5"/>
                </g>
                <g id="arrowLeft" xlink:href="#dirArrow" transform="rotate(270) translate(-36 17)" onmousedown="handlePan(-1,0)">
                  <use xlink:href="#rim" fill="#404040">
                        <set attributeName="fill" to="#808080" begin="arrowLeft.mouseover" end="arrowLeft.mouseout"/>
                  </use>
                  <path fill="none" stroke="white" stroke-width="1.5" d="M0,-3.0v7 M-2.5,-0.5L0,-3.0L2.5,-0.5"/>
                </g>
        </g>
        <svg viewBox="0 0 15 15" width="100%" height="30px" preserveAspectRatio="xMaxYMin meet">
         <g id="arrow_out" transform="scale(0.3 0.3)">
          <a xlink:href="classRa_1_1Engine_1_1DebugRender_ac2e63fb9c3c96103985f1173bd600ede_cgraph_org.svg" target="_base">
           <rect id="button" ry="5" rx="5" y="6" x="6" height="38" width="38"
                fill="#f2f5e9" fill-opacity="0.5" stroke="#606060" stroke-width="1.0"/>
           <path id="arrow"
             d="M 11.500037,31.436501 C 11.940474,20.09759 22.043105,11.32322 32.158766,21.979434 L 37.068811,17.246167 C 37.068811,17.246167 37.088388,32 37.088388,32 L 22.160133,31.978069 C 22.160133,31.978069 26.997745,27.140456 26.997745,27.140456 C 18.528582,18.264221 13.291696,25.230495 11.500037,31.436501 z"
             style="fill:#404040;"/>
          </a>
         </g>
        </svg>
</svg>
