<?xml version="1.0" encoding="UTF-8" standalone="no"?>
<!DOCTYPE svg PUBLIC "-//W3C//DTD SVG 1.1//EN"
 "http://www.w3.org/Graphics/SVG/1.1/DTD/svg11.dtd">
<!-- Generated by graphviz version 2.40.1 (20161225.0304)
 -->
<!-- Title: Ra::Gui::Viewer::mousePressEvent Pages: 1 -->
<!--zoomable 460 -->
<svg id="main" version="1.1" xmlns="http://www.w3.org/2000/svg" xmlns:xlink="http://www.w3.org/1999/xlink" xml:space="preserve" onload="init(evt)">
<style type="text/css"><![CDATA[
.edge:hover path { stroke: red; }
.edge:hover polygon { stroke: red; fill: red; }
]]></style>
<script type="text/javascript"><![CDATA[
var edges = document.getElementsByTagName('g');
if (edges && edges.length) {
  for (var i=0;i<edges.length;i++) {
    if (edges[i].id.substr(0,4)=='edge') {
      edges[i].setAttribute('class','edge');
    }
  }
}
]]></script>
        <defs>
                <circle id="rim" cx="0" cy="0" r="7"/>
                <circle id="rim2" cx="0" cy="0" r="3.5"/>
                <g id="zoomPlus">
                        <use xlink:href="#rim" fill="#404040">
                                <set attributeName="fill" to="#808080" begin="zoomplus.mouseover" end="zoomplus.mouseout"/>
                        </use>
                        <path d="M-4,0h8M0,-4v8" fill="none" stroke="white" stroke-width="1.5" pointer-events="none"/>
                </g>
                <g id="zoomMin">
                        <use xlink:href="#rim" fill="#404040">
                                <set attributeName="fill" to="#808080" begin="zoomminus.mouseover" end="zoomminus.mouseout"/>
                        </use>
                        <path d="M-4,0h8" fill="none" stroke="white" stroke-width="1.5" pointer-events="none"/>
                </g>
                <g id="dirArrow">
                        <path fill="none" stroke="white" stroke-width="1.5" d="M0,-3.0v7 M-2.5,-0.5L0,-3.0L2.5,-0.5"/>
                </g>
               <g id="resetDef">
                       <use xlink:href="#rim2" fill="#404040">
                               <set attributeName="fill" to="#808080" begin="reset.mouseover" end="reset.mouseout"/>
                       </use>
               </g>
        </defs>

<script type="text/javascript">
var viewWidth = 588;
var viewHeight = 460;
var sectionId = 'dynsection-15';
</script>
<script xlink:href="svgpan.js"/>
<svg id="graph" class="graph">
<g id="viewport">
<title>Ra::Gui::Viewer::mousePressEvent</title>
<polygon fill="#ffffff" stroke="transparent" points="-4,4 -4,-456 584,-456 584,4 -4,4"/>
<!-- Node195 -->
<g id="node1" class="node">
<title>Node195</title>
<polygon fill="#bfbfbf" stroke="#000000" points="0,-186.5 0,-216.5 157,-216.5 157,-186.5 0,-186.5"/>
<text text-anchor="start" x="8" y="-204.5" font-family="Helvetica,sans-Serif" font-size="10.00" fill="#000000">Ra::Gui::Viewer::mousePress</text>
<text text-anchor="middle" x="78.5" y="-193.5" font-family="Helvetica,sans-Serif" font-size="10.00" fill="#000000">Event</text>
</g>
<!-- Node196 -->
<g id="node2" class="node">
<title>Node196</title>
<g id="a_node2"><a xlink:href="classRa_1_1Gui_1_1WindowQt.html#a78476baacd2df24a260f604d02c8ddc4" target="_top" xlink:title="Ra::Gui::WindowQt::\lmakeCurrent">
<polygon fill="#ffffff" stroke="#000000" points="224,-421.5 224,-451.5 338,-451.5 338,-421.5 224,-421.5"/>
<text text-anchor="start" x="232" y="-439.5" font-family="Helvetica,sans-Serif" font-size="10.00" fill="#000000">Ra::Gui::WindowQt::</text>
<text text-anchor="middle" x="281" y="-428.5" font-family="Helvetica,sans-Serif" font-size="10.00" fill="#000000">makeCurrent</text>
</a>
</g>
</g>
<!-- Node195&#45;&gt;Node196 -->
<g id="edge1" class="edge">
<title>Node195&#45;&gt;Node196</title>
<path fill="none" stroke="#191970" d="M82.2714,-216.6845C92.7307,-255.5534 125.8634,-359.3183 193,-412.5 199.354,-417.5332 206.6852,-421.5132 214.349,-424.6599"/>
<polygon fill="#191970" stroke="#191970" points="213.2244,-427.9751 223.8186,-428.0996 215.6144,-421.3957 213.2244,-427.9751"/>
</g>
<!-- Node197 -->
<g id="node3" class="node">
<title>Node197</title>
<g id="a_node3"><a xlink:href="classRa_1_1Engine_1_1Renderer.html#ad305540d63cd086f9e99ef6990978244" target="_top" xlink:title="Ra::Engine::Renderer\l::doPickingNow">
<polygon fill="#ffffff" stroke="#000000" points="222,-372.5 222,-402.5 340,-402.5 340,-372.5 222,-372.5"/>
<text text-anchor="start" x="230" y="-390.5" font-family="Helvetica,sans-Serif" font-size="10.00" fill="#000000">Ra::Engine::Renderer</text>
<text text-anchor="middle" x="281" y="-379.5" font-family="Helvetica,sans-Serif" font-size="10.00" fill="#000000">::doPickingNow</text>
</a>
</g>
</g>
<!-- Node195&#45;&gt;Node197 -->
<g id="edge2" class="edge">
<title>Node195&#45;&gt;Node197</title>
<path fill="none" stroke="#191970" d="M84.867,-216.6553C99.1942,-248.8666 137.1407,-324.3848 193,-363.5 198.8859,-367.6216 205.4499,-371.0361 212.2668,-373.8646"/>
<polygon fill="#191970" stroke="#191970" points="211.0864,-377.1599 221.6792,-377.37 213.5295,-370.6 211.0864,-377.1599"/>
</g>
<!-- Node198 -->
<g id="node4" class="node">
<title>Node198</title>
<g id="a_node4"><a xlink:href="classRa_1_1Gui_1_1WindowQt.html#acd31b9e580f049491d13c16ef954d964" target="_top" xlink:title="Ra::Gui::WindowQt::\ldoneCurrent">
<polygon fill="#ffffff" stroke="#000000" points="224,-323.5 224,-353.5 338,-353.5 338,-323.5 224,-323.5"/>
<text text-anchor="start" x="232" y="-341.5" font-family="Helvetica,sans-Serif" font-size="10.00" fill="#000000">Ra::Gui::WindowQt::</text>
<text text-anchor="middle" x="281" y="-330.5" font-family="Helvetica,sans-Serif" font-size="10.00" fill="#000000">doneCurrent</text>
</a>
</g>
</g>
<!-- Node195&#45;&gt;Node198 -->
<g id="edge3" class="edge">
<title>Node195&#45;&gt;Node198</title>
<path fill="none" stroke="#191970" d="M89.7046,-216.804C108.369,-241.1844 148.2262,-288.7137 193,-314.5 199.6576,-318.3343 206.9524,-321.5772 214.4037,-324.3153"/>
<polygon fill="#191970" stroke="#191970" points="213.2954,-327.6351 223.8896,-327.52 215.5359,-321.0034 213.2954,-327.6351"/>
</g>
<!-- Node199 -->
<g id="node5" class="node">
<title>Node199</title>
<g id="a_node5"><a xlink:href="classRa_1_1Engine_1_1Renderer.html#acba3d1160a0d77f8aff98feade1efb7e" target="_top" xlink:title="Ra::Engine::Renderer\l::setMousePosition">
<polygon fill="#ffffff" stroke="#000000" points="222,-274.5 222,-304.5 340,-304.5 340,-274.5 222,-274.5"/>
<text text-anchor="start" x="230" y="-292.5" font-family="Helvetica,sans-Serif" font-size="10.00" fill="#000000">Ra::Engine::Renderer</text>
<text text-anchor="middle" x="281" y="-281.5" font-family="Helvetica,sans-Serif" font-size="10.00" fill="#000000">::setMousePosition</text>
</a>
</g>
</g>
<!-- Node195&#45;&gt;Node199 -->
<g id="edge4" class="edge">
<title>Node195&#45;&gt;Node199</title>
<path fill="none" stroke="#191970" d="M102.2782,-216.6704C124.9052,-230.5952 160.262,-251.0465 193,-264.5 199.1194,-267.0147 205.5774,-269.373 212.1017,-271.5592"/>
<polygon fill="#191970" stroke="#191970" points="211.0849,-274.9087 221.6763,-274.6372 213.2273,-268.2446 211.0849,-274.9087"/>
</g>
<!-- Node200 -->
<g id="node6" class="node">
<title>Node200</title>
<g id="a_node6"><a xlink:href="namespaceRa_1_1Gui.html#abfd4441bc81a4a3a08a755c28ae9b828" target="_top" xlink:title="return the last, still pressed, key code, &#45;1 if no key currently pressed ">
<polygon fill="#ffffff" stroke="#000000" points="228,-236 228,-255 334,-255 334,-236 228,-236"/>
<text text-anchor="middle" x="281" y="-243" font-family="Helvetica,sans-Serif" font-size="10.00" fill="#000000">Ra::Gui::activeKey</text>
</a>
</g>
</g>
<!-- Node195&#45;&gt;Node200 -->
<g id="edge5" class="edge">
<title>Node195&#45;&gt;Node200</title>
<path fill="none" stroke="#191970" d="M147.215,-216.5304C162.2983,-219.8221 178.1868,-223.2837 193,-226.5 203.8755,-228.8613 215.509,-231.379 226.6374,-233.7833"/>
<polygon fill="#191970" stroke="#191970" points="226.1657,-237.262 236.6792,-235.9517 227.6433,-230.4197 226.1657,-237.262"/>
</g>
<!-- Node201 -->
<g id="node7" class="node">
<title>Node201</title>
<g id="a_node7"><a xlink:href="classRa_1_1Gui_1_1KeyMappingManageable.html#a22954323f435085f355701781f846cda" target="_top" xlink:title="Ra::Gui::KeyMappingManageable\l::getContext">
<polygon fill="#ffffff" stroke="#000000" points="193,-186.5 193,-216.5 369,-216.5 369,-186.5 193,-186.5"/>
<text text-anchor="start" x="201" y="-204.5" font-family="Helvetica,sans-Serif" font-size="10.00" fill="#000000">Ra::Gui::KeyMappingManageable</text>
<text text-anchor="middle" x="281" y="-193.5" font-family="Helvetica,sans-Serif" font-size="10.00" fill="#000000">::getContext</text>
</a>
</g>
</g>
<!-- Node195&#45;&gt;Node201 -->
<g id="edge6" class="edge">
<title>Node195&#45;&gt;Node201</title>
<path fill="none" stroke="#191970" d="M157.0816,-194.9027C165.4718,-194.7879 174.0809,-194.7378 182.6621,-194.7525"/>
<polygon fill="#191970" stroke="#191970" points="182.6918,-198.2526 192.7081,-194.7994 182.7246,-191.2526 182.6918,-198.2526"/>
</g>
<!-- Node195&#45;&gt;Node201 -->
<g id="edge10" class="edge">
<title>Node195&#45;&gt;Node201</title>
<path fill="none" stroke="#191970" d="M157.0816,-208.0973C165.4718,-208.2121 174.0809,-208.2622 182.6621,-208.2475"/>
<polygon fill="#191970" stroke="#191970" points="182.7246,-211.7474 192.7081,-208.2006 182.6918,-204.7474 182.7246,-211.7474"/>
</g>
<!-- Node202 -->
<g id="node8" class="node">
<title>Node202</title>
<g id="a_node8"><a xlink:href="classRa_1_1Gui_1_1Viewer.html#a40bbbeeea10361efef8ab41917832a44" target="_top" xlink:title="Access to gizmo manager. ">
<polygon fill="#ffffff" stroke="#000000" points="208.5,-137.5 208.5,-167.5 353.5,-167.5 353.5,-137.5 208.5,-137.5"/>
<text text-anchor="start" x="216.5" y="-155.5" font-family="Helvetica,sans-Serif" font-size="10.00" fill="#000000">Ra::Gui::Viewer::getGizmo</text>
<text text-anchor="middle" x="281" y="-144.5" font-family="Helvetica,sans-Serif" font-size="10.00" fill="#000000">Manager</text>
</a>
</g>
</g>
<!-- Node195&#45;&gt;Node202 -->
<g id="edge7" class="edge">
<title>Node195&#45;&gt;Node202</title>
<path fill="none" stroke="#191970" d="M140.6329,-186.4654C162.3056,-181.2211 186.804,-175.2931 209.1974,-169.8745"/>
<polygon fill="#191970" stroke="#191970" points="210.0883,-173.26 218.9846,-167.5062 208.442,-166.4563 210.0883,-173.26"/>
</g>
<!-- Node203 -->
<g id="node9" class="node">
<title>Node203</title>
<g id="a_node9"><a xlink:href="classRa_1_1Gui_1_1GizmoManager.html#ab63207c7a3d7afb2dfd735ecf5bd3005" target="_top" xlink:title="Callback when a drawable is picked. ">
<polygon fill="#ffffff" stroke="#000000" points="215.5,-88.5 215.5,-118.5 346.5,-118.5 346.5,-88.5 215.5,-88.5"/>
<text text-anchor="start" x="223.5" y="-106.5" font-family="Helvetica,sans-Serif" font-size="10.00" fill="#000000">Ra::Gui::GizmoManager</text>
<text text-anchor="middle" x="281" y="-95.5" font-family="Helvetica,sans-Serif" font-size="10.00" fill="#000000">::handlePickingResult</text>
</a>
</g>
</g>
<!-- Node195&#45;&gt;Node203 -->
<g id="edge8" class="edge">
<title>Node195&#45;&gt;Node203</title>
<path fill="none" stroke="#191970" d="M98.1674,-186.4274C120.2081,-170.1573 157.517,-144.4389 193,-128.5 198.2903,-126.1236 203.8618,-123.9165 209.5267,-121.8787"/>
<polygon fill="#191970" stroke="#191970" points="210.78,-125.1493 219.1153,-118.6092 208.5209,-118.5239 210.78,-125.1493"/>
</g>
<!-- Node205 -->
<g id="node11" class="node">
<title>Node205</title>
<g id="a_node11"><a xlink:href="classRa_1_1Gui_1_1Viewer.html#ac97184241ff6e5af1dc1e1a3c0563214" target="_top" xlink:title="Ra::Gui::Viewer::getPickingMode">
<polygon fill="#ffffff" stroke="#000000" points="193.5,-50 193.5,-69 368.5,-69 368.5,-50 193.5,-50"/>
<text text-anchor="middle" x="281" y="-57" font-family="Helvetica,sans-Serif" font-size="10.00" fill="#000000">Ra::Gui::Viewer::getPickingMode</text>
</a>
</g>
</g>
<!-- Node195&#45;&gt;Node205 -->
<g id="edge11" class="edge">
<title>Node195&#45;&gt;Node205</title>
<path fill="none" stroke="#191970" d="M88.1347,-186.4127C105.6565,-160.2832 145.3644,-106.7925 193,-79.5 197.758,-76.7739 202.8598,-74.4195 208.1226,-72.3859"/>
<polygon fill="#191970" stroke="#191970" points="209.4244,-75.6391 217.7299,-69.0611 207.1351,-69.024 209.4244,-75.6391"/>
</g>
<!-- Node206 -->
<g id="node12" class="node">
<title>Node206</title>
<g id="a_node12"><a xlink:href="classRa_1_1Engine_1_1Renderer.html#a4c25a5364a90acf6e55b122770a654a2" target="_top" xlink:title="Ra::Engine::Renderer\l::addPickingRequest">
<polygon fill="#ffffff" stroke="#000000" points="222,-.5 222,-30.5 340,-30.5 340,-.5 222,-.5"/>
<text text-anchor="start" x="230" y="-18.5" font-family="Helvetica,sans-Serif" font-size="10.00" fill="#000000">Ra::Engine::Renderer</text>
<text text-anchor="middle" x="281" y="-7.5" font-family="Helvetica,sans-Serif" font-size="10.00" fill="#000000">::addPickingRequest</text>
</a>
</g>
</g>
<!-- Node195&#45;&gt;Node206 -->
<g id="edge12" class="edge">
<title>Node195&#45;&gt;Node206</title>
<path fill="none" stroke="#191970" d="M84.9253,-186.4833C99.3658,-154.5582 137.5193,-79.6661 193,-40.5 198.8874,-36.3438 205.4524,-32.8756 212.2698,-29.982"/>
<polygon fill="#191970" stroke="#191970" points="213.5931,-33.2232 221.6828,-26.3817 211.0923,-26.6851 213.5931,-33.2232"/>
</g>
<!-- Node204 -->
<g id="node10" class="node">
<title>Node204</title>
<g id="a_node10"><a xlink:href="classRa_1_1Gui_1_1Gizmo.html#a6ad53eca5654b426a0b467ab716a2704" target="_top" xlink:title="Called when one of the drawables of the gizmo has been selected. ">
<polygon fill="#ffffff" stroke="#000000" points="405,-94 405,-113 580,-113 580,-94 405,-94"/>
<text text-anchor="middle" x="492.5" y="-101" font-family="Helvetica,sans-Serif" font-size="10.00" fill="#000000">Ra::Gui::Gizmo::selectConstraint</text>
</a>
</g>
</g>
<!-- Node203&#45;&gt;Node204 -->
<g id="edge9" class="edge">
<title>Node203&#45;&gt;Node204</title>
<path fill="none" stroke="#191970" d="M346.7606,-103.5C361.924,-103.5 378.374,-103.5 394.5775,-103.5"/>
<polygon fill="#191970" stroke="#191970" points="394.6209,-107.0001 404.6209,-103.5 394.6208,-100.0001 394.6209,-107.0001"/>
</g>
</g>
</svg>
        <g id="navigator" transform="translate(0 0)" fill="#404254">
                <rect fill="#f2f5e9" fill-opacity="0.5" stroke="#606060" stroke-width=".5" x="0" y="0" width="60" height="60"/>
                <use id="zoomplus" xlink:href="#zoomPlus" x="17" y="9" onmousedown="handleZoom(evt,'in')"/>
                <use id="zoomminus" xlink:href="#zoomMin" x="42" y="9" onmousedown="handleZoom(evt,'out')"/>
                <use id="reset" xlink:href="#resetDef" x="30" y="36" onmousedown="handleReset()"/>
                <g id="arrowUp" xlink:href="#dirArrow" transform="translate(30 24)" onmousedown="handlePan(0,-1)">
                  <use xlink:href="#rim" fill="#404040">
                        <set attributeName="fill" to="#808080" begin="arrowUp.mouseover" end="arrowUp.mouseout"/>
                  </use>
                  <path fill="none" stroke="white" stroke-width="1.5" d="M0,-3.0v7 M-2.5,-0.5L0,-3.0L2.5,-0.5"/>
                </g>
                <g id="arrowRight" xlink:href="#dirArrow" transform="rotate(90) translate(36 -43)" onmousedown="handlePan(1,0)">
                  <use xlink:href="#rim" fill="#404040">
                        <set attributeName="fill" to="#808080" begin="arrowRight.mouseover" end="arrowRight.mouseout"/>
                  </use>
                  <path fill="none" stroke="white" stroke-width="1.5" d="M0,-3.0v7 M-2.5,-0.5L0,-3.0L2.5,-0.5"/>
                </g>
                <g id="arrowDown" xlink:href="#dirArrow" transform="rotate(180) translate(-30 -48)" onmousedown="handlePan(0,1)">
                  <use xlink:href="#rim" fill="#404040">
                        <set attributeName="fill" to="#808080" begin="arrowDown.mouseover" end="arrowDown.mouseout"/>
                  </use>
                  <path fill="none" stroke="white" stroke-width="1.5" d="M0,-3.0v7 M-2.5,-0.5L0,-3.0L2.5,-0.5"/>
                </g>
                <g id="arrowLeft" xlink:href="#dirArrow" transform="rotate(270) translate(-36 17)" onmousedown="handlePan(-1,0)">
                  <use xlink:href="#rim" fill="#404040">
                        <set attributeName="fill" to="#808080" begin="arrowLeft.mouseover" end="arrowLeft.mouseout"/>
                  </use>
                  <path fill="none" stroke="white" stroke-width="1.5" d="M0,-3.0v7 M-2.5,-0.5L0,-3.0L2.5,-0.5"/>
                </g>
        </g>
        <svg viewBox="0 0 15 15" width="100%" height="30px" preserveAspectRatio="xMaxYMin meet">
         <g id="arrow_out" transform="scale(0.3 0.3)">
          <a xlink:href="classRa_1_1Gui_1_1Viewer_a85bb9605cc40e330561ec2a070451768_cgraph_org.svg" target="_base">
           <rect id="button" ry="5" rx="5" y="6" x="6" height="38" width="38"
                fill="#f2f5e9" fill-opacity="0.5" stroke="#606060" stroke-width="1.0"/>
           <path id="arrow"
             d="M 11.500037,31.436501 C 11.940474,20.09759 22.043105,11.32322 32.158766,21.979434 L 37.068811,17.246167 C 37.068811,17.246167 37.088388,32 37.088388,32 L 22.160133,31.978069 C 22.160133,31.978069 26.997745,27.140456 26.997745,27.140456 C 18.528582,18.264221 13.291696,25.230495 11.500037,31.436501 z"
             style="fill:#404040;"/>
          </a>
         </g>
        </svg>
</svg>
