<?xml version="1.0" encoding="UTF-8" standalone="no"?>
<!DOCTYPE svg PUBLIC "-//W3C//DTD SVG 1.1//EN"
 "http://www.w3.org/Graphics/SVG/1.1/DTD/svg11.dtd">
<!-- Generated by graphviz version 2.40.1 (20161225.0304)
 -->
<!-- Title: Ra::Core::Animation::Skeleton::setPose Pages: 1 -->
<!--zoomable 518 -->
<svg id="main" version="1.1" xmlns="http://www.w3.org/2000/svg" xmlns:xlink="http://www.w3.org/1999/xlink" xml:space="preserve" onload="init(evt)">
<style type="text/css"><![CDATA[
.edge:hover path { stroke: red; }
.edge:hover polygon { stroke: red; fill: red; }
]]></style>
<script type="text/javascript"><![CDATA[
var edges = document.getElementsByTagName('g');
if (edges && edges.length) {
  for (var i=0;i<edges.length;i++) {
    if (edges[i].id.substr(0,4)=='edge') {
      edges[i].setAttribute('class','edge');
    }
  }
}
]]></script>
        <defs>
                <circle id="rim" cx="0" cy="0" r="7"/>
                <circle id="rim2" cx="0" cy="0" r="3.5"/>
                <g id="zoomPlus">
                        <use xlink:href="#rim" fill="#404040">
                                <set attributeName="fill" to="#808080" begin="zoomplus.mouseover" end="zoomplus.mouseout"/>
                        </use>
                        <path d="M-4,0h8M0,-4v8" fill="none" stroke="white" stroke-width="1.5" pointer-events="none"/>
                </g>
                <g id="zoomMin">
                        <use xlink:href="#rim" fill="#404040">
                                <set attributeName="fill" to="#808080" begin="zoomminus.mouseover" end="zoomminus.mouseout"/>
                        </use>
                        <path d="M-4,0h8" fill="none" stroke="white" stroke-width="1.5" pointer-events="none"/>
                </g>
                <g id="dirArrow">
                        <path fill="none" stroke="white" stroke-width="1.5" d="M0,-3.0v7 M-2.5,-0.5L0,-3.0L2.5,-0.5"/>
                </g>
               <g id="resetDef">
                       <use xlink:href="#rim2" fill="#404040">
                               <set attributeName="fill" to="#808080" begin="reset.mouseover" end="reset.mouseout"/>
                       </use>
               </g>
        </defs>

<script type="text/javascript">
var viewWidth = 914;
var viewHeight = 518;
var sectionId = 'dynsection-8';
</script>
<script xlink:href="svgpan.js"/>
<svg id="graph" class="graph">
<g id="viewport">
<title>Ra::Core::Animation::Skeleton::setPose</title>
<polygon fill="#ffffff" stroke="transparent" points="-4,4 -4,-513.8161 910,-513.8161 910,4 -4,4"/>
<!-- Node42 -->
<g id="node1" class="node">
<title>Node42</title>
<polygon fill="#bfbfbf" stroke="#000000" points="0,-50.3161 0,-80.3161 114,-80.3161 114,-50.3161 0,-50.3161"/>
<text text-anchor="start" x="8" y="-68.3161" font-family="Helvetica,sans-Serif" font-size="10.00" fill="#000000">Ra::Core::Animation</text>
<text text-anchor="middle" x="57" y="-57.3161" font-family="Helvetica,sans-Serif" font-size="10.00" fill="#000000">::Skeleton::setPose</text>
</g>
<!-- Node43 -->
<g id="node2" class="node">
<title>Node43</title>
<g id="a_node2"><a xlink:href="classRa_1_1Core_1_1Animation_1_1Skeleton.html#a5679e1beb544b515c4539ce48a2f2ba3" target="_top" xlink:title="Ra::Core::Animation\l::Skeleton::size">
<polygon fill="#ffffff" stroke="#000000" points="150,-219.3161 150,-249.3161 264,-249.3161 264,-219.3161 150,-219.3161"/>
<text text-anchor="start" x="158" y="-237.3161" font-family="Helvetica,sans-Serif" font-size="10.00" fill="#000000">Ra::Core::Animation</text>
<text text-anchor="middle" x="207" y="-226.3161" font-family="Helvetica,sans-Serif" font-size="10.00" fill="#000000">::Skeleton::size</text>
</a>
</g>
</g>
<!-- Node42&#45;&gt;Node43 -->
<g id="edge1" class="edge">
<title>Node42&#45;&gt;Node43</title>
<path fill="none" stroke="#191970" d="M70.5761,-80.6118C97.0148,-110.3994 155.5366,-176.334 186.6412,-211.3785"/>
<polygon fill="#191970" stroke="#191970" points="184.3069,-214.0211 193.5627,-219.1767 189.5422,-209.3744 184.3069,-214.0211"/>
</g>
<!-- Node53 -->
<g id="node12" class="node">
<title>Node53</title>
<g id="a_node12"><a xlink:href="classRa_1_1Core_1_1AdjacencyList.html#a9bf4ac88fdea50ef9916b641617d4827" target="_top" xlink:title="Return true if a node is a root node. ">
<polygon fill="#ffffff" stroke="#000000" points="450,-48.3161 450,-78.3161 581,-78.3161 581,-48.3161 450,-48.3161"/>
<text text-anchor="start" x="458" y="-66.3161" font-family="Helvetica,sans-Serif" font-size="10.00" fill="#000000">Ra::Core::AdjacencyList</text>
<text text-anchor="middle" x="515.5" y="-55.3161" font-family="Helvetica,sans-Serif" font-size="10.00" fill="#000000">::isRoot</text>
</a>
</g>
</g>
<!-- Node42&#45;&gt;Node53 -->
<g id="edge24" class="edge">
<title>Node42&#45;&gt;Node53</title>
<path fill="none" stroke="#191970" d="M114.1423,-65.0668C196.3988,-64.708 348.3205,-64.0453 439.8187,-63.6462"/>
<polygon fill="#191970" stroke="#191970" points="439.8626,-67.1462 449.8472,-63.6025 439.832,-60.1462 439.8626,-67.1462"/>
</g>
<!-- Node54 -->
<g id="node13" class="node">
<title>Node54</title>
<g id="a_node13"><a xlink:href="classRa_1_1Core_1_1AdjacencyList.html#a48b78362d882a41b32f0df6aa1d42855" target="_top" xlink:title="Return the number of nodes in the graph. ">
<polygon fill="#ffffff" stroke="#000000" points="617,-146.3161 617,-176.3161 748,-176.3161 748,-146.3161 617,-146.3161"/>
<text text-anchor="start" x="625" y="-164.3161" font-family="Helvetica,sans-Serif" font-size="10.00" fill="#000000">Ra::Core::AdjacencyList</text>
<text text-anchor="middle" x="682.5" y="-153.3161" font-family="Helvetica,sans-Serif" font-size="10.00" fill="#000000">::size</text>
</a>
</g>
</g>
<!-- Node42&#45;&gt;Node54 -->
<g id="edge23" class="edge">
<title>Node42&#45;&gt;Node54</title>
<path fill="none" stroke="#191970" d="M99.3261,-50.2884C191.9129,-20.0672 417.2311,38.8707 581,-38.3161 623.9757,-58.5712 654.9432,-106.9388 670.6911,-136.629"/>
<polygon fill="#191970" stroke="#191970" points="667.7717,-138.6072 675.4436,-145.9143 674.003,-135.4178 667.7717,-138.6072"/>
</g>
<!-- Node59 -->
<g id="node18" class="node">
<title>Node59</title>
<g id="a_node18"><a xlink:href="classRa_1_1Core_1_1AdjacencyList.html#afb228941d27a01e44071d404e8b58aa4" target="_top" xlink:title="Ra::Core::AdjacencyList\l::children">
<polygon fill="#ffffff" stroke="#000000" points="450,-97.3161 450,-127.3161 581,-127.3161 581,-97.3161 450,-97.3161"/>
<text text-anchor="start" x="458" y="-115.3161" font-family="Helvetica,sans-Serif" font-size="10.00" fill="#000000">Ra::Core::AdjacencyList</text>
<text text-anchor="middle" x="515.5" y="-104.3161" font-family="Helvetica,sans-Serif" font-size="10.00" fill="#000000">::children</text>
</a>
</g>
</g>
<!-- Node42&#45;&gt;Node59 -->
<g id="edge25" class="edge">
<title>Node42&#45;&gt;Node59</title>
<path fill="none" stroke="#191970" d="M114.1423,-71.1736C196.3988,-79.6056 348.3205,-95.1788 439.8187,-104.5581"/>
<polygon fill="#191970" stroke="#191970" points="439.5424,-108.0481 449.8472,-105.5861 440.2562,-101.0846 439.5424,-108.0481"/>
</g>
<!-- Node44 -->
<g id="node3" class="node">
<title>Node44</title>
<g id="a_node3"><a xlink:href="namespaceRa_1_1Core_1_1Animation.html#a547f9928803752e611f856afca5b613f" target="_top" xlink:title="Remove all the key Poses. ">
<polygon fill="#ffffff" stroke="#000000" points="300,-440.3161 300,-470.3161 414,-470.3161 414,-440.3161 300,-440.3161"/>
<text text-anchor="start" x="308" y="-458.3161" font-family="Helvetica,sans-Serif" font-size="10.00" fill="#000000">Ra::Core::Animation</text>
<text text-anchor="middle" x="357" y="-447.3161" font-family="Helvetica,sans-Serif" font-size="10.00" fill="#000000">::clear</text>
</a>
</g>
</g>
<!-- Node43&#45;&gt;Node44 -->
<g id="edge2" class="edge">
<title>Node43&#45;&gt;Node44</title>
<path fill="none" stroke="#191970" d="M210.1802,-249.3205C218.5695,-285.4467 244.5684,-378.1939 300,-431.3161 301.1144,-432.384 302.2833,-433.4077 303.4972,-434.3887"/>
<polygon fill="#191970" stroke="#191970" points="301.8323,-437.491 312.0586,-440.2612 305.7919,-431.7184 301.8323,-437.491"/>
</g>
<!-- Node45 -->
<g id="node4" class="node">
<title>Node45</title>
<g id="a_node4"><a xlink:href="namespaceRa_1_1Core_1_1Animation.html#a60602749517c440955bc88c5ae5d25ee" target="_top" xlink:title="Ra::Core::Animation\l::getPose">
<polygon fill="#ffffff" stroke="#000000" points="300,-391.3161 300,-421.3161 414,-421.3161 414,-391.3161 300,-391.3161"/>
<text text-anchor="start" x="308" y="-409.3161" font-family="Helvetica,sans-Serif" font-size="10.00" fill="#000000">Ra::Core::Animation</text>
<text text-anchor="middle" x="357" y="-398.3161" font-family="Helvetica,sans-Serif" font-size="10.00" fill="#000000">::getPose</text>
</a>
</g>
</g>
<!-- Node43&#45;&gt;Node45 -->
<g id="edge3" class="edge">
<title>Node43&#45;&gt;Node45</title>
<path fill="none" stroke="#191970" d="M220.3115,-249.5799C246.5976,-279.7213 305.321,-347.0575 336.5523,-382.8694"/>
<polygon fill="#191970" stroke="#191970" points="334.2922,-385.603 343.5027,-390.8392 339.5679,-381.0021 334.2922,-385.603"/>
</g>
<!-- Node50 -->
<g id="node9" class="node">
<title>Node50</title>
<g id="a_node9"><a xlink:href="namespaceRa_1_1Core_1_1Animation.html#a93d6305ed74ab59961969dce601714c2" target="_top" xlink:title="Ra::Core::Animation\l::operator\&lt;\&lt;">
<polygon fill="#ffffff" stroke="#000000" points="300,-219.3161 300,-249.3161 414,-249.3161 414,-219.3161 300,-219.3161"/>
<text text-anchor="start" x="308" y="-237.3161" font-family="Helvetica,sans-Serif" font-size="10.00" fill="#000000">Ra::Core::Animation</text>
<text text-anchor="middle" x="357" y="-226.3161" font-family="Helvetica,sans-Serif" font-size="10.00" fill="#000000">::operator&lt;&lt;</text>
</a>
</g>
</g>
<!-- Node43&#45;&gt;Node50 -->
<g id="edge9" class="edge">
<title>Node43&#45;&gt;Node50</title>
<path fill="none" stroke="#191970" d="M264.1365,-227.7392C272.3769,-227.5767 280.9229,-227.5286 289.3442,-227.5949"/>
<polygon fill="#191970" stroke="#191970" points="289.479,-231.097 299.5255,-227.7326 289.5738,-224.0976 289.479,-231.097"/>
</g>
<!-- Node46 -->
<g id="node5" class="node">
<title>Node46</title>
<g id="a_node5"><a xlink:href="namespaceRa_1_1Core_1_1Animation.html#a7613da42bbde2caf7e0b3ff501a09cfe" target="_top" xlink:title="Ra::Core::Animation\l::getTime">
<polygon fill="#ffffff" stroke="#000000" points="458.5,-479.3161 458.5,-509.3161 572.5,-509.3161 572.5,-479.3161 458.5,-479.3161"/>
<text text-anchor="start" x="466.5" y="-497.3161" font-family="Helvetica,sans-Serif" font-size="10.00" fill="#000000">Ra::Core::Animation</text>
<text text-anchor="middle" x="515.5" y="-486.3161" font-family="Helvetica,sans-Serif" font-size="10.00" fill="#000000">::getTime</text>
</a>
</g>
</g>
<!-- Node45&#45;&gt;Node46 -->
<g id="edge4" class="edge">
<title>Node45&#45;&gt;Node46</title>
<path fill="none" stroke="#191970" d="M395.9198,-421.3246C402.15,-424.3051 408.3874,-427.6578 414,-431.3161 432.1835,-443.1681 431.9129,-452.3175 450,-464.3161 455.6722,-468.0789 461.8929,-471.5977 468.1725,-474.8061"/>
<polygon fill="#191970" stroke="#191970" points="466.8347,-478.0475 477.358,-479.277 469.8983,-471.7535 466.8347,-478.0475"/>
</g>
<!-- Node47 -->
<g id="node6" class="node">
<title>Node47</title>
<g id="a_node6"><a xlink:href="namespaceRa_1_1Core_1_1Geometry.html#aa04e6052d8911b1df1bd881474debb45" target="_top" xlink:title="Ra::Core::Geometry::t">
<polygon fill="#ffffff" stroke="#000000" points="784,-418.8161 784,-437.8161 906,-437.8161 906,-418.8161 784,-418.8161"/>
<text text-anchor="middle" x="845" y="-425.8161" font-family="Helvetica,sans-Serif" font-size="10.00" fill="#000000">Ra::Core::Geometry::t</text>
</a>
</g>
</g>
<!-- Node45&#45;&gt;Node47 -->
<g id="edge5" class="edge">
<title>Node45&#45;&gt;Node47</title>
<path fill="none" stroke="#191970" d="M403.3489,-421.3393C418.0966,-425.4244 434.5851,-429.2803 450,-431.3161 562.24,-446.139 693.9845,-440.5965 773.4012,-434.7905"/>
<polygon fill="#191970" stroke="#191970" points="774.0665,-438.2504 783.7751,-434.0087 773.5404,-431.2702 774.0665,-438.2504"/>
</g>
<!-- Node48 -->
<g id="node7" class="node">
<title>Node48</title>
<g id="a_node7"><a xlink:href="namespaceRa_1_1Core_1_1Animation.html#aa5e2e11d79318fd2777aaa259f8210db" target="_top" xlink:title="Ra::Core::Animation\l::interpolatePoses">
<polygon fill="#ffffff" stroke="#000000" points="458.5,-391.3161 458.5,-421.3161 572.5,-421.3161 572.5,-391.3161 458.5,-391.3161"/>
<text text-anchor="start" x="466.5" y="-409.3161" font-family="Helvetica,sans-Serif" font-size="10.00" fill="#000000">Ra::Core::Animation</text>
<text text-anchor="middle" x="515.5" y="-398.3161" font-family="Helvetica,sans-Serif" font-size="10.00" fill="#000000">::interpolatePoses</text>
</a>
</g>
</g>
<!-- Node45&#45;&gt;Node48 -->
<g id="edge6" class="edge">
<title>Node45&#45;&gt;Node48</title>
<path fill="none" stroke="#191970" d="M414.2221,-406.3161C425.2203,-406.3161 436.8333,-406.3161 448.1179,-406.3161"/>
<polygon fill="#191970" stroke="#191970" points="448.3619,-409.8162 458.3619,-406.3161 448.3618,-402.8162 448.3619,-409.8162"/>
</g>
<!-- Node49 -->
<g id="node8" class="node">
<title>Node49</title>
<g id="a_node8"><a xlink:href="namespaceRa_1_1Core_1_1Animation.html#a6951de94ba127cd79685e704d658808b" target="_top" xlink:title="Ra::Core::Animation\l::interpolate">
<polygon fill="#ffffff" stroke="#000000" points="625.5,-391.3161 625.5,-421.3161 739.5,-421.3161 739.5,-391.3161 625.5,-391.3161"/>
<text text-anchor="start" x="633.5" y="-409.3161" font-family="Helvetica,sans-Serif" font-size="10.00" fill="#000000">Ra::Core::Animation</text>
<text text-anchor="middle" x="682.5" y="-398.3161" font-family="Helvetica,sans-Serif" font-size="10.00" fill="#000000">::interpolate</text>
</a>
</g>
</g>
<!-- Node48&#45;&gt;Node49 -->
<g id="edge7" class="edge">
<title>Node48&#45;&gt;Node49</title>
<path fill="none" stroke="#191970" d="M572.5048,-406.3161C586.2671,-406.3161 601.1006,-406.3161 615.2822,-406.3161"/>
<polygon fill="#191970" stroke="#191970" points="615.4688,-409.8162 625.4687,-406.3161 615.4687,-402.8162 615.4688,-409.8162"/>
</g>
<!-- Node49&#45;&gt;Node47 -->
<g id="edge8" class="edge">
<title>Node49&#45;&gt;Node47</title>
<path fill="none" stroke="#191970" d="M739.7914,-414.0725C750.8166,-415.5651 762.4881,-417.1452 773.889,-418.6888"/>
<polygon fill="#191970" stroke="#191970" points="773.4362,-422.1593 783.8154,-420.0326 774.3754,-415.2226 773.4362,-422.1593"/>
</g>
<!-- Node50&#45;&gt;Node43 -->
<g id="edge10" class="edge">
<title>Node50&#45;&gt;Node43</title>
<path fill="none" stroke="#191970" d="M299.5255,-240.8995C291.2768,-241.059 282.7284,-241.1039 274.3106,-241.0345"/>
<polygon fill="#191970" stroke="#191970" points="274.1842,-237.5325 264.1365,-240.8929 274.0868,-244.5318 274.1842,-237.5325"/>
</g>
<!-- Node51 -->
<g id="node10" class="node">
<title>Node51</title>
<g id="a_node10"><a xlink:href="classRa_1_1Core_1_1Animation_1_1HandleArray.html#a1c75459bc9ff0e1f940b97f55fc18a7e" target="_top" xlink:title="Ra::Core::Animation\l::HandleArray::getLabel">
<polygon fill="#ffffff" stroke="#000000" points="450,-342.3161 450,-372.3161 581,-372.3161 581,-342.3161 450,-342.3161"/>
<text text-anchor="start" x="458" y="-360.3161" font-family="Helvetica,sans-Serif" font-size="10.00" fill="#000000">Ra::Core::Animation</text>
<text text-anchor="middle" x="515.5" y="-349.3161" font-family="Helvetica,sans-Serif" font-size="10.00" fill="#000000">::HandleArray::getLabel</text>
</a>
</g>
</g>
<!-- Node50&#45;&gt;Node51 -->
<g id="edge11" class="edge">
<title>Node50&#45;&gt;Node51</title>
<path fill="none" stroke="#191970" d="M367.6214,-249.4816C383.3464,-270.9151 414.783,-310.0447 450,-333.3161 452.2892,-334.8288 454.6863,-336.2617 457.1541,-337.6172"/>
<polygon fill="#191970" stroke="#191970" points="455.8223,-340.8639 466.3338,-342.1901 458.9436,-334.5983 455.8223,-340.8639"/>
</g>
<!-- Node50&#45;&gt;Node53 -->
<g id="edge13" class="edge">
<title>Node50&#45;&gt;Node53</title>
<path fill="none" stroke="#191970" d="M362.7719,-219.257C374.7065,-190.0085 404.817,-125.1626 450,-88.3161 452.0634,-86.6334 454.2524,-85.0557 456.5306,-83.5774"/>
<polygon fill="#191970" stroke="#191970" points="458.7305,-86.3519 465.6817,-78.3561 455.2615,-80.2719 458.7305,-86.3519"/>
</g>
<!-- Node55 -->
<g id="node14" class="node">
<title>Node55</title>
<g id="a_node14"><a xlink:href="classRa_1_1Core_1_1AdjacencyList.html#a5c9f8b77aebc7f3d807c35df4b030727" target="_top" xlink:title="Return true if the node is a joint node. ( |child| == 1 ) ">
<polygon fill="#ffffff" stroke="#000000" points="450,-146.3161 450,-176.3161 581,-176.3161 581,-146.3161 450,-146.3161"/>
<text text-anchor="start" x="458" y="-164.3161" font-family="Helvetica,sans-Serif" font-size="10.00" fill="#000000">Ra::Core::AdjacencyList</text>
<text text-anchor="middle" x="515.5" y="-153.3161" font-family="Helvetica,sans-Serif" font-size="10.00" fill="#000000">::isJoint</text>
</a>
</g>
</g>
<!-- Node50&#45;&gt;Node55 -->
<g id="edge15" class="edge">
<title>Node50&#45;&gt;Node55</title>
<path fill="none" stroke="#191970" d="M384.2768,-219.2131C402.6053,-209.3206 427.4425,-196.4043 450,-186.3161 454.6719,-184.2267 459.5761,-182.1493 464.5102,-180.1362"/>
<polygon fill="#191970" stroke="#191970" points="465.9908,-183.3139 473.9826,-176.3581 463.3974,-176.812 465.9908,-183.3139"/>
</g>
<!-- Node56 -->
<g id="node15" class="node">
<title>Node56</title>
<g id="a_node15"><a xlink:href="classRa_1_1Core_1_1AdjacencyList.html#a7cc5e8bee935a36439b9cd62d47e4404" target="_top" xlink:title="Return true if the node is a branch node. ( |child| &gt; 1 ) ">
<polygon fill="#ffffff" stroke="#000000" points="450,-244.3161 450,-274.3161 581,-274.3161 581,-244.3161 450,-244.3161"/>
<text text-anchor="start" x="458" y="-262.3161" font-family="Helvetica,sans-Serif" font-size="10.00" fill="#000000">Ra::Core::AdjacencyList</text>
<text text-anchor="middle" x="515.5" y="-251.3161" font-family="Helvetica,sans-Serif" font-size="10.00" fill="#000000">::isBranch</text>
</a>
</g>
</g>
<!-- Node50&#45;&gt;Node56 -->
<g id="edge17" class="edge">
<title>Node50&#45;&gt;Node56</title>
<path fill="none" stroke="#191970" d="M414.2221,-243.3417C422.5075,-244.6485 431.1418,-246.0104 439.7217,-247.3637"/>
<polygon fill="#191970" stroke="#191970" points="439.3214,-250.8437 449.7446,-248.9446 440.4121,-243.9292 439.3214,-250.8437"/>
</g>
<!-- Node57 -->
<g id="node16" class="node">
<title>Node57</title>
<g id="a_node16"><a xlink:href="classRa_1_1Core_1_1AdjacencyList.html#a778181dcdae7c7a6a482401c89d75253" target="_top" xlink:title="Return true if the node is a leaf node. ">
<polygon fill="#ffffff" stroke="#000000" points="450,-195.3161 450,-225.3161 581,-225.3161 581,-195.3161 450,-195.3161"/>
<text text-anchor="start" x="458" y="-213.3161" font-family="Helvetica,sans-Serif" font-size="10.00" fill="#000000">Ra::Core::AdjacencyList</text>
<text text-anchor="middle" x="515.5" y="-202.3161" font-family="Helvetica,sans-Serif" font-size="10.00" fill="#000000">::isLeaf</text>
</a>
</g>
</g>
<!-- Node50&#45;&gt;Node57 -->
<g id="edge19" class="edge">
<title>Node50&#45;&gt;Node57</title>
<path fill="none" stroke="#191970" d="M414.2221,-225.6515C422.5075,-224.397 431.1418,-223.0896 439.7217,-221.7904"/>
<polygon fill="#191970" stroke="#191970" points="440.3814,-225.2305 449.7446,-220.2727 439.3333,-218.3094 440.3814,-225.2305"/>
</g>
<!-- Node58 -->
<g id="node17" class="node">
<title>Node58</title>
<g id="a_node17"><a xlink:href="classRa_1_1Core_1_1AdjacencyList.html#a45d58d25c05abf04f4f6526ef3ae5a26" target="_top" xlink:title="Ra::Core::AdjacencyList\l::parents">
<polygon fill="#ffffff" stroke="#000000" points="450,-293.3161 450,-323.3161 581,-323.3161 581,-293.3161 450,-293.3161"/>
<text text-anchor="start" x="458" y="-311.3161" font-family="Helvetica,sans-Serif" font-size="10.00" fill="#000000">Ra::Core::AdjacencyList</text>
<text text-anchor="middle" x="515.5" y="-300.3161" font-family="Helvetica,sans-Serif" font-size="10.00" fill="#000000">::parents</text>
</a>
</g>
</g>
<!-- Node50&#45;&gt;Node58 -->
<g id="edge21" class="edge">
<title>Node50&#45;&gt;Node58</title>
<path fill="none" stroke="#191970" d="M382.5605,-249.3322C400.9712,-259.8308 426.5902,-273.7984 450,-284.3161 454.0236,-286.1238 458.2281,-287.903 462.4806,-289.6251"/>
<polygon fill="#191970" stroke="#191970" points="461.2278,-292.8933 471.8151,-293.2929 463.7879,-286.3782 461.2278,-292.8933"/>
</g>
<!-- Node50&#45;&gt;Node59 -->
<g id="edge22" class="edge">
<title>Node50&#45;&gt;Node59</title>
<path fill="none" stroke="#191970" d="M368.0008,-219.1802C383.9481,-198.1966 415.3905,-160.2657 450,-137.3161 452.9291,-135.3738 456.0308,-133.5516 459.2288,-131.8471"/>
<polygon fill="#191970" stroke="#191970" points="460.9826,-134.8858 468.4333,-127.3532 457.9115,-128.5954 460.9826,-134.8858"/>
</g>
<!-- Node52 -->
<g id="node11" class="node">
<title>Node52</title>
<g id="a_node11"><a xlink:href="classRa_1_1Core_1_1Animation_1_1HandleArray.html#a669862596d63a98a032123f739fc989a" target="_top" xlink:title="Ra::Core::Animation\l::HandleArray::size">
<polygon fill="#ffffff" stroke="#000000" points="625.5,-342.3161 625.5,-372.3161 739.5,-372.3161 739.5,-342.3161 625.5,-342.3161"/>
<text text-anchor="start" x="633.5" y="-360.3161" font-family="Helvetica,sans-Serif" font-size="10.00" fill="#000000">Ra::Core::Animation</text>
<text text-anchor="middle" x="682.5" y="-349.3161" font-family="Helvetica,sans-Serif" font-size="10.00" fill="#000000">::HandleArray::size</text>
</a>
</g>
</g>
<!-- Node51&#45;&gt;Node52 -->
<g id="edge12" class="edge">
<title>Node51&#45;&gt;Node52</title>
<path fill="none" stroke="#191970" d="M581.0235,-357.3161C592.2174,-357.3161 603.8638,-357.3161 615.1054,-357.3161"/>
<polygon fill="#191970" stroke="#191970" points="615.2909,-360.8162 625.2909,-357.3161 615.2909,-353.8162 615.2909,-360.8162"/>
</g>
<!-- Node53&#45;&gt;Node54 -->
<g id="edge14" class="edge">
<title>Node53&#45;&gt;Node54</title>
<path fill="none" stroke="#191970" d="M559.5404,-78.3188C566.8537,-81.3192 574.2488,-84.6798 581,-88.3161 608.2557,-102.9964 636.6464,-123.9777 656.4474,-139.6824"/>
<polygon fill="#191970" stroke="#191970" points="654.3918,-142.5206 664.3793,-146.0562 658.7765,-137.064 654.3918,-142.5206"/>
</g>
<!-- Node55&#45;&gt;Node54 -->
<g id="edge16" class="edge">
<title>Node55&#45;&gt;Node54</title>
<path fill="none" stroke="#191970" d="M581.0235,-161.3161C589.496,-161.3161 598.2278,-161.3161 606.8471,-161.3161"/>
<polygon fill="#191970" stroke="#191970" points="606.8914,-164.8162 616.8913,-161.3161 606.8913,-157.8162 606.8914,-164.8162"/>
</g>
<!-- Node56&#45;&gt;Node54 -->
<g id="edge18" class="edge">
<title>Node56&#45;&gt;Node54</title>
<path fill="none" stroke="#191970" d="M561.6663,-244.2517C568.2863,-241.5624 574.911,-238.5685 581,-235.3161 608.6028,-220.572 637.1529,-199.1057 656.9151,-183.0861"/>
<polygon fill="#191970" stroke="#191970" points="659.3157,-185.6435 664.8182,-176.5896 654.8706,-180.236 659.3157,-185.6435"/>
</g>
<!-- Node57&#45;&gt;Node54 -->
<g id="edge20" class="edge">
<title>Node57&#45;&gt;Node54</title>
<path fill="none" stroke="#191970" d="M566.9682,-195.2146C584.1919,-190.161 603.5588,-184.4785 621.4422,-179.2312"/>
<polygon fill="#191970" stroke="#191970" points="622.5917,-182.5416 631.2018,-176.3677 620.6209,-175.8248 622.5917,-182.5416"/>
</g>
</g>
</svg>
        <g id="navigator" transform="translate(0 0)" fill="#404254">
                <rect fill="#f2f5e9" fill-opacity="0.5" stroke="#606060" stroke-width=".5" x="0" y="0" width="60" height="60"/>
                <use id="zoomplus" xlink:href="#zoomPlus" x="17" y="9" onmousedown="handleZoom(evt,'in')"/>
                <use id="zoomminus" xlink:href="#zoomMin" x="42" y="9" onmousedown="handleZoom(evt,'out')"/>
                <use id="reset" xlink:href="#resetDef" x="30" y="36" onmousedown="handleReset()"/>
                <g id="arrowUp" xlink:href="#dirArrow" transform="translate(30 24)" onmousedown="handlePan(0,-1)">
                  <use xlink:href="#rim" fill="#404040">
                        <set attributeName="fill" to="#808080" begin="arrowUp.mouseover" end="arrowUp.mouseout"/>
                  </use>
                  <path fill="none" stroke="white" stroke-width="1.5" d="M0,-3.0v7 M-2.5,-0.5L0,-3.0L2.5,-0.5"/>
                </g>
                <g id="arrowRight" xlink:href="#dirArrow" transform="rotate(90) translate(36 -43)" onmousedown="handlePan(1,0)">
                  <use xlink:href="#rim" fill="#404040">
                        <set attributeName="fill" to="#808080" begin="arrowRight.mouseover" end="arrowRight.mouseout"/>
                  </use>
                  <path fill="none" stroke="white" stroke-width="1.5" d="M0,-3.0v7 M-2.5,-0.5L0,-3.0L2.5,-0.5"/>
                </g>
                <g id="arrowDown" xlink:href="#dirArrow" transform="rotate(180) translate(-30 -48)" onmousedown="handlePan(0,1)">
                  <use xlink:href="#rim" fill="#404040">
                        <set attributeName="fill" to="#808080" begin="arrowDown.mouseover" end="arrowDown.mouseout"/>
                  </use>
                  <path fill="none" stroke="white" stroke-width="1.5" d="M0,-3.0v7 M-2.5,-0.5L0,-3.0L2.5,-0.5"/>
                </g>
                <g id="arrowLeft" xlink:href="#dirArrow" transform="rotate(270) translate(-36 17)" onmousedown="handlePan(-1,0)">
                  <use xlink:href="#rim" fill="#404040">
                        <set attributeName="fill" to="#808080" begin="arrowLeft.mouseover" end="arrowLeft.mouseout"/>
                  </use>
                  <path fill="none" stroke="white" stroke-width="1.5" d="M0,-3.0v7 M-2.5,-0.5L0,-3.0L2.5,-0.5"/>
                </g>
        </g>
        <svg viewBox="0 0 15 15" width="100%" height="30px" preserveAspectRatio="xMaxYMin meet">
         <g id="arrow_out" transform="scale(0.3 0.3)">
          <a xlink:href="classRa_1_1Core_1_1Animation_1_1Skeleton_a7aec08b57bfa9dbce1c5b47e96de81d9_cgraph_org.svg" target="_base">
           <rect id="button" ry="5" rx="5" y="6" x="6" height="38" width="38"
                fill="#f2f5e9" fill-opacity="0.5" stroke="#606060" stroke-width="1.0"/>
           <path id="arrow"
             d="M 11.500037,31.436501 C 11.940474,20.09759 22.043105,11.32322 32.158766,21.979434 L 37.068811,17.246167 C 37.068811,17.246167 37.088388,32 37.088388,32 L 22.160133,31.978069 C 22.160133,31.978069 26.997745,27.140456 26.997745,27.140456 C 18.528582,18.264221 13.291696,25.230495 11.500037,31.436501 z"
             style="fill:#404040;"/>
          </a>
         </g>
        </svg>
</svg>
