<?xml version="1.0" encoding="UTF-8" standalone="no"?>
<!DOCTYPE svg PUBLIC "-//W3C//DTD SVG 1.1//EN"
 "http://www.w3.org/Graphics/SVG/1.1/DTD/svg11.dtd">
<!-- Generated by graphviz version 2.40.1 (20161225.0304)
 -->
<!-- Title: Ra::Engine::CoreGeometryDisplayable&lt; T &gt; Pages: 1 -->
<!--zoomable 1098 -->
<svg id="main" version="1.1" xmlns="http://www.w3.org/2000/svg" xmlns:xlink="http://www.w3.org/1999/xlink" xml:space="preserve" onload="init(evt)">
<style type="text/css"><![CDATA[
.edge:hover path { stroke: red; }
.edge:hover polygon { stroke: red; fill: red; }
]]></style>
<script type="text/javascript"><![CDATA[
var edges = document.getElementsByTagName('g');
if (edges && edges.length) {
  for (var i=0;i<edges.length;i++) {
    if (edges[i].id.substr(0,4)=='edge') {
      edges[i].setAttribute('class','edge');
    }
  }
}
]]></script>
        <defs>
                <circle id="rim" cx="0" cy="0" r="7"/>
                <circle id="rim2" cx="0" cy="0" r="3.5"/>
                <g id="zoomPlus">
                        <use xlink:href="#rim" fill="#404040">
                                <set attributeName="fill" to="#808080" begin="zoomplus.mouseover" end="zoomplus.mouseout"/>
                        </use>
                        <path d="M-4,0h8M0,-4v8" fill="none" stroke="white" stroke-width="1.5" pointer-events="none"/>
                </g>
                <g id="zoomMin">
                        <use xlink:href="#rim" fill="#404040">
                                <set attributeName="fill" to="#808080" begin="zoomminus.mouseover" end="zoomminus.mouseout"/>
                        </use>
                        <path d="M-4,0h8" fill="none" stroke="white" stroke-width="1.5" pointer-events="none"/>
                </g>
                <g id="dirArrow">
                        <path fill="none" stroke="white" stroke-width="1.5" d="M0,-3.0v7 M-2.5,-0.5L0,-3.0L2.5,-0.5"/>
                </g>
               <g id="resetDef">
                       <use xlink:href="#rim2" fill="#404040">
                               <set attributeName="fill" to="#808080" begin="reset.mouseover" end="reset.mouseout"/>
                       </use>
               </g>
        </defs>

<script type="text/javascript">
var viewWidth = 1274;
var viewHeight = 1098;
var sectionId = 'dynsection-1';
</script>
<script xlink:href="svgpan.js"/>
<svg id="graph" class="graph">
<g id="viewport">
<title>Ra::Engine::CoreGeometryDisplayable&lt; T &gt;</title>
<polygon fill="#ffffff" stroke="transparent" points="-4,4 -4,-1094 1270,-1094 1270,4 -4,4"/>
<!-- Node12 -->
<g id="node1" class="node">
<title>Node12</title>
<polygon fill="#bfbfbf" stroke="#000000" points="484.5,-.5 484.5,-255.5 669.5,-255.5 669.5,-.5 484.5,-.5"/>
<text text-anchor="start" x="492.5" y="-243.5" font-family="Helvetica,sans-Serif" font-size="10.00" fill="#000000">Ra::Engine::CoreGeometry</text>
<text text-anchor="middle" x="577" y="-232.5" font-family="Helvetica,sans-Serif" font-size="10.00" fill="#000000">Displayable&lt; T &gt;</text>
<polyline fill="none" stroke="#000000" points="484.5,-225.5 669.5,-225.5 "/>
<text text-anchor="middle" x="577" y="-213.5" font-family="Helvetica,sans-Serif" font-size="10.00" fill="#000000"> </text>
<polyline fill="none" stroke="#000000" points="484.5,-206.5 669.5,-206.5 "/>
<text text-anchor="start" x="492.5" y="-194.5" font-family="Helvetica,sans-Serif" font-size="10.00" fill="#000000">+ CoreGeometryDisplayable()</text>
<text text-anchor="start" x="492.5" y="-183.5" font-family="Helvetica,sans-Serif" font-size="10.00" fill="#000000">+ addAttrib()</text>
<text text-anchor="start" x="492.5" y="-172.5" font-family="Helvetica,sans-Serif" font-size="10.00" fill="#000000">+ getNumVertices()</text>
<text text-anchor="start" x="492.5" y="-161.5" font-family="Helvetica,sans-Serif" font-size="10.00" fill="#000000">+ loadGeometry()</text>
<text text-anchor="start" x="492.5" y="-150.5" font-family="Helvetica,sans-Serif" font-size="10.00" fill="#000000">+ updateGL()</text>
<text text-anchor="start" x="492.5" y="-139.5" font-family="Helvetica,sans-Serif" font-size="10.00" fill="#000000">+ setAttribNameCorrespondance()</text>
<text text-anchor="start" x="492.5" y="-128.5" font-family="Helvetica,sans-Serif" font-size="10.00" fill="#000000">+ getAbstractGeometry()</text>
<text text-anchor="start" x="492.5" y="-117.5" font-family="Helvetica,sans-Serif" font-size="10.00" fill="#000000">+ getAbstractGeometry()</text>
<text text-anchor="start" x="492.5" y="-106.5" font-family="Helvetica,sans-Serif" font-size="10.00" fill="#000000">+ getCoreGeometry()</text>
<text text-anchor="start" x="492.5" y="-95.5" font-family="Helvetica,sans-Serif" font-size="10.00" fill="#000000">+ getCoreGeometry()</text>
<text text-anchor="start" x="492.5" y="-84.5" font-family="Helvetica,sans-Serif" font-size="10.00" fill="#000000"># updateGL_specific_impl()</text>
<text text-anchor="start" x="492.5" y="-73.5" font-family="Helvetica,sans-Serif" font-size="10.00" fill="#000000"># loadGeometry_common()</text>
<text text-anchor="start" x="492.5" y="-62.5" font-family="Helvetica,sans-Serif" font-size="10.00" fill="#000000"># autoVertexAttribPointer()</text>
<text text-anchor="start" x="492.5" y="-51.5" font-family="Helvetica,sans-Serif" font-size="10.00" fill="#000000"># addAttribObserver()</text>
<text text-anchor="start" x="492.5" y="-40.5" font-family="Helvetica,sans-Serif" font-size="10.00" fill="#000000">* getAbstractGeometry()</text>
<text text-anchor="start" x="492.5" y="-29.5" font-family="Helvetica,sans-Serif" font-size="10.00" fill="#000000">* getAbstractGeometry()</text>
<text text-anchor="start" x="492.5" y="-18.5" font-family="Helvetica,sans-Serif" font-size="10.00" fill="#000000">* getCoreGeometry()</text>
<text text-anchor="start" x="492.5" y="-7.5" font-family="Helvetica,sans-Serif" font-size="10.00" fill="#000000">* getCoreGeometry()</text>
</g>
<!-- Node13 -->
<g id="node2" class="node">
<title>Node13</title>
<g id="a_node2"><a xlink:href="classRa_1_1Engine_1_1AttribArrayDisplayable.html" target="_top" xlink:title="{Ra::Engine::AttribArrayDisplayable\n||+ AttribArrayDisplayable()\l+ AttribArrayDisplayable()\l+ operator=()\l+ ~AttribArrayDisplayable()\l+ setRenderMode()\l+ getRenderMode()\l+ updateGL()\l+ setDirty()\l+ setDirty()\l+ setDirty()\l+ getAttribName()\l# updatePickingRenderMode()\l* setDirty()\l* setDirty()\l* setDirty()\l* getAttribName()\l}">
<polygon fill="#ffffff" stroke="#000000" points="484.5,-293.5 484.5,-515.5 669.5,-515.5 669.5,-293.5 484.5,-293.5"/>
<text text-anchor="middle" x="577" y="-503.5" font-family="Helvetica,sans-Serif" font-size="10.00" fill="#000000">Ra::Engine::AttribArrayDisplayable</text>
<polyline fill="none" stroke="#000000" points="484.5,-496.5 669.5,-496.5 "/>
<text text-anchor="middle" x="577" y="-484.5" font-family="Helvetica,sans-Serif" font-size="10.00" fill="#000000"> </text>
<polyline fill="none" stroke="#000000" points="484.5,-477.5 669.5,-477.5 "/>
<text text-anchor="start" x="492.5" y="-465.5" font-family="Helvetica,sans-Serif" font-size="10.00" fill="#000000">+ AttribArrayDisplayable()</text>
<text text-anchor="start" x="492.5" y="-454.5" font-family="Helvetica,sans-Serif" font-size="10.00" fill="#000000">+ AttribArrayDisplayable()</text>
<text text-anchor="start" x="492.5" y="-443.5" font-family="Helvetica,sans-Serif" font-size="10.00" fill="#000000">+ operator=()</text>
<text text-anchor="start" x="492.5" y="-432.5" font-family="Helvetica,sans-Serif" font-size="10.00" fill="#000000">+ ~AttribArrayDisplayable()</text>
<text text-anchor="start" x="492.5" y="-421.5" font-family="Helvetica,sans-Serif" font-size="10.00" fill="#000000">+ setRenderMode()</text>
<text text-anchor="start" x="492.5" y="-410.5" font-family="Helvetica,sans-Serif" font-size="10.00" fill="#000000">+ getRenderMode()</text>
<text text-anchor="start" x="492.5" y="-399.5" font-family="Helvetica,sans-Serif" font-size="10.00" fill="#000000">+ updateGL()</text>
<text text-anchor="start" x="492.5" y="-388.5" font-family="Helvetica,sans-Serif" font-size="10.00" fill="#000000">+ setDirty()</text>
<text text-anchor="start" x="492.5" y="-377.5" font-family="Helvetica,sans-Serif" font-size="10.00" fill="#000000">+ setDirty()</text>
<text text-anchor="start" x="492.5" y="-366.5" font-family="Helvetica,sans-Serif" font-size="10.00" fill="#000000">+ setDirty()</text>
<text text-anchor="start" x="492.5" y="-355.5" font-family="Helvetica,sans-Serif" font-size="10.00" fill="#000000">+ getAttribName()</text>
<text text-anchor="start" x="492.5" y="-344.5" font-family="Helvetica,sans-Serif" font-size="10.00" fill="#000000"># updatePickingRenderMode()</text>
<text text-anchor="start" x="492.5" y="-333.5" font-family="Helvetica,sans-Serif" font-size="10.00" fill="#000000">* setDirty()</text>
<text text-anchor="start" x="492.5" y="-322.5" font-family="Helvetica,sans-Serif" font-size="10.00" fill="#000000">* setDirty()</text>
<text text-anchor="start" x="492.5" y="-311.5" font-family="Helvetica,sans-Serif" font-size="10.00" fill="#000000">* setDirty()</text>
<text text-anchor="start" x="492.5" y="-300.5" font-family="Helvetica,sans-Serif" font-size="10.00" fill="#000000">* getAttribName()</text>
</a>
</g>
</g>
<!-- Node13&#45;&gt;Node12 -->
<g id="edge1" class="edge">
<title>Node13&#45;&gt;Node12</title>
<path fill="none" stroke="#191970" d="M577,-283.0799C577,-274.0438 577,-264.9104 577,-255.8372"/>
<polygon fill="none" stroke="#191970" points="573.5001,-283.232 577,-293.2321 580.5001,-283.2321 573.5001,-283.232"/>
</g>
<!-- Node14 -->
<g id="node3" class="node">
<title>Node14</title>
<g id="a_node3"><a xlink:href="classRa_1_1Engine_1_1Displayable.html" target="_top" xlink:title="{Ra::Engine::Displayable\n||+ Displayable()\l+ Displayable()\l+ operator=()\l+ ~Displayable()\l+ pickingRenderMode()\l+ getName()\l+ getAbstractGeometry()\l+ getAbstractGeometry()\l+ updateGL()\l+ render()\l+ getNumFaces()\l+ getNumVertices()\l}">
<polygon fill="#ffffff" stroke="#000000" points="507,-563.5 507,-741.5 647,-741.5 647,-563.5 507,-563.5"/>
<text text-anchor="middle" x="577" y="-729.5" font-family="Helvetica,sans-Serif" font-size="10.00" fill="#000000">Ra::Engine::Displayable</text>
<polyline fill="none" stroke="#000000" points="507,-722.5 647,-722.5 "/>
<text text-anchor="middle" x="577" y="-710.5" font-family="Helvetica,sans-Serif" font-size="10.00" fill="#000000"> </text>
<polyline fill="none" stroke="#000000" points="507,-703.5 647,-703.5 "/>
<text text-anchor="start" x="515" y="-691.5" font-family="Helvetica,sans-Serif" font-size="10.00" fill="#000000">+ Displayable()</text>
<text text-anchor="start" x="515" y="-680.5" font-family="Helvetica,sans-Serif" font-size="10.00" fill="#000000">+ Displayable()</text>
<text text-anchor="start" x="515" y="-669.5" font-family="Helvetica,sans-Serif" font-size="10.00" fill="#000000">+ operator=()</text>
<text text-anchor="start" x="515" y="-658.5" font-family="Helvetica,sans-Serif" font-size="10.00" fill="#000000">+ ~Displayable()</text>
<text text-anchor="start" x="515" y="-647.5" font-family="Helvetica,sans-Serif" font-size="10.00" fill="#000000">+ pickingRenderMode()</text>
<text text-anchor="start" x="515" y="-636.5" font-family="Helvetica,sans-Serif" font-size="10.00" fill="#000000">+ getName()</text>
<text text-anchor="start" x="515" y="-625.5" font-family="Helvetica,sans-Serif" font-size="10.00" fill="#000000">+ getAbstractGeometry()</text>
<text text-anchor="start" x="515" y="-614.5" font-family="Helvetica,sans-Serif" font-size="10.00" fill="#000000">+ getAbstractGeometry()</text>
<text text-anchor="start" x="515" y="-603.5" font-family="Helvetica,sans-Serif" font-size="10.00" fill="#000000">+ updateGL()</text>
<text text-anchor="start" x="515" y="-592.5" font-family="Helvetica,sans-Serif" font-size="10.00" fill="#000000">+ render()</text>
<text text-anchor="start" x="515" y="-581.5" font-family="Helvetica,sans-Serif" font-size="10.00" fill="#000000">+ getNumFaces()</text>
<text text-anchor="start" x="515" y="-570.5" font-family="Helvetica,sans-Serif" font-size="10.00" fill="#000000">+ getNumVertices()</text>
</a>
</g>
</g>
<!-- Node14&#45;&gt;Node13 -->
<g id="edge2" class="edge">
<title>Node14&#45;&gt;Node13</title>
<path fill="none" stroke="#191970" d="M577,-553.1002C577,-540.8307 577,-528.2265 577,-515.7944"/>
<polygon fill="none" stroke="#191970" points="573.5001,-553.3167 577,-563.3167 580.5001,-553.3167 573.5001,-553.3167"/>
</g>
<!-- Node15 -->
<g id="node4" class="node">
<title>Node15</title>
<polygon fill="#ffffff" stroke="#bfbfbf" points="521,-806 521,-863 633,-863 633,-806 521,-806"/>
<text text-anchor="middle" x="577" y="-851" font-family="Helvetica,sans-Serif" font-size="10.00" fill="#000000">PickingRenderMode</text>
<polyline fill="none" stroke="#bfbfbf" points="521,-844 633,-844 "/>
<text text-anchor="middle" x="577" y="-832" font-family="Helvetica,sans-Serif" font-size="10.00" fill="#000000"> </text>
<polyline fill="none" stroke="#bfbfbf" points="521,-825 633,-825 "/>
<text text-anchor="middle" x="577" y="-813" font-family="Helvetica,sans-Serif" font-size="10.00" fill="#000000"> </text>
</g>
<!-- Node15&#45;&gt;Node14 -->
<g id="edge3" class="edge">
<title>Node15&#45;&gt;Node14</title>
<path fill="none" stroke="#404040" d="M577,-805.6616C577,-791.2868 577,-772.948 577,-753.9937"/>
<polygon fill="none" stroke="#404040" points="577.0001,-753.8151 573,-747.8151 577,-741.8151 581,-747.815 577.0001,-753.8151"/>
<text text-anchor="middle" x="638" y="-768.5" font-family="Helvetica,sans-Serif" font-size="10.00" fill="#000000"> #m_pickingRenderMode</text>
</g>
<!-- Node16 -->
<g id="node5" class="node">
<title>Node16</title>
<polygon fill="#ffffff" stroke="#bfbfbf" points="665,-624 665,-681 767,-681 767,-624 665,-624"/>
<text text-anchor="middle" x="716" y="-669" font-family="Helvetica,sans-Serif" font-size="10.00" fill="#000000">MeshRenderMode</text>
<polyline fill="none" stroke="#bfbfbf" points="665,-662 767,-662 "/>
<text text-anchor="middle" x="716" y="-650" font-family="Helvetica,sans-Serif" font-size="10.00" fill="#000000"> </text>
<polyline fill="none" stroke="#bfbfbf" points="665,-643 767,-643 "/>
<text text-anchor="middle" x="716" y="-631" font-family="Helvetica,sans-Serif" font-size="10.00" fill="#000000"> </text>
</g>
<!-- Node16&#45;&gt;Node13 -->
<g id="edge4" class="edge">
<title>Node16&#45;&gt;Node13</title>
<path fill="none" stroke="#404040" d="M699.7829,-623.5659C686.1276,-599.2025 665.6139,-562.6025 645.2441,-526.2592"/>
<polygon fill="none" stroke="#404040" points="645.0899,-525.9841 638.667,-522.7058 639.2228,-515.5161 645.6456,-518.7944 645.0899,-525.9841"/>
<text text-anchor="middle" x="696.5" y="-537" font-family="Helvetica,sans-Serif" font-size="10.00" fill="#000000"> #m_renderMode</text>
</g>
<!-- Node17 -->
<g id="node6" class="node">
<title>Node17</title>
<polygon fill="#ffffff" stroke="#bfbfbf" points="660.5,-800.5 660.5,-868.5 805.5,-868.5 805.5,-800.5 660.5,-800.5"/>
<text text-anchor="start" x="668.5" y="-856.5" font-family="Helvetica,sans-Serif" font-size="10.00" fill="#000000">std::unique_ptr&lt; globjects</text>
<text text-anchor="middle" x="733" y="-845.5" font-family="Helvetica,sans-Serif" font-size="10.00" fill="#000000">::VertexArray &gt;</text>
<polyline fill="none" stroke="#bfbfbf" points="660.5,-838.5 805.5,-838.5 "/>
<text text-anchor="middle" x="733" y="-826.5" font-family="Helvetica,sans-Serif" font-size="10.00" fill="#000000"> </text>
<polyline fill="none" stroke="#bfbfbf" points="660.5,-819.5 805.5,-819.5 "/>
<text text-anchor="start" x="668.5" y="-807.5" font-family="Helvetica,sans-Serif" font-size="10.00" fill="#000000">+ operator&#45;&gt;()</text>
</g>
<!-- Node17&#45;&gt;Node13 -->
<g id="edge5" class="edge">
<title>Node17&#45;&gt;Node13</title>
<path fill="none" stroke="#404040" d="M753.3089,-800.1964C762.1613,-783.2913 771.5274,-762.2315 776,-742 793.1729,-664.32 808.7961,-635.4811 776,-563 756.319,-519.5039 717.7805,-484.4814 679.8175,-458.5313"/>
<polygon fill="none" stroke="#404040" points="679.6649,-458.4301 672.4538,-458.4435 669.6679,-451.7923 676.879,-451.7788 679.6649,-458.4301"/>
<text text-anchor="middle" x="817.5" y="-650" font-family="Helvetica,sans-Serif" font-size="10.00" fill="#000000"> #m_vao</text>
</g>
<!-- Node18 -->
<g id="node7" class="node">
<title>Node18</title>
<polygon fill="#ffffff" stroke="#bfbfbf" points="696,-922 696,-979 770,-979 770,-922 696,-922"/>
<text text-anchor="middle" x="733" y="-967" font-family="Helvetica,sans-Serif" font-size="10.00" fill="#000000">VertexArray</text>
<polyline fill="none" stroke="#bfbfbf" points="696,-960 770,-960 "/>
<text text-anchor="middle" x="733" y="-948" font-family="Helvetica,sans-Serif" font-size="10.00" fill="#000000"> </text>
<polyline fill="none" stroke="#bfbfbf" points="696,-941 770,-941 "/>
<text text-anchor="middle" x="733" y="-929" font-family="Helvetica,sans-Serif" font-size="10.00" fill="#000000"> </text>
</g>
<!-- Node18&#45;&gt;Node17 -->
<g id="edge6" class="edge">
<title>Node18&#45;&gt;Node17</title>
<path fill="none" stroke="#404040" d="M733,-921.8258C733,-909.4977 733,-894.7709 733,-880.9549"/>
<polygon fill="none" stroke="#404040" points="733.0001,-880.6178 729,-874.6178 733,-868.6178 737,-874.6177 733.0001,-880.6178"/>
<text text-anchor="middle" x="745.5" y="-890" font-family="Helvetica,sans-Serif" font-size="10.00" fill="#000000"> +ptr</text>
</g>
<!-- Node19 -->
<g id="node8" class="node">
<title>Node19</title>
<g id="a_node8"><a xlink:title="STL class. ">
<polygon fill="#ffffff" stroke="#bfbfbf" points="318,-922 318,-979 436,-979 436,-922 318,-922"/>
<text text-anchor="middle" x="377" y="-967" font-family="Helvetica,sans-Serif" font-size="10.00" fill="#000000">std::unique_ptr&lt; T &gt;</text>
<polyline fill="none" stroke="#bfbfbf" points="318,-960 436,-960 "/>
<text text-anchor="middle" x="377" y="-948" font-family="Helvetica,sans-Serif" font-size="10.00" fill="#000000"> </text>
<polyline fill="none" stroke="#bfbfbf" points="318,-941 436,-941 "/>
<text text-anchor="start" x="326" y="-929" font-family="Helvetica,sans-Serif" font-size="10.00" fill="#000000">+ operator&#45;&gt;()</text>
</a>
</g>
</g>
<!-- Node19&#45;&gt;Node17 -->
<g id="edge7" class="edge">
<title>Node19&#45;&gt;Node17</title>
<path fill="none" stroke="#ffa500" d="M445.7878,-930.6593C499.5097,-914.8479 575.8842,-891.6738 642,-869 647.9134,-866.972 654.0184,-864.8096 660.1361,-862.594"/>
<polygon fill="#ffa500" stroke="#ffa500" points="444.6372,-927.3493 436.0279,-933.5242 446.6089,-934.0659 444.6372,-927.3493"/>
<text text-anchor="middle" x="651" y="-890" font-family="Helvetica,sans-Serif" font-size="10.00" fill="#000000"> &lt; globjects::VertexArray &gt;</text>
</g>
<!-- Node29 -->
<g id="node18" class="node">
<title>Node29</title>
<polygon fill="#ffffff" stroke="#bfbfbf" points="214.5,-800.5 214.5,-868.5 359.5,-868.5 359.5,-800.5 214.5,-800.5"/>
<text text-anchor="start" x="222.5" y="-856.5" font-family="Helvetica,sans-Serif" font-size="10.00" fill="#000000">std::unique_ptr&lt; globjects</text>
<text text-anchor="middle" x="287" y="-845.5" font-family="Helvetica,sans-Serif" font-size="10.00" fill="#000000">::Buffer &gt;</text>
<polyline fill="none" stroke="#bfbfbf" points="214.5,-838.5 359.5,-838.5 "/>
<text text-anchor="middle" x="287" y="-826.5" font-family="Helvetica,sans-Serif" font-size="10.00" fill="#000000"> </text>
<polyline fill="none" stroke="#bfbfbf" points="214.5,-819.5 359.5,-819.5 "/>
<text text-anchor="start" x="222.5" y="-807.5" font-family="Helvetica,sans-Serif" font-size="10.00" fill="#000000">+ operator&#45;&gt;()</text>
</g>
<!-- Node19&#45;&gt;Node29 -->
<g id="edge20" class="edge">
<title>Node19&#45;&gt;Node29</title>
<path fill="none" stroke="#ffa500" d="M348.3728,-913.6028C337.1874,-899.186 324.4393,-882.7551 313.4707,-868.6178"/>
<polygon fill="#ffa500" stroke="#ffa500" points="345.8575,-916.0705 354.7528,-921.8258 351.3881,-911.7795 345.8575,-916.0705"/>
<text text-anchor="middle" x="387" y="-890" font-family="Helvetica,sans-Serif" font-size="10.00" fill="#000000"> &lt; globjects::Buffer &gt;</text>
</g>
<!-- Node20 -->
<g id="node9" class="node">
<title>Node20</title>
<polygon fill="#ffffff" stroke="#bfbfbf" points="242.5,-1032.5 242.5,-1089.5 271.5,-1089.5 271.5,-1032.5 242.5,-1032.5"/>
<text text-anchor="middle" x="257" y="-1077.5" font-family="Helvetica,sans-Serif" font-size="10.00" fill="#000000">T</text>
<polyline fill="none" stroke="#bfbfbf" points="242.5,-1070.5 271.5,-1070.5 "/>
<text text-anchor="middle" x="257" y="-1058.5" font-family="Helvetica,sans-Serif" font-size="10.00" fill="#000000"> </text>
<polyline fill="none" stroke="#bfbfbf" points="242.5,-1051.5 271.5,-1051.5 "/>
<text text-anchor="middle" x="257" y="-1039.5" font-family="Helvetica,sans-Serif" font-size="10.00" fill="#000000"> </text>
</g>
<!-- Node20&#45;&gt;Node12 -->
<g id="edge29" class="edge">
<title>Node20&#45;&gt;Node12</title>
<path fill="none" stroke="#404040" d="M242.4462,-1058.0752C188.0795,-1046.7396 0,-1003.6814 0,-950.5 0,-950.5 0,-950.5 0,-404.5 0,-300.9035 306.3111,-201.4842 472.5723,-155.1511"/>
<polygon fill="none" stroke="#404040" points="472.7295,-155.1077 477.4455,-149.6525 484.295,-151.9076 479.579,-157.3628 472.7295,-155.1077"/>
<text text-anchor="middle" x="27" y="-768.5" font-family="Helvetica,sans-Serif" font-size="10.00" fill="#000000"> #m_mesh</text>
</g>
<!-- Node20&#45;&gt;Node19 -->
<g id="edge8" class="edge">
<title>Node20&#45;&gt;Node19</title>
<path fill="none" stroke="#404040" d="M271.7144,-1047.4505C287.8862,-1032.559 314.5516,-1008.0046 336.9996,-987.3337"/>
<polygon fill="none" stroke="#404040" points="337.172,-987.175 338.8762,-980.1681 345.9995,-979.0463 344.2953,-986.0531 337.172,-987.175"/>
<text text-anchor="middle" x="329.5" y="-1006" font-family="Helvetica,sans-Serif" font-size="10.00" fill="#000000"> +ptr</text>
</g>
<!-- Node25 -->
<g id="node14" class="node">
<title>Node25</title>
<g id="a_node14"><a xlink:title="STL class. ">
<polygon fill="#ffffff" stroke="#bfbfbf" points="873.5,-806 873.5,-863 974.5,-863 974.5,-806 873.5,-806"/>
<text text-anchor="middle" x="924" y="-851" font-family="Helvetica,sans-Serif" font-size="10.00" fill="#000000">std::map&lt; K, T &gt;</text>
<polyline fill="none" stroke="#bfbfbf" points="873.5,-844 974.5,-844 "/>
<text text-anchor="middle" x="924" y="-832" font-family="Helvetica,sans-Serif" font-size="10.00" fill="#000000"> </text>
<polyline fill="none" stroke="#bfbfbf" points="873.5,-825 974.5,-825 "/>
<text text-anchor="middle" x="924" y="-813" font-family="Helvetica,sans-Serif" font-size="10.00" fill="#000000"> </text>
</a>
</g>
</g>
<!-- Node20&#45;&gt;Node25 -->
<g id="edge15" class="edge">
<title>Node20&#45;&gt;Node25</title>
<path fill="none" stroke="#404040" d="M271.575,-1060.2949C362.5194,-1055.7633 849.7701,-1029.5083 897,-985 926.2075,-957.4756 930.3337,-909.9712 928.8164,-875.6857"/>
<polygon fill="none" stroke="#404040" points="928.7869,-875.236 924.4016,-869.5115 927.9991,-863.2619 932.3844,-868.9863 928.7869,-875.236"/>
<text text-anchor="middle" x="956" y="-948" font-family="Helvetica,sans-Serif" font-size="10.00" fill="#000000"> +elements</text>
</g>
<!-- Node31 -->
<g id="node20" class="node">
<title>Node31</title>
<g id="a_node20"><a xlink:title="STL class. ">
<polygon fill="#ffffff" stroke="#bfbfbf" points="99.5,-806 99.5,-863 196.5,-863 196.5,-806 99.5,-806"/>
<text text-anchor="middle" x="148" y="-851" font-family="Helvetica,sans-Serif" font-size="10.00" fill="#000000">std::vector&lt; T &gt;</text>
<polyline fill="none" stroke="#bfbfbf" points="99.5,-844 196.5,-844 "/>
<text text-anchor="middle" x="148" y="-832" font-family="Helvetica,sans-Serif" font-size="10.00" fill="#000000"> </text>
<polyline fill="none" stroke="#bfbfbf" points="99.5,-825 196.5,-825 "/>
<text text-anchor="middle" x="148" y="-813" font-family="Helvetica,sans-Serif" font-size="10.00" fill="#000000"> </text>
</a>
</g>
</g>
<!-- Node20&#45;&gt;Node31 -->
<g id="edge22" class="edge">
<title>Node20&#45;&gt;Node31</title>
<path fill="none" stroke="#404040" d="M242.4112,-1049.1199C226.4515,-1035.3407 201.2485,-1011.1474 187,-985 168.2702,-950.629 158.2454,-906.9033 153.0736,-875.4512"/>
<polygon fill="none" stroke="#404040" points="153.0153,-875.0688 148.1546,-869.742 151.2022,-863.2065 156.0628,-868.5333 153.0153,-875.0688"/>
<text text-anchor="middle" x="216" y="-948" font-family="Helvetica,sans-Serif" font-size="10.00" fill="#000000"> +elements</text>
</g>
<!-- Node21 -->
<g id="node10" class="node">
<title>Node21</title>
<polygon fill="#ffffff" stroke="#bfbfbf" points="866,-618.5 866,-686.5 988,-686.5 988,-618.5 866,-618.5"/>
<text text-anchor="start" x="874" y="-674.5" font-family="Helvetica,sans-Serif" font-size="10.00" fill="#000000">std::map&lt; std::string,</text>
<text text-anchor="middle" x="927" y="-663.5" font-family="Helvetica,sans-Serif" font-size="10.00" fill="#000000"> unsigned int &gt;</text>
<polyline fill="none" stroke="#bfbfbf" points="866,-656.5 988,-656.5 "/>
<text text-anchor="middle" x="927" y="-644.5" font-family="Helvetica,sans-Serif" font-size="10.00" fill="#000000"> </text>
<polyline fill="none" stroke="#bfbfbf" points="866,-637.5 988,-637.5 "/>
<text text-anchor="middle" x="927" y="-625.5" font-family="Helvetica,sans-Serif" font-size="10.00" fill="#000000"> </text>
</g>
<!-- Node21&#45;&gt;Node13 -->
<g id="edge9" class="edge">
<title>Node21&#45;&gt;Node13</title>
<path fill="none" stroke="#404040" d="M900.5938,-618.0841C886.8072,-600.8916 869.2496,-580.154 852,-563 803.097,-514.3681 736.2814,-475.4038 680.7564,-448.278"/>
<polygon fill="none" stroke="#404040" points="680.624,-448.2143 673.483,-449.2173 669.8106,-443.0113 676.9517,-442.0084 680.624,-448.2143"/>
<text text-anchor="middle" x="876" y="-537" font-family="Helvetica,sans-Serif" font-size="10.00" fill="#000000"> #m_handleToBuffer</text>
</g>
<!-- Node22 -->
<g id="node11" class="node">
<title>Node22</title>
<g id="a_node11"><a xlink:href="classint.html" target="_top" xlink:title="{int\n||}">
<polygon fill="#ffffff" stroke="#000000" points="826.5,-806 826.5,-863 855.5,-863 855.5,-806 826.5,-806"/>
<text text-anchor="middle" x="841" y="-851" font-family="Helvetica,sans-Serif" font-size="10.00" fill="#000000">int</text>
<polyline fill="none" stroke="#000000" points="826.5,-844 855.5,-844 "/>
<text text-anchor="middle" x="841" y="-832" font-family="Helvetica,sans-Serif" font-size="10.00" fill="#000000"> </text>
<polyline fill="none" stroke="#000000" points="826.5,-825 855.5,-825 "/>
<text text-anchor="middle" x="841" y="-813" font-family="Helvetica,sans-Serif" font-size="10.00" fill="#000000"> </text>
</a>
</g>
</g>
<!-- Node22&#45;&gt;Node21 -->
<g id="edge10" class="edge">
<title>Node22&#45;&gt;Node21</title>
<path fill="none" stroke="#404040" d="M846.6398,-805.9045C849.935,-791.7653 854.6996,-774.6382 861,-760 870.3507,-738.2749 883.5583,-715.7477 895.7044,-696.9617"/>
<polygon fill="none" stroke="#404040" points="895.707,-696.9577 895.6697,-689.7467 902.3117,-686.9388 902.349,-694.1498 895.707,-696.9577"/>
<text text-anchor="middle" x="890" y="-768.5" font-family="Helvetica,sans-Serif" font-size="10.00" fill="#000000"> +elements</text>
</g>
<!-- Node23 -->
<g id="node12" class="node">
<title>Node23</title>
<g id="a_node12"><a xlink:title="STL class. ">
<polygon fill="#ffffff" stroke="#bfbfbf" points="1164.5,-806 1164.5,-863 1229.5,-863 1229.5,-806 1164.5,-806"/>
<text text-anchor="middle" x="1197" y="-851" font-family="Helvetica,sans-Serif" font-size="10.00" fill="#000000">std::string</text>
<polyline fill="none" stroke="#bfbfbf" points="1164.5,-844 1229.5,-844 "/>
<text text-anchor="middle" x="1197" y="-832" font-family="Helvetica,sans-Serif" font-size="10.00" fill="#000000"> </text>
<polyline fill="none" stroke="#bfbfbf" points="1164.5,-825 1229.5,-825 "/>
<text text-anchor="middle" x="1197" y="-813" font-family="Helvetica,sans-Serif" font-size="10.00" fill="#000000"> </text>
</a>
</g>
</g>
<!-- Node23&#45;&gt;Node21 -->
<g id="edge11" class="edge">
<title>Node23&#45;&gt;Node21</title>
<path fill="none" stroke="#404040" d="M1178.5847,-805.9709C1166.0051,-787.4273 1149.8847,-765.6788 1140,-760 1084.4565,-728.0903 1052.7126,-773.6135 997,-742 978.3878,-731.4387 962.9795,-713.7562 951.4022,-696.8845"/>
<polygon fill="none" stroke="#404040" points="951.23,-696.6193 944.6074,-693.7658 944.6943,-686.5552 951.3168,-689.4087 951.23,-696.6193"/>
<text text-anchor="middle" x="1177.5" y="-768.5" font-family="Helvetica,sans-Serif" font-size="10.00" fill="#000000"> +keys</text>
</g>
<!-- Node33 -->
<g id="node22" class="node">
<title>Node33</title>
<polygon fill="#ffffff" stroke="#bfbfbf" points="1006,-618.5 1006,-686.5 1128,-686.5 1128,-618.5 1006,-618.5"/>
<text text-anchor="start" x="1014" y="-674.5" font-family="Helvetica,sans-Serif" font-size="10.00" fill="#000000">std::map&lt; std::string,</text>
<text text-anchor="middle" x="1067" y="-663.5" font-family="Helvetica,sans-Serif" font-size="10.00" fill="#000000"> std::string &gt;</text>
<polyline fill="none" stroke="#bfbfbf" points="1006,-656.5 1128,-656.5 "/>
<text text-anchor="middle" x="1067" y="-644.5" font-family="Helvetica,sans-Serif" font-size="10.00" fill="#000000"> </text>
<polyline fill="none" stroke="#bfbfbf" points="1006,-637.5 1128,-637.5 "/>
<text text-anchor="middle" x="1067" y="-625.5" font-family="Helvetica,sans-Serif" font-size="10.00" fill="#000000"> </text>
</g>
<!-- Node23&#45;&gt;Node33 -->
<g id="edge27" class="edge">
<title>Node23&#45;&gt;Node33</title>
<path fill="none" stroke="#404040" d="M1206.5233,-805.9902C1209.6882,-791.5521 1210.876,-774.1355 1204,-760 1189.9317,-731.0787 1163.8988,-707.6309 1138.2741,-690.1015"/>
<polygon fill="none" stroke="#404040" points="1138.1513,-690.0209 1130.9403,-690.0715 1128.1202,-683.4347 1135.3311,-683.3841 1138.1513,-690.0209"/>
<text text-anchor="middle" x="1237" y="-774" font-family="Helvetica,sans-Serif" font-size="10.00" fill="#000000"> +elements</text>
<text text-anchor="middle" x="1237" y="-763" font-family="Helvetica,sans-Serif" font-size="10.00" fill="#000000">+keys</text>
</g>
<!-- Node24 -->
<g id="node13" class="node">
<title>Node24</title>
<g id="a_node13"><a xlink:title="STL class. ">
<polygon fill="#ffffff" stroke="#bfbfbf" points="1145,-916.5 1145,-984.5 1249,-984.5 1249,-916.5 1145,-916.5"/>
<text text-anchor="start" x="1153" y="-972.5" font-family="Helvetica,sans-Serif" font-size="10.00" fill="#000000">std::basic_string&lt;</text>
<text text-anchor="middle" x="1197" y="-961.5" font-family="Helvetica,sans-Serif" font-size="10.00" fill="#000000"> char &gt;</text>
<polyline fill="none" stroke="#bfbfbf" points="1145,-954.5 1249,-954.5 "/>
<text text-anchor="middle" x="1197" y="-942.5" font-family="Helvetica,sans-Serif" font-size="10.00" fill="#000000"> </text>
<polyline fill="none" stroke="#bfbfbf" points="1145,-935.5 1249,-935.5 "/>
<text text-anchor="middle" x="1197" y="-923.5" font-family="Helvetica,sans-Serif" font-size="10.00" fill="#000000"> </text>
</a>
</g>
</g>
<!-- Node24&#45;&gt;Node23 -->
<g id="edge12" class="edge">
<title>Node24&#45;&gt;Node23</title>
<path fill="none" stroke="#191970" d="M1197,-906.1387C1197,-891.7904 1197,-876.2617 1197,-863.3418"/>
<polygon fill="none" stroke="#191970" points="1193.5001,-906.3235 1197,-916.3236 1200.5001,-906.3236 1193.5001,-906.3235"/>
</g>
<!-- Node25&#45;&gt;Node21 -->
<g id="edge13" class="edge">
<title>Node25&#45;&gt;Node21</title>
<path fill="none" stroke="#ffa500" d="M923.7951,-795.6694C923.7899,-784.1842 923.8384,-771.5849 924,-760 924.3412,-735.5441 925.1188,-707.9677 925.7968,-686.8685"/>
<polygon fill="#ffa500" stroke="#ffa500" points="920.2953,-795.8492 923.8133,-805.8429 927.2953,-795.8366 920.2953,-795.8492"/>
<text text-anchor="start" x="924" y="-774" font-family="Helvetica,sans-Serif" font-size="10.00" fill="#000000"> &lt; std::string, unsigned</text>
<text text-anchor="middle" x="981" y="-763" font-family="Helvetica,sans-Serif" font-size="10.00" fill="#000000"> int &gt;</text>
</g>
<!-- Node25&#45;&gt;Node33 -->
<g id="edge28" class="edge">
<title>Node25&#45;&gt;Node33</title>
<path fill="none" stroke="#ffa500" d="M984.3313,-818.5774C1004.039,-810.5908 1024.3457,-798.8933 1038,-782 1059.7966,-755.033 1065.9881,-715.0161 1067.3893,-686.6133"/>
<polygon fill="#ffa500" stroke="#ffa500" points="982.8516,-815.395 974.7366,-822.2066 985.3281,-821.9424 982.8516,-815.395"/>
<text text-anchor="start" x="1051" y="-774" font-family="Helvetica,sans-Serif" font-size="10.00" fill="#000000"> &lt; std::string, std</text>
<text text-anchor="middle" x="1093.5" y="-763" font-family="Helvetica,sans-Serif" font-size="10.00" fill="#000000">::string &gt;</text>
</g>
<!-- Node26 -->
<g id="node15" class="node">
<title>Node26</title>
<polygon fill="#ffffff" stroke="#bfbfbf" points="858.5,-922 858.5,-979 887.5,-979 887.5,-922 858.5,-922"/>
<text text-anchor="middle" x="873" y="-967" font-family="Helvetica,sans-Serif" font-size="10.00" fill="#000000">K</text>
<polyline fill="none" stroke="#bfbfbf" points="858.5,-960 887.5,-960 "/>
<text text-anchor="middle" x="873" y="-948" font-family="Helvetica,sans-Serif" font-size="10.00" fill="#000000"> </text>
<polyline fill="none" stroke="#bfbfbf" points="858.5,-941 887.5,-941 "/>
<text text-anchor="middle" x="873" y="-929" font-family="Helvetica,sans-Serif" font-size="10.00" fill="#000000"> </text>
</g>
<!-- Node26&#45;&gt;Node25 -->
<g id="edge14" class="edge">
<title>Node26&#45;&gt;Node25</title>
<path fill="none" stroke="#404040" d="M869.6636,-921.7772C869.4328,-910.5529 870.542,-897.8083 875,-887 877.0613,-882.0025 879.83,-877.1918 883.0074,-872.648"/>
<polygon fill="none" stroke="#404040" points="883.0638,-872.5766 883.6424,-865.3887 890.4999,-863.1583 889.9213,-870.3461 883.0638,-872.5766"/>
<text text-anchor="middle" x="892.5" y="-890" font-family="Helvetica,sans-Serif" font-size="10.00" fill="#000000"> +keys</text>
</g>
<!-- Node27 -->
<g id="node16" class="node">
<title>Node27</title>
<g id="a_node16"><a xlink:href="classbool.html" target="_top" xlink:title="{bool\n||}">
<polygon fill="#ffffff" stroke="#000000" points="389,-806 389,-863 427,-863 427,-806 389,-806"/>
<text text-anchor="middle" x="408" y="-851" font-family="Helvetica,sans-Serif" font-size="10.00" fill="#000000">bool</text>
<polyline fill="none" stroke="#000000" points="389,-844 427,-844 "/>
<text text-anchor="middle" x="408" y="-832" font-family="Helvetica,sans-Serif" font-size="10.00" fill="#000000"> </text>
<polyline fill="none" stroke="#000000" points="389,-825 427,-825 "/>
<text text-anchor="middle" x="408" y="-813" font-family="Helvetica,sans-Serif" font-size="10.00" fill="#000000"> </text>
</a>
</g>
</g>
<!-- Node27&#45;&gt;Node13 -->
<g id="edge16" class="edge">
<title>Node27&#45;&gt;Node13</title>
<path fill="none" stroke="#404040" d="M412.6015,-805.9243C413.7823,-798.1718 415.0002,-789.7728 416,-782 428.4861,-684.9311 399.9434,-652.7377 439,-563 448.4043,-541.3925 461.8474,-520.5989 476.6928,-501.5839"/>
<polygon fill="none" stroke="#404040" points="476.7998,-501.4508 477.4462,-494.2687 484.3245,-492.1031 483.6781,-499.2852 476.7998,-501.4508"/>
<text text-anchor="middle" x="468.5" y="-650" font-family="Helvetica,sans-Serif" font-size="10.00" fill="#000000"> #m_isDirty</text>
</g>
<!-- Node32 -->
<g id="node21" class="node">
<title>Node32</title>
<polygon fill="#ffffff" stroke="#bfbfbf" points="282,-624 282,-681 394,-681 394,-624 282,-624"/>
<text text-anchor="middle" x="338" y="-669" font-family="Helvetica,sans-Serif" font-size="10.00" fill="#000000">std::vector&lt; bool &gt;</text>
<polyline fill="none" stroke="#bfbfbf" points="282,-662 394,-662 "/>
<text text-anchor="middle" x="338" y="-650" font-family="Helvetica,sans-Serif" font-size="10.00" fill="#000000"> </text>
<polyline fill="none" stroke="#bfbfbf" points="282,-643 394,-643 "/>
<text text-anchor="middle" x="338" y="-631" font-family="Helvetica,sans-Serif" font-size="10.00" fill="#000000"> </text>
</g>
<!-- Node27&#45;&gt;Node32 -->
<g id="edge24" class="edge">
<title>Node27&#45;&gt;Node32</title>
<path fill="none" stroke="#404040" d="M388.8345,-819.5359C378.0028,-809.9918 365.222,-796.6828 358,-782 344.4529,-754.4578 339.6301,-719.976 338.0984,-693.5199"/>
<polygon fill="none" stroke="#404040" points="338.0866,-693.2323 333.8403,-687.4039 337.5871,-681.2427 341.8334,-687.071 338.0866,-693.2323"/>
<text text-anchor="middle" x="387" y="-768.5" font-family="Helvetica,sans-Serif" font-size="10.00" fill="#000000"> +elements</text>
</g>
<!-- Node28 -->
<g id="node17" class="node">
<title>Node28</title>
<polygon fill="#ffffff" stroke="#bfbfbf" points="115.5,-618.5 115.5,-686.5 264.5,-686.5 264.5,-618.5 115.5,-618.5"/>
<text text-anchor="start" x="123.5" y="-674.5" font-family="Helvetica,sans-Serif" font-size="10.00" fill="#000000">std::vector&lt; std::unique</text>
<text text-anchor="middle" x="190" y="-663.5" font-family="Helvetica,sans-Serif" font-size="10.00" fill="#000000">_ptr&lt; globjects::Buffer &gt; &gt;</text>
<polyline fill="none" stroke="#bfbfbf" points="115.5,-656.5 264.5,-656.5 "/>
<text text-anchor="middle" x="190" y="-644.5" font-family="Helvetica,sans-Serif" font-size="10.00" fill="#000000"> </text>
<polyline fill="none" stroke="#bfbfbf" points="115.5,-637.5 264.5,-637.5 "/>
<text text-anchor="middle" x="190" y="-625.5" font-family="Helvetica,sans-Serif" font-size="10.00" fill="#000000"> </text>
</g>
<!-- Node28&#45;&gt;Node13 -->
<g id="edge17" class="edge">
<title>Node28&#45;&gt;Node13</title>
<path fill="none" stroke="#404040" d="M210.5265,-618.388C227.5409,-592.4548 253.7734,-557.3707 284,-534 340.3032,-490.4673 413.5311,-458.0975 472.6943,-436.6082"/>
<polygon fill="none" stroke="#404040" points="473.0285,-436.489 477.3348,-430.7049 484.3303,-432.4554 480.0239,-438.2395 473.0285,-436.489"/>
<text text-anchor="middle" x="309" y="-537" font-family="Helvetica,sans-Serif" font-size="10.00" fill="#000000"> #m_vbos</text>
</g>
<!-- Node29&#45;&gt;Node28 -->
<g id="edge18" class="edge">
<title>Node29&#45;&gt;Node28</title>
<path fill="none" stroke="#404040" d="M272.8957,-800.3464C267.3379,-787.5324 260.6894,-772.9442 254,-760 243.1128,-738.9327 229.8711,-716.2822 218.2636,-697.2307"/>
<polygon fill="none" stroke="#404040" points="218.1119,-696.9839 211.5625,-693.9663 211.829,-686.7601 218.3784,-689.7777 218.1119,-696.9839"/>
<text text-anchor="middle" x="293" y="-768.5" font-family="Helvetica,sans-Serif" font-size="10.00" fill="#000000"> +elements</text>
</g>
<!-- Node30 -->
<g id="node19" class="node">
<title>Node30</title>
<polygon fill="#ffffff" stroke="#bfbfbf" points="254,-922 254,-979 300,-979 300,-922 254,-922"/>
<text text-anchor="middle" x="277" y="-967" font-family="Helvetica,sans-Serif" font-size="10.00" fill="#000000">Buffer</text>
<polyline fill="none" stroke="#bfbfbf" points="254,-960 300,-960 "/>
<text text-anchor="middle" x="277" y="-948" font-family="Helvetica,sans-Serif" font-size="10.00" fill="#000000"> </text>
<polyline fill="none" stroke="#bfbfbf" points="254,-941 300,-941 "/>
<text text-anchor="middle" x="277" y="-929" font-family="Helvetica,sans-Serif" font-size="10.00" fill="#000000"> </text>
</g>
<!-- Node30&#45;&gt;Node29 -->
<g id="edge19" class="edge">
<title>Node30&#45;&gt;Node29</title>
<path fill="none" stroke="#404040" d="M279.4719,-921.8258C280.5347,-909.4977 281.8042,-894.7709 282.9953,-880.9549"/>
<polygon fill="none" stroke="#404040" points="283.0281,-880.5734 279.5582,-874.252 284.0588,-868.6178 287.5287,-874.9392 283.0281,-880.5734"/>
<text text-anchor="middle" x="294.5" y="-890" font-family="Helvetica,sans-Serif" font-size="10.00" fill="#000000"> +ptr</text>
</g>
<!-- Node31&#45;&gt;Node28 -->
<g id="edge21" class="edge">
<title>Node31&#45;&gt;Node28</title>
<path fill="none" stroke="#ffa500" d="M91.3758,-801.0536C79.0971,-789.355 71.4842,-775.2854 78,-760 90.5767,-730.4961 115.662,-705.193 138.9091,-686.5605"/>
<polygon fill="#ffa500" stroke="#ffa500" points="89.2048,-803.8026 99.0729,-807.6588 93.7634,-798.4904 89.2048,-803.8026"/>
<text text-anchor="start" x="78" y="-774" font-family="Helvetica,sans-Serif" font-size="10.00" fill="#000000"> &lt; std::unique_ptr&lt;</text>
<text text-anchor="middle" x="131" y="-763" font-family="Helvetica,sans-Serif" font-size="10.00" fill="#000000"> globjects::Buffer &gt; &gt;</text>
</g>
<!-- Node31&#45;&gt;Node32 -->
<g id="edge25" class="edge">
<title>Node31&#45;&gt;Node32</title>
<path fill="none" stroke="#ffa500" d="M173.8242,-797.2605C186.0671,-780.0394 198.9048,-762.7614 203,-760 229.6339,-742.0406 246.4365,-760.0632 273,-742 295.3908,-726.7742 312.8351,-701.1699 323.9894,-681.2385"/>
<polygon fill="#ffa500" stroke="#ffa500" points="170.812,-795.4585 167.9027,-805.6461 176.5301,-799.4964 170.812,-795.4585"/>
<text text-anchor="middle" x="226.5" y="-768.5" font-family="Helvetica,sans-Serif" font-size="10.00" fill="#000000"> &lt; bool &gt;</text>
</g>
<!-- Node32&#45;&gt;Node13 -->
<g id="edge23" class="edge">
<title>Node32&#45;&gt;Node13</title>
<path fill="none" stroke="#404040" d="M331.8067,-623.8999C327.902,-598.3755 326.3241,-560.9716 343,-534 372.1654,-486.8279 425.0568,-455.483 473.1843,-435.4653"/>
<polygon fill="none" stroke="#404040" points="473.1943,-435.4614 477.2726,-429.5143 484.3308,-430.9916 480.2525,-436.9387 473.1943,-435.4614"/>
<text text-anchor="middle" x="379.5" y="-537" font-family="Helvetica,sans-Serif" font-size="10.00" fill="#000000"> #m_dataDirty</text>
</g>
<!-- Node33&#45;&gt;Node12 -->
<g id="edge26" class="edge">
<title>Node33&#45;&gt;Node12</title>
<path fill="none" stroke="#404040" d="M1041.5497,-618.2566C1028.613,-601.2975 1012.4043,-580.7129 997,-563 892.8307,-443.2191 765.1831,-313.1692 678.1388,-226.774"/>
<polygon fill="none" stroke="#404040" points="678.1029,-226.7385 671.0257,-225.3553 669.5806,-218.2904 676.6578,-219.6737 678.1029,-226.7385"/>
<text text-anchor="start" x="954" y="-418.5" font-family="Helvetica,sans-Serif" font-size="10.00" fill="#000000"> #m_translationTableShader</text>
<text text-anchor="middle" x="1023.5" y="-407.5" font-family="Helvetica,sans-Serif" font-size="10.00" fill="#000000">ToMesh</text>
<text text-anchor="start" x="954" y="-396.5" font-family="Helvetica,sans-Serif" font-size="10.00" fill="#000000">#m_translationTableMesh</text>
<text text-anchor="middle" x="1023.5" y="-385.5" font-family="Helvetica,sans-Serif" font-size="10.00" fill="#000000">ToShader</text>
</g>
</g>
</svg>
        <g id="navigator" transform="translate(0 0)" fill="#404254">
                <rect fill="#f2f5e9" fill-opacity="0.5" stroke="#606060" stroke-width=".5" x="0" y="0" width="60" height="60"/>
                <use id="zoomplus" xlink:href="#zoomPlus" x="17" y="9" onmousedown="handleZoom(evt,'in')"/>
                <use id="zoomminus" xlink:href="#zoomMin" x="42" y="9" onmousedown="handleZoom(evt,'out')"/>
                <use id="reset" xlink:href="#resetDef" x="30" y="36" onmousedown="handleReset()"/>
                <g id="arrowUp" xlink:href="#dirArrow" transform="translate(30 24)" onmousedown="handlePan(0,-1)">
                  <use xlink:href="#rim" fill="#404040">
                        <set attributeName="fill" to="#808080" begin="arrowUp.mouseover" end="arrowUp.mouseout"/>
                  </use>
                  <path fill="none" stroke="white" stroke-width="1.5" d="M0,-3.0v7 M-2.5,-0.5L0,-3.0L2.5,-0.5"/>
                </g>
                <g id="arrowRight" xlink:href="#dirArrow" transform="rotate(90) translate(36 -43)" onmousedown="handlePan(1,0)">
                  <use xlink:href="#rim" fill="#404040">
                        <set attributeName="fill" to="#808080" begin="arrowRight.mouseover" end="arrowRight.mouseout"/>
                  </use>
                  <path fill="none" stroke="white" stroke-width="1.5" d="M0,-3.0v7 M-2.5,-0.5L0,-3.0L2.5,-0.5"/>
                </g>
                <g id="arrowDown" xlink:href="#dirArrow" transform="rotate(180) translate(-30 -48)" onmousedown="handlePan(0,1)">
                  <use xlink:href="#rim" fill="#404040">
                        <set attributeName="fill" to="#808080" begin="arrowDown.mouseover" end="arrowDown.mouseout"/>
                  </use>
                  <path fill="none" stroke="white" stroke-width="1.5" d="M0,-3.0v7 M-2.5,-0.5L0,-3.0L2.5,-0.5"/>
                </g>
                <g id="arrowLeft" xlink:href="#dirArrow" transform="rotate(270) translate(-36 17)" onmousedown="handlePan(-1,0)">
                  <use xlink:href="#rim" fill="#404040">
                        <set attributeName="fill" to="#808080" begin="arrowLeft.mouseover" end="arrowLeft.mouseout"/>
                  </use>
                  <path fill="none" stroke="white" stroke-width="1.5" d="M0,-3.0v7 M-2.5,-0.5L0,-3.0L2.5,-0.5"/>
                </g>
        </g>
        <svg viewBox="0 0 15 15" width="100%" height="30px" preserveAspectRatio="xMaxYMin meet">
         <g id="arrow_out" transform="scale(0.3 0.3)">
          <a xlink:href="classRa_1_1Engine_1_1CoreGeometryDisplayable__coll__graph_org.svg" target="_base">
           <rect id="button" ry="5" rx="5" y="6" x="6" height="38" width="38"
                fill="#f2f5e9" fill-opacity="0.5" stroke="#606060" stroke-width="1.0"/>
           <path id="arrow"
             d="M 11.500037,31.436501 C 11.940474,20.09759 22.043105,11.32322 32.158766,21.979434 L 37.068811,17.246167 C 37.068811,17.246167 37.088388,32 37.088388,32 L 22.160133,31.978069 C 22.160133,31.978069 26.997745,27.140456 26.997745,27.140456 C 18.528582,18.264221 13.291696,25.230495 11.500037,31.436501 z"
             style="fill:#404040;"/>
          </a>
         </g>
        </svg>
</svg>
