<?xml version="1.0" encoding="UTF-8" standalone="no"?>
<!DOCTYPE svg PUBLIC "-//W3C//DTD SVG 1.1//EN"
 "http://www.w3.org/Graphics/SVG/1.1/DTD/svg11.dtd">
<!-- Generated by graphviz version 2.40.1 (20161225.0304)
 -->
<!-- Title: Ra::Core::Utils::AttribManager::~AttribManager Pages: 1 -->
<svg width="319pt" height="39pt"
 viewBox="0.00 0.00 319.00 39.00" xmlns="http://www.w3.org/2000/svg" xmlns:xlink="http://www.w3.org/1999/xlink">
<g id="graph0" class="graph" transform="scale(1 1) rotate(0) translate(4 35)">
<title>Ra::Core::Utils::AttribManager::~AttribManager</title>
<polygon fill="#ffffff" stroke="transparent" points="-4,4 -4,-35 315,-35 315,4 -4,4"/>
<!-- Node3 -->
<g id="node1" class="node">
<title>Node3</title>
<polygon fill="#bfbfbf" stroke="#000000" points="0,-.5 0,-30.5 161,-30.5 161,-.5 0,-.5"/>
<text text-anchor="start" x="8" y="-18.5" font-family="Helvetica,sans-Serif" font-size="10.00" fill="#000000">Ra::Core::Utils::AttribManager</text>
<text text-anchor="middle" x="80.5" y="-7.5" font-family="Helvetica,sans-Serif" font-size="10.00" fill="#000000">::~AttribManager</text>
</g>
<!-- Node4 -->
<g id="node2" class="node">
<title>Node4</title>
<g id="a_node2"><a xlink:href="namespaceRa_1_1Core_1_1Animation.html#a547f9928803752e611f856afca5b613f" target="_top" xlink:title="Remove all the key Poses. ">
<polygon fill="#ffffff" stroke="#000000" points="197,-.5 197,-30.5 311,-30.5 311,-.5 197,-.5"/>
<text text-anchor="start" x="205" y="-18.5" font-family="Helvetica,sans-Serif" font-size="10.00" fill="#000000">Ra::Core::Animation</text>
<text text-anchor="middle" x="254" y="-7.5" font-family="Helvetica,sans-Serif" font-size="10.00" fill="#000000">::clear</text>
</a>
</g>
</g>
<!-- Node3&#45;&gt;Node4 -->
<g id="edge1" class="edge">
<title>Node3&#45;&gt;Node4</title>
<path fill="none" stroke="#191970" d="M161.1549,-15.5C169.711,-15.5 178.3467,-15.5 186.7266,-15.5"/>
<polygon fill="#191970" stroke="#191970" points="186.799,-19.0001 196.799,-15.5 186.799,-12.0001 186.799,-19.0001"/>
</g>
</g>
</svg>
