<?xml version="1.0" encoding="UTF-8" standalone="no"?>
<!DOCTYPE svg PUBLIC "-//W3C//DTD SVG 1.1//EN"
 "http://www.w3.org/Graphics/SVG/1.1/DTD/svg11.dtd">
<!-- Generated by graphviz version 2.40.1 (20161225.0304)
 -->
<!-- Title: Ra::Engine::TriangleMeshComponent::setupIO Pages: 1 -->
<svg width="361pt" height="88pt"
 viewBox="0.00 0.00 361.00 88.00" xmlns="http://www.w3.org/2000/svg" xmlns:xlink="http://www.w3.org/1999/xlink">
<g id="graph0" class="graph" transform="scale(1 1) rotate(0) translate(4 84)">
<title>Ra::Engine::TriangleMeshComponent::setupIO</title>
<polygon fill="#ffffff" stroke="transparent" points="-4,4 -4,-84 357,-84 357,4 -4,4"/>
<!-- Node37 -->
<g id="node1" class="node">
<title>Node37</title>
<polygon fill="#bfbfbf" stroke="#000000" points="0,-24.5 0,-54.5 138,-54.5 138,-24.5 0,-24.5"/>
<text text-anchor="start" x="8" y="-42.5" font-family="Helvetica,sans-Serif" font-size="10.00" fill="#000000">Ra::Engine::TriangleMesh</text>
<text text-anchor="middle" x="69" y="-31.5" font-family="Helvetica,sans-Serif" font-size="10.00" fill="#000000">Component::setupIO</text>
</g>
<!-- Node38 -->
<g id="node2" class="node">
<title>Node38</title>
<g id="a_node2"><a xlink:href="classRa_1_1Engine_1_1Component.html#a2fea450b5fd9ea6a6e9b0ce1847b9727" target="_top" xlink:title="Return the entity the component belongs to. ">
<polygon fill="#ffffff" stroke="#000000" points="198,-49.5 198,-79.5 329,-79.5 329,-49.5 198,-49.5"/>
<text text-anchor="start" x="206" y="-67.5" font-family="Helvetica,sans-Serif" font-size="10.00" fill="#000000">Ra::Engine::Component</text>
<text text-anchor="middle" x="263.5" y="-56.5" font-family="Helvetica,sans-Serif" font-size="10.00" fill="#000000">::getEntity</text>
</a>
</g>
</g>
<!-- Node37&#45;&gt;Node38 -->
<g id="edge1" class="edge">
<title>Node37&#45;&gt;Node38</title>
<path fill="none" stroke="#191970" d="M138.1211,-48.3845C154.2162,-50.4532 171.4361,-52.6666 187.799,-54.7698"/>
<polygon fill="#191970" stroke="#191970" points="187.4942,-58.2593 197.8588,-56.0628 188.3866,-51.3164 187.4942,-58.2593"/>
</g>
<!-- Node39 -->
<g id="node3" class="node">
<title>Node39</title>
<g id="a_node3"><a xlink:href="classRa_1_1Engine_1_1GeometryComponent.html#acd66e05ec26dd556df24c544cee48440" target="_top" xlink:title="Ra::Engine::GeometryComponent\l::setupIO">
<polygon fill="#ffffff" stroke="#000000" points="174,-.5 174,-30.5 353,-30.5 353,-.5 174,-.5"/>
<text text-anchor="start" x="182" y="-18.5" font-family="Helvetica,sans-Serif" font-size="10.00" fill="#000000">Ra::Engine::GeometryComponent</text>
<text text-anchor="middle" x="263.5" y="-7.5" font-family="Helvetica,sans-Serif" font-size="10.00" fill="#000000">::setupIO</text>
</a>
</g>
</g>
<!-- Node37&#45;&gt;Node39 -->
<g id="edge2" class="edge">
<title>Node37&#45;&gt;Node39</title>
<path fill="none" stroke="#191970" d="M138.1211,-30.9709C146.4399,-29.9444 155.0592,-28.8809 163.7054,-27.814"/>
<polygon fill="#191970" stroke="#191970" points="164.3551,-31.2605 173.8511,-26.5621 163.4978,-24.3131 164.3551,-31.2605"/>
</g>
</g>
</svg>
