<?xml version="1.0" encoding="UTF-8" standalone="no"?>
<!DOCTYPE svg PUBLIC "-//W3C//DTD SVG 1.1//EN"
 "http://www.w3.org/Graphics/SVG/1.1/DTD/svg11.dtd">
<!-- Generated by graphviz version 2.40.1 (20161225.0304)
 -->
<!-- Title: Ra::Engine::LightManager Pages: 1 -->
<!--zoomable 795 -->
<svg id="main" version="1.1" xmlns="http://www.w3.org/2000/svg" xmlns:xlink="http://www.w3.org/1999/xlink" xml:space="preserve" onload="init(evt)">
<style type="text/css"><![CDATA[
.edge:hover path { stroke: red; }
.edge:hover polygon { stroke: red; fill: red; }
]]></style>
<script type="text/javascript"><![CDATA[
var edges = document.getElementsByTagName('g');
if (edges && edges.length) {
  for (var i=0;i<edges.length;i++) {
    if (edges[i].id.substr(0,4)=='edge') {
      edges[i].setAttribute('class','edge');
    }
  }
}
]]></script>
        <defs>
                <circle id="rim" cx="0" cy="0" r="7"/>
                <circle id="rim2" cx="0" cy="0" r="3.5"/>
                <g id="zoomPlus">
                        <use xlink:href="#rim" fill="#404040">
                                <set attributeName="fill" to="#808080" begin="zoomplus.mouseover" end="zoomplus.mouseout"/>
                        </use>
                        <path d="M-4,0h8M0,-4v8" fill="none" stroke="white" stroke-width="1.5" pointer-events="none"/>
                </g>
                <g id="zoomMin">
                        <use xlink:href="#rim" fill="#404040">
                                <set attributeName="fill" to="#808080" begin="zoomminus.mouseover" end="zoomminus.mouseout"/>
                        </use>
                        <path d="M-4,0h8" fill="none" stroke="white" stroke-width="1.5" pointer-events="none"/>
                </g>
                <g id="dirArrow">
                        <path fill="none" stroke="white" stroke-width="1.5" d="M0,-3.0v7 M-2.5,-0.5L0,-3.0L2.5,-0.5"/>
                </g>
               <g id="resetDef">
                       <use xlink:href="#rim2" fill="#404040">
                               <set attributeName="fill" to="#808080" begin="reset.mouseover" end="reset.mouseout"/>
                       </use>
               </g>
        </defs>

<script type="text/javascript">
var viewWidth = 569;
var viewHeight = 795;
var sectionId = 'dynsection-1';
</script>
<script xlink:href="svgpan.js"/>
<svg id="graph" class="graph">
<g id="viewport">
<title>Ra::Engine::LightManager</title>
<polygon fill="#ffffff" stroke="transparent" points="-4,4 -4,-791 565,-791 565,4 -4,4"/>
<!-- Node3 -->
<g id="node1" class="node">
<title>Node3</title>
<polygon fill="#bfbfbf" stroke="#000000" points="174.5,-.5 174.5,-178.5 333.5,-178.5 333.5,-.5 174.5,-.5"/>
<text text-anchor="middle" x="254" y="-166.5" font-family="Helvetica,sans-Serif" font-size="10.00" fill="#000000">Ra::Engine::LightManager</text>
<polyline fill="none" stroke="#000000" points="174.5,-159.5 333.5,-159.5 "/>
<text text-anchor="middle" x="254" y="-147.5" font-family="Helvetica,sans-Serif" font-size="10.00" fill="#000000"> </text>
<polyline fill="none" stroke="#000000" points="174.5,-140.5 333.5,-140.5 "/>
<text text-anchor="start" x="182.5" y="-128.5" font-family="Helvetica,sans-Serif" font-size="10.00" fill="#000000">+ LightManager()</text>
<text text-anchor="start" x="182.5" y="-117.5" font-family="Helvetica,sans-Serif" font-size="10.00" fill="#000000">+ LightManager()</text>
<text text-anchor="start" x="182.5" y="-106.5" font-family="Helvetica,sans-Serif" font-size="10.00" fill="#000000">+ operator=()</text>
<text text-anchor="start" x="182.5" y="-95.5" font-family="Helvetica,sans-Serif" font-size="10.00" fill="#000000">+ ~LightManager()</text>
<text text-anchor="start" x="182.5" y="-84.5" font-family="Helvetica,sans-Serif" font-size="10.00" fill="#000000">+ getLight()</text>
<text text-anchor="start" x="182.5" y="-73.5" font-family="Helvetica,sans-Serif" font-size="10.00" fill="#000000">+ addLight()</text>
<text text-anchor="start" x="182.5" y="-62.5" font-family="Helvetica,sans-Serif" font-size="10.00" fill="#000000">+ count()</text>
<text text-anchor="start" x="182.5" y="-51.5" font-family="Helvetica,sans-Serif" font-size="10.00" fill="#000000">+ generateTasks()</text>
<text text-anchor="start" x="182.5" y="-40.5" font-family="Helvetica,sans-Serif" font-size="10.00" fill="#000000">+ handleAssetLoading()</text>
<text text-anchor="start" x="182.5" y="-29.5" font-family="Helvetica,sans-Serif" font-size="10.00" fill="#000000"># registerComponent()</text>
<text text-anchor="start" x="182.5" y="-18.5" font-family="Helvetica,sans-Serif" font-size="10.00" fill="#000000"># unregisterComponent()</text>
<text text-anchor="start" x="182.5" y="-7.5" font-family="Helvetica,sans-Serif" font-size="10.00" fill="#000000"># unregisterAllComponents()</text>
</g>
<!-- Node4 -->
<g id="node2" class="node">
<title>Node4</title>
<g id="a_node2"><a xlink:href="classRa_1_1Engine_1_1System.html" target="_top" xlink:title="{Ra::Engine::System\n||+ System()\l+ ~System()\l+ handleAssetLoading()\l+ generateTasks()\l+ getEntityComponents()\l# registerComponent()\l# unregisterComponent()\l# unregisterAllComponents()\l}">
<polygon fill="#ffffff" stroke="#000000" points="113.5,-216.5 113.5,-350.5 272.5,-350.5 272.5,-216.5 113.5,-216.5"/>
<text text-anchor="middle" x="193" y="-338.5" font-family="Helvetica,sans-Serif" font-size="10.00" fill="#000000">Ra::Engine::System</text>
<polyline fill="none" stroke="#000000" points="113.5,-331.5 272.5,-331.5 "/>
<text text-anchor="middle" x="193" y="-319.5" font-family="Helvetica,sans-Serif" font-size="10.00" fill="#000000"> </text>
<polyline fill="none" stroke="#000000" points="113.5,-312.5 272.5,-312.5 "/>
<text text-anchor="start" x="121.5" y="-300.5" font-family="Helvetica,sans-Serif" font-size="10.00" fill="#000000">+ System()</text>
<text text-anchor="start" x="121.5" y="-289.5" font-family="Helvetica,sans-Serif" font-size="10.00" fill="#000000">+ ~System()</text>
<text text-anchor="start" x="121.5" y="-278.5" font-family="Helvetica,sans-Serif" font-size="10.00" fill="#000000">+ handleAssetLoading()</text>
<text text-anchor="start" x="121.5" y="-267.5" font-family="Helvetica,sans-Serif" font-size="10.00" fill="#000000">+ generateTasks()</text>
<text text-anchor="start" x="121.5" y="-256.5" font-family="Helvetica,sans-Serif" font-size="10.00" fill="#000000">+ getEntityComponents()</text>
<text text-anchor="start" x="121.5" y="-245.5" font-family="Helvetica,sans-Serif" font-size="10.00" fill="#000000"># registerComponent()</text>
<text text-anchor="start" x="121.5" y="-234.5" font-family="Helvetica,sans-Serif" font-size="10.00" fill="#000000"># unregisterComponent()</text>
<text text-anchor="start" x="121.5" y="-223.5" font-family="Helvetica,sans-Serif" font-size="10.00" fill="#000000"># unregisterAllComponents()</text>
</a>
</g>
</g>
<!-- Node4&#45;&gt;Node3 -->
<g id="edge1" class="edge">
<title>Node4&#45;&gt;Node3</title>
<path fill="none" stroke="#191970" d="M217.1654,-206.646C220.0438,-197.4919 223.0009,-188.0874 225.9279,-178.7784"/>
<polygon fill="none" stroke="#191970" points="213.7389,-205.8751 214.0782,-216.4646 220.4166,-207.9749 213.7389,-205.8751"/>
</g>
<!-- Node5 -->
<g id="node3" class="node">
<title>Node5</title>
<polygon fill="#ffffff" stroke="#bfbfbf" points="58.5,-398.5 58.5,-477.5 231.5,-477.5 231.5,-398.5 58.5,-398.5"/>
<text text-anchor="start" x="66.5" y="-465.5" font-family="Helvetica,sans-Serif" font-size="10.00" fill="#000000">std::vector&lt; std::pair</text>
<text text-anchor="start" x="66.5" y="-454.5" font-family="Helvetica,sans-Serif" font-size="10.00" fill="#000000">&lt; const Ra::Engine::Entity</text>
<text text-anchor="middle" x="145" y="-443.5" font-family="Helvetica,sans-Serif" font-size="10.00" fill="#000000"> *, Ra::Engine::Component *&gt; &gt;</text>
<polyline fill="none" stroke="#bfbfbf" points="58.5,-436.5 231.5,-436.5 "/>
<text text-anchor="middle" x="145" y="-424.5" font-family="Helvetica,sans-Serif" font-size="10.00" fill="#000000"> </text>
<polyline fill="none" stroke="#bfbfbf" points="58.5,-417.5 231.5,-417.5 "/>
<text text-anchor="middle" x="145" y="-405.5" font-family="Helvetica,sans-Serif" font-size="10.00" fill="#000000"> </text>
</g>
<!-- Node5&#45;&gt;Node4 -->
<g id="edge2" class="edge">
<title>Node5&#45;&gt;Node4</title>
<path fill="none" stroke="#404040" d="M157.3612,-398.2124C160.7713,-387.2361 164.5951,-374.9284 168.4381,-362.5588"/>
<polygon fill="none" stroke="#404040" points="168.5552,-362.1814 166.5155,-355.2648 172.1156,-350.7217 174.1553,-357.6384 168.5552,-362.1814"/>
<text text-anchor="middle" x="210.5" y="-372" font-family="Helvetica,sans-Serif" font-size="10.00" fill="#000000"> #m_components</text>
</g>
<!-- Node6 -->
<g id="node4" class="node">
<title>Node6</title>
<polygon fill="#ffffff" stroke="#bfbfbf" points="0,-575 0,-654 128,-654 128,-575 0,-575"/>
<text text-anchor="start" x="8" y="-642" font-family="Helvetica,sans-Serif" font-size="10.00" fill="#000000">pair&lt; const Ra::Engine</text>
<text text-anchor="start" x="8" y="-631" font-family="Helvetica,sans-Serif" font-size="10.00" fill="#000000">::Entity *, Ra::Engine</text>
<text text-anchor="middle" x="64" y="-620" font-family="Helvetica,sans-Serif" font-size="10.00" fill="#000000">::Component * &gt;</text>
<polyline fill="none" stroke="#bfbfbf" points="0,-613 128,-613 "/>
<text text-anchor="middle" x="64" y="-601" font-family="Helvetica,sans-Serif" font-size="10.00" fill="#000000"> </text>
<polyline fill="none" stroke="#bfbfbf" points="0,-594 128,-594 "/>
<text text-anchor="middle" x="64" y="-582" font-family="Helvetica,sans-Serif" font-size="10.00" fill="#000000"> </text>
</g>
<!-- Node6&#45;&gt;Node5 -->
<g id="edge3" class="edge">
<title>Node6&#45;&gt;Node5</title>
<path fill="none" stroke="#404040" d="M69.2092,-574.9277C73.4965,-551.0531 81.0486,-520.5997 94,-496 95.5002,-493.1506 97.1677,-490.3254 98.9579,-487.5449"/>
<polygon fill="none" stroke="#404040" points="98.9797,-487.5141 99.1705,-480.3055 105.898,-477.7092 105.7072,-484.9178 98.9797,-487.5141"/>
<text text-anchor="middle" x="123" y="-510" font-family="Helvetica,sans-Serif" font-size="10.00" fill="#000000"> +elements</text>
</g>
<!-- Node7 -->
<g id="node5" class="node">
<title>Node7</title>
<g id="a_node5"><a xlink:title="STL class. ">
<polygon fill="#ffffff" stroke="#bfbfbf" points="147.5,-586 147.5,-643 244.5,-643 244.5,-586 147.5,-586"/>
<text text-anchor="middle" x="196" y="-631" font-family="Helvetica,sans-Serif" font-size="10.00" fill="#000000">std::vector&lt; T &gt;</text>
<polyline fill="none" stroke="#bfbfbf" points="147.5,-624 244.5,-624 "/>
<text text-anchor="middle" x="196" y="-612" font-family="Helvetica,sans-Serif" font-size="10.00" fill="#000000"> </text>
<polyline fill="none" stroke="#bfbfbf" points="147.5,-605 244.5,-605 "/>
<text text-anchor="middle" x="196" y="-593" font-family="Helvetica,sans-Serif" font-size="10.00" fill="#000000"> </text>
</a>
</g>
</g>
<!-- Node7&#45;&gt;Node5 -->
<g id="edge4" class="edge">
<title>Node7&#45;&gt;Node5</title>
<path fill="none" stroke="#ffa500" d="M179.5053,-575.9875C173.7142,-561.452 167.5299,-544.6463 163,-529 158.2078,-512.4477 154.277,-493.8346 151.3247,-477.775"/>
<polygon fill="#ffa500" stroke="#ffa500" points="176.4218,-577.6969 183.4265,-585.6458 182.9076,-575.0636 176.4218,-577.6969"/>
<text text-anchor="start" x="163" y="-521" font-family="Helvetica,sans-Serif" font-size="10.00" fill="#000000"> &lt; std::pair&lt; const</text>
<text text-anchor="start" x="163" y="-510" font-family="Helvetica,sans-Serif" font-size="10.00" fill="#000000"> Ra::Engine::Entity</text>
<text text-anchor="middle" x="241.5" y="-499" font-family="Helvetica,sans-Serif" font-size="10.00" fill="#000000"> *, Ra::Engine::Component *&gt; &gt;</text>
</g>
<!-- Node8 -->
<g id="node6" class="node">
<title>Node8</title>
<polygon fill="#ffffff" stroke="#bfbfbf" points="244.5,-729.5 244.5,-786.5 273.5,-786.5 273.5,-729.5 244.5,-729.5"/>
<text text-anchor="middle" x="259" y="-774.5" font-family="Helvetica,sans-Serif" font-size="10.00" fill="#000000">T</text>
<polyline fill="none" stroke="#bfbfbf" points="244.5,-767.5 273.5,-767.5 "/>
<text text-anchor="middle" x="259" y="-755.5" font-family="Helvetica,sans-Serif" font-size="10.00" fill="#000000"> </text>
<polyline fill="none" stroke="#bfbfbf" points="244.5,-748.5 273.5,-748.5 "/>
<text text-anchor="middle" x="259" y="-736.5" font-family="Helvetica,sans-Serif" font-size="10.00" fill="#000000"> </text>
</g>
<!-- Node8&#45;&gt;Node7 -->
<g id="edge5" class="edge">
<title>Node8&#45;&gt;Node7</title>
<path fill="none" stroke="#404040" d="M244.4359,-735.5266C239.8191,-727.9086 234.9053,-719.2394 231,-711 222.5036,-693.0742 214.7787,-672.4925 208.7607,-654.9538"/>
<polygon fill="none" stroke="#404040" points="208.6912,-654.746 202.9922,-650.3277 204.8786,-643.3677 210.5777,-647.786 208.6912,-654.746"/>
<text text-anchor="middle" x="260" y="-703" font-family="Helvetica,sans-Serif" font-size="10.00" fill="#000000"> +elements</text>
</g>
<!-- Node11 -->
<g id="node9" class="node">
<title>Node11</title>
<g id="a_node9"><a xlink:title="STL class. ">
<polygon fill="#ffffff" stroke="#bfbfbf" points="264,-586 264,-643 382,-643 382,-586 264,-586"/>
<text text-anchor="middle" x="323" y="-631" font-family="Helvetica,sans-Serif" font-size="10.00" fill="#000000">std::unique_ptr&lt; T &gt;</text>
<polyline fill="none" stroke="#bfbfbf" points="264,-624 382,-624 "/>
<text text-anchor="middle" x="323" y="-612" font-family="Helvetica,sans-Serif" font-size="10.00" fill="#000000"> </text>
<polyline fill="none" stroke="#bfbfbf" points="264,-605 382,-605 "/>
<text text-anchor="start" x="272" y="-593" font-family="Helvetica,sans-Serif" font-size="10.00" fill="#000000">+ operator&#45;&gt;()</text>
</a>
</g>
</g>
<!-- Node8&#45;&gt;Node11 -->
<g id="edge9" class="edge">
<title>Node8&#45;&gt;Node11</title>
<path fill="none" stroke="#404040" d="M273.5052,-737.5397C278.8119,-729.5039 284.5899,-720.0502 289,-711 297.7245,-693.0959 305.3289,-672.3634 311.1207,-654.7147"/>
<polygon fill="none" stroke="#404040" points="311.1904,-654.4958 309.2,-647.5648 314.8323,-643.0618 316.8227,-649.9928 311.1904,-654.4958"/>
<text text-anchor="middle" x="305.5" y="-703" font-family="Helvetica,sans-Serif" font-size="10.00" fill="#000000"> +ptr</text>
</g>
<!-- Node9 -->
<g id="node7" class="node">
<title>Node9</title>
<polygon fill="#ffffff" stroke="#bfbfbf" points="258,-404 258,-472 392,-472 392,-404 258,-404"/>
<text text-anchor="start" x="266" y="-460" font-family="Helvetica,sans-Serif" font-size="10.00" fill="#000000">std::unique_ptr&lt; Ra</text>
<text text-anchor="middle" x="325" y="-449" font-family="Helvetica,sans-Serif" font-size="10.00" fill="#000000">::Engine::LightStorage &gt;</text>
<polyline fill="none" stroke="#bfbfbf" points="258,-442 392,-442 "/>
<text text-anchor="middle" x="325" y="-430" font-family="Helvetica,sans-Serif" font-size="10.00" fill="#000000"> </text>
<polyline fill="none" stroke="#bfbfbf" points="258,-423 392,-423 "/>
<text text-anchor="start" x="266" y="-411" font-family="Helvetica,sans-Serif" font-size="10.00" fill="#000000">+ operator&#45;&gt;()</text>
</g>
<!-- Node9&#45;&gt;Node3 -->
<g id="edge6" class="edge">
<title>Node9&#45;&gt;Node3</title>
<path fill="none" stroke="#404040" d="M318.3711,-403.7408C309.8908,-360.1045 294.6628,-282.3863 281,-216 279.2883,-207.683 277.4932,-199.063 275.6767,-190.4111"/>
<polygon fill="none" stroke="#404040" points="275.6662,-190.361 270.5151,-185.3145 273.1921,-178.6187 278.3432,-183.6652 275.6662,-190.361"/>
<text text-anchor="middle" x="331.5" y="-281" font-family="Helvetica,sans-Serif" font-size="10.00" fill="#000000"> #m_data</text>
</g>
<!-- Node10 -->
<g id="node8" class="node">
<title>Node10</title>
<g id="a_node8"><a xlink:href="classRa_1_1Engine_1_1LightStorage.html" target="_top" xlink:title="{Ra::Engine::LightStorage\n||+ LightStorage()\l+ ~LightStorage()\l+ upload()\l+ size()\l+ add()\l+ remove()\l+ clear()\l+ operator[]()\l}">
<polygon fill="#ffffff" stroke="#000000" points="425,-547.5 425,-681.5 561,-681.5 561,-547.5 425,-547.5"/>
<text text-anchor="middle" x="493" y="-669.5" font-family="Helvetica,sans-Serif" font-size="10.00" fill="#000000">Ra::Engine::LightStorage</text>
<polyline fill="none" stroke="#000000" points="425,-662.5 561,-662.5 "/>
<text text-anchor="middle" x="493" y="-650.5" font-family="Helvetica,sans-Serif" font-size="10.00" fill="#000000"> </text>
<polyline fill="none" stroke="#000000" points="425,-643.5 561,-643.5 "/>
<text text-anchor="start" x="433" y="-631.5" font-family="Helvetica,sans-Serif" font-size="10.00" fill="#000000">+ LightStorage()</text>
<text text-anchor="start" x="433" y="-620.5" font-family="Helvetica,sans-Serif" font-size="10.00" fill="#000000">+ ~LightStorage()</text>
<text text-anchor="start" x="433" y="-609.5" font-family="Helvetica,sans-Serif" font-size="10.00" fill="#000000">+ upload()</text>
<text text-anchor="start" x="433" y="-598.5" font-family="Helvetica,sans-Serif" font-size="10.00" fill="#000000">+ size()</text>
<text text-anchor="start" x="433" y="-587.5" font-family="Helvetica,sans-Serif" font-size="10.00" fill="#000000">+ add()</text>
<text text-anchor="start" x="433" y="-576.5" font-family="Helvetica,sans-Serif" font-size="10.00" fill="#000000">+ remove()</text>
<text text-anchor="start" x="433" y="-565.5" font-family="Helvetica,sans-Serif" font-size="10.00" fill="#000000">+ clear()</text>
<text text-anchor="start" x="433" y="-554.5" font-family="Helvetica,sans-Serif" font-size="10.00" fill="#000000">+ operator[]()</text>
</a>
</g>
</g>
<!-- Node10&#45;&gt;Node9 -->
<g id="edge7" class="edge">
<title>Node10&#45;&gt;Node9</title>
<path fill="none" stroke="#404040" d="M492.2271,-547.3737C489.0894,-529.0906 482.8269,-510.3851 471,-496 454.0283,-475.3572 428.6603,-462.0197 403.8094,-453.4193"/>
<polygon fill="none" stroke="#404040" points="403.51,-453.3239 396.5786,-455.3127 392.0768,-449.6794 399.0082,-447.6906 403.51,-453.3239"/>
<text text-anchor="middle" x="499.5" y="-510" font-family="Helvetica,sans-Serif" font-size="10.00" fill="#000000"> +ptr</text>
</g>
<!-- Node11&#45;&gt;Node9 -->
<g id="edge8" class="edge">
<title>Node11&#45;&gt;Node9</title>
<path fill="none" stroke="#ffa500" d="M323.4437,-575.3474C323.794,-544.4337 324.2778,-501.7303 324.6127,-472.183"/>
<polygon fill="#ffa500" stroke="#ffa500" points="319.9394,-575.7104 323.3258,-585.7494 326.939,-575.7897 319.9394,-575.7104"/>
<text text-anchor="middle" x="396.5" y="-510" font-family="Helvetica,sans-Serif" font-size="10.00" fill="#000000"> &lt; Ra::Engine::LightStorage &gt;</text>
</g>
</g>
</svg>
        <g id="navigator" transform="translate(0 0)" fill="#404254">
                <rect fill="#f2f5e9" fill-opacity="0.5" stroke="#606060" stroke-width=".5" x="0" y="0" width="60" height="60"/>
                <use id="zoomplus" xlink:href="#zoomPlus" x="17" y="9" onmousedown="handleZoom(evt,'in')"/>
                <use id="zoomminus" xlink:href="#zoomMin" x="42" y="9" onmousedown="handleZoom(evt,'out')"/>
                <use id="reset" xlink:href="#resetDef" x="30" y="36" onmousedown="handleReset()"/>
                <g id="arrowUp" xlink:href="#dirArrow" transform="translate(30 24)" onmousedown="handlePan(0,-1)">
                  <use xlink:href="#rim" fill="#404040">
                        <set attributeName="fill" to="#808080" begin="arrowUp.mouseover" end="arrowUp.mouseout"/>
                  </use>
                  <path fill="none" stroke="white" stroke-width="1.5" d="M0,-3.0v7 M-2.5,-0.5L0,-3.0L2.5,-0.5"/>
                </g>
                <g id="arrowRight" xlink:href="#dirArrow" transform="rotate(90) translate(36 -43)" onmousedown="handlePan(1,0)">
                  <use xlink:href="#rim" fill="#404040">
                        <set attributeName="fill" to="#808080" begin="arrowRight.mouseover" end="arrowRight.mouseout"/>
                  </use>
                  <path fill="none" stroke="white" stroke-width="1.5" d="M0,-3.0v7 M-2.5,-0.5L0,-3.0L2.5,-0.5"/>
                </g>
                <g id="arrowDown" xlink:href="#dirArrow" transform="rotate(180) translate(-30 -48)" onmousedown="handlePan(0,1)">
                  <use xlink:href="#rim" fill="#404040">
                        <set attributeName="fill" to="#808080" begin="arrowDown.mouseover" end="arrowDown.mouseout"/>
                  </use>
                  <path fill="none" stroke="white" stroke-width="1.5" d="M0,-3.0v7 M-2.5,-0.5L0,-3.0L2.5,-0.5"/>
                </g>
                <g id="arrowLeft" xlink:href="#dirArrow" transform="rotate(270) translate(-36 17)" onmousedown="handlePan(-1,0)">
                  <use xlink:href="#rim" fill="#404040">
                        <set attributeName="fill" to="#808080" begin="arrowLeft.mouseover" end="arrowLeft.mouseout"/>
                  </use>
                  <path fill="none" stroke="white" stroke-width="1.5" d="M0,-3.0v7 M-2.5,-0.5L0,-3.0L2.5,-0.5"/>
                </g>
        </g>
        <svg viewBox="0 0 15 15" width="100%" height="30px" preserveAspectRatio="xMaxYMin meet">
         <g id="arrow_out" transform="scale(0.3 0.3)">
          <a xlink:href="classRa_1_1Engine_1_1LightManager__coll__graph_org.svg" target="_base">
           <rect id="button" ry="5" rx="5" y="6" x="6" height="38" width="38"
                fill="#f2f5e9" fill-opacity="0.5" stroke="#606060" stroke-width="1.0"/>
           <path id="arrow"
             d="M 11.500037,31.436501 C 11.940474,20.09759 22.043105,11.32322 32.158766,21.979434 L 37.068811,17.246167 C 37.068811,17.246167 37.088388,32 37.088388,32 L 22.160133,31.978069 C 22.160133,31.978069 26.997745,27.140456 26.997745,27.140456 C 18.528582,18.264221 13.291696,25.230495 11.500037,31.436501 z"
             style="fill:#404040;"/>
          </a>
         </g>
        </svg>
</svg>
