<?xml version="1.0" encoding="UTF-8" standalone="no"?>
<!DOCTYPE svg PUBLIC "-//W3C//DTD SVG 1.1//EN"
 "http://www.w3.org/Graphics/SVG/1.1/DTD/svg11.dtd">
<!-- Generated by graphviz version 2.40.1 (20161225.0304)
 -->
<!-- Title: src/Engine/Managers/ComponentMessenger/ComponentMessenger.hpp Pages: 1 -->
<svg width="1244pt" height="341pt"
 viewBox="0.00 0.00 1243.50 341.00" xmlns="http://www.w3.org/2000/svg" xmlns:xlink="http://www.w3.org/1999/xlink">
<g id="graph0" class="graph" transform="scale(1 1) rotate(0) translate(4 337)">
<title>src/Engine/Managers/ComponentMessenger/ComponentMessenger.hpp</title>
<polygon fill="#ffffff" stroke="transparent" points="-4,4 -4,-337 1239.5,-337 1239.5,4 -4,4"/>
<!-- Node0 -->
<g id="node1" class="node">
<title>Node0</title>
<polygon fill="#bfbfbf" stroke="#000000" points="312.5,-291.5 312.5,-332.5 461.5,-332.5 461.5,-291.5 312.5,-291.5"/>
<text text-anchor="start" x="320.5" y="-320.5" font-family="Helvetica,sans-Serif" font-size="10.00" fill="#000000">src/Engine/Managers</text>
<text text-anchor="start" x="320.5" y="-309.5" font-family="Helvetica,sans-Serif" font-size="10.00" fill="#000000">/ComponentMessenger</text>
<text text-anchor="middle" x="387" y="-298.5" font-family="Helvetica,sans-Serif" font-size="10.00" fill="#000000">/ComponentMessenger.hpp</text>
</g>
<!-- Node1 -->
<g id="node2" class="node">
<title>Node1</title>
<g id="a_node2"><a xlink:href="RaEngine_8hpp.html" target="_top" xlink:title="Engine/RaEngine.hpp">
<polygon fill="#ffffff" stroke="#000000" points="1116.5,-168.5 1116.5,-187.5 1235.5,-187.5 1235.5,-168.5 1116.5,-168.5"/>
<text text-anchor="middle" x="1176" y="-175.5" font-family="Helvetica,sans-Serif" font-size="10.00" fill="#000000">Engine/RaEngine.hpp</text>
</a>
</g>
</g>
<!-- Node0&#45;&gt;Node1 -->
<g id="edge1" class="edge">
<title>Node0&#45;&gt;Node1</title>
<path fill="none" stroke="#191970" d="M461.7385,-309.2373C568.4182,-304.1747 770.0359,-290.4477 938,-255 1012.8202,-239.2097 1097.3104,-208.7133 1142.7719,-191.211"/>
<polygon fill="#191970" stroke="#191970" points="1144.0734,-194.4603 1152.1295,-187.5792 1141.5406,-187.9346 1144.0734,-194.4603"/>
</g>
<!-- Node5 -->
<g id="node6" class="node">
<title>Node5</title>
<polygon fill="#ffffff" stroke="#bfbfbf" points="114,-.5 114,-19.5 174,-19.5 174,-.5 114,-.5"/>
<text text-anchor="middle" x="144" y="-7.5" font-family="Helvetica,sans-Serif" font-size="10.00" fill="#000000">iostream</text>
</g>
<!-- Node0&#45;&gt;Node5 -->
<g id="edge9" class="edge">
<title>Node0&#45;&gt;Node5</title>
<path fill="none" stroke="#191970" d="M312.4145,-307.1676C224.6026,-300.2027 85.3393,-284.7717 43,-255 10.9365,-232.4539 0,-217.1969 0,-178 0,-178 0,-178 0,-122 0,-68.9641 61.6147,-37.3899 104.2366,-21.8931"/>
<polygon fill="#191970" stroke="#191970" points="105.518,-25.1532 113.8129,-18.5619 103.2181,-18.5418 105.518,-25.1532"/>
</g>
<!-- Node8 -->
<g id="node9" class="node">
<title>Node8</title>
<polygon fill="#ffffff" stroke="#bfbfbf" points="79.5,-112.5 79.5,-131.5 144.5,-131.5 144.5,-112.5 79.5,-112.5"/>
<text text-anchor="middle" x="112" y="-119.5" font-family="Helvetica,sans-Serif" font-size="10.00" fill="#000000">functional</text>
</g>
<!-- Node0&#45;&gt;Node8 -->
<g id="edge8" class="edge">
<title>Node0&#45;&gt;Node8</title>
<path fill="none" stroke="#191970" d="M312.2243,-309.8784C225.1041,-305.6456 88.9724,-292.9684 57,-255 27.2634,-219.6867 69.0989,-166.0684 94.6852,-138.9617"/>
<polygon fill="#191970" stroke="#191970" points="97.2355,-141.3595 101.7027,-131.7525 92.2195,-136.4768 97.2355,-141.3595"/>
</g>
<!-- Node9 -->
<g id="node10" class="node">
<title>Node9</title>
<polygon fill="#ffffff" stroke="#bfbfbf" points="278,-230 278,-249 336,-249 336,-230 278,-230"/>
<text text-anchor="middle" x="307" y="-237" font-family="Helvetica,sans-Serif" font-size="10.00" fill="#000000">memory</text>
</g>
<!-- Node0&#45;&gt;Node9 -->
<g id="edge10" class="edge">
<title>Node0&#45;&gt;Node9</title>
<path fill="none" stroke="#191970" d="M364.2892,-291.4183C351.9481,-280.2342 336.8881,-266.5861 325.3066,-256.0904"/>
<polygon fill="#191970" stroke="#191970" points="327.3372,-253.2071 317.5769,-249.0853 322.6365,-258.394 327.3372,-253.2071"/>
</g>
<!-- Node10 -->
<g id="node11" class="node">
<title>Node10</title>
<polygon fill="#ffffff" stroke="#bfbfbf" points="354.5,-230 354.5,-249 419.5,-249 419.5,-230 354.5,-230"/>
<text text-anchor="middle" x="387" y="-237" font-family="Helvetica,sans-Serif" font-size="10.00" fill="#000000">typeindex</text>
</g>
<!-- Node0&#45;&gt;Node10 -->
<g id="edge11" class="edge">
<title>Node0&#45;&gt;Node10</title>
<path fill="none" stroke="#191970" d="M387,-291.4183C387,-281.32 387,-269.213 387,-259.2314"/>
<polygon fill="#191970" stroke="#191970" points="390.5001,-259.0853 387,-249.0853 383.5001,-259.0854 390.5001,-259.0853"/>
</g>
<!-- Node11 -->
<g id="node12" class="node">
<title>Node11</title>
<polygon fill="#ffffff" stroke="#bfbfbf" points="437.5,-230 437.5,-249 530.5,-249 530.5,-230 437.5,-230"/>
<text text-anchor="middle" x="484" y="-237" font-family="Helvetica,sans-Serif" font-size="10.00" fill="#000000">unordered_map</text>
</g>
<!-- Node0&#45;&gt;Node11 -->
<g id="edge12" class="edge">
<title>Node0&#45;&gt;Node11</title>
<path fill="none" stroke="#191970" d="M414.5368,-291.4183C429.9363,-279.9085 448.8272,-265.789 463.0193,-255.1815"/>
<polygon fill="#191970" stroke="#191970" points="465.2609,-257.8756 471.1755,-249.0853 461.0702,-252.2687 465.2609,-257.8756"/>
</g>
<!-- Node12 -->
<g id="node13" class="node">
<title>Node12</title>
<polygon fill="#ffffff" stroke="#bfbfbf" points="529.5,-168.5 529.5,-187.5 576.5,-187.5 576.5,-168.5 529.5,-168.5"/>
<text text-anchor="middle" x="553" y="-175.5" font-family="Helvetica,sans-Serif" font-size="10.00" fill="#000000">vector</text>
</g>
<!-- Node0&#45;&gt;Node12 -->
<g id="edge13" class="edge">
<title>Node0&#45;&gt;Node12</title>
<path fill="none" stroke="#191970" d="M461.54,-308.6695C542.226,-303.317 663.2639,-289.6039 692,-255 700.8021,-244.4005 700.0681,-235.1684 692,-224 690.3834,-221.7621 626.9141,-201.3669 586.3085,-188.4959"/>
<polygon fill="#191970" stroke="#191970" points="587.1192,-185.0815 576.5292,-185.4014 585.0073,-191.7553 587.1192,-185.0815"/>
</g>
<!-- Node13 -->
<g id="node14" class="node">
<title>Node13</title>
<g id="a_node14"><a xlink:href="Singleton_8hpp.html" target="_top" xlink:title="Core/Utils/Singleton.hpp">
<polygon fill="#ffffff" stroke="#000000" points="549,-230 549,-249 683,-249 683,-230 549,-230"/>
<text text-anchor="middle" x="616" y="-237" font-family="Helvetica,sans-Serif" font-size="10.00" fill="#000000">Core/Utils/Singleton.hpp</text>
</a>
</g>
</g>
<!-- Node0&#45;&gt;Node13 -->
<g id="edge14" class="edge">
<title>Node0&#45;&gt;Node13</title>
<path fill="none" stroke="#191970" d="M452.0097,-291.4183C491.9662,-278.7683 541.8795,-262.9661 576.0796,-252.1386"/>
<polygon fill="#191970" stroke="#191970" points="577.2463,-255.4405 585.7235,-249.0853 575.1335,-248.7669 577.2463,-255.4405"/>
</g>
<!-- Node15 -->
<g id="node16" class="node">
<title>Node15</title>
<g id="a_node16"><a xlink:href="Component_8hpp.html" target="_top" xlink:title="Engine/Component/Component.hpp">
<polygon fill="#ffffff" stroke="#000000" points="739.5,-230 739.5,-249 928.5,-249 928.5,-230 739.5,-230"/>
<text text-anchor="middle" x="834" y="-237" font-family="Helvetica,sans-Serif" font-size="10.00" fill="#000000">Engine/Component/Component.hpp</text>
</a>
</g>
</g>
<!-- Node0&#45;&gt;Node15 -->
<g id="edge17" class="edge">
<title>Node0&#45;&gt;Node15</title>
<path fill="none" stroke="#191970" d="M461.5661,-299.9059C546.2158,-286.1764 683.176,-263.9625 765.3097,-250.641"/>
<polygon fill="#191970" stroke="#191970" points="765.9823,-254.0778 775.2929,-249.0218 764.8616,-247.1681 765.9823,-254.0778"/>
</g>
<!-- Node24 -->
<g id="node25" class="node">
<title>Node24</title>
<g id="a_node25"><a xlink:href="ComponentMessenger_8inl.html" target="_top" xlink:title="Engine/Managers/Component\lMessenger/ComponentMessenger.inl">
<polygon fill="#ffffff" stroke="#000000" points="65.5,-224.5 65.5,-254.5 260.5,-254.5 260.5,-224.5 65.5,-224.5"/>
<text text-anchor="start" x="73.5" y="-242.5" font-family="Helvetica,sans-Serif" font-size="10.00" fill="#000000">Engine/Managers/Component</text>
<text text-anchor="middle" x="163" y="-231.5" font-family="Helvetica,sans-Serif" font-size="10.00" fill="#000000">Messenger/ComponentMessenger.inl</text>
</a>
</g>
</g>
<!-- Node0&#45;&gt;Node24 -->
<g id="edge34" class="edge">
<title>Node0&#45;&gt;Node24</title>
<path fill="none" stroke="#191970" d="M317.2547,-291.4183C283.7201,-280.8412 244.2981,-268.0603 213.6666,-257.8263"/>
<polygon fill="#191970" stroke="#191970" points="214.6427,-254.4621 204.0488,-254.5991 212.4159,-261.0985 214.6427,-254.4621"/>
</g>
<!-- Node2 -->
<g id="node3" class="node">
<title>Node2</title>
<g id="a_node3"><a xlink:href="CoreMacros_8hpp.html" target="_top" xlink:title="Core/CoreMacros.hpp">
<polygon fill="#ffffff" stroke="#000000" points="441,-56.5 441,-75.5 561,-75.5 561,-56.5 441,-56.5"/>
<text text-anchor="middle" x="501" y="-63.5" font-family="Helvetica,sans-Serif" font-size="10.00" fill="#000000">Core/CoreMacros.hpp</text>
</a>
</g>
</g>
<!-- Node1&#45;&gt;Node2 -->
<g id="edge2" class="edge">
<title>Node1&#45;&gt;Node2</title>
<path fill="none" stroke="#191970" d="M1168.911,-168.2194C1157.298,-153.0761 1132.627,-124.4096 1104,-112 1056.1995,-91.2788 720.0299,-75.0366 571.3929,-68.7845"/>
<polygon fill="#191970" stroke="#191970" points="571.159,-65.2718 561.0217,-68.3517 570.867,-72.2657 571.159,-65.2718"/>
</g>
<!-- Node3 -->
<g id="node4" class="node">
<title>Node3</title>
<polygon fill="#ffffff" stroke="#bfbfbf" points="509,-.5 509,-19.5 561,-19.5 561,-.5 509,-.5"/>
<text text-anchor="middle" x="535" y="-7.5" font-family="Helvetica,sans-Serif" font-size="10.00" fill="#000000">cassert</text>
</g>
<!-- Node2&#45;&gt;Node3 -->
<g id="edge3" class="edge">
<title>Node2&#45;&gt;Node3</title>
<path fill="none" stroke="#191970" d="M506.9223,-56.2455C511.6027,-48.5367 518.2673,-37.5598 523.9289,-28.2348"/>
<polygon fill="#191970" stroke="#191970" points="526.9475,-30.007 529.1455,-19.6427 520.9639,-26.3741 526.9475,-30.007"/>
</g>
<!-- Node4 -->
<g id="node5" class="node">
<title>Node4</title>
<polygon fill="#ffffff" stroke="#bfbfbf" points="579,-.5 579,-19.5 625,-19.5 625,-.5 579,-.5"/>
<text text-anchor="middle" x="602" y="-7.5" font-family="Helvetica,sans-Serif" font-size="10.00" fill="#000000">cstdio</text>
</g>
<!-- Node2&#45;&gt;Node4 -->
<g id="edge4" class="edge">
<title>Node2&#45;&gt;Node4</title>
<path fill="none" stroke="#191970" d="M518.5929,-56.2455C534.379,-47.4928 557.7639,-34.527 575.7587,-24.5496"/>
<polygon fill="#191970" stroke="#191970" points="577.5603,-27.5528 584.6087,-19.6427 574.1659,-21.4308 577.5603,-27.5528"/>
</g>
<!-- Node2&#45;&gt;Node5 -->
<g id="edge5" class="edge">
<title>Node2&#45;&gt;Node5</title>
<path fill="none" stroke="#191970" d="M440.8435,-56.5637C367.8079,-45.1071 246.6635,-26.1041 184.116,-16.2927"/>
<polygon fill="#191970" stroke="#191970" points="184.6548,-12.8345 174.2332,-14.7425 183.5699,-19.7499 184.6548,-12.8345"/>
</g>
<!-- Node6 -->
<g id="node7" class="node">
<title>Node6</title>
<polygon fill="#ffffff" stroke="#bfbfbf" points="369,-.5 369,-19.5 425,-19.5 425,-.5 369,-.5"/>
<text text-anchor="middle" x="397" y="-7.5" font-family="Helvetica,sans-Serif" font-size="10.00" fill="#000000">sstream</text>
</g>
<!-- Node2&#45;&gt;Node6 -->
<g id="edge6" class="edge">
<title>Node2&#45;&gt;Node6</title>
<path fill="none" stroke="#191970" d="M482.8846,-56.2455C466.555,-47.4527 442.329,-34.4079 423.7661,-24.4125"/>
<polygon fill="#191970" stroke="#191970" points="425.3719,-21.3021 414.9078,-19.6427 422.0532,-27.4654 425.3719,-21.3021"/>
</g>
<!-- Node7 -->
<g id="node8" class="node">
<title>Node7</title>
<polygon fill="#ffffff" stroke="#bfbfbf" points="443,-.5 443,-19.5 491,-19.5 491,-.5 443,-.5"/>
<text text-anchor="middle" x="467" y="-7.5" font-family="Helvetica,sans-Serif" font-size="10.00" fill="#000000">thread</text>
</g>
<!-- Node2&#45;&gt;Node7 -->
<g id="edge7" class="edge">
<title>Node2&#45;&gt;Node7</title>
<path fill="none" stroke="#191970" d="M495.0777,-56.2455C490.3973,-48.5367 483.7327,-37.5598 478.0711,-28.2348"/>
<polygon fill="#191970" stroke="#191970" points="481.0361,-26.3741 472.8545,-19.6427 475.0525,-30.007 481.0361,-26.3741"/>
</g>
<!-- Node14 -->
<g id="node15" class="node">
<title>Node14</title>
<g id="a_node15"><a xlink:href="RaCore_8hpp.html" target="_top" xlink:title="Core/RaCore.hpp">
<polygon fill="#ffffff" stroke="#000000" points="452,-112.5 452,-131.5 550,-131.5 550,-112.5 452,-112.5"/>
<text text-anchor="middle" x="501" y="-119.5" font-family="Helvetica,sans-Serif" font-size="10.00" fill="#000000">Core/RaCore.hpp</text>
</a>
</g>
</g>
<!-- Node13&#45;&gt;Node14 -->
<g id="edge15" class="edge">
<title>Node13&#45;&gt;Node14</title>
<path fill="none" stroke="#191970" d="M585.3849,-229.8981C564.4552,-221.8484 537.5995,-208.3544 521,-188 510.2527,-174.8215 505.2745,-155.9504 502.9721,-141.7599"/>
<polygon fill="#191970" stroke="#191970" points="506.4081,-141.0423 501.6402,-131.581 499.4673,-141.9506 506.4081,-141.0423"/>
</g>
<!-- Node14&#45;&gt;Node2 -->
<g id="edge16" class="edge">
<title>Node14&#45;&gt;Node2</title>
<path fill="none" stroke="#191970" d="M501,-112.2455C501,-104.9382 501,-94.6944 501,-85.7046"/>
<polygon fill="#191970" stroke="#191970" points="504.5001,-85.6426 501,-75.6427 497.5001,-85.6427 504.5001,-85.6426"/>
</g>
<!-- Node15&#45;&gt;Node1 -->
<g id="edge25" class="edge">
<title>Node15&#45;&gt;Node1</title>
<path fill="none" stroke="#191970" d="M887.0623,-229.9581C948.0589,-218.9894 1048.0907,-201.0012 1112.9915,-189.3305"/>
<polygon fill="#191970" stroke="#191970" points="1113.872,-192.7284 1123.0947,-187.5137 1112.633,-185.8389 1113.872,-192.7284"/>
</g>
<!-- Node15&#45;&gt;Node12 -->
<g id="edge26" class="edge">
<title>Node15&#45;&gt;Node12</title>
<path fill="none" stroke="#191970" d="M781.4353,-229.9993C733.1868,-220.9602 659.5639,-206.3682 586.5502,-187.967"/>
<polygon fill="#191970" stroke="#191970" points="587.2761,-184.5402 576.7218,-185.4656 585.5496,-191.324 587.2761,-184.5402"/>
</g>
<!-- Node16 -->
<g id="node17" class="node">
<title>Node16</title>
<g id="a_node17"><a xlink:href="Index_8hpp.html" target="_top" xlink:title="Core/Utils/Index.hpp">
<polygon fill="#ffffff" stroke="#000000" points="982,-168.5 982,-187.5 1098,-187.5 1098,-168.5 982,-168.5"/>
<text text-anchor="middle" x="1040" y="-175.5" font-family="Helvetica,sans-Serif" font-size="10.00" fill="#000000">Core/Utils/Index.hpp</text>
</a>
</g>
</g>
<!-- Node15&#45;&gt;Node16 -->
<g id="edge18" class="edge">
<title>Node15&#45;&gt;Node16</title>
<path fill="none" stroke="#191970" d="M866.1875,-229.8906C901.7133,-219.2846 959.0226,-202.1753 998.0441,-190.5257"/>
<polygon fill="#191970" stroke="#191970" points="999.4577,-193.7564 1008.0385,-187.5419 997.4552,-187.0489 999.4577,-193.7564"/>
</g>
<!-- Node19 -->
<g id="node20" class="node">
<title>Node19</title>
<polygon fill="#ffffff" stroke="#bfbfbf" points="807.5,-112.5 807.5,-131.5 876.5,-131.5 876.5,-112.5 807.5,-112.5"/>
<text text-anchor="middle" x="842" y="-119.5" font-family="Helvetica,sans-Serif" font-size="10.00" fill="#000000">Eigen/Core</text>
</g>
<!-- Node15&#45;&gt;Node19 -->
<g id="edge23" class="edge">
<title>Node15&#45;&gt;Node19</title>
<path fill="none" stroke="#191970" d="M874.3724,-229.9501C896.392,-222.4587 921.7881,-209.5671 935,-188 950.2115,-163.1688 917.2449,-145.0843 886.4394,-134.1907"/>
<polygon fill="#191970" stroke="#191970" points="887.171,-130.7454 876.5774,-130.907 884.9596,-137.3869 887.171,-130.7454"/>
</g>
<!-- Node20 -->
<g id="node21" class="node">
<title>Node20</title>
<polygon fill="#ffffff" stroke="#bfbfbf" points="666.5,-112.5 666.5,-131.5 761.5,-131.5 761.5,-112.5 666.5,-112.5"/>
<text text-anchor="middle" x="714" y="-119.5" font-family="Helvetica,sans-Serif" font-size="10.00" fill="#000000">Eigen/Geometry</text>
</g>
<!-- Node15&#45;&gt;Node20 -->
<g id="edge24" class="edge">
<title>Node15&#45;&gt;Node20</title>
<path fill="none" stroke="#191970" d="M800.8437,-229.9572C778.963,-222.0508 751.252,-208.7029 734,-188 723.1137,-174.9361 718.1507,-156.0525 715.8895,-141.828"/>
<polygon fill="#191970" stroke="#191970" points="719.3251,-141.099 714.5936,-131.6194 712.3808,-141.9805 719.3251,-141.099"/>
</g>
<!-- Node21 -->
<g id="node22" class="node">
<title>Node21</title>
<g id="a_node22"><a xlink:href="Types_8hpp.html" target="_top" xlink:title="Core/Types.hpp">
<polygon fill="#ffffff" stroke="#000000" points="594.5,-168.5 594.5,-187.5 685.5,-187.5 685.5,-168.5 594.5,-168.5"/>
<text text-anchor="middle" x="640" y="-175.5" font-family="Helvetica,sans-Serif" font-size="10.00" fill="#000000">Core/Types.hpp</text>
</a>
</g>
</g>
<!-- Node15&#45;&gt;Node21 -->
<g id="edge27" class="edge">
<title>Node15&#45;&gt;Node21</title>
<path fill="none" stroke="#191970" d="M803.6875,-229.8906C770.3735,-219.3298 716.7192,-202.3208 679.9819,-190.6747"/>
<polygon fill="#191970" stroke="#191970" points="680.6898,-187.2275 670.0996,-187.5419 678.5744,-193.9002 680.6898,-187.2275"/>
</g>
<!-- Node23 -->
<g id="node24" class="node">
<title>Node23</title>
<g id="a_node24"><a xlink:href="Component_8inl.html" target="_top" xlink:title="Engine/Component/Component.inl">
<polygon fill="#ffffff" stroke="#000000" points="742.5,-168.5 742.5,-187.5 925.5,-187.5 925.5,-168.5 742.5,-168.5"/>
<text text-anchor="middle" x="834" y="-175.5" font-family="Helvetica,sans-Serif" font-size="10.00" fill="#000000">Engine/Component/Component.inl</text>
</a>
</g>
</g>
<!-- Node15&#45;&gt;Node23 -->
<g id="edge32" class="edge">
<title>Node15&#45;&gt;Node23</title>
<path fill="none" stroke="#191970" d="M828.9375,-229.8906C827.2741,-221.3657 826.8404,-208.6392 827.6365,-197.9235"/>
<polygon fill="#191970" stroke="#191970" points="831.1414,-198.1023 828.9112,-187.7449 824.1956,-197.2324 831.1414,-198.1023"/>
</g>
<!-- Node16&#45;&gt;Node14 -->
<g id="edge19" class="edge">
<title>Node16&#45;&gt;Node14</title>
<path fill="none" stroke="#191970" d="M981.871,-172.455C866.1438,-161.414 613.9722,-137.3465 559.9652,-131.7989"/>
<polygon fill="#191970" stroke="#191970" points="560.3274,-128.3178 550.0078,-130.7169 559.5712,-135.2768 560.3274,-128.3178"/>
</g>
<!-- Node17 -->
<g id="node18" class="node">
<title>Node17</title>
<polygon fill="#ffffff" stroke="#bfbfbf" points="923,-112.5 923,-131.5 967,-131.5 967,-112.5 923,-112.5"/>
<text text-anchor="middle" x="945" y="-119.5" font-family="Helvetica,sans-Serif" font-size="10.00" fill="#000000">limits</text>
</g>
<!-- Node16&#45;&gt;Node17 -->
<g id="edge20" class="edge">
<title>Node16&#45;&gt;Node17</title>
<path fill="none" stroke="#191970" d="M1023.4523,-168.2455C1008.7401,-159.5731 987.0112,-146.7645 970.1495,-136.825"/>
<polygon fill="#191970" stroke="#191970" points="971.7502,-133.7057 961.3581,-131.6427 968.1954,-139.736 971.7502,-133.7057"/>
</g>
<!-- Node18 -->
<g id="node19" class="node">
<title>Node18</title>
<g id="a_node19"><a xlink:href="Index_8inl.html" target="_top" xlink:title="Core/Utils/Index.inl">
<polygon fill="#ffffff" stroke="#000000" points="985,-112.5 985,-131.5 1095,-131.5 1095,-112.5 985,-112.5"/>
<text text-anchor="middle" x="1040" y="-119.5" font-family="Helvetica,sans-Serif" font-size="10.00" fill="#000000">Core/Utils/Index.inl</text>
</a>
</g>
</g>
<!-- Node16&#45;&gt;Node18 -->
<g id="edge21" class="edge">
<title>Node16&#45;&gt;Node18</title>
<path fill="none" stroke="#191970" d="M1034.7332,-168.2455C1033.3221,-160.9382 1032.9179,-150.6944 1033.5205,-141.7046"/>
<polygon fill="#191970" stroke="#191970" points="1037.0111,-141.9945 1034.7549,-131.6427 1030.0632,-141.1421 1037.0111,-141.9945"/>
</g>
<!-- Node18&#45;&gt;Node16 -->
<g id="edge22" class="edge">
<title>Node18&#45;&gt;Node16</title>
<path fill="none" stroke="#191970" d="M1045.2451,-131.6427C1046.6665,-138.9199 1047.081,-149.155 1046.4887,-158.1575"/>
<polygon fill="#191970" stroke="#191970" points="1042.9947,-157.8972 1045.2668,-168.2455 1049.9439,-158.739 1042.9947,-157.8972"/>
</g>
<!-- Node21&#45;&gt;Node14 -->
<g id="edge28" class="edge">
<title>Node21&#45;&gt;Node14</title>
<path fill="none" stroke="#191970" d="M616.105,-168.3733C593.4918,-159.2629 559.3458,-145.5062 534.1127,-135.3404"/>
<polygon fill="#191970" stroke="#191970" points="535.1666,-131.9917 524.5831,-131.5011 532.5507,-138.4845 535.1666,-131.9917"/>
</g>
<!-- Node21&#45;&gt;Node19 -->
<g id="edge29" class="edge">
<title>Node21&#45;&gt;Node19</title>
<path fill="none" stroke="#191970" d="M674.725,-168.3733C708.7508,-158.9404 760.7437,-144.5265 797.7234,-134.2747"/>
<polygon fill="#191970" stroke="#191970" points="799.0266,-137.5455 807.7281,-131.5011 797.1565,-130.7999 799.0266,-137.5455"/>
</g>
<!-- Node21&#45;&gt;Node20 -->
<g id="edge30" class="edge">
<title>Node21&#45;&gt;Node20</title>
<path fill="none" stroke="#191970" d="M652.8898,-168.2455C663.9254,-159.8943 680.0292,-147.7076 692.9353,-137.9408"/>
<polygon fill="#191970" stroke="#191970" points="695.3959,-140.4681 701.2579,-131.6427 691.1717,-134.8862 695.3959,-140.4681"/>
</g>
<!-- Node22 -->
<g id="node23" class="node">
<title>Node22</title>
<polygon fill="#ffffff" stroke="#bfbfbf" points="568,-112.5 568,-131.5 648,-131.5 648,-112.5 568,-112.5"/>
<text text-anchor="middle" x="608" y="-119.5" font-family="Helvetica,sans-Serif" font-size="10.00" fill="#000000">Eigen/Sparse</text>
</g>
<!-- Node21&#45;&gt;Node22 -->
<g id="edge31" class="edge">
<title>Node21&#45;&gt;Node22</title>
<path fill="none" stroke="#191970" d="M634.426,-168.2455C630.0669,-160.617 623.8789,-149.7881 618.5867,-140.5267"/>
<polygon fill="#191970" stroke="#191970" points="621.5104,-138.5886 613.5101,-131.6427 615.4327,-142.0616 621.5104,-138.5886"/>
</g>
<!-- Node23&#45;&gt;Node15 -->
<g id="edge33" class="edge">
<title>Node23&#45;&gt;Node15</title>
<path fill="none" stroke="#191970" d="M839.0888,-187.7449C840.7392,-196.314 841.1598,-209.0519 840.3508,-219.7462"/>
<polygon fill="#191970" stroke="#191970" points="836.8503,-219.5293 839.0625,-229.8906 843.7945,-220.4113 836.8503,-219.5293"/>
</g>
<!-- Node24&#45;&gt;Node0 -->
<g id="edge35" class="edge">
<title>Node24&#45;&gt;Node0</title>
<path fill="none" stroke="#191970" d="M215.2533,-254.5991C246.4531,-264.3096 286.3372,-277.1343 319.8434,-288.1981"/>
<polygon fill="#191970" stroke="#191970" points="318.9715,-291.5963 329.5648,-291.4183 321.1727,-284.9513 318.9715,-291.5963"/>
</g>
<!-- Node25 -->
<g id="node26" class="node">
<title>Node25</title>
<g id="a_node26"><a xlink:href="StdUtils_8hpp.html" target="_top" xlink:title="Core/Utils/StdUtils.hpp">
<polygon fill="#ffffff" stroke="#000000" points="99.5,-168.5 99.5,-187.5 226.5,-187.5 226.5,-168.5 99.5,-168.5"/>
<text text-anchor="middle" x="163" y="-175.5" font-family="Helvetica,sans-Serif" font-size="10.00" fill="#000000">Core/Utils/StdUtils.hpp</text>
</a>
</g>
</g>
<!-- Node24&#45;&gt;Node25 -->
<g id="edge36" class="edge">
<title>Node24&#45;&gt;Node25</title>
<path fill="none" stroke="#191970" d="M163,-224.2977C163,-216.3834 163,-206.6043 163,-198.0759"/>
<polygon fill="#191970" stroke="#191970" points="166.5001,-197.8469 163,-187.8469 159.5001,-197.847 166.5001,-197.8469"/>
</g>
<!-- Node25&#45;&gt;Node8 -->
<g id="edge38" class="edge">
<title>Node25&#45;&gt;Node8</title>
<path fill="none" stroke="#191970" d="M154.1165,-168.2455C146.8034,-160.2155 136.2609,-148.6394 127.5533,-139.0781"/>
<polygon fill="#191970" stroke="#191970" points="130.1028,-136.6795 120.7817,-131.6427 124.9273,-141.3928 130.1028,-136.6795"/>
</g>
<!-- Node25&#45;&gt;Node14 -->
<g id="edge37" class="edge">
<title>Node25&#45;&gt;Node14</title>
<path fill="none" stroke="#191970" d="M220.7202,-168.4369C282.3391,-158.2278 379.4875,-142.1322 441.7041,-131.8242"/>
<polygon fill="#191970" stroke="#191970" points="442.4646,-135.246 451.758,-130.1584 441.3203,-128.3401 442.4646,-135.246"/>
</g>
</g>
</svg>
