<?xml version="1.0" encoding="UTF-8" standalone="no"?>
<!DOCTYPE svg PUBLIC "-//W3C//DTD SVG 1.1//EN"
 "http://www.w3.org/Graphics/SVG/1.1/DTD/svg11.dtd">
<!-- Generated by graphviz version 2.40.1 (20161225.0304)
 -->
<!-- Title: src/Engine/Managers/ComponentMessenger/ComponentMessenger.hpp Pages: 1 -->
<!--zoomable 128 -->
<svg id="main" version="1.1" xmlns="http://www.w3.org/2000/svg" xmlns:xlink="http://www.w3.org/1999/xlink" xml:space="preserve" onload="init(evt)">
<style type="text/css"><![CDATA[
.edge:hover path { stroke: red; }
.edge:hover polygon { stroke: red; fill: red; }
]]></style>
<script type="text/javascript"><![CDATA[
var edges = document.getElementsByTagName('g');
if (edges && edges.length) {
  for (var i=0;i<edges.length;i++) {
    if (edges[i].id.substr(0,4)=='edge') {
      edges[i].setAttribute('class','edge');
    }
  }
}
]]></script>
        <defs>
                <circle id="rim" cx="0" cy="0" r="7"/>
                <circle id="rim2" cx="0" cy="0" r="3.5"/>
                <g id="zoomPlus">
                        <use xlink:href="#rim" fill="#404040">
                                <set attributeName="fill" to="#808080" begin="zoomplus.mouseover" end="zoomplus.mouseout"/>
                        </use>
                        <path d="M-4,0h8M0,-4v8" fill="none" stroke="white" stroke-width="1.5" pointer-events="none"/>
                </g>
                <g id="zoomMin">
                        <use xlink:href="#rim" fill="#404040">
                                <set attributeName="fill" to="#808080" begin="zoomminus.mouseover" end="zoomminus.mouseout"/>
                        </use>
                        <path d="M-4,0h8" fill="none" stroke="white" stroke-width="1.5" pointer-events="none"/>
                </g>
                <g id="dirArrow">
                        <path fill="none" stroke="white" stroke-width="1.5" d="M0,-3.0v7 M-2.5,-0.5L0,-3.0L2.5,-0.5"/>
                </g>
               <g id="resetDef">
                       <use xlink:href="#rim2" fill="#404040">
                               <set attributeName="fill" to="#808080" begin="reset.mouseover" end="reset.mouseout"/>
                       </use>
               </g>
        </defs>

<script type="text/javascript">
var viewWidth = 1250;
var viewHeight = 128;
var sectionId = 'dynsection-1';
</script>
<script xlink:href="svgpan.js"/>
<svg id="graph" class="graph">
<g id="viewport">
<title>src/Engine/Managers/ComponentMessenger/ComponentMessenger.hpp</title>
<polygon fill="#ffffff" stroke="transparent" points="-4,4 -4,-124 1245.5,-124 1245.5,4 -4,4"/>
<!-- Node26 -->
<g id="node1" class="node">
<title>Node26</title>
<polygon fill="#bfbfbf" stroke="#000000" points="448,-78.5 448,-119.5 597,-119.5 597,-78.5 448,-78.5"/>
<text text-anchor="start" x="456" y="-107.5" font-family="Helvetica,sans-Serif" font-size="10.00" fill="#000000">src/Engine/Managers</text>
<text text-anchor="start" x="456" y="-96.5" font-family="Helvetica,sans-Serif" font-size="10.00" fill="#000000">/ComponentMessenger</text>
<text text-anchor="middle" x="522.5" y="-85.5" font-family="Helvetica,sans-Serif" font-size="10.00" fill="#000000">/ComponentMessenger.hpp</text>
</g>
<!-- Node27 -->
<g id="node2" class="node">
<title>Node27</title>
<g id="a_node2"><a xlink:href="GeometryComponent_8cpp.html" target="_top" xlink:title="src/Engine/Component\l/GeometryComponent.cpp">
<polygon fill="#ffffff" stroke="#000000" points="0,-6 0,-36 145,-36 145,-6 0,-6"/>
<text text-anchor="start" x="8" y="-24" font-family="Helvetica,sans-Serif" font-size="10.00" fill="#000000">src/Engine/Component</text>
<text text-anchor="middle" x="72.5" y="-13" font-family="Helvetica,sans-Serif" font-size="10.00" fill="#000000">/GeometryComponent.cpp</text>
</a>
</g>
</g>
<!-- Node26&#45;&gt;Node27 -->
<g id="edge1" class="edge">
<title>Node26&#45;&gt;Node27</title>
<path fill="none" stroke="#191970" d="M437.5558,-88.3453C362.4847,-78.3433 250.2101,-61.9534 153.5,-42 145.1056,-40.2681 136.2782,-38.219 127.6631,-36.091"/>
<polygon fill="#191970" stroke="#191970" points="437.5234,-91.8715 447.8963,-89.714 438.442,-84.932 437.5234,-91.8715"/>
</g>
<!-- Node28 -->
<g id="node3" class="node">
<title>Node28</title>
<g id="a_node3"><a xlink:href="ComponentMessenger_8inl.html" target="_top" xlink:title="src/Engine/Managers\l/ComponentMessenger\l/ComponentMessenger.inl">
<polygon fill="#ffffff" stroke="#000000" points="163,-.5 163,-41.5 306,-41.5 306,-.5 163,-.5"/>
<text text-anchor="start" x="171" y="-29.5" font-family="Helvetica,sans-Serif" font-size="10.00" fill="#000000">src/Engine/Managers</text>
<text text-anchor="start" x="171" y="-18.5" font-family="Helvetica,sans-Serif" font-size="10.00" fill="#000000">/ComponentMessenger</text>
<text text-anchor="middle" x="234.5" y="-7.5" font-family="Helvetica,sans-Serif" font-size="10.00" fill="#000000">/ComponentMessenger.inl</text>
</a>
</g>
</g>
<!-- Node26&#45;&gt;Node28 -->
<g id="edge2" class="edge">
<title>Node26&#45;&gt;Node28</title>
<path fill="none" stroke="#191970" d="M437.8808,-77.7309C395.3547,-66.4583 344.4824,-52.6747 304.2294,-41.5169"/>
<polygon fill="#191970" stroke="#191970" points="437.0951,-81.1434 447.6576,-80.3171 438.8852,-74.3761 437.0951,-81.1434"/>
</g>
<!-- Node29 -->
<g id="node4" class="node">
<title>Node29</title>
<g id="a_node4"><a xlink:href="CameraManager_8cpp.html" target="_top" xlink:title="src/Engine/Managers\l/CameraManager/CameraManager.cpp">
<polygon fill="#ffffff" stroke="#000000" points="324,-6 324,-36 527,-36 527,-6 324,-6"/>
<text text-anchor="start" x="332" y="-24" font-family="Helvetica,sans-Serif" font-size="10.00" fill="#000000">src/Engine/Managers</text>
<text text-anchor="middle" x="425.5" y="-13" font-family="Helvetica,sans-Serif" font-size="10.00" fill="#000000">/CameraManager/CameraManager.cpp</text>
</a>
</g>
</g>
<!-- Node26&#45;&gt;Node29 -->
<g id="edge4" class="edge">
<title>Node26&#45;&gt;Node29</title>
<path fill="none" stroke="#191970" d="M488.7332,-71.8473C473.8314,-59.8644 456.8791,-46.2327 444.2807,-36.102"/>
<polygon fill="#191970" stroke="#191970" points="486.7741,-74.7632 496.7604,-78.3022 491.1607,-69.3081 486.7741,-74.7632"/>
</g>
<!-- Node30 -->
<g id="node5" class="node">
<title>Node30</title>
<g id="a_node5"><a xlink:href="ComponentMessenger_8cpp.html" target="_top" xlink:title="src/Engine/Managers\l/ComponentMessenger\l/ComponentMessenger.cpp">
<polygon fill="#ffffff" stroke="#000000" points="545.5,-.5 545.5,-41.5 693.5,-41.5 693.5,-.5 545.5,-.5"/>
<text text-anchor="start" x="553.5" y="-29.5" font-family="Helvetica,sans-Serif" font-size="10.00" fill="#000000">src/Engine/Managers</text>
<text text-anchor="start" x="553.5" y="-18.5" font-family="Helvetica,sans-Serif" font-size="10.00" fill="#000000">/ComponentMessenger</text>
<text text-anchor="middle" x="619.5" y="-7.5" font-family="Helvetica,sans-Serif" font-size="10.00" fill="#000000">/ComponentMessenger.cpp</text>
</a>
</g>
</g>
<!-- Node26&#45;&gt;Node30 -->
<g id="edge5" class="edge">
<title>Node26&#45;&gt;Node30</title>
<path fill="none" stroke="#191970" d="M556.1485,-71.9424C568.5577,-61.9639 582.4025,-50.831 593.9767,-41.5239"/>
<polygon fill="#191970" stroke="#191970" points="553.8393,-69.3081 548.2396,-78.3022 558.2259,-74.7632 553.8393,-69.3081"/>
</g>
<!-- Node31 -->
<g id="node6" class="node">
<title>Node31</title>
<g id="a_node6"><a xlink:href="LightManager_8cpp.html" target="_top" xlink:title="src/Engine/Managers\l/LightManager/LightManager.cpp">
<polygon fill="#ffffff" stroke="#000000" points="711.5,-6 711.5,-36 885.5,-36 885.5,-6 711.5,-6"/>
<text text-anchor="start" x="719.5" y="-24" font-family="Helvetica,sans-Serif" font-size="10.00" fill="#000000">src/Engine/Managers</text>
<text text-anchor="middle" x="798.5" y="-13" font-family="Helvetica,sans-Serif" font-size="10.00" fill="#000000">/LightManager/LightManager.cpp</text>
</a>
</g>
</g>
<!-- Node26&#45;&gt;Node31 -->
<g id="edge6" class="edge">
<title>Node26&#45;&gt;Node31</title>
<path fill="none" stroke="#191970" d="M605.2132,-75.6245C650.6462,-62.7848 705.6578,-47.238 745.3566,-36.0188"/>
<polygon fill="#191970" stroke="#191970" points="604.048,-72.3167 595.3768,-78.4044 605.9517,-79.0528 604.048,-72.3167"/>
</g>
<!-- Node32 -->
<g id="node7" class="node">
<title>Node32</title>
<g id="a_node7"><a xlink:href="RadiumEngine_8cpp.html" target="_top" xlink:title="src/Engine/RadiumEngine.cpp">
<polygon fill="#ffffff" stroke="#000000" points="904,-11.5 904,-30.5 1065,-30.5 1065,-11.5 904,-11.5"/>
<text text-anchor="middle" x="984.5" y="-18.5" font-family="Helvetica,sans-Serif" font-size="10.00" fill="#000000">src/Engine/RadiumEngine.cpp</text>
</a>
</g>
</g>
<!-- Node26&#45;&gt;Node32 -->
<g id="edge7" class="edge">
<title>Node26&#45;&gt;Node32</title>
<path fill="none" stroke="#191970" d="M607.2022,-87.9193C682.8101,-77.5775 796.4186,-60.9279 894.5,-42 911.6719,-38.6861 930.5369,-34.3872 946.5402,-30.5427"/>
<polygon fill="#191970" stroke="#191970" points="606.6893,-84.4567 597.2529,-89.2737 607.6336,-91.3927 606.6893,-84.4567"/>
</g>
<!-- Node33 -->
<g id="node8" class="node">
<title>Node33</title>
<g id="a_node8"><a xlink:href="GeometrySystem_8cpp.html" target="_top" xlink:title="src/Engine/System/Geometry\lSystem.cpp">
<polygon fill="#ffffff" stroke="#000000" points="1083.5,-6 1083.5,-36 1241.5,-36 1241.5,-6 1083.5,-6"/>
<text text-anchor="start" x="1091.5" y="-24" font-family="Helvetica,sans-Serif" font-size="10.00" fill="#000000">src/Engine/System/Geometry</text>
<text text-anchor="middle" x="1162.5" y="-13" font-family="Helvetica,sans-Serif" font-size="10.00" fill="#000000">System.cpp</text>
</a>
</g>
</g>
<!-- Node26&#45;&gt;Node33 -->
<g id="edge8" class="edge">
<title>Node26&#45;&gt;Node33</title>
<path fill="none" stroke="#191970" d="M607.2809,-93.7185C716.0428,-86.1492 910.2636,-69.9515 1074.5,-42 1084.1002,-40.3661 1094.2119,-38.2919 1104.0242,-36.0865"/>
<polygon fill="#191970" stroke="#191970" points="606.7623,-90.2458 597.0262,-94.4241 607.243,-97.2293 606.7623,-90.2458"/>
</g>
<!-- Node28&#45;&gt;Node26 -->
<g id="edge3" class="edge">
<title>Node28&#45;&gt;Node26</title>
<path fill="none" stroke="#191970" d="M316.3262,-41.5292C359.3039,-52.9081 411.3922,-67.0149 452.4865,-78.4044"/>
<polygon fill="#191970" stroke="#191970" points="317.0207,-38.0926 306.4584,-38.9223 315.2327,-44.8604 317.0207,-38.0926"/>
</g>
</g>
</svg>
        <g id="navigator" transform="translate(0 0)" fill="#404254">
                <rect fill="#f2f5e9" fill-opacity="0.5" stroke="#606060" stroke-width=".5" x="0" y="0" width="60" height="60"/>
                <use id="zoomplus" xlink:href="#zoomPlus" x="17" y="9" onmousedown="handleZoom(evt,'in')"/>
                <use id="zoomminus" xlink:href="#zoomMin" x="42" y="9" onmousedown="handleZoom(evt,'out')"/>
                <use id="reset" xlink:href="#resetDef" x="30" y="36" onmousedown="handleReset()"/>
                <g id="arrowUp" xlink:href="#dirArrow" transform="translate(30 24)" onmousedown="handlePan(0,-1)">
                  <use xlink:href="#rim" fill="#404040">
                        <set attributeName="fill" to="#808080" begin="arrowUp.mouseover" end="arrowUp.mouseout"/>
                  </use>
                  <path fill="none" stroke="white" stroke-width="1.5" d="M0,-3.0v7 M-2.5,-0.5L0,-3.0L2.5,-0.5"/>
                </g>
                <g id="arrowRight" xlink:href="#dirArrow" transform="rotate(90) translate(36 -43)" onmousedown="handlePan(1,0)">
                  <use xlink:href="#rim" fill="#404040">
                        <set attributeName="fill" to="#808080" begin="arrowRight.mouseover" end="arrowRight.mouseout"/>
                  </use>
                  <path fill="none" stroke="white" stroke-width="1.5" d="M0,-3.0v7 M-2.5,-0.5L0,-3.0L2.5,-0.5"/>
                </g>
                <g id="arrowDown" xlink:href="#dirArrow" transform="rotate(180) translate(-30 -48)" onmousedown="handlePan(0,1)">
                  <use xlink:href="#rim" fill="#404040">
                        <set attributeName="fill" to="#808080" begin="arrowDown.mouseover" end="arrowDown.mouseout"/>
                  </use>
                  <path fill="none" stroke="white" stroke-width="1.5" d="M0,-3.0v7 M-2.5,-0.5L0,-3.0L2.5,-0.5"/>
                </g>
                <g id="arrowLeft" xlink:href="#dirArrow" transform="rotate(270) translate(-36 17)" onmousedown="handlePan(-1,0)">
                  <use xlink:href="#rim" fill="#404040">
                        <set attributeName="fill" to="#808080" begin="arrowLeft.mouseover" end="arrowLeft.mouseout"/>
                  </use>
                  <path fill="none" stroke="white" stroke-width="1.5" d="M0,-3.0v7 M-2.5,-0.5L0,-3.0L2.5,-0.5"/>
                </g>
        </g>
        <svg viewBox="0 0 15 15" width="100%" height="30px" preserveAspectRatio="xMaxYMin meet">
         <g id="arrow_out" transform="scale(0.3 0.3)">
          <a xlink:href="ComponentMessenger_8hpp__dep__incl_org.svg" target="_base">
           <rect id="button" ry="5" rx="5" y="6" x="6" height="38" width="38"
                fill="#f2f5e9" fill-opacity="0.5" stroke="#606060" stroke-width="1.0"/>
           <path id="arrow"
             d="M 11.500037,31.436501 C 11.940474,20.09759 22.043105,11.32322 32.158766,21.979434 L 37.068811,17.246167 C 37.068811,17.246167 37.088388,32 37.088388,32 L 22.160133,31.978069 C 22.160133,31.978069 26.997745,27.140456 26.997745,27.140456 C 18.528582,18.264221 13.291696,25.230495 11.500037,31.436501 z"
             style="fill:#404040;"/>
          </a>
         </g>
        </svg>
</svg>
