<?xml version="1.0" encoding="UTF-8" standalone="no"?>
<!DOCTYPE svg PUBLIC "-//W3C//DTD SVG 1.1//EN"
 "http://www.w3.org/Graphics/SVG/1.1/DTD/svg11.dtd">
<!-- Generated by graphviz version 2.40.1 (20161225.0304)
 -->
<!-- Title: src/Engine/System/CouplingSystem.hpp Pages: 1 -->
<svg width="206pt" height="151pt"
 viewBox="0.00 0.00 206.00 151.00" xmlns="http://www.w3.org/2000/svg" xmlns:xlink="http://www.w3.org/1999/xlink">
<g id="graph0" class="graph" transform="scale(1 1) rotate(0) translate(4 147)">
<title>src/Engine/System/CouplingSystem.hpp</title>
<polygon fill="#ffffff" stroke="transparent" points="-4,4 -4,-147 202,-147 202,4 -4,4"/>
<!-- Node12 -->
<g id="node1" class="node">
<title>Node12</title>
<polygon fill="#bfbfbf" stroke="#000000" points="23,-112.5 23,-142.5 175,-142.5 175,-112.5 23,-112.5"/>
<text text-anchor="start" x="31" y="-130.5" font-family="Helvetica,sans-Serif" font-size="10.00" fill="#000000">src/Engine/System/Coupling</text>
<text text-anchor="middle" x="99" y="-119.5" font-family="Helvetica,sans-Serif" font-size="10.00" fill="#000000">System.hpp</text>
</g>
<!-- Node13 -->
<g id="node2" class="node">
<title>Node13</title>
<g id="a_node2"><a xlink:href="TimedSystem_8hpp.html" target="_top" xlink:title="src/Engine/System/TimedSystem.hpp">
<polygon fill="#ffffff" stroke="#000000" points="0,-56.5 0,-75.5 198,-75.5 198,-56.5 0,-56.5"/>
<text text-anchor="middle" x="99" y="-63.5" font-family="Helvetica,sans-Serif" font-size="10.00" fill="#000000">src/Engine/System/TimedSystem.hpp</text>
</a>
</g>
</g>
<!-- Node12&#45;&gt;Node13 -->
<g id="edge1" class="edge">
<title>Node12&#45;&gt;Node13</title>
<path fill="none" stroke="#191970" d="M99,-102.2849C99,-92.9858 99,-82.9883 99,-75.8469"/>
<polygon fill="#191970" stroke="#191970" points="95.5001,-102.2977 99,-112.2977 102.5001,-102.2978 95.5001,-102.2977"/>
</g>
<!-- Node14 -->
<g id="node3" class="node">
<title>Node14</title>
<g id="a_node3"><a xlink:href="TimedSystem_8cpp.html" target="_top" xlink:title="src/Engine/System/TimedSystem.cpp">
<polygon fill="#ffffff" stroke="#000000" points=".5,-.5 .5,-19.5 197.5,-19.5 197.5,-.5 .5,-.5"/>
<text text-anchor="middle" x="99" y="-7.5" font-family="Helvetica,sans-Serif" font-size="10.00" fill="#000000">src/Engine/System/TimedSystem.cpp</text>
</a>
</g>
</g>
<!-- Node13&#45;&gt;Node14 -->
<g id="edge2" class="edge">
<title>Node13&#45;&gt;Node14</title>
<path fill="none" stroke="#191970" d="M99,-46.1575C99,-37.155 99,-26.9199 99,-19.6427"/>
<polygon fill="#191970" stroke="#191970" points="95.5001,-46.2455 99,-56.2455 102.5001,-46.2456 95.5001,-46.2455"/>
</g>
</g>
</svg>
