<?xml version="1.0" encoding="UTF-8" standalone="no"?>
<!DOCTYPE svg PUBLIC "-//W3C//DTD SVG 1.1//EN"
 "http://www.w3.org/Graphics/SVG/1.1/DTD/svg11.dtd">
<!-- Generated by graphviz version 2.40.1 (20161225.0304)
 -->
<!-- Title: src/Engine/System/CouplingSystem.hpp Pages: 1 -->
<svg width="497pt" height="263pt"
 viewBox="0.00 0.00 496.50 263.00" xmlns="http://www.w3.org/2000/svg" xmlns:xlink="http://www.w3.org/1999/xlink">
<g id="graph0" class="graph" transform="scale(1 1) rotate(0) translate(4 259)">
<title>src/Engine/System/CouplingSystem.hpp</title>
<polygon fill="#ffffff" stroke="transparent" points="-4,4 -4,-259 492.5,-259 492.5,4 -4,4"/>
<!-- Node0 -->
<g id="node1" class="node">
<title>Node0</title>
<polygon fill="#bfbfbf" stroke="#000000" points="212,-224.5 212,-254.5 364,-254.5 364,-224.5 212,-224.5"/>
<text text-anchor="start" x="220" y="-242.5" font-family="Helvetica,sans-Serif" font-size="10.00" fill="#000000">src/Engine/System/Coupling</text>
<text text-anchor="middle" x="288" y="-231.5" font-family="Helvetica,sans-Serif" font-size="10.00" fill="#000000">System.hpp</text>
</g>
<!-- Node1 -->
<g id="node2" class="node">
<title>Node1</title>
<g id="a_node2"><a xlink:href="RaEngine_8hpp.html" target="_top" xlink:title="Engine/RaEngine.hpp">
<polygon fill="#ffffff" stroke="#000000" points="104.5,-112.5 104.5,-131.5 223.5,-131.5 223.5,-112.5 104.5,-112.5"/>
<text text-anchor="middle" x="164" y="-119.5" font-family="Helvetica,sans-Serif" font-size="10.00" fill="#000000">Engine/RaEngine.hpp</text>
</a>
</g>
</g>
<!-- Node0&#45;&gt;Node1 -->
<g id="edge1" class="edge">
<title>Node0&#45;&gt;Node1</title>
<path fill="none" stroke="#191970" d="M250.4919,-224.4952C232.5873,-215.8915 211.8779,-203.6622 197,-188 184.3444,-174.6773 175.5107,-155.5641 170.1892,-141.3318"/>
<polygon fill="#191970" stroke="#191970" points="173.3878,-139.8735 166.7993,-131.5764 166.7757,-142.1712 173.3878,-139.8735"/>
</g>
<!-- Node8 -->
<g id="node9" class="node">
<title>Node8</title>
<g id="a_node9"><a xlink:href="System_8hpp.html" target="_top" xlink:title="Engine/System/System.hpp">
<polygon fill="#ffffff" stroke="#000000" points="213,-168.5 213,-187.5 363,-187.5 363,-168.5 213,-168.5"/>
<text text-anchor="middle" x="288" y="-175.5" font-family="Helvetica,sans-Serif" font-size="10.00" fill="#000000">Engine/System/System.hpp</text>
</a>
</g>
</g>
<!-- Node0&#45;&gt;Node8 -->
<g id="edge8" class="edge">
<title>Node0&#45;&gt;Node8</title>
<path fill="none" stroke="#191970" d="M288,-224.2977C288,-216.3834 288,-206.6043 288,-198.0759"/>
<polygon fill="#191970" stroke="#191970" points="291.5001,-197.8469 288,-187.8469 284.5001,-197.847 291.5001,-197.8469"/>
</g>
<!-- Node9 -->
<g id="node10" class="node">
<title>Node9</title>
<polygon fill="#ffffff" stroke="#bfbfbf" points="250,-112.5 250,-131.5 308,-131.5 308,-112.5 250,-112.5"/>
<text text-anchor="middle" x="279" y="-119.5" font-family="Helvetica,sans-Serif" font-size="10.00" fill="#000000">memory</text>
</g>
<!-- Node0&#45;&gt;Node9 -->
<g id="edge12" class="edge">
<title>Node0&#45;&gt;Node9</title>
<path fill="none" stroke="#191970" d="M246.1687,-224.3747C229.9941,-216.2357 213.1924,-204.4184 204,-188 191.6028,-165.8576 217.8735,-147.467 242.6626,-135.7722"/>
<polygon fill="#191970" stroke="#191970" points="244.2873,-138.8804 252.0071,-131.624 241.4471,-132.4825 244.2873,-138.8804"/>
</g>
<!-- Node10 -->
<g id="node11" class="node">
<title>Node10</title>
<polygon fill="#ffffff" stroke="#bfbfbf" points="346.5,-112.5 346.5,-131.5 393.5,-131.5 393.5,-112.5 346.5,-112.5"/>
<text text-anchor="middle" x="370" y="-119.5" font-family="Helvetica,sans-Serif" font-size="10.00" fill="#000000">vector</text>
</g>
<!-- Node0&#45;&gt;Node10 -->
<g id="edge14" class="edge">
<title>Node0&#45;&gt;Node10</title>
<path fill="none" stroke="#191970" d="M329.8313,-224.3747C346.0059,-216.2357 362.8076,-204.4184 372,-188 379.8658,-173.9511 378.4985,-155.4512 375.6618,-141.6132"/>
<polygon fill="#191970" stroke="#191970" points="379.0079,-140.5631 373.2201,-131.6889 372.2106,-142.2355 379.0079,-140.5631"/>
</g>
<!-- Node11 -->
<g id="node12" class="node">
<title>Node11</title>
<polygon fill="#ffffff" stroke="#bfbfbf" points="419.5,-168.5 419.5,-187.5 488.5,-187.5 488.5,-168.5 419.5,-168.5"/>
<text text-anchor="middle" x="454" y="-175.5" font-family="Helvetica,sans-Serif" font-size="10.00" fill="#000000">type_traits</text>
</g>
<!-- Node0&#45;&gt;Node11 -->
<g id="edge13" class="edge">
<title>Node0&#45;&gt;Node11</title>
<path fill="none" stroke="#191970" d="M328.6082,-224.4554C356.1842,-214.239 392.2942,-200.8609 418.6782,-191.0861"/>
<polygon fill="#191970" stroke="#191970" points="420.1147,-194.2864 428.2759,-187.5303 417.6828,-187.7224 420.1147,-194.2864"/>
</g>
<!-- Node2 -->
<g id="node3" class="node">
<title>Node2</title>
<g id="a_node3"><a xlink:href="CoreMacros_8hpp.html" target="_top" xlink:title="Core/CoreMacros.hpp">
<polygon fill="#ffffff" stroke="#000000" points="104,-56.5 104,-75.5 224,-75.5 224,-56.5 104,-56.5"/>
<text text-anchor="middle" x="164" y="-63.5" font-family="Helvetica,sans-Serif" font-size="10.00" fill="#000000">Core/CoreMacros.hpp</text>
</a>
</g>
</g>
<!-- Node1&#45;&gt;Node2 -->
<g id="edge2" class="edge">
<title>Node1&#45;&gt;Node2</title>
<path fill="none" stroke="#191970" d="M164,-112.2455C164,-104.9382 164,-94.6944 164,-85.7046"/>
<polygon fill="#191970" stroke="#191970" points="167.5001,-85.6426 164,-75.6427 160.5001,-85.6427 167.5001,-85.6426"/>
</g>
<!-- Node3 -->
<g id="node4" class="node">
<title>Node3</title>
<polygon fill="#ffffff" stroke="#bfbfbf" points="0,-.5 0,-19.5 52,-19.5 52,-.5 0,-.5"/>
<text text-anchor="middle" x="26" y="-7.5" font-family="Helvetica,sans-Serif" font-size="10.00" fill="#000000">cassert</text>
</g>
<!-- Node2&#45;&gt;Node3 -->
<g id="edge3" class="edge">
<title>Node2&#45;&gt;Node3</title>
<path fill="none" stroke="#191970" d="M140.277,-56.3733C117.8263,-47.2629 83.9261,-33.5062 58.8745,-23.3404"/>
<polygon fill="#191970" stroke="#191970" points="59.9957,-20.0182 49.4135,-19.5011 57.3635,-26.5045 59.9957,-20.0182"/>
</g>
<!-- Node4 -->
<g id="node5" class="node">
<title>Node4</title>
<polygon fill="#ffffff" stroke="#bfbfbf" points="70,-.5 70,-19.5 116,-19.5 116,-.5 70,-.5"/>
<text text-anchor="middle" x="93" y="-7.5" font-family="Helvetica,sans-Serif" font-size="10.00" fill="#000000">cstdio</text>
</g>
<!-- Node2&#45;&gt;Node4 -->
<g id="edge4" class="edge">
<title>Node2&#45;&gt;Node4</title>
<path fill="none" stroke="#191970" d="M151.6327,-56.2455C141.0446,-47.8943 125.5936,-35.7076 113.2107,-25.9408"/>
<polygon fill="#191970" stroke="#191970" points="115.2447,-23.0875 105.2255,-19.6427 110.9097,-28.5837 115.2447,-23.0875"/>
</g>
<!-- Node5 -->
<g id="node6" class="node">
<title>Node5</title>
<polygon fill="#ffffff" stroke="#bfbfbf" points="134,-.5 134,-19.5 194,-19.5 194,-.5 134,-.5"/>
<text text-anchor="middle" x="164" y="-7.5" font-family="Helvetica,sans-Serif" font-size="10.00" fill="#000000">iostream</text>
</g>
<!-- Node2&#45;&gt;Node5 -->
<g id="edge5" class="edge">
<title>Node2&#45;&gt;Node5</title>
<path fill="none" stroke="#191970" d="M164,-56.2455C164,-48.9382 164,-38.6944 164,-29.7046"/>
<polygon fill="#191970" stroke="#191970" points="167.5001,-29.6426 164,-19.6427 160.5001,-29.6427 167.5001,-29.6426"/>
</g>
<!-- Node6 -->
<g id="node7" class="node">
<title>Node6</title>
<polygon fill="#ffffff" stroke="#bfbfbf" points="212,-.5 212,-19.5 268,-19.5 268,-.5 212,-.5"/>
<text text-anchor="middle" x="240" y="-7.5" font-family="Helvetica,sans-Serif" font-size="10.00" fill="#000000">sstream</text>
</g>
<!-- Node2&#45;&gt;Node6 -->
<g id="edge6" class="edge">
<title>Node2&#45;&gt;Node6</title>
<path fill="none" stroke="#191970" d="M177.2382,-56.2455C188.681,-47.814 205.4296,-35.4729 218.7475,-25.6598"/>
<polygon fill="#191970" stroke="#191970" points="220.9391,-28.3924 226.9135,-19.6427 216.7867,-22.757 220.9391,-28.3924"/>
</g>
<!-- Node7 -->
<g id="node8" class="node">
<title>Node7</title>
<polygon fill="#ffffff" stroke="#bfbfbf" points="286,-.5 286,-19.5 334,-19.5 334,-.5 286,-.5"/>
<text text-anchor="middle" x="310" y="-7.5" font-family="Helvetica,sans-Serif" font-size="10.00" fill="#000000">thread</text>
</g>
<!-- Node2&#45;&gt;Node7 -->
<g id="edge7" class="edge">
<title>Node2&#45;&gt;Node7</title>
<path fill="none" stroke="#191970" d="M189.0983,-56.3733C213.1001,-47.1671 249.4713,-33.2165 276.0524,-23.021"/>
<polygon fill="#191970" stroke="#191970" points="277.631,-26.1642 285.7144,-19.315 275.1242,-19.6285 277.631,-26.1642"/>
</g>
<!-- Node8&#45;&gt;Node1 -->
<g id="edge9" class="edge">
<title>Node8&#45;&gt;Node1</title>
<path fill="none" stroke="#191970" d="M266.6836,-168.3733C246.7784,-159.3838 216.8564,-145.8706 194.44,-135.7471"/>
<polygon fill="#191970" stroke="#191970" points="195.5925,-132.4272 185.0382,-131.5011 192.7113,-138.8068 195.5925,-132.4272"/>
</g>
<!-- Node8&#45;&gt;Node9 -->
<g id="edge10" class="edge">
<title>Node8&#45;&gt;Node9</title>
<path fill="none" stroke="#191970" d="M286.4323,-168.2455C285.2579,-160.9382 283.6116,-150.6944 282.1668,-141.7046"/>
<polygon fill="#191970" stroke="#191970" points="285.5922,-140.9606 280.5497,-131.6427 278.6809,-142.0714 285.5922,-140.9606"/>
</g>
<!-- Node8&#45;&gt;Node10 -->
<g id="edge11" class="edge">
<title>Node8&#45;&gt;Node10</title>
<path fill="none" stroke="#191970" d="M302.2833,-168.2455C314.747,-159.7337 333.0451,-147.2375 347.4792,-137.3801"/>
<polygon fill="#191970" stroke="#191970" points="349.5962,-140.1726 355.8804,-131.6427 345.6485,-134.392 349.5962,-140.1726"/>
</g>
</g>
</svg>
