<?xml version="1.0" encoding="UTF-8" standalone="no"?>
<!DOCTYPE svg PUBLIC "-//W3C//DTD SVG 1.1//EN"
 "http://www.w3.org/Graphics/SVG/1.1/DTD/svg11.dtd">
<!-- Generated by graphviz version 2.40.1 (20161225.0304)
 -->
<!-- Title: src/Engine/Renderer/Renderers/DebugRender.hpp Pages: 1 -->
<!--zoomable 330 -->
<svg id="main" version="1.1" xmlns="http://www.w3.org/2000/svg" xmlns:xlink="http://www.w3.org/1999/xlink" xml:space="preserve" onload="init(evt)">
<style type="text/css"><![CDATA[
.edge:hover path { stroke: red; }
.edge:hover polygon { stroke: red; fill: red; }
]]></style>
<script type="text/javascript"><![CDATA[
var edges = document.getElementsByTagName('g');
if (edges && edges.length) {
  for (var i=0;i<edges.length;i++) {
    if (edges[i].id.substr(0,4)=='edge') {
      edges[i].setAttribute('class','edge');
    }
  }
}
]]></script>
        <defs>
                <circle id="rim" cx="0" cy="0" r="7"/>
                <circle id="rim2" cx="0" cy="0" r="3.5"/>
                <g id="zoomPlus">
                        <use xlink:href="#rim" fill="#404040">
                                <set attributeName="fill" to="#808080" begin="zoomplus.mouseover" end="zoomplus.mouseout"/>
                        </use>
                        <path d="M-4,0h8M0,-4v8" fill="none" stroke="white" stroke-width="1.5" pointer-events="none"/>
                </g>
                <g id="zoomMin">
                        <use xlink:href="#rim" fill="#404040">
                                <set attributeName="fill" to="#808080" begin="zoomminus.mouseover" end="zoomminus.mouseout"/>
                        </use>
                        <path d="M-4,0h8" fill="none" stroke="white" stroke-width="1.5" pointer-events="none"/>
                </g>
                <g id="dirArrow">
                        <path fill="none" stroke="white" stroke-width="1.5" d="M0,-3.0v7 M-2.5,-0.5L0,-3.0L2.5,-0.5"/>
                </g>
               <g id="resetDef">
                       <use xlink:href="#rim2" fill="#404040">
                               <set attributeName="fill" to="#808080" begin="reset.mouseover" end="reset.mouseout"/>
                       </use>
               </g>
        </defs>

<script type="text/javascript">
var viewWidth = 1144;
var viewHeight = 330;
var sectionId = 'dynsection-0';
</script>
<script xlink:href="svgpan.js"/>
<svg id="graph" class="graph">
<g id="viewport">
<title>src/Engine/Renderer/Renderers/DebugRender.hpp</title>
<polygon fill="#ffffff" stroke="transparent" points="-4,4 -4,-326 1139.5,-326 1139.5,4 -4,4"/>
<!-- Node0 -->
<g id="node1" class="node">
<title>Node0</title>
<polygon fill="#bfbfbf" stroke="#000000" points="260,-291.5 260,-321.5 417,-321.5 417,-291.5 260,-291.5"/>
<text text-anchor="start" x="268" y="-309.5" font-family="Helvetica,sans-Serif" font-size="10.00" fill="#000000">src/Engine/Renderer</text>
<text text-anchor="middle" x="338.5" y="-298.5" font-family="Helvetica,sans-Serif" font-size="10.00" fill="#000000">/Renderers/DebugRender.hpp</text>
</g>
<!-- Node1 -->
<g id="node2" class="node">
<title>Node1</title>
<g id="a_node2"><a xlink:href="RaEngine_8hpp.html" target="_top" xlink:title="Engine/RaEngine.hpp">
<polygon fill="#ffffff" stroke="#000000" points="0,-235.5 0,-254.5 119,-254.5 119,-235.5 0,-235.5"/>
<text text-anchor="middle" x="59.5" y="-242.5" font-family="Helvetica,sans-Serif" font-size="10.00" fill="#000000">Engine/RaEngine.hpp</text>
</a>
</g>
</g>
<!-- Node0&#45;&gt;Node1 -->
<g id="edge1" class="edge">
<title>Node0&#45;&gt;Node1</title>
<path fill="none" stroke="#191970" d="M270.2489,-291.4554C221.6553,-280.7439 157.2947,-266.5569 112.5382,-256.6912"/>
<polygon fill="#191970" stroke="#191970" points="113.2541,-253.2651 102.7351,-254.5303 111.7472,-260.101 113.2541,-253.2651"/>
</g>
<!-- Node8 -->
<g id="node9" class="node">
<title>Node8</title>
<polygon fill="#ffffff" stroke="#bfbfbf" points="137.5,-235.5 137.5,-254.5 195.5,-254.5 195.5,-235.5 137.5,-235.5"/>
<text text-anchor="middle" x="166.5" y="-242.5" font-family="Helvetica,sans-Serif" font-size="10.00" fill="#000000">memory</text>
</g>
<!-- Node0&#45;&gt;Node8 -->
<g id="edge8" class="edge">
<title>Node0&#45;&gt;Node8</title>
<path fill="none" stroke="#191970" d="M296.4241,-291.4554C267.7254,-281.194 230.1063,-267.7429 202.7377,-257.9571"/>
<polygon fill="#191970" stroke="#191970" points="203.7485,-254.6015 193.1539,-254.5303 201.3917,-261.1929 203.7485,-254.6015"/>
</g>
<!-- Node9 -->
<g id="node10" class="node">
<title>Node9</title>
<polygon fill="#ffffff" stroke="#bfbfbf" points="208,-112.5 208,-131.5 255,-131.5 255,-112.5 208,-112.5"/>
<text text-anchor="middle" x="231.5" y="-119.5" font-family="Helvetica,sans-Serif" font-size="10.00" fill="#000000">vector</text>
</g>
<!-- Node0&#45;&gt;Node9 -->
<g id="edge9" class="edge">
<title>Node0&#45;&gt;Node9</title>
<path fill="none" stroke="#191970" d="M289.5711,-291.4436C271.8434,-283.4755 253.4947,-271.7645 242.5,-255 219.8298,-220.4329 223.4163,-169.4461 227.6722,-141.7173"/>
<polygon fill="#191970" stroke="#191970" points="231.152,-142.1336 229.4025,-131.6843 224.2538,-140.9439 231.152,-142.1336"/>
</g>
<!-- Node10 -->
<g id="node11" class="node">
<title>Node10</title>
<g id="a_node11"><a xlink:href="VectorArray_8hpp.html" target="_top" xlink:title="Core/Containers/VectorArray.hpp">
<polygon fill="#ffffff" stroke="#000000" points="251.5,-235.5 251.5,-254.5 425.5,-254.5 425.5,-235.5 251.5,-235.5"/>
<text text-anchor="middle" x="338.5" y="-242.5" font-family="Helvetica,sans-Serif" font-size="10.00" fill="#000000">Core/Containers/VectorArray.hpp</text>
</a>
</g>
</g>
<!-- Node0&#45;&gt;Node10 -->
<g id="edge10" class="edge">
<title>Node0&#45;&gt;Node10</title>
<path fill="none" stroke="#191970" d="M338.5,-291.2977C338.5,-283.3834 338.5,-273.6043 338.5,-265.0759"/>
<polygon fill="#191970" stroke="#191970" points="342.0001,-264.8469 338.5,-254.8469 335.0001,-264.847 342.0001,-264.8469"/>
</g>
<!-- Node14 -->
<g id="node15" class="node">
<title>Node14</title>
<g id="a_node15"><a xlink:href="Types_8hpp.html" target="_top" xlink:title="Core/Types.hpp">
<polygon fill="#ffffff" stroke="#000000" points="596,-235.5 596,-254.5 687,-254.5 687,-235.5 596,-235.5"/>
<text text-anchor="middle" x="641.5" y="-242.5" font-family="Helvetica,sans-Serif" font-size="10.00" fill="#000000">Core/Types.hpp</text>
</a>
</g>
</g>
<!-- Node0&#45;&gt;Node14 -->
<g id="edge17" class="edge">
<title>Node0&#45;&gt;Node14</title>
<path fill="none" stroke="#191970" d="M412.6221,-291.4554C466.1083,-280.5993 537.1832,-266.1732 585.8562,-256.294"/>
<polygon fill="#191970" stroke="#191970" points="586.7841,-259.6772 595.888,-254.2579 585.3916,-252.817 586.7841,-259.6772"/>
</g>
<!-- Node18 -->
<g id="node19" class="node">
<title>Node18</title>
<g id="a_node19"><a xlink:href="Color_8hpp.html" target="_top" xlink:title="Core/Utils/Color.hpp">
<polygon fill="#ffffff" stroke="#000000" points="748,-235.5 748,-254.5 861,-254.5 861,-235.5 748,-235.5"/>
<text text-anchor="middle" x="804.5" y="-242.5" font-family="Helvetica,sans-Serif" font-size="10.00" fill="#000000">Core/Utils/Color.hpp</text>
</a>
</g>
</g>
<!-- Node0&#45;&gt;Node18 -->
<g id="edge22" class="edge">
<title>Node0&#45;&gt;Node18</title>
<path fill="none" stroke="#191970" d="M417.0236,-296.1369C507.0047,-284.2617 652.9279,-265.0036 737.6814,-253.8183"/>
<polygon fill="#191970" stroke="#191970" points="738.25,-257.2737 747.7061,-252.4953 737.3341,-250.3339 738.25,-257.2737"/>
</g>
<!-- Node24 -->
<g id="node25" class="node">
<title>Node24</title>
<g id="a_node25"><a xlink:href="Singleton_8hpp.html" target="_top" xlink:title="Core/Utils/Singleton.hpp">
<polygon fill="#ffffff" stroke="#000000" points="443.5,-235.5 443.5,-254.5 577.5,-254.5 577.5,-235.5 443.5,-235.5"/>
<text text-anchor="middle" x="510.5" y="-242.5" font-family="Helvetica,sans-Serif" font-size="10.00" fill="#000000">Core/Utils/Singleton.hpp</text>
</a>
</g>
</g>
<!-- Node0&#45;&gt;Node24 -->
<g id="edge33" class="edge">
<title>Node0&#45;&gt;Node24</title>
<path fill="none" stroke="#191970" d="M380.5759,-291.4554C409.2746,-281.194 446.8937,-267.7429 474.2623,-257.9571"/>
<polygon fill="#191970" stroke="#191970" points="475.6083,-261.1929 483.8461,-254.5303 473.2515,-254.6015 475.6083,-261.1929"/>
</g>
<!-- Node2 -->
<g id="node3" class="node">
<title>Node2</title>
<g id="a_node3"><a xlink:href="CoreMacros_8hpp.html" target="_top" xlink:title="Core/CoreMacros.hpp">
<polygon fill="#ffffff" stroke="#000000" points="407.5,-56.5 407.5,-75.5 527.5,-75.5 527.5,-56.5 407.5,-56.5"/>
<text text-anchor="middle" x="467.5" y="-63.5" font-family="Helvetica,sans-Serif" font-size="10.00" fill="#000000">Core/CoreMacros.hpp</text>
</a>
</g>
</g>
<!-- Node1&#45;&gt;Node2 -->
<g id="edge2" class="edge">
<title>Node1&#45;&gt;Node2</title>
<path fill="none" stroke="#191970" d="M66.303,-235.3015C84.4885,-210.2047 137.0447,-142.9359 198.5,-112 232.4135,-94.9283 329.2992,-81.2026 397.0153,-73.3246"/>
<polygon fill="#191970" stroke="#191970" points="397.664,-76.7733 407.2007,-72.1579 396.8674,-69.8187 397.664,-76.7733"/>
</g>
<!-- Node3 -->
<g id="node4" class="node">
<title>Node3</title>
<polygon fill="#ffffff" stroke="#bfbfbf" points="303.5,-.5 303.5,-19.5 355.5,-19.5 355.5,-.5 303.5,-.5"/>
<text text-anchor="middle" x="329.5" y="-7.5" font-family="Helvetica,sans-Serif" font-size="10.00" fill="#000000">cassert</text>
</g>
<!-- Node2&#45;&gt;Node3 -->
<g id="edge3" class="edge">
<title>Node2&#45;&gt;Node3</title>
<path fill="none" stroke="#191970" d="M443.777,-56.3733C421.3263,-47.2629 387.4261,-33.5062 362.3745,-23.3404"/>
<polygon fill="#191970" stroke="#191970" points="363.4957,-20.0182 352.9135,-19.5011 360.8635,-26.5045 363.4957,-20.0182"/>
</g>
<!-- Node4 -->
<g id="node5" class="node">
<title>Node4</title>
<polygon fill="#ffffff" stroke="#bfbfbf" points="373.5,-.5 373.5,-19.5 419.5,-19.5 419.5,-.5 373.5,-.5"/>
<text text-anchor="middle" x="396.5" y="-7.5" font-family="Helvetica,sans-Serif" font-size="10.00" fill="#000000">cstdio</text>
</g>
<!-- Node2&#45;&gt;Node4 -->
<g id="edge4" class="edge">
<title>Node2&#45;&gt;Node4</title>
<path fill="none" stroke="#191970" d="M455.1327,-56.2455C444.5446,-47.8943 429.0936,-35.7076 416.7107,-25.9408"/>
<polygon fill="#191970" stroke="#191970" points="418.7447,-23.0875 408.7255,-19.6427 414.4097,-28.5837 418.7447,-23.0875"/>
</g>
<!-- Node5 -->
<g id="node6" class="node">
<title>Node5</title>
<polygon fill="#ffffff" stroke="#bfbfbf" points="437.5,-.5 437.5,-19.5 497.5,-19.5 497.5,-.5 437.5,-.5"/>
<text text-anchor="middle" x="467.5" y="-7.5" font-family="Helvetica,sans-Serif" font-size="10.00" fill="#000000">iostream</text>
</g>
<!-- Node2&#45;&gt;Node5 -->
<g id="edge5" class="edge">
<title>Node2&#45;&gt;Node5</title>
<path fill="none" stroke="#191970" d="M467.5,-56.2455C467.5,-48.9382 467.5,-38.6944 467.5,-29.7046"/>
<polygon fill="#191970" stroke="#191970" points="471.0001,-29.6426 467.5,-19.6427 464.0001,-29.6427 471.0001,-29.6426"/>
</g>
<!-- Node6 -->
<g id="node7" class="node">
<title>Node6</title>
<polygon fill="#ffffff" stroke="#bfbfbf" points="515.5,-.5 515.5,-19.5 571.5,-19.5 571.5,-.5 515.5,-.5"/>
<text text-anchor="middle" x="543.5" y="-7.5" font-family="Helvetica,sans-Serif" font-size="10.00" fill="#000000">sstream</text>
</g>
<!-- Node2&#45;&gt;Node6 -->
<g id="edge6" class="edge">
<title>Node2&#45;&gt;Node6</title>
<path fill="none" stroke="#191970" d="M480.7382,-56.2455C492.181,-47.814 508.9296,-35.4729 522.2475,-25.6598"/>
<polygon fill="#191970" stroke="#191970" points="524.4391,-28.3924 530.4135,-19.6427 520.2867,-22.757 524.4391,-28.3924"/>
</g>
<!-- Node7 -->
<g id="node8" class="node">
<title>Node7</title>
<polygon fill="#ffffff" stroke="#bfbfbf" points="589.5,-.5 589.5,-19.5 637.5,-19.5 637.5,-.5 589.5,-.5"/>
<text text-anchor="middle" x="613.5" y="-7.5" font-family="Helvetica,sans-Serif" font-size="10.00" fill="#000000">thread</text>
</g>
<!-- Node2&#45;&gt;Node7 -->
<g id="edge7" class="edge">
<title>Node2&#45;&gt;Node7</title>
<path fill="none" stroke="#191970" d="M492.5983,-56.3733C516.6001,-47.1671 552.9713,-33.2165 579.5524,-23.021"/>
<polygon fill="#191970" stroke="#191970" points="581.131,-26.1642 589.2144,-19.315 578.6242,-19.6285 581.131,-26.1642"/>
</g>
<!-- Node11 -->
<g id="node12" class="node">
<title>Node11</title>
<g id="a_node12"><a xlink:href="AlignedStdVector_8hpp.html" target="_top" xlink:title="Core/Containers/AlignedStd\lVector.hpp">
<polygon fill="#ffffff" stroke="#000000" points="251.5,-168.5 251.5,-198.5 401.5,-198.5 401.5,-168.5 251.5,-168.5"/>
<text text-anchor="start" x="259.5" y="-186.5" font-family="Helvetica,sans-Serif" font-size="10.00" fill="#000000">Core/Containers/AlignedStd</text>
<text text-anchor="middle" x="326.5" y="-175.5" font-family="Helvetica,sans-Serif" font-size="10.00" fill="#000000">Vector.hpp</text>
</a>
</g>
</g>
<!-- Node10&#45;&gt;Node11 -->
<g id="edge11" class="edge">
<title>Node10&#45;&gt;Node11</title>
<path fill="none" stroke="#191970" d="M336.625,-235.3906C335.2115,-228.1463 333.2059,-217.8679 331.3522,-208.3676"/>
<polygon fill="#191970" stroke="#191970" points="334.7859,-207.6892 329.4355,-198.5446 327.9155,-209.0298 334.7859,-207.6892"/>
</g>
<!-- Node12 -->
<g id="node13" class="node">
<title>Node12</title>
<g id="a_node13"><a xlink:href="RaCore_8hpp.html" target="_top" xlink:title="Core/RaCore.hpp">
<polygon fill="#ffffff" stroke="#000000" points="418.5,-112.5 418.5,-131.5 516.5,-131.5 516.5,-112.5 418.5,-112.5"/>
<text text-anchor="middle" x="467.5" y="-119.5" font-family="Helvetica,sans-Serif" font-size="10.00" fill="#000000">Core/RaCore.hpp</text>
</a>
</g>
</g>
<!-- Node10&#45;&gt;Node12 -->
<g id="edge16" class="edge">
<title>Node10&#45;&gt;Node12</title>
<path fill="none" stroke="#191970" d="M357.5629,-235.3456C372.8955,-227.0147 394.4526,-213.981 410.5,-199 429.2003,-181.5425 446.006,-157.2662 456.443,-140.6671"/>
<polygon fill="#191970" stroke="#191970" points="459.5801,-142.2463 461.8184,-131.8906 453.6108,-138.5902 459.5801,-142.2463"/>
</g>
<!-- Node11&#45;&gt;Node9 -->
<g id="edge15" class="edge">
<title>Node11&#45;&gt;Node9</title>
<path fill="none" stroke="#191970" d="M303.0168,-168.2977C288.3652,-158.8127 269.5764,-146.6495 254.9341,-137.1705"/>
<polygon fill="#191970" stroke="#191970" points="256.7236,-134.1596 246.427,-131.6633 252.9195,-140.0357 256.7236,-134.1596"/>
</g>
<!-- Node11&#45;&gt;Node12 -->
<g id="edge12" class="edge">
<title>Node11&#45;&gt;Node12</title>
<path fill="none" stroke="#191970" d="M360.9925,-168.4554C384.0028,-158.419 414.0086,-145.3314 436.3055,-135.6061"/>
<polygon fill="#191970" stroke="#191970" points="437.8833,-138.7364 445.65,-131.5303 435.0846,-132.3202 437.8833,-138.7364"/>
</g>
<!-- Node13 -->
<g id="node14" class="node">
<title>Node13</title>
<polygon fill="#ffffff" stroke="#bfbfbf" points="280,-112.5 280,-131.5 373,-131.5 373,-112.5 280,-112.5"/>
<text text-anchor="middle" x="326.5" y="-119.5" font-family="Helvetica,sans-Serif" font-size="10.00" fill="#000000">Eigen/StdVector</text>
</g>
<!-- Node11&#45;&gt;Node13 -->
<g id="edge14" class="edge">
<title>Node11&#45;&gt;Node13</title>
<path fill="none" stroke="#191970" d="M326.5,-168.2977C326.5,-160.3834 326.5,-150.6043 326.5,-142.0759"/>
<polygon fill="#191970" stroke="#191970" points="330.0001,-141.8469 326.5,-131.8469 323.0001,-141.847 330.0001,-141.8469"/>
</g>
<!-- Node12&#45;&gt;Node2 -->
<g id="edge13" class="edge">
<title>Node12&#45;&gt;Node2</title>
<path fill="none" stroke="#191970" d="M467.5,-112.2455C467.5,-104.9382 467.5,-94.6944 467.5,-85.7046"/>
<polygon fill="#191970" stroke="#191970" points="471.0001,-85.6426 467.5,-75.6427 464.0001,-85.6427 471.0001,-85.6426"/>
</g>
<!-- Node14&#45;&gt;Node12 -->
<g id="edge18" class="edge">
<title>Node14&#45;&gt;Node12</title>
<path fill="none" stroke="#191970" d="M636.689,-235.3582C628.2201,-219.287 609.1831,-186.9235 584.5,-168 564.5077,-152.6727 538.7598,-141.8157 516.5101,-134.5137"/>
<polygon fill="#191970" stroke="#191970" points="517.4812,-131.1503 506.8923,-131.5026 515.3897,-137.8306 517.4812,-131.1503"/>
</g>
<!-- Node15 -->
<g id="node16" class="node">
<title>Node15</title>
<polygon fill="#ffffff" stroke="#bfbfbf" points="632,-174 632,-193 701,-193 701,-174 632,-174"/>
<text text-anchor="middle" x="666.5" y="-181" font-family="Helvetica,sans-Serif" font-size="10.00" fill="#000000">Eigen/Core</text>
</g>
<!-- Node14&#45;&gt;Node15 -->
<g id="edge19" class="edge">
<title>Node14&#45;&gt;Node15</title>
<path fill="none" stroke="#191970" d="M645.4063,-235.3906C648.9446,-226.6862 654.2636,-213.6015 658.675,-202.7494"/>
<polygon fill="#191970" stroke="#191970" points="662.0152,-203.8268 662.5387,-193.2449 655.5305,-201.1907 662.0152,-203.8268"/>
</g>
<!-- Node16 -->
<g id="node17" class="node">
<title>Node16</title>
<polygon fill="#ffffff" stroke="#bfbfbf" points="719,-174 719,-193 814,-193 814,-174 719,-174"/>
<text text-anchor="middle" x="766.5" y="-181" font-family="Helvetica,sans-Serif" font-size="10.00" fill="#000000">Eigen/Geometry</text>
</g>
<!-- Node14&#45;&gt;Node16 -->
<g id="edge20" class="edge">
<title>Node14&#45;&gt;Node16</title>
<path fill="none" stroke="#191970" d="M661.0313,-235.3906C681.6708,-225.2359 714.4276,-209.1196 737.9602,-197.5416"/>
<polygon fill="#191970" stroke="#191970" points="739.6782,-200.5971 747.1059,-193.0419 736.588,-194.3161 739.6782,-200.5971"/>
</g>
<!-- Node17 -->
<g id="node18" class="node">
<title>Node17</title>
<polygon fill="#ffffff" stroke="#bfbfbf" points="495.5,-174 495.5,-193 575.5,-193 575.5,-174 495.5,-174"/>
<text text-anchor="middle" x="535.5" y="-181" font-family="Helvetica,sans-Serif" font-size="10.00" fill="#000000">Eigen/Sparse</text>
</g>
<!-- Node14&#45;&gt;Node17 -->
<g id="edge21" class="edge">
<title>Node14&#45;&gt;Node17</title>
<path fill="none" stroke="#191970" d="M624.9375,-235.3906C607.7463,-225.4165 580.6418,-209.6908 560.7734,-198.1633"/>
<polygon fill="#191970" stroke="#191970" points="562.3523,-195.033 551.9462,-193.0419 558.8394,-201.0877 562.3523,-195.033"/>
</g>
<!-- Node18&#45;&gt;Node2 -->
<g id="edge23" class="edge">
<title>Node18&#45;&gt;Node2</title>
<path fill="none" stroke="#191970" d="M811.4425,-235.4644C821.9,-219.8323 838.9149,-188.4517 823.5,-168 789.1499,-122.4259 631.2358,-91.0079 537.656,-76.0293"/>
<polygon fill="#191970" stroke="#191970" points="538.1152,-72.5586 527.6919,-74.4576 537.0244,-79.4731 538.1152,-72.5586"/>
</g>
<!-- Node18&#45;&gt;Node15 -->
<g id="edge30" class="edge">
<title>Node18&#45;&gt;Node15</title>
<path fill="none" stroke="#191970" d="M782.9375,-235.3906C759.9488,-225.1457 723.344,-208.8326 697.3176,-197.2339"/>
<polygon fill="#191970" stroke="#191970" points="698.4698,-193.9156 687.9111,-193.0419 695.6204,-200.3095 698.4698,-193.9156"/>
</g>
<!-- Node18&#45;&gt;Node16 -->
<g id="edge31" class="edge">
<title>Node18&#45;&gt;Node16</title>
<path fill="none" stroke="#191970" d="M798.5625,-235.3906C793.0733,-226.5068 784.7647,-213.0601 777.981,-202.0811"/>
<polygon fill="#191970" stroke="#191970" points="780.7551,-199.9122 772.5212,-193.2449 774.8002,-203.5917 780.7551,-199.9122"/>
</g>
<!-- Node19 -->
<g id="node20" class="node">
<title>Node19</title>
<g id="a_node20"><a xlink:href="Math_8hpp.html" target="_top" xlink:title="Core/Math/Math.hpp">
<polygon fill="#ffffff" stroke="#000000" points="942.5,-174 942.5,-193 1056.5,-193 1056.5,-174 942.5,-174"/>
<text text-anchor="middle" x="999.5" y="-181" font-family="Helvetica,sans-Serif" font-size="10.00" fill="#000000">Core/Math/Math.hpp</text>
</a>
</g>
</g>
<!-- Node18&#45;&gt;Node19 -->
<g id="edge24" class="edge">
<title>Node18&#45;&gt;Node19</title>
<path fill="none" stroke="#191970" d="M834.9688,-235.3906C868.4544,-224.8298 922.3853,-207.8208 959.312,-196.1747"/>
<polygon fill="#191970" stroke="#191970" points="960.761,-199.3877 969.2452,-193.0419 958.6555,-192.7118 960.761,-199.3877"/>
</g>
<!-- Node23 -->
<g id="node24" class="node">
<title>Node23</title>
<polygon fill="#ffffff" stroke="#bfbfbf" points="870.5,-174 870.5,-193 924.5,-193 924.5,-174 870.5,-174"/>
<text text-anchor="middle" x="897.5" y="-181" font-family="Helvetica,sans-Serif" font-size="10.00" fill="#000000">random</text>
</g>
<!-- Node18&#45;&gt;Node23 -->
<g id="edge32" class="edge">
<title>Node18&#45;&gt;Node23</title>
<path fill="none" stroke="#191970" d="M819.0313,-235.3906C833.9094,-225.5519 857.2504,-210.1167 874.6128,-198.6351"/>
<polygon fill="#191970" stroke="#191970" points="876.6602,-201.4773 883.0708,-193.0419 872.799,-195.6385 876.6602,-201.4773"/>
</g>
<!-- Node19&#45;&gt;Node12 -->
<g id="edge25" class="edge">
<title>Node19&#45;&gt;Node12</title>
<path fill="none" stroke="#191970" d="M962.6723,-173.943C953.2144,-171.7392 943.0211,-169.5808 933.5,-168 788.4699,-143.9204 615.8018,-130.9063 526.9143,-125.3402"/>
<polygon fill="#191970" stroke="#191970" points="526.9535,-121.8361 516.757,-124.7138 526.5226,-128.8228 526.9535,-121.8361"/>
</g>
<!-- Node20 -->
<g id="node21" class="node">
<title>Node20</title>
<polygon fill="#ffffff" stroke="#bfbfbf" points="1071.5,-112.5 1071.5,-131.5 1135.5,-131.5 1135.5,-112.5 1071.5,-112.5"/>
<text text-anchor="middle" x="1103.5" y="-119.5" font-family="Helvetica,sans-Serif" font-size="10.00" fill="#000000">algorithm</text>
</g>
<!-- Node19&#45;&gt;Node20 -->
<g id="edge26" class="edge">
<title>Node19&#45;&gt;Node20</title>
<path fill="none" stroke="#191970" d="M1015.75,-173.8906C1032.6169,-163.9165 1059.2099,-148.1908 1078.7035,-136.6633"/>
<polygon fill="#191970" stroke="#191970" points="1080.538,-139.6447 1087.3641,-131.5419 1076.9749,-133.6194 1080.538,-139.6447"/>
</g>
<!-- Node21 -->
<g id="node22" class="node">
<title>Node21</title>
<polygon fill="#ffffff" stroke="#bfbfbf" points="880,-112.5 880,-131.5 927,-131.5 927,-112.5 880,-112.5"/>
<text text-anchor="middle" x="903.5" y="-119.5" font-family="Helvetica,sans-Serif" font-size="10.00" fill="#000000">cmath</text>
</g>
<!-- Node19&#45;&gt;Node21 -->
<g id="edge27" class="edge">
<title>Node19&#45;&gt;Node21</title>
<path fill="none" stroke="#191970" d="M984.5,-173.8906C969.1419,-164.0519 945.0479,-148.6167 927.1255,-137.1351"/>
<polygon fill="#191970" stroke="#191970" points="928.703,-133.9891 918.3947,-131.5419 924.927,-139.8833 928.703,-133.9891"/>
</g>
<!-- Node22 -->
<g id="node23" class="node">
<title>Node22</title>
<g id="a_node23"><a xlink:href="Math_8inl.html" target="_top" xlink:title="Core/Math/Math.inl">
<polygon fill="#ffffff" stroke="#000000" points="945.5,-112.5 945.5,-131.5 1053.5,-131.5 1053.5,-112.5 945.5,-112.5"/>
<text text-anchor="middle" x="999.5" y="-119.5" font-family="Helvetica,sans-Serif" font-size="10.00" fill="#000000">Core/Math/Math.inl</text>
</a>
</g>
</g>
<!-- Node19&#45;&gt;Node22 -->
<g id="edge28" class="edge">
<title>Node19&#45;&gt;Node22</title>
<path fill="none" stroke="#191970" d="M994.4375,-173.8906C992.7741,-165.3657 992.3404,-152.6392 993.1365,-141.9235"/>
<polygon fill="#191970" stroke="#191970" points="996.6414,-142.1023 994.4112,-131.7449 989.6956,-141.2324 996.6414,-142.1023"/>
</g>
<!-- Node22&#45;&gt;Node19 -->
<g id="edge29" class="edge">
<title>Node22&#45;&gt;Node19</title>
<path fill="none" stroke="#191970" d="M1004.5888,-131.7449C1006.2392,-140.314 1006.6598,-153.0519 1005.8508,-163.7462"/>
<polygon fill="#191970" stroke="#191970" points="1002.3503,-163.5293 1004.5625,-173.8906 1009.2945,-164.4113 1002.3503,-163.5293"/>
</g>
<!-- Node24&#45;&gt;Node12 -->
<g id="edge34" class="edge">
<title>Node24&#45;&gt;Node12</title>
<path fill="none" stroke="#191970" d="M504.6492,-235.4435C499.2939,-226.3505 491.4686,-212.1443 486.5,-199 479.3698,-180.1375 474.1795,-157.6564 471.043,-141.8702"/>
<polygon fill="#191970" stroke="#191970" points="474.4185,-140.8831 469.1238,-131.7062 467.5401,-142.182 474.4185,-140.8831"/>
</g>
</g>
</svg>
        <g id="navigator" transform="translate(0 0)" fill="#404254">
                <rect fill="#f2f5e9" fill-opacity="0.5" stroke="#606060" stroke-width=".5" x="0" y="0" width="60" height="60"/>
                <use id="zoomplus" xlink:href="#zoomPlus" x="17" y="9" onmousedown="handleZoom(evt,'in')"/>
                <use id="zoomminus" xlink:href="#zoomMin" x="42" y="9" onmousedown="handleZoom(evt,'out')"/>
                <use id="reset" xlink:href="#resetDef" x="30" y="36" onmousedown="handleReset()"/>
                <g id="arrowUp" xlink:href="#dirArrow" transform="translate(30 24)" onmousedown="handlePan(0,-1)">
                  <use xlink:href="#rim" fill="#404040">
                        <set attributeName="fill" to="#808080" begin="arrowUp.mouseover" end="arrowUp.mouseout"/>
                  </use>
                  <path fill="none" stroke="white" stroke-width="1.5" d="M0,-3.0v7 M-2.5,-0.5L0,-3.0L2.5,-0.5"/>
                </g>
                <g id="arrowRight" xlink:href="#dirArrow" transform="rotate(90) translate(36 -43)" onmousedown="handlePan(1,0)">
                  <use xlink:href="#rim" fill="#404040">
                        <set attributeName="fill" to="#808080" begin="arrowRight.mouseover" end="arrowRight.mouseout"/>
                  </use>
                  <path fill="none" stroke="white" stroke-width="1.5" d="M0,-3.0v7 M-2.5,-0.5L0,-3.0L2.5,-0.5"/>
                </g>
                <g id="arrowDown" xlink:href="#dirArrow" transform="rotate(180) translate(-30 -48)" onmousedown="handlePan(0,1)">
                  <use xlink:href="#rim" fill="#404040">
                        <set attributeName="fill" to="#808080" begin="arrowDown.mouseover" end="arrowDown.mouseout"/>
                  </use>
                  <path fill="none" stroke="white" stroke-width="1.5" d="M0,-3.0v7 M-2.5,-0.5L0,-3.0L2.5,-0.5"/>
                </g>
                <g id="arrowLeft" xlink:href="#dirArrow" transform="rotate(270) translate(-36 17)" onmousedown="handlePan(-1,0)">
                  <use xlink:href="#rim" fill="#404040">
                        <set attributeName="fill" to="#808080" begin="arrowLeft.mouseover" end="arrowLeft.mouseout"/>
                  </use>
                  <path fill="none" stroke="white" stroke-width="1.5" d="M0,-3.0v7 M-2.5,-0.5L0,-3.0L2.5,-0.5"/>
                </g>
        </g>
        <svg viewBox="0 0 15 15" width="100%" height="30px" preserveAspectRatio="xMaxYMin meet">
         <g id="arrow_out" transform="scale(0.3 0.3)">
          <a xlink:href="DebugRender_8hpp__incl_org.svg" target="_base">
           <rect id="button" ry="5" rx="5" y="6" x="6" height="38" width="38"
                fill="#f2f5e9" fill-opacity="0.5" stroke="#606060" stroke-width="1.0"/>
           <path id="arrow"
             d="M 11.500037,31.436501 C 11.940474,20.09759 22.043105,11.32322 32.158766,21.979434 L 37.068811,17.246167 C 37.068811,17.246167 37.088388,32 37.088388,32 L 22.160133,31.978069 C 22.160133,31.978069 26.997745,27.140456 26.997745,27.140456 C 18.528582,18.264221 13.291696,25.230495 11.500037,31.436501 z"
             style="fill:#404040;"/>
          </a>
         </g>
        </svg>
</svg>
