<?xml version="1.0" encoding="UTF-8" standalone="no"?>
<!DOCTYPE svg PUBLIC "-//W3C//DTD SVG 1.1//EN"
 "http://www.w3.org/Graphics/SVG/1.1/DTD/svg11.dtd">
<!-- Generated by graphviz version 2.40.1 (20161225.0304)
 -->
<!-- Title: src/Engine/Renderer/Renderers/DebugRender.cpp Pages: 1 -->
<svg width="3086pt" height="542pt"
 viewBox="0.00 0.00 3086.26 542.00" xmlns="http://www.w3.org/2000/svg" xmlns:xlink="http://www.w3.org/1999/xlink">
<g id="graph0" class="graph" transform="scale(1 1) rotate(0) translate(4 538)">
<title>src/Engine/Renderer/Renderers/DebugRender.cpp</title>
<polygon fill="#ffffff" stroke="transparent" points="-4,4 -4,-538 3082.2561,-538 3082.2561,4 -4,4"/>
<!-- Node0 -->
<g id="node1" class="node">
<title>Node0</title>
<polygon fill="#bfbfbf" stroke="#000000" points="1842.7561,-503.5 1842.7561,-533.5 1998.7561,-533.5 1998.7561,-503.5 1842.7561,-503.5"/>
<text text-anchor="start" x="1850.7561" y="-521.5" font-family="Helvetica,sans-Serif" font-size="10.00" fill="#000000">src/Engine/Renderer</text>
<text text-anchor="middle" x="1920.7561" y="-510.5" font-family="Helvetica,sans-Serif" font-size="10.00" fill="#000000">/Renderers/DebugRender.cpp</text>
</g>
<!-- Node1 -->
<g id="node2" class="node">
<title>Node1</title>
<g id="a_node2"><a xlink:href="DebugRender_8hpp.html" target="_top" xlink:title="Engine/Renderer/Renderers\l/DebugRender.hpp">
<polygon fill="#ffffff" stroke="#000000" points="944.7561,-302.5 944.7561,-332.5 1092.7561,-332.5 1092.7561,-302.5 944.7561,-302.5"/>
<text text-anchor="start" x="952.7561" y="-320.5" font-family="Helvetica,sans-Serif" font-size="10.00" fill="#000000">Engine/Renderer/Renderers</text>
<text text-anchor="middle" x="1018.7561" y="-309.5" font-family="Helvetica,sans-Serif" font-size="10.00" fill="#000000">/DebugRender.hpp</text>
</a>
</g>
</g>
<!-- Node0&#45;&gt;Node1 -->
<g id="edge1" class="edge">
<title>Node0&#45;&gt;Node1</title>
<path fill="none" stroke="#191970" d="M1842.6213,-515.4574C1675.0771,-508.5713 1285.9254,-490.5427 1155.7561,-467 1053.5016,-448.506 993.8195,-483.3437 931.7561,-400 923.5272,-388.9496 924.9323,-380.9692 931.7561,-369 939.5291,-355.366 952.4856,-344.9735 966.0564,-337.2212"/>
<polygon fill="#191970" stroke="#191970" points="967.7996,-340.2589 975.0148,-332.5007 964.5363,-334.0661 967.7996,-340.2589"/>
</g>
<!-- Node26 -->
<g id="node19" class="node">
<title>Node26</title>
<g id="a_node19"><a xlink:href="Mesh_8hpp.html" target="_top" xlink:title="Engine/Renderer/Mesh\l/Mesh.hpp">
<polygon fill="#ffffff" stroke="#000000" points="1858.2561,-436.5 1858.2561,-466.5 1983.2561,-466.5 1983.2561,-436.5 1858.2561,-436.5"/>
<text text-anchor="start" x="1866.2561" y="-454.5" font-family="Helvetica,sans-Serif" font-size="10.00" fill="#000000">Engine/Renderer/Mesh</text>
<text text-anchor="middle" x="1920.7561" y="-443.5" font-family="Helvetica,sans-Serif" font-size="10.00" fill="#000000">/Mesh.hpp</text>
</a>
</g>
</g>
<!-- Node0&#45;&gt;Node26 -->
<g id="edge27" class="edge">
<title>Node0&#45;&gt;Node26</title>
<path fill="none" stroke="#191970" d="M1920.7561,-503.2967C1920.7561,-495.5013 1920.7561,-485.7991 1920.7561,-476.9064"/>
<polygon fill="#191970" stroke="#191970" points="1924.2562,-476.6431 1920.7561,-466.6432 1917.2562,-476.6432 1924.2562,-476.6431"/>
</g>
<!-- Node37 -->
<g id="node25" class="node">
<title>Node37</title>
<g id="a_node25"><a xlink:href="Log_8hpp.html" target="_top" xlink:title="Core/Utils/Log.hpp">
<polygon fill="#ffffff" stroke="#000000" points="2672.7561,-241 2672.7561,-260 2778.7561,-260 2778.7561,-241 2672.7561,-241"/>
<text text-anchor="middle" x="2725.7561" y="-248" font-family="Helvetica,sans-Serif" font-size="10.00" fill="#000000">Core/Utils/Log.hpp</text>
</a>
</g>
</g>
<!-- Node0&#45;&gt;Node37 -->
<g id="edge114" class="edge">
<title>Node0&#45;&gt;Node37</title>
<path fill="none" stroke="#191970" d="M1998.9571,-513.1889C2165.276,-500.7432 2547.9595,-465.6638 2658.7561,-400 2691.1832,-380.7821 2695.3884,-367.4191 2710.7561,-333 2719.8119,-312.7179 2723.4014,-287.3063 2724.8237,-270.0843"/>
<polygon fill="#191970" stroke="#191970" points="2728.3174,-270.294 2725.4811,-260.0859 2721.3325,-269.8347 2728.3174,-270.294"/>
</g>
<!-- Node45 -->
<g id="node29" class="node">
<title>Node45</title>
<g id="a_node29"><a xlink:href="OpenGL_8hpp.html" target="_top" xlink:title="Engine/Renderer/OpenGL\l/OpenGL.hpp">
<polygon fill="#ffffff" stroke="#000000" points="2484.2561,-302.5 2484.2561,-332.5 2621.2561,-332.5 2621.2561,-302.5 2484.2561,-302.5"/>
<text text-anchor="start" x="2492.2561" y="-320.5" font-family="Helvetica,sans-Serif" font-size="10.00" fill="#000000">Engine/Renderer/OpenGL</text>
<text text-anchor="middle" x="2552.7561" y="-309.5" font-family="Helvetica,sans-Serif" font-size="10.00" fill="#000000">/OpenGL.hpp</text>
</a>
</g>
</g>
<!-- Node0&#45;&gt;Node45 -->
<g id="edge82" class="edge">
<title>Node0&#45;&gt;Node45</title>
<path fill="none" stroke="#191970" d="M1998.9405,-504.6412C2045.7417,-495.5903 2106.1607,-482.5738 2158.7561,-467 2288.8329,-428.4836 2437.1819,-367.3306 2509.0908,-336.5401"/>
<polygon fill="#191970" stroke="#191970" points="2510.4992,-339.7444 2518.3056,-332.5812 2507.7361,-333.3128 2510.4992,-339.7444"/>
</g>
<!-- Node49 -->
<g id="node33" class="node">
<title>Node49</title>
<g id="a_node33"><a xlink:href="ShaderProgram_8hpp.html" target="_top" xlink:title="Engine/Renderer/RenderTechnique\l/ShaderProgram.hpp">
<polygon fill="#ffffff" stroke="#000000" points="1652.7561,-302.5 1652.7561,-332.5 1834.7561,-332.5 1834.7561,-302.5 1652.7561,-302.5"/>
<text text-anchor="start" x="1660.7561" y="-320.5" font-family="Helvetica,sans-Serif" font-size="10.00" fill="#000000">Engine/Renderer/RenderTechnique</text>
<text text-anchor="middle" x="1743.7561" y="-309.5" font-family="Helvetica,sans-Serif" font-size="10.00" fill="#000000">/ShaderProgram.hpp</text>
</a>
</g>
</g>
<!-- Node0&#45;&gt;Node49 -->
<g id="edge96" class="edge">
<title>Node0&#45;&gt;Node49</title>
<path fill="none" stroke="#191970" d="M1895.4837,-503.4466C1880.8876,-494.0458 1862.7143,-481.0789 1848.7561,-467 1809.9012,-427.8091 1775.3573,-372.828 1757.2142,-341.6268"/>
<polygon fill="#191970" stroke="#191970" points="1760.1348,-339.6841 1752.1234,-332.7509 1754.0626,-343.1668 1760.1348,-339.6841"/>
</g>
<!-- Node54 -->
<g id="node36" class="node">
<title>Node54</title>
<polygon fill="#ffffff" stroke="#bfbfbf" points="2351.7561,-308 2351.7561,-327 2465.7561,-327 2465.7561,-308 2351.7561,-308"/>
<text text-anchor="middle" x="2408.7561" y="-315" font-family="Helvetica,sans-Serif" font-size="10.00" fill="#000000">globjects/Program.h</text>
</g>
<!-- Node0&#45;&gt;Node54 -->
<g id="edge115" class="edge">
<title>Node0&#45;&gt;Node54</title>
<path fill="none" stroke="#191970" d="M1978.0226,-503.4371C2048.9367,-483.8378 2172.6161,-446.5339 2272.7561,-400 2314.8729,-380.4288 2360.3451,-350.9686 2386.5889,-333.0578"/>
<polygon fill="#191970" stroke="#191970" points="2388.7843,-335.7955 2395.0327,-327.2393 2384.8124,-330.0315 2388.7843,-335.7955"/>
</g>
<!-- Node58 -->
<g id="node40" class="node">
<title>Node58</title>
<g id="a_node40"><a xlink:href="DrawPrimitives_8hpp.html" target="_top" xlink:title="Engine/Renderer/RenderObject\l/Primitives/DrawPrimitives.hpp">
<polygon fill="#ffffff" stroke="#000000" points="940.7561,-369.5 940.7561,-399.5 1108.7561,-399.5 1108.7561,-369.5 940.7561,-369.5"/>
<text text-anchor="start" x="948.7561" y="-387.5" font-family="Helvetica,sans-Serif" font-size="10.00" fill="#000000">Engine/Renderer/RenderObject</text>
<text text-anchor="middle" x="1024.7561" y="-376.5" font-family="Helvetica,sans-Serif" font-size="10.00" fill="#000000">/Primitives/DrawPrimitives.hpp</text>
</a>
</g>
</g>
<!-- Node0&#45;&gt;Node58 -->
<g id="edge83" class="edge">
<title>Node0&#45;&gt;Node58</title>
<path fill="none" stroke="#191970" d="M1842.5535,-514.7709C1693.8608,-507.2775 1375.5907,-489.1961 1267.7561,-467 1196.7204,-452.3784 1117.7697,-422.9936 1069.6928,-403.5331"/>
<polygon fill="#191970" stroke="#191970" points="1070.7896,-400.2004 1060.2085,-399.6603 1068.1433,-406.681 1070.7896,-400.2004"/>
</g>
<!-- Node62 -->
<g id="node43" class="node">
<title>Node62</title>
<g id="a_node43"><a xlink:href="ShaderProgramManager_8hpp.html" target="_top" xlink:title="Engine/Renderer/RenderTechnique\l/ShaderProgramManager.hpp">
<polygon fill="#ffffff" stroke="#000000" points="1224.7561,-302.5 1224.7561,-332.5 1406.7561,-332.5 1406.7561,-302.5 1224.7561,-302.5"/>
<text text-anchor="start" x="1232.7561" y="-320.5" font-family="Helvetica,sans-Serif" font-size="10.00" fill="#000000">Engine/Renderer/RenderTechnique</text>
<text text-anchor="middle" x="1315.7561" y="-309.5" font-family="Helvetica,sans-Serif" font-size="10.00" fill="#000000">/ShaderProgramManager.hpp</text>
</a>
</g>
</g>
<!-- Node0&#45;&gt;Node62 -->
<g id="edge97" class="edge">
<title>Node0&#45;&gt;Node62</title>
<path fill="none" stroke="#191970" d="M1842.5705,-510.8591C1705.343,-496.061 1428.5837,-459.5989 1353.7561,-400 1335.8345,-385.7257 1326.0154,-361.0798 1320.8745,-342.433"/>
<polygon fill="#191970" stroke="#191970" points="1324.2237,-341.3972 1318.42,-332.5334 1317.4294,-343.0818 1324.2237,-341.3972"/>
</g>
<!-- Node64 -->
<g id="node45" class="node">
<title>Node64</title>
<g id="a_node45"><a xlink:href="MakeShared_8hpp.html" target="_top" xlink:title="Core/Containers/MakeShared.hpp">
<polygon fill="#ffffff" stroke="#000000" points="1127.2561,-375 1127.2561,-394 1306.2561,-394 1306.2561,-375 1127.2561,-375"/>
<text text-anchor="middle" x="1216.7561" y="-382" font-family="Helvetica,sans-Serif" font-size="10.00" fill="#000000">Core/Containers/MakeShared.hpp</text>
</a>
</g>
</g>
<!-- Node0&#45;&gt;Node64 -->
<g id="edge105" class="edge">
<title>Node0&#45;&gt;Node64</title>
<path fill="none" stroke="#191970" d="M1842.5777,-517.3605C1702.248,-514.3997 1413.6087,-503.8846 1320.7561,-467 1284.424,-452.5675 1250.5783,-421.0392 1231.8758,-401.4076"/>
<polygon fill="#191970" stroke="#191970" points="1234.4101,-398.9931 1225.041,-394.0465 1229.2804,-403.7562 1234.4101,-398.9931"/>
</g>
<!-- Node65 -->
<g id="node46" class="node">
<title>Node65</title>
<g id="a_node46"><a xlink:href="MeshPrimitives_8hpp.html" target="_top" xlink:title="Core/Geometry/MeshPrimitives.hpp">
<polygon fill="#ffffff" stroke="#000000" points="108.7561,-375 108.7561,-394 298.7561,-394 298.7561,-375 108.7561,-375"/>
<text text-anchor="middle" x="203.7561" y="-382" font-family="Helvetica,sans-Serif" font-size="10.00" fill="#000000">Core/Geometry/MeshPrimitives.hpp</text>
</a>
</g>
</g>
<!-- Node0&#45;&gt;Node65 -->
<g id="edge107" class="edge">
<title>Node0&#45;&gt;Node65</title>
<path fill="none" stroke="#191970" d="M1842.5263,-517.2638C1595.2032,-513.0745 832.0846,-497.9202 586.7561,-467 462.6167,-451.354 319.1246,-415.5955 248.1902,-396.7074"/>
<polygon fill="#191970" stroke="#191970" points="248.827,-393.2547 238.2619,-394.0475 247.0155,-400.0162 248.827,-393.2547"/>
</g>
<!-- Node70 -->
<g id="node48" class="node">
<title>Node70</title>
<polygon fill="#ffffff" stroke="#bfbfbf" points="2734.7561,-442 2734.7561,-461 2840.7561,-461 2840.7561,-442 2734.7561,-442"/>
<text text-anchor="middle" x="2787.7561" y="-449" font-family="Helvetica,sans-Serif" font-size="10.00" fill="#000000">globjects/Shader.h</text>
</g>
<!-- Node0&#45;&gt;Node70 -->
<g id="edge116" class="edge">
<title>Node0&#45;&gt;Node70</title>
<path fill="none" stroke="#191970" d="M1998.7601,-515.1027C2171.7178,-507.3054 2582.9707,-487.2348 2720.7561,-467 2727.5022,-466.0093 2734.5727,-464.6892 2741.4872,-463.2361"/>
<polygon fill="#191970" stroke="#191970" points="2742.4408,-466.6099 2751.4501,-461.0346 2740.9305,-459.7747 2742.4408,-466.6099"/>
</g>
<!-- Node71 -->
<g id="node49" class="node">
<title>Node71</title>
<polygon fill="#ffffff" stroke="#bfbfbf" points="2858.7561,-436.5 2858.7561,-466.5 3004.7561,-466.5 3004.7561,-436.5 2858.7561,-436.5"/>
<text text-anchor="start" x="2866.7561" y="-454.5" font-family="Helvetica,sans-Serif" font-size="10.00" fill="#000000">globjects/base/StaticString</text>
<text text-anchor="middle" x="2931.7561" y="-443.5" font-family="Helvetica,sans-Serif" font-size="10.00" fill="#000000">Source.h</text>
</g>
<!-- Node0&#45;&gt;Node71 -->
<g id="edge117" class="edge">
<title>Node0&#45;&gt;Node71</title>
<path fill="none" stroke="#191970" d="M1999.0563,-517.6275C2157.6738,-515.1049 2528.369,-505.3761 2848.5774,-467.0393"/>
<polygon fill="#191970" stroke="#191970" points="2849.0052,-470.5131 2858.513,-465.8385 2848.1653,-463.5637 2849.0052,-470.5131"/>
</g>
<!-- Node72 -->
<g id="node50" class="node">
<title>Node72</title>
<polygon fill="#ffffff" stroke="#bfbfbf" points="3023.2561,-442 3023.2561,-461 3078.2561,-461 3078.2561,-442 3023.2561,-442"/>
<text text-anchor="middle" x="3050.7561" y="-449" font-family="Helvetica,sans-Serif" font-size="10.00" fill="#000000">fstream</text>
</g>
<!-- Node0&#45;&gt;Node72 -->
<g id="edge118" class="edge">
<title>Node0&#45;&gt;Node72</title>
<path fill="none" stroke="#191970" d="M1999.0566,-516.388C2232.8474,-509.8616 2915.7157,-489.119 3013.7561,-467 3016.5586,-466.3677 3019.4185,-465.5368 3022.2447,-464.5876"/>
<polygon fill="#191970" stroke="#191970" points="3023.4952,-467.8567 3031.5907,-461.0219 3021,-461.3165 3023.4952,-467.8567"/>
</g>
<!-- Node2 -->
<g id="node3" class="node">
<title>Node2</title>
<g id="a_node3"><a xlink:href="RaEngine_8hpp.html" target="_top" xlink:title="Engine/RaEngine.hpp">
<polygon fill="#ffffff" stroke="#000000" points="1992.2561,-174 1992.2561,-193 2111.2561,-193 2111.2561,-174 1992.2561,-174"/>
<text text-anchor="middle" x="2051.7561" y="-181" font-family="Helvetica,sans-Serif" font-size="10.00" fill="#000000">Engine/RaEngine.hpp</text>
</a>
</g>
</g>
<!-- Node1&#45;&gt;Node2 -->
<g id="edge2" class="edge">
<title>Node1&#45;&gt;Node2</title>
<path fill="none" stroke="#191970" d="M1093.0909,-311.1598C1129.9653,-308.1399 1175.187,-304.624 1215.7561,-302 1373.4072,-291.8032 1775.5581,-314.9732 1925.7561,-266 1968.4862,-252.0675 2010.6404,-219.6504 2033.7275,-199.853"/>
<polygon fill="#191970" stroke="#191970" points="2036.1205,-202.4098 2041.3363,-193.1878 2031.508,-197.1443 2036.1205,-202.4098"/>
</g>
<!-- Node9 -->
<g id="node6" class="node">
<title>Node9</title>
<polygon fill="#ffffff" stroke="#bfbfbf" points="1298.7561,-241 1298.7561,-260 1356.7561,-260 1356.7561,-241 1298.7561,-241"/>
<text text-anchor="middle" x="1327.7561" y="-248" font-family="Helvetica,sans-Serif" font-size="10.00" fill="#000000">memory</text>
</g>
<!-- Node1&#45;&gt;Node9 -->
<g id="edge5" class="edge">
<title>Node1&#45;&gt;Node9</title>
<path fill="none" stroke="#191970" d="M1088.1018,-302.4639C1150.0278,-289.0366 1238.4968,-269.854 1288.8123,-258.9441"/>
<polygon fill="#191970" stroke="#191970" points="1289.6159,-262.3513 1298.6471,-256.8117 1288.1325,-255.5103 1289.6159,-262.3513"/>
</g>
<!-- Node10 -->
<g id="node7" class="node">
<title>Node10</title>
<polygon fill="#ffffff" stroke="#bfbfbf" points="1361.2561,-112.5 1361.2561,-131.5 1408.2561,-131.5 1408.2561,-112.5 1361.2561,-112.5"/>
<text text-anchor="middle" x="1384.7561" y="-119.5" font-family="Helvetica,sans-Serif" font-size="10.00" fill="#000000">vector</text>
</g>
<!-- Node1&#45;&gt;Node10 -->
<g id="edge6" class="edge">
<title>Node1&#45;&gt;Node10</title>
<path fill="none" stroke="#191970" d="M1030.4128,-302.2134C1044.9358,-284.0603 1071.3267,-253.8719 1099.7561,-235 1182.4153,-180.1297 1295.7978,-145.2559 1351.3409,-130.3487"/>
<polygon fill="#191970" stroke="#191970" points="1352.2412,-133.7311 1361.0184,-127.7973 1350.4566,-126.9624 1352.2412,-133.7311"/>
</g>
<!-- Node11 -->
<g id="node8" class="node">
<title>Node11</title>
<g id="a_node8"><a xlink:href="VectorArray_8hpp.html" target="_top" xlink:title="Core/Containers/VectorArray.hpp">
<polygon fill="#ffffff" stroke="#000000" points="600.7561,-241 600.7561,-260 774.7561,-260 774.7561,-241 600.7561,-241"/>
<text text-anchor="middle" x="687.7561" y="-248" font-family="Helvetica,sans-Serif" font-size="10.00" fill="#000000">Core/Containers/VectorArray.hpp</text>
</a>
</g>
</g>
<!-- Node1&#45;&gt;Node11 -->
<g id="edge7" class="edge">
<title>Node1&#45;&gt;Node11</title>
<path fill="none" stroke="#191970" d="M944.4733,-302.4639C884.0031,-290.2237 799.9056,-273.2009 744.6789,-262.0221"/>
<polygon fill="#191970" stroke="#191970" points="745.2107,-258.5589 734.7151,-260.0053 743.8219,-265.4197 745.2107,-258.5589"/>
</g>
<!-- Node15 -->
<g id="node11" class="node">
<title>Node15</title>
<g id="a_node11"><a xlink:href="Types_8hpp.html" target="_top" xlink:title="Core/Types.hpp">
<polygon fill="#ffffff" stroke="#000000" points="889.2561,-174 889.2561,-193 980.2561,-193 980.2561,-174 889.2561,-174"/>
<text text-anchor="middle" x="934.7561" y="-181" font-family="Helvetica,sans-Serif" font-size="10.00" fill="#000000">Core/Types.hpp</text>
</a>
</g>
</g>
<!-- Node1&#45;&gt;Node15 -->
<g id="edge13" class="edge">
<title>Node1&#45;&gt;Node15</title>
<path fill="none" stroke="#191970" d="M1024.3916,-302.3593C1029.8825,-284.8867 1035.7993,-255.8828 1023.7561,-235 1013.5976,-217.385 994.8591,-205.2497 977.187,-197.205"/>
<polygon fill="#191970" stroke="#191970" points="978.115,-193.7984 967.5402,-193.1478 975.4012,-200.2509 978.115,-193.7984"/>
</g>
<!-- Node19 -->
<g id="node15" class="node">
<title>Node19</title>
<g id="a_node15"><a xlink:href="Color_8hpp.html" target="_top" xlink:title="Core/Utils/Color.hpp">
<polygon fill="#ffffff" stroke="#000000" points="133.2561,-241 133.2561,-260 246.2561,-260 246.2561,-241 133.2561,-241"/>
<text text-anchor="middle" x="189.7561" y="-248" font-family="Helvetica,sans-Serif" font-size="10.00" fill="#000000">Core/Utils/Color.hpp</text>
</a>
</g>
</g>
<!-- Node1&#45;&gt;Node19 -->
<g id="edge18" class="edge">
<title>Node1&#45;&gt;Node19</title>
<path fill="none" stroke="#191970" d="M944.4839,-311.6038C907.3302,-308.6751 861.6697,-305.1074 820.7561,-302 603.4605,-285.4962 548.7739,-285.8265 331.7561,-266 307.1215,-263.7494 280.1253,-260.8994 256.3481,-258.2588"/>
<polygon fill="#191970" stroke="#191970" points="256.6984,-254.7762 246.3712,-257.1423 255.9198,-261.7328 256.6984,-254.7762"/>
</g>
<!-- Node25 -->
<g id="node18" class="node">
<title>Node25</title>
<g id="a_node18"><a xlink:href="Singleton_8hpp.html" target="_top" xlink:title="Core/Utils/Singleton.hpp">
<polygon fill="#ffffff" stroke="#000000" points="1108.7561,-241 1108.7561,-260 1242.7561,-260 1242.7561,-241 1108.7561,-241"/>
<text text-anchor="middle" x="1175.7561" y="-248" font-family="Helvetica,sans-Serif" font-size="10.00" fill="#000000">Core/Utils/Singleton.hpp</text>
</a>
</g>
</g>
<!-- Node1&#45;&gt;Node25 -->
<g id="edge25" class="edge">
<title>Node1&#45;&gt;Node25</title>
<path fill="none" stroke="#191970" d="M1053.99,-302.4639C1080.9259,-290.969 1117.7456,-275.2561 1143.8251,-264.1266"/>
<polygon fill="#191970" stroke="#191970" points="1145.4277,-267.2482 1153.2514,-260.1039 1142.6801,-260.8099 1145.4277,-267.2482"/>
</g>
<!-- Node3 -->
<g id="node4" class="node">
<title>Node3</title>
<g id="a_node4"><a xlink:href="CoreMacros_8hpp.html" target="_top" xlink:title="Core/CoreMacros.hpp">
<polygon fill="#ffffff" stroke="#ff0000" points="1006.7561,-56.5 1006.7561,-75.5 1126.7561,-75.5 1126.7561,-56.5 1006.7561,-56.5"/>
<text text-anchor="middle" x="1066.7561" y="-63.5" font-family="Helvetica,sans-Serif" font-size="10.00" fill="#000000">Core/CoreMacros.hpp</text>
</a>
</g>
</g>
<!-- Node2&#45;&gt;Node3 -->
<g id="edge3" class="edge">
<title>Node2&#45;&gt;Node3</title>
<path fill="none" stroke="#191970" d="M1992.1336,-174.8334C1975.8109,-172.5331 1958.1106,-170.1052 1941.7561,-168 1643.0856,-129.5547 1286.2259,-89.9084 1137.3738,-73.6518"/>
<polygon fill="#191970" stroke="#191970" points="1137.3402,-70.1274 1127.0195,-72.5221 1136.5809,-77.0861 1137.3402,-70.1274"/>
</g>
<!-- Node7 -->
<g id="node5" class="node">
<title>Node7</title>
<polygon fill="#ffffff" stroke="#bfbfbf" points="1867.7561,-.5 1867.7561,-19.5 1923.7561,-19.5 1923.7561,-.5 1867.7561,-.5"/>
<text text-anchor="middle" x="1895.7561" y="-7.5" font-family="Helvetica,sans-Serif" font-size="10.00" fill="#000000">sstream</text>
</g>
<!-- Node3&#45;&gt;Node7 -->
<g id="edge4" class="edge">
<title>Node3&#45;&gt;Node7</title>
<path fill="none" stroke="#191970" d="M1127.0436,-61.9275C1288.1125,-51.0471 1725.1931,-21.5218 1857.377,-12.5926"/>
<polygon fill="#191970" stroke="#191970" points="1857.6924,-16.0793 1867.4337,-11.9132 1857.2205,-9.0952 1857.6924,-16.0793"/>
</g>
<!-- Node12 -->
<g id="node9" class="node">
<title>Node12</title>
<g id="a_node9"><a xlink:href="AlignedStdVector_8hpp.html" target="_top" xlink:title="Core/Containers/AlignedStd\lVector.hpp">
<polygon fill="#ffffff" stroke="#ff0000" points="720.7561,-168.5 720.7561,-198.5 870.7561,-198.5 870.7561,-168.5 720.7561,-168.5"/>
<text text-anchor="start" x="728.7561" y="-186.5" font-family="Helvetica,sans-Serif" font-size="10.00" fill="#000000">Core/Containers/AlignedStd</text>
<text text-anchor="middle" x="795.7561" y="-175.5" font-family="Helvetica,sans-Serif" font-size="10.00" fill="#000000">Vector.hpp</text>
</a>
</g>
</g>
<!-- Node11&#45;&gt;Node12 -->
<g id="edge8" class="edge">
<title>Node11&#45;&gt;Node12</title>
<path fill="none" stroke="#191970" d="M703.2299,-240.9005C718.7073,-231.2988 742.9953,-216.2313 762.8037,-203.9427"/>
<polygon fill="#191970" stroke="#191970" points="764.8894,-206.7677 771.542,-198.5218 761.1992,-200.8193 764.8894,-206.7677"/>
</g>
<!-- Node13 -->
<g id="node10" class="node">
<title>Node13</title>
<g id="a_node10"><a xlink:href="RaCore_8hpp.html" target="_top" xlink:title="Core/RaCore.hpp">
<polygon fill="#ffffff" stroke="#000000" points="358.7561,-112.5 358.7561,-131.5 456.7561,-131.5 456.7561,-112.5 358.7561,-112.5"/>
<text text-anchor="middle" x="407.7561" y="-119.5" font-family="Helvetica,sans-Serif" font-size="10.00" fill="#000000">Core/RaCore.hpp</text>
</a>
</g>
</g>
<!-- Node11&#45;&gt;Node13 -->
<g id="edge12" class="edge">
<title>Node11&#45;&gt;Node13</title>
<path fill="none" stroke="#191970" d="M610.7979,-240.9599C534.1148,-230.6922 425.9059,-213.8348 412.7561,-199 399.1251,-183.6221 400.0345,-159.0262 402.9531,-141.7809"/>
<polygon fill="#191970" stroke="#191970" points="406.4441,-142.1803 405.0285,-131.6805 399.5873,-140.7713 406.4441,-142.1803"/>
</g>
<!-- Node12&#45;&gt;Node10 -->
<g id="edge11" class="edge">
<title>Node12&#45;&gt;Node10</title>
<path fill="none" stroke="#191970" d="M870.8069,-169.2992C873.826,-168.8396 876.8179,-168.404 879.7561,-168 1056.2916,-143.7243 1269.3708,-129.0794 1350.8421,-124.0119"/>
<polygon fill="#191970" stroke="#191970" points="1351.2383,-127.4942 1361.0047,-123.3873 1350.8088,-120.5074 1351.2383,-127.4942"/>
</g>
<!-- Node12&#45;&gt;Node13 -->
<g id="edge9" class="edge">
<title>Node12&#45;&gt;Node13</title>
<path fill="none" stroke="#191970" d="M720.4858,-171.5693C646.4915,-159.8408 535.0544,-142.1774 467.1055,-131.4072"/>
<polygon fill="#191970" stroke="#191970" points="467.4205,-127.9135 456.9958,-129.8047 466.3245,-134.8272 467.4205,-127.9135"/>
</g>
<!-- Node13&#45;&gt;Node3 -->
<g id="edge10" class="edge">
<title>Node13&#45;&gt;Node3</title>
<path fill="none" stroke="#191970" d="M457.0187,-117.8138C572.7808,-107.9767 862.4498,-83.3614 996.5739,-71.9639"/>
<polygon fill="#191970" stroke="#191970" points="997.0663,-75.4348 1006.734,-71.1005 996.4735,-68.4599 997.0663,-75.4348"/>
</g>
<!-- Node15&#45;&gt;Node13 -->
<g id="edge14" class="edge">
<title>Node15&#45;&gt;Node13</title>
<path fill="none" stroke="#191970" d="M904.7258,-173.9974C896.6826,-171.7388 887.9458,-169.5404 879.7561,-168 802.1548,-153.4036 575.8601,-134.8559 467.2598,-126.4726"/>
<polygon fill="#191970" stroke="#191970" points="467.3654,-122.9704 457.1265,-125.6935 466.8287,-129.9498 467.3654,-122.9704"/>
</g>
<!-- Node16 -->
<g id="node12" class="node">
<title>Node16</title>
<polygon fill="#ffffff" stroke="#bfbfbf" points="661.2561,-112.5 661.2561,-131.5 730.2561,-131.5 730.2561,-112.5 661.2561,-112.5"/>
<text text-anchor="middle" x="695.7561" y="-119.5" font-family="Helvetica,sans-Serif" font-size="10.00" fill="#000000">Eigen/Core</text>
</g>
<!-- Node15&#45;&gt;Node16 -->
<g id="edge15" class="edge">
<title>Node15&#45;&gt;Node16</title>
<path fill="none" stroke="#191970" d="M901.644,-173.9966C894.4397,-171.977 886.8509,-169.8861 879.7561,-168 832.3435,-155.3955 777.7938,-141.8813 740.4745,-132.7858"/>
<polygon fill="#191970" stroke="#191970" points="740.9696,-129.3042 730.4257,-130.342 739.3154,-136.106 740.9696,-129.3042"/>
</g>
<!-- Node17 -->
<g id="node13" class="node">
<title>Node17</title>
<polygon fill="#ffffff" stroke="#bfbfbf" points="548.2561,-112.5 548.2561,-131.5 643.2561,-131.5 643.2561,-112.5 548.2561,-112.5"/>
<text text-anchor="middle" x="595.7561" y="-119.5" font-family="Helvetica,sans-Serif" font-size="10.00" fill="#000000">Eigen/Geometry</text>
</g>
<!-- Node15&#45;&gt;Node17 -->
<g id="edge16" class="edge">
<title>Node15&#45;&gt;Node17</title>
<path fill="none" stroke="#191970" d="M903.2158,-173.9222C895.5802,-171.7951 887.4119,-169.677 879.7561,-168 782.6752,-146.734 754.6591,-148.8566 653.4331,-132.2433"/>
<polygon fill="#191970" stroke="#191970" points="653.8424,-128.7634 643.4037,-130.5757 652.6942,-135.6686 653.8424,-128.7634"/>
</g>
<!-- Node18 -->
<g id="node14" class="node">
<title>Node18</title>
<polygon fill="#ffffff" stroke="#bfbfbf" points="894.7561,-112.5 894.7561,-131.5 974.7561,-131.5 974.7561,-112.5 894.7561,-112.5"/>
<text text-anchor="middle" x="934.7561" y="-119.5" font-family="Helvetica,sans-Serif" font-size="10.00" fill="#000000">Eigen/Sparse</text>
</g>
<!-- Node15&#45;&gt;Node18 -->
<g id="edge17" class="edge">
<title>Node15&#45;&gt;Node18</title>
<path fill="none" stroke="#191970" d="M934.7561,-173.8906C934.7561,-165.3657 934.7561,-152.6392 934.7561,-141.9235"/>
<polygon fill="#191970" stroke="#191970" points="938.2562,-141.7448 934.7561,-131.7449 931.2562,-141.7449 938.2562,-141.7448"/>
</g>
<!-- Node19&#45;&gt;Node3 -->
<g id="edge19" class="edge">
<title>Node19&#45;&gt;Node3</title>
<path fill="none" stroke="#191970" d="M142.3389,-240.971C91.4258,-228.631 21.6369,-204.3064 51.7561,-168 112.0373,-95.3356 776.1398,-72.9542 996.3085,-67.5047"/>
<polygon fill="#191970" stroke="#191970" points="996.5411,-71.0002 1006.453,-67.2578 996.3707,-64.0022 996.5411,-71.0002"/>
</g>
<!-- Node19&#45;&gt;Node16 -->
<g id="edge22" class="edge">
<title>Node19&#45;&gt;Node16</title>
<path fill="none" stroke="#191970" d="M246.4116,-244.2653C272.4125,-241.417 303.6461,-238.0136 331.7561,-235 407.7406,-226.8538 615.2424,-248.1542 673.7561,-199 690.3392,-185.0695 694.8866,-159.5811 695.9056,-141.7591"/>
<polygon fill="#191970" stroke="#191970" points="699.4087,-141.6729 696.1585,-131.5889 692.4109,-141.4988 699.4087,-141.6729"/>
</g>
<!-- Node19&#45;&gt;Node17 -->
<g id="edge23" class="edge">
<title>Node19&#45;&gt;Node17</title>
<path fill="none" stroke="#191970" d="M219.9404,-240.9466C292.1086,-218.1052 474.6592,-160.3275 555.8097,-134.6432"/>
<polygon fill="#191970" stroke="#191970" points="557.1713,-137.8834 565.649,-131.529 555.059,-131.2097 557.1713,-137.8834"/>
</g>
<!-- Node20 -->
<g id="node16" class="node">
<title>Node20</title>
<g id="a_node16"><a xlink:href="Math_8hpp.html" target="_top" xlink:title="Core/Math/Math.hpp">
<polygon fill="#ffffff" stroke="#ff0000" points="60.7561,-174 60.7561,-193 174.7561,-193 174.7561,-174 60.7561,-174"/>
<text text-anchor="middle" x="117.7561" y="-181" font-family="Helvetica,sans-Serif" font-size="10.00" fill="#000000">Core/Math/Math.hpp</text>
</a>
</g>
</g>
<!-- Node19&#45;&gt;Node20 -->
<g id="edge20" class="edge">
<title>Node19&#45;&gt;Node20</title>
<path fill="none" stroke="#191970" d="M179.4403,-240.9005C167.9987,-230.2535 149.3347,-212.8856 135.5288,-200.0385"/>
<polygon fill="#191970" stroke="#191970" points="137.7579,-197.3317 128.0529,-193.0817 132.9893,-202.4562 137.7579,-197.3317"/>
</g>
<!-- Node24 -->
<g id="node17" class="node">
<title>Node24</title>
<polygon fill="#ffffff" stroke="#bfbfbf" points="192.7561,-174 192.7561,-193 246.7561,-193 246.7561,-174 192.7561,-174"/>
<text text-anchor="middle" x="219.7561" y="-181" font-family="Helvetica,sans-Serif" font-size="10.00" fill="#000000">random</text>
</g>
<!-- Node19&#45;&gt;Node24 -->
<g id="edge24" class="edge">
<title>Node19&#45;&gt;Node24</title>
<path fill="none" stroke="#191970" d="M194.0544,-240.9005C198.5544,-230.8505 205.7357,-214.8122 211.365,-202.2403"/>
<polygon fill="#191970" stroke="#191970" points="214.5735,-203.6389 215.4659,-193.0817 208.1847,-200.7782 214.5735,-203.6389"/>
</g>
<!-- Node20&#45;&gt;Node13 -->
<g id="edge21" class="edge">
<title>Node20&#45;&gt;Node13</title>
<path fill="none" stroke="#191970" d="M157.5019,-173.975C166.1464,-171.9567 175.2498,-169.8719 183.7561,-168 239.8085,-155.6653 303.9876,-142.5923 349.2397,-133.5484"/>
<polygon fill="#191970" stroke="#191970" points="350.0484,-136.9561 359.1705,-131.5676 348.6791,-130.0914 350.0484,-136.9561"/>
</g>
<!-- Node25&#45;&gt;Node13 -->
<g id="edge26" class="edge">
<title>Node25&#45;&gt;Node13</title>
<path fill="none" stroke="#191970" d="M1108.4592,-243.1344C1082.0665,-240.3775 1051.509,-237.3481 1023.7561,-235 905.0226,-224.9544 597.8647,-246.8946 488.7561,-199 459.7472,-186.2662 434.7914,-158.4516 420.5196,-139.9741"/>
<polygon fill="#191970" stroke="#191970" points="423.1816,-137.6888 414.4007,-131.7603 417.568,-141.8707 423.1816,-137.6888"/>
</g>
<!-- Node26&#45;&gt;Node2 -->
<g id="edge28" class="edge">
<title>Node26&#45;&gt;Node2</title>
<path fill="none" stroke="#191970" d="M1983.4303,-445.7892C2149.2596,-430.0309 2589.6009,-383.7308 2629.7561,-333 2641.3013,-318.4143 2644.5985,-254.4134 2625.7561,-235 2591.2627,-199.4612 2266.7626,-188.089 2121.4892,-184.7601"/>
<polygon fill="#191970" stroke="#191970" points="2121.4212,-181.2578 2111.3457,-184.5341 2121.2652,-188.2561 2121.4212,-181.2578"/>
</g>
<!-- Node26&#45;&gt;Node10 -->
<g id="edge46" class="edge">
<title>Node26&#45;&gt;Node10</title>
<path fill="none" stroke="#191970" d="M1858.1513,-445.9789C1781.7321,-438.3661 1657.7344,-422.9323 1617.7561,-400 1588.335,-383.1235 1443.4158,-197.7643 1398.2335,-139.4529"/>
<polygon fill="#191970" stroke="#191970" points="1400.9807,-137.2839 1392.0929,-131.517 1395.4445,-141.5678 1400.9807,-137.2839"/>
</g>
<!-- Node26&#45;&gt;Node11 -->
<g id="edge47" class="edge">
<title>Node26&#45;&gt;Node11</title>
<path fill="none" stroke="#191970" d="M1858.1343,-449.7787C1670.0065,-444.3642 1111.7503,-426.4533 931.7561,-400 807.7229,-381.7712 735.1623,-431.6145 657.7561,-333 642.5529,-313.6312 658.488,-285.8508 672.3138,-267.9904"/>
<polygon fill="#191970" stroke="#191970" points="675.1502,-270.0513 678.7859,-260.0997 669.7379,-265.612 675.1502,-270.0513"/>
</g>
<!-- Node26&#45;&gt;Node19 -->
<g id="edge49" class="edge">
<title>Node26&#45;&gt;Node19</title>
<path fill="none" stroke="#191970" d="M1857.8769,-451.1326C1626.7028,-449.4655 824.2386,-440.8044 571.7561,-400 466.2275,-382.9452 439.5794,-373.757 340.7561,-333 293.6584,-313.5758 242.2983,-283.4182 213.2568,-265.4485"/>
<polygon fill="#191970" stroke="#191970" points="214.9817,-262.3993 204.6457,-260.0715 211.2741,-268.3368 214.9817,-262.3993"/>
</g>
<!-- Node27 -->
<g id="node20" class="node">
<title>Node27</title>
<g id="a_node20"><a xlink:href="DisplayableObject_8hpp.html" target="_top" xlink:title="Engine/Renderer/Displayable\l/DisplayableObject.hpp">
<polygon fill="#ffffff" stroke="#000000" points="1363.2561,-369.5 1363.2561,-399.5 1520.2561,-399.5 1520.2561,-369.5 1363.2561,-369.5"/>
<text text-anchor="start" x="1371.2561" y="-387.5" font-family="Helvetica,sans-Serif" font-size="10.00" fill="#000000">Engine/Renderer/Displayable</text>
<text text-anchor="middle" x="1441.7561" y="-376.5" font-family="Helvetica,sans-Serif" font-size="10.00" fill="#000000">/DisplayableObject.hpp</text>
</a>
</g>
</g>
<!-- Node26&#45;&gt;Node27 -->
<g id="edge29" class="edge">
<title>Node26&#45;&gt;Node27</title>
<path fill="none" stroke="#191970" d="M1858.1577,-443.7835C1781.7313,-434.2159 1648.5848,-417.0746 1534.7561,-400 1533.2892,-399.7799 1531.8095,-399.5561 1530.3199,-399.3289"/>
<polygon fill="#191970" stroke="#191970" points="1530.7912,-395.8602 1520.3731,-397.7874 1529.7191,-402.7776 1530.7912,-395.8602"/>
</g>
<!-- Node28 -->
<g id="node21" class="node">
<title>Node28</title>
<polygon fill="#ffffff" stroke="#bfbfbf" points="1647.7561,-174 1647.7561,-193 1689.7561,-193 1689.7561,-174 1647.7561,-174"/>
<text text-anchor="middle" x="1668.7561" y="-181" font-family="Helvetica,sans-Serif" font-size="10.00" fill="#000000">array</text>
</g>
<!-- Node26&#45;&gt;Node28 -->
<g id="edge44" class="edge">
<title>Node26&#45;&gt;Node28</title>
<path fill="none" stroke="#191970" d="M1858.0538,-444.4303C1792.0074,-433.2674 1691.1457,-404.8171 1643.7561,-333 1616.9319,-292.3488 1641.9603,-232.3365 1657.8867,-202.205"/>
<polygon fill="#191970" stroke="#191970" points="1661.0867,-203.6501 1662.8508,-193.2031 1654.9569,-200.2697 1661.0867,-203.6501"/>
</g>
<!-- Node29 -->
<g id="node22" class="node">
<title>Node29</title>
<polygon fill="#ffffff" stroke="#bfbfbf" points="1564.7561,-241 1564.7561,-260 1602.7561,-260 1602.7561,-241 1564.7561,-241"/>
<text text-anchor="middle" x="1583.7561" y="-248" font-family="Helvetica,sans-Serif" font-size="10.00" fill="#000000">map</text>
</g>
<!-- Node26&#45;&gt;Node29 -->
<g id="edge45" class="edge">
<title>Node26&#45;&gt;Node29</title>
<path fill="none" stroke="#191970" d="M1858.0704,-445.7544C1788.4702,-438.3285 1681.5902,-423.49 1648.7561,-400 1605.7225,-369.2131 1590.8768,-303.6593 1585.9992,-270.5392"/>
<polygon fill="#191970" stroke="#191970" points="1589.4259,-269.7492 1584.6598,-260.2869 1582.4849,-270.6561 1589.4259,-269.7492"/>
</g>
<!-- Node30 -->
<g id="node23" class="node">
<title>Node30</title>
<g id="a_node23"><a xlink:href="TriangleMesh_8hpp.html" target="_top" xlink:title="Core/Geometry/TriangleMesh.hpp">
<polygon fill="#ffffff" stroke="#ff0000" points="431.2561,-308 431.2561,-327 610.2561,-327 610.2561,-308 431.2561,-308"/>
<text text-anchor="middle" x="520.7561" y="-315" font-family="Helvetica,sans-Serif" font-size="10.00" fill="#000000">Core/Geometry/TriangleMesh.hpp</text>
</a>
</g>
</g>
<!-- Node26&#45;&gt;Node30 -->
<g id="edge48" class="edge">
<title>Node26&#45;&gt;Node30</title>
<path fill="none" stroke="#191970" d="M1857.9664,-451.2862C1614.5432,-450.1469 740.8742,-443.068 624.7561,-400 588.1023,-386.4051 554.3613,-354.6044 535.766,-334.6936"/>
<polygon fill="#191970" stroke="#191970" points="538.2899,-332.2668 528.9745,-327.2197 533.1093,-336.9744 538.2899,-332.2668"/>
</g>
<!-- Node26&#45;&gt;Node37 -->
<g id="edge50" class="edge">
<title>Node26&#45;&gt;Node37</title>
<path fill="none" stroke="#191970" d="M1983.4965,-450.0427C2145.8591,-445.8337 2570.9997,-431.8687 2625.7561,-400 2676.8961,-370.2361 2707.1183,-302.6236 2719.3698,-269.5015"/>
<polygon fill="#191970" stroke="#191970" points="2722.6775,-270.646 2722.7199,-260.0513 2716.0797,-268.3071 2722.6775,-270.646"/>
</g>
<!-- Node26&#45;&gt;Node45 -->
<g id="edge56" class="edge">
<title>Node26&#45;&gt;Node45</title>
<path fill="none" stroke="#191970" d="M1983.5514,-445.0239C2054.3365,-437.0977 2172.612,-421.964 2272.7561,-400 2352.6079,-382.4866 2443.0044,-354.2865 2498.9498,-335.822"/>
<polygon fill="#191970" stroke="#191970" points="2500.2553,-339.0765 2508.6446,-332.6057 2498.0512,-332.4326 2500.2553,-339.0765"/>
</g>
<!-- Node26&#45;&gt;Node49 -->
<g id="edge60" class="edge">
<title>Node26&#45;&gt;Node49</title>
<path fill="none" stroke="#191970" d="M1900.7961,-436.389C1869.2412,-412.4999 1807.7326,-365.9342 1771.7711,-338.7091"/>
<polygon fill="#191970" stroke="#191970" points="1773.7288,-335.8013 1763.6433,-332.5558 1769.5036,-341.3823 1773.7288,-335.8013"/>
</g>
<!-- Node53 -->
<g id="node35" class="node">
<title>Node53</title>
<polygon fill="#ffffff" stroke="#bfbfbf" points="1929.2561,-308 1929.2561,-327 2030.2561,-327 2030.2561,-308 1929.2561,-308"/>
<text text-anchor="middle" x="1979.7561" y="-315" font-family="Helvetica,sans-Serif" font-size="10.00" fill="#000000">globjects/Buffer.h</text>
</g>
<!-- Node26&#45;&gt;Node53 -->
<g id="edge71" class="edge">
<title>Node26&#45;&gt;Node53</title>
<path fill="none" stroke="#191970" d="M1927.4095,-436.389C1938.2112,-411.8564 1959.5426,-363.4088 1971.3677,-336.5517"/>
<polygon fill="#191970" stroke="#191970" points="1974.701,-337.6667 1975.5274,-327.1042 1968.2945,-334.8459 1974.701,-337.6667"/>
</g>
<!-- Node26&#45;&gt;Node54 -->
<g id="edge72" class="edge">
<title>Node26&#45;&gt;Node54</title>
<path fill="none" stroke="#191970" d="M1983.4577,-444.9868C2044.2549,-437.6577 2138.6428,-423.5837 2217.7561,-400 2278.2894,-381.9551 2345.2473,-350.0667 2381.6063,-331.6679"/>
<polygon fill="#191970" stroke="#191970" points="2383.28,-334.7432 2390.5942,-327.0781 2380.0964,-328.509 2383.28,-334.7432"/>
</g>
<!-- Node55 -->
<g id="node37" class="node">
<title>Node55</title>
<polygon fill="#ffffff" stroke="#bfbfbf" points="2048.2561,-308 2048.2561,-327 2177.2561,-327 2177.2561,-308 2048.2561,-308"/>
<text text-anchor="middle" x="2112.7561" y="-315" font-family="Helvetica,sans-Serif" font-size="10.00" fill="#000000">globjects/VertexArray.h</text>
</g>
<!-- Node26&#45;&gt;Node55 -->
<g id="edge73" class="edge">
<title>Node26&#45;&gt;Node55</title>
<path fill="none" stroke="#191970" d="M1942.4078,-436.389C1979.1143,-410.7709 2053.1866,-359.0746 2090.379,-333.1174"/>
<polygon fill="#191970" stroke="#191970" points="2092.7977,-335.6975 2098.995,-327.1042 2088.7915,-329.9572 2092.7977,-335.6975"/>
</g>
<!-- Node56 -->
<g id="node38" class="node">
<title>Node56</title>
<polygon fill="#ffffff" stroke="#bfbfbf" points="2195.7561,-302.5 2195.7561,-332.5 2333.7561,-332.5 2333.7561,-302.5 2195.7561,-302.5"/>
<text text-anchor="start" x="2203.7561" y="-320.5" font-family="Helvetica,sans-Serif" font-size="10.00" fill="#000000">globjects/VertexAttribute</text>
<text text-anchor="middle" x="2264.7561" y="-309.5" font-family="Helvetica,sans-Serif" font-size="10.00" fill="#000000">Binding.h</text>
</g>
<!-- Node26&#45;&gt;Node56 -->
<g id="edge74" class="edge">
<title>Node26&#45;&gt;Node56</title>
<path fill="none" stroke="#191970" d="M1983.4122,-443.5861C2049.8701,-434.4304 2149.8577,-418.2543 2183.7561,-400 2210.2696,-385.7225 2233.5256,-359.8461 2248.2365,-340.8687"/>
<polygon fill="#191970" stroke="#191970" points="2251.1648,-342.798 2254.3753,-332.7012 2245.5691,-338.5921 2251.1648,-342.798"/>
</g>
<!-- Node57 -->
<g id="node39" class="node">
<title>Node57</title>
<g id="a_node39"><a xlink:href="Mesh_8inl.html" target="_top" xlink:title="Engine/Renderer/Mesh\l/Mesh.inl">
<polygon fill="#ffffff" stroke="#000000" points="2050.2561,-369.5 2050.2561,-399.5 2175.2561,-399.5 2175.2561,-369.5 2050.2561,-369.5"/>
<text text-anchor="start" x="2058.2561" y="-387.5" font-family="Helvetica,sans-Serif" font-size="10.00" fill="#000000">Engine/Renderer/Mesh</text>
<text text-anchor="middle" x="2112.7561" y="-376.5" font-family="Helvetica,sans-Serif" font-size="10.00" fill="#000000">/Mesh.inl</text>
</a>
</g>
</g>
<!-- Node26&#45;&gt;Node57 -->
<g id="edge75" class="edge">
<title>Node26&#45;&gt;Node57</title>
<path fill="none" stroke="#191970" d="M1963.8447,-436.4639C1992.2778,-426.5419 2029.7164,-413.4774 2059.9407,-402.9304"/>
<polygon fill="#191970" stroke="#191970" points="2061.1912,-406.2011 2069.4797,-399.6017 2058.8848,-399.5919 2061.1912,-406.2011"/>
</g>
<!-- Node27&#45;&gt;Node2 -->
<g id="edge30" class="edge">
<title>Node27&#45;&gt;Node2</title>
<path fill="none" stroke="#191970" d="M1520.2793,-379.9383C1627.4948,-372.9033 1813.5953,-357.5878 1876.7561,-333 1898.711,-324.4532 1898.1067,-311.2931 1919.7561,-302 1999.1356,-267.9263 2055.62,-332.4991 2110.7561,-266 2129.2744,-243.6654 2099.5151,-215.9057 2075.9517,-198.9562"/>
<polygon fill="#191970" stroke="#191970" points="2077.8706,-196.0279 2067.6516,-193.2308 2073.8958,-201.79 2077.8706,-196.0279"/>
</g>
<!-- Node27&#45;&gt;Node10 -->
<g id="edge33" class="edge">
<title>Node27&#45;&gt;Node10</title>
<path fill="none" stroke="#191970" d="M1439.4859,-369.3958C1434.0124,-333.9303 1419.0984,-242.6854 1399.7561,-168 1397.4718,-159.1796 1394.4304,-149.5755 1391.6835,-141.4353"/>
<polygon fill="#191970" stroke="#191970" points="1394.9138,-140.0679 1388.3306,-131.7666 1388.3002,-142.3614 1394.9138,-140.0679"/>
</g>
<!-- Node27&#45;&gt;Node11 -->
<g id="edge34" class="edge">
<title>Node27&#45;&gt;Node11</title>
<path fill="none" stroke="#191970" d="M1363.2076,-374.5805C1347.1855,-372.6509 1330.4348,-370.7011 1314.7561,-369 1146.5407,-350.7491 1101.3144,-367.9284 935.7561,-333 856.1726,-316.21 766.4493,-282.485 719.8035,-263.7723"/>
<polygon fill="#191970" stroke="#191970" points="721.1056,-260.5236 710.5228,-260.0186 718.4809,-267.0129 721.1056,-260.5236"/>
</g>
<!-- Node27&#45;&gt;Node19 -->
<g id="edge43" class="edge">
<title>Node27&#45;&gt;Node19</title>
<path fill="none" stroke="#191970" d="M1362.9323,-373.8717C1347.0079,-372.0088 1330.3646,-370.265 1314.7561,-369 1215.7779,-360.9782 515.6213,-365.4097 421.7561,-333 399.4865,-325.3107 400.0181,-312.1485 378.7561,-302 354.5437,-290.4432 288.3852,-273.5695 241.1819,-262.3226"/>
<polygon fill="#191970" stroke="#191970" points="241.9561,-258.9093 231.4188,-260.012 240.3439,-265.7211 241.9561,-258.9093"/>
</g>
<!-- Node27&#45;&gt;Node28 -->
<g id="edge31" class="edge">
<title>Node27&#45;&gt;Node28</title>
<path fill="none" stroke="#191970" d="M1449.6282,-369.0789C1465.6543,-339.1277 1504.8989,-272.7246 1555.7561,-235 1580.9072,-216.3436 1613.895,-202.2788 1637.73,-193.6011"/>
<polygon fill="#191970" stroke="#191970" points="1639.0681,-196.8406 1647.3351,-190.2143 1636.7403,-190.239 1639.0681,-196.8406"/>
</g>
<!-- Node27&#45;&gt;Node29 -->
<g id="edge32" class="edge">
<title>Node27&#45;&gt;Node29</title>
<path fill="none" stroke="#191970" d="M1457.7693,-369.389C1484.5718,-344.0965 1538.3112,-293.3847 1566.1443,-267.1196"/>
<polygon fill="#191970" stroke="#191970" points="1568.7077,-269.513 1573.5786,-260.1042 1563.9035,-264.4219 1568.7077,-269.513"/>
</g>
<!-- Node27&#45;&gt;Node30 -->
<g id="edge35" class="edge">
<title>Node27&#45;&gt;Node30</title>
<path fill="none" stroke="#191970" d="M1363.2559,-374.0892C1347.2301,-372.1976 1330.4657,-370.3875 1314.7561,-369 1023.4521,-343.2715 949.1704,-357.4484 657.7561,-333 641.6575,-331.6494 624.5249,-329.9336 608.0226,-328.139"/>
<polygon fill="#191970" stroke="#191970" points="608.1679,-324.6338 597.8439,-327.014 607.3988,-331.5915 608.1679,-324.6338"/>
</g>
<!-- Node30&#45;&gt;Node11 -->
<g id="edge36" class="edge">
<title>Node30&#45;&gt;Node11</title>
<path fill="none" stroke="#191970" d="M544.6832,-307.9005C573.4536,-296.3579 621.9125,-276.9163 654.3579,-263.8993"/>
<polygon fill="#191970" stroke="#191970" points="655.8958,-267.0535 663.8735,-260.0817 653.2893,-260.5569 655.8958,-267.0535"/>
</g>
<!-- Node30&#45;&gt;Node13 -->
<g id="edge40" class="edge">
<title>Node30&#45;&gt;Node13</title>
<path fill="none" stroke="#191970" d="M463.48,-307.9907C401.196,-297.0699 309.0784,-278.991 298.7561,-266 271.6602,-231.8987 274.6784,-204.2953 298.7561,-168 310.218,-150.7222 329.5886,-139.9179 348.8487,-133.1684"/>
<polygon fill="#191970" stroke="#191970" points="350.0914,-136.4461 358.5626,-130.0829 347.9722,-129.7745 350.0914,-136.4461"/>
</g>
<!-- Node30&#45;&gt;Node15 -->
<g id="edge41" class="edge">
<title>Node30&#45;&gt;Node15</title>
<path fill="none" stroke="#191970" d="M525.8548,-307.8246C535.8318,-289.9801 559.7824,-252.1476 591.7561,-235 705.4358,-174.0333 753.3192,-224.5674 879.7561,-199 884.4904,-198.0427 889.4132,-196.8888 894.2817,-195.6479"/>
<polygon fill="#191970" stroke="#191970" points="895.3664,-198.9808 904.1207,-193.0133 893.5557,-192.219 895.3664,-198.9808"/>
</g>
<!-- Node30&#45;&gt;Node19 -->
<g id="edge42" class="edge">
<title>Node30&#45;&gt;Node19</title>
<path fill="none" stroke="#191970" d="M470.8542,-307.9136C418.4691,-297.7804 333.7373,-281.1927 260.7561,-266 254.9797,-264.7975 248.9444,-263.5171 242.9375,-262.2274"/>
<polygon fill="#191970" stroke="#191970" points="243.4195,-258.7508 232.9059,-260.0601 241.9413,-265.593 243.4195,-258.7508"/>
</g>
<!-- Node31 -->
<g id="node24" class="node">
<title>Node31</title>
<g id="a_node24"><a xlink:href="AbstractGeometry_8hpp.html" target="_top" xlink:title="Core/Geometry/AbstractGeometry.hpp">
<polygon fill="#ffffff" stroke="#000000" points="341.2561,-241 341.2561,-260 544.2561,-260 544.2561,-241 341.2561,-241"/>
<text text-anchor="middle" x="442.7561" y="-248" font-family="Helvetica,sans-Serif" font-size="10.00" fill="#000000">Core/Geometry/AbstractGeometry.hpp</text>
</a>
</g>
</g>
<!-- Node30&#45;&gt;Node31 -->
<g id="edge37" class="edge">
<title>Node30&#45;&gt;Node31</title>
<path fill="none" stroke="#191970" d="M509.5806,-307.9005C497.0697,-297.1539 476.5876,-279.5603 461.5919,-266.6794"/>
<polygon fill="#191970" stroke="#191970" points="463.7772,-263.9426 453.9109,-260.0817 459.2161,-269.2526 463.7772,-263.9426"/>
</g>
<!-- Node31&#45;&gt;Node13 -->
<g id="edge38" class="edge">
<title>Node31&#45;&gt;Node13</title>
<path fill="none" stroke="#191970" d="M421.2114,-240.87C405.1442,-232.3894 384.3802,-218.3614 374.7561,-199 364.8149,-179.0004 378.6744,-155.288 391.3579,-139.5134"/>
<polygon fill="#191970" stroke="#191970" points="394.2608,-141.5055 398.1246,-131.6404 388.9521,-136.9428 394.2608,-141.5055"/>
</g>
<!-- Node31&#45;&gt;Node15 -->
<g id="edge39" class="edge">
<title>Node31&#45;&gt;Node15</title>
<path fill="none" stroke="#191970" d="M512.0387,-240.9986C527.4126,-238.9582 543.6315,-236.8584 558.7561,-235 701.2456,-217.4922 738.8657,-226.5621 879.7561,-199 884.5542,-198.0614 889.5431,-196.9097 894.4716,-195.6619"/>
<polygon fill="#191970" stroke="#191970" points="895.6654,-198.9658 904.4228,-193.0027 893.8582,-192.203 895.6654,-198.9658"/>
</g>
<!-- Node37&#45;&gt;Node7 -->
<g id="edge53" class="edge">
<title>Node37&#45;&gt;Node7</title>
<path fill="none" stroke="#191970" d="M2730.5063,-240.8031C2738.0158,-223.9158 2750.0935,-188.9163 2732.7561,-168 2628.8467,-42.6405 2084.3524,-16.038 1934.1576,-11.0503"/>
<polygon fill="#191970" stroke="#191970" points="1934.1431,-7.5481 1924.0365,-10.7274 1933.9198,-14.5446 1934.1431,-7.5481"/>
</g>
<!-- Node37&#45;&gt;Node13 -->
<g id="edge51" class="edge">
<title>Node37&#45;&gt;Node13</title>
<path fill="none" stroke="#191970" d="M2673.242,-240.9806C2657.9791,-238.5887 2641.2475,-236.3268 2625.7561,-235 2509.2766,-225.0234 631.7989,-238.4665 521.7561,-199 500.914,-191.525 500.8936,-180.7006 482.7561,-168 466.9497,-156.9317 448.4799,-145.5856 433.8243,-136.9311"/>
<polygon fill="#191970" stroke="#191970" points="435.2102,-133.6872 424.8106,-131.6625 431.6778,-139.7306 435.2102,-133.6872"/>
</g>
<!-- Node38 -->
<g id="node26" class="node">
<title>Node38</title>
<polygon fill="#ffffff" stroke="#bfbfbf" points="2611.7561,-174 2611.7561,-193 2655.7561,-193 2655.7561,-174 2611.7561,-174"/>
<text text-anchor="middle" x="2633.7561" y="-181" font-family="Helvetica,sans-Serif" font-size="10.00" fill="#000000">ctime</text>
</g>
<!-- Node37&#45;&gt;Node38 -->
<g id="edge52" class="edge">
<title>Node37&#45;&gt;Node38</title>
<path fill="none" stroke="#191970" d="M2712.5748,-240.9005C2697.545,-229.9549 2672.7619,-211.9064 2654.9968,-198.9688"/>
<polygon fill="#191970" stroke="#191970" points="2657.0571,-196.1394 2646.9131,-193.0817 2652.9362,-201.7979 2657.0571,-196.1394"/>
</g>
<!-- Node39 -->
<g id="node27" class="node">
<title>Node39</title>
<polygon fill="#ffffff" stroke="#bfbfbf" points="2673.7561,-174 2673.7561,-193 2723.7561,-193 2723.7561,-174 2673.7561,-174"/>
<text text-anchor="middle" x="2698.7561" y="-181" font-family="Helvetica,sans-Serif" font-size="10.00" fill="#000000">stdio.h</text>
</g>
<!-- Node37&#45;&gt;Node39 -->
<g id="edge54" class="edge">
<title>Node37&#45;&gt;Node39</title>
<path fill="none" stroke="#191970" d="M2721.8877,-240.9005C2717.8778,-230.95 2711.5023,-215.1292 2706.4591,-202.6147"/>
<polygon fill="#191970" stroke="#191970" points="2709.6016,-201.0486 2702.6174,-193.0817 2703.1089,-203.6651 2709.6016,-201.0486"/>
</g>
<!-- Node40 -->
<g id="node28" class="node">
<title>Node40</title>
<polygon fill="#ffffff" stroke="#bfbfbf" points="1888.7561,-174 1888.7561,-193 1932.7561,-193 1932.7561,-174 1888.7561,-174"/>
<text text-anchor="middle" x="1910.7561" y="-181" font-family="Helvetica,sans-Serif" font-size="10.00" fill="#000000">string</text>
</g>
<!-- Node37&#45;&gt;Node40 -->
<g id="edge55" class="edge">
<title>Node37&#45;&gt;Node40</title>
<path fill="none" stroke="#191970" d="M2672.6872,-241.2856C2657.5638,-238.9287 2641.0441,-236.6089 2625.7561,-235 2341.1028,-205.0435 2266.4161,-237.2354 1982.7561,-199 1969.5894,-197.2252 1955.2496,-194.3376 1942.8581,-191.533"/>
<polygon fill="#191970" stroke="#191970" points="1943.5102,-188.0911 1932.976,-189.2228 1941.9167,-194.9074 1943.5102,-188.0911"/>
</g>
<!-- Node46 -->
<g id="node30" class="node">
<title>Node46</title>
<polygon fill="#ffffff" stroke="#bfbfbf" points="2488.7561,-241 2488.7561,-260 2616.7561,-260 2616.7561,-241 2488.7561,-241"/>
<text text-anchor="middle" x="2552.7561" y="-248" font-family="Helvetica,sans-Serif" font-size="10.00" fill="#000000">glbinding/gl45core/gl.h</text>
</g>
<!-- Node45&#45;&gt;Node46 -->
<g id="edge57" class="edge">
<title>Node45&#45;&gt;Node46</title>
<path fill="none" stroke="#191970" d="M2552.7561,-302.2967C2552.7561,-292.7699 2552.7561,-280.3954 2552.7561,-270.1306"/>
<polygon fill="#191970" stroke="#191970" points="2556.2562,-270.0549 2552.7561,-260.055 2549.2562,-270.055 2556.2562,-270.0549"/>
</g>
<!-- Node47 -->
<g id="node31" class="node">
<title>Node47</title>
<polygon fill="#ffffff" stroke="#bfbfbf" points="2216.7561,-241 2216.7561,-260 2338.7561,-260 2338.7561,-241 2216.7561,-241"/>
<text text-anchor="middle" x="2277.7561" y="-248" font-family="Helvetica,sans-Serif" font-size="10.00" fill="#000000">glbinding/gl45ext/gl.h</text>
</g>
<!-- Node45&#45;&gt;Node47 -->
<g id="edge58" class="edge">
<title>Node45&#45;&gt;Node47</title>
<path fill="none" stroke="#191970" d="M2491.0408,-302.4639C2441.4266,-290.3761 2372.6681,-273.624 2326.773,-262.4423"/>
<polygon fill="#191970" stroke="#191970" points="2327.3147,-258.972 2316.7704,-260.0053 2325.6577,-265.773 2327.3147,-258.972"/>
</g>
<!-- Node48 -->
<g id="node32" class="node">
<title>Node48</title>
<polygon fill="#ffffff" stroke="#bfbfbf" points="2357.2561,-235.5 2357.2561,-265.5 2470.2561,-265.5 2470.2561,-235.5 2357.2561,-235.5"/>
<text text-anchor="start" x="2365.2561" y="-253.5" font-family="Helvetica,sans-Serif" font-size="10.00" fill="#000000">glbinding&#45;aux/types</text>
<text text-anchor="middle" x="2413.7561" y="-242.5" font-family="Helvetica,sans-Serif" font-size="10.00" fill="#000000">_to_string.h</text>
</g>
<!-- Node45&#45;&gt;Node48 -->
<g id="edge59" class="edge">
<title>Node45&#45;&gt;Node48</title>
<path fill="none" stroke="#191970" d="M2521.5618,-302.4639C2501.76,-292.9191 2475.925,-280.4663 2454.5101,-270.144"/>
<polygon fill="#191970" stroke="#191970" points="2455.8552,-266.907 2445.3273,-265.7177 2452.8157,-273.2127 2455.8552,-266.907"/>
</g>
<!-- Node49&#45;&gt;Node2 -->
<g id="edge61" class="edge">
<title>Node49&#45;&gt;Node2</title>
<path fill="none" stroke="#191970" d="M1835.0641,-303.8631C1917.6543,-291.1395 2027.4683,-273.0862 2034.7561,-266 2051.3309,-249.8838 2053.9178,-222.2118 2053.4719,-203.4015"/>
<polygon fill="#191970" stroke="#191970" points="2056.9584,-203.0563 2052.9212,-193.2609 2049.9687,-203.436 2056.9584,-203.0563"/>
</g>
<!-- Node49&#45;&gt;Node9 -->
<g id="edge69" class="edge">
<title>Node49&#45;&gt;Node9</title>
<path fill="none" stroke="#191970" d="M1652.7203,-302.838C1563.7013,-288.5008 1432.3334,-267.343 1367.2625,-256.8628"/>
<polygon fill="#191970" stroke="#191970" points="1367.4595,-253.3495 1357.0301,-255.2148 1366.3463,-260.2604 1367.4595,-253.3495"/>
</g>
<!-- Node49&#45;&gt;Node15 -->
<g id="edge62" class="edge">
<title>Node49&#45;&gt;Node15</title>
<path fill="none" stroke="#191970" d="M1725.969,-302.3798C1701.8737,-282.8886 1656.6887,-249.7537 1611.7561,-235 1496.8993,-197.2864 1131.4757,-186.9458 990.7487,-184.3252"/>
<polygon fill="#191970" stroke="#191970" points="990.6746,-180.8233 980.6132,-184.1426 990.5485,-187.8222 990.6746,-180.8233"/>
</g>
<!-- Node49&#45;&gt;Node28 -->
<g id="edge68" class="edge">
<title>Node49&#45;&gt;Node28</title>
<path fill="none" stroke="#191970" d="M1735.2985,-302.389C1721.446,-277.6393 1693.9704,-228.5495 1679.0232,-201.8438"/>
<polygon fill="#191970" stroke="#191970" points="1682.0699,-200.1209 1674.1316,-193.1042 1675.9616,-203.5398 1682.0699,-200.1209"/>
</g>
<!-- Node49&#45;&gt;Node40 -->
<g id="edge70" class="edge">
<title>Node49&#45;&gt;Node40</title>
<path fill="none" stroke="#191970" d="M1834.2119,-302.4277C1873.8151,-293.8074 1913.9703,-281.5836 1925.7561,-266 1939.6856,-247.5821 1930.5938,-220.3136 1921.6619,-202.2342"/>
<polygon fill="#191970" stroke="#191970" points="1924.6619,-200.4217 1916.8634,-193.2499 1918.4873,-203.7196 1924.6619,-200.4217"/>
</g>
<!-- Node50 -->
<g id="node34" class="node">
<title>Node50</title>
<g id="a_node34"><a xlink:href="ShaderConfiguration_8hpp.html" target="_top" xlink:title="Engine/Renderer/RenderTechnique\l/ShaderConfiguration.hpp">
<polygon fill="#ffffff" stroke="#ff0000" points="1734.7561,-235.5 1734.7561,-265.5 1916.7561,-265.5 1916.7561,-235.5 1734.7561,-235.5"/>
<text text-anchor="start" x="1742.7561" y="-253.5" font-family="Helvetica,sans-Serif" font-size="10.00" fill="#000000">Engine/Renderer/RenderTechnique</text>
<text text-anchor="middle" x="1825.7561" y="-242.5" font-family="Helvetica,sans-Serif" font-size="10.00" fill="#000000">/ShaderConfiguration.hpp</text>
</a>
</g>
</g>
<!-- Node49&#45;&gt;Node50 -->
<g id="edge63" class="edge">
<title>Node49&#45;&gt;Node50</title>
<path fill="none" stroke="#191970" d="M1762.3632,-302.2967C1773.2668,-293.3876 1787.2184,-281.9882 1799.2558,-272.1527"/>
<polygon fill="#191970" stroke="#191970" points="1801.6935,-274.6808 1807.2227,-265.6432 1797.2644,-269.2601 1801.6935,-274.6808"/>
</g>
<!-- Node50&#45;&gt;Node2 -->
<g id="edge64" class="edge">
<title>Node50&#45;&gt;Node2</title>
<path fill="none" stroke="#191970" d="M1876.475,-235.4639C1916.7349,-223.5284 1972.3337,-207.0456 2010.038,-195.8678"/>
<polygon fill="#191970" stroke="#191970" points="2011.1008,-199.2033 2019.6935,-193.0053 2009.1111,-192.492 2011.1008,-199.2033"/>
</g>
<!-- Node50&#45;&gt;Node10 -->
<g id="edge67" class="edge">
<title>Node50&#45;&gt;Node10</title>
<path fill="none" stroke="#191970" d="M1808.1879,-235.4999C1784.8479,-216.4587 1741.5596,-184.1495 1698.7561,-168 1647.8857,-148.8069 1488.8147,-131.8663 1418.6189,-125.1132"/>
<polygon fill="#191970" stroke="#191970" points="1418.8241,-121.617 1408.5377,-124.1548 1418.1616,-128.5856 1418.8241,-121.617"/>
</g>
<!-- Node50&#45;&gt;Node28 -->
<g id="edge65" class="edge">
<title>Node50&#45;&gt;Node28</title>
<path fill="none" stroke="#191970" d="M1790.5223,-235.4639C1763.1054,-223.7637 1725.4486,-207.6936 1699.3005,-196.5349"/>
<polygon fill="#191970" stroke="#191970" points="1700.4591,-193.224 1689.8878,-192.518 1697.7115,-199.6622 1700.4591,-193.224"/>
</g>
<!-- Node50&#45;&gt;Node40 -->
<g id="edge66" class="edge">
<title>Node50&#45;&gt;Node40</title>
<path fill="none" stroke="#191970" d="M1845.044,-235.2967C1858.6731,-224.5537 1876.8963,-210.1895 1890.695,-199.3129"/>
<polygon fill="#191970" stroke="#191970" points="1892.9473,-201.9942 1898.6342,-193.055 1888.6139,-196.4967 1892.9473,-201.9942"/>
</g>
<!-- Node57&#45;&gt;Node45 -->
<g id="edge77" class="edge">
<title>Node57&#45;&gt;Node45</title>
<path fill="none" stroke="#191970" d="M2175.3755,-376.6517C2245.5578,-367.6171 2362.9638,-351.7917 2473.8681,-333.098"/>
<polygon fill="#191970" stroke="#191970" points="2474.6169,-336.5211 2483.8905,-331.3977 2473.446,-329.6197 2474.6169,-336.5211"/>
</g>
<!-- Node57&#45;&gt;Node49 -->
<g id="edge78" class="edge">
<title>Node57&#45;&gt;Node49</title>
<path fill="none" stroke="#191970" d="M2050.1603,-373.1344C1991.5842,-362.4986 1903.335,-346.475 1836.5669,-334.3518"/>
<polygon fill="#191970" stroke="#191970" points="1836.9255,-330.8598 1826.461,-332.5169 1835.6748,-337.7472 1836.9255,-330.8598"/>
</g>
<!-- Node57&#45;&gt;Node53 -->
<g id="edge76" class="edge">
<title>Node57&#45;&gt;Node53</title>
<path fill="none" stroke="#191970" d="M2082.9084,-369.4639C2060.4921,-358.1715 2029.9955,-342.8086 2007.9823,-331.7192"/>
<polygon fill="#191970" stroke="#191970" points="2009.3261,-328.4772 1998.8206,-327.1039 2006.1768,-334.7287 2009.3261,-328.4772"/>
</g>
<!-- Node57&#45;&gt;Node54 -->
<g id="edge79" class="edge">
<title>Node57&#45;&gt;Node54</title>
<path fill="none" stroke="#191970" d="M2175.2717,-370.686C2221.5499,-360.4151 2286.1215,-345.9905 2342.7561,-333 2347.7896,-331.8455 2353.0363,-330.6314 2358.2754,-329.4121"/>
<polygon fill="#191970" stroke="#191970" points="2359.3408,-332.7575 2368.2829,-327.0752 2357.749,-325.9409 2359.3408,-332.7575"/>
</g>
<!-- Node57&#45;&gt;Node55 -->
<g id="edge80" class="edge">
<title>Node57&#45;&gt;Node55</title>
<path fill="none" stroke="#191970" d="M2112.7561,-369.2967C2112.7561,-359.7699 2112.7561,-347.3954 2112.7561,-337.1306"/>
<polygon fill="#191970" stroke="#191970" points="2116.2562,-337.0549 2112.7561,-327.055 2109.2562,-337.055 2116.2562,-337.0549"/>
</g>
<!-- Node57&#45;&gt;Node56 -->
<g id="edge81" class="edge">
<title>Node57&#45;&gt;Node56</title>
<path fill="none" stroke="#191970" d="M2146.8679,-369.4639C2168.7928,-359.7996 2197.4815,-347.154 2221.0681,-336.7572"/>
<polygon fill="#191970" stroke="#191970" points="2222.7568,-339.8379 2230.4956,-332.6017 2219.9334,-333.4325 2222.7568,-339.8379"/>
</g>
<!-- Node58&#45;&gt;Node2 -->
<g id="edge84" class="edge">
<title>Node58&#45;&gt;Node2</title>
<path fill="none" stroke="#191970" d="M1108.8457,-370.0376C1111.8496,-369.6636 1114.8268,-369.3157 1117.7561,-369 1278.3579,-351.6933 1695.0925,-396.1788 1843.7561,-333 1862.2762,-325.1294 1858.868,-311.217 1876.7561,-302 1949.2795,-264.632 2005.0326,-329.0926 2056.7561,-266 2071.1291,-248.4679 2065.8569,-221.1531 2059.7134,-202.8082"/>
<polygon fill="#191970" stroke="#191970" points="2062.9017,-201.3398 2056.1375,-193.1853 2056.3401,-203.7782 2062.9017,-201.3398"/>
</g>
<!-- Node58&#45;&gt;Node9 -->
<g id="edge95" class="edge">
<title>Node58&#45;&gt;Node9</title>
<path fill="none" stroke="#191970" d="M1056.6013,-369.3759C1092.2672,-352.5419 1151.881,-324.717 1203.7561,-302 1234.2942,-288.6269 1269.4116,-274.1228 1294.461,-263.925"/>
<polygon fill="#191970" stroke="#191970" points="1295.9215,-267.1096 1303.87,-260.1043 1293.2879,-260.6239 1295.9215,-267.1096"/>
</g>
<!-- Node58&#45;&gt;Node15 -->
<g id="edge93" class="edge">
<title>Node58&#45;&gt;Node15</title>
<path fill="none" stroke="#191970" d="M1049.3389,-369.3917C1064.7907,-359.5737 1084.9162,-346.1884 1101.7561,-333 1117.8557,-320.3914 1118.0109,-312.1626 1135.7561,-302 1182.5995,-275.1732 1219.7384,-309.4608 1251.7561,-266 1259.9281,-254.9074 1260.6833,-245.4945 1251.7561,-235 1235.0494,-215.36 1076.974,-197.2137 990.5532,-188.6569"/>
<polygon fill="#191970" stroke="#191970" points="990.677,-185.1524 980.3836,-187.6615 989.995,-192.1191 990.677,-185.1524"/>
</g>
<!-- Node58&#45;&gt;Node19 -->
<g id="edge94" class="edge">
<title>Node58&#45;&gt;Node19</title>
<path fill="none" stroke="#191970" d="M940.487,-382.7618C791.6714,-378.8515 488.6114,-366.8818 388.7561,-333 364.7072,-324.84 363.6118,-313.0706 340.7561,-302 306.7141,-285.5111 266.0219,-271.959 235.4617,-262.9026"/>
<polygon fill="#191970" stroke="#191970" points="236.0902,-259.4403 225.5105,-260.0059 234.1338,-266.1614 236.0902,-259.4403"/>
</g>
<!-- Node59 -->
<g id="node41" class="node">
<title>Node59</title>
<g id="a_node41"><a xlink:href="Obb_8hpp.html" target="_top" xlink:title="Core/Geometry/Obb.hpp">
<polygon fill="#ffffff" stroke="#000000" points="530.7561,-174 530.7561,-193 664.7561,-193 664.7561,-174 530.7561,-174"/>
<text text-anchor="middle" x="597.7561" y="-181" font-family="Helvetica,sans-Serif" font-size="10.00" fill="#000000">Core/Geometry/Obb.hpp</text>
</a>
</g>
</g>
<!-- Node58&#45;&gt;Node59 -->
<g id="edge85" class="edge">
<title>Node58&#45;&gt;Node59</title>
<path fill="none" stroke="#191970" d="M997.6846,-369.2837C979.9449,-359.2027 956.3193,-345.5684 935.7561,-333 867.1729,-291.0813 857.104,-267.8775 783.7561,-235 743.3714,-216.8979 695.1462,-203.7659 657.9214,-195.2942"/>
<polygon fill="#191970" stroke="#191970" points="658.2508,-191.782 647.7295,-193.028 656.7314,-198.6151 658.2508,-191.782"/>
</g>
<!-- Node60 -->
<g id="node42" class="node">
<title>Node60</title>
<g id="a_node42"><a xlink:href="Spline_8hpp.html" target="_top" xlink:title="Core/Geometry/Spline.hpp">
<polygon fill="#ffffff" stroke="#ff0000" points="667.2561,-308 667.2561,-327 812.2561,-327 812.2561,-308 667.2561,-308"/>
<text text-anchor="middle" x="739.7561" y="-315" font-family="Helvetica,sans-Serif" font-size="10.00" fill="#000000">Core/Geometry/Spline.hpp</text>
</a>
</g>
</g>
<!-- Node58&#45;&gt;Node60 -->
<g id="edge89" class="edge">
<title>Node58&#45;&gt;Node60</title>
<path fill="none" stroke="#191970" d="M960.7966,-369.4639C909.1622,-357.3253 837.5203,-340.4831 789.9572,-329.3016"/>
<polygon fill="#191970" stroke="#191970" points="790.7247,-325.8867 780.1891,-327.0053 789.1227,-332.701 790.7247,-325.8867"/>
</g>
<!-- Node59&#45;&gt;Node13 -->
<g id="edge86" class="edge">
<title>Node59&#45;&gt;Node13</title>
<path fill="none" stroke="#191970" d="M568.0686,-173.8906C535.4416,-163.3298 482.8935,-146.3208 446.9137,-134.6747"/>
<polygon fill="#191970" stroke="#191970" points="447.8271,-131.2916 437.2352,-131.5419 445.6713,-137.9514 447.8271,-131.2916"/>
</g>
<!-- Node59&#45;&gt;Node16 -->
<g id="edge87" class="edge">
<title>Node59&#45;&gt;Node16</title>
<path fill="none" stroke="#191970" d="M613.0686,-173.8906C628.8186,-164.0067 653.5685,-148.4749 671.8899,-136.9773"/>
<polygon fill="#191970" stroke="#191970" points="673.9413,-139.8221 680.5512,-131.5419 670.2205,-133.8929 673.9413,-139.8221"/>
</g>
<!-- Node59&#45;&gt;Node17 -->
<g id="edge88" class="edge">
<title>Node59&#45;&gt;Node17</title>
<path fill="none" stroke="#191970" d="M597.4436,-173.8906C597.1664,-165.3657 596.7525,-152.6392 596.4041,-141.9235"/>
<polygon fill="#191970" stroke="#191970" points="599.8963,-141.6258 596.0731,-131.7449 592.9,-141.8534 599.8963,-141.6258"/>
</g>
<!-- Node60&#45;&gt;Node10 -->
<g id="edge92" class="edge">
<title>Node60&#45;&gt;Node10</title>
<path fill="none" stroke="#191970" d="M750.4696,-307.9643C770.4645,-290.6898 815.4623,-254.2308 859.7561,-235 905.5354,-215.1243 1242.0112,-149.445 1350.8771,-128.4874"/>
<polygon fill="#191970" stroke="#191970" points="1351.817,-131.8709 1360.9764,-126.5459 1350.4954,-124.9967 1351.817,-131.8709"/>
</g>
<!-- Node60&#45;&gt;Node11 -->
<g id="edge90" class="edge">
<title>Node60&#45;&gt;Node11</title>
<path fill="none" stroke="#191970" d="M732.3058,-307.9005C724.2741,-297.552 711.3146,-280.8542 701.4387,-268.1295"/>
<polygon fill="#191970" stroke="#191970" points="704.0889,-265.8356 695.1927,-260.0817 698.559,-270.1275 704.0889,-265.8356"/>
</g>
<!-- Node60&#45;&gt;Node13 -->
<g id="edge91" class="edge">
<title>Node60&#45;&gt;Node13</title>
<path fill="none" stroke="#191970" d="M667.1383,-308.1663C651.1988,-306.1263 634.4089,-303.9843 618.7561,-302 554.9889,-293.9164 374.2849,-314.1966 331.7561,-266 296.4096,-225.9427 354.6677,-166.5521 387.5916,-138.2026"/>
<polygon fill="#191970" stroke="#191970" points="389.9353,-140.8049 395.3439,-131.6946 385.4345,-135.4437 389.9353,-140.8049"/>
</g>
<!-- Node62&#45;&gt;Node2 -->
<g id="edge98" class="edge">
<title>Node62&#45;&gt;Node2</title>
<path fill="none" stroke="#191970" d="M1407.0017,-312.7185C1586.7957,-303.0048 1971.7119,-280.6448 1996.7561,-266 2020.9406,-251.8579 2036.6041,-222.3534 2044.8064,-202.7353"/>
<polygon fill="#191970" stroke="#191970" points="2048.1284,-203.8503 2048.512,-193.2624 2041.6095,-201.3002 2048.1284,-203.8503"/>
</g>
<!-- Node62&#45;&gt;Node9 -->
<g id="edge100" class="edge">
<title>Node62&#45;&gt;Node9</title>
<path fill="none" stroke="#191970" d="M1318.4791,-302.2967C1320.1854,-292.7699 1322.4018,-280.3954 1324.2402,-270.1306"/>
<polygon fill="#191970" stroke="#191970" points="1327.7269,-270.5154 1326.0448,-260.055 1320.8366,-269.2813 1327.7269,-270.5154"/>
</g>
<!-- Node62&#45;&gt;Node10 -->
<g id="edge102" class="edge">
<title>Node62&#45;&gt;Node10</title>
<path fill="none" stroke="#191970" d="M1335.7954,-302.2992C1346.5,-293.0304 1358.8594,-280.2445 1365.7561,-266 1385.5465,-225.1253 1386.8953,-170.495 1385.9552,-141.6919"/>
<polygon fill="#191970" stroke="#191970" points="1389.4506,-141.5092 1385.4976,-131.6795 1382.4579,-141.8289 1389.4506,-141.5092"/>
</g>
<!-- Node62&#45;&gt;Node25 -->
<g id="edge103" class="edge">
<title>Node62&#45;&gt;Node25</title>
<path fill="none" stroke="#191970" d="M1284.3374,-302.4639C1260.5298,-291.0702 1228.0632,-275.5327 1204.8466,-264.4219"/>
<polygon fill="#191970" stroke="#191970" points="1206.3552,-261.2637 1195.824,-260.1039 1203.3334,-267.5779 1206.3552,-261.2637"/>
</g>
<!-- Node62&#45;&gt;Node29 -->
<g id="edge99" class="edge">
<title>Node62&#45;&gt;Node29</title>
<path fill="none" stroke="#191970" d="M1406.8778,-302.4477C1450.9688,-293.9272 1504.2874,-281.7832 1550.7561,-266 1552.4043,-265.4402 1554.0792,-264.8218 1555.756,-264.1639"/>
<polygon fill="#191970" stroke="#191970" points="1557.4068,-267.2639 1565.2087,-260.0958 1554.6396,-260.834 1557.4068,-267.2639"/>
</g>
<!-- Node62&#45;&gt;Node40 -->
<g id="edge101" class="edge">
<title>Node62&#45;&gt;Node40</title>
<path fill="none" stroke="#191970" d="M1352.5282,-302.4426C1399.0809,-283.9464 1482.1022,-252.8356 1555.7561,-235 1672.7662,-206.6655 1815.4929,-191.7568 1878.373,-186.1546"/>
<polygon fill="#191970" stroke="#191970" points="1878.8057,-189.6302 1888.464,-185.275 1878.1978,-182.6567 1878.8057,-189.6302"/>
</g>
<!-- Node63 -->
<g id="node44" class="node">
<title>Node63</title>
<g id="a_node44"><a xlink:href="StdOptional_8hpp.html" target="_top" xlink:title="Core/Utils/StdOptional.hpp">
<polygon fill="#ffffff" stroke="#000000" points="868.7561,-241 868.7561,-260 1014.7561,-260 1014.7561,-241 868.7561,-241"/>
<text text-anchor="middle" x="941.7561" y="-248" font-family="Helvetica,sans-Serif" font-size="10.00" fill="#000000">Core/Utils/StdOptional.hpp</text>
</a>
</g>
</g>
<!-- Node62&#45;&gt;Node63 -->
<g id="edge104" class="edge">
<title>Node62&#45;&gt;Node63</title>
<path fill="none" stroke="#191970" d="M1231.8232,-302.4639C1163.0721,-290.1475 1067.2909,-272.9889 1004.9124,-261.8141"/>
<polygon fill="#191970" stroke="#191970" points="1005.276,-258.3236 994.8155,-260.0053 1004.0416,-265.2139 1005.276,-258.3236"/>
</g>
<!-- Node64&#45;&gt;Node9 -->
<g id="edge106" class="edge">
<title>Node64&#45;&gt;Node9</title>
<path fill="none" stroke="#191970" d="M1213.5065,-374.9288C1208.5766,-358.5378 1201.2266,-324.673 1215.7561,-302 1220.3737,-294.7945 1262.9454,-276.4878 1294.2397,-263.7654"/>
<polygon fill="#191970" stroke="#191970" points="1295.5713,-267.0024 1303.5352,-260.0148 1292.952,-260.5108 1295.5713,-267.0024"/>
</g>
<!-- Node65&#45;&gt;Node13 -->
<g id="edge109" class="edge">
<title>Node65&#45;&gt;Node13</title>
<path fill="none" stroke="#191970" d="M151.5101,-374.9151C109.0519,-365.9377 54.0877,-351.1932 40.7561,-333 15.6592,-298.7508 -41.2985,-265.4948 51.7561,-168 71.8651,-146.9315 252.4369,-132.1039 348.3998,-125.6371"/>
<polygon fill="#191970" stroke="#191970" points="348.7947,-129.1186 358.5408,-124.9636 348.3308,-122.134 348.7947,-129.1186"/>
</g>
<!-- Node65&#45;&gt;Node19 -->
<g id="edge110" class="edge">
<title>Node65&#45;&gt;Node19</title>
<path fill="none" stroke="#191970" d="M214.4095,-374.6566C223.9214,-365.0812 237.1849,-349.5853 242.7561,-333 247.1434,-319.9394 248.1199,-314.6908 242.7561,-302 236.7063,-287.6858 224.5165,-275.3878 213.3512,-266.4027"/>
<polygon fill="#191970" stroke="#191970" points="215.2217,-263.4295 205.1314,-260.1989 211.0048,-269.0168 215.2217,-263.4295"/>
</g>
<!-- Node65&#45;&gt;Node30 -->
<g id="edge108" class="edge">
<title>Node65&#45;&gt;Node30</title>
<path fill="none" stroke="#191970" d="M248.8379,-374.9717C305.9145,-362.9082 404.1977,-342.1354 465.6639,-329.1441"/>
<polygon fill="#191970" stroke="#191970" points="466.5135,-332.5419 475.5736,-327.0496 465.066,-325.6932 466.5135,-332.5419"/>
</g>
<!-- Node65&#45;&gt;Node63 -->
<g id="edge111" class="edge">
<title>Node65&#45;&gt;Node63</title>
<path fill="none" stroke="#191970" d="M298.7873,-382.4662C447.3176,-378.2987 727.174,-366.1927 820.7561,-333 861.7647,-318.4546 902.019,-286.4876 924.201,-266.892"/>
<polygon fill="#191970" stroke="#191970" points="926.7033,-269.3483 931.7814,-260.0497 922.013,-264.152 926.7033,-269.3483"/>
</g>
<!-- Node66 -->
<g id="node47" class="node">
<title>Node66</title>
<g id="a_node47"><a xlink:href="MeshPrimitives_8inl.html" target="_top" xlink:title="Core/Geometry/MeshPrimitives.inl">
<polygon fill="#ffffff" stroke="#ff0000" points="49.7561,-308 49.7561,-327 233.7561,-327 233.7561,-308 49.7561,-308"/>
<text text-anchor="middle" x="141.7561" y="-315" font-family="Helvetica,sans-Serif" font-size="10.00" fill="#000000">Core/Geometry/MeshPrimitives.inl</text>
</a>
</g>
</g>
<!-- Node65&#45;&gt;Node66 -->
<g id="edge112" class="edge">
<title>Node65&#45;&gt;Node66</title>
<path fill="none" stroke="#191970" d="M189.9725,-374.9005C178.3917,-364.552 162.565,-347.8542 152.0442,-335.1295"/>
<polygon fill="#191970" stroke="#191970" points="154.6539,-332.7857 145.7256,-327.0817 149.1481,-337.1085 154.6539,-332.7857"/>
</g>
<!-- Node66&#45;&gt;Node65 -->
<g id="edge113" class="edge">
<title>Node66&#45;&gt;Node65</title>
<path fill="none" stroke="#191970" d="M155.5199,-327.0817C167.0958,-337.4229 182.9231,-354.1194 193.45,-366.8486"/>
<polygon fill="#191970" stroke="#191970" points="190.8445,-369.1978 199.7736,-374.9005 196.3497,-364.8742 190.8445,-369.1978"/>
</g>
</g>
</svg>
