<?xml version="1.0" encoding="UTF-8" standalone="no"?>
<!DOCTYPE svg PUBLIC "-//W3C//DTD SVG 1.1//EN"
 "http://www.w3.org/Graphics/SVG/1.1/DTD/svg11.dtd">
<!-- Generated by graphviz version 2.40.1 (20161225.0304)
 -->
<!-- Title: src/Engine/Managers/LightManager/DefaultLightManager.hpp Pages: 1 -->
<svg width="1364pt" height="542pt"
 viewBox="0.00 0.00 1364.00 542.00" xmlns="http://www.w3.org/2000/svg" xmlns:xlink="http://www.w3.org/1999/xlink">
<g id="graph0" class="graph" transform="scale(1 1) rotate(0) translate(4 538)">
<title>src/Engine/Managers/LightManager/DefaultLightManager.hpp</title>
<polygon fill="#ffffff" stroke="transparent" points="-4,4 -4,-538 1360,-538 1360,4 -4,4"/>
<!-- Node0 -->
<g id="node1" class="node">
<title>Node0</title>
<polygon fill="#bfbfbf" stroke="#000000" points="962.5,-492.5 962.5,-533.5 1111.5,-533.5 1111.5,-492.5 962.5,-492.5"/>
<text text-anchor="start" x="970.5" y="-521.5" font-family="Helvetica,sans-Serif" font-size="10.00" fill="#000000">src/Engine/Managers</text>
<text text-anchor="start" x="970.5" y="-510.5" font-family="Helvetica,sans-Serif" font-size="10.00" fill="#000000">/LightManager/DefaultLight</text>
<text text-anchor="middle" x="1037" y="-499.5" font-family="Helvetica,sans-Serif" font-size="10.00" fill="#000000">Manager.hpp</text>
</g>
<!-- Node1 -->
<g id="node2" class="node">
<title>Node1</title>
<g id="a_node2"><a xlink:href="LightManager_8hpp.html" target="_top" xlink:title="Engine/Managers/LightManager\l/LightManager.hpp">
<polygon fill="#ffffff" stroke="#000000" points="840.5,-425.5 840.5,-455.5 1009.5,-455.5 1009.5,-425.5 840.5,-425.5"/>
<text text-anchor="start" x="848.5" y="-443.5" font-family="Helvetica,sans-Serif" font-size="10.00" fill="#000000">Engine/Managers/LightManager</text>
<text text-anchor="middle" x="925" y="-432.5" font-family="Helvetica,sans-Serif" font-size="10.00" fill="#000000">/LightManager.hpp</text>
</a>
</g>
</g>
<!-- Node0&#45;&gt;Node1 -->
<g id="edge1" class="edge">
<title>Node0&#45;&gt;Node1</title>
<path fill="none" stroke="#191970" d="M1005.2049,-492.4183C990.0676,-482.6196 972.0085,-470.9296 956.8625,-461.1253"/>
<polygon fill="#191970" stroke="#191970" points="958.6222,-458.0951 948.3255,-455.5991 954.8183,-463.9714 958.6222,-458.0951"/>
</g>
<!-- Node10 -->
<g id="node11" class="node">
<title>Node10</title>
<g id="a_node11"><a xlink:href="Light_8hpp.html" target="_top" xlink:title="../../Renderer/Light\l/Light.hpp">
<polygon fill="#ffffff" stroke="#000000" points="555.5,-291.5 555.5,-321.5 660.5,-321.5 660.5,-291.5 555.5,-291.5"/>
<text text-anchor="start" x="563.5" y="-309.5" font-family="Helvetica,sans-Serif" font-size="10.00" fill="#000000">../../Renderer/Light</text>
<text text-anchor="middle" x="608" y="-298.5" font-family="Helvetica,sans-Serif" font-size="10.00" fill="#000000">/Light.hpp</text>
</a>
</g>
</g>
<!-- Node0&#45;&gt;Node10 -->
<g id="edge57" class="edge">
<title>Node0&#45;&gt;Node10</title>
<path fill="none" stroke="#191970" d="M962.3086,-500.3682C855.6764,-480.7798 667.7225,-439.969 623,-389 609.3393,-373.4312 606.2298,-349.6851 606.163,-331.66"/>
<polygon fill="#191970" stroke="#191970" points="609.6645,-331.6471 606.4327,-321.5572 602.6669,-331.4602 609.6645,-331.6471"/>
</g>
<!-- Node24 -->
<g id="node25" class="node">
<title>Node24</title>
<polygon fill="#ffffff" stroke="#bfbfbf" points="962.5,-168.5 962.5,-187.5 1009.5,-187.5 1009.5,-168.5 962.5,-168.5"/>
<text text-anchor="middle" x="986" y="-175.5" font-family="Helvetica,sans-Serif" font-size="10.00" fill="#000000">vector</text>
</g>
<!-- Node0&#45;&gt;Node24 -->
<g id="edge59" class="edge">
<title>Node0&#45;&gt;Node24</title>
<path fill="none" stroke="#191970" d="M1038.564,-492.4017C1041.5502,-444.1305 1045.2385,-320.4887 1014,-224 1010.7779,-214.0477 1005.0235,-204.0076 999.5659,-195.8577"/>
<polygon fill="#191970" stroke="#191970" points="1002.3226,-193.6946 993.681,-187.5649 996.6139,-197.7457 1002.3226,-193.6946"/>
</g>
<!-- Node30 -->
<g id="node31" class="node">
<title>Node30</title>
<polygon fill="#ffffff" stroke="#bfbfbf" points="1028,-168.5 1028,-187.5 1086,-187.5 1086,-168.5 1028,-168.5"/>
<text text-anchor="middle" x="1057" y="-175.5" font-family="Helvetica,sans-Serif" font-size="10.00" fill="#000000">memory</text>
</g>
<!-- Node0&#45;&gt;Node30 -->
<g id="edge58" class="edge">
<title>Node0&#45;&gt;Node30</title>
<path fill="none" stroke="#191970" d="M1111.6824,-500.6354C1180.1641,-484.525 1271,-448.9376 1271,-373.5 1271,-373.5 1271,-373.5 1271,-306.5 1271,-268.8735 1278.6186,-250.5933 1252,-224 1203.5312,-175.5774 1167.7051,-202.5386 1095.9136,-187.9641"/>
<polygon fill="#191970" stroke="#191970" points="1096.5461,-184.519 1086.0218,-185.7392 1095.01,-191.3484 1096.5461,-184.519"/>
</g>
<!-- Node31 -->
<g id="node32" class="node">
<title>Node31</title>
<g id="a_node32"><a xlink:href="RadiumEngine_8hpp.html" target="_top" xlink:title="Engine/RadiumEngine.hpp">
<polygon fill="#ffffff" stroke="#000000" points="1099,-230 1099,-249 1243,-249 1243,-230 1099,-230"/>
<text text-anchor="middle" x="1171" y="-237" font-family="Helvetica,sans-Serif" font-size="10.00" fill="#000000">Engine/RadiumEngine.hpp</text>
</a>
</g>
</g>
<!-- Node0&#45;&gt;Node31 -->
<g id="edge48" class="edge">
<title>Node0&#45;&gt;Node31</title>
<path fill="none" stroke="#191970" d="M1047.0718,-492.443C1072.2447,-441.0639 1137.6131,-307.6442 1161.8135,-258.25"/>
<polygon fill="#191970" stroke="#191970" points="1165.0667,-259.565 1166.3235,-249.045 1158.7806,-256.4851 1165.0667,-259.565"/>
</g>
<!-- Node2 -->
<g id="node3" class="node">
<title>Node2</title>
<g id="a_node3"><a xlink:href="LightStorage_8hpp.html" target="_top" xlink:title="Engine/Managers/LightManager\l/LightStorage.hpp">
<polygon fill="#ffffff" stroke="#000000" points="632.5,-358.5 632.5,-388.5 801.5,-388.5 801.5,-358.5 632.5,-358.5"/>
<text text-anchor="start" x="640.5" y="-376.5" font-family="Helvetica,sans-Serif" font-size="10.00" fill="#000000">Engine/Managers/LightManager</text>
<text text-anchor="middle" x="717" y="-365.5" font-family="Helvetica,sans-Serif" font-size="10.00" fill="#000000">/LightStorage.hpp</text>
</a>
</g>
</g>
<!-- Node1&#45;&gt;Node2 -->
<g id="edge2" class="edge">
<title>Node1&#45;&gt;Node2</title>
<path fill="none" stroke="#191970" d="M878.3207,-425.4639C847.3848,-415.499 806.6084,-402.3642 773.792,-391.7936"/>
<polygon fill="#191970" stroke="#191970" points="774.4744,-388.3363 763.8829,-388.6017 772.3281,-394.9992 774.4744,-388.3363"/>
</g>
<!-- Node3 -->
<g id="node4" class="node">
<title>Node3</title>
<g id="a_node4"><a xlink:href="RaEngine_8hpp.html" target="_top" xlink:title="../../RaEngine.hpp">
<polygon fill="#ffffff" stroke="#000000" points="843.5,-168.5 843.5,-187.5 944.5,-187.5 944.5,-168.5 843.5,-168.5"/>
<text text-anchor="middle" x="894" y="-175.5" font-family="Helvetica,sans-Serif" font-size="10.00" fill="#000000">../../RaEngine.hpp</text>
</a>
</g>
</g>
<!-- Node1&#45;&gt;Node3 -->
<g id="edge42" class="edge">
<title>Node1&#45;&gt;Node3</title>
<path fill="none" stroke="#191970" d="M916.0059,-425.3141C898.3411,-394.502 859.648,-321.8789 846,-255 843.2451,-241.5004 840.5924,-236.6722 846,-224 851.1156,-212.0122 861.0575,-201.6498 870.5727,-193.8114"/>
<polygon fill="#191970" stroke="#191970" points="872.8797,-196.4532 878.6926,-187.5954 868.6246,-190.8949 872.8797,-196.4532"/>
</g>
<!-- Node29 -->
<g id="node30" class="node">
<title>Node29</title>
<g id="a_node30"><a xlink:href="System_8hpp.html" target="_top" xlink:title="Engine/System/System.hpp">
<polygon fill="#ffffff" stroke="#000000" points="855,-230 855,-249 1005,-249 1005,-230 855,-230"/>
<text text-anchor="middle" x="930" y="-237" font-family="Helvetica,sans-Serif" font-size="10.00" fill="#000000">Engine/System/System.hpp</text>
</a>
</g>
</g>
<!-- Node1&#45;&gt;Node29 -->
<g id="edge43" class="edge">
<title>Node1&#45;&gt;Node29</title>
<path fill="none" stroke="#191970" d="M925.3758,-425.3923C926.2666,-389.5844 928.5061,-299.5545 929.5053,-259.386"/>
<polygon fill="#191970" stroke="#191970" points="933.0075,-259.3402 929.7573,-249.2562 926.0096,-259.166 933.0075,-259.3402"/>
</g>
<!-- Node1&#45;&gt;Node30 -->
<g id="edge47" class="edge">
<title>Node1&#45;&gt;Node30</title>
<path fill="none" stroke="#191970" d="M932.6674,-425.2523C955.4718,-379.9027 1022.8247,-245.9622 1047.6627,-196.5684"/>
<polygon fill="#191970" stroke="#191970" points="1050.7967,-198.1266 1052.1624,-187.6202 1044.5429,-194.9818 1050.7967,-198.1266"/>
</g>
<!-- Node2&#45;&gt;Node3 -->
<g id="edge3" class="edge">
<title>Node2&#45;&gt;Node3</title>
<path fill="none" stroke="#191970" d="M723.7273,-358.2316C737.1621,-329.1201 769.7767,-264.9358 813,-224 827.0021,-210.739 845.5353,-199.851 861.34,-192.0027"/>
<polygon fill="#191970" stroke="#191970" points="863.2398,-194.9746 870.7632,-187.5148 860.2298,-188.6548 863.2398,-194.9746"/>
</g>
<!-- Node2&#45;&gt;Node10 -->
<g id="edge10" class="edge">
<title>Node2&#45;&gt;Node10</title>
<path fill="none" stroke="#191970" d="M692.5383,-358.4639C677.4977,-349.2188 658.0183,-337.2452 641.5495,-327.1222"/>
<polygon fill="#191970" stroke="#191970" points="643.1093,-323.9726 632.7572,-321.7177 639.4437,-329.9361 643.1093,-323.9726"/>
</g>
<!-- Node4 -->
<g id="node5" class="node">
<title>Node4</title>
<g id="a_node5"><a xlink:href="CoreMacros_8hpp.html" target="_top" xlink:title="Core/CoreMacros.hpp">
<polygon fill="#ffffff" stroke="#000000" points="623,-56.5 623,-75.5 743,-75.5 743,-56.5 623,-56.5"/>
<text text-anchor="middle" x="683" y="-63.5" font-family="Helvetica,sans-Serif" font-size="10.00" fill="#000000">Core/CoreMacros.hpp</text>
</a>
</g>
</g>
<!-- Node3&#45;&gt;Node4 -->
<g id="edge4" class="edge">
<title>Node3&#45;&gt;Node4</title>
<path fill="none" stroke="#191970" d="M922.9296,-168.4454C953.9076,-156.716 996.0735,-135.4708 976,-112 961.6632,-95.2367 835.2473,-80.3052 753.2153,-72.2636"/>
<polygon fill="#191970" stroke="#191970" points="753.4845,-68.7734 743.1939,-71.2937 752.8102,-75.7408 753.4845,-68.7734"/>
</g>
<!-- Node5 -->
<g id="node6" class="node">
<title>Node5</title>
<polygon fill="#ffffff" stroke="#bfbfbf" points="519,-.5 519,-19.5 571,-19.5 571,-.5 519,-.5"/>
<text text-anchor="middle" x="545" y="-7.5" font-family="Helvetica,sans-Serif" font-size="10.00" fill="#000000">cassert</text>
</g>
<!-- Node4&#45;&gt;Node5 -->
<g id="edge5" class="edge">
<title>Node4&#45;&gt;Node5</title>
<path fill="none" stroke="#191970" d="M659.277,-56.3733C636.8263,-47.2629 602.9261,-33.5062 577.8745,-23.3404"/>
<polygon fill="#191970" stroke="#191970" points="578.9957,-20.0182 568.4135,-19.5011 576.3635,-26.5045 578.9957,-20.0182"/>
</g>
<!-- Node6 -->
<g id="node7" class="node">
<title>Node6</title>
<polygon fill="#ffffff" stroke="#bfbfbf" points="589,-.5 589,-19.5 635,-19.5 635,-.5 589,-.5"/>
<text text-anchor="middle" x="612" y="-7.5" font-family="Helvetica,sans-Serif" font-size="10.00" fill="#000000">cstdio</text>
</g>
<!-- Node4&#45;&gt;Node6 -->
<g id="edge6" class="edge">
<title>Node4&#45;&gt;Node6</title>
<path fill="none" stroke="#191970" d="M670.6327,-56.2455C660.0446,-47.8943 644.5936,-35.7076 632.2107,-25.9408"/>
<polygon fill="#191970" stroke="#191970" points="634.2447,-23.0875 624.2255,-19.6427 629.9097,-28.5837 634.2447,-23.0875"/>
</g>
<!-- Node7 -->
<g id="node8" class="node">
<title>Node7</title>
<polygon fill="#ffffff" stroke="#bfbfbf" points="653,-.5 653,-19.5 713,-19.5 713,-.5 653,-.5"/>
<text text-anchor="middle" x="683" y="-7.5" font-family="Helvetica,sans-Serif" font-size="10.00" fill="#000000">iostream</text>
</g>
<!-- Node4&#45;&gt;Node7 -->
<g id="edge7" class="edge">
<title>Node4&#45;&gt;Node7</title>
<path fill="none" stroke="#191970" d="M683,-56.2455C683,-48.9382 683,-38.6944 683,-29.7046"/>
<polygon fill="#191970" stroke="#191970" points="686.5001,-29.6426 683,-19.6427 679.5001,-29.6427 686.5001,-29.6426"/>
</g>
<!-- Node8 -->
<g id="node9" class="node">
<title>Node8</title>
<polygon fill="#ffffff" stroke="#bfbfbf" points="731,-.5 731,-19.5 787,-19.5 787,-.5 731,-.5"/>
<text text-anchor="middle" x="759" y="-7.5" font-family="Helvetica,sans-Serif" font-size="10.00" fill="#000000">sstream</text>
</g>
<!-- Node4&#45;&gt;Node8 -->
<g id="edge8" class="edge">
<title>Node4&#45;&gt;Node8</title>
<path fill="none" stroke="#191970" d="M696.2382,-56.2455C707.681,-47.814 724.4296,-35.4729 737.7475,-25.6598"/>
<polygon fill="#191970" stroke="#191970" points="739.9391,-28.3924 745.9135,-19.6427 735.7867,-22.757 739.9391,-28.3924"/>
</g>
<!-- Node9 -->
<g id="node10" class="node">
<title>Node9</title>
<polygon fill="#ffffff" stroke="#bfbfbf" points="805,-.5 805,-19.5 853,-19.5 853,-.5 805,-.5"/>
<text text-anchor="middle" x="829" y="-7.5" font-family="Helvetica,sans-Serif" font-size="10.00" fill="#000000">thread</text>
</g>
<!-- Node4&#45;&gt;Node9 -->
<g id="edge9" class="edge">
<title>Node4&#45;&gt;Node9</title>
<path fill="none" stroke="#191970" d="M708.0983,-56.3733C732.1001,-47.1671 768.4713,-33.2165 795.0524,-23.021"/>
<polygon fill="#191970" stroke="#191970" points="796.631,-26.1642 804.7144,-19.315 794.1242,-19.6285 796.631,-26.1642"/>
</g>
<!-- Node10&#45;&gt;Node3 -->
<g id="edge40" class="edge">
<title>Node10&#45;&gt;Node3</title>
<path fill="none" stroke="#191970" d="M607.0677,-291.2754C606.8237,-272.6066 609.4887,-241.3178 628,-224 628.9429,-223.1178 754.7897,-201.6264 833.0252,-188.3356"/>
<polygon fill="#191970" stroke="#191970" points="833.9866,-191.7225 843.2594,-186.5976 832.8146,-184.8213 833.9866,-191.7225"/>
</g>
<!-- Node11 -->
<g id="node12" class="node">
<title>Node11</title>
<g id="a_node12"><a xlink:href="Color_8hpp.html" target="_top" xlink:title="Core/Utils/Color.hpp">
<polygon fill="#ffffff" stroke="#000000" points="467.5,-230 467.5,-249 580.5,-249 580.5,-230 467.5,-230"/>
<text text-anchor="middle" x="524" y="-237" font-family="Helvetica,sans-Serif" font-size="10.00" fill="#000000">Core/Utils/Color.hpp</text>
</a>
</g>
</g>
<!-- Node10&#45;&gt;Node11 -->
<g id="edge11" class="edge">
<title>Node10&#45;&gt;Node11</title>
<path fill="none" stroke="#191970" d="M588.9391,-291.2967C575.4703,-280.5537 557.4615,-266.1895 543.8252,-255.3129"/>
<polygon fill="#191970" stroke="#191970" points="545.9796,-252.5544 535.9794,-249.055 541.6147,-258.0268 545.9796,-252.5544"/>
</g>
<!-- Node20 -->
<g id="node21" class="node">
<title>Node20</title>
<g id="a_node21"><a xlink:href="Component_8hpp.html" target="_top" xlink:title="Engine/Component/Component.hpp">
<polygon fill="#ffffff" stroke="#000000" points="260.5,-230 260.5,-249 449.5,-249 449.5,-230 260.5,-230"/>
<text text-anchor="middle" x="355" y="-237" font-family="Helvetica,sans-Serif" font-size="10.00" fill="#000000">Engine/Component/Component.hpp</text>
</a>
</g>
</g>
<!-- Node10&#45;&gt;Node20 -->
<g id="edge23" class="edge">
<title>Node10&#45;&gt;Node20</title>
<path fill="none" stroke="#191970" d="M555.2709,-292.5362C509.5908,-280.4391 444.1832,-263.1177 400.693,-251.6005"/>
<polygon fill="#191970" stroke="#191970" points="401.5114,-248.1967 390.9486,-249.02 399.7194,-254.9634 401.5114,-248.1967"/>
</g>
<!-- Node28 -->
<g id="node29" class="node">
<title>Node28</title>
<g id="a_node29"><a xlink:href="Light_8inl.html" target="_top" xlink:title="Engine/Renderer/Light\l/Light.inl">
<polygon fill="#ffffff" stroke="#000000" points="637.5,-224.5 637.5,-254.5 760.5,-254.5 760.5,-224.5 637.5,-224.5"/>
<text text-anchor="start" x="645.5" y="-242.5" font-family="Helvetica,sans-Serif" font-size="10.00" fill="#000000">Engine/Renderer/Light</text>
<text text-anchor="middle" x="699" y="-231.5" font-family="Helvetica,sans-Serif" font-size="10.00" fill="#000000">/Light.inl</text>
</a>
</g>
</g>
<!-- Node10&#45;&gt;Node28 -->
<g id="edge41" class="edge">
<title>Node10&#45;&gt;Node28</title>
<path fill="none" stroke="#191970" d="M628.6493,-291.2967C640.9823,-282.2163 656.8292,-270.5488 670.3594,-260.587"/>
<polygon fill="#191970" stroke="#191970" points="672.4548,-263.3907 678.4324,-254.6432 668.3045,-257.7537 672.4548,-263.3907"/>
</g>
<!-- Node11&#45;&gt;Node4 -->
<g id="edge12" class="edge">
<title>Node11&#45;&gt;Node4</title>
<path fill="none" stroke="#191970" d="M580.5147,-231.3444C608.3996,-224.4094 640.2143,-211.6065 660,-188 684.3621,-158.9333 686.1,-112.186 684.8053,-85.796"/>
<polygon fill="#191970" stroke="#191970" points="688.2777,-85.275 684.0948,-75.5409 681.2944,-85.7589 688.2777,-85.275"/>
</g>
<!-- Node12 -->
<g id="node13" class="node">
<title>Node12</title>
<g id="a_node13"><a xlink:href="Math_8hpp.html" target="_top" xlink:title="Core/Math/Math.hpp">
<polygon fill="#ffffff" stroke="#000000" points="711,-168.5 711,-187.5 825,-187.5 825,-168.5 711,-168.5"/>
<text text-anchor="middle" x="768" y="-175.5" font-family="Helvetica,sans-Serif" font-size="10.00" fill="#000000">Core/Math/Math.hpp</text>
</a>
</g>
</g>
<!-- Node11&#45;&gt;Node12 -->
<g id="edge13" class="edge">
<title>Node11&#45;&gt;Node12</title>
<path fill="none" stroke="#191970" d="M561.8573,-229.9581C604.5071,-219.2082 673.9064,-201.7162 720.2456,-190.0365"/>
<polygon fill="#191970" stroke="#191970" points="721.2126,-193.4023 730.0539,-187.5643 719.5017,-186.6146 721.2126,-193.4023"/>
</g>
<!-- Node17 -->
<g id="node18" class="node">
<title>Node17</title>
<polygon fill="#ffffff" stroke="#bfbfbf" points="371.5,-112.5 371.5,-131.5 440.5,-131.5 440.5,-112.5 371.5,-112.5"/>
<text text-anchor="middle" x="406" y="-119.5" font-family="Helvetica,sans-Serif" font-size="10.00" fill="#000000">Eigen/Core</text>
</g>
<!-- Node11&#45;&gt;Node17 -->
<g id="edge20" class="edge">
<title>Node11&#45;&gt;Node17</title>
<path fill="none" stroke="#191970" d="M525.2812,-229.5619C526.6485,-214.5883 526.9913,-186.0755 513,-168 504.2917,-156.7497 472.8269,-143.9686 446.2544,-134.739"/>
<polygon fill="#191970" stroke="#191970" points="447.3315,-131.4085 436.7372,-131.5087 445.0816,-138.0371 447.3315,-131.4085"/>
</g>
<!-- Node18 -->
<g id="node19" class="node">
<title>Node18</title>
<polygon fill="#ffffff" stroke="#bfbfbf" points="258.5,-112.5 258.5,-131.5 353.5,-131.5 353.5,-112.5 258.5,-112.5"/>
<text text-anchor="middle" x="306" y="-119.5" font-family="Helvetica,sans-Serif" font-size="10.00" fill="#000000">Eigen/Geometry</text>
</g>
<!-- Node11&#45;&gt;Node18 -->
<g id="edge21" class="edge">
<title>Node11&#45;&gt;Node18</title>
<path fill="none" stroke="#191970" d="M506.1601,-229.8845C467.9008,-209.2631 377.7859,-160.692 332.6863,-136.3837"/>
<polygon fill="#191970" stroke="#191970" points="334.244,-133.2473 323.7806,-131.5836 330.9228,-139.4092 334.244,-133.2473"/>
</g>
<!-- Node19 -->
<g id="node20" class="node">
<title>Node19</title>
<polygon fill="#ffffff" stroke="#bfbfbf" points="450,-168.5 450,-187.5 504,-187.5 504,-168.5 450,-168.5"/>
<text text-anchor="middle" x="477" y="-175.5" font-family="Helvetica,sans-Serif" font-size="10.00" fill="#000000">random</text>
</g>
<!-- Node11&#45;&gt;Node19 -->
<g id="edge22" class="edge">
<title>Node11&#45;&gt;Node19</title>
<path fill="none" stroke="#191970" d="M516.6563,-229.8906C509.7298,-220.8273 499.174,-207.0149 490.694,-195.9188"/>
<polygon fill="#191970" stroke="#191970" points="493.3003,-193.565 484.4473,-187.7449 487.7385,-197.8155 493.3003,-193.565"/>
</g>
<!-- Node13 -->
<g id="node14" class="node">
<title>Node13</title>
<g id="a_node14"><a xlink:href="RaCore_8hpp.html" target="_top" xlink:title="Core/RaCore.hpp">
<polygon fill="#ffffff" stroke="#000000" points="557,-112.5 557,-131.5 655,-131.5 655,-112.5 557,-112.5"/>
<text text-anchor="middle" x="606" y="-119.5" font-family="Helvetica,sans-Serif" font-size="10.00" fill="#000000">Core/RaCore.hpp</text>
</a>
</g>
</g>
<!-- Node12&#45;&gt;Node13 -->
<g id="edge14" class="edge">
<title>Node12&#45;&gt;Node13</title>
<path fill="none" stroke="#191970" d="M740.1512,-168.3733C713.3297,-159.1016 672.5873,-145.0178 643.0402,-134.804"/>
<polygon fill="#191970" stroke="#191970" points="644.0802,-131.4603 633.4854,-131.5011 641.7931,-138.0762 644.0802,-131.4603"/>
</g>
<!-- Node14 -->
<g id="node15" class="node">
<title>Node14</title>
<polygon fill="#ffffff" stroke="#bfbfbf" points="711,-112.5 711,-131.5 775,-131.5 775,-112.5 711,-112.5"/>
<text text-anchor="middle" x="743" y="-119.5" font-family="Helvetica,sans-Serif" font-size="10.00" fill="#000000">algorithm</text>
</g>
<!-- Node12&#45;&gt;Node14 -->
<g id="edge16" class="edge">
<title>Node12&#45;&gt;Node14</title>
<path fill="none" stroke="#191970" d="M763.6453,-168.2455C760.2756,-160.6973 755.507,-150.0158 751.4017,-140.8197"/>
<polygon fill="#191970" stroke="#191970" points="754.5773,-139.3473 747.3048,-131.6427 748.1853,-142.2009 754.5773,-139.3473"/>
</g>
<!-- Node15 -->
<g id="node16" class="node">
<title>Node15</title>
<polygon fill="#ffffff" stroke="#bfbfbf" points="793.5,-112.5 793.5,-131.5 840.5,-131.5 840.5,-112.5 793.5,-112.5"/>
<text text-anchor="middle" x="817" y="-119.5" font-family="Helvetica,sans-Serif" font-size="10.00" fill="#000000">cmath</text>
</g>
<!-- Node12&#45;&gt;Node15 -->
<g id="edge17" class="edge">
<title>Node12&#45;&gt;Node15</title>
<path fill="none" stroke="#191970" d="M776.5351,-168.2455C783.4912,-160.2958 793.4883,-148.8706 801.8051,-139.3656"/>
<polygon fill="#191970" stroke="#191970" points="804.6116,-141.4732 808.5627,-131.6427 799.3436,-136.8637 804.6116,-141.4732"/>
</g>
<!-- Node16 -->
<g id="node17" class="node">
<title>Node16</title>
<g id="a_node17"><a xlink:href="Math_8inl.html" target="_top" xlink:title="Core/Math/Math.inl">
<polygon fill="#ffffff" stroke="#000000" points="859,-112.5 859,-131.5 967,-131.5 967,-112.5 859,-112.5"/>
<text text-anchor="middle" x="913" y="-119.5" font-family="Helvetica,sans-Serif" font-size="10.00" fill="#000000">Core/Math/Math.inl</text>
</a>
</g>
</g>
<!-- Node12&#45;&gt;Node16 -->
<g id="edge18" class="edge">
<title>Node12&#45;&gt;Node16</title>
<path fill="none" stroke="#191970" d="M787.6844,-168.3733C809.781,-159.1419 845.8516,-145.1402 873.7076,-134.9375"/>
<polygon fill="#191970" stroke="#191970" points="874.9743,-138.2012 883.1816,-131.5011 872.5874,-131.6207 874.9743,-138.2012"/>
</g>
<!-- Node13&#45;&gt;Node4 -->
<g id="edge15" class="edge">
<title>Node13&#45;&gt;Node4</title>
<path fill="none" stroke="#191970" d="M619.4124,-112.2455C631.0057,-103.814 647.9748,-91.4729 661.4678,-81.6598"/>
<polygon fill="#191970" stroke="#191970" points="663.7126,-84.355 669.7413,-75.6427 659.5953,-78.6938 663.7126,-84.355"/>
</g>
<!-- Node16&#45;&gt;Node12 -->
<g id="edge19" class="edge">
<title>Node16&#45;&gt;Node12</title>
<path fill="none" stroke="#191970" d="M893.6162,-131.5011C871.6471,-140.6889 835.6031,-154.686 807.6729,-164.9231"/>
<polygon fill="#191970" stroke="#191970" points="806.374,-161.6711 798.1684,-168.3733 808.7625,-168.251 806.374,-161.6711"/>
</g>
<!-- Node20&#45;&gt;Node3 -->
<g id="edge31" class="edge">
<title>Node20&#45;&gt;Node3</title>
<path fill="none" stroke="#191970" d="M414.5648,-229.9784C428.7774,-227.8611 443.9108,-225.7333 458,-224 621.3649,-203.9022 665.8237,-209.5762 833.1503,-188.0262"/>
<polygon fill="#191970" stroke="#191970" points="833.8334,-191.4669 843.2981,-186.7055 832.93,-184.5254 833.8334,-191.4669"/>
</g>
<!-- Node20&#45;&gt;Node17 -->
<g id="edge29" class="edge">
<title>Node20&#45;&gt;Node17</title>
<path fill="none" stroke="#191970" d="M359.1735,-229.8845C367.5789,-210.5192 386.6827,-166.5055 397.7167,-141.084"/>
<polygon fill="#191970" stroke="#191970" points="400.9978,-142.3151 401.7688,-131.7484 394.5766,-139.528 400.9978,-142.3151"/>
</g>
<!-- Node20&#45;&gt;Node18 -->
<g id="edge30" class="edge">
<title>Node20&#45;&gt;Node18</title>
<path fill="none" stroke="#191970" d="M351.136,-229.7541C345.648,-215.963 335.2352,-189.9826 326,-168 322.2592,-159.0958 318.006,-149.2732 314.3863,-140.999"/>
<polygon fill="#191970" stroke="#191970" points="317.5893,-139.5877 310.3625,-131.8402 311.1805,-142.4034 317.5893,-139.5877"/>
</g>
<!-- Node21 -->
<g id="node22" class="node">
<title>Node21</title>
<g id="a_node22"><a xlink:href="Index_8hpp.html" target="_top" xlink:title="Core/Utils/Index.hpp">
<polygon fill="#ffffff" stroke="#000000" points="0,-168.5 0,-187.5 116,-187.5 116,-168.5 0,-168.5"/>
<text text-anchor="middle" x="58" y="-175.5" font-family="Helvetica,sans-Serif" font-size="10.00" fill="#000000">Core/Utils/Index.hpp</text>
</a>
</g>
</g>
<!-- Node20&#45;&gt;Node21 -->
<g id="edge24" class="edge">
<title>Node20&#45;&gt;Node21</title>
<path fill="none" stroke="#191970" d="M308.9196,-229.9581C256.3527,-219.073 170.4017,-201.2751 114.0123,-189.5985"/>
<polygon fill="#191970" stroke="#191970" points="114.6905,-186.1648 104.1885,-187.5643 113.271,-193.0193 114.6905,-186.1648"/>
</g>
<!-- Node20&#45;&gt;Node24 -->
<g id="edge32" class="edge">
<title>Node20&#45;&gt;Node24</title>
<path fill="none" stroke="#191970" d="M412.912,-229.9864C427.5922,-227.7948 443.3527,-225.6312 458,-224 674.3413,-199.9069 735.0278,-228.3497 952.2608,-187.9565"/>
<polygon fill="#191970" stroke="#191970" points="953.2118,-191.3389 962.3891,-186.0448 951.9134,-184.4604 953.2118,-191.3389"/>
</g>
<!-- Node25 -->
<g id="node26" class="node">
<title>Node25</title>
<g id="a_node26"><a xlink:href="Types_8hpp.html" target="_top" xlink:title="Core/Types.hpp">
<polygon fill="#ffffff" stroke="#000000" points="560.5,-168.5 560.5,-187.5 651.5,-187.5 651.5,-168.5 560.5,-168.5"/>
<text text-anchor="middle" x="606" y="-175.5" font-family="Helvetica,sans-Serif" font-size="10.00" fill="#000000">Core/Types.hpp</text>
</a>
</g>
</g>
<!-- Node20&#45;&gt;Node25 -->
<g id="edge33" class="edge">
<title>Node20&#45;&gt;Node25</title>
<path fill="none" stroke="#191970" d="M393.9434,-229.9581C437.9087,-219.1857 509.5065,-201.6428 557.1751,-189.9631"/>
<polygon fill="#191970" stroke="#191970" points="558.0855,-193.3436 566.9653,-187.5643 556.4196,-186.5447 558.0855,-193.3436"/>
</g>
<!-- Node27 -->
<g id="node28" class="node">
<title>Node27</title>
<g id="a_node28"><a xlink:href="Component_8inl.html" target="_top" xlink:title="Engine/Component/Component.inl">
<polygon fill="#ffffff" stroke="#000000" points="134.5,-168.5 134.5,-187.5 317.5,-187.5 317.5,-168.5 134.5,-168.5"/>
<text text-anchor="middle" x="226" y="-175.5" font-family="Helvetica,sans-Serif" font-size="10.00" fill="#000000">Engine/Component/Component.inl</text>
</a>
</g>
</g>
<!-- Node20&#45;&gt;Node27 -->
<g id="edge38" class="edge">
<title>Node20&#45;&gt;Node27</title>
<path fill="none" stroke="#191970" d="M329.7813,-229.8906C306.6033,-219.7811 272.7607,-203.7628 249.9853,-192.1962"/>
<polygon fill="#191970" stroke="#191970" points="251.4571,-189.0172 240.9654,-187.5419 248.2471,-195.2378 251.4571,-189.0172"/>
</g>
<!-- Node21&#45;&gt;Node13 -->
<g id="edge25" class="edge">
<title>Node21&#45;&gt;Node13</title>
<path fill="none" stroke="#191970" d="M116.0747,-169.1025C119.0909,-168.7123 122.0797,-168.3418 125,-168 309.1974,-146.4376 359.1627,-155.7191 547.069,-132.0195"/>
<polygon fill="#191970" stroke="#191970" points="547.5202,-135.4904 556.9969,-130.7531 546.6344,-128.5467 547.5202,-135.4904"/>
</g>
<!-- Node22 -->
<g id="node23" class="node">
<title>Node22</title>
<polygon fill="#ffffff" stroke="#bfbfbf" points="131,-112.5 131,-131.5 175,-131.5 175,-112.5 131,-112.5"/>
<text text-anchor="middle" x="153" y="-119.5" font-family="Helvetica,sans-Serif" font-size="10.00" fill="#000000">limits</text>
</g>
<!-- Node21&#45;&gt;Node22 -->
<g id="edge26" class="edge">
<title>Node21&#45;&gt;Node22</title>
<path fill="none" stroke="#191970" d="M74.5477,-168.2455C89.2599,-159.5731 110.9888,-146.7645 127.8505,-136.825"/>
<polygon fill="#191970" stroke="#191970" points="129.8046,-139.736 136.6419,-131.6427 126.2498,-133.7057 129.8046,-139.736"/>
</g>
<!-- Node23 -->
<g id="node24" class="node">
<title>Node23</title>
<g id="a_node24"><a xlink:href="Index_8inl.html" target="_top" xlink:title="Core/Utils/Index.inl">
<polygon fill="#ffffff" stroke="#000000" points="3,-112.5 3,-131.5 113,-131.5 113,-112.5 3,-112.5"/>
<text text-anchor="middle" x="58" y="-119.5" font-family="Helvetica,sans-Serif" font-size="10.00" fill="#000000">Core/Utils/Index.inl</text>
</a>
</g>
</g>
<!-- Node21&#45;&gt;Node23 -->
<g id="edge27" class="edge">
<title>Node21&#45;&gt;Node23</title>
<path fill="none" stroke="#191970" d="M52.7332,-168.2455C51.3221,-160.9382 50.9179,-150.6944 51.5205,-141.7046"/>
<polygon fill="#191970" stroke="#191970" points="55.0111,-141.9945 52.7549,-131.6427 48.0632,-141.1421 55.0111,-141.9945"/>
</g>
<!-- Node23&#45;&gt;Node21 -->
<g id="edge28" class="edge">
<title>Node23&#45;&gt;Node21</title>
<path fill="none" stroke="#191970" d="M63.2451,-131.6427C64.6665,-138.9199 65.081,-149.155 64.4887,-158.1575"/>
<polygon fill="#191970" stroke="#191970" points="60.9947,-157.8972 63.2668,-168.2455 67.9439,-158.739 60.9947,-157.8972"/>
</g>
<!-- Node25&#45;&gt;Node13 -->
<g id="edge34" class="edge">
<title>Node25&#45;&gt;Node13</title>
<path fill="none" stroke="#191970" d="M606,-168.2455C606,-160.9382 606,-150.6944 606,-141.7046"/>
<polygon fill="#191970" stroke="#191970" points="609.5001,-141.6426 606,-131.6427 602.5001,-141.6427 609.5001,-141.6426"/>
</g>
<!-- Node25&#45;&gt;Node17 -->
<g id="edge35" class="edge">
<title>Node25&#45;&gt;Node17</title>
<path fill="none" stroke="#191970" d="M571.6188,-168.3733C537.9299,-158.9404 486.4518,-144.5265 449.8382,-134.2747"/>
<polygon fill="#191970" stroke="#191970" points="450.506,-130.8271 439.9326,-131.5011 448.6185,-137.5679 450.506,-130.8271"/>
</g>
<!-- Node25&#45;&gt;Node18 -->
<g id="edge36" class="edge">
<title>Node25&#45;&gt;Node18</title>
<path fill="none" stroke="#191970" d="M560.4365,-169.4948C507.8623,-159.681 421.3074,-143.5241 363.9784,-132.8226"/>
<polygon fill="#191970" stroke="#191970" points="364.4543,-129.3511 353.9818,-130.9566 363.1698,-136.2322 364.4543,-129.3511"/>
</g>
<!-- Node26 -->
<g id="node27" class="node">
<title>Node26</title>
<polygon fill="#ffffff" stroke="#bfbfbf" points="459,-112.5 459,-131.5 539,-131.5 539,-112.5 459,-112.5"/>
<text text-anchor="middle" x="499" y="-119.5" font-family="Helvetica,sans-Serif" font-size="10.00" fill="#000000">Eigen/Sparse</text>
</g>
<!-- Node25&#45;&gt;Node26 -->
<g id="edge37" class="edge">
<title>Node25&#45;&gt;Node26</title>
<path fill="none" stroke="#191970" d="M587.362,-168.2455C570.5614,-159.4527 545.6366,-146.4079 526.5382,-136.4125"/>
<polygon fill="#191970" stroke="#191970" points="527.9073,-133.1787 517.4244,-131.6427 524.6614,-139.3807 527.9073,-133.1787"/>
</g>
<!-- Node27&#45;&gt;Node20 -->
<g id="edge39" class="edge">
<title>Node27&#45;&gt;Node20</title>
<path fill="none" stroke="#191970" d="M251.064,-187.5419C274.1944,-197.6251 308.0377,-213.6401 330.8623,-225.2264"/>
<polygon fill="#191970" stroke="#191970" points="329.4143,-228.4176 339.9063,-229.8906 332.6229,-222.1963 329.4143,-228.4176"/>
</g>
<!-- Node29&#45;&gt;Node3 -->
<g id="edge44" class="edge">
<title>Node29&#45;&gt;Node3</title>
<path fill="none" stroke="#191970" d="M924.375,-229.8906C919.1747,-221.0068 911.3034,-207.5601 904.8767,-196.5811"/>
<polygon fill="#191970" stroke="#191970" points="907.7767,-194.6069 899.7043,-187.7449 901.7356,-198.1432 907.7767,-194.6069"/>
</g>
<!-- Node29&#45;&gt;Node24 -->
<g id="edge46" class="edge">
<title>Node29&#45;&gt;Node24</title>
<path fill="none" stroke="#191970" d="M938.75,-229.8906C947.1662,-220.6478 960.0797,-206.466 970.281,-195.2628"/>
<polygon fill="#191970" stroke="#191970" points="972.9818,-197.4953 977.1266,-187.7449 967.806,-192.7824 972.9818,-197.4953"/>
</g>
<!-- Node29&#45;&gt;Node30 -->
<g id="edge45" class="edge">
<title>Node29&#45;&gt;Node30</title>
<path fill="none" stroke="#191970" d="M949.8438,-229.8906C970.8136,-219.7359 1004.0944,-203.6196 1028.0036,-192.0416"/>
<polygon fill="#191970" stroke="#191970" points="1029.8208,-195.0504 1037.2956,-187.5419 1026.7699,-188.7502 1029.8208,-195.0504"/>
</g>
<!-- Node31&#45;&gt;Node3 -->
<g id="edge49" class="edge">
<title>Node31&#45;&gt;Node3</title>
<path fill="none" stroke="#191970" d="M1128.0227,-229.9581C1079.1986,-219.1181 999.4959,-201.4224 946.8951,-189.7439"/>
<polygon fill="#191970" stroke="#191970" points="947.5991,-186.315 937.0781,-187.5643 946.0818,-193.1486 947.5991,-186.315"/>
</g>
<!-- Node31&#45;&gt;Node24 -->
<g id="edge56" class="edge">
<title>Node31&#45;&gt;Node24</title>
<path fill="none" stroke="#191970" d="M1142.0938,-229.8906C1108.8887,-218.8522 1054.4929,-200.7693 1019.4766,-189.1287"/>
<polygon fill="#191970" stroke="#191970" points="1020.306,-185.7162 1009.7125,-185.8828 1018.0977,-192.3587 1020.306,-185.7162"/>
</g>
<!-- Node31&#45;&gt;Node25 -->
<g id="edge50" class="edge">
<title>Node31&#45;&gt;Node25</title>
<path fill="none" stroke="#191970" d="M1098.8685,-231.6485C984.6848,-219.2197 764.7193,-195.2765 661.7373,-184.067"/>
<polygon fill="#191970" stroke="#191970" points="661.87,-180.5608 651.5499,-182.9581 661.1125,-187.5197 661.87,-180.5608"/>
</g>
<!-- Node31&#45;&gt;Node30 -->
<g id="edge54" class="edge">
<title>Node31&#45;&gt;Node30</title>
<path fill="none" stroke="#191970" d="M1153.1875,-229.8906C1134.5315,-219.8262 1105.0203,-203.9057 1083.6026,-192.3514"/>
<polygon fill="#191970" stroke="#191970" points="1085.1502,-189.2095 1074.6874,-187.5419 1081.8266,-195.3702 1085.1502,-189.2095"/>
</g>
<!-- Node32 -->
<g id="node33" class="node">
<title>Node32</title>
<g id="a_node33"><a xlink:href="Singleton_8hpp.html" target="_top" xlink:title="Core/Utils/Singleton.hpp">
<polygon fill="#ffffff" stroke="#000000" points="1104,-168.5 1104,-187.5 1238,-187.5 1238,-168.5 1104,-168.5"/>
<text text-anchor="middle" x="1171" y="-175.5" font-family="Helvetica,sans-Serif" font-size="10.00" fill="#000000">Core/Utils/Singleton.hpp</text>
</a>
</g>
</g>
<!-- Node31&#45;&gt;Node32 -->
<g id="edge51" class="edge">
<title>Node31&#45;&gt;Node32</title>
<path fill="none" stroke="#191970" d="M1171,-229.8906C1171,-221.3657 1171,-208.6392 1171,-197.9235"/>
<polygon fill="#191970" stroke="#191970" points="1174.5001,-197.7448 1171,-187.7449 1167.5001,-197.7449 1174.5001,-197.7448"/>
</g>
<!-- Node33 -->
<g id="node34" class="node">
<title>Node33</title>
<polygon fill="#ffffff" stroke="#bfbfbf" points="1256,-168.5 1256,-187.5 1294,-187.5 1294,-168.5 1256,-168.5"/>
<text text-anchor="middle" x="1275" y="-175.5" font-family="Helvetica,sans-Serif" font-size="10.00" fill="#000000">map</text>
</g>
<!-- Node31&#45;&gt;Node33 -->
<g id="edge53" class="edge">
<title>Node31&#45;&gt;Node33</title>
<path fill="none" stroke="#191970" d="M1187.25,-229.8906C1204.1169,-219.9165 1230.7099,-204.1908 1250.2035,-192.6633"/>
<polygon fill="#191970" stroke="#191970" points="1252.038,-195.6447 1258.8641,-187.5419 1248.4749,-189.6194 1252.038,-195.6447"/>
</g>
<!-- Node34 -->
<g id="node35" class="node">
<title>Node34</title>
<polygon fill="#ffffff" stroke="#bfbfbf" points="1312,-168.5 1312,-187.5 1356,-187.5 1356,-168.5 1312,-168.5"/>
<text text-anchor="middle" x="1334" y="-175.5" font-family="Helvetica,sans-Serif" font-size="10.00" fill="#000000">string</text>
</g>
<!-- Node31&#45;&gt;Node34 -->
<g id="edge55" class="edge">
<title>Node31&#45;&gt;Node34</title>
<path fill="none" stroke="#191970" d="M1196.4688,-229.8906C1225.07,-219.0993 1271.5152,-201.5755 1302.4066,-189.9202"/>
<polygon fill="#191970" stroke="#191970" points="1303.7268,-193.163 1311.8475,-186.3582 1301.2557,-186.6137 1303.7268,-193.163"/>
</g>
<!-- Node32&#45;&gt;Node13 -->
<g id="edge52" class="edge">
<title>Node32&#45;&gt;Node13</title>
<path fill="none" stroke="#191970" d="M1103.8807,-169.0224C1100.8807,-168.6672 1097.9098,-168.3246 1095,-168 920.6832,-148.5555 876.5637,-149.0865 702,-132 690.1436,-130.8395 677.4687,-129.5523 665.3443,-128.2983"/>
<polygon fill="#191970" stroke="#191970" points="665.6276,-124.809 655.3193,-127.2563 664.9038,-131.7715 665.6276,-124.809"/>
</g>
</g>
</svg>
