<?xml version="1.0" encoding="UTF-8" standalone="no"?>
<!DOCTYPE svg PUBLIC "-//W3C//DTD SVG 1.1//EN"
 "http://www.w3.org/Graphics/SVG/1.1/DTD/svg11.dtd">
<!-- Generated by graphviz version 2.40.1 (20161225.0304)
 -->
<!-- Title: src/Engine/Managers/LightManager/DefaultLightManager.cpp Pages: 1 -->
<!--zoomable 609 -->
<svg id="main" version="1.1" xmlns="http://www.w3.org/2000/svg" xmlns:xlink="http://www.w3.org/1999/xlink" xml:space="preserve" onload="init(evt)">
<style type="text/css"><![CDATA[
.edge:hover path { stroke: red; }
.edge:hover polygon { stroke: red; fill: red; }
]]></style>
<script type="text/javascript"><![CDATA[
var edges = document.getElementsByTagName('g');
if (edges && edges.length) {
  for (var i=0;i<edges.length;i++) {
    if (edges[i].id.substr(0,4)=='edge') {
      edges[i].setAttribute('class','edge');
    }
  }
}
]]></script>
        <defs>
                <circle id="rim" cx="0" cy="0" r="7"/>
                <circle id="rim2" cx="0" cy="0" r="3.5"/>
                <g id="zoomPlus">
                        <use xlink:href="#rim" fill="#404040">
                                <set attributeName="fill" to="#808080" begin="zoomplus.mouseover" end="zoomplus.mouseout"/>
                        </use>
                        <path d="M-4,0h8M0,-4v8" fill="none" stroke="white" stroke-width="1.5" pointer-events="none"/>
                </g>
                <g id="zoomMin">
                        <use xlink:href="#rim" fill="#404040">
                                <set attributeName="fill" to="#808080" begin="zoomminus.mouseover" end="zoomminus.mouseout"/>
                        </use>
                        <path d="M-4,0h8" fill="none" stroke="white" stroke-width="1.5" pointer-events="none"/>
                </g>
                <g id="dirArrow">
                        <path fill="none" stroke="white" stroke-width="1.5" d="M0,-3.0v7 M-2.5,-0.5L0,-3.0L2.5,-0.5"/>
                </g>
               <g id="resetDef">
                       <use xlink:href="#rim2" fill="#404040">
                               <set attributeName="fill" to="#808080" begin="reset.mouseover" end="reset.mouseout"/>
                       </use>
               </g>
        </defs>

<script type="text/javascript">
var viewWidth = 1443;
var viewHeight = 609;
var sectionId = 'dynsection-0';
</script>
<script xlink:href="svgpan.js"/>
<svg id="graph" class="graph">
<g id="viewport">
<title>src/Engine/Managers/LightManager/DefaultLightManager.cpp</title>
<polygon fill="#ffffff" stroke="transparent" points="-4,4 -4,-605 1439,-605 1439,4 -4,4"/>
<!-- Node0 -->
<g id="node1" class="node">
<title>Node0</title>
<polygon fill="#bfbfbf" stroke="#000000" points="224.5,-559.5 224.5,-600.5 373.5,-600.5 373.5,-559.5 224.5,-559.5"/>
<text text-anchor="start" x="232.5" y="-588.5" font-family="Helvetica,sans-Serif" font-size="10.00" fill="#000000">src/Engine/Managers</text>
<text text-anchor="start" x="232.5" y="-577.5" font-family="Helvetica,sans-Serif" font-size="10.00" fill="#000000">/LightManager/DefaultLight</text>
<text text-anchor="middle" x="299" y="-566.5" font-family="Helvetica,sans-Serif" font-size="10.00" fill="#000000">Manager.cpp</text>
</g>
<!-- Node1 -->
<g id="node2" class="node">
<title>Node1</title>
<g id="a_node2"><a xlink:href="DefaultLightManager_8hpp.html" target="_top" xlink:title="Engine/Managers/LightManager\l/DefaultLightManager.hpp">
<polygon fill="#ffffff" stroke="#000000" points="424.5,-492.5 424.5,-522.5 593.5,-522.5 593.5,-492.5 424.5,-492.5"/>
<text text-anchor="start" x="432.5" y="-510.5" font-family="Helvetica,sans-Serif" font-size="10.00" fill="#000000">Engine/Managers/LightManager</text>
<text text-anchor="middle" x="509" y="-499.5" font-family="Helvetica,sans-Serif" font-size="10.00" fill="#000000">/DefaultLightManager.hpp</text>
</a>
</g>
</g>
<!-- Node0&#45;&gt;Node1 -->
<g id="edge1" class="edge">
<title>Node0&#45;&gt;Node1</title>
<path fill="none" stroke="#191970" d="M358.6159,-559.4183C389.1204,-548.887 425.9531,-536.171 455.5315,-525.9594"/>
<polygon fill="#191970" stroke="#191970" points="456.9543,-529.1709 465.2647,-522.5991 454.6699,-522.5542 456.9543,-529.1709"/>
</g>
<!-- Node32 -->
<g id="node33" class="node">
<title>Node32</title>
<g id="a_node33"><a xlink:href="RadiumEngine_8hpp.html" target="_top" xlink:title="Engine/RadiumEngine.hpp">
<polygon fill="#ffffff" stroke="#000000" points="73,-230 73,-249 217,-249 217,-230 73,-230"/>
<text text-anchor="middle" x="145" y="-237" font-family="Helvetica,sans-Serif" font-size="10.00" fill="#000000">Engine/RadiumEngine.hpp</text>
</a>
</g>
</g>
<!-- Node0&#45;&gt;Node32 -->
<g id="edge61" class="edge">
<title>Node0&#45;&gt;Node32</title>
<path fill="none" stroke="#191970" d="M251.765,-559.4853C208.4517,-537.111 151,-496.8185 151,-440.5 151,-440.5 151,-440.5 151,-373.5 151,-332.9293 148.2212,-285.5183 146.4457,-259.3671"/>
<polygon fill="#191970" stroke="#191970" points="149.927,-258.9756 145.7357,-249.2451 142.9441,-259.4655 149.927,-258.9756"/>
</g>
<!-- Node2 -->
<g id="node3" class="node">
<title>Node2</title>
<g id="a_node3"><a xlink:href="LightManager_8hpp.html" target="_top" xlink:title="Engine/Managers/LightManager\l/LightManager.hpp">
<polygon fill="#ffffff" stroke="#000000" points="368.5,-425.5 368.5,-455.5 537.5,-455.5 537.5,-425.5 368.5,-425.5"/>
<text text-anchor="start" x="376.5" y="-443.5" font-family="Helvetica,sans-Serif" font-size="10.00" fill="#000000">Engine/Managers/LightManager</text>
<text text-anchor="middle" x="453" y="-432.5" font-family="Helvetica,sans-Serif" font-size="10.00" fill="#000000">/LightManager.hpp</text>
</a>
</g>
</g>
<!-- Node1&#45;&gt;Node2 -->
<g id="edge2" class="edge">
<title>Node1&#45;&gt;Node2</title>
<path fill="none" stroke="#191970" d="M496.2927,-492.2967C489.2044,-483.816 480.2298,-473.0785 472.2921,-463.5817"/>
<polygon fill="#191970" stroke="#191970" points="474.7556,-461.0714 465.657,-455.6432 469.3846,-465.5606 474.7556,-461.0714"/>
</g>
<!-- Node11 -->
<g id="node12" class="node">
<title>Node11</title>
<g id="a_node12"><a xlink:href="Light_8hpp.html" target="_top" xlink:title="../../Renderer/Light\l/Light.hpp">
<polygon fill="#ffffff" stroke="#000000" points="598.5,-291.5 598.5,-321.5 703.5,-321.5 703.5,-291.5 598.5,-291.5"/>
<text text-anchor="start" x="606.5" y="-309.5" font-family="Helvetica,sans-Serif" font-size="10.00" fill="#000000">../../Renderer/Light</text>
<text text-anchor="middle" x="651" y="-298.5" font-family="Helvetica,sans-Serif" font-size="10.00" fill="#000000">/Light.hpp</text>
</a>
</g>
</g>
<!-- Node1&#45;&gt;Node11 -->
<g id="edge58" class="edge">
<title>Node1&#45;&gt;Node11</title>
<path fill="none" stroke="#191970" d="M535.4287,-492.464C549.7132,-483.3336 566.8603,-470.6293 579,-456 610.734,-417.7581 632.3926,-363.1735 643.1454,-331.6341"/>
<polygon fill="#191970" stroke="#191970" points="646.5548,-332.4717 646.3727,-321.8785 639.909,-330.2732 646.5548,-332.4717"/>
</g>
<!-- Node25 -->
<g id="node26" class="node">
<title>Node25</title>
<polygon fill="#ffffff" stroke="#bfbfbf" points="466.5,-168.5 466.5,-187.5 513.5,-187.5 513.5,-168.5 466.5,-168.5"/>
<text text-anchor="middle" x="490" y="-175.5" font-family="Helvetica,sans-Serif" font-size="10.00" fill="#000000">vector</text>
</g>
<!-- Node1&#45;&gt;Node25 -->
<g id="edge60" class="edge">
<title>Node1&#45;&gt;Node25</title>
<path fill="none" stroke="#191970" d="M593.5348,-494.7354C661.2525,-479.1507 745,-445.3521 745,-373.5 745,-373.5 745,-373.5 745,-306.5 745,-268.8735 753.2736,-249.9211 726,-224 661.852,-163.0332 615.3811,-206.1427 523.6164,-187.7418"/>
<polygon fill="#191970" stroke="#191970" points="524.2208,-184.2909 513.701,-185.5497 522.7097,-191.1259 524.2208,-184.2909"/>
</g>
<!-- Node31 -->
<g id="node32" class="node">
<title>Node31</title>
<polygon fill="#ffffff" stroke="#bfbfbf" points="390,-168.5 390,-187.5 448,-187.5 448,-168.5 390,-168.5"/>
<text text-anchor="middle" x="419" y="-175.5" font-family="Helvetica,sans-Serif" font-size="10.00" fill="#000000">memory</text>
</g>
<!-- Node1&#45;&gt;Node31 -->
<g id="edge59" class="edge">
<title>Node1&#45;&gt;Node31</title>
<path fill="none" stroke="#191970" d="M522.8507,-492.3607C531.0351,-482.6355 540.9491,-469.3608 547,-456 562.4827,-421.8133 565,-411.0292 565,-373.5 565,-373.5 565,-373.5 565,-306.5 565,-266.1307 555.9561,-252.1287 527,-224 516.5195,-213.819 483.8964,-200.6114 457.2238,-190.9618"/>
<polygon fill="#191970" stroke="#191970" points="458.313,-187.6345 447.7183,-187.5799 455.9665,-194.2295 458.313,-187.6345"/>
</g>
<!-- Node1&#45;&gt;Node32 -->
<g id="edge49" class="edge">
<title>Node1&#45;&gt;Node32</title>
<path fill="none" stroke="#191970" d="M447.4328,-492.4375C389.2973,-475.5541 302.6582,-443.1892 245,-389 202.8873,-349.421 169.399,-288.9305 154.0761,-258.4519"/>
<polygon fill="#191970" stroke="#191970" points="157.147,-256.7653 149.5898,-249.3397 150.8669,-259.8573 157.147,-256.7653"/>
</g>
<!-- Node3 -->
<g id="node4" class="node">
<title>Node3</title>
<g id="a_node4"><a xlink:href="LightStorage_8hpp.html" target="_top" xlink:title="Engine/Managers/LightManager\l/LightStorage.hpp">
<polygon fill="#ffffff" stroke="#000000" points="272.5,-358.5 272.5,-388.5 441.5,-388.5 441.5,-358.5 272.5,-358.5"/>
<text text-anchor="start" x="280.5" y="-376.5" font-family="Helvetica,sans-Serif" font-size="10.00" fill="#000000">Engine/Managers/LightManager</text>
<text text-anchor="middle" x="357" y="-365.5" font-family="Helvetica,sans-Serif" font-size="10.00" fill="#000000">/LightStorage.hpp</text>
</a>
</g>
</g>
<!-- Node2&#45;&gt;Node3 -->
<g id="edge3" class="edge">
<title>Node2&#45;&gt;Node3</title>
<path fill="none" stroke="#191970" d="M431.2161,-425.2967C418.2055,-416.2163 401.4879,-404.5488 387.2142,-394.587"/>
<polygon fill="#191970" stroke="#191970" points="388.9012,-391.4962 378.6977,-388.6432 384.8949,-397.2365 388.9012,-391.4962"/>
</g>
<!-- Node4 -->
<g id="node5" class="node">
<title>Node4</title>
<g id="a_node5"><a xlink:href="RaEngine_8hpp.html" target="_top" xlink:title="../../RaEngine.hpp">
<polygon fill="#ffffff" stroke="#000000" points="270.5,-168.5 270.5,-187.5 371.5,-187.5 371.5,-168.5 270.5,-168.5"/>
<text text-anchor="middle" x="321" y="-175.5" font-family="Helvetica,sans-Serif" font-size="10.00" fill="#000000">../../RaEngine.hpp</text>
</a>
</g>
</g>
<!-- Node2&#45;&gt;Node4 -->
<g id="edge43" class="edge">
<title>Node2&#45;&gt;Node4</title>
<path fill="none" stroke="#191970" d="M368.4102,-427.7219C324.4636,-419.1708 277.2136,-406.2958 264,-389 218.1489,-328.9834 278.0552,-234.7394 306.9818,-195.7739"/>
<polygon fill="#191970" stroke="#191970" points="309.9975,-197.5908 313.2711,-187.5144 304.4282,-193.35 309.9975,-197.5908"/>
</g>
<!-- Node30 -->
<g id="node31" class="node">
<title>Node30</title>
<g id="a_node31"><a xlink:href="System_8hpp.html" target="_top" xlink:title="Engine/System/System.hpp">
<polygon fill="#ffffff" stroke="#000000" points="349,-230 349,-249 499,-249 499,-230 349,-230"/>
<text text-anchor="middle" x="424" y="-237" font-family="Helvetica,sans-Serif" font-size="10.00" fill="#000000">Engine/System/System.hpp</text>
</a>
</g>
</g>
<!-- Node2&#45;&gt;Node30 -->
<g id="edge44" class="edge">
<title>Node2&#45;&gt;Node30</title>
<path fill="none" stroke="#191970" d="M453.5379,-425.2272C453.9118,-408.6162 453.9091,-381.3157 451,-358 446.5796,-322.5725 436.2075,-282.2094 429.6823,-258.9116"/>
<polygon fill="#191970" stroke="#191970" points="433.0239,-257.8671 426.9104,-249.214 426.2935,-259.7909 433.0239,-257.8671"/>
</g>
<!-- Node2&#45;&gt;Node31 -->
<g id="edge48" class="edge">
<title>Node2&#45;&gt;Node31</title>
<path fill="none" stroke="#191970" d="M464.1687,-425.4236C490.0781,-388.4546 549.0396,-291.4086 508,-224 501.6686,-213.6005 475.6447,-200.8181 453.3606,-191.3694"/>
<polygon fill="#191970" stroke="#191970" points="454.6859,-188.13 444.1075,-187.5406 452.0095,-194.5982 454.6859,-188.13"/>
</g>
<!-- Node3&#45;&gt;Node4 -->
<g id="edge4" class="edge">
<title>Node3&#45;&gt;Node4</title>
<path fill="none" stroke="#191970" d="M350.3766,-358.1572C341.1736,-335.92 324.9763,-293.2081 319,-255 316.8708,-241.3877 318.7007,-237.7745 319,-224 319.1886,-215.3189 319.5773,-205.7229 319.9622,-197.5513"/>
<polygon fill="#191970" stroke="#191970" points="323.4604,-197.6736 320.4657,-187.5108 316.4692,-197.3229 323.4604,-197.6736"/>
</g>
<!-- Node3&#45;&gt;Node11 -->
<g id="edge11" class="edge">
<title>Node3&#45;&gt;Node11</title>
<path fill="none" stroke="#191970" d="M422.9793,-358.4639C472.5545,-347.1662 540.0084,-331.794 588.6744,-320.7034"/>
<polygon fill="#191970" stroke="#191970" points="589.4809,-324.1095 598.4533,-318.4749 587.9255,-317.2844 589.4809,-324.1095"/>
</g>
<!-- Node5 -->
<g id="node6" class="node">
<title>Node5</title>
<g id="a_node6"><a xlink:href="CoreMacros_8hpp.html" target="_top" xlink:title="Core/CoreMacros.hpp">
<polygon fill="#ffffff" stroke="#000000" points="619,-56.5 619,-75.5 739,-75.5 739,-56.5 619,-56.5"/>
<text text-anchor="middle" x="679" y="-63.5" font-family="Helvetica,sans-Serif" font-size="10.00" fill="#000000">Core/CoreMacros.hpp</text>
</a>
</g>
</g>
<!-- Node4&#45;&gt;Node5 -->
<g id="edge5" class="edge">
<title>Node4&#45;&gt;Node5</title>
<path fill="none" stroke="#191970" d="M333.4344,-168.4806C353.0519,-153.9558 392.8841,-126.4301 431,-112 488.6622,-90.17 557.9159,-78.438 608.5676,-72.2998"/>
<polygon fill="#191970" stroke="#191970" points="609.2351,-75.7457 618.7616,-71.1093 608.4231,-68.7929 609.2351,-75.7457"/>
</g>
<!-- Node6 -->
<g id="node7" class="node">
<title>Node6</title>
<polygon fill="#ffffff" stroke="#bfbfbf" points="515,-.5 515,-19.5 567,-19.5 567,-.5 515,-.5"/>
<text text-anchor="middle" x="541" y="-7.5" font-family="Helvetica,sans-Serif" font-size="10.00" fill="#000000">cassert</text>
</g>
<!-- Node5&#45;&gt;Node6 -->
<g id="edge6" class="edge">
<title>Node5&#45;&gt;Node6</title>
<path fill="none" stroke="#191970" d="M655.277,-56.3733C632.8263,-47.2629 598.9261,-33.5062 573.8745,-23.3404"/>
<polygon fill="#191970" stroke="#191970" points="574.9957,-20.0182 564.4135,-19.5011 572.3635,-26.5045 574.9957,-20.0182"/>
</g>
<!-- Node7 -->
<g id="node8" class="node">
<title>Node7</title>
<polygon fill="#ffffff" stroke="#bfbfbf" points="585,-.5 585,-19.5 631,-19.5 631,-.5 585,-.5"/>
<text text-anchor="middle" x="608" y="-7.5" font-family="Helvetica,sans-Serif" font-size="10.00" fill="#000000">cstdio</text>
</g>
<!-- Node5&#45;&gt;Node7 -->
<g id="edge7" class="edge">
<title>Node5&#45;&gt;Node7</title>
<path fill="none" stroke="#191970" d="M666.6327,-56.2455C656.0446,-47.8943 640.5936,-35.7076 628.2107,-25.9408"/>
<polygon fill="#191970" stroke="#191970" points="630.2447,-23.0875 620.2255,-19.6427 625.9097,-28.5837 630.2447,-23.0875"/>
</g>
<!-- Node8 -->
<g id="node9" class="node">
<title>Node8</title>
<polygon fill="#ffffff" stroke="#bfbfbf" points="649,-.5 649,-19.5 709,-19.5 709,-.5 649,-.5"/>
<text text-anchor="middle" x="679" y="-7.5" font-family="Helvetica,sans-Serif" font-size="10.00" fill="#000000">iostream</text>
</g>
<!-- Node5&#45;&gt;Node8 -->
<g id="edge8" class="edge">
<title>Node5&#45;&gt;Node8</title>
<path fill="none" stroke="#191970" d="M679,-56.2455C679,-48.9382 679,-38.6944 679,-29.7046"/>
<polygon fill="#191970" stroke="#191970" points="682.5001,-29.6426 679,-19.6427 675.5001,-29.6427 682.5001,-29.6426"/>
</g>
<!-- Node9 -->
<g id="node10" class="node">
<title>Node9</title>
<polygon fill="#ffffff" stroke="#bfbfbf" points="727,-.5 727,-19.5 783,-19.5 783,-.5 727,-.5"/>
<text text-anchor="middle" x="755" y="-7.5" font-family="Helvetica,sans-Serif" font-size="10.00" fill="#000000">sstream</text>
</g>
<!-- Node5&#45;&gt;Node9 -->
<g id="edge9" class="edge">
<title>Node5&#45;&gt;Node9</title>
<path fill="none" stroke="#191970" d="M692.2382,-56.2455C703.681,-47.814 720.4296,-35.4729 733.7475,-25.6598"/>
<polygon fill="#191970" stroke="#191970" points="735.9391,-28.3924 741.9135,-19.6427 731.7867,-22.757 735.9391,-28.3924"/>
</g>
<!-- Node10 -->
<g id="node11" class="node">
<title>Node10</title>
<polygon fill="#ffffff" stroke="#bfbfbf" points="801,-.5 801,-19.5 849,-19.5 849,-.5 801,-.5"/>
<text text-anchor="middle" x="825" y="-7.5" font-family="Helvetica,sans-Serif" font-size="10.00" fill="#000000">thread</text>
</g>
<!-- Node5&#45;&gt;Node10 -->
<g id="edge10" class="edge">
<title>Node5&#45;&gt;Node10</title>
<path fill="none" stroke="#191970" d="M704.0983,-56.3733C728.1001,-47.1671 764.4713,-33.2165 791.0524,-23.021"/>
<polygon fill="#191970" stroke="#191970" points="792.631,-26.1642 800.7144,-19.315 790.1242,-19.6285 792.631,-26.1642"/>
</g>
<!-- Node11&#45;&gt;Node4 -->
<g id="edge41" class="edge">
<title>Node11&#45;&gt;Node4</title>
<path fill="none" stroke="#191970" d="M598.2011,-304.6045C519.4953,-300.6782 376.7097,-288.9588 340,-255 324.3381,-240.5118 320.675,-215.352 320.2234,-197.7475"/>
<polygon fill="#191970" stroke="#191970" points="323.7236,-197.7137 320.2874,-187.6916 316.7237,-197.6691 323.7236,-197.7137"/>
</g>
<!-- Node12 -->
<g id="node13" class="node">
<title>Node12</title>
<g id="a_node13"><a xlink:href="Color_8hpp.html" target="_top" xlink:title="Core/Utils/Color.hpp">
<polygon fill="#ffffff" stroke="#000000" points="1064.5,-230 1064.5,-249 1177.5,-249 1177.5,-230 1064.5,-230"/>
<text text-anchor="middle" x="1121" y="-237" font-family="Helvetica,sans-Serif" font-size="10.00" fill="#000000">Core/Utils/Color.hpp</text>
</a>
</g>
</g>
<!-- Node11&#45;&gt;Node12 -->
<g id="edge12" class="edge">
<title>Node11&#45;&gt;Node12</title>
<path fill="none" stroke="#191970" d="M703.5469,-299.0093C789.5233,-286.7531 960.1056,-262.436 1054.4219,-248.9909"/>
<polygon fill="#191970" stroke="#191970" points="1055.0143,-252.4419 1064.4202,-247.5656 1054.0263,-245.512 1055.0143,-252.4419"/>
</g>
<!-- Node21 -->
<g id="node22" class="node">
<title>Node21</title>
<g id="a_node22"><a xlink:href="Component_8hpp.html" target="_top" xlink:title="Engine/Component/Component.hpp">
<polygon fill="#ffffff" stroke="#000000" points="773.5,-230 773.5,-249 962.5,-249 962.5,-230 773.5,-230"/>
<text text-anchor="middle" x="868" y="-237" font-family="Helvetica,sans-Serif" font-size="10.00" fill="#000000">Engine/Component/Component.hpp</text>
</a>
</g>
</g>
<!-- Node11&#45;&gt;Node21 -->
<g id="edge24" class="edge">
<title>Node11&#45;&gt;Node21</title>
<path fill="none" stroke="#191970" d="M699.699,-291.4639C738.1912,-279.5792 791.2864,-263.1858 827.4801,-252.0108"/>
<polygon fill="#191970" stroke="#191970" points="828.6919,-255.2997 837.2142,-249.0053 826.6267,-248.6113 828.6919,-255.2997"/>
</g>
<!-- Node29 -->
<g id="node30" class="node">
<title>Node29</title>
<g id="a_node30"><a xlink:href="Light_8inl.html" target="_top" xlink:title="Engine/Renderer/Light\l/Light.inl">
<polygon fill="#ffffff" stroke="#000000" points="593.5,-224.5 593.5,-254.5 716.5,-254.5 716.5,-224.5 593.5,-224.5"/>
<text text-anchor="start" x="601.5" y="-242.5" font-family="Helvetica,sans-Serif" font-size="10.00" fill="#000000">Engine/Renderer/Light</text>
<text text-anchor="middle" x="655" y="-231.5" font-family="Helvetica,sans-Serif" font-size="10.00" fill="#000000">/Light.inl</text>
</a>
</g>
</g>
<!-- Node11&#45;&gt;Node29 -->
<g id="edge42" class="edge">
<title>Node11&#45;&gt;Node29</title>
<path fill="none" stroke="#191970" d="M651.9077,-291.2967C652.3731,-283.5013 652.9523,-273.7991 653.4832,-264.9064"/>
<polygon fill="#191970" stroke="#191970" points="656.9937,-264.834 654.0959,-254.6432 650.0061,-264.4168 656.9937,-264.834"/>
</g>
<!-- Node12&#45;&gt;Node5 -->
<g id="edge13" class="edge">
<title>Node12&#45;&gt;Node5</title>
<path fill="none" stroke="#191970" d="M1123.5712,-229.8384C1129.2601,-206.0366 1140.0121,-144.1793 1108,-112 1083.225,-87.0956 864.4081,-73.9899 749.2272,-68.7638"/>
<polygon fill="#191970" stroke="#191970" points="749.2356,-65.2608 739.0897,-68.312 748.9239,-72.2539 749.2356,-65.2608"/>
</g>
<!-- Node13 -->
<g id="node14" class="node">
<title>Node13</title>
<g id="a_node14"><a xlink:href="Math_8hpp.html" target="_top" xlink:title="Core/Math/Math.hpp">
<polygon fill="#ffffff" stroke="#000000" points="1240,-168.5 1240,-187.5 1354,-187.5 1354,-168.5 1240,-168.5"/>
<text text-anchor="middle" x="1297" y="-175.5" font-family="Helvetica,sans-Serif" font-size="10.00" fill="#000000">Core/Math/Math.hpp</text>
</a>
</g>
</g>
<!-- Node12&#45;&gt;Node13 -->
<g id="edge14" class="edge">
<title>Node12&#45;&gt;Node13</title>
<path fill="none" stroke="#191970" d="M1148.5,-229.8906C1178.4647,-219.42 1226.5683,-202.6111 1259.8698,-190.9745"/>
<polygon fill="#191970" stroke="#191970" points="1261.4074,-194.1448 1269.6931,-187.5419 1259.0983,-187.5366 1261.4074,-194.1448"/>
</g>
<!-- Node18 -->
<g id="node19" class="node">
<title>Node18</title>
<polygon fill="#ffffff" stroke="#bfbfbf" points="1029.5,-112.5 1029.5,-131.5 1098.5,-131.5 1098.5,-112.5 1029.5,-112.5"/>
<text text-anchor="middle" x="1064" y="-119.5" font-family="Helvetica,sans-Serif" font-size="10.00" fill="#000000">Eigen/Core</text>
</g>
<!-- Node12&#45;&gt;Node18 -->
<g id="edge21" class="edge">
<title>Node12&#45;&gt;Node18</title>
<path fill="none" stroke="#191970" d="M1116.3355,-229.8845C1106.8995,-210.4331 1085.3999,-166.1138 1073.0939,-140.7462"/>
<polygon fill="#191970" stroke="#191970" points="1076.2427,-139.218 1068.729,-131.7484 1069.9446,-142.2733 1076.2427,-139.218"/>
</g>
<!-- Node19 -->
<g id="node20" class="node">
<title>Node19</title>
<polygon fill="#ffffff" stroke="#bfbfbf" points="844.5,-112.5 844.5,-131.5 939.5,-131.5 939.5,-112.5 844.5,-112.5"/>
<text text-anchor="middle" x="892" y="-119.5" font-family="Helvetica,sans-Serif" font-size="10.00" fill="#000000">Eigen/Geometry</text>
</g>
<!-- Node12&#45;&gt;Node19 -->
<g id="edge22" class="edge">
<title>Node12&#45;&gt;Node19</title>
<path fill="none" stroke="#191970" d="M1107.4314,-229.8612C1086.5316,-215.2785 1044.9024,-187.2694 1007,-168 981.9539,-155.2667 952.516,-143.548 929.6944,-135.1255"/>
<polygon fill="#191970" stroke="#191970" points="930.6272,-131.7404 920.0331,-131.6102 928.2337,-138.3186 930.6272,-131.7404"/>
</g>
<!-- Node20 -->
<g id="node21" class="node">
<title>Node20</title>
<polygon fill="#ffffff" stroke="#bfbfbf" points="1168,-168.5 1168,-187.5 1222,-187.5 1222,-168.5 1168,-168.5"/>
<text text-anchor="middle" x="1195" y="-175.5" font-family="Helvetica,sans-Serif" font-size="10.00" fill="#000000">random</text>
</g>
<!-- Node12&#45;&gt;Node20 -->
<g id="edge23" class="edge">
<title>Node12&#45;&gt;Node20</title>
<path fill="none" stroke="#191970" d="M1132.5625,-229.8906C1144.0079,-220.3786 1161.7473,-205.6357 1175.397,-194.2917"/>
<polygon fill="#191970" stroke="#191970" points="1177.8208,-196.8283 1183.2745,-187.7449 1173.3467,-191.4447 1177.8208,-196.8283"/>
</g>
<!-- Node14 -->
<g id="node15" class="node">
<title>Node14</title>
<g id="a_node15"><a xlink:href="RaCore_8hpp.html" target="_top" xlink:title="Core/RaCore.hpp">
<polygon fill="#ffffff" stroke="#000000" points="630,-112.5 630,-131.5 728,-131.5 728,-112.5 630,-112.5"/>
<text text-anchor="middle" x="679" y="-119.5" font-family="Helvetica,sans-Serif" font-size="10.00" fill="#000000">Core/RaCore.hpp</text>
</a>
</g>
</g>
<!-- Node13&#45;&gt;Node14 -->
<g id="edge15" class="edge">
<title>Node13&#45;&gt;Node14</title>
<path fill="none" stroke="#191970" d="M1239.7984,-169.0554C1236.8256,-168.6775 1233.8793,-168.3225 1231,-168 1015.5421,-143.8636 957.2628,-158.2813 738.5134,-132.0778"/>
<polygon fill="#191970" stroke="#191970" points="738.6611,-128.5701 728.3124,-130.8405 737.8182,-135.5192 738.6611,-128.5701"/>
</g>
<!-- Node15 -->
<g id="node16" class="node">
<title>Node15</title>
<polygon fill="#ffffff" stroke="#bfbfbf" points="1179,-112.5 1179,-131.5 1243,-131.5 1243,-112.5 1179,-112.5"/>
<text text-anchor="middle" x="1211" y="-119.5" font-family="Helvetica,sans-Serif" font-size="10.00" fill="#000000">algorithm</text>
</g>
<!-- Node13&#45;&gt;Node15 -->
<g id="edge17" class="edge">
<title>Node13&#45;&gt;Node15</title>
<path fill="none" stroke="#191970" d="M1282.0199,-168.2455C1268.8249,-159.6534 1249.3949,-147.0014 1234.1921,-137.1018"/>
<polygon fill="#191970" stroke="#191970" points="1236.0983,-134.1665 1225.8084,-131.6427 1232.2785,-140.0325 1236.0983,-134.1665"/>
</g>
<!-- Node16 -->
<g id="node17" class="node">
<title>Node16</title>
<polygon fill="#ffffff" stroke="#bfbfbf" points="1261.5,-112.5 1261.5,-131.5 1308.5,-131.5 1308.5,-112.5 1261.5,-112.5"/>
<text text-anchor="middle" x="1285" y="-119.5" font-family="Helvetica,sans-Serif" font-size="10.00" fill="#000000">cmath</text>
</g>
<!-- Node13&#45;&gt;Node16 -->
<g id="edge18" class="edge">
<title>Node13&#45;&gt;Node16</title>
<path fill="none" stroke="#191970" d="M1294.9098,-168.2455C1293.3439,-160.9382 1291.1488,-150.6944 1289.2224,-141.7046"/>
<polygon fill="#191970" stroke="#191970" points="1292.584,-140.6873 1287.0663,-131.6427 1285.7393,-142.1541 1292.584,-140.6873"/>
</g>
<!-- Node17 -->
<g id="node18" class="node">
<title>Node17</title>
<g id="a_node18"><a xlink:href="Math_8inl.html" target="_top" xlink:title="Core/Math/Math.inl">
<polygon fill="#ffffff" stroke="#000000" points="1327,-112.5 1327,-131.5 1435,-131.5 1435,-112.5 1327,-112.5"/>
<text text-anchor="middle" x="1381" y="-119.5" font-family="Helvetica,sans-Serif" font-size="10.00" fill="#000000">Core/Math/Math.inl</text>
</a>
</g>
</g>
<!-- Node13&#45;&gt;Node17 -->
<g id="edge19" class="edge">
<title>Node13&#45;&gt;Node17</title>
<path fill="none" stroke="#191970" d="M1306.3648,-168.2455C1317.6988,-159.5731 1336.6552,-146.7645 1352.7262,-136.825"/>
<polygon fill="#191970" stroke="#191970" points="1354.5471,-139.8141 1361.2909,-131.6427 1350.9232,-133.8251 1354.5471,-139.8141"/>
</g>
<!-- Node14&#45;&gt;Node5 -->
<g id="edge16" class="edge">
<title>Node14&#45;&gt;Node5</title>
<path fill="none" stroke="#191970" d="M679,-112.2455C679,-104.9382 679,-94.6944 679,-85.7046"/>
<polygon fill="#191970" stroke="#191970" points="682.5001,-85.6426 679,-75.6427 675.5001,-85.6427 682.5001,-85.6426"/>
</g>
<!-- Node17&#45;&gt;Node13 -->
<g id="edge20" class="edge">
<title>Node17&#45;&gt;Node13</title>
<path fill="none" stroke="#191970" d="M1371.7811,-131.6427C1360.513,-140.2794 1341.5771,-153.0824 1325.4816,-163.0465"/>
<polygon fill="#191970" stroke="#191970" points="1323.6384,-160.0709 1316.8985,-168.2455 1327.2651,-166.0581 1323.6384,-160.0709"/>
</g>
<!-- Node21&#45;&gt;Node4 -->
<g id="edge32" class="edge">
<title>Node21&#45;&gt;Node4</title>
<path fill="none" stroke="#191970" d="M781.2729,-229.9671C763.0185,-227.9791 743.8778,-225.9085 726,-224 575.9986,-207.9872 535.4979,-208.6451 381.9835,-188.0619"/>
<polygon fill="#191970" stroke="#191970" points="382.0843,-184.5438 371.706,-186.675 381.1481,-191.481 382.0843,-184.5438"/>
</g>
<!-- Node21&#45;&gt;Node18 -->
<g id="edge30" class="edge">
<title>Node21&#45;&gt;Node18</title>
<path fill="none" stroke="#191970" d="M909.8342,-229.9267C938.8805,-221.9205 977.5052,-208.4669 1007,-188 1025.5414,-175.1339 1041.8159,-154.874 1052.1771,-140.1931"/>
<polygon fill="#191970" stroke="#191970" points="1055.0962,-142.1246 1057.8317,-131.889 1049.3102,-138.1847 1055.0962,-142.1246"/>
</g>
<!-- Node21&#45;&gt;Node19 -->
<g id="edge31" class="edge">
<title>Node21&#45;&gt;Node19</title>
<path fill="none" stroke="#191970" d="M848.8684,-229.9631C825.6208,-217.0198 791.2217,-192.6642 806,-168 815.0087,-152.9649 830.7934,-142.5677 846.4013,-135.5159"/>
<polygon fill="#191970" stroke="#191970" points="848.1223,-138.5923 856.0343,-131.546 845.4551,-132.1203 848.1223,-138.5923"/>
</g>
<!-- Node22 -->
<g id="node23" class="node">
<title>Node22</title>
<g id="a_node23"><a xlink:href="Index_8hpp.html" target="_top" xlink:title="Core/Utils/Index.hpp">
<polygon fill="#ffffff" stroke="#000000" points="532,-168.5 532,-187.5 648,-187.5 648,-168.5 532,-168.5"/>
<text text-anchor="middle" x="590" y="-175.5" font-family="Helvetica,sans-Serif" font-size="10.00" fill="#000000">Core/Utils/Index.hpp</text>
</a>
</g>
</g>
<!-- Node21&#45;&gt;Node22 -->
<g id="edge25" class="edge">
<title>Node21&#45;&gt;Node22</title>
<path fill="none" stroke="#191970" d="M824.8675,-229.9581C775.8672,-219.1181 695.8767,-201.4224 643.0861,-189.7439"/>
<polygon fill="#191970" stroke="#191970" points="643.7536,-186.307 633.2337,-187.5643 642.2416,-193.1417 643.7536,-186.307"/>
</g>
<!-- Node21&#45;&gt;Node25 -->
<g id="edge33" class="edge">
<title>Node21&#45;&gt;Node25</title>
<path fill="none" stroke="#191970" d="M802.3465,-229.9516C714.9107,-217.2022 566.9972,-195.508 523.5012,-187.5855"/>
<polygon fill="#191970" stroke="#191970" points="524.1739,-184.1508 513.6827,-185.6287 522.8057,-191.0158 524.1739,-184.1508"/>
</g>
<!-- Node26 -->
<g id="node27" class="node">
<title>Node26</title>
<g id="a_node27"><a xlink:href="Types_8hpp.html" target="_top" xlink:title="Core/Types.hpp">
<polygon fill="#ffffff" stroke="#000000" points="666.5,-168.5 666.5,-187.5 757.5,-187.5 757.5,-168.5 666.5,-168.5"/>
<text text-anchor="middle" x="712" y="-175.5" font-family="Helvetica,sans-Serif" font-size="10.00" fill="#000000">Core/Types.hpp</text>
</a>
</g>
</g>
<!-- Node21&#45;&gt;Node26 -->
<g id="edge34" class="edge">
<title>Node21&#45;&gt;Node26</title>
<path fill="none" stroke="#191970" d="M843.625,-229.8906C817.2944,-219.5103 775.162,-202.9004 745.6771,-191.2766"/>
<polygon fill="#191970" stroke="#191970" points="746.7907,-187.9534 736.2038,-187.5419 744.2233,-194.4657 746.7907,-187.9534"/>
</g>
<!-- Node28 -->
<g id="node29" class="node">
<title>Node28</title>
<g id="a_node29"><a xlink:href="Component_8inl.html" target="_top" xlink:title="Engine/Component/Component.inl">
<polygon fill="#ffffff" stroke="#000000" points="814.5,-168.5 814.5,-187.5 997.5,-187.5 997.5,-168.5 814.5,-168.5"/>
<text text-anchor="middle" x="906" y="-175.5" font-family="Helvetica,sans-Serif" font-size="10.00" fill="#000000">Engine/Component/Component.inl</text>
</a>
</g>
</g>
<!-- Node21&#45;&gt;Node28 -->
<g id="edge39" class="edge">
<title>Node21&#45;&gt;Node28</title>
<path fill="none" stroke="#191970" d="M868.875,-229.8906C872.7067,-220.8273 880.8627,-207.0149 888.7303,-195.9188"/>
<polygon fill="#191970" stroke="#191970" points="891.6669,-197.8375 894.89,-187.7449 886.0765,-193.6247 891.6669,-197.8375"/>
</g>
<!-- Node22&#45;&gt;Node14 -->
<g id="edge26" class="edge">
<title>Node22&#45;&gt;Node14</title>
<path fill="none" stroke="#191970" d="M605.5026,-168.2455C619.158,-159.6534 639.2657,-147.0014 654.9989,-137.1018"/>
<polygon fill="#191970" stroke="#191970" points="657.0751,-139.9307 663.675,-131.6427 653.3471,-134.006 657.0751,-139.9307"/>
</g>
<!-- Node23 -->
<g id="node24" class="node">
<title>Node23</title>
<polygon fill="#ffffff" stroke="#bfbfbf" points="568,-112.5 568,-131.5 612,-131.5 612,-112.5 568,-112.5"/>
<text text-anchor="middle" x="590" y="-119.5" font-family="Helvetica,sans-Serif" font-size="10.00" fill="#000000">limits</text>
</g>
<!-- Node22&#45;&gt;Node23 -->
<g id="edge27" class="edge">
<title>Node22&#45;&gt;Node23</title>
<path fill="none" stroke="#191970" d="M590,-168.2455C590,-160.9382 590,-150.6944 590,-141.7046"/>
<polygon fill="#191970" stroke="#191970" points="593.5001,-141.6426 590,-131.6427 586.5001,-141.6427 593.5001,-141.6426"/>
</g>
<!-- Node24 -->
<g id="node25" class="node">
<title>Node24</title>
<g id="a_node25"><a xlink:href="Index_8inl.html" target="_top" xlink:title="Core/Utils/Index.inl">
<polygon fill="#ffffff" stroke="#000000" points="440,-112.5 440,-131.5 550,-131.5 550,-112.5 440,-112.5"/>
<text text-anchor="middle" x="495" y="-119.5" font-family="Helvetica,sans-Serif" font-size="10.00" fill="#000000">Core/Utils/Index.inl</text>
</a>
</g>
</g>
<!-- Node22&#45;&gt;Node24 -->
<g id="edge28" class="edge">
<title>Node22&#45;&gt;Node24</title>
<path fill="none" stroke="#191970" d="M568.1854,-168.2455C551.9504,-159.6534 530.2199,-147.0014 514.5509,-137.1018"/>
<polygon fill="#191970" stroke="#191970" points="516.4102,-134.1361 506.113,-131.6427 512.6078,-140.0134 516.4102,-134.1361"/>
</g>
<!-- Node24&#45;&gt;Node22 -->
<g id="edge29" class="edge">
<title>Node24&#45;&gt;Node22</title>
<path fill="none" stroke="#191970" d="M516.6032,-131.6427C532.7903,-140.1994 554.523,-152.8456 570.2445,-162.769"/>
<polygon fill="#191970" stroke="#191970" points="568.4205,-165.7575 578.7191,-168.2455 572.2199,-159.8783 568.4205,-165.7575"/>
</g>
<!-- Node26&#45;&gt;Node14 -->
<g id="edge35" class="edge">
<title>Node26&#45;&gt;Node14</title>
<path fill="none" stroke="#191970" d="M706.2518,-168.2455C701.7565,-160.617 695.3752,-149.7881 689.9175,-140.5267"/>
<polygon fill="#191970" stroke="#191970" points="692.7747,-138.4811 684.6823,-131.6427 686.7439,-142.035 692.7747,-138.4811"/>
</g>
<!-- Node26&#45;&gt;Node18 -->
<g id="edge36" class="edge">
<title>Node26&#45;&gt;Node18</title>
<path fill="none" stroke="#191970" d="M757.657,-170.7364C825.3732,-159.9633 951.6559,-139.8729 1018.9944,-129.16"/>
<polygon fill="#191970" stroke="#191970" points="1019.9518,-132.5518 1029.2777,-127.524 1018.8519,-125.6387 1019.9518,-132.5518"/>
</g>
<!-- Node26&#45;&gt;Node19 -->
<g id="edge37" class="edge">
<title>Node26&#45;&gt;Node19</title>
<path fill="none" stroke="#191970" d="M742.9431,-168.3733C773.0039,-159.021 818.8026,-144.7725 851.6978,-134.5385"/>
<polygon fill="#191970" stroke="#191970" points="852.9519,-137.8139 861.4607,-131.5011 850.8723,-131.1299 852.9519,-137.8139"/>
</g>
<!-- Node27 -->
<g id="node28" class="node">
<title>Node27</title>
<polygon fill="#ffffff" stroke="#bfbfbf" points="746,-112.5 746,-131.5 826,-131.5 826,-112.5 746,-112.5"/>
<text text-anchor="middle" x="786" y="-119.5" font-family="Helvetica,sans-Serif" font-size="10.00" fill="#000000">Eigen/Sparse</text>
</g>
<!-- Node26&#45;&gt;Node27 -->
<g id="edge38" class="edge">
<title>Node26&#45;&gt;Node27</title>
<path fill="none" stroke="#191970" d="M724.8898,-168.2455C735.9254,-159.8943 752.0292,-147.7076 764.9353,-137.9408"/>
<polygon fill="#191970" stroke="#191970" points="767.3959,-140.4681 773.2579,-131.6427 763.1717,-134.8862 767.3959,-140.4681"/>
</g>
<!-- Node28&#45;&gt;Node21 -->
<g id="edge40" class="edge">
<title>Node28&#45;&gt;Node21</title>
<path fill="none" stroke="#191970" d="M905.0676,-187.7449C901.193,-196.8552 893.0171,-210.6775 885.1524,-221.7465"/>
<polygon fill="#191970" stroke="#191970" points="882.2351,-219.8018 879,-229.8906 887.8205,-224.0212 882.2351,-219.8018"/>
</g>
<!-- Node30&#45;&gt;Node4 -->
<g id="edge45" class="edge">
<title>Node30&#45;&gt;Node4</title>
<path fill="none" stroke="#191970" d="M407.9063,-229.8906C391.2772,-219.9616 365.1024,-204.333 345.8206,-192.8201"/>
<polygon fill="#191970" stroke="#191970" points="347.361,-189.6634 336.9807,-187.5419 343.7724,-195.6736 347.361,-189.6634"/>
</g>
<!-- Node30&#45;&gt;Node25 -->
<g id="edge47" class="edge">
<title>Node30&#45;&gt;Node25</title>
<path fill="none" stroke="#191970" d="M434.3125,-229.8906C444.4242,-220.4683 460.0442,-205.9134 472.1707,-194.6137"/>
<polygon fill="#191970" stroke="#191970" points="474.612,-197.1228 479.5421,-187.7449 469.8399,-192.0015 474.612,-197.1228"/>
</g>
<!-- Node30&#45;&gt;Node31 -->
<g id="edge46" class="edge">
<title>Node30&#45;&gt;Node31</title>
<path fill="none" stroke="#191970" d="M423.2188,-229.8906C422.5257,-221.3657 421.491,-208.6392 420.6198,-197.9235"/>
<polygon fill="#191970" stroke="#191970" points="424.0912,-197.4283 419.7923,-187.7449 417.1142,-197.9956 424.0912,-197.4283"/>
</g>
<!-- Node32&#45;&gt;Node4 -->
<g id="edge50" class="edge">
<title>Node32&#45;&gt;Node4</title>
<path fill="none" stroke="#191970" d="M172.5,-229.8906C202.4647,-219.42 250.5683,-202.6111 283.8698,-190.9745"/>
<polygon fill="#191970" stroke="#191970" points="285.4074,-194.1448 293.6931,-187.5419 283.0983,-187.5366 285.4074,-194.1448"/>
</g>
<!-- Node32&#45;&gt;Node25 -->
<g id="edge57" class="edge">
<title>Node32&#45;&gt;Node25</title>
<path fill="none" stroke="#191970" d="M217.0872,-230.3258C278.3665,-221.9047 368.7763,-208.0159 456.4593,-187.8756"/>
<polygon fill="#191970" stroke="#191970" points="457.3605,-191.2594 466.3071,-185.5841 455.7741,-184.4416 457.3605,-191.2594"/>
</g>
<!-- Node32&#45;&gt;Node26 -->
<g id="edge51" class="edge">
<title>Node32&#45;&gt;Node26</title>
<path fill="none" stroke="#191970" d="M217.29,-234.0531C314.6099,-226.3134 493.3433,-210.6698 656.2181,-188.0072"/>
<polygon fill="#191970" stroke="#191970" points="657.0102,-191.4305 666.4267,-186.5745 656.0373,-184.4984 657.0102,-191.4305"/>
</g>
<!-- Node32&#45;&gt;Node31 -->
<g id="edge55" class="edge">
<title>Node32&#45;&gt;Node31</title>
<path fill="none" stroke="#191970" d="M191.7033,-229.9191C237.2673,-220.4352 308.775,-205.1902 379.9481,-188.1821"/>
<polygon fill="#191970" stroke="#191970" points="381.08,-191.5098 389.9859,-185.7709 379.445,-184.7034 381.08,-191.5098"/>
</g>
<!-- Node33 -->
<g id="node34" class="node">
<title>Node33</title>
<g id="a_node34"><a xlink:href="Singleton_8hpp.html" target="_top" xlink:title="Core/Utils/Singleton.hpp">
<polygon fill="#ffffff" stroke="#000000" points="118,-168.5 118,-187.5 252,-187.5 252,-168.5 118,-168.5"/>
<text text-anchor="middle" x="185" y="-175.5" font-family="Helvetica,sans-Serif" font-size="10.00" fill="#000000">Core/Utils/Singleton.hpp</text>
</a>
</g>
</g>
<!-- Node32&#45;&gt;Node33 -->
<g id="edge52" class="edge">
<title>Node32&#45;&gt;Node33</title>
<path fill="none" stroke="#191970" d="M151.25,-229.8906C157.0865,-220.917 165.9509,-207.2879 173.1306,-196.2491"/>
<polygon fill="#191970" stroke="#191970" points="176.1436,-198.0361 178.6619,-187.7449 170.2755,-194.2194 176.1436,-198.0361"/>
</g>
<!-- Node34 -->
<g id="node35" class="node">
<title>Node34</title>
<polygon fill="#ffffff" stroke="#bfbfbf" points="62,-168.5 62,-187.5 100,-187.5 100,-168.5 62,-168.5"/>
<text text-anchor="middle" x="81" y="-175.5" font-family="Helvetica,sans-Serif" font-size="10.00" fill="#000000">map</text>
</g>
<!-- Node32&#45;&gt;Node34 -->
<g id="edge54" class="edge">
<title>Node32&#45;&gt;Node34</title>
<path fill="none" stroke="#191970" d="M135,-229.8906C125.2881,-220.5581 110.3361,-206.1902 98.6259,-194.9374"/>
<polygon fill="#191970" stroke="#191970" points="100.7766,-192.15 91.141,-187.7449 95.9264,-197.1974 100.7766,-192.15"/>
</g>
<!-- Node35 -->
<g id="node36" class="node">
<title>Node35</title>
<polygon fill="#ffffff" stroke="#bfbfbf" points="0,-168.5 0,-187.5 44,-187.5 44,-168.5 0,-168.5"/>
<text text-anchor="middle" x="22" y="-175.5" font-family="Helvetica,sans-Serif" font-size="10.00" fill="#000000">string</text>
</g>
<!-- Node32&#45;&gt;Node35 -->
<g id="edge56" class="edge">
<title>Node32&#45;&gt;Node35</title>
<path fill="none" stroke="#191970" d="M125.7813,-229.8906C105.4719,-219.7359 73.2393,-203.6196 50.0832,-192.0416"/>
<polygon fill="#191970" stroke="#191970" points="51.5933,-188.8836 41.0838,-187.5419 48.4628,-195.1446 51.5933,-188.8836"/>
</g>
<!-- Node33&#45;&gt;Node14 -->
<g id="edge53" class="edge">
<title>Node33&#45;&gt;Node14</title>
<path fill="none" stroke="#191970" d="M252.1776,-169.1583C255.4977,-168.7581 258.7859,-168.3698 262,-168 418.0379,-150.0479 460.3871,-153.4831 619.8197,-132.0785"/>
<polygon fill="#191970" stroke="#191970" points="620.5503,-135.5116 629.99,-130.701 619.6107,-128.575 620.5503,-135.5116"/>
</g>
</g>
</svg>
        <g id="navigator" transform="translate(0 0)" fill="#404254">
                <rect fill="#f2f5e9" fill-opacity="0.5" stroke="#606060" stroke-width=".5" x="0" y="0" width="60" height="60"/>
                <use id="zoomplus" xlink:href="#zoomPlus" x="17" y="9" onmousedown="handleZoom(evt,'in')"/>
                <use id="zoomminus" xlink:href="#zoomMin" x="42" y="9" onmousedown="handleZoom(evt,'out')"/>
                <use id="reset" xlink:href="#resetDef" x="30" y="36" onmousedown="handleReset()"/>
                <g id="arrowUp" xlink:href="#dirArrow" transform="translate(30 24)" onmousedown="handlePan(0,-1)">
                  <use xlink:href="#rim" fill="#404040">
                        <set attributeName="fill" to="#808080" begin="arrowUp.mouseover" end="arrowUp.mouseout"/>
                  </use>
                  <path fill="none" stroke="white" stroke-width="1.5" d="M0,-3.0v7 M-2.5,-0.5L0,-3.0L2.5,-0.5"/>
                </g>
                <g id="arrowRight" xlink:href="#dirArrow" transform="rotate(90) translate(36 -43)" onmousedown="handlePan(1,0)">
                  <use xlink:href="#rim" fill="#404040">
                        <set attributeName="fill" to="#808080" begin="arrowRight.mouseover" end="arrowRight.mouseout"/>
                  </use>
                  <path fill="none" stroke="white" stroke-width="1.5" d="M0,-3.0v7 M-2.5,-0.5L0,-3.0L2.5,-0.5"/>
                </g>
                <g id="arrowDown" xlink:href="#dirArrow" transform="rotate(180) translate(-30 -48)" onmousedown="handlePan(0,1)">
                  <use xlink:href="#rim" fill="#404040">
                        <set attributeName="fill" to="#808080" begin="arrowDown.mouseover" end="arrowDown.mouseout"/>
                  </use>
                  <path fill="none" stroke="white" stroke-width="1.5" d="M0,-3.0v7 M-2.5,-0.5L0,-3.0L2.5,-0.5"/>
                </g>
                <g id="arrowLeft" xlink:href="#dirArrow" transform="rotate(270) translate(-36 17)" onmousedown="handlePan(-1,0)">
                  <use xlink:href="#rim" fill="#404040">
                        <set attributeName="fill" to="#808080" begin="arrowLeft.mouseover" end="arrowLeft.mouseout"/>
                  </use>
                  <path fill="none" stroke="white" stroke-width="1.5" d="M0,-3.0v7 M-2.5,-0.5L0,-3.0L2.5,-0.5"/>
                </g>
        </g>
        <svg viewBox="0 0 15 15" width="100%" height="30px" preserveAspectRatio="xMaxYMin meet">
         <g id="arrow_out" transform="scale(0.3 0.3)">
          <a xlink:href="DefaultLightManager_8cpp__incl_org.svg" target="_base">
           <rect id="button" ry="5" rx="5" y="6" x="6" height="38" width="38"
                fill="#f2f5e9" fill-opacity="0.5" stroke="#606060" stroke-width="1.0"/>
           <path id="arrow"
             d="M 11.500037,31.436501 C 11.940474,20.09759 22.043105,11.32322 32.158766,21.979434 L 37.068811,17.246167 C 37.068811,17.246167 37.088388,32 37.088388,32 L 22.160133,31.978069 C 22.160133,31.978069 26.997745,27.140456 26.997745,27.140456 C 18.528582,18.264221 13.291696,25.230495 11.500037,31.436501 z"
             style="fill:#404040;"/>
          </a>
         </g>
        </svg>
</svg>
