<?xml version="1.0" encoding="UTF-8" standalone="no"?>
<!DOCTYPE svg PUBLIC "-//W3C//DTD SVG 1.1//EN"
 "http://www.w3.org/Graphics/SVG/1.1/DTD/svg11.dtd">
<!-- Generated by graphviz version 2.40.1 (20161225.0304)
 -->
<!-- Title: src/Engine/Managers/CameraManager/DefaultCameraManager.hpp Pages: 1 -->
<svg width="1380pt" height="531pt"
 viewBox="0.00 0.00 1379.96 531.00" xmlns="http://www.w3.org/2000/svg" xmlns:xlink="http://www.w3.org/1999/xlink">
<g id="graph0" class="graph" transform="scale(1 1) rotate(0) translate(4 527)">
<title>src/Engine/Managers/CameraManager/DefaultCameraManager.hpp</title>
<polygon fill="#ffffff" stroke="transparent" points="-4,4 -4,-527 1375.9568,-527 1375.9568,4 -4,4"/>
<!-- Node0 -->
<g id="node1" class="node">
<title>Node0</title>
<polygon fill="#bfbfbf" stroke="#000000" points="38.5,-481.5 38.5,-522.5 215.5,-522.5 215.5,-481.5 38.5,-481.5"/>
<text text-anchor="start" x="46.5" y="-510.5" font-family="Helvetica,sans-Serif" font-size="10.00" fill="#000000">src/Engine/Managers</text>
<text text-anchor="start" x="46.5" y="-499.5" font-family="Helvetica,sans-Serif" font-size="10.00" fill="#000000">/CameraManager/DefaultCamera</text>
<text text-anchor="middle" x="127" y="-488.5" font-family="Helvetica,sans-Serif" font-size="10.00" fill="#000000">Manager.hpp</text>
</g>
<!-- Node1 -->
<g id="node2" class="node">
<title>Node1</title>
<g id="a_node2"><a xlink:href="CameraManager_8hpp.html" target="_top" xlink:title="Engine/Managers/CameraManager\l/CameraManager.hpp">
<polygon fill="#ffffff" stroke="#000000" points="95.5,-347.5 95.5,-377.5 278.5,-377.5 278.5,-347.5 95.5,-347.5"/>
<text text-anchor="start" x="103.5" y="-365.5" font-family="Helvetica,sans-Serif" font-size="10.00" fill="#000000">Engine/Managers/CameraManager</text>
<text text-anchor="middle" x="187" y="-354.5" font-family="Helvetica,sans-Serif" font-size="10.00" fill="#000000">/CameraManager.hpp</text>
</a>
</g>
</g>
<!-- Node0&#45;&gt;Node1 -->
<g id="edge1" class="edge">
<title>Node0&#45;&gt;Node1</title>
<path fill="none" stroke="#191970" d="M135.8532,-481.4163C146.6637,-456.282 164.928,-413.8173 176.4548,-387.0177"/>
<polygon fill="#191970" stroke="#191970" points="179.7771,-388.1515 180.513,-377.5822 173.3466,-385.3857 179.7771,-388.1515"/>
</g>
<!-- Node11 -->
<g id="node12" class="node">
<title>Node11</title>
<polygon fill="#ffffff" stroke="#bfbfbf" points="0,-224.5 0,-243.5 58,-243.5 58,-224.5 0,-224.5"/>
<text text-anchor="middle" x="29" y="-231.5" font-family="Helvetica,sans-Serif" font-size="10.00" fill="#000000">memory</text>
</g>
<!-- Node0&#45;&gt;Node11 -->
<g id="edge59" class="edge">
<title>Node0&#45;&gt;Node11</title>
<path fill="none" stroke="#191970" d="M88.8704,-481.3782C75.3224,-472.082 61.3696,-459.8285 53,-445 17.7031,-382.4643 22.2235,-292.946 26.4048,-253.7036"/>
<polygon fill="#191970" stroke="#191970" points="29.8978,-253.9678 27.5945,-243.6264 22.9461,-253.1471 29.8978,-253.9678"/>
</g>
<!-- Node12 -->
<g id="node13" class="node">
<title>Node12</title>
<polygon fill="#ffffff" stroke="#bfbfbf" points="204.5,-224.5 204.5,-243.5 251.5,-243.5 251.5,-224.5 204.5,-224.5"/>
<text text-anchor="middle" x="228" y="-231.5" font-family="Helvetica,sans-Serif" font-size="10.00" fill="#000000">vector</text>
</g>
<!-- Node0&#45;&gt;Node12 -->
<g id="edge60" class="edge">
<title>Node0&#45;&gt;Node12</title>
<path fill="none" stroke="#191970" d="M113.8536,-481.3702C88.855,-439.2549 40.8194,-342.1281 86,-280 98.8517,-262.3276 156.3952,-247.9764 194.1703,-240.2399"/>
<polygon fill="#191970" stroke="#191970" points="195.1217,-243.6193 204.247,-238.236 193.7563,-236.7538 195.1217,-243.6193"/>
</g>
<!-- Node13 -->
<g id="node14" class="node">
<title>Node13</title>
<g id="a_node14"><a xlink:href="Camera_8hpp.html" target="_top" xlink:title="Engine/Renderer/Camera\l/Camera.hpp">
<polygon fill="#ffffff" stroke="#000000" points="738.5,-414.5 738.5,-444.5 875.5,-444.5 875.5,-414.5 738.5,-414.5"/>
<text text-anchor="start" x="746.5" y="-432.5" font-family="Helvetica,sans-Serif" font-size="10.00" fill="#000000">Engine/Renderer/Camera</text>
<text text-anchor="middle" x="807" y="-421.5" font-family="Helvetica,sans-Serif" font-size="10.00" fill="#000000">/Camera.hpp</text>
</a>
</g>
</g>
<!-- Node0&#45;&gt;Node13 -->
<g id="edge16" class="edge">
<title>Node0&#45;&gt;Node13</title>
<path fill="none" stroke="#191970" d="M215.5493,-492.5591C349.1499,-478.3149 600.1888,-451.5497 727.955,-437.9276"/>
<polygon fill="#191970" stroke="#191970" points="728.4867,-441.3908 738.0592,-436.8503 727.7445,-434.4303 728.4867,-441.3908"/>
</g>
<!-- Node2 -->
<g id="node3" class="node">
<title>Node2</title>
<g id="a_node3"><a xlink:href="CameraStorage_8hpp.html" target="_top" xlink:title="Engine/Managers/CameraManager\l/CameraStorage.hpp">
<polygon fill="#ffffff" stroke="#000000" points="263.5,-280.5 263.5,-310.5 446.5,-310.5 446.5,-280.5 263.5,-280.5"/>
<text text-anchor="start" x="271.5" y="-298.5" font-family="Helvetica,sans-Serif" font-size="10.00" fill="#000000">Engine/Managers/CameraManager</text>
<text text-anchor="middle" x="355" y="-287.5" font-family="Helvetica,sans-Serif" font-size="10.00" fill="#000000">/CameraStorage.hpp</text>
</a>
</g>
</g>
<!-- Node1&#45;&gt;Node2 -->
<g id="edge2" class="edge">
<title>Node1&#45;&gt;Node2</title>
<path fill="none" stroke="#191970" d="M224.7025,-347.4639C249.2584,-337.6708 281.4907,-324.8162 307.7529,-314.3426"/>
<polygon fill="#191970" stroke="#191970" points="309.1411,-317.5571 317.1331,-310.6017 306.5479,-311.0551 309.1411,-317.5571"/>
</g>
<!-- Node3 -->
<g id="node4" class="node">
<title>Node3</title>
<g id="a_node4"><a xlink:href="RaEngine_8hpp.html" target="_top" xlink:title="Engine/RaEngine.hpp">
<polygon fill="#ffffff" stroke="#000000" points="326.5,-224.5 326.5,-243.5 445.5,-243.5 445.5,-224.5 326.5,-224.5"/>
<text text-anchor="middle" x="386" y="-231.5" font-family="Helvetica,sans-Serif" font-size="10.00" fill="#000000">Engine/RaEngine.hpp</text>
</a>
</g>
</g>
<!-- Node1&#45;&gt;Node3 -->
<g id="edge10" class="edge">
<title>Node1&#45;&gt;Node3</title>
<path fill="none" stroke="#191970" d="M278.623,-357.1056C347.1667,-350.9312 432.7453,-337.9384 455,-311 463.7751,-300.3781 461.5012,-292.1475 455,-280 447.5485,-266.0767 433.8151,-255.6399 420.551,-248.258"/>
<polygon fill="#191970" stroke="#191970" points="422.0215,-245.0787 411.5262,-243.6302 418.8274,-251.3075 422.0215,-245.0787"/>
</g>
<!-- Node10 -->
<g id="node11" class="node">
<title>Node10</title>
<g id="a_node11"><a xlink:href="System_8hpp.html" target="_top" xlink:title="Engine/System/System.hpp">
<polygon fill="#ffffff" stroke="#000000" points="95,-286 95,-305 245,-305 245,-286 95,-286"/>
<text text-anchor="middle" x="170" y="-293" font-family="Helvetica,sans-Serif" font-size="10.00" fill="#000000">Engine/System/System.hpp</text>
</a>
</g>
</g>
<!-- Node1&#45;&gt;Node10 -->
<g id="edge11" class="edge">
<title>Node1&#45;&gt;Node10</title>
<path fill="none" stroke="#191970" d="M183.1424,-347.2967C180.6995,-337.6685 177.5185,-325.1318 174.898,-314.8038"/>
<polygon fill="#191970" stroke="#191970" points="178.2764,-313.887 172.4244,-305.055 171.4914,-315.6086 178.2764,-313.887"/>
</g>
<!-- Node1&#45;&gt;Node11 -->
<g id="edge15" class="edge">
<title>Node1&#45;&gt;Node11</title>
<path fill="none" stroke="#191970" d="M147.5256,-347.4785C127.7342,-338.736 104.1764,-326.3891 86,-311 66.2632,-294.2898 49.4746,-269.4735 39.3335,-252.562"/>
<polygon fill="#191970" stroke="#191970" points="42.2034,-250.5338 34.1588,-243.6392 36.148,-254.0456 42.2034,-250.5338"/>
</g>
<!-- Node2&#45;&gt;Node3 -->
<g id="edge3" class="edge">
<title>Node2&#45;&gt;Node3</title>
<path fill="none" stroke="#191970" d="M362.6629,-280.2977C366.8316,-272.0277 372.0265,-261.7215 376.4561,-252.9339"/>
<polygon fill="#191970" stroke="#191970" points="379.6607,-254.3521 381.0365,-243.8469 373.4099,-251.2012 379.6607,-254.3521"/>
</g>
<!-- Node4 -->
<g id="node5" class="node">
<title>Node4</title>
<g id="a_node5"><a xlink:href="CoreMacros_8hpp.html" target="_top" xlink:title="Core/CoreMacros.hpp">
<polygon fill="#ffffff" stroke="#000000" points="893,-56.5 893,-75.5 1013,-75.5 1013,-56.5 893,-56.5"/>
<text text-anchor="middle" x="953" y="-63.5" font-family="Helvetica,sans-Serif" font-size="10.00" fill="#000000">Core/CoreMacros.hpp</text>
</a>
</g>
</g>
<!-- Node3&#45;&gt;Node4 -->
<g id="edge4" class="edge">
<title>Node3&#45;&gt;Node4</title>
<path fill="none" stroke="#191970" d="M393.4224,-224.0347C404.6068,-209.6828 427.1346,-183.2478 452,-168 520.5347,-125.9737 545.6654,-130.0804 624,-112 712.1962,-91.6435 815.9055,-78.9577 882.9591,-72.1883"/>
<polygon fill="#191970" stroke="#191970" points="883.3836,-75.6635 892.9887,-71.1923 882.6918,-68.6977 883.3836,-75.6635"/>
</g>
<!-- Node5 -->
<g id="node6" class="node">
<title>Node5</title>
<polygon fill="#ffffff" stroke="#bfbfbf" points="1037,-.5 1037,-19.5 1089,-19.5 1089,-.5 1037,-.5"/>
<text text-anchor="middle" x="1063" y="-7.5" font-family="Helvetica,sans-Serif" font-size="10.00" fill="#000000">cassert</text>
</g>
<!-- Node4&#45;&gt;Node5 -->
<g id="edge5" class="edge">
<title>Node4&#45;&gt;Node5</title>
<path fill="none" stroke="#191970" d="M972.1605,-56.2455C989.5111,-47.4125 1015.2901,-34.2887 1034.9583,-24.2758"/>
<polygon fill="#191970" stroke="#191970" points="1036.7353,-27.2986 1044.059,-19.6427 1033.5595,-21.0605 1036.7353,-27.2986"/>
</g>
<!-- Node6 -->
<g id="node7" class="node">
<title>Node6</title>
<polygon fill="#ffffff" stroke="#bfbfbf" points="821,-.5 821,-19.5 867,-19.5 867,-.5 821,-.5"/>
<text text-anchor="middle" x="844" y="-7.5" font-family="Helvetica,sans-Serif" font-size="10.00" fill="#000000">cstdio</text>
</g>
<!-- Node4&#45;&gt;Node6 -->
<g id="edge6" class="edge">
<title>Node4&#45;&gt;Node6</title>
<path fill="none" stroke="#191970" d="M934.0136,-56.2455C916.8208,-47.4125 891.2762,-34.2887 871.7868,-24.2758"/>
<polygon fill="#191970" stroke="#191970" points="873.263,-21.0993 862.7688,-19.6427 870.0641,-27.3257 873.263,-21.0993"/>
</g>
<!-- Node7 -->
<g id="node8" class="node">
<title>Node7</title>
<polygon fill="#ffffff" stroke="#bfbfbf" points="885,-.5 885,-19.5 945,-19.5 945,-.5 885,-.5"/>
<text text-anchor="middle" x="915" y="-7.5" font-family="Helvetica,sans-Serif" font-size="10.00" fill="#000000">iostream</text>
</g>
<!-- Node4&#45;&gt;Node7 -->
<g id="edge7" class="edge">
<title>Node4&#45;&gt;Node7</title>
<path fill="none" stroke="#191970" d="M946.3809,-56.2455C941.0954,-48.4564 933.5459,-37.3308 927.1762,-27.9439"/>
<polygon fill="#191970" stroke="#191970" points="930.0545,-25.9522 921.5432,-19.6427 924.2621,-29.8827 930.0545,-25.9522"/>
</g>
<!-- Node8 -->
<g id="node9" class="node">
<title>Node8</title>
<polygon fill="#ffffff" stroke="#bfbfbf" points="963,-.5 963,-19.5 1019,-19.5 1019,-.5 963,-.5"/>
<text text-anchor="middle" x="991" y="-7.5" font-family="Helvetica,sans-Serif" font-size="10.00" fill="#000000">sstream</text>
</g>
<!-- Node4&#45;&gt;Node8 -->
<g id="edge8" class="edge">
<title>Node4&#45;&gt;Node8</title>
<path fill="none" stroke="#191970" d="M959.6191,-56.2455C964.9046,-48.4564 972.4541,-37.3308 978.8238,-27.9439"/>
<polygon fill="#191970" stroke="#191970" points="981.7379,-29.8827 984.4568,-19.6427 975.9455,-25.9522 981.7379,-29.8827"/>
</g>
<!-- Node9 -->
<g id="node10" class="node">
<title>Node9</title>
<polygon fill="#ffffff" stroke="#bfbfbf" points="1205,-.5 1205,-19.5 1253,-19.5 1253,-.5 1205,-.5"/>
<text text-anchor="middle" x="1229" y="-7.5" font-family="Helvetica,sans-Serif" font-size="10.00" fill="#000000">thread</text>
</g>
<!-- Node4&#45;&gt;Node9 -->
<g id="edge9" class="edge">
<title>Node4&#45;&gt;Node9</title>
<path fill="none" stroke="#191970" d="M1000.1325,-56.4369C1055.3561,-45.2321 1145.5273,-26.9365 1194.5789,-16.984"/>
<polygon fill="#191970" stroke="#191970" points="1195.5779,-20.3527 1204.6822,-14.934 1194.1859,-13.4925 1195.5779,-20.3527"/>
</g>
<!-- Node10&#45;&gt;Node3 -->
<g id="edge12" class="edge">
<title>Node10&#45;&gt;Node3</title>
<path fill="none" stroke="#191970" d="M203.75,-285.8906C241.2381,-275.2169 301.8597,-257.9566 342.7886,-246.3033"/>
<polygon fill="#191970" stroke="#191970" points="343.8277,-249.6466 352.487,-243.5419 341.9108,-242.9141 343.8277,-249.6466"/>
</g>
<!-- Node10&#45;&gt;Node11 -->
<g id="edge13" class="edge">
<title>Node10&#45;&gt;Node11</title>
<path fill="none" stroke="#191970" d="M147.9688,-285.8906C124.3769,-275.6005 86.7499,-259.1888 60.1367,-247.5809"/>
<polygon fill="#191970" stroke="#191970" points="61.4419,-244.3318 50.8765,-243.5419 58.6433,-250.748 61.4419,-244.3318"/>
</g>
<!-- Node10&#45;&gt;Node12 -->
<g id="edge14" class="edge">
<title>Node10&#45;&gt;Node12</title>
<path fill="none" stroke="#191970" d="M179.0625,-285.8906C187.7793,-276.6478 201.154,-262.466 211.7196,-251.2628"/>
<polygon fill="#191970" stroke="#191970" points="214.495,-253.4213 218.8097,-243.7449 209.4024,-248.6186 214.495,-253.4213"/>
</g>
<!-- Node13&#45;&gt;Node3 -->
<g id="edge42" class="edge">
<title>Node13&#45;&gt;Node3</title>
<path fill="none" stroke="#191970" d="M769.8242,-414.4518C716.7628,-392.7414 616.4885,-350.852 533,-311 509.9683,-300.0061 448.4096,-267.35 412.6812,-248.2804"/>
<polygon fill="#191970" stroke="#191970" points="414.2372,-245.1435 403.7676,-243.5187 410.9388,-251.3177 414.2372,-245.1435"/>
</g>
<!-- Node14 -->
<g id="node15" class="node">
<title>Node14</title>
<g id="a_node15"><a xlink:href="Math_8hpp.html" target="_top" xlink:title="Core/Math/Math.hpp">
<polygon fill="#ffffff" stroke="#000000" points="1101,-353 1101,-372 1215,-372 1215,-353 1101,-353"/>
<text text-anchor="middle" x="1158" y="-360" font-family="Helvetica,sans-Serif" font-size="10.00" fill="#000000">Core/Math/Math.hpp</text>
</a>
</g>
</g>
<!-- Node13&#45;&gt;Node14 -->
<g id="edge17" class="edge">
<title>Node13&#45;&gt;Node14</title>
<path fill="none" stroke="#191970" d="M875.5291,-417.7816C932.7267,-407.8101 1016.3356,-392.7905 1089,-378 1094.7805,-376.8234 1100.8217,-375.5425 1106.8222,-374.2378"/>
<polygon fill="#191970" stroke="#191970" points="1107.8157,-377.603 1116.8288,-372.034 1106.3101,-370.7668 1107.8157,-377.603"/>
</g>
<!-- Node19 -->
<g id="node20" class="node">
<title>Node19</title>
<g id="a_node20"><a xlink:href="Types_8hpp.html" target="_top" xlink:title="Core/Types.hpp">
<polygon fill="#ffffff" stroke="#000000" points="780.5,-224.5 780.5,-243.5 871.5,-243.5 871.5,-224.5 780.5,-224.5"/>
<text text-anchor="middle" x="826" y="-231.5" font-family="Helvetica,sans-Serif" font-size="10.00" fill="#000000">Core/Types.hpp</text>
</a>
</g>
</g>
<!-- Node13&#45;&gt;Node19 -->
<g id="edge24" class="edge">
<title>Node13&#45;&gt;Node19</title>
<path fill="none" stroke="#191970" d="M795.9861,-414.1204C789.6513,-404.3048 782.3104,-391.0194 779,-378 775.6048,-364.6471 776.3022,-360.5111 779,-347 785.9992,-311.9466 804.0969,-274.1641 815.6832,-252.3778"/>
<polygon fill="#191970" stroke="#191970" points="818.776,-254.0168 820.4852,-243.5607 812.6285,-250.6687 818.776,-254.0168"/>
</g>
<!-- Node23 -->
<g id="node24" class="node">
<title>Node23</title>
<g id="a_node24"><a xlink:href="Component_8hpp.html" target="_top" xlink:title="Engine/Component/Component.hpp">
<polygon fill="#ffffff" stroke="#000000" points="541.5,-286 541.5,-305 730.5,-305 730.5,-286 541.5,-286"/>
<text text-anchor="middle" x="636" y="-293" font-family="Helvetica,sans-Serif" font-size="10.00" fill="#000000">Engine/Component/Component.hpp</text>
</a>
</g>
</g>
<!-- Node13&#45;&gt;Node23 -->
<g id="edge29" class="edge">
<title>Node13&#45;&gt;Node23</title>
<path fill="none" stroke="#191970" d="M787.7165,-414.389C755.1633,-388.8794 689.6126,-337.5122 656.3525,-311.4487"/>
<polygon fill="#191970" stroke="#191970" points="658.2861,-308.5173 648.2561,-305.1042 653.9684,-314.0272 658.2861,-308.5173"/>
</g>
<!-- Node28 -->
<g id="node29" class="node">
<title>Node28</title>
<g id="a_node29"><a xlink:href="ViewingParameters_8hpp.html" target="_top" xlink:title="Engine/Renderer/Camera\l/ViewingParameters.hpp">
<polygon fill="#ffffff" stroke="#000000" points="787.5,-347.5 787.5,-377.5 924.5,-377.5 924.5,-347.5 787.5,-347.5"/>
<text text-anchor="start" x="795.5" y="-365.5" font-family="Helvetica,sans-Serif" font-size="10.00" fill="#000000">Engine/Renderer/Camera</text>
<text text-anchor="middle" x="856" y="-354.5" font-family="Helvetica,sans-Serif" font-size="10.00" fill="#000000">/ViewingParameters.hpp</text>
</a>
</g>
</g>
<!-- Node13&#45;&gt;Node28 -->
<g id="edge43" class="edge">
<title>Node13&#45;&gt;Node28</title>
<path fill="none" stroke="#191970" d="M818.1189,-414.2967C824.2585,-405.9016 832.0154,-395.2952 838.9086,-385.8698"/>
<polygon fill="#191970" stroke="#191970" points="841.847,-387.781 844.9251,-377.6432 836.1968,-383.6488 841.847,-387.781"/>
</g>
<!-- Node29 -->
<g id="node30" class="node">
<title>Node29</title>
<g id="a_node30"><a xlink:href="Camera_8inl.html" target="_top" xlink:title="Engine/Renderer/Camera\l/Camera.inl">
<polygon fill="#ffffff" stroke="#000000" points="942.5,-347.5 942.5,-377.5 1079.5,-377.5 1079.5,-347.5 942.5,-347.5"/>
<text text-anchor="start" x="950.5" y="-365.5" font-family="Helvetica,sans-Serif" font-size="10.00" fill="#000000">Engine/Renderer/Camera</text>
<text text-anchor="middle" x="1011" y="-354.5" font-family="Helvetica,sans-Serif" font-size="10.00" fill="#000000">/Camera.inl</text>
</a>
</g>
</g>
<!-- Node13&#45;&gt;Node29 -->
<g id="edge45" class="edge">
<title>Node13&#45;&gt;Node29</title>
<path fill="none" stroke="#191970" d="M847.0411,-414.4639C876.2902,-404.456 916.3846,-391.2509 949.6392,-380.657"/>
<polygon fill="#191970" stroke="#191970" points="950.7968,-383.9618 959.2702,-377.6017 948.68,-377.2895 950.7968,-383.9618"/>
</g>
<!-- Node15 -->
<g id="node16" class="node">
<title>Node15</title>
<g id="a_node16"><a xlink:href="RaCore_8hpp.html" target="_top" xlink:title="Core/RaCore.hpp">
<polygon fill="#ffffff" stroke="#000000" points="904,-112.5 904,-131.5 1002,-131.5 1002,-112.5 904,-112.5"/>
<text text-anchor="middle" x="953" y="-119.5" font-family="Helvetica,sans-Serif" font-size="10.00" fill="#000000">Core/RaCore.hpp</text>
</a>
</g>
</g>
<!-- Node14&#45;&gt;Node15 -->
<g id="edge18" class="edge">
<title>Node14&#45;&gt;Node15</title>
<path fill="none" stroke="#191970" d="M1215.061,-356.3045C1270.3235,-348.9889 1348.4178,-334.717 1367,-311 1375.4974,-300.1546 1370.9653,-293.1948 1367,-280 1358.4145,-251.4314 1354.1816,-241.4679 1330,-224 1233.3432,-154.1785 1091.5827,-132.151 1012.2948,-125.202"/>
<polygon fill="#191970" stroke="#191970" points="1012.2563,-121.6871 1002.0027,-124.3543 1011.6816,-128.6635 1012.2563,-121.6871"/>
</g>
<!-- Node16 -->
<g id="node17" class="node">
<title>Node16</title>
<polygon fill="#ffffff" stroke="#bfbfbf" points="1228,-286 1228,-305 1292,-305 1292,-286 1228,-286"/>
<text text-anchor="middle" x="1260" y="-293" font-family="Helvetica,sans-Serif" font-size="10.00" fill="#000000">algorithm</text>
</g>
<!-- Node14&#45;&gt;Node16 -->
<g id="edge20" class="edge">
<title>Node14&#45;&gt;Node16</title>
<path fill="none" stroke="#191970" d="M1172.6141,-352.9005C1189.429,-341.8554 1217.2549,-323.5776 1236.9858,-310.6172"/>
<polygon fill="#191970" stroke="#191970" points="1238.9764,-313.4972 1245.413,-305.0817 1235.1333,-307.6465 1238.9764,-313.4972"/>
</g>
<!-- Node17 -->
<g id="node18" class="node">
<title>Node17</title>
<polygon fill="#ffffff" stroke="#bfbfbf" points="1310.5,-286 1310.5,-305 1357.5,-305 1357.5,-286 1310.5,-286"/>
<text text-anchor="middle" x="1334" y="-293" font-family="Helvetica,sans-Serif" font-size="10.00" fill="#000000">cmath</text>
</g>
<!-- Node14&#45;&gt;Node17 -->
<g id="edge21" class="edge">
<title>Node14&#45;&gt;Node17</title>
<path fill="none" stroke="#191970" d="M1187.0617,-352.9243C1216.1706,-343.1254 1262.1111,-327.0945 1301,-311 1302.3525,-310.4403 1303.7299,-309.8552 1305.1167,-309.2539"/>
<polygon fill="#191970" stroke="#191970" points="1306.5581,-312.4434 1314.2405,-305.1474 1303.685,-306.0601 1306.5581,-312.4434"/>
</g>
<!-- Node18 -->
<g id="node19" class="node">
<title>Node18</title>
<g id="a_node19"><a xlink:href="Math_8inl.html" target="_top" xlink:title="Core/Math/Math.inl">
<polygon fill="#ffffff" stroke="#000000" points="1102,-286 1102,-305 1210,-305 1210,-286 1102,-286"/>
<text text-anchor="middle" x="1156" y="-293" font-family="Helvetica,sans-Serif" font-size="10.00" fill="#000000">Core/Math/Math.inl</text>
</a>
</g>
</g>
<!-- Node14&#45;&gt;Node18 -->
<g id="edge22" class="edge">
<title>Node14&#45;&gt;Node18</title>
<path fill="none" stroke="#191970" d="M1152.8129,-352.9005C1150.6329,-343.149 1149.7315,-327.7597 1150.3665,-315.3695"/>
<polygon fill="#191970" stroke="#191970" points="1153.8827,-315.3788 1151.3889,-305.0817 1146.917,-314.6865 1153.8827,-315.3788"/>
</g>
<!-- Node15&#45;&gt;Node4 -->
<g id="edge19" class="edge">
<title>Node15&#45;&gt;Node4</title>
<path fill="none" stroke="#191970" d="M953,-112.2455C953,-104.9382 953,-94.6944 953,-85.7046"/>
<polygon fill="#191970" stroke="#191970" points="956.5001,-85.6426 953,-75.6427 949.5001,-85.6427 956.5001,-85.6426"/>
</g>
<!-- Node18&#45;&gt;Node14 -->
<g id="edge23" class="edge">
<title>Node18&#45;&gt;Node14</title>
<path fill="none" stroke="#191970" d="M1161.1832,-305.0817C1163.3646,-314.8263 1164.2677,-330.214 1163.6347,-342.6079"/>
<polygon fill="#191970" stroke="#191970" points="1160.118,-342.6039 1162.614,-352.9005 1167.0838,-343.2947 1160.118,-342.6039"/>
</g>
<!-- Node19&#45;&gt;Node15 -->
<g id="edge25" class="edge">
<title>Node19&#45;&gt;Node15</title>
<path fill="none" stroke="#191970" d="M853.8251,-224.4244C872.7848,-216.8293 897.5213,-204.7033 915,-188 928.8454,-174.7688 939.1882,-155.3817 945.5597,-141.0403"/>
<polygon fill="#191970" stroke="#191970" points="948.8578,-142.2253 949.4905,-131.6494 942.4007,-139.5225 948.8578,-142.2253"/>
</g>
<!-- Node20 -->
<g id="node21" class="node">
<title>Node20</title>
<polygon fill="#ffffff" stroke="#bfbfbf" points="461.5,-168.5 461.5,-187.5 530.5,-187.5 530.5,-168.5 461.5,-168.5"/>
<text text-anchor="middle" x="496" y="-175.5" font-family="Helvetica,sans-Serif" font-size="10.00" fill="#000000">Eigen/Core</text>
</g>
<!-- Node19&#45;&gt;Node20 -->
<g id="edge26" class="edge">
<title>Node19&#45;&gt;Node20</title>
<path fill="none" stroke="#191970" d="M780.4614,-226.2722C717.151,-215.5287 603.2659,-196.2027 540.5092,-185.5531"/>
<polygon fill="#191970" stroke="#191970" points="540.9657,-182.0806 530.5211,-183.8581 539.7945,-188.9819 540.9657,-182.0806"/>
</g>
<!-- Node21 -->
<g id="node22" class="node">
<title>Node21</title>
<polygon fill="#ffffff" stroke="#bfbfbf" points="568.5,-168.5 568.5,-187.5 663.5,-187.5 663.5,-168.5 568.5,-168.5"/>
<text text-anchor="middle" x="616" y="-175.5" font-family="Helvetica,sans-Serif" font-size="10.00" fill="#000000">Eigen/Geometry</text>
</g>
<!-- Node19&#45;&gt;Node21 -->
<g id="edge27" class="edge">
<title>Node19&#45;&gt;Node21</title>
<path fill="none" stroke="#191970" d="M789.8997,-224.3733C754.3752,-214.9001 700.012,-200.4032 661.5381,-190.1435"/>
<polygon fill="#191970" stroke="#191970" points="662.1934,-186.696 651.6292,-187.5011 660.3897,-193.4596 662.1934,-186.696"/>
</g>
<!-- Node22 -->
<g id="node23" class="node">
<title>Node22</title>
<polygon fill="#ffffff" stroke="#bfbfbf" points="826,-168.5 826,-187.5 906,-187.5 906,-168.5 826,-168.5"/>
<text text-anchor="middle" x="866" y="-175.5" font-family="Helvetica,sans-Serif" font-size="10.00" fill="#000000">Eigen/Sparse</text>
</g>
<!-- Node19&#45;&gt;Node22 -->
<g id="edge28" class="edge">
<title>Node19&#45;&gt;Node22</title>
<path fill="none" stroke="#191970" d="M832.9675,-224.2455C838.5311,-216.4564 846.478,-205.3308 853.1829,-195.9439"/>
<polygon fill="#191970" stroke="#191970" points="856.148,-197.8144 859.1124,-187.6427 850.4519,-193.7457 856.148,-197.8144"/>
</g>
<!-- Node23&#45;&gt;Node3 -->
<g id="edge37" class="edge">
<title>Node23&#45;&gt;Node3</title>
<path fill="none" stroke="#191970" d="M597.2118,-285.9581C553.4216,-275.1857 482.1091,-257.6428 434.6304,-245.9631"/>
<polygon fill="#191970" stroke="#191970" points="435.4258,-242.5545 424.8792,-243.5643 433.7536,-249.3518 435.4258,-242.5545"/>
</g>
<!-- Node23&#45;&gt;Node12 -->
<g id="edge38" class="edge">
<title>Node23&#45;&gt;Node12</title>
<path fill="none" stroke="#191970" d="M572.6977,-285.9581C485.1637,-272.7636 330.2447,-249.4119 261.9511,-239.1176"/>
<polygon fill="#191970" stroke="#191970" points="262.1677,-235.6108 251.7577,-237.5811 261.1243,-242.5326 262.1677,-235.6108"/>
</g>
<!-- Node23&#45;&gt;Node19 -->
<g id="edge39" class="edge">
<title>Node23&#45;&gt;Node19</title>
<path fill="none" stroke="#191970" d="M665.6875,-285.8906C698.3146,-275.3298 750.8626,-258.3208 786.8425,-246.6747"/>
<polygon fill="#191970" stroke="#191970" points="788.0848,-249.9514 796.521,-243.5419 785.9291,-243.2916 788.0848,-249.9514"/>
</g>
<!-- Node23&#45;&gt;Node20 -->
<g id="edge35" class="edge">
<title>Node23&#45;&gt;Node20</title>
<path fill="none" stroke="#191970" d="M598.6065,-285.928C574.6149,-278.1145 544.2726,-264.8851 524,-244 511.565,-231.1893 504.2744,-212.0143 500.2672,-197.6287"/>
<polygon fill="#191970" stroke="#191970" points="503.62,-196.6074 497.8121,-187.7463 496.8265,-198.2952 503.62,-196.6074"/>
</g>
<!-- Node23&#45;&gt;Node21 -->
<g id="edge36" class="edge">
<title>Node23&#45;&gt;Node21</title>
<path fill="none" stroke="#191970" d="M593.4045,-285.9215C570.9929,-278.4837 545.4412,-265.6549 532,-244 517.6326,-220.8529 547.4108,-202.5389 575.403,-191.1328"/>
<polygon fill="#191970" stroke="#191970" points="576.6848,-194.3898 584.7612,-187.5325 574.1713,-187.8566 576.6848,-194.3898"/>
</g>
<!-- Node24 -->
<g id="node25" class="node">
<title>Node24</title>
<g id="a_node25"><a xlink:href="Index_8hpp.html" target="_top" xlink:title="Core/Utils/Index.hpp">
<polygon fill="#ffffff" stroke="#000000" points="692,-168.5 692,-187.5 808,-187.5 808,-168.5 692,-168.5"/>
<text text-anchor="middle" x="750" y="-175.5" font-family="Helvetica,sans-Serif" font-size="10.00" fill="#000000">Core/Utils/Index.hpp</text>
</a>
</g>
</g>
<!-- Node23&#45;&gt;Node24 -->
<g id="edge30" class="edge">
<title>Node23&#45;&gt;Node24</title>
<path fill="none" stroke="#191970" d="M668.4476,-285.9339C689.7995,-278.017 716.7142,-264.6662 733,-244 743.4018,-230.8004 747.4944,-211.9316 749.0768,-197.7473"/>
<polygon fill="#191970" stroke="#191970" points="752.582,-197.8184 749.8803,-187.5739 745.6037,-197.2673 752.582,-197.8184"/>
</g>
<!-- Node27 -->
<g id="node28" class="node">
<title>Node27</title>
<g id="a_node28"><a xlink:href="Component_8inl.html" target="_top" xlink:title="Engine/Component/Component.inl">
<polygon fill="#ffffff" stroke="#000000" points="540.5,-224.5 540.5,-243.5 723.5,-243.5 723.5,-224.5 540.5,-224.5"/>
<text text-anchor="middle" x="632" y="-231.5" font-family="Helvetica,sans-Serif" font-size="10.00" fill="#000000">Engine/Component/Component.inl</text>
</a>
</g>
</g>
<!-- Node23&#45;&gt;Node27 -->
<g id="edge40" class="edge">
<title>Node23&#45;&gt;Node27</title>
<path fill="none" stroke="#191970" d="M630.3125,-285.8906C628.0946,-277.3657 626.8332,-264.6392 626.9323,-253.9235"/>
<polygon fill="#191970" stroke="#191970" points="630.4378,-253.9371 627.545,-243.7449 623.4504,-253.5165 630.4378,-253.9371"/>
</g>
<!-- Node24&#45;&gt;Node15 -->
<g id="edge31" class="edge">
<title>Node24&#45;&gt;Node15</title>
<path fill="none" stroke="#191970" d="M784.8969,-168.3733C819.0911,-158.9404 871.3415,-144.5265 908.5042,-134.2747"/>
<polygon fill="#191970" stroke="#191970" points="909.8493,-137.5345 918.5584,-131.5011 907.9877,-130.7865 909.8493,-137.5345"/>
</g>
<!-- Node25 -->
<g id="node26" class="node">
<title>Node25</title>
<polygon fill="#ffffff" stroke="#bfbfbf" points="633,-112.5 633,-131.5 677,-131.5 677,-112.5 633,-112.5"/>
<text text-anchor="middle" x="655" y="-119.5" font-family="Helvetica,sans-Serif" font-size="10.00" fill="#000000">limits</text>
</g>
<!-- Node24&#45;&gt;Node25 -->
<g id="edge32" class="edge">
<title>Node24&#45;&gt;Node25</title>
<path fill="none" stroke="#191970" d="M733.4523,-168.2455C718.7401,-159.5731 697.0112,-146.7645 680.1495,-136.825"/>
<polygon fill="#191970" stroke="#191970" points="681.7502,-133.7057 671.3581,-131.6427 678.1954,-139.736 681.7502,-133.7057"/>
</g>
<!-- Node26 -->
<g id="node27" class="node">
<title>Node26</title>
<g id="a_node27"><a xlink:href="Index_8inl.html" target="_top" xlink:title="Core/Utils/Index.inl">
<polygon fill="#ffffff" stroke="#000000" points="695,-112.5 695,-131.5 805,-131.5 805,-112.5 695,-112.5"/>
<text text-anchor="middle" x="750" y="-119.5" font-family="Helvetica,sans-Serif" font-size="10.00" fill="#000000">Core/Utils/Index.inl</text>
</a>
</g>
</g>
<!-- Node24&#45;&gt;Node26 -->
<g id="edge33" class="edge">
<title>Node24&#45;&gt;Node26</title>
<path fill="none" stroke="#191970" d="M744.7332,-168.2455C743.3221,-160.9382 742.9179,-150.6944 743.5205,-141.7046"/>
<polygon fill="#191970" stroke="#191970" points="747.0111,-141.9945 744.7549,-131.6427 740.0632,-141.1421 747.0111,-141.9945"/>
</g>
<!-- Node26&#45;&gt;Node24 -->
<g id="edge34" class="edge">
<title>Node26&#45;&gt;Node24</title>
<path fill="none" stroke="#191970" d="M755.2451,-131.6427C756.6665,-138.9199 757.081,-149.155 756.4887,-158.1575"/>
<polygon fill="#191970" stroke="#191970" points="752.9947,-157.8972 755.2668,-168.2455 759.9439,-158.739 752.9947,-157.8972"/>
</g>
<!-- Node27&#45;&gt;Node23 -->
<g id="edge41" class="edge">
<title>Node27&#45;&gt;Node23</title>
<path fill="none" stroke="#191970" d="M637.7226,-243.7449C639.9303,-252.314 641.1795,-265.0519 641.066,-275.7462"/>
<polygon fill="#191970" stroke="#191970" points="637.5626,-275.6933 640.4375,-285.8906 644.5492,-276.1262 637.5626,-275.6933"/>
</g>
<!-- Node28&#45;&gt;Node19 -->
<g id="edge44" class="edge">
<title>Node28&#45;&gt;Node19</title>
<path fill="none" stroke="#191970" d="M852.4408,-347.2548C847.0057,-323.9744 836.6367,-279.5607 830.6253,-253.8117"/>
<polygon fill="#191970" stroke="#191970" points="833.9549,-252.6782 828.2729,-243.7358 827.1382,-254.2697 833.9549,-252.6782"/>
</g>
<!-- Node29&#45;&gt;Node13 -->
<g id="edge58" class="edge">
<title>Node29&#45;&gt;Node13</title>
<path fill="none" stroke="#191970" d="M970.7673,-377.6017C941.4708,-387.6235 901.3678,-400.8298 868.1431,-411.4123"/>
<polygon fill="#191970" stroke="#191970" points="866.9959,-408.1043 858.5221,-414.4639 869.1123,-414.7767 866.9959,-408.1043"/>
</g>
<!-- Node30 -->
<g id="node31" class="node">
<title>Node30</title>
<g id="a_node31"><a xlink:href="Entity_8hpp.html" target="_top" xlink:title="Engine/Entity/Entity.hpp">
<polygon fill="#ffffff" stroke="#000000" points="949,-286 949,-305 1081,-305 1081,-286 949,-286"/>
<text text-anchor="middle" x="1015" y="-293" font-family="Helvetica,sans-Serif" font-size="10.00" fill="#000000">Engine/Entity/Entity.hpp</text>
</a>
</g>
</g>
<!-- Node29&#45;&gt;Node30 -->
<g id="edge46" class="edge">
<title>Node29&#45;&gt;Node30</title>
<path fill="none" stroke="#191970" d="M1011.9077,-347.2967C1012.4764,-337.7699 1013.2152,-325.3954 1013.828,-315.1306"/>
<polygon fill="#191970" stroke="#191970" points="1017.3273,-315.2458 1014.4296,-305.055 1010.3397,-314.8286 1017.3273,-315.2458"/>
</g>
<!-- Node30&#45;&gt;Node3 -->
<g id="edge47" class="edge">
<title>Node30&#45;&gt;Node3</title>
<path fill="none" stroke="#191970" d="M948.8748,-289.0347C829.2259,-277.3361 577.898,-252.7627 455.688,-240.8137"/>
<polygon fill="#191970" stroke="#191970" points="455.9862,-237.3262 445.693,-239.8364 455.305,-244.293 455.9862,-237.3262"/>
</g>
<!-- Node30&#45;&gt;Node9 -->
<g id="edge50" class="edge">
<title>Node30&#45;&gt;Node9</title>
<path fill="none" stroke="#191970" d="M1061.1291,-285.973C1071.5913,-283.9127 1082.6645,-281.8109 1093,-280 1145.4714,-270.8062 1289.9725,-279.1508 1330,-244 1352.9361,-223.8583 1349,-208.5246 1349,-178 1349,-178 1349,-178 1349,-122 1349,-74.2581 1297.6095,-41.0374 1262.0895,-23.7779"/>
<polygon fill="#191970" stroke="#191970" points="1263.5374,-20.5913 1252.9954,-19.5343 1260.5773,-26.9346 1263.5374,-20.5913"/>
</g>
<!-- Node30&#45;&gt;Node12 -->
<g id="edge51" class="edge">
<title>Node30&#45;&gt;Node12</title>
<path fill="none" stroke="#191970" d="M948.5233,-291.4448C824.3333,-283.6801 548.691,-265.5557 317,-244 298.8392,-242.3104 278.6347,-240.0695 262.0725,-238.1374"/>
<polygon fill="#191970" stroke="#191970" points="262.1144,-234.6181 251.7729,-236.9212 261.2935,-241.5698 262.1144,-234.6181"/>
</g>
<!-- Node30&#45;&gt;Node19 -->
<g id="edge52" class="edge">
<title>Node30&#45;&gt;Node19</title>
<path fill="none" stroke="#191970" d="M985.4688,-285.8906C953.0134,-275.3298 900.7419,-258.3208 864.9514,-246.6747"/>
<polygon fill="#191970" stroke="#191970" points="865.9161,-243.308 855.3239,-243.5419 863.7501,-249.9645 865.9161,-243.308"/>
</g>
<!-- Node31 -->
<g id="node32" class="node">
<title>Node31</title>
<polygon fill="#ffffff" stroke="#bfbfbf" points="1211,-224.5 1211,-243.5 1259,-243.5 1259,-224.5 1211,-224.5"/>
<text text-anchor="middle" x="1235" y="-231.5" font-family="Helvetica,sans-Serif" font-size="10.00" fill="#000000">mutex</text>
</g>
<!-- Node30&#45;&gt;Node31 -->
<g id="edge48" class="edge">
<title>Node30&#45;&gt;Node31</title>
<path fill="none" stroke="#191970" d="M1050.5771,-285.9916C1086.2674,-276.3888 1143.0463,-260.9387 1201.1565,-244.1967"/>
<polygon fill="#191970" stroke="#191970" points="1202.2354,-247.5283 1210.8705,-241.3894 1200.2919,-240.8034 1202.2354,-247.5283"/>
</g>
<!-- Node32 -->
<g id="node33" class="node">
<title>Node32</title>
<polygon fill="#ffffff" stroke="#bfbfbf" points="1277,-224.5 1277,-243.5 1321,-243.5 1321,-224.5 1277,-224.5"/>
<text text-anchor="middle" x="1299" y="-231.5" font-family="Helvetica,sans-Serif" font-size="10.00" fill="#000000">string</text>
</g>
<!-- Node30&#45;&gt;Node32 -->
<g id="edge49" class="edge">
<title>Node30&#45;&gt;Node32</title>
<path fill="none" stroke="#191970" d="M1062.5652,-285.9596C1125.3497,-273.3485 1231.3855,-251.9808 1267.0084,-243.8606"/>
<polygon fill="#191970" stroke="#191970" points="1267.8387,-247.2608 1276.7363,-241.509 1266.1939,-240.4567 1267.8387,-247.2608"/>
</g>
<!-- Node33 -->
<g id="node34" class="node">
<title>Node33</title>
<g id="a_node34"><a xlink:href="IndexedObject_8hpp.html" target="_top" xlink:title="Core/Utils/IndexedObject.hpp">
<polygon fill="#ffffff" stroke="#000000" points="889.5,-224.5 889.5,-243.5 1048.5,-243.5 1048.5,-224.5 889.5,-224.5"/>
<text text-anchor="middle" x="969" y="-231.5" font-family="Helvetica,sans-Serif" font-size="10.00" fill="#000000">Core/Utils/IndexedObject.hpp</text>
</a>
</g>
</g>
<!-- Node30&#45;&gt;Node33 -->
<g id="edge53" class="edge">
<title>Node30&#45;&gt;Node33</title>
<path fill="none" stroke="#191970" d="M1007.8125,-285.8906C1001.0334,-276.8273 990.7022,-263.0149 982.4027,-251.9188"/>
<polygon fill="#191970" stroke="#191970" points="985.0812,-249.6563 976.2888,-243.7449 979.4757,-253.849 985.0812,-249.6563"/>
</g>
<!-- Node34 -->
<g id="node35" class="node">
<title>Node34</title>
<g id="a_node35"><a xlink:href="Entity_8inl.html" target="_top" xlink:title="Engine/Entity/Entity.inl">
<polygon fill="#ffffff" stroke="#000000" points="1067,-224.5 1067,-243.5 1193,-243.5 1193,-224.5 1067,-224.5"/>
<text text-anchor="middle" x="1130" y="-231.5" font-family="Helvetica,sans-Serif" font-size="10.00" fill="#000000">Engine/Entity/Entity.inl</text>
</a>
</g>
</g>
<!-- Node30&#45;&gt;Node34 -->
<g id="edge56" class="edge">
<title>Node30&#45;&gt;Node34</title>
<path fill="none" stroke="#191970" d="M1027.9063,-285.8906C1044.9133,-275.7359 1074.8129,-259.6196 1097.9713,-248.0416"/>
<polygon fill="#191970" stroke="#191970" points="1099.6834,-251.0999 1107.1081,-243.5419 1096.5907,-244.8201 1099.6834,-251.0999"/>
</g>
<!-- Node33&#45;&gt;Node15 -->
<g id="edge54" class="edge">
<title>Node33&#45;&gt;Node15</title>
<path fill="none" stroke="#191970" d="M967.6358,-224.4509C965.0263,-206.184 959.2793,-165.9553 955.8139,-141.6976"/>
<polygon fill="#191970" stroke="#191970" points="959.2398,-140.9294 954.3607,-131.5249 952.3102,-141.9194 959.2398,-140.9294"/>
</g>
<!-- Node33&#45;&gt;Node24 -->
<g id="edge55" class="edge">
<title>Node33&#45;&gt;Node24</title>
<path fill="none" stroke="#191970" d="M931.3526,-224.3733C894.148,-214.8598 837.1297,-200.2797 796.9784,-190.0127"/>
<polygon fill="#191970" stroke="#191970" points="797.7116,-186.5877 787.1562,-187.5011 795.9773,-193.3695 797.7116,-186.5877"/>
</g>
<!-- Node34&#45;&gt;Node30 -->
<g id="edge57" class="edge">
<title>Node34&#45;&gt;Node30</title>
<path fill="none" stroke="#191970" d="M1117.2067,-243.5419C1100.257,-253.6701 1070.3711,-269.7832 1047.1829,-281.3813"/>
<polygon fill="#191970" stroke="#191970" points="1045.4545,-278.3311 1038.0313,-285.8906 1048.5484,-284.6102 1045.4545,-278.3311"/>
</g>
</g>
</svg>
