<?xml version="1.0" encoding="UTF-8" standalone="no"?>
<!DOCTYPE svg PUBLIC "-//W3C//DTD SVG 1.1//EN"
 "http://www.w3.org/Graphics/SVG/1.1/DTD/svg11.dtd">
<!-- Generated by graphviz version 2.40.1 (20161225.0304)
 -->
<!-- Title: src/GuiBase Pages: 1 -->
<!--zoomable 375 -->
<svg id="main" version="1.1" xmlns="http://www.w3.org/2000/svg" xmlns:xlink="http://www.w3.org/1999/xlink" xml:space="preserve" onload="init(evt)">
<style type="text/css"><![CDATA[
.edge:hover path { stroke: red; }
.edge:hover polygon { stroke: red; fill: red; }
]]></style>
<script type="text/javascript"><![CDATA[
var edges = document.getElementsByTagName('g');
if (edges && edges.length) {
  for (var i=0;i<edges.length;i++) {
    if (edges[i].id.substr(0,4)=='edge') {
      edges[i].setAttribute('class','edge');
    }
  }
}
]]></script>
        <defs>
                <circle id="rim" cx="0" cy="0" r="7"/>
                <circle id="rim2" cx="0" cy="0" r="3.5"/>
                <g id="zoomPlus">
                        <use xlink:href="#rim" fill="#404040">
                                <set attributeName="fill" to="#808080" begin="zoomplus.mouseover" end="zoomplus.mouseout"/>
                        </use>
                        <path d="M-4,0h8M0,-4v8" fill="none" stroke="white" stroke-width="1.5" pointer-events="none"/>
                </g>
                <g id="zoomMin">
                        <use xlink:href="#rim" fill="#404040">
                                <set attributeName="fill" to="#808080" begin="zoomminus.mouseover" end="zoomminus.mouseout"/>
                        </use>
                        <path d="M-4,0h8" fill="none" stroke="white" stroke-width="1.5" pointer-events="none"/>
                </g>
                <g id="dirArrow">
                        <path fill="none" stroke="white" stroke-width="1.5" d="M0,-3.0v7 M-2.5,-0.5L0,-3.0L2.5,-0.5"/>
                </g>
               <g id="resetDef">
                       <use xlink:href="#rim2" fill="#404040">
                               <set attributeName="fill" to="#808080" begin="reset.mouseover" end="reset.mouseout"/>
                       </use>
               </g>
        </defs>

<script type="text/javascript">
var viewWidth = 501;
var viewHeight = 375;
var sectionId = 'dynsection-0';
</script>
<script xlink:href="svgpan.js"/>
<svg id="graph" class="graph">
<g id="viewport">
<title>src/GuiBase</title>
<polygon fill="#ffffff" stroke="transparent" points="-4,4 -4,-371 496.5283,-371 496.5283,4 -4,4"/>
<g id="clust1" class="cluster">
<title>clusterdir_68267d1309a1af8e8297ef4c3efbcdba</title>
<g id="a_clust1"><a xlink:href="dir_68267d1309a1af8e8297ef4c3efbcdba.html" target="_top" xlink:title="src">
<polygon fill="#ddddee" stroke="#000000" points="50.4637,-128 50.4637,-359 306.4637,-359 306.4637,-128 50.4637,-128"/>
<text text-anchor="middle" x="178.4637" y="-347" font-family="Helvetica,sans-Serif" font-size="10.00" fill="#000000">src</text>
</a>
</g>
</g>
<g id="clust2" class="cluster">
<title>clusterdir_cb59203ea3f84fc4d67c89730003fed4</title>
<g id="a_clust2"><a xlink:href="dir_cb59203ea3f84fc4d67c89730003fed4.html" target="_top">
<polygon fill="#eeeeff" stroke="#000000" points="58.4637,-136 58.4637,-332 298.4637,-332 298.4637,-136 58.4637,-136"/>
</a>
</g>
</g>
<!-- dir_cb59203ea3f84fc4d67c89730003fed4 -->
<g id="node1" class="node">
<title>dir_cb59203ea3f84fc4d67c89730003fed4</title>
<text text-anchor="middle" x="139.4637" y="-303.5" font-family="Helvetica,sans-Serif" font-size="10.00" fill="#000000">GuiBase</text>
</g>
<!-- dir_fde802d0fe976469e8430b6df93e1b9e -->
<g id="node3" class="node">
<title>dir_fde802d0fe976469e8430b6df93e1b9e</title>
<g id="a_node3"><a xlink:href="dir_fde802d0fe976469e8430b6df93e1b9e.html" target="_top" xlink:title="TimerData">
<polygon fill="#ffffff" stroke="#000000" points="206.4637,-252 138.4637,-252 138.4637,-216 206.4637,-216 206.4637,-252"/>
<text text-anchor="middle" x="172.4637" y="-231.5" font-family="Helvetica,sans-Serif" font-size="10.00" fill="#000000">TimerData</text>
</a>
</g>
</g>
<!-- dir_cb59203ea3f84fc4d67c89730003fed4&#45;&gt;dir_fde802d0fe976469e8430b6df93e1b9e -->
<g id="edge12" class="edge">
<title>dir_cb59203ea3f84fc4d67c89730003fed4&#45;&gt;dir_fde802d0fe976469e8430b6df93e1b9e</title>
<path fill="none" stroke="#000000" d="M147.791,-287.8314C151.4367,-279.8771 155.7946,-270.369 159.8264,-261.5723"/>
<polygon fill="#000000" stroke="#000000" points="163.0394,-262.9622 164.0243,-252.4133 156.676,-260.0456 163.0394,-262.9622"/>
<g id="a_edge12&#45;headlabel"><a xlink:href="dir_000034_000036.html" target="_top" xlink:title="1">
<text text-anchor="middle" x="164.1228" y="-264.9129" font-family="Helvetica,sans-Serif" font-size="10.00" fill="#000000">1</text>
</a>
</g>
</g>
<!-- dir_796a1a15fb9cc23998586ef6281d84e1 -->
<g id="node7" class="node">
<title>dir_796a1a15fb9cc23998586ef6281d84e1</title>
<g id="a_node7"><a xlink:href="dir_796a1a15fb9cc23998586ef6281d84e1.html" target="_top" xlink:title="Viewer">
<polygon fill="#ffffff" stroke="#ff0000" points="120.4637,-252 66.4637,-252 66.4637,-216 120.4637,-216 120.4637,-252"/>
<text text-anchor="middle" x="93.4637" y="-231.5" font-family="Helvetica,sans-Serif" font-size="10.00" fill="#000000">Viewer</text>
</a>
</g>
</g>
<!-- dir_cb59203ea3f84fc4d67c89730003fed4&#45;&gt;dir_796a1a15fb9cc23998586ef6281d84e1 -->
<g id="edge11" class="edge">
<title>dir_cb59203ea3f84fc4d67c89730003fed4&#45;&gt;dir_796a1a15fb9cc23998586ef6281d84e1</title>
<path fill="none" stroke="#000000" d="M127.856,-287.8314C122.6659,-279.7079 116.4405,-269.9637 110.7212,-261.0118"/>
<polygon fill="#000000" stroke="#000000" points="113.5611,-258.9559 105.2277,-252.4133 107.6622,-262.7246 113.5611,-258.9559"/>
<g id="a_edge11&#45;headlabel"><a xlink:href="dir_000034_000040.html" target="_top" xlink:title="2">
<text text-anchor="middle" x="117.889" y="-257.9564" font-family="Helvetica,sans-Serif" font-size="10.00" fill="#000000">2</text>
</a>
</g>
</g>
<!-- dir_fae119eb913a40fe8ed97cde8b98911e -->
<g id="node8" class="node">
<title>dir_fae119eb913a40fe8ed97cde8b98911e</title>
<g id="a_node8"><a xlink:href="dir_fae119eb913a40fe8ed97cde8b98911e.html" target="_top" xlink:title="IO">
<polygon fill="#ffffff" stroke="#ff0000" points="368.4637,-252 314.4637,-252 314.4637,-216 368.4637,-216 368.4637,-252"/>
<text text-anchor="middle" x="341.4637" y="-231.5" font-family="Helvetica,sans-Serif" font-size="10.00" fill="#000000">IO</text>
</a>
</g>
</g>
<!-- dir_cb59203ea3f84fc4d67c89730003fed4&#45;&gt;dir_fae119eb913a40fe8ed97cde8b98911e -->
<g id="edge10" class="edge">
<title>dir_cb59203ea3f84fc4d67c89730003fed4&#45;&gt;dir_fae119eb913a40fe8ed97cde8b98911e</title>
<path fill="none" stroke="#000000" d="M168.3005,-291.7489C171.365,-290.4127 174.4592,-289.1357 177.4637,-288 231.5429,-267.5584 248.2833,-272.1719 302.4637,-252 303.3198,-251.6813 304.1833,-251.3518 305.0514,-251.0134"/>
<polygon fill="#000000" stroke="#000000" points="306.5198,-254.1935 314.4119,-247.1249 303.8343,-247.7291 306.5198,-254.1935"/>
<g id="a_edge10&#45;headlabel"><a xlink:href="dir_000034_000042.html" target="_top" xlink:title="1">
<text text-anchor="middle" x="304.2894" y="-255.6945" font-family="Helvetica,sans-Serif" font-size="10.00" fill="#000000">1</text>
</a>
</g>
</g>
<!-- dir_1b07f77798358fd74e92420363fd4633 -->
<g id="node11" class="node">
<title>dir_1b07f77798358fd74e92420363fd4633</title>
<g id="a_node11"><a xlink:href="dir_1b07f77798358fd74e92420363fd4633.html" target="_top" xlink:title="PluginBase">
<polygon fill="none" stroke="#000000" points="457.9637,-252 386.9637,-252 386.9637,-216 457.9637,-216 457.9637,-252"/>
<text text-anchor="middle" x="422.4637" y="-231.5" font-family="Helvetica,sans-Serif" font-size="10.00" fill="#000000">PluginBase</text>
</a>
</g>
</g>
<!-- dir_cb59203ea3f84fc4d67c89730003fed4&#45;&gt;dir_1b07f77798358fd74e92420363fd4633 -->
<g id="edge13" class="edge">
<title>dir_cb59203ea3f84fc4d67c89730003fed4&#45;&gt;dir_1b07f77798358fd74e92420363fd4633</title>
<path fill="none" stroke="#000000" d="M168.1891,-291.4298C171.2753,-290.1558 174.4051,-288.9806 177.4637,-288 260.4459,-261.3971 288.6626,-275.7952 376.9362,-251.791"/>
<polygon fill="#000000" stroke="#000000" points="378.1503,-255.0855 386.8303,-249.0103 376.2563,-248.3466 378.1503,-255.0855"/>
<g id="a_edge13&#45;headlabel"><a xlink:href="dir_000034_000047.html" target="_top" xlink:title="2">
<text text-anchor="middle" x="375.458" y="-256.2914" font-family="Helvetica,sans-Serif" font-size="10.00" fill="#000000">2</text>
</a>
</g>
</g>
<!-- dir_0a0d8c554334a5684cc8b98421956a17 -->
<g id="node2" class="node">
<title>dir_0a0d8c554334a5684cc8b98421956a17</title>
<g id="a_node2"><a xlink:href="dir_0a0d8c554334a5684cc8b98421956a17.html" target="_top" xlink:title="SelectionManager">
<polygon fill="#ffffff" stroke="#000000" points="290.4637,-324 186.4637,-324 186.4637,-288 290.4637,-288 290.4637,-324"/>
<text text-anchor="middle" x="238.4637" y="-303.5" font-family="Helvetica,sans-Serif" font-size="10.00" fill="#000000">SelectionManager</text>
</a>
</g>
</g>
<!-- dir_e89aeb6b59063c7bef233057991cda67 -->
<g id="node5" class="node">
<title>dir_e89aeb6b59063c7bef233057991cda67</title>
<g id="a_node5"><a xlink:href="dir_e89aeb6b59063c7bef233057991cda67.html" target="_top" xlink:title="TreeModel">
<polygon fill="#ffffff" stroke="#000000" points="290.4637,-252 224.4637,-252 224.4637,-216 290.4637,-216 290.4637,-252"/>
<text text-anchor="middle" x="257.4637" y="-231.5" font-family="Helvetica,sans-Serif" font-size="10.00" fill="#000000">TreeModel</text>
</a>
</g>
</g>
<!-- dir_0a0d8c554334a5684cc8b98421956a17&#45;&gt;dir_e89aeb6b59063c7bef233057991cda67 -->
<g id="edge19" class="edge">
<title>dir_0a0d8c554334a5684cc8b98421956a17&#45;&gt;dir_e89aeb6b59063c7bef233057991cda67</title>
<path fill="none" stroke="#000000" d="M243.2582,-287.8314C245.3126,-280.0463 247.7597,-270.7729 250.0393,-262.1347"/>
<polygon fill="#000000" stroke="#000000" points="253.4372,-262.9753 252.6046,-252.4133 246.6689,-261.1892 253.4372,-262.9753"/>
<g id="a_edge19&#45;headlabel"><a xlink:href="dir_000035_000038.html" target="_top" xlink:title="1">
<text text-anchor="middle" x="255.2654" y="-264.6754" font-family="Helvetica,sans-Serif" font-size="10.00" fill="#000000">1</text>
</a>
</g>
</g>
<!-- dir_a2f0e5642e47e7ed59fe0f0829eafb5f -->
<g id="node9" class="node">
<title>dir_a2f0e5642e47e7ed59fe0f0829eafb5f</title>
<g id="a_node9"><a xlink:href="dir_a2f0e5642e47e7ed59fe0f0829eafb5f.html" target="_top" xlink:title="Core">
<polygon fill="#ffffff" stroke="#ff0000" points="230.4637,-36 176.4637,-36 176.4637,0 230.4637,0 230.4637,-36"/>
<text text-anchor="middle" x="203.4637" y="-15.5" font-family="Helvetica,sans-Serif" font-size="10.00" fill="#000000">Core</text>
</a>
</g>
</g>
<!-- dir_0a0d8c554334a5684cc8b98421956a17&#45;&gt;dir_a2f0e5642e47e7ed59fe0f0829eafb5f -->
<g id="edge18" class="edge">
<title>dir_0a0d8c554334a5684cc8b98421956a17&#45;&gt;dir_a2f0e5642e47e7ed59fe0f0829eafb5f</title>
<path fill="none" stroke="#000000" d="M290.5317,-302.1686C355.8763,-296.1524 462.3428,-281.9382 486.4637,-252 496.502,-239.5408 491.817,-231.0779 486.4637,-216 458.8736,-138.2904 437.4531,-118.6631 369.4637,-72 330.0062,-44.9191 276.0645,-30.7008 240.521,-23.7808"/>
<polygon fill="#000000" stroke="#000000" points="241.0345,-20.3165 230.5647,-21.9395 239.7615,-27.1998 241.0345,-20.3165"/>
<g id="a_edge18&#45;headlabel"><a xlink:href="dir_000035_000001.html" target="_top" xlink:title="1">
<text text-anchor="middle" x="245.0855" y="-15.6782" font-family="Helvetica,sans-Serif" font-size="10.00" fill="#000000">1</text>
</a>
</g>
</g>
<!-- dir_3072bc1f55ed1280fe4fbe6b21c78379 -->
<g id="node10" class="node">
<title>dir_3072bc1f55ed1280fe4fbe6b21c78379</title>
<g id="a_node10"><a xlink:href="dir_3072bc1f55ed1280fe4fbe6b21c78379.html" target="_top" xlink:title="Engine">
<polygon fill="#ffffff" stroke="#ff0000" points="305.4637,-108 251.4637,-108 251.4637,-72 305.4637,-72 305.4637,-108"/>
<text text-anchor="middle" x="278.4637" y="-87.5" font-family="Helvetica,sans-Serif" font-size="10.00" fill="#000000">Engine</text>
</a>
</g>
</g>
<!-- dir_0a0d8c554334a5684cc8b98421956a17&#45;&gt;dir_3072bc1f55ed1280fe4fbe6b21c78379 -->
<g id="edge20" class="edge">
<title>dir_0a0d8c554334a5684cc8b98421956a17&#45;&gt;dir_3072bc1f55ed1280fe4fbe6b21c78379</title>
<path fill="none" stroke="#000000" d="M290.5337,-301.12C351.1704,-294.2343 445.8185,-279.343 467.4637,-252 519.4912,-186.2771 384.1852,-127.1496 315.5496,-102.3514"/>
<polygon fill="#000000" stroke="#000000" points="316.5318,-98.9863 305.937,-98.9451 314.1936,-105.5843 316.5318,-98.9863"/>
<g id="a_edge20&#45;headlabel"><a xlink:href="dir_000035_000010.html" target="_top" xlink:title="2">
<text text-anchor="middle" x="320.8683" y="-95.0106" font-family="Helvetica,sans-Serif" font-size="10.00" fill="#000000">2</text>
</a>
</g>
</g>
<!-- dir_fde802d0fe976469e8430b6df93e1b9e&#45;&gt;dir_a2f0e5642e47e7ed59fe0f0829eafb5f -->
<g id="edge14" class="edge">
<title>dir_fde802d0fe976469e8430b6df93e1b9e&#45;&gt;dir_a2f0e5642e47e7ed59fe0f0829eafb5f</title>
<path fill="none" stroke="#000000" d="M138.2015,-219.6428C135.2467,-218.4092 132.3029,-217.1817 129.4637,-216 90.8299,-199.9207 65.7185,-214.7897 42.4637,-180 15.7892,-140.0942 14.4339,-110.9657 42.4637,-72 57.1269,-51.616 123.5612,-34.4499 166.3767,-25.2447"/>
<polygon fill="#000000" stroke="#000000" points="167.1123,-28.6667 176.1799,-23.1867 165.6741,-21.816 167.1123,-28.6667"/>
<g id="a_edge14&#45;headlabel"><a xlink:href="dir_000036_000001.html" target="_top" xlink:title="3">
<text text-anchor="middle" x="164.1777" y="-29.6838" font-family="Helvetica,sans-Serif" font-size="10.00" fill="#000000">3</text>
</a>
</g>
</g>
<!-- dir_fde802d0fe976469e8430b6df93e1b9e&#45;&gt;dir_3072bc1f55ed1280fe4fbe6b21c78379 -->
<g id="edge15" class="edge">
<title>dir_fde802d0fe976469e8430b6df93e1b9e&#45;&gt;dir_3072bc1f55ed1280fe4fbe6b21c78379</title>
<path fill="none" stroke="#000000" d="M206.5177,-219.7477C241.0916,-205.1169 289.913,-183.9448 292.4637,-180 304.4545,-161.4552 299.1961,-136.3595 291.94,-117.3793"/>
<polygon fill="#000000" stroke="#000000" points="295.1359,-115.9498 288.0441,-108.0785 288.6794,-118.6543 295.1359,-115.9498"/>
<g id="a_edge15&#45;headlabel"><a xlink:href="dir_000036_000010.html" target="_top" xlink:title="1">
<text text-anchor="middle" x="299.1434" y="-115.6684" font-family="Helvetica,sans-Serif" font-size="10.00" fill="#000000">1</text>
</a>
</g>
</g>
<!-- dir_db76f3c94886d731af6b7e364cea8b12 -->
<g id="node4" class="node">
<title>dir_db76f3c94886d731af6b7e364cea8b12</title>
<g id="a_node4"><a xlink:href="dir_db76f3c94886d731af6b7e364cea8b12.html" target="_top" xlink:title="TransformEditor">
<polygon fill="#ffffff" stroke="#000000" points="250.4637,-180 156.4637,-180 156.4637,-144 250.4637,-144 250.4637,-180"/>
<text text-anchor="middle" x="203.4637" y="-159.5" font-family="Helvetica,sans-Serif" font-size="10.00" fill="#000000">TransformEditor</text>
</a>
</g>
</g>
<!-- dir_db76f3c94886d731af6b7e364cea8b12&#45;&gt;dir_a2f0e5642e47e7ed59fe0f0829eafb5f -->
<g id="edge16" class="edge">
<title>dir_db76f3c94886d731af6b7e364cea8b12&#45;&gt;dir_a2f0e5642e47e7ed59fe0f0829eafb5f</title>
<path fill="none" stroke="#000000" d="M203.4637,-143.7623C203.4637,-119.201 203.4637,-75.2474 203.4637,-46.3541"/>
<polygon fill="#000000" stroke="#000000" points="206.9638,-46.0896 203.4637,-36.0896 199.9638,-46.0897 206.9638,-46.0896"/>
<g id="a_edge16&#45;headlabel"><a xlink:href="dir_000037_000001.html" target="_top" xlink:title="1">
<text text-anchor="middle" x="209.803" y="-47.1842" font-family="Helvetica,sans-Serif" font-size="10.00" fill="#000000">1</text>
</a>
</g>
</g>
<!-- dir_db76f3c94886d731af6b7e364cea8b12&#45;&gt;dir_3072bc1f55ed1280fe4fbe6b21c78379 -->
<g id="edge17" class="edge">
<title>dir_db76f3c94886d731af6b7e364cea8b12&#45;&gt;dir_3072bc1f55ed1280fe4fbe6b21c78379</title>
<path fill="none" stroke="#000000" d="M222.3894,-143.8314C231.4494,-135.1337 242.4446,-124.5783 252.2902,-115.1265"/>
<polygon fill="#000000" stroke="#000000" points="254.7541,-117.613 259.5441,-108.1628 249.9063,-112.5633 254.7541,-117.613"/>
<g id="a_edge17&#45;headlabel"><a xlink:href="dir_000037_000010.html" target="_top" xlink:title="3">
<text text-anchor="middle" x="254.1273" y="-119.6506" font-family="Helvetica,sans-Serif" font-size="10.00" fill="#000000">3</text>
</a>
</g>
</g>
<!-- dir_e89aeb6b59063c7bef233057991cda67&#45;&gt;dir_a2f0e5642e47e7ed59fe0f0829eafb5f -->
<g id="edge2" class="edge">
<title>dir_e89aeb6b59063c7bef233057991cda67&#45;&gt;dir_a2f0e5642e47e7ed59fe0f0829eafb5f</title>
<path fill="none" stroke="#000000" d="M224.1731,-219.1866C221.2491,-218.052 218.3173,-216.972 215.4637,-216 154.6484,-195.2853 114.8316,-230.7718 75.4637,-180 35.4736,-128.4258 117.1097,-68.2697 167.5973,-37.8255"/>
<polygon fill="#000000" stroke="#000000" points="169.4919,-40.7714 176.3214,-32.6714 165.9313,-34.7445 169.4919,-40.7714"/>
<g id="a_edge2&#45;headlabel"><a xlink:href="dir_000038_000001.html" target="_top" xlink:title="1">
<text text-anchor="middle" x="167.8413" y="-42.5443" font-family="Helvetica,sans-Serif" font-size="10.00" fill="#000000">1</text>
</a>
</g>
</g>
<!-- dir_e89aeb6b59063c7bef233057991cda67&#45;&gt;dir_3072bc1f55ed1280fe4fbe6b21c78379 -->
<g id="edge3" class="edge">
<title>dir_e89aeb6b59063c7bef233057991cda67&#45;&gt;dir_3072bc1f55ed1280fe4fbe6b21c78379</title>
<path fill="none" stroke="#000000" d="M290.5513,-218.5492C305.6512,-209.5973 322.0188,-196.7511 330.4637,-180 340.8675,-159.3631 340.9275,-148.6066 330.4637,-128 326.6906,-120.5694 320.7068,-114.2446 314.1195,-109.0115"/>
<polygon fill="#000000" stroke="#000000" points="315.7588,-105.8838 305.5738,-102.9656 311.7159,-111.5984 315.7588,-105.8838"/>
<g id="a_edge3&#45;headlabel"><a xlink:href="dir_000038_000010.html" target="_top" xlink:title="5">
<text text-anchor="middle" x="320.3331" y="-103.142" font-family="Helvetica,sans-Serif" font-size="10.00" fill="#000000">5</text>
</a>
</g>
</g>
<!-- dir_2cea9413440cac76c0711bd520597573 -->
<g id="node6" class="node">
<title>dir_2cea9413440cac76c0711bd520597573</title>
<g id="a_node6"><a xlink:href="dir_2cea9413440cac76c0711bd520597573.html" target="_top" xlink:title="Utils">
<polygon fill="#ffffff" stroke="#000000" points="138.4637,-180 84.4637,-180 84.4637,-144 138.4637,-144 138.4637,-180"/>
<text text-anchor="middle" x="111.4637" y="-159.5" font-family="Helvetica,sans-Serif" font-size="10.00" fill="#000000">Utils</text>
</a>
</g>
</g>
<!-- dir_2cea9413440cac76c0711bd520597573&#45;&gt;dir_a2f0e5642e47e7ed59fe0f0829eafb5f -->
<g id="edge8" class="edge">
<title>dir_2cea9413440cac76c0711bd520597573&#45;&gt;dir_a2f0e5642e47e7ed59fe0f0829eafb5f</title>
<path fill="none" stroke="#000000" d="M123.1156,-143.7623C139.084,-118.7682 167.8825,-73.6924 186.3154,-44.8409"/>
<polygon fill="#000000" stroke="#000000" points="189.472,-46.401 191.9064,-36.0896 183.5731,-42.6322 189.472,-46.401"/>
<g id="a_edge8&#45;headlabel"><a xlink:href="dir_000039_000001.html" target="_top" xlink:title="9">
<text text-anchor="middle" x="189.9293" y="-48.4587" font-family="Helvetica,sans-Serif" font-size="10.00" fill="#000000">9</text>
</a>
</g>
</g>
<!-- dir_2cea9413440cac76c0711bd520597573&#45;&gt;dir_3072bc1f55ed1280fe4fbe6b21c78379 -->
<g id="edge9" class="edge">
<title>dir_2cea9413440cac76c0711bd520597573&#45;&gt;dir_3072bc1f55ed1280fe4fbe6b21c78379</title>
<path fill="none" stroke="#000000" d="M127.3189,-143.9131C133.1611,-138.1461 140.1507,-132.1831 147.4637,-128 176.8089,-111.2144 214.1641,-101.3326 241.4695,-95.8748"/>
<polygon fill="#000000" stroke="#000000" points="242.2301,-99.2931 251.4048,-93.9945 240.9284,-92.4152 242.2301,-99.2931"/>
<g id="a_edge9&#45;headlabel"><a xlink:href="dir_000039_000010.html" target="_top" xlink:title="1">
<text text-anchor="middle" x="239.2261" y="-100.2512" font-family="Helvetica,sans-Serif" font-size="10.00" fill="#000000">1</text>
</a>
</g>
</g>
<!-- dir_796a1a15fb9cc23998586ef6281d84e1&#45;&gt;dir_db76f3c94886d731af6b7e364cea8b12 -->
<g id="edge6" class="edge">
<title>dir_796a1a15fb9cc23998586ef6281d84e1&#45;&gt;dir_db76f3c94886d731af6b7e364cea8b12</title>
<path fill="none" stroke="#000000" d="M120.6547,-216.2022C134.6952,-207.0121 152.0167,-195.6744 167.1824,-185.7478"/>
<polygon fill="#000000" stroke="#000000" points="169.3712,-188.4982 175.8214,-180.0931 165.5376,-182.6413 169.3712,-188.4982"/>
<g id="a_edge6&#45;headlabel"><a xlink:href="dir_000040_000037.html" target="_top" xlink:title="1">
<text text-anchor="middle" x="167.9186" y="-190.3424" font-family="Helvetica,sans-Serif" font-size="10.00" fill="#000000">1</text>
</a>
</g>
</g>
<!-- dir_796a1a15fb9cc23998586ef6281d84e1&#45;&gt;dir_2cea9413440cac76c0711bd520597573 -->
<g id="edge5" class="edge">
<title>dir_796a1a15fb9cc23998586ef6281d84e1&#45;&gt;dir_2cea9413440cac76c0711bd520597573</title>
<path fill="none" stroke="#000000" d="M98.0059,-215.8314C99.9521,-208.0463 102.2705,-198.7729 104.43,-190.1347"/>
<polygon fill="#000000" stroke="#000000" points="107.8305,-190.9636 106.8604,-180.4133 101.0395,-189.2658 107.8305,-190.9636"/>
<g id="a_edge5&#45;headlabel"><a xlink:href="dir_000040_000039.html" target="_top" xlink:title="11">
<text text-anchor="middle" x="109.7132" y="-192.6395" font-family="Helvetica,sans-Serif" font-size="10.00" fill="#000000">11</text>
</a>
</g>
</g>
<!-- dir_796a1a15fb9cc23998586ef6281d84e1&#45;&gt;dir_a2f0e5642e47e7ed59fe0f0829eafb5f -->
<g id="edge4" class="edge">
<title>dir_796a1a15fb9cc23998586ef6281d84e1&#45;&gt;dir_a2f0e5642e47e7ed59fe0f0829eafb5f</title>
<path fill="none" stroke="#000000" d="M66.4085,-222.5251C49.2598,-213.6536 28.485,-199.564 18.4637,-180 -3.4234,-137.2713 -8.9625,-109.9327 20.4637,-72 38.3392,-48.9572 118.1995,-32.066 166.3201,-23.7653"/>
<polygon fill="#000000" stroke="#000000" points="167.0812,-27.1866 176.363,-22.0779 165.9213,-20.2834 167.0812,-27.1866"/>
<g id="a_edge4&#45;headlabel"><a xlink:href="dir_000040_000001.html" target="_top" xlink:title="31">
<text text-anchor="middle" x="164.0068" y="-28.0822" font-family="Helvetica,sans-Serif" font-size="10.00" fill="#000000">31</text>
</a>
</g>
</g>
<!-- dir_796a1a15fb9cc23998586ef6281d84e1&#45;&gt;dir_3072bc1f55ed1280fe4fbe6b21c78379 -->
<g id="edge7" class="edge">
<title>dir_796a1a15fb9cc23998586ef6281d84e1&#45;&gt;dir_3072bc1f55ed1280fe4fbe6b21c78379</title>
<path fill="none" stroke="#000000" d="M120.7343,-219.6816C123.6469,-218.3585 126.5937,-217.1029 129.4637,-216 185.4257,-194.4937 218.4075,-223.6882 259.4637,-180 274.8733,-163.6025 279.0757,-137.9898 279.7397,-118.2739"/>
<polygon fill="#000000" stroke="#000000" points="283.2409,-118.0415 279.7933,-108.0233 276.241,-118.0049 283.2409,-118.0415"/>
<g id="a_edge7&#45;headlabel"><a xlink:href="dir_000040_000010.html" target="_top" xlink:title="40">
<text text-anchor="middle" x="286.0615" y="-119.1509" font-family="Helvetica,sans-Serif" font-size="10.00" fill="#000000">40</text>
</a>
</g>
</g>
<!-- dir_fae119eb913a40fe8ed97cde8b98911e&#45;&gt;dir_a2f0e5642e47e7ed59fe0f0829eafb5f -->
<g id="edge1" class="edge">
<title>dir_fae119eb913a40fe8ed97cde8b98911e&#45;&gt;dir_a2f0e5642e47e7ed59fe0f0829eafb5f</title>
<path fill="none" stroke="#000000" d="M344.0255,-215.5478C345.3427,-205.1338 346.8064,-191.867 347.4637,-180 348.7418,-156.9243 353.5446,-150.2968 347.4637,-128 339.8625,-100.129 335.6891,-91.5972 314.4637,-72 293.2469,-52.4107 263.6118,-38.4823 240.299,-29.6829"/>
<polygon fill="#000000" stroke="#000000" points="241.3322,-26.3347 230.7379,-26.2242 238.9509,-32.9173 241.3322,-26.3347"/>
<g id="a_edge1&#45;headlabel"><a xlink:href="dir_000042_000001.html" target="_top" xlink:title="38">
<text text-anchor="middle" x="245.6782" y="-22.3875" font-family="Helvetica,sans-Serif" font-size="10.00" fill="#000000">38</text>
</a>
</g>
</g>
<!-- dir_3072bc1f55ed1280fe4fbe6b21c78379&#45;&gt;dir_a2f0e5642e47e7ed59fe0f0829eafb5f -->
<g id="edge21" class="edge">
<title>dir_3072bc1f55ed1280fe4fbe6b21c78379&#45;&gt;dir_a2f0e5642e47e7ed59fe0f0829eafb5f</title>
<path fill="none" stroke="#000000" d="M259.538,-71.8314C250.478,-63.1337 239.4828,-52.5783 229.6372,-43.1265"/>
<polygon fill="#000000" stroke="#000000" points="232.0211,-40.5633 222.3833,-36.1628 227.1733,-45.613 232.0211,-40.5633"/>
<g id="a_edge21&#45;headlabel"><a xlink:href="dir_000010_000001.html" target="_top" xlink:title="125">
<text text-anchor="middle" x="236.5804" y="-38.5045" font-family="Helvetica,sans-Serif" font-size="10.00" fill="#000000">125</text>
</a>
</g>
</g>
<!-- dir_1b07f77798358fd74e92420363fd4633&#45;&gt;dir_a2f0e5642e47e7ed59fe0f0829eafb5f -->
<g id="edge22" class="edge">
<title>dir_1b07f77798358fd74e92420363fd4633&#45;&gt;dir_a2f0e5642e47e7ed59fe0f0829eafb5f</title>
<path fill="none" stroke="#000000" d="M418.027,-215.8049C409.0739,-182.7448 385.8129,-112.5003 341.4637,-72 313.0452,-46.0478 270.7188,-31.987 240.4417,-24.7818"/>
<polygon fill="#000000" stroke="#000000" points="241.1964,-21.3642 230.6732,-22.5938 239.6664,-28.195 241.1964,-21.3642"/>
<g id="a_edge22&#45;headlabel"><a xlink:href="dir_000047_000001.html" target="_top" xlink:title="1">
<text text-anchor="middle" x="245.3247" y="-16.8792" font-family="Helvetica,sans-Serif" font-size="10.00" fill="#000000">1</text>
</a>
</g>
</g>
</g>
</svg>
        <g id="navigator" transform="translate(0 0)" fill="#404254">
                <rect fill="#f2f5e9" fill-opacity="0.5" stroke="#606060" stroke-width=".5" x="0" y="0" width="60" height="60"/>
                <use id="zoomplus" xlink:href="#zoomPlus" x="17" y="9" onmousedown="handleZoom(evt,'in')"/>
                <use id="zoomminus" xlink:href="#zoomMin" x="42" y="9" onmousedown="handleZoom(evt,'out')"/>
                <use id="reset" xlink:href="#resetDef" x="30" y="36" onmousedown="handleReset()"/>
                <g id="arrowUp" xlink:href="#dirArrow" transform="translate(30 24)" onmousedown="handlePan(0,-1)">
                  <use xlink:href="#rim" fill="#404040">
                        <set attributeName="fill" to="#808080" begin="arrowUp.mouseover" end="arrowUp.mouseout"/>
                  </use>
                  <path fill="none" stroke="white" stroke-width="1.5" d="M0,-3.0v7 M-2.5,-0.5L0,-3.0L2.5,-0.5"/>
                </g>
                <g id="arrowRight" xlink:href="#dirArrow" transform="rotate(90) translate(36 -43)" onmousedown="handlePan(1,0)">
                  <use xlink:href="#rim" fill="#404040">
                        <set attributeName="fill" to="#808080" begin="arrowRight.mouseover" end="arrowRight.mouseout"/>
                  </use>
                  <path fill="none" stroke="white" stroke-width="1.5" d="M0,-3.0v7 M-2.5,-0.5L0,-3.0L2.5,-0.5"/>
                </g>
                <g id="arrowDown" xlink:href="#dirArrow" transform="rotate(180) translate(-30 -48)" onmousedown="handlePan(0,1)">
                  <use xlink:href="#rim" fill="#404040">
                        <set attributeName="fill" to="#808080" begin="arrowDown.mouseover" end="arrowDown.mouseout"/>
                  </use>
                  <path fill="none" stroke="white" stroke-width="1.5" d="M0,-3.0v7 M-2.5,-0.5L0,-3.0L2.5,-0.5"/>
                </g>
                <g id="arrowLeft" xlink:href="#dirArrow" transform="rotate(270) translate(-36 17)" onmousedown="handlePan(-1,0)">
                  <use xlink:href="#rim" fill="#404040">
                        <set attributeName="fill" to="#808080" begin="arrowLeft.mouseover" end="arrowLeft.mouseout"/>
                  </use>
                  <path fill="none" stroke="white" stroke-width="1.5" d="M0,-3.0v7 M-2.5,-0.5L0,-3.0L2.5,-0.5"/>
                </g>
        </g>
        <svg viewBox="0 0 15 15" width="100%" height="30px" preserveAspectRatio="xMaxYMin meet">
         <g id="arrow_out" transform="scale(0.3 0.3)">
          <a xlink:href="dir_cb59203ea3f84fc4d67c89730003fed4_dep_org.svg" target="_base">
           <rect id="button" ry="5" rx="5" y="6" x="6" height="38" width="38"
                fill="#f2f5e9" fill-opacity="0.5" stroke="#606060" stroke-width="1.0"/>
           <path id="arrow"
             d="M 11.500037,31.436501 C 11.940474,20.09759 22.043105,11.32322 32.158766,21.979434 L 37.068811,17.246167 C 37.068811,17.246167 37.088388,32 37.088388,32 L 22.160133,31.978069 C 22.160133,31.978069 26.997745,27.140456 26.997745,27.140456 C 18.528582,18.264221 13.291696,25.230495 11.500037,31.436501 z"
             style="fill:#404040;"/>
          </a>
         </g>
        </svg>
</svg>
