<?xml version="1.0" encoding="UTF-8" standalone="no"?>
<!DOCTYPE svg PUBLIC "-//W3C//DTD SVG 1.1//EN"
 "http://www.w3.org/Graphics/SVG/1.1/DTD/svg11.dtd">
<!-- Generated by graphviz version 2.40.1 (20161225.0304)
 -->
<!-- Title: src/Engine/Renderer/Displayable/DisplayableObject.hpp Pages: 1 -->
<!--zoomable 442 -->
<svg id="main" version="1.1" xmlns="http://www.w3.org/2000/svg" xmlns:xlink="http://www.w3.org/1999/xlink" xml:space="preserve" onload="init(evt)">
<style type="text/css"><![CDATA[
.edge:hover path { stroke: red; }
.edge:hover polygon { stroke: red; fill: red; }
]]></style>
<script type="text/javascript"><![CDATA[
var edges = document.getElementsByTagName('g');
if (edges && edges.length) {
  for (var i=0;i<edges.length;i++) {
    if (edges[i].id.substr(0,4)=='edge') {
      edges[i].setAttribute('class','edge');
    }
  }
}
]]></script>
        <defs>
                <circle id="rim" cx="0" cy="0" r="7"/>
                <circle id="rim2" cx="0" cy="0" r="3.5"/>
                <g id="zoomPlus">
                        <use xlink:href="#rim" fill="#404040">
                                <set attributeName="fill" to="#808080" begin="zoomplus.mouseover" end="zoomplus.mouseout"/>
                        </use>
                        <path d="M-4,0h8M0,-4v8" fill="none" stroke="white" stroke-width="1.5" pointer-events="none"/>
                </g>
                <g id="zoomMin">
                        <use xlink:href="#rim" fill="#404040">
                                <set attributeName="fill" to="#808080" begin="zoomminus.mouseover" end="zoomminus.mouseout"/>
                        </use>
                        <path d="M-4,0h8" fill="none" stroke="white" stroke-width="1.5" pointer-events="none"/>
                </g>
                <g id="dirArrow">
                        <path fill="none" stroke="white" stroke-width="1.5" d="M0,-3.0v7 M-2.5,-0.5L0,-3.0L2.5,-0.5"/>
                </g>
               <g id="resetDef">
                       <use xlink:href="#rim2" fill="#404040">
                               <set attributeName="fill" to="#808080" begin="reset.mouseover" end="reset.mouseout"/>
                       </use>
               </g>
        </defs>

<script type="text/javascript">
var viewWidth = 1648;
var viewHeight = 442;
var sectionId = 'dynsection-0';
</script>
<script xlink:href="svgpan.js"/>
<svg id="graph" class="graph">
<g id="viewport">
<title>src/Engine/Renderer/Displayable/DisplayableObject.hpp</title>
<polygon fill="#ffffff" stroke="transparent" points="-4,4 -4,-438 1644.0487,-438 1644.0487,4 -4,4"/>
<!-- Node0 -->
<g id="node1" class="node">
<title>Node0</title>
<polygon fill="#bfbfbf" stroke="#000000" points="99,-403.5 99,-433.5 290,-433.5 290,-403.5 99,-403.5"/>
<text text-anchor="start" x="107" y="-421.5" font-family="Helvetica,sans-Serif" font-size="10.00" fill="#000000">src/Engine/Renderer</text>
<text text-anchor="middle" x="194.5" y="-410.5" font-family="Helvetica,sans-Serif" font-size="10.00" fill="#000000">/Displayable/DisplayableObject.hpp</text>
</g>
<!-- Node1 -->
<g id="node2" class="node">
<title>Node1</title>
<g id="a_node2"><a xlink:href="RaEngine_8hpp.html" target="_top" xlink:title="Engine/RaEngine.hpp">
<polygon fill="#ffffff" stroke="#000000" points="0,-291.5 0,-310.5 119,-310.5 119,-291.5 0,-291.5"/>
<text text-anchor="middle" x="59.5" y="-298.5" font-family="Helvetica,sans-Serif" font-size="10.00" fill="#000000">Engine/RaEngine.hpp</text>
</a>
</g>
</g>
<!-- Node0&#45;&gt;Node1 -->
<g id="edge1" class="edge">
<title>Node0&#45;&gt;Node1</title>
<path fill="none" stroke="#191970" d="M133.856,-403.399C113.4292,-395.5795 92.1313,-383.9813 77.5,-367 66.489,-354.2205 62.1554,-335.3057 60.4791,-320.9971"/>
<polygon fill="#191970" stroke="#191970" points="63.9411,-320.3917 59.6277,-310.7147 56.9649,-320.9694 63.9411,-320.3917"/>
</g>
<!-- Node8 -->
<g id="node9" class="node">
<title>Node8</title>
<polygon fill="#ffffff" stroke="#bfbfbf" points="86.5,-347.5 86.5,-366.5 128.5,-366.5 128.5,-347.5 86.5,-347.5"/>
<text text-anchor="middle" x="107.5" y="-354.5" font-family="Helvetica,sans-Serif" font-size="10.00" fill="#000000">array</text>
</g>
<!-- Node0&#45;&gt;Node8 -->
<g id="edge8" class="edge">
<title>Node0&#45;&gt;Node8</title>
<path fill="none" stroke="#191970" d="M172.9944,-403.2977C159.7032,-393.9022 142.6943,-381.8787 129.3412,-372.4395"/>
<polygon fill="#191970" stroke="#191970" points="131.3561,-369.5776 121.17,-366.6633 127.3154,-375.2937 131.3561,-369.5776"/>
</g>
<!-- Node9 -->
<g id="node10" class="node">
<title>Node9</title>
<polygon fill="#ffffff" stroke="#bfbfbf" points="257.5,-174 257.5,-193 295.5,-193 295.5,-174 257.5,-174"/>
<text text-anchor="middle" x="276.5" y="-181" font-family="Helvetica,sans-Serif" font-size="10.00" fill="#000000">map</text>
</g>
<!-- Node0&#45;&gt;Node9 -->
<g id="edge9" class="edge">
<title>Node0&#45;&gt;Node9</title>
<path fill="none" stroke="#191970" d="M192.3507,-403.1069C188.5008,-370.0657 183.4127,-290.8235 213.5,-235 221.6687,-219.844 236.3383,-207.4465 249.4676,-198.616"/>
<polygon fill="#191970" stroke="#191970" points="251.6335,-201.3873 258.2122,-193.0824 247.8904,-195.4721 251.6335,-201.3873"/>
</g>
<!-- Node10 -->
<g id="node11" class="node">
<title>Node10</title>
<polygon fill="#ffffff" stroke="#bfbfbf" points="340,-112.5 340,-131.5 387,-131.5 387,-112.5 340,-112.5"/>
<text text-anchor="middle" x="363.5" y="-119.5" font-family="Helvetica,sans-Serif" font-size="10.00" fill="#000000">vector</text>
</g>
<!-- Node0&#45;&gt;Node10 -->
<g id="edge10" class="edge">
<title>Node0&#45;&gt;Node10</title>
<path fill="none" stroke="#191970" d="M191.1243,-403.2674C189.0399,-393.0639 186.5665,-379.2978 185.5,-367 180.3943,-308.1249 177.4076,-288.962 201.5,-235 216.329,-201.7861 219.9845,-190.5816 248.5,-168 272.5431,-148.9601 305.4911,-136.8575 329.9589,-129.8721"/>
<polygon fill="#191970" stroke="#191970" points="331.138,-133.1789 339.8752,-127.1863 329.308,-126.4223 331.138,-133.1789"/>
</g>
<!-- Node11 -->
<g id="node12" class="node">
<title>Node11</title>
<g id="a_node12"><a xlink:href="VectorArray_8hpp.html" target="_top" xlink:title="Core/Containers/VectorArray.hpp">
<polygon fill="#ffffff" stroke="#000000" points="384.5,-235.5 384.5,-254.5 558.5,-254.5 558.5,-235.5 384.5,-235.5"/>
<text text-anchor="middle" x="471.5" y="-242.5" font-family="Helvetica,sans-Serif" font-size="10.00" fill="#000000">Core/Containers/VectorArray.hpp</text>
</a>
</g>
</g>
<!-- Node0&#45;&gt;Node11 -->
<g id="edge11" class="edge">
<title>Node0&#45;&gt;Node11</title>
<path fill="none" stroke="#191970" d="M218.5974,-403.4065C271.1214,-370.5079 395.3937,-292.6695 447.6717,-259.9249"/>
<polygon fill="#191970" stroke="#191970" points="449.6616,-262.8085 456.2785,-254.534 445.9458,-256.8761 449.6616,-262.8085"/>
</g>
<!-- Node15 -->
<g id="node16" class="node">
<title>Node15</title>
<g id="a_node16"><a xlink:href="TriangleMesh_8hpp.html" target="_top" xlink:title="Core/Geometry/TriangleMesh.hpp">
<polygon fill="#ffffff" stroke="#000000" points="860,-347.5 860,-366.5 1039,-366.5 1039,-347.5 860,-347.5"/>
<text text-anchor="middle" x="949.5" y="-354.5" font-family="Helvetica,sans-Serif" font-size="10.00" fill="#000000">Core/Geometry/TriangleMesh.hpp</text>
</a>
</g>
</g>
<!-- Node0&#45;&gt;Node15 -->
<g id="edge18" class="edge">
<title>Node0&#45;&gt;Node15</title>
<path fill="none" stroke="#191970" d="M290.1213,-410.711C433.6888,-399.0164 703.6305,-377.0278 849.6404,-365.1343"/>
<polygon fill="#191970" stroke="#191970" points="850.2527,-368.5961 859.9355,-364.2957 849.6843,-361.6192 850.2527,-368.5961"/>
</g>
<!-- Node32 -->
<g id="node33" class="node">
<title>Node32</title>
<g id="a_node33"><a xlink:href="Color_8hpp.html" target="_top" xlink:title="Core/Utils/Color.hpp">
<polygon fill="#ffffff" stroke="#000000" points="1438,-235.5 1438,-254.5 1551,-254.5 1551,-235.5 1438,-235.5"/>
<text text-anchor="middle" x="1494.5" y="-242.5" font-family="Helvetica,sans-Serif" font-size="10.00" fill="#000000">Core/Utils/Color.hpp</text>
</a>
</g>
</g>
<!-- Node0&#45;&gt;Node32 -->
<g id="edge64" class="edge">
<title>Node0&#45;&gt;Node32</title>
<path fill="none" stroke="#191970" d="M290.1097,-415.164C448.2122,-409.1027 773.9546,-394.3114 1048.5,-367 1228.4439,-349.0994 1298.8406,-407.9296 1451.5,-311 1468.7599,-300.041 1480.5254,-279.3733 1487.3275,-264.0738"/>
<polygon fill="#191970" stroke="#191970" points="1490.6878,-265.1046 1491.2502,-254.5247 1484.2128,-262.4447 1490.6878,-265.1046"/>
</g>
<!-- Node2 -->
<g id="node3" class="node">
<title>Node2</title>
<g id="a_node3"><a xlink:href="CoreMacros_8hpp.html" target="_top" xlink:title="Core/CoreMacros.hpp">
<polygon fill="#ffffff" stroke="#000000" points="559.5,-56.5 559.5,-75.5 679.5,-75.5 679.5,-56.5 559.5,-56.5"/>
<text text-anchor="middle" x="619.5" y="-63.5" font-family="Helvetica,sans-Serif" font-size="10.00" fill="#000000">Core/CoreMacros.hpp</text>
</a>
</g>
</g>
<!-- Node1&#45;&gt;Node2 -->
<g id="edge2" class="edge">
<title>Node1&#45;&gt;Node2</title>
<path fill="none" stroke="#191970" d="M58.7315,-291.1131C56.7968,-258.2288 55.7053,-152.3357 117.5,-112 152.8206,-88.945 419.6171,-74.5274 549.237,-68.8124"/>
<polygon fill="#191970" stroke="#191970" points="549.6204,-72.2991 559.4586,-68.3673 549.3158,-65.3058 549.6204,-72.2991"/>
</g>
<!-- Node3 -->
<g id="node4" class="node">
<title>Node3</title>
<polygon fill="#ffffff" stroke="#bfbfbf" points="697.5,-.5 697.5,-19.5 749.5,-19.5 749.5,-.5 697.5,-.5"/>
<text text-anchor="middle" x="723.5" y="-7.5" font-family="Helvetica,sans-Serif" font-size="10.00" fill="#000000">cassert</text>
</g>
<!-- Node2&#45;&gt;Node3 -->
<g id="edge3" class="edge">
<title>Node2&#45;&gt;Node3</title>
<path fill="none" stroke="#191970" d="M637.6154,-56.2455C653.945,-47.4527 678.171,-34.4079 696.7339,-24.4125"/>
<polygon fill="#191970" stroke="#191970" points="698.4468,-27.4654 705.5922,-19.6427 695.1281,-21.3021 698.4468,-27.4654"/>
</g>
<!-- Node4 -->
<g id="node5" class="node">
<title>Node4</title>
<polygon fill="#ffffff" stroke="#bfbfbf" points="489.5,-.5 489.5,-19.5 535.5,-19.5 535.5,-.5 489.5,-.5"/>
<text text-anchor="middle" x="512.5" y="-7.5" font-family="Helvetica,sans-Serif" font-size="10.00" fill="#000000">cstdio</text>
</g>
<!-- Node2&#45;&gt;Node4 -->
<g id="edge4" class="edge">
<title>Node2&#45;&gt;Node4</title>
<path fill="none" stroke="#191970" d="M600.862,-56.2455C584.0614,-47.4527 559.1366,-34.4079 540.0382,-24.4125"/>
<polygon fill="#191970" stroke="#191970" points="541.4073,-21.1787 530.9244,-19.6427 538.1614,-27.3807 541.4073,-21.1787"/>
</g>
<!-- Node5 -->
<g id="node6" class="node">
<title>Node5</title>
<polygon fill="#ffffff" stroke="#bfbfbf" points="553.5,-.5 553.5,-19.5 613.5,-19.5 613.5,-.5 553.5,-.5"/>
<text text-anchor="middle" x="583.5" y="-7.5" font-family="Helvetica,sans-Serif" font-size="10.00" fill="#000000">iostream</text>
</g>
<!-- Node2&#45;&gt;Node5 -->
<g id="edge5" class="edge">
<title>Node2&#45;&gt;Node5</title>
<path fill="none" stroke="#191970" d="M613.2293,-56.2455C608.2736,-48.5367 601.217,-37.5598 595.2224,-28.2348"/>
<polygon fill="#191970" stroke="#191970" points="598.0506,-26.1618 589.6989,-19.6427 592.1624,-29.9471 598.0506,-26.1618"/>
</g>
<!-- Node6 -->
<g id="node7" class="node">
<title>Node6</title>
<polygon fill="#ffffff" stroke="#bfbfbf" points="300.5,-.5 300.5,-19.5 356.5,-19.5 356.5,-.5 300.5,-.5"/>
<text text-anchor="middle" x="328.5" y="-7.5" font-family="Helvetica,sans-Serif" font-size="10.00" fill="#000000">sstream</text>
</g>
<!-- Node2&#45;&gt;Node6 -->
<g id="edge6" class="edge">
<title>Node2&#45;&gt;Node6</title>
<path fill="none" stroke="#191970" d="M569.806,-56.4369C512.2802,-45.3666 418.787,-27.3748 366.6733,-17.3461"/>
<polygon fill="#191970" stroke="#191970" points="367.3065,-13.9038 356.8252,-15.4509 365.9836,-20.7776 367.3065,-13.9038"/>
</g>
<!-- Node7 -->
<g id="node8" class="node">
<title>Node7</title>
<polygon fill="#ffffff" stroke="#bfbfbf" points="631.5,-.5 631.5,-19.5 679.5,-19.5 679.5,-.5 631.5,-.5"/>
<text text-anchor="middle" x="655.5" y="-7.5" font-family="Helvetica,sans-Serif" font-size="10.00" fill="#000000">thread</text>
</g>
<!-- Node2&#45;&gt;Node7 -->
<g id="edge7" class="edge">
<title>Node2&#45;&gt;Node7</title>
<path fill="none" stroke="#191970" d="M625.7707,-56.2455C630.7264,-48.5367 637.783,-37.5598 643.7776,-28.2348"/>
<polygon fill="#191970" stroke="#191970" points="646.8376,-29.9471 649.3011,-19.6427 640.9494,-26.1618 646.8376,-29.9471"/>
</g>
<!-- Node12 -->
<g id="node13" class="node">
<title>Node12</title>
<g id="a_node13"><a xlink:href="AlignedStdVector_8hpp.html" target="_top" xlink:title="Core/Containers/AlignedStd\lVector.hpp">
<polygon fill="#ffffff" stroke="#000000" points="396.5,-168.5 396.5,-198.5 546.5,-198.5 546.5,-168.5 396.5,-168.5"/>
<text text-anchor="start" x="404.5" y="-186.5" font-family="Helvetica,sans-Serif" font-size="10.00" fill="#000000">Core/Containers/AlignedStd</text>
<text text-anchor="middle" x="471.5" y="-175.5" font-family="Helvetica,sans-Serif" font-size="10.00" fill="#000000">Vector.hpp</text>
</a>
</g>
</g>
<!-- Node11&#45;&gt;Node12 -->
<g id="edge12" class="edge">
<title>Node11&#45;&gt;Node12</title>
<path fill="none" stroke="#191970" d="M471.5,-235.3906C471.5,-228.2234 471.5,-218.0862 471.5,-208.671"/>
<polygon fill="#191970" stroke="#191970" points="475.0001,-208.5446 471.5,-198.5446 468.0001,-208.5446 475.0001,-208.5446"/>
</g>
<!-- Node13 -->
<g id="node14" class="node">
<title>Node13</title>
<g id="a_node14"><a xlink:href="RaCore_8hpp.html" target="_top" xlink:title="Core/RaCore.hpp">
<polygon fill="#ffffff" stroke="#000000" points="604.5,-112.5 604.5,-131.5 702.5,-131.5 702.5,-112.5 604.5,-112.5"/>
<text text-anchor="middle" x="653.5" y="-119.5" font-family="Helvetica,sans-Serif" font-size="10.00" fill="#000000">Core/RaCore.hpp</text>
</a>
</g>
</g>
<!-- Node11&#45;&gt;Node13 -->
<g id="edge17" class="edge">
<title>Node11&#45;&gt;Node13</title>
<path fill="none" stroke="#191970" d="M491.0416,-235.4591C508.4123,-226.7089 534.27,-213.0154 555.5,-199 584.4426,-179.893 615.5593,-154.5278 634.7822,-138.2308"/>
<polygon fill="#191970" stroke="#191970" points="637.1631,-140.8 642.4892,-131.6412 632.6141,-135.4796 637.1631,-140.8"/>
</g>
<!-- Node12&#45;&gt;Node10 -->
<g id="edge16" class="edge">
<title>Node12&#45;&gt;Node10</title>
<path fill="none" stroke="#191970" d="M445.0802,-168.4554C428.0086,-158.734 405.9098,-146.15 389.0191,-136.5317"/>
<polygon fill="#191970" stroke="#191970" points="390.658,-133.4373 380.2362,-131.5303 387.1941,-139.5202 390.658,-133.4373"/>
</g>
<!-- Node12&#45;&gt;Node13 -->
<g id="edge13" class="edge">
<title>Node12&#45;&gt;Node13</title>
<path fill="none" stroke="#191970" d="M516.0222,-168.4554C546.5226,-158.149 586.545,-144.6249 615.5358,-134.8286"/>
<polygon fill="#191970" stroke="#191970" points="616.9432,-138.0475 625.2965,-131.5303 614.7022,-131.4159 616.9432,-138.0475"/>
</g>
<!-- Node14 -->
<g id="node15" class="node">
<title>Node14</title>
<polygon fill="#ffffff" stroke="#bfbfbf" points="425,-112.5 425,-131.5 518,-131.5 518,-112.5 425,-112.5"/>
<text text-anchor="middle" x="471.5" y="-119.5" font-family="Helvetica,sans-Serif" font-size="10.00" fill="#000000">Eigen/StdVector</text>
</g>
<!-- Node12&#45;&gt;Node14 -->
<g id="edge15" class="edge">
<title>Node12&#45;&gt;Node14</title>
<path fill="none" stroke="#191970" d="M471.5,-168.2977C471.5,-160.3834 471.5,-150.6043 471.5,-142.0759"/>
<polygon fill="#191970" stroke="#191970" points="475.0001,-141.8469 471.5,-131.8469 468.0001,-141.847 475.0001,-141.8469"/>
</g>
<!-- Node13&#45;&gt;Node2 -->
<g id="edge14" class="edge">
<title>Node13&#45;&gt;Node2</title>
<path fill="none" stroke="#191970" d="M647.5777,-112.2455C642.8973,-104.5367 636.2327,-93.5598 630.5711,-84.2348"/>
<polygon fill="#191970" stroke="#191970" points="633.5361,-82.3741 625.3545,-75.6427 627.5525,-86.007 633.5361,-82.3741"/>
</g>
<!-- Node15&#45;&gt;Node11 -->
<g id="edge19" class="edge">
<title>Node15&#45;&gt;Node11</title>
<path fill="none" stroke="#191970" d="M859.6622,-352.2641C760.518,-346.0346 607.8937,-333.1893 554.5,-311 527.8623,-299.9299 502.7391,-277.6862 487.2554,-262.0937"/>
<polygon fill="#191970" stroke="#191970" points="489.5371,-259.4173 480.0801,-254.6406 484.4942,-264.2721 489.5371,-259.4173"/>
</g>
<!-- Node15&#45;&gt;Node13 -->
<g id="edge27" class="edge">
<title>Node15&#45;&gt;Node13</title>
<path fill="none" stroke="#191970" d="M950.7255,-347.4375C954.1119,-316.4471 960.192,-217.9063 908.5,-168 881.2359,-141.6778 779.4035,-130.0781 712.9667,-125.2234"/>
<polygon fill="#191970" stroke="#191970" points="712.8444,-121.7064 702.6247,-124.5009 712.3565,-128.6894 712.8444,-121.7064"/>
</g>
<!-- Node16 -->
<g id="node17" class="node">
<title>Node16</title>
<g id="a_node17"><a xlink:href="AbstractGeometry_8hpp.html" target="_top" xlink:title="Core/Geometry/AbstractGeometry.hpp">
<polygon fill="#ffffff" stroke="#000000" points="959,-235.5 959,-254.5 1162,-254.5 1162,-235.5 959,-235.5"/>
<text text-anchor="middle" x="1060.5" y="-242.5" font-family="Helvetica,sans-Serif" font-size="10.00" fill="#000000">Core/Geometry/AbstractGeometry.hpp</text>
</a>
</g>
</g>
<!-- Node15&#45;&gt;Node16 -->
<g id="edge20" class="edge">
<title>Node15&#45;&gt;Node16</title>
<path fill="none" stroke="#191970" d="M953.5719,-347.0984C959.6162,-333.2926 972.0424,-308.0408 988.5,-291 1000.8414,-278.2213 1017.3939,-267.3313 1031.5161,-259.3596"/>
<polygon fill="#191970" stroke="#191970" points="1033.2565,-262.3974 1040.3769,-254.552 1029.9181,-256.2447 1033.2565,-262.3974"/>
</g>
<!-- Node17 -->
<g id="node18" class="node">
<title>Node17</title>
<g id="a_node18"><a xlink:href="Types_8hpp.html" target="_top" xlink:title="Core/Types.hpp">
<polygon fill="#ffffff" stroke="#000000" points="1152,-174 1152,-193 1243,-193 1243,-174 1152,-174"/>
<text text-anchor="middle" x="1197.5" y="-181" font-family="Helvetica,sans-Serif" font-size="10.00" fill="#000000">Core/Types.hpp</text>
</a>
</g>
</g>
<!-- Node15&#45;&gt;Node17 -->
<g id="edge28" class="edge">
<title>Node15&#45;&gt;Node17</title>
<path fill="none" stroke="#191970" d="M1039.4302,-349.4013C1155.7065,-337.4692 1348.3367,-309.8132 1390.5,-255 1395.9196,-247.9544 1395.9149,-242.0492 1390.5,-235 1381.9482,-223.867 1307.0019,-206.2141 1253.0724,-194.7429"/>
<polygon fill="#191970" stroke="#191970" points="1253.7749,-191.3141 1243.2679,-192.6759 1252.3308,-198.1636 1253.7749,-191.3141"/>
</g>
<!-- Node21 -->
<g id="node22" class="node">
<title>Node21</title>
<g id="a_node22"><a xlink:href="Attribs_8hpp.html" target="_top" xlink:title="Core/Utils/Attribs.hpp">
<polygon fill="#ffffff" stroke="#000000" points="564,-291.5 564,-310.5 685,-310.5 685,-291.5 564,-291.5"/>
<text text-anchor="middle" x="624.5" y="-298.5" font-family="Helvetica,sans-Serif" font-size="10.00" fill="#000000">Core/Utils/Attribs.hpp</text>
</a>
</g>
</g>
<!-- Node15&#45;&gt;Node21 -->
<g id="edge29" class="edge">
<title>Node15&#45;&gt;Node21</title>
<path fill="none" stroke="#191970" d="M893.9998,-347.4369C837.4437,-337.6918 749.7596,-322.5832 689.8741,-312.2645"/>
<polygon fill="#191970" stroke="#191970" points="690.2204,-308.7726 679.7713,-310.5237 689.0317,-315.671 690.2204,-308.7726"/>
</g>
<!-- Node25 -->
<g id="node26" class="node">
<title>Node25</title>
<g id="a_node26"><a xlink:href="Observable_8hpp.html" target="_top" xlink:title="Core/Utils/Observable.hpp">
<polygon fill="#ffffff" stroke="#000000" points="222.5,-235.5 222.5,-254.5 366.5,-254.5 366.5,-235.5 222.5,-235.5"/>
<text text-anchor="middle" x="294.5" y="-242.5" font-family="Helvetica,sans-Serif" font-size="10.00" fill="#000000">Core/Utils/Observable.hpp</text>
</a>
</g>
</g>
<!-- Node15&#45;&gt;Node25 -->
<g id="edge59" class="edge">
<title>Node15&#45;&gt;Node25</title>
<path fill="none" stroke="#191970" d="M859.6408,-352.1397C771.9568,-346.2888 635.1107,-334.2051 518.5,-311 450.9936,-297.5665 374.5072,-272.923 330.642,-257.8464"/>
<polygon fill="#191970" stroke="#191970" points="331.5996,-254.4741 321.0048,-254.5072 329.3078,-261.0883 331.5996,-254.4741"/>
</g>
<!-- Node15&#45;&gt;Node32 -->
<g id="edge48" class="edge">
<title>Node15&#45;&gt;Node32</title>
<path fill="none" stroke="#191970" d="M1039.2451,-355.1011C1157.1434,-351.4466 1357.0094,-340.9189 1423.5,-311 1447.3268,-300.2786 1468.3664,-278.2879 1481.2364,-262.6394"/>
<polygon fill="#191970" stroke="#191970" points="1484.0504,-264.7236 1487.5118,-254.7101 1478.5614,-260.3795 1484.0504,-264.7236"/>
</g>
<!-- Node38 -->
<g id="node39" class="node">
<title>Node38</title>
<g id="a_node39"><a xlink:href="TriangleMesh_8inl.html" target="_top" xlink:title="Core/Geometry/TriangleMesh.inl">
<polygon fill="#ffffff" stroke="#000000" points="997,-291.5 997,-310.5 1170,-310.5 1170,-291.5 997,-291.5"/>
<text text-anchor="middle" x="1083.5" y="-298.5" font-family="Helvetica,sans-Serif" font-size="10.00" fill="#000000">Core/Geometry/TriangleMesh.inl</text>
</a>
</g>
</g>
<!-- Node15&#45;&gt;Node38 -->
<g id="edge60" class="edge">
<title>Node15&#45;&gt;Node38</title>
<path fill="none" stroke="#191970" d="M967.2934,-347.3733C987.3996,-338.2226 1020.316,-324.3844 1046.0698,-314.2057"/>
<polygon fill="#191970" stroke="#191970" points="1047.5082,-317.4014 1055.5479,-310.5011 1044.9599,-310.8817 1047.5082,-317.4014"/>
</g>
<!-- Node16&#45;&gt;Node13 -->
<g id="edge21" class="edge">
<title>Node16&#45;&gt;Node13</title>
<path fill="none" stroke="#191970" d="M1049.5699,-235.345C1030.0097,-218.648 987.0702,-184.5797 944.5,-168 903.3887,-151.9884 785.5355,-136.6671 713.0412,-128.377"/>
<polygon fill="#191970" stroke="#191970" points="713.0191,-124.8522 702.6889,-127.2056 712.232,-131.8078 713.0191,-124.8522"/>
</g>
<!-- Node16&#45;&gt;Node17 -->
<g id="edge22" class="edge">
<title>Node16&#45;&gt;Node17</title>
<path fill="none" stroke="#191970" d="M1081.9063,-235.3906C1104.7283,-225.1457 1141.0679,-208.8326 1166.9057,-197.2339"/>
<polygon fill="#191970" stroke="#191970" points="1168.5545,-200.3303 1176.2441,-193.0419 1165.6877,-193.9443 1168.5545,-200.3303"/>
</g>
<!-- Node17&#45;&gt;Node13 -->
<g id="edge23" class="edge">
<title>Node17&#45;&gt;Node13</title>
<path fill="none" stroke="#191970" d="M1151.5877,-178.3095C1053.1963,-167.1863 822.1001,-141.0605 712.7897,-128.7028"/>
<polygon fill="#191970" stroke="#191970" points="712.9299,-125.1964 702.6,-127.5508 712.1435,-132.1521 712.9299,-125.1964"/>
</g>
<!-- Node18 -->
<g id="node19" class="node">
<title>Node18</title>
<polygon fill="#ffffff" stroke="#bfbfbf" points="1163,-112.5 1163,-131.5 1232,-131.5 1232,-112.5 1163,-112.5"/>
<text text-anchor="middle" x="1197.5" y="-119.5" font-family="Helvetica,sans-Serif" font-size="10.00" fill="#000000">Eigen/Core</text>
</g>
<!-- Node17&#45;&gt;Node18 -->
<g id="edge24" class="edge">
<title>Node17&#45;&gt;Node18</title>
<path fill="none" stroke="#191970" d="M1197.5,-173.8906C1197.5,-165.3657 1197.5,-152.6392 1197.5,-141.9235"/>
<polygon fill="#191970" stroke="#191970" points="1201.0001,-141.7448 1197.5,-131.7449 1194.0001,-141.7449 1201.0001,-141.7448"/>
</g>
<!-- Node19 -->
<g id="node20" class="node">
<title>Node19</title>
<polygon fill="#ffffff" stroke="#bfbfbf" points="1250,-112.5 1250,-131.5 1345,-131.5 1345,-112.5 1250,-112.5"/>
<text text-anchor="middle" x="1297.5" y="-119.5" font-family="Helvetica,sans-Serif" font-size="10.00" fill="#000000">Eigen/Geometry</text>
</g>
<!-- Node17&#45;&gt;Node19 -->
<g id="edge25" class="edge">
<title>Node17&#45;&gt;Node19</title>
<path fill="none" stroke="#191970" d="M1213.125,-173.8906C1229.2698,-163.9616 1254.6822,-148.333 1273.4023,-136.8201"/>
<polygon fill="#191970" stroke="#191970" points="1275.3002,-139.7619 1281.9847,-131.5419 1271.6331,-133.7992 1275.3002,-139.7619"/>
</g>
<!-- Node20 -->
<g id="node21" class="node">
<title>Node20</title>
<polygon fill="#ffffff" stroke="#bfbfbf" points="1064.5,-112.5 1064.5,-131.5 1144.5,-131.5 1144.5,-112.5 1064.5,-112.5"/>
<text text-anchor="middle" x="1104.5" y="-119.5" font-family="Helvetica,sans-Serif" font-size="10.00" fill="#000000">Eigen/Sparse</text>
</g>
<!-- Node17&#45;&gt;Node20 -->
<g id="edge26" class="edge">
<title>Node17&#45;&gt;Node20</title>
<path fill="none" stroke="#191970" d="M1182.9688,-173.8906C1168.0906,-164.0519 1144.7496,-148.6167 1127.3872,-137.1351"/>
<polygon fill="#191970" stroke="#191970" points="1129.201,-134.1385 1118.9292,-131.5419 1125.3398,-139.9773 1129.201,-134.1385"/>
</g>
<!-- Node21&#45;&gt;Node9 -->
<g id="edge30" class="edge">
<title>Node21&#45;&gt;Node9</title>
<path fill="none" stroke="#191970" d="M619.32,-291.4279C610.7187,-276.5703 591.9842,-248.2881 567.5,-235 463.808,-178.7241 416.4597,-236.2028 304.5,-199 303.2543,-198.5861 302.0001,-198.1165 300.7495,-197.6052"/>
<polygon fill="#191970" stroke="#191970" points="301.962,-194.3036 291.4363,-193.0956 298.9113,-200.6039 301.962,-194.3036"/>
</g>
<!-- Node21&#45;&gt;Node11 -->
<g id="edge31" class="edge">
<title>Node21&#45;&gt;Node11</title>
<path fill="none" stroke="#191970" d="M598.1984,-291.3733C573.0872,-282.1822 535.0562,-268.2624 507.2128,-258.0713"/>
<polygon fill="#191970" stroke="#191970" points="508.0522,-254.6516 497.4584,-254.5011 505.6462,-261.2251 508.0522,-254.6516"/>
</g>
<!-- Node21&#45;&gt;Node13 -->
<g id="edge32" class="edge">
<title>Node21&#45;&gt;Node13</title>
<path fill="none" stroke="#191970" d="M626.0592,-291.3762C630.6421,-263.0883 644.136,-179.7987 650.3284,-141.5767"/>
<polygon fill="#191970" stroke="#191970" points="653.7887,-142.1025 651.9331,-131.6714 646.8788,-140.9829 653.7887,-142.1025"/>
</g>
<!-- Node22 -->
<g id="node23" class="node">
<title>Node22</title>
<g id="a_node23"><a xlink:href="Index_8hpp.html" target="_top" xlink:title="Core/Utils/Index.hpp">
<polygon fill="#ffffff" stroke="#000000" points="786.5,-235.5 786.5,-254.5 902.5,-254.5 902.5,-235.5 786.5,-235.5"/>
<text text-anchor="middle" x="844.5" y="-242.5" font-family="Helvetica,sans-Serif" font-size="10.00" fill="#000000">Core/Utils/Index.hpp</text>
</a>
</g>
</g>
<!-- Node21&#45;&gt;Node22 -->
<g id="edge33" class="edge">
<title>Node21&#45;&gt;Node22</title>
<path fill="none" stroke="#191970" d="M662.3193,-291.3733C699.6938,-281.8598 756.9724,-267.2797 797.3071,-257.0127"/>
<polygon fill="#191970" stroke="#191970" points="798.3466,-260.3598 807.1742,-254.5011 796.6198,-253.5761 798.3466,-260.3598"/>
</g>
<!-- Node21&#45;&gt;Node25 -->
<g id="edge38" class="edge">
<title>Node21&#45;&gt;Node25</title>
<path fill="none" stroke="#191970" d="M568.1459,-291.4369C510.6011,-281.6717 421.3186,-266.5207 360.5033,-256.2006"/>
<polygon fill="#191970" stroke="#191970" points="361.0663,-252.7461 350.6216,-254.5237 359.8951,-259.6475 361.0663,-252.7461"/>
</g>
<!-- Node31 -->
<g id="node32" class="node">
<title>Node31</title>
<g id="a_node32"><a xlink:href="Attribs_8inl.html" target="_top" xlink:title="Core/Utils/Attribs.inl">
<polygon fill="#ffffff" stroke="#000000" points="653,-235.5 653,-254.5 768,-254.5 768,-235.5 653,-235.5"/>
<text text-anchor="middle" x="710.5" y="-242.5" font-family="Helvetica,sans-Serif" font-size="10.00" fill="#000000">Core/Utils/Attribs.inl</text>
</a>
</g>
</g>
<!-- Node21&#45;&gt;Node31 -->
<g id="edge47" class="edge">
<title>Node21&#45;&gt;Node31</title>
<path fill="none" stroke="#191970" d="M639.4801,-291.2455C652.6751,-282.6534 672.1051,-270.0014 687.3079,-260.1018"/>
<polygon fill="#191970" stroke="#191970" points="689.2215,-263.0325 695.6916,-254.6427 685.4017,-257.1665 689.2215,-263.0325"/>
</g>
<!-- Node22&#45;&gt;Node13 -->
<g id="edge34" class="edge">
<title>Node22&#45;&gt;Node13</title>
<path fill="none" stroke="#191970" d="M802.1876,-235.4701C776.4095,-228.2861 743.6974,-216.6063 718.5,-199 695.8735,-183.1901 676.4466,-157.6188 664.8703,-140.3243"/>
<polygon fill="#191970" stroke="#191970" points="667.6485,-138.1752 659.2763,-131.6824 661.7722,-141.979 667.6485,-138.1752"/>
</g>
<!-- Node23 -->
<g id="node24" class="node">
<title>Node23</title>
<polygon fill="#ffffff" stroke="#bfbfbf" points="727.5,-174 727.5,-193 771.5,-193 771.5,-174 727.5,-174"/>
<text text-anchor="middle" x="749.5" y="-181" font-family="Helvetica,sans-Serif" font-size="10.00" fill="#000000">limits</text>
</g>
<!-- Node22&#45;&gt;Node23 -->
<g id="edge35" class="edge">
<title>Node22&#45;&gt;Node23</title>
<path fill="none" stroke="#191970" d="M829.6563,-235.3906C814.4582,-225.5519 790.6152,-210.1167 772.8794,-198.6351"/>
<polygon fill="#191970" stroke="#191970" points="774.5361,-195.5382 764.2395,-193.0419 770.732,-201.4144 774.5361,-195.5382"/>
</g>
<!-- Node24 -->
<g id="node25" class="node">
<title>Node24</title>
<g id="a_node25"><a xlink:href="Index_8inl.html" target="_top" xlink:title="Core/Utils/Index.inl">
<polygon fill="#ffffff" stroke="#000000" points="789.5,-174 789.5,-193 899.5,-193 899.5,-174 789.5,-174"/>
<text text-anchor="middle" x="844.5" y="-181" font-family="Helvetica,sans-Serif" font-size="10.00" fill="#000000">Core/Utils/Index.inl</text>
</a>
</g>
</g>
<!-- Node22&#45;&gt;Node24 -->
<g id="edge36" class="edge">
<title>Node22&#45;&gt;Node24</title>
<path fill="none" stroke="#191970" d="M839.4375,-235.3906C837.7741,-226.8657 837.3404,-214.1392 838.1365,-203.4235"/>
<polygon fill="#191970" stroke="#191970" points="841.6414,-203.6023 839.4112,-193.2449 834.6956,-202.7324 841.6414,-203.6023"/>
</g>
<!-- Node24&#45;&gt;Node22 -->
<g id="edge37" class="edge">
<title>Node24&#45;&gt;Node22</title>
<path fill="none" stroke="#191970" d="M849.5888,-193.2449C851.2392,-201.814 851.6598,-214.5519 850.8508,-225.2462"/>
<polygon fill="#191970" stroke="#191970" points="847.3503,-225.0293 849.5625,-235.3906 854.2945,-225.9113 847.3503,-225.0293"/>
</g>
<!-- Node25&#45;&gt;Node9 -->
<g id="edge46" class="edge">
<title>Node25&#45;&gt;Node9</title>
<path fill="none" stroke="#191970" d="M291.6875,-235.3906C289.1661,-226.776 285.389,-213.8708 282.2324,-203.0858"/>
<polygon fill="#191970" stroke="#191970" points="285.5203,-201.8591 279.3522,-193.2449 278.8021,-203.8254 285.5203,-201.8591"/>
</g>
<!-- Node26 -->
<g id="node27" class="node">
<title>Node26</title>
<g id="a_node27"><a xlink:href="Log_8hpp.html" target="_top" xlink:title="Core/Utils/Log.hpp">
<polygon fill="#ffffff" stroke="#000000" points="95.5,-174 95.5,-193 201.5,-193 201.5,-174 95.5,-174"/>
<text text-anchor="middle" x="148.5" y="-181" font-family="Helvetica,sans-Serif" font-size="10.00" fill="#000000">Core/Utils/Log.hpp</text>
</a>
</g>
</g>
<!-- Node25&#45;&gt;Node26 -->
<g id="edge39" class="edge">
<title>Node25&#45;&gt;Node26</title>
<path fill="none" stroke="#191970" d="M271.6875,-235.3906C247.1519,-225.0554 207.9558,-208.5447 180.3789,-196.9284"/>
<polygon fill="#191970" stroke="#191970" points="181.7268,-193.6984 171.1523,-193.0419 179.0094,-200.1495 181.7268,-193.6984"/>
</g>
<!-- Node30 -->
<g id="node31" class="node">
<title>Node30</title>
<polygon fill="#ffffff" stroke="#bfbfbf" points="314,-174 314,-193 379,-193 379,-174 314,-174"/>
<text text-anchor="middle" x="346.5" y="-181" font-family="Helvetica,sans-Serif" font-size="10.00" fill="#000000">functional</text>
</g>
<!-- Node25&#45;&gt;Node30 -->
<g id="edge45" class="edge">
<title>Node25&#45;&gt;Node30</title>
<path fill="none" stroke="#191970" d="M302.625,-235.3906C310.3642,-226.2376 322.1987,-212.2409 331.6272,-201.09"/>
<polygon fill="#191970" stroke="#191970" points="334.4765,-203.1409 338.2604,-193.2449 329.1311,-198.6213 334.4765,-203.1409"/>
</g>
<!-- Node26&#45;&gt;Node6 -->
<g id="edge42" class="edge">
<title>Node26&#45;&gt;Node6</title>
<path fill="none" stroke="#191970" d="M138.5039,-173.7914C125.1419,-159.5978 104.5586,-132.6303 117.5,-112 155.449,-51.5044 240.544,-26.0154 290.2994,-15.9678"/>
<polygon fill="#191970" stroke="#191970" points="291.1833,-19.3624 300.3506,-14.0511 289.872,-12.4864 291.1833,-19.3624"/>
</g>
<!-- Node26&#45;&gt;Node13 -->
<g id="edge40" class="edge">
<title>Node26&#45;&gt;Node13</title>
<path fill="none" stroke="#191970" d="M201.6368,-174.8526C216.7611,-172.503 233.2643,-170.0451 248.5,-168 371.1653,-151.5342 515.2573,-136.0964 594.2445,-127.9674"/>
<polygon fill="#191970" stroke="#191970" points="594.8914,-131.4195 604.4821,-126.9173 594.1771,-124.4561 594.8914,-131.4195"/>
</g>
<!-- Node27 -->
<g id="node28" class="node">
<title>Node27</title>
<polygon fill="#ffffff" stroke="#bfbfbf" points="188.5,-112.5 188.5,-131.5 232.5,-131.5 232.5,-112.5 188.5,-112.5"/>
<text text-anchor="middle" x="210.5" y="-119.5" font-family="Helvetica,sans-Serif" font-size="10.00" fill="#000000">ctime</text>
</g>
<!-- Node26&#45;&gt;Node27 -->
<g id="edge41" class="edge">
<title>Node26&#45;&gt;Node27</title>
<path fill="none" stroke="#191970" d="M158.1875,-173.8906C167.5959,-164.5581 182.0807,-150.1902 193.4249,-138.9374"/>
<polygon fill="#191970" stroke="#191970" points="196.0411,-141.2722 200.6759,-131.7449 191.1114,-136.3024 196.0411,-141.2722"/>
</g>
<!-- Node28 -->
<g id="node29" class="node">
<title>Node28</title>
<polygon fill="#ffffff" stroke="#bfbfbf" points="250.5,-112.5 250.5,-131.5 300.5,-131.5 300.5,-112.5 250.5,-112.5"/>
<text text-anchor="middle" x="275.5" y="-119.5" font-family="Helvetica,sans-Serif" font-size="10.00" fill="#000000">stdio.h</text>
</g>
<!-- Node26&#45;&gt;Node28 -->
<g id="edge43" class="edge">
<title>Node26&#45;&gt;Node28</title>
<path fill="none" stroke="#191970" d="M168.3438,-173.8906C189.3136,-163.7359 222.5944,-147.6196 246.5036,-136.0416"/>
<polygon fill="#191970" stroke="#191970" points="248.3208,-139.0504 255.7956,-131.5419 245.2699,-132.7502 248.3208,-139.0504"/>
</g>
<!-- Node29 -->
<g id="node30" class="node">
<title>Node29</title>
<polygon fill="#ffffff" stroke="#bfbfbf" points="126.5,-112.5 126.5,-131.5 170.5,-131.5 170.5,-112.5 126.5,-112.5"/>
<text text-anchor="middle" x="148.5" y="-119.5" font-family="Helvetica,sans-Serif" font-size="10.00" fill="#000000">string</text>
</g>
<!-- Node26&#45;&gt;Node29 -->
<g id="edge44" class="edge">
<title>Node26&#45;&gt;Node29</title>
<path fill="none" stroke="#191970" d="M148.5,-173.8906C148.5,-165.3657 148.5,-152.6392 148.5,-141.9235"/>
<polygon fill="#191970" stroke="#191970" points="152.0001,-141.7448 148.5,-131.7449 145.0001,-141.7449 152.0001,-141.7448"/>
</g>
<!-- Node32&#45;&gt;Node2 -->
<g id="edge49" class="edge">
<title>Node32&#45;&gt;Node2</title>
<path fill="none" stroke="#191970" d="M1517.4321,-235.4958C1566.5258,-213.9135 1673.7866,-159.3983 1628.5,-112 1596.1173,-78.1073 913.7093,-68.7397 689.9013,-66.5739"/>
<polygon fill="#191970" stroke="#191970" points="689.6276,-63.0713 679.5948,-66.4762 689.5611,-70.0709 689.6276,-63.0713"/>
</g>
<!-- Node32&#45;&gt;Node18 -->
<g id="edge56" class="edge">
<title>Node32&#45;&gt;Node18</title>
<path fill="none" stroke="#191970" d="M1463.9274,-235.3864C1441.2463,-227.4928 1410.1206,-215.0165 1385.5,-199 1368.632,-188.0268 1369.9499,-178.0219 1352.5,-168 1333.675,-157.1883 1281.0127,-142.6485 1242.2752,-132.8327"/>
<polygon fill="#191970" stroke="#191970" points="1242.809,-129.3582 1232.2579,-130.3204 1241.1061,-136.148 1242.809,-129.3582"/>
</g>
<!-- Node32&#45;&gt;Node19 -->
<g id="edge57" class="edge">
<title>Node32&#45;&gt;Node19</title>
<path fill="none" stroke="#191970" d="M1480.549,-235.3722C1467.1596,-226.1094 1446.389,-211.6812 1428.5,-199 1409.2796,-185.375 1405.5464,-180.3776 1385.5,-168 1366.5641,-156.3081 1344.3483,-144.7106 1326.9758,-136.0855"/>
<polygon fill="#191970" stroke="#191970" points="1328.3933,-132.8824 1317.8742,-131.6178 1325.3088,-139.1662 1328.3933,-132.8824"/>
</g>
<!-- Node33 -->
<g id="node34" class="node">
<title>Node33</title>
<g id="a_node34"><a xlink:href="Math_8hpp.html" target="_top" xlink:title="Core/Math/Math.hpp">
<polygon fill="#ffffff" stroke="#000000" points="1437.5,-174 1437.5,-193 1551.5,-193 1551.5,-174 1437.5,-174"/>
<text text-anchor="middle" x="1494.5" y="-181" font-family="Helvetica,sans-Serif" font-size="10.00" fill="#000000">Core/Math/Math.hpp</text>
</a>
</g>
</g>
<!-- Node32&#45;&gt;Node33 -->
<g id="edge50" class="edge">
<title>Node32&#45;&gt;Node33</title>
<path fill="none" stroke="#191970" d="M1494.5,-235.3906C1494.5,-226.8657 1494.5,-214.1392 1494.5,-203.4235"/>
<polygon fill="#191970" stroke="#191970" points="1498.0001,-203.2448 1494.5,-193.2449 1491.0001,-203.2449 1498.0001,-203.2448"/>
</g>
<!-- Node37 -->
<g id="node38" class="node">
<title>Node37</title>
<polygon fill="#ffffff" stroke="#bfbfbf" points="1289.5,-174 1289.5,-193 1343.5,-193 1343.5,-174 1289.5,-174"/>
<text text-anchor="middle" x="1316.5" y="-181" font-family="Helvetica,sans-Serif" font-size="10.00" fill="#000000">random</text>
</g>
<!-- Node32&#45;&gt;Node37 -->
<g id="edge58" class="edge">
<title>Node32&#45;&gt;Node37</title>
<path fill="none" stroke="#191970" d="M1464.9931,-235.4469C1437.1733,-226.3564 1394.3641,-212.1518 1357.5,-199 1355.4036,-198.2521 1353.251,-197.4727 1351.0824,-196.6788"/>
<polygon fill="#191970" stroke="#191970" points="1352.1901,-193.3567 1341.5971,-193.1582 1349.7542,-199.9193 1352.1901,-193.3567"/>
</g>
<!-- Node33&#45;&gt;Node13 -->
<g id="edge51" class="edge">
<title>Node33&#45;&gt;Node13</title>
<path fill="none" stroke="#191970" d="M1437.2088,-176.679C1411.3553,-173.7471 1380.4166,-170.4411 1352.5,-168 1115.8763,-147.3094 833.4515,-131.4152 712.837,-125.0417"/>
<polygon fill="#191970" stroke="#191970" points="712.8784,-121.5392 702.7083,-124.5088 712.5106,-128.5295 712.8784,-121.5392"/>
</g>
<!-- Node34 -->
<g id="node35" class="node">
<title>Node34</title>
<polygon fill="#ffffff" stroke="#bfbfbf" points="1489.5,-112.5 1489.5,-131.5 1553.5,-131.5 1553.5,-112.5 1489.5,-112.5"/>
<text text-anchor="middle" x="1521.5" y="-119.5" font-family="Helvetica,sans-Serif" font-size="10.00" fill="#000000">algorithm</text>
</g>
<!-- Node33&#45;&gt;Node34 -->
<g id="edge52" class="edge">
<title>Node33&#45;&gt;Node34</title>
<path fill="none" stroke="#191970" d="M1498.7188,-173.8906C1502.5796,-165.0965 1508.4034,-151.8312 1513.1961,-140.9145"/>
<polygon fill="#191970" stroke="#191970" points="1516.4066,-142.3083 1517.2218,-131.7449 1509.9971,-139.4943 1516.4066,-142.3083"/>
</g>
<!-- Node35 -->
<g id="node36" class="node">
<title>Node35</title>
<polygon fill="#ffffff" stroke="#bfbfbf" points="1572,-112.5 1572,-131.5 1619,-131.5 1619,-112.5 1572,-112.5"/>
<text text-anchor="middle" x="1595.5" y="-119.5" font-family="Helvetica,sans-Serif" font-size="10.00" fill="#000000">cmath</text>
</g>
<!-- Node33&#45;&gt;Node35 -->
<g id="edge53" class="edge">
<title>Node33&#45;&gt;Node35</title>
<path fill="none" stroke="#191970" d="M1510.2813,-173.8906C1526.5875,-163.9616 1552.254,-148.333 1571.1614,-136.8201"/>
<polygon fill="#191970" stroke="#191970" points="1573.1087,-139.7322 1579.8296,-131.5419 1569.4681,-133.7533 1573.1087,-139.7322"/>
</g>
<!-- Node36 -->
<g id="node37" class="node">
<title>Node36</title>
<g id="a_node37"><a xlink:href="Math_8inl.html" target="_top" xlink:title="Core/Math/Math.inl">
<polygon fill="#ffffff" stroke="#000000" points="1363.5,-112.5 1363.5,-131.5 1471.5,-131.5 1471.5,-112.5 1363.5,-112.5"/>
<text text-anchor="middle" x="1417.5" y="-119.5" font-family="Helvetica,sans-Serif" font-size="10.00" fill="#000000">Core/Math/Math.inl</text>
</a>
</g>
</g>
<!-- Node33&#45;&gt;Node36 -->
<g id="edge54" class="edge">
<title>Node33&#45;&gt;Node36</title>
<path fill="none" stroke="#191970" d="M1477.4063,-173.8906C1463.7708,-164.4683 1445.2112,-149.9134 1432.2296,-138.6137"/>
<polygon fill="#191970" stroke="#191970" points="1434.3826,-135.8422 1424.6121,-131.7449 1429.6949,-141.0409 1434.3826,-135.8422"/>
</g>
<!-- Node36&#45;&gt;Node33 -->
<g id="edge55" class="edge">
<title>Node36&#45;&gt;Node33</title>
<path fill="none" stroke="#191970" d="M1434.4961,-131.5419C1448.188,-140.9949 1466.8875,-155.6614 1479.9062,-167.0046"/>
<polygon fill="#191970" stroke="#191970" points="1477.7639,-169.7859 1487.5313,-173.8906 1482.4555,-164.5908 1477.7639,-169.7859"/>
</g>
<!-- Node38&#45;&gt;Node15 -->
<g id="edge61" class="edge">
<title>Node38&#45;&gt;Node15</title>
<path fill="none" stroke="#191970" d="M1065.9825,-310.5011C1045.9942,-319.6086 1013.1041,-333.4419 987.285,-343.6541"/>
<polygon fill="#191970" stroke="#191970" points="985.8152,-340.4707 977.7774,-347.3733 988.3653,-346.9897 985.8152,-340.4707"/>
</g>
<!-- Node39 -->
<g id="node40" class="node">
<title>Node39</title>
<g id="a_node40"><a xlink:href="TriangleOperation_8hpp.html" target="_top" xlink:title="Core/Geometry/TriangleOperation.hpp">
<polygon fill="#ffffff" stroke="#000000" points="1180,-235.5 1180,-254.5 1381,-254.5 1381,-235.5 1180,-235.5"/>
<text text-anchor="middle" x="1280.5" y="-242.5" font-family="Helvetica,sans-Serif" font-size="10.00" fill="#000000">Core/Geometry/TriangleOperation.hpp</text>
</a>
</g>
</g>
<!-- Node38&#45;&gt;Node39 -->
<g id="edge62" class="edge">
<title>Node38&#45;&gt;Node39</title>
<path fill="none" stroke="#191970" d="M1117.3655,-291.3733C1150.549,-281.9404 1201.255,-267.5265 1237.3194,-257.2747"/>
<polygon fill="#191970" stroke="#191970" points="1238.4145,-260.6021 1247.0764,-254.5011 1236.5005,-253.8689 1238.4145,-260.6021"/>
</g>
<!-- Node39&#45;&gt;Node17 -->
<g id="edge63" class="edge">
<title>Node39&#45;&gt;Node17</title>
<path fill="none" stroke="#191970" d="M1267.5313,-235.3906C1254.4966,-225.7324 1234.1836,-210.6812 1218.7845,-199.271"/>
<polygon fill="#191970" stroke="#191970" points="1220.4961,-196.1832 1210.3777,-193.0419 1216.3287,-201.8075 1220.4961,-196.1832"/>
</g>
</g>
</svg>
        <g id="navigator" transform="translate(0 0)" fill="#404254">
                <rect fill="#f2f5e9" fill-opacity="0.5" stroke="#606060" stroke-width=".5" x="0" y="0" width="60" height="60"/>
                <use id="zoomplus" xlink:href="#zoomPlus" x="17" y="9" onmousedown="handleZoom(evt,'in')"/>
                <use id="zoomminus" xlink:href="#zoomMin" x="42" y="9" onmousedown="handleZoom(evt,'out')"/>
                <use id="reset" xlink:href="#resetDef" x="30" y="36" onmousedown="handleReset()"/>
                <g id="arrowUp" xlink:href="#dirArrow" transform="translate(30 24)" onmousedown="handlePan(0,-1)">
                  <use xlink:href="#rim" fill="#404040">
                        <set attributeName="fill" to="#808080" begin="arrowUp.mouseover" end="arrowUp.mouseout"/>
                  </use>
                  <path fill="none" stroke="white" stroke-width="1.5" d="M0,-3.0v7 M-2.5,-0.5L0,-3.0L2.5,-0.5"/>
                </g>
                <g id="arrowRight" xlink:href="#dirArrow" transform="rotate(90) translate(36 -43)" onmousedown="handlePan(1,0)">
                  <use xlink:href="#rim" fill="#404040">
                        <set attributeName="fill" to="#808080" begin="arrowRight.mouseover" end="arrowRight.mouseout"/>
                  </use>
                  <path fill="none" stroke="white" stroke-width="1.5" d="M0,-3.0v7 M-2.5,-0.5L0,-3.0L2.5,-0.5"/>
                </g>
                <g id="arrowDown" xlink:href="#dirArrow" transform="rotate(180) translate(-30 -48)" onmousedown="handlePan(0,1)">
                  <use xlink:href="#rim" fill="#404040">
                        <set attributeName="fill" to="#808080" begin="arrowDown.mouseover" end="arrowDown.mouseout"/>
                  </use>
                  <path fill="none" stroke="white" stroke-width="1.5" d="M0,-3.0v7 M-2.5,-0.5L0,-3.0L2.5,-0.5"/>
                </g>
                <g id="arrowLeft" xlink:href="#dirArrow" transform="rotate(270) translate(-36 17)" onmousedown="handlePan(-1,0)">
                  <use xlink:href="#rim" fill="#404040">
                        <set attributeName="fill" to="#808080" begin="arrowLeft.mouseover" end="arrowLeft.mouseout"/>
                  </use>
                  <path fill="none" stroke="white" stroke-width="1.5" d="M0,-3.0v7 M-2.5,-0.5L0,-3.0L2.5,-0.5"/>
                </g>
        </g>
        <svg viewBox="0 0 15 15" width="100%" height="30px" preserveAspectRatio="xMaxYMin meet">
         <g id="arrow_out" transform="scale(0.3 0.3)">
          <a xlink:href="DisplayableObject_8hpp__incl_org.svg" target="_base">
           <rect id="button" ry="5" rx="5" y="6" x="6" height="38" width="38"
                fill="#f2f5e9" fill-opacity="0.5" stroke="#606060" stroke-width="1.0"/>
           <path id="arrow"
             d="M 11.500037,31.436501 C 11.940474,20.09759 22.043105,11.32322 32.158766,21.979434 L 37.068811,17.246167 C 37.068811,17.246167 37.088388,32 37.088388,32 L 22.160133,31.978069 C 22.160133,31.978069 26.997745,27.140456 26.997745,27.140456 C 18.528582,18.264221 13.291696,25.230495 11.500037,31.436501 z"
             style="fill:#404040;"/>
          </a>
         </g>
        </svg>
</svg>
