<?xml version="1.0" encoding="UTF-8" standalone="no"?>
<!DOCTYPE svg PUBLIC "-//W3C//DTD SVG 1.1//EN"
 "http://www.w3.org/Graphics/SVG/1.1/DTD/svg11.dtd">
<!-- Generated by graphviz version 2.40.1 (20161225.0304)
 -->
<!-- Title: src/Engine/Renderer/RenderObject/Primitives/DrawPrimitives.hpp Pages: 1 -->
<svg width="971pt" height="397pt"
 viewBox="0.00 0.00 971.16 397.00" xmlns="http://www.w3.org/2000/svg" xmlns:xlink="http://www.w3.org/1999/xlink">
<g id="graph0" class="graph" transform="scale(1 1) rotate(0) translate(4 393)">
<title>src/Engine/Renderer/RenderObject/Primitives/DrawPrimitives.hpp</title>
<polygon fill="#ffffff" stroke="transparent" points="-4,4 -4,-393 967.161,-393 967.161,4 -4,4"/>
<!-- Node0 -->
<g id="node1" class="node">
<title>Node0</title>
<polygon fill="#bfbfbf" stroke="#000000" points="538.2007,-347.5 538.2007,-388.5 675.2007,-388.5 675.2007,-347.5 538.2007,-347.5"/>
<text text-anchor="start" x="546.2007" y="-376.5" font-family="Helvetica,sans-Serif" font-size="10.00" fill="#000000">src/Engine/Renderer</text>
<text text-anchor="start" x="546.2007" y="-365.5" font-family="Helvetica,sans-Serif" font-size="10.00" fill="#000000">/RenderObject/Primitives</text>
<text text-anchor="middle" x="606.7007" y="-354.5" font-family="Helvetica,sans-Serif" font-size="10.00" fill="#000000">/DrawPrimitives.hpp</text>
</g>
<!-- Node1 -->
<g id="node2" class="node">
<title>Node1</title>
<g id="a_node2"><a xlink:href="RaEngine_8hpp.html" target="_top" xlink:title="Engine/RaEngine.hpp">
<polygon fill="#ffffff" stroke="#000000" points="44.2007,-291.5 44.2007,-310.5 163.2007,-310.5 163.2007,-291.5 44.2007,-291.5"/>
<text text-anchor="middle" x="103.7007" y="-298.5" font-family="Helvetica,sans-Serif" font-size="10.00" fill="#000000">Engine/RaEngine.hpp</text>
</a>
</g>
</g>
<!-- Node0&#45;&gt;Node1 -->
<g id="edge1" class="edge">
<title>Node0&#45;&gt;Node1</title>
<path fill="none" stroke="#191970" d="M538.0781,-358.8594C442.2678,-346.0974 269.3773,-323.0683 173.1343,-310.2486"/>
<polygon fill="#191970" stroke="#191970" points="173.5858,-306.7779 163.2112,-308.9268 172.6615,-313.7166 173.5858,-306.7779"/>
</g>
<!-- Node8 -->
<g id="node9" class="node">
<title>Node8</title>
<g id="a_node9"><a xlink:href="Obb_8hpp.html" target="_top" xlink:title="Core/Geometry/Obb.hpp">
<polygon fill="#ffffff" stroke="#000000" points="771.7007,-235.5 771.7007,-254.5 905.7007,-254.5 905.7007,-235.5 771.7007,-235.5"/>
<text text-anchor="middle" x="838.7007" y="-242.5" font-family="Helvetica,sans-Serif" font-size="10.00" fill="#000000">Core/Geometry/Obb.hpp</text>
</a>
</g>
</g>
<!-- Node0&#45;&gt;Node8 -->
<g id="edge8" class="edge">
<title>Node0&#45;&gt;Node8</title>
<path fill="none" stroke="#191970" d="M622.0094,-347.4609C636.0036,-330.0587 658.2034,-305.6624 682.7007,-291 709.7916,-274.7852 742.9784,-263.9592 771.7675,-256.9081"/>
<polygon fill="#191970" stroke="#191970" points="772.8123,-260.2581 781.75,-254.5688 771.2151,-253.4428 772.8123,-260.2581"/>
</g>
<!-- Node12 -->
<g id="node13" class="node">
<title>Node12</title>
<g id="a_node13"><a xlink:href="Spline_8hpp.html" target="_top" xlink:title="Core/Geometry/Spline.hpp">
<polygon fill="#ffffff" stroke="#000000" points="231.2007,-291.5 231.2007,-310.5 376.2007,-310.5 376.2007,-291.5 231.2007,-291.5"/>
<text text-anchor="middle" x="303.7007" y="-298.5" font-family="Helvetica,sans-Serif" font-size="10.00" fill="#000000">Core/Geometry/Spline.hpp</text>
</a>
</g>
</g>
<!-- Node0&#45;&gt;Node12 -->
<g id="edge13" class="edge">
<title>Node0&#45;&gt;Node12</title>
<path fill="none" stroke="#191970" d="M537.9453,-352.7967C483.0593,-340.6602 407.2725,-323.902 356.9376,-312.7719"/>
<polygon fill="#191970" stroke="#191970" points="357.4318,-309.2967 346.912,-310.555 355.9204,-316.1316 357.4318,-309.2967"/>
</g>
<!-- Node22 -->
<g id="node23" class="node">
<title>Node22</title>
<g id="a_node23"><a xlink:href="Types_8hpp.html" target="_top" xlink:title="Core/Types.hpp">
<polygon fill="#ffffff" stroke="#000000" points="662.2007,-235.5 662.2007,-254.5 753.2007,-254.5 753.2007,-235.5 662.2007,-235.5"/>
<text text-anchor="middle" x="707.7007" y="-242.5" font-family="Helvetica,sans-Serif" font-size="10.00" fill="#000000">Core/Types.hpp</text>
</a>
</g>
</g>
<!-- Node0&#45;&gt;Node22 -->
<g id="edge31" class="edge">
<title>Node0&#45;&gt;Node22</title>
<path fill="none" stroke="#191970" d="M615.518,-347.334C623.1049,-330.9891 635.1186,-308.1451 649.7007,-291 659.6533,-279.298 672.9566,-268.4951 684.3117,-260.303"/>
<polygon fill="#191970" stroke="#191970" points="686.3257,-263.1656 692.5276,-254.5756 682.3225,-257.4232 686.3257,-263.1656"/>
</g>
<!-- Node24 -->
<g id="node25" class="node">
<title>Node24</title>
<g id="a_node25"><a xlink:href="Color_8hpp.html" target="_top" xlink:title="Core/Utils/Color.hpp">
<polygon fill="#ffffff" stroke="#000000" points="531.2007,-235.5 531.2007,-254.5 644.2007,-254.5 644.2007,-235.5 531.2007,-235.5"/>
<text text-anchor="middle" x="587.7007" y="-242.5" font-family="Helvetica,sans-Serif" font-size="10.00" fill="#000000">Core/Utils/Color.hpp</text>
</a>
</g>
</g>
<!-- Node0&#45;&gt;Node24 -->
<g id="edge36" class="edge">
<title>Node0&#45;&gt;Node24</title>
<path fill="none" stroke="#191970" d="M603.5205,-347.4126C599.9598,-324.3618 594.2313,-287.2774 590.7323,-264.6259"/>
<polygon fill="#191970" stroke="#191970" points="594.1566,-263.8666 589.171,-254.5182 587.2387,-264.9353 594.1566,-263.8666"/>
</g>
<!-- Node26 -->
<g id="node27" class="node">
<title>Node26</title>
<polygon fill="#ffffff" stroke="#bfbfbf" points="691.7007,-291.5 691.7007,-310.5 749.7007,-310.5 749.7007,-291.5 691.7007,-291.5"/>
<text text-anchor="middle" x="720.7007" y="-298.5" font-family="Helvetica,sans-Serif" font-size="10.00" fill="#000000">memory</text>
</g>
<!-- Node0&#45;&gt;Node26 -->
<g id="edge42" class="edge">
<title>Node0&#45;&gt;Node26</title>
<path fill="none" stroke="#191970" d="M641.8346,-347.3511C659.2256,-337.1301 679.8174,-325.0279 695.5983,-315.7532"/>
<polygon fill="#191970" stroke="#191970" points="697.4255,-318.739 704.2734,-310.6546 693.8787,-312.7041 697.4255,-318.739"/>
</g>
<!-- Node2 -->
<g id="node3" class="node">
<title>Node2</title>
<g id="a_node3"><a xlink:href="CoreMacros_8hpp.html" target="_top" xlink:title="Core/CoreMacros.hpp">
<polygon fill="#ffffff" stroke="#000000" points="463.7007,-56.5 463.7007,-75.5 583.7007,-75.5 583.7007,-56.5 463.7007,-56.5"/>
<text text-anchor="middle" x="523.7007" y="-63.5" font-family="Helvetica,sans-Serif" font-size="10.00" fill="#000000">Core/CoreMacros.hpp</text>
</a>
</g>
</g>
<!-- Node1&#45;&gt;Node2 -->
<g id="edge2" class="edge">
<title>Node1&#45;&gt;Node2</title>
<path fill="none" stroke="#191970" d="M92.2089,-291.1902C58.2598,-261.0887 -36.0535,-168.6523 15.7007,-112 44.6244,-80.3388 320.621,-70.2546 453.2331,-67.2216"/>
<polygon fill="#191970" stroke="#191970" points="453.3788,-70.7193 463.2988,-66.9986 453.2237,-63.721 453.3788,-70.7193"/>
</g>
<!-- Node3 -->
<g id="node4" class="node">
<title>Node3</title>
<polygon fill="#ffffff" stroke="#bfbfbf" points="359.7007,-.5 359.7007,-19.5 411.7007,-19.5 411.7007,-.5 359.7007,-.5"/>
<text text-anchor="middle" x="385.7007" y="-7.5" font-family="Helvetica,sans-Serif" font-size="10.00" fill="#000000">cassert</text>
</g>
<!-- Node2&#45;&gt;Node3 -->
<g id="edge3" class="edge">
<title>Node2&#45;&gt;Node3</title>
<path fill="none" stroke="#191970" d="M499.9776,-56.3733C477.527,-47.2629 443.6268,-33.5062 418.5752,-23.3404"/>
<polygon fill="#191970" stroke="#191970" points="419.6964,-20.0182 409.1142,-19.5011 417.0642,-26.5045 419.6964,-20.0182"/>
</g>
<!-- Node4 -->
<g id="node5" class="node">
<title>Node4</title>
<polygon fill="#ffffff" stroke="#bfbfbf" points="429.7007,-.5 429.7007,-19.5 475.7007,-19.5 475.7007,-.5 429.7007,-.5"/>
<text text-anchor="middle" x="452.7007" y="-7.5" font-family="Helvetica,sans-Serif" font-size="10.00" fill="#000000">cstdio</text>
</g>
<!-- Node2&#45;&gt;Node4 -->
<g id="edge4" class="edge">
<title>Node2&#45;&gt;Node4</title>
<path fill="none" stroke="#191970" d="M511.3334,-56.2455C500.7453,-47.8943 485.2943,-35.7076 472.9114,-25.9408"/>
<polygon fill="#191970" stroke="#191970" points="474.9454,-23.0875 464.9262,-19.6427 470.6104,-28.5837 474.9454,-23.0875"/>
</g>
<!-- Node5 -->
<g id="node6" class="node">
<title>Node5</title>
<polygon fill="#ffffff" stroke="#bfbfbf" points="493.7007,-.5 493.7007,-19.5 553.7007,-19.5 553.7007,-.5 493.7007,-.5"/>
<text text-anchor="middle" x="523.7007" y="-7.5" font-family="Helvetica,sans-Serif" font-size="10.00" fill="#000000">iostream</text>
</g>
<!-- Node2&#45;&gt;Node5 -->
<g id="edge5" class="edge">
<title>Node2&#45;&gt;Node5</title>
<path fill="none" stroke="#191970" d="M523.7007,-56.2455C523.7007,-48.9382 523.7007,-38.6944 523.7007,-29.7046"/>
<polygon fill="#191970" stroke="#191970" points="527.2008,-29.6426 523.7007,-19.6427 520.2008,-29.6427 527.2008,-29.6426"/>
</g>
<!-- Node6 -->
<g id="node7" class="node">
<title>Node6</title>
<polygon fill="#ffffff" stroke="#bfbfbf" points="571.7007,-.5 571.7007,-19.5 627.7007,-19.5 627.7007,-.5 571.7007,-.5"/>
<text text-anchor="middle" x="599.7007" y="-7.5" font-family="Helvetica,sans-Serif" font-size="10.00" fill="#000000">sstream</text>
</g>
<!-- Node2&#45;&gt;Node6 -->
<g id="edge6" class="edge">
<title>Node2&#45;&gt;Node6</title>
<path fill="none" stroke="#191970" d="M536.9389,-56.2455C548.3816,-47.814 565.1303,-35.4729 578.4481,-25.6598"/>
<polygon fill="#191970" stroke="#191970" points="580.6398,-28.3924 586.6142,-19.6427 576.4874,-22.757 580.6398,-28.3924"/>
</g>
<!-- Node7 -->
<g id="node8" class="node">
<title>Node7</title>
<polygon fill="#ffffff" stroke="#bfbfbf" points="645.7007,-.5 645.7007,-19.5 693.7007,-19.5 693.7007,-.5 645.7007,-.5"/>
<text text-anchor="middle" x="669.7007" y="-7.5" font-family="Helvetica,sans-Serif" font-size="10.00" fill="#000000">thread</text>
</g>
<!-- Node2&#45;&gt;Node7 -->
<g id="edge7" class="edge">
<title>Node2&#45;&gt;Node7</title>
<path fill="none" stroke="#191970" d="M548.799,-56.3733C572.8008,-47.1671 609.1719,-33.2165 635.7531,-23.021"/>
<polygon fill="#191970" stroke="#191970" points="637.3317,-26.1642 645.415,-19.315 634.8248,-19.6285 637.3317,-26.1642"/>
</g>
<!-- Node9 -->
<g id="node10" class="node">
<title>Node9</title>
<g id="a_node10"><a xlink:href="RaCore_8hpp.html" target="_top" xlink:title="Core/RaCore.hpp">
<polygon fill="#ffffff" stroke="#000000" points="474.7007,-112.5 474.7007,-131.5 572.7007,-131.5 572.7007,-112.5 474.7007,-112.5"/>
<text text-anchor="middle" x="523.7007" y="-119.5" font-family="Helvetica,sans-Serif" font-size="10.00" fill="#000000">Core/RaCore.hpp</text>
</a>
</g>
</g>
<!-- Node8&#45;&gt;Node9 -->
<g id="edge9" class="edge">
<title>Node8&#45;&gt;Node9</title>
<path fill="none" stroke="#191970" d="M875.7234,-235.4827C906.6507,-226.6952 947.1784,-212.9323 956.7007,-199 964.475,-187.6252 965.9141,-178.244 956.7007,-168 932.1589,-140.713 695.7046,-128.3548 582.9496,-123.9778"/>
<polygon fill="#191970" stroke="#191970" points="582.887,-120.473 572.7614,-123.591 582.6214,-127.468 582.887,-120.473"/>
</g>
<!-- Node10 -->
<g id="node11" class="node">
<title>Node10</title>
<polygon fill="#ffffff" stroke="#bfbfbf" points="629.2007,-174 629.2007,-193 698.2007,-193 698.2007,-174 629.2007,-174"/>
<text text-anchor="middle" x="663.7007" y="-181" font-family="Helvetica,sans-Serif" font-size="10.00" fill="#000000">Eigen/Core</text>
</g>
<!-- Node8&#45;&gt;Node10 -->
<g id="edge11" class="edge">
<title>Node8&#45;&gt;Node10</title>
<path fill="none" stroke="#191970" d="M811.6015,-235.4932C785.1084,-226.1968 743.6284,-211.6361 707.7007,-199 705.294,-198.1536 702.8134,-197.2807 700.3135,-196.4008"/>
<polygon fill="#191970" stroke="#191970" points="701.2864,-193.0328 690.6916,-193.013 698.9616,-199.6355 701.2864,-193.0328"/>
</g>
<!-- Node11 -->
<g id="node12" class="node">
<title>Node11</title>
<polygon fill="#ffffff" stroke="#bfbfbf" points="716.2007,-174 716.2007,-193 811.2007,-193 811.2007,-174 716.2007,-174"/>
<text text-anchor="middle" x="763.7007" y="-181" font-family="Helvetica,sans-Serif" font-size="10.00" fill="#000000">Eigen/Geometry</text>
</g>
<!-- Node8&#45;&gt;Node11 -->
<g id="edge12" class="edge">
<title>Node8&#45;&gt;Node11</title>
<path fill="none" stroke="#191970" d="M826.9819,-235.3906C815.3819,-225.8786 797.4027,-211.1357 783.5686,-199.7917"/>
<polygon fill="#191970" stroke="#191970" points="785.5366,-196.8792 775.5846,-193.2449 781.0981,-202.2921 785.5366,-196.8792"/>
</g>
<!-- Node9&#45;&gt;Node2 -->
<g id="edge10" class="edge">
<title>Node9&#45;&gt;Node2</title>
<path fill="none" stroke="#191970" d="M523.7007,-112.2455C523.7007,-104.9382 523.7007,-94.6944 523.7007,-85.7046"/>
<polygon fill="#191970" stroke="#191970" points="527.2008,-85.6426 523.7007,-75.6427 520.2008,-85.6427 527.2008,-85.6426"/>
</g>
<!-- Node12&#45;&gt;Node9 -->
<g id="edge20" class="edge">
<title>Node12&#45;&gt;Node9</title>
<path fill="none" stroke="#191970" d="M350.1191,-291.419C389.2186,-282.5892 441.3239,-268.7999 457.7007,-255 476.3768,-239.2625 503.5662,-173.952 516.433,-141.0793"/>
<polygon fill="#191970" stroke="#191970" points="519.7369,-142.2395 520.0784,-131.6501 513.2078,-139.7153 519.7369,-142.2395"/>
</g>
<!-- Node13 -->
<g id="node14" class="node">
<title>Node13</title>
<g id="a_node14"><a xlink:href="VectorArray_8hpp.html" target="_top" xlink:title="Core/Containers/VectorArray.hpp">
<polygon fill="#ffffff" stroke="#000000" points="274.7007,-235.5 274.7007,-254.5 448.7007,-254.5 448.7007,-235.5 274.7007,-235.5"/>
<text text-anchor="middle" x="361.7007" y="-242.5" font-family="Helvetica,sans-Serif" font-size="10.00" fill="#000000">Core/Containers/VectorArray.hpp</text>
</a>
</g>
</g>
<!-- Node12&#45;&gt;Node13 -->
<g id="edge14" class="edge">
<title>Node12&#45;&gt;Node13</title>
<path fill="none" stroke="#191970" d="M313.8035,-291.2455C322.2035,-283.1352 334.35,-271.4075 344.309,-261.7919"/>
<polygon fill="#191970" stroke="#191970" points="346.9507,-264.1066 351.7136,-254.6427 342.0885,-259.0707 346.9507,-264.1066"/>
</g>
<!-- Node16 -->
<g id="node17" class="node">
<title>Node16</title>
<polygon fill="#ffffff" stroke="#bfbfbf" points="298.2007,-112.5 298.2007,-131.5 345.2007,-131.5 345.2007,-112.5 298.2007,-112.5"/>
<text text-anchor="middle" x="321.7007" y="-119.5" font-family="Helvetica,sans-Serif" font-size="10.00" fill="#000000">vector</text>
</g>
<!-- Node12&#45;&gt;Node16 -->
<g id="edge21" class="edge">
<title>Node12&#45;&gt;Node16</title>
<path fill="none" stroke="#191970" d="M292.2554,-291.3916C283.1013,-282.901 270.9588,-269.6212 265.7007,-255 252.6156,-218.6147 249.1764,-202.958 265.7007,-168 271.7252,-155.2547 283.2038,-144.8542 294.2081,-137.1874"/>
<polygon fill="#191970" stroke="#191970" points="296.3128,-139.9948 302.8183,-131.6324 292.5179,-134.1127 296.3128,-139.9948"/>
</g>
<!-- Node17 -->
<g id="node18" class="node">
<title>Node17</title>
<g id="a_node18"><a xlink:href="Spline_8inl.html" target="_top" xlink:title="Core/Geometry/Spline.inl">
<polygon fill="#ffffff" stroke="#000000" points="79.2007,-235.5 79.2007,-254.5 218.2007,-254.5 218.2007,-235.5 79.2007,-235.5"/>
<text text-anchor="middle" x="148.7007" y="-242.5" font-family="Helvetica,sans-Serif" font-size="10.00" fill="#000000">Core/Geometry/Spline.inl</text>
</a>
</g>
</g>
<!-- Node12&#45;&gt;Node17 -->
<g id="edge22" class="edge">
<title>Node12&#45;&gt;Node17</title>
<path fill="none" stroke="#191970" d="M271.8132,-291.3733C244.6952,-282.2226 206.1969,-268.3844 179.4211,-258.2057"/>
<polygon fill="#191970" stroke="#191970" points="180.3711,-254.8213 169.7811,-254.5011 177.8601,-261.3554 180.3711,-254.8213"/>
</g>
<!-- Node13&#45;&gt;Node9 -->
<g id="edge19" class="edge">
<title>Node13&#45;&gt;Node9</title>
<path fill="none" stroke="#191970" d="M378.1443,-235.3921C393.0243,-226.4898 415.3525,-212.6074 433.7007,-199 459.6758,-179.7362 487.7018,-155.0818 505.4562,-138.9298"/>
<polygon fill="#191970" stroke="#191970" points="508.2875,-141.0824 513.2929,-131.7445 503.5568,-135.9229 508.2875,-141.0824"/>
</g>
<!-- Node14 -->
<g id="node15" class="node">
<title>Node14</title>
<g id="a_node15"><a xlink:href="AlignedStdVector_8hpp.html" target="_top" xlink:title="Core/Containers/AlignedStd\lVector.hpp">
<polygon fill="#ffffff" stroke="#000000" points="274.7007,-168.5 274.7007,-198.5 424.7007,-198.5 424.7007,-168.5 274.7007,-168.5"/>
<text text-anchor="start" x="282.7007" y="-186.5" font-family="Helvetica,sans-Serif" font-size="10.00" fill="#000000">Core/Containers/AlignedStd</text>
<text text-anchor="middle" x="349.7007" y="-175.5" font-family="Helvetica,sans-Serif" font-size="10.00" fill="#000000">Vector.hpp</text>
</a>
</g>
</g>
<!-- Node13&#45;&gt;Node14 -->
<g id="edge15" class="edge">
<title>Node13&#45;&gt;Node14</title>
<path fill="none" stroke="#191970" d="M359.8257,-235.3906C358.4121,-228.1463 356.4066,-217.8679 354.5529,-208.3676"/>
<polygon fill="#191970" stroke="#191970" points="357.9866,-207.6892 352.6362,-198.5446 351.1162,-209.0298 357.9866,-207.6892"/>
</g>
<!-- Node14&#45;&gt;Node9 -->
<g id="edge16" class="edge">
<title>Node14&#45;&gt;Node9</title>
<path fill="none" stroke="#191970" d="M392.2659,-168.4554C421.2982,-158.194 459.3548,-144.7429 487.0416,-134.9571"/>
<polygon fill="#191970" stroke="#191970" points="488.4748,-138.1628 496.7369,-131.5303 486.1421,-131.5629 488.4748,-138.1628"/>
</g>
<!-- Node15 -->
<g id="node16" class="node">
<title>Node15</title>
<polygon fill="#ffffff" stroke="#bfbfbf" points="363.2007,-112.5 363.2007,-131.5 456.2007,-131.5 456.2007,-112.5 363.2007,-112.5"/>
<text text-anchor="middle" x="409.7007" y="-119.5" font-family="Helvetica,sans-Serif" font-size="10.00" fill="#000000">Eigen/StdVector</text>
</g>
<!-- Node14&#45;&gt;Node15 -->
<g id="edge17" class="edge">
<title>Node14&#45;&gt;Node15</title>
<path fill="none" stroke="#191970" d="M364.5321,-168.2977C373.121,-159.4941 383.9609,-148.3833 392.8686,-139.2529"/>
<polygon fill="#191970" stroke="#191970" points="395.6159,-141.4489 400.0939,-131.8469 390.6054,-136.5606 395.6159,-141.4489"/>
</g>
<!-- Node14&#45;&gt;Node16 -->
<g id="edge18" class="edge">
<title>Node14&#45;&gt;Node16</title>
<path fill="none" stroke="#191970" d="M342.7793,-168.2977C339.0546,-160.1166 334.4227,-149.943 330.4503,-141.2179"/>
<polygon fill="#191970" stroke="#191970" points="333.5129,-139.4978 326.1838,-131.8469 327.1421,-142.3983 333.5129,-139.4978"/>
</g>
<!-- Node17&#45;&gt;Node12 -->
<g id="edge23" class="edge">
<title>Node17&#45;&gt;Node12</title>
<path fill="none" stroke="#191970" d="M180.2157,-254.5011C207.2288,-263.6086 245.7282,-277.4419 272.6111,-287.6541"/>
<polygon fill="#191970" stroke="#191970" points="271.7072,-291.0561 282.2973,-291.3733 274.2164,-284.5212 271.7072,-291.0561"/>
</g>
<!-- Node18 -->
<g id="node19" class="node">
<title>Node18</title>
<g id="a_node19"><a xlink:href="Math_8hpp.html" target="_top" xlink:title="Core/Math/Math.hpp">
<polygon fill="#ffffff" stroke="#000000" points="103.7007,-174 103.7007,-193 217.7007,-193 217.7007,-174 103.7007,-174"/>
<text text-anchor="middle" x="160.7007" y="-181" font-family="Helvetica,sans-Serif" font-size="10.00" fill="#000000">Core/Math/Math.hpp</text>
</a>
</g>
</g>
<!-- Node17&#45;&gt;Node18 -->
<g id="edge24" class="edge">
<title>Node17&#45;&gt;Node18</title>
<path fill="none" stroke="#191970" d="M150.5757,-235.3906C152.2566,-226.776 154.7747,-213.8708 156.8791,-203.0858"/>
<polygon fill="#191970" stroke="#191970" points="160.3193,-203.7301 158.7992,-193.2449 153.4488,-202.3895 160.3193,-203.7301"/>
</g>
<!-- Node19 -->
<g id="node20" class="node">
<title>Node19</title>
<polygon fill="#ffffff" stroke="#bfbfbf" points="24.7007,-112.5 24.7007,-131.5 88.7007,-131.5 88.7007,-112.5 24.7007,-112.5"/>
<text text-anchor="middle" x="56.7007" y="-119.5" font-family="Helvetica,sans-Serif" font-size="10.00" fill="#000000">algorithm</text>
</g>
<!-- Node17&#45;&gt;Node19 -->
<g id="edge30" class="edge">
<title>Node17&#45;&gt;Node19</title>
<path fill="none" stroke="#191970" d="M134.4324,-235.3667C122.6417,-226.8609 106.0536,-213.5728 94.7007,-199 80.8725,-181.2499 70.1407,-157.6634 63.661,-141.2932"/>
<polygon fill="#191970" stroke="#191970" points="66.8458,-139.8206 60.0272,-131.7115 60.3007,-142.3028 66.8458,-139.8206"/>
</g>
<!-- Node18&#45;&gt;Node9 -->
<g id="edge25" class="edge">
<title>Node18&#45;&gt;Node9</title>
<path fill="none" stroke="#191970" d="M217.0211,-173.9581C284.1694,-162.5817 395.8867,-143.6544 464.3453,-132.0561"/>
<polygon fill="#191970" stroke="#191970" points="465.2595,-135.4511 474.5344,-130.3298 464.0902,-128.5495 465.2595,-135.4511"/>
</g>
<!-- Node18&#45;&gt;Node19 -->
<g id="edge26" class="edge">
<title>Node18&#45;&gt;Node19</title>
<path fill="none" stroke="#191970" d="M144.4507,-173.8906C127.5838,-163.9165 100.9908,-148.1908 81.4972,-136.6633"/>
<polygon fill="#191970" stroke="#191970" points="83.2257,-133.6194 72.8366,-131.5419 79.6627,-139.6447 83.2257,-133.6194"/>
</g>
<!-- Node20 -->
<g id="node21" class="node">
<title>Node20</title>
<polygon fill="#ffffff" stroke="#bfbfbf" points="233.2007,-112.5 233.2007,-131.5 280.2007,-131.5 280.2007,-112.5 233.2007,-112.5"/>
<text text-anchor="middle" x="256.7007" y="-119.5" font-family="Helvetica,sans-Serif" font-size="10.00" fill="#000000">cmath</text>
</g>
<!-- Node18&#45;&gt;Node20 -->
<g id="edge27" class="edge">
<title>Node18&#45;&gt;Node20</title>
<path fill="none" stroke="#191970" d="M175.7007,-173.8906C191.0587,-164.0519 215.1527,-148.6167 233.0752,-137.1351"/>
<polygon fill="#191970" stroke="#191970" points="235.2737,-139.8833 241.806,-131.5419 231.4977,-133.9891 235.2737,-139.8833"/>
</g>
<!-- Node21 -->
<g id="node22" class="node">
<title>Node21</title>
<g id="a_node22"><a xlink:href="Math_8inl.html" target="_top" xlink:title="Core/Math/Math.inl">
<polygon fill="#ffffff" stroke="#000000" points="106.7007,-112.5 106.7007,-131.5 214.7007,-131.5 214.7007,-112.5 106.7007,-112.5"/>
<text text-anchor="middle" x="160.7007" y="-119.5" font-family="Helvetica,sans-Serif" font-size="10.00" fill="#000000">Core/Math/Math.inl</text>
</a>
</g>
</g>
<!-- Node18&#45;&gt;Node21 -->
<g id="edge28" class="edge">
<title>Node18&#45;&gt;Node21</title>
<path fill="none" stroke="#191970" d="M155.6382,-173.8906C153.9748,-165.3657 153.5411,-152.6392 154.3372,-141.9235"/>
<polygon fill="#191970" stroke="#191970" points="157.842,-142.1023 155.6119,-131.7449 150.8963,-141.2324 157.842,-142.1023"/>
</g>
<!-- Node21&#45;&gt;Node18 -->
<g id="edge29" class="edge">
<title>Node21&#45;&gt;Node18</title>
<path fill="none" stroke="#191970" d="M165.7894,-131.7449C167.4398,-140.314 167.8605,-153.0519 167.0515,-163.7462"/>
<polygon fill="#191970" stroke="#191970" points="163.551,-163.5293 165.7632,-173.8906 170.4952,-164.4113 163.551,-163.5293"/>
</g>
<!-- Node22&#45;&gt;Node9 -->
<g id="edge32" class="edge">
<title>Node22&#45;&gt;Node9</title>
<path fill="none" stroke="#191970" d="M742.5988,-235.4435C772.3012,-226.5209 811.5687,-212.5771 820.7007,-199 828.3901,-187.5676 829.6665,-178.4614 820.7007,-168 805.4423,-150.1964 665.1825,-134.7155 582.9857,-127.0731"/>
<polygon fill="#191970" stroke="#191970" points="583.2951,-123.5869 573.017,-126.1581 582.6552,-130.5576 583.2951,-123.5869"/>
</g>
<!-- Node22&#45;&gt;Node10 -->
<g id="edge33" class="edge">
<title>Node22&#45;&gt;Node10</title>
<path fill="none" stroke="#191970" d="M700.8257,-235.3906C694.3413,-226.3273 684.4593,-212.5149 676.5206,-201.4188"/>
<polygon fill="#191970" stroke="#191970" points="679.3378,-199.3412 670.6726,-193.2449 673.6448,-203.4143 679.3378,-199.3412"/>
</g>
<!-- Node22&#45;&gt;Node11 -->
<g id="edge34" class="edge">
<title>Node22&#45;&gt;Node11</title>
<path fill="none" stroke="#191970" d="M716.4507,-235.3906C724.8669,-226.1478 737.7804,-211.966 747.9817,-200.7628"/>
<polygon fill="#191970" stroke="#191970" points="750.6825,-202.9953 754.8273,-193.2449 745.5067,-198.2824 750.6825,-202.9953"/>
</g>
<!-- Node23 -->
<g id="node24" class="node">
<title>Node23</title>
<polygon fill="#ffffff" stroke="#bfbfbf" points="867.7007,-174 867.7007,-193 947.7007,-193 947.7007,-174 867.7007,-174"/>
<text text-anchor="middle" x="907.7007" y="-181" font-family="Helvetica,sans-Serif" font-size="10.00" fill="#000000">Eigen/Sparse</text>
</g>
<!-- Node22&#45;&gt;Node23 -->
<g id="edge35" class="edge">
<title>Node22&#45;&gt;Node23</title>
<path fill="none" stroke="#191970" d="M738.9507,-235.3906C773.4417,-224.7846 829.0818,-207.6753 866.9668,-196.0257"/>
<polygon fill="#191970" stroke="#191970" points="868.1405,-199.3266 876.6701,-193.0419 866.0831,-192.6357 868.1405,-199.3266"/>
</g>
<!-- Node24&#45;&gt;Node2 -->
<g id="edge37" class="edge">
<title>Node24&#45;&gt;Node2</title>
<path fill="none" stroke="#191970" d="M589.8498,-235.2922C594.404,-212.3459 602.9573,-153.5704 581.7007,-112 575.0798,-99.0518 562.98,-88.5629 551.5384,-80.8889"/>
<polygon fill="#191970" stroke="#191970" points="553.3561,-77.8976 543.019,-75.5751 549.6516,-83.837 553.3561,-77.8976"/>
</g>
<!-- Node24&#45;&gt;Node10 -->
<g id="edge39" class="edge">
<title>Node24&#45;&gt;Node10</title>
<path fill="none" stroke="#191970" d="M599.5757,-235.3906C611.3304,-225.8786 629.5493,-211.1357 643.5678,-199.7917"/>
<polygon fill="#191970" stroke="#191970" points="646.0863,-202.2562 651.6583,-193.2449 641.6829,-196.8146 646.0863,-202.2562"/>
</g>
<!-- Node24&#45;&gt;Node11 -->
<g id="edge40" class="edge">
<title>Node24&#45;&gt;Node11</title>
<path fill="none" stroke="#191970" d="M615.2007,-235.3906C645.1653,-224.92 693.269,-208.1111 726.5705,-196.4745"/>
<polygon fill="#191970" stroke="#191970" points="728.1081,-199.6448 736.3938,-193.0419 725.7989,-193.0366 728.1081,-199.6448"/>
</g>
<!-- Node24&#45;&gt;Node18 -->
<g id="edge38" class="edge">
<title>Node24&#45;&gt;Node18</title>
<path fill="none" stroke="#191970" d="M530.9773,-236.9782C466.6444,-227.8613 358.6078,-212.4936 265.7007,-199 253.4701,-197.2237 240.441,-195.3142 227.8712,-193.4632"/>
<polygon fill="#191970" stroke="#191970" points="228.3166,-189.9912 217.913,-191.995 227.2955,-196.9163 228.3166,-189.9912"/>
</g>
<!-- Node25 -->
<g id="node26" class="node">
<title>Node25</title>
<polygon fill="#ffffff" stroke="#bfbfbf" points="518.7007,-174 518.7007,-193 572.7007,-193 572.7007,-174 518.7007,-174"/>
<text text-anchor="middle" x="545.7007" y="-181" font-family="Helvetica,sans-Serif" font-size="10.00" fill="#000000">random</text>
</g>
<!-- Node24&#45;&gt;Node25 -->
<g id="edge41" class="edge">
<title>Node24&#45;&gt;Node25</title>
<path fill="none" stroke="#191970" d="M581.1382,-235.3906C575.0099,-226.417 565.7022,-212.7879 558.1635,-201.7491"/>
<polygon fill="#191970" stroke="#191970" points="560.8857,-199.529 552.3557,-193.2449 555.1051,-203.4768 560.8857,-199.529"/>
</g>
</g>
</svg>
