<?xml version="1.0" encoding="UTF-8" standalone="no"?>
<!DOCTYPE svg PUBLIC "-//W3C//DTD SVG 1.1//EN"
 "http://www.w3.org/Graphics/SVG/1.1/DTD/svg11.dtd">
<!-- Generated by graphviz version 2.40.1 (20161225.0304)
 -->
<!-- Title: src/GuiBase/TreeModel/EntityTreeModel.cpp Pages: 1 -->
<!--zoomable 453 -->
<svg id="main" version="1.1" xmlns="http://www.w3.org/2000/svg" xmlns:xlink="http://www.w3.org/1999/xlink" xml:space="preserve" onload="init(evt)">
<style type="text/css"><![CDATA[
.edge:hover path { stroke: red; }
.edge:hover polygon { stroke: red; fill: red; }
]]></style>
<script type="text/javascript"><![CDATA[
var edges = document.getElementsByTagName('g');
if (edges && edges.length) {
  for (var i=0;i<edges.length;i++) {
    if (edges[i].id.substr(0,4)=='edge') {
      edges[i].setAttribute('class','edge');
    }
  }
}
]]></script>
        <defs>
                <circle id="rim" cx="0" cy="0" r="7"/>
                <circle id="rim2" cx="0" cy="0" r="3.5"/>
                <g id="zoomPlus">
                        <use xlink:href="#rim" fill="#404040">
                                <set attributeName="fill" to="#808080" begin="zoomplus.mouseover" end="zoomplus.mouseout"/>
                        </use>
                        <path d="M-4,0h8M0,-4v8" fill="none" stroke="white" stroke-width="1.5" pointer-events="none"/>
                </g>
                <g id="zoomMin">
                        <use xlink:href="#rim" fill="#404040">
                                <set attributeName="fill" to="#808080" begin="zoomminus.mouseover" end="zoomminus.mouseout"/>
                        </use>
                        <path d="M-4,0h8" fill="none" stroke="white" stroke-width="1.5" pointer-events="none"/>
                </g>
                <g id="dirArrow">
                        <path fill="none" stroke="white" stroke-width="1.5" d="M0,-3.0v7 M-2.5,-0.5L0,-3.0L2.5,-0.5"/>
                </g>
               <g id="resetDef">
                       <use xlink:href="#rim2" fill="#404040">
                               <set attributeName="fill" to="#808080" begin="reset.mouseover" end="reset.mouseout"/>
                       </use>
               </g>
        </defs>

<script type="text/javascript">
var viewWidth = 2123;
var viewHeight = 453;
var sectionId = 'dynsection-0';
</script>
<script xlink:href="svgpan.js"/>
<svg id="graph" class="graph">
<g id="viewport">
<title>src/GuiBase/TreeModel/EntityTreeModel.cpp</title>
<polygon fill="#ffffff" stroke="transparent" points="-4,4 -4,-449 2119.047,-449 2119.047,4 -4,4"/>
<!-- Node0 -->
<g id="node1" class="node">
<title>Node0</title>
<polygon fill="#bfbfbf" stroke="#000000" points="1217.5,-414.5 1217.5,-444.5 1344.5,-444.5 1344.5,-414.5 1217.5,-414.5"/>
<text text-anchor="start" x="1225.5" y="-432.5" font-family="Helvetica,sans-Serif" font-size="10.00" fill="#000000">src/GuiBase/TreeModel</text>
<text text-anchor="middle" x="1281" y="-421.5" font-family="Helvetica,sans-Serif" font-size="10.00" fill="#000000">/EntityTreeModel.cpp</text>
</g>
<!-- Node1 -->
<g id="node2" class="node">
<title>Node1</title>
<g id="a_node2"><a xlink:href="EntityTreeModel_8hpp.html" target="_top" xlink:title="GuiBase/TreeModel/Entity\lTreeModel.hpp">
<polygon fill="#ffffff" stroke="#000000" points="766.5,-347.5 766.5,-377.5 907.5,-377.5 907.5,-347.5 766.5,-347.5"/>
<text text-anchor="start" x="774.5" y="-365.5" font-family="Helvetica,sans-Serif" font-size="10.00" fill="#000000">GuiBase/TreeModel/Entity</text>
<text text-anchor="middle" x="837" y="-354.5" font-family="Helvetica,sans-Serif" font-size="10.00" fill="#000000">TreeModel.hpp</text>
</a>
</g>
</g>
<!-- Node0&#45;&gt;Node1 -->
<g id="edge1" class="edge">
<title>Node0&#45;&gt;Node1</title>
<path fill="none" stroke="#191970" d="M1217.3856,-419.9005C1138.5024,-407.997 1003.9491,-387.6928 917.8314,-374.6975"/>
<polygon fill="#191970" stroke="#191970" points="918.2467,-371.2207 907.8364,-373.1893 917.2022,-378.1423 918.2467,-371.2207"/>
</g>
<!-- Node29 -->
<g id="node30" class="node">
<title>Node29</title>
<polygon fill="#ffffff" stroke="#bfbfbf" points="1347.5,-353 1347.5,-372 1390.5,-372 1390.5,-353 1347.5,-353"/>
<text text-anchor="middle" x="1369" y="-360" font-family="Helvetica,sans-Serif" font-size="10.00" fill="#000000">stack</text>
</g>
<!-- Node0&#45;&gt;Node29 -->
<g id="edge40" class="edge">
<title>Node0&#45;&gt;Node29</title>
<path fill="none" stroke="#191970" d="M1300.9686,-414.2967C1315.0787,-403.5537 1333.9451,-389.1895 1348.2308,-378.3129"/>
<polygon fill="#191970" stroke="#191970" points="1350.614,-380.8975 1356.4502,-372.055 1346.3736,-375.328 1350.614,-380.8975"/>
</g>
<!-- Node30 -->
<g id="node31" class="node">
<title>Node30</title>
<g id="a_node31"><a xlink:href="Component_8hpp.html" target="_top" xlink:title="Engine/Component/Component.hpp">
<polygon fill="#ffffff" stroke="#000000" points="1289.5,-286 1289.5,-305 1478.5,-305 1478.5,-286 1289.5,-286"/>
<text text-anchor="middle" x="1384" y="-293" font-family="Helvetica,sans-Serif" font-size="10.00" fill="#000000">Engine/Component/Component.hpp</text>
</a>
</g>
</g>
<!-- Node0&#45;&gt;Node30 -->
<g id="edge41" class="edge">
<title>Node0&#45;&gt;Node30</title>
<path fill="none" stroke="#191970" d="M1282.2287,-414.4074C1284.3343,-396.7169 1289.9838,-367.2489 1305,-347 1316.984,-330.84 1335.6655,-318.3278 1351.8535,-309.6849"/>
<polygon fill="#191970" stroke="#191970" points="1353.6835,-312.6816 1361.0272,-305.0449 1350.524,-306.4352 1353.6835,-312.6816"/>
</g>
<!-- Node32 -->
<g id="node33" class="node">
<title>Node32</title>
<g id="a_node33"><a xlink:href="Entity_8hpp.html" target="_top" xlink:title="Engine/Entity/Entity.hpp">
<polygon fill="#ffffff" stroke="#000000" points="1621,-286 1621,-305 1753,-305 1753,-286 1621,-286"/>
<text text-anchor="middle" x="1687" y="-293" font-family="Helvetica,sans-Serif" font-size="10.00" fill="#000000">Engine/Entity/Entity.hpp</text>
</a>
</g>
</g>
<!-- Node0&#45;&gt;Node32 -->
<g id="edge50" class="edge">
<title>Node0&#45;&gt;Node32</title>
<path fill="none" stroke="#191970" d="M1286.8805,-414.4529C1295.1884,-395.3609 1312.2767,-362.9968 1338,-347 1382.3205,-319.438 1522.3125,-305.7488 1610.946,-299.6769"/>
<polygon fill="#191970" stroke="#191970" points="1611.2119,-303.1671 1620.9564,-299.0085 1610.7454,-296.1826 1611.2119,-303.1671"/>
</g>
<!-- Node36 -->
<g id="node37" class="node">
<title>Node36</title>
<g id="a_node37"><a xlink:href="EntityManager_8hpp.html" target="_top" xlink:title="Engine/Managers/EntityManager\l/EntityManager.hpp">
<polygon fill="#ffffff" stroke="#000000" points="573.5,-280.5 573.5,-310.5 746.5,-310.5 746.5,-280.5 573.5,-280.5"/>
<text text-anchor="start" x="581.5" y="-298.5" font-family="Helvetica,sans-Serif" font-size="10.00" fill="#000000">Engine/Managers/EntityManager</text>
<text text-anchor="middle" x="660" y="-287.5" font-family="Helvetica,sans-Serif" font-size="10.00" fill="#000000">/EntityManager.hpp</text>
</a>
</g>
</g>
<!-- Node0&#45;&gt;Node36 -->
<g id="edge62" class="edge">
<title>Node0&#45;&gt;Node36</title>
<path fill="none" stroke="#191970" d="M1217.4721,-414.6597C1144.7321,-397.7793 1021.9426,-369.626 916,-347 859.9017,-335.0192 796.7175,-322.3003 747.157,-312.4999"/>
<polygon fill="#191970" stroke="#191970" points="747.6031,-309.0205 737.1145,-310.5171 746.2471,-315.888 747.6031,-309.0205"/>
</g>
<!-- Node2 -->
<g id="node3" class="node">
<title>Node2</title>
<g id="a_node3"><a xlink:href="RaGuiBase_8hpp.html" target="_top" xlink:title="GuiBase/RaGuiBase.hpp">
<polygon fill="#ffffff" stroke="#000000" points="0,-224.5 0,-243.5 134,-243.5 134,-224.5 0,-224.5"/>
<text text-anchor="middle" x="67" y="-231.5" font-family="Helvetica,sans-Serif" font-size="10.00" fill="#000000">GuiBase/RaGuiBase.hpp</text>
</a>
</g>
</g>
<!-- Node1&#45;&gt;Node2 -->
<g id="edge2" class="edge">
<title>Node1&#45;&gt;Node2</title>
<path fill="none" stroke="#191970" d="M766.49,-359.3237C630.91,-352.736 338.6379,-336.0777 241,-311 185.6702,-296.7889 125.6939,-266.6414 92.5961,-248.5724"/>
<polygon fill="#191970" stroke="#191970" points="94.0552,-245.3797 83.6106,-243.6015 90.6666,-251.5049 94.0552,-245.3797"/>
</g>
<!-- Node9 -->
<g id="node10" class="node">
<title>Node9</title>
<g id="a_node10"><a xlink:href="ItemEntry_8hpp.html" target="_top" xlink:title="Engine/ItemModel/ItemEntry.hpp">
<polygon fill="#ffffff" stroke="#000000" points="927.5,-286 927.5,-305 1102.5,-305 1102.5,-286 927.5,-286"/>
<text text-anchor="middle" x="1015" y="-293" font-family="Helvetica,sans-Serif" font-size="10.00" fill="#000000">Engine/ItemModel/ItemEntry.hpp</text>
</a>
</g>
</g>
<!-- Node1&#45;&gt;Node9 -->
<g id="edge9" class="edge">
<title>Node1&#45;&gt;Node9</title>
<path fill="none" stroke="#191970" d="M876.9467,-347.4639C907.9811,-335.7824 950.5881,-319.7449 980.2279,-308.5884"/>
<polygon fill="#191970" stroke="#191970" points="981.6212,-311.8037 989.7471,-305.0053 979.1552,-305.2525 981.6212,-311.8037"/>
</g>
<!-- Node18 -->
<g id="node19" class="node">
<title>Node18</title>
<g id="a_node19"><a xlink:href="RadiumEngine_8hpp.html" target="_top" xlink:title="Engine/RadiumEngine.hpp">
<polygon fill="#ffffff" stroke="#000000" points="765,-286 765,-305 909,-305 909,-286 765,-286"/>
<text text-anchor="middle" x="837" y="-293" font-family="Helvetica,sans-Serif" font-size="10.00" fill="#000000">Engine/RadiumEngine.hpp</text>
</a>
</g>
</g>
<!-- Node1&#45;&gt;Node18 -->
<g id="edge21" class="edge">
<title>Node1&#45;&gt;Node18</title>
<path fill="none" stroke="#191970" d="M837,-347.2967C837,-337.7699 837,-325.3954 837,-315.1306"/>
<polygon fill="#191970" stroke="#191970" points="840.5001,-315.0549 837,-305.055 833.5001,-315.055 840.5001,-315.0549"/>
</g>
<!-- Node26 -->
<g id="node27" class="node">
<title>Node26</title>
<g id="a_node27"><a xlink:href="TreeModel_8hpp.html" target="_top" xlink:title="GuiBase/TreeModel/TreeModel.hpp">
<polygon fill="#ffffff" stroke="#000000" points="250.5,-286 250.5,-305 433.5,-305 433.5,-286 250.5,-286"/>
<text text-anchor="middle" x="342" y="-293" font-family="Helvetica,sans-Serif" font-size="10.00" fill="#000000">GuiBase/TreeModel/TreeModel.hpp</text>
</a>
</g>
</g>
<!-- Node1&#45;&gt;Node26 -->
<g id="edge34" class="edge">
<title>Node1&#45;&gt;Node26</title>
<path fill="none" stroke="#191970" d="M766.3416,-352.9361C675.4913,-340.6392 518.0957,-319.3352 422.6516,-306.4165"/>
<polygon fill="#191970" stroke="#191970" points="422.8505,-302.9116 412.4714,-305.0385 421.9115,-309.8483 422.8505,-302.9116"/>
</g>
<!-- Node3 -->
<g id="node4" class="node">
<title>Node3</title>
<g id="a_node4"><a xlink:href="CoreMacros_8hpp.html" target="_top" xlink:title="Core/CoreMacros.hpp">
<polygon fill="#ffffff" stroke="#000000" points="1025,-56.5 1025,-75.5 1145,-75.5 1145,-56.5 1025,-56.5"/>
<text text-anchor="middle" x="1085" y="-63.5" font-family="Helvetica,sans-Serif" font-size="10.00" fill="#000000">Core/CoreMacros.hpp</text>
</a>
</g>
</g>
<!-- Node2&#45;&gt;Node3 -->
<g id="edge3" class="edge">
<title>Node2&#45;&gt;Node3</title>
<path fill="none" stroke="#191970" d="M124.6489,-224.4862C300.3844,-195.4847 828.8244,-108.2765 1017.3004,-77.1724"/>
<polygon fill="#191970" stroke="#191970" points="1018.0574,-80.5949 1027.354,-75.5133 1016.9175,-73.6883 1018.0574,-80.5949"/>
</g>
<!-- Node4 -->
<g id="node5" class="node">
<title>Node4</title>
<polygon fill="#ffffff" stroke="#bfbfbf" points="1169,-.5 1169,-19.5 1221,-19.5 1221,-.5 1169,-.5"/>
<text text-anchor="middle" x="1195" y="-7.5" font-family="Helvetica,sans-Serif" font-size="10.00" fill="#000000">cassert</text>
</g>
<!-- Node3&#45;&gt;Node4 -->
<g id="edge4" class="edge">
<title>Node3&#45;&gt;Node4</title>
<path fill="none" stroke="#191970" d="M1104.1605,-56.2455C1121.5111,-47.4125 1147.2901,-34.2887 1166.9583,-24.2758"/>
<polygon fill="#191970" stroke="#191970" points="1168.7353,-27.2986 1176.059,-19.6427 1165.5595,-21.0605 1168.7353,-27.2986"/>
</g>
<!-- Node5 -->
<g id="node6" class="node">
<title>Node5</title>
<polygon fill="#ffffff" stroke="#bfbfbf" points="953,-.5 953,-19.5 999,-19.5 999,-.5 953,-.5"/>
<text text-anchor="middle" x="976" y="-7.5" font-family="Helvetica,sans-Serif" font-size="10.00" fill="#000000">cstdio</text>
</g>
<!-- Node3&#45;&gt;Node5 -->
<g id="edge5" class="edge">
<title>Node3&#45;&gt;Node5</title>
<path fill="none" stroke="#191970" d="M1066.0136,-56.2455C1048.8208,-47.4125 1023.2762,-34.2887 1003.7868,-24.2758"/>
<polygon fill="#191970" stroke="#191970" points="1005.263,-21.0993 994.7688,-19.6427 1002.0641,-27.3257 1005.263,-21.0993"/>
</g>
<!-- Node6 -->
<g id="node7" class="node">
<title>Node6</title>
<polygon fill="#ffffff" stroke="#bfbfbf" points="1017,-.5 1017,-19.5 1077,-19.5 1077,-.5 1017,-.5"/>
<text text-anchor="middle" x="1047" y="-7.5" font-family="Helvetica,sans-Serif" font-size="10.00" fill="#000000">iostream</text>
</g>
<!-- Node3&#45;&gt;Node6 -->
<g id="edge6" class="edge">
<title>Node3&#45;&gt;Node6</title>
<path fill="none" stroke="#191970" d="M1078.3809,-56.2455C1073.0954,-48.4564 1065.5459,-37.3308 1059.1762,-27.9439"/>
<polygon fill="#191970" stroke="#191970" points="1062.0545,-25.9522 1053.5432,-19.6427 1056.2621,-29.8827 1062.0545,-25.9522"/>
</g>
<!-- Node7 -->
<g id="node8" class="node">
<title>Node7</title>
<polygon fill="#ffffff" stroke="#bfbfbf" points="1095,-.5 1095,-19.5 1151,-19.5 1151,-.5 1095,-.5"/>
<text text-anchor="middle" x="1123" y="-7.5" font-family="Helvetica,sans-Serif" font-size="10.00" fill="#000000">sstream</text>
</g>
<!-- Node3&#45;&gt;Node7 -->
<g id="edge7" class="edge">
<title>Node3&#45;&gt;Node7</title>
<path fill="none" stroke="#191970" d="M1091.6191,-56.2455C1096.9046,-48.4564 1104.4541,-37.3308 1110.8238,-27.9439"/>
<polygon fill="#191970" stroke="#191970" points="1113.7379,-29.8827 1116.4568,-19.6427 1107.9455,-25.9522 1113.7379,-29.8827"/>
</g>
<!-- Node8 -->
<g id="node9" class="node">
<title>Node8</title>
<polygon fill="#ffffff" stroke="#bfbfbf" points="1655,-.5 1655,-19.5 1703,-19.5 1703,-.5 1655,-.5"/>
<text text-anchor="middle" x="1679" y="-7.5" font-family="Helvetica,sans-Serif" font-size="10.00" fill="#000000">thread</text>
</g>
<!-- Node3&#45;&gt;Node8 -->
<g id="edge8" class="edge">
<title>Node3&#45;&gt;Node8</title>
<path fill="none" stroke="#191970" d="M1145.2248,-60.3222C1268.748,-48.677 1547.3298,-22.4133 1644.6577,-13.2377"/>
<polygon fill="#191970" stroke="#191970" points="1645.1943,-16.7027 1654.8216,-12.2794 1644.5372,-9.7336 1645.1943,-16.7027"/>
</g>
<!-- Node10 -->
<g id="node11" class="node">
<title>Node10</title>
<g id="a_node11"><a xlink:href="RaEngine_8hpp.html" target="_top" xlink:title="Engine/RaEngine.hpp">
<polygon fill="#ffffff" stroke="#000000" points="930.5,-224.5 930.5,-243.5 1049.5,-243.5 1049.5,-224.5 930.5,-224.5"/>
<text text-anchor="middle" x="990" y="-231.5" font-family="Helvetica,sans-Serif" font-size="10.00" fill="#000000">Engine/RaEngine.hpp</text>
</a>
</g>
</g>
<!-- Node9&#45;&gt;Node10 -->
<g id="edge10" class="edge">
<title>Node9&#45;&gt;Node10</title>
<path fill="none" stroke="#191970" d="M1011.0938,-285.8906C1007.5554,-277.1862 1002.2364,-264.1015 997.825,-253.2494"/>
<polygon fill="#191970" stroke="#191970" points="1000.9695,-251.6907 993.9613,-243.7449 994.4848,-254.3268 1000.9695,-251.6907"/>
</g>
<!-- Node11 -->
<g id="node12" class="node">
<title>Node11</title>
<g id="a_node12"><a xlink:href="Index_8hpp.html" target="_top" xlink:title="Core/Utils/Index.hpp">
<polygon fill="#ffffff" stroke="#000000" points="1206,-168.5 1206,-187.5 1322,-187.5 1322,-168.5 1206,-168.5"/>
<text text-anchor="middle" x="1264" y="-175.5" font-family="Helvetica,sans-Serif" font-size="10.00" fill="#000000">Core/Utils/Index.hpp</text>
</a>
</g>
</g>
<!-- Node9&#45;&gt;Node11 -->
<g id="edge12" class="edge">
<title>Node9&#45;&gt;Node11</title>
<path fill="none" stroke="#191970" d="M1097.4278,-285.9799C1154.4303,-277.7768 1223.7005,-264.058 1245,-244 1257.5894,-232.1444 1262.0125,-212.5389 1263.4815,-197.7696"/>
<polygon fill="#191970" stroke="#191970" points="1266.9847,-197.8255 1264.1153,-187.6267 1259.9983,-197.3889 1266.9847,-197.8255"/>
</g>
<!-- Node15 -->
<g id="node16" class="node">
<title>Node15</title>
<polygon fill="#ffffff" stroke="#bfbfbf" points="868,-224.5 868,-243.5 912,-243.5 912,-224.5 868,-224.5"/>
<text text-anchor="middle" x="890" y="-231.5" font-family="Helvetica,sans-Serif" font-size="10.00" fill="#000000">string</text>
</g>
<!-- Node9&#45;&gt;Node15 -->
<g id="edge18" class="edge">
<title>Node9&#45;&gt;Node15</title>
<path fill="none" stroke="#191970" d="M995.4688,-285.8906C974.8292,-275.7359 942.0724,-259.6196 918.5398,-248.0416"/>
<polygon fill="#191970" stroke="#191970" points="919.912,-244.8161 909.3941,-243.5419 916.8218,-251.0971 919.912,-244.8161"/>
</g>
<!-- Node16 -->
<g id="node17" class="node">
<title>Node16</title>
<polygon fill="#ffffff" stroke="#bfbfbf" points="802.5,-224.5 802.5,-243.5 849.5,-243.5 849.5,-224.5 802.5,-224.5"/>
<text text-anchor="middle" x="826" y="-231.5" font-family="Helvetica,sans-Serif" font-size="10.00" fill="#000000">vector</text>
</g>
<!-- Node9&#45;&gt;Node16 -->
<g id="edge19" class="edge">
<title>Node9&#45;&gt;Node16</title>
<path fill="none" stroke="#191970" d="M985.4688,-285.8906C951.3567,-274.7907 895.3539,-256.5676 859.6043,-244.9347"/>
<polygon fill="#191970" stroke="#191970" points="860.2424,-241.4618 849.6501,-241.6957 858.0764,-248.1183 860.2424,-241.4618"/>
</g>
<!-- Node17 -->
<g id="node18" class="node">
<title>Node17</title>
<g id="a_node18"><a xlink:href="ItemEntry_8inl.html" target="_top" xlink:title="Engine/ItemModel/ItemEntry.inl">
<polygon fill="#ffffff" stroke="#000000" points="1067.5,-224.5 1067.5,-243.5 1236.5,-243.5 1236.5,-224.5 1067.5,-224.5"/>
<text text-anchor="middle" x="1152" y="-231.5" font-family="Helvetica,sans-Serif" font-size="10.00" fill="#000000">Engine/ItemModel/ItemEntry.inl</text>
</a>
</g>
</g>
<!-- Node9&#45;&gt;Node17 -->
<g id="edge20" class="edge">
<title>Node9&#45;&gt;Node17</title>
<path fill="none" stroke="#191970" d="M1036.4063,-285.8906C1059.2283,-275.6457 1095.5679,-259.3326 1121.4057,-247.7339"/>
<polygon fill="#191970" stroke="#191970" points="1123.0545,-250.8303 1130.7441,-243.5419 1120.1877,-244.4443 1123.0545,-250.8303"/>
</g>
<!-- Node10&#45;&gt;Node3 -->
<g id="edge11" class="edge">
<title>Node10&#45;&gt;Node3</title>
<path fill="none" stroke="#191970" d="M993.5217,-224.3971C1001.4864,-203.2313 1022.1397,-151.3234 1047,-112 1053.3933,-101.8872 1061.7528,-91.5361 1069.0029,-83.2202"/>
<polygon fill="#191970" stroke="#191970" points="1071.7038,-85.4506 1075.7693,-75.6669 1066.4899,-80.7799 1071.7038,-85.4506"/>
</g>
<!-- Node12 -->
<g id="node13" class="node">
<title>Node12</title>
<g id="a_node13"><a xlink:href="RaCore_8hpp.html" target="_top" xlink:title="Core/RaCore.hpp">
<polygon fill="#ffffff" stroke="#000000" points="1056,-112.5 1056,-131.5 1154,-131.5 1154,-112.5 1056,-112.5"/>
<text text-anchor="middle" x="1105" y="-119.5" font-family="Helvetica,sans-Serif" font-size="10.00" fill="#000000">Core/RaCore.hpp</text>
</a>
</g>
</g>
<!-- Node11&#45;&gt;Node12 -->
<g id="edge13" class="edge">
<title>Node11&#45;&gt;Node12</title>
<path fill="none" stroke="#191970" d="M1236.6669,-168.3733C1210.4566,-159.1419 1170.7016,-145.1402 1141.7332,-134.9375"/>
<polygon fill="#191970" stroke="#191970" points="1142.5712,-131.5219 1131.9764,-131.5011 1140.2458,-138.1244 1142.5712,-131.5219"/>
</g>
<!-- Node13 -->
<g id="node14" class="node">
<title>Node13</title>
<polygon fill="#ffffff" stroke="#bfbfbf" points="1337,-112.5 1337,-131.5 1381,-131.5 1381,-112.5 1337,-112.5"/>
<text text-anchor="middle" x="1359" y="-119.5" font-family="Helvetica,sans-Serif" font-size="10.00" fill="#000000">limits</text>
</g>
<!-- Node11&#45;&gt;Node13 -->
<g id="edge15" class="edge">
<title>Node11&#45;&gt;Node13</title>
<path fill="none" stroke="#191970" d="M1280.5477,-168.2455C1295.2599,-159.5731 1316.9888,-146.7645 1333.8505,-136.825"/>
<polygon fill="#191970" stroke="#191970" points="1335.8046,-139.736 1342.6419,-131.6427 1332.2498,-133.7057 1335.8046,-139.736"/>
</g>
<!-- Node14 -->
<g id="node15" class="node">
<title>Node14</title>
<g id="a_node15"><a xlink:href="Index_8inl.html" target="_top" xlink:title="Core/Utils/Index.inl">
<polygon fill="#ffffff" stroke="#000000" points="1209,-112.5 1209,-131.5 1319,-131.5 1319,-112.5 1209,-112.5"/>
<text text-anchor="middle" x="1264" y="-119.5" font-family="Helvetica,sans-Serif" font-size="10.00" fill="#000000">Core/Utils/Index.inl</text>
</a>
</g>
</g>
<!-- Node11&#45;&gt;Node14 -->
<g id="edge16" class="edge">
<title>Node11&#45;&gt;Node14</title>
<path fill="none" stroke="#191970" d="M1258.7332,-168.2455C1257.3221,-160.9382 1256.9179,-150.6944 1257.5205,-141.7046"/>
<polygon fill="#191970" stroke="#191970" points="1261.0111,-141.9945 1258.7549,-131.6427 1254.0632,-141.1421 1261.0111,-141.9945"/>
</g>
<!-- Node12&#45;&gt;Node3 -->
<g id="edge14" class="edge">
<title>Node12&#45;&gt;Node3</title>
<path fill="none" stroke="#191970" d="M1101.5163,-112.2455C1098.8492,-104.7776 1095.0867,-94.2427 1091.8263,-85.1137"/>
<polygon fill="#191970" stroke="#191970" points="1095.1033,-83.8829 1088.4438,-75.6427 1088.5111,-86.2373 1095.1033,-83.8829"/>
</g>
<!-- Node14&#45;&gt;Node11 -->
<g id="edge17" class="edge">
<title>Node14&#45;&gt;Node11</title>
<path fill="none" stroke="#191970" d="M1269.2451,-131.6427C1270.6665,-138.9199 1271.081,-149.155 1270.4887,-158.1575"/>
<polygon fill="#191970" stroke="#191970" points="1266.9947,-157.8972 1269.2668,-168.2455 1273.9439,-158.739 1266.9947,-157.8972"/>
</g>
<!-- Node18&#45;&gt;Node10 -->
<g id="edge22" class="edge">
<title>Node18&#45;&gt;Node10</title>
<path fill="none" stroke="#191970" d="M860.9063,-285.8906C886.7305,-275.5103 928.0527,-258.9004 956.9705,-247.2766"/>
<polygon fill="#191970" stroke="#191970" points="958.2885,-250.519 966.2616,-243.5419 955.6778,-244.0241 958.2885,-250.519"/>
</g>
<!-- Node18&#45;&gt;Node15 -->
<g id="edge32" class="edge">
<title>Node18&#45;&gt;Node15</title>
<path fill="none" stroke="#191970" d="M845.2813,-285.8906C853.1693,-276.7376 865.2314,-262.7409 874.8412,-251.59"/>
<polygon fill="#191970" stroke="#191970" points="877.7251,-253.6049 881.602,-243.7449 872.4225,-249.0352 877.7251,-253.6049"/>
</g>
<!-- Node18&#45;&gt;Node16 -->
<g id="edge33" class="edge">
<title>Node18&#45;&gt;Node16</title>
<path fill="none" stroke="#191970" d="M835.2813,-285.8906C833.7565,-277.3657 831.4802,-264.6392 829.5636,-253.9235"/>
<polygon fill="#191970" stroke="#191970" points="832.9491,-252.9724 827.743,-243.7449 826.0584,-254.2049 832.9491,-252.9724"/>
</g>
<!-- Node19 -->
<g id="node20" class="node">
<title>Node19</title>
<g id="a_node20"><a xlink:href="Types_8hpp.html" target="_top" xlink:title="Core/Types.hpp">
<polygon fill="#ffffff" stroke="#000000" points="1532.5,-224.5 1532.5,-243.5 1623.5,-243.5 1623.5,-224.5 1532.5,-224.5"/>
<text text-anchor="middle" x="1578" y="-231.5" font-family="Helvetica,sans-Serif" font-size="10.00" fill="#000000">Core/Types.hpp</text>
</a>
</g>
</g>
<!-- Node18&#45;&gt;Node19 -->
<g id="edge23" class="edge">
<title>Node18&#45;&gt;Node19</title>
<path fill="none" stroke="#191970" d="M881.4027,-285.9629C893.2467,-283.7045 906.069,-281.5149 918,-280 1168.0563,-248.25 1232.8408,-265.3372 1484,-244 1496.2645,-242.9581 1509.4108,-241.6683 1521.8696,-240.3654"/>
<polygon fill="#191970" stroke="#191970" points="1522.5652,-243.8113 1532.1389,-239.273 1521.8247,-236.8505 1522.5652,-243.8113"/>
</g>
<!-- Node23 -->
<g id="node24" class="node">
<title>Node23</title>
<g id="a_node24"><a xlink:href="Singleton_8hpp.html" target="_top" xlink:title="Core/Utils/Singleton.hpp">
<polygon fill="#ffffff" stroke="#000000" points="440,-224.5 440,-243.5 574,-243.5 574,-224.5 440,-224.5"/>
<text text-anchor="middle" x="507" y="-231.5" font-family="Helvetica,sans-Serif" font-size="10.00" fill="#000000">Core/Utils/Singleton.hpp</text>
</a>
</g>
</g>
<!-- Node18&#45;&gt;Node23 -->
<g id="edge28" class="edge">
<title>Node18&#45;&gt;Node23</title>
<path fill="none" stroke="#191970" d="M786.701,-285.9641C776.2254,-283.986 765.2533,-281.92 755,-280 691.5784,-268.1241 619.0047,-254.6798 568.8254,-245.407"/>
<polygon fill="#191970" stroke="#191970" points="569.253,-241.9268 558.7836,-243.5517 567.9813,-248.8103 569.253,-241.9268"/>
</g>
<!-- Node24 -->
<g id="node25" class="node">
<title>Node24</title>
<polygon fill="#ffffff" stroke="#bfbfbf" points="746,-224.5 746,-243.5 784,-243.5 784,-224.5 746,-224.5"/>
<text text-anchor="middle" x="765" y="-231.5" font-family="Helvetica,sans-Serif" font-size="10.00" fill="#000000">map</text>
</g>
<!-- Node18&#45;&gt;Node24 -->
<g id="edge30" class="edge">
<title>Node18&#45;&gt;Node24</title>
<path fill="none" stroke="#191970" d="M825.75,-285.8906C814.614,-276.3786 797.354,-261.6357 784.0732,-250.2917"/>
<polygon fill="#191970" stroke="#191970" points="786.2856,-247.5784 776.4086,-243.7449 781.7392,-252.9011 786.2856,-247.5784"/>
</g>
<!-- Node25 -->
<g id="node26" class="node">
<title>Node25</title>
<polygon fill="#ffffff" stroke="#bfbfbf" points="364,-224.5 364,-243.5 422,-243.5 422,-224.5 364,-224.5"/>
<text text-anchor="middle" x="393" y="-231.5" font-family="Helvetica,sans-Serif" font-size="10.00" fill="#000000">memory</text>
</g>
<!-- Node18&#45;&gt;Node25 -->
<g id="edge31" class="edge">
<title>Node18&#45;&gt;Node25</title>
<path fill="none" stroke="#191970" d="M789.8404,-285.9497C778.4614,-283.8215 766.3193,-281.6961 755,-280 614.9319,-259.0114 575.213,-269.9863 432.3739,-244.0304"/>
<polygon fill="#191970" stroke="#191970" points="432.8313,-240.5558 422.362,-242.1819 431.5603,-247.4394 432.8313,-240.5558"/>
</g>
<!-- Node19&#45;&gt;Node12 -->
<g id="edge24" class="edge">
<title>Node19&#45;&gt;Node12</title>
<path fill="none" stroke="#191970" d="M1532.4116,-229.1081C1434.6591,-218.5349 1212.4637,-194.0197 1197,-188 1168.0344,-176.7243 1139.7513,-154.1975 1122.3587,-138.6206"/>
<polygon fill="#191970" stroke="#191970" points="1124.4692,-135.8064 1114.7401,-131.6118 1119.7299,-140.9581 1124.4692,-135.8064"/>
</g>
<!-- Node20 -->
<g id="node21" class="node">
<title>Node20</title>
<polygon fill="#ffffff" stroke="#bfbfbf" points="1555.5,-168.5 1555.5,-187.5 1624.5,-187.5 1624.5,-168.5 1555.5,-168.5"/>
<text text-anchor="middle" x="1590" y="-175.5" font-family="Helvetica,sans-Serif" font-size="10.00" fill="#000000">Eigen/Core</text>
</g>
<!-- Node19&#45;&gt;Node20 -->
<g id="edge25" class="edge">
<title>Node19&#45;&gt;Node20</title>
<path fill="none" stroke="#191970" d="M1580.0902,-224.2455C1581.6561,-216.9382 1583.8512,-206.6944 1585.7776,-197.7046"/>
<polygon fill="#191970" stroke="#191970" points="1589.2607,-198.1541 1587.9337,-187.6427 1582.416,-196.6873 1589.2607,-198.1541"/>
</g>
<!-- Node21 -->
<g id="node22" class="node">
<title>Node21</title>
<polygon fill="#ffffff" stroke="#bfbfbf" points="1642.5,-168.5 1642.5,-187.5 1737.5,-187.5 1737.5,-168.5 1642.5,-168.5"/>
<text text-anchor="middle" x="1690" y="-175.5" font-family="Helvetica,sans-Serif" font-size="10.00" fill="#000000">Eigen/Geometry</text>
</g>
<!-- Node19&#45;&gt;Node21 -->
<g id="edge26" class="edge">
<title>Node19&#45;&gt;Node21</title>
<path fill="none" stroke="#191970" d="M1597.2535,-224.3733C1615.0712,-215.4644 1641.7747,-202.1127 1661.9594,-192.0203"/>
<polygon fill="#191970" stroke="#191970" points="1663.6187,-195.1038 1670.9978,-187.5011 1660.4882,-188.8428 1663.6187,-195.1038"/>
</g>
<!-- Node22 -->
<g id="node23" class="node">
<title>Node22</title>
<polygon fill="#ffffff" stroke="#bfbfbf" points="1457,-168.5 1457,-187.5 1537,-187.5 1537,-168.5 1457,-168.5"/>
<text text-anchor="middle" x="1497" y="-175.5" font-family="Helvetica,sans-Serif" font-size="10.00" fill="#000000">Eigen/Sparse</text>
</g>
<!-- Node19&#45;&gt;Node22 -->
<g id="edge27" class="edge">
<title>Node19&#45;&gt;Node22</title>
<path fill="none" stroke="#191970" d="M1563.8909,-224.2455C1551.5791,-215.7337 1533.5042,-203.2375 1519.2462,-193.3801"/>
<polygon fill="#191970" stroke="#191970" points="1521.1634,-190.4506 1510.9474,-187.6427 1517.1826,-196.2085 1521.1634,-190.4506"/>
</g>
<!-- Node23&#45;&gt;Node12 -->
<g id="edge29" class="edge">
<title>Node23&#45;&gt;Node12</title>
<path fill="none" stroke="#191970" d="M506.6318,-224.0851C506.6801,-209.2949 509.1927,-181.7278 526,-168 565.6193,-135.6398 906.2237,-125.6786 1045.76,-122.9391"/>
<polygon fill="#191970" stroke="#191970" points="1045.9186,-126.4368 1055.8501,-122.7467 1045.7851,-119.438 1045.9186,-126.4368"/>
</g>
<!-- Node26&#45;&gt;Node2 -->
<g id="edge35" class="edge">
<title>Node26&#45;&gt;Node2</title>
<path fill="none" stroke="#191970" d="M299.333,-285.9581C250.9622,-275.1406 172.0631,-257.4959 119.8393,-245.8168"/>
<polygon fill="#191970" stroke="#191970" points="120.2899,-242.3312 109.7671,-243.5643 118.7622,-249.1624 120.2899,-242.3312"/>
</g>
<!-- Node26&#45;&gt;Node16 -->
<g id="edge37" class="edge">
<title>Node26&#45;&gt;Node16</title>
<path fill="none" stroke="#191970" d="M433.8987,-289.8852C523.2534,-283.3148 662.7959,-270.1132 792.2434,-243.8111"/>
<polygon fill="#191970" stroke="#191970" points="793.2522,-247.1768 802.3389,-241.7286 791.838,-240.3211 793.2522,-247.1768"/>
</g>
<!-- Node26&#45;&gt;Node25 -->
<g id="edge36" class="edge">
<title>Node26&#45;&gt;Node25</title>
<path fill="none" stroke="#191970" d="M349.9688,-285.8906C357.5591,-276.7376 369.1661,-262.7409 378.4132,-251.59"/>
<polygon fill="#191970" stroke="#191970" points="381.2297,-253.6766 384.9189,-243.7449 375.8413,-249.2083 381.2297,-253.6766"/>
</g>
<!-- Node27 -->
<g id="node28" class="node">
<title>Node27</title>
<polygon fill="#ffffff" stroke="#bfbfbf" points="230,-224.5 230,-243.5 346,-243.5 346,-224.5 230,-224.5"/>
<text text-anchor="middle" x="288" y="-231.5" font-family="Helvetica,sans-Serif" font-size="10.00" fill="#000000">QAbstractItemModel</text>
</g>
<!-- Node26&#45;&gt;Node27 -->
<g id="edge38" class="edge">
<title>Node26&#45;&gt;Node27</title>
<path fill="none" stroke="#191970" d="M333.5625,-285.8906C325.4469,-276.6478 312.9945,-262.466 303.1576,-251.2628"/>
<polygon fill="#191970" stroke="#191970" points="305.7846,-248.95 296.5565,-243.7449 300.5245,-253.5686 305.7846,-248.95"/>
</g>
<!-- Node28 -->
<g id="node29" class="node">
<title>Node28</title>
<polygon fill="#ffffff" stroke="#bfbfbf" points="152.5,-224.5 152.5,-243.5 211.5,-243.5 211.5,-224.5 152.5,-224.5"/>
<text text-anchor="middle" x="182" y="-231.5" font-family="Helvetica,sans-Serif" font-size="10.00" fill="#000000">QVariant</text>
</g>
<!-- Node26&#45;&gt;Node28 -->
<g id="edge39" class="edge">
<title>Node26&#45;&gt;Node28</title>
<path fill="none" stroke="#191970" d="M317,-285.8906C289.9942,-275.5103 246.7815,-258.9004 216.5406,-247.2766"/>
<polygon fill="#191970" stroke="#191970" points="217.4144,-243.8628 206.8244,-243.5419 214.9029,-250.3968 217.4144,-243.8628"/>
</g>
<!-- Node30&#45;&gt;Node10 -->
<g id="edge45" class="edge">
<title>Node30&#45;&gt;Node10</title>
<path fill="none" stroke="#191970" d="M1322.8698,-285.9581C1251.7522,-274.8573 1134.574,-256.5668 1059.904,-244.9114"/>
<polygon fill="#191970" stroke="#191970" points="1060.0793,-241.3965 1049.6591,-243.3123 1058.9997,-248.3127 1060.0793,-241.3965"/>
</g>
<!-- Node30&#45;&gt;Node11 -->
<g id="edge42" class="edge">
<title>Node30&#45;&gt;Node11</title>
<path fill="none" stroke="#191970" d="M1419.0095,-285.9328C1456.1793,-274.0552 1506.6779,-251.91 1484,-224 1465.0815,-200.7167 1389.5171,-188.8077 1332.1815,-183.0092"/>
<polygon fill="#191970" stroke="#191970" points="1332.3582,-179.51 1322.0673,-182.0297 1331.6833,-186.4774 1332.3582,-179.51"/>
</g>
<!-- Node30&#45;&gt;Node16 -->
<g id="edge46" class="edge">
<title>Node30&#45;&gt;Node16</title>
<path fill="none" stroke="#191970" d="M1289.2947,-291.8095C1185.8048,-286.5113 1015.1924,-274.069 859.8602,-243.7949"/>
<polygon fill="#191970" stroke="#191970" points="860.1409,-240.2826 849.6517,-241.7749 858.7821,-247.1495 860.1409,-240.2826"/>
</g>
<!-- Node30&#45;&gt;Node19 -->
<g id="edge47" class="edge">
<title>Node30&#45;&gt;Node19</title>
<path fill="none" stroke="#191970" d="M1414.3125,-285.8906C1447.6265,-275.3298 1501.2808,-258.3208 1538.0181,-246.6747"/>
<polygon fill="#191970" stroke="#191970" points="1539.4256,-249.9002 1547.9004,-243.5419 1537.3102,-243.2275 1539.4256,-249.9002"/>
</g>
<!-- Node30&#45;&gt;Node20 -->
<g id="edge43" class="edge">
<title>Node30&#45;&gt;Node20</title>
<path fill="none" stroke="#191970" d="M1478.6468,-288.0676C1540.2237,-281.0403 1612.5723,-267.8765 1632,-244 1644.9202,-228.1211 1628.0666,-208.0611 1612.0205,-194.248"/>
<polygon fill="#191970" stroke="#191970" points="1613.8406,-191.2184 1603.865,-187.6492 1609.4375,-196.6602 1613.8406,-191.2184"/>
</g>
<!-- Node30&#45;&gt;Node21 -->
<g id="edge44" class="edge">
<title>Node30&#45;&gt;Node21</title>
<path fill="none" stroke="#191970" d="M1472.4593,-285.9866C1538.0338,-277.5317 1620.7325,-263.4818 1649,-244 1665.4244,-232.6804 1676.5543,-212.4162 1683.0262,-197.3178"/>
<polygon fill="#191970" stroke="#191970" points="1686.3422,-198.45 1686.7703,-187.8638 1679.834,-195.8725 1686.3422,-198.45"/>
</g>
<!-- Node31 -->
<g id="node32" class="node">
<title>Node31</title>
<g id="a_node32"><a xlink:href="Component_8inl.html" target="_top" xlink:title="Engine/Component/Component.inl">
<polygon fill="#ffffff" stroke="#000000" points="1292.5,-224.5 1292.5,-243.5 1475.5,-243.5 1475.5,-224.5 1292.5,-224.5"/>
<text text-anchor="middle" x="1384" y="-231.5" font-family="Helvetica,sans-Serif" font-size="10.00" fill="#000000">Engine/Component/Component.inl</text>
</a>
</g>
</g>
<!-- Node30&#45;&gt;Node31 -->
<g id="edge48" class="edge">
<title>Node30&#45;&gt;Node31</title>
<path fill="none" stroke="#191970" d="M1378.9375,-285.8906C1377.2741,-277.3657 1376.8404,-264.6392 1377.6365,-253.9235"/>
<polygon fill="#191970" stroke="#191970" points="1381.1414,-254.1023 1378.9112,-243.7449 1374.1956,-253.2324 1381.1414,-254.1023"/>
</g>
<!-- Node31&#45;&gt;Node30 -->
<g id="edge49" class="edge">
<title>Node31&#45;&gt;Node30</title>
<path fill="none" stroke="#191970" d="M1389.0888,-243.7449C1390.7392,-252.314 1391.1598,-265.0519 1390.3508,-275.7462"/>
<polygon fill="#191970" stroke="#191970" points="1386.8503,-275.5293 1389.0625,-285.8906 1393.7945,-276.4113 1386.8503,-275.5293"/>
</g>
<!-- Node32&#45;&gt;Node8 -->
<g id="edge54" class="edge">
<title>Node32&#45;&gt;Node8</title>
<path fill="none" stroke="#191970" d="M1753.107,-291.1175C1861.9742,-283.3209 2069.5434,-265.7936 2095,-244 2118.1879,-224.1487 2114,-208.5246 2114,-178 2114,-178 2114,-178 2114,-122 2114,-39.3381 1815.6878,-16.7766 1713.1373,-11.4628"/>
<polygon fill="#191970" stroke="#191970" points="1713.1679,-7.9601 1703.0071,-10.9616 1712.8219,-14.9516 1713.1679,-7.9601"/>
</g>
<!-- Node32&#45;&gt;Node10 -->
<g id="edge51" class="edge">
<title>Node32&#45;&gt;Node10</title>
<path fill="none" stroke="#191970" d="M1620.7913,-290.3222C1477.196,-279.0588 1143.8486,-252.7198 1059.6626,-244.0743"/>
<polygon fill="#191970" stroke="#191970" points="1059.9933,-240.5898 1049.6757,-242.9975 1059.2428,-247.5494 1059.9933,-240.5898"/>
</g>
<!-- Node32&#45;&gt;Node15 -->
<g id="edge53" class="edge">
<title>Node32&#45;&gt;Node15</title>
<path fill="none" stroke="#191970" d="M1620.8055,-290.139C1581.8579,-287.0424 1531.6409,-283.1494 1487,-280 1238.8759,-262.4952 1170.4296,-290.3039 922.224,-243.7884"/>
<polygon fill="#191970" stroke="#191970" points="922.6559,-240.3081 912.179,-241.8841 921.352,-247.1856 922.6559,-240.3081"/>
</g>
<!-- Node32&#45;&gt;Node16 -->
<g id="edge55" class="edge">
<title>Node32&#45;&gt;Node16</title>
<path fill="none" stroke="#191970" d="M1620.8127,-290.0351C1581.8675,-286.9033 1531.6505,-283.0097 1487,-280 1211.3324,-261.4185 1136.0207,-292.1457 859.55,-243.6517"/>
<polygon fill="#191970" stroke="#191970" points="860.087,-240.1924 849.6295,-241.8929 858.865,-247.0849 860.087,-240.1924"/>
</g>
<!-- Node32&#45;&gt;Node19 -->
<g id="edge56" class="edge">
<title>Node32&#45;&gt;Node19</title>
<path fill="none" stroke="#191970" d="M1669.9688,-285.8906C1652.211,-275.8713 1624.167,-260.0483 1603.7118,-248.5071"/>
<polygon fill="#191970" stroke="#191970" points="1605.3409,-245.4077 1594.9117,-243.5419 1601.9011,-251.5042 1605.3409,-245.4077"/>
</g>
<!-- Node33 -->
<g id="node34" class="node">
<title>Node33</title>
<polygon fill="#ffffff" stroke="#bfbfbf" points="1894,-224.5 1894,-243.5 1942,-243.5 1942,-224.5 1894,-224.5"/>
<text text-anchor="middle" x="1918" y="-231.5" font-family="Helvetica,sans-Serif" font-size="10.00" fill="#000000">mutex</text>
</g>
<!-- Node32&#45;&gt;Node33 -->
<g id="edge52" class="edge">
<title>Node32&#45;&gt;Node33</title>
<path fill="none" stroke="#191970" d="M1725.4495,-285.981C1763.4028,-276.478 1823.3098,-261.1927 1884.118,-244.1749"/>
<polygon fill="#191970" stroke="#191970" points="1885.2027,-247.5057 1893.8819,-241.4293 1883.3078,-240.767 1885.2027,-247.5057"/>
</g>
<!-- Node34 -->
<g id="node35" class="node">
<title>Node34</title>
<g id="a_node35"><a xlink:href="IndexedObject_8hpp.html" target="_top" xlink:title="Core/Utils/IndexedObject.hpp">
<polygon fill="#ffffff" stroke="#000000" points="1717.5,-224.5 1717.5,-243.5 1876.5,-243.5 1876.5,-224.5 1717.5,-224.5"/>
<text text-anchor="middle" x="1797" y="-231.5" font-family="Helvetica,sans-Serif" font-size="10.00" fill="#000000">Core/Utils/IndexedObject.hpp</text>
</a>
</g>
</g>
<!-- Node32&#45;&gt;Node34 -->
<g id="edge57" class="edge">
<title>Node32&#45;&gt;Node34</title>
<path fill="none" stroke="#191970" d="M1704.1875,-285.8906C1722.1082,-275.8713 1750.4095,-260.0483 1771.0523,-248.5071"/>
<polygon fill="#191970" stroke="#191970" points="1772.9128,-251.4769 1779.9332,-243.5419 1769.4967,-245.367 1772.9128,-251.4769"/>
</g>
<!-- Node35 -->
<g id="node36" class="node">
<title>Node35</title>
<g id="a_node36"><a xlink:href="Entity_8inl.html" target="_top" xlink:title="Engine/Entity/Entity.inl">
<polygon fill="#ffffff" stroke="#000000" points="1960,-224.5 1960,-243.5 2086,-243.5 2086,-224.5 1960,-224.5"/>
<text text-anchor="middle" x="2023" y="-231.5" font-family="Helvetica,sans-Serif" font-size="10.00" fill="#000000">Engine/Entity/Entity.inl</text>
</a>
</g>
</g>
<!-- Node32&#45;&gt;Node35 -->
<g id="edge60" class="edge">
<title>Node32&#45;&gt;Node35</title>
<path fill="none" stroke="#191970" d="M1734.082,-285.9581C1791.9732,-274.9668 1890.4277,-256.9272 1956.1296,-245.2585"/>
<polygon fill="#191970" stroke="#191970" points="1956.7429,-248.7044 1965.9791,-243.5137 1955.5218,-241.8118 1956.7429,-248.7044"/>
</g>
<!-- Node34&#45;&gt;Node11 -->
<g id="edge59" class="edge">
<title>Node34&#45;&gt;Node11</title>
<path fill="none" stroke="#191970" d="M1717.4925,-225.6465C1612.9468,-214.6623 1431.0085,-195.5469 1332.3447,-185.1807"/>
<polygon fill="#191970" stroke="#191970" points="1332.5008,-181.6779 1322.1898,-184.1137 1331.7693,-188.6396 1332.5008,-181.6779"/>
</g>
<!-- Node34&#45;&gt;Node12 -->
<g id="edge58" class="edge">
<title>Node34&#45;&gt;Node12</title>
<path fill="none" stroke="#191970" d="M1792.7474,-224.2467C1785.5751,-209.1409 1769.5171,-180.5248 1746,-168 1638.6753,-110.8407 1321.1541,-142.3666 1200,-132 1188.4979,-131.0158 1176.227,-129.8275 1164.4558,-128.6188"/>
<polygon fill="#191970" stroke="#191970" points="1164.5812,-125.113 1154.2719,-127.556 1163.8546,-132.0752 1164.5812,-125.113"/>
</g>
<!-- Node35&#45;&gt;Node32 -->
<g id="edge61" class="edge">
<title>Node35&#45;&gt;Node32</title>
<path fill="none" stroke="#191970" d="M1976.0666,-243.5137C1918.2449,-254.4929 1819.7972,-272.5319 1754.0393,-284.2115"/>
<polygon fill="#191970" stroke="#191970" points="1753.4167,-280.7672 1744.1806,-285.9581 1754.6379,-287.6599 1753.4167,-280.7672"/>
</g>
<!-- Node36&#45;&gt;Node10 -->
<g id="edge63" class="edge">
<title>Node36&#45;&gt;Node10</title>
<path fill="none" stroke="#191970" d="M740.7271,-280.4554C798.8071,-269.6314 875.9302,-255.2585 928.9271,-245.3818"/>
<polygon fill="#191970" stroke="#191970" points="929.6722,-248.8032 938.8617,-243.5303 928.3897,-241.9217 929.6722,-248.8032"/>
</g>
<!-- Node36&#45;&gt;Node15 -->
<g id="edge66" class="edge">
<title>Node36&#45;&gt;Node15</title>
<path fill="none" stroke="#191970" d="M720.867,-280.4796C760.1366,-270.5891 812.241,-257.0925 858,-244 858.0979,-243.972 858.196,-243.9439 858.2943,-243.9157"/>
<polygon fill="#191970" stroke="#191970" points="859.0731,-247.3356 867.6619,-241.132 857.0791,-240.6256 859.0731,-247.3356"/>
</g>
<!-- Node36&#45;&gt;Node16 -->
<g id="edge67" class="edge">
<title>Node36&#45;&gt;Node16</title>
<path fill="none" stroke="#191970" d="M700.6082,-280.4554C728.8651,-269.9867 766.0826,-256.1983 792.6145,-246.3687"/>
<polygon fill="#191970" stroke="#191970" points="794.0578,-249.5666 802.219,-242.8104 791.6259,-243.0026 794.0578,-249.5666"/>
</g>
<!-- Node36&#45;&gt;Node23 -->
<g id="edge76" class="edge">
<title>Node36&#45;&gt;Node23</title>
<path fill="none" stroke="#191970" d="M622.572,-280.4554C597.3794,-270.329 564.4593,-257.0964 540.2004,-247.3453"/>
<polygon fill="#191970" stroke="#191970" points="541.2934,-244.0125 530.7096,-243.5303 538.6827,-250.5074 541.2934,-244.0125"/>
</g>
<!-- Node36&#45;&gt;Node24 -->
<g id="edge64" class="edge">
<title>Node36&#45;&gt;Node24</title>
<path fill="none" stroke="#191970" d="M685.6859,-280.4554C702.1297,-270.8241 723.3708,-258.3828 739.7323,-248.7996"/>
<polygon fill="#191970" stroke="#191970" points="741.8688,-251.6045 748.7287,-243.5303 738.331,-245.5643 741.8688,-251.6045"/>
</g>
<!-- Node36&#45;&gt;Node25 -->
<g id="edge65" class="edge">
<title>Node36&#45;&gt;Node25</title>
<path fill="none" stroke="#191970" d="M590.1967,-280.4873C547.1517,-271.0696 490.5871,-258.4088 431.8471,-244.1481"/>
<polygon fill="#191970" stroke="#191970" points="432.5632,-240.7202 422.0187,-241.7518 430.905,-247.521 432.5632,-240.7202"/>
</g>
<!-- Node37 -->
<g id="node38" class="node">
<title>Node37</title>
<g id="a_node38"><a xlink:href="IndexMap_8hpp.html" target="_top" xlink:title="Core/Utils/IndexMap.hpp">
<polygon fill="#ffffff" stroke="#000000" points="592,-224.5 592,-243.5 728,-243.5 728,-224.5 592,-224.5"/>
<text text-anchor="middle" x="660" y="-231.5" font-family="Helvetica,sans-Serif" font-size="10.00" fill="#000000">Core/Utils/IndexMap.hpp</text>
</a>
</g>
</g>
<!-- Node36&#45;&gt;Node37 -->
<g id="edge68" class="edge">
<title>Node36&#45;&gt;Node37</title>
<path fill="none" stroke="#191970" d="M660,-280.2977C660,-272.3834 660,-262.6043 660,-254.0759"/>
<polygon fill="#191970" stroke="#191970" points="663.5001,-253.8469 660,-243.8469 656.5001,-253.847 663.5001,-253.8469"/>
</g>
<!-- Node37&#45;&gt;Node11 -->
<g id="edge73" class="edge">
<title>Node37&#45;&gt;Node11</title>
<path fill="none" stroke="#191970" d="M728.0016,-225.0109C731.0414,-224.6588 734.0516,-224.32 737,-224 901.4088,-206.1568 1095.2647,-190.6564 1195.8018,-183.0309"/>
<polygon fill="#191970" stroke="#191970" points="1196.1172,-186.5172 1205.825,-182.2734 1195.5896,-179.5371 1196.1172,-186.5172"/>
</g>
<!-- Node37&#45;&gt;Node12 -->
<g id="edge69" class="edge">
<title>Node37&#45;&gt;Node12</title>
<path fill="none" stroke="#191970" d="M718.6011,-224.4819C766.6052,-216.23 836.1282,-203.2362 896,-188 957.3202,-172.3953 1027.1621,-149.2153 1068.5816,-134.8856"/>
<polygon fill="#191970" stroke="#191970" points="1069.9315,-138.1218 1078.2266,-131.5308 1067.6318,-131.5103 1069.9315,-138.1218"/>
</g>
<!-- Node38 -->
<g id="node39" class="node">
<title>Node38</title>
<polygon fill="#ffffff" stroke="#bfbfbf" points="535,-168.5 535,-187.5 599,-187.5 599,-168.5 535,-168.5"/>
<text text-anchor="middle" x="567" y="-175.5" font-family="Helvetica,sans-Serif" font-size="10.00" fill="#000000">algorithm</text>
</g>
<!-- Node37&#45;&gt;Node38 -->
<g id="edge70" class="edge">
<title>Node37&#45;&gt;Node38</title>
<path fill="none" stroke="#191970" d="M643.8006,-224.2455C629.3982,-215.5731 608.1268,-202.7645 591.6201,-192.825"/>
<polygon fill="#191970" stroke="#191970" points="593.386,-189.8028 583.0137,-187.6427 589.775,-195.7996 593.386,-189.8028"/>
</g>
<!-- Node39 -->
<g id="node40" class="node">
<title>Node39</title>
<polygon fill="#ffffff" stroke="#bfbfbf" points="617,-168.5 617,-187.5 673,-187.5 673,-168.5 617,-168.5"/>
<text text-anchor="middle" x="645" y="-175.5" font-family="Helvetica,sans-Serif" font-size="10.00" fill="#000000">assert.h</text>
</g>
<!-- Node37&#45;&gt;Node39 -->
<g id="edge71" class="edge">
<title>Node37&#45;&gt;Node39</title>
<path fill="none" stroke="#191970" d="M657.3872,-224.2455C655.4084,-216.8579 652.6256,-206.4689 650.1988,-197.4087"/>
<polygon fill="#191970" stroke="#191970" points="653.5511,-196.3966 647.5829,-187.6427 646.7895,-198.2078 653.5511,-196.3966"/>
</g>
<!-- Node40 -->
<g id="node41" class="node">
<title>Node40</title>
<polygon fill="#ffffff" stroke="#bfbfbf" points="691.5,-168.5 691.5,-187.5 738.5,-187.5 738.5,-168.5 691.5,-168.5"/>
<text text-anchor="middle" x="715" y="-175.5" font-family="Helvetica,sans-Serif" font-size="10.00" fill="#000000">deque</text>
</g>
<!-- Node37&#45;&gt;Node40 -->
<g id="edge72" class="edge">
<title>Node37&#45;&gt;Node40</title>
<path fill="none" stroke="#191970" d="M669.5803,-224.2455C677.5458,-216.1352 689.0641,-204.4075 698.5079,-194.7919"/>
<polygon fill="#191970" stroke="#191970" points="701.0195,-197.2297 705.5295,-187.6427 696.0253,-192.3247 701.0195,-197.2297"/>
</g>
<!-- Node41 -->
<g id="node42" class="node">
<title>Node41</title>
<g id="a_node42"><a xlink:href="IndexMap_8inl.html" target="_top" xlink:title="Core/Utils/IndexMap.inl">
<polygon fill="#ffffff" stroke="#000000" points="757,-168.5 757,-187.5 887,-187.5 887,-168.5 757,-168.5"/>
<text text-anchor="middle" x="822" y="-175.5" font-family="Helvetica,sans-Serif" font-size="10.00" fill="#000000">Core/Utils/IndexMap.inl</text>
</a>
</g>
</g>
<!-- Node37&#45;&gt;Node41 -->
<g id="edge74" class="edge">
<title>Node37&#45;&gt;Node41</title>
<path fill="none" stroke="#191970" d="M682.6068,-224.3733C707.7232,-215.0613 748.5324,-200.8953 779.589,-190.671"/>
<polygon fill="#191970" stroke="#191970" points="780.8776,-193.9322 789.2973,-187.5011 778.7048,-187.2779 780.8776,-193.9322"/>
</g>
<!-- Node41&#45;&gt;Node37 -->
<g id="edge75" class="edge">
<title>Node41&#45;&gt;Node37</title>
<path fill="none" stroke="#191970" d="M799.7319,-187.5011C774.7574,-196.7691 733.9756,-210.9309 702.8316,-221.1905"/>
<polygon fill="#191970" stroke="#191970" points="701.5092,-217.9404 693.0908,-224.3733 703.6833,-224.5942 701.5092,-217.9404"/>
</g>
</g>
</svg>
        <g id="navigator" transform="translate(0 0)" fill="#404254">
                <rect fill="#f2f5e9" fill-opacity="0.5" stroke="#606060" stroke-width=".5" x="0" y="0" width="60" height="60"/>
                <use id="zoomplus" xlink:href="#zoomPlus" x="17" y="9" onmousedown="handleZoom(evt,'in')"/>
                <use id="zoomminus" xlink:href="#zoomMin" x="42" y="9" onmousedown="handleZoom(evt,'out')"/>
                <use id="reset" xlink:href="#resetDef" x="30" y="36" onmousedown="handleReset()"/>
                <g id="arrowUp" xlink:href="#dirArrow" transform="translate(30 24)" onmousedown="handlePan(0,-1)">
                  <use xlink:href="#rim" fill="#404040">
                        <set attributeName="fill" to="#808080" begin="arrowUp.mouseover" end="arrowUp.mouseout"/>
                  </use>
                  <path fill="none" stroke="white" stroke-width="1.5" d="M0,-3.0v7 M-2.5,-0.5L0,-3.0L2.5,-0.5"/>
                </g>
                <g id="arrowRight" xlink:href="#dirArrow" transform="rotate(90) translate(36 -43)" onmousedown="handlePan(1,0)">
                  <use xlink:href="#rim" fill="#404040">
                        <set attributeName="fill" to="#808080" begin="arrowRight.mouseover" end="arrowRight.mouseout"/>
                  </use>
                  <path fill="none" stroke="white" stroke-width="1.5" d="M0,-3.0v7 M-2.5,-0.5L0,-3.0L2.5,-0.5"/>
                </g>
                <g id="arrowDown" xlink:href="#dirArrow" transform="rotate(180) translate(-30 -48)" onmousedown="handlePan(0,1)">
                  <use xlink:href="#rim" fill="#404040">
                        <set attributeName="fill" to="#808080" begin="arrowDown.mouseover" end="arrowDown.mouseout"/>
                  </use>
                  <path fill="none" stroke="white" stroke-width="1.5" d="M0,-3.0v7 M-2.5,-0.5L0,-3.0L2.5,-0.5"/>
                </g>
                <g id="arrowLeft" xlink:href="#dirArrow" transform="rotate(270) translate(-36 17)" onmousedown="handlePan(-1,0)">
                  <use xlink:href="#rim" fill="#404040">
                        <set attributeName="fill" to="#808080" begin="arrowLeft.mouseover" end="arrowLeft.mouseout"/>
                  </use>
                  <path fill="none" stroke="white" stroke-width="1.5" d="M0,-3.0v7 M-2.5,-0.5L0,-3.0L2.5,-0.5"/>
                </g>
        </g>
        <svg viewBox="0 0 15 15" width="100%" height="30px" preserveAspectRatio="xMaxYMin meet">
         <g id="arrow_out" transform="scale(0.3 0.3)">
          <a xlink:href="EntityTreeModel_8cpp__incl_org.svg" target="_base">
           <rect id="button" ry="5" rx="5" y="6" x="6" height="38" width="38"
                fill="#f2f5e9" fill-opacity="0.5" stroke="#606060" stroke-width="1.0"/>
           <path id="arrow"
             d="M 11.500037,31.436501 C 11.940474,20.09759 22.043105,11.32322 32.158766,21.979434 L 37.068811,17.246167 C 37.068811,17.246167 37.088388,32 37.088388,32 L 22.160133,31.978069 C 22.160133,31.978069 26.997745,27.140456 26.997745,27.140456 C 18.528582,18.264221 13.291696,25.230495 11.500037,31.436501 z"
             style="fill:#404040;"/>
          </a>
         </g>
        </svg>
</svg>
