<?xml version="1.0" encoding="UTF-8" standalone="no"?>
<!DOCTYPE svg PUBLIC "-//W3C//DTD SVG 1.1//EN"
 "http://www.w3.org/Graphics/SVG/1.1/DTD/svg11.dtd">
<!-- Generated by graphviz version 2.40.1 (20161225.0304)
 -->
<!-- Title: src/Engine/Managers/EntityManager/EntityManager.hpp Pages: 1 -->
<!--zoomable 319 -->
<svg id="main" version="1.1" xmlns="http://www.w3.org/2000/svg" xmlns:xlink="http://www.w3.org/1999/xlink" xml:space="preserve" onload="init(evt)">
<style type="text/css"><![CDATA[
.edge:hover path { stroke: red; }
.edge:hover polygon { stroke: red; fill: red; }
]]></style>
<script type="text/javascript"><![CDATA[
var edges = document.getElementsByTagName('g');
if (edges && edges.length) {
  for (var i=0;i<edges.length;i++) {
    if (edges[i].id.substr(0,4)=='edge') {
      edges[i].setAttribute('class','edge');
    }
  }
}
]]></script>
        <defs>
                <circle id="rim" cx="0" cy="0" r="7"/>
                <circle id="rim2" cx="0" cy="0" r="3.5"/>
                <g id="zoomPlus">
                        <use xlink:href="#rim" fill="#404040">
                                <set attributeName="fill" to="#808080" begin="zoomplus.mouseover" end="zoomplus.mouseout"/>
                        </use>
                        <path d="M-4,0h8M0,-4v8" fill="none" stroke="white" stroke-width="1.5" pointer-events="none"/>
                </g>
                <g id="zoomMin">
                        <use xlink:href="#rim" fill="#404040">
                                <set attributeName="fill" to="#808080" begin="zoomminus.mouseover" end="zoomminus.mouseout"/>
                        </use>
                        <path d="M-4,0h8" fill="none" stroke="white" stroke-width="1.5" pointer-events="none"/>
                </g>
                <g id="dirArrow">
                        <path fill="none" stroke="white" stroke-width="1.5" d="M0,-3.0v7 M-2.5,-0.5L0,-3.0L2.5,-0.5"/>
                </g>
               <g id="resetDef">
                       <use xlink:href="#rim2" fill="#404040">
                               <set attributeName="fill" to="#808080" begin="reset.mouseover" end="reset.mouseout"/>
                       </use>
               </g>
        </defs>

<script type="text/javascript">
var viewWidth = 725;
var viewHeight = 319;
var sectionId = 'dynsection-0';
</script>
<script xlink:href="svgpan.js"/>
<svg id="graph" class="graph">
<g id="viewport">
<title>src/Engine/Managers/EntityManager/EntityManager.hpp</title>
<polygon fill="#ffffff" stroke="transparent" points="-4,4 -4,-315 720.5,-315 720.5,4 -4,4"/>
<!-- Node0 -->
<g id="node1" class="node">
<title>Node0</title>
<polygon fill="#bfbfbf" stroke="#000000" points="113.5,-280.5 113.5,-310.5 297.5,-310.5 297.5,-280.5 113.5,-280.5"/>
<text text-anchor="start" x="121.5" y="-298.5" font-family="Helvetica,sans-Serif" font-size="10.00" fill="#000000">src/Engine/Managers</text>
<text text-anchor="middle" x="205.5" y="-287.5" font-family="Helvetica,sans-Serif" font-size="10.00" fill="#000000">/EntityManager/EntityManager.hpp</text>
</g>
<!-- Node1 -->
<g id="node2" class="node">
<title>Node1</title>
<g id="a_node2"><a xlink:href="RaEngine_8hpp.html" target="_top" xlink:title="Engine/RaEngine.hpp">
<polygon fill="#ffffff" stroke="#000000" points="0,-112.5 0,-131.5 119,-131.5 119,-112.5 0,-112.5"/>
<text text-anchor="middle" x="59.5" y="-119.5" font-family="Helvetica,sans-Serif" font-size="10.00" fill="#000000">Engine/RaEngine.hpp</text>
</a>
</g>
</g>
<!-- Node0&#45;&gt;Node1 -->
<g id="edge1" class="edge">
<title>Node0&#45;&gt;Node1</title>
<path fill="none" stroke="#191970" d="M133.9332,-280.4804C96.226,-271.1371 55.2067,-258.2169 42.5,-244 19.7561,-218.5529 22.2849,-200.8622 31.5,-168 34.2878,-158.0584 39.8812,-148.1336 45.3407,-140.0613"/>
<polygon fill="#191970" stroke="#191970" points="48.2676,-141.9866 51.2911,-131.8323 42.5952,-137.8849 48.2676,-141.9866"/>
</g>
<!-- Node8 -->
<g id="node9" class="node">
<title>Node8</title>
<polygon fill="#ffffff" stroke="#bfbfbf" points="51.5,-224.5 51.5,-243.5 89.5,-243.5 89.5,-224.5 51.5,-224.5"/>
<text text-anchor="middle" x="70.5" y="-231.5" font-family="Helvetica,sans-Serif" font-size="10.00" fill="#000000">map</text>
</g>
<!-- Node0&#45;&gt;Node8 -->
<g id="edge8" class="edge">
<title>Node0&#45;&gt;Node8</title>
<path fill="none" stroke="#191970" d="M172.4753,-280.4554C150.0014,-270.2173 120.5578,-256.8041 99.0891,-247.0239"/>
<polygon fill="#191970" stroke="#191970" points="100.3912,-243.7711 89.84,-242.8104 97.4892,-250.1412 100.3912,-243.7711"/>
</g>
<!-- Node9 -->
<g id="node10" class="node">
<title>Node9</title>
<polygon fill="#ffffff" stroke="#bfbfbf" points="107.5,-224.5 107.5,-243.5 165.5,-243.5 165.5,-224.5 107.5,-224.5"/>
<text text-anchor="middle" x="136.5" y="-231.5" font-family="Helvetica,sans-Serif" font-size="10.00" fill="#000000">memory</text>
</g>
<!-- Node0&#45;&gt;Node9 -->
<g id="edge9" class="edge">
<title>Node0&#45;&gt;Node9</title>
<path fill="none" stroke="#191970" d="M188.4438,-280.2977C178.3671,-271.3163 165.596,-259.9334 155.2389,-250.702"/>
<polygon fill="#191970" stroke="#191970" points="157.3417,-247.8879 147.5478,-243.8469 152.6841,-253.1135 157.3417,-247.8879"/>
</g>
<!-- Node10 -->
<g id="node11" class="node">
<title>Node10</title>
<polygon fill="#ffffff" stroke="#bfbfbf" points="183.5,-224.5 183.5,-243.5 227.5,-243.5 227.5,-224.5 183.5,-224.5"/>
<text text-anchor="middle" x="205.5" y="-231.5" font-family="Helvetica,sans-Serif" font-size="10.00" fill="#000000">string</text>
</g>
<!-- Node0&#45;&gt;Node10 -->
<g id="edge10" class="edge">
<title>Node0&#45;&gt;Node10</title>
<path fill="none" stroke="#191970" d="M205.5,-280.2977C205.5,-272.3834 205.5,-262.6043 205.5,-254.0759"/>
<polygon fill="#191970" stroke="#191970" points="209.0001,-253.8469 205.5,-243.8469 202.0001,-253.847 209.0001,-253.8469"/>
</g>
<!-- Node11 -->
<g id="node12" class="node">
<title>Node11</title>
<polygon fill="#ffffff" stroke="#bfbfbf" points="246,-224.5 246,-243.5 293,-243.5 293,-224.5 246,-224.5"/>
<text text-anchor="middle" x="269.5" y="-231.5" font-family="Helvetica,sans-Serif" font-size="10.00" fill="#000000">vector</text>
</g>
<!-- Node0&#45;&gt;Node11 -->
<g id="edge11" class="edge">
<title>Node0&#45;&gt;Node11</title>
<path fill="none" stroke="#191970" d="M221.3202,-280.2977C230.5742,-271.4052 242.2781,-260.1586 251.833,-250.9769"/>
<polygon fill="#191970" stroke="#191970" points="254.4674,-253.2995 259.2528,-243.8469 249.6172,-248.2521 254.4674,-253.2995"/>
</g>
<!-- Node12 -->
<g id="node13" class="node">
<title>Node12</title>
<g id="a_node13"><a xlink:href="IndexMap_8hpp.html" target="_top" xlink:title="Core/Utils/IndexMap.hpp">
<polygon fill="#ffffff" stroke="#000000" points="311.5,-224.5 311.5,-243.5 447.5,-243.5 447.5,-224.5 311.5,-224.5"/>
<text text-anchor="middle" x="379.5" y="-231.5" font-family="Helvetica,sans-Serif" font-size="10.00" fill="#000000">Core/Utils/IndexMap.hpp</text>
</a>
</g>
</g>
<!-- Node0&#45;&gt;Node12 -->
<g id="edge12" class="edge">
<title>Node0&#45;&gt;Node12</title>
<path fill="none" stroke="#191970" d="M248.0652,-280.4554C277.0975,-270.194 315.1541,-256.7429 342.8409,-246.9571"/>
<polygon fill="#191970" stroke="#191970" points="344.2741,-250.1628 352.5362,-243.5303 341.9414,-243.5629 344.2741,-250.1628"/>
</g>
<!-- Node21 -->
<g id="node22" class="node">
<title>Node21</title>
<g id="a_node22"><a xlink:href="Singleton_8hpp.html" target="_top" xlink:title="Core/Utils/Singleton.hpp">
<polygon fill="#ffffff" stroke="#000000" points="582.5,-168.5 582.5,-187.5 716.5,-187.5 716.5,-168.5 582.5,-168.5"/>
<text text-anchor="middle" x="649.5" y="-175.5" font-family="Helvetica,sans-Serif" font-size="10.00" fill="#000000">Core/Utils/Singleton.hpp</text>
</a>
</g>
</g>
<!-- Node0&#45;&gt;Node21 -->
<g id="edge25" class="edge">
<title>Node0&#45;&gt;Node21</title>
<path fill="none" stroke="#191970" d="M292.3938,-280.4883C341.0155,-271.3862 402.5276,-258.7015 456.5,-244 512.9559,-228.6221 576.9373,-205.5997 615.21,-191.2075"/>
<polygon fill="#191970" stroke="#191970" points="616.7163,-194.3798 624.8308,-187.5676 614.2392,-187.8328 616.7163,-194.3798"/>
</g>
<!-- Node2 -->
<g id="node3" class="node">
<title>Node2</title>
<g id="a_node3"><a xlink:href="CoreMacros_8hpp.html" target="_top" xlink:title="Core/CoreMacros.hpp">
<polygon fill="#ffffff" stroke="#000000" points="157.5,-56.5 157.5,-75.5 277.5,-75.5 277.5,-56.5 157.5,-56.5"/>
<text text-anchor="middle" x="217.5" y="-63.5" font-family="Helvetica,sans-Serif" font-size="10.00" fill="#000000">Core/CoreMacros.hpp</text>
</a>
</g>
</g>
<!-- Node1&#45;&gt;Node2 -->
<g id="edge2" class="edge">
<title>Node1&#45;&gt;Node2</title>
<path fill="none" stroke="#191970" d="M86.6612,-112.3733C112.7067,-103.1419 152.2116,-89.1402 180.9979,-78.9375"/>
<polygon fill="#191970" stroke="#191970" points="182.437,-82.1408 190.6933,-75.5011 180.0985,-75.5429 182.437,-82.1408"/>
</g>
<!-- Node3 -->
<g id="node4" class="node">
<title>Node3</title>
<polygon fill="#ffffff" stroke="#bfbfbf" points="53.5,-.5 53.5,-19.5 105.5,-19.5 105.5,-.5 53.5,-.5"/>
<text text-anchor="middle" x="79.5" y="-7.5" font-family="Helvetica,sans-Serif" font-size="10.00" fill="#000000">cassert</text>
</g>
<!-- Node2&#45;&gt;Node3 -->
<g id="edge3" class="edge">
<title>Node2&#45;&gt;Node3</title>
<path fill="none" stroke="#191970" d="M193.777,-56.3733C171.3263,-47.2629 137.4261,-33.5062 112.3745,-23.3404"/>
<polygon fill="#191970" stroke="#191970" points="113.4957,-20.0182 102.9135,-19.5011 110.8635,-26.5045 113.4957,-20.0182"/>
</g>
<!-- Node4 -->
<g id="node5" class="node">
<title>Node4</title>
<polygon fill="#ffffff" stroke="#bfbfbf" points="123.5,-.5 123.5,-19.5 169.5,-19.5 169.5,-.5 123.5,-.5"/>
<text text-anchor="middle" x="146.5" y="-7.5" font-family="Helvetica,sans-Serif" font-size="10.00" fill="#000000">cstdio</text>
</g>
<!-- Node2&#45;&gt;Node4 -->
<g id="edge4" class="edge">
<title>Node2&#45;&gt;Node4</title>
<path fill="none" stroke="#191970" d="M205.1327,-56.2455C194.5446,-47.8943 179.0936,-35.7076 166.7107,-25.9408"/>
<polygon fill="#191970" stroke="#191970" points="168.7447,-23.0875 158.7255,-19.6427 164.4097,-28.5837 168.7447,-23.0875"/>
</g>
<!-- Node5 -->
<g id="node6" class="node">
<title>Node5</title>
<polygon fill="#ffffff" stroke="#bfbfbf" points="187.5,-.5 187.5,-19.5 247.5,-19.5 247.5,-.5 187.5,-.5"/>
<text text-anchor="middle" x="217.5" y="-7.5" font-family="Helvetica,sans-Serif" font-size="10.00" fill="#000000">iostream</text>
</g>
<!-- Node2&#45;&gt;Node5 -->
<g id="edge5" class="edge">
<title>Node2&#45;&gt;Node5</title>
<path fill="none" stroke="#191970" d="M217.5,-56.2455C217.5,-48.9382 217.5,-38.6944 217.5,-29.7046"/>
<polygon fill="#191970" stroke="#191970" points="221.0001,-29.6426 217.5,-19.6427 214.0001,-29.6427 221.0001,-29.6426"/>
</g>
<!-- Node6 -->
<g id="node7" class="node">
<title>Node6</title>
<polygon fill="#ffffff" stroke="#bfbfbf" points="265.5,-.5 265.5,-19.5 321.5,-19.5 321.5,-.5 265.5,-.5"/>
<text text-anchor="middle" x="293.5" y="-7.5" font-family="Helvetica,sans-Serif" font-size="10.00" fill="#000000">sstream</text>
</g>
<!-- Node2&#45;&gt;Node6 -->
<g id="edge6" class="edge">
<title>Node2&#45;&gt;Node6</title>
<path fill="none" stroke="#191970" d="M230.7382,-56.2455C242.181,-47.814 258.9296,-35.4729 272.2475,-25.6598"/>
<polygon fill="#191970" stroke="#191970" points="274.4391,-28.3924 280.4135,-19.6427 270.2867,-22.757 274.4391,-28.3924"/>
</g>
<!-- Node7 -->
<g id="node8" class="node">
<title>Node7</title>
<polygon fill="#ffffff" stroke="#bfbfbf" points="339.5,-.5 339.5,-19.5 387.5,-19.5 387.5,-.5 339.5,-.5"/>
<text text-anchor="middle" x="363.5" y="-7.5" font-family="Helvetica,sans-Serif" font-size="10.00" fill="#000000">thread</text>
</g>
<!-- Node2&#45;&gt;Node7 -->
<g id="edge7" class="edge">
<title>Node2&#45;&gt;Node7</title>
<path fill="none" stroke="#191970" d="M242.5983,-56.3733C266.6001,-47.1671 302.9713,-33.2165 329.5524,-23.021"/>
<polygon fill="#191970" stroke="#191970" points="331.131,-26.1642 339.2144,-19.315 328.6242,-19.6285 331.131,-26.1642"/>
</g>
<!-- Node13 -->
<g id="node14" class="node">
<title>Node13</title>
<g id="a_node14"><a xlink:href="RaCore_8hpp.html" target="_top" xlink:title="Core/RaCore.hpp">
<polygon fill="#ffffff" stroke="#000000" points="398.5,-112.5 398.5,-131.5 496.5,-131.5 496.5,-112.5 398.5,-112.5"/>
<text text-anchor="middle" x="447.5" y="-119.5" font-family="Helvetica,sans-Serif" font-size="10.00" fill="#000000">Core/RaCore.hpp</text>
</a>
</g>
</g>
<!-- Node12&#45;&gt;Node13 -->
<g id="edge13" class="edge">
<title>Node12&#45;&gt;Node13</title>
<path fill="none" stroke="#191970" d="M407.9381,-224.3621C424.4279,-217.1374 443.799,-205.4529 453.5,-188 461.4288,-173.7355 458.7292,-155.0162 454.745,-141.1579"/>
<polygon fill="#191970" stroke="#191970" points="458.0672,-140.0562 451.6027,-131.6622 451.4216,-142.2555 458.0672,-140.0562"/>
</g>
<!-- Node14 -->
<g id="node15" class="node">
<title>Node14</title>
<polygon fill="#ffffff" stroke="#bfbfbf" points="500.5,-168.5 500.5,-187.5 564.5,-187.5 564.5,-168.5 500.5,-168.5"/>
<text text-anchor="middle" x="532.5" y="-175.5" font-family="Helvetica,sans-Serif" font-size="10.00" fill="#000000">algorithm</text>
</g>
<!-- Node12&#45;&gt;Node14 -->
<g id="edge15" class="edge">
<title>Node12&#45;&gt;Node14</title>
<path fill="none" stroke="#191970" d="M405.8016,-224.3733C430.9128,-215.1822 468.9438,-201.2624 496.7872,-191.0713"/>
<polygon fill="#191970" stroke="#191970" points="498.3538,-194.2251 506.5416,-187.5011 495.9478,-187.6516 498.3538,-194.2251"/>
</g>
<!-- Node15 -->
<g id="node16" class="node">
<title>Node15</title>
<polygon fill="#ffffff" stroke="#bfbfbf" points="40.5,-168.5 40.5,-187.5 96.5,-187.5 96.5,-168.5 40.5,-168.5"/>
<text text-anchor="middle" x="68.5" y="-175.5" font-family="Helvetica,sans-Serif" font-size="10.00" fill="#000000">assert.h</text>
</g>
<!-- Node12&#45;&gt;Node15 -->
<g id="edge16" class="edge">
<title>Node12&#45;&gt;Node15</title>
<path fill="none" stroke="#191970" d="M311.5859,-224.4843C258.3153,-216.5884 182.1295,-204.3486 106.8448,-188.1369"/>
<polygon fill="#191970" stroke="#191970" points="107.2279,-184.6384 96.712,-185.9293 105.7377,-191.4779 107.2279,-184.6384"/>
</g>
<!-- Node16 -->
<g id="node17" class="node">
<title>Node16</title>
<polygon fill="#ffffff" stroke="#bfbfbf" points="115,-168.5 115,-187.5 162,-187.5 162,-168.5 115,-168.5"/>
<text text-anchor="middle" x="138.5" y="-175.5" font-family="Helvetica,sans-Serif" font-size="10.00" fill="#000000">deque</text>
</g>
<!-- Node12&#45;&gt;Node16 -->
<g id="edge17" class="edge">
<title>Node12&#45;&gt;Node16</title>
<path fill="none" stroke="#191970" d="M331.3337,-224.4391C291.1641,-216.2194 232.242,-203.5947 171.9217,-187.9629"/>
<polygon fill="#191970" stroke="#191970" points="172.7916,-184.5728 162.2313,-185.4285 171.0203,-191.345 172.7916,-184.5728"/>
</g>
<!-- Node17 -->
<g id="node18" class="node">
<title>Node17</title>
<g id="a_node18"><a xlink:href="Index_8hpp.html" target="_top" xlink:title="Core/Utils/Index.hpp">
<polygon fill="#ffffff" stroke="#000000" points="180.5,-168.5 180.5,-187.5 296.5,-187.5 296.5,-168.5 180.5,-168.5"/>
<text text-anchor="middle" x="238.5" y="-175.5" font-family="Helvetica,sans-Serif" font-size="10.00" fill="#000000">Core/Utils/Index.hpp</text>
</a>
</g>
</g>
<!-- Node12&#45;&gt;Node17 -->
<g id="edge18" class="edge">
<title>Node12&#45;&gt;Node17</title>
<path fill="none" stroke="#191970" d="M355.2612,-224.3733C332.2211,-215.2226 297.3786,-201.3844 271.7499,-191.2057"/>
<polygon fill="#191970" stroke="#191970" points="273.0082,-187.9395 262.4225,-187.5011 270.4244,-194.4452 273.0082,-187.9395"/>
</g>
<!-- Node20 -->
<g id="node21" class="node">
<title>Node20</title>
<g id="a_node21"><a xlink:href="IndexMap_8inl.html" target="_top" xlink:title="Core/Utils/IndexMap.inl">
<polygon fill="#ffffff" stroke="#000000" points="314.5,-168.5 314.5,-187.5 444.5,-187.5 444.5,-168.5 314.5,-168.5"/>
<text text-anchor="middle" x="379.5" y="-175.5" font-family="Helvetica,sans-Serif" font-size="10.00" fill="#000000">Core/Utils/IndexMap.inl</text>
</a>
</g>
</g>
<!-- Node12&#45;&gt;Node20 -->
<g id="edge23" class="edge">
<title>Node12&#45;&gt;Node20</title>
<path fill="none" stroke="#191970" d="M374.2332,-224.2455C372.8221,-216.9382 372.4179,-206.6944 373.0205,-197.7046"/>
<polygon fill="#191970" stroke="#191970" points="376.5111,-197.9945 374.2549,-187.6427 369.5632,-197.1421 376.5111,-197.9945"/>
</g>
<!-- Node13&#45;&gt;Node2 -->
<g id="edge14" class="edge">
<title>Node13&#45;&gt;Node2</title>
<path fill="none" stroke="#191970" d="M408.2229,-112.4369C369.0256,-102.8932 308.7,-88.2052 266.4165,-77.9101"/>
<polygon fill="#191970" stroke="#191970" points="267.1592,-74.4888 256.6151,-75.5237 265.5032,-81.2901 267.1592,-74.4888"/>
</g>
<!-- Node17&#45;&gt;Node13 -->
<g id="edge19" class="edge">
<title>Node17&#45;&gt;Node13</title>
<path fill="none" stroke="#191970" d="M274.4284,-168.3733C309.7837,-158.9001 363.888,-144.4032 402.1788,-134.1435"/>
<polygon fill="#191970" stroke="#191970" points="403.287,-137.4701 412.0405,-131.5011 401.4753,-130.7086 403.287,-137.4701"/>
</g>
<!-- Node18 -->
<g id="node19" class="node">
<title>Node18</title>
<polygon fill="#ffffff" stroke="#bfbfbf" points="311.5,-112.5 311.5,-131.5 355.5,-131.5 355.5,-112.5 311.5,-112.5"/>
<text text-anchor="middle" x="333.5" y="-119.5" font-family="Helvetica,sans-Serif" font-size="10.00" fill="#000000">limits</text>
</g>
<!-- Node17&#45;&gt;Node18 -->
<g id="edge20" class="edge">
<title>Node17&#45;&gt;Node18</title>
<path fill="none" stroke="#191970" d="M255.0477,-168.2455C269.7599,-159.5731 291.4888,-146.7645 308.3505,-136.825"/>
<polygon fill="#191970" stroke="#191970" points="310.3046,-139.736 317.1419,-131.6427 306.7498,-133.7057 310.3046,-139.736"/>
</g>
<!-- Node19 -->
<g id="node20" class="node">
<title>Node19</title>
<g id="a_node20"><a xlink:href="Index_8inl.html" target="_top" xlink:title="Core/Utils/Index.inl">
<polygon fill="#ffffff" stroke="#000000" points="183.5,-112.5 183.5,-131.5 293.5,-131.5 293.5,-112.5 183.5,-112.5"/>
<text text-anchor="middle" x="238.5" y="-119.5" font-family="Helvetica,sans-Serif" font-size="10.00" fill="#000000">Core/Utils/Index.inl</text>
</a>
</g>
</g>
<!-- Node17&#45;&gt;Node19 -->
<g id="edge21" class="edge">
<title>Node17&#45;&gt;Node19</title>
<path fill="none" stroke="#191970" d="M233.2332,-168.2455C231.8221,-160.9382 231.4179,-150.6944 232.0205,-141.7046"/>
<polygon fill="#191970" stroke="#191970" points="235.5111,-141.9945 233.2549,-131.6427 228.5632,-141.1421 235.5111,-141.9945"/>
</g>
<!-- Node19&#45;&gt;Node17 -->
<g id="edge22" class="edge">
<title>Node19&#45;&gt;Node17</title>
<path fill="none" stroke="#191970" d="M243.7451,-131.6427C245.1665,-138.9199 245.581,-149.155 244.9887,-158.1575"/>
<polygon fill="#191970" stroke="#191970" points="241.4947,-157.8972 243.7668,-168.2455 248.4439,-158.739 241.4947,-157.8972"/>
</g>
<!-- Node20&#45;&gt;Node12 -->
<g id="edge24" class="edge">
<title>Node20&#45;&gt;Node12</title>
<path fill="none" stroke="#191970" d="M384.7451,-187.6427C386.1665,-194.9199 386.581,-205.155 385.9887,-214.1575"/>
<polygon fill="#191970" stroke="#191970" points="382.4947,-213.8972 384.7668,-224.2455 389.4439,-214.739 382.4947,-213.8972"/>
</g>
<!-- Node21&#45;&gt;Node13 -->
<g id="edge26" class="edge">
<title>Node21&#45;&gt;Node13</title>
<path fill="none" stroke="#191970" d="M614.775,-168.3733C580.7492,-158.9404 528.7563,-144.5265 491.7766,-134.2747"/>
<polygon fill="#191970" stroke="#191970" points="492.3435,-130.7999 481.7719,-131.5011 490.4734,-137.5455 492.3435,-130.7999"/>
</g>
</g>
</svg>
        <g id="navigator" transform="translate(0 0)" fill="#404254">
                <rect fill="#f2f5e9" fill-opacity="0.5" stroke="#606060" stroke-width=".5" x="0" y="0" width="60" height="60"/>
                <use id="zoomplus" xlink:href="#zoomPlus" x="17" y="9" onmousedown="handleZoom(evt,'in')"/>
                <use id="zoomminus" xlink:href="#zoomMin" x="42" y="9" onmousedown="handleZoom(evt,'out')"/>
                <use id="reset" xlink:href="#resetDef" x="30" y="36" onmousedown="handleReset()"/>
                <g id="arrowUp" xlink:href="#dirArrow" transform="translate(30 24)" onmousedown="handlePan(0,-1)">
                  <use xlink:href="#rim" fill="#404040">
                        <set attributeName="fill" to="#808080" begin="arrowUp.mouseover" end="arrowUp.mouseout"/>
                  </use>
                  <path fill="none" stroke="white" stroke-width="1.5" d="M0,-3.0v7 M-2.5,-0.5L0,-3.0L2.5,-0.5"/>
                </g>
                <g id="arrowRight" xlink:href="#dirArrow" transform="rotate(90) translate(36 -43)" onmousedown="handlePan(1,0)">
                  <use xlink:href="#rim" fill="#404040">
                        <set attributeName="fill" to="#808080" begin="arrowRight.mouseover" end="arrowRight.mouseout"/>
                  </use>
                  <path fill="none" stroke="white" stroke-width="1.5" d="M0,-3.0v7 M-2.5,-0.5L0,-3.0L2.5,-0.5"/>
                </g>
                <g id="arrowDown" xlink:href="#dirArrow" transform="rotate(180) translate(-30 -48)" onmousedown="handlePan(0,1)">
                  <use xlink:href="#rim" fill="#404040">
                        <set attributeName="fill" to="#808080" begin="arrowDown.mouseover" end="arrowDown.mouseout"/>
                  </use>
                  <path fill="none" stroke="white" stroke-width="1.5" d="M0,-3.0v7 M-2.5,-0.5L0,-3.0L2.5,-0.5"/>
                </g>
                <g id="arrowLeft" xlink:href="#dirArrow" transform="rotate(270) translate(-36 17)" onmousedown="handlePan(-1,0)">
                  <use xlink:href="#rim" fill="#404040">
                        <set attributeName="fill" to="#808080" begin="arrowLeft.mouseover" end="arrowLeft.mouseout"/>
                  </use>
                  <path fill="none" stroke="white" stroke-width="1.5" d="M0,-3.0v7 M-2.5,-0.5L0,-3.0L2.5,-0.5"/>
                </g>
        </g>
        <svg viewBox="0 0 15 15" width="100%" height="30px" preserveAspectRatio="xMaxYMin meet">
         <g id="arrow_out" transform="scale(0.3 0.3)">
          <a xlink:href="EntityManager_8hpp__incl_org.svg" target="_base">
           <rect id="button" ry="5" rx="5" y="6" x="6" height="38" width="38"
                fill="#f2f5e9" fill-opacity="0.5" stroke="#606060" stroke-width="1.0"/>
           <path id="arrow"
             d="M 11.500037,31.436501 C 11.940474,20.09759 22.043105,11.32322 32.158766,21.979434 L 37.068811,17.246167 C 37.068811,17.246167 37.088388,32 37.088388,32 L 22.160133,31.978069 C 22.160133,31.978069 26.997745,27.140456 26.997745,27.140456 C 18.528582,18.264221 13.291696,25.230495 11.500037,31.436501 z"
             style="fill:#404040;"/>
          </a>
         </g>
        </svg>
</svg>
