<?xml version="1.0" encoding="UTF-8" standalone="no"?>
<!DOCTYPE svg PUBLIC "-//W3C//DTD SVG 1.1//EN"
 "http://www.w3.org/Graphics/SVG/1.1/DTD/svg11.dtd">
<!-- Generated by graphviz version 2.40.1 (20161225.0304)
 -->
<!-- Title: src/Engine/Entity/Entity.cpp Pages: 1 -->
<svg width="2059pt" height="386pt"
 viewBox="0.00 0.00 2058.80 386.00" xmlns="http://www.w3.org/2000/svg" xmlns:xlink="http://www.w3.org/1999/xlink">
<g id="graph0" class="graph" transform="scale(1 1) rotate(0) translate(4 382)">
<title>src/Engine/Entity/Entity.cpp</title>
<polygon fill="#ffffff" stroke="transparent" points="-4,4 -4,-382 2054.7955,-382 2054.7955,4 -4,4"/>
<!-- Node0 -->
<g id="node1" class="node">
<title>Node0</title>
<polygon fill="#bfbfbf" stroke="#000000" points="795.5,-358.5 795.5,-377.5 944.5,-377.5 944.5,-358.5 795.5,-358.5"/>
<text text-anchor="middle" x="870" y="-365.5" font-family="Helvetica,sans-Serif" font-size="10.00" fill="#000000">src/Engine/Entity/Entity.cpp</text>
</g>
<!-- Node1 -->
<g id="node2" class="node">
<title>Node1</title>
<g id="a_node2"><a xlink:href="Entity_8hpp.html" target="_top" xlink:title="Engine/Entity/Entity.hpp">
<polygon fill="#ffffff" stroke="#000000" points="200,-297 200,-316 332,-316 332,-297 200,-297"/>
<text text-anchor="middle" x="266" y="-304" font-family="Helvetica,sans-Serif" font-size="10.00" fill="#000000">Engine/Entity/Entity.hpp</text>
</a>
</g>
</g>
<!-- Node0&#45;&gt;Node1 -->
<g id="edge1" class="edge">
<title>Node0&#45;&gt;Node1</title>
<path fill="none" stroke="#191970" d="M795.332,-360.3972C679.8269,-348.6363 459.0146,-326.153 342.4419,-314.2834"/>
<polygon fill="#191970" stroke="#191970" points="342.4807,-310.7693 332.1776,-313.2383 341.7716,-317.7333 342.4807,-310.7693"/>
</g>
<!-- Node22 -->
<g id="node23" class="node">
<title>Node22</title>
<g id="a_node23"><a xlink:href="LinearAlgebra_8hpp.html" target="_top" xlink:title="Core/Math/LinearAlgebra.hpp">
<polygon fill="#ffffff" stroke="#000000" points="1257,-235.5 1257,-254.5 1415,-254.5 1415,-235.5 1257,-235.5"/>
<text text-anchor="middle" x="1336" y="-242.5" font-family="Helvetica,sans-Serif" font-size="10.00" fill="#000000">Core/Math/LinearAlgebra.hpp</text>
</a>
</g>
</g>
<!-- Node0&#45;&gt;Node22 -->
<g id="edge28" class="edge">
<title>Node0&#45;&gt;Node22</title>
<path fill="none" stroke="#191970" d="M906.1785,-358.4507C989.9656,-336.3353 1197.2271,-281.6289 1289.9161,-257.1638"/>
<polygon fill="#191970" stroke="#191970" points="1291.069,-260.4794 1299.8446,-254.5432 1289.2824,-253.7112 1291.069,-260.4794"/>
</g>
<!-- Node30 -->
<g id="node31" class="node">
<title>Node30</title>
<g id="a_node31"><a xlink:href="Component_8hpp.html" target="_top" xlink:title="Engine/Component/Component.hpp">
<polygon fill="#ffffff" stroke="#000000" points="1433.5,-235.5 1433.5,-254.5 1622.5,-254.5 1622.5,-235.5 1433.5,-235.5"/>
<text text-anchor="middle" x="1528" y="-242.5" font-family="Helvetica,sans-Serif" font-size="10.00" fill="#000000">Engine/Component/Component.hpp</text>
</a>
</g>
</g>
<!-- Node0&#45;&gt;Node30 -->
<g id="edge44" class="edge">
<title>Node0&#45;&gt;Node30</title>
<path fill="none" stroke="#191970" d="M921.5682,-358.4129C971.539,-349.1188 1049.4677,-334.6144 1117,-322 1241.5506,-298.735 1387.311,-271.4019 1467.4667,-256.3618"/>
<polygon fill="#191970" stroke="#191970" points="1468.2017,-259.7851 1477.3846,-254.5008 1466.9106,-252.9052 1468.2017,-259.7851"/>
</g>
<!-- Node32 -->
<g id="node33" class="node">
<title>Node32</title>
<g id="a_node33"><a xlink:href="SignalManager_8hpp.html" target="_top" xlink:title="Engine/Managers/SignalManager\l/SignalManager.hpp">
<polygon fill="#ffffff" stroke="#000000" points="597.5,-291.5 597.5,-321.5 772.5,-321.5 772.5,-291.5 597.5,-291.5"/>
<text text-anchor="start" x="605.5" y="-309.5" font-family="Helvetica,sans-Serif" font-size="10.00" fill="#000000">Engine/Managers/SignalManager</text>
<text text-anchor="middle" x="685" y="-298.5" font-family="Helvetica,sans-Serif" font-size="10.00" fill="#000000">/SignalManager.hpp</text>
</a>
</g>
</g>
<!-- Node0&#45;&gt;Node32 -->
<g id="edge53" class="edge">
<title>Node0&#45;&gt;Node32</title>
<path fill="none" stroke="#191970" d="M841.0938,-358.3906C814.0857,-349.4123 773.0585,-335.7735 739.8431,-324.7316"/>
<polygon fill="#191970" stroke="#191970" points="740.8496,-321.378 730.2561,-321.5446 738.6414,-328.0205 740.8496,-321.378"/>
</g>
<!-- Node35 -->
<g id="node36" class="node">
<title>Node35</title>
<g id="a_node36"><a xlink:href="RadiumEngine_8hpp.html" target="_top" xlink:title="Engine/RadiumEngine.hpp">
<polygon fill="#ffffff" stroke="#000000" points="798,-235.5 798,-254.5 942,-254.5 942,-235.5 798,-235.5"/>
<text text-anchor="middle" x="870" y="-242.5" font-family="Helvetica,sans-Serif" font-size="10.00" fill="#000000">Engine/RadiumEngine.hpp</text>
</a>
</g>
</g>
<!-- Node0&#45;&gt;Node35 -->
<g id="edge64" class="edge">
<title>Node0&#45;&gt;Node35</title>
<path fill="none" stroke="#191970" d="M870,-358.3484C870,-338.2295 870,-291.4608 870,-264.7098"/>
<polygon fill="#191970" stroke="#191970" points="873.5001,-264.6067 870,-254.6068 866.5001,-264.6068 873.5001,-264.6067"/>
</g>
<!-- Node2 -->
<g id="node3" class="node">
<title>Node2</title>
<g id="a_node3"><a xlink:href="RaEngine_8hpp.html" target="_top" xlink:title="Engine/RaEngine.hpp">
<polygon fill="#ffffff" stroke="#000000" points="153.5,-174 153.5,-193 272.5,-193 272.5,-174 153.5,-174"/>
<text text-anchor="middle" x="213" y="-181" font-family="Helvetica,sans-Serif" font-size="10.00" fill="#000000">Engine/RaEngine.hpp</text>
</a>
</g>
</g>
<!-- Node1&#45;&gt;Node2 -->
<g id="edge2" class="edge">
<title>Node1&#45;&gt;Node2</title>
<path fill="none" stroke="#191970" d="M209.4602,-296.9228C165.1949,-288.1369 108.8707,-273.6636 95,-255 73.8142,-226.4937 116.7552,-207.0229 156.6462,-195.6839"/>
<polygon fill="#191970" stroke="#191970" points="157.673,-199.032 166.4136,-193.0445 155.8468,-192.2744 157.673,-199.032"/>
</g>
<!-- Node8 -->
<g id="node9" class="node">
<title>Node8</title>
<polygon fill="#ffffff" stroke="#bfbfbf" points="5,-.5 5,-19.5 53,-19.5 53,-.5 5,-.5"/>
<text text-anchor="middle" x="29" y="-7.5" font-family="Helvetica,sans-Serif" font-size="10.00" fill="#000000">thread</text>
</g>
<!-- Node1&#45;&gt;Node8 -->
<g id="edge11" class="edge">
<title>Node1&#45;&gt;Node8</title>
<path fill="none" stroke="#191970" d="M201.8001,-296.9604C163.7798,-289.42 115.6456,-276.475 77,-255 36.1783,-232.3157 0,-230.201 0,-183.5 0,-183.5 0,-183.5 0,-122 0,-88.5134 12.2995,-51.1413 20.8785,-29.1469"/>
<polygon fill="#191970" stroke="#191970" points="24.2072,-30.2517 24.721,-19.6693 17.7201,-27.6216 24.2072,-30.2517"/>
</g>
<!-- Node9 -->
<g id="node10" class="node">
<title>Node9</title>
<polygon fill="#ffffff" stroke="#bfbfbf" points="462,-235.5 462,-254.5 510,-254.5 510,-235.5 462,-235.5"/>
<text text-anchor="middle" x="486" y="-242.5" font-family="Helvetica,sans-Serif" font-size="10.00" fill="#000000">mutex</text>
</g>
<!-- Node1&#45;&gt;Node9 -->
<g id="edge9" class="edge">
<title>Node1&#45;&gt;Node9</title>
<path fill="none" stroke="#191970" d="M301.5771,-296.9916C337.2674,-287.3888 394.0463,-271.9387 452.1565,-255.1967"/>
<polygon fill="#191970" stroke="#191970" points="453.2354,-258.5283 461.8705,-252.3894 451.2919,-251.8034 453.2354,-258.5283"/>
</g>
<!-- Node10 -->
<g id="node11" class="node">
<title>Node10</title>
<polygon fill="#ffffff" stroke="#bfbfbf" points="91,-174 91,-193 135,-193 135,-174 91,-174"/>
<text text-anchor="middle" x="113" y="-181" font-family="Helvetica,sans-Serif" font-size="10.00" fill="#000000">string</text>
</g>
<!-- Node1&#45;&gt;Node10 -->
<g id="edge10" class="edge">
<title>Node1&#45;&gt;Node10</title>
<path fill="none" stroke="#191970" d="M204.654,-296.9904C158.3795,-288.4172 100.481,-274.2052 86,-255 73.8463,-238.8814 85.6747,-216.6681 97.2726,-201.2973"/>
<polygon fill="#191970" stroke="#191970" points="100.3111,-203.1071 103.8916,-193.1356 94.8743,-198.6979 100.3111,-203.1071"/>
</g>
<!-- Node11 -->
<g id="node12" class="node">
<title>Node11</title>
<polygon fill="#ffffff" stroke="#bfbfbf" points="649.5,-174 649.5,-193 696.5,-193 696.5,-174 649.5,-174"/>
<text text-anchor="middle" x="673" y="-181" font-family="Helvetica,sans-Serif" font-size="10.00" fill="#000000">vector</text>
</g>
<!-- Node1&#45;&gt;Node11 -->
<g id="edge12" class="edge">
<title>Node1&#45;&gt;Node11</title>
<path fill="none" stroke="#191970" d="M332.0892,-303.6563C450.3304,-297.8858 688.1144,-282.9173 713,-255 727.8032,-238.3934 709.587,-215.3896 693.173,-200.0044"/>
<polygon fill="#191970" stroke="#191970" points="695.2174,-197.1395 685.4126,-193.1251 690.574,-202.3777 695.2174,-197.1395"/>
</g>
<!-- Node12 -->
<g id="node13" class="node">
<title>Node12</title>
<g id="a_node13"><a xlink:href="Types_8hpp.html" target="_top" xlink:title="Core/Types.hpp">
<polygon fill="#ffffff" stroke="#000000" points="1253.5,-174 1253.5,-193 1344.5,-193 1344.5,-174 1253.5,-174"/>
<text text-anchor="middle" x="1299" y="-181" font-family="Helvetica,sans-Serif" font-size="10.00" fill="#000000">Core/Types.hpp</text>
</a>
</g>
</g>
<!-- Node1&#45;&gt;Node12 -->
<g id="edge13" class="edge">
<title>Node1&#45;&gt;Node12</title>
<path fill="none" stroke="#191970" d="M332.3852,-304.0216C455.024,-298.8859 725.1948,-284.968 951,-255 1082.427,-237.5575 1114.9657,-229.4537 1244,-199 1248.1819,-198.013 1252.5232,-196.9163 1256.8501,-195.7753"/>
<polygon fill="#191970" stroke="#191970" points="1258.1052,-199.0613 1266.8386,-193.0631 1256.2709,-192.3059 1258.1052,-199.0613"/>
</g>
<!-- Node17 -->
<g id="node18" class="node">
<title>Node17</title>
<g id="a_node18"><a xlink:href="IndexedObject_8hpp.html" target="_top" xlink:title="Core/Utils/IndexedObject.hpp">
<polygon fill="#ffffff" stroke="#000000" points="285.5,-235.5 285.5,-254.5 444.5,-254.5 444.5,-235.5 285.5,-235.5"/>
<text text-anchor="middle" x="365" y="-242.5" font-family="Helvetica,sans-Serif" font-size="10.00" fill="#000000">Core/Utils/IndexedObject.hpp</text>
</a>
</g>
</g>
<!-- Node1&#45;&gt;Node17 -->
<g id="edge19" class="edge">
<title>Node1&#45;&gt;Node17</title>
<path fill="none" stroke="#191970" d="M281.4688,-296.8906C297.4521,-286.9616 322.6103,-271.333 341.1433,-259.8201"/>
<polygon fill="#191970" stroke="#191970" points="342.9924,-262.7918 349.6399,-254.5419 339.2985,-256.8457 342.9924,-262.7918"/>
</g>
<!-- Node21 -->
<g id="node22" class="node">
<title>Node21</title>
<g id="a_node22"><a xlink:href="Entity_8inl.html" target="_top" xlink:title="Engine/Entity/Entity.inl">
<polygon fill="#ffffff" stroke="#000000" points="104,-235.5 104,-254.5 230,-254.5 230,-235.5 104,-235.5"/>
<text text-anchor="middle" x="167" y="-242.5" font-family="Helvetica,sans-Serif" font-size="10.00" fill="#000000">Engine/Entity/Entity.inl</text>
</a>
</g>
</g>
<!-- Node1&#45;&gt;Node21 -->
<g id="edge26" class="edge">
<title>Node1&#45;&gt;Node21</title>
<path fill="none" stroke="#191970" d="M245.4688,-296.8906C227.8739,-287.1421 203.0427,-271.8994 185.9293,-260.4521"/>
<polygon fill="#191970" stroke="#191970" points="187.5374,-257.3109 177.3108,-254.5419 183.5785,-263.0839 187.5374,-257.3109"/>
</g>
<!-- Node3 -->
<g id="node4" class="node">
<title>Node3</title>
<g id="a_node4"><a xlink:href="CoreMacros_8hpp.html" target="_top" xlink:title="Core/CoreMacros.hpp">
<polygon fill="#ffffff" stroke="#000000" points="149,-56.5 149,-75.5 269,-75.5 269,-56.5 149,-56.5"/>
<text text-anchor="middle" x="209" y="-63.5" font-family="Helvetica,sans-Serif" font-size="10.00" fill="#000000">Core/CoreMacros.hpp</text>
</a>
</g>
</g>
<!-- Node2&#45;&gt;Node3 -->
<g id="edge3" class="edge">
<title>Node2&#45;&gt;Node3</title>
<path fill="none" stroke="#191970" d="M212.6727,-173.8845C212.0193,-154.6913 210.5417,-111.286 209.6729,-85.7663"/>
<polygon fill="#191970" stroke="#191970" points="213.1702,-85.6235 209.3319,-75.7484 206.1742,-85.8617 213.1702,-85.6235"/>
</g>
<!-- Node4 -->
<g id="node5" class="node">
<title>Node4</title>
<polygon fill="#ffffff" stroke="#bfbfbf" points="170,-.5 170,-19.5 222,-19.5 222,-.5 170,-.5"/>
<text text-anchor="middle" x="196" y="-7.5" font-family="Helvetica,sans-Serif" font-size="10.00" fill="#000000">cassert</text>
</g>
<!-- Node3&#45;&gt;Node4 -->
<g id="edge4" class="edge">
<title>Node3&#45;&gt;Node4</title>
<path fill="none" stroke="#191970" d="M206.7356,-56.2455C205.0206,-48.8579 202.6088,-38.4689 200.5056,-29.4087"/>
<polygon fill="#191970" stroke="#191970" points="203.9092,-28.5922 198.2385,-19.6427 197.0905,-30.1751 203.9092,-28.5922"/>
</g>
<!-- Node5 -->
<g id="node6" class="node">
<title>Node5</title>
<polygon fill="#ffffff" stroke="#bfbfbf" points="240,-.5 240,-19.5 286,-19.5 286,-.5 240,-.5"/>
<text text-anchor="middle" x="263" y="-7.5" font-family="Helvetica,sans-Serif" font-size="10.00" fill="#000000">cstdio</text>
</g>
<!-- Node3&#45;&gt;Node5 -->
<g id="edge5" class="edge">
<title>Node3&#45;&gt;Node5</title>
<path fill="none" stroke="#191970" d="M218.4061,-56.2455C226.1493,-48.2155 237.312,-36.6394 246.5318,-27.0781"/>
<polygon fill="#191970" stroke="#191970" points="249.2798,-29.2706 253.7017,-19.6427 244.2409,-24.4117 249.2798,-29.2706"/>
</g>
<!-- Node6 -->
<g id="node7" class="node">
<title>Node6</title>
<polygon fill="#ffffff" stroke="#bfbfbf" points="304,-.5 304,-19.5 364,-19.5 364,-.5 304,-.5"/>
<text text-anchor="middle" x="334" y="-7.5" font-family="Helvetica,sans-Serif" font-size="10.00" fill="#000000">iostream</text>
</g>
<!-- Node3&#45;&gt;Node6 -->
<g id="edge6" class="edge">
<title>Node3&#45;&gt;Node6</title>
<path fill="none" stroke="#191970" d="M230.4883,-56.3733C250.644,-47.3435 280.988,-33.7494 303.618,-23.6111"/>
<polygon fill="#191970" stroke="#191970" points="305.0971,-26.7838 312.7921,-19.5011 302.2351,-20.3955 305.0971,-26.7838"/>
</g>
<!-- Node7 -->
<g id="node8" class="node">
<title>Node7</title>
<polygon fill="#ffffff" stroke="#bfbfbf" points="96,-.5 96,-19.5 152,-19.5 152,-.5 96,-.5"/>
<text text-anchor="middle" x="124" y="-7.5" font-family="Helvetica,sans-Serif" font-size="10.00" fill="#000000">sstream</text>
</g>
<!-- Node3&#45;&gt;Node7 -->
<g id="edge7" class="edge">
<title>Node3&#45;&gt;Node7</title>
<path fill="none" stroke="#191970" d="M194.1941,-56.2455C181.2744,-47.7337 162.3069,-35.2375 147.3448,-25.3801"/>
<polygon fill="#191970" stroke="#191970" points="148.9124,-22.2216 138.6362,-19.6427 145.0613,-28.067 148.9124,-22.2216"/>
</g>
<!-- Node3&#45;&gt;Node8 -->
<g id="edge8" class="edge">
<title>Node3&#45;&gt;Node8</title>
<path fill="none" stroke="#191970" d="M178.0569,-56.3733C145.992,-46.3975 96.021,-30.851 62.9037,-20.5478"/>
<polygon fill="#191970" stroke="#191970" points="63.7938,-17.1593 53.2055,-17.5306 61.7143,-23.8433 63.7938,-17.1593"/>
</g>
<!-- Node13 -->
<g id="node14" class="node">
<title>Node13</title>
<g id="a_node14"><a xlink:href="RaCore_8hpp.html" target="_top" xlink:title="Core/RaCore.hpp">
<polygon fill="#ffffff" stroke="#000000" points="733,-112.5 733,-131.5 831,-131.5 831,-112.5 733,-112.5"/>
<text text-anchor="middle" x="782" y="-119.5" font-family="Helvetica,sans-Serif" font-size="10.00" fill="#000000">Core/RaCore.hpp</text>
</a>
</g>
</g>
<!-- Node12&#45;&gt;Node13 -->
<g id="edge14" class="edge">
<title>Node12&#45;&gt;Node13</title>
<path fill="none" stroke="#191970" d="M1268.6799,-173.9284C1260.7164,-171.698 1252.0906,-169.5305 1244,-168 1100.965,-140.9411 929.8133,-129.1671 841.4018,-124.5788"/>
<polygon fill="#191970" stroke="#191970" points="841.4603,-121.0773 831.2961,-124.067 841.1063,-128.0684 841.4603,-121.0773"/>
</g>
<!-- Node14 -->
<g id="node15" class="node">
<title>Node14</title>
<polygon fill="#ffffff" stroke="#bfbfbf" points="1781.5,-112.5 1781.5,-131.5 1850.5,-131.5 1850.5,-112.5 1781.5,-112.5"/>
<text text-anchor="middle" x="1816" y="-119.5" font-family="Helvetica,sans-Serif" font-size="10.00" fill="#000000">Eigen/Core</text>
</g>
<!-- Node12&#45;&gt;Node14 -->
<g id="edge16" class="edge">
<title>Node12&#45;&gt;Node14</title>
<path fill="none" stroke="#191970" d="M1344.805,-175.2969C1360.0982,-172.7318 1377.2536,-170.0417 1393,-168 1558.0331,-146.6021 1603.8287,-158.7889 1771.4445,-132.0795"/>
<polygon fill="#191970" stroke="#191970" points="1772.032,-135.5301 1781.3456,-130.4795 1770.9153,-128.6197 1772.032,-135.5301"/>
</g>
<!-- Node15 -->
<g id="node16" class="node">
<title>Node15</title>
<polygon fill="#ffffff" stroke="#bfbfbf" points="1668.5,-112.5 1668.5,-131.5 1763.5,-131.5 1763.5,-112.5 1668.5,-112.5"/>
<text text-anchor="middle" x="1716" y="-119.5" font-family="Helvetica,sans-Serif" font-size="10.00" fill="#000000">Eigen/Geometry</text>
</g>
<!-- Node12&#45;&gt;Node15 -->
<g id="edge17" class="edge">
<title>Node12&#45;&gt;Node15</title>
<path fill="none" stroke="#191970" d="M1344.8663,-175.7299C1360.1636,-173.1936 1377.3059,-170.4112 1393,-168 1485.7333,-153.7529 1593.6865,-138.6847 1658.3421,-129.8224"/>
<polygon fill="#191970" stroke="#191970" points="1658.9052,-133.2781 1668.3382,-128.4544 1657.956,-126.3427 1658.9052,-133.2781"/>
</g>
<!-- Node16 -->
<g id="node17" class="node">
<title>Node16</title>
<polygon fill="#ffffff" stroke="#bfbfbf" points="1296,-112.5 1296,-131.5 1376,-131.5 1376,-112.5 1296,-112.5"/>
<text text-anchor="middle" x="1336" y="-119.5" font-family="Helvetica,sans-Serif" font-size="10.00" fill="#000000">Eigen/Sparse</text>
</g>
<!-- Node12&#45;&gt;Node16 -->
<g id="edge18" class="edge">
<title>Node12&#45;&gt;Node16</title>
<path fill="none" stroke="#191970" d="M1304.7813,-173.8906C1310.126,-165.0068 1318.2159,-151.5601 1324.8211,-140.5811"/>
<polygon fill="#191970" stroke="#191970" points="1327.9811,-142.118 1330.1372,-131.7449 1321.9829,-138.5093 1327.9811,-142.118"/>
</g>
<!-- Node13&#45;&gt;Node3 -->
<g id="edge15" class="edge">
<title>Node13&#45;&gt;Node3</title>
<path fill="none" stroke="#191970" d="M732.6504,-117.177C630.7014,-107.2134 396.5736,-84.3318 279.0259,-72.8437"/>
<polygon fill="#191970" stroke="#191970" points="279.3442,-69.3582 269.0511,-71.8689 278.6632,-76.325 279.3442,-69.3582"/>
</g>
<!-- Node17&#45;&gt;Node13 -->
<g id="edge20" class="edge">
<title>Node17&#45;&gt;Node13</title>
<path fill="none" stroke="#191970" d="M375.9262,-235.2556C398.6734,-215.0093 449.3957,-170.0909 454,-168 500.6938,-146.7948 641.5552,-132.8076 722.6907,-126.2746"/>
<polygon fill="#191970" stroke="#191970" points="723.0688,-129.7557 732.7613,-125.4773 722.5162,-122.7775 723.0688,-129.7557"/>
</g>
<!-- Node18 -->
<g id="node19" class="node">
<title>Node18</title>
<g id="a_node19"><a xlink:href="Index_8hpp.html" target="_top" xlink:title="Core/Utils/Index.hpp">
<polygon fill="#ffffff" stroke="#000000" points="291,-174 291,-193 407,-193 407,-174 291,-174"/>
<text text-anchor="middle" x="349" y="-181" font-family="Helvetica,sans-Serif" font-size="10.00" fill="#000000">Core/Utils/Index.hpp</text>
</a>
</g>
</g>
<!-- Node17&#45;&gt;Node18 -->
<g id="edge21" class="edge">
<title>Node17&#45;&gt;Node18</title>
<path fill="none" stroke="#191970" d="M362.5,-235.3906C360.2588,-226.776 356.9014,-213.8708 354.0955,-203.0858"/>
<polygon fill="#191970" stroke="#191970" points="357.4404,-202.0414 351.5352,-193.2449 350.6659,-203.804 357.4404,-202.0414"/>
</g>
<!-- Node18&#45;&gt;Node13 -->
<g id="edge22" class="edge">
<title>Node18&#45;&gt;Node13</title>
<path fill="none" stroke="#191970" d="M390.383,-173.9594C400.3752,-171.8308 411.0433,-169.7029 421,-168 526.6553,-149.9298 650.8212,-135.6074 722.5594,-128.0018"/>
<polygon fill="#191970" stroke="#191970" points="723.1762,-131.4563 732.7549,-126.9288 722.4435,-124.4948 723.1762,-131.4563"/>
</g>
<!-- Node19 -->
<g id="node20" class="node">
<title>Node19</title>
<polygon fill="#ffffff" stroke="#bfbfbf" points="237,-112.5 237,-131.5 281,-131.5 281,-112.5 237,-112.5"/>
<text text-anchor="middle" x="259" y="-119.5" font-family="Helvetica,sans-Serif" font-size="10.00" fill="#000000">limits</text>
</g>
<!-- Node18&#45;&gt;Node19 -->
<g id="edge23" class="edge">
<title>Node18&#45;&gt;Node19</title>
<path fill="none" stroke="#191970" d="M334.9375,-173.8906C320.6714,-164.1421 298.365,-148.8994 281.6128,-137.4521"/>
<polygon fill="#191970" stroke="#191970" points="283.1949,-134.2941 272.9638,-131.5419 279.2455,-140.0736 283.1949,-134.2941"/>
</g>
<!-- Node20 -->
<g id="node21" class="node">
<title>Node20</title>
<g id="a_node21"><a xlink:href="Index_8inl.html" target="_top" xlink:title="Core/Utils/Index.inl">
<polygon fill="#ffffff" stroke="#000000" points="299,-112.5 299,-131.5 409,-131.5 409,-112.5 299,-112.5"/>
<text text-anchor="middle" x="354" y="-119.5" font-family="Helvetica,sans-Serif" font-size="10.00" fill="#000000">Core/Utils/Index.inl</text>
</a>
</g>
</g>
<!-- Node18&#45;&gt;Node20 -->
<g id="edge24" class="edge">
<title>Node18&#45;&gt;Node20</title>
<path fill="none" stroke="#191970" d="M344.7188,-173.8906C343.7382,-165.276 344.3623,-152.3708 346.0697,-141.5858"/>
<polygon fill="#191970" stroke="#191970" points="349.5067,-142.2484 348.119,-131.7449 342.6537,-140.8213 349.5067,-142.2484"/>
</g>
<!-- Node20&#45;&gt;Node18 -->
<g id="edge25" class="edge">
<title>Node20&#45;&gt;Node18</title>
<path fill="none" stroke="#191970" d="M358.2965,-131.7449C359.2603,-140.4042 358.6222,-153.3205 356.9034,-164.0832"/>
<polygon fill="#191970" stroke="#191970" points="353.4738,-163.3847 354.8438,-173.8906 360.3244,-164.8235 353.4738,-163.3847"/>
</g>
<!-- Node21&#45;&gt;Node1 -->
<g id="edge27" class="edge">
<title>Node21&#45;&gt;Node1</title>
<path fill="none" stroke="#191970" d="M187.4094,-254.5419C204.9707,-264.265 229.8029,-279.5037 246.9519,-290.9685"/>
<polygon fill="#191970" stroke="#191970" points="245.3663,-294.1249 255.5938,-296.8906 249.3233,-288.3506 245.3663,-294.1249"/>
</g>
<!-- Node22&#45;&gt;Node12 -->
<g id="edge41" class="edge">
<title>Node22&#45;&gt;Node12</title>
<path fill="none" stroke="#191970" d="M1330.2188,-235.3906C1324.874,-226.5068 1316.7841,-213.0601 1310.1789,-202.0811"/>
<polygon fill="#191970" stroke="#191970" points="1313.0171,-200.0093 1304.8628,-193.2449 1307.0189,-203.618 1313.0171,-200.0093"/>
</g>
<!-- Node22&#45;&gt;Node13 -->
<g id="edge29" class="edge">
<title>Node22&#45;&gt;Node13</title>
<path fill="none" stroke="#191970" d="M1256.8566,-238.1364C1212.591,-232.0308 1157.3642,-220.5463 1112,-199 1092.312,-189.6489 1093.8992,-176.8929 1074,-168 1033.4463,-149.8766 914.2206,-135.2299 841.2625,-127.6449"/>
<polygon fill="#191970" stroke="#191970" points="841.5928,-124.1605 831.2879,-126.6218 840.8786,-131.1239 841.5928,-124.1605"/>
</g>
<!-- Node22&#45;&gt;Node14 -->
<g id="edge30" class="edge">
<title>Node22&#45;&gt;Node14</title>
<path fill="none" stroke="#191970" d="M1415.3443,-236.0762C1534.2837,-222.6991 1745,-199 1745,-199 1771.2443,-185.7032 1792.6756,-158.4565 1804.8945,-140.2046"/>
<polygon fill="#191970" stroke="#191970" points="1807.961,-141.9067 1810.4212,-131.6014 1802.0715,-138.1233 1807.961,-141.9067"/>
</g>
<!-- Node22&#45;&gt;Node15 -->
<g id="edge31" class="edge">
<title>Node22&#45;&gt;Node15</title>
<path fill="none" stroke="#191970" d="M1415.0024,-236.0562C1529.1219,-223.0916 1726.7049,-200.456 1728,-199 1742.0563,-183.1978 1734.4719,-157.9835 1726.4345,-140.7438"/>
<polygon fill="#191970" stroke="#191970" points="1729.4615,-138.9746 1721.81,-131.6462 1723.2214,-142.1466 1729.4615,-138.9746"/>
</g>
<!-- Node22&#45;&gt;Node16 -->
<g id="edge32" class="edge">
<title>Node22&#45;&gt;Node16</title>
<path fill="none" stroke="#191970" d="M1340.9585,-235.4444C1345.378,-226.352 1351.5195,-212.1462 1354,-199 1356.5546,-185.4611 1356.5546,-181.5389 1354,-168 1352.2559,-158.7566 1348.7019,-148.9893 1345.2091,-140.844"/>
<polygon fill="#191970" stroke="#191970" points="1348.3024,-139.1923 1340.9585,-131.5556 1341.9372,-142.1052 1348.3024,-139.1923"/>
</g>
<!-- Node23 -->
<g id="node24" class="node">
<title>Node23</title>
<polygon fill="#ffffff" stroke="#bfbfbf" points="999.5,-174 999.5,-193 1064.5,-193 1064.5,-174 999.5,-174"/>
<text text-anchor="middle" x="1032" y="-181" font-family="Helvetica,sans-Serif" font-size="10.00" fill="#000000">functional</text>
</g>
<!-- Node22&#45;&gt;Node23 -->
<g id="edge33" class="edge">
<title>Node22&#45;&gt;Node23</title>
<path fill="none" stroke="#191970" d="M1267.803,-235.484C1215.6836,-227.5646 1142.2768,-215.0113 1079,-199 1075.5641,-198.1306 1072.0152,-197.1389 1068.4788,-196.087"/>
<polygon fill="#191970" stroke="#191970" points="1069.2392,-192.6577 1058.6504,-193.0142 1067.1504,-199.3388 1069.2392,-192.6577"/>
</g>
<!-- Node24 -->
<g id="node25" class="node">
<title>Node24</title>
<polygon fill="#ffffff" stroke="#bfbfbf" points="1401.5,-168.5 1401.5,-198.5 1548.5,-198.5 1548.5,-168.5 1401.5,-168.5"/>
<text text-anchor="start" x="1409.5" y="-186.5" font-family="Helvetica,sans-Serif" font-size="10.00" fill="#000000">unsupported/Eigen/Aligned</text>
<text text-anchor="middle" x="1475" y="-175.5" font-family="Helvetica,sans-Serif" font-size="10.00" fill="#000000">Vector3</text>
</g>
<!-- Node22&#45;&gt;Node24 -->
<g id="edge34" class="edge">
<title>Node22&#45;&gt;Node24</title>
<path fill="none" stroke="#191970" d="M1357.7188,-235.3906C1377.4016,-226.682 1406.9944,-213.5888 1431.5288,-202.7336"/>
<polygon fill="#191970" stroke="#191970" points="1433.268,-205.7915 1440.9968,-198.5446 1430.4357,-199.3901 1433.268,-205.7915"/>
</g>
<!-- Node25 -->
<g id="node26" class="node">
<title>Node25</title>
<g id="a_node26"><a xlink:href="Math_8hpp.html" target="_top" xlink:title="Core/Math/Math.hpp">
<polygon fill="#ffffff" stroke="#000000" points="1121,-174 1121,-193 1235,-193 1235,-174 1121,-174"/>
<text text-anchor="middle" x="1178" y="-181" font-family="Helvetica,sans-Serif" font-size="10.00" fill="#000000">Core/Math/Math.hpp</text>
</a>
</g>
</g>
<!-- Node22&#45;&gt;Node25 -->
<g id="edge35" class="edge">
<title>Node22&#45;&gt;Node25</title>
<path fill="none" stroke="#191970" d="M1311.3125,-235.3906C1284.6443,-225.0103 1241.9718,-208.4004 1212.1089,-196.7766"/>
<polygon fill="#191970" stroke="#191970" points="1213.1027,-193.4076 1202.5141,-193.0419 1210.5635,-199.9309 1213.1027,-193.4076"/>
</g>
<!-- Node29 -->
<g id="node30" class="node">
<title>Node29</title>
<g id="a_node30"><a xlink:href="LinearAlgebra_8inl.html" target="_top" xlink:title="Core/Math/LinearAlgebra.inl">
<polygon fill="#ffffff" stroke="#000000" points="1567,-174 1567,-193 1719,-193 1719,-174 1567,-174"/>
<text text-anchor="middle" x="1643" y="-181" font-family="Helvetica,sans-Serif" font-size="10.00" fill="#000000">Core/Math/LinearAlgebra.inl</text>
</a>
</g>
</g>
<!-- Node22&#45;&gt;Node29 -->
<g id="edge42" class="edge">
<title>Node22&#45;&gt;Node29</title>
<path fill="none" stroke="#191970" d="M1378.5826,-235.4581C1430.9662,-224.5345 1520.1321,-206.6492 1580.3226,-194.9749"/>
<polygon fill="#191970" stroke="#191970" points="1581.3116,-198.3486 1590.4652,-193.0137 1579.9826,-191.4759 1581.3116,-198.3486"/>
</g>
<!-- Node25&#45;&gt;Node13 -->
<g id="edge36" class="edge">
<title>Node25&#45;&gt;Node13</title>
<path fill="none" stroke="#191970" d="M1136.8055,-173.964C1127.0608,-171.859 1116.6859,-169.7403 1107,-168 1014.6291,-151.4039 906.6021,-137.1235 841.291,-129.0477"/>
<polygon fill="#191970" stroke="#191970" points="841.5371,-125.5517 831.1847,-127.8055 840.683,-132.4994 841.5371,-125.5517"/>
</g>
<!-- Node26 -->
<g id="node27" class="node">
<title>Node26</title>
<polygon fill="#ffffff" stroke="#bfbfbf" points="999,-112.5 999,-131.5 1063,-131.5 1063,-112.5 999,-112.5"/>
<text text-anchor="middle" x="1031" y="-119.5" font-family="Helvetica,sans-Serif" font-size="10.00" fill="#000000">algorithm</text>
</g>
<!-- Node25&#45;&gt;Node26 -->
<g id="edge37" class="edge">
<title>Node25&#45;&gt;Node26</title>
<path fill="none" stroke="#191970" d="M1155.0313,-173.8906C1130.3276,-163.5554 1090.863,-147.0447 1063.0973,-135.4284"/>
<polygon fill="#191970" stroke="#191970" points="1064.3835,-132.1727 1053.8075,-131.5419 1061.6818,-138.6303 1064.3835,-132.1727"/>
</g>
<!-- Node27 -->
<g id="node28" class="node">
<title>Node27</title>
<polygon fill="#ffffff" stroke="#bfbfbf" points="1081.5,-112.5 1081.5,-131.5 1128.5,-131.5 1128.5,-112.5 1081.5,-112.5"/>
<text text-anchor="middle" x="1105" y="-119.5" font-family="Helvetica,sans-Serif" font-size="10.00" fill="#000000">cmath</text>
</g>
<!-- Node25&#45;&gt;Node27 -->
<g id="edge38" class="edge">
<title>Node25&#45;&gt;Node27</title>
<path fill="none" stroke="#191970" d="M1166.5938,-173.8906C1155.3031,-164.3786 1137.8033,-149.6357 1124.3381,-138.2917"/>
<polygon fill="#191970" stroke="#191970" points="1126.4699,-135.5111 1116.5671,-131.7449 1121.9598,-140.8646 1126.4699,-135.5111"/>
</g>
<!-- Node28 -->
<g id="node29" class="node">
<title>Node28</title>
<g id="a_node29"><a xlink:href="Math_8inl.html" target="_top" xlink:title="Core/Math/Math.inl">
<polygon fill="#ffffff" stroke="#000000" points="1147,-112.5 1147,-131.5 1255,-131.5 1255,-112.5 1147,-112.5"/>
<text text-anchor="middle" x="1201" y="-119.5" font-family="Helvetica,sans-Serif" font-size="10.00" fill="#000000">Core/Math/Math.inl</text>
</a>
</g>
</g>
<!-- Node25&#45;&gt;Node28 -->
<g id="edge39" class="edge">
<title>Node25&#45;&gt;Node28</title>
<path fill="none" stroke="#191970" d="M1176.5313,-173.8906C1178.1042,-165.0965 1182.6579,-151.8312 1187.6419,-140.9145"/>
<polygon fill="#191970" stroke="#191970" points="1190.8884,-142.2497 1192.2668,-131.7449 1184.6384,-139.0973 1190.8884,-142.2497"/>
</g>
<!-- Node28&#45;&gt;Node25 -->
<g id="edge40" class="edge">
<title>Node28&#45;&gt;Node25</title>
<path fill="none" stroke="#191970" d="M1202.4443,-131.7449C1200.8409,-140.5846 1196.2698,-153.8606 1191.2815,-164.753"/>
<polygon fill="#191970" stroke="#191970" points="1188.0498,-163.3878 1186.6563,-173.8906 1194.2952,-166.5492 1188.0498,-163.3878"/>
</g>
<!-- Node29&#45;&gt;Node22 -->
<g id="edge43" class="edge">
<title>Node29&#45;&gt;Node22</title>
<path fill="none" stroke="#191970" d="M1600.31,-193.0643C1547.9527,-203.9814 1458.9653,-221.831 1398.8178,-233.4979"/>
<polygon fill="#191970" stroke="#191970" points="1397.8348,-230.1231 1388.6812,-235.4581 1399.1639,-236.9957 1397.8348,-230.1231"/>
</g>
<!-- Node30&#45;&gt;Node2 -->
<g id="edge48" class="edge">
<title>Node30&#45;&gt;Node2</title>
<path fill="none" stroke="#191970" d="M1433.3616,-235.6396C1430.2046,-235.4105 1427.0773,-235.1963 1424,-235 917.2218,-202.6815 785.7666,-262.9362 282,-199 274.5474,-198.0541 266.7155,-196.6749 259.1114,-195.1236"/>
<polygon fill="#191970" stroke="#191970" points="259.8105,-191.694 249.2974,-193.007 258.3347,-198.5367 259.8105,-191.694"/>
</g>
<!-- Node30&#45;&gt;Node11 -->
<g id="edge49" class="edge">
<title>Node30&#45;&gt;Node11</title>
<path fill="none" stroke="#191970" d="M1433.3565,-235.7143C1430.201,-235.4639 1427.0754,-235.2248 1424,-235 1264.6692,-223.3516 861.0005,-237.6886 706,-199 703.8045,-198.452 701.5786,-197.7548 699.3737,-196.9607"/>
<polygon fill="#191970" stroke="#191970" points="700.5753,-193.6692 690.0003,-193.0217 697.8634,-200.1226 700.5753,-193.6692"/>
</g>
<!-- Node30&#45;&gt;Node12 -->
<g id="edge50" class="edge">
<title>Node30&#45;&gt;Node12</title>
<path fill="none" stroke="#191970" d="M1492.2188,-235.3906C1452.3064,-224.6718 1387.6603,-207.3105 1344.2628,-195.6557"/>
<polygon fill="#191970" stroke="#191970" points="1345.0956,-192.2554 1334.53,-193.0419 1343.28,-199.0159 1345.0956,-192.2554"/>
</g>
<!-- Node30&#45;&gt;Node14 -->
<g id="edge46" class="edge">
<title>Node30&#45;&gt;Node14</title>
<path fill="none" stroke="#191970" d="M1622.5913,-243.3322C1763.7954,-239.849 2016.1886,-229.401 2044,-199 2053.2998,-188.8343 2052.726,-178.6623 2044,-168 2021.3214,-140.289 1920.6382,-128.8958 1860.9149,-124.5109"/>
<polygon fill="#191970" stroke="#191970" points="1860.8449,-120.9976 1850.626,-123.7948 1860.3588,-127.9807 1860.8449,-120.9976"/>
</g>
<!-- Node30&#45;&gt;Node15 -->
<g id="edge47" class="edge">
<title>Node30&#45;&gt;Node15</title>
<path fill="none" stroke="#191970" d="M1622.7959,-238.3297C1679.2629,-232.1609 1743.2956,-220.5414 1761,-199 1776.6869,-179.9133 1755.3367,-154.7059 1737.0249,-138.4227"/>
<polygon fill="#191970" stroke="#191970" points="1738.8685,-135.3987 1728.9692,-131.6233 1734.3535,-140.748 1738.8685,-135.3987"/>
</g>
<!-- Node30&#45;&gt;Node18 -->
<g id="edge45" class="edge">
<title>Node30&#45;&gt;Node18</title>
<path fill="none" stroke="#191970" d="M1433.3601,-235.6621C1430.2036,-235.4266 1427.0768,-235.2048 1424,-235 993.545,-206.3421 883.5903,-238.5599 454,-199 441.5484,-197.8534 428.3202,-196.2255 415.6021,-194.4521"/>
<polygon fill="#191970" stroke="#191970" points="415.9326,-190.9637 405.5363,-193.0051 414.9365,-197.8925 415.9326,-190.9637"/>
</g>
<!-- Node31 -->
<g id="node32" class="node">
<title>Node31</title>
<g id="a_node32"><a xlink:href="Component_8inl.html" target="_top" xlink:title="Engine/Component/Component.inl">
<polygon fill="#ffffff" stroke="#000000" points="1851.5,-174 1851.5,-193 2034.5,-193 2034.5,-174 1851.5,-174"/>
<text text-anchor="middle" x="1943" y="-181" font-family="Helvetica,sans-Serif" font-size="10.00" fill="#000000">Engine/Component/Component.inl</text>
</a>
</g>
</g>
<!-- Node30&#45;&gt;Node31 -->
<g id="edge51" class="edge">
<title>Node30&#45;&gt;Node31</title>
<path fill="none" stroke="#191970" d="M1587.3391,-235.4581C1659.9406,-224.3766 1782.9778,-206.1304 1863.6473,-194.4723"/>
<polygon fill="#191970" stroke="#191970" points="1864.3605,-197.9057 1873.7583,-193.0137 1863.3609,-190.9775 1864.3605,-197.9057"/>
</g>
<!-- Node31&#45;&gt;Node30 -->
<g id="edge52" class="edge">
<title>Node31&#45;&gt;Node30</title>
<path fill="none" stroke="#191970" d="M1883.8457,-193.0137C1811.33,-204.083 1688.2997,-222.3287 1607.5583,-233.998"/>
<polygon fill="#191970" stroke="#191970" points="1606.8354,-230.566 1597.4377,-235.4581 1607.835,-237.4942 1606.8354,-230.566"/>
</g>
<!-- Node32&#45;&gt;Node2 -->
<g id="edge54" class="edge">
<title>Node32&#45;&gt;Node2</title>
<path fill="none" stroke="#191970" d="M597.3566,-302.5908C494.4603,-296.7702 330.9774,-283.3161 277,-255 253.7227,-242.7889 234.8271,-218.4696 223.7543,-201.606"/>
<polygon fill="#191970" stroke="#191970" points="226.7123,-199.735 218.4294,-193.1286 220.7846,-203.4584 226.7123,-199.735"/>
</g>
<!-- Node32&#45;&gt;Node9 -->
<g id="edge56" class="edge">
<title>Node32&#45;&gt;Node9</title>
<path fill="none" stroke="#191970" d="M636.3191,-291.4554C600.1867,-280.2888 551.8324,-265.3452 519.8391,-255.4578"/>
<polygon fill="#191970" stroke="#191970" points="520.6505,-252.0453 510.0629,-252.4365 518.5836,-258.7332 520.6505,-252.0453"/>
</g>
<!-- Node32&#45;&gt;Node11 -->
<g id="edge57" class="edge">
<title>Node32&#45;&gt;Node11</title>
<path fill="none" stroke="#191970" d="M713.09,-291.3218C734.078,-277.82 757.3382,-256.8747 746,-235 740.7863,-224.9413 717.7491,-209.591 698.9293,-198.2645"/>
<polygon fill="#191970" stroke="#191970" points="700.5168,-195.1373 690.1259,-193.0683 696.9586,-201.1655 700.5168,-195.1373"/>
</g>
<!-- Node32&#45;&gt;Node23 -->
<g id="edge55" class="edge">
<title>Node32&#45;&gt;Node23</title>
<path fill="none" stroke="#191970" d="M772.7309,-294.5921C837.7221,-284.8275 920.1364,-270.1844 951,-255 977.6584,-241.8845 1002.3363,-217.6279 1017.2794,-201.0371"/>
<polygon fill="#191970" stroke="#191970" points="1020.2191,-202.9921 1024.1653,-193.1595 1014.9488,-198.3852 1020.2191,-202.9921"/>
</g>
<!-- Node33 -->
<g id="node34" class="node">
<title>Node33</title>
<g id="a_node34"><a xlink:href="ItemEntry_8hpp.html" target="_top" xlink:title="Engine/ItemModel/ItemEntry.hpp">
<polygon fill="#ffffff" stroke="#000000" points="528.5,-235.5 528.5,-254.5 703.5,-254.5 703.5,-235.5 528.5,-235.5"/>
<text text-anchor="middle" x="616" y="-242.5" font-family="Helvetica,sans-Serif" font-size="10.00" fill="#000000">Engine/ItemModel/ItemEntry.hpp</text>
</a>
</g>
</g>
<!-- Node32&#45;&gt;Node33 -->
<g id="edge58" class="edge">
<title>Node32&#45;&gt;Node33</title>
<path fill="none" stroke="#191970" d="M667.9438,-291.2977C657.8671,-282.3163 645.096,-270.9334 634.7389,-261.702"/>
<polygon fill="#191970" stroke="#191970" points="636.8417,-258.8879 627.0478,-254.8469 632.1841,-264.1135 636.8417,-258.8879"/>
</g>
<!-- Node33&#45;&gt;Node2 -->
<g id="edge59" class="edge">
<title>Node33&#45;&gt;Node2</title>
<path fill="none" stroke="#191970" d="M532.6503,-235.4952C464.8951,-227.2949 366.9587,-214.3648 282,-199 275.7364,-197.8672 269.1799,-196.5576 262.706,-195.1891"/>
<polygon fill="#191970" stroke="#191970" points="263.1696,-191.7083 252.6547,-193.0073 261.6847,-198.549 263.1696,-191.7083"/>
</g>
<!-- Node33&#45;&gt;Node10 -->
<g id="edge61" class="edge">
<title>Node33&#45;&gt;Node10</title>
<path fill="none" stroke="#191970" d="M528.4937,-235.9502C525.2892,-235.6279 522.1166,-235.3102 519,-235 352.3905,-218.4148 304.9272,-245.2191 144,-199 142.2903,-198.509 140.562,-197.9246 138.8424,-197.2751"/>
<polygon fill="#191970" stroke="#191970" points="139.8359,-193.8873 129.2752,-193.0378 137.0011,-200.2876 139.8359,-193.8873"/>
</g>
<!-- Node33&#45;&gt;Node11 -->
<g id="edge62" class="edge">
<title>Node33&#45;&gt;Node11</title>
<path fill="none" stroke="#191970" d="M624.9063,-235.3906C633.4728,-226.1478 646.6169,-211.966 657.0003,-200.7628"/>
<polygon fill="#191970" stroke="#191970" points="659.7375,-202.9584 663.9682,-193.2449 654.6035,-198.2 659.7375,-202.9584"/>
</g>
<!-- Node33&#45;&gt;Node18 -->
<g id="edge60" class="edge">
<title>Node33&#45;&gt;Node18</title>
<path fill="none" stroke="#191970" d="M574.5742,-235.4581C527.6106,-224.6406 451.0067,-206.9959 400.3021,-195.3168"/>
<polygon fill="#191970" stroke="#191970" points="401.0535,-191.8983 390.523,-193.0643 399.4822,-198.7196 401.0535,-191.8983"/>
</g>
<!-- Node34 -->
<g id="node35" class="node">
<title>Node34</title>
<g id="a_node35"><a xlink:href="ItemEntry_8inl.html" target="_top" xlink:title="Engine/ItemModel/ItemEntry.inl">
<polygon fill="#ffffff" stroke="#000000" points="462.5,-174 462.5,-193 631.5,-193 631.5,-174 462.5,-174"/>
<text text-anchor="middle" x="547" y="-181" font-family="Helvetica,sans-Serif" font-size="10.00" fill="#000000">Engine/ItemModel/ItemEntry.inl</text>
</a>
</g>
</g>
<!-- Node33&#45;&gt;Node34 -->
<g id="edge63" class="edge">
<title>Node33&#45;&gt;Node34</title>
<path fill="none" stroke="#191970" d="M605.2188,-235.3906C594.6474,-225.9683 578.3175,-211.4134 565.6397,-200.1137"/>
<polygon fill="#191970" stroke="#191970" points="567.7272,-197.2858 557.9333,-193.2449 563.0696,-202.5114 567.7272,-197.2858"/>
</g>
<!-- Node35&#45;&gt;Node2 -->
<g id="edge65" class="edge">
<title>Node35&#45;&gt;Node2</title>
<path fill="none" stroke="#191970" d="M797.8133,-239.9344C651.9641,-229.6146 331.7721,-206.4979 282,-199 275.1481,-197.9678 267.9638,-196.6374 260.9266,-195.1904"/>
<polygon fill="#191970" stroke="#191970" points="261.2898,-191.6886 250.7775,-193.0082 259.8183,-198.5322 261.2898,-191.6886"/>
</g>
<!-- Node35&#45;&gt;Node10 -->
<g id="edge71" class="edge">
<title>Node35&#45;&gt;Node10</title>
<path fill="none" stroke="#191970" d="M797.701,-240.3885C771.0743,-238.6919 740.6662,-236.7563 713,-235 586.5573,-226.9732 266.327,-231.9895 144,-199 142.2825,-198.5368 140.5483,-197.9739 138.8241,-197.3405"/>
<polygon fill="#191970" stroke="#191970" points="139.8095,-193.9511 129.2453,-193.145 137.001,-200.3631 139.8095,-193.9511"/>
</g>
<!-- Node35&#45;&gt;Node11 -->
<g id="edge72" class="edge">
<title>Node35&#45;&gt;Node11</title>
<path fill="none" stroke="#191970" d="M828.9626,-235.4973C795.4212,-227.2545 747.0166,-214.2651 706,-199 704.4094,-198.408 702.7901,-197.7701 701.1653,-197.1022"/>
<polygon fill="#191970" stroke="#191970" points="702.5286,-193.8783 691.9652,-193.0624 699.7142,-200.2876 702.5286,-193.8783"/>
</g>
<!-- Node35&#45;&gt;Node12 -->
<g id="edge66" class="edge">
<title>Node35&#45;&gt;Node12</title>
<path fill="none" stroke="#191970" d="M942.1728,-237.4473C1034.1578,-227.5908 1187.9623,-210.2741 1244,-199 1248.7352,-198.0473 1253.6586,-196.8964 1258.5274,-195.6571"/>
<polygon fill="#191970" stroke="#191970" points="1259.6114,-198.9902 1268.3668,-193.0242 1257.8019,-192.2281 1259.6114,-198.9902"/>
</g>
<!-- Node36 -->
<g id="node37" class="node">
<title>Node36</title>
<g id="a_node37"><a xlink:href="Singleton_8hpp.html" target="_top" xlink:title="Core/Utils/Singleton.hpp">
<polygon fill="#ffffff" stroke="#000000" points="715,-174 715,-193 849,-193 849,-174 715,-174"/>
<text text-anchor="middle" x="782" y="-181" font-family="Helvetica,sans-Serif" font-size="10.00" fill="#000000">Core/Utils/Singleton.hpp</text>
</a>
</g>
</g>
<!-- Node35&#45;&gt;Node36 -->
<g id="edge67" class="edge">
<title>Node35&#45;&gt;Node36</title>
<path fill="none" stroke="#191970" d="M856.25,-235.3906C842.3009,-225.6421 820.4902,-210.3994 804.1103,-198.9521"/>
<polygon fill="#191970" stroke="#191970" points="805.8551,-195.9015 795.6534,-193.0419 801.8452,-201.6392 805.8551,-195.9015"/>
</g>
<!-- Node37 -->
<g id="node38" class="node">
<title>Node37</title>
<polygon fill="#ffffff" stroke="#bfbfbf" points="867,-174 867,-193 905,-193 905,-174 867,-174"/>
<text text-anchor="middle" x="886" y="-181" font-family="Helvetica,sans-Serif" font-size="10.00" fill="#000000">map</text>
</g>
<!-- Node35&#45;&gt;Node37 -->
<g id="edge69" class="edge">
<title>Node35&#45;&gt;Node37</title>
<path fill="none" stroke="#191970" d="M872.5,-235.3906C874.7412,-226.776 878.0986,-213.8708 880.9045,-203.0858"/>
<polygon fill="#191970" stroke="#191970" points="884.3341,-203.804 883.4648,-193.2449 877.5596,-202.0414 884.3341,-203.804"/>
</g>
<!-- Node38 -->
<g id="node39" class="node">
<title>Node38</title>
<polygon fill="#ffffff" stroke="#bfbfbf" points="923,-174 923,-193 981,-193 981,-174 923,-174"/>
<text text-anchor="middle" x="952" y="-181" font-family="Helvetica,sans-Serif" font-size="10.00" fill="#000000">memory</text>
</g>
<!-- Node35&#45;&gt;Node38 -->
<g id="edge70" class="edge">
<title>Node35&#45;&gt;Node38</title>
<path fill="none" stroke="#191970" d="M882.8125,-235.3906C895.6901,-225.7324 915.7584,-210.6812 930.972,-199.271"/>
<polygon fill="#191970" stroke="#191970" points="933.3775,-201.8419 939.2775,-193.0419 929.1774,-196.2419 933.3775,-201.8419"/>
</g>
<!-- Node36&#45;&gt;Node13 -->
<g id="edge68" class="edge">
<title>Node36&#45;&gt;Node13</title>
<path fill="none" stroke="#191970" d="M782,-173.8906C782,-165.3657 782,-152.6392 782,-141.9235"/>
<polygon fill="#191970" stroke="#191970" points="785.5001,-141.7448 782,-131.7449 778.5001,-141.7449 785.5001,-141.7448"/>
</g>
</g>
</svg>
