<?xml version="1.0" encoding="UTF-8" standalone="no"?>
<!DOCTYPE svg PUBLIC "-//W3C//DTD SVG 1.1//EN"
 "http://www.w3.org/Graphics/SVG/1.1/DTD/svg11.dtd">
<!-- Generated by graphviz version 2.40.1 (20161225.0304)
 -->
<!-- Title: src/Engine/Entity/Entity.hpp Pages: 1 -->
<svg width="2301pt" height="329pt"
 viewBox="0.00 0.00 2300.50 329.00" xmlns="http://www.w3.org/2000/svg" xmlns:xlink="http://www.w3.org/1999/xlink">
<g id="graph0" class="graph" transform="scale(1 1) rotate(0) translate(4 325)">
<title>src/Engine/Entity/Entity.hpp</title>
<polygon fill="#ffffff" stroke="transparent" points="-4,4 -4,-325 2296.5,-325 2296.5,4 -4,4"/>
<!-- Node21 -->
<g id="node1" class="node">
<title>Node21</title>
<polygon fill="#bfbfbf" stroke="#000000" points="1012.5,-301.5 1012.5,-320.5 1161.5,-320.5 1161.5,-301.5 1012.5,-301.5"/>
<text text-anchor="middle" x="1087" y="-308.5" font-family="Helvetica,sans-Serif" font-size="10.00" fill="#000000">src/Engine/Entity/Entity.hpp</text>
</g>
<!-- Node22 -->
<g id="node2" class="node">
<title>Node22</title>
<g id="a_node2"><a xlink:href="Component_8cpp.html" target="_top" xlink:title="src/Engine/Component\l/Component.cpp">
<polygon fill="#ffffff" stroke="#000000" points="260,-234.5 260,-264.5 386,-264.5 386,-234.5 260,-234.5"/>
<text text-anchor="start" x="268" y="-252.5" font-family="Helvetica,sans-Serif" font-size="10.00" fill="#000000">src/Engine/Component</text>
<text text-anchor="middle" x="323" y="-241.5" font-family="Helvetica,sans-Serif" font-size="10.00" fill="#000000">/Component.cpp</text>
</a>
</g>
</g>
<!-- Node21&#45;&gt;Node22 -->
<g id="edge1" class="edge">
<title>Node21&#45;&gt;Node22</title>
<path fill="none" stroke="#191970" d="M1002.038,-309.3313C871.1086,-305.8648 612.3883,-295.4594 395,-265 392.0876,-264.5919 389.1173,-264.1321 386.1231,-263.633"/>
<polygon fill="#191970" stroke="#191970" points="1002.3038,-312.8392 1012.3906,-309.598 1002.4841,-305.8416 1002.3038,-312.8392"/>
</g>
<!-- Node23 -->
<g id="node3" class="node">
<title>Node23</title>
<g id="a_node3"><a xlink:href="Entity_8inl.html" target="_top" xlink:title="src/Engine/Entity/Entity.inl">
<polygon fill="#ffffff" stroke="#000000" points="404.5,-240 404.5,-259 547.5,-259 547.5,-240 404.5,-240"/>
<text text-anchor="middle" x="476" y="-247" font-family="Helvetica,sans-Serif" font-size="10.00" fill="#000000">src/Engine/Entity/Entity.inl</text>
</a>
</g>
</g>
<!-- Node21&#45;&gt;Node23 -->
<g id="edge2" class="edge">
<title>Node21&#45;&gt;Node23</title>
<path fill="none" stroke="#191970" d="M1002.0565,-306.7659C895.271,-300.5883 706.8001,-287.3394 547,-265 535.511,-263.3939 523.1742,-261.2264 512.0072,-259.0219"/>
<polygon fill="#191970" stroke="#191970" points="1001.9484,-310.2654 1012.1319,-307.3418 1002.3479,-303.2768 1001.9484,-310.2654"/>
</g>
<!-- Node24 -->
<g id="node4" class="node">
<title>Node24</title>
<g id="a_node4"><a xlink:href="Entity_8cpp.html" target="_top" xlink:title="src/Engine/Entity/Entity.cpp">
<polygon fill="#ffffff" stroke="#000000" points="565.5,-240 565.5,-259 714.5,-259 714.5,-240 565.5,-240"/>
<text text-anchor="middle" x="640" y="-247" font-family="Helvetica,sans-Serif" font-size="10.00" fill="#000000">src/Engine/Entity/Entity.cpp</text>
</a>
</g>
</g>
<!-- Node21&#45;&gt;Node24 -->
<g id="edge4" class="edge">
<title>Node21&#45;&gt;Node24</title>
<path fill="none" stroke="#191970" d="M1002.2142,-301.273C929.3691,-292.6442 821.5952,-279.2311 728,-265 716.1908,-263.2044 703.5242,-261.0867 691.5844,-259.0031"/>
<polygon fill="#191970" stroke="#191970" points="1001.9146,-304.7619 1012.256,-302.4584 1002.7353,-297.8101 1001.9146,-304.7619"/>
</g>
<!-- Node25 -->
<g id="node5" class="node">
<title>Node25</title>
<g id="a_node5"><a xlink:href="SystemDisplay_8hpp.html" target="_top" xlink:title="src/Engine/Managers\l/SystemDisplay/SystemDisplay.hpp">
<polygon fill="#ffffff" stroke="#000000" points="808.5,-234.5 808.5,-264.5 997.5,-264.5 997.5,-234.5 808.5,-234.5"/>
<text text-anchor="start" x="816.5" y="-252.5" font-family="Helvetica,sans-Serif" font-size="10.00" fill="#000000">src/Engine/Managers</text>
<text text-anchor="middle" x="903" y="-241.5" font-family="Helvetica,sans-Serif" font-size="10.00" fill="#000000">/SystemDisplay/SystemDisplay.hpp</text>
</a>
</g>
</g>
<!-- Node21&#45;&gt;Node25 -->
<g id="edge5" class="edge">
<title>Node21&#45;&gt;Node25</title>
<path fill="none" stroke="#191970" d="M1048.3838,-298.0929C1019.0934,-288.303 978.7647,-274.8235 948.0115,-264.5446"/>
<polygon fill="#191970" stroke="#191970" points="1047.6562,-301.54 1058.25,-301.3906 1049.8753,-294.9011 1047.6562,-301.54"/>
</g>
<!-- Node28 -->
<g id="node8" class="node">
<title>Node28</title>
<g id="a_node8"><a xlink:href="LightManager_8cpp.html" target="_top" xlink:title="src/Engine/Managers\l/LightManager/LightManager.cpp">
<polygon fill="#ffffff" stroke="#000000" points="0,-162 0,-192 174,-192 174,-162 0,-162"/>
<text text-anchor="start" x="8" y="-180" font-family="Helvetica,sans-Serif" font-size="10.00" fill="#000000">src/Engine/Managers</text>
<text text-anchor="middle" x="87" y="-169" font-family="Helvetica,sans-Serif" font-size="10.00" fill="#000000">/LightManager/LightManager.cpp</text>
</a>
</g>
</g>
<!-- Node21&#45;&gt;Node28 -->
<g id="edge33" class="edge">
<title>Node21&#45;&gt;Node28</title>
<path fill="none" stroke="#191970" d="M1002.1687,-305.0786C918.8418,-298.2208 798.2475,-285.2063 756,-265 737.8464,-256.3175 741.4524,-242.0279 723,-234 612.7186,-186.0206 302.0735,-214.897 183,-198 172.0205,-196.442 160.4276,-194.3213 149.2405,-192.0241"/>
<polygon fill="#191970" stroke="#191970" points="1001.8885,-308.5673 1012.138,-305.8844 1002.4526,-301.59 1001.8885,-308.5673"/>
</g>
<!-- Node30 -->
<g id="node10" class="node">
<title>Node30</title>
<g id="a_node10"><a xlink:href="RadiumEngine_8cpp.html" target="_top" xlink:title="src/Engine/RadiumEngine.cpp">
<polygon fill="#ffffff" stroke="#000000" points="192.5,-167.5 192.5,-186.5 353.5,-186.5 353.5,-167.5 192.5,-167.5"/>
<text text-anchor="middle" x="273" y="-174.5" font-family="Helvetica,sans-Serif" font-size="10.00" fill="#000000">src/Engine/RadiumEngine.cpp</text>
</a>
</g>
</g>
<!-- Node21&#45;&gt;Node30 -->
<g id="edge34" class="edge">
<title>Node21&#45;&gt;Node30</title>
<path fill="none" stroke="#191970" d="M1002.0061,-301.8268C930.6532,-293.3205 834.7984,-279.7783 799,-265 777.2229,-256.01 778.0671,-242.2527 756,-234 591.3002,-172.4055 535.5547,-226.2606 362,-198 344.137,-195.0913 324.5342,-190.6088 308.2835,-186.531"/>
<polygon fill="#191970" stroke="#191970" points="1002.0049,-305.3507 1012.3458,-303.0448 1002.8239,-298.3988 1002.0049,-305.3507"/>
</g>
<!-- Node31 -->
<g id="node11" class="node">
<title>Node31</title>
<g id="a_node11"><a xlink:href="RenderObjectManager_8cpp.html" target="_top" xlink:title="src/Engine/Renderer\l/RenderObject/RenderObject\lManager.cpp">
<polygon fill="#ffffff" stroke="#000000" points="1071.5,-156.5 1071.5,-197.5 1224.5,-197.5 1224.5,-156.5 1071.5,-156.5"/>
<text text-anchor="start" x="1079.5" y="-185.5" font-family="Helvetica,sans-Serif" font-size="10.00" fill="#000000">src/Engine/Renderer</text>
<text text-anchor="start" x="1079.5" y="-174.5" font-family="Helvetica,sans-Serif" font-size="10.00" fill="#000000">/RenderObject/RenderObject</text>
<text text-anchor="middle" x="1148" y="-163.5" font-family="Helvetica,sans-Serif" font-size="10.00" fill="#000000">Manager.cpp</text>
</a>
</g>
</g>
<!-- Node21&#45;&gt;Node31 -->
<g id="edge36" class="edge">
<title>Node21&#45;&gt;Node31</title>
<path fill="none" stroke="#191970" d="M1089.7126,-291.0601C1092.4,-275.074 1097.3917,-252.3579 1106,-234 1112.1059,-220.9787 1121.4035,-207.9537 1129.7,-197.6482"/>
<polygon fill="#191970" stroke="#191970" points="1086.1906,-290.9393 1088.1442,-301.3525 1093.1108,-291.9939 1086.1906,-290.9393"/>
</g>
<!-- Node36 -->
<g id="node16" class="node">
<title>Node36</title>
<g id="a_node16"><a xlink:href="Camera_8inl.html" target="_top" xlink:title="src/Engine/Renderer\l/Camera/Camera.inl">
<polygon fill="#ffffff" stroke="#000000" points="1115,-234.5 1115,-264.5 1229,-264.5 1229,-234.5 1115,-234.5"/>
<text text-anchor="start" x="1123" y="-252.5" font-family="Helvetica,sans-Serif" font-size="10.00" fill="#000000">src/Engine/Renderer</text>
<text text-anchor="middle" x="1172" y="-241.5" font-family="Helvetica,sans-Serif" font-size="10.00" fill="#000000">/Camera/Camera.inl</text>
</a>
</g>
</g>
<!-- Node21&#45;&gt;Node36 -->
<g id="edge16" class="edge">
<title>Node21&#45;&gt;Node36</title>
<path fill="none" stroke="#191970" d="M1108.6828,-295.3119C1121.7496,-285.8577 1138.3028,-273.8809 1151.2067,-264.5446"/>
<polygon fill="#191970" stroke="#191970" points="1106.3314,-292.6931 1100.2813,-301.3906 1110.4347,-298.3643 1106.3314,-292.6931"/>
</g>
<!-- Node38 -->
<g id="node18" class="node">
<title>Node38</title>
<g id="a_node18"><a xlink:href="CameraManager_8cpp.html" target="_top" xlink:title="src/Engine/Managers\l/CameraManager/CameraManager.cpp">
<polygon fill="#ffffff" stroke="#000000" points="2089.5,-84 2089.5,-114 2292.5,-114 2292.5,-84 2089.5,-84"/>
<text text-anchor="start" x="2097.5" y="-102" font-family="Helvetica,sans-Serif" font-size="10.00" fill="#000000">src/Engine/Managers</text>
<text text-anchor="middle" x="2191" y="-91" font-family="Helvetica,sans-Serif" font-size="10.00" fill="#000000">/CameraManager/CameraManager.cpp</text>
</a>
</g>
</g>
<!-- Node21&#45;&gt;Node38 -->
<g id="edge32" class="edge">
<title>Node21&#45;&gt;Node38</title>
<path fill="none" stroke="#191970" d="M1144.7738,-299.0086C1173.8082,-291.6096 1208.9079,-280.5174 1238,-265 1257.2313,-254.7423 1256.0329,-242.7395 1276,-234 1441.3122,-161.6438 1901.9651,-149.4469 2080,-120 2091.0294,-118.1757 2102.6502,-116.1228 2114.0522,-114.0333"/>
<polygon fill="#191970" stroke="#191970" points="1143.6483,-295.6811 1134.7767,-301.4729 1145.3238,-302.4777 1143.6483,-295.6811"/>
</g>
<!-- Node47 -->
<g id="node27" class="node">
<title>Node47</title>
<g id="a_node27"><a xlink:href="RenderObject_8cpp.html" target="_top" xlink:title="src/Engine/Renderer\l/RenderObject/RenderObject.cpp">
<polygon fill="#ffffff" stroke="#000000" points="1285.5,-234.5 1285.5,-264.5 1458.5,-264.5 1458.5,-234.5 1285.5,-234.5"/>
<text text-anchor="start" x="1293.5" y="-252.5" font-family="Helvetica,sans-Serif" font-size="10.00" fill="#000000">src/Engine/Renderer</text>
<text text-anchor="middle" x="1372" y="-241.5" font-family="Helvetica,sans-Serif" font-size="10.00" fill="#000000">/RenderObject/RenderObject.cpp</text>
</a>
</g>
</g>
<!-- Node21&#45;&gt;Node47 -->
<g id="edge35" class="edge">
<title>Node21&#45;&gt;Node47</title>
<path fill="none" stroke="#191970" d="M1141.2401,-299.2956C1186.9925,-289.4227 1252.7682,-275.229 1302.3983,-264.5193"/>
<polygon fill="#191970" stroke="#191970" points="1140.2553,-295.9274 1131.2185,-301.4581 1141.7318,-302.7699 1140.2553,-295.9274"/>
</g>
<!-- Node48 -->
<g id="node28" class="node">
<title>Node48</title>
<g id="a_node28"><a xlink:href="GeometrySystem_8cpp.html" target="_top" xlink:title="src/Engine/System/Geometry\lSystem.cpp">
<polygon fill="#ffffff" stroke="#000000" points="1477,-234.5 1477,-264.5 1635,-264.5 1635,-234.5 1477,-234.5"/>
<text text-anchor="start" x="1485" y="-252.5" font-family="Helvetica,sans-Serif" font-size="10.00" fill="#000000">src/Engine/System/Geometry</text>
<text text-anchor="middle" x="1556" y="-241.5" font-family="Helvetica,sans-Serif" font-size="10.00" fill="#000000">System.cpp</text>
</a>
</g>
</g>
<!-- Node21&#45;&gt;Node48 -->
<g id="edge37" class="edge">
<title>Node21&#45;&gt;Node48</title>
<path fill="none" stroke="#191970" d="M1171.924,-301.9978C1249.047,-293.5189 1365.8599,-279.9185 1467,-265 1470.2584,-264.5194 1473.5811,-264.0133 1476.9356,-263.4892"/>
<polygon fill="#191970" stroke="#191970" points="1171.3405,-298.5406 1161.781,-303.1085 1172.1026,-305.499 1171.3405,-298.5406"/>
</g>
<!-- Node49 -->
<g id="node29" class="node">
<title>Node49</title>
<g id="a_node29"><a xlink:href="System_8cpp.html" target="_top" xlink:title="src/Engine/System/System.cpp">
<polygon fill="#ffffff" stroke="#000000" points="1652.5,-240 1652.5,-259 1819.5,-259 1819.5,-240 1652.5,-240"/>
<text text-anchor="middle" x="1736" y="-247" font-family="Helvetica,sans-Serif" font-size="10.00" fill="#000000">src/Engine/System/System.cpp</text>
</a>
</g>
</g>
<!-- Node21&#45;&gt;Node49 -->
<g id="edge38" class="edge">
<title>Node21&#45;&gt;Node49</title>
<path fill="none" stroke="#191970" d="M1171.5182,-306.25C1280.8584,-299.5941 1477.1136,-285.9116 1644,-265 1657.018,-263.3688 1671.0085,-261.2181 1684.0527,-259.0399"/>
<polygon fill="#191970" stroke="#191970" points="1171.3064,-302.7563 1161.5356,-306.8528 1171.7284,-309.7435 1171.3064,-302.7563"/>
</g>
<!-- Node50 -->
<g id="node30" class="node">
<title>Node50</title>
<g id="a_node30"><a xlink:href="TransformEditor_8cpp.html" target="_top" xlink:title="src/GuiBase/TransformEditor\l/TransformEditor.cpp">
<polygon fill="#ffffff" stroke="#000000" points="1837.5,-234.5 1837.5,-264.5 1992.5,-264.5 1992.5,-234.5 1837.5,-234.5"/>
<text text-anchor="start" x="1845.5" y="-252.5" font-family="Helvetica,sans-Serif" font-size="10.00" fill="#000000">src/GuiBase/TransformEditor</text>
<text text-anchor="middle" x="1915" y="-241.5" font-family="Helvetica,sans-Serif" font-size="10.00" fill="#000000">/TransformEditor.cpp</text>
</a>
</g>
</g>
<!-- Node21&#45;&gt;Node50 -->
<g id="edge39" class="edge">
<title>Node21&#45;&gt;Node50</title>
<path fill="none" stroke="#191970" d="M1171.7516,-308.8885C1309.7108,-304.7451 1591.2436,-293.3449 1828,-265 1831.0466,-264.6352 1834.1483,-264.2329 1837.2777,-263.801"/>
<polygon fill="#191970" stroke="#191970" points="1171.5594,-305.3925 1161.667,-309.186 1171.7659,-312.3895 1171.5594,-305.3925"/>
</g>
<!-- Node51 -->
<g id="node31" class="node">
<title>Node51</title>
<g id="a_node31"><a xlink:href="EntityTreeModel_8cpp.html" target="_top" xlink:title="src/GuiBase/TreeModel\l/EntityTreeModel.cpp">
<polygon fill="#ffffff" stroke="#000000" points="2010.5,-234.5 2010.5,-264.5 2137.5,-264.5 2137.5,-234.5 2010.5,-234.5"/>
<text text-anchor="start" x="2018.5" y="-252.5" font-family="Helvetica,sans-Serif" font-size="10.00" fill="#000000">src/GuiBase/TreeModel</text>
<text text-anchor="middle" x="2074" y="-241.5" font-family="Helvetica,sans-Serif" font-size="10.00" fill="#000000">/EntityTreeModel.cpp</text>
</a>
</g>
</g>
<!-- Node21&#45;&gt;Node51 -->
<g id="edge40" class="edge">
<title>Node21&#45;&gt;Node51</title>
<path fill="none" stroke="#191970" d="M1171.9985,-308.4511C1367.0653,-302.3208 1842.2574,-285.7138 2001,-265 2004.0833,-264.5977 2007.2301,-264.1345 2010.4014,-263.6256"/>
<polygon fill="#191970" stroke="#191970" points="1171.6858,-304.9591 1161.8001,-308.77 1171.9047,-311.9556 1171.6858,-304.9591"/>
</g>
<!-- Node23&#45;&gt;Node21 -->
<g id="edge3" class="edge">
<title>Node23&#45;&gt;Node21</title>
<path fill="none" stroke="#191970" d="M539.4424,-260.8615C548.0466,-262.4012 556.7423,-263.8456 565,-265 723.7691,-287.1953 910.8404,-300.417 1012.4003,-306.6455"/>
<polygon fill="#191970" stroke="#191970" points="539.8831,-257.384 529.4156,-259.0219 538.6198,-264.2691 539.8831,-257.384"/>
</g>
<!-- Node26 -->
<g id="node6" class="node">
<title>Node26</title>
<g id="a_node6"><a xlink:href="ItemEntry_8cpp.html" target="_top" xlink:title="src/Engine/ItemModel\l/ItemEntry.cpp">
<polygon fill="#ffffff" stroke="#000000" points="931,-162 931,-192 1053,-192 1053,-162 931,-162"/>
<text text-anchor="start" x="939" y="-180" font-family="Helvetica,sans-Serif" font-size="10.00" fill="#000000">src/Engine/ItemModel</text>
<text text-anchor="middle" x="992" y="-169" font-family="Helvetica,sans-Serif" font-size="10.00" fill="#000000">/ItemEntry.cpp</text>
</a>
</g>
</g>
<!-- Node25&#45;&gt;Node26 -->
<g id="edge6" class="edge">
<title>Node25&#45;&gt;Node26</title>
<path fill="none" stroke="#191970" d="M929.4136,-227.9833C943.6323,-216.4007 960.8196,-202.3998 973.5828,-192.0028"/>
<polygon fill="#191970" stroke="#191970" points="926.9835,-225.4486 921.4409,-234.478 931.4045,-230.8758 926.9835,-225.4486"/>
</g>
<!-- Node27 -->
<g id="node7" class="node">
<title>Node27</title>
<g id="a_node7"><a xlink:href="EntityManager_8cpp.html" target="_top" xlink:title="src/Engine/Managers\l/EntityManager/EntityManager.cpp">
<polygon fill="#ffffff" stroke="#000000" points="371.5,-162 371.5,-192 554.5,-192 554.5,-162 371.5,-162"/>
<text text-anchor="start" x="379.5" y="-180" font-family="Helvetica,sans-Serif" font-size="10.00" fill="#000000">src/Engine/Managers</text>
<text text-anchor="middle" x="463" y="-169" font-family="Helvetica,sans-Serif" font-size="10.00" fill="#000000">/EntityManager/EntityManager.cpp</text>
</a>
</g>
</g>
<!-- Node25&#45;&gt;Node27 -->
<g id="edge7" class="edge">
<title>Node25&#45;&gt;Node27</title>
<path fill="none" stroke="#191970" d="M798.4208,-234.2468C715.9441,-222.0985 607.7744,-205.8699 564,-198 553.8644,-196.1778 543.1865,-194.1147 532.7213,-192.0109"/>
<polygon fill="#191970" stroke="#191970" points="797.9425,-237.714 808.3455,-235.7072 798.9616,-230.7886 797.9425,-237.714"/>
</g>
<!-- Node25&#45;&gt;Node28 -->
<g id="edge8" class="edge">
<title>Node25&#45;&gt;Node28</title>
<path fill="none" stroke="#191970" d="M797.947,-237.8767C783.854,-236.4775 769.5812,-235.1421 756,-234 501.7288,-212.6166 435.7059,-233.3673 183,-198 171.9331,-196.4511 160.2447,-194.3201 148.9775,-192.0062"/>
<polygon fill="#191970" stroke="#191970" points="797.8644,-241.386 808.1647,-238.905 798.5654,-234.4212 797.8644,-241.386"/>
</g>
<!-- Node29 -->
<g id="node9" class="node">
<title>Node29</title>
<g id="a_node9"><a xlink:href="SystemDisplay_8cpp.html" target="_top" xlink:title="src/Engine/Managers\l/SystemDisplay/SystemDisplay.cpp">
<polygon fill="#ffffff" stroke="#000000" points="573,-162 573,-192 761,-192 761,-162 573,-162"/>
<text text-anchor="start" x="581" y="-180" font-family="Helvetica,sans-Serif" font-size="10.00" fill="#000000">src/Engine/Managers</text>
<text text-anchor="middle" x="667" y="-169" font-family="Helvetica,sans-Serif" font-size="10.00" fill="#000000">/SystemDisplay/SystemDisplay.cpp</text>
</a>
</g>
</g>
<!-- Node25&#45;&gt;Node29 -->
<g id="edge9" class="edge">
<title>Node25&#45;&gt;Node29</title>
<path fill="none" stroke="#191970" d="M844.3166,-231.4723C804.7506,-219.3174 753.1599,-203.4686 715.8367,-192.0028"/>
<polygon fill="#191970" stroke="#191970" points="843.5137,-234.887 854.1006,-234.478 845.5694,-228.1956 843.5137,-234.887"/>
</g>
<!-- Node25&#45;&gt;Node30 -->
<g id="edge10" class="edge">
<title>Node25&#45;&gt;Node30</title>
<path fill="none" stroke="#191970" d="M797.9505,-234.452C796.6261,-234.2982 795.3088,-234.1475 794,-234 602.5459,-212.4286 552.2829,-228.206 362,-198 344.1255,-195.1626 324.5215,-190.6878 308.2729,-186.5967"/>
<polygon fill="#191970" stroke="#191970" points="797.8742,-237.9679 808.2201,-235.685 798.7087,-231.0178 797.8742,-237.9679"/>
</g>
<!-- Node25&#45;&gt;Node31 -->
<g id="edge11" class="edge">
<title>Node25&#45;&gt;Node31</title>
<path fill="none" stroke="#191970" d="M963.3582,-231.6389C998.2854,-221.3033 1042.3801,-208.2549 1078.719,-197.5015"/>
<polygon fill="#191970" stroke="#191970" points="962.36,-228.2842 953.7642,-234.478 964.3463,-234.9965 962.36,-228.2842"/>
</g>
<!-- Node32 -->
<g id="node12" class="node">
<title>Node32</title>
<g id="a_node12"><a xlink:href="BaseApplication_8cpp.html" target="_top" xlink:title="src/GuiBase/BaseApplication.cpp">
<polygon fill="#ffffff" stroke="#000000" points="454,-89.5 454,-108.5 630,-108.5 630,-89.5 454,-89.5"/>
<text text-anchor="middle" x="542" y="-96.5" font-family="Helvetica,sans-Serif" font-size="10.00" fill="#000000">src/GuiBase/BaseApplication.cpp</text>
</a>
</g>
</g>
<!-- Node25&#45;&gt;Node32 -->
<g id="edge12" class="edge">
<title>Node25&#45;&gt;Node32</title>
<path fill="none" stroke="#191970" d="M855.1266,-230.0098C837.7043,-221.6314 818.5009,-210.7987 803,-198 784.6942,-182.8854 789.9231,-168.9083 770,-156 754.6123,-146.0302 648.4266,-121.9592 586.5367,-108.5046"/>
<polygon fill="#191970" stroke="#191970" points="854.0441,-233.3663 864.5875,-234.4089 856.9955,-227.0189 854.0441,-233.3663"/>
</g>
<!-- Node33 -->
<g id="node13" class="node">
<title>Node33</title>
<g id="a_node13"><a xlink:href="CameraManipulator_8cpp.html" target="_top" xlink:title="src/GuiBase/Viewer\l/CameraManipulator.cpp">
<polygon fill="#ffffff" stroke="#000000" points="648.5,-84 648.5,-114 783.5,-114 783.5,-84 648.5,-84"/>
<text text-anchor="start" x="656.5" y="-102" font-family="Helvetica,sans-Serif" font-size="10.00" fill="#000000">src/GuiBase/Viewer</text>
<text text-anchor="middle" x="716" y="-91" font-family="Helvetica,sans-Serif" font-size="10.00" fill="#000000">/CameraManipulator.cpp</text>
</a>
</g>
</g>
<!-- Node25&#45;&gt;Node33 -->
<g id="edge13" class="edge">
<title>Node25&#45;&gt;Node33</title>
<path fill="none" stroke="#191970" d="M881.2441,-227.0764C861.6221,-207.3714 831.5444,-178.4251 803,-156 783.2629,-140.4941 759.3101,-125.0222 741.5384,-114.1187"/>
<polygon fill="#191970" stroke="#191970" points="878.9595,-229.7441 888.4774,-234.3982 883.9393,-224.8245 878.9595,-229.7441"/>
</g>
<!-- Node34 -->
<g id="node14" class="node">
<title>Node34</title>
<g id="a_node14"><a xlink:href="GizmoManager_8cpp.html" target="_top" xlink:title="src/GuiBase/Viewer\l/Gizmo/GizmoManager.cpp">
<polygon fill="#ffffff" stroke="#000000" points="801.5,-84 801.5,-114 948.5,-114 948.5,-84 801.5,-84"/>
<text text-anchor="start" x="809.5" y="-102" font-family="Helvetica,sans-Serif" font-size="10.00" fill="#000000">src/GuiBase/Viewer</text>
<text text-anchor="middle" x="875" y="-91" font-family="Helvetica,sans-Serif" font-size="10.00" fill="#000000">/Gizmo/GizmoManager.cpp</text>
</a>
</g>
</g>
<!-- Node25&#45;&gt;Node34 -->
<g id="edge14" class="edge">
<title>Node25&#45;&gt;Node34</title>
<path fill="none" stroke="#191970" d="M895.5035,-224.4065C893.191,-216.0589 890.7859,-206.6782 889,-198 882.9469,-168.5862 878.6814,-133.7156 876.5518,-114.1962"/>
<polygon fill="#191970" stroke="#191970" points="892.2168,-225.6433 898.3297,-234.2968 898.9474,-223.72 892.2168,-225.6433"/>
</g>
<!-- Node35 -->
<g id="node15" class="node">
<title>Node35</title>
<g id="a_node15"><a xlink:href="Viewer_8cpp.html" target="_top" xlink:title="src/GuiBase/Viewer\l/Viewer.cpp">
<polygon fill="#ffffff" stroke="#000000" points="966.5,-84 966.5,-114 1077.5,-114 1077.5,-84 966.5,-84"/>
<text text-anchor="start" x="974.5" y="-102" font-family="Helvetica,sans-Serif" font-size="10.00" fill="#000000">src/GuiBase/Viewer</text>
<text text-anchor="middle" x="1022" y="-91" font-family="Helvetica,sans-Serif" font-size="10.00" fill="#000000">/Viewer.cpp</text>
</a>
</g>
</g>
<!-- Node25&#45;&gt;Node35 -->
<g id="edge15" class="edge">
<title>Node25&#45;&gt;Node35</title>
<path fill="none" stroke="#191970" d="M902.6097,-224.3599C903.5014,-204.1349 907.5913,-175.9036 922,-156 935.8861,-136.8184 958.3434,-123.1815 978.4616,-114.0661"/>
<polygon fill="#191970" stroke="#191970" points="899.1098,-224.3222 902.3975,-234.394 906.1082,-224.4702 899.1098,-224.3222"/>
</g>
<!-- Node37 -->
<g id="node17" class="node">
<title>Node37</title>
<g id="a_node17"><a xlink:href="Camera_8hpp.html" target="_top" xlink:title="src/Engine/Renderer\l/Camera/Camera.hpp">
<polygon fill="#ffffff" stroke="#000000" points="1243,-162 1243,-192 1363,-192 1363,-162 1243,-162"/>
<text text-anchor="start" x="1251" y="-180" font-family="Helvetica,sans-Serif" font-size="10.00" fill="#000000">src/Engine/Renderer</text>
<text text-anchor="middle" x="1303" y="-169" font-family="Helvetica,sans-Serif" font-size="10.00" fill="#000000">/Camera/Camera.hpp</text>
</a>
</g>
</g>
<!-- Node36&#45;&gt;Node37 -->
<g id="edge17" class="edge">
<title>Node36&#45;&gt;Node37</title>
<path fill="none" stroke="#191970" d="M1202.4242,-229.2718C1222.7974,-217.4525 1249.4725,-202.7884 1270.3011,-192.0028"/>
<polygon fill="#191970" stroke="#191970" points="1200.4045,-226.3987 1193.5506,-234.478 1203.9468,-232.4363 1200.4045,-226.3987"/>
</g>
<!-- Node37&#45;&gt;Node32 -->
<g id="edge24" class="edge">
<title>Node37&#45;&gt;Node32</title>
<path fill="none" stroke="#191970" d="M1248.5829,-159.3543C1243.3541,-158.0588 1238.1002,-156.907 1233,-156 972.6011,-109.6921 901.011,-156.0866 639,-120 619.1996,-117.2729 597.4271,-112.7055 579.5351,-108.5254"/>
<polygon fill="#191970" stroke="#191970" points="1247.9975,-162.8199 1258.5603,-161.9962 1249.7893,-156.0531 1247.9975,-162.8199"/>
</g>
<!-- Node37&#45;&gt;Node33 -->
<g id="edge25" class="edge">
<title>Node37&#45;&gt;Node33</title>
<path fill="none" stroke="#191970" d="M1248.0942,-159.3495C1243.0245,-158.0777 1237.9385,-156.9316 1233,-156 1039.7565,-119.5455 985.6306,-154.3395 792,-120 783.2389,-118.4463 774.0273,-116.3277 765.1586,-114.0313"/>
<polygon fill="#191970" stroke="#191970" points="1247.2166,-162.7377 1257.7804,-161.9271 1249.0168,-155.9731 1247.2166,-162.7377"/>
</g>
<!-- Node37&#45;&gt;Node34 -->
<g id="edge28" class="edge">
<title>Node37&#45;&gt;Node34</title>
<path fill="none" stroke="#191970" d="M1246.6,-159.2289C1242.0216,-158.0467 1237.4473,-156.9506 1233,-156 1112.0269,-130.1422 1078.4748,-143.3879 957,-120 948.1974,-118.3052 938.934,-116.2257 929.9292,-114.0412"/>
<polygon fill="#191970" stroke="#191970" points="1246.0149,-162.6964 1256.582,-161.9315 1247.8443,-155.9397 1246.0149,-162.6964"/>
</g>
<!-- Node37&#45;&gt;Node35 -->
<g id="edge31" class="edge">
<title>Node37&#45;&gt;Node35</title>
<path fill="none" stroke="#191970" d="M1244.4831,-159.2031C1240.6031,-158.0978 1236.7492,-157.0207 1233,-156 1168.0984,-138.3301 1150.6701,-138.4991 1086,-120 1079.5915,-118.1668 1072.8639,-116.1089 1066.2771,-114.0172"/>
<polygon fill="#191970" stroke="#191970" points="1243.5579,-162.5789 1254.1365,-161.9927 1245.5012,-155.854 1243.5579,-162.5789"/>
</g>
<!-- Node37&#45;&gt;Node36 -->
<g id="edge19" class="edge">
<title>Node37&#45;&gt;Node36</title>
<path fill="none" stroke="#191970" d="M1272.6122,-197.2071C1252.2464,-209.023 1225.5716,-223.6877 1204.736,-234.478"/>
<polygon fill="#191970" stroke="#191970" points="1274.6282,-200.0823 1281.4818,-192.0028 1271.0856,-194.0448 1274.6282,-200.0823"/>
</g>
<!-- Node37&#45;&gt;Node38 -->
<g id="edge18" class="edge">
<title>Node37&#45;&gt;Node38</title>
<path fill="none" stroke="#191970" d="M1360.1279,-159.4162C1365.7904,-158.0877 1371.4827,-156.9121 1377,-156 1685.6642,-104.9713 1769.3614,-157.1641 2080,-120 2092.7553,-118.474 2106.25,-116.3541 2119.2707,-114.0442"/>
<polygon fill="#191970" stroke="#191970" points="1358.8626,-156.1249 1350.012,-161.9488 1360.5627,-162.9153 1358.8626,-156.1249"/>
</g>
<!-- Node39 -->
<g id="node19" class="node">
<title>Node39</title>
<g id="a_node19"><a xlink:href="DefaultCameraManager_8hpp.html" target="_top" xlink:title="src/Engine/Managers\l/CameraManager/DefaultCamera\lManager.hpp">
<polygon fill="#ffffff" stroke="#000000" points="1576.5,-78.5 1576.5,-119.5 1753.5,-119.5 1753.5,-78.5 1576.5,-78.5"/>
<text text-anchor="start" x="1584.5" y="-107.5" font-family="Helvetica,sans-Serif" font-size="10.00" fill="#000000">src/Engine/Managers</text>
<text text-anchor="start" x="1584.5" y="-96.5" font-family="Helvetica,sans-Serif" font-size="10.00" fill="#000000">/CameraManager/DefaultCamera</text>
<text text-anchor="middle" x="1665" y="-85.5" font-family="Helvetica,sans-Serif" font-size="10.00" fill="#000000">Manager.hpp</text>
</a>
</g>
</g>
<!-- Node37&#45;&gt;Node39 -->
<g id="edge20" class="edge">
<title>Node37&#45;&gt;Node39</title>
<path fill="none" stroke="#191970" d="M1363.6503,-159.3179C1368.1559,-158.1489 1372.6419,-157.0291 1377,-156 1460.6465,-136.2484 1482.7523,-137.0054 1567,-120 1570.0701,-119.3803 1573.193,-118.7439 1576.346,-118.0963"/>
<polygon fill="#191970" stroke="#191970" points="1362.561,-155.9859 1353.7974,-161.9399 1364.3612,-162.7505 1362.561,-155.9859"/>
</g>
<!-- Node42 -->
<g id="node22" class="node">
<title>Node42</title>
<g id="a_node22"><a xlink:href="Camera_8cpp.html" target="_top" xlink:title="src/Engine/Renderer\l/Camera/Camera.cpp">
<polygon fill="#ffffff" stroke="#000000" points="1771.5,-84 1771.5,-114 1890.5,-114 1890.5,-84 1771.5,-84"/>
<text text-anchor="start" x="1779.5" y="-102" font-family="Helvetica,sans-Serif" font-size="10.00" fill="#000000">src/Engine/Renderer</text>
<text text-anchor="middle" x="1831" y="-91" font-family="Helvetica,sans-Serif" font-size="10.00" fill="#000000">/Camera/Camera.cpp</text>
</a>
</g>
</g>
<!-- Node37&#45;&gt;Node42 -->
<g id="edge23" class="edge">
<title>Node37&#45;&gt;Node42</title>
<path fill="none" stroke="#191970" d="M1361.3355,-159.3774C1366.6034,-158.1105 1371.8805,-156.9574 1377,-156 1545.929,-124.4086 1593.3776,-153.1886 1762,-120 1769.9859,-118.4282 1778.3648,-116.3007 1786.4222,-114.0011"/>
<polygon fill="#191970" stroke="#191970" points="1360.0931,-156.0816 1351.2604,-161.9325 1361.814,-162.8668 1360.0931,-156.0816"/>
</g>
<!-- Node43 -->
<g id="node23" class="node">
<title>Node43</title>
<g id="a_node23"><a xlink:href="FlightCameraManipulator_8cpp.html" target="_top" xlink:title="src/GuiBase/Viewer\l/FlightCameraManipulator.cpp">
<polygon fill="#ffffff" stroke="#000000" points="1909,-84 1909,-114 2071,-114 2071,-84 1909,-84"/>
<text text-anchor="start" x="1917" y="-102" font-family="Helvetica,sans-Serif" font-size="10.00" fill="#000000">src/GuiBase/Viewer</text>
<text text-anchor="middle" x="1990" y="-91" font-family="Helvetica,sans-Serif" font-size="10.00" fill="#000000">/FlightCameraManipulator.cpp</text>
</a>
</g>
</g>
<!-- Node37&#45;&gt;Node43 -->
<g id="edge26" class="edge">
<title>Node37&#45;&gt;Node43</title>
<path fill="none" stroke="#191970" d="M1360.3987,-159.4583C1365.9739,-158.1333 1371.5732,-156.9466 1377,-156 1606.0923,-116.0412 1668.9853,-154.2524 1899,-120 1909.424,-118.4477 1920.4213,-116.3299 1931.0285,-114.0337"/>
<polygon fill="#191970" stroke="#191970" points="1359.273,-156.1325 1350.4317,-161.9705 1360.9839,-162.9202 1359.273,-156.1325"/>
</g>
<!-- Node44 -->
<g id="node24" class="node">
<title>Node44</title>
<g id="a_node24"><a xlink:href="Gizmo_8cpp.html" target="_top" xlink:title="src/GuiBase/Viewer\l/Gizmo/Gizmo.cpp">
<polygon fill="#ffffff" stroke="#000000" points="1095.5,-84 1095.5,-114 1206.5,-114 1206.5,-84 1095.5,-84"/>
<text text-anchor="start" x="1103.5" y="-102" font-family="Helvetica,sans-Serif" font-size="10.00" fill="#000000">src/GuiBase/Viewer</text>
<text text-anchor="middle" x="1151" y="-91" font-family="Helvetica,sans-Serif" font-size="10.00" fill="#000000">/Gizmo/Gizmo.cpp</text>
</a>
</g>
</g>
<!-- Node37&#45;&gt;Node44 -->
<g id="edge27" class="edge">
<title>Node37&#45;&gt;Node44</title>
<path fill="none" stroke="#191970" d="M1264.4676,-157.2268C1238.3727,-143.836 1204.4183,-126.412 1180.4761,-114.1259"/>
<polygon fill="#191970" stroke="#191970" points="1263.1979,-160.5092 1273.6929,-161.9608 1266.3939,-154.2813 1263.1979,-160.5092"/>
</g>
<!-- Node45 -->
<g id="node25" class="node">
<title>Node45</title>
<g id="a_node25"><a xlink:href="RotateGizmo_8cpp.html" target="_top" xlink:title="src/GuiBase/Viewer\l/Gizmo/RotateGizmo.cpp">
<polygon fill="#ffffff" stroke="#000000" points="1224.5,-84 1224.5,-114 1361.5,-114 1361.5,-84 1224.5,-84"/>
<text text-anchor="start" x="1232.5" y="-102" font-family="Helvetica,sans-Serif" font-size="10.00" fill="#000000">src/GuiBase/Viewer</text>
<text text-anchor="middle" x="1293" y="-91" font-family="Helvetica,sans-Serif" font-size="10.00" fill="#000000">/Gizmo/RotateGizmo.cpp</text>
</a>
</g>
</g>
<!-- Node37&#45;&gt;Node45 -->
<g id="edge29" class="edge">
<title>Node37&#45;&gt;Node45</title>
<path fill="none" stroke="#191970" d="M1299.7676,-151.7875C1298.1819,-139.4187 1296.3239,-124.9264 1294.9563,-114.2592"/>
<polygon fill="#191970" stroke="#191970" points="1296.3286,-152.4871 1301.0719,-161.9608 1303.2718,-151.5969 1296.3286,-152.4871"/>
</g>
<!-- Node46 -->
<g id="node26" class="node">
<title>Node46</title>
<g id="a_node26"><a xlink:href="TrackballCameraManipulator_8cpp.html" target="_top" xlink:title="src/GuiBase/Viewer\l/TrackballCameraManipulator.cpp">
<polygon fill="#ffffff" stroke="#000000" points="1379.5,-84 1379.5,-114 1558.5,-114 1558.5,-84 1379.5,-84"/>
<text text-anchor="start" x="1387.5" y="-102" font-family="Helvetica,sans-Serif" font-size="10.00" fill="#000000">src/GuiBase/Viewer</text>
<text text-anchor="middle" x="1469" y="-91" font-family="Helvetica,sans-Serif" font-size="10.00" fill="#000000">/TrackballCameraManipulator.cpp</text>
</a>
</g>
</g>
<!-- Node37&#45;&gt;Node46 -->
<g id="edge30" class="edge">
<title>Node37&#45;&gt;Node46</title>
<path fill="none" stroke="#191970" d="M1344.3334,-157.5783C1372.9284,-144.1421 1410.4322,-126.5198 1436.809,-114.1259"/>
<polygon fill="#191970" stroke="#191970" points="1342.5687,-154.5403 1335.0065,-161.9608 1345.5456,-160.8758 1342.5687,-154.5403"/>
</g>
<!-- Node40 -->
<g id="node20" class="node">
<title>Node40</title>
<g id="a_node20"><a xlink:href="DefaultCameraManager_8cpp.html" target="_top" xlink:title="src/Engine/Managers\l/CameraManager/DefaultCamera\lManager.cpp">
<polygon fill="#ffffff" stroke="#000000" points="1480.5,-.5 1480.5,-41.5 1657.5,-41.5 1657.5,-.5 1480.5,-.5"/>
<text text-anchor="start" x="1488.5" y="-29.5" font-family="Helvetica,sans-Serif" font-size="10.00" fill="#000000">src/Engine/Managers</text>
<text text-anchor="start" x="1488.5" y="-18.5" font-family="Helvetica,sans-Serif" font-size="10.00" fill="#000000">/CameraManager/DefaultCamera</text>
<text text-anchor="middle" x="1569" y="-7.5" font-family="Helvetica,sans-Serif" font-size="10.00" fill="#000000">Manager.cpp</text>
</a>
</g>
</g>
<!-- Node39&#45;&gt;Node40 -->
<g id="edge21" class="edge">
<title>Node39&#45;&gt;Node40</title>
<path fill="none" stroke="#191970" d="M1631.6984,-71.9424C1619.4171,-61.9639 1605.7151,-50.831 1594.2601,-41.5239"/>
<polygon fill="#191970" stroke="#191970" points="1629.5576,-74.7127 1639.5258,-78.3022 1633.9717,-69.2798 1629.5576,-74.7127"/>
</g>
<!-- Node41 -->
<g id="node21" class="node">
<title>Node41</title>
<g id="a_node21"><a xlink:href="ForwardRenderer_8cpp.html" target="_top" xlink:title="src/Engine/Renderer\l/Renderers/ForwardRenderer.cpp">
<polygon fill="#ffffff" stroke="#000000" points="1675.5,-6 1675.5,-36 1848.5,-36 1848.5,-6 1675.5,-6"/>
<text text-anchor="start" x="1683.5" y="-24" font-family="Helvetica,sans-Serif" font-size="10.00" fill="#000000">src/Engine/Renderer</text>
<text text-anchor="middle" x="1762" y="-13" font-family="Helvetica,sans-Serif" font-size="10.00" fill="#000000">/Renderers/ForwardRenderer.cpp</text>
</a>
</g>
</g>
<!-- Node39&#45;&gt;Node41 -->
<g id="edge22" class="edge">
<title>Node39&#45;&gt;Node41</title>
<path fill="none" stroke="#191970" d="M1698.7668,-71.8473C1713.6686,-59.8644 1730.6209,-46.2327 1743.2193,-36.102"/>
<polygon fill="#191970" stroke="#191970" points="1696.3393,-69.3081 1690.7396,-78.3022 1700.7259,-74.7632 1696.3393,-69.3081"/>
</g>
</g>
</svg>
