<?xml version="1.0" encoding="UTF-8" standalone="no"?>
<!DOCTYPE svg PUBLIC "-//W3C//DTD SVG 1.1//EN"
 "http://www.w3.org/Graphics/SVG/1.1/DTD/svg11.dtd">
<!-- Generated by graphviz version 2.40.1 (20161225.0304)
 -->
<!-- Title: src/Engine/Entity/Entity.inl Pages: 1 -->
<svg width="553pt" height="364pt"
 viewBox="0.00 0.00 552.50 364.00" xmlns="http://www.w3.org/2000/svg" xmlns:xlink="http://www.w3.org/1999/xlink">
<g id="graph0" class="graph" transform="scale(1 1) rotate(0) translate(4 360)">
<title>src/Engine/Entity/Entity.inl</title>
<polygon fill="#ffffff" stroke="transparent" points="-4,4 -4,-360 548.5,-360 548.5,4 -4,4"/>
<!-- Node0 -->
<g id="node1" class="node">
<title>Node0</title>
<polygon fill="#bfbfbf" stroke="#000000" points="161,-336.5 161,-355.5 304,-355.5 304,-336.5 161,-336.5"/>
<text text-anchor="middle" x="232.5" y="-343.5" font-family="Helvetica,sans-Serif" font-size="10.00" fill="#000000">src/Engine/Entity/Entity.inl</text>
</g>
<!-- Node1 -->
<g id="node2" class="node">
<title>Node1</title>
<g id="a_node2"><a xlink:href="Entity_8hpp.html" target="_top" xlink:title="Engine/Entity/Entity.hpp">
<polygon fill="#ffffff" stroke="#000000" points="166.5,-280.5 166.5,-299.5 298.5,-299.5 298.5,-280.5 166.5,-280.5"/>
<text text-anchor="middle" x="232.5" y="-287.5" font-family="Helvetica,sans-Serif" font-size="10.00" fill="#000000">Engine/Entity/Entity.hpp</text>
</a>
</g>
</g>
<!-- Node0&#45;&gt;Node1 -->
<g id="edge1" class="edge">
<title>Node0&#45;&gt;Node1</title>
<path fill="none" stroke="#191970" d="M227.2332,-336.2455C225.8221,-328.9382 225.4179,-318.6944 226.0205,-309.7046"/>
<polygon fill="#191970" stroke="#191970" points="229.5111,-309.9945 227.2549,-299.6427 222.5632,-309.1421 229.5111,-309.9945"/>
</g>
<!-- Node1&#45;&gt;Node0 -->
<g id="edge26" class="edge">
<title>Node1&#45;&gt;Node0</title>
<path fill="none" stroke="#191970" d="M237.7451,-299.6427C239.1665,-306.9199 239.581,-317.155 238.9887,-326.1575"/>
<polygon fill="#191970" stroke="#191970" points="235.4947,-325.8972 237.7668,-336.2455 242.4439,-326.739 235.4947,-325.8972"/>
</g>
<!-- Node2 -->
<g id="node3" class="node">
<title>Node2</title>
<g id="a_node3"><a xlink:href="RaEngine_8hpp.html" target="_top" xlink:title="Engine/RaEngine.hpp">
<polygon fill="#ffffff" stroke="#000000" points="0,-112.5 0,-131.5 119,-131.5 119,-112.5 0,-112.5"/>
<text text-anchor="middle" x="59.5" y="-119.5" font-family="Helvetica,sans-Serif" font-size="10.00" fill="#000000">Engine/RaEngine.hpp</text>
</a>
</g>
</g>
<!-- Node1&#45;&gt;Node2 -->
<g id="edge2" class="edge">
<title>Node1&#45;&gt;Node2</title>
<path fill="none" stroke="#191970" d="M166.391,-283.458C113.2376,-276.7741 44.4164,-264.4273 25.5,-244 2.4229,-219.0796 5.2183,-199.6661 17.5,-168 21.8858,-156.692 30.4902,-146.463 38.7749,-138.5381"/>
<polygon fill="#191970" stroke="#191970" points="41.3301,-140.9494 46.472,-131.6859 36.6756,-135.721 41.3301,-140.9494"/>
</g>
<!-- Node8 -->
<g id="node9" class="node">
<title>Node8</title>
<polygon fill="#ffffff" stroke="#bfbfbf" points="476.5,-.5 476.5,-19.5 524.5,-19.5 524.5,-.5 476.5,-.5"/>
<text text-anchor="middle" x="500.5" y="-7.5" font-family="Helvetica,sans-Serif" font-size="10.00" fill="#000000">thread</text>
</g>
<!-- Node1&#45;&gt;Node8 -->
<g id="edge11" class="edge">
<title>Node1&#45;&gt;Node8</title>
<path fill="none" stroke="#191970" d="M298.7571,-285.235C368.5403,-279.1119 472.7687,-266.4894 505.5,-244 533.582,-224.7051 544.5,-212.0718 544.5,-178 544.5,-178 544.5,-178 544.5,-122 544.5,-87.0351 525.6933,-49.9171 512.6707,-28.4062"/>
<polygon fill="#191970" stroke="#191970" points="515.4709,-26.2845 507.1827,-19.6848 509.5463,-30.0126 515.4709,-26.2845"/>
</g>
<!-- Node9 -->
<g id="node10" class="node">
<title>Node9</title>
<polygon fill="#ffffff" stroke="#bfbfbf" points="144.5,-224.5 144.5,-243.5 192.5,-243.5 192.5,-224.5 144.5,-224.5"/>
<text text-anchor="middle" x="168.5" y="-231.5" font-family="Helvetica,sans-Serif" font-size="10.00" fill="#000000">mutex</text>
</g>
<!-- Node1&#45;&gt;Node9 -->
<g id="edge9" class="edge">
<title>Node1&#45;&gt;Node9</title>
<path fill="none" stroke="#191970" d="M221.3521,-280.2455C211.9913,-272.0549 198.4142,-260.1749 187.3651,-250.5069"/>
<polygon fill="#191970" stroke="#191970" points="189.3508,-247.5937 179.5202,-243.6427 184.7412,-252.8618 189.3508,-247.5937"/>
</g>
<!-- Node10 -->
<g id="node11" class="node">
<title>Node10</title>
<polygon fill="#ffffff" stroke="#bfbfbf" points="210.5,-224.5 210.5,-243.5 254.5,-243.5 254.5,-224.5 210.5,-224.5"/>
<text text-anchor="middle" x="232.5" y="-231.5" font-family="Helvetica,sans-Serif" font-size="10.00" fill="#000000">string</text>
</g>
<!-- Node1&#45;&gt;Node10 -->
<g id="edge10" class="edge">
<title>Node1&#45;&gt;Node10</title>
<path fill="none" stroke="#191970" d="M232.5,-280.2455C232.5,-272.9382 232.5,-262.6944 232.5,-253.7046"/>
<polygon fill="#191970" stroke="#191970" points="236.0001,-253.6426 232.5,-243.6427 229.0001,-253.6427 236.0001,-253.6426"/>
</g>
<!-- Node11 -->
<g id="node12" class="node">
<title>Node11</title>
<polygon fill="#ffffff" stroke="#bfbfbf" points="273,-224.5 273,-243.5 320,-243.5 320,-224.5 273,-224.5"/>
<text text-anchor="middle" x="296.5" y="-231.5" font-family="Helvetica,sans-Serif" font-size="10.00" fill="#000000">vector</text>
</g>
<!-- Node1&#45;&gt;Node11 -->
<g id="edge12" class="edge">
<title>Node1&#45;&gt;Node11</title>
<path fill="none" stroke="#191970" d="M243.6479,-280.2455C253.0087,-272.0549 266.5858,-260.1749 277.6349,-250.5069"/>
<polygon fill="#191970" stroke="#191970" points="280.2588,-252.8618 285.4798,-243.6427 275.6492,-247.5937 280.2588,-252.8618"/>
</g>
<!-- Node12 -->
<g id="node13" class="node">
<title>Node12</title>
<g id="a_node13"><a xlink:href="Types_8hpp.html" target="_top" xlink:title="Core/Types.hpp">
<polygon fill="#ffffff" stroke="#000000" points="35,-224.5 35,-243.5 126,-243.5 126,-224.5 35,-224.5"/>
<text text-anchor="middle" x="80.5" y="-231.5" font-family="Helvetica,sans-Serif" font-size="10.00" fill="#000000">Core/Types.hpp</text>
</a>
</g>
</g>
<!-- Node1&#45;&gt;Node12 -->
<g id="edge13" class="edge">
<title>Node1&#45;&gt;Node12</title>
<path fill="none" stroke="#191970" d="M206.3703,-280.3733C181.4232,-271.1822 143.6408,-257.2624 115.9794,-247.0713"/>
<polygon fill="#191970" stroke="#191970" points="116.8822,-243.674 106.2888,-243.5011 114.4622,-250.2424 116.8822,-243.674"/>
</g>
<!-- Node17 -->
<g id="node18" class="node">
<title>Node17</title>
<g id="a_node18"><a xlink:href="IndexedObject_8hpp.html" target="_top" xlink:title="Core/Utils/IndexedObject.hpp">
<polygon fill="#ffffff" stroke="#000000" points="338,-224.5 338,-243.5 497,-243.5 497,-224.5 338,-224.5"/>
<text text-anchor="middle" x="417.5" y="-231.5" font-family="Helvetica,sans-Serif" font-size="10.00" fill="#000000">Core/Utils/IndexedObject.hpp</text>
</a>
</g>
</g>
<!-- Node1&#45;&gt;Node17 -->
<g id="edge19" class="edge">
<title>Node1&#45;&gt;Node17</title>
<path fill="none" stroke="#191970" d="M264.3026,-280.3733C295.3317,-270.9807 342.6754,-256.6496 376.5147,-246.4064"/>
<polygon fill="#191970" stroke="#191970" points="377.5553,-249.7483 386.1124,-243.5011 375.5272,-243.0485 377.5553,-249.7483"/>
</g>
<!-- Node3 -->
<g id="node4" class="node">
<title>Node3</title>
<g id="a_node4"><a xlink:href="CoreMacros_8hpp.html" target="_top" xlink:title="Core/CoreMacros.hpp">
<polygon fill="#ffffff" stroke="#000000" points="217.5,-56.5 217.5,-75.5 337.5,-75.5 337.5,-56.5 217.5,-56.5"/>
<text text-anchor="middle" x="277.5" y="-63.5" font-family="Helvetica,sans-Serif" font-size="10.00" fill="#000000">Core/CoreMacros.hpp</text>
</a>
</g>
</g>
<!-- Node2&#45;&gt;Node3 -->
<g id="edge3" class="edge">
<title>Node2&#45;&gt;Node3</title>
<path fill="none" stroke="#191970" d="M96.9755,-112.3733C134.0103,-102.8598 190.7682,-88.2797 230.7361,-78.0127"/>
<polygon fill="#191970" stroke="#191970" points="231.6988,-81.3792 240.5135,-75.5011 229.9571,-74.5993 231.6988,-81.3792"/>
</g>
<!-- Node4 -->
<g id="node5" class="node">
<title>Node4</title>
<polygon fill="#ffffff" stroke="#bfbfbf" points="361.5,-.5 361.5,-19.5 413.5,-19.5 413.5,-.5 361.5,-.5"/>
<text text-anchor="middle" x="387.5" y="-7.5" font-family="Helvetica,sans-Serif" font-size="10.00" fill="#000000">cassert</text>
</g>
<!-- Node3&#45;&gt;Node4 -->
<g id="edge4" class="edge">
<title>Node3&#45;&gt;Node4</title>
<path fill="none" stroke="#191970" d="M296.6605,-56.2455C314.0111,-47.4125 339.7901,-34.2887 359.4583,-24.2758"/>
<polygon fill="#191970" stroke="#191970" points="361.2353,-27.2986 368.559,-19.6427 358.0595,-21.0605 361.2353,-27.2986"/>
</g>
<!-- Node5 -->
<g id="node6" class="node">
<title>Node5</title>
<polygon fill="#ffffff" stroke="#bfbfbf" points="145.5,-.5 145.5,-19.5 191.5,-19.5 191.5,-.5 145.5,-.5"/>
<text text-anchor="middle" x="168.5" y="-7.5" font-family="Helvetica,sans-Serif" font-size="10.00" fill="#000000">cstdio</text>
</g>
<!-- Node3&#45;&gt;Node5 -->
<g id="edge5" class="edge">
<title>Node3&#45;&gt;Node5</title>
<path fill="none" stroke="#191970" d="M258.5136,-56.2455C241.3208,-47.4125 215.7762,-34.2887 196.2868,-24.2758"/>
<polygon fill="#191970" stroke="#191970" points="197.763,-21.0993 187.2688,-19.6427 194.5641,-27.3257 197.763,-21.0993"/>
</g>
<!-- Node6 -->
<g id="node7" class="node">
<title>Node6</title>
<polygon fill="#ffffff" stroke="#bfbfbf" points="209.5,-.5 209.5,-19.5 269.5,-19.5 269.5,-.5 209.5,-.5"/>
<text text-anchor="middle" x="239.5" y="-7.5" font-family="Helvetica,sans-Serif" font-size="10.00" fill="#000000">iostream</text>
</g>
<!-- Node3&#45;&gt;Node6 -->
<g id="edge6" class="edge">
<title>Node3&#45;&gt;Node6</title>
<path fill="none" stroke="#191970" d="M270.8809,-56.2455C265.5954,-48.4564 258.0459,-37.3308 251.6762,-27.9439"/>
<polygon fill="#191970" stroke="#191970" points="254.5545,-25.9522 246.0432,-19.6427 248.7621,-29.8827 254.5545,-25.9522"/>
</g>
<!-- Node7 -->
<g id="node8" class="node">
<title>Node7</title>
<polygon fill="#ffffff" stroke="#bfbfbf" points="287.5,-.5 287.5,-19.5 343.5,-19.5 343.5,-.5 287.5,-.5"/>
<text text-anchor="middle" x="315.5" y="-7.5" font-family="Helvetica,sans-Serif" font-size="10.00" fill="#000000">sstream</text>
</g>
<!-- Node3&#45;&gt;Node7 -->
<g id="edge7" class="edge">
<title>Node3&#45;&gt;Node7</title>
<path fill="none" stroke="#191970" d="M284.1191,-56.2455C289.4046,-48.4564 296.9541,-37.3308 303.3238,-27.9439"/>
<polygon fill="#191970" stroke="#191970" points="306.2379,-29.8827 308.9568,-19.6427 300.4455,-25.9522 306.2379,-29.8827"/>
</g>
<!-- Node3&#45;&gt;Node8 -->
<g id="edge8" class="edge">
<title>Node3&#45;&gt;Node8</title>
<path fill="none" stroke="#191970" d="M315.5817,-56.4369C358.0129,-45.7815 425.9794,-28.7137 466.6263,-18.5064"/>
<polygon fill="#191970" stroke="#191970" points="467.493,-21.8975 476.3394,-16.0672 465.7881,-15.1083 467.493,-21.8975"/>
</g>
<!-- Node13 -->
<g id="node14" class="node">
<title>Node13</title>
<g id="a_node14"><a xlink:href="RaCore_8hpp.html" target="_top" xlink:title="Core/RaCore.hpp">
<polygon fill="#ffffff" stroke="#000000" points="228.5,-112.5 228.5,-131.5 326.5,-131.5 326.5,-112.5 228.5,-112.5"/>
<text text-anchor="middle" x="277.5" y="-119.5" font-family="Helvetica,sans-Serif" font-size="10.00" fill="#000000">Core/RaCore.hpp</text>
</a>
</g>
</g>
<!-- Node12&#45;&gt;Node13 -->
<g id="edge14" class="edge">
<title>Node12&#45;&gt;Node13</title>
<path fill="none" stroke="#191970" d="M62.4448,-224.3794C40.6223,-211.527 8.7822,-188.0457 25.5,-168 49.5296,-139.187 151.3488,-128.3724 217.9809,-124.3474"/>
<polygon fill="#191970" stroke="#191970" points="218.5702,-127.8196 228.3556,-123.7579 218.1731,-120.8309 218.5702,-127.8196"/>
</g>
<!-- Node14 -->
<g id="node15" class="node">
<title>Node14</title>
<polygon fill="#ffffff" stroke="#bfbfbf" points="35,-168.5 35,-187.5 104,-187.5 104,-168.5 35,-168.5"/>
<text text-anchor="middle" x="69.5" y="-175.5" font-family="Helvetica,sans-Serif" font-size="10.00" fill="#000000">Eigen/Core</text>
</g>
<!-- Node12&#45;&gt;Node14 -->
<g id="edge16" class="edge">
<title>Node12&#45;&gt;Node14</title>
<path fill="none" stroke="#191970" d="M78.5839,-224.2455C77.1486,-216.9382 75.1364,-206.6944 73.3705,-197.7046"/>
<polygon fill="#191970" stroke="#191970" points="76.756,-196.7805 71.3941,-187.6427 69.8873,-198.1298 76.756,-196.7805"/>
</g>
<!-- Node15 -->
<g id="node16" class="node">
<title>Node15</title>
<polygon fill="#ffffff" stroke="#bfbfbf" points="122,-168.5 122,-187.5 217,-187.5 217,-168.5 122,-168.5"/>
<text text-anchor="middle" x="169.5" y="-175.5" font-family="Helvetica,sans-Serif" font-size="10.00" fill="#000000">Eigen/Geometry</text>
</g>
<!-- Node12&#45;&gt;Node15 -->
<g id="edge17" class="edge">
<title>Node12&#45;&gt;Node15</title>
<path fill="none" stroke="#191970" d="M96.0026,-224.2455C109.658,-215.6534 129.7657,-203.0014 145.4989,-193.1018"/>
<polygon fill="#191970" stroke="#191970" points="147.5751,-195.9307 154.175,-187.6427 143.8471,-190.006 147.5751,-195.9307"/>
</g>
<!-- Node16 -->
<g id="node17" class="node">
<title>Node16</title>
<polygon fill="#ffffff" stroke="#bfbfbf" points="235.5,-168.5 235.5,-187.5 315.5,-187.5 315.5,-168.5 235.5,-168.5"/>
<text text-anchor="middle" x="275.5" y="-175.5" font-family="Helvetica,sans-Serif" font-size="10.00" fill="#000000">Eigen/Sparse</text>
</g>
<!-- Node12&#45;&gt;Node16 -->
<g id="edge18" class="edge">
<title>Node12&#45;&gt;Node16</title>
<path fill="none" stroke="#191970" d="M114.0217,-224.3733C146.8683,-214.9404 197.0595,-200.5265 232.7578,-190.2747"/>
<polygon fill="#191970" stroke="#191970" points="233.7703,-193.6255 242.4157,-187.5011 231.8381,-186.8974 233.7703,-193.6255"/>
</g>
<!-- Node13&#45;&gt;Node3 -->
<g id="edge15" class="edge">
<title>Node13&#45;&gt;Node3</title>
<path fill="none" stroke="#191970" d="M277.5,-112.2455C277.5,-104.9382 277.5,-94.6944 277.5,-85.7046"/>
<polygon fill="#191970" stroke="#191970" points="281.0001,-85.6426 277.5,-75.6427 274.0001,-85.6427 281.0001,-85.6426"/>
</g>
<!-- Node17&#45;&gt;Node13 -->
<g id="edge20" class="edge">
<title>Node17&#45;&gt;Node13</title>
<path fill="none" stroke="#191970" d="M405.5637,-224.4509C381.4901,-205.1921 326.9023,-161.5218 297.3669,-137.8935"/>
<polygon fill="#191970" stroke="#191970" points="299.4013,-135.0388 289.4061,-131.5249 295.0284,-140.5049 299.4013,-135.0388"/>
</g>
<!-- Node18 -->
<g id="node19" class="node">
<title>Node18</title>
<g id="a_node19"><a xlink:href="Index_8hpp.html" target="_top" xlink:title="Core/Utils/Index.hpp">
<polygon fill="#ffffff" stroke="#000000" points="371.5,-168.5 371.5,-187.5 487.5,-187.5 487.5,-168.5 371.5,-168.5"/>
<text text-anchor="middle" x="429.5" y="-175.5" font-family="Helvetica,sans-Serif" font-size="10.00" fill="#000000">Core/Utils/Index.hpp</text>
</a>
</g>
</g>
<!-- Node17&#45;&gt;Node18 -->
<g id="edge21" class="edge">
<title>Node17&#45;&gt;Node18</title>
<path fill="none" stroke="#191970" d="M419.5902,-224.2455C421.1561,-216.9382 423.3512,-206.6944 425.2776,-197.7046"/>
<polygon fill="#191970" stroke="#191970" points="428.7607,-198.1541 427.4337,-187.6427 421.916,-196.6873 428.7607,-198.1541"/>
</g>
<!-- Node18&#45;&gt;Node13 -->
<g id="edge22" class="edge">
<title>Node18&#45;&gt;Node13</title>
<path fill="none" stroke="#191970" d="M403.3703,-168.3733C378.4232,-159.1822 340.6408,-145.2624 312.9794,-135.0713"/>
<polygon fill="#191970" stroke="#191970" points="313.8822,-131.674 303.2888,-131.5011 311.4622,-138.2424 313.8822,-131.674"/>
</g>
<!-- Node19 -->
<g id="node20" class="node">
<title>Node19</title>
<polygon fill="#ffffff" stroke="#bfbfbf" points="472.5,-112.5 472.5,-131.5 516.5,-131.5 516.5,-112.5 472.5,-112.5"/>
<text text-anchor="middle" x="494.5" y="-119.5" font-family="Helvetica,sans-Serif" font-size="10.00" fill="#000000">limits</text>
</g>
<!-- Node18&#45;&gt;Node19 -->
<g id="edge23" class="edge">
<title>Node18&#45;&gt;Node19</title>
<path fill="none" stroke="#191970" d="M440.8221,-168.2455C450.4223,-159.9746 464.3892,-147.9416 475.6695,-138.2232"/>
<polygon fill="#191970" stroke="#191970" points="478.016,-140.8214 483.3076,-131.6427 473.447,-135.5182 478.016,-140.8214"/>
</g>
<!-- Node20 -->
<g id="node21" class="node">
<title>Node20</title>
<g id="a_node21"><a xlink:href="Index_8inl.html" target="_top" xlink:title="Core/Utils/Index.inl">
<polygon fill="#ffffff" stroke="#000000" points="344.5,-112.5 344.5,-131.5 454.5,-131.5 454.5,-112.5 344.5,-112.5"/>
<text text-anchor="middle" x="399.5" y="-119.5" font-family="Helvetica,sans-Serif" font-size="10.00" fill="#000000">Core/Utils/Index.inl</text>
</a>
</g>
</g>
<!-- Node18&#45;&gt;Node20 -->
<g id="edge24" class="edge">
<title>Node18&#45;&gt;Node20</title>
<path fill="none" stroke="#191970" d="M419.0076,-168.2455C413.5648,-160.7776 407.5306,-150.2427 403.3012,-141.1137"/>
<polygon fill="#191970" stroke="#191970" points="406.4507,-139.5691 399.4206,-131.6427 399.9734,-142.2231 406.4507,-139.5691"/>
</g>
<!-- Node20&#45;&gt;Node18 -->
<g id="edge25" class="edge">
<title>Node20&#45;&gt;Node18</title>
<path fill="none" stroke="#191970" d="M409.9109,-131.6427C415.3476,-139.0798 421.3878,-149.6064 425.6352,-158.7493"/>
<polygon fill="#191970" stroke="#191970" points="422.5003,-160.3287 429.5412,-168.2455 428.9741,-157.6659 422.5003,-160.3287"/>
</g>
</g>
</svg>
