<?xml version="1.0" encoding="UTF-8" standalone="no"?>
<!DOCTYPE svg PUBLIC "-//W3C//DTD SVG 1.1//EN"
 "http://www.w3.org/Graphics/SVG/1.1/DTD/svg11.dtd">
<!-- Generated by graphviz version 2.40.1 (20161225.0304)
 -->
<!-- Title: src/GuiBase/TreeModel/EntityTreeModel.hpp Pages: 1 -->
<svg width="1387pt" height="319pt"
 viewBox="0.00 0.00 1386.50 319.00" xmlns="http://www.w3.org/2000/svg" xmlns:xlink="http://www.w3.org/1999/xlink">
<g id="graph0" class="graph" transform="scale(1 1) rotate(0) translate(4 315)">
<title>src/GuiBase/TreeModel/EntityTreeModel.hpp</title>
<polygon fill="#ffffff" stroke="transparent" points="-4,4 -4,-315 1382.5,-315 1382.5,4 -4,4"/>
<!-- Node0 -->
<g id="node1" class="node">
<title>Node0</title>
<polygon fill="#bfbfbf" stroke="#000000" points="809,-280.5 809,-310.5 936,-310.5 936,-280.5 809,-280.5"/>
<text text-anchor="start" x="817" y="-298.5" font-family="Helvetica,sans-Serif" font-size="10.00" fill="#000000">src/GuiBase/TreeModel</text>
<text text-anchor="middle" x="872.5" y="-287.5" font-family="Helvetica,sans-Serif" font-size="10.00" fill="#000000">/EntityTreeModel.hpp</text>
</g>
<!-- Node1 -->
<g id="node2" class="node">
<title>Node1</title>
<g id="a_node2"><a xlink:href="RaGuiBase_8hpp.html" target="_top" xlink:title="GuiBase/RaGuiBase.hpp">
<polygon fill="#ffffff" stroke="#000000" points="1244.5,-168.5 1244.5,-187.5 1378.5,-187.5 1378.5,-168.5 1244.5,-168.5"/>
<text text-anchor="middle" x="1311.5" y="-175.5" font-family="Helvetica,sans-Serif" font-size="10.00" fill="#000000">GuiBase/RaGuiBase.hpp</text>
</a>
</g>
</g>
<!-- Node0&#45;&gt;Node1 -->
<g id="edge1" class="edge">
<title>Node0&#45;&gt;Node1</title>
<path fill="none" stroke="#191970" d="M936.0377,-286.6627C991.0331,-278.2275 1072.377,-263.8573 1141.5,-244 1191.6288,-229.5992 1247.6386,-206.4017 1281.2019,-191.6923"/>
<polygon fill="#191970" stroke="#191970" points="1282.7265,-194.8452 1290.4578,-187.6011 1279.8965,-188.4427 1282.7265,-194.8452"/>
</g>
<!-- Node8 -->
<g id="node9" class="node">
<title>Node8</title>
<g id="a_node9"><a xlink:href="ItemEntry_8hpp.html" target="_top" xlink:title="Engine/ItemModel/ItemEntry.hpp">
<polygon fill="#ffffff" stroke="#000000" points="642,-224.5 642,-243.5 817,-243.5 817,-224.5 642,-224.5"/>
<text text-anchor="middle" x="729.5" y="-231.5" font-family="Helvetica,sans-Serif" font-size="10.00" fill="#000000">Engine/ItemModel/ItemEntry.hpp</text>
</a>
</g>
</g>
<!-- Node0&#45;&gt;Node8 -->
<g id="edge8" class="edge">
<title>Node0&#45;&gt;Node8</title>
<path fill="none" stroke="#191970" d="M837.5183,-280.4554C814.1816,-270.419 783.7502,-257.3314 761.137,-247.6061"/>
<polygon fill="#191970" stroke="#191970" points="762.2292,-244.2659 751.6599,-243.5303 759.4636,-250.6965 762.2292,-244.2659"/>
</g>
<!-- Node17 -->
<g id="node18" class="node">
<title>Node17</title>
<g id="a_node18"><a xlink:href="RadiumEngine_8hpp.html" target="_top" xlink:title="Engine/RadiumEngine.hpp">
<polygon fill="#ffffff" stroke="#000000" points="431.5,-224.5 431.5,-243.5 575.5,-243.5 575.5,-224.5 431.5,-224.5"/>
<text text-anchor="middle" x="503.5" y="-231.5" font-family="Helvetica,sans-Serif" font-size="10.00" fill="#000000">Engine/RadiumEngine.hpp</text>
</a>
</g>
</g>
<!-- Node0&#45;&gt;Node17 -->
<g id="edge20" class="edge">
<title>Node0&#45;&gt;Node17</title>
<path fill="none" stroke="#191970" d="M808.6464,-284.8577C742.1337,-273.7723 638.3697,-256.4783 570.6552,-245.1925"/>
<polygon fill="#191970" stroke="#191970" points="570.9611,-241.6953 560.5217,-243.5036 569.8103,-248.6001 570.9611,-241.6953"/>
</g>
<!-- Node25 -->
<g id="node26" class="node">
<title>Node25</title>
<g id="a_node26"><a xlink:href="TreeModel_8hpp.html" target="_top" xlink:title="GuiBase/TreeModel/TreeModel.hpp">
<polygon fill="#ffffff" stroke="#000000" points="949,-224.5 949,-243.5 1132,-243.5 1132,-224.5 949,-224.5"/>
<text text-anchor="middle" x="1040.5" y="-231.5" font-family="Helvetica,sans-Serif" font-size="10.00" fill="#000000">GuiBase/TreeModel/TreeModel.hpp</text>
</a>
</g>
</g>
<!-- Node0&#45;&gt;Node25 -->
<g id="edge33" class="edge">
<title>Node0&#45;&gt;Node25</title>
<path fill="none" stroke="#191970" d="M913.5974,-280.4554C941.5057,-270.239 978.0508,-256.8609 1004.7527,-247.0861"/>
<polygon fill="#191970" stroke="#191970" points="1006.2786,-250.2547 1014.466,-243.5303 1003.8722,-243.6813 1006.2786,-250.2547"/>
</g>
<!-- Node2 -->
<g id="node3" class="node">
<title>Node2</title>
<g id="a_node3"><a xlink:href="CoreMacros_8hpp.html" target="_top" xlink:title="Core/CoreMacros.hpp">
<polygon fill="#ffffff" stroke="#000000" points="369.5,-56.5 369.5,-75.5 489.5,-75.5 489.5,-56.5 369.5,-56.5"/>
<text text-anchor="middle" x="429.5" y="-63.5" font-family="Helvetica,sans-Serif" font-size="10.00" fill="#000000">Core/CoreMacros.hpp</text>
</a>
</g>
</g>
<!-- Node1&#45;&gt;Node2 -->
<g id="edge2" class="edge">
<title>Node1&#45;&gt;Node2</title>
<path fill="none" stroke="#191970" d="M1244.3656,-169.1482C1241.3696,-168.759 1238.4037,-168.3748 1235.5,-168 963.5812,-132.905 639.8974,-92.297 499.8395,-74.7828"/>
<polygon fill="#191970" stroke="#191970" points="500.0303,-71.2795 489.6733,-73.5117 499.1618,-78.2254 500.0303,-71.2795"/>
</g>
<!-- Node3 -->
<g id="node4" class="node">
<title>Node3</title>
<polygon fill="#ffffff" stroke="#bfbfbf" points="265.5,-.5 265.5,-19.5 317.5,-19.5 317.5,-.5 265.5,-.5"/>
<text text-anchor="middle" x="291.5" y="-7.5" font-family="Helvetica,sans-Serif" font-size="10.00" fill="#000000">cassert</text>
</g>
<!-- Node2&#45;&gt;Node3 -->
<g id="edge3" class="edge">
<title>Node2&#45;&gt;Node3</title>
<path fill="none" stroke="#191970" d="M405.777,-56.3733C383.3263,-47.2629 349.4261,-33.5062 324.3745,-23.3404"/>
<polygon fill="#191970" stroke="#191970" points="325.4957,-20.0182 314.9135,-19.5011 322.8635,-26.5045 325.4957,-20.0182"/>
</g>
<!-- Node4 -->
<g id="node5" class="node">
<title>Node4</title>
<polygon fill="#ffffff" stroke="#bfbfbf" points="335.5,-.5 335.5,-19.5 381.5,-19.5 381.5,-.5 335.5,-.5"/>
<text text-anchor="middle" x="358.5" y="-7.5" font-family="Helvetica,sans-Serif" font-size="10.00" fill="#000000">cstdio</text>
</g>
<!-- Node2&#45;&gt;Node4 -->
<g id="edge4" class="edge">
<title>Node2&#45;&gt;Node4</title>
<path fill="none" stroke="#191970" d="M417.1327,-56.2455C406.5446,-47.8943 391.0936,-35.7076 378.7107,-25.9408"/>
<polygon fill="#191970" stroke="#191970" points="380.7447,-23.0875 370.7255,-19.6427 376.4097,-28.5837 380.7447,-23.0875"/>
</g>
<!-- Node5 -->
<g id="node6" class="node">
<title>Node5</title>
<polygon fill="#ffffff" stroke="#bfbfbf" points="399.5,-.5 399.5,-19.5 459.5,-19.5 459.5,-.5 399.5,-.5"/>
<text text-anchor="middle" x="429.5" y="-7.5" font-family="Helvetica,sans-Serif" font-size="10.00" fill="#000000">iostream</text>
</g>
<!-- Node2&#45;&gt;Node5 -->
<g id="edge5" class="edge">
<title>Node2&#45;&gt;Node5</title>
<path fill="none" stroke="#191970" d="M429.5,-56.2455C429.5,-48.9382 429.5,-38.6944 429.5,-29.7046"/>
<polygon fill="#191970" stroke="#191970" points="433.0001,-29.6426 429.5,-19.6427 426.0001,-29.6427 433.0001,-29.6426"/>
</g>
<!-- Node6 -->
<g id="node7" class="node">
<title>Node6</title>
<polygon fill="#ffffff" stroke="#bfbfbf" points="477.5,-.5 477.5,-19.5 533.5,-19.5 533.5,-.5 477.5,-.5"/>
<text text-anchor="middle" x="505.5" y="-7.5" font-family="Helvetica,sans-Serif" font-size="10.00" fill="#000000">sstream</text>
</g>
<!-- Node2&#45;&gt;Node6 -->
<g id="edge6" class="edge">
<title>Node2&#45;&gt;Node6</title>
<path fill="none" stroke="#191970" d="M442.7382,-56.2455C454.181,-47.814 470.9296,-35.4729 484.2475,-25.6598"/>
<polygon fill="#191970" stroke="#191970" points="486.4391,-28.3924 492.4135,-19.6427 482.2867,-22.757 486.4391,-28.3924"/>
</g>
<!-- Node7 -->
<g id="node8" class="node">
<title>Node7</title>
<polygon fill="#ffffff" stroke="#bfbfbf" points="551.5,-.5 551.5,-19.5 599.5,-19.5 599.5,-.5 551.5,-.5"/>
<text text-anchor="middle" x="575.5" y="-7.5" font-family="Helvetica,sans-Serif" font-size="10.00" fill="#000000">thread</text>
</g>
<!-- Node2&#45;&gt;Node7 -->
<g id="edge7" class="edge">
<title>Node2&#45;&gt;Node7</title>
<path fill="none" stroke="#191970" d="M454.5983,-56.3733C478.6001,-47.1671 514.9713,-33.2165 541.5524,-23.021"/>
<polygon fill="#191970" stroke="#191970" points="543.131,-26.1642 551.2144,-19.315 540.6242,-19.6285 543.131,-26.1642"/>
</g>
<!-- Node9 -->
<g id="node10" class="node">
<title>Node9</title>
<g id="a_node10"><a xlink:href="RaEngine_8hpp.html" target="_top" xlink:title="Engine/RaEngine.hpp">
<polygon fill="#ffffff" stroke="#000000" points="370,-168.5 370,-187.5 489,-187.5 489,-168.5 370,-168.5"/>
<text text-anchor="middle" x="429.5" y="-175.5" font-family="Helvetica,sans-Serif" font-size="10.00" fill="#000000">Engine/RaEngine.hpp</text>
</a>
</g>
</g>
<!-- Node8&#45;&gt;Node9 -->
<g id="edge9" class="edge">
<title>Node8&#45;&gt;Node9</title>
<path fill="none" stroke="#191970" d="M678.269,-224.4369C626.2792,-214.7321 545.7927,-199.708 490.5319,-189.3926"/>
<polygon fill="#191970" stroke="#191970" points="490.9921,-185.9182 480.5197,-187.5237 489.7076,-192.7993 490.9921,-185.9182"/>
</g>
<!-- Node10 -->
<g id="node11" class="node">
<title>Node10</title>
<g id="a_node11"><a xlink:href="Index_8hpp.html" target="_top" xlink:title="Core/Utils/Index.hpp">
<polygon fill="#ffffff" stroke="#000000" points="645.5,-168.5 645.5,-187.5 761.5,-187.5 761.5,-168.5 645.5,-168.5"/>
<text text-anchor="middle" x="703.5" y="-175.5" font-family="Helvetica,sans-Serif" font-size="10.00" fill="#000000">Core/Utils/Index.hpp</text>
</a>
</g>
</g>
<!-- Node8&#45;&gt;Node10 -->
<g id="edge11" class="edge">
<title>Node8&#45;&gt;Node10</title>
<path fill="none" stroke="#191970" d="M724.9711,-224.2455C721.4666,-216.6973 716.5073,-206.0158 712.2377,-196.8197"/>
<polygon fill="#191970" stroke="#191970" points="715.3627,-195.2389 707.977,-187.6427 709.0136,-198.1867 715.3627,-195.2389"/>
</g>
<!-- Node14 -->
<g id="node15" class="node">
<title>Node14</title>
<polygon fill="#ffffff" stroke="#bfbfbf" points="507.5,-168.5 507.5,-187.5 551.5,-187.5 551.5,-168.5 507.5,-168.5"/>
<text text-anchor="middle" x="529.5" y="-175.5" font-family="Helvetica,sans-Serif" font-size="10.00" fill="#000000">string</text>
</g>
<!-- Node8&#45;&gt;Node14 -->
<g id="edge17" class="edge">
<title>Node8&#45;&gt;Node14</title>
<path fill="none" stroke="#191970" d="M692.4367,-224.4397C660.1818,-216.0023 611.9607,-203.1082 561.5774,-188.2338"/>
<polygon fill="#191970" stroke="#191970" points="562.3953,-184.8257 551.8126,-185.3339 560.4024,-191.536 562.3953,-184.8257"/>
</g>
<!-- Node15 -->
<g id="node16" class="node">
<title>Node15</title>
<polygon fill="#ffffff" stroke="#bfbfbf" points="967,-168.5 967,-187.5 1014,-187.5 1014,-168.5 967,-168.5"/>
<text text-anchor="middle" x="990.5" y="-175.5" font-family="Helvetica,sans-Serif" font-size="10.00" fill="#000000">vector</text>
</g>
<!-- Node8&#45;&gt;Node15 -->
<g id="edge18" class="edge">
<title>Node8&#45;&gt;Node15</title>
<path fill="none" stroke="#191970" d="M785.3976,-224.4609C829.7176,-216.5143 893.3786,-204.2516 957.0159,-188.2061"/>
<polygon fill="#191970" stroke="#191970" points="957.9898,-191.5698 966.8135,-185.7052 956.2585,-184.7873 957.9898,-191.5698"/>
</g>
<!-- Node16 -->
<g id="node17" class="node">
<title>Node16</title>
<g id="a_node17"><a xlink:href="ItemEntry_8inl.html" target="_top" xlink:title="Engine/ItemModel/ItemEntry.inl">
<polygon fill="#ffffff" stroke="#000000" points="780,-168.5 780,-187.5 949,-187.5 949,-168.5 780,-168.5"/>
<text text-anchor="middle" x="864.5" y="-175.5" font-family="Helvetica,sans-Serif" font-size="10.00" fill="#000000">Engine/ItemModel/ItemEntry.inl</text>
</a>
</g>
</g>
<!-- Node8&#45;&gt;Node16 -->
<g id="edge19" class="edge">
<title>Node8&#45;&gt;Node16</title>
<path fill="none" stroke="#191970" d="M752.7073,-224.3733C774.6699,-215.2629 807.8332,-201.5062 832.3401,-191.3404"/>
<polygon fill="#191970" stroke="#191970" points="833.6997,-194.5657 841.5955,-187.5011 831.0176,-188.0999 833.6997,-194.5657"/>
</g>
<!-- Node9&#45;&gt;Node2 -->
<g id="edge10" class="edge">
<title>Node9&#45;&gt;Node2</title>
<path fill="none" stroke="#191970" d="M429.5,-168.4509C429.5,-150.184 429.5,-109.9553 429.5,-85.6976"/>
<polygon fill="#191970" stroke="#191970" points="433.0001,-85.5249 429.5,-75.5249 426.0001,-85.5249 433.0001,-85.5249"/>
</g>
<!-- Node11 -->
<g id="node12" class="node">
<title>Node11</title>
<g id="a_node12"><a xlink:href="RaCore_8hpp.html" target="_top" xlink:title="Core/RaCore.hpp">
<polygon fill="#ffffff" stroke="#000000" points="301.5,-112.5 301.5,-131.5 399.5,-131.5 399.5,-112.5 301.5,-112.5"/>
<text text-anchor="middle" x="350.5" y="-119.5" font-family="Helvetica,sans-Serif" font-size="10.00" fill="#000000">Core/RaCore.hpp</text>
</a>
</g>
</g>
<!-- Node10&#45;&gt;Node11 -->
<g id="edge12" class="edge">
<title>Node10&#45;&gt;Node11</title>
<path fill="none" stroke="#191970" d="M645.2092,-168.7527C580.1513,-158.4319 475.437,-141.82 409.9232,-131.4269"/>
<polygon fill="#191970" stroke="#191970" points="410.1821,-127.9243 399.7572,-129.8142 409.0853,-134.8378 410.1821,-127.9243"/>
</g>
<!-- Node12 -->
<g id="node13" class="node">
<title>Node12</title>
<polygon fill="#ffffff" stroke="#bfbfbf" points="586.5,-112.5 586.5,-131.5 630.5,-131.5 630.5,-112.5 586.5,-112.5"/>
<text text-anchor="middle" x="608.5" y="-119.5" font-family="Helvetica,sans-Serif" font-size="10.00" fill="#000000">limits</text>
</g>
<!-- Node10&#45;&gt;Node12 -->
<g id="edge14" class="edge">
<title>Node10&#45;&gt;Node12</title>
<path fill="none" stroke="#191970" d="M686.9523,-168.2455C672.2401,-159.5731 650.5112,-146.7645 633.6495,-136.825"/>
<polygon fill="#191970" stroke="#191970" points="635.2502,-133.7057 624.8581,-131.6427 631.6954,-139.736 635.2502,-133.7057"/>
</g>
<!-- Node13 -->
<g id="node14" class="node">
<title>Node13</title>
<g id="a_node14"><a xlink:href="Index_8inl.html" target="_top" xlink:title="Core/Utils/Index.inl">
<polygon fill="#ffffff" stroke="#000000" points="648.5,-112.5 648.5,-131.5 758.5,-131.5 758.5,-112.5 648.5,-112.5"/>
<text text-anchor="middle" x="703.5" y="-119.5" font-family="Helvetica,sans-Serif" font-size="10.00" fill="#000000">Core/Utils/Index.inl</text>
</a>
</g>
</g>
<!-- Node10&#45;&gt;Node13 -->
<g id="edge15" class="edge">
<title>Node10&#45;&gt;Node13</title>
<path fill="none" stroke="#191970" d="M698.2332,-168.2455C696.8221,-160.9382 696.4179,-150.6944 697.0205,-141.7046"/>
<polygon fill="#191970" stroke="#191970" points="700.5111,-141.9945 698.2549,-131.6427 693.5632,-141.1421 700.5111,-141.9945"/>
</g>
<!-- Node11&#45;&gt;Node2 -->
<g id="edge13" class="edge">
<title>Node11&#45;&gt;Node2</title>
<path fill="none" stroke="#191970" d="M364.2607,-112.2455C376.1552,-103.814 393.565,-91.4729 407.4085,-81.6598"/>
<polygon fill="#191970" stroke="#191970" points="409.7628,-84.2811 415.8969,-75.6427 405.7146,-78.5704 409.7628,-84.2811"/>
</g>
<!-- Node13&#45;&gt;Node10 -->
<g id="edge16" class="edge">
<title>Node13&#45;&gt;Node10</title>
<path fill="none" stroke="#191970" d="M708.7451,-131.6427C710.1665,-138.9199 710.581,-149.155 709.9887,-158.1575"/>
<polygon fill="#191970" stroke="#191970" points="706.4947,-157.8972 708.7668,-168.2455 713.4439,-158.739 706.4947,-157.8972"/>
</g>
<!-- Node17&#45;&gt;Node9 -->
<g id="edge21" class="edge">
<title>Node17&#45;&gt;Node9</title>
<path fill="none" stroke="#191970" d="M490.6102,-224.2455C479.5746,-215.8943 463.4708,-203.7076 450.5647,-193.9408"/>
<polygon fill="#191970" stroke="#191970" points="452.3283,-190.8862 442.2421,-187.6427 448.1041,-196.4681 452.3283,-190.8862"/>
</g>
<!-- Node17&#45;&gt;Node14 -->
<g id="edge31" class="edge">
<title>Node17&#45;&gt;Node14</title>
<path fill="none" stroke="#191970" d="M508.0289,-224.2455C511.5334,-216.6973 516.4927,-206.0158 520.7623,-196.8197"/>
<polygon fill="#191970" stroke="#191970" points="523.9864,-198.1867 525.023,-187.6427 517.6373,-195.2389 523.9864,-198.1867"/>
</g>
<!-- Node17&#45;&gt;Node15 -->
<g id="edge32" class="edge">
<title>Node17&#45;&gt;Node15</title>
<path fill="none" stroke="#191970" d="M575.5836,-228.4997C680.5834,-220.1959 871.5614,-203.9188 956.9917,-187.9175"/>
<polygon fill="#191970" stroke="#191970" points="957.7404,-191.3373 966.8739,-185.968 956.3856,-184.4697 957.7404,-191.3373"/>
</g>
<!-- Node18 -->
<g id="node19" class="node">
<title>Node18</title>
<g id="a_node19"><a xlink:href="Types_8hpp.html" target="_top" xlink:title="Core/Types.hpp">
<polygon fill="#ffffff" stroke="#000000" points="108,-168.5 108,-187.5 199,-187.5 199,-168.5 108,-168.5"/>
<text text-anchor="middle" x="153.5" y="-175.5" font-family="Helvetica,sans-Serif" font-size="10.00" fill="#000000">Core/Types.hpp</text>
</a>
</g>
</g>
<!-- Node17&#45;&gt;Node18 -->
<g id="edge22" class="edge">
<title>Node17&#45;&gt;Node18</title>
<path fill="none" stroke="#191970" d="M439.2606,-224.4592C381.6701,-215.7972 294.6042,-202.4349 208.993,-188.0502"/>
<polygon fill="#191970" stroke="#191970" points="209.5457,-184.594 199.103,-186.3827 208.3819,-191.4966 209.5457,-184.594"/>
</g>
<!-- Node22 -->
<g id="node23" class="node">
<title>Node22</title>
<g id="a_node23"><a xlink:href="Singleton_8hpp.html" target="_top" xlink:title="Core/Utils/Singleton.hpp">
<polygon fill="#ffffff" stroke="#000000" points="217.5,-168.5 217.5,-187.5 351.5,-187.5 351.5,-168.5 217.5,-168.5"/>
<text text-anchor="middle" x="284.5" y="-175.5" font-family="Helvetica,sans-Serif" font-size="10.00" fill="#000000">Core/Utils/Singleton.hpp</text>
</a>
</g>
</g>
<!-- Node17&#45;&gt;Node22 -->
<g id="edge27" class="edge">
<title>Node17&#45;&gt;Node22</title>
<path fill="none" stroke="#191970" d="M465.8526,-224.3733C428.648,-214.8598 371.6297,-200.2797 331.4784,-190.0127"/>
<polygon fill="#191970" stroke="#191970" points="332.2116,-186.5877 321.6562,-187.5011 330.4773,-193.3695 332.2116,-186.5877"/>
</g>
<!-- Node23 -->
<g id="node24" class="node">
<title>Node23</title>
<polygon fill="#ffffff" stroke="#bfbfbf" points="51.5,-168.5 51.5,-187.5 89.5,-187.5 89.5,-168.5 51.5,-168.5"/>
<text text-anchor="middle" x="70.5" y="-175.5" font-family="Helvetica,sans-Serif" font-size="10.00" fill="#000000">map</text>
</g>
<!-- Node17&#45;&gt;Node23 -->
<g id="edge29" class="edge">
<title>Node17&#45;&gt;Node23</title>
<path fill="none" stroke="#191970" d="M431.3238,-230.8104C351.8116,-226.1755 220.2631,-215.1976 99.4004,-187.7448"/>
<polygon fill="#191970" stroke="#191970" points="100.1375,-184.3229 89.6058,-185.4779 98.5591,-191.1427 100.1375,-184.3229"/>
</g>
<!-- Node24 -->
<g id="node25" class="node">
<title>Node24</title>
<polygon fill="#ffffff" stroke="#bfbfbf" points="569.5,-168.5 569.5,-187.5 627.5,-187.5 627.5,-168.5 569.5,-168.5"/>
<text text-anchor="middle" x="598.5" y="-175.5" font-family="Helvetica,sans-Serif" font-size="10.00" fill="#000000">memory</text>
</g>
<!-- Node17&#45;&gt;Node24 -->
<g id="edge30" class="edge">
<title>Node17&#45;&gt;Node24</title>
<path fill="none" stroke="#191970" d="M520.0477,-224.2455C534.7599,-215.5731 556.4888,-202.7645 573.3505,-192.825"/>
<polygon fill="#191970" stroke="#191970" points="575.3046,-195.736 582.1419,-187.6427 571.7498,-189.7057 575.3046,-195.736"/>
</g>
<!-- Node18&#45;&gt;Node11 -->
<g id="edge23" class="edge">
<title>Node18&#45;&gt;Node11</title>
<path fill="none" stroke="#191970" d="M187.3655,-168.3733C220.549,-158.9404 271.255,-144.5265 307.3194,-134.2747"/>
<polygon fill="#191970" stroke="#191970" points="308.4145,-137.6021 317.0764,-131.5011 306.5005,-130.8689 308.4145,-137.6021"/>
</g>
<!-- Node19 -->
<g id="node20" class="node">
<title>Node19</title>
<polygon fill="#ffffff" stroke="#bfbfbf" points="212,-112.5 212,-131.5 281,-131.5 281,-112.5 212,-112.5"/>
<text text-anchor="middle" x="246.5" y="-119.5" font-family="Helvetica,sans-Serif" font-size="10.00" fill="#000000">Eigen/Core</text>
</g>
<!-- Node18&#45;&gt;Node19 -->
<g id="edge24" class="edge">
<title>Node18&#45;&gt;Node19</title>
<path fill="none" stroke="#191970" d="M169.6994,-168.2455C184.1018,-159.5731 205.3732,-146.7645 221.8799,-136.825"/>
<polygon fill="#191970" stroke="#191970" points="223.725,-139.7996 230.4863,-131.6427 220.114,-133.8028 223.725,-139.7996"/>
</g>
<!-- Node20 -->
<g id="node21" class="node">
<title>Node20</title>
<polygon fill="#ffffff" stroke="#bfbfbf" points="0,-112.5 0,-131.5 95,-131.5 95,-112.5 0,-112.5"/>
<text text-anchor="middle" x="47.5" y="-119.5" font-family="Helvetica,sans-Serif" font-size="10.00" fill="#000000">Eigen/Geometry</text>
</g>
<!-- Node18&#45;&gt;Node20 -->
<g id="edge25" class="edge">
<title>Node18&#45;&gt;Node20</title>
<path fill="none" stroke="#191970" d="M135.0362,-168.2455C118.3926,-159.4527 93.7007,-146.4079 74.7808,-136.4125"/>
<polygon fill="#191970" stroke="#191970" points="76.2291,-133.2193 65.7522,-131.6427 72.9592,-139.4086 76.2291,-133.2193"/>
</g>
<!-- Node21 -->
<g id="node22" class="node">
<title>Node21</title>
<polygon fill="#ffffff" stroke="#bfbfbf" points="113.5,-112.5 113.5,-131.5 193.5,-131.5 193.5,-112.5 113.5,-112.5"/>
<text text-anchor="middle" x="153.5" y="-119.5" font-family="Helvetica,sans-Serif" font-size="10.00" fill="#000000">Eigen/Sparse</text>
</g>
<!-- Node18&#45;&gt;Node21 -->
<g id="edge26" class="edge">
<title>Node18&#45;&gt;Node21</title>
<path fill="none" stroke="#191970" d="M153.5,-168.2455C153.5,-160.9382 153.5,-150.6944 153.5,-141.7046"/>
<polygon fill="#191970" stroke="#191970" points="157.0001,-141.6426 153.5,-131.6427 150.0001,-141.6427 157.0001,-141.6426"/>
</g>
<!-- Node22&#45;&gt;Node11 -->
<g id="edge28" class="edge">
<title>Node22&#45;&gt;Node11</title>
<path fill="none" stroke="#191970" d="M295.9963,-168.2455C305.7442,-159.9746 319.9259,-147.9416 331.3798,-138.2232"/>
<polygon fill="#191970" stroke="#191970" points="333.7747,-140.7813 339.1354,-131.6427 329.2459,-135.4437 333.7747,-140.7813"/>
</g>
<!-- Node25&#45;&gt;Node1 -->
<g id="edge34" class="edge">
<title>Node25&#45;&gt;Node1</title>
<path fill="none" stroke="#191970" d="M1086.7786,-224.4369C1133.4505,-214.7925 1205.5449,-199.8948 1255.4331,-189.5858"/>
<polygon fill="#191970" stroke="#191970" points="1256.3274,-192.975 1265.4122,-187.5237 1254.9108,-186.1198 1256.3274,-192.975"/>
</g>
<!-- Node25&#45;&gt;Node15 -->
<g id="edge36" class="edge">
<title>Node25&#45;&gt;Node15</title>
<path fill="none" stroke="#191970" d="M1031.7907,-224.2455C1024.6927,-216.2958 1014.4916,-204.8706 1006.005,-195.3656"/>
<polygon fill="#191970" stroke="#191970" points="1008.3805,-192.771 999.1095,-187.6427 1003.1589,-197.4331 1008.3805,-192.771"/>
</g>
<!-- Node25&#45;&gt;Node24 -->
<g id="edge35" class="edge">
<title>Node25&#45;&gt;Node24</title>
<path fill="none" stroke="#191970" d="M948.8838,-227.3526C869.0419,-220.6897 750.0478,-208.6674 637.9895,-188.063"/>
<polygon fill="#191970" stroke="#191970" points="638.3359,-184.5673 627.8635,-186.1739 637.052,-191.4486 638.3359,-184.5673"/>
</g>
<!-- Node26 -->
<g id="node27" class="node">
<title>Node26</title>
<polygon fill="#ffffff" stroke="#bfbfbf" points="1032.5,-168.5 1032.5,-187.5 1148.5,-187.5 1148.5,-168.5 1032.5,-168.5"/>
<text text-anchor="middle" x="1090.5" y="-175.5" font-family="Helvetica,sans-Serif" font-size="10.00" fill="#000000">QAbstractItemModel</text>
</g>
<!-- Node25&#45;&gt;Node26 -->
<g id="edge37" class="edge">
<title>Node25&#45;&gt;Node26</title>
<path fill="none" stroke="#191970" d="M1049.2093,-224.2455C1056.3073,-216.2958 1066.5084,-204.8706 1074.995,-195.3656"/>
<polygon fill="#191970" stroke="#191970" points="1077.8411,-197.4331 1081.8905,-187.6427 1072.6195,-192.771 1077.8411,-197.4331"/>
</g>
<!-- Node27 -->
<g id="node28" class="node">
<title>Node27</title>
<polygon fill="#ffffff" stroke="#bfbfbf" points="1167,-168.5 1167,-187.5 1226,-187.5 1226,-168.5 1167,-168.5"/>
<text text-anchor="middle" x="1196.5" y="-175.5" font-family="Helvetica,sans-Serif" font-size="10.00" fill="#000000">QVariant</text>
</g>
<!-- Node25&#45;&gt;Node27 -->
<g id="edge38" class="edge">
<title>Node25&#45;&gt;Node27</title>
<path fill="none" stroke="#191970" d="M1067.3174,-224.3733C1093.0332,-215.1419 1132.038,-201.1402 1160.4599,-190.9375"/>
<polygon fill="#191970" stroke="#191970" points="1161.8032,-194.174 1170.0326,-187.5011 1159.4381,-187.5857 1161.8032,-194.174"/>
</g>
</g>
</svg>
