<?xml version="1.0" encoding="UTF-8" standalone="no"?>
<!DOCTYPE svg PUBLIC "-//W3C//DTD SVG 1.1//EN"
 "http://www.w3.org/Graphics/SVG/1.1/DTD/svg11.dtd">
<!-- Generated by graphviz version 2.40.1 (20161225.0304)
 -->
<!-- Title: src/Engine/Entity/Entity.hpp Pages: 1 -->
<!--zoomable 308 -->
<svg id="main" version="1.1" xmlns="http://www.w3.org/2000/svg" xmlns:xlink="http://www.w3.org/1999/xlink" xml:space="preserve" onload="init(evt)">
<style type="text/css"><![CDATA[
.edge:hover path { stroke: red; }
.edge:hover polygon { stroke: red; fill: red; }
]]></style>
<script type="text/javascript"><![CDATA[
var edges = document.getElementsByTagName('g');
if (edges && edges.length) {
  for (var i=0;i<edges.length;i++) {
    if (edges[i].id.substr(0,4)=='edge') {
      edges[i].setAttribute('class','edge');
    }
  }
}
]]></script>
        <defs>
                <circle id="rim" cx="0" cy="0" r="7"/>
                <circle id="rim2" cx="0" cy="0" r="3.5"/>
                <g id="zoomPlus">
                        <use xlink:href="#rim" fill="#404040">
                                <set attributeName="fill" to="#808080" begin="zoomplus.mouseover" end="zoomplus.mouseout"/>
                        </use>
                        <path d="M-4,0h8M0,-4v8" fill="none" stroke="white" stroke-width="1.5" pointer-events="none"/>
                </g>
                <g id="zoomMin">
                        <use xlink:href="#rim" fill="#404040">
                                <set attributeName="fill" to="#808080" begin="zoomminus.mouseover" end="zoomminus.mouseout"/>
                        </use>
                        <path d="M-4,0h8" fill="none" stroke="white" stroke-width="1.5" pointer-events="none"/>
                </g>
                <g id="dirArrow">
                        <path fill="none" stroke="white" stroke-width="1.5" d="M0,-3.0v7 M-2.5,-0.5L0,-3.0L2.5,-0.5"/>
                </g>
               <g id="resetDef">
                       <use xlink:href="#rim2" fill="#404040">
                               <set attributeName="fill" to="#808080" begin="reset.mouseover" end="reset.mouseout"/>
                       </use>
               </g>
        </defs>

<script type="text/javascript">
var viewWidth = 697;
var viewHeight = 308;
var sectionId = 'dynsection-0';
</script>
<script xlink:href="svgpan.js"/>
<svg id="graph" class="graph">
<g id="viewport">
<title>src/Engine/Entity/Entity.hpp</title>
<polygon fill="#ffffff" stroke="transparent" points="-4,4 -4,-304 692.5,-304 692.5,4 -4,4"/>
<!-- Node0 -->
<g id="node1" class="node">
<title>Node0</title>
<polygon fill="#bfbfbf" stroke="#000000" points="232,-280.5 232,-299.5 381,-299.5 381,-280.5 232,-280.5"/>
<text text-anchor="middle" x="306.5" y="-287.5" font-family="Helvetica,sans-Serif" font-size="10.00" fill="#000000">src/Engine/Entity/Entity.hpp</text>
</g>
<!-- Node1 -->
<g id="node2" class="node">
<title>Node1</title>
<g id="a_node2"><a xlink:href="RaEngine_8hpp.html" target="_top" xlink:title="Engine/RaEngine.hpp">
<polygon fill="#ffffff" stroke="#000000" points="0,-112.5 0,-131.5 119,-131.5 119,-112.5 0,-112.5"/>
<text text-anchor="middle" x="59.5" y="-119.5" font-family="Helvetica,sans-Serif" font-size="10.00" fill="#000000">Engine/RaEngine.hpp</text>
</a>
</g>
</g>
<!-- Node0&#45;&gt;Node1 -->
<g id="edge1" class="edge">
<title>Node0&#45;&gt;Node1</title>
<path fill="none" stroke="#191970" d="M231.7614,-286.8624C161.2071,-282.2691 62.3345,-271.0714 35.5,-244 11.5545,-219.8432 16.0865,-200.3805 26.5,-168 29.8946,-157.4445 36.7058,-147.2592 43.2631,-139.1676"/>
<polygon fill="#191970" stroke="#191970" points="45.947,-141.4149 49.8508,-131.5654 40.6569,-136.8307 45.947,-141.4149"/>
</g>
<!-- Node7 -->
<g id="node8" class="node">
<title>Node7</title>
<polygon fill="#ffffff" stroke="#bfbfbf" points="466.5,-.5 466.5,-19.5 514.5,-19.5 514.5,-.5 466.5,-.5"/>
<text text-anchor="middle" x="490.5" y="-7.5" font-family="Helvetica,sans-Serif" font-size="10.00" fill="#000000">thread</text>
</g>
<!-- Node0&#45;&gt;Node7 -->
<g id="edge10" class="edge">
<title>Node0&#45;&gt;Node7</title>
<path fill="none" stroke="#191970" d="M381.12,-281.687C432.9641,-274.4426 496.0939,-262.2084 515.5,-244 537.7601,-223.1136 534.5,-208.5246 534.5,-178 534.5,-178 534.5,-178 534.5,-122 534.5,-87.0351 515.6933,-49.9171 502.6707,-28.4062"/>
<polygon fill="#191970" stroke="#191970" points="505.4709,-26.2845 497.1827,-19.6848 499.5463,-30.0126 505.4709,-26.2845"/>
</g>
<!-- Node8 -->
<g id="node9" class="node">
<title>Node8</title>
<polygon fill="#ffffff" stroke="#bfbfbf" points="154.5,-224.5 154.5,-243.5 202.5,-243.5 202.5,-224.5 154.5,-224.5"/>
<text text-anchor="middle" x="178.5" y="-231.5" font-family="Helvetica,sans-Serif" font-size="10.00" fill="#000000">mutex</text>
</g>
<!-- Node0&#45;&gt;Node8 -->
<g id="edge8" class="edge">
<title>Node0&#45;&gt;Node8</title>
<path fill="none" stroke="#191970" d="M284.496,-280.3733C263.8565,-271.3435 232.7842,-257.7494 209.6111,-247.6111"/>
<polygon fill="#191970" stroke="#191970" points="210.7813,-244.3028 200.2169,-243.5011 207.9755,-250.7159 210.7813,-244.3028"/>
</g>
<!-- Node9 -->
<g id="node10" class="node">
<title>Node9</title>
<polygon fill="#ffffff" stroke="#bfbfbf" points="220.5,-224.5 220.5,-243.5 264.5,-243.5 264.5,-224.5 220.5,-224.5"/>
<text text-anchor="middle" x="242.5" y="-231.5" font-family="Helvetica,sans-Serif" font-size="10.00" fill="#000000">string</text>
</g>
<!-- Node0&#45;&gt;Node9 -->
<g id="edge9" class="edge">
<title>Node0&#45;&gt;Node9</title>
<path fill="none" stroke="#191970" d="M295.3521,-280.2455C285.9913,-272.0549 272.4142,-260.1749 261.3651,-250.5069"/>
<polygon fill="#191970" stroke="#191970" points="263.3508,-247.5937 253.5202,-243.6427 258.7412,-252.8618 263.3508,-247.5937"/>
</g>
<!-- Node10 -->
<g id="node11" class="node">
<title>Node10</title>
<polygon fill="#ffffff" stroke="#bfbfbf" points="283,-224.5 283,-243.5 330,-243.5 330,-224.5 283,-224.5"/>
<text text-anchor="middle" x="306.5" y="-231.5" font-family="Helvetica,sans-Serif" font-size="10.00" fill="#000000">vector</text>
</g>
<!-- Node0&#45;&gt;Node10 -->
<g id="edge11" class="edge">
<title>Node0&#45;&gt;Node10</title>
<path fill="none" stroke="#191970" d="M306.5,-280.2455C306.5,-272.9382 306.5,-262.6944 306.5,-253.7046"/>
<polygon fill="#191970" stroke="#191970" points="310.0001,-253.6426 306.5,-243.6427 303.0001,-253.6427 310.0001,-253.6426"/>
</g>
<!-- Node11 -->
<g id="node12" class="node">
<title>Node11</title>
<g id="a_node12"><a xlink:href="Types_8hpp.html" target="_top" xlink:title="Core/Types.hpp">
<polygon fill="#ffffff" stroke="#000000" points="45,-224.5 45,-243.5 136,-243.5 136,-224.5 45,-224.5"/>
<text text-anchor="middle" x="90.5" y="-231.5" font-family="Helvetica,sans-Serif" font-size="10.00" fill="#000000">Core/Types.hpp</text>
</a>
</g>
</g>
<!-- Node0&#45;&gt;Node11 -->
<g id="edge12" class="edge">
<title>Node0&#45;&gt;Node11</title>
<path fill="none" stroke="#191970" d="M269.3683,-280.3733C232.6733,-270.8598 176.4361,-256.2797 136.8349,-246.0127"/>
<polygon fill="#191970" stroke="#191970" points="137.7056,-242.6228 127.1472,-243.5011 135.9488,-249.3988 137.7056,-242.6228"/>
</g>
<!-- Node16 -->
<g id="node17" class="node">
<title>Node16</title>
<g id="a_node17"><a xlink:href="IndexedObject_8hpp.html" target="_top" xlink:title="Core/Utils/IndexedObject.hpp">
<polygon fill="#ffffff" stroke="#000000" points="348,-224.5 348,-243.5 507,-243.5 507,-224.5 348,-224.5"/>
<text text-anchor="middle" x="427.5" y="-231.5" font-family="Helvetica,sans-Serif" font-size="10.00" fill="#000000">Core/Utils/IndexedObject.hpp</text>
</a>
</g>
</g>
<!-- Node0&#45;&gt;Node16 -->
<g id="edge18" class="edge">
<title>Node0&#45;&gt;Node16</title>
<path fill="none" stroke="#191970" d="M327.3006,-280.3733C346.7243,-271.3838 375.9224,-257.8706 397.7964,-247.7471"/>
<polygon fill="#191970" stroke="#191970" points="399.3656,-250.8776 406.9708,-243.5011 396.4255,-244.5249 399.3656,-250.8776"/>
</g>
<!-- Node20 -->
<g id="node21" class="node">
<title>Node20</title>
<g id="a_node21"><a xlink:href="Entity_8inl.html" target="_top" xlink:title="Engine/Entity/Entity.inl">
<polygon fill="#ffffff" stroke="#000000" points="562.5,-224.5 562.5,-243.5 688.5,-243.5 688.5,-224.5 562.5,-224.5"/>
<text text-anchor="middle" x="625.5" y="-231.5" font-family="Helvetica,sans-Serif" font-size="10.00" fill="#000000">Engine/Entity/Entity.inl</text>
</a>
</g>
</g>
<!-- Node0&#45;&gt;Node20 -->
<g id="edge25" class="edge">
<title>Node0&#45;&gt;Node20</title>
<path fill="none" stroke="#191970" d="M355.7461,-280.4369C409.3391,-270.6918 495.3019,-255.5832 555.7954,-245.2645"/>
<polygon fill="#191970" stroke="#191970" points="556.7561,-248.6514 566.0273,-243.5237 555.5819,-241.7506 556.7561,-248.6514"/>
</g>
<!-- Node2 -->
<g id="node3" class="node">
<title>Node2</title>
<g id="a_node3"><a xlink:href="CoreMacros_8hpp.html" target="_top" xlink:title="Core/CoreMacros.hpp">
<polygon fill="#ffffff" stroke="#000000" points="207.5,-56.5 207.5,-75.5 327.5,-75.5 327.5,-56.5 207.5,-56.5"/>
<text text-anchor="middle" x="267.5" y="-63.5" font-family="Helvetica,sans-Serif" font-size="10.00" fill="#000000">Core/CoreMacros.hpp</text>
</a>
</g>
</g>
<!-- Node1&#45;&gt;Node2 -->
<g id="edge2" class="edge">
<title>Node1&#45;&gt;Node2</title>
<path fill="none" stroke="#191970" d="M95.2565,-112.3733C130.4426,-102.9001 184.2881,-88.4032 222.3956,-78.1435"/>
<polygon fill="#191970" stroke="#191970" points="223.4639,-81.4806 232.2101,-75.5011 221.644,-74.7213 223.4639,-81.4806"/>
</g>
<!-- Node3 -->
<g id="node4" class="node">
<title>Node3</title>
<polygon fill="#ffffff" stroke="#bfbfbf" points="351.5,-.5 351.5,-19.5 403.5,-19.5 403.5,-.5 351.5,-.5"/>
<text text-anchor="middle" x="377.5" y="-7.5" font-family="Helvetica,sans-Serif" font-size="10.00" fill="#000000">cassert</text>
</g>
<!-- Node2&#45;&gt;Node3 -->
<g id="edge3" class="edge">
<title>Node2&#45;&gt;Node3</title>
<path fill="none" stroke="#191970" d="M286.6605,-56.2455C304.0111,-47.4125 329.7901,-34.2887 349.4583,-24.2758"/>
<polygon fill="#191970" stroke="#191970" points="351.2353,-27.2986 358.559,-19.6427 348.0595,-21.0605 351.2353,-27.2986"/>
</g>
<!-- Node4 -->
<g id="node5" class="node">
<title>Node4</title>
<polygon fill="#ffffff" stroke="#bfbfbf" points="135.5,-.5 135.5,-19.5 181.5,-19.5 181.5,-.5 135.5,-.5"/>
<text text-anchor="middle" x="158.5" y="-7.5" font-family="Helvetica,sans-Serif" font-size="10.00" fill="#000000">cstdio</text>
</g>
<!-- Node2&#45;&gt;Node4 -->
<g id="edge4" class="edge">
<title>Node2&#45;&gt;Node4</title>
<path fill="none" stroke="#191970" d="M248.5136,-56.2455C231.3208,-47.4125 205.7762,-34.2887 186.2868,-24.2758"/>
<polygon fill="#191970" stroke="#191970" points="187.763,-21.0993 177.2688,-19.6427 184.5641,-27.3257 187.763,-21.0993"/>
</g>
<!-- Node5 -->
<g id="node6" class="node">
<title>Node5</title>
<polygon fill="#ffffff" stroke="#bfbfbf" points="199.5,-.5 199.5,-19.5 259.5,-19.5 259.5,-.5 199.5,-.5"/>
<text text-anchor="middle" x="229.5" y="-7.5" font-family="Helvetica,sans-Serif" font-size="10.00" fill="#000000">iostream</text>
</g>
<!-- Node2&#45;&gt;Node5 -->
<g id="edge5" class="edge">
<title>Node2&#45;&gt;Node5</title>
<path fill="none" stroke="#191970" d="M260.8809,-56.2455C255.5954,-48.4564 248.0459,-37.3308 241.6762,-27.9439"/>
<polygon fill="#191970" stroke="#191970" points="244.5545,-25.9522 236.0432,-19.6427 238.7621,-29.8827 244.5545,-25.9522"/>
</g>
<!-- Node6 -->
<g id="node7" class="node">
<title>Node6</title>
<polygon fill="#ffffff" stroke="#bfbfbf" points="277.5,-.5 277.5,-19.5 333.5,-19.5 333.5,-.5 277.5,-.5"/>
<text text-anchor="middle" x="305.5" y="-7.5" font-family="Helvetica,sans-Serif" font-size="10.00" fill="#000000">sstream</text>
</g>
<!-- Node2&#45;&gt;Node6 -->
<g id="edge6" class="edge">
<title>Node2&#45;&gt;Node6</title>
<path fill="none" stroke="#191970" d="M274.1191,-56.2455C279.4046,-48.4564 286.9541,-37.3308 293.3238,-27.9439"/>
<polygon fill="#191970" stroke="#191970" points="296.2379,-29.8827 298.9568,-19.6427 290.4455,-25.9522 296.2379,-29.8827"/>
</g>
<!-- Node2&#45;&gt;Node7 -->
<g id="edge7" class="edge">
<title>Node2&#45;&gt;Node7</title>
<path fill="none" stroke="#191970" d="M305.5817,-56.4369C348.0129,-45.7815 415.9794,-28.7137 456.6263,-18.5064"/>
<polygon fill="#191970" stroke="#191970" points="457.493,-21.8975 466.3394,-16.0672 455.7881,-15.1083 457.493,-21.8975"/>
</g>
<!-- Node12 -->
<g id="node13" class="node">
<title>Node12</title>
<g id="a_node13"><a xlink:href="RaCore_8hpp.html" target="_top" xlink:title="Core/RaCore.hpp">
<polygon fill="#ffffff" stroke="#000000" points="218.5,-112.5 218.5,-131.5 316.5,-131.5 316.5,-112.5 218.5,-112.5"/>
<text text-anchor="middle" x="267.5" y="-119.5" font-family="Helvetica,sans-Serif" font-size="10.00" fill="#000000">Core/RaCore.hpp</text>
</a>
</g>
</g>
<!-- Node11&#45;&gt;Node12 -->
<g id="edge13" class="edge">
<title>Node11&#45;&gt;Node12</title>
<path fill="none" stroke="#191970" d="M72.2139,-224.4607C50.1024,-211.6982 17.8025,-188.3163 34.5,-168 56.1067,-141.7106 146.7153,-130.1989 208.3626,-125.3378"/>
<polygon fill="#191970" stroke="#191970" points="208.6623,-128.8252 218.3722,-124.5863 208.1382,-121.8448 208.6623,-128.8252"/>
</g>
<!-- Node13 -->
<g id="node14" class="node">
<title>Node13</title>
<polygon fill="#ffffff" stroke="#bfbfbf" points="44,-168.5 44,-187.5 113,-187.5 113,-168.5 44,-168.5"/>
<text text-anchor="middle" x="78.5" y="-175.5" font-family="Helvetica,sans-Serif" font-size="10.00" fill="#000000">Eigen/Core</text>
</g>
<!-- Node11&#45;&gt;Node13 -->
<g id="edge15" class="edge">
<title>Node11&#45;&gt;Node13</title>
<path fill="none" stroke="#191970" d="M88.4098,-224.2455C86.8439,-216.9382 84.6488,-206.6944 82.7224,-197.7046"/>
<polygon fill="#191970" stroke="#191970" points="86.084,-196.6873 80.5663,-187.6427 79.2393,-198.1541 86.084,-196.6873"/>
</g>
<!-- Node14 -->
<g id="node15" class="node">
<title>Node14</title>
<polygon fill="#ffffff" stroke="#bfbfbf" points="131,-168.5 131,-187.5 226,-187.5 226,-168.5 131,-168.5"/>
<text text-anchor="middle" x="178.5" y="-175.5" font-family="Helvetica,sans-Serif" font-size="10.00" fill="#000000">Eigen/Geometry</text>
</g>
<!-- Node11&#45;&gt;Node14 -->
<g id="edge16" class="edge">
<title>Node11&#45;&gt;Node14</title>
<path fill="none" stroke="#191970" d="M105.8284,-224.2455C119.3303,-215.6534 139.2122,-203.0014 154.7686,-193.1018"/>
<polygon fill="#191970" stroke="#191970" points="156.7897,-195.9643 163.3472,-187.6427 153.0315,-190.0587 156.7897,-195.9643"/>
</g>
<!-- Node15 -->
<g id="node16" class="node">
<title>Node15</title>
<polygon fill="#ffffff" stroke="#bfbfbf" points="244.5,-168.5 244.5,-187.5 324.5,-187.5 324.5,-168.5 244.5,-168.5"/>
<text text-anchor="middle" x="284.5" y="-175.5" font-family="Helvetica,sans-Serif" font-size="10.00" fill="#000000">Eigen/Sparse</text>
</g>
<!-- Node11&#45;&gt;Node15 -->
<g id="edge17" class="edge">
<title>Node11&#45;&gt;Node15</title>
<path fill="none" stroke="#191970" d="M123.8498,-224.3733C156.528,-214.9404 206.4618,-200.5265 241.977,-190.2747"/>
<polygon fill="#191970" stroke="#191970" points="242.9484,-193.6373 251.5854,-187.5011 241.007,-186.9119 242.9484,-193.6373"/>
</g>
<!-- Node12&#45;&gt;Node2 -->
<g id="edge14" class="edge">
<title>Node12&#45;&gt;Node2</title>
<path fill="none" stroke="#191970" d="M267.5,-112.2455C267.5,-104.9382 267.5,-94.6944 267.5,-85.7046"/>
<polygon fill="#191970" stroke="#191970" points="271.0001,-85.6426 267.5,-75.6427 264.0001,-85.6427 271.0001,-85.6426"/>
</g>
<!-- Node16&#45;&gt;Node12 -->
<g id="edge19" class="edge">
<title>Node16&#45;&gt;Node12</title>
<path fill="none" stroke="#191970" d="M413.8111,-224.3665C395.5207,-211.4997 362.0937,-188.0026 333.5,-168 318.8081,-157.7224 302.2544,-146.185 289.4006,-137.2358"/>
<polygon fill="#191970" stroke="#191970" points="291.3683,-134.3411 281.1612,-131.501 287.3694,-140.0864 291.3683,-134.3411"/>
</g>
<!-- Node17 -->
<g id="node18" class="node">
<title>Node17</title>
<g id="a_node18"><a xlink:href="Index_8hpp.html" target="_top" xlink:title="Core/Utils/Index.hpp">
<polygon fill="#ffffff" stroke="#000000" points="380.5,-168.5 380.5,-187.5 496.5,-187.5 496.5,-168.5 380.5,-168.5"/>
<text text-anchor="middle" x="438.5" y="-175.5" font-family="Helvetica,sans-Serif" font-size="10.00" fill="#000000">Core/Utils/Index.hpp</text>
</a>
</g>
</g>
<!-- Node16&#45;&gt;Node17 -->
<g id="edge20" class="edge">
<title>Node16&#45;&gt;Node17</title>
<path fill="none" stroke="#191970" d="M429.4161,-224.2455C430.8514,-216.9382 432.8636,-206.6944 434.6295,-197.7046"/>
<polygon fill="#191970" stroke="#191970" points="438.1127,-198.1298 436.6059,-187.6427 431.244,-196.7805 438.1127,-198.1298"/>
</g>
<!-- Node17&#45;&gt;Node12 -->
<g id="edge21" class="edge">
<title>Node17&#45;&gt;Node12</title>
<path fill="none" stroke="#191970" d="M409.1041,-168.3733C380.6693,-159.0613 337.4123,-144.8953 306.1919,-134.671"/>
<polygon fill="#191970" stroke="#191970" points="307.105,-131.2872 296.5124,-131.5011 304.9264,-137.9396 307.105,-131.2872"/>
</g>
<!-- Node18 -->
<g id="node19" class="node">
<title>Node18</title>
<polygon fill="#ffffff" stroke="#bfbfbf" points="462.5,-112.5 462.5,-131.5 506.5,-131.5 506.5,-112.5 462.5,-112.5"/>
<text text-anchor="middle" x="484.5" y="-119.5" font-family="Helvetica,sans-Serif" font-size="10.00" fill="#000000">limits</text>
</g>
<!-- Node17&#45;&gt;Node18 -->
<g id="edge22" class="edge">
<title>Node17&#45;&gt;Node18</title>
<path fill="none" stroke="#191970" d="M446.5126,-168.2455C452.9768,-160.3761 462.2385,-149.101 469.9983,-139.6542"/>
<polygon fill="#191970" stroke="#191970" points="472.9364,-141.5916 476.5792,-131.6427 467.5273,-137.1484 472.9364,-141.5916"/>
</g>
<!-- Node19 -->
<g id="node20" class="node">
<title>Node19</title>
<g id="a_node20"><a xlink:href="Index_8inl.html" target="_top" xlink:title="Core/Utils/Index.inl">
<polygon fill="#ffffff" stroke="#000000" points="334.5,-112.5 334.5,-131.5 444.5,-131.5 444.5,-112.5 334.5,-112.5"/>
<text text-anchor="middle" x="389.5" y="-119.5" font-family="Helvetica,sans-Serif" font-size="10.00" fill="#000000">Core/Utils/Index.inl</text>
</a>
</g>
</g>
<!-- Node17&#45;&gt;Node19 -->
<g id="edge23" class="edge">
<title>Node17&#45;&gt;Node19</title>
<path fill="none" stroke="#191970" d="M424.698,-168.2455C416.3785,-160.4564 406.2834,-149.3308 398.8538,-139.9439"/>
<polygon fill="#191970" stroke="#191970" points="401.4627,-137.5864 392.6922,-131.6427 395.8419,-141.7585 401.4627,-137.5864"/>
</g>
<!-- Node19&#45;&gt;Node17 -->
<g id="edge24" class="edge">
<title>Node19&#45;&gt;Node17</title>
<path fill="none" stroke="#191970" d="M403.1825,-131.6427C411.5705,-139.4797 421.7926,-150.7472 429.2689,-160.2112"/>
<polygon fill="#191970" stroke="#191970" points="426.4615,-162.3013 435.2317,-168.2455 432.0826,-158.1295 426.4615,-162.3013"/>
</g>
<!-- Node20&#45;&gt;Node0 -->
<g id="edge26" class="edge">
<title>Node20&#45;&gt;Node0</title>
<path fill="none" stroke="#191970" d="M576.4708,-243.5237C522.8547,-253.2743 436.6567,-268.4245 376.0747,-278.7577"/>
<polygon fill="#191970" stroke="#191970" points="375.4764,-275.3091 366.2051,-280.4369 376.6505,-282.2099 375.4764,-275.3091"/>
</g>
</g>
</svg>
        <g id="navigator" transform="translate(0 0)" fill="#404254">
                <rect fill="#f2f5e9" fill-opacity="0.5" stroke="#606060" stroke-width=".5" x="0" y="0" width="60" height="60"/>
                <use id="zoomplus" xlink:href="#zoomPlus" x="17" y="9" onmousedown="handleZoom(evt,'in')"/>
                <use id="zoomminus" xlink:href="#zoomMin" x="42" y="9" onmousedown="handleZoom(evt,'out')"/>
                <use id="reset" xlink:href="#resetDef" x="30" y="36" onmousedown="handleReset()"/>
                <g id="arrowUp" xlink:href="#dirArrow" transform="translate(30 24)" onmousedown="handlePan(0,-1)">
                  <use xlink:href="#rim" fill="#404040">
                        <set attributeName="fill" to="#808080" begin="arrowUp.mouseover" end="arrowUp.mouseout"/>
                  </use>
                  <path fill="none" stroke="white" stroke-width="1.5" d="M0,-3.0v7 M-2.5,-0.5L0,-3.0L2.5,-0.5"/>
                </g>
                <g id="arrowRight" xlink:href="#dirArrow" transform="rotate(90) translate(36 -43)" onmousedown="handlePan(1,0)">
                  <use xlink:href="#rim" fill="#404040">
                        <set attributeName="fill" to="#808080" begin="arrowRight.mouseover" end="arrowRight.mouseout"/>
                  </use>
                  <path fill="none" stroke="white" stroke-width="1.5" d="M0,-3.0v7 M-2.5,-0.5L0,-3.0L2.5,-0.5"/>
                </g>
                <g id="arrowDown" xlink:href="#dirArrow" transform="rotate(180) translate(-30 -48)" onmousedown="handlePan(0,1)">
                  <use xlink:href="#rim" fill="#404040">
                        <set attributeName="fill" to="#808080" begin="arrowDown.mouseover" end="arrowDown.mouseout"/>
                  </use>
                  <path fill="none" stroke="white" stroke-width="1.5" d="M0,-3.0v7 M-2.5,-0.5L0,-3.0L2.5,-0.5"/>
                </g>
                <g id="arrowLeft" xlink:href="#dirArrow" transform="rotate(270) translate(-36 17)" onmousedown="handlePan(-1,0)">
                  <use xlink:href="#rim" fill="#404040">
                        <set attributeName="fill" to="#808080" begin="arrowLeft.mouseover" end="arrowLeft.mouseout"/>
                  </use>
                  <path fill="none" stroke="white" stroke-width="1.5" d="M0,-3.0v7 M-2.5,-0.5L0,-3.0L2.5,-0.5"/>
                </g>
        </g>
        <svg viewBox="0 0 15 15" width="100%" height="30px" preserveAspectRatio="xMaxYMin meet">
         <g id="arrow_out" transform="scale(0.3 0.3)">
          <a xlink:href="Entity_8hpp__incl_org.svg" target="_base">
           <rect id="button" ry="5" rx="5" y="6" x="6" height="38" width="38"
                fill="#f2f5e9" fill-opacity="0.5" stroke="#606060" stroke-width="1.0"/>
           <path id="arrow"
             d="M 11.500037,31.436501 C 11.940474,20.09759 22.043105,11.32322 32.158766,21.979434 L 37.068811,17.246167 C 37.068811,17.246167 37.088388,32 37.088388,32 L 22.160133,31.978069 C 22.160133,31.978069 26.997745,27.140456 26.997745,27.140456 C 18.528582,18.264221 13.291696,25.230495 11.500037,31.436501 z"
             style="fill:#404040;"/>
          </a>
         </g>
        </svg>
</svg>
