<?xml version="1.0" encoding="UTF-8" standalone="no"?>
<!DOCTYPE svg PUBLIC "-//W3C//DTD SVG 1.1//EN"
 "http://www.w3.org/Graphics/SVG/1.1/DTD/svg11.dtd">
<!-- Generated by graphviz version 2.40.1 (20161225.0304)
 -->
<!-- Title: src/Core/Asset/FileData.inl Pages: 1 -->
<svg width="2961pt" height="431pt"
 viewBox="0.00 0.00 2960.56 431.00" xmlns="http://www.w3.org/2000/svg" xmlns:xlink="http://www.w3.org/1999/xlink">
<g id="graph0" class="graph" transform="scale(1 1) rotate(0) translate(4 427)">
<title>src/Core/Asset/FileData.inl</title>
<polygon fill="#ffffff" stroke="transparent" points="-4,4 -4,-427 2956.5557,-427 2956.5557,4 -4,4"/>
<!-- Node0 -->
<g id="node1" class="node">
<title>Node0</title>
<polygon fill="#bfbfbf" stroke="#000000" points="714.0557,-403.5 714.0557,-422.5 858.0557,-422.5 858.0557,-403.5 714.0557,-403.5"/>
<text text-anchor="middle" x="786.0557" y="-410.5" font-family="Helvetica,sans-Serif" font-size="10.00" fill="#000000">src/Core/Asset/FileData.inl</text>
</g>
<!-- Node1 -->
<g id="node2" class="node">
<title>Node1</title>
<g id="a_node2"><a xlink:href="AnimationData_8hpp.html" target="_top" xlink:title="Core/Asset/AnimationData.hpp">
<polygon fill="#ffffff" stroke="#000000" points="702.5557,-347.5 702.5557,-366.5 869.5557,-366.5 869.5557,-347.5 702.5557,-347.5"/>
<text text-anchor="middle" x="786.0557" y="-354.5" font-family="Helvetica,sans-Serif" font-size="10.00" fill="#000000">Core/Asset/AnimationData.hpp</text>
</a>
</g>
</g>
<!-- Node0&#45;&gt;Node1 -->
<g id="edge1" class="edge">
<title>Node0&#45;&gt;Node1</title>
<path fill="none" stroke="#191970" d="M786.0557,-403.2455C786.0557,-395.9382 786.0557,-385.6944 786.0557,-376.7046"/>
<polygon fill="#191970" stroke="#191970" points="789.5558,-376.6426 786.0557,-366.6427 782.5558,-376.6427 789.5558,-376.6426"/>
</g>
<!-- Node30 -->
<g id="node27" class="node">
<title>Node30</title>
<g id="a_node27"><a xlink:href="Log_8hpp.html" target="_top" xlink:title="Core/Utils/Log.hpp">
<polygon fill="#ffffff" stroke="#000000" points="121.0557,-174 121.0557,-193 227.0557,-193 227.0557,-174 121.0557,-174"/>
<text text-anchor="middle" x="174.0557" y="-181" font-family="Helvetica,sans-Serif" font-size="10.00" fill="#000000">Core/Utils/Log.hpp</text>
</a>
</g>
</g>
<!-- Node0&#45;&gt;Node30 -->
<g id="edge113" class="edge">
<title>Node0&#45;&gt;Node30</title>
<path fill="none" stroke="#191970" d="M713.8521,-408.8397C530.3115,-397.5314 57.1105,-363.5134 11.0557,-311 -32.4778,-261.3615 70.4849,-217.2872 132.0525,-196.3677"/>
<polygon fill="#191970" stroke="#191970" points="133.53,-199.565 141.9177,-193.0922 131.3242,-192.9217 133.53,-199.565"/>
</g>
<!-- Node33 -->
<g id="node30" class="node">
<title>Node33</title>
<g id="a_node30"><a xlink:href="CameraData_8hpp.html" target="_top" xlink:title="Core/Asset/CameraData.hpp">
<polygon fill="#ffffff" stroke="#000000" points="552.5557,-291.5 552.5557,-310.5 707.5557,-310.5 707.5557,-291.5 552.5557,-291.5"/>
<text text-anchor="middle" x="630.0557" y="-298.5" font-family="Helvetica,sans-Serif" font-size="10.00" fill="#000000">Core/Asset/CameraData.hpp</text>
</a>
</g>
</g>
<!-- Node0&#45;&gt;Node33 -->
<g id="edge40" class="edge">
<title>Node0&#45;&gt;Node33</title>
<path fill="none" stroke="#191970" d="M761.3448,-403.3533C742.0543,-395.202 715.0885,-382.4068 694.0557,-367 674.8624,-352.9407 656.3218,-332.8772 644.1812,-318.5685"/>
<polygon fill="#191970" stroke="#191970" points="646.5766,-315.9738 637.5004,-310.508 641.1871,-320.4408 646.5766,-315.9738"/>
</g>
<!-- Node39 -->
<g id="node36" class="node">
<title>Node39</title>
<g id="a_node36"><a xlink:href="GeometryData_8hpp.html" target="_top" xlink:title="Core/Asset/GeometryData.hpp">
<polygon fill="#ffffff" stroke="#000000" points="1402.5557,-291.5 1402.5557,-310.5 1567.5557,-310.5 1567.5557,-291.5 1402.5557,-291.5"/>
<text text-anchor="middle" x="1485.0557" y="-298.5" font-family="Helvetica,sans-Serif" font-size="10.00" fill="#000000">Core/Asset/GeometryData.hpp</text>
</a>
</g>
</g>
<!-- Node0&#45;&gt;Node39 -->
<g id="edge56" class="edge">
<title>Node0&#45;&gt;Node39</title>
<path fill="none" stroke="#191970" d="M845.3505,-403.4993C973.99,-382.8875 1278.1506,-334.1522 1415.5478,-312.1372"/>
<polygon fill="#191970" stroke="#191970" points="1416.2239,-315.5736 1425.5442,-310.5355 1415.1164,-308.6617 1416.2239,-315.5736"/>
</g>
<!-- Node46 -->
<g id="node43" class="node">
<title>Node46</title>
<g id="a_node43"><a xlink:href="HandleData_8hpp.html" target="_top" xlink:title="Core/Asset/HandleData.hpp">
<polygon fill="#ffffff" stroke="#000000" points="1041.5557,-291.5 1041.5557,-310.5 1192.5557,-310.5 1192.5557,-291.5 1041.5557,-291.5"/>
<text text-anchor="middle" x="1117.0557" y="-298.5" font-family="Helvetica,sans-Serif" font-size="10.00" fill="#000000">Core/Asset/HandleData.hpp</text>
</a>
</g>
</g>
<!-- Node0&#45;&gt;Node46 -->
<g id="edge79" class="edge">
<title>Node0&#45;&gt;Node46</title>
<path fill="none" stroke="#191970" d="M814.2766,-403.4509C873.7583,-383.3242 1012.0332,-336.5363 1079.1524,-313.8253"/>
<polygon fill="#191970" stroke="#191970" points="1080.5556,-317.0455 1088.9062,-310.5249 1078.312,-310.4148 1080.5556,-317.0455"/>
</g>
<!-- Node48 -->
<g id="node45" class="node">
<title>Node48</title>
<g id="a_node45"><a xlink:href="LightData_8hpp.html" target="_top" xlink:title="Core/Asset/LightData.hpp">
<polygon fill="#ffffff" stroke="#000000" points="299.0557,-291.5 299.0557,-310.5 439.0557,-310.5 439.0557,-291.5 299.0557,-291.5"/>
<text text-anchor="middle" x="369.0557" y="-298.5" font-family="Helvetica,sans-Serif" font-size="10.00" fill="#000000">Core/Asset/LightData.hpp</text>
</a>
</g>
</g>
<!-- Node0&#45;&gt;Node48 -->
<g id="edge91" class="edge">
<title>Node0&#45;&gt;Node48</title>
<path fill="none" stroke="#191970" d="M750.5025,-403.4509C674.797,-383.1176 497.7775,-335.5728 414.231,-313.1334"/>
<polygon fill="#191970" stroke="#191970" points="415.0845,-309.7387 404.5189,-310.5249 413.2687,-316.4991 415.0845,-309.7387"/>
</g>
<!-- Node54 -->
<g id="node50" class="node">
<title>Node54</title>
<g id="a_node50"><a xlink:href="VolumeData_8hpp.html" target="_top" xlink:title="Core/Asset/VolumeData.hpp">
<polygon fill="#ffffff" stroke="#000000" points="2363.5557,-291.5 2363.5557,-310.5 2516.5557,-310.5 2516.5557,-291.5 2363.5557,-291.5"/>
<text text-anchor="middle" x="2440.0557" y="-298.5" font-family="Helvetica,sans-Serif" font-size="10.00" fill="#000000">Core/Asset/VolumeData.hpp</text>
</a>
</g>
</g>
<!-- Node0&#45;&gt;Node54 -->
<g id="edge109" class="edge">
<title>Node0&#45;&gt;Node54</title>
<path fill="none" stroke="#191970" d="M858.1987,-409.4314C1080.5687,-398.1871 1775.0957,-361.2395 2349.0557,-311 2350.3471,-310.887 2351.6486,-310.771 2352.9582,-310.6523"/>
<polygon fill="#191970" stroke="#191970" points="2353.4969,-314.1172 2363.1252,-309.6961 2352.8414,-307.148 2353.4969,-314.1172"/>
</g>
<!-- Node2 -->
<g id="node3" class="node">
<title>Node2</title>
<polygon fill="#ffffff" stroke="#bfbfbf" points="652.0557,-112.5 652.0557,-131.5 696.0557,-131.5 696.0557,-112.5 652.0557,-112.5"/>
<text text-anchor="middle" x="674.0557" y="-119.5" font-family="Helvetica,sans-Serif" font-size="10.00" fill="#000000">string</text>
</g>
<!-- Node1&#45;&gt;Node2 -->
<g id="edge2" class="edge">
<title>Node1&#45;&gt;Node2</title>
<path fill="none" stroke="#191970" d="M702.2526,-355.07C602.9266,-351.4437 432.8729,-341.0098 290.0557,-311 251.5439,-302.9076 145.0657,-286.9246 122.0557,-255 76.1985,-191.3765 122.4224,-245.0154 236.0557,-199 264.6113,-187.4365 268.5579,-176.8891 298.0557,-168 362.254,-148.6541 562.7329,-130.9425 641.6617,-124.5357"/>
<polygon fill="#191970" stroke="#191970" points="642.2778,-127.9975 651.9653,-123.7077 641.7171,-121.02 642.2778,-127.9975"/>
</g>
<!-- Node3 -->
<g id="node4" class="node">
<title>Node3</title>
<polygon fill="#ffffff" stroke="#bfbfbf" points="1082.5557,-112.5 1082.5557,-131.5 1129.5557,-131.5 1129.5557,-112.5 1082.5557,-112.5"/>
<text text-anchor="middle" x="1106.0557" y="-119.5" font-family="Helvetica,sans-Serif" font-size="10.00" fill="#000000">vector</text>
</g>
<!-- Node1&#45;&gt;Node3 -->
<g id="edge3" class="edge">
<title>Node1&#45;&gt;Node3</title>
<path fill="none" stroke="#191970" d="M785.1053,-347.086C784.0776,-334.1087 782.9679,-310.6969 786.0557,-291 795.5996,-230.1194 798.2899,-201.434 850.0557,-168 886.2869,-144.5994 1010.9948,-130.5081 1071.96,-124.8629"/>
<polygon fill="#191970" stroke="#191970" points="1072.574,-128.3218 1082.219,-123.9372 1071.9449,-121.3502 1072.574,-128.3218"/>
</g>
<!-- Node4 -->
<g id="node5" class="node">
<title>Node4</title>
<g id="a_node5"><a xlink:href="AnimationTime_8hpp.html" target="_top" xlink:title="Core/Animation/Animation\lTime.hpp">
<polygon fill="#ffffff" stroke="#000000" points="2438.0557,-168.5 2438.0557,-198.5 2584.0557,-198.5 2584.0557,-168.5 2438.0557,-168.5"/>
<text text-anchor="start" x="2446.0557" y="-186.5" font-family="Helvetica,sans-Serif" font-size="10.00" fill="#000000">Core/Animation/Animation</text>
<text text-anchor="middle" x="2511.0557" y="-175.5" font-family="Helvetica,sans-Serif" font-size="10.00" fill="#000000">Time.hpp</text>
</a>
</g>
</g>
<!-- Node1&#45;&gt;Node4 -->
<g id="edge4" class="edge">
<title>Node1&#45;&gt;Node4</title>
<path fill="none" stroke="#191970" d="M869.7993,-355.3813C1144.1574,-349.9045 2005.4568,-331.2765 2129.0557,-311 2256.7261,-290.0556 2399.4193,-232.772 2468.7102,-202.6272"/>
<polygon fill="#191970" stroke="#191970" points="2470.2366,-205.7797 2477.9911,-198.5604 2467.4271,-199.3682 2470.2366,-205.7797"/>
</g>
<!-- Node13 -->
<g id="node14" class="node">
<title>Node13</title>
<g id="a_node14"><a xlink:href="KeyTransform_8hpp.html" target="_top" xlink:title="Core/Animation/KeyTransform.hpp">
<polygon fill="#ffffff" stroke="#000000" points="2534.5557,-291.5 2534.5557,-310.5 2717.5557,-310.5 2717.5557,-291.5 2534.5557,-291.5"/>
<text text-anchor="middle" x="2626.0557" y="-298.5" font-family="Helvetica,sans-Serif" font-size="10.00" fill="#000000">Core/Animation/KeyTransform.hpp</text>
</a>
</g>
</g>
<!-- Node1&#45;&gt;Node13 -->
<g id="edge13" class="edge">
<title>Node1&#45;&gt;Node13</title>
<path fill="none" stroke="#191970" d="M869.7676,-355.6012C1167.8814,-350.4937 2177.9915,-332.0768 2524.469,-311.0469"/>
<polygon fill="#191970" stroke="#191970" points="2524.7604,-314.5356 2534.5249,-310.4239 2524.3276,-307.549 2524.7604,-314.5356"/>
</g>
<!-- Node16 -->
<g id="node17" class="node">
<title>Node16</title>
<g id="a_node17"><a xlink:href="RaCore_8hpp.html" target="_top" xlink:title="Core/RaCore.hpp">
<polygon fill="#ffffff" stroke="#000000" points="1659.0557,-112.5 1659.0557,-131.5 1757.0557,-131.5 1757.0557,-112.5 1659.0557,-112.5"/>
<text text-anchor="middle" x="1708.0557" y="-119.5" font-family="Helvetica,sans-Serif" font-size="10.00" fill="#000000">Core/RaCore.hpp</text>
</a>
</g>
</g>
<!-- Node1&#45;&gt;Node16 -->
<g id="edge31" class="edge">
<title>Node1&#45;&gt;Node16</title>
<path fill="none" stroke="#191970" d="M870.0385,-353.6255C1152.9596,-341.8512 2055.9176,-300.8062 2097.0557,-255 2102.9951,-248.3867 2102.9467,-241.6564 2097.0557,-235 2053.433,-185.71 1862.6636,-226.9168 1803.0557,-199 1784.8322,-190.4652 1785.4953,-180.9057 1770.0557,-168 1757.3121,-157.3479 1742.378,-146.2296 1730.3603,-137.5926"/>
<polygon fill="#191970" stroke="#191970" points="1732.3749,-134.7305 1722.198,-131.7841 1728.3163,-140.4338 1732.3749,-134.7305"/>
</g>
<!-- Node28 -->
<g id="node25" class="node">
<title>Node28</title>
<g id="a_node25"><a xlink:href="AssetData_8hpp.html" target="_top" xlink:title="Core/Asset/AssetData.hpp">
<polygon fill="#ffffff" stroke="#000000" points="858.5557,-174 858.5557,-193 1001.5557,-193 1001.5557,-174 858.5557,-174"/>
<text text-anchor="middle" x="930.0557" y="-181" font-family="Helvetica,sans-Serif" font-size="10.00" fill="#000000">Core/Asset/AssetData.hpp</text>
</a>
</g>
</g>
<!-- Node1&#45;&gt;Node28 -->
<g id="edge28" class="edge">
<title>Node1&#45;&gt;Node28</title>
<path fill="none" stroke="#191970" d="M786.2365,-347.1993C787.1553,-324.711 792.3745,-268.7493 821.0557,-235 836.6876,-216.6058 860.3588,-204.3326 881.6525,-196.3985"/>
<polygon fill="#191970" stroke="#191970" points="882.9452,-199.6544 891.2313,-193.0521 880.6365,-193.0461 882.9452,-199.6544"/>
</g>
<!-- Node29 -->
<g id="node26" class="node">
<title>Node29</title>
<g id="a_node26"><a xlink:href="AnimationData_8inl.html" target="_top" xlink:title="Core/Asset/AnimationData.inl">
<polygon fill="#ffffff" stroke="#000000" points="20.5557,-291.5 20.5557,-310.5 181.5557,-310.5 181.5557,-291.5 20.5557,-291.5"/>
<text text-anchor="middle" x="101.0557" y="-298.5" font-family="Helvetica,sans-Serif" font-size="10.00" fill="#000000">Core/Asset/AnimationData.inl</text>
</a>
</g>
</g>
<!-- Node1&#45;&gt;Node29 -->
<g id="edge32" class="edge">
<title>Node1&#45;&gt;Node29</title>
<path fill="none" stroke="#191970" d="M702.303,-351.6051C588.3225,-343.7655 378.0089,-328.3527 191.7784,-311.4229"/>
<polygon fill="#191970" stroke="#191970" points="192.0825,-307.9362 181.8057,-310.5127 191.4462,-314.9072 192.0825,-307.9362"/>
</g>
<!-- Node5 -->
<g id="node6" class="node">
<title>Node5</title>
<g id="a_node6"><a xlink:href="CoreMacros_8hpp.html" target="_top" xlink:title="Core/CoreMacros.hpp">
<polygon fill="#ffffff" stroke="#000000" points="2049.0557,-56.5 2049.0557,-75.5 2169.0557,-75.5 2169.0557,-56.5 2049.0557,-56.5"/>
<text text-anchor="middle" x="2109.0557" y="-63.5" font-family="Helvetica,sans-Serif" font-size="10.00" fill="#000000">Core/CoreMacros.hpp</text>
</a>
</g>
</g>
<!-- Node4&#45;&gt;Node5 -->
<g id="edge5" class="edge">
<title>Node4&#45;&gt;Node5</title>
<path fill="none" stroke="#191970" d="M2510.4888,-168.2951C2508.9919,-151.7212 2503.9017,-125.7352 2487.0557,-112 2463.7194,-92.973 2282.1593,-77.7305 2179.3953,-70.5223"/>
<polygon fill="#191970" stroke="#191970" points="2179.6183,-67.0294 2169.4001,-69.8291 2179.1339,-74.0127 2179.6183,-67.0294"/>
</g>
<!-- Node11 -->
<g id="node12" class="node">
<title>Node11</title>
<polygon fill="#ffffff" stroke="#bfbfbf" points="2430.5557,-112.5 2430.5557,-131.5 2477.5557,-131.5 2477.5557,-112.5 2430.5557,-112.5"/>
<text text-anchor="middle" x="2454.0557" y="-119.5" font-family="Helvetica,sans-Serif" font-size="10.00" fill="#000000">cmath</text>
</g>
<!-- Node4&#45;&gt;Node11 -->
<g id="edge11" class="edge">
<title>Node4&#45;&gt;Node11</title>
<path fill="none" stroke="#191970" d="M2496.9658,-168.2977C2488.8064,-159.4941 2478.5085,-148.3833 2470.0462,-139.2529"/>
<polygon fill="#191970" stroke="#191970" points="2472.5468,-136.8021 2463.1821,-131.8469 2467.4128,-141.5604 2472.5468,-136.8021"/>
</g>
<!-- Node12 -->
<g id="node13" class="node">
<title>Node12</title>
<polygon fill="#ffffff" stroke="#bfbfbf" points="2362.0557,-112.5 2362.0557,-131.5 2406.0557,-131.5 2406.0557,-112.5 2362.0557,-112.5"/>
<text text-anchor="middle" x="2384.0557" y="-119.5" font-family="Helvetica,sans-Serif" font-size="10.00" fill="#000000">limits</text>
</g>
<!-- Node4&#45;&gt;Node12 -->
<g id="edge12" class="edge">
<title>Node4&#45;&gt;Node12</title>
<path fill="none" stroke="#191970" d="M2479.988,-168.4554C2459.5412,-158.554 2432.9619,-145.683 2412.9672,-136.0004"/>
<polygon fill="#191970" stroke="#191970" points="2414.2619,-132.7387 2403.7362,-131.5303 2411.211,-139.0388 2414.2619,-132.7387"/>
</g>
<!-- Node6 -->
<g id="node7" class="node">
<title>Node6</title>
<polygon fill="#ffffff" stroke="#bfbfbf" points="2187.0557,-.5 2187.0557,-19.5 2239.0557,-19.5 2239.0557,-.5 2187.0557,-.5"/>
<text text-anchor="middle" x="2213.0557" y="-7.5" font-family="Helvetica,sans-Serif" font-size="10.00" fill="#000000">cassert</text>
</g>
<!-- Node5&#45;&gt;Node6 -->
<g id="edge6" class="edge">
<title>Node5&#45;&gt;Node6</title>
<path fill="none" stroke="#191970" d="M2127.1711,-56.2455C2143.5007,-47.4527 2167.7267,-34.4079 2186.2896,-24.4125"/>
<polygon fill="#191970" stroke="#191970" points="2188.0025,-27.4654 2195.1479,-19.6427 2184.6838,-21.3021 2188.0025,-27.4654"/>
</g>
<!-- Node7 -->
<g id="node8" class="node">
<title>Node7</title>
<polygon fill="#ffffff" stroke="#bfbfbf" points="1979.0557,-.5 1979.0557,-19.5 2025.0557,-19.5 2025.0557,-.5 1979.0557,-.5"/>
<text text-anchor="middle" x="2002.0557" y="-7.5" font-family="Helvetica,sans-Serif" font-size="10.00" fill="#000000">cstdio</text>
</g>
<!-- Node5&#45;&gt;Node7 -->
<g id="edge7" class="edge">
<title>Node5&#45;&gt;Node7</title>
<path fill="none" stroke="#191970" d="M2090.4177,-56.2455C2073.617,-47.4527 2048.6922,-34.4079 2029.5939,-24.4125"/>
<polygon fill="#191970" stroke="#191970" points="2030.963,-21.1787 2020.4801,-19.6427 2027.7171,-27.3807 2030.963,-21.1787"/>
</g>
<!-- Node8 -->
<g id="node9" class="node">
<title>Node8</title>
<polygon fill="#ffffff" stroke="#bfbfbf" points="2043.0557,-.5 2043.0557,-19.5 2103.0557,-19.5 2103.0557,-.5 2043.0557,-.5"/>
<text text-anchor="middle" x="2073.0557" y="-7.5" font-family="Helvetica,sans-Serif" font-size="10.00" fill="#000000">iostream</text>
</g>
<!-- Node5&#45;&gt;Node8 -->
<g id="edge8" class="edge">
<title>Node5&#45;&gt;Node8</title>
<path fill="none" stroke="#191970" d="M2102.785,-56.2455C2097.8293,-48.5367 2090.7727,-37.5598 2084.7781,-28.2348"/>
<polygon fill="#191970" stroke="#191970" points="2087.6063,-26.1618 2079.2546,-19.6427 2081.718,-29.9471 2087.6063,-26.1618"/>
</g>
<!-- Node9 -->
<g id="node10" class="node">
<title>Node9</title>
<polygon fill="#ffffff" stroke="#bfbfbf" points="1200.0557,-.5 1200.0557,-19.5 1256.0557,-19.5 1256.0557,-.5 1200.0557,-.5"/>
<text text-anchor="middle" x="1228.0557" y="-7.5" font-family="Helvetica,sans-Serif" font-size="10.00" fill="#000000">sstream</text>
</g>
<!-- Node5&#45;&gt;Node9 -->
<g id="edge9" class="edge">
<title>Node5&#45;&gt;Node9</title>
<path fill="none" stroke="#191970" d="M2048.8477,-62.1729C1879.9952,-51.44 1405.246,-21.2629 1266.5556,-12.4472"/>
<polygon fill="#191970" stroke="#191970" points="1266.6136,-8.9439 1256.4117,-11.8024 1266.1695,-15.9298 1266.6136,-8.9439"/>
</g>
<!-- Node10 -->
<g id="node11" class="node">
<title>Node10</title>
<polygon fill="#ffffff" stroke="#bfbfbf" points="2121.0557,-.5 2121.0557,-19.5 2169.0557,-19.5 2169.0557,-.5 2121.0557,-.5"/>
<text text-anchor="middle" x="2145.0557" y="-7.5" font-family="Helvetica,sans-Serif" font-size="10.00" fill="#000000">thread</text>
</g>
<!-- Node5&#45;&gt;Node10 -->
<g id="edge10" class="edge">
<title>Node5&#45;&gt;Node10</title>
<path fill="none" stroke="#191970" d="M2115.3264,-56.2455C2120.2821,-48.5367 2127.3387,-37.5598 2133.3333,-28.2348"/>
<polygon fill="#191970" stroke="#191970" points="2136.3933,-29.9471 2138.8568,-19.6427 2130.5051,-26.1618 2136.3933,-29.9471"/>
</g>
<!-- Node14 -->
<g id="node15" class="node">
<title>Node14</title>
<g id="a_node15"><a xlink:href="Interpolation_8hpp.html" target="_top" xlink:title="Core/Animation/Interpolation.hpp">
<polygon fill="#ffffff" stroke="#000000" points="2700.5557,-235.5 2700.5557,-254.5 2879.5557,-254.5 2879.5557,-235.5 2700.5557,-235.5"/>
<text text-anchor="middle" x="2790.0557" y="-242.5" font-family="Helvetica,sans-Serif" font-size="10.00" fill="#000000">Core/Animation/Interpolation.hpp</text>
</a>
</g>
</g>
<!-- Node13&#45;&gt;Node14 -->
<g id="edge14" class="edge">
<title>Node13&#45;&gt;Node14</title>
<path fill="none" stroke="#191970" d="M2654.2483,-291.3733C2681.401,-282.1016 2722.6464,-268.0178 2752.5582,-257.804"/>
<polygon fill="#191970" stroke="#191970" points="2753.8985,-261.0449 2762.231,-254.5011 2751.6364,-254.4204 2753.8985,-261.0449"/>
</g>
<!-- Node20 -->
<g id="node21" class="node">
<title>Node20</title>
<g id="a_node21"><a xlink:href="KeyFrame_8hpp.html" target="_top" xlink:title="Core/Animation/KeyFrame.hpp">
<polygon fill="#ffffff" stroke="#000000" points="2143.0557,-235.5 2143.0557,-254.5 2307.0557,-254.5 2307.0557,-235.5 2143.0557,-235.5"/>
<text text-anchor="middle" x="2225.0557" y="-242.5" font-family="Helvetica,sans-Serif" font-size="10.00" fill="#000000">Core/Animation/KeyFrame.hpp</text>
</a>
</g>
</g>
<!-- Node13&#45;&gt;Node20 -->
<g id="edge21" class="edge">
<title>Node13&#45;&gt;Node20</title>
<path fill="none" stroke="#191970" d="M2557.577,-291.4369C2487.0746,-281.5912 2377.3674,-266.2705 2303.4384,-255.9462"/>
<polygon fill="#191970" stroke="#191970" points="2303.64,-252.4405 2293.252,-254.5237 2302.6718,-259.3732 2303.64,-252.4405"/>
</g>
<!-- Node15 -->
<g id="node16" class="node">
<title>Node15</title>
<g id="a_node16"><a xlink:href="Types_8hpp.html" target="_top" xlink:title="Core/Types.hpp">
<polygon fill="#ffffff" stroke="#000000" points="2750.5557,-174 2750.5557,-193 2841.5557,-193 2841.5557,-174 2750.5557,-174"/>
<text text-anchor="middle" x="2796.0557" y="-181" font-family="Helvetica,sans-Serif" font-size="10.00" fill="#000000">Core/Types.hpp</text>
</a>
</g>
</g>
<!-- Node14&#45;&gt;Node15 -->
<g id="edge15" class="edge">
<title>Node14&#45;&gt;Node15</title>
<path fill="none" stroke="#191970" d="M2790.9932,-235.3906C2791.8249,-226.8657 2793.0665,-214.1392 2794.1119,-203.4235"/>
<polygon fill="#191970" stroke="#191970" points="2797.6173,-203.5375 2795.105,-193.2449 2790.6504,-202.8577 2797.6173,-203.5375"/>
</g>
<!-- Node15&#45;&gt;Node16 -->
<g id="edge16" class="edge">
<title>Node15&#45;&gt;Node16</title>
<path fill="none" stroke="#191970" d="M2750.32,-174.7655C2735.3128,-172.1976 2718.5191,-169.6402 2703.0557,-168 2519.9378,-148.5769 1952.8577,-129.6343 1767.4102,-123.8155"/>
<polygon fill="#191970" stroke="#191970" points="1767.4111,-120.3139 1757.3066,-123.4996 1767.1923,-127.3105 1767.4111,-120.3139"/>
</g>
<!-- Node17 -->
<g id="node18" class="node">
<title>Node17</title>
<polygon fill="#ffffff" stroke="#bfbfbf" points="2671.5557,-112.5 2671.5557,-131.5 2740.5557,-131.5 2740.5557,-112.5 2671.5557,-112.5"/>
<text text-anchor="middle" x="2706.0557" y="-119.5" font-family="Helvetica,sans-Serif" font-size="10.00" fill="#000000">Eigen/Core</text>
</g>
<!-- Node15&#45;&gt;Node17 -->
<g id="edge18" class="edge">
<title>Node15&#45;&gt;Node17</title>
<path fill="none" stroke="#191970" d="M2781.9932,-173.8906C2767.7271,-164.1421 2745.4207,-148.8994 2728.6685,-137.4521"/>
<polygon fill="#191970" stroke="#191970" points="2730.2506,-134.2941 2720.0194,-131.5419 2726.3012,-140.0736 2730.2506,-134.2941"/>
</g>
<!-- Node18 -->
<g id="node19" class="node">
<title>Node18</title>
<polygon fill="#ffffff" stroke="#bfbfbf" points="2857.5557,-112.5 2857.5557,-131.5 2952.5557,-131.5 2952.5557,-112.5 2857.5557,-112.5"/>
<text text-anchor="middle" x="2905.0557" y="-119.5" font-family="Helvetica,sans-Serif" font-size="10.00" fill="#000000">Eigen/Geometry</text>
</g>
<!-- Node15&#45;&gt;Node18 -->
<g id="edge19" class="edge">
<title>Node15&#45;&gt;Node18</title>
<path fill="none" stroke="#191970" d="M2813.0869,-173.8906C2830.8447,-163.8713 2858.8887,-148.0483 2879.3439,-136.5071"/>
<polygon fill="#191970" stroke="#191970" points="2881.1546,-139.5042 2888.144,-131.5419 2877.7148,-133.4077 2881.1546,-139.5042"/>
</g>
<!-- Node19 -->
<g id="node20" class="node">
<title>Node19</title>
<polygon fill="#ffffff" stroke="#bfbfbf" points="2759.0557,-112.5 2759.0557,-131.5 2839.0557,-131.5 2839.0557,-112.5 2759.0557,-112.5"/>
<text text-anchor="middle" x="2799.0557" y="-119.5" font-family="Helvetica,sans-Serif" font-size="10.00" fill="#000000">Eigen/Sparse</text>
</g>
<!-- Node15&#45;&gt;Node19 -->
<g id="edge20" class="edge">
<title>Node15&#45;&gt;Node19</title>
<path fill="none" stroke="#191970" d="M2796.5244,-173.8906C2796.9403,-165.3657 2797.5611,-152.6392 2798.0838,-141.9235"/>
<polygon fill="#191970" stroke="#191970" points="2801.5889,-141.9035 2798.5803,-131.7449 2794.5972,-141.5624 2801.5889,-141.9035"/>
</g>
<!-- Node16&#45;&gt;Node5 -->
<g id="edge17" class="edge">
<title>Node16&#45;&gt;Node5</title>
<path fill="none" stroke="#191970" d="M1757.2262,-115.1333C1827.8232,-105.2744 1958.2636,-87.0582 2038.9506,-75.7902"/>
<polygon fill="#191970" stroke="#191970" points="2039.6022,-79.2333 2049.0219,-74.3838 2038.6339,-72.3006 2039.6022,-79.2333"/>
</g>
<!-- Node20&#45;&gt;Node4 -->
<g id="edge27" class="edge">
<title>Node20&#45;&gt;Node4</title>
<path fill="none" stroke="#191970" d="M2269.4294,-235.4581C2312.5436,-226.187 2378.9786,-211.9012 2431.283,-200.6539"/>
<polygon fill="#191970" stroke="#191970" points="2432.1691,-204.0435 2441.2098,-198.5193 2430.6974,-197.1999 2432.1691,-204.0435"/>
</g>
<!-- Node20&#45;&gt;Node15 -->
<g id="edge26" class="edge">
<title>Node20&#45;&gt;Node15</title>
<path fill="none" stroke="#191970" d="M2307.2958,-238.8259C2402.6926,-231.2611 2564.6,-217.1779 2703.0557,-199 2715.1009,-197.4186 2727.9786,-195.4513 2740.1939,-193.4549"/>
<polygon fill="#191970" stroke="#191970" points="2740.9762,-196.8729 2750.266,-191.7788 2739.8271,-189.9678 2740.9762,-196.8729"/>
</g>
<!-- Node21 -->
<g id="node22" class="node">
<title>Node21</title>
<polygon fill="#ffffff" stroke="#bfbfbf" points="1812.0557,-174 1812.0557,-193 1850.0557,-193 1850.0557,-174 1812.0557,-174"/>
<text text-anchor="middle" x="1831.0557" y="-181" font-family="Helvetica,sans-Serif" font-size="10.00" fill="#000000">map</text>
</g>
<!-- Node20&#45;&gt;Node21 -->
<g id="edge22" class="edge">
<title>Node20&#45;&gt;Node21</title>
<path fill="none" stroke="#191970" d="M2142.8878,-236.3379C2043.2757,-225.5769 1885.3882,-207.5893 1859.0557,-199 1857.8077,-198.5929 1856.5517,-198.129 1855.2996,-197.6221"/>
<polygon fill="#191970" stroke="#191970" points="1856.5088,-194.3196 1845.9811,-193.1286 1853.4683,-200.6248 1856.5088,-194.3196"/>
</g>
<!-- Node22 -->
<g id="node23" class="node">
<title>Node22</title>
<polygon fill="#ffffff" stroke="#bfbfbf" points="1868.0557,-174 1868.0557,-193 1900.0557,-193 1900.0557,-174 1868.0557,-174"/>
<text text-anchor="middle" x="1884.0557" y="-181" font-family="Helvetica,sans-Serif" font-size="10.00" fill="#000000">set</text>
</g>
<!-- Node20&#45;&gt;Node22 -->
<g id="edge23" class="edge">
<title>Node20&#45;&gt;Node22</title>
<path fill="none" stroke="#191970" d="M2147.9978,-235.454C2061.7269,-224.5028 1931.0605,-207.0268 1909.0557,-199 1908.1741,-198.6784 1907.2903,-198.3232 1906.4091,-197.9407"/>
<polygon fill="#191970" stroke="#191970" points="1907.7631,-194.6968 1897.2896,-193.0979 1904.48,-200.8792 1907.7631,-194.6968"/>
</g>
<!-- Node23 -->
<g id="node24" class="node">
<title>Node23</title>
<g id="a_node24"><a xlink:href="AlignedAllocator_8hpp.html" target="_top" xlink:title="Core/Containers/AlignedAllocator.hpp">
<polygon fill="#ffffff" stroke="#ff0000" points="1918.0557,-174 1918.0557,-193 2116.0557,-193 2116.0557,-174 1918.0557,-174"/>
<text text-anchor="middle" x="2017.0557" y="-181" font-family="Helvetica,sans-Serif" font-size="10.00" fill="#000000">Core/Containers/AlignedAllocator.hpp</text>
</a>
</g>
</g>
<!-- Node20&#45;&gt;Node23 -->
<g id="edge24" class="edge">
<title>Node20&#45;&gt;Node23</title>
<path fill="none" stroke="#191970" d="M2192.5557,-235.3906C2156.6087,-224.7621 2098.5729,-207.6025 2059.1677,-195.9514"/>
<polygon fill="#191970" stroke="#191970" points="2059.9095,-192.521 2049.3275,-193.0419 2057.9247,-199.2337 2059.9095,-192.521"/>
</g>
<!-- Node23&#45;&gt;Node16 -->
<g id="edge25" class="edge">
<title>Node23&#45;&gt;Node16</title>
<path fill="none" stroke="#191970" d="M1969.1135,-173.9581C1914.2293,-163.0345 1824.3661,-145.1492 1765.71,-133.4749"/>
<polygon fill="#191970" stroke="#191970" points="1766.347,-130.0331 1755.8561,-131.5137 1764.9805,-136.8984 1766.347,-130.0331"/>
</g>
<!-- Node28&#45;&gt;Node2 -->
<g id="edge30" class="edge">
<title>Node28&#45;&gt;Node2</title>
<path fill="none" stroke="#191970" d="M890.3366,-173.9581C839.677,-161.7879 753.0463,-140.9763 706.2753,-129.7403"/>
<polygon fill="#191970" stroke="#191970" points="706.9212,-126.2959 696.3802,-127.3631 705.286,-133.1023 706.9212,-126.2959"/>
</g>
<!-- Node28&#45;&gt;Node16 -->
<g id="edge29" class="edge">
<title>Node28&#45;&gt;Node16</title>
<path fill="none" stroke="#191970" d="M1001.8535,-177.8245C1154.3375,-165.7708 1508.0269,-137.812 1648.7507,-126.688"/>
<polygon fill="#191970" stroke="#191970" points="1649.2159,-130.1622 1658.909,-125.885 1648.6642,-123.184 1649.2159,-130.1622"/>
</g>
<!-- Node29&#45;&gt;Node1 -->
<g id="edge33" class="edge">
<title>Node29&#45;&gt;Node1</title>
<path fill="none" stroke="#191970" d="M181.5676,-308.7426C189.5247,-309.5355 197.4588,-310.3041 205.0557,-311 376.8717,-326.738 577.156,-341.6227 692.0839,-350.0013"/>
<polygon fill="#191970" stroke="#191970" points="692.0256,-353.5063 702.2535,-350.742 692.5342,-346.5248 692.0256,-353.5063"/>
</g>
<!-- Node29&#45;&gt;Node30 -->
<g id="edge34" class="edge">
<title>Node29&#45;&gt;Node30</title>
<path fill="none" stroke="#191970" d="M95.5588,-291.3826C88.6569,-277.9145 78.8809,-253.0614 89.0557,-235 98.9165,-217.496 117.3915,-205.2609 134.6047,-197.1227"/>
<polygon fill="#191970" stroke="#191970" points="136.2213,-200.2357 143.9751,-193.0156 133.4112,-193.8245 136.2213,-200.2357"/>
</g>
<!-- Node30&#45;&gt;Node2 -->
<g id="edge39" class="edge">
<title>Node30&#45;&gt;Node2</title>
<path fill="none" stroke="#191970" d="M211.8079,-173.9214C221.3095,-171.7442 231.5189,-169.6036 241.0557,-168 389.6119,-143.0203 569.2535,-129.0573 641.5755,-124.0956"/>
<polygon fill="#191970" stroke="#191970" points="642.1046,-127.5679 651.8462,-123.4023 641.6331,-120.5838 642.1046,-127.5679"/>
</g>
<!-- Node30&#45;&gt;Node9 -->
<g id="edge37" class="edge">
<title>Node30&#45;&gt;Node9</title>
<path fill="none" stroke="#191970" d="M169.044,-173.745C161.9915,-158.4919 151.6239,-128.9864 167.0557,-112 237.245,-34.7394 1007.9051,-14.4343 1189.7662,-10.7039"/>
<polygon fill="#191970" stroke="#191970" points="1189.9955,-14.2001 1199.9233,-10.5004 1189.8552,-7.2015 1189.9955,-14.2001"/>
</g>
<!-- Node30&#45;&gt;Node16 -->
<g id="edge35" class="edge">
<title>Node30&#45;&gt;Node16</title>
<path fill="none" stroke="#191970" d="M227.166,-181.6737C407.1534,-175.4368 1010.5792,-154.1386 1509.0557,-132 1556.1061,-129.9104 1609.3966,-127.215 1648.982,-125.1492"/>
<polygon fill="#191970" stroke="#191970" points="1649.1917,-128.6431 1658.9949,-124.6248 1648.8255,-121.6527 1649.1917,-128.6431"/>
</g>
<!-- Node31 -->
<g id="node28" class="node">
<title>Node31</title>
<polygon fill="#ffffff" stroke="#bfbfbf" points="244.0557,-112.5 244.0557,-131.5 288.0557,-131.5 288.0557,-112.5 244.0557,-112.5"/>
<text text-anchor="middle" x="266.0557" y="-119.5" font-family="Helvetica,sans-Serif" font-size="10.00" fill="#000000">ctime</text>
</g>
<!-- Node30&#45;&gt;Node31 -->
<g id="edge36" class="edge">
<title>Node30&#45;&gt;Node31</title>
<path fill="none" stroke="#191970" d="M188.4307,-173.8906C203.1488,-164.0519 226.2389,-148.6167 243.4146,-137.1351"/>
<polygon fill="#191970" stroke="#191970" points="245.4132,-140.0091 251.7816,-131.5419 241.523,-134.1896 245.4132,-140.0091"/>
</g>
<!-- Node32 -->
<g id="node29" class="node">
<title>Node32</title>
<polygon fill="#ffffff" stroke="#bfbfbf" points="176.0557,-112.5 176.0557,-131.5 226.0557,-131.5 226.0557,-112.5 176.0557,-112.5"/>
<text text-anchor="middle" x="201.0557" y="-119.5" font-family="Helvetica,sans-Serif" font-size="10.00" fill="#000000">stdio.h</text>
</g>
<!-- Node30&#45;&gt;Node32 -->
<g id="edge38" class="edge">
<title>Node30&#45;&gt;Node32</title>
<path fill="none" stroke="#191970" d="M178.2744,-173.8906C182.1353,-165.0965 187.9591,-151.8312 192.7518,-140.9145"/>
<polygon fill="#191970" stroke="#191970" points="195.9623,-142.3083 196.7775,-131.7449 189.5527,-139.4943 195.9623,-142.3083"/>
</g>
<!-- Node33&#45;&gt;Node2 -->
<g id="edge42" class="edge">
<title>Node33&#45;&gt;Node2</title>
<path fill="none" stroke="#191970" d="M618.6104,-291.3916C609.4564,-282.901 597.3138,-269.6212 592.0557,-255 589.0476,-246.6356 589.3113,-243.4546 592.0557,-235 604.6744,-196.1254 636.2446,-159.4379 656.3267,-138.9215"/>
<polygon fill="#191970" stroke="#191970" points="659.0257,-141.1734 663.6455,-131.6388 654.0882,-136.2114 659.0257,-141.1734"/>
</g>
<!-- Node33&#45;&gt;Node3 -->
<g id="edge43" class="edge">
<title>Node33&#45;&gt;Node3</title>
<path fill="none" stroke="#191970" d="M638.0706,-291.2209C659.4223,-265.9294 720.664,-198.231 788.0557,-168 838.4035,-145.4146 1000.8603,-130.2644 1072.0735,-124.5465"/>
<polygon fill="#191970" stroke="#191970" points="1072.5978,-128.0161 1082.2917,-123.7408 1072.0475,-121.0378 1072.5978,-128.0161"/>
</g>
<!-- Node33&#45;&gt;Node15 -->
<g id="edge52" class="edge">
<title>Node33&#45;&gt;Node15</title>
<path fill="none" stroke="#191970" d="M707.6886,-299.0392C788.8405,-296.9975 919.8848,-293.7235 1033.0557,-291 1204.6082,-286.8716 2412.3317,-303.097 2577.0557,-255 2593.5183,-250.1932 2594.3099,-241.7967 2610.0557,-235 2652.415,-216.7156 2703.0175,-203.2013 2740.7408,-194.6154"/>
<polygon fill="#191970" stroke="#191970" points="2741.5321,-198.025 2750.5303,-192.4319 2740.0082,-191.1929 2741.5321,-198.025"/>
</g>
<!-- Node33&#45;&gt;Node16 -->
<g id="edge51" class="edge">
<title>Node33&#45;&gt;Node16</title>
<path fill="none" stroke="#191970" d="M707.5845,-298.6707C905.6865,-292.4646 1420.1431,-274.6571 1495.0557,-255 1501.8327,-253.2217 1602.1126,-202.7107 1608.0557,-199 1638.0078,-180.299 1669.8773,-154.6297 1689.3811,-138.1758"/>
<polygon fill="#191970" stroke="#191970" points="1691.8398,-140.6791 1697.181,-131.5291 1687.2996,-135.3512 1691.8398,-140.6791"/>
</g>
<!-- Node33&#45;&gt;Node28 -->
<g id="edge44" class="edge">
<title>Node33&#45;&gt;Node28</title>
<path fill="none" stroke="#191970" d="M651.7516,-291.4556C681.91,-278.2857 738.2974,-254.0135 787.0557,-235 822.5718,-221.1504 863.5426,-206.5313 892.5013,-196.4219"/>
<polygon fill="#191970" stroke="#191970" points="893.9199,-199.6342 902.2147,-193.0427 891.6199,-193.0228 893.9199,-199.6342"/>
</g>
<!-- Node34 -->
<g id="node31" class="node">
<title>Node34</title>
<polygon fill="#ffffff" stroke="#bfbfbf" points="601.0557,-235.5 601.0557,-254.5 659.0557,-254.5 659.0557,-235.5 601.0557,-235.5"/>
<text text-anchor="middle" x="630.0557" y="-242.5" font-family="Helvetica,sans-Serif" font-size="10.00" fill="#000000">memory</text>
</g>
<!-- Node33&#45;&gt;Node34 -->
<g id="edge41" class="edge">
<title>Node33&#45;&gt;Node34</title>
<path fill="none" stroke="#191970" d="M630.0557,-291.2455C630.0557,-283.9382 630.0557,-273.6944 630.0557,-264.7046"/>
<polygon fill="#191970" stroke="#191970" points="633.5558,-264.6426 630.0557,-254.6427 626.5558,-264.6427 633.5558,-264.6426"/>
</g>
<!-- Node35 -->
<g id="node32" class="node">
<title>Node35</title>
<g id="a_node32"><a xlink:href="VectorArray_8hpp.html" target="_top" xlink:title="Core/Containers/VectorArray.hpp">
<polygon fill="#ffffff" stroke="#000000" points="1547.0557,-235.5 1547.0557,-254.5 1721.0557,-254.5 1721.0557,-235.5 1547.0557,-235.5"/>
<text text-anchor="middle" x="1634.0557" y="-242.5" font-family="Helvetica,sans-Serif" font-size="10.00" fill="#000000">Core/Containers/VectorArray.hpp</text>
</a>
</g>
</g>
<!-- Node33&#45;&gt;Node35 -->
<g id="edge45" class="edge">
<title>Node33&#45;&gt;Node35</title>
<path fill="none" stroke="#191970" d="M707.7409,-298.2943C864.1203,-292.5713 1228.0076,-277.858 1533.0557,-255 1534.3406,-254.9037 1535.6345,-254.8048 1536.9358,-254.7034"/>
<polygon fill="#191970" stroke="#191970" points="1537.349,-258.1815 1547.0325,-253.8825 1536.7817,-251.2045 1537.349,-258.1815"/>
</g>
<!-- Node38 -->
<g id="node35" class="node">
<title>Node38</title>
<g id="a_node35"><a xlink:href="CameraData_8inl.html" target="_top" xlink:title="Core/Asset/CameraData.inl">
<polygon fill="#ffffff" stroke="#000000" points="396.5557,-235.5 396.5557,-254.5 545.5557,-254.5 545.5557,-235.5 396.5557,-235.5"/>
<text text-anchor="middle" x="471.0557" y="-242.5" font-family="Helvetica,sans-Serif" font-size="10.00" fill="#000000">Core/Asset/CameraData.inl</text>
</a>
</g>
</g>
<!-- Node33&#45;&gt;Node38 -->
<g id="edge53" class="edge">
<title>Node33&#45;&gt;Node38</title>
<path fill="none" stroke="#191970" d="M597.4806,-291.3733C569.5866,-282.1822 529.8741,-268.2624 502.3566,-258.0713"/>
<polygon fill="#191970" stroke="#191970" points="503.4072,-254.7275 492.8148,-254.5011 500.9541,-261.2836 503.4072,-254.7275"/>
</g>
<!-- Node35&#45;&gt;Node16 -->
<g id="edge50" class="edge">
<title>Node35&#45;&gt;Node16</title>
<path fill="none" stroke="#191970" d="M1639.8623,-235.3484C1652.1825,-214.8703 1681.1137,-166.782 1697.0482,-140.2962"/>
<polygon fill="#191970" stroke="#191970" points="1700.1198,-141.9799 1702.276,-131.6068 1694.1217,-138.3712 1700.1198,-141.9799"/>
</g>
<!-- Node36 -->
<g id="node33" class="node">
<title>Node36</title>
<g id="a_node33"><a xlink:href="AlignedStdVector_8hpp.html" target="_top" xlink:title="Core/Containers/AlignedStd\lVector.hpp">
<polygon fill="#ffffff" stroke="#000000" points="1378.0557,-168.5 1378.0557,-198.5 1528.0557,-198.5 1528.0557,-168.5 1378.0557,-168.5"/>
<text text-anchor="start" x="1386.0557" y="-186.5" font-family="Helvetica,sans-Serif" font-size="10.00" fill="#000000">Core/Containers/AlignedStd</text>
<text text-anchor="middle" x="1453.0557" y="-175.5" font-family="Helvetica,sans-Serif" font-size="10.00" fill="#000000">Vector.hpp</text>
</a>
</g>
</g>
<!-- Node35&#45;&gt;Node36 -->
<g id="edge46" class="edge">
<title>Node35&#45;&gt;Node36</title>
<path fill="none" stroke="#191970" d="M1605.7744,-235.3906C1579.4638,-226.4508 1539.5545,-212.8905 1507.1318,-201.8739"/>
<polygon fill="#191970" stroke="#191970" points="1507.9277,-198.4479 1497.3333,-198.5446 1505.6756,-205.0757 1507.9277,-198.4479"/>
</g>
<!-- Node36&#45;&gt;Node3 -->
<g id="edge49" class="edge">
<title>Node36&#45;&gt;Node3</title>
<path fill="none" stroke="#191970" d="M1377.9562,-169.6065C1374.9506,-169.0618 1371.9748,-168.5246 1369.0557,-168 1286.6393,-153.1889 1189.5752,-136.3748 1139.5766,-127.76"/>
<polygon fill="#191970" stroke="#191970" points="1140.0929,-124.2975 1129.644,-126.0499 1138.9051,-131.196 1140.0929,-124.2975"/>
</g>
<!-- Node36&#45;&gt;Node16 -->
<g id="edge47" class="edge">
<title>Node36&#45;&gt;Node16</title>
<path fill="none" stroke="#191970" d="M1515.4357,-168.4554C1559.5693,-157.8114 1617.9325,-143.7356 1658.8043,-133.8783"/>
<polygon fill="#191970" stroke="#191970" points="1659.6391,-137.2774 1668.5397,-131.5303 1657.9979,-130.4725 1659.6391,-137.2774"/>
</g>
<!-- Node37 -->
<g id="node34" class="node">
<title>Node37</title>
<polygon fill="#ffffff" stroke="#bfbfbf" points="1406.5557,-112.5 1406.5557,-131.5 1499.5557,-131.5 1499.5557,-112.5 1406.5557,-112.5"/>
<text text-anchor="middle" x="1453.0557" y="-119.5" font-family="Helvetica,sans-Serif" font-size="10.00" fill="#000000">Eigen/StdVector</text>
</g>
<!-- Node36&#45;&gt;Node37 -->
<g id="edge48" class="edge">
<title>Node36&#45;&gt;Node37</title>
<path fill="none" stroke="#191970" d="M1453.0557,-168.2977C1453.0557,-160.3834 1453.0557,-150.6043 1453.0557,-142.0759"/>
<polygon fill="#191970" stroke="#191970" points="1456.5558,-141.8469 1453.0557,-131.8469 1449.5558,-141.847 1456.5558,-141.8469"/>
</g>
<!-- Node38&#45;&gt;Node30 -->
<g id="edge55" class="edge">
<title>Node38&#45;&gt;Node30</title>
<path fill="none" stroke="#191970" d="M424.9753,-235.4581C372.4084,-224.573 286.4574,-206.7751 230.0679,-195.0985"/>
<polygon fill="#191970" stroke="#191970" points="230.7462,-191.6648 220.2442,-193.0643 229.3267,-198.5193 230.7462,-191.6648"/>
</g>
<!-- Node38&#45;&gt;Node33 -->
<g id="edge54" class="edge">
<title>Node38&#45;&gt;Node33</title>
<path fill="none" stroke="#191970" d="M503.2494,-254.5011C531.0349,-263.6488 570.7487,-277.5639 598.377,-287.7888"/>
<polygon fill="#191970" stroke="#191970" points="597.3722,-291.1497 607.9646,-291.3733 599.8235,-284.5929 597.3722,-291.1497"/>
</g>
<!-- Node39&#45;&gt;Node2 -->
<g id="edge58" class="edge">
<title>Node39&#45;&gt;Node2</title>
<path fill="none" stroke="#191970" d="M1402.5319,-291.7767C1345.178,-284.3731 1267.273,-272.3307 1200.0557,-255 1128.7233,-236.6083 1106.8801,-237.4664 1044.0557,-199 1026.894,-188.4922 1029.2198,-176.6605 1011.0557,-168 957.459,-142.4456 780.095,-128.6529 706.4995,-123.913"/>
<polygon fill="#191970" stroke="#191970" points="706.6213,-120.4138 696.4212,-123.2791 706.1817,-127.4 706.6213,-120.4138"/>
</g>
<!-- Node39&#45;&gt;Node3 -->
<g id="edge59" class="edge">
<title>Node39&#45;&gt;Node3</title>
<path fill="none" stroke="#191970" d="M1402.3087,-292.0765C1356.3544,-285.3383 1298.795,-273.9067 1250.0557,-255 1205.4277,-237.6881 1192.6926,-232.04 1158.0557,-199 1140.1025,-181.8745 1124.9511,-157.5313 1115.7157,-140.8258"/>
<polygon fill="#191970" stroke="#191970" points="1118.7891,-139.1508 1110.9853,-131.9848 1112.617,-142.4532 1118.7891,-139.1508"/>
</g>
<!-- Node39&#45;&gt;Node16 -->
<g id="edge62" class="edge">
<title>Node39&#45;&gt;Node16</title>
<path fill="none" stroke="#191970" d="M1567.677,-292.7411C1644.9692,-284.1613 1750.3987,-269.9234 1763.0557,-255 1792.9167,-219.7919 1751.026,-166.1269 1725.3994,-138.9861"/>
<polygon fill="#191970" stroke="#191970" points="1727.8544,-136.4903 1718.3705,-131.7673 1722.8391,-141.3737 1727.8544,-136.4903"/>
</g>
<!-- Node39&#45;&gt;Node18 -->
<g id="edge60" class="edge">
<title>Node39&#45;&gt;Node18</title>
<path fill="none" stroke="#191970" d="M1567.5694,-299.7363C1864.8083,-295.0028 2864.5742,-277.4397 2889.0557,-255 2920.3723,-226.2952 2915.1442,-170.84 2909.5788,-141.4234"/>
<polygon fill="#191970" stroke="#191970" points="2912.9829,-140.6028 2907.5048,-131.5341 2906.132,-142.0396 2912.9829,-140.6028"/>
</g>
<!-- Node39&#45;&gt;Node28 -->
<g id="edge68" class="edge">
<title>Node39&#45;&gt;Node28</title>
<path fill="none" stroke="#191970" d="M1402.2272,-294.4613C1332.0372,-287.8435 1229.06,-275.5894 1141.0557,-255 1076.516,-239.9003 1003.8315,-212.9763 962.8279,-196.825"/>
<polygon fill="#191970" stroke="#191970" points="963.9396,-193.5007 953.3539,-193.0623 961.3558,-200.0064 963.9396,-193.5007"/>
</g>
<!-- Node39&#45;&gt;Node34 -->
<g id="edge57" class="edge">
<title>Node39&#45;&gt;Node34</title>
<path fill="none" stroke="#191970" d="M1402.2978,-295.5796C1222.3305,-283.7923 801.0072,-256.1968 669.7911,-247.6026"/>
<polygon fill="#191970" stroke="#191970" points="669.6317,-244.0847 659.4243,-246.9236 669.1742,-251.0697 669.6317,-244.0847"/>
</g>
<!-- Node39&#45;&gt;Node35 -->
<g id="edge61" class="edge">
<title>Node39&#45;&gt;Node35</title>
<path fill="none" stroke="#191970" d="M1510.6697,-291.3733C1535.1244,-282.1822 1572.1611,-268.2624 1599.2766,-258.0713"/>
<polygon fill="#191970" stroke="#191970" points="1600.6466,-261.2956 1608.7759,-254.5011 1598.1838,-254.7431 1600.6466,-261.2956"/>
</g>
<!-- Node40 -->
<g id="node37" class="node">
<title>Node40</title>
<g id="a_node37"><a xlink:href="Index_8hpp.html" target="_top" xlink:title="Core/Utils/Index.hpp">
<polygon fill="#ffffff" stroke="#000000" points="2134.0557,-174 2134.0557,-193 2250.0557,-193 2250.0557,-174 2134.0557,-174"/>
<text text-anchor="middle" x="2192.0557" y="-181" font-family="Helvetica,sans-Serif" font-size="10.00" fill="#000000">Core/Utils/Index.hpp</text>
</a>
</g>
</g>
<!-- Node39&#45;&gt;Node40 -->
<g id="edge63" class="edge">
<title>Node39&#45;&gt;Node40</title>
<path fill="none" stroke="#191970" d="M1567.7899,-294.3992C1665.1761,-286.0852 1820.77,-270.9468 1877.0557,-255 1897.3347,-249.2546 1899.9487,-241.3212 1920.0557,-235 2008.3028,-207.257 2034.4052,-217.4315 2125.0557,-199 2130.752,-197.8418 2136.705,-196.5635 2142.6111,-195.2527"/>
<polygon fill="#191970" stroke="#191970" points="2143.4686,-198.6473 2152.4526,-193.0314 2141.9274,-191.819 2143.4686,-198.6473"/>
</g>
<!-- Node42 -->
<g id="node39" class="node">
<title>Node42</title>
<g id="a_node39"><a xlink:href="MaterialData_8hpp.html" target="_top" xlink:title="Core/Asset/MaterialData.hpp">
<polygon fill="#ffffff" stroke="#000000" points="1259.0557,-235.5 1259.0557,-254.5 1415.0557,-254.5 1415.0557,-235.5 1259.0557,-235.5"/>
<text text-anchor="middle" x="1337.0557" y="-242.5" font-family="Helvetica,sans-Serif" font-size="10.00" fill="#000000">Core/Asset/MaterialData.hpp</text>
</a>
</g>
</g>
<!-- Node39&#45;&gt;Node42 -->
<g id="edge69" class="edge">
<title>Node39&#45;&gt;Node42</title>
<path fill="none" stroke="#191970" d="M1459.6136,-291.3733C1435.323,-282.1822 1398.5349,-268.2624 1371.6014,-258.0713"/>
<polygon fill="#191970" stroke="#191970" points="1372.7573,-254.7666 1362.1658,-254.5011 1370.28,-261.3136 1372.7573,-254.7666"/>
</g>
<!-- Node44 -->
<g id="node41" class="node">
<title>Node44</title>
<g id="a_node41"><a xlink:href="GeometryData_8inl.html" target="_top" xlink:title="Core/Asset/GeometryData.inl">
<polygon fill="#ffffff" stroke="#000000" points="1928.5557,-235.5 1928.5557,-254.5 2087.5557,-254.5 2087.5557,-235.5 1928.5557,-235.5"/>
<text text-anchor="middle" x="2008.0557" y="-242.5" font-family="Helvetica,sans-Serif" font-size="10.00" fill="#000000">Core/Asset/GeometryData.inl</text>
</a>
</g>
</g>
<!-- Node39&#45;&gt;Node44 -->
<g id="edge76" class="edge">
<title>Node39&#45;&gt;Node44</title>
<path fill="none" stroke="#191970" d="M1567.1155,-291.4993C1651.956,-282.2076 1788.1077,-267.6501 1906.0557,-255 1910.1427,-254.5617 1914.3308,-254.1122 1918.5686,-253.6582"/>
<polygon fill="#191970" stroke="#191970" points="1918.952,-257.1373 1928.523,-252.5935 1918.2075,-250.177 1918.952,-257.1373"/>
</g>
<!-- Node40&#45;&gt;Node12 -->
<g id="edge65" class="edge">
<title>Node40&#45;&gt;Node12</title>
<path fill="none" stroke="#191970" d="M2222.0557,-173.8906C2257.5327,-162.5269 2316.3176,-143.6974 2352.4718,-132.1167"/>
<polygon fill="#191970" stroke="#191970" points="2353.5752,-135.4385 2362.0309,-129.0548 2351.4398,-128.7722 2353.5752,-135.4385"/>
</g>
<!-- Node40&#45;&gt;Node16 -->
<g id="edge64" class="edge">
<title>Node40&#45;&gt;Node16</title>
<path fill="none" stroke="#191970" d="M2154.2989,-173.9483C2144.7975,-171.7705 2134.5893,-169.6228 2125.0557,-168 1998.3585,-146.4334 1848.2046,-132.7429 1767.123,-126.3172"/>
<polygon fill="#191970" stroke="#191970" points="1767.3486,-122.8242 1757.1057,-125.5325 1766.8019,-129.8028 1767.3486,-122.8242"/>
</g>
<!-- Node41 -->
<g id="node38" class="node">
<title>Node41</title>
<g id="a_node38"><a xlink:href="Index_8inl.html" target="_top" xlink:title="Core/Utils/Index.inl">
<polygon fill="#ffffff" stroke="#000000" points="2137.0557,-112.5 2137.0557,-131.5 2247.0557,-131.5 2247.0557,-112.5 2137.0557,-112.5"/>
<text text-anchor="middle" x="2192.0557" y="-119.5" font-family="Helvetica,sans-Serif" font-size="10.00" fill="#000000">Core/Utils/Index.inl</text>
</a>
</g>
</g>
<!-- Node40&#45;&gt;Node41 -->
<g id="edge66" class="edge">
<title>Node40&#45;&gt;Node41</title>
<path fill="none" stroke="#191970" d="M2186.9932,-173.8906C2185.3298,-165.3657 2184.8961,-152.6392 2185.6922,-141.9235"/>
<polygon fill="#191970" stroke="#191970" points="2189.1971,-142.1023 2186.9669,-131.7449 2182.2513,-141.2324 2189.1971,-142.1023"/>
</g>
<!-- Node41&#45;&gt;Node40 -->
<g id="edge67" class="edge">
<title>Node41&#45;&gt;Node40</title>
<path fill="none" stroke="#191970" d="M2197.1445,-131.7449C2198.7949,-140.314 2199.2155,-153.0519 2198.4065,-163.7462"/>
<polygon fill="#191970" stroke="#191970" points="2194.906,-163.5293 2197.1182,-173.8906 2201.8502,-164.4113 2194.906,-163.5293"/>
</g>
<!-- Node42&#45;&gt;Node2 -->
<g id="edge70" class="edge">
<title>Node42&#45;&gt;Node2</title>
<path fill="none" stroke="#191970" d="M1298.2846,-235.4961C1261.3892,-226.3821 1204.3467,-212.1099 1155.0557,-199 1105.5555,-185.8344 1094.2759,-178.0764 1044.0557,-168 920.5113,-143.2115 770.9154,-129.5237 706.3221,-124.3876"/>
<polygon fill="#191970" stroke="#191970" points="706.5858,-120.8977 696.3438,-123.6089 706.0411,-127.8765 706.5858,-120.8977"/>
</g>
<!-- Node42&#45;&gt;Node3 -->
<g id="edge71" class="edge">
<title>Node42&#45;&gt;Node3</title>
<path fill="none" stroke="#191970" d="M1296.8143,-235.4353C1268.8868,-227.8453 1231.3997,-215.7207 1201.0557,-199 1184.9921,-190.1483 1147.337,-158.1696 1124.5532,-138.3141"/>
<polygon fill="#191970" stroke="#191970" points="1126.7288,-135.567 1116.8995,-131.6128 1122.1175,-140.8336 1126.7288,-135.567"/>
</g>
<!-- Node42&#45;&gt;Node16 -->
<g id="edge73" class="edge">
<title>Node42&#45;&gt;Node16</title>
<path fill="none" stroke="#191970" d="M1409.6435,-235.4629C1448.6313,-228.5926 1496.8127,-217.2304 1537.0557,-199 1558.5161,-189.2783 1559.211,-178.98 1580.0557,-168 1606.7074,-153.9612 1638.5812,-142.4914 1663.8549,-134.5163"/>
<polygon fill="#191970" stroke="#191970" points="1665.0194,-137.8199 1673.5431,-131.5273 1662.9557,-131.131 1665.0194,-137.8199"/>
</g>
<!-- Node42&#45;&gt;Node28 -->
<g id="edge72" class="edge">
<title>Node42&#45;&gt;Node28</title>
<path fill="none" stroke="#191970" d="M1273.9085,-235.4581C1200.7215,-224.3991 1080.3125,-206.2047 1003.141,-194.5436"/>
<polygon fill="#191970" stroke="#191970" points="1003.4269,-191.0471 993.0161,-193.0137 1002.3809,-197.9686 1003.4269,-191.0471"/>
</g>
<!-- Node43 -->
<g id="node40" class="node">
<title>Node43</title>
<g id="a_node40"><a xlink:href="MaterialData_8inl.html" target="_top" xlink:title="Core/Asset/MaterialData.inl">
<polygon fill="#ffffff" stroke="#000000" points="1210.0557,-174 1210.0557,-193 1360.0557,-193 1360.0557,-174 1210.0557,-174"/>
<text text-anchor="middle" x="1285.0557" y="-181" font-family="Helvetica,sans-Serif" font-size="10.00" fill="#000000">Core/Asset/MaterialData.inl</text>
</a>
</g>
</g>
<!-- Node42&#45;&gt;Node43 -->
<g id="edge74" class="edge">
<title>Node42&#45;&gt;Node43</title>
<path fill="none" stroke="#191970" d="M1323.8682,-235.3906C1314.4364,-226.3273 1302.3792,-212.5149 1294.0086,-201.4188"/>
<polygon fill="#191970" stroke="#191970" points="1296.8489,-199.3734 1288.2065,-193.2449 1291.1407,-203.4253 1296.8489,-199.3734"/>
</g>
<!-- Node43&#45;&gt;Node42 -->
<g id="edge75" class="edge">
<title>Node43&#45;&gt;Node42</title>
<path fill="none" stroke="#191970" d="M1298.384,-193.2449C1307.7481,-202.265 1319.6552,-215.9043 1327.9787,-226.9169"/>
<polygon fill="#191970" stroke="#191970" points="1325.351,-229.2617 1333.9932,-235.3906 1331.0593,-225.2101 1325.351,-229.2617"/>
</g>
<!-- Node44&#45;&gt;Node39 -->
<g id="edge77" class="edge">
<title>Node44&#45;&gt;Node39</title>
<path fill="none" stroke="#191970" d="M1928.4504,-254.5285C1926.9748,-254.6869 1925.5089,-254.8441 1924.0557,-255 1804.7343,-267.7974 1666.7827,-282.5469 1577.7913,-291.8218"/>
<polygon fill="#191970" stroke="#191970" points="1577.3083,-288.353 1567.7243,-292.8693 1578.0328,-295.3155 1577.3083,-288.353"/>
</g>
<!-- Node45 -->
<g id="node42" class="node">
<title>Node45</title>
<polygon fill="#ffffff" stroke="#bfbfbf" points="2267.0557,-112.5 2267.0557,-131.5 2331.0557,-131.5 2331.0557,-112.5 2267.0557,-112.5"/>
<text text-anchor="middle" x="2299.0557" y="-119.5" font-family="Helvetica,sans-Serif" font-size="10.00" fill="#000000">algorithm</text>
</g>
<!-- Node44&#45;&gt;Node45 -->
<g id="edge78" class="edge">
<title>Node44&#45;&gt;Node45</title>
<path fill="none" stroke="#191970" d="M2087.7752,-238.0289C2150.7535,-231.1472 2232.3349,-218.7486 2259.0557,-199 2278.1064,-184.9202 2288.8457,-159.0835 2294.2961,-141.2466"/>
<polygon fill="#191970" stroke="#191970" points="2297.6759,-142.1563 2296.9753,-131.5846 2290.9304,-140.2858 2297.6759,-142.1563"/>
</g>
<!-- Node46&#45;&gt;Node2 -->
<g id="edge82" class="edge">
<title>Node46&#45;&gt;Node2</title>
<path fill="none" stroke="#191970" d="M1094.4604,-291.4829C1073.9574,-282.6418 1043.0496,-268.7982 1017.0557,-255 1001.9076,-246.959 999.8274,-241.7363 984.0557,-235 927.3446,-210.7778 908.2454,-219.4161 850.0557,-199 796.7786,-180.3076 736.9997,-152.6652 702.6161,-136.084"/>
<polygon fill="#191970" stroke="#191970" points="703.7314,-132.7349 693.2069,-131.5163 700.6744,-139.0321 703.7314,-132.7349"/>
</g>
<!-- Node46&#45;&gt;Node3 -->
<g id="edge83" class="edge">
<title>Node46&#45;&gt;Node3</title>
<path fill="none" stroke="#191970" d="M1116.4643,-291.3762C1114.7334,-263.2097 1109.6514,-180.5126 1107.2891,-142.0713"/>
<polygon fill="#191970" stroke="#191970" points="1110.7569,-141.4379 1106.65,-131.6714 1103.7701,-141.8673 1110.7569,-141.4379"/>
</g>
<!-- Node46&#45;&gt;Node15 -->
<g id="edge86" class="edge">
<title>Node46&#45;&gt;Node15</title>
<path fill="none" stroke="#191970" d="M1192.5882,-298.1409C1248.2766,-296.0651 1325.8801,-293.2398 1394.0557,-291 1529.1531,-286.5617 2479.3261,-289.3625 2610.0557,-255 2628.5139,-250.1482 2630.5497,-242.6018 2648.0557,-235 2683.255,-219.715 2724.5972,-205.6387 2754.6264,-196.0797"/>
<polygon fill="#191970" stroke="#191970" points="2755.8652,-199.359 2764.3514,-193.0158 2753.7618,-192.6825 2755.8652,-199.359"/>
</g>
<!-- Node46&#45;&gt;Node16 -->
<g id="edge85" class="edge">
<title>Node46&#45;&gt;Node16</title>
<path fill="none" stroke="#191970" d="M1192.6096,-298.0436C1352.5068,-291.4198 1712.0226,-274.437 1730.0557,-255 1759.2458,-223.5374 1735.3281,-168.9047 1719.4094,-140.4405"/>
<polygon fill="#191970" stroke="#191970" points="1722.2789,-138.4137 1714.2125,-131.5446 1716.2347,-141.9447 1722.2789,-138.4137"/>
</g>
<!-- Node46&#45;&gt;Node21 -->
<g id="edge80" class="edge">
<title>Node46&#45;&gt;Node21</title>
<path fill="none" stroke="#191970" d="M1192.8503,-298.6733C1352.4456,-293.3322 1712.6239,-278.7907 1763.0557,-255 1787.6318,-243.4065 1807.8597,-218.7286 1819.6922,-201.6325"/>
<polygon fill="#191970" stroke="#191970" points="1822.7749,-203.3164 1825.3764,-193.0459 1816.9379,-199.4524 1822.7749,-203.3164"/>
</g>
<!-- Node46&#45;&gt;Node22 -->
<g id="edge81" class="edge">
<title>Node46&#45;&gt;Node22</title>
<path fill="none" stroke="#191970" d="M1192.7518,-298.3043C1357.1091,-292.0957 1736.3117,-275.7177 1791.0557,-255 1822.1093,-243.2478 1851.3281,-217.4662 1868.4549,-200.2905"/>
<polygon fill="#191970" stroke="#191970" points="1870.9908,-202.703 1875.4361,-193.0858 1865.9637,-197.8317 1870.9908,-202.703"/>
</g>
<!-- Node46&#45;&gt;Node28 -->
<g id="edge87" class="edge">
<title>Node46&#45;&gt;Node28</title>
<path fill="none" stroke="#191970" d="M1102.9559,-291.38C1083.7209,-278.3289 1048.095,-254.4138 1017.0557,-235 996.7151,-222.2778 973.293,-208.4593 955.879,-198.3421"/>
<polygon fill="#191970" stroke="#191970" points="957.2883,-195.1138 946.8803,-193.1327 953.7812,-201.1719 957.2883,-195.1138"/>
</g>
<!-- Node46&#45;&gt;Node36 -->
<g id="edge84" class="edge">
<title>Node46&#45;&gt;Node36</title>
<path fill="none" stroke="#191970" d="M1192.6116,-298.123C1271.6883,-293.6668 1389.1254,-282.5094 1424.0557,-255 1438.2494,-243.8217 1445.5368,-224.5754 1449.2553,-208.8652"/>
<polygon fill="#191970" stroke="#191970" points="1452.7599,-209.1903 1451.3004,-198.6965 1445.8973,-207.8101 1452.7599,-209.1903"/>
</g>
<!-- Node47 -->
<g id="node44" class="node">
<title>Node47</title>
<g id="a_node44"><a xlink:href="HandleData_8inl.html" target="_top" xlink:title="Core/Asset/HandleData.inl">
<polygon fill="#ffffff" stroke="#000000" points="829.5557,-235.5 829.5557,-254.5 974.5557,-254.5 974.5557,-235.5 829.5557,-235.5"/>
<text text-anchor="middle" x="902.0557" y="-242.5" font-family="Helvetica,sans-Serif" font-size="10.00" fill="#000000">Core/Asset/HandleData.inl</text>
</a>
</g>
</g>
<!-- Node46&#45;&gt;Node47 -->
<g id="edge88" class="edge">
<title>Node46&#45;&gt;Node47</title>
<path fill="none" stroke="#191970" d="M1075.1106,-291.4369C1036.9155,-281.9737 981.0147,-267.4528 943.1047,-257.1717"/>
<polygon fill="#191970" stroke="#191970" points="943.9667,-253.779 933.398,-254.5237 942.1243,-260.5322 943.9667,-253.779"/>
</g>
<!-- Node47&#45;&gt;Node30 -->
<g id="edge90" class="edge">
<title>Node47&#45;&gt;Node30</title>
<path fill="none" stroke="#191970" d="M829.2552,-238.85C686.588,-226.7977 372.4109,-200.2567 237.5693,-188.8655"/>
<polygon fill="#191970" stroke="#191970" points="237.6611,-185.3609 227.402,-188.0066 237.0718,-192.336 237.6611,-185.3609"/>
</g>
<!-- Node47&#45;&gt;Node46 -->
<g id="edge89" class="edge">
<title>Node47&#45;&gt;Node46</title>
<path fill="none" stroke="#191970" d="M943.7505,-254.5011C981.8176,-263.9296 1037.6213,-278.4228 1075.6068,-288.7199"/>
<polygon fill="#191970" stroke="#191970" points="1074.7694,-292.1193 1085.3379,-291.3733 1076.6109,-285.3658 1074.7694,-292.1193"/>
</g>
<!-- Node48&#45;&gt;Node2 -->
<g id="edge93" class="edge">
<title>Node48&#45;&gt;Node2</title>
<path fill="none" stroke="#191970" d="M351.999,-291.377C339.7468,-283.4014 324.1848,-270.8248 317.0557,-255 301.1735,-219.7457 291.521,-197.036 317.0557,-168 338.38,-143.7517 557.9875,-128.6728 641.7963,-123.7636"/>
<polygon fill="#191970" stroke="#191970" points="642.2235,-127.2449 652.0062,-123.1767 641.8218,-120.2564 642.2235,-127.2449"/>
</g>
<!-- Node48&#45;&gt;Node3 -->
<g id="edge94" class="edge">
<title>Node48&#45;&gt;Node3</title>
<path fill="none" stroke="#191970" d="M365.9285,-291.1449C362.0921,-276.9303 357.6244,-250.6646 371.0557,-235 417.6374,-180.6729 934.8846,-135.6859 1072.5601,-124.613"/>
<polygon fill="#191970" stroke="#191970" points="1072.8426,-128.1017 1082.5324,-123.8171 1072.2856,-121.1239 1072.8426,-128.1017"/>
</g>
<!-- Node48&#45;&gt;Node16 -->
<g id="edge96" class="edge">
<title>Node48&#45;&gt;Node16</title>
<path fill="none" stroke="#191970" d="M439.311,-296.6968C471.0011,-294.8241 508.9052,-292.679 543.0557,-291 738.7605,-281.3785 1232.0705,-294.1742 1424.0557,-255 1458.5103,-247.9696 1541.8284,-216.9682 1572.0557,-199 1590.2057,-188.2109 1590.291,-179.4123 1608.0557,-168 1628.2744,-155.0112 1652.7595,-143.6833 1672.4407,-135.5188"/>
<polygon fill="#191970" stroke="#191970" points="1674.0088,-138.6598 1681.9609,-131.6588 1671.3786,-132.1728 1674.0088,-138.6598"/>
</g>
<!-- Node48&#45;&gt;Node28 -->
<g id="edge95" class="edge">
<title>Node48&#45;&gt;Node28</title>
<path fill="none" stroke="#191970" d="M368.5524,-291.1327C368.3963,-276.4048 370.5168,-248.9179 387.0557,-235 421.5709,-205.9546 705.5509,-191.6153 848.498,-186.1818"/>
<polygon fill="#191970" stroke="#191970" points="848.6791,-189.6776 858.5411,-185.8059 848.4172,-182.6825 848.6791,-189.6776"/>
</g>
<!-- Node48&#45;&gt;Node34 -->
<g id="edge92" class="edge">
<title>Node48&#45;&gt;Node34</title>
<path fill="none" stroke="#191970" d="M413.6266,-291.4369C463.543,-280.7269 543.6536,-263.5384 591.1394,-253.3498"/>
<polygon fill="#191970" stroke="#191970" points="591.9973,-256.7455 601.0405,-251.2255 590.5288,-249.9013 591.9973,-256.7455"/>
</g>
<!-- Node49 -->
<g id="node46" class="node">
<title>Node49</title>
<g id="a_node46"><a xlink:href="Color_8hpp.html" target="_top" xlink:title="Core/Utils/Color.hpp">
<polygon fill="#ffffff" stroke="#000000" points="2454.5557,-235.5 2454.5557,-254.5 2567.5557,-254.5 2567.5557,-235.5 2454.5557,-235.5"/>
<text text-anchor="middle" x="2511.0557" y="-242.5" font-family="Helvetica,sans-Serif" font-size="10.00" fill="#000000">Core/Utils/Color.hpp</text>
</a>
</g>
</g>
<!-- Node48&#45;&gt;Node49 -->
<g id="edge97" class="edge">
<title>Node48&#45;&gt;Node49</title>
<path fill="none" stroke="#191970" d="M439.2966,-296.3684C470.9839,-294.4322 508.8898,-292.3282 543.0557,-291 1330.6232,-260.3837 1528.3974,-283.1861 2316.0557,-255 2358.6335,-253.4764 2406.4055,-251.0385 2444.0089,-248.9513"/>
<polygon fill="#191970" stroke="#191970" points="2444.544,-252.4269 2454.3326,-248.3729 2444.1524,-245.4378 2444.544,-252.4269"/>
</g>
<!-- Node53 -->
<g id="node49" class="node">
<title>Node53</title>
<g id="a_node49"><a xlink:href="LightData_8inl.html" target="_top" xlink:title="Core/Asset/LightData.inl">
<polygon fill="#ffffff" stroke="#000000" points="131.0557,-235.5 131.0557,-254.5 265.0557,-254.5 265.0557,-235.5 131.0557,-235.5"/>
<text text-anchor="middle" x="198.0557" y="-242.5" font-family="Helvetica,sans-Serif" font-size="10.00" fill="#000000">Core/Asset/LightData.inl</text>
</a>
</g>
</g>
<!-- Node48&#45;&gt;Node53 -->
<g id="edge106" class="edge">
<title>Node48&#45;&gt;Node53</title>
<path fill="none" stroke="#191970" d="M334.4177,-291.3733C304.2923,-282.1016 261.1089,-268.0178 231.379,-257.804"/>
<polygon fill="#191970" stroke="#191970" points="232.4455,-254.4695 221.8508,-254.5011 230.1528,-261.0834 232.4455,-254.4695"/>
</g>
<!-- Node49&#45;&gt;Node5 -->
<g id="edge98" class="edge">
<title>Node49&#45;&gt;Node5</title>
<path fill="none" stroke="#191970" d="M2544.5559,-235.3574C2562.3169,-228.3494 2582.5797,-216.8886 2593.0557,-199 2620.3737,-152.3524 2558.861,-130.4687 2508.0557,-112 2449.3505,-90.6595 2277.3921,-76.6591 2179.4519,-70.1772"/>
<polygon fill="#191970" stroke="#191970" points="2179.5469,-66.676 2169.3402,-69.5172 2179.091,-73.6611 2179.5469,-66.676"/>
</g>
<!-- Node49&#45;&gt;Node17 -->
<g id="edge103" class="edge">
<title>Node49&#45;&gt;Node17</title>
<path fill="none" stroke="#191970" d="M2565.1535,-235.4731C2618.7782,-225.4933 2694.1939,-209.7966 2703.0557,-199 2716.0758,-183.1372 2714.5694,-158.6375 2711.2706,-141.5472"/>
<polygon fill="#191970" stroke="#191970" points="2714.6251,-140.5164 2708.9785,-131.5516 2707.8022,-142.0809 2714.6251,-140.5164"/>
</g>
<!-- Node49&#45;&gt;Node18 -->
<g id="edge104" class="edge">
<title>Node49&#45;&gt;Node18</title>
<path fill="none" stroke="#191970" d="M2567.5613,-242.7911C2651.6038,-238.6071 2804.6283,-227.2633 2851.0557,-199 2873.1934,-185.5234 2888.6389,-159.1562 2897.1802,-141.0648"/>
<polygon fill="#191970" stroke="#191970" points="2900.4504,-142.3243 2901.3119,-131.7646 2894.0533,-139.4823 2900.4504,-142.3243"/>
</g>
<!-- Node50 -->
<g id="node47" class="node">
<title>Node50</title>
<g id="a_node47"><a xlink:href="Math_8hpp.html" target="_top" xlink:title="Core/Math/Math.hpp">
<polygon fill="#ffffff" stroke="#ff0000" points="2306.0557,-174 2306.0557,-193 2420.0557,-193 2420.0557,-174 2306.0557,-174"/>
<text text-anchor="middle" x="2363.0557" y="-181" font-family="Helvetica,sans-Serif" font-size="10.00" fill="#000000">Core/Math/Math.hpp</text>
</a>
</g>
</g>
<!-- Node49&#45;&gt;Node50 -->
<g id="edge99" class="edge">
<title>Node49&#45;&gt;Node50</title>
<path fill="none" stroke="#191970" d="M2487.9307,-235.3906C2463.059,-225.0554 2423.3259,-208.5447 2395.3713,-196.9284"/>
<polygon fill="#191970" stroke="#191970" points="2396.5958,-193.6472 2386.0183,-193.0419 2393.9097,-200.1113 2396.5958,-193.6472"/>
</g>
<!-- Node52 -->
<g id="node48" class="node">
<title>Node52</title>
<polygon fill="#ffffff" stroke="#bfbfbf" points="2640.0557,-174 2640.0557,-193 2694.0557,-193 2694.0557,-174 2640.0557,-174"/>
<text text-anchor="middle" x="2667.0557" y="-181" font-family="Helvetica,sans-Serif" font-size="10.00" fill="#000000">random</text>
</g>
<!-- Node49&#45;&gt;Node52 -->
<g id="edge105" class="edge">
<title>Node49&#45;&gt;Node52</title>
<path fill="none" stroke="#191970" d="M2535.4307,-235.3906C2561.7613,-225.0103 2603.8937,-208.4004 2633.3786,-196.7766"/>
<polygon fill="#191970" stroke="#191970" points="2634.8324,-199.9657 2642.8519,-193.0419 2632.265,-193.4534 2634.8324,-199.9657"/>
</g>
<!-- Node50&#45;&gt;Node11 -->
<g id="edge102" class="edge">
<title>Node50&#45;&gt;Node11</title>
<path fill="none" stroke="#191970" d="M2377.2744,-173.8906C2391.699,-164.1421 2414.2533,-148.8994 2431.1917,-137.4521"/>
<polygon fill="#191970" stroke="#191970" points="2433.6113,-140.0412 2439.9368,-131.5419 2429.6916,-134.2415 2433.6113,-140.0412"/>
</g>
<!-- Node50&#45;&gt;Node16 -->
<g id="edge100" class="edge">
<title>Node50&#45;&gt;Node16</title>
<path fill="none" stroke="#191970" d="M2305.9269,-174.307C2290.7207,-172.0459 2274.2875,-169.769 2259.0557,-168 2080.446,-147.2566 1868.2137,-132.2412 1767.1892,-125.6773"/>
<polygon fill="#191970" stroke="#191970" points="1767.3848,-122.1827 1757.18,-125.031 1766.9337,-129.1682 1767.3848,-122.1827"/>
</g>
<!-- Node50&#45;&gt;Node45 -->
<g id="edge101" class="edge">
<title>Node50&#45;&gt;Node45</title>
<path fill="none" stroke="#191970" d="M2353.0557,-173.8906C2343.3438,-164.5581 2328.3918,-150.1902 2316.6816,-138.9374"/>
<polygon fill="#191970" stroke="#191970" points="2318.8323,-136.15 2309.1967,-131.7449 2313.9821,-141.1974 2318.8323,-136.15"/>
</g>
<!-- Node53&#45;&gt;Node30 -->
<g id="edge108" class="edge">
<title>Node53&#45;&gt;Node30</title>
<path fill="none" stroke="#191970" d="M194.3057,-235.3906C190.9089,-226.6862 185.8026,-213.6015 181.5677,-202.7494"/>
<polygon fill="#191970" stroke="#191970" points="184.7546,-201.2882 177.8586,-193.2449 178.2335,-203.8331 184.7546,-201.2882"/>
</g>
<!-- Node53&#45;&gt;Node48 -->
<g id="edge107" class="edge">
<title>Node53&#45;&gt;Node48</title>
<path fill="none" stroke="#191970" d="M232.2853,-254.5011C262.292,-263.729 305.4767,-277.8084 335.3278,-288.057"/>
<polygon fill="#191970" stroke="#191970" points="334.307,-291.4074 344.9018,-291.3733 336.5981,-284.793 334.307,-291.4074"/>
</g>
<!-- Node54&#45;&gt;Node15 -->
<g id="edge111" class="edge">
<title>Node54&#45;&gt;Node15</title>
<path fill="none" stroke="#191970" d="M2500.7023,-291.4316C2542.7501,-283.8718 2599.6614,-271.7845 2648.0557,-255 2660.141,-250.8085 2727.9017,-217.4126 2767.4181,-197.7785"/>
<polygon fill="#191970" stroke="#191970" points="2769.4101,-200.6968 2776.805,-193.1095 2766.2926,-194.4293 2769.4101,-200.6968"/>
</g>
<!-- Node54&#45;&gt;Node28 -->
<g id="edge110" class="edge">
<title>Node54&#45;&gt;Node28</title>
<path fill="none" stroke="#191970" d="M2363.5331,-299.8545C2136.0945,-296.1627 1466.616,-283.1432 1250.0557,-255 1149.5248,-241.9354 1034.0057,-212.4468 973.001,-195.7072"/>
<polygon fill="#191970" stroke="#191970" points="973.9025,-192.3251 963.3315,-193.035 972.0379,-199.0723 973.9025,-192.3251"/>
</g>
<!-- Node54&#45;&gt;Node49 -->
<g id="edge112" class="edge">
<title>Node54&#45;&gt;Node49</title>
<path fill="none" stroke="#191970" d="M2452.4229,-291.2455C2463.0111,-282.8943 2478.4621,-270.7076 2490.845,-260.9408"/>
<polygon fill="#191970" stroke="#191970" points="2493.146,-263.5837 2498.8302,-254.6427 2488.811,-258.0875 2493.146,-263.5837"/>
</g>
</g>
</svg>
