<?xml version="1.0" encoding="UTF-8" standalone="no"?>
<!DOCTYPE svg PUBLIC "-//W3C//DTD SVG 1.1//EN"
 "http://www.w3.org/Graphics/SVG/1.1/DTD/svg11.dtd">
<!-- Generated by graphviz version 2.40.1 (20161225.0304)
 -->
<!-- Title: src/Engine/System/GeometrySystem.cpp Pages: 1 -->
<svg width="4010pt" height="531pt"
 viewBox="0.00 0.00 4010.02 531.00" xmlns="http://www.w3.org/2000/svg" xmlns:xlink="http://www.w3.org/1999/xlink">
<g id="graph0" class="graph" transform="scale(1 1) rotate(0) translate(4 527)">
<title>src/Engine/System/GeometrySystem.cpp</title>
<polygon fill="#ffffff" stroke="transparent" points="-4,4 -4,-527 4006.0219,-527 4006.0219,4 -4,4"/>
<!-- Node0 -->
<g id="node1" class="node">
<title>Node0</title>
<polygon fill="#bfbfbf" stroke="#000000" points="1976,-492.5 1976,-522.5 2134,-522.5 2134,-492.5 1976,-492.5"/>
<text text-anchor="start" x="1984" y="-510.5" font-family="Helvetica,sans-Serif" font-size="10.00" fill="#000000">src/Engine/System/Geometry</text>
<text text-anchor="middle" x="2055" y="-499.5" font-family="Helvetica,sans-Serif" font-size="10.00" fill="#000000">System.cpp</text>
</g>
<!-- Node1 -->
<g id="node2" class="node">
<title>Node1</title>
<g id="a_node2"><a xlink:href="GeometrySystem_8hpp.html" target="_top" xlink:title="Engine/System/GeometrySystem.hpp">
<polygon fill="#ffffff" stroke="#000000" points="1955.5,-436.5 1955.5,-455.5 2154.5,-455.5 2154.5,-436.5 1955.5,-436.5"/>
<text text-anchor="middle" x="2055" y="-443.5" font-family="Helvetica,sans-Serif" font-size="10.00" fill="#000000">Engine/System/GeometrySystem.hpp</text>
</a>
</g>
</g>
<!-- Node0&#45;&gt;Node1 -->
<g id="edge1" class="edge">
<title>Node0&#45;&gt;Node1</title>
<path fill="none" stroke="#191970" d="M2055,-492.2977C2055,-484.3834 2055,-474.6043 2055,-466.0759"/>
<polygon fill="#191970" stroke="#191970" points="2058.5001,-465.8469 2055,-455.8469 2051.5001,-465.847 2058.5001,-465.8469"/>
</g>
<!-- Node12 -->
<g id="node10" class="node">
<title>Node12</title>
<g id="a_node10"><a xlink:href="FileData_8hpp.html" target="_top" xlink:title="Core/Asset/FileData.hpp">
<polygon fill="#ffffff" stroke="#000000" points="2591.5,-436.5 2591.5,-455.5 2724.5,-455.5 2724.5,-436.5 2591.5,-436.5"/>
<text text-anchor="middle" x="2658" y="-443.5" font-family="Helvetica,sans-Serif" font-size="10.00" fill="#000000">Core/Asset/FileData.hpp</text>
</a>
</g>
</g>
<!-- Node0&#45;&gt;Node12 -->
<g id="edge9" class="edge">
<title>Node0&#45;&gt;Node12</title>
<path fill="none" stroke="#191970" d="M2134.1415,-499.4284C2250.4523,-487.5658 2466.1723,-465.5645 2581.1571,-453.8372"/>
<polygon fill="#191970" stroke="#191970" points="2581.6941,-457.3007 2591.2874,-452.804 2580.9838,-450.3368 2581.6941,-457.3007"/>
</g>
<!-- Node44 -->
<g id="node21" class="node">
<title>Node44</title>
<g id="a_node21"><a xlink:href="GeometryData_8hpp.html" target="_top" xlink:title="Core/Asset/GeometryData.hpp">
<polygon fill="#ffffff" stroke="#000000" points="2458.5,-308 2458.5,-327 2623.5,-327 2623.5,-308 2458.5,-308"/>
<text text-anchor="middle" x="2541" y="-315" font-family="Helvetica,sans-Serif" font-size="10.00" fill="#000000">Core/Asset/GeometryData.hpp</text>
</a>
</g>
</g>
<!-- Node0&#45;&gt;Node44 -->
<g id="edge75" class="edge">
<title>Node0&#45;&gt;Node44</title>
<path fill="none" stroke="#191970" d="M2116.1212,-492.3948C2151.2953,-483.1128 2196.0964,-470.2824 2235,-456 2340.3858,-417.3106 2460.321,-358.4849 2513.3231,-331.689"/>
<polygon fill="#191970" stroke="#191970" points="2515.0894,-334.7177 2522.4223,-327.0705 2511.921,-328.4757 2515.0894,-334.7177"/>
</g>
<!-- Node60 -->
<g id="node31" class="node">
<title>Node60</title>
<g id="a_node31"><a xlink:href="Task_8hpp.html" target="_top" xlink:title="Core/Tasks/Task.hpp">
<polygon fill="#ffffff" stroke="#000000" points="499.5,-308 499.5,-327 614.5,-327 614.5,-308 499.5,-308"/>
<text text-anchor="middle" x="557" y="-315" font-family="Helvetica,sans-Serif" font-size="10.00" fill="#000000">Core/Tasks/Task.hpp</text>
</a>
</g>
</g>
<!-- Node0&#45;&gt;Node60 -->
<g id="edge76" class="edge">
<title>Node0&#45;&gt;Node60</title>
<path fill="none" stroke="#191970" d="M1975.6483,-505.0226C1693.5595,-495.7376 749.64,-460.4108 629,-400 600.8067,-385.8821 578.923,-355.4277 567.0074,-335.7314"/>
<polygon fill="#191970" stroke="#191970" points="570.0164,-333.9432 561.9747,-327.0452 563.9596,-337.4525 570.0164,-333.9432"/>
</g>
<!-- Node62 -->
<g id="node33" class="node">
<title>Node62</title>
<g id="a_node33"><a xlink:href="TaskQueue_8hpp.html" target="_top" xlink:title="Core/Tasks/TaskQueue.hpp">
<polygon fill="#ffffff" stroke="#000000" points="3036,-241 3036,-260 3182,-260 3182,-241 3036,-241"/>
<text text-anchor="middle" x="3109" y="-248" font-family="Helvetica,sans-Serif" font-size="10.00" fill="#000000">Core/Tasks/TaskQueue.hpp</text>
</a>
</g>
</g>
<!-- Node0&#45;&gt;Node62 -->
<g id="edge80" class="edge">
<title>Node0&#45;&gt;Node62</title>
<path fill="none" stroke="#191970" d="M2134.2491,-505.324C2288.3788,-500.4625 2623.1146,-486.6496 2734,-456 2787.6418,-441.173 2796.9024,-426.2051 2846,-400 2934.6467,-352.6862 3037.6852,-292.5929 3084.0935,-265.2471"/>
<polygon fill="#191970" stroke="#191970" points="3086.0221,-268.173 3092.8556,-260.0764 3082.4645,-262.1444 3086.0221,-268.173"/>
</g>
<!-- Node68 -->
<g id="node38" class="node">
<title>Node68</title>
<g id="a_node38"><a xlink:href="GeometryComponent_8hpp.html" target="_top" xlink:title="Engine/Component/Geometry\lComponent.hpp">
<polygon fill="#ffffff" stroke="#000000" points="1436.5,-369.5 1436.5,-399.5 1597.5,-399.5 1597.5,-369.5 1436.5,-369.5"/>
<text text-anchor="start" x="1444.5" y="-387.5" font-family="Helvetica,sans-Serif" font-size="10.00" fill="#000000">Engine/Component/Geometry</text>
<text text-anchor="middle" x="1517" y="-376.5" font-family="Helvetica,sans-Serif" font-size="10.00" fill="#000000">Component.hpp</text>
</a>
</g>
</g>
<!-- Node0&#45;&gt;Node68 -->
<g id="edge92" class="edge">
<title>Node0&#45;&gt;Node68</title>
<path fill="none" stroke="#191970" d="M1975.8099,-498.366C1910.4103,-489.9718 1815.4399,-475.8163 1734,-456 1675.2364,-441.7014 1609.4962,-419.0725 1565.9341,-403.108"/>
<polygon fill="#191970" stroke="#191970" points="1567.0368,-399.7843 1556.4435,-399.6066 1564.6139,-406.3516 1567.0368,-399.7843"/>
</g>
<!-- Node80 -->
<g id="node42" class="node">
<title>Node80</title>
<g id="a_node42"><a xlink:href="Entity_8hpp.html" target="_top" xlink:title="Engine/Entity/Entity.hpp">
<polygon fill="#ffffff" stroke="#000000" points="1504,-308 1504,-327 1636,-327 1636,-308 1504,-308"/>
<text text-anchor="middle" x="1570" y="-315" font-family="Helvetica,sans-Serif" font-size="10.00" fill="#000000">Engine/Entity/Entity.hpp</text>
</a>
</g>
</g>
<!-- Node0&#45;&gt;Node80 -->
<g id="edge108" class="edge">
<title>Node0&#45;&gt;Node80</title>
<path fill="none" stroke="#191970" d="M2016.5375,-492.4322C1924.2032,-456.26 1691.2043,-364.9821 1603.8098,-330.7451"/>
<polygon fill="#191970" stroke="#191970" points="1604.9583,-327.4361 1594.3706,-327.0472 1602.4049,-333.9538 1604.9583,-327.4361"/>
</g>
<!-- Node83 -->
<g id="node45" class="node">
<title>Node83</title>
<g id="a_node45"><a xlink:href="ComponentMessenger_8hpp.html" target="_top" xlink:title="Engine/Managers/Component\lMessenger/ComponentMessenger.hpp">
<polygon fill="#ffffff" stroke="#000000" points="269.5,-302.5 269.5,-332.5 470.5,-332.5 470.5,-302.5 269.5,-302.5"/>
<text text-anchor="start" x="277.5" y="-320.5" font-family="Helvetica,sans-Serif" font-size="10.00" fill="#000000">Engine/Managers/Component</text>
<text text-anchor="middle" x="370" y="-309.5" font-family="Helvetica,sans-Serif" font-size="10.00" fill="#000000">Messenger/ComponentMessenger.hpp</text>
</a>
</g>
</g>
<!-- Node0&#45;&gt;Node83 -->
<g id="edge120" class="edge">
<title>Node0&#45;&gt;Node83</title>
<path fill="none" stroke="#191970" d="M1975.9688,-506.399C1738.5457,-502.7498 1034.0212,-489.3346 807,-456 658.239,-434.1567 491.0507,-369.126 413.6476,-336.5456"/>
<polygon fill="#191970" stroke="#191970" points="414.7903,-333.2285 404.2172,-332.5492 412.0589,-339.6737 414.7903,-333.2285"/>
</g>
<!-- Node89 -->
<g id="node50" class="node">
<title>Node89</title>
<g id="a_node50"><a xlink:href="RadiumEngine_8hpp.html" target="_top" xlink:title="Engine/RadiumEngine.hpp">
<polygon fill="#ffffff" stroke="#000000" points="2186,-241 2186,-260 2330,-260 2330,-241 2186,-241"/>
<text text-anchor="middle" x="2258" y="-248" font-family="Helvetica,sans-Serif" font-size="10.00" fill="#000000">Engine/RadiumEngine.hpp</text>
</a>
</g>
</g>
<!-- Node0&#45;&gt;Node89 -->
<g id="edge133" class="edge">
<title>Node0&#45;&gt;Node89</title>
<path fill="none" stroke="#191970" d="M2104.8576,-492.4479C2125.2181,-484.299 2147.7482,-472.4542 2164,-456 2218.0642,-401.2623 2244.4582,-309.7984 2253.8494,-269.9951"/>
<polygon fill="#191970" stroke="#191970" points="2257.3162,-270.5317 2256.1001,-260.0069 2250.4874,-268.9929 2257.3162,-270.5317"/>
</g>
<!-- Node2 -->
<g id="node3" class="node">
<title>Node2</title>
<g id="a_node3"><a xlink:href="System_8hpp.html" target="_top" xlink:title="Engine/System/System.hpp">
<polygon fill="#ffffff" stroke="#000000" points="1980,-241 1980,-260 2130,-260 2130,-241 1980,-241"/>
<text text-anchor="middle" x="2055" y="-248" font-family="Helvetica,sans-Serif" font-size="10.00" fill="#000000">Engine/System/System.hpp</text>
</a>
</g>
</g>
<!-- Node1&#45;&gt;Node2 -->
<g id="edge2" class="edge">
<title>Node1&#45;&gt;Node2</title>
<path fill="none" stroke="#191970" d="M2055,-436.3051C2055,-405.8813 2055,-311.8666 2055,-270.4452"/>
<polygon fill="#191970" stroke="#191970" points="2058.5001,-270.2534 2055,-260.2534 2051.5001,-270.2534 2058.5001,-270.2534"/>
</g>
<!-- Node3 -->
<g id="node4" class="node">
<title>Node3</title>
<g id="a_node4"><a xlink:href="RaEngine_8hpp.html" target="_top" xlink:title="Engine/RaEngine.hpp">
<polygon fill="#ffffff" stroke="#000000" points="1060.5,-174 1060.5,-193 1179.5,-193 1179.5,-174 1060.5,-174"/>
<text text-anchor="middle" x="1120" y="-181" font-family="Helvetica,sans-Serif" font-size="10.00" fill="#000000">Engine/RaEngine.hpp</text>
</a>
</g>
</g>
<!-- Node2&#45;&gt;Node3 -->
<g id="edge3" class="edge">
<title>Node2&#45;&gt;Node3</title>
<path fill="none" stroke="#191970" d="M1987.3407,-240.9812C1969.6816,-238.7501 1950.6516,-236.5691 1933,-235 1620.0486,-207.1809 1539.6962,-229.5543 1227,-199 1214.6178,-197.7901 1201.4746,-196.1677 1188.7946,-194.4274"/>
<polygon fill="#191970" stroke="#191970" points="1189.1386,-190.9414 1178.7481,-193.0122 1188.1621,-197.873 1189.1386,-190.9414"/>
</g>
<!-- Node10 -->
<g id="node8" class="node">
<title>Node10</title>
<polygon fill="#ffffff" stroke="#bfbfbf" points="2262,-174 2262,-193 2320,-193 2320,-174 2262,-174"/>
<text text-anchor="middle" x="2291" y="-181" font-family="Helvetica,sans-Serif" font-size="10.00" fill="#000000">memory</text>
</g>
<!-- Node2&#45;&gt;Node10 -->
<g id="edge7" class="edge">
<title>Node2&#45;&gt;Node10</title>
<path fill="none" stroke="#191970" d="M2088.5624,-240.9717C2131.6269,-228.7458 2206.2002,-207.5745 2251.818,-194.6237"/>
<polygon fill="#191970" stroke="#191970" points="2252.9812,-197.9319 2261.6452,-191.8338 2251.0695,-191.198 2252.9812,-197.9319"/>
</g>
<!-- Node11 -->
<g id="node9" class="node">
<title>Node11</title>
<polygon fill="#ffffff" stroke="#bfbfbf" points="2927.5,-112.5 2927.5,-131.5 2974.5,-131.5 2974.5,-112.5 2927.5,-112.5"/>
<text text-anchor="middle" x="2951" y="-119.5" font-family="Helvetica,sans-Serif" font-size="10.00" fill="#000000">vector</text>
</g>
<!-- Node2&#45;&gt;Node11 -->
<g id="edge8" class="edge">
<title>Node2&#45;&gt;Node11</title>
<path fill="none" stroke="#191970" d="M2071.0304,-240.9239C2102.1408,-222.8929 2173.4188,-184.258 2239,-168 2370.0037,-135.5234 2793.9183,-125.0052 2917.1252,-122.5948"/>
<polygon fill="#191970" stroke="#191970" points="2917.5112,-126.0882 2927.4427,-122.3983 2917.3779,-119.0895 2917.5112,-126.0882"/>
</g>
<!-- Node4 -->
<g id="node5" class="node">
<title>Node4</title>
<g id="a_node5"><a xlink:href="CoreMacros_8hpp.html" target="_top" xlink:title="Core/CoreMacros.hpp">
<polygon fill="#ffffff" stroke="#ff0000" points="1291,-56.5 1291,-75.5 1411,-75.5 1411,-56.5 1291,-56.5"/>
<text text-anchor="middle" x="1351" y="-63.5" font-family="Helvetica,sans-Serif" font-size="10.00" fill="#000000">Core/CoreMacros.hpp</text>
</a>
</g>
</g>
<!-- Node3&#45;&gt;Node4 -->
<g id="edge4" class="edge">
<title>Node3&#45;&gt;Node4</title>
<path fill="none" stroke="#191970" d="M1138.9037,-173.8845C1179.5293,-153.2199 1275.333,-104.4886 1323.0216,-80.2314"/>
<polygon fill="#191970" stroke="#191970" points="1324.8327,-83.237 1332.1591,-75.5836 1321.659,-76.9978 1324.8327,-83.237"/>
</g>
<!-- Node7 -->
<g id="node6" class="node">
<title>Node7</title>
<polygon fill="#ffffff" stroke="#bfbfbf" points="692,-.5 692,-19.5 752,-19.5 752,-.5 692,-.5"/>
<text text-anchor="middle" x="722" y="-7.5" font-family="Helvetica,sans-Serif" font-size="10.00" fill="#000000">iostream</text>
</g>
<!-- Node4&#45;&gt;Node7 -->
<g id="edge5" class="edge">
<title>Node4&#45;&gt;Node7</title>
<path fill="none" stroke="#191970" d="M1290.9738,-60.6559C1163.7817,-49.3319 870.0051,-23.1769 762.4216,-13.5987"/>
<polygon fill="#191970" stroke="#191970" points="762.5775,-10.0989 752.3065,-12.6982 761.9567,-17.0713 762.5775,-10.0989"/>
</g>
<!-- Node9 -->
<g id="node7" class="node">
<title>Node9</title>
<polygon fill="#ffffff" stroke="#bfbfbf" points="1508,-.5 1508,-19.5 1556,-19.5 1556,-.5 1508,-.5"/>
<text text-anchor="middle" x="1532" y="-7.5" font-family="Helvetica,sans-Serif" font-size="10.00" fill="#000000">thread</text>
</g>
<!-- Node4&#45;&gt;Node9 -->
<g id="edge6" class="edge">
<title>Node4&#45;&gt;Node9</title>
<path fill="none" stroke="#191970" d="M1382.115,-56.3733C1414.4496,-46.3692 1464.8923,-30.7626 1498.1914,-20.4601"/>
<polygon fill="#191970" stroke="#191970" points="1499.4174,-23.7446 1507.9361,-17.4452 1497.3484,-17.0573 1499.4174,-23.7446"/>
</g>
<!-- Node12&#45;&gt;Node10 -->
<g id="edge10" class="edge">
<title>Node12&#45;&gt;Node10</title>
<path fill="none" stroke="#191970" d="M2636.2692,-436.4645C2597.1988,-418.839 2513.2699,-378.7578 2450,-333 2392.1889,-291.1902 2333.4012,-230.0043 2306.3499,-200.5655"/>
<polygon fill="#191970" stroke="#191970" points="2308.9116,-198.1802 2299.5889,-193.1466 2303.7378,-202.8953 2308.9116,-198.1802"/>
</g>
<!-- Node12&#45;&gt;Node11 -->
<g id="edge12" class="edge">
<title>Node12&#45;&gt;Node11</title>
<path fill="none" stroke="#191970" d="M2724.6772,-436.6705C2726.4698,-436.4418 2728.2467,-436.2179 2730,-436 3146.6321,-384.2276 3263.3827,-441.339 3669,-333 3740.72,-313.8438 3781.3787,-328.1339 3822,-266 3863.5447,-202.4537 3748.7203,-174.7109 3730,-168 3659.2303,-142.6303 3125.5373,-126.6722 2984.8894,-122.8777"/>
<polygon fill="#191970" stroke="#191970" points="2984.8023,-119.3742 2974.7124,-122.6059 2984.6153,-126.3717 2984.8023,-119.3742"/>
</g>
<!-- Node13 -->
<g id="node11" class="node">
<title>Node13</title>
<polygon fill="#ffffff" stroke="#bfbfbf" points="3704,-112.5 3704,-131.5 3748,-131.5 3748,-112.5 3704,-112.5"/>
<text text-anchor="middle" x="3726" y="-119.5" font-family="Helvetica,sans-Serif" font-size="10.00" fill="#000000">string</text>
</g>
<!-- Node12&#45;&gt;Node13 -->
<g id="edge11" class="edge">
<title>Node12&#45;&gt;Node13</title>
<path fill="none" stroke="#191970" d="M2724.5632,-445.2173C2857.3763,-442.9429 3164.4913,-434.1118 3420,-400 3564.8907,-380.6563 3599.8075,-366.8938 3742,-333 3853.4796,-306.4271 3921.282,-356.9573 3991,-266 4000.7922,-253.2247 4009.6271,-190.9922 3990,-168 3960.518,-133.4633 3822.4954,-124.8503 3758.6048,-122.7073"/>
<polygon fill="#191970" stroke="#191970" points="3758.3969,-119.1995 3748.296,-122.3966 3758.186,-126.1964 3758.3969,-119.1995"/>
</g>
<!-- Node14 -->
<g id="node12" class="node">
<title>Node14</title>
<g id="a_node12"><a xlink:href="RaCore_8hpp.html" target="_top" xlink:title="Core/RaCore.hpp">
<polygon fill="#ffffff" stroke="#000000" points="1788,-112.5 1788,-131.5 1886,-131.5 1886,-112.5 1788,-112.5"/>
<text text-anchor="middle" x="1837" y="-119.5" font-family="Helvetica,sans-Serif" font-size="10.00" fill="#000000">Core/RaCore.hpp</text>
</a>
</g>
</g>
<!-- Node12&#45;&gt;Node14 -->
<g id="edge13" class="edge">
<title>Node12&#45;&gt;Node14</title>
<path fill="none" stroke="#191970" d="M2591.2494,-445.0826C2406.2506,-442.1991 1871.3559,-431.5518 1428,-400 1253.0373,-387.5486 643,-492.9052 643,-317.5 643,-317.5 643,-317.5 643,-250.5 643,-53.5552 578.9156,-211.7958 1739,-132 1751.5878,-131.1342 1765.0596,-129.9368 1777.8604,-128.671"/>
<polygon fill="#191970" stroke="#191970" points="1778.3575,-132.1386 1787.9528,-127.6461 1777.6503,-125.1744 1778.3575,-132.1386"/>
</g>
<!-- Node15 -->
<g id="node13" class="node">
<title>Node15</title>
<g id="a_node13"><a xlink:href="FileData_8inl.html" target="_top" xlink:title="Core/Asset/FileData.inl">
<polygon fill="#ffffff" stroke="#000000" points="2709.5,-375 2709.5,-394 2836.5,-394 2836.5,-375 2709.5,-375"/>
<text text-anchor="middle" x="2773" y="-382" font-family="Helvetica,sans-Serif" font-size="10.00" fill="#000000">Core/Asset/FileData.inl</text>
</a>
</g>
</g>
<!-- Node12&#45;&gt;Node15 -->
<g id="edge15" class="edge">
<title>Node12&#45;&gt;Node15</title>
<path fill="none" stroke="#191970" d="M2675.9688,-436.3906C2694.7884,-426.3262 2724.5585,-410.4057 2746.1641,-398.8514"/>
<polygon fill="#191970" stroke="#191970" points="2747.9898,-401.8442 2755.1574,-394.0419 2744.6886,-395.6714 2747.9898,-401.8442"/>
</g>
<!-- Node14&#45;&gt;Node4 -->
<g id="edge14" class="edge">
<title>Node14&#45;&gt;Node4</title>
<path fill="none" stroke="#191970" d="M1787.7252,-116.3222C1701.0519,-106.3352 1521.0703,-85.5966 1421.3423,-74.1053"/>
<polygon fill="#191970" stroke="#191970" points="1421.6933,-70.6227 1411.3583,-72.9549 1420.8919,-77.5766 1421.6933,-70.6227"/>
</g>
<!-- Node16 -->
<g id="node14" class="node">
<title>Node16</title>
<g id="a_node14"><a xlink:href="AnimationData_8hpp.html" target="_top" xlink:title="Core/Asset/AnimationData.hpp">
<polygon fill="#ffffff" stroke="#ff0000" points="3645.5,-241 3645.5,-260 3812.5,-260 3812.5,-241 3645.5,-241"/>
<text text-anchor="middle" x="3729" y="-248" font-family="Helvetica,sans-Serif" font-size="10.00" fill="#000000">Core/Asset/AnimationData.hpp</text>
</a>
</g>
</g>
<!-- Node15&#45;&gt;Node16 -->
<g id="edge16" class="edge">
<title>Node15&#45;&gt;Node16</title>
<path fill="none" stroke="#191970" d="M2836.5177,-383.0111C3022.7444,-378.3227 3558.882,-362.4026 3632,-333 3666.6383,-319.071 3697.7878,-287.6182 3714.978,-267.8227"/>
<polygon fill="#191970" stroke="#191970" points="3717.688,-270.0383 3721.4601,-260.1377 3712.3372,-265.5251 3717.688,-270.0383"/>
</g>
<!-- Node39 -->
<g id="node16" class="node">
<title>Node39</title>
<g id="a_node16"><a xlink:href="CameraData_8hpp.html" target="_top" xlink:title="Core/Asset/CameraData.hpp">
<polygon fill="#ffffff" stroke="#ff0000" points="2642.5,-308 2642.5,-327 2797.5,-327 2797.5,-308 2642.5,-308"/>
<text text-anchor="middle" x="2720" y="-315" font-family="Helvetica,sans-Serif" font-size="10.00" fill="#000000">Core/Asset/CameraData.hpp</text>
</a>
</g>
</g>
<!-- Node15&#45;&gt;Node39 -->
<g id="edge23" class="edge">
<title>Node15&#45;&gt;Node39</title>
<path fill="none" stroke="#191970" d="M2765.4064,-374.9005C2757.2202,-364.552 2744.0115,-347.8542 2733.9457,-335.1295"/>
<polygon fill="#191970" stroke="#191970" points="2736.5286,-332.7531 2727.5795,-327.0817 2731.0386,-337.0959 2736.5286,-332.7531"/>
</g>
<!-- Node15&#45;&gt;Node44 -->
<g id="edge37" class="edge">
<title>Node15&#45;&gt;Node44</title>
<path fill="none" stroke="#191970" d="M2739.7601,-374.9005C2698.7579,-363.0594 2628.971,-342.9054 2583.946,-329.9025"/>
<polygon fill="#191970" stroke="#191970" points="2584.7568,-326.4937 2574.1783,-327.0817 2582.8146,-333.2189 2584.7568,-326.4937"/>
</g>
<!-- Node51 -->
<g id="node26" class="node">
<title>Node51</title>
<g id="a_node26"><a xlink:href="HandleData_8hpp.html" target="_top" xlink:title="Core/Asset/HandleData.hpp">
<polygon fill="#ffffff" stroke="#ff0000" points="2752.5,-241 2752.5,-260 2903.5,-260 2903.5,-241 2752.5,-241"/>
<text text-anchor="middle" x="2828" y="-248" font-family="Helvetica,sans-Serif" font-size="10.00" fill="#000000">Core/Asset/HandleData.hpp</text>
</a>
</g>
</g>
<!-- Node15&#45;&gt;Node51 -->
<g id="edge55" class="edge">
<title>Node15&#45;&gt;Node51</title>
<path fill="none" stroke="#191970" d="M2780.8329,-374.8189C2788.5189,-364.8752 2800.0669,-348.6773 2807,-333 2816.0716,-312.4871 2821.7676,-287.3026 2824.9022,-270.1937"/>
<polygon fill="#191970" stroke="#191970" points="2828.3674,-270.6939 2826.6019,-260.2472 2821.4674,-269.5147 2828.3674,-270.6939"/>
</g>
<!-- Node53 -->
<g id="node28" class="node">
<title>Node53</title>
<g id="a_node28"><a xlink:href="LightData_8hpp.html" target="_top" xlink:title="Core/Asset/LightData.hpp">
<polygon fill="#ffffff" stroke="#ff0000" points="3200,-241 3200,-260 3340,-260 3340,-241 3200,-241"/>
<text text-anchor="middle" x="3270" y="-248" font-family="Helvetica,sans-Serif" font-size="10.00" fill="#000000">Core/Asset/LightData.hpp</text>
</a>
</g>
</g>
<!-- Node15&#45;&gt;Node53 -->
<g id="edge63" class="edge">
<title>Node15&#45;&gt;Node53</title>
<path fill="none" stroke="#191970" d="M2808.3446,-374.9705C2896.5892,-351.1782 3126.5157,-289.1859 3224.5975,-262.7413"/>
<polygon fill="#191970" stroke="#191970" points="3225.759,-266.0532 3234.5031,-260.0706 3223.9367,-259.2946 3225.759,-266.0532"/>
</g>
<!-- Node59 -->
<g id="node29" class="node">
<title>Node59</title>
<g id="a_node29"><a xlink:href="VolumeData_8hpp.html" target="_top" xlink:title="Core/Asset/VolumeData.hpp">
<polygon fill="#ffffff" stroke="#ff0000" points="1745.5,-308 1745.5,-327 1898.5,-327 1898.5,-308 1745.5,-308"/>
<text text-anchor="middle" x="1822" y="-315" font-family="Helvetica,sans-Serif" font-size="10.00" fill="#000000">Core/Asset/VolumeData.hpp</text>
</a>
</g>
</g>
<!-- Node15&#45;&gt;Node59 -->
<g id="edge69" class="edge">
<title>Node15&#45;&gt;Node59</title>
<path fill="none" stroke="#191970" d="M2709.4961,-380.026C2543.7896,-368.3516 2098.0604,-336.949 1908.849,-323.6187"/>
<polygon fill="#191970" stroke="#191970" points="1908.8903,-320.113 1898.669,-322.9015 1908.3983,-327.0957 1908.8903,-320.113"/>
</g>
<!-- Node36 -->
<g id="node30" class="node">
<title>Node36</title>
<g id="a_node30"><a xlink:href="Log_8hpp.html" target="_top" xlink:title="Core/Utils/Log.hpp">
<polygon fill="#ffffff" stroke="#ff0000" points="3592,-174 3592,-193 3698,-193 3698,-174 3592,-174"/>
<text text-anchor="middle" x="3645" y="-181" font-family="Helvetica,sans-Serif" font-size="10.00" fill="#000000">Core/Utils/Log.hpp</text>
</a>
</g>
</g>
<!-- Node15&#45;&gt;Node36 -->
<g id="edge72" class="edge">
<title>Node15&#45;&gt;Node36</title>
<path fill="none" stroke="#191970" d="M2836.5938,-380.7391C3002.7343,-370.031 3445.7129,-335.5629 3573,-266 3600.3998,-251.0259 3622.2791,-221.3053 3634.4426,-201.925"/>
<polygon fill="#191970" stroke="#191970" points="3637.5918,-203.4802 3639.7554,-193.1086 3631.5962,-199.8672 3637.5918,-203.4802"/>
</g>
<!-- Node16&#45;&gt;Node11 -->
<g id="edge18" class="edge">
<title>Node16&#45;&gt;Node11</title>
<path fill="none" stroke="#191970" d="M3729.6935,-240.9876C3730.391,-223.4148 3729.032,-186.0171 3707,-168 3678.6953,-144.8533 3128.7287,-127.1994 2985.083,-122.9702"/>
<polygon fill="#191970" stroke="#191970" points="2984.7978,-119.4605 2974.6999,-122.6672 2984.5935,-126.4575 2984.7978,-119.4605"/>
</g>
<!-- Node16&#45;&gt;Node13 -->
<g id="edge17" class="edge">
<title>Node16&#45;&gt;Node13</title>
<path fill="none" stroke="#191970" d="M3742.7782,-240.8928C3754.6466,-231.7 3770.9457,-216.6481 3778,-199 3783.1138,-186.2064 3783.6592,-180.5619 3778,-168 3772.4303,-155.6369 3761.7137,-145.2563 3751.4494,-137.5033"/>
<polygon fill="#191970" stroke="#191970" points="3753.2549,-134.4948 3743.0567,-131.623 3749.2382,-140.2277 3753.2549,-134.4948"/>
</g>
<!-- Node16&#45;&gt;Node14 -->
<g id="edge22" class="edge">
<title>Node16&#45;&gt;Node14</title>
<path fill="none" stroke="#191970" d="M3687.4303,-240.9458C3607.1018,-222.9523 3424.7323,-184.3786 3269,-168 2996.3032,-139.32 2131.1953,-125.9214 1896.3287,-122.7548"/>
<polygon fill="#191970" stroke="#191970" points="1896.3218,-119.2545 1886.2759,-122.6204 1896.2281,-126.2539 1896.3218,-119.2545"/>
</g>
<!-- Node34 -->
<g id="node15" class="node">
<title>Node34</title>
<g id="a_node15"><a xlink:href="AssetData_8hpp.html" target="_top" xlink:title="Core/Asset/AssetData.hpp">
<polygon fill="#ffffff" stroke="#000000" points="2822.5,-174 2822.5,-193 2965.5,-193 2965.5,-174 2822.5,-174"/>
<text text-anchor="middle" x="2894" y="-181" font-family="Helvetica,sans-Serif" font-size="10.00" fill="#000000">Core/Asset/AssetData.hpp</text>
</a>
</g>
</g>
<!-- Node16&#45;&gt;Node34 -->
<g id="edge19" class="edge">
<title>Node16&#45;&gt;Node34</title>
<path fill="none" stroke="#191970" d="M3645.3221,-244.0226C3607.9046,-241.1729 3563.2483,-237.8362 3523,-235 3279.5232,-217.843 3217.1044,-229.9963 2975,-199 2966.3325,-197.8903 2957.194,-196.4288 2948.3017,-194.8462"/>
<polygon fill="#191970" stroke="#191970" points="2948.8739,-191.3928 2938.4048,-193.0203 2947.6038,-198.2766 2948.8739,-191.3928"/>
</g>
<!-- Node34&#45;&gt;Node13 -->
<g id="edge21" class="edge">
<title>Node34&#45;&gt;Node13</title>
<path fill="none" stroke="#191970" d="M2938.4003,-173.9439C2950.2443,-171.6857 2963.0672,-169.5009 2975,-168 3251.6373,-133.2043 3589.0485,-124.4539 3693.5774,-122.5062"/>
<polygon fill="#191970" stroke="#191970" points="3693.8511,-126.002 3703.787,-122.3241 3693.7262,-119.0031 3693.8511,-126.002"/>
</g>
<!-- Node34&#45;&gt;Node14 -->
<g id="edge20" class="edge">
<title>Node34&#45;&gt;Node14</title>
<path fill="none" stroke="#191970" d="M2847.2985,-173.9351C2834.599,-171.6484 2820.8135,-169.4519 2808,-168 2629.9298,-147.8229 2079.0383,-129.4649 1896.4634,-123.7942"/>
<polygon fill="#191970" stroke="#191970" points="1896.3559,-120.2893 1886.2524,-123.4784 1896.1394,-127.286 1896.3559,-120.2893"/>
</g>
<!-- Node39&#45;&gt;Node10 -->
<g id="edge24" class="edge">
<title>Node39&#45;&gt;Node10</title>
<path fill="none" stroke="#191970" d="M2716.3176,-307.893C2708.9718,-290.1627 2690.6937,-252.5128 2662,-235 2660.2299,-233.9196 2425.4652,-201.8272 2330.3462,-188.8589"/>
<polygon fill="#191970" stroke="#191970" points="2330.6384,-185.3664 2320.2572,-187.4837 2329.6929,-192.3023 2330.6384,-185.3664"/>
</g>
<!-- Node39&#45;&gt;Node11 -->
<g id="edge26" class="edge">
<title>Node39&#45;&gt;Node11</title>
<path fill="none" stroke="#191970" d="M2797.693,-315.5649C3000.1772,-310.1451 3530.241,-293.3947 3556,-266 3574.3256,-246.5108 3556.187,-181.8334 3540,-168 3497.704,-131.8537 3103.9885,-123.9352 2984.9383,-122.361"/>
<polygon fill="#191970" stroke="#191970" points="2984.6539,-118.8573 2974.6107,-122.2315 2984.566,-125.8567 2984.6539,-118.8573"/>
</g>
<!-- Node39&#45;&gt;Node13 -->
<g id="edge25" class="edge">
<title>Node39&#45;&gt;Node13</title>
<path fill="none" stroke="#191970" d="M2797.5254,-317.2221C3063.8723,-315.8917 3927.3912,-308.3192 3968,-266 3998.1568,-234.5731 3995.7743,-201.5511 3968,-168 3941.6949,-136.2237 3817.6075,-126.2167 3758.0501,-123.2145"/>
<polygon fill="#191970" stroke="#191970" points="3758.2082,-119.7181 3748.0554,-122.7463 3757.8806,-126.7105 3758.2082,-119.7181"/>
</g>
<!-- Node39&#45;&gt;Node14 -->
<g id="edge33" class="edge">
<title>Node39&#45;&gt;Node14</title>
<path fill="none" stroke="#191970" d="M2708.7523,-307.769C2696.972,-297.5178 2677.9942,-280.8351 2662,-266 2647.482,-252.5342 2648.1613,-242.8909 2630,-235 2483.884,-171.514 2059.6075,-263.6436 1914,-199 1885.7671,-186.4658 1862.2061,-158.5638 1848.8547,-140.0175"/>
<polygon fill="#191970" stroke="#191970" points="1851.5561,-137.7704 1842.9885,-131.5376 1845.7993,-141.7528 1851.5561,-137.7704"/>
</g>
<!-- Node39&#45;&gt;Node34 -->
<g id="edge27" class="edge">
<title>Node39&#45;&gt;Node34</title>
<path fill="none" stroke="#191970" d="M2797.7821,-313.0175C2866.9783,-307.2118 2960.7296,-294.2485 2984,-266 3006.2356,-239.0076 2962.4276,-212.5403 2928.4685,-197.1329"/>
<polygon fill="#191970" stroke="#191970" points="2929.7794,-193.8862 2919.2145,-193.0892 2926.9765,-200.3005 2929.7794,-193.8862"/>
</g>
<!-- Node40 -->
<g id="node17" class="node">
<title>Node40</title>
<g id="a_node17"><a xlink:href="VectorArray_8hpp.html" target="_top" xlink:title="Core/Containers/VectorArray.hpp">
<polygon fill="#ffffff" stroke="#000000" points="1750,-241 1750,-260 1924,-260 1924,-241 1750,-241"/>
<text text-anchor="middle" x="1837" y="-248" font-family="Helvetica,sans-Serif" font-size="10.00" fill="#000000">Core/Containers/VectorArray.hpp</text>
</a>
</g>
</g>
<!-- Node39&#45;&gt;Node40 -->
<g id="edge28" class="edge">
<title>Node39&#45;&gt;Node40</title>
<path fill="none" stroke="#191970" d="M2672.2904,-307.9195C2659.5692,-305.6614 2645.8017,-303.4829 2633,-302 2340.3001,-268.0957 2264.5995,-290.9404 1971,-266 1955.2507,-264.6621 1938.4919,-262.9524 1922.3504,-261.1598"/>
<polygon fill="#191970" stroke="#191970" points="1922.7241,-257.6798 1912.3944,-260.0355 1921.9385,-264.6356 1922.7241,-257.6798"/>
</g>
<!-- Node22 -->
<g id="node19" class="node">
<title>Node22</title>
<g id="a_node19"><a xlink:href="Types_8hpp.html" target="_top" xlink:title="Core/Types.hpp">
<polygon fill="#ffffff" stroke="#ff0000" points="1636.5,-174 1636.5,-193 1727.5,-193 1727.5,-174 1636.5,-174"/>
<text text-anchor="middle" x="1682" y="-181" font-family="Helvetica,sans-Serif" font-size="10.00" fill="#000000">Core/Types.hpp</text>
</a>
</g>
</g>
<!-- Node39&#45;&gt;Node22 -->
<g id="edge34" class="edge">
<title>Node39&#45;&gt;Node22</title>
<path fill="none" stroke="#191970" d="M2671.3542,-307.97C2658.8888,-305.7657 2645.4783,-303.6003 2633,-302 2532.1771,-289.0701 2271.3393,-303.8488 2177,-266 2156.7714,-257.8843 2159.0901,-243.4527 2139,-235 2102.7818,-219.7616 1852.0386,-197.5066 1738.1099,-188.0365"/>
<polygon fill="#191970" stroke="#191970" points="1738.1052,-184.5242 1727.8506,-187.1876 1737.5278,-191.5004 1738.1052,-184.5242"/>
</g>
<!-- Node40&#45;&gt;Node14 -->
<g id="edge32" class="edge">
<title>Node40&#45;&gt;Node14</title>
<path fill="none" stroke="#191970" d="M1837,-240.8416C1837,-219.9114 1837,-170.004 1837,-141.9762"/>
<polygon fill="#191970" stroke="#191970" points="1840.5001,-141.7704 1837,-131.7705 1833.5001,-141.7705 1840.5001,-141.7704"/>
</g>
<!-- Node41 -->
<g id="node18" class="node">
<title>Node41</title>
<g id="a_node18"><a xlink:href="AlignedStdVector_8hpp.html" target="_top" xlink:title="Core/Containers/AlignedStd\lVector.hpp">
<polygon fill="#ffffff" stroke="#ff0000" points="1923,-168.5 1923,-198.5 2073,-198.5 2073,-168.5 1923,-168.5"/>
<text text-anchor="start" x="1931" y="-186.5" font-family="Helvetica,sans-Serif" font-size="10.00" fill="#000000">Core/Containers/AlignedStd</text>
<text text-anchor="middle" x="1998" y="-175.5" font-family="Helvetica,sans-Serif" font-size="10.00" fill="#000000">Vector.hpp</text>
</a>
</g>
</g>
<!-- Node40&#45;&gt;Node41 -->
<g id="edge29" class="edge">
<title>Node40&#45;&gt;Node41</title>
<path fill="none" stroke="#191970" d="M1860.0674,-240.9005C1884.0755,-230.9096 1922.3046,-215.0006 1952.4337,-202.4624"/>
<polygon fill="#191970" stroke="#191970" points="1954.0152,-205.5953 1961.9029,-198.5218 1951.3257,-199.1325 1954.0152,-205.5953"/>
</g>
<!-- Node41&#45;&gt;Node11 -->
<g id="edge31" class="edge">
<title>Node41&#45;&gt;Node11</title>
<path fill="none" stroke="#191970" d="M2073.1719,-169.7594C2077.843,-169.1069 2082.4806,-168.512 2087,-168 2408.6827,-131.5565 2801.1007,-123.8721 2917.155,-122.3531"/>
<polygon fill="#191970" stroke="#191970" points="2917.2499,-125.8523 2927.2056,-122.2282 2917.1628,-118.8528 2917.2499,-125.8523"/>
</g>
<!-- Node41&#45;&gt;Node14 -->
<g id="edge30" class="edge">
<title>Node41&#45;&gt;Node14</title>
<path fill="none" stroke="#191970" d="M1958.615,-168.4554C1931.9873,-158.284 1897.1556,-144.9787 1871.5966,-135.2155"/>
<polygon fill="#191970" stroke="#191970" points="1872.5399,-131.8292 1861.9493,-131.5303 1870.042,-138.3684 1872.5399,-131.8292"/>
</g>
<!-- Node22&#45;&gt;Node14 -->
<g id="edge35" class="edge">
<title>Node22&#45;&gt;Node14</title>
<path fill="none" stroke="#191970" d="M1706.2188,-173.8906C1732.3806,-163.5103 1774.2429,-146.9004 1803.5388,-135.2766"/>
<polygon fill="#191970" stroke="#191970" points="1804.9471,-138.4833 1812.9513,-131.5419 1802.3654,-131.9767 1804.9471,-138.4833"/>
</g>
<!-- Node24 -->
<g id="node20" class="node">
<title>Node24</title>
<polygon fill="#ffffff" stroke="#bfbfbf" points="1634.5,-112.5 1634.5,-131.5 1729.5,-131.5 1729.5,-112.5 1634.5,-112.5"/>
<text text-anchor="middle" x="1682" y="-119.5" font-family="Helvetica,sans-Serif" font-size="10.00" fill="#000000">Eigen/Geometry</text>
</g>
<!-- Node22&#45;&gt;Node24 -->
<g id="edge36" class="edge">
<title>Node22&#45;&gt;Node24</title>
<path fill="none" stroke="#191970" d="M1682,-173.8906C1682,-165.3657 1682,-152.6392 1682,-141.9235"/>
<polygon fill="#191970" stroke="#191970" points="1685.5001,-141.7448 1682,-131.7449 1678.5001,-141.7449 1685.5001,-141.7448"/>
</g>
<!-- Node44&#45;&gt;Node10 -->
<g id="edge38" class="edge">
<title>Node44&#45;&gt;Node10</title>
<path fill="none" stroke="#191970" d="M2523.0206,-307.8631C2479.5965,-284.5877 2368.815,-225.2088 2317.6472,-197.7829"/>
<polygon fill="#191970" stroke="#191970" points="2319.2837,-194.689 2308.8165,-193.0496 2315.9768,-200.8587 2319.2837,-194.689"/>
</g>
<!-- Node44&#45;&gt;Node11 -->
<g id="edge40" class="edge">
<title>Node44&#45;&gt;Node11</title>
<path fill="none" stroke="#191970" d="M2591.0408,-307.9837C2604.9074,-305.668 2619.9974,-303.4447 2634,-302 2683.1684,-296.9271 3488.7626,-301.6519 3523,-266 3599.5351,-186.3028 3567.3429,-220.195 3385,-168 3309.6644,-146.4355 3072.7415,-129.6882 2984.5295,-124.0516"/>
<polygon fill="#191970" stroke="#191970" points="2984.7308,-120.5575 2974.53,-123.4197 2984.2893,-127.5435 2984.7308,-120.5575"/>
</g>
<!-- Node44&#45;&gt;Node13 -->
<g id="edge39" class="edge">
<title>Node44&#45;&gt;Node13</title>
<path fill="none" stroke="#191970" d="M2590.5465,-307.9546C2604.5452,-305.6088 2619.8261,-303.3775 2634,-302 2703.5897,-295.2371 3832.0938,-302.0514 3892,-266 3932.0263,-241.9123 3959.1743,-204.4853 3930,-168 3908.8409,-141.5385 3810.1003,-129.2106 3758.1496,-124.473"/>
<polygon fill="#191970" stroke="#191970" points="3758.3852,-120.9803 3748.1193,-123.5997 3757.778,-127.9539 3758.3852,-120.9803"/>
</g>
<!-- Node44&#45;&gt;Node14 -->
<g id="edge43" class="edge">
<title>Node44&#45;&gt;Node14</title>
<path fill="none" stroke="#191970" d="M2458.3908,-315.1931C2258.8698,-309.2203 1765.2757,-291.8887 1741,-266 1701.8305,-224.2279 1774.19,-164.8412 1813.7267,-137.2192"/>
<polygon fill="#191970" stroke="#191970" points="1815.7886,-140.0494 1822.0715,-131.5184 1811.84,-134.2693 1815.7886,-140.0494"/>
</g>
<!-- Node44&#45;&gt;Node34 -->
<g id="edge47" class="edge">
<title>Node44&#45;&gt;Node34</title>
<path fill="none" stroke="#191970" d="M2595.5151,-307.9431C2608.1332,-305.862 2621.5196,-303.7589 2634,-302 2703.1104,-292.2599 2899.5631,-318.1031 2946,-266 2964.5966,-245.1343 2937.5841,-216.8719 2916.0527,-199.4296"/>
<polygon fill="#191970" stroke="#191970" points="2917.9348,-196.4601 2907.8875,-193.0982 2913.6454,-201.9919 2917.9348,-196.4601"/>
</g>
<!-- Node44&#45;&gt;Node40 -->
<g id="edge42" class="edge">
<title>Node44&#45;&gt;Node40</title>
<path fill="none" stroke="#191970" d="M2458.3422,-310.6855C2347.3969,-301.3895 2144.2146,-283.8402 1971,-266 1956.6149,-264.5184 1941.3729,-262.8497 1926.5245,-261.1704"/>
<polygon fill="#191970" stroke="#191970" points="1926.655,-257.6627 1916.3231,-260.0083 1925.8627,-264.6178 1926.655,-257.6627"/>
</g>
<!-- Node44&#45;&gt;Node24 -->
<g id="edge41" class="edge">
<title>Node44&#45;&gt;Node24</title>
<path fill="none" stroke="#191970" d="M2565.5292,-307.9986C2599.7046,-293.4049 2654.8118,-264.0973 2630,-235 2597.1449,-196.4702 2453.7611,-212.6513 2405,-199 2369.8711,-189.1652 2364.5493,-176.186 2329,-168 2090.2799,-113.0292 2023.1028,-152.5642 1779,-132 1766.3543,-130.9347 1752.7974,-129.6358 1739.9472,-128.3315"/>
<polygon fill="#191970" stroke="#191970" points="1740.13,-124.8319 1729.824,-127.2887 1739.4127,-131.7951 1740.13,-124.8319"/>
</g>
<!-- Node45 -->
<g id="node22" class="node">
<title>Node45</title>
<g id="a_node22"><a xlink:href="Index_8hpp.html" target="_top" xlink:title="Core/Utils/Index.hpp">
<polygon fill="#ffffff" stroke="#ff0000" points="1388,-174 1388,-193 1504,-193 1504,-174 1388,-174"/>
<text text-anchor="middle" x="1446" y="-181" font-family="Helvetica,sans-Serif" font-size="10.00" fill="#000000">Core/Utils/Index.hpp</text>
</a>
</g>
</g>
<!-- Node44&#45;&gt;Node45 -->
<g id="edge44" class="edge">
<title>Node44&#45;&gt;Node45</title>
<path fill="none" stroke="#191970" d="M2458.291,-314.9448C2277.1459,-308.9319 1850.197,-292.3755 1708,-266 1623.5579,-250.3372 1528.2614,-215.8828 1479.1722,-196.8275"/>
<polygon fill="#191970" stroke="#191970" points="1480.2908,-193.5068 1469.703,-193.1196 1477.7384,-200.0249 1480.2908,-193.5068"/>
</g>
<!-- Node47 -->
<g id="node24" class="node">
<title>Node47</title>
<g id="a_node24"><a xlink:href="MaterialData_8hpp.html" target="_top" xlink:title="Core/Asset/MaterialData.hpp">
<polygon fill="#ffffff" stroke="#ff0000" points="3358,-241 3358,-260 3514,-260 3514,-241 3358,-241"/>
<text text-anchor="middle" x="3436" y="-248" font-family="Helvetica,sans-Serif" font-size="10.00" fill="#000000">Core/Asset/MaterialData.hpp</text>
</a>
</g>
</g>
<!-- Node44&#45;&gt;Node47 -->
<g id="edge48" class="edge">
<title>Node44&#45;&gt;Node47</title>
<path fill="none" stroke="#191970" d="M2591.5346,-307.994C2605.2677,-305.7073 2620.1674,-303.4959 2634,-302 2950.3358,-267.7894 3032.86,-301.9756 3349,-266 3358.6166,-264.9057 3368.7768,-263.4094 3378.6288,-261.7758"/>
<polygon fill="#191970" stroke="#191970" points="3379.4866,-265.1797 3388.7483,-260.0347 3378.2996,-258.2811 3379.4866,-265.1797"/>
</g>
<!-- Node49 -->
<g id="node25" class="node">
<title>Node49</title>
<g id="a_node25"><a xlink:href="GeometryData_8inl.html" target="_top" xlink:title="Core/Asset/GeometryData.inl">
<polygon fill="#ffffff" stroke="#ff0000" points="2461.5,-241 2461.5,-260 2620.5,-260 2620.5,-241 2461.5,-241"/>
<text text-anchor="middle" x="2541" y="-248" font-family="Helvetica,sans-Serif" font-size="10.00" fill="#000000">Core/Asset/GeometryData.inl</text>
</a>
</g>
</g>
<!-- Node44&#45;&gt;Node49 -->
<g id="edge53" class="edge">
<title>Node44&#45;&gt;Node49</title>
<path fill="none" stroke="#191970" d="M2536.0994,-307.9005C2534.2106,-298.149 2533.7686,-282.7597 2534.7734,-270.3695"/>
<polygon fill="#191970" stroke="#191970" points="2538.2923,-270.4478 2536.1029,-260.0817 2531.35,-269.5506 2538.2923,-270.4478"/>
</g>
<!-- Node45&#45;&gt;Node14 -->
<g id="edge45" class="edge">
<title>Node45&#45;&gt;Node14</title>
<path fill="none" stroke="#191970" d="M1504.1144,-174.3592C1577.6652,-162.7905 1703.6751,-142.9705 1777.7576,-131.3182"/>
<polygon fill="#191970" stroke="#191970" points="1778.5207,-134.7413 1787.8554,-129.7299 1777.433,-127.8263 1778.5207,-134.7413"/>
</g>
<!-- Node19 -->
<g id="node23" class="node">
<title>Node19</title>
<polygon fill="#ffffff" stroke="#bfbfbf" points="1424,-112.5 1424,-131.5 1468,-131.5 1468,-112.5 1424,-112.5"/>
<text text-anchor="middle" x="1446" y="-119.5" font-family="Helvetica,sans-Serif" font-size="10.00" fill="#000000">limits</text>
</g>
<!-- Node45&#45;&gt;Node19 -->
<g id="edge46" class="edge">
<title>Node45&#45;&gt;Node19</title>
<path fill="none" stroke="#191970" d="M1446,-173.8906C1446,-165.3657 1446,-152.6392 1446,-141.9235"/>
<polygon fill="#191970" stroke="#191970" points="1449.5001,-141.7448 1446,-131.7449 1442.5001,-141.7449 1449.5001,-141.7448"/>
</g>
<!-- Node47&#45;&gt;Node11 -->
<g id="edge50" class="edge">
<title>Node47&#45;&gt;Node11</title>
<path fill="none" stroke="#191970" d="M3429.3023,-240.7799C3416.3478,-222.8611 3385.9457,-184.9096 3350,-168 3285.3312,-137.5784 3068.4086,-126.3822 2984.5178,-123.1279"/>
<polygon fill="#191970" stroke="#191970" points="2984.6301,-119.6298 2974.5062,-122.7531 2984.3682,-126.6249 2984.6301,-119.6298"/>
</g>
<!-- Node47&#45;&gt;Node13 -->
<g id="edge49" class="edge">
<title>Node47&#45;&gt;Node13</title>
<path fill="none" stroke="#191970" d="M3514.3286,-244.9193C3584.2687,-238.3233 3679.7508,-224.8129 3707,-199 3722.4158,-184.3968 3726.1533,-159.4442 3726.6885,-141.9112"/>
<polygon fill="#191970" stroke="#191970" points="3730.188,-141.6373 3726.6683,-131.6442 3723.1881,-141.6511 3730.188,-141.6373"/>
</g>
<!-- Node47&#45;&gt;Node14 -->
<g id="edge52" class="edge">
<title>Node47&#45;&gt;Node14</title>
<path fill="none" stroke="#191970" d="M3415.7988,-240.9082C3376.228,-222.6689 3285.2665,-183.431 3204,-168 3074.5594,-143.4216 2142.1321,-126.8862 1896.2902,-122.921"/>
<polygon fill="#191970" stroke="#191970" points="1896.181,-119.4189 1886.1261,-122.758 1896.0686,-126.418 1896.181,-119.4189"/>
</g>
<!-- Node47&#45;&gt;Node34 -->
<g id="edge51" class="edge">
<title>Node47&#45;&gt;Node34</title>
<path fill="none" stroke="#191970" d="M3386.4208,-240.9569C3374.2162,-238.804 3361.16,-236.6657 3349,-235 3183.5545,-212.3367 3140.2975,-222.7185 2975,-199 2966.7489,-197.8161 2958.0616,-196.369 2949.563,-194.8397"/>
<polygon fill="#191970" stroke="#191970" points="2950.1805,-191.3946 2939.7107,-193.0175 2948.9074,-198.2779 2950.1805,-191.3946"/>
</g>
<!-- Node49&#45;&gt;Node44 -->
<g id="edge54" class="edge">
<title>Node49&#45;&gt;Node44</title>
<path fill="none" stroke="#191970" d="M2545.8971,-260.0817C2547.7877,-269.8263 2548.2315,-285.214 2547.2285,-297.6079"/>
<polygon fill="#191970" stroke="#191970" points="2543.709,-297.5349 2545.9006,-307.9005 2550.6514,-298.4306 2543.709,-297.5349"/>
</g>
<!-- Node51&#45;&gt;Node11 -->
<g id="edge58" class="edge">
<title>Node51&#45;&gt;Node11</title>
<path fill="none" stroke="#191970" d="M2804.1394,-240.9215C2771.2435,-226.3433 2718.5378,-197.1876 2742,-168 2763.6041,-141.1239 2863.7632,-129.0381 2917.1986,-124.4244"/>
<polygon fill="#191970" stroke="#191970" points="2917.5464,-127.9077 2927.2255,-123.5991 2916.9721,-120.9313 2917.5464,-127.9077"/>
</g>
<!-- Node51&#45;&gt;Node13 -->
<g id="edge57" class="edge">
<title>Node51&#45;&gt;Node13</title>
<path fill="none" stroke="#191970" d="M2821.8956,-240.8655C2811.9046,-223.7588 2794.98,-188.0035 2814,-168 2844.9349,-135.4654 3535.3233,-124.4897 3693.7858,-122.3947"/>
<polygon fill="#191970" stroke="#191970" points="3693.8981,-125.8936 3703.8518,-122.2642 3693.8072,-118.8942 3693.8981,-125.8936"/>
</g>
<!-- Node51&#45;&gt;Node14 -->
<g id="edge60" class="edge">
<title>Node51&#45;&gt;Node14</title>
<path fill="none" stroke="#191970" d="M2775.9599,-240.9808C2702.0555,-227.3652 2574.5293,-203.4726 2565,-199 2545.2693,-189.7393 2547.2778,-175.992 2527,-168 2469.1652,-145.2058 2053.2679,-129.1851 1896.5433,-123.8979"/>
<polygon fill="#191970" stroke="#191970" points="1896.2695,-120.3869 1886.1581,-123.5505 1896.0355,-127.383 1896.2695,-120.3869"/>
</g>
<!-- Node51&#45;&gt;Node34 -->
<g id="edge62" class="edge">
<title>Node51&#45;&gt;Node34</title>
<path fill="none" stroke="#191970" d="M2837.4562,-240.9005C2847.8463,-230.353 2864.7338,-213.2096 2877.3524,-200.3998"/>
<polygon fill="#191970" stroke="#191970" points="2880.037,-202.6619 2884.5614,-193.0817 2875.0502,-197.7495 2880.037,-202.6619"/>
</g>
<!-- Node51&#45;&gt;Node41 -->
<g id="edge59" class="edge">
<title>Node51&#45;&gt;Node41</title>
<path fill="none" stroke="#191970" d="M2752.4094,-243.1896C2724.0616,-240.5144 2691.5607,-237.5263 2662,-235 2454.2117,-217.2421 2209.6131,-198.9426 2083.2187,-189.6796"/>
<polygon fill="#191970" stroke="#191970" points="2083.442,-186.1867 2073.2131,-188.9472 2082.9309,-193.168 2083.442,-186.1867"/>
</g>
<!-- Node51&#45;&gt;Node22 -->
<g id="edge61" class="edge">
<title>Node51&#45;&gt;Node22</title>
<path fill="none" stroke="#191970" d="M2752.3477,-244.0802C2715.4594,-241.0769 2670.4308,-237.5984 2630,-235 2312.0318,-214.5647 2232.0796,-217.6207 1914,-199 1853.8685,-195.4799 1785.0156,-190.7973 1738.0371,-187.5034"/>
<polygon fill="#191970" stroke="#191970" points="1737.9876,-183.9914 1727.7667,-186.781 1737.4964,-190.9741 1737.9876,-183.9914"/>
</g>
<!-- Node27 -->
<g id="node27" class="node">
<title>Node27</title>
<polygon fill="#ffffff" stroke="#bfbfbf" points="2414,-174 2414,-193 2452,-193 2452,-174 2414,-174"/>
<text text-anchor="middle" x="2433" y="-181" font-family="Helvetica,sans-Serif" font-size="10.00" fill="#000000">map</text>
</g>
<!-- Node51&#45;&gt;Node27 -->
<g id="edge56" class="edge">
<title>Node51&#45;&gt;Node27</title>
<path fill="none" stroke="#191970" d="M2774.758,-240.956C2762.6872,-238.8966 2749.9147,-236.7994 2738,-235 2615.2456,-216.4608 2578.945,-237.747 2461,-199 2459.7529,-198.5903 2458.4975,-198.1242 2457.246,-197.6157"/>
<polygon fill="#191970" stroke="#191970" points="2458.4565,-194.3135 2447.9296,-193.116 2455.4121,-200.6168 2458.4565,-194.3135"/>
</g>
<!-- Node53&#45;&gt;Node10 -->
<g id="edge64" class="edge">
<title>Node53&#45;&gt;Node10</title>
<path fill="none" stroke="#191970" d="M3227.5442,-240.9722C3215.7652,-238.6565 3202.9339,-236.436 3191,-235 2843.805,-193.2216 2753.27,-230.5882 2405,-199 2380.0999,-196.7416 2352.2943,-192.9858 2330.3779,-189.737"/>
<polygon fill="#191970" stroke="#191970" points="2330.8532,-186.2692 2320.4432,-188.2396 2329.8098,-193.191 2330.8532,-186.2692"/>
</g>
<!-- Node53&#45;&gt;Node11 -->
<g id="edge66" class="edge">
<title>Node53&#45;&gt;Node11</title>
<path fill="none" stroke="#191970" d="M3269.023,-240.7984C3266.7041,-223.2543 3259.1933,-186.3732 3236,-168 3197.5901,-137.5725 3051.5801,-126.7898 2984.7546,-123.3939"/>
<polygon fill="#191970" stroke="#191970" points="2984.8952,-119.8967 2974.738,-122.9104 2984.5576,-126.8885 2984.8952,-119.8967"/>
</g>
<!-- Node53&#45;&gt;Node13 -->
<g id="edge65" class="edge">
<title>Node53&#45;&gt;Node13</title>
<path fill="none" stroke="#191970" d="M3303.9016,-240.9466C3389.1019,-216.9373 3611.2804,-154.3278 3694.1898,-130.9641"/>
<polygon fill="#191970" stroke="#191970" points="3695.1413,-134.3323 3703.8171,-128.2511 3693.2426,-127.5947 3695.1413,-134.3323"/>
</g>
<!-- Node53&#45;&gt;Node14 -->
<g id="edge68" class="edge">
<title>Node53&#45;&gt;Node14</title>
<path fill="none" stroke="#191970" d="M3261.6883,-240.7598C3245.3639,-222.4483 3207.0259,-183.3548 3165,-168 3104.7537,-145.9881 2146.6512,-127.5002 1896.4107,-123.03"/>
<polygon fill="#191970" stroke="#191970" points="1896.1312,-119.5246 1886.0705,-122.8461 1896.0067,-126.5235 1896.1312,-119.5246"/>
</g>
<!-- Node53&#45;&gt;Node34 -->
<g id="edge67" class="edge">
<title>Node53&#45;&gt;Node34</title>
<path fill="none" stroke="#191970" d="M3222.4178,-240.9358C3212.0711,-238.9199 3201.1767,-236.846 3191,-235 3095.2385,-217.6292 3070.8017,-216.1472 2975,-199 2967.8298,-197.7166 2960.3105,-196.3312 2952.864,-194.935"/>
<polygon fill="#191970" stroke="#191970" points="2953.2704,-191.4499 2942.7945,-193.0329 2951.971,-198.3283 2953.2704,-191.4499"/>
</g>
<!-- Node59&#45;&gt;Node34 -->
<g id="edge70" class="edge">
<title>Node59&#45;&gt;Node34</title>
<path fill="none" stroke="#191970" d="M1898.6182,-315.2908C2143.9973,-308.037 2895.4842,-284.3621 2913,-266 2929.4895,-248.7137 2917.3808,-220.1207 2906.3416,-201.5471"/>
<polygon fill="#191970" stroke="#191970" points="2909.2923,-199.6646 2900.981,-193.0939 2903.3807,-203.4134 2909.2923,-199.6646"/>
</g>
<!-- Node59&#45;&gt;Node22 -->
<g id="edge71" class="edge">
<title>Node59&#45;&gt;Node22</title>
<path fill="none" stroke="#191970" d="M1780.7883,-307.9612C1756.5188,-300.3639 1726.9572,-287.3592 1708,-266 1692.3976,-248.4208 1686.1548,-221.4988 1683.659,-203.2293"/>
<polygon fill="#191970" stroke="#191970" points="1687.1203,-202.686 1682.539,-193.1329 1680.1629,-203.4579 1687.1203,-202.686"/>
</g>
<!-- Node36&#45;&gt;Node13 -->
<g id="edge74" class="edge">
<title>Node36&#45;&gt;Node13</title>
<path fill="none" stroke="#191970" d="M3657.6563,-173.8906C3670.3768,-164.2324 3690.2004,-149.1812 3705.2284,-137.771"/>
<polygon fill="#191970" stroke="#191970" points="3707.5846,-140.3766 3713.4326,-131.5419 3703.3516,-134.8015 3707.5846,-140.3766"/>
</g>
<!-- Node36&#45;&gt;Node14 -->
<g id="edge73" class="edge">
<title>Node36&#45;&gt;Node14</title>
<path fill="none" stroke="#191970" d="M3591.9333,-179.1218C3547.6049,-175.6141 3482.7223,-170.8271 3426,-168 2829.3173,-138.2608 2105.5645,-125.9249 1896.2792,-122.8244"/>
<polygon fill="#191970" stroke="#191970" points="1896.1732,-119.3226 1886.1228,-122.6752 1896.0703,-126.3218 1896.1732,-119.3226"/>
</g>
<!-- Node60&#45;&gt;Node13 -->
<g id="edge79" class="edge">
<title>Node60&#45;&gt;Node13</title>
<path fill="none" stroke="#191970" d="M614.6995,-316.1085C736.6171,-313.2006 1029.416,-306.3863 1275,-302 1310.3729,-301.3682 3797.161,-291.1926 3822,-266 3845.384,-242.2832 3806.1294,-182.8184 3794,-168 3783.4373,-155.0957 3768.3259,-144.3784 3755.0299,-136.5444"/>
<polygon fill="#191970" stroke="#191970" points="3756.6275,-133.4276 3746.1932,-131.5901 3753.2042,-139.5334 3756.6275,-133.4276"/>
</g>
<!-- Node60&#45;&gt;Node14 -->
<g id="edge77" class="edge">
<title>Node60&#45;&gt;Node14</title>
<path fill="none" stroke="#191970" d="M562.5926,-307.7439C568.4123,-297.4722 577.6808,-280.773 585,-266 606.1957,-223.2186 589.3435,-194.587 629,-168 680.2475,-133.642 1677.4396,-136.1341 1739,-132 1751.5892,-131.1546 1765.0616,-129.9659 1777.8625,-128.702"/>
<polygon fill="#191970" stroke="#191970" points="1778.3596,-132.1696 1787.9549,-127.6774 1777.6525,-125.2054 1778.3596,-132.1696"/>
</g>
<!-- Node61 -->
<g id="node32" class="node">
<title>Node61</title>
<polygon fill="#ffffff" stroke="#bfbfbf" points="511.5,-241 511.5,-260 576.5,-260 576.5,-241 511.5,-241"/>
<text text-anchor="middle" x="544" y="-248" font-family="Helvetica,sans-Serif" font-size="10.00" fill="#000000">functional</text>
</g>
<!-- Node60&#45;&gt;Node61 -->
<g id="edge78" class="edge">
<title>Node60&#45;&gt;Node61</title>
<path fill="none" stroke="#191970" d="M555.1374,-307.9005C553.226,-298.0495 550.1983,-282.4451 547.7819,-269.9912"/>
<polygon fill="#191970" stroke="#191970" points="551.1999,-269.2319 545.8591,-260.0817 544.3281,-270.5653 551.1999,-269.2319"/>
</g>
<!-- Node62&#45;&gt;Node9 -->
<g id="edge87" class="edge">
<title>Node62&#45;&gt;Node9</title>
<path fill="none" stroke="#191970" d="M3128.34,-240.9724C3156.1664,-225.9894 3201.9684,-195.7597 3181,-168 3079.8991,-34.1543 1793.5789,-13.0416 1566.2217,-10.3495"/>
<polygon fill="#191970" stroke="#191970" points="1566.244,-6.8496 1556.2046,-10.2349 1566.1639,-13.8492 1566.244,-6.8496"/>
</g>
<!-- Node62&#45;&gt;Node10 -->
<g id="edge84" class="edge">
<title>Node62&#45;&gt;Node10</title>
<path fill="none" stroke="#191970" d="M3035.9459,-244.5802C2999.0854,-241.6295 2953.676,-238.0496 2913,-235 2687.2895,-218.0779 2630.1458,-222.2592 2405,-199 2380.13,-196.4308 2352.3251,-192.6682 2330.4015,-189.4935"/>
<polygon fill="#191970" stroke="#191970" points="2330.8649,-186.0241 2320.4629,-188.0366 2329.8495,-192.9501 2330.8649,-186.0241"/>
</g>
<!-- Node62&#45;&gt;Node11 -->
<g id="edge88" class="edge">
<title>Node62&#45;&gt;Node11</title>
<path fill="none" stroke="#191970" d="M3123.8099,-240.9861C3146.5036,-225.2482 3185.2344,-193.046 3165,-168 3142.7233,-140.426 3039.2619,-128.6115 2984.775,-124.231"/>
<polygon fill="#191970" stroke="#191970" points="2984.8067,-120.7233 2974.5692,-123.4515 2984.2736,-127.703 2984.8067,-120.7233"/>
</g>
<!-- Node62&#45;&gt;Node13 -->
<g id="edge86" class="edge">
<title>Node62&#45;&gt;Node13</title>
<path fill="none" stroke="#191970" d="M3145.2226,-240.9477C3207.7287,-224.6588 3340.017,-191.0387 3453,-168 3539.6158,-150.3379 3642.6834,-134.3113 3693.8579,-126.6863"/>
<polygon fill="#191970" stroke="#191970" points="3694.5865,-130.1167 3703.9658,-125.1892 3693.5608,-123.1922 3694.5865,-130.1167"/>
</g>
<!-- Node62&#45;&gt;Node14 -->
<g id="edge81" class="edge">
<title>Node62&#45;&gt;Node14</title>
<path fill="none" stroke="#191970" d="M3044.5066,-240.9626C2984.5202,-231.6851 2892.8027,-216.4622 2814,-199 2762.3181,-187.5476 2751.2736,-176.3453 2699,-168 2543.8964,-143.2383 2064.8831,-128.1866 1896.3762,-123.5447"/>
<polygon fill="#191970" stroke="#191970" points="1896.298,-120.0414 1886.2061,-123.2668 1896.1068,-127.0388 1896.298,-120.0414"/>
</g>
<!-- Node62&#45;&gt;Node45 -->
<g id="edge89" class="edge">
<title>Node62&#45;&gt;Node45</title>
<path fill="none" stroke="#191970" d="M3035.9935,-243.8383C2999.145,-240.7019 2953.7319,-237.1797 2913,-235 2342.4811,-204.4694 2198.424,-231.2542 1628,-199 1590.4124,-196.8746 1548.5461,-193.3871 1514.4531,-190.2579"/>
<polygon fill="#191970" stroke="#191970" points="1514.4162,-186.7395 1504.1355,-189.3002 1513.7691,-193.7095 1514.4162,-186.7395"/>
</g>
<!-- Node63 -->
<g id="node34" class="node">
<title>Node63</title>
<polygon fill="#ffffff" stroke="#bfbfbf" points="2983.5,-174 2983.5,-193 3090.5,-193 3090.5,-174 2983.5,-174"/>
<text text-anchor="middle" x="3037" y="-181" font-family="Helvetica,sans-Serif" font-size="10.00" fill="#000000">condition_variable</text>
</g>
<!-- Node62&#45;&gt;Node63 -->
<g id="edge82" class="edge">
<title>Node62&#45;&gt;Node63</title>
<path fill="none" stroke="#191970" d="M3098.6842,-240.9005C3087.2425,-230.2535 3068.5785,-212.8856 3054.7727,-200.0385"/>
<polygon fill="#191970" stroke="#191970" points="3057.0017,-197.3317 3047.2967,-193.0817 3052.2331,-202.4562 3057.0017,-197.3317"/>
</g>
<!-- Node64 -->
<g id="node35" class="node">
<title>Node64</title>
<polygon fill="#ffffff" stroke="#bfbfbf" points="3108.5,-174 3108.5,-193 3155.5,-193 3155.5,-174 3108.5,-174"/>
<text text-anchor="middle" x="3132" y="-181" font-family="Helvetica,sans-Serif" font-size="10.00" fill="#000000">deque</text>
</g>
<!-- Node62&#45;&gt;Node64 -->
<g id="edge83" class="edge">
<title>Node62&#45;&gt;Node64</title>
<path fill="none" stroke="#191970" d="M3112.2953,-240.9005C3115.7112,-230.95 3121.1422,-215.1292 3125.4382,-202.6147"/>
<polygon fill="#191970" stroke="#191970" points="3128.7742,-203.6763 3128.7108,-193.0817 3122.1535,-201.4035 3128.7742,-203.6763"/>
</g>
<!-- Node65 -->
<g id="node36" class="node">
<title>Node65</title>
<polygon fill="#ffffff" stroke="#bfbfbf" points="2470,-174 2470,-193 2518,-193 2518,-174 2470,-174"/>
<text text-anchor="middle" x="2494" y="-181" font-family="Helvetica,sans-Serif" font-size="10.00" fill="#000000">mutex</text>
</g>
<!-- Node62&#45;&gt;Node65 -->
<g id="edge85" class="edge">
<title>Node62&#45;&gt;Node65</title>
<path fill="none" stroke="#191970" d="M3035.9255,-244.6831C2909.2244,-234.4131 2653.8133,-212.8467 2565,-199 2552.8514,-197.1059 2539.6632,-194.4077 2527.9875,-191.7921"/>
<polygon fill="#191970" stroke="#191970" points="2528.7105,-188.3671 2518.1805,-189.5371 2527.1418,-195.1891 2528.7105,-188.3671"/>
</g>
<!-- Node66 -->
<g id="node37" class="node">
<title>Node66</title>
<g id="a_node37"><a xlink:href="Timer_8hpp.html" target="_top" xlink:title="Core/Utils/Timer.hpp">
<polygon fill="#ffffff" stroke="#ff0000" points="2574,-174 2574,-193 2690,-193 2690,-174 2574,-174"/>
<text text-anchor="middle" x="2632" y="-181" font-family="Helvetica,sans-Serif" font-size="10.00" fill="#000000">Core/Utils/Timer.hpp</text>
</a>
</g>
</g>
<!-- Node62&#45;&gt;Node66 -->
<g id="edge90" class="edge">
<title>Node62&#45;&gt;Node66</title>
<path fill="none" stroke="#191970" d="M3041.1641,-240.9717C2950.5509,-228.244 2790.9182,-205.8218 2700.1472,-193.072"/>
<polygon fill="#191970" stroke="#191970" points="2700.6262,-189.605 2690.2365,-191.68 2699.6524,-196.537 2700.6262,-189.605"/>
</g>
<!-- Node66&#45;&gt;Node14 -->
<g id="edge91" class="edge">
<title>Node66&#45;&gt;Node14</title>
<path fill="none" stroke="#191970" d="M2592.9518,-173.9898C2582.3195,-171.7031 2570.7654,-169.4928 2560,-168 2315.2245,-134.0573 2020.3001,-125.1201 1896.3854,-122.7991"/>
<polygon fill="#191970" stroke="#191970" points="1896.4065,-119.299 1886.3452,-122.6186 1896.2806,-126.2979 1896.4065,-119.299"/>
</g>
<!-- Node68&#45;&gt;Node44 -->
<g id="edge93" class="edge">
<title>Node68&#45;&gt;Node44</title>
<path fill="none" stroke="#191970" d="M1597.779,-379.2147C1785.3128,-366.9444 2249.3194,-336.5846 2448.1412,-323.5757"/>
<polygon fill="#191970" stroke="#191970" points="2448.5184,-327.0586 2458.2685,-322.9131 2448.0613,-320.0736 2448.5184,-327.0586"/>
</g>
<!-- Node68&#45;&gt;Node59 -->
<g id="edge94" class="edge">
<title>Node68&#45;&gt;Node59</title>
<path fill="none" stroke="#191970" d="M1585.448,-369.4639C1640.937,-357.2745 1718.0172,-340.3421 1768.9136,-329.1616"/>
<polygon fill="#191970" stroke="#191970" points="1769.7135,-332.5694 1778.7297,-327.0053 1768.2116,-325.7324 1769.7135,-332.5694"/>
</g>
<!-- Node69 -->
<g id="node39" class="node">
<title>Node69</title>
<g id="a_node39"><a xlink:href="TriangleMesh_8hpp.html" target="_top" xlink:title="Core/Geometry/TriangleMesh.hpp">
<polygon fill="#ffffff" stroke="#ff0000" points="1283.5,-308 1283.5,-327 1462.5,-327 1462.5,-308 1283.5,-308"/>
<text text-anchor="middle" x="1373" y="-315" font-family="Helvetica,sans-Serif" font-size="10.00" fill="#000000">Core/Geometry/TriangleMesh.hpp</text>
</a>
</g>
</g>
<!-- Node68&#45;&gt;Node69 -->
<g id="edge95" class="edge">
<title>Node68&#45;&gt;Node69</title>
<path fill="none" stroke="#191970" d="M1484.6836,-369.4639C1460.1957,-358.0702 1426.8016,-342.5327 1402.9216,-331.4219"/>
<polygon fill="#191970" stroke="#191970" points="1404.1844,-328.1492 1393.6413,-327.1039 1401.2314,-334.4958 1404.1844,-328.1492"/>
</g>
<!-- Node76 -->
<g id="node40" class="node">
<title>Node76</title>
<g id="a_node40"><a xlink:href="Volume_8hpp.html" target="_top" xlink:title="Core/Geometry/Volume.hpp">
<polygon fill="#ffffff" stroke="#ff0000" points="886,-241 886,-260 1038,-260 1038,-241 886,-241"/>
<text text-anchor="middle" x="962" y="-248" font-family="Helvetica,sans-Serif" font-size="10.00" fill="#000000">Core/Geometry/Volume.hpp</text>
</a>
</g>
</g>
<!-- Node68&#45;&gt;Node76 -->
<g id="edge99" class="edge">
<title>Node68&#45;&gt;Node76</title>
<path fill="none" stroke="#191970" d="M1436.3749,-372.7977C1378.3243,-363.714 1298.3474,-349.8467 1229,-333 1145.4644,-312.7065 1049.6573,-280.9827 998.5841,-263.373"/>
<polygon fill="#191970" stroke="#191970" points="999.5776,-260.0132 988.9828,-260.0469 997.2861,-266.6275 999.5776,-260.0132"/>
</g>
<!-- Node78 -->
<g id="node41" class="node">
<title>Node78</title>
<g id="a_node41"><a xlink:href="Component_8hpp.html" target="_top" xlink:title="Engine/Component/Component.hpp">
<polygon fill="#ffffff" stroke="#ff0000" points="1094.5,-241 1094.5,-260 1283.5,-260 1283.5,-241 1094.5,-241"/>
<text text-anchor="middle" x="1189" y="-248" font-family="Helvetica,sans-Serif" font-size="10.00" fill="#000000">Engine/Component/Component.hpp</text>
</a>
</g>
</g>
<!-- Node68&#45;&gt;Node78 -->
<g id="edge102" class="edge">
<title>Node68&#45;&gt;Node78</title>
<path fill="none" stroke="#191970" d="M1436.3782,-378.5674C1387.4034,-372.3074 1324.9144,-359.4417 1275,-333 1244.7175,-316.9581 1217.62,-287.139 1202.2628,-268.0857"/>
<polygon fill="#191970" stroke="#191970" points="1204.9875,-265.8883 1196.0636,-260.1773 1199.4783,-270.2068 1204.9875,-265.8883"/>
</g>
<!-- Node69&#45;&gt;Node14 -->
<g id="edge97" class="edge">
<title>Node69&#45;&gt;Node14</title>
<path fill="none" stroke="#191970" d="M1283.1884,-313.8444C1104.2282,-306.1232 718.5658,-287.1179 699,-266 689.6361,-255.8933 690.9112,-246.1534 699,-235 827.9671,-57.1695 1020.39,-184.1098 1739,-132 1751.5845,-131.0874 1765.0549,-129.8703 1777.8554,-128.6"/>
<polygon fill="#191970" stroke="#191970" points="1778.3527,-132.0675 1787.9477,-127.5746 1777.6451,-125.1034 1778.3527,-132.0675"/>
</g>
<!-- Node69&#45;&gt;Node40 -->
<g id="edge96" class="edge">
<title>Node69&#45;&gt;Node40</title>
<path fill="none" stroke="#191970" d="M1438.9871,-307.9717C1523.9096,-295.7092 1671.1531,-274.4477 1760.7678,-261.5077"/>
<polygon fill="#191970" stroke="#191970" points="1761.4682,-264.9429 1770.8653,-260.0496 1760.4677,-258.0148 1761.4682,-264.9429"/>
</g>
<!-- Node69&#45;&gt;Node22 -->
<g id="edge98" class="edge">
<title>Node69&#45;&gt;Node22</title>
<path fill="none" stroke="#191970" d="M1368.7173,-307.7507C1361.9994,-290.7823 1351.4604,-255.6613 1369,-235 1370.0416,-233.773 1536.6473,-206.8472 1626.3285,-192.4302"/>
<polygon fill="#191970" stroke="#191970" points="1627.0227,-195.8637 1636.3407,-190.8213 1625.912,-188.9523 1627.0227,-195.8637"/>
</g>
<!-- Node76&#45;&gt;Node14 -->
<g id="edge100" class="edge">
<title>Node76&#45;&gt;Node14</title>
<path fill="none" stroke="#191970" d="M968.7122,-240.8463C981.9801,-222.6827 1013.5456,-183.8309 1051,-168 1192.0188,-108.3954 1586.3554,-143.7744 1739,-132 1751.5802,-131.0296 1765.0488,-129.788 1777.8488,-128.5121"/>
<polygon fill="#191970" stroke="#191970" points="1778.3464,-131.9796 1787.9411,-127.486 1777.6383,-125.0155 1778.3464,-131.9796"/>
</g>
<!-- Node76&#45;&gt;Node22 -->
<g id="edge101" class="edge">
<title>Node76&#45;&gt;Node22</title>
<path fill="none" stroke="#191970" d="M1033.4866,-240.9831C1050.3633,-238.8773 1068.3038,-236.7534 1085,-235 1274.8499,-215.0622 1322.8395,-215.7175 1513,-199 1550.7397,-195.6822 1593.2039,-191.7869 1626.1254,-188.7313"/>
<polygon fill="#191970" stroke="#191970" points="1626.8277,-192.1812 1636.4607,-187.7705 1626.1797,-185.2112 1626.8277,-192.1812"/>
</g>
<!-- Node78&#45;&gt;Node3 -->
<g id="edge105" class="edge">
<title>Node78&#45;&gt;Node3</title>
<path fill="none" stroke="#191970" d="M1179.114,-240.9005C1168.2516,-230.353 1150.5965,-213.2096 1137.4043,-200.3998"/>
<polygon fill="#191970" stroke="#191970" points="1139.4802,-197.537 1129.8677,-193.0817 1134.6038,-202.559 1139.4802,-197.537"/>
</g>
<!-- Node78&#45;&gt;Node11 -->
<g id="edge106" class="edge">
<title>Node78&#45;&gt;Node11</title>
<path fill="none" stroke="#191970" d="M1253.7197,-240.9506C1341.0262,-227.955 1488.4823,-205.5636 1513,-199 1550.2352,-189.0318 1556.2197,-175.6467 1594,-168 1727.1424,-141.052 2720.7246,-125.3381 2917.2755,-122.4759"/>
<polygon fill="#191970" stroke="#191970" points="2917.3563,-125.9752 2927.3047,-122.331 2917.2551,-118.9759 2917.3563,-125.9752"/>
</g>
<!-- Node78&#45;&gt;Node22 -->
<g id="edge107" class="edge">
<title>Node78&#45;&gt;Node22</title>
<path fill="none" stroke="#191970" d="M1254.6853,-240.9857C1268.959,-238.9668 1283.981,-236.879 1298,-235 1424.9787,-217.9811 1457.158,-217.0093 1584,-199 1597.5902,-197.0704 1612.2154,-194.8403 1625.9144,-192.6836"/>
<polygon fill="#191970" stroke="#191970" points="1626.8493,-196.0791 1636.1771,-191.0549 1625.7521,-189.1656 1626.8493,-196.0791"/>
</g>
<!-- Node78&#45;&gt;Node24 -->
<g id="edge104" class="edge">
<title>Node78&#45;&gt;Node24</title>
<path fill="none" stroke="#191970" d="M1190.317,-240.9077C1193.3037,-223.2017 1202.3575,-185.5909 1227,-168 1258.6773,-145.3874 1508.7644,-130.4279 1624.0971,-124.664"/>
<polygon fill="#191970" stroke="#191970" points="1624.3464,-128.156 1634.1617,-124.1673 1624.0013,-121.1645 1624.3464,-128.156"/>
</g>
<!-- Node78&#45;&gt;Node45 -->
<g id="edge103" class="edge">
<title>Node78&#45;&gt;Node45</title>
<path fill="none" stroke="#191970" d="M1225.5489,-240.9717C1271.1851,-229.0743 1349.3147,-208.7059 1399.2596,-195.6852"/>
<polygon fill="#191970" stroke="#191970" points="1400.3675,-199.0135 1409.1611,-193.1039 1398.6015,-192.2399 1400.3675,-199.0135"/>
</g>
<!-- Node80&#45;&gt;Node3 -->
<g id="edge109" class="edge">
<title>Node80&#45;&gt;Node3</title>
<path fill="none" stroke="#191970" d="M1513.8597,-307.987C1500.1872,-305.8455 1485.5877,-303.7047 1472,-302 1429.1503,-296.624 1114.0883,-297.9198 1085,-266 1067.824,-247.152 1086.9873,-218.622 1102.9994,-200.5329"/>
<polygon fill="#191970" stroke="#191970" points="1105.7355,-202.7307 1109.9927,-193.0288 1100.6145,-197.9583 1105.7355,-202.7307"/>
</g>
<!-- Node80&#45;&gt;Node9 -->
<g id="edge112" class="edge">
<title>Node80&#45;&gt;Node9</title>
<path fill="none" stroke="#191970" d="M1565.1873,-307.6857C1554.962,-285.9 1532,-231.6206 1532,-183.5 1532,-183.5 1532,-183.5 1532,-122 1532,-89.7116 1532,-52.1872 1532,-29.8048"/>
<polygon fill="#191970" stroke="#191970" points="1535.5001,-29.5883 1532,-19.5884 1528.5001,-29.5884 1535.5001,-29.5883"/>
</g>
<!-- Node80&#45;&gt;Node11 -->
<g id="edge113" class="edge">
<title>Node80&#45;&gt;Node11</title>
<path fill="none" stroke="#191970" d="M1636.007,-310.0819C1733.2422,-298.8601 1906.3961,-277.6457 1933,-266 1952.9667,-257.2597 1951.8614,-245.4296 1971,-235 2016.54,-210.183 2033.608,-217.6546 2082,-199 2113.3694,-186.9074 2118.3428,-175.9864 2151,-168 2299.6925,-131.637 2783.9073,-123.7992 2916.9225,-122.3152"/>
<polygon fill="#191970" stroke="#191970" points="2917.3307,-125.8112 2927.2928,-122.2046 2917.256,-118.8116 2917.3307,-125.8112"/>
</g>
<!-- Node80&#45;&gt;Node13 -->
<g id="edge111" class="edge">
<title>Node80&#45;&gt;Node13</title>
<path fill="none" stroke="#191970" d="M1636.1494,-310.2015C1666.7915,-307.1186 1703.7103,-303.8253 1737,-302 1795.7258,-298.78 3812.7673,-307.9399 3854,-266 3884.5355,-234.9408 3879.0549,-203.6278 3854,-168 3842.7363,-151.9831 3792.3474,-137.4133 3758.2532,-129.1376"/>
<polygon fill="#191970" stroke="#191970" points="3758.7935,-125.669 3748.2567,-126.7767 3757.1845,-132.4816 3758.7935,-125.669"/>
</g>
<!-- Node80&#45;&gt;Node22 -->
<g id="edge114" class="edge">
<title>Node80&#45;&gt;Node22</title>
<path fill="none" stroke="#191970" d="M1576.8694,-307.5384C1587.9178,-291.7121 1610.5726,-260.0533 1632,-235 1642.3537,-222.8942 1654.8341,-210.0375 1664.7358,-200.1981"/>
<polygon fill="#191970" stroke="#191970" points="1667.3548,-202.5316 1672.0341,-193.026 1662.4484,-197.5388 1667.3548,-202.5316"/>
</g>
<!-- Node80&#45;&gt;Node65 -->
<g id="edge110" class="edge">
<title>Node80&#45;&gt;Node65</title>
<path fill="none" stroke="#191970" d="M1636.1921,-310.8528C1666.843,-307.9042 1703.7569,-304.536 1737,-302 1870.6285,-291.8059 2209.998,-302.3176 2339,-266 2390.1022,-251.6133 2443.4081,-218.6209 2472.2701,-198.9951"/>
<polygon fill="#191970" stroke="#191970" points="2474.5133,-201.6993 2480.7482,-193.1332 2470.5323,-195.9415 2474.5133,-201.6993"/>
</g>
<!-- Node81 -->
<g id="node43" class="node">
<title>Node81</title>
<g id="a_node43"><a xlink:href="IndexedObject_8hpp.html" target="_top" xlink:title="Core/Utils/IndexedObject.hpp">
<polygon fill="#ffffff" stroke="#000000" points="708.5,-241 708.5,-260 867.5,-260 867.5,-241 708.5,-241"/>
<text text-anchor="middle" x="788" y="-248" font-family="Helvetica,sans-Serif" font-size="10.00" fill="#000000">Core/Utils/IndexedObject.hpp</text>
</a>
</g>
</g>
<!-- Node80&#45;&gt;Node81 -->
<g id="edge115" class="edge">
<title>Node80&#45;&gt;Node81</title>
<path fill="none" stroke="#191970" d="M1515.953,-307.9957C1501.6953,-305.7508 1486.2984,-303.5596 1472,-302 1208.6341,-273.2729 1140.1344,-296.7757 877,-266 867.186,-264.8522 856.8123,-263.3306 846.7487,-261.6887"/>
<polygon fill="#191970" stroke="#191970" points="847.2633,-258.2261 836.8208,-260.0161 846.1003,-265.1289 847.2633,-258.2261"/>
</g>
<!-- Node82 -->
<g id="node44" class="node">
<title>Node82</title>
<g id="a_node44"><a xlink:href="Entity_8inl.html" target="_top" xlink:title="Engine/Entity/Entity.inl">
<polygon fill="#ffffff" stroke="#000000" points="1378,-241 1378,-260 1504,-260 1504,-241 1378,-241"/>
<text text-anchor="middle" x="1441" y="-248" font-family="Helvetica,sans-Serif" font-size="10.00" fill="#000000">Engine/Entity/Entity.inl</text>
</a>
</g>
</g>
<!-- Node80&#45;&gt;Node82 -->
<g id="edge118" class="edge">
<title>Node80&#45;&gt;Node82</title>
<path fill="none" stroke="#191970" d="M1546.6169,-307.9005C1522.8952,-296.7062 1486.7757,-278.0823 1463.4147,-265.0947"/>
<polygon fill="#191970" stroke="#191970" points="1464.9785,-261.9582 1454.5511,-260.0817 1461.5323,-268.0512 1464.9785,-261.9582"/>
</g>
<!-- Node81&#45;&gt;Node14 -->
<g id="edge116" class="edge">
<title>Node81&#45;&gt;Node14</title>
<path fill="none" stroke="#191970" d="M807.0299,-240.8615C843.9123,-222.724 928.1778,-183.9148 1004,-168 1324.0834,-100.8157 1412.8689,-156.609 1739,-132 1751.5818,-131.0506 1765.051,-129.8179 1777.8512,-128.544"/>
<polygon fill="#191970" stroke="#191970" points="1778.3488,-132.0115 1787.9435,-127.5181 1777.6408,-125.0474 1778.3488,-132.0115"/>
</g>
<!-- Node81&#45;&gt;Node45 -->
<g id="edge117" class="edge">
<title>Node81&#45;&gt;Node45</title>
<path fill="none" stroke="#191970" d="M837.7639,-240.9214C850.5158,-238.7181 864.2348,-236.5653 877,-235 1099.0212,-207.7761 1157.8099,-232.3091 1379,-199 1385.663,-197.9966 1392.6446,-196.6823 1399.4803,-195.2429"/>
<polygon fill="#191970" stroke="#191970" points="1400.3271,-198.6403 1409.3371,-193.0662 1398.8176,-191.805 1400.3271,-198.6403"/>
</g>
<!-- Node82&#45;&gt;Node80 -->
<g id="edge119" class="edge">
<title>Node82&#45;&gt;Node80</title>
<path fill="none" stroke="#191970" d="M1464.3454,-260.0817C1488.0539,-271.2681 1524.1736,-289.891 1547.5482,-302.8846"/>
<polygon fill="#191970" stroke="#191970" points="1545.9906,-306.0246 1556.418,-307.9005 1549.4363,-299.9314 1545.9906,-306.0246"/>
</g>
<!-- Node83&#45;&gt;Node3 -->
<g id="edge121" class="edge">
<title>Node83&#45;&gt;Node3</title>
<path fill="none" stroke="#191970" d="M269.1485,-307.4201C183.0018,-297.7662 70.8328,-282.2948 57,-266 48.0835,-255.4965 47.4963,-244.9753 57,-235 91.2824,-199.0165 819.0474,-187.1382 1050.1933,-184.2656"/>
<polygon fill="#191970" stroke="#191970" points="1050.5384,-187.7617 1060.4947,-184.1395 1050.4526,-180.7623 1050.5384,-187.7617"/>
</g>
<!-- Node83&#45;&gt;Node7 -->
<g id="edge123" class="edge">
<title>Node83&#45;&gt;Node7</title>
<path fill="none" stroke="#191970" d="M269.3508,-310.9316C188.2925,-303.9358 82.2496,-290.4031 47,-266 12.3037,-241.98 0,-225.6994 0,-183.5 0,-183.5 0,-183.5 0,-122 0,-52.476 529.5294,-19.8896 681.6107,-11.9644"/>
<polygon fill="#191970" stroke="#191970" points="682.0885,-15.4446 691.8958,-11.4362 681.7294,-8.4538 682.0885,-15.4446"/>
</g>
<!-- Node83&#45;&gt;Node10 -->
<g id="edge124" class="edge">
<title>Node83&#45;&gt;Node10</title>
<path fill="none" stroke="#191970" d="M470.7633,-303.8635C477.2669,-303.1756 483.7217,-302.5452 490,-302 667.9539,-286.5454 1118.5289,-304.2917 1293,-266 1328.6316,-258.1798 1333.3906,-242.9207 1369,-235 1523.8615,-200.5535 1923.6609,-208.8674 2082,-199 2141.2541,-195.3074 2209.8819,-190.0249 2251.861,-186.6795"/>
<polygon fill="#191970" stroke="#191970" points="2252.2488,-190.1597 2261.9376,-185.8728 2251.6902,-183.1821 2252.2488,-190.1597"/>
</g>
<!-- Node83&#45;&gt;Node11 -->
<g id="edge127" class="edge">
<title>Node83&#45;&gt;Node11</title>
<path fill="none" stroke="#191970" d="M470.7573,-303.7928C477.2624,-303.1222 483.7192,-302.515 490,-302 603.3566,-292.7049 1406.979,-307.1784 1513,-266 1575.5966,-241.6876 1565.3983,-192.2993 1628,-168 1689.8324,-143.9993 2716.2091,-125.8749 2917.063,-122.5487"/>
<polygon fill="#191970" stroke="#191970" points="2917.3589,-126.0444 2927.2999,-122.3801 2917.2436,-119.0453 2917.3589,-126.0444"/>
</g>
<!-- Node83&#45;&gt;Node61 -->
<g id="edge122" class="edge">
<title>Node83&#45;&gt;Node61</title>
<path fill="none" stroke="#191970" d="M409.049,-302.4639C439.2542,-290.8332 480.6736,-274.8843 509.6307,-263.7342"/>
<polygon fill="#191970" stroke="#191970" points="511.2403,-266.865 519.3146,-260.0053 508.7248,-260.3325 511.2403,-266.865"/>
</g>
<!-- Node83&#45;&gt;Node78 -->
<g id="edge130" class="edge">
<title>Node83&#45;&gt;Node78</title>
<path fill="none" stroke="#191970" d="M470.7766,-304.0083C477.277,-303.2849 483.7274,-302.6072 490,-302 736.9179,-278.0985 799.8583,-287.4644 1047,-266 1063.2656,-264.5873 1080.5565,-262.8761 1097.2697,-261.1134"/>
<polygon fill="#191970" stroke="#191970" points="1098.0154,-264.5537 1107.5871,-260.0113 1097.2719,-257.5933 1098.0154,-264.5537"/>
</g>
<!-- Node84 -->
<g id="node46" class="node">
<title>Node84</title>
<polygon fill="#ffffff" stroke="#bfbfbf" points="66.5,-241 66.5,-260 131.5,-260 131.5,-241 66.5,-241"/>
<text text-anchor="middle" x="99" y="-248" font-family="Helvetica,sans-Serif" font-size="10.00" fill="#000000">typeindex</text>
</g>
<!-- Node83&#45;&gt;Node84 -->
<g id="edge125" class="edge">
<title>Node83&#45;&gt;Node84</title>
<path fill="none" stroke="#191970" d="M289.9842,-302.4767C245.4335,-293.3917 189.1968,-280.727 140,-266 137.4234,-265.2287 134.7768,-264.3749 132.1285,-263.4762"/>
<polygon fill="#191970" stroke="#191970" points="133.2481,-260.1595 122.6535,-260.0912 130.8931,-266.7515 133.2481,-260.1595"/>
</g>
<!-- Node85 -->
<g id="node47" class="node">
<title>Node85</title>
<polygon fill="#ffffff" stroke="#bfbfbf" points="149.5,-241 149.5,-260 242.5,-260 242.5,-241 149.5,-241"/>
<text text-anchor="middle" x="196" y="-248" font-family="Helvetica,sans-Serif" font-size="10.00" fill="#000000">unordered_map</text>
</g>
<!-- Node83&#45;&gt;Node85 -->
<g id="edge126" class="edge">
<title>Node83&#45;&gt;Node85</title>
<path fill="none" stroke="#191970" d="M330.951,-302.4639C300.7458,-290.8332 259.3264,-274.8843 230.3693,-263.7342"/>
<polygon fill="#191970" stroke="#191970" points="231.2752,-260.3325 220.6854,-260.0053 228.7597,-266.865 231.2752,-260.3325"/>
</g>
<!-- Node86 -->
<g id="node48" class="node">
<title>Node86</title>
<g id="a_node48"><a xlink:href="Singleton_8hpp.html" target="_top" xlink:title="Core/Utils/Singleton.hpp">
<polygon fill="#ffffff" stroke="#000000" points="1236,-174 1236,-193 1370,-193 1370,-174 1236,-174"/>
<text text-anchor="middle" x="1303" y="-181" font-family="Helvetica,sans-Serif" font-size="10.00" fill="#000000">Core/Utils/Singleton.hpp</text>
</a>
</g>
</g>
<!-- Node83&#45;&gt;Node86 -->
<g id="edge128" class="edge">
<title>Node83&#45;&gt;Node86</title>
<path fill="none" stroke="#191970" d="M400.8867,-302.3954C419.6412,-292.7844 443.7818,-279.618 464,-266 482.0777,-253.8238 481.6662,-242.8484 502,-235 644.4139,-180.031 1036.0083,-213.2072 1188,-199 1201.2667,-197.7599 1215.3546,-196.126 1228.9537,-194.3845"/>
<polygon fill="#191970" stroke="#191970" points="1229.7758,-197.8067 1239.236,-193.0365 1228.8659,-190.8661 1229.7758,-197.8067"/>
</g>
<!-- Node87 -->
<g id="node49" class="node">
<title>Node87</title>
<g id="a_node49"><a xlink:href="ComponentMessenger_8inl.html" target="_top" xlink:title="Engine/Managers/Component\lMessenger/ComponentMessenger.inl">
<polygon fill="#ffffff" stroke="#ff0000" points="260.5,-235.5 260.5,-265.5 455.5,-265.5 455.5,-235.5 260.5,-235.5"/>
<text text-anchor="start" x="268.5" y="-253.5" font-family="Helvetica,sans-Serif" font-size="10.00" fill="#000000">Engine/Managers/Component</text>
<text text-anchor="middle" x="358" y="-242.5" font-family="Helvetica,sans-Serif" font-size="10.00" fill="#000000">Messenger/ComponentMessenger.inl</text>
</a>
</g>
</g>
<!-- Node83&#45;&gt;Node87 -->
<g id="edge131" class="edge">
<title>Node83&#45;&gt;Node87</title>
<path fill="none" stroke="#191970" d="M361.5162,-302.2967C359.155,-294.4156 357.1285,-284.5857 355.9396,-275.6135"/>
<polygon fill="#191970" stroke="#191970" points="359.421,-275.2524 354.9587,-265.6432 352.4547,-275.9378 359.421,-275.2524"/>
</g>
<!-- Node86&#45;&gt;Node14 -->
<g id="edge129" class="edge">
<title>Node86&#45;&gt;Node14</title>
<path fill="none" stroke="#191970" d="M1345.8705,-173.9649C1356.6472,-171.7866 1368.2157,-169.6346 1379,-168 1537.9821,-143.9025 1579.0162,-148.1616 1739,-132 1751.5537,-130.7318 1765.011,-129.3641 1777.8085,-128.0594"/>
<polygon fill="#191970" stroke="#191970" points="1778.3074,-131.5268 1787.9004,-127.0298 1777.5968,-124.5629 1778.3074,-131.5268"/>
</g>
<!-- Node87&#45;&gt;Node83 -->
<g id="edge132" class="edge">
<title>Node87&#45;&gt;Node83</title>
<path fill="none" stroke="#191970" d="M366.4658,-265.6432C368.8287,-273.5143 370.8581,-283.3414 372.0513,-292.3179"/>
<polygon fill="#191970" stroke="#191970" points="368.5709,-292.6895 373.0378,-302.2967 375.537,-292.0008 368.5709,-292.6895"/>
</g>
<!-- Node89&#45;&gt;Node3 -->
<g id="edge134" class="edge">
<title>Node89&#45;&gt;Node3</title>
<path fill="none" stroke="#191970" d="M2193.2654,-240.992C2175.693,-238.7053 2156.6459,-236.4944 2139,-235 1734.7979,-200.7683 1630.9463,-236.1282 1227,-199 1214.3898,-197.841 1200.9949,-196.2163 1188.1046,-194.452"/>
<polygon fill="#191970" stroke="#191970" points="1188.2903,-190.9437 1177.8996,-193.0133 1187.3131,-197.8751 1188.2903,-190.9437"/>
</g>
<!-- Node89&#45;&gt;Node10 -->
<g id="edge138" class="edge">
<title>Node89&#45;&gt;Node10</title>
<path fill="none" stroke="#191970" d="M2262.7281,-240.9005C2267.6781,-230.8505 2275.5776,-214.8122 2281.7697,-202.2403"/>
<polygon fill="#191970" stroke="#191970" points="2285.0019,-203.5991 2286.2807,-193.0817 2278.7223,-200.5061 2285.0019,-203.5991"/>
</g>
<!-- Node89&#45;&gt;Node11 -->
<g id="edge140" class="edge">
<title>Node89&#45;&gt;Node11</title>
<path fill="none" stroke="#191970" d="M2253.4588,-240.8453C2246.1463,-223.7064 2234.3665,-187.902 2253,-168 2275.9561,-143.4813 2780.634,-126.9833 2917.1916,-122.9569"/>
<polygon fill="#191970" stroke="#191970" points="2917.5656,-126.4476 2927.4592,-122.6574 2917.3613,-119.4506 2917.5656,-126.4476"/>
</g>
<!-- Node89&#45;&gt;Node13 -->
<g id="edge139" class="edge">
<title>Node89&#45;&gt;Node13</title>
<path fill="none" stroke="#191970" d="M2270.4445,-240.738C2294.6795,-222.3894 2350.6114,-183.235 2405,-168 2532.4854,-132.2896 3503.5792,-123.5814 3693.7515,-122.2118"/>
<polygon fill="#191970" stroke="#191970" points="3693.9569,-125.7105 3703.932,-122.1401 3693.9076,-118.7107 3693.9569,-125.7105"/>
</g>
<!-- Node89&#45;&gt;Node22 -->
<g id="edge135" class="edge">
<title>Node89&#45;&gt;Node22</title>
<path fill="none" stroke="#191970" d="M2208.5312,-240.9415C2196.5974,-238.8137 2183.8654,-236.6905 2172,-235 2015.2387,-212.6662 1828.9742,-195.7033 1737.8428,-188.0218"/>
<polygon fill="#191970" stroke="#191970" points="1737.9947,-184.5224 1727.7374,-187.1753 1737.4102,-191.498 1737.9947,-184.5224"/>
</g>
<!-- Node89&#45;&gt;Node27 -->
<g id="edge137" class="edge">
<title>Node89&#45;&gt;Node27</title>
<path fill="none" stroke="#191970" d="M2286.5814,-240.9924C2315.4677,-231.1836 2361.2486,-215.0885 2400,-199 2401.5674,-198.3492 2403.1685,-197.6648 2404.779,-196.9608"/>
<polygon fill="#191970" stroke="#191970" points="2406.271,-200.1274 2413.9372,-192.8143 2403.3838,-193.7505 2406.271,-200.1274"/>
</g>
<!-- Node89&#45;&gt;Node86 -->
<g id="edge136" class="edge">
<title>Node89&#45;&gt;Node86</title>
<path fill="none" stroke="#191970" d="M2192.3256,-240.964C2175.0132,-238.7195 2156.3286,-236.5363 2139,-235 1802.1647,-205.1365 1714.5492,-240.9115 1379,-199 1370.8303,-197.9796 1362.2278,-196.5624 1353.8654,-194.9963"/>
<polygon fill="#191970" stroke="#191970" points="1354.3159,-191.5181 1343.8293,-193.0287 1352.9691,-198.3873 1354.3159,-191.5181"/>
</g>
</g>
</svg>
