<?xml version="1.0" encoding="UTF-8" standalone="no"?>
<!DOCTYPE svg PUBLIC "-//W3C//DTD SVG 1.1//EN"
 "http://www.w3.org/Graphics/SVG/1.1/DTD/svg11.dtd">
<!-- Generated by graphviz version 2.40.1 (20161225.0304)
 -->
<!-- Title: src/Core/Asset/GeometryData.inl Pages: 1 -->
<!--zoomable 285 -->
<svg id="main" version="1.1" xmlns="http://www.w3.org/2000/svg" xmlns:xlink="http://www.w3.org/1999/xlink" xml:space="preserve" onload="init(evt)">
<style type="text/css"><![CDATA[
.edge:hover path { stroke: red; }
.edge:hover polygon { stroke: red; fill: red; }
]]></style>
<script type="text/javascript"><![CDATA[
var edges = document.getElementsByTagName('g');
if (edges && edges.length) {
  for (var i=0;i<edges.length;i++) {
    if (edges[i].id.substr(0,4)=='edge') {
      edges[i].setAttribute('class','edge');
    }
  }
}
]]></script>
        <defs>
                <circle id="rim" cx="0" cy="0" r="7"/>
                <circle id="rim2" cx="0" cy="0" r="3.5"/>
                <g id="zoomPlus">
                        <use xlink:href="#rim" fill="#404040">
                                <set attributeName="fill" to="#808080" begin="zoomplus.mouseover" end="zoomplus.mouseout"/>
                        </use>
                        <path d="M-4,0h8M0,-4v8" fill="none" stroke="white" stroke-width="1.5" pointer-events="none"/>
                </g>
                <g id="zoomMin">
                        <use xlink:href="#rim" fill="#404040">
                                <set attributeName="fill" to="#808080" begin="zoomminus.mouseover" end="zoomminus.mouseout"/>
                        </use>
                        <path d="M-4,0h8" fill="none" stroke="white" stroke-width="1.5" pointer-events="none"/>
                </g>
                <g id="dirArrow">
                        <path fill="none" stroke="white" stroke-width="1.5" d="M0,-3.0v7 M-2.5,-0.5L0,-3.0L2.5,-0.5"/>
                </g>
               <g id="resetDef">
                       <use xlink:href="#rim2" fill="#404040">
                               <set attributeName="fill" to="#808080" begin="reset.mouseover" end="reset.mouseout"/>
                       </use>
               </g>
        </defs>

<script type="text/javascript">
var viewWidth = 1753;
var viewHeight = 285;
var sectionId = 'dynsection-1';
</script>
<script xlink:href="svgpan.js"/>
<svg id="graph" class="graph">
<g id="viewport">
<title>src/Core/Asset/GeometryData.inl</title>
<polygon fill="#ffffff" stroke="transparent" points="-4,4 -4,-281 1749,-281 1749,4 -4,4"/>
<!-- Node23 -->
<g id="node1" class="node">
<title>Node23</title>
<polygon fill="#bfbfbf" stroke="#000000" points="1166,-257.5 1166,-276.5 1342,-276.5 1342,-257.5 1166,-257.5"/>
<text text-anchor="middle" x="1254" y="-264.5" font-family="Helvetica,sans-Serif" font-size="10.00" fill="#000000">src/Core/Asset/GeometryData.inl</text>
</g>
<!-- Node24 -->
<g id="node2" class="node">
<title>Node24</title>
<g id="a_node2"><a xlink:href="GeometryData_8hpp.html" target="_top" xlink:title="src/Core/Asset/GeometryData.hpp">
<polygon fill="#ffffff" stroke="#000000" points="1163,-201.5 1163,-220.5 1345,-220.5 1345,-201.5 1163,-201.5"/>
<text text-anchor="middle" x="1254" y="-208.5" font-family="Helvetica,sans-Serif" font-size="10.00" fill="#000000">src/Core/Asset/GeometryData.hpp</text>
</a>
</g>
</g>
<!-- Node23&#45;&gt;Node24 -->
<g id="edge1" class="edge">
<title>Node23&#45;&gt;Node24</title>
<path fill="none" stroke="#191970" d="M1247.5113,-247.1575C1246.919,-238.155 1247.3335,-227.9199 1248.7549,-220.6427"/>
<polygon fill="#191970" stroke="#191970" points="1244.0561,-247.739 1248.7332,-257.2455 1251.0053,-246.8972 1244.0561,-247.739"/>
</g>
<!-- Node24&#45;&gt;Node23 -->
<g id="edge14" class="edge">
<title>Node24&#45;&gt;Node23</title>
<path fill="none" stroke="#191970" d="M1260.4795,-230.7046C1261.0821,-239.6944 1260.6779,-249.9382 1259.2668,-257.2455"/>
<polygon fill="#191970" stroke="#191970" points="1263.9368,-230.1421 1259.2451,-220.6427 1256.9889,-230.9945 1263.9368,-230.1421"/>
</g>
<!-- Node25 -->
<g id="node3" class="node">
<title>Node25</title>
<g id="a_node3"><a xlink:href="FileData_8inl.html" target="_top" xlink:title="src/Core/Asset/FileData.inl">
<polygon fill="#ffffff" stroke="#000000" points="918,-140 918,-159 1062,-159 1062,-140 918,-140"/>
<text text-anchor="middle" x="990" y="-147" font-family="Helvetica,sans-Serif" font-size="10.00" fill="#000000">src/Core/Asset/FileData.inl</text>
</a>
</g>
</g>
<!-- Node24&#45;&gt;Node25 -->
<g id="edge2" class="edge">
<title>Node24&#45;&gt;Node25</title>
<path fill="none" stroke="#191970" d="M1203.0645,-199.1343C1152.963,-187.463 1077.4359,-169.8686 1031.0564,-159.0643"/>
<polygon fill="#191970" stroke="#191970" points="1202.5063,-202.598 1213.0397,-201.4581 1204.0945,-195.7805 1202.5063,-202.598"/>
</g>
<!-- Node29 -->
<g id="node7" class="node">
<title>Node29</title>
<g id="a_node7"><a xlink:href="LightManager_8cpp.html" target="_top" xlink:title="src/Engine/Managers\l/LightManager/LightManager.cpp">
<polygon fill="#ffffff" stroke="#000000" points="0,-.5 0,-30.5 174,-30.5 174,-.5 0,-.5"/>
<text text-anchor="start" x="8" y="-18.5" font-family="Helvetica,sans-Serif" font-size="10.00" fill="#000000">src/Engine/Managers</text>
<text text-anchor="middle" x="87" y="-7.5" font-family="Helvetica,sans-Serif" font-size="10.00" fill="#000000">/LightManager/LightManager.cpp</text>
</a>
</g>
</g>
<!-- Node24&#45;&gt;Node29 -->
<g id="edge20" class="edge">
<title>Node24&#45;&gt;Node29</title>
<path fill="none" stroke="#191970" d="M1164.2981,-200.2217C1094.566,-191.5574 995.4758,-178.6211 909,-165 633.1806,-121.5549 307.3814,-58.9148 162.7248,-30.5126"/>
<polygon fill="#191970" stroke="#191970" points="1164.0141,-203.7132 1174.3684,-201.4686 1164.8744,-196.7663 1164.0141,-203.7132"/>
</g>
<!-- Node32 -->
<g id="node10" class="node">
<title>Node32</title>
<g id="a_node10"><a xlink:href="GeometrySystem_8cpp.html" target="_top" xlink:title="src/Engine/System/Geometry\lSystem.cpp">
<polygon fill="#ffffff" stroke="#000000" points="1443,-.5 1443,-30.5 1601,-30.5 1601,-.5 1443,-.5"/>
<text text-anchor="start" x="1451" y="-18.5" font-family="Helvetica,sans-Serif" font-size="10.00" fill="#000000">src/Engine/System/Geometry</text>
<text text-anchor="middle" x="1522" y="-7.5" font-family="Helvetica,sans-Serif" font-size="10.00" fill="#000000">System.cpp</text>
</a>
</g>
</g>
<!-- Node24&#45;&gt;Node32 -->
<g id="edge21" class="edge">
<title>Node24&#45;&gt;Node32</title>
<path fill="none" stroke="#191970" d="M1198.0021,-197.9664C1180.9361,-191.0887 1164.047,-180.6806 1154,-165 1146.5671,-153.3992 1145.887,-145.1358 1154,-134 1188.2865,-86.9391 1345.1299,-49.2379 1442.6596,-29.8258"/>
<polygon fill="#191970" stroke="#191970" points="1196.8655,-201.2774 1207.4591,-201.4351 1199.276,-194.7055 1196.8655,-201.2774"/>
</g>
<!-- Node37 -->
<g id="node15" class="node">
<title>Node37</title>
<g id="a_node15"><a xlink:href="GeometryData_8cpp.html" target="_top" xlink:title="src/Core/Asset/GeometryData.cpp">
<polygon fill="#ffffff" stroke="#000000" points="1163,-140 1163,-159 1345,-159 1345,-140 1163,-140"/>
<text text-anchor="middle" x="1254" y="-147" font-family="Helvetica,sans-Serif" font-size="10.00" fill="#000000">src/Core/Asset/GeometryData.cpp</text>
</a>
</g>
</g>
<!-- Node24&#45;&gt;Node37 -->
<g id="edge15" class="edge">
<title>Node24&#45;&gt;Node37</title>
<path fill="none" stroke="#191970" d="M1254,-191.2462C1254,-180.5519 1254,-167.814 1254,-159.2449"/>
<polygon fill="#191970" stroke="#191970" points="1250.5001,-191.3906 1254,-201.3906 1257.5001,-191.3907 1250.5001,-191.3906"/>
</g>
<!-- Node38 -->
<g id="node16" class="node">
<title>Node38</title>
<g id="a_node16"><a xlink:href="GeometryComponent_8hpp.html" target="_top" xlink:title="src/Engine/Component\l/GeometryComponent.hpp">
<polygon fill="#ffffff" stroke="#000000" points="1363,-134.5 1363,-164.5 1509,-164.5 1509,-134.5 1363,-134.5"/>
<text text-anchor="start" x="1371" y="-152.5" font-family="Helvetica,sans-Serif" font-size="10.00" fill="#000000">src/Engine/Component</text>
<text text-anchor="middle" x="1436" y="-141.5" font-family="Helvetica,sans-Serif" font-size="10.00" fill="#000000">/GeometryComponent.hpp</text>
</a>
</g>
</g>
<!-- Node24&#45;&gt;Node38 -->
<g id="edge16" class="edge">
<title>Node24&#45;&gt;Node38</title>
<path fill="none" stroke="#191970" d="M1292.1965,-198.0929C1321.1685,-188.303 1361.0588,-174.8235 1391.4778,-164.5446"/>
<polygon fill="#191970" stroke="#191970" points="1290.7908,-194.8735 1282.4375,-201.3906 1293.0317,-201.5051 1290.7908,-194.8735"/>
</g>
<!-- Node39 -->
<g id="node17" class="node">
<title>Node39</title>
<g id="a_node17"><a xlink:href="GeometryComponent_8cpp.html" target="_top" xlink:title="src/Engine/Component\l/GeometryComponent.cpp">
<polygon fill="#ffffff" stroke="#000000" points="1464.5,-67.5 1464.5,-97.5 1609.5,-97.5 1609.5,-67.5 1464.5,-67.5"/>
<text text-anchor="start" x="1472.5" y="-85.5" font-family="Helvetica,sans-Serif" font-size="10.00" fill="#000000">src/Engine/Component</text>
<text text-anchor="middle" x="1537" y="-74.5" font-family="Helvetica,sans-Serif" font-size="10.00" fill="#000000">/GeometryComponent.cpp</text>
</a>
</g>
</g>
<!-- Node24&#45;&gt;Node39 -->
<g id="edge19" class="edge">
<title>Node24&#45;&gt;Node39</title>
<path fill="none" stroke="#191970" d="M1355.2247,-204.809C1419.4244,-198.7807 1494.6391,-187.1357 1518,-165 1536.3506,-147.6118 1538.6195,-116.3472 1538.1327,-97.7019"/>
<polygon fill="#191970" stroke="#191970" points="1354.6704,-201.3447 1345.0253,-205.729 1355.2993,-208.3164 1354.6704,-201.3447"/>
</g>
<!-- Node40 -->
<g id="node18" class="node">
<title>Node40</title>
<g id="a_node18"><a xlink:href="AssimpGeometryDataLoader_8cpp.html" target="_top" xlink:title="src/IO/AssimpLoader\l/AssimpGeometryDataLoader.cpp">
<polygon fill="#ffffff" stroke="#000000" points="1565,-134.5 1565,-164.5 1745,-164.5 1745,-134.5 1565,-134.5"/>
<text text-anchor="start" x="1573" y="-152.5" font-family="Helvetica,sans-Serif" font-size="10.00" fill="#000000">src/IO/AssimpLoader</text>
<text text-anchor="middle" x="1655" y="-141.5" font-family="Helvetica,sans-Serif" font-size="10.00" fill="#000000">/AssimpGeometryDataLoader.cpp</text>
</a>
</g>
</g>
<!-- Node24&#45;&gt;Node40 -->
<g id="edge22" class="edge">
<title>Node24&#45;&gt;Node40</title>
<path fill="none" stroke="#191970" d="M1326.2395,-199.9209C1393.0581,-189.6731 1492.6322,-174.4018 1564.6783,-163.3523"/>
<polygon fill="#191970" stroke="#191970" points="1325.5701,-196.4825 1316.2163,-201.4581 1326.6313,-203.4016 1325.5701,-196.4825"/>
</g>
<!-- Node26 -->
<g id="node4" class="node">
<title>Node26</title>
<g id="a_node4"><a xlink:href="FileData_8hpp.html" target="_top" xlink:title="src/Core/Asset/FileData.hpp">
<polygon fill="#ffffff" stroke="#000000" points="871,-73 871,-92 1021,-92 1021,-73 871,-73"/>
<text text-anchor="middle" x="946" y="-80" font-family="Helvetica,sans-Serif" font-size="10.00" fill="#000000">src/Core/Asset/FileData.hpp</text>
</a>
</g>
</g>
<!-- Node25&#45;&gt;Node26 -->
<g id="edge3" class="edge">
<title>Node25&#45;&gt;Node26</title>
<path fill="none" stroke="#191970" d="M978.1662,-131.4803C969.8381,-118.7989 959.0184,-102.3235 952.2924,-92.0817"/>
<polygon fill="#191970" stroke="#191970" points="975.281,-133.4631 983.6959,-139.9005 981.1321,-129.6206 975.281,-133.4631"/>
</g>
<!-- Node27 -->
<g id="node5" class="node">
<title>Node27</title>
<g id="a_node5"><a xlink:href="FileData_8cpp.html" target="_top" xlink:title="src/Core/Asset/FileData.cpp">
<polygon fill="#ffffff" stroke="#000000" points="192.5,-6 192.5,-25 341.5,-25 341.5,-6 192.5,-6"/>
<text text-anchor="middle" x="267" y="-13" font-family="Helvetica,sans-Serif" font-size="10.00" fill="#000000">src/Core/Asset/FileData.cpp</text>
</a>
</g>
</g>
<!-- Node26&#45;&gt;Node27 -->
<g id="edge4" class="edge">
<title>Node26&#45;&gt;Node27</title>
<path fill="none" stroke="#191970" d="M860.7103,-77.7774C744.7551,-70.7537 531.0547,-55.6672 350,-31 338.235,-29.3971 325.6057,-27.2568 313.8368,-25.0796"/>
<polygon fill="#191970" stroke="#191970" points="860.7469,-81.2858 870.9386,-78.3914 861.1663,-74.2984 860.7469,-81.2858"/>
</g>
<!-- Node28 -->
<g id="node6" class="node">
<title>Node28</title>
<g id="a_node6"><a xlink:href="CameraManager_8cpp.html" target="_top" xlink:title="src/Engine/Managers\l/CameraManager/CameraManager.cpp">
<polygon fill="#ffffff" stroke="#000000" points="359.5,-.5 359.5,-30.5 562.5,-30.5 562.5,-.5 359.5,-.5"/>
<text text-anchor="start" x="367.5" y="-18.5" font-family="Helvetica,sans-Serif" font-size="10.00" fill="#000000">src/Engine/Managers</text>
<text text-anchor="middle" x="461" y="-7.5" font-family="Helvetica,sans-Serif" font-size="10.00" fill="#000000">/CameraManager/CameraManager.cpp</text>
</a>
</g>
</g>
<!-- Node26&#45;&gt;Node28 -->
<g id="edge5" class="edge">
<title>Node26&#45;&gt;Node28</title>
<path fill="none" stroke="#191970" d="M866.2145,-71.6253C790.2905,-61.2574 672.8468,-45.169 571,-31 568.2302,-30.6147 565.4213,-30.2233 562.5866,-29.8277"/>
<polygon fill="#191970" stroke="#191970" points="865.8031,-75.1016 876.1847,-72.9865 866.7501,-68.1659 865.8031,-75.1016"/>
</g>
<!-- Node26&#45;&gt;Node29 -->
<g id="edge6" class="edge">
<title>Node26&#45;&gt;Node29</title>
<path fill="none" stroke="#191970" d="M860.4652,-79.3148C719.1031,-73.4707 427.9906,-58.985 183,-31 180.0646,-30.6647 177.082,-30.3028 174.0723,-29.9195"/>
<polygon fill="#191970" stroke="#191970" points="860.6588,-82.8255 870.7935,-79.7374 860.945,-75.8314 860.6588,-82.8255"/>
</g>
<!-- Node30 -->
<g id="node8" class="node">
<title>Node30</title>
<g id="a_node8"><a xlink:href="RadiumEngine_8cpp.html" target="_top" xlink:title="src/Engine/RadiumEngine.cpp">
<polygon fill="#ffffff" stroke="#000000" points="580.5,-6 580.5,-25 741.5,-25 741.5,-6 580.5,-6"/>
<text text-anchor="middle" x="661" y="-13" font-family="Helvetica,sans-Serif" font-size="10.00" fill="#000000">src/Engine/RadiumEngine.cpp</text>
</a>
</g>
</g>
<!-- Node26&#45;&gt;Node30 -->
<g id="edge7" class="edge">
<title>Node26&#45;&gt;Node30</title>
<path fill="none" stroke="#191970" d="M895.5528,-70.6405C840.3513,-57.6633 752.9308,-37.1118 701.8525,-25.1039"/>
<polygon fill="#191970" stroke="#191970" points="894.9335,-74.0902 905.4691,-72.9717 896.5355,-67.276 894.9335,-74.0902"/>
</g>
<!-- Node31 -->
<g id="node9" class="node">
<title>Node31</title>
<g id="a_node9"><a xlink:href="Renderer_8cpp.html" target="_top" xlink:title="src/Engine/Renderer\l/Renderer.cpp">
<polygon fill="#ffffff" stroke="#000000" points="759.5,-.5 759.5,-30.5 872.5,-30.5 872.5,-.5 759.5,-.5"/>
<text text-anchor="start" x="767.5" y="-18.5" font-family="Helvetica,sans-Serif" font-size="10.00" fill="#000000">src/Engine/Renderer</text>
<text text-anchor="middle" x="816" y="-7.5" font-family="Helvetica,sans-Serif" font-size="10.00" fill="#000000">/Renderer.cpp</text>
</a>
</g>
</g>
<!-- Node26&#45;&gt;Node31 -->
<g id="edge8" class="edge">
<title>Node26&#45;&gt;Node31</title>
<path fill="none" stroke="#191970" d="M918.4156,-68.2834C896.8895,-57.1892 867.0616,-41.8164 845.1467,-30.5218"/>
<polygon fill="#191970" stroke="#191970" points="916.8818,-71.4304 927.3742,-72.9005 920.0887,-65.2082 916.8818,-71.4304"/>
</g>
<!-- Node26&#45;&gt;Node32 -->
<g id="edge9" class="edge">
<title>Node26&#45;&gt;Node32</title>
<path fill="none" stroke="#191970" d="M1031.3634,-75.22C1128.7633,-66.5083 1292.7173,-50.6105 1433,-31 1436.2619,-30.544 1439.5876,-30.0585 1442.9445,-29.5515"/>
<polygon fill="#191970" stroke="#191970" points="1030.927,-71.7449 1021.2767,-76.1177 1031.5476,-78.7173 1030.927,-71.7449"/>
</g>
<!-- Node33 -->
<g id="node11" class="node">
<title>Node33</title>
<g id="a_node11"><a xlink:href="Viewer_8cpp.html" target="_top" xlink:title="src/GuiBase/Viewer\l/Viewer.cpp">
<polygon fill="#ffffff" stroke="#000000" points="890.5,-.5 890.5,-30.5 1001.5,-30.5 1001.5,-.5 890.5,-.5"/>
<text text-anchor="start" x="898.5" y="-18.5" font-family="Helvetica,sans-Serif" font-size="10.00" fill="#000000">src/GuiBase/Viewer</text>
<text text-anchor="middle" x="946" y="-7.5" font-family="Helvetica,sans-Serif" font-size="10.00" fill="#000000">/Viewer.cpp</text>
</a>
</g>
</g>
<!-- Node26&#45;&gt;Node33 -->
<g id="edge10" class="edge">
<title>Node26&#45;&gt;Node33</title>
<path fill="none" stroke="#191970" d="M946,-62.7758C946,-52.4641 946,-40.0437 946,-30.5218"/>
<polygon fill="#191970" stroke="#191970" points="942.5001,-62.9005 946,-72.9005 949.5001,-62.9006 942.5001,-62.9005"/>
</g>
<!-- Node34 -->
<g id="node12" class="node">
<title>Node34</title>
<g id="a_node12"><a xlink:href="AssimpFileLoader_8cpp.html" target="_top" xlink:title="src/IO/AssimpLoader\l/AssimpFileLoader.cpp">
<polygon fill="#ffffff" stroke="#000000" points="1019.5,-.5 1019.5,-30.5 1144.5,-30.5 1144.5,-.5 1019.5,-.5"/>
<text text-anchor="start" x="1027.5" y="-18.5" font-family="Helvetica,sans-Serif" font-size="10.00" fill="#000000">src/IO/AssimpLoader</text>
<text text-anchor="middle" x="1082" y="-7.5" font-family="Helvetica,sans-Serif" font-size="10.00" fill="#000000">/AssimpFileLoader.cpp</text>
</a>
</g>
</g>
<!-- Node26&#45;&gt;Node34 -->
<g id="edge11" class="edge">
<title>Node26&#45;&gt;Node34</title>
<path fill="none" stroke="#191970" d="M974.5551,-68.4324C997.0971,-57.3271 1028.4789,-41.867 1051.5081,-30.5218"/>
<polygon fill="#191970" stroke="#191970" points="972.9092,-65.3415 965.4855,-72.9005 976.0028,-71.6209 972.9092,-65.3415"/>
</g>
<!-- Node35 -->
<g id="node13" class="node">
<title>Node35</title>
<g id="a_node13"><a xlink:href="CameraLoader_8cpp.html" target="_top" xlink:title="src/IO/CameraLoader\l/CameraLoader.cpp">
<polygon fill="#ffffff" stroke="#000000" points="1162.5,-.5 1162.5,-30.5 1281.5,-30.5 1281.5,-.5 1162.5,-.5"/>
<text text-anchor="start" x="1170.5" y="-18.5" font-family="Helvetica,sans-Serif" font-size="10.00" fill="#000000">src/IO/CameraLoader</text>
<text text-anchor="middle" x="1222" y="-7.5" font-family="Helvetica,sans-Serif" font-size="10.00" fill="#000000">/CameraLoader.cpp</text>
</a>
</g>
</g>
<!-- Node26&#45;&gt;Node35 -->
<g id="edge12" class="edge">
<title>Node26&#45;&gt;Node35</title>
<path fill="none" stroke="#191970" d="M995.1451,-70.5698C1041.9102,-59.2175 1112.3605,-42.1154 1162.3275,-29.9857"/>
<polygon fill="#191970" stroke="#191970" points="994.143,-67.2114 985.251,-72.9717 995.7944,-74.0138 994.143,-67.2114"/>
</g>
<!-- Node36 -->
<g id="node14" class="node">
<title>Node36</title>
<g id="a_node14"><a xlink:href="TinyPlyFileLoader_8cpp.html" target="_top" xlink:title="src/IO/TinyPlyLoader\l/TinyPlyFileLoader.cpp">
<polygon fill="#ffffff" stroke="#000000" points="1299.5,-.5 1299.5,-30.5 1424.5,-30.5 1424.5,-.5 1299.5,-.5"/>
<text text-anchor="start" x="1307.5" y="-18.5" font-family="Helvetica,sans-Serif" font-size="10.00" fill="#000000">src/IO/TinyPlyLoader</text>
<text text-anchor="middle" x="1362" y="-7.5" font-family="Helvetica,sans-Serif" font-size="10.00" fill="#000000">/TinyPlyFileLoader.cpp</text>
</a>
</g>
</g>
<!-- Node26&#45;&gt;Node36 -->
<g id="edge13" class="edge">
<title>Node26&#45;&gt;Node36</title>
<path fill="none" stroke="#191970" d="M1028.7608,-71.6104C1098.5927,-62.0632 1201.1005,-47.2067 1290,-31 1293.019,-30.4496 1296.1047,-29.8662 1299.2181,-29.2608"/>
<polygon fill="#191970" stroke="#191970" points="1028.1368,-68.163 1018.7003,-72.9801 1029.0811,-75.099 1028.1368,-68.163"/>
</g>
<!-- Node38&#45;&gt;Node32 -->
<g id="edge18" class="edge">
<title>Node38&#45;&gt;Node32</title>
<path fill="none" stroke="#191970" d="M1437.4107,-123.8817C1439.3869,-106.6451 1444.054,-84.0432 1455,-67 1464.6725,-51.9397 1480.3424,-39.5375 1494.0966,-30.6803"/>
<polygon fill="#191970" stroke="#191970" points="1433.8814,-124.0458 1436.4616,-134.3216 1440.8527,-124.6796 1433.8814,-124.0458"/>
</g>
<!-- Node38&#45;&gt;Node39 -->
<g id="edge17" class="edge">
<title>Node38&#45;&gt;Node39</title>
<path fill="none" stroke="#191970" d="M1467.2119,-128.7951C1482.3457,-118.7558 1500.1992,-106.9124 1514.0598,-97.7177"/>
<polygon fill="#191970" stroke="#191970" points="1465.0648,-126.0193 1458.6664,-134.4639 1468.9344,-131.8525 1465.0648,-126.0193"/>
</g>
</g>
</svg>
        <g id="navigator" transform="translate(0 0)" fill="#404254">
                <rect fill="#f2f5e9" fill-opacity="0.5" stroke="#606060" stroke-width=".5" x="0" y="0" width="60" height="60"/>
                <use id="zoomplus" xlink:href="#zoomPlus" x="17" y="9" onmousedown="handleZoom(evt,'in')"/>
                <use id="zoomminus" xlink:href="#zoomMin" x="42" y="9" onmousedown="handleZoom(evt,'out')"/>
                <use id="reset" xlink:href="#resetDef" x="30" y="36" onmousedown="handleReset()"/>
                <g id="arrowUp" xlink:href="#dirArrow" transform="translate(30 24)" onmousedown="handlePan(0,-1)">
                  <use xlink:href="#rim" fill="#404040">
                        <set attributeName="fill" to="#808080" begin="arrowUp.mouseover" end="arrowUp.mouseout"/>
                  </use>
                  <path fill="none" stroke="white" stroke-width="1.5" d="M0,-3.0v7 M-2.5,-0.5L0,-3.0L2.5,-0.5"/>
                </g>
                <g id="arrowRight" xlink:href="#dirArrow" transform="rotate(90) translate(36 -43)" onmousedown="handlePan(1,0)">
                  <use xlink:href="#rim" fill="#404040">
                        <set attributeName="fill" to="#808080" begin="arrowRight.mouseover" end="arrowRight.mouseout"/>
                  </use>
                  <path fill="none" stroke="white" stroke-width="1.5" d="M0,-3.0v7 M-2.5,-0.5L0,-3.0L2.5,-0.5"/>
                </g>
                <g id="arrowDown" xlink:href="#dirArrow" transform="rotate(180) translate(-30 -48)" onmousedown="handlePan(0,1)">
                  <use xlink:href="#rim" fill="#404040">
                        <set attributeName="fill" to="#808080" begin="arrowDown.mouseover" end="arrowDown.mouseout"/>
                  </use>
                  <path fill="none" stroke="white" stroke-width="1.5" d="M0,-3.0v7 M-2.5,-0.5L0,-3.0L2.5,-0.5"/>
                </g>
                <g id="arrowLeft" xlink:href="#dirArrow" transform="rotate(270) translate(-36 17)" onmousedown="handlePan(-1,0)">
                  <use xlink:href="#rim" fill="#404040">
                        <set attributeName="fill" to="#808080" begin="arrowLeft.mouseover" end="arrowLeft.mouseout"/>
                  </use>
                  <path fill="none" stroke="white" stroke-width="1.5" d="M0,-3.0v7 M-2.5,-0.5L0,-3.0L2.5,-0.5"/>
                </g>
        </g>
        <svg viewBox="0 0 15 15" width="100%" height="30px" preserveAspectRatio="xMaxYMin meet">
         <g id="arrow_out" transform="scale(0.3 0.3)">
          <a xlink:href="GeometryData_8inl__dep__incl_org.svg" target="_base">
           <rect id="button" ry="5" rx="5" y="6" x="6" height="38" width="38"
                fill="#f2f5e9" fill-opacity="0.5" stroke="#606060" stroke-width="1.0"/>
           <path id="arrow"
             d="M 11.500037,31.436501 C 11.940474,20.09759 22.043105,11.32322 32.158766,21.979434 L 37.068811,17.246167 C 37.068811,17.246167 37.088388,32 37.088388,32 L 22.160133,31.978069 C 22.160133,31.978069 26.997745,27.140456 26.997745,27.140456 C 18.528582,18.264221 13.291696,25.230495 11.500037,31.436501 z"
             style="fill:#404040;"/>
          </a>
         </g>
        </svg>
</svg>
