<?xml version="1.0" encoding="UTF-8" standalone="no"?>
<!DOCTYPE svg PUBLIC "-//W3C//DTD SVG 1.1//EN"
 "http://www.w3.org/Graphics/SVG/1.1/DTD/svg11.dtd">
<!-- Generated by graphviz version 2.40.1 (20161225.0304)
 -->
<!-- Title: src/Core/Asset/GeometryData.hpp Pages: 1 -->
<!--zoomable 229 -->
<svg id="main" version="1.1" xmlns="http://www.w3.org/2000/svg" xmlns:xlink="http://www.w3.org/1999/xlink" xml:space="preserve" onload="init(evt)">
<style type="text/css"><![CDATA[
.edge:hover path { stroke: red; }
.edge:hover polygon { stroke: red; fill: red; }
]]></style>
<script type="text/javascript"><![CDATA[
var edges = document.getElementsByTagName('g');
if (edges && edges.length) {
  for (var i=0;i<edges.length;i++) {
    if (edges[i].id.substr(0,4)=='edge') {
      edges[i].setAttribute('class','edge');
    }
  }
}
]]></script>
        <defs>
                <circle id="rim" cx="0" cy="0" r="7"/>
                <circle id="rim2" cx="0" cy="0" r="3.5"/>
                <g id="zoomPlus">
                        <use xlink:href="#rim" fill="#404040">
                                <set attributeName="fill" to="#808080" begin="zoomplus.mouseover" end="zoomplus.mouseout"/>
                        </use>
                        <path d="M-4,0h8M0,-4v8" fill="none" stroke="white" stroke-width="1.5" pointer-events="none"/>
                </g>
                <g id="zoomMin">
                        <use xlink:href="#rim" fill="#404040">
                                <set attributeName="fill" to="#808080" begin="zoomminus.mouseover" end="zoomminus.mouseout"/>
                        </use>
                        <path d="M-4,0h8" fill="none" stroke="white" stroke-width="1.5" pointer-events="none"/>
                </g>
                <g id="dirArrow">
                        <path fill="none" stroke="white" stroke-width="1.5" d="M0,-3.0v7 M-2.5,-0.5L0,-3.0L2.5,-0.5"/>
                </g>
               <g id="resetDef">
                       <use xlink:href="#rim2" fill="#404040">
                               <set attributeName="fill" to="#808080" begin="reset.mouseover" end="reset.mouseout"/>
                       </use>
               </g>
        </defs>

<script type="text/javascript">
var viewWidth = 1839;
var viewHeight = 229;
var sectionId = 'dynsection-1';
</script>
<script xlink:href="svgpan.js"/>
<svg id="graph" class="graph">
<g id="viewport">
<title>src/Core/Asset/GeometryData.hpp</title>
<polygon fill="#ffffff" stroke="transparent" points="-4,4 -4,-225 1835,-225 1835,4 -4,4"/>
<!-- Node23 -->
<g id="node1" class="node">
<title>Node23</title>
<polygon fill="#bfbfbf" stroke="#000000" points="1052,-201.5 1052,-220.5 1234,-220.5 1234,-201.5 1052,-201.5"/>
<text text-anchor="middle" x="1143" y="-208.5" font-family="Helvetica,sans-Serif" font-size="10.00" fill="#000000">src/Core/Asset/GeometryData.hpp</text>
</g>
<!-- Node24 -->
<g id="node2" class="node">
<title>Node24</title>
<g id="a_node2"><a xlink:href="FileData_8inl.html" target="_top" xlink:title="src/Core/Asset/FileData.inl">
<polygon fill="#ffffff" stroke="#000000" points="853,-140 853,-159 997,-159 997,-140 853,-140"/>
<text text-anchor="middle" x="925" y="-147" font-family="Helvetica,sans-Serif" font-size="10.00" fill="#000000">src/Core/Asset/FileData.inl</text>
</a>
</g>
</g>
<!-- Node23&#45;&gt;Node24 -->
<g id="edge1" class="edge">
<title>Node23&#45;&gt;Node24</title>
<path fill="none" stroke="#191970" d="M1099.1267,-198.6229C1057.7352,-186.9459 996.5598,-169.6877 958.8233,-159.0419"/>
<polygon fill="#191970" stroke="#191970" points="1098.3628,-202.044 1108.9375,-201.3906 1100.2635,-195.3069 1098.3628,-202.044"/>
</g>
<!-- Node28 -->
<g id="node6" class="node">
<title>Node28</title>
<g id="a_node6"><a xlink:href="LightManager_8cpp.html" target="_top" xlink:title="src/Engine/Managers\l/LightManager/LightManager.cpp">
<polygon fill="#ffffff" stroke="#000000" points="0,-.5 0,-30.5 174,-30.5 174,-.5 0,-.5"/>
<text text-anchor="start" x="8" y="-18.5" font-family="Helvetica,sans-Serif" font-size="10.00" fill="#000000">src/Engine/Managers</text>
<text text-anchor="middle" x="87" y="-7.5" font-family="Helvetica,sans-Serif" font-size="10.00" fill="#000000">/LightManager/LightManager.cpp</text>
</a>
</g>
</g>
<!-- Node23&#45;&gt;Node28 -->
<g id="edge20" class="edge">
<title>Node23&#45;&gt;Node28</title>
<path fill="none" stroke="#191970" d="M1065.5448,-200.0025C1005.0943,-191.1976 919.0617,-178.1799 844,-165 590.6685,-120.5183 291.5218,-58.6654 157.7816,-30.5191"/>
<polygon fill="#191970" stroke="#191970" points="1065.3731,-203.5142 1075.7722,-201.4875 1066.379,-196.5868 1065.3731,-203.5142"/>
</g>
<!-- Node31 -->
<g id="node9" class="node">
<title>Node31</title>
<g id="a_node9"><a xlink:href="GeometrySystem_8cpp.html" target="_top" xlink:title="src/Engine/System/Geometry\lSystem.cpp">
<polygon fill="#ffffff" stroke="#000000" points="1443,-.5 1443,-30.5 1601,-30.5 1601,-.5 1443,-.5"/>
<text text-anchor="start" x="1451" y="-18.5" font-family="Helvetica,sans-Serif" font-size="10.00" fill="#000000">src/Engine/System/Geometry</text>
<text text-anchor="middle" x="1522" y="-7.5" font-family="Helvetica,sans-Serif" font-size="10.00" fill="#000000">System.cpp</text>
</a>
</g>
</g>
<!-- Node23&#45;&gt;Node31 -->
<g id="edge21" class="edge">
<title>Node23&#45;&gt;Node31</title>
<path fill="none" stroke="#191970" d="M1089.0327,-197.7493C1072.3422,-190.8425 1055.7861,-180.4715 1046,-165 1038.6349,-153.356 1037.5156,-144.8555 1046,-134 1070.5496,-102.5895 1313.8517,-53.7302 1442.7609,-29.7527"/>
<polygon fill="#191970" stroke="#191970" points="1088.2331,-201.1877 1098.8252,-201.428 1090.6948,-194.6348 1088.2331,-201.1877"/>
</g>
<!-- Node36 -->
<g id="node14" class="node">
<title>Node36</title>
<g id="a_node14"><a xlink:href="GeometryData_8inl.html" target="_top" xlink:title="src/Core/Asset/GeometryData.inl">
<polygon fill="#ffffff" stroke="#000000" points="1055,-140 1055,-159 1231,-159 1231,-140 1055,-140"/>
<text text-anchor="middle" x="1143" y="-147" font-family="Helvetica,sans-Serif" font-size="10.00" fill="#000000">src/Core/Asset/GeometryData.inl</text>
</a>
</g>
</g>
<!-- Node23&#45;&gt;Node36 -->
<g id="edge13" class="edge">
<title>Node23&#45;&gt;Node36</title>
<path fill="none" stroke="#191970" d="M1136.6492,-191.2462C1135.8402,-180.5519 1136.2608,-167.814 1137.9112,-159.2449"/>
<polygon fill="#191970" stroke="#191970" points="1133.2055,-191.9113 1137.9375,-201.3906 1140.1497,-191.0293 1133.2055,-191.9113"/>
</g>
<!-- Node37 -->
<g id="node15" class="node">
<title>Node37</title>
<g id="a_node15"><a xlink:href="GeometryData_8cpp.html" target="_top" xlink:title="src/Core/Asset/GeometryData.cpp">
<polygon fill="#ffffff" stroke="#000000" points="1249,-140 1249,-159 1431,-159 1431,-140 1249,-140"/>
<text text-anchor="middle" x="1340" y="-147" font-family="Helvetica,sans-Serif" font-size="10.00" fill="#000000">src/Core/Asset/GeometryData.cpp</text>
</a>
</g>
</g>
<!-- Node23&#45;&gt;Node37 -->
<g id="edge15" class="edge">
<title>Node23&#45;&gt;Node37</title>
<path fill="none" stroke="#191970" d="M1183.3608,-198.4001C1220.7516,-186.7273 1275.5498,-169.6202 1309.4349,-159.0419"/>
<polygon fill="#191970" stroke="#191970" points="1182.2839,-195.0696 1173.7813,-201.3906 1184.3699,-201.7515 1182.2839,-195.0696"/>
</g>
<!-- Node38 -->
<g id="node16" class="node">
<title>Node38</title>
<g id="a_node16"><a xlink:href="GeometryComponent_8hpp.html" target="_top" xlink:title="src/Engine/Component\l/GeometryComponent.hpp">
<polygon fill="#ffffff" stroke="#000000" points="1449,-134.5 1449,-164.5 1595,-164.5 1595,-134.5 1449,-134.5"/>
<text text-anchor="start" x="1457" y="-152.5" font-family="Helvetica,sans-Serif" font-size="10.00" fill="#000000">src/Engine/Component</text>
<text text-anchor="middle" x="1522" y="-141.5" font-family="Helvetica,sans-Serif" font-size="10.00" fill="#000000">/GeometryComponent.hpp</text>
</a>
</g>
</g>
<!-- Node23&#45;&gt;Node38 -->
<g id="edge16" class="edge">
<title>Node23&#45;&gt;Node38</title>
<path fill="none" stroke="#191970" d="M1218.7345,-199.9775C1278.8192,-191.0622 1364.8963,-177.9107 1440,-165 1442.8558,-164.5091 1445.7658,-164.0003 1448.7042,-163.4793"/>
<polygon fill="#191970" stroke="#191970" points="1217.9544,-196.5548 1208.5748,-201.4814 1218.9795,-203.4793 1217.9544,-196.5548"/>
</g>
<!-- Node39 -->
<g id="node17" class="node">
<title>Node39</title>
<g id="a_node17"><a xlink:href="GeometryComponent_8cpp.html" target="_top" xlink:title="src/Engine/Component\l/GeometryComponent.cpp">
<polygon fill="#ffffff" stroke="#000000" points="1550.5,-67.5 1550.5,-97.5 1695.5,-97.5 1695.5,-67.5 1550.5,-67.5"/>
<text text-anchor="start" x="1558.5" y="-85.5" font-family="Helvetica,sans-Serif" font-size="10.00" fill="#000000">src/Engine/Component</text>
<text text-anchor="middle" x="1623" y="-74.5" font-family="Helvetica,sans-Serif" font-size="10.00" fill="#000000">/GeometryComponent.cpp</text>
</a>
</g>
</g>
<!-- Node23&#45;&gt;Node39 -->
<g id="edge19" class="edge">
<title>Node23&#45;&gt;Node39</title>
<path fill="none" stroke="#191970" d="M1244.2956,-207.084C1371.8372,-201.2132 1577.5883,-188.256 1604,-165 1623.0837,-148.1965 1625.0515,-116.4278 1624.3215,-97.5942"/>
<polygon fill="#191970" stroke="#191970" points="1243.9422,-203.5963 1234.1109,-207.5454 1244.2591,-210.5891 1243.9422,-203.5963"/>
</g>
<!-- Node40 -->
<g id="node18" class="node">
<title>Node40</title>
<g id="a_node18"><a xlink:href="AssimpGeometryDataLoader_8cpp.html" target="_top" xlink:title="src/IO/AssimpLoader\l/AssimpGeometryDataLoader.cpp">
<polygon fill="#ffffff" stroke="#000000" points="1651,-134.5 1651,-164.5 1831,-164.5 1831,-134.5 1651,-134.5"/>
<text text-anchor="start" x="1659" y="-152.5" font-family="Helvetica,sans-Serif" font-size="10.00" fill="#000000">src/IO/AssimpLoader</text>
<text text-anchor="middle" x="1741" y="-141.5" font-family="Helvetica,sans-Serif" font-size="10.00" fill="#000000">/AssimpGeometryDataLoader.cpp</text>
</a>
</g>
</g>
<!-- Node23&#45;&gt;Node40 -->
<g id="edge22" class="edge">
<title>Node23&#45;&gt;Node40</title>
<path fill="none" stroke="#191970" d="M1244.3043,-203.2091C1344.2841,-195.1333 1501.4177,-181.4034 1637,-165 1641.5307,-164.4519 1646.1683,-163.8629 1650.8488,-163.2465"/>
<polygon fill="#191970" stroke="#191970" points="1243.896,-199.7306 1234.2088,-204.0211 1244.4572,-206.7081 1243.896,-199.7306"/>
</g>
<!-- Node25 -->
<g id="node3" class="node">
<title>Node25</title>
<g id="a_node3"><a xlink:href="FileData_8hpp.html" target="_top" xlink:title="src/Core/Asset/FileData.hpp">
<polygon fill="#ffffff" stroke="#000000" points="849,-73 849,-92 999,-92 999,-73 849,-73"/>
<text text-anchor="middle" x="924" y="-80" font-family="Helvetica,sans-Serif" font-size="10.00" fill="#000000">src/Core/Asset/FileData.hpp</text>
</a>
</g>
</g>
<!-- Node24&#45;&gt;Node25 -->
<g id="edge2" class="edge">
<title>Node24&#45;&gt;Node25</title>
<path fill="none" stroke="#191970" d="M924.7031,-129.6079C924.5181,-117.214 924.2885,-101.8263 924.143,-92.0817"/>
<polygon fill="#191970" stroke="#191970" points="921.2078,-129.9539 924.8567,-139.9005 928.207,-129.8494 921.2078,-129.9539"/>
</g>
<!-- Node26 -->
<g id="node4" class="node">
<title>Node26</title>
<g id="a_node4"><a xlink:href="FileData_8cpp.html" target="_top" xlink:title="src/Core/Asset/FileData.cpp">
<polygon fill="#ffffff" stroke="#000000" points="192.5,-6 192.5,-25 341.5,-25 341.5,-6 192.5,-6"/>
<text text-anchor="middle" x="267" y="-13" font-family="Helvetica,sans-Serif" font-size="10.00" fill="#000000">src/Core/Asset/FileData.cpp</text>
</a>
</g>
</g>
<!-- Node25&#45;&gt;Node26 -->
<g id="edge3" class="edge">
<title>Node25&#45;&gt;Node26</title>
<path fill="none" stroke="#191970" d="M838.7309,-77.3932C726.3761,-70.0829 522.7655,-54.8271 350,-31 338.2377,-29.3778 325.6093,-27.2304 313.8405,-25.0525"/>
<polygon fill="#191970" stroke="#191970" points="838.7784,-80.9034 848.9831,-78.0546 839.2292,-73.9179 838.7784,-80.9034"/>
</g>
<!-- Node27 -->
<g id="node5" class="node">
<title>Node27</title>
<g id="a_node5"><a xlink:href="CameraManager_8cpp.html" target="_top" xlink:title="src/Engine/Managers\l/CameraManager/CameraManager.cpp">
<polygon fill="#ffffff" stroke="#000000" points="359.5,-.5 359.5,-30.5 562.5,-30.5 562.5,-.5 359.5,-.5"/>
<text text-anchor="start" x="367.5" y="-18.5" font-family="Helvetica,sans-Serif" font-size="10.00" fill="#000000">src/Engine/Managers</text>
<text text-anchor="middle" x="461" y="-7.5" font-family="Helvetica,sans-Serif" font-size="10.00" fill="#000000">/CameraManager/CameraManager.cpp</text>
</a>
</g>
</g>
<!-- Node25&#45;&gt;Node27 -->
<g id="edge4" class="edge">
<title>Node25&#45;&gt;Node27</title>
<path fill="none" stroke="#191970" d="M847.9493,-71.4948C770.1722,-60.2398 648.8789,-42.6877 562.8462,-30.238"/>
<polygon fill="#191970" stroke="#191970" points="847.7569,-75.0034 858.1551,-72.9717 848.7595,-68.0755 847.7569,-75.0034"/>
</g>
<!-- Node25&#45;&gt;Node28 -->
<g id="edge5" class="edge">
<title>Node25&#45;&gt;Node28</title>
<path fill="none" stroke="#191970" d="M838.7573,-79.0912C700.6794,-73.0048 419.6822,-58.275 183,-31 180.065,-30.6618 177.0826,-30.2974 174.0731,-29.9119"/>
<polygon fill="#191970" stroke="#191970" points="838.7088,-82.5923 848.852,-79.5319 839.0143,-75.5989 838.7088,-82.5923"/>
</g>
<!-- Node29 -->
<g id="node7" class="node">
<title>Node29</title>
<g id="a_node7"><a xlink:href="RadiumEngine_8cpp.html" target="_top" xlink:title="src/Engine/RadiumEngine.cpp">
<polygon fill="#ffffff" stroke="#000000" points="580.5,-6 580.5,-25 741.5,-25 741.5,-6 580.5,-6"/>
<text text-anchor="middle" x="661" y="-13" font-family="Helvetica,sans-Serif" font-size="10.00" fill="#000000">src/Engine/RadiumEngine.cpp</text>
</a>
</g>
</g>
<!-- Node25&#45;&gt;Node29 -->
<g id="edge6" class="edge">
<title>Node25&#45;&gt;Node29</title>
<path fill="none" stroke="#191970" d="M876.8113,-70.4785C825.8377,-57.4929 745.6388,-37.062 698.699,-25.1039"/>
<polygon fill="#191970" stroke="#191970" points="876.0433,-73.8946 886.5978,-72.9717 877.7714,-67.1113 876.0433,-73.8946"/>
</g>
<!-- Node30 -->
<g id="node8" class="node">
<title>Node30</title>
<g id="a_node8"><a xlink:href="Renderer_8cpp.html" target="_top" xlink:title="src/Engine/Renderer\l/Renderer.cpp">
<polygon fill="#ffffff" stroke="#000000" points="759.5,-.5 759.5,-30.5 872.5,-30.5 872.5,-.5 759.5,-.5"/>
<text text-anchor="start" x="767.5" y="-18.5" font-family="Helvetica,sans-Serif" font-size="10.00" fill="#000000">src/Engine/Renderer</text>
<text text-anchor="middle" x="816" y="-7.5" font-family="Helvetica,sans-Serif" font-size="10.00" fill="#000000">/Renderer.cpp</text>
</a>
</g>
</g>
<!-- Node25&#45;&gt;Node30 -->
<g id="edge7" class="edge">
<title>Node25&#45;&gt;Node30</title>
<path fill="none" stroke="#191970" d="M899.8706,-67.5308C882.0926,-56.5019 858.0122,-41.5631 840.2142,-30.5218"/>
<polygon fill="#191970" stroke="#191970" points="898.1835,-70.603 908.5262,-72.9005 901.8737,-64.6546 898.1835,-70.603"/>
</g>
<!-- Node25&#45;&gt;Node31 -->
<g id="edge8" class="edge">
<title>Node25&#45;&gt;Node31</title>
<path fill="none" stroke="#191970" d="M984.1575,-71.2928C993.7826,-69.7105 1003.6495,-68.2126 1013,-67 1198.7952,-42.9049 1247.2048,-55.0951 1433,-31 1436.2663,-30.5764 1439.5956,-30.118 1442.9556,-29.6334"/>
<polygon fill="#191970" stroke="#191970" points="983.5253,-67.8499 974.2464,-72.9638 984.6891,-74.7524 983.5253,-67.8499"/>
</g>
<!-- Node32 -->
<g id="node10" class="node">
<title>Node32</title>
<g id="a_node10"><a xlink:href="Viewer_8cpp.html" target="_top" xlink:title="src/GuiBase/Viewer\l/Viewer.cpp">
<polygon fill="#ffffff" stroke="#000000" points="890.5,-.5 890.5,-30.5 1001.5,-30.5 1001.5,-.5 890.5,-.5"/>
<text text-anchor="start" x="898.5" y="-18.5" font-family="Helvetica,sans-Serif" font-size="10.00" fill="#000000">src/GuiBase/Viewer</text>
<text text-anchor="middle" x="946" y="-7.5" font-family="Helvetica,sans-Serif" font-size="10.00" fill="#000000">/Viewer.cpp</text>
</a>
</g>
</g>
<!-- Node25&#45;&gt;Node32 -->
<g id="edge9" class="edge">
<title>Node25&#45;&gt;Node32</title>
<path fill="none" stroke="#191970" d="M930.3688,-63.1042C933.7757,-52.7287 937.9076,-40.145 941.0675,-30.5218"/>
<polygon fill="#191970" stroke="#191970" points="926.9465,-62.3077 927.1521,-72.9005 933.5972,-64.4915 926.9465,-62.3077"/>
</g>
<!-- Node33 -->
<g id="node11" class="node">
<title>Node33</title>
<g id="a_node11"><a xlink:href="AssimpFileLoader_8cpp.html" target="_top" xlink:title="src/IO/AssimpLoader\l/AssimpFileLoader.cpp">
<polygon fill="#ffffff" stroke="#000000" points="1019.5,-.5 1019.5,-30.5 1144.5,-30.5 1144.5,-.5 1019.5,-.5"/>
<text text-anchor="start" x="1027.5" y="-18.5" font-family="Helvetica,sans-Serif" font-size="10.00" fill="#000000">src/IO/AssimpLoader</text>
<text text-anchor="middle" x="1082" y="-7.5" font-family="Helvetica,sans-Serif" font-size="10.00" fill="#000000">/AssimpFileLoader.cpp</text>
</a>
</g>
</g>
<!-- Node25&#45;&gt;Node33 -->
<g id="edge10" class="edge">
<title>Node25&#45;&gt;Node33</title>
<path fill="none" stroke="#191970" d="M956.1276,-68.8763C982.3846,-57.742 1019.4627,-42.019 1046.5755,-30.5218"/>
<polygon fill="#191970" stroke="#191970" points="954.4776,-65.7742 946.6375,-72.9005 957.2104,-72.2187 954.4776,-65.7742"/>
</g>
<!-- Node34 -->
<g id="node12" class="node">
<title>Node34</title>
<g id="a_node12"><a xlink:href="CameraLoader_8cpp.html" target="_top" xlink:title="src/IO/CameraLoader\l/CameraLoader.cpp">
<polygon fill="#ffffff" stroke="#000000" points="1162.5,-.5 1162.5,-30.5 1281.5,-30.5 1281.5,-.5 1162.5,-.5"/>
<text text-anchor="start" x="1170.5" y="-18.5" font-family="Helvetica,sans-Serif" font-size="10.00" fill="#000000">src/IO/CameraLoader</text>
<text text-anchor="middle" x="1222" y="-7.5" font-family="Helvetica,sans-Serif" font-size="10.00" fill="#000000">/CameraLoader.cpp</text>
</a>
</g>
</g>
<!-- Node25&#45;&gt;Node34 -->
<g id="edge11" class="edge">
<title>Node25&#45;&gt;Node34</title>
<path fill="none" stroke="#191970" d="M976.3895,-70.7211C1028.3543,-59.0378 1107.8792,-41.158 1162.2683,-28.9296"/>
<polygon fill="#191970" stroke="#191970" points="975.3683,-67.3633 966.3797,-72.9717 976.9039,-74.1928 975.3683,-67.3633"/>
</g>
<!-- Node35 -->
<g id="node13" class="node">
<title>Node35</title>
<g id="a_node13"><a xlink:href="TinyPlyFileLoader_8cpp.html" target="_top" xlink:title="src/IO/TinyPlyLoader\l/TinyPlyFileLoader.cpp">
<polygon fill="#ffffff" stroke="#000000" points="1299.5,-.5 1299.5,-30.5 1424.5,-30.5 1424.5,-.5 1299.5,-.5"/>
<text text-anchor="start" x="1307.5" y="-18.5" font-family="Helvetica,sans-Serif" font-size="10.00" fill="#000000">src/IO/TinyPlyLoader</text>
<text text-anchor="middle" x="1362" y="-7.5" font-family="Helvetica,sans-Serif" font-size="10.00" fill="#000000">/TinyPlyFileLoader.cpp</text>
</a>
</g>
</g>
<!-- Node25&#45;&gt;Node35 -->
<g id="edge12" class="edge">
<title>Node25&#45;&gt;Node35</title>
<path fill="none" stroke="#191970" d="M986.5634,-71.2538C995.4286,-69.7624 1004.4378,-68.3013 1013,-67 1135.7369,-48.3455 1167.6566,-52.0818 1290,-31 1293.0242,-30.4789 1296.1141,-29.9193 1299.2309,-29.3329"/>
<polygon fill="#191970" stroke="#191970" points="985.9171,-67.8134 976.6472,-72.9436 987.0931,-74.714 985.9171,-67.8134"/>
</g>
<!-- Node36&#45;&gt;Node23 -->
<g id="edge14" class="edge">
<title>Node36&#45;&gt;Node23</title>
<path fill="none" stroke="#191970" d="M1149.3635,-169.4235C1150.1596,-180.1392 1149.7259,-192.8657 1148.0625,-201.3906"/>
<polygon fill="#191970" stroke="#191970" points="1152.8044,-168.7324 1148.0888,-159.2449 1145.8586,-169.6023 1152.8044,-168.7324"/>
</g>
<!-- Node38&#45;&gt;Node31 -->
<g id="edge18" class="edge">
<title>Node38&#45;&gt;Node31</title>
<path fill="none" stroke="#191970" d="M1522,-124.3415C1522,-96.8131 1522,-53.5714 1522,-30.7614"/>
<polygon fill="#191970" stroke="#191970" points="1518.5001,-124.3889 1522,-134.389 1525.5001,-124.389 1518.5001,-124.3889"/>
</g>
<!-- Node38&#45;&gt;Node39 -->
<g id="edge17" class="edge">
<title>Node38&#45;&gt;Node39</title>
<path fill="none" stroke="#191970" d="M1553.2119,-128.7951C1568.3457,-118.7558 1586.1992,-106.9124 1600.0598,-97.7177"/>
<polygon fill="#191970" stroke="#191970" points="1551.0648,-126.0193 1544.6664,-134.4639 1554.9344,-131.8525 1551.0648,-126.0193"/>
</g>
</g>
</svg>
        <g id="navigator" transform="translate(0 0)" fill="#404254">
                <rect fill="#f2f5e9" fill-opacity="0.5" stroke="#606060" stroke-width=".5" x="0" y="0" width="60" height="60"/>
                <use id="zoomplus" xlink:href="#zoomPlus" x="17" y="9" onmousedown="handleZoom(evt,'in')"/>
                <use id="zoomminus" xlink:href="#zoomMin" x="42" y="9" onmousedown="handleZoom(evt,'out')"/>
                <use id="reset" xlink:href="#resetDef" x="30" y="36" onmousedown="handleReset()"/>
                <g id="arrowUp" xlink:href="#dirArrow" transform="translate(30 24)" onmousedown="handlePan(0,-1)">
                  <use xlink:href="#rim" fill="#404040">
                        <set attributeName="fill" to="#808080" begin="arrowUp.mouseover" end="arrowUp.mouseout"/>
                  </use>
                  <path fill="none" stroke="white" stroke-width="1.5" d="M0,-3.0v7 M-2.5,-0.5L0,-3.0L2.5,-0.5"/>
                </g>
                <g id="arrowRight" xlink:href="#dirArrow" transform="rotate(90) translate(36 -43)" onmousedown="handlePan(1,0)">
                  <use xlink:href="#rim" fill="#404040">
                        <set attributeName="fill" to="#808080" begin="arrowRight.mouseover" end="arrowRight.mouseout"/>
                  </use>
                  <path fill="none" stroke="white" stroke-width="1.5" d="M0,-3.0v7 M-2.5,-0.5L0,-3.0L2.5,-0.5"/>
                </g>
                <g id="arrowDown" xlink:href="#dirArrow" transform="rotate(180) translate(-30 -48)" onmousedown="handlePan(0,1)">
                  <use xlink:href="#rim" fill="#404040">
                        <set attributeName="fill" to="#808080" begin="arrowDown.mouseover" end="arrowDown.mouseout"/>
                  </use>
                  <path fill="none" stroke="white" stroke-width="1.5" d="M0,-3.0v7 M-2.5,-0.5L0,-3.0L2.5,-0.5"/>
                </g>
                <g id="arrowLeft" xlink:href="#dirArrow" transform="rotate(270) translate(-36 17)" onmousedown="handlePan(-1,0)">
                  <use xlink:href="#rim" fill="#404040">
                        <set attributeName="fill" to="#808080" begin="arrowLeft.mouseover" end="arrowLeft.mouseout"/>
                  </use>
                  <path fill="none" stroke="white" stroke-width="1.5" d="M0,-3.0v7 M-2.5,-0.5L0,-3.0L2.5,-0.5"/>
                </g>
        </g>
        <svg viewBox="0 0 15 15" width="100%" height="30px" preserveAspectRatio="xMaxYMin meet">
         <g id="arrow_out" transform="scale(0.3 0.3)">
          <a xlink:href="GeometryData_8hpp__dep__incl_org.svg" target="_base">
           <rect id="button" ry="5" rx="5" y="6" x="6" height="38" width="38"
                fill="#f2f5e9" fill-opacity="0.5" stroke="#606060" stroke-width="1.0"/>
           <path id="arrow"
             d="M 11.500037,31.436501 C 11.940474,20.09759 22.043105,11.32322 32.158766,21.979434 L 37.068811,17.246167 C 37.068811,17.246167 37.088388,32 37.088388,32 L 22.160133,31.978069 C 22.160133,31.978069 26.997745,27.140456 26.997745,27.140456 C 18.528582,18.264221 13.291696,25.230495 11.500037,31.436501 z"
             style="fill:#404040;"/>
          </a>
         </g>
        </svg>
</svg>
