<?xml version="1.0" encoding="UTF-8" standalone="no"?>
<!DOCTYPE svg PUBLIC "-//W3C//DTD SVG 1.1//EN"
 "http://www.w3.org/Graphics/SVG/1.1/DTD/svg11.dtd">
<!-- Generated by graphviz version 2.40.1 (20161225.0304)
 -->
<!-- Title: src/Core/Utils/IndexedObject.hpp Pages: 1 -->
<svg width="4078pt" height="374pt"
 viewBox="0.00 0.00 4078.00 374.00" xmlns="http://www.w3.org/2000/svg" xmlns:xlink="http://www.w3.org/1999/xlink">
<g id="graph0" class="graph" transform="scale(1 1) rotate(0) translate(4 370)">
<title>src/Core/Utils/IndexedObject.hpp</title>
<polygon fill="#ffffff" stroke="transparent" points="-4,4 -4,-370 4074,-370 4074,4 -4,4"/>
<!-- Node11 -->
<g id="node1" class="node">
<title>Node11</title>
<polygon fill="#bfbfbf" stroke="#000000" points="2283,-346.5 2283,-365.5 2459,-365.5 2459,-346.5 2283,-346.5"/>
<text text-anchor="middle" x="2371" y="-353.5" font-family="Helvetica,sans-Serif" font-size="10.00" fill="#000000">src/Core/Utils/IndexedObject.hpp</text>
</g>
<!-- Node12 -->
<g id="node2" class="node">
<title>Node12</title>
<g id="a_node2"><a xlink:href="Entity_8hpp.html" target="_top" xlink:title="src/Engine/Entity/Entity.hpp">
<polygon fill="#ffffff" stroke="#000000" points="1983.5,-290.5 1983.5,-309.5 2132.5,-309.5 2132.5,-290.5 1983.5,-290.5"/>
<text text-anchor="middle" x="2058" y="-297.5" font-family="Helvetica,sans-Serif" font-size="10.00" fill="#000000">src/Engine/Entity/Entity.hpp</text>
</a>
</g>
</g>
<!-- Node11&#45;&gt;Node12 -->
<g id="edge1" class="edge">
<title>Node11&#45;&gt;Node12</title>
<path fill="none" stroke="#191970" d="M2307.4476,-344.6296C2249.7106,-334.2997 2165.5049,-319.2341 2111.2305,-309.5237"/>
<polygon fill="#191970" stroke="#191970" points="2307.0889,-348.1209 2317.549,-346.4369 2308.3218,-341.2303 2307.0889,-348.1209"/>
</g>
<!-- Node43 -->
<g id="node33" class="node">
<title>Node43</title>
<g id="a_node33"><a xlink:href="RenderObject_8hpp.html" target="_top" xlink:title="src/Engine/Renderer\l/RenderObject/RenderObject.hpp">
<polygon fill="#ffffff" stroke="#000000" points="2849,-156.5 2849,-186.5 3023,-186.5 3023,-156.5 2849,-156.5"/>
<text text-anchor="start" x="2857" y="-174.5" font-family="Helvetica,sans-Serif" font-size="10.00" fill="#000000">src/Engine/Renderer</text>
<text text-anchor="middle" x="2936" y="-163.5" font-family="Helvetica,sans-Serif" font-size="10.00" fill="#000000">/RenderObject/RenderObject.hpp</text>
</a>
</g>
</g>
<!-- Node11&#45;&gt;Node43 -->
<g id="edge42" class="edge">
<title>Node11&#45;&gt;Node43</title>
<path fill="none" stroke="#191970" d="M2416.6539,-343.8449C2483.4988,-325.7715 2611.7153,-290.0553 2719,-254 2782.9928,-232.4939 2856.1437,-203.8119 2899.0728,-186.5512"/>
<polygon fill="#191970" stroke="#191970" points="2415.6,-340.504 2406.8558,-346.4864 2417.4222,-347.2627 2415.6,-340.504"/>
</g>
<!-- Node13 -->
<g id="node3" class="node">
<title>Node13</title>
<g id="a_node3"><a xlink:href="Component_8cpp.html" target="_top" xlink:title="src/Engine/Component\l/Component.cpp">
<polygon fill="#ffffff" stroke="#000000" points="3944,-84 3944,-114 4070,-114 4070,-84 3944,-84"/>
<text text-anchor="start" x="3952" y="-102" font-family="Helvetica,sans-Serif" font-size="10.00" fill="#000000">src/Engine/Component</text>
<text text-anchor="middle" x="4007" y="-91" font-family="Helvetica,sans-Serif" font-size="10.00" fill="#000000">/Component.cpp</text>
</a>
</g>
</g>
<!-- Node12&#45;&gt;Node13 -->
<g id="edge2" class="edge">
<title>Node12&#45;&gt;Node13</title>
<path fill="none" stroke="#191970" d="M2142.5623,-297.053C2291.9763,-291.4502 2612.3699,-277.6605 2882,-254 3131.2647,-232.1266 3192.7941,-218.7044 3441,-187 3660.78,-158.9265 3718.2696,-166.0358 3935,-120 3942.8967,-118.3227 3951.1916,-116.226 3959.2287,-114.0116"/>
<polygon fill="#191970" stroke="#191970" points="2142.3993,-293.5566 2132.5365,-297.4263 2142.6598,-300.5517 2142.3993,-293.5566"/>
</g>
<!-- Node14 -->
<g id="node4" class="node">
<title>Node14</title>
<g id="a_node4"><a xlink:href="Entity_8inl.html" target="_top" xlink:title="src/Engine/Entity/Entity.inl">
<polygon fill="#ffffff" stroke="#000000" points="2567.5,-229 2567.5,-248 2710.5,-248 2710.5,-229 2567.5,-229"/>
<text text-anchor="middle" x="2639" y="-236" font-family="Helvetica,sans-Serif" font-size="10.00" fill="#000000">src/Engine/Entity/Entity.inl</text>
</a>
</g>
</g>
<!-- Node12&#45;&gt;Node14 -->
<g id="edge3" class="edge">
<title>Node12&#45;&gt;Node14</title>
<path fill="none" stroke="#191970" d="M2143.0597,-294.2536C2241.1876,-287.3281 2407.0726,-274.0596 2549,-254 2560.4832,-252.377 2572.8088,-250.2293 2584.5792,-248.0514"/>
<polygon fill="#191970" stroke="#191970" points="2142.6314,-290.7749 2132.9003,-294.9651 2143.1204,-297.7578 2142.6314,-290.7749"/>
</g>
<!-- Node15 -->
<g id="node5" class="node">
<title>Node15</title>
<g id="a_node5"><a xlink:href="Entity_8cpp.html" target="_top" xlink:title="src/Engine/Entity/Entity.cpp">
<polygon fill="#ffffff" stroke="#000000" points="732.5,-229 732.5,-248 881.5,-248 881.5,-229 732.5,-229"/>
<text text-anchor="middle" x="807" y="-236" font-family="Helvetica,sans-Serif" font-size="10.00" fill="#000000">src/Engine/Entity/Entity.cpp</text>
</a>
</g>
</g>
<!-- Node12&#45;&gt;Node15 -->
<g id="edge5" class="edge">
<title>Node12&#45;&gt;Node15</title>
<path fill="none" stroke="#191970" d="M1973.2288,-298.1326C1742.0709,-292.8031 1104.106,-276.4475 895,-254 881.7351,-252.576 867.4514,-250.3595 854.3304,-248.0437"/>
<polygon fill="#191970" stroke="#191970" points="1973.188,-301.6325 1983.2657,-298.3629 1973.3487,-294.6343 1973.188,-301.6325"/>
</g>
<!-- Node16 -->
<g id="node6" class="node">
<title>Node16</title>
<g id="a_node6"><a xlink:href="SystemDisplay_8hpp.html" target="_top" xlink:title="src/Engine/Managers\l/SystemDisplay/SystemDisplay.hpp">
<polygon fill="#ffffff" stroke="#000000" points="975.5,-156.5 975.5,-186.5 1164.5,-186.5 1164.5,-156.5 975.5,-156.5"/>
<text text-anchor="start" x="983.5" y="-174.5" font-family="Helvetica,sans-Serif" font-size="10.00" fill="#000000">src/Engine/Managers</text>
<text text-anchor="middle" x="1070" y="-163.5" font-family="Helvetica,sans-Serif" font-size="10.00" fill="#000000">/SystemDisplay/SystemDisplay.hpp</text>
</a>
</g>
</g>
<!-- Node12&#45;&gt;Node16 -->
<g id="edge6" class="edge">
<title>Node12&#45;&gt;Node16</title>
<path fill="none" stroke="#191970" d="M1972.8709,-296.4309C1859.6694,-290.9562 1653.5533,-278.449 1479,-254 1355.254,-236.6674 1212.5709,-205.2345 1132.6576,-186.5735"/>
<polygon fill="#191970" stroke="#191970" points="1973.042,-299.943 1983.1973,-296.9232 1973.3754,-292.9509 1973.042,-299.943"/>
</g>
<!-- Node19 -->
<g id="node9" class="node">
<title>Node19</title>
<g id="a_node9"><a xlink:href="LightManager_8cpp.html" target="_top" xlink:title="src/Engine/Managers\l/LightManager/LightManager.cpp">
<polygon fill="#ffffff" stroke="#000000" points="0,-84 0,-114 174,-114 174,-84 0,-84"/>
<text text-anchor="start" x="8" y="-102" font-family="Helvetica,sans-Serif" font-size="10.00" fill="#000000">src/Engine/Managers</text>
<text text-anchor="middle" x="87" y="-91" font-family="Helvetica,sans-Serif" font-size="10.00" fill="#000000">/LightManager/LightManager.cpp</text>
</a>
</g>
</g>
<!-- Node12&#45;&gt;Node19 -->
<g id="edge34" class="edge">
<title>Node12&#45;&gt;Node19</title>
<path fill="none" stroke="#191970" d="M1973.181,-297.4803C1766.2895,-291.1067 1239.8946,-273.4594 1065,-254 986.4958,-245.2654 967.9798,-235.584 890,-223 576.5163,-172.4114 495.4083,-176.853 183,-120 173.1807,-118.2131 162.8361,-116.1462 152.719,-114.0207"/>
<polygon fill="#191970" stroke="#191970" points="1973.2801,-300.9849 1983.3828,-297.7934 1973.4949,-293.9882 1973.2801,-300.9849"/>
</g>
<!-- Node21 -->
<g id="node11" class="node">
<title>Node21</title>
<g id="a_node11"><a xlink:href="RadiumEngine_8cpp.html" target="_top" xlink:title="src/Engine/RadiumEngine.cpp">
<polygon fill="#ffffff" stroke="#000000" points="398.5,-89.5 398.5,-108.5 559.5,-108.5 559.5,-89.5 398.5,-89.5"/>
<text text-anchor="middle" x="479" y="-96.5" font-family="Helvetica,sans-Serif" font-size="10.00" fill="#000000">src/Engine/RadiumEngine.cpp</text>
</a>
</g>
</g>
<!-- Node12&#45;&gt;Node21 -->
<g id="edge35" class="edge">
<title>Node12&#45;&gt;Node21</title>
<path fill="none" stroke="#191970" d="M1973.0327,-298.4922C1833.3399,-295.1873 1546.6319,-284.9286 1306,-254 1153.2395,-234.3656 1107.2768,-248.3363 966,-187 944.3891,-177.6175 945.0258,-164.3623 923,-156 774.7387,-99.7112 724.3967,-146.2657 568,-120 550.3082,-117.0288 530.8943,-112.589 514.7255,-108.556"/>
<polygon fill="#191970" stroke="#191970" points="1973.1628,-301.996 1983.2409,-298.7274 1973.3242,-294.9979 1973.1628,-301.996"/>
</g>
<!-- Node22 -->
<g id="node12" class="node">
<title>Node22</title>
<g id="a_node12"><a xlink:href="RenderObjectManager_8cpp.html" target="_top" xlink:title="src/Engine/Renderer\l/RenderObject/RenderObject\lManager.cpp">
<polygon fill="#ffffff" stroke="#000000" points="1225.5,-78.5 1225.5,-119.5 1378.5,-119.5 1378.5,-78.5 1225.5,-78.5"/>
<text text-anchor="start" x="1233.5" y="-107.5" font-family="Helvetica,sans-Serif" font-size="10.00" fill="#000000">src/Engine/Renderer</text>
<text text-anchor="start" x="1233.5" y="-96.5" font-family="Helvetica,sans-Serif" font-size="10.00" fill="#000000">/RenderObject/RenderObject</text>
<text text-anchor="middle" x="1302" y="-85.5" font-family="Helvetica,sans-Serif" font-size="10.00" fill="#000000">Manager.cpp</text>
</a>
</g>
</g>
<!-- Node12&#45;&gt;Node22 -->
<g id="edge37" class="edge">
<title>Node12&#45;&gt;Node22</title>
<path fill="none" stroke="#191970" d="M1973.0932,-294.4919C1901.3455,-288.5069 1796.2972,-276.6031 1707,-254 1571.0669,-219.5923 1418.5553,-153.207 1345.5394,-119.5864"/>
<polygon fill="#191970" stroke="#191970" points="1973.1807,-298.0105 1983.4315,-295.3326 1973.7481,-291.0335 1973.1807,-298.0105"/>
</g>
<!-- Node27 -->
<g id="node17" class="node">
<title>Node27</title>
<g id="a_node17"><a xlink:href="Camera_8inl.html" target="_top" xlink:title="src/Engine/Renderer\l/Camera/Camera.inl">
<polygon fill="#ffffff" stroke="#000000" points="1716,-223.5 1716,-253.5 1830,-253.5 1830,-223.5 1716,-223.5"/>
<text text-anchor="start" x="1724" y="-241.5" font-family="Helvetica,sans-Serif" font-size="10.00" fill="#000000">src/Engine/Renderer</text>
<text text-anchor="middle" x="1773" y="-230.5" font-family="Helvetica,sans-Serif" font-size="10.00" fill="#000000">/Camera/Camera.inl</text>
</a>
</g>
</g>
<!-- Node12&#45;&gt;Node27 -->
<g id="edge17" class="edge">
<title>Node12&#45;&gt;Node27</title>
<path fill="none" stroke="#191970" d="M2003.8604,-288.3172C1954.1526,-277.5908 1880.748,-261.7509 1830.1199,-250.8259"/>
<polygon fill="#191970" stroke="#191970" points="2003.2682,-291.7699 2013.7815,-290.4581 2004.7447,-284.9274 2003.2682,-291.7699"/>
</g>
<!-- Node29 -->
<g id="node19" class="node">
<title>Node29</title>
<g id="a_node19"><a xlink:href="CameraManager_8cpp.html" target="_top" xlink:title="src/Engine/Managers\l/CameraManager/CameraManager.cpp">
<polygon fill="#ffffff" stroke="#000000" points="2163.5,-84 2163.5,-114 2366.5,-114 2366.5,-84 2163.5,-84"/>
<text text-anchor="start" x="2171.5" y="-102" font-family="Helvetica,sans-Serif" font-size="10.00" fill="#000000">src/Engine/Managers</text>
<text text-anchor="middle" x="2265" y="-91" font-family="Helvetica,sans-Serif" font-size="10.00" fill="#000000">/CameraManager/CameraManager.cpp</text>
</a>
</g>
</g>
<!-- Node12&#45;&gt;Node29 -->
<g id="edge33" class="edge">
<title>Node12&#45;&gt;Node29</title>
<path fill="none" stroke="#191970" d="M1973.0999,-291.8109C1914.0729,-282.5173 1850.8098,-263.0683 1880,-223 1899.6404,-196.0403 2102.2014,-140.7945 2205.3414,-114.1003"/>
<polygon fill="#191970" stroke="#191970" points="1972.8771,-295.3162 1983.283,-293.3239 1973.906,-288.3922 1972.8771,-295.3162"/>
</g>
<!-- Node38 -->
<g id="node28" class="node">
<title>Node38</title>
<g id="a_node28"><a xlink:href="RenderObject_8cpp.html" target="_top" xlink:title="src/Engine/Renderer\l/RenderObject/RenderObject.cpp">
<polygon fill="#ffffff" stroke="#000000" points="3752.5,-84 3752.5,-114 3925.5,-114 3925.5,-84 3752.5,-84"/>
<text text-anchor="start" x="3760.5" y="-102" font-family="Helvetica,sans-Serif" font-size="10.00" fill="#000000">src/Engine/Renderer</text>
<text text-anchor="middle" x="3839" y="-91" font-family="Helvetica,sans-Serif" font-size="10.00" fill="#000000">/RenderObject/RenderObject.cpp</text>
</a>
</g>
</g>
<!-- Node12&#45;&gt;Node38 -->
<g id="edge36" class="edge">
<title>Node12&#45;&gt;Node38</title>
<path fill="none" stroke="#191970" d="M2143.3173,-295.7166C2269.381,-289.0128 2512.7557,-274.6387 2719,-254 3176.1488,-208.2536 3291.4874,-199.4363 3744,-120 3753.8989,-118.2623 3764.3283,-116.1979 3774.5067,-114.0526"/>
<polygon fill="#191970" stroke="#191970" points="2142.7683,-292.2406 2132.967,-296.2637 2143.1379,-299.2309 2142.7683,-292.2406"/>
</g>
<!-- Node39 -->
<g id="node29" class="node">
<title>Node39</title>
<g id="a_node29"><a xlink:href="GeometrySystem_8cpp.html" target="_top" xlink:title="src/Engine/System/Geometry\lSystem.cpp">
<polygon fill="#ffffff" stroke="#000000" points="1889,-223.5 1889,-253.5 2047,-253.5 2047,-223.5 1889,-223.5"/>
<text text-anchor="start" x="1897" y="-241.5" font-family="Helvetica,sans-Serif" font-size="10.00" fill="#000000">src/Engine/System/Geometry</text>
<text text-anchor="middle" x="1968" y="-230.5" font-family="Helvetica,sans-Serif" font-size="10.00" fill="#000000">System.cpp</text>
</a>
</g>
</g>
<!-- Node12&#45;&gt;Node39 -->
<g id="edge38" class="edge">
<title>Node12&#45;&gt;Node39</title>
<path fill="none" stroke="#191970" d="M2035.4398,-284.5839C2021.5437,-275.0882 2003.8108,-262.9707 1990.0165,-253.5446"/>
<polygon fill="#191970" stroke="#191970" points="2033.7064,-287.6384 2043.9375,-290.3906 2037.6557,-281.8589 2033.7064,-287.6384"/>
</g>
<!-- Node40 -->
<g id="node30" class="node">
<title>Node40</title>
<g id="a_node30"><a xlink:href="System_8cpp.html" target="_top" xlink:title="src/Engine/System/System.cpp">
<polygon fill="#ffffff" stroke="#000000" points="2064.5,-229 2064.5,-248 2231.5,-248 2231.5,-229 2064.5,-229"/>
<text text-anchor="middle" x="2148" y="-236" font-family="Helvetica,sans-Serif" font-size="10.00" fill="#000000">src/Engine/System/System.cpp</text>
</a>
</g>
</g>
<!-- Node12&#45;&gt;Node40 -->
<g id="edge39" class="edge">
<title>Node12&#45;&gt;Node40</title>
<path fill="none" stroke="#191970" d="M2080.729,-284.4685C2097.5068,-273.0037 2119.8074,-257.765 2134.0362,-248.0419"/>
<polygon fill="#191970" stroke="#191970" points="2078.3443,-281.8589 2072.0625,-290.3906 2082.2936,-287.6384 2078.3443,-281.8589"/>
</g>
<!-- Node41 -->
<g id="node31" class="node">
<title>Node41</title>
<g id="a_node31"><a xlink:href="TransformEditor_8cpp.html" target="_top" xlink:title="src/GuiBase/TransformEditor\l/TransformEditor.cpp">
<polygon fill="#ffffff" stroke="#000000" points="2249.5,-223.5 2249.5,-253.5 2404.5,-253.5 2404.5,-223.5 2249.5,-223.5"/>
<text text-anchor="start" x="2257.5" y="-241.5" font-family="Helvetica,sans-Serif" font-size="10.00" fill="#000000">src/GuiBase/TransformEditor</text>
<text text-anchor="middle" x="2327" y="-230.5" font-family="Helvetica,sans-Serif" font-size="10.00" fill="#000000">/TransformEditor.cpp</text>
</a>
</g>
</g>
<!-- Node12&#45;&gt;Node41 -->
<g id="edge40" class="edge">
<title>Node12&#45;&gt;Node41</title>
<path fill="none" stroke="#191970" d="M2109.7404,-288.1709C2152.9003,-278.3035 2214.6587,-264.184 2261.3058,-253.5193"/>
<polygon fill="#191970" stroke="#191970" points="2108.7045,-284.8173 2099.7361,-290.4581 2110.2647,-291.6413 2108.7045,-284.8173"/>
</g>
<!-- Node42 -->
<g id="node32" class="node">
<title>Node42</title>
<g id="a_node32"><a xlink:href="EntityTreeModel_8cpp.html" target="_top" xlink:title="src/GuiBase/TreeModel\l/EntityTreeModel.cpp">
<polygon fill="#ffffff" stroke="#000000" points="2422.5,-223.5 2422.5,-253.5 2549.5,-253.5 2549.5,-223.5 2422.5,-223.5"/>
<text text-anchor="start" x="2430.5" y="-241.5" font-family="Helvetica,sans-Serif" font-size="10.00" fill="#000000">src/GuiBase/TreeModel</text>
<text text-anchor="middle" x="2486" y="-230.5" font-family="Helvetica,sans-Serif" font-size="10.00" fill="#000000">/EntityTreeModel.cpp</text>
</a>
</g>
</g>
<!-- Node12&#45;&gt;Node42 -->
<g id="edge41" class="edge">
<title>Node12&#45;&gt;Node42</title>
<path fill="none" stroke="#191970" d="M2142.6567,-290.9681C2214.7591,-282.8129 2320.9939,-269.7026 2413,-254 2416.0652,-253.4769 2419.1972,-252.9156 2422.3566,-252.3279"/>
<polygon fill="#191970" stroke="#191970" points="2142.2607,-287.4905 2132.7143,-292.0858 2143.0427,-294.4467 2142.2607,-287.4905"/>
</g>
<!-- Node14&#45;&gt;Node12 -->
<g id="edge4" class="edge">
<title>Node14&#45;&gt;Node12</title>
<path fill="none" stroke="#191970" d="M2592.0618,-249.9205C2583.7534,-251.4271 2575.1638,-252.8462 2567,-254 2413.5763,-275.6844 2232.1566,-289.433 2132.5714,-295.8119"/>
<polygon fill="#191970" stroke="#191970" points="2592.8274,-253.338 2602.0091,-248.0514 2591.5347,-246.4584 2592.8274,-253.338"/>
</g>
<!-- Node17 -->
<g id="node7" class="node">
<title>Node17</title>
<g id="a_node7"><a xlink:href="ItemEntry_8cpp.html" target="_top" xlink:title="src/Engine/ItemModel\l/ItemEntry.cpp">
<polygon fill="#ffffff" stroke="#000000" points="2385,-84 2385,-114 2507,-114 2507,-84 2385,-84"/>
<text text-anchor="start" x="2393" y="-102" font-family="Helvetica,sans-Serif" font-size="10.00" fill="#000000">src/Engine/ItemModel</text>
<text text-anchor="middle" x="2446" y="-91" font-family="Helvetica,sans-Serif" font-size="10.00" fill="#000000">/ItemEntry.cpp</text>
</a>
</g>
</g>
<!-- Node16&#45;&gt;Node17 -->
<g id="edge7" class="edge">
<title>Node16&#45;&gt;Node17</title>
<path fill="none" stroke="#191970" d="M1174.9253,-168.8556C1463.9888,-161.3592 2258.2353,-139.2641 2375,-120 2383.6243,-118.5771 2392.6765,-116.4285 2401.3207,-114.04"/>
<polygon fill="#191970" stroke="#191970" points="1174.7636,-165.3585 1164.8575,-169.116 1174.9447,-172.3561 1174.7636,-165.3585"/>
</g>
<!-- Node18 -->
<g id="node8" class="node">
<title>Node18</title>
<g id="a_node8"><a xlink:href="EntityManager_8cpp.html" target="_top" xlink:title="src/Engine/Managers\l/EntityManager/EntityManager.cpp">
<polygon fill="#ffffff" stroke="#000000" points="577.5,-84 577.5,-114 760.5,-114 760.5,-84 577.5,-84"/>
<text text-anchor="start" x="585.5" y="-102" font-family="Helvetica,sans-Serif" font-size="10.00" fill="#000000">src/Engine/Managers</text>
<text text-anchor="middle" x="669" y="-91" font-family="Helvetica,sans-Serif" font-size="10.00" fill="#000000">/EntityManager/EntityManager.cpp</text>
</a>
</g>
</g>
<!-- Node16&#45;&gt;Node18 -->
<g id="edge8" class="edge">
<title>Node16&#45;&gt;Node18</title>
<path fill="none" stroke="#191970" d="M966.6871,-154.8078C908.5193,-145.163 834.6014,-132.4957 769,-120 759.2412,-118.1412 748.9667,-116.0907 738.8691,-114.0213"/>
<polygon fill="#191970" stroke="#191970" points="966.1824,-158.2718 976.6195,-156.4507 967.3248,-151.3656 966.1824,-158.2718"/>
</g>
<!-- Node16&#45;&gt;Node19 -->
<g id="edge9" class="edge">
<title>Node16&#45;&gt;Node19</title>
<path fill="none" stroke="#191970" d="M964.9616,-159.6958C950.8662,-158.3253 936.5889,-157.0461 923,-156 594.6936,-130.7258 509.414,-163.3333 183,-120 171.7533,-118.5069 159.8717,-116.3725 148.4439,-114.0307"/>
<polygon fill="#191970" stroke="#191970" points="964.8843,-163.2052 975.1805,-160.7079 965.5742,-156.2393 964.8843,-163.2052"/>
</g>
<!-- Node20 -->
<g id="node10" class="node">
<title>Node20</title>
<g id="a_node10"><a xlink:href="SystemDisplay_8cpp.html" target="_top" xlink:title="src/Engine/Managers\l/SystemDisplay/SystemDisplay.cpp">
<polygon fill="#ffffff" stroke="#000000" points="192,-84 192,-114 380,-114 380,-84 192,-84"/>
<text text-anchor="start" x="200" y="-102" font-family="Helvetica,sans-Serif" font-size="10.00" fill="#000000">src/Engine/Managers</text>
<text text-anchor="middle" x="286" y="-91" font-family="Helvetica,sans-Serif" font-size="10.00" fill="#000000">/SystemDisplay/SystemDisplay.cpp</text>
</a>
</g>
</g>
<!-- Node16&#45;&gt;Node20 -->
<g id="edge10" class="edge">
<title>Node16&#45;&gt;Node20</title>
<path fill="none" stroke="#191970" d="M964.942,-159.9352C950.8498,-158.5267 936.5785,-157.1732 923,-156 686.0108,-135.5246 624.7326,-151.8315 389,-120 377.3347,-118.4248 365.0092,-116.3103 353.0966,-114.0282"/>
<polygon fill="#191970" stroke="#191970" points="964.8577,-163.4444 975.1592,-160.9687 965.5623,-156.48 964.8577,-163.4444"/>
</g>
<!-- Node16&#45;&gt;Node21 -->
<g id="edge11" class="edge">
<title>Node16&#45;&gt;Node21</title>
<path fill="none" stroke="#191970" d="M964.9488,-156.4672C963.6249,-156.3087 962.3082,-156.1528 961,-156 786.7869,-135.6469 741.1146,-148.2094 568,-120 550.1373,-117.0892 530.5346,-112.6065 514.2838,-108.5291"/>
<polygon fill="#191970" stroke="#191970" points="964.8618,-159.9829 975.2148,-157.7318 965.7177,-153.0354 964.8618,-159.9829"/>
</g>
<!-- Node16&#45;&gt;Node22 -->
<g id="edge12" class="edge">
<title>Node16&#45;&gt;Node22</title>
<path fill="none" stroke="#191970" d="M1128.0055,-153.3733C1160.9426,-143.0804 1202.2785,-130.163 1236.3952,-119.5015"/>
<polygon fill="#191970" stroke="#191970" points="1126.5714,-150.1545 1118.0705,-156.478 1128.6593,-156.8358 1126.5714,-150.1545"/>
</g>
<!-- Node23 -->
<g id="node13" class="node">
<title>Node23</title>
<g id="a_node13"><a xlink:href="BaseApplication_8cpp.html" target="_top" xlink:title="src/GuiBase/BaseApplication.cpp">
<polygon fill="#ffffff" stroke="#000000" points="1397,-89.5 1397,-108.5 1573,-108.5 1573,-89.5 1397,-89.5"/>
<text text-anchor="middle" x="1485" y="-96.5" font-family="Helvetica,sans-Serif" font-size="10.00" fill="#000000">src/GuiBase/BaseApplication.cpp</text>
</a>
</g>
</g>
<!-- Node16&#45;&gt;Node23 -->
<g id="edge13" class="edge">
<title>Node16&#45;&gt;Node23</title>
<path fill="none" stroke="#191970" d="M1174.7023,-155.8378C1236.5881,-146.2448 1316.4102,-133.2886 1387,-120 1405.2968,-116.5556 1425.419,-112.3219 1442.6442,-108.5603"/>
<polygon fill="#191970" stroke="#191970" points="1173.8865,-152.4222 1164.5382,-157.4082 1174.9554,-159.3402 1173.8865,-152.4222"/>
</g>
<!-- Node24 -->
<g id="node14" class="node">
<title>Node24</title>
<g id="a_node14"><a xlink:href="CameraManipulator_8cpp.html" target="_top" xlink:title="src/GuiBase/Viewer\l/CameraManipulator.cpp">
<polygon fill="#ffffff" stroke="#000000" points="1072.5,-84 1072.5,-114 1207.5,-114 1207.5,-84 1072.5,-84"/>
<text text-anchor="start" x="1080.5" y="-102" font-family="Helvetica,sans-Serif" font-size="10.00" fill="#000000">src/GuiBase/Viewer</text>
<text text-anchor="middle" x="1140" y="-91" font-family="Helvetica,sans-Serif" font-size="10.00" fill="#000000">/CameraManipulator.cpp</text>
</a>
</g>
</g>
<!-- Node16&#45;&gt;Node24 -->
<g id="edge14" class="edge">
<title>Node16&#45;&gt;Node24</title>
<path fill="none" stroke="#191970" d="M1091.7208,-149.0035C1102.7133,-137.6184 1115.7576,-124.1083 1125.5145,-114.0028"/>
<polygon fill="#191970" stroke="#191970" points="1088.9321,-146.8528 1084.504,-156.478 1093.9679,-151.715 1088.9321,-146.8528"/>
</g>
<!-- Node25 -->
<g id="node15" class="node">
<title>Node25</title>
<g id="a_node15"><a xlink:href="GizmoManager_8cpp.html" target="_top" xlink:title="src/GuiBase/Viewer\l/Gizmo/GizmoManager.cpp">
<polygon fill="#ffffff" stroke="#000000" points="778.5,-84 778.5,-114 925.5,-114 925.5,-84 778.5,-84"/>
<text text-anchor="start" x="786.5" y="-102" font-family="Helvetica,sans-Serif" font-size="10.00" fill="#000000">src/GuiBase/Viewer</text>
<text text-anchor="middle" x="852" y="-91" font-family="Helvetica,sans-Serif" font-size="10.00" fill="#000000">/Gizmo/GizmoManager.cpp</text>
</a>
</g>
</g>
<!-- Node16&#45;&gt;Node25 -->
<g id="edge15" class="edge">
<title>Node16&#45;&gt;Node25</title>
<path fill="none" stroke="#191970" d="M1015.3272,-153.3175C978.8405,-141.1832 931.4423,-125.42 897.1119,-114.0028"/>
<polygon fill="#191970" stroke="#191970" points="1014.2367,-156.6433 1024.8303,-156.478 1016.4458,-150.001 1014.2367,-156.6433"/>
</g>
<!-- Node26 -->
<g id="node16" class="node">
<title>Node26</title>
<g id="a_node16"><a xlink:href="Viewer_8cpp.html" target="_top" xlink:title="src/GuiBase/Viewer\l/Viewer.cpp">
<polygon fill="#ffffff" stroke="#000000" points="943.5,-84 943.5,-114 1054.5,-114 1054.5,-84 943.5,-84"/>
<text text-anchor="start" x="951.5" y="-102" font-family="Helvetica,sans-Serif" font-size="10.00" fill="#000000">src/GuiBase/Viewer</text>
<text text-anchor="middle" x="999" y="-91" font-family="Helvetica,sans-Serif" font-size="10.00" fill="#000000">/Viewer.cpp</text>
</a>
</g>
</g>
<!-- Node16&#45;&gt;Node26 -->
<g id="edge16" class="edge">
<title>Node16&#45;&gt;Node26</title>
<path fill="none" stroke="#191970" d="M1048.2899,-149.3313C1037.0741,-137.8785 1023.6839,-124.2054 1013.6924,-114.0028"/>
<polygon fill="#191970" stroke="#191970" points="1045.7913,-151.7822 1055.2888,-156.478 1050.7926,-146.8845 1045.7913,-151.7822"/>
</g>
<!-- Node28 -->
<g id="node18" class="node">
<title>Node28</title>
<g id="a_node18"><a xlink:href="Camera_8hpp.html" target="_top" xlink:title="src/Engine/Renderer\l/Camera/Camera.hpp">
<polygon fill="#ffffff" stroke="#000000" points="1713,-156.5 1713,-186.5 1833,-186.5 1833,-156.5 1713,-156.5"/>
<text text-anchor="start" x="1721" y="-174.5" font-family="Helvetica,sans-Serif" font-size="10.00" fill="#000000">src/Engine/Renderer</text>
<text text-anchor="middle" x="1773" y="-163.5" font-family="Helvetica,sans-Serif" font-size="10.00" fill="#000000">/Camera/Camera.hpp</text>
</a>
</g>
</g>
<!-- Node27&#45;&gt;Node28 -->
<g id="edge18" class="edge">
<title>Node27&#45;&gt;Node28</title>
<path fill="none" stroke="#191970" d="M1766.4384,-213.3179C1766.0239,-204.3414 1766.2933,-194.5143 1767.2464,-186.6432"/>
<polygon fill="#191970" stroke="#191970" points="1762.9504,-213.6087 1767.2392,-223.2967 1769.928,-213.0487 1762.9504,-213.6087"/>
</g>
<!-- Node28&#45;&gt;Node23 -->
<g id="edge25" class="edge">
<title>Node28&#45;&gt;Node23</title>
<path fill="none" stroke="#191970" d="M1703.3595,-153.969C1646.6918,-139.7037 1568.8512,-120.1084 1523.0422,-108.5766"/>
<polygon fill="#191970" stroke="#191970" points="1702.7743,-157.4308 1713.3262,-156.478 1704.4832,-150.6426 1702.7743,-157.4308"/>
</g>
<!-- Node28&#45;&gt;Node24 -->
<g id="edge26" class="edge">
<title>Node28&#45;&gt;Node24</title>
<path fill="none" stroke="#191970" d="M1702.4913,-168.9887C1596.2466,-164.304 1389.1139,-151.6612 1216,-120 1207.3821,-118.4238 1198.3231,-116.3233 1189.5822,-114.059"/>
<polygon fill="#191970" stroke="#191970" points="1702.6232,-172.4976 1712.7644,-169.4307 1702.9241,-165.504 1702.6232,-172.4976"/>
</g>
<!-- Node28&#45;&gt;Node25 -->
<g id="edge29" class="edge">
<title>Node28&#45;&gt;Node25</title>
<path fill="none" stroke="#191970" d="M1702.8229,-168.9057C1528.9156,-162.2011 1081.4415,-143.1904 934,-120 924.4187,-118.493 914.3275,-116.3672 904.6261,-114.0419"/>
<polygon fill="#191970" stroke="#191970" points="1702.7587,-172.4058 1712.8856,-169.2917 1703.0271,-165.4109 1702.7587,-172.4058"/>
</g>
<!-- Node28&#45;&gt;Node26 -->
<g id="edge32" class="edge">
<title>Node28&#45;&gt;Node26</title>
<path fill="none" stroke="#191970" d="M1702.5648,-168.584C1548.1651,-161.835 1184.0472,-143.8743 1063,-120 1055.4279,-118.5065 1047.5062,-116.3873 1039.9185,-114.0643"/>
<polygon fill="#191970" stroke="#191970" points="1702.7277,-172.0943 1712.8701,-169.0314 1703.0314,-165.1009 1702.7277,-172.0943"/>
</g>
<!-- Node28&#45;&gt;Node27 -->
<g id="edge20" class="edge">
<title>Node28&#45;&gt;Node27</title>
<path fill="none" stroke="#191970" d="M1779.5584,-196.6135C1779.9764,-205.5857 1779.7105,-215.4156 1778.7608,-223.2967"/>
<polygon fill="#191970" stroke="#191970" points="1783.0469,-196.3291 1778.7536,-186.6432 1776.0696,-196.8924 1783.0469,-196.3291"/>
</g>
<!-- Node28&#45;&gt;Node29 -->
<g id="edge19" class="edge">
<title>Node28&#45;&gt;Node29</title>
<path fill="none" stroke="#191970" d="M1843.143,-156.6436C1844.4381,-156.4227 1845.7247,-156.2079 1847,-156 1982.5894,-133.8956 2018.2016,-140.7817 2154,-120 2165.5353,-118.2347 2177.7046,-116.1556 2189.5902,-114.0039"/>
<polygon fill="#191970" stroke="#191970" points="1842.3181,-153.2356 1833.0911,-158.4426 1843.5513,-160.1261 1842.3181,-153.2356"/>
</g>
<!-- Node30 -->
<g id="node20" class="node">
<title>Node30</title>
<g id="a_node20"><a xlink:href="DefaultCameraManager_8hpp.html" target="_top" xlink:title="src/Engine/Managers\l/CameraManager/DefaultCamera\lManager.hpp">
<polygon fill="#ffffff" stroke="#000000" points="1590.5,-78.5 1590.5,-119.5 1767.5,-119.5 1767.5,-78.5 1590.5,-78.5"/>
<text text-anchor="start" x="1598.5" y="-107.5" font-family="Helvetica,sans-Serif" font-size="10.00" fill="#000000">src/Engine/Managers</text>
<text text-anchor="start" x="1598.5" y="-96.5" font-family="Helvetica,sans-Serif" font-size="10.00" fill="#000000">/CameraManager/DefaultCamera</text>
<text text-anchor="middle" x="1679" y="-85.5" font-family="Helvetica,sans-Serif" font-size="10.00" fill="#000000">Manager.hpp</text>
</a>
</g>
</g>
<!-- Node28&#45;&gt;Node30 -->
<g id="edge21" class="edge">
<title>Node28&#45;&gt;Node30</title>
<path fill="none" stroke="#191970" d="M1745.2539,-150.1001C1732.7187,-140.432 1717.9744,-129.06 1705.5813,-119.5015"/>
<polygon fill="#191970" stroke="#191970" points="1743.4672,-153.1421 1753.5231,-156.478 1747.7423,-147.5992 1743.4672,-153.1421"/>
</g>
<!-- Node33 -->
<g id="node23" class="node">
<title>Node33</title>
<g id="a_node23"><a xlink:href="Camera_8cpp.html" target="_top" xlink:title="src/Engine/Renderer\l/Camera/Camera.cpp">
<polygon fill="#ffffff" stroke="#000000" points="2809.5,-84 2809.5,-114 2928.5,-114 2928.5,-84 2809.5,-84"/>
<text text-anchor="start" x="2817.5" y="-102" font-family="Helvetica,sans-Serif" font-size="10.00" fill="#000000">src/Engine/Renderer</text>
<text text-anchor="middle" x="2869" y="-91" font-family="Helvetica,sans-Serif" font-size="10.00" fill="#000000">/Camera/Camera.cpp</text>
</a>
</g>
</g>
<!-- Node28&#45;&gt;Node33 -->
<g id="edge24" class="edge">
<title>Node28&#45;&gt;Node33</title>
<path fill="none" stroke="#191970" d="M1843.4522,-170.215C2044.0379,-166.1996 2615.5807,-152.1834 2800,-120 2808.2646,-118.5577 2816.9295,-116.432 2825.219,-114.0793"/>
<polygon fill="#191970" stroke="#191970" points="1843.2586,-166.7181 1833.3299,-170.4154 1843.3972,-173.7167 1843.2586,-166.7181"/>
</g>
<!-- Node34 -->
<g id="node24" class="node">
<title>Node34</title>
<g id="a_node24"><a xlink:href="FlightCameraManipulator_8cpp.html" target="_top" xlink:title="src/GuiBase/Viewer\l/FlightCameraManipulator.cpp">
<polygon fill="#ffffff" stroke="#000000" points="1786,-84 1786,-114 1948,-114 1948,-84 1786,-84"/>
<text text-anchor="start" x="1794" y="-102" font-family="Helvetica,sans-Serif" font-size="10.00" fill="#000000">src/GuiBase/Viewer</text>
<text text-anchor="middle" x="1867" y="-91" font-family="Helvetica,sans-Serif" font-size="10.00" fill="#000000">/FlightCameraManipulator.cpp</text>
</a>
</g>
</g>
<!-- Node28&#45;&gt;Node34 -->
<g id="edge27" class="edge">
<title>Node28&#45;&gt;Node34</title>
<path fill="none" stroke="#191970" d="M1800.4773,-150.3074C1815.5753,-138.6627 1833.9419,-124.4969 1847.5481,-114.0028"/>
<polygon fill="#191970" stroke="#191970" points="1798.2577,-147.5992 1792.4769,-156.478 1802.5328,-153.1421 1798.2577,-147.5992"/>
</g>
<!-- Node35 -->
<g id="node25" class="node">
<title>Node35</title>
<g id="a_node25"><a xlink:href="Gizmo_8cpp.html" target="_top" xlink:title="src/GuiBase/Viewer\l/Gizmo/Gizmo.cpp">
<polygon fill="#ffffff" stroke="#000000" points="2525.5,-84 2525.5,-114 2636.5,-114 2636.5,-84 2525.5,-84"/>
<text text-anchor="start" x="2533.5" y="-102" font-family="Helvetica,sans-Serif" font-size="10.00" fill="#000000">src/GuiBase/Viewer</text>
<text text-anchor="middle" x="2581" y="-91" font-family="Helvetica,sans-Serif" font-size="10.00" fill="#000000">/Gizmo/Gizmo.cpp</text>
</a>
</g>
</g>
<!-- Node28&#45;&gt;Node35 -->
<g id="edge28" class="edge">
<title>Node28&#45;&gt;Node35</title>
<path fill="none" stroke="#191970" d="M1843.2794,-168.8116C2002.8131,-162.355 2388.3564,-144.6606 2516,-120 2523.6849,-118.5153 2531.7276,-116.4003 2539.4329,-114.0788"/>
<polygon fill="#191970" stroke="#191970" points="1842.9546,-165.3218 1833.1032,-169.2206 1843.2357,-172.3161 1842.9546,-165.3218"/>
</g>
<!-- Node36 -->
<g id="node26" class="node">
<title>Node36</title>
<g id="a_node26"><a xlink:href="RotateGizmo_8cpp.html" target="_top" xlink:title="src/GuiBase/Viewer\l/Gizmo/RotateGizmo.cpp">
<polygon fill="#ffffff" stroke="#000000" points="2654.5,-84 2654.5,-114 2791.5,-114 2791.5,-84 2654.5,-84"/>
<text text-anchor="start" x="2662.5" y="-102" font-family="Helvetica,sans-Serif" font-size="10.00" fill="#000000">src/GuiBase/Viewer</text>
<text text-anchor="middle" x="2723" y="-91" font-family="Helvetica,sans-Serif" font-size="10.00" fill="#000000">/Gizmo/RotateGizmo.cpp</text>
</a>
</g>
</g>
<!-- Node28&#45;&gt;Node36 -->
<g id="edge30" class="edge">
<title>Node28&#45;&gt;Node36</title>
<path fill="none" stroke="#191970" d="M1843.1076,-169.2064C2021.8089,-163.0638 2491.0922,-144.9944 2645,-120 2654.1361,-118.5163 2663.7458,-116.4018 2672.9777,-114.0805"/>
<polygon fill="#191970" stroke="#191970" points="1842.908,-165.7111 1833.0334,-169.5506 1843.1471,-172.707 1842.908,-165.7111"/>
</g>
<!-- Node37 -->
<g id="node27" class="node">
<title>Node37</title>
<g id="a_node27"><a xlink:href="TrackballCameraManipulator_8cpp.html" target="_top" xlink:title="src/GuiBase/Viewer\l/TrackballCameraManipulator.cpp">
<polygon fill="#ffffff" stroke="#000000" points="1966.5,-84 1966.5,-114 2145.5,-114 2145.5,-84 1966.5,-84"/>
<text text-anchor="start" x="1974.5" y="-102" font-family="Helvetica,sans-Serif" font-size="10.00" fill="#000000">src/GuiBase/Viewer</text>
<text text-anchor="middle" x="2056" y="-91" font-family="Helvetica,sans-Serif" font-size="10.00" fill="#000000">/TrackballCameraManipulator.cpp</text>
</a>
</g>
</g>
<!-- Node28&#45;&gt;Node37 -->
<g id="edge31" class="edge">
<title>Node28&#45;&gt;Node37</title>
<path fill="none" stroke="#191970" d="M1841.5681,-153.934C1889.2405,-141.7211 1952.1123,-125.6144 1997.4373,-114.0028"/>
<polygon fill="#191970" stroke="#191970" points="1840.4563,-150.6057 1831.6378,-156.478 1842.1936,-157.3867 1840.4563,-150.6057"/>
</g>
<!-- Node31 -->
<g id="node21" class="node">
<title>Node31</title>
<g id="a_node21"><a xlink:href="DefaultCameraManager_8cpp.html" target="_top" xlink:title="src/Engine/Managers\l/CameraManager/DefaultCamera\lManager.cpp">
<polygon fill="#ffffff" stroke="#000000" points="1590.5,-.5 1590.5,-41.5 1767.5,-41.5 1767.5,-.5 1590.5,-.5"/>
<text text-anchor="start" x="1598.5" y="-29.5" font-family="Helvetica,sans-Serif" font-size="10.00" fill="#000000">src/Engine/Managers</text>
<text text-anchor="start" x="1598.5" y="-18.5" font-family="Helvetica,sans-Serif" font-size="10.00" fill="#000000">/CameraManager/DefaultCamera</text>
<text text-anchor="middle" x="1679" y="-7.5" font-family="Helvetica,sans-Serif" font-size="10.00" fill="#000000">Manager.cpp</text>
</a>
</g>
</g>
<!-- Node30&#45;&gt;Node31 -->
<g id="edge22" class="edge">
<title>Node30&#45;&gt;Node31</title>
<path fill="none" stroke="#191970" d="M1679,-68.0789C1679,-59.2178 1679,-49.7747 1679,-41.6898"/>
<polygon fill="#191970" stroke="#191970" points="1675.5001,-68.0974 1679,-78.0974 1682.5001,-68.0975 1675.5001,-68.0974"/>
</g>
<!-- Node32 -->
<g id="node22" class="node">
<title>Node32</title>
<g id="a_node22"><a xlink:href="ForwardRenderer_8cpp.html" target="_top" xlink:title="src/Engine/Renderer\l/Renderers/ForwardRenderer.cpp">
<polygon fill="#ffffff" stroke="#000000" points="2629.5,-6 2629.5,-36 2802.5,-36 2802.5,-6 2629.5,-6"/>
<text text-anchor="start" x="2637.5" y="-24" font-family="Helvetica,sans-Serif" font-size="10.00" fill="#000000">src/Engine/Renderer</text>
<text text-anchor="middle" x="2716" y="-13" font-family="Helvetica,sans-Serif" font-size="10.00" fill="#000000">/Renderers/ForwardRenderer.cpp</text>
</a>
</g>
</g>
<!-- Node30&#45;&gt;Node32 -->
<g id="edge23" class="edge">
<title>Node30&#45;&gt;Node32</title>
<path fill="none" stroke="#191970" d="M1777.9418,-77.9892C2096.923,-35.1324 2465.2282,-24.5884 2629.4826,-21.9108"/>
<polygon fill="#191970" stroke="#191970" points="1777.0068,-74.5839 1767.5683,-79.3968 1777.9481,-81.5204 1777.0068,-74.5839"/>
</g>
<!-- Node43&#45;&gt;Node13 -->
<g id="edge43" class="edge">
<title>Node43&#45;&gt;Node13</title>
<path fill="none" stroke="#191970" d="M3033.2762,-169.3606C3249.3312,-164.1413 3763.5982,-149.0078 3935,-120 3943.6016,-118.5443 3952.6326,-116.4121 3961.279,-114.0573"/>
<polygon fill="#191970" stroke="#191970" points="3033.1291,-165.8631 3023.2158,-169.6017 3033.2968,-172.8611 3033.1291,-165.8631"/>
</g>
<!-- Node43&#45;&gt;Node17 -->
<g id="edge45" class="edge">
<title>Node43&#45;&gt;Node17</title>
<path fill="none" stroke="#191970" d="M2838.856,-164.2885C2753.2353,-156.8193 2625.446,-142.9541 2516,-120 2508.1768,-118.3593 2499.9648,-116.2543 2492.0291,-114.0129"/>
<polygon fill="#191970" stroke="#191970" points="2838.561,-167.7759 2848.8241,-165.1458 2839.1608,-160.8017 2838.561,-167.7759"/>
</g>
<!-- Node43&#45;&gt;Node21 -->
<g id="edge46" class="edge">
<title>Node43&#45;&gt;Node21</title>
<path fill="none" stroke="#191970" d="M2838.4906,-169.9514C2406.5818,-163.0188 682.1167,-134.54 568,-120 549.2594,-117.6122 528.7106,-112.9066 512.0842,-108.5541"/>
<polygon fill="#191970" stroke="#191970" points="2838.7024,-173.4551 2848.7572,-170.116 2838.8147,-166.456 2838.7024,-173.4551"/>
</g>
<!-- Node43&#45;&gt;Node22 -->
<g id="edge52" class="edge">
<title>Node43&#45;&gt;Node22</title>
<path fill="none" stroke="#191970" d="M2838.4736,-170.8848C2544.5201,-168.6148 1670.0388,-158.7041 1388,-120 1384.9547,-119.5821 1381.8603,-119.1013 1378.7431,-118.57"/>
<polygon fill="#191970" stroke="#191970" points="2838.6573,-174.3862 2848.6837,-170.9624 2838.7106,-167.3864 2838.6573,-174.3862"/>
</g>
<!-- Node43&#45;&gt;Node23 -->
<g id="edge53" class="edge">
<title>Node43&#45;&gt;Node23</title>
<path fill="none" stroke="#191970" d="M2838.7702,-170.0454C2570.6481,-165.677 1824.5311,-151.015 1581,-120 1561.0296,-117.4567 1539.0729,-112.7962 1521.2041,-108.5108"/>
<polygon fill="#191970" stroke="#191970" points="2838.8187,-173.5466 2848.874,-170.2089 2838.9319,-166.5475 2838.8187,-173.5466"/>
</g>
<!-- Node43&#45;&gt;Node32 -->
<g id="edge49" class="edge">
<title>Node43&#45;&gt;Node32</title>
<path fill="none" stroke="#191970" d="M3033.0192,-170.2921C3195.5148,-167.2519 3508.329,-156.6539 3542,-120 3554.6281,-106.2532 3554.7369,-91.6461 3542,-78 3517.0506,-51.2696 3009.8168,-31.018 2802.821,-23.8359"/>
<polygon fill="#191970" stroke="#191970" points="3032.9492,-166.7927 3023.0143,-170.4733 3033.076,-173.7915 3032.9492,-166.7927"/>
</g>
<!-- Node43&#45;&gt;Node33 -->
<g id="edge47" class="edge">
<title>Node43&#45;&gt;Node33</title>
<path fill="none" stroke="#191970" d="M2915.2101,-149.0035C2904.6887,-137.6184 2892.2035,-124.1083 2882.8647,-114.0028"/>
<polygon fill="#191970" stroke="#191970" points="2912.7601,-151.5092 2922.1176,-156.478 2917.901,-146.7583 2912.7601,-151.5092"/>
</g>
<!-- Node43&#45;&gt;Node35 -->
<g id="edge54" class="edge">
<title>Node43&#45;&gt;Node35</title>
<path fill="none" stroke="#191970" d="M2838.6647,-157.8115C2781.7802,-148.9344 2708.8404,-136.0368 2645,-120 2638.195,-118.2906 2631.0643,-116.2289 2624.1342,-114.074"/>
<polygon fill="#191970" stroke="#191970" points="2838.3147,-161.2988 2848.7319,-159.3668 2839.3835,-154.3809 2838.3147,-161.2988"/>
</g>
<!-- Node43&#45;&gt;Node36 -->
<g id="edge55" class="edge">
<title>Node43&#45;&gt;Node36</title>
<path fill="none" stroke="#191970" d="M2882.1255,-153.1624C2846.5374,-141.0491 2800.4774,-125.3714 2767.0772,-114.0028"/>
<polygon fill="#191970" stroke="#191970" points="2881.2718,-156.569 2891.8663,-156.478 2883.5274,-149.9423 2881.2718,-156.569"/>
</g>
<!-- Node43&#45;&gt;Node38 -->
<g id="edge51" class="edge">
<title>Node43&#45;&gt;Node38</title>
<path fill="none" stroke="#191970" d="M3033.3946,-170.1213C3185.7108,-166.8805 3489.2477,-156.0568 3744,-120 3754.9546,-118.4495 3766.5226,-116.3177 3777.6729,-114.0035"/>
<polygon fill="#191970" stroke="#191970" points="3033.0629,-166.6273 3023.1372,-170.3329 3033.2073,-173.6258 3033.0629,-166.6273"/>
</g>
<!-- Node44 -->
<g id="node34" class="node">
<title>Node44</title>
<g id="a_node34"><a xlink:href="GeometryComponent_8cpp.html" target="_top" xlink:title="src/Engine/Component\l/GeometryComponent.cpp">
<polygon fill="#ffffff" stroke="#000000" points="3589.5,-84 3589.5,-114 3734.5,-114 3734.5,-84 3589.5,-84"/>
<text text-anchor="start" x="3597.5" y="-102" font-family="Helvetica,sans-Serif" font-size="10.00" fill="#000000">src/Engine/Component</text>
<text text-anchor="middle" x="3662" y="-91" font-family="Helvetica,sans-Serif" font-size="10.00" fill="#000000">/GeometryComponent.cpp</text>
</a>
</g>
</g>
<!-- Node43&#45;&gt;Node44 -->
<g id="edge44" class="edge">
<title>Node43&#45;&gt;Node44</title>
<path fill="none" stroke="#191970" d="M3033.4433,-168.3841C3159.2344,-163.2798 3384.5939,-150.461 3575,-120 3584.8194,-118.4291 3595.1666,-116.3311 3605.164,-114.0679"/>
<polygon fill="#191970" stroke="#191970" points="3032.9264,-164.9018 3023.0735,-168.7965 3033.2047,-171.8962 3032.9264,-164.9018"/>
</g>
<!-- Node45 -->
<g id="node35" class="node">
<title>Node45</title>
<g id="a_node35"><a xlink:href="Renderer_8cpp.html" target="_top" xlink:title="src/Engine/Renderer\l/Renderer.cpp">
<polygon fill="#ffffff" stroke="#000000" points="2946.5,-84 2946.5,-114 3059.5,-114 3059.5,-84 2946.5,-84"/>
<text text-anchor="start" x="2954.5" y="-102" font-family="Helvetica,sans-Serif" font-size="10.00" fill="#000000">src/Engine/Renderer</text>
<text text-anchor="middle" x="3003" y="-91" font-family="Helvetica,sans-Serif" font-size="10.00" fill="#000000">/Renderer.cpp</text>
</a>
</g>
</g>
<!-- Node43&#45;&gt;Node45 -->
<g id="edge48" class="edge">
<title>Node43&#45;&gt;Node45</title>
<path fill="none" stroke="#191970" d="M2956.7899,-149.0035C2967.3113,-137.6184 2979.7965,-124.1083 2989.1353,-114.0028"/>
<polygon fill="#191970" stroke="#191970" points="2954.099,-146.7583 2949.8824,-156.478 2959.2399,-151.5092 2954.099,-146.7583"/>
</g>
<!-- Node46 -->
<g id="node36" class="node">
<title>Node46</title>
<g id="a_node36"><a xlink:href="DrawPrimitives_8cpp.html" target="_top" xlink:title="src/Engine/Renderer\l/RenderObject/Primitives\l/DrawPrimitives.cpp">
<polygon fill="#ffffff" stroke="#000000" points="3077.5,-78.5 3077.5,-119.5 3214.5,-119.5 3214.5,-78.5 3077.5,-78.5"/>
<text text-anchor="start" x="3085.5" y="-107.5" font-family="Helvetica,sans-Serif" font-size="10.00" fill="#000000">src/Engine/Renderer</text>
<text text-anchor="start" x="3085.5" y="-96.5" font-family="Helvetica,sans-Serif" font-size="10.00" fill="#000000">/RenderObject/Primitives</text>
<text text-anchor="middle" x="3146" y="-85.5" font-family="Helvetica,sans-Serif" font-size="10.00" fill="#000000">/DrawPrimitives.cpp</text>
</a>
</g>
</g>
<!-- Node43&#45;&gt;Node46 -->
<g id="edge50" class="edge">
<title>Node43&#45;&gt;Node46</title>
<path fill="none" stroke="#191970" d="M2989.2777,-153.1065C3018.9634,-142.8579 3056.0011,-130.071 3086.6163,-119.5015"/>
<polygon fill="#191970" stroke="#191970" points="2987.8225,-149.9061 2979.5121,-156.478 2990.1069,-156.5229 2987.8225,-149.9061"/>
</g>
<!-- Node47 -->
<g id="node37" class="node">
<title>Node47</title>
<g id="a_node37"><a xlink:href="ScaleGizmo_8cpp.html" target="_top" xlink:title="src/GuiBase/Viewer\l/Gizmo/ScaleGizmo.cpp">
<polygon fill="#ffffff" stroke="#000000" points="3233,-84 3233,-114 3365,-114 3365,-84 3233,-84"/>
<text text-anchor="start" x="3241" y="-102" font-family="Helvetica,sans-Serif" font-size="10.00" fill="#000000">src/GuiBase/Viewer</text>
<text text-anchor="middle" x="3299" y="-91" font-family="Helvetica,sans-Serif" font-size="10.00" fill="#000000">/Gizmo/ScaleGizmo.cpp</text>
</a>
</g>
</g>
<!-- Node43&#45;&gt;Node47 -->
<g id="edge56" class="edge">
<title>Node43&#45;&gt;Node47</title>
<path fill="none" stroke="#191970" d="M3032.9612,-156.3837C3088.7908,-147.1111 3160.1353,-134.2937 3223,-120 3230.742,-118.2397 3238.877,-116.1991 3246.8295,-114.0955"/>
<polygon fill="#191970" stroke="#191970" points="3032.3743,-152.9332 3023.0779,-158.0152 3033.5144,-159.8397 3032.3743,-152.9332"/>
</g>
<!-- Node48 -->
<g id="node38" class="node">
<title>Node48</title>
<g id="a_node38"><a xlink:href="TranslateGizmo_8cpp.html" target="_top" xlink:title="src/GuiBase/Viewer\l/Gizmo/TranslateGizmo.cpp">
<polygon fill="#ffffff" stroke="#000000" points="3383,-84 3383,-114 3533,-114 3533,-84 3383,-84"/>
<text text-anchor="start" x="3391" y="-102" font-family="Helvetica,sans-Serif" font-size="10.00" fill="#000000">src/GuiBase/Viewer</text>
<text text-anchor="middle" x="3458" y="-91" font-family="Helvetica,sans-Serif" font-size="10.00" fill="#000000">/Gizmo/TranslateGizmo.cpp</text>
</a>
</g>
</g>
<!-- Node43&#45;&gt;Node48 -->
<g id="edge57" class="edge">
<title>Node43&#45;&gt;Node48</title>
<path fill="none" stroke="#191970" d="M3033.4268,-163.6446C3122.5411,-155.6081 3257.7872,-141.2686 3374,-120 3383.1677,-118.3222 3392.8218,-116.2253 3402.1889,-114.0108"/>
<polygon fill="#191970" stroke="#191970" points="3032.982,-160.1703 3023.3328,-164.5458 3033.6044,-167.1426 3032.982,-160.1703"/>
</g>
</g>
</svg>
