<?xml version="1.0" encoding="UTF-8" standalone="no"?>
<!DOCTYPE svg PUBLIC "-//W3C//DTD SVG 1.1//EN"
 "http://www.w3.org/Graphics/SVG/1.1/DTD/svg11.dtd">
<!-- Generated by graphviz version 2.40.1 (20161225.0304)
 -->
<!-- Title: src/Core/Utils/IndexMap.inl Pages: 1 -->
<!--zoomable 240 -->
<svg id="main" version="1.1" xmlns="http://www.w3.org/2000/svg" xmlns:xlink="http://www.w3.org/1999/xlink" xml:space="preserve" onload="init(evt)">
<style type="text/css"><![CDATA[
.edge:hover path { stroke: red; }
.edge:hover polygon { stroke: red; fill: red; }
]]></style>
<script type="text/javascript"><![CDATA[
var edges = document.getElementsByTagName('g');
if (edges && edges.length) {
  for (var i=0;i<edges.length;i++) {
    if (edges[i].id.substr(0,4)=='edge') {
      edges[i].setAttribute('class','edge');
    }
  }
}
]]></script>
        <defs>
                <circle id="rim" cx="0" cy="0" r="7"/>
                <circle id="rim2" cx="0" cy="0" r="3.5"/>
                <g id="zoomPlus">
                        <use xlink:href="#rim" fill="#404040">
                                <set attributeName="fill" to="#808080" begin="zoomplus.mouseover" end="zoomplus.mouseout"/>
                        </use>
                        <path d="M-4,0h8M0,-4v8" fill="none" stroke="white" stroke-width="1.5" pointer-events="none"/>
                </g>
                <g id="zoomMin">
                        <use xlink:href="#rim" fill="#404040">
                                <set attributeName="fill" to="#808080" begin="zoomminus.mouseover" end="zoomminus.mouseout"/>
                        </use>
                        <path d="M-4,0h8" fill="none" stroke="white" stroke-width="1.5" pointer-events="none"/>
                </g>
                <g id="dirArrow">
                        <path fill="none" stroke="white" stroke-width="1.5" d="M0,-3.0v7 M-2.5,-0.5L0,-3.0L2.5,-0.5"/>
                </g>
               <g id="resetDef">
                       <use xlink:href="#rim2" fill="#404040">
                               <set attributeName="fill" to="#808080" begin="reset.mouseover" end="reset.mouseout"/>
                       </use>
               </g>
        </defs>

<script type="text/javascript">
var viewWidth = 2117;
var viewHeight = 240;
var sectionId = 'dynsection-1';
</script>
<script xlink:href="svgpan.js"/>
<svg id="graph" class="graph">
<g id="viewport">
<title>src/Core/Utils/IndexMap.inl</title>
<polygon fill="#ffffff" stroke="transparent" points="-4,4 -4,-236 2113,-236 2113,4 -4,4"/>
<!-- Node15 -->
<g id="node1" class="node">
<title>Node15</title>
<polygon fill="#bfbfbf" stroke="#000000" points="849,-212.5 849,-231.5 996,-231.5 996,-212.5 849,-212.5"/>
<text text-anchor="middle" x="922.5" y="-219.5" font-family="Helvetica,sans-Serif" font-size="10.00" fill="#000000">src/Core/Utils/IndexMap.inl</text>
</g>
<!-- Node16 -->
<g id="node2" class="node">
<title>Node16</title>
<g id="a_node2"><a xlink:href="IndexMap_8hpp.html" target="_top" xlink:title="src/Core/Utils/IndexMap.hpp">
<polygon fill="#ffffff" stroke="#000000" points="846,-156.5 846,-175.5 999,-175.5 999,-156.5 846,-156.5"/>
<text text-anchor="middle" x="922.5" y="-163.5" font-family="Helvetica,sans-Serif" font-size="10.00" fill="#000000">src/Core/Utils/IndexMap.hpp</text>
</a>
</g>
</g>
<!-- Node15&#45;&gt;Node16 -->
<g id="edge1" class="edge">
<title>Node15&#45;&gt;Node16</title>
<path fill="none" stroke="#191970" d="M916.0113,-202.1575C915.419,-193.155 915.8335,-182.9199 917.2549,-175.6427"/>
<polygon fill="#191970" stroke="#191970" points="912.5561,-202.739 917.2332,-212.2455 919.5053,-201.8972 912.5561,-202.739"/>
</g>
<!-- Node16&#45;&gt;Node15 -->
<g id="edge2" class="edge">
<title>Node16&#45;&gt;Node15</title>
<path fill="none" stroke="#191970" d="M928.9795,-185.7046C929.5821,-194.6944 929.1779,-204.9382 927.7668,-212.2455"/>
<polygon fill="#191970" stroke="#191970" points="932.4368,-185.1421 927.7451,-175.6427 925.4889,-185.9945 932.4368,-185.1421"/>
</g>
<!-- Node17 -->
<g id="node3" class="node">
<title>Node17</title>
<g id="a_node3"><a xlink:href="RenderObjectManager_8hpp.html" target="_top" xlink:title="src/Engine/Renderer\l/RenderObject/RenderObject\lManager.hpp">
<polygon fill="#ffffff" stroke="#000000" points="1256,-78.5 1256,-119.5 1409,-119.5 1409,-78.5 1256,-78.5"/>
<text text-anchor="start" x="1264" y="-107.5" font-family="Helvetica,sans-Serif" font-size="10.00" fill="#000000">src/Engine/Renderer</text>
<text text-anchor="start" x="1264" y="-96.5" font-family="Helvetica,sans-Serif" font-size="10.00" fill="#000000">/RenderObject/RenderObject</text>
<text text-anchor="middle" x="1332.5" y="-85.5" font-family="Helvetica,sans-Serif" font-size="10.00" fill="#000000">Manager.hpp</text>
</a>
</g>
</g>
<!-- Node16&#45;&gt;Node17 -->
<g id="edge3" class="edge">
<title>Node16&#45;&gt;Node17</title>
<path fill="none" stroke="#191970" d="M990.8353,-154.833C1063.9664,-142.8823 1179.7124,-123.9677 1255.8823,-111.5204"/>
<polygon fill="#191970" stroke="#191970" points="990.1122,-151.4047 980.8076,-156.4717 991.2412,-158.313 990.1122,-151.4047"/>
</g>
<!-- Node27 -->
<g id="node13" class="node">
<title>Node27</title>
<g id="a_node13"><a xlink:href="EntityManager_8hpp.html" target="_top" xlink:title="src/Engine/Managers\l/EntityManager/EntityManager.hpp">
<polygon fill="#ffffff" stroke="#000000" points="496.5,-84 496.5,-114 680.5,-114 680.5,-84 496.5,-84"/>
<text text-anchor="start" x="504.5" y="-102" font-family="Helvetica,sans-Serif" font-size="10.00" fill="#000000">src/Engine/Managers</text>
<text text-anchor="middle" x="588.5" y="-91" font-family="Helvetica,sans-Serif" font-size="10.00" fill="#000000">/EntityManager/EntityManager.hpp</text>
</a>
</g>
</g>
<!-- Node16&#45;&gt;Node27 -->
<g id="edge13" class="edge">
<title>Node16&#45;&gt;Node27</title>
<path fill="none" stroke="#191970" d="M864.9504,-154.4556C809.2508,-143.2823 724.5228,-126.286 663.552,-114.0553"/>
<polygon fill="#191970" stroke="#191970" points="864.5076,-157.9364 875.0007,-156.4717 865.8844,-151.0732 864.5076,-157.9364"/>
</g>
<!-- Node18 -->
<g id="node4" class="node">
<title>Node18</title>
<g id="a_node4"><a xlink:href="Component_8cpp.html" target="_top" xlink:title="src/Engine/Component\l/Component.cpp">
<polygon fill="#ffffff" stroke="#000000" points="1481.5,-6 1481.5,-36 1607.5,-36 1607.5,-6 1481.5,-6"/>
<text text-anchor="start" x="1489.5" y="-24" font-family="Helvetica,sans-Serif" font-size="10.00" fill="#000000">src/Engine/Component</text>
<text text-anchor="middle" x="1544.5" y="-13" font-family="Helvetica,sans-Serif" font-size="10.00" fill="#000000">/Component.cpp</text>
</a>
</g>
</g>
<!-- Node17&#45;&gt;Node18 -->
<g id="edge4" class="edge">
<title>Node17&#45;&gt;Node18</title>
<path fill="none" stroke="#191970" d="M1398.0164,-74.8949C1432.5215,-62.1996 1473.7618,-47.0263 1503.6797,-36.0188"/>
<polygon fill="#191970" stroke="#191970" points="1396.6542,-71.6666 1388.4778,-78.4044 1399.0713,-78.2361 1396.6542,-71.6666"/>
</g>
<!-- Node19 -->
<g id="node5" class="node">
<title>Node19</title>
<g id="a_node5"><a xlink:href="GeometryComponent_8cpp.html" target="_top" xlink:title="src/Engine/Component\l/GeometryComponent.cpp">
<polygon fill="#ffffff" stroke="#000000" points="1626,-6 1626,-36 1771,-36 1771,-6 1626,-6"/>
<text text-anchor="start" x="1634" y="-24" font-family="Helvetica,sans-Serif" font-size="10.00" fill="#000000">src/Engine/Component</text>
<text text-anchor="middle" x="1698.5" y="-13" font-family="Helvetica,sans-Serif" font-size="10.00" fill="#000000">/GeometryComponent.cpp</text>
</a>
</g>
</g>
<!-- Node17&#45;&gt;Node19 -->
<g id="edge5" class="edge">
<title>Node17&#45;&gt;Node19</title>
<path fill="none" stroke="#191970" d="M1419.2209,-82.8223C1475.5914,-72.0043 1550.5922,-57.0424 1616.5,-42 1624.5232,-40.1688 1632.9601,-38.1339 1641.2457,-36.072"/>
<polygon fill="#191970" stroke="#191970" points="1418.4389,-79.4084 1409.2747,-84.7252 1419.7543,-86.2837 1418.4389,-79.4084"/>
</g>
<!-- Node20 -->
<g id="node6" class="node">
<title>Node20</title>
<g id="a_node6"><a xlink:href="ItemEntry_8cpp.html" target="_top" xlink:title="src/Engine/ItemModel\l/ItemEntry.cpp">
<polygon fill="#ffffff" stroke="#000000" points="849.5,-6 849.5,-36 971.5,-36 971.5,-6 849.5,-6"/>
<text text-anchor="start" x="857.5" y="-24" font-family="Helvetica,sans-Serif" font-size="10.00" fill="#000000">src/Engine/ItemModel</text>
<text text-anchor="middle" x="910.5" y="-13" font-family="Helvetica,sans-Serif" font-size="10.00" fill="#000000">/ItemEntry.cpp</text>
</a>
</g>
</g>
<!-- Node17&#45;&gt;Node20 -->
<g id="edge6" class="edge">
<title>Node17&#45;&gt;Node20</title>
<path fill="none" stroke="#191970" d="M1245.6664,-88.0172C1174.2707,-78.2421 1070.7075,-62.35 981.5,-42 973.9806,-40.2847 966.0858,-38.2199 958.4046,-36.0636"/>
<polygon fill="#191970" stroke="#191970" points="1245.5812,-91.5377 1255.9612,-89.4149 1246.523,-84.6013 1245.5812,-91.5377"/>
</g>
<!-- Node21 -->
<g id="node7" class="node">
<title>Node21</title>
<g id="a_node7"><a xlink:href="SystemDisplay_8cpp.html" target="_top" xlink:title="src/Engine/Managers\l/SystemDisplay/SystemDisplay.cpp">
<polygon fill="#ffffff" stroke="#000000" points="1789.5,-6 1789.5,-36 1977.5,-36 1977.5,-6 1789.5,-6"/>
<text text-anchor="start" x="1797.5" y="-24" font-family="Helvetica,sans-Serif" font-size="10.00" fill="#000000">src/Engine/Managers</text>
<text text-anchor="middle" x="1883.5" y="-13" font-family="Helvetica,sans-Serif" font-size="10.00" fill="#000000">/SystemDisplay/SystemDisplay.cpp</text>
</a>
</g>
</g>
<!-- Node17&#45;&gt;Node21 -->
<g id="edge7" class="edge">
<title>Node17&#45;&gt;Node21</title>
<path fill="none" stroke="#191970" d="M1419.4586,-89.8806C1509.9265,-79.9383 1655.5527,-62.6565 1780.5,-42 1791.1232,-40.2438 1802.3207,-38.1816 1813.2635,-36.0478"/>
<polygon fill="#191970" stroke="#191970" points="1418.8091,-86.4306 1409.2489,-90.9971 1419.5702,-93.3891 1418.8091,-86.4306"/>
</g>
<!-- Node22 -->
<g id="node8" class="node">
<title>Node22</title>
<g id="a_node8"><a xlink:href="RadiumEngine_8cpp.html" target="_top" xlink:title="src/Engine/RadiumEngine.cpp">
<polygon fill="#ffffff" stroke="#000000" points="670,-11.5 670,-30.5 831,-30.5 831,-11.5 670,-11.5"/>
<text text-anchor="middle" x="750.5" y="-18.5" font-family="Helvetica,sans-Serif" font-size="10.00" fill="#000000">src/Engine/RadiumEngine.cpp</text>
</a>
</g>
</g>
<!-- Node17&#45;&gt;Node22 -->
<g id="edge8" class="edge">
<title>Node17&#45;&gt;Node22</title>
<path fill="none" stroke="#191970" d="M1245.6173,-91.949C1146.9715,-83.2457 981.434,-66.524 840.5,-42 822.796,-38.9193 803.3564,-34.5147 787.0886,-30.5342"/>
<polygon fill="#191970" stroke="#191970" points="1245.5679,-95.4579 1255.8349,-92.8429 1246.178,-88.4846 1245.5679,-95.4579"/>
</g>
<!-- Node23 -->
<g id="node9" class="node">
<title>Node23</title>
<g id="a_node9"><a xlink:href="Renderer_8cpp.html" target="_top" xlink:title="src/Engine/Renderer\l/Renderer.cpp">
<polygon fill="#ffffff" stroke="#000000" points="1996,-6 1996,-36 2109,-36 2109,-6 1996,-6"/>
<text text-anchor="start" x="2004" y="-24" font-family="Helvetica,sans-Serif" font-size="10.00" fill="#000000">src/Engine/Renderer</text>
<text text-anchor="middle" x="2052.5" y="-13" font-family="Helvetica,sans-Serif" font-size="10.00" fill="#000000">/Renderer.cpp</text>
</a>
</g>
</g>
<!-- Node17&#45;&gt;Node23 -->
<g id="edge9" class="edge">
<title>Node17&#45;&gt;Node23</title>
<path fill="none" stroke="#191970" d="M1419.3025,-93.8252C1571.4761,-84.3543 1880.3261,-63.2457 1986.5,-42 1994.1639,-40.4664 2002.1909,-38.3578 2009.9025,-36.065"/>
<polygon fill="#191970" stroke="#191970" points="1418.83,-90.3477 1409.0656,-94.4595 1419.2629,-97.3343 1418.83,-90.3477"/>
</g>
<!-- Node24 -->
<g id="node10" class="node">
<title>Node24</title>
<g id="a_node10"><a xlink:href="RenderObject_8cpp.html" target="_top" xlink:title="src/Engine/Renderer\l/RenderObject/RenderObject.cpp">
<polygon fill="#ffffff" stroke="#000000" points="990,-6 990,-36 1163,-36 1163,-6 990,-6"/>
<text text-anchor="start" x="998" y="-24" font-family="Helvetica,sans-Serif" font-size="10.00" fill="#000000">src/Engine/Renderer</text>
<text text-anchor="middle" x="1076.5" y="-13" font-family="Helvetica,sans-Serif" font-size="10.00" fill="#000000">/RenderObject/RenderObject.cpp</text>
</a>
</g>
</g>
<!-- Node17&#45;&gt;Node24 -->
<g id="edge10" class="edge">
<title>Node17&#45;&gt;Node24</title>
<path fill="none" stroke="#191970" d="M1255.25,-75.4629C1213.2121,-62.6545 1162.4601,-47.191 1125.7925,-36.0188"/>
<polygon fill="#191970" stroke="#191970" points="1254.3182,-78.8378 1264.9041,-78.4044 1256.3584,-72.1417 1254.3182,-78.8378"/>
</g>
<!-- Node25 -->
<g id="node11" class="node">
<title>Node25</title>
<g id="a_node11"><a xlink:href="RenderObjectManager_8cpp.html" target="_top" xlink:title="src/Engine/Renderer\l/RenderObject/RenderObject\lManager.cpp">
<polygon fill="#ffffff" stroke="#000000" points="1181,-.5 1181,-41.5 1334,-41.5 1334,-.5 1181,-.5"/>
<text text-anchor="start" x="1189" y="-29.5" font-family="Helvetica,sans-Serif" font-size="10.00" fill="#000000">src/Engine/Renderer</text>
<text text-anchor="start" x="1189" y="-18.5" font-family="Helvetica,sans-Serif" font-size="10.00" fill="#000000">/RenderObject/RenderObject</text>
<text text-anchor="middle" x="1257.5" y="-7.5" font-family="Helvetica,sans-Serif" font-size="10.00" fill="#000000">Manager.cpp</text>
</a>
</g>
</g>
<!-- Node17&#45;&gt;Node25 -->
<g id="edge11" class="edge">
<title>Node17&#45;&gt;Node25</title>
<path fill="none" stroke="#191970" d="M1305.2508,-70.6609C1296.0368,-61.0783 1285.9285,-50.5657 1277.394,-41.6898"/>
<polygon fill="#191970" stroke="#191970" points="1302.9473,-73.315 1312.4014,-78.0974 1307.9932,-68.4632 1302.9473,-73.315"/>
</g>
<!-- Node26 -->
<g id="node12" class="node">
<title>Node26</title>
<g id="a_node12"><a xlink:href="Gizmo_8cpp.html" target="_top" xlink:title="src/GuiBase/Viewer\l/Gizmo/Gizmo.cpp">
<polygon fill="#ffffff" stroke="#000000" points="1352,-6 1352,-36 1463,-36 1463,-6 1352,-6"/>
<text text-anchor="start" x="1360" y="-24" font-family="Helvetica,sans-Serif" font-size="10.00" fill="#000000">src/GuiBase/Viewer</text>
<text text-anchor="middle" x="1407.5" y="-13" font-family="Helvetica,sans-Serif" font-size="10.00" fill="#000000">/Gizmo/Gizmo.cpp</text>
</a>
</g>
</g>
<!-- Node17&#45;&gt;Node26 -->
<g id="edge12" class="edge">
<title>Node17&#45;&gt;Node26</title>
<path fill="none" stroke="#191970" d="M1359.712,-70.6996C1370.8972,-59.0669 1383.4059,-46.0578 1392.8194,-36.2679"/>
<polygon fill="#191970" stroke="#191970" points="1357.0068,-68.4632 1352.5986,-78.0974 1362.0527,-73.315 1357.0068,-68.4632"/>
</g>
<!-- Node27&#45;&gt;Node20 -->
<g id="edge14" class="edge">
<title>Node27&#45;&gt;Node20</title>
<path fill="none" stroke="#191970" d="M671.048,-81.8325C720.4205,-71.1913 784.2878,-56.7703 840.5,-42 847.4947,-40.1621 854.8448,-38.1015 862.0454,-36.0086"/>
<polygon fill="#191970" stroke="#191970" points="670.1,-78.4562 661.0572,-83.9769 671.5691,-85.3003 670.1,-78.4562"/>
</g>
<!-- Node27&#45;&gt;Node22 -->
<g id="edge16" class="edge">
<title>Node27&#45;&gt;Node22</title>
<path fill="none" stroke="#191970" d="M628.9569,-79.5208C661.346,-63.926 705.3889,-42.7201 730.595,-30.5839"/>
<polygon fill="#191970" stroke="#191970" points="627.2269,-76.4691 619.7352,-83.9608 630.2636,-82.7761 627.2269,-76.4691"/>
</g>
<!-- Node28 -->
<g id="node14" class="node">
<title>Node28</title>
<g id="a_node14"><a xlink:href="EntityManager_8cpp.html" target="_top" xlink:title="src/Engine/Managers\l/EntityManager/EntityManager.cpp">
<polygon fill="#ffffff" stroke="#000000" points="129,-6 129,-36 312,-36 312,-6 129,-6"/>
<text text-anchor="start" x="137" y="-24" font-family="Helvetica,sans-Serif" font-size="10.00" fill="#000000">src/Engine/Managers</text>
<text text-anchor="middle" x="220.5" y="-13" font-family="Helvetica,sans-Serif" font-size="10.00" fill="#000000">/EntityManager/EntityManager.cpp</text>
</a>
</g>
</g>
<!-- Node27&#45;&gt;Node28 -->
<g id="edge15" class="edge">
<title>Node27&#45;&gt;Node28</title>
<path fill="none" stroke="#191970" d="M507.4043,-81.8112C442.8308,-68.1245 353.3342,-49.1551 291.5495,-36.0594"/>
<polygon fill="#191970" stroke="#191970" points="507.0375,-85.3112 517.5459,-83.9608 508.489,-78.4633 507.0375,-85.3112"/>
</g>
<!-- Node29 -->
<g id="node15" class="node">
<title>Node29</title>
<g id="a_node15"><a xlink:href="BaseApplication_8cpp.html" target="_top" xlink:title="src/GuiBase/BaseApplication.cpp">
<polygon fill="#ffffff" stroke="#000000" points="330.5,-11.5 330.5,-30.5 506.5,-30.5 506.5,-11.5 330.5,-11.5"/>
<text text-anchor="middle" x="418.5" y="-18.5" font-family="Helvetica,sans-Serif" font-size="10.00" fill="#000000">src/GuiBase/BaseApplication.cpp</text>
</a>
</g>
</g>
<!-- Node27&#45;&gt;Node29 -->
<g id="edge17" class="edge">
<title>Node27&#45;&gt;Node29</title>
<path fill="none" stroke="#191970" d="M546.4822,-79.7212C512.4537,-64.1082 465.9523,-42.7722 439.3879,-30.5839"/>
<polygon fill="#191970" stroke="#191970" points="545.1737,-82.9717 555.7223,-83.9608 548.0929,-76.6094 545.1737,-82.9717"/>
</g>
<!-- Node30 -->
<g id="node16" class="node">
<title>Node30</title>
<g id="a_node16"><a xlink:href="EntityTreeModel_8cpp.html" target="_top" xlink:title="src/GuiBase/TreeModel\l/EntityTreeModel.cpp">
<polygon fill="#ffffff" stroke="#000000" points="525,-6 525,-36 652,-36 652,-6 525,-6"/>
<text text-anchor="start" x="533" y="-24" font-family="Helvetica,sans-Serif" font-size="10.00" fill="#000000">src/GuiBase/TreeModel</text>
<text text-anchor="middle" x="588.5" y="-13" font-family="Helvetica,sans-Serif" font-size="10.00" fill="#000000">/EntityTreeModel.cpp</text>
</a>
</g>
</g>
<!-- Node27&#45;&gt;Node30 -->
<g id="edge18" class="edge">
<title>Node27&#45;&gt;Node30</title>
<path fill="none" stroke="#191970" d="M588.5,-73.7875C588.5,-61.4187 588.5,-46.9264 588.5,-36.2592"/>
<polygon fill="#191970" stroke="#191970" points="585.0001,-73.9608 588.5,-83.9608 592.0001,-73.9608 585.0001,-73.9608"/>
</g>
<!-- Node31 -->
<g id="node17" class="node">
<title>Node31</title>
<g id="a_node17"><a xlink:href="Viewer_8cpp.html" target="_top" xlink:title="src/GuiBase/Viewer\l/Viewer.cpp">
<polygon fill="#ffffff" stroke="#000000" points="0,-6 0,-36 111,-36 111,-6 0,-6"/>
<text text-anchor="start" x="8" y="-24" font-family="Helvetica,sans-Serif" font-size="10.00" fill="#000000">src/GuiBase/Viewer</text>
<text text-anchor="middle" x="55.5" y="-13" font-family="Helvetica,sans-Serif" font-size="10.00" fill="#000000">/Viewer.cpp</text>
</a>
</g>
</g>
<!-- Node27&#45;&gt;Node31 -->
<g id="edge19" class="edge">
<title>Node27&#45;&gt;Node31</title>
<path fill="none" stroke="#191970" d="M486.1206,-92.3667C390.4466,-84.8028 244.0639,-69.724 119.5,-42 112.3088,-40.3995 104.781,-38.3149 97.5178,-36.0814"/>
<polygon fill="#191970" stroke="#191970" points="486.1322,-95.878 496.3734,-93.1638 486.6748,-88.8991 486.1322,-95.878"/>
</g>
</g>
</svg>
        <g id="navigator" transform="translate(0 0)" fill="#404254">
                <rect fill="#f2f5e9" fill-opacity="0.5" stroke="#606060" stroke-width=".5" x="0" y="0" width="60" height="60"/>
                <use id="zoomplus" xlink:href="#zoomPlus" x="17" y="9" onmousedown="handleZoom(evt,'in')"/>
                <use id="zoomminus" xlink:href="#zoomMin" x="42" y="9" onmousedown="handleZoom(evt,'out')"/>
                <use id="reset" xlink:href="#resetDef" x="30" y="36" onmousedown="handleReset()"/>
                <g id="arrowUp" xlink:href="#dirArrow" transform="translate(30 24)" onmousedown="handlePan(0,-1)">
                  <use xlink:href="#rim" fill="#404040">
                        <set attributeName="fill" to="#808080" begin="arrowUp.mouseover" end="arrowUp.mouseout"/>
                  </use>
                  <path fill="none" stroke="white" stroke-width="1.5" d="M0,-3.0v7 M-2.5,-0.5L0,-3.0L2.5,-0.5"/>
                </g>
                <g id="arrowRight" xlink:href="#dirArrow" transform="rotate(90) translate(36 -43)" onmousedown="handlePan(1,0)">
                  <use xlink:href="#rim" fill="#404040">
                        <set attributeName="fill" to="#808080" begin="arrowRight.mouseover" end="arrowRight.mouseout"/>
                  </use>
                  <path fill="none" stroke="white" stroke-width="1.5" d="M0,-3.0v7 M-2.5,-0.5L0,-3.0L2.5,-0.5"/>
                </g>
                <g id="arrowDown" xlink:href="#dirArrow" transform="rotate(180) translate(-30 -48)" onmousedown="handlePan(0,1)">
                  <use xlink:href="#rim" fill="#404040">
                        <set attributeName="fill" to="#808080" begin="arrowDown.mouseover" end="arrowDown.mouseout"/>
                  </use>
                  <path fill="none" stroke="white" stroke-width="1.5" d="M0,-3.0v7 M-2.5,-0.5L0,-3.0L2.5,-0.5"/>
                </g>
                <g id="arrowLeft" xlink:href="#dirArrow" transform="rotate(270) translate(-36 17)" onmousedown="handlePan(-1,0)">
                  <use xlink:href="#rim" fill="#404040">
                        <set attributeName="fill" to="#808080" begin="arrowLeft.mouseover" end="arrowLeft.mouseout"/>
                  </use>
                  <path fill="none" stroke="white" stroke-width="1.5" d="M0,-3.0v7 M-2.5,-0.5L0,-3.0L2.5,-0.5"/>
                </g>
        </g>
        <svg viewBox="0 0 15 15" width="100%" height="30px" preserveAspectRatio="xMaxYMin meet">
         <g id="arrow_out" transform="scale(0.3 0.3)">
          <a xlink:href="IndexMap_8inl__dep__incl_org.svg" target="_base">
           <rect id="button" ry="5" rx="5" y="6" x="6" height="38" width="38"
                fill="#f2f5e9" fill-opacity="0.5" stroke="#606060" stroke-width="1.0"/>
           <path id="arrow"
             d="M 11.500037,31.436501 C 11.940474,20.09759 22.043105,11.32322 32.158766,21.979434 L 37.068811,17.246167 C 37.068811,17.246167 37.088388,32 37.088388,32 L 22.160133,31.978069 C 22.160133,31.978069 26.997745,27.140456 26.997745,27.140456 C 18.528582,18.264221 13.291696,25.230495 11.500037,31.436501 z"
             style="fill:#404040;"/>
          </a>
         </g>
        </svg>
</svg>
