<?xml version="1.0" encoding="UTF-8" standalone="no"?>
<!DOCTYPE svg PUBLIC "-//W3C//DTD SVG 1.1//EN"
 "http://www.w3.org/Graphics/SVG/1.1/DTD/svg11.dtd">
<!-- Generated by graphviz version 2.40.1 (20161225.0304)
 -->
<!-- Title: Graphical Class Hierarchy Pages: 1 -->
<svg width="647pt" height="382pt"
 viewBox="0.00 0.00 647.00 382.00" xmlns="http://www.w3.org/2000/svg" xmlns:xlink="http://www.w3.org/1999/xlink">
<g id="graph0" class="graph" transform="scale(1 1) rotate(0) translate(4 378)">
<title>Graphical Class Hierarchy</title>
<polygon fill="#ffffff" stroke="transparent" points="-4,4 -4,-378 643,-378 643,4 -4,4"/>
<!-- Node0 -->
<g id="node1" class="node">
<title>Node0</title>
<g id="a_node1"><a xlink:href="structRa_1_1Core_1_1Geometry_1_1AbstractGeometry.html" target="_top" xlink:title="Ra::Core::Geometry\l::AbstractGeometry">
<polygon fill="#ffffff" stroke="#000000" points="0,-171.5 0,-201.5 113,-201.5 113,-171.5 0,-171.5"/>
<text text-anchor="start" x="8" y="-189.5" font-family="Helvetica,sans-Serif" font-size="10.00" fill="#000000">Ra::Core::Geometry</text>
<text text-anchor="middle" x="56.5" y="-178.5" font-family="Helvetica,sans-Serif" font-size="10.00" fill="#000000">::AbstractGeometry</text>
</a>
</g>
</g>
<!-- Node1 -->
<g id="node2" class="node">
<title>Node1</title>
<g id="a_node2"><a xlink:href="classRa_1_1Core_1_1Geometry_1_1AbstractVolume.html" target="_top" xlink:title="Ra::Core::Geometry\l::AbstractVolume">
<polygon fill="#ffffff" stroke="#000000" points="155,-245.5 155,-275.5 268,-275.5 268,-245.5 155,-245.5"/>
<text text-anchor="start" x="163" y="-263.5" font-family="Helvetica,sans-Serif" font-size="10.00" fill="#000000">Ra::Core::Geometry</text>
<text text-anchor="middle" x="211.5" y="-252.5" font-family="Helvetica,sans-Serif" font-size="10.00" fill="#000000">::AbstractVolume</text>
</a>
</g>
</g>
<!-- Node0&#45;&gt;Node1 -->
<g id="edge1" class="edge">
<title>Node0&#45;&gt;Node1</title>
<path fill="none" stroke="#191970" d="M97.4256,-206.0387C123.3048,-218.3939 156.244,-234.1197 180.0671,-245.4933"/>
<polygon fill="#191970" stroke="#191970" points="98.7728,-202.8035 88.2406,-201.6536 95.7569,-209.1205 98.7728,-202.8035"/>
</g>
<!-- Node5 -->
<g id="node6" class="node">
<title>Node5</title>
<g id="a_node6"><a xlink:href="classRa_1_1Core_1_1Geometry_1_1AttribArrayGeometry.html" target="_top" xlink:title="Ra::Core::Geometry\l::AttribArrayGeometry">
<polygon fill="#ffffff" stroke="#000000" points="149,-147.5 149,-177.5 274,-177.5 274,-147.5 149,-147.5"/>
<text text-anchor="start" x="157" y="-165.5" font-family="Helvetica,sans-Serif" font-size="10.00" fill="#000000">Ra::Core::Geometry</text>
<text text-anchor="middle" x="211.5" y="-154.5" font-family="Helvetica,sans-Serif" font-size="10.00" fill="#000000">::AttribArrayGeometry</text>
</a>
</g>
</g>
<!-- Node0&#45;&gt;Node5 -->
<g id="edge5" class="edge">
<title>Node0&#45;&gt;Node5</title>
<path fill="none" stroke="#191970" d="M123.2369,-176.1665C131.7618,-174.8466 140.464,-173.4991 148.9198,-172.1898"/>
<polygon fill="#191970" stroke="#191970" points="122.6828,-172.7105 113.3361,-177.6996 123.754,-179.6281 122.6828,-172.7105"/>
</g>
<!-- Node2 -->
<g id="node3" class="node">
<title>Node2</title>
<g id="a_node3"><a xlink:href="classRa_1_1Core_1_1Geometry_1_1AbstractDiscreteVolume.html" target="_top" xlink:title="Ra::Core::Geometry\l::AbstractDiscreteVolume">
<polygon fill="#ffffff" stroke="#000000" points="329.5,-294.5 329.5,-324.5 469.5,-324.5 469.5,-294.5 329.5,-294.5"/>
<text text-anchor="start" x="337.5" y="-312.5" font-family="Helvetica,sans-Serif" font-size="10.00" fill="#000000">Ra::Core::Geometry</text>
<text text-anchor="middle" x="399.5" y="-301.5" font-family="Helvetica,sans-Serif" font-size="10.00" fill="#000000">::AbstractDiscreteVolume</text>
</a>
</g>
</g>
<!-- Node1&#45;&gt;Node2 -->
<g id="edge2" class="edge">
<title>Node1&#45;&gt;Node2</title>
<path fill="none" stroke="#191970" d="M277.8809,-277.8014C298.6909,-283.2253 321.483,-289.1658 341.6545,-294.4232"/>
<polygon fill="#191970" stroke="#191970" points="278.7206,-274.4034 268.1611,-275.2681 276.9551,-281.1771 278.7206,-274.4034"/>
</g>
<!-- Node3 -->
<g id="node4" class="node">
<title>Node3</title>
<g id="a_node4"><a xlink:href="classRa_1_1Core_1_1Geometry_1_1VolumeGrid.html" target="_top" xlink:title="Discrete volume data storing values in a regular grid. ">
<polygon fill="#ffffff" stroke="#000000" points="525.5,-343.5 525.5,-373.5 638.5,-373.5 638.5,-343.5 525.5,-343.5"/>
<text text-anchor="start" x="533.5" y="-361.5" font-family="Helvetica,sans-Serif" font-size="10.00" fill="#000000">Ra::Core::Geometry</text>
<text text-anchor="middle" x="582" y="-350.5" font-family="Helvetica,sans-Serif" font-size="10.00" fill="#000000">::VolumeGrid</text>
</a>
</g>
</g>
<!-- Node2&#45;&gt;Node3 -->
<g id="edge3" class="edge">
<title>Node2&#45;&gt;Node3</title>
<path fill="none" stroke="#191970" d="M465.604,-327.2485C485.3834,-332.5591 506.8725,-338.3288 525.9406,-343.4484"/>
<polygon fill="#191970" stroke="#191970" points="466.3107,-323.8143 455.7452,-324.6014 464.4955,-330.5749 466.3107,-323.8143"/>
</g>
<!-- Node4 -->
<g id="node5" class="node">
<title>Node4</title>
<g id="a_node5"><a xlink:href="classRa_1_1Core_1_1Geometry_1_1VolumeSparse.html" target="_top" xlink:title="Ra::Core::Geometry\l::VolumeSparse">
<polygon fill="#ffffff" stroke="#000000" points="525.5,-294.5 525.5,-324.5 638.5,-324.5 638.5,-294.5 525.5,-294.5"/>
<text text-anchor="start" x="533.5" y="-312.5" font-family="Helvetica,sans-Serif" font-size="10.00" fill="#000000">Ra::Core::Geometry</text>
<text text-anchor="middle" x="582" y="-301.5" font-family="Helvetica,sans-Serif" font-size="10.00" fill="#000000">::VolumeSparse</text>
</a>
</g>
</g>
<!-- Node2&#45;&gt;Node4 -->
<g id="edge4" class="edge">
<title>Node2&#45;&gt;Node4</title>
<path fill="none" stroke="#191970" d="M479.6078,-309.5C495.0562,-309.5 510.937,-309.5 525.4433,-309.5"/>
<polygon fill="#191970" stroke="#191970" points="479.5374,-306.0001 469.5373,-309.5 479.5373,-313.0001 479.5374,-306.0001"/>
</g>
<!-- Node6 -->
<g id="node7" class="node">
<title>Node6</title>
<g id="a_node7"><a xlink:href="classRa_1_1Core_1_1Geometry_1_1IndexedGeometry.html" target="_top" xlink:title="Ra::Core::Geometry\l::IndexedGeometry\&lt; Vector1ui \&gt;">
<polygon fill="#ffffff" stroke="#000000" points="310,-245.5 310,-275.5 489,-275.5 489,-245.5 310,-245.5"/>
<text text-anchor="start" x="318" y="-263.5" font-family="Helvetica,sans-Serif" font-size="10.00" fill="#000000">Ra::Core::Geometry</text>
<text text-anchor="middle" x="399.5" y="-252.5" font-family="Helvetica,sans-Serif" font-size="10.00" fill="#000000">::IndexedGeometry&lt; Vector1ui &gt;</text>
</a>
</g>
</g>
<!-- Node5&#45;&gt;Node6 -->
<g id="edge6" class="edge">
<title>Node5&#45;&gt;Node6</title>
<path fill="none" stroke="#191970" d="M235.1715,-184.429C254.123,-200.9093 282.0682,-222.8986 310,-236.5 316.9425,-239.8806 324.428,-242.8373 332.0089,-245.4101"/>
<polygon fill="#191970" stroke="#191970" points="237.4322,-181.7558 227.6263,-177.7438 232.79,-186.9951 237.4322,-181.7558"/>
</g>
<!-- Node8 -->
<g id="node9" class="node">
<title>Node8</title>
<g id="a_node9"><a xlink:href="classRa_1_1Core_1_1Geometry_1_1IndexedGeometry.html" target="_top" xlink:title="Ra::Core::Geometry\l::IndexedGeometry\&lt; Vector2ui \&gt;">
<polygon fill="#ffffff" stroke="#000000" points="310,-196.5 310,-226.5 489,-226.5 489,-196.5 310,-196.5"/>
<text text-anchor="start" x="318" y="-214.5" font-family="Helvetica,sans-Serif" font-size="10.00" fill="#000000">Ra::Core::Geometry</text>
<text text-anchor="middle" x="399.5" y="-203.5" font-family="Helvetica,sans-Serif" font-size="10.00" fill="#000000">::IndexedGeometry&lt; Vector2ui &gt;</text>
</a>
</g>
</g>
<!-- Node5&#45;&gt;Node8 -->
<g id="edge8" class="edge">
<title>Node5&#45;&gt;Node8</title>
<path fill="none" stroke="#191970" d="M279.1143,-180.1229C299.6824,-185.4837 322.0844,-191.3225 341.9252,-196.4938"/>
<polygon fill="#191970" stroke="#191970" points="279.7433,-176.67 269.1838,-177.5346 277.9778,-183.4437 279.7433,-176.67"/>
</g>
<!-- Node10 -->
<g id="node11" class="node">
<title>Node10</title>
<g id="a_node11"><a xlink:href="classRa_1_1Core_1_1Geometry_1_1IndexedGeometry.html" target="_top" xlink:title="Ra::Core::Geometry\l::IndexedGeometry\&lt; Vector3ui \&gt;">
<polygon fill="#ffffff" stroke="#000000" points="310,-147.5 310,-177.5 489,-177.5 489,-147.5 310,-147.5"/>
<text text-anchor="start" x="318" y="-165.5" font-family="Helvetica,sans-Serif" font-size="10.00" fill="#000000">Ra::Core::Geometry</text>
<text text-anchor="middle" x="399.5" y="-154.5" font-family="Helvetica,sans-Serif" font-size="10.00" fill="#000000">::IndexedGeometry&lt; Vector3ui &gt;</text>
</a>
</g>
</g>
<!-- Node5&#45;&gt;Node10 -->
<g id="edge10" class="edge">
<title>Node5&#45;&gt;Node10</title>
<path fill="none" stroke="#191970" d="M284.1688,-162.5C292.5348,-162.5 301.1388,-162.5 309.6963,-162.5"/>
<polygon fill="#191970" stroke="#191970" points="284.1013,-159.0001 274.1013,-162.5 284.1012,-166.0001 284.1013,-159.0001"/>
</g>
<!-- Node12 -->
<g id="node13" class="node">
<title>Node12</title>
<g id="a_node13"><a xlink:href="classRa_1_1Core_1_1Geometry_1_1IndexedGeometry.html" target="_top" xlink:title="Ra::Core::Geometry\l::IndexedGeometry\&lt; T \&gt;">
<polygon fill="#ffffff" stroke="#000000" points="330,-98.5 330,-128.5 469,-128.5 469,-98.5 330,-98.5"/>
<text text-anchor="start" x="338" y="-116.5" font-family="Helvetica,sans-Serif" font-size="10.00" fill="#000000">Ra::Core::Geometry</text>
<text text-anchor="middle" x="399.5" y="-105.5" font-family="Helvetica,sans-Serif" font-size="10.00" fill="#000000">::IndexedGeometry&lt; T &gt;</text>
</a>
</g>
</g>
<!-- Node5&#45;&gt;Node12 -->
<g id="edge12" class="edge">
<title>Node5&#45;&gt;Node12</title>
<path fill="none" stroke="#191970" d="M279.1143,-144.8771C299.6824,-139.5163 322.0844,-133.6775 341.9252,-128.5062"/>
<polygon fill="#191970" stroke="#191970" points="277.9778,-141.5563 269.1838,-147.4654 279.7433,-148.33 277.9778,-141.5563"/>
</g>
<!-- Node13 -->
<g id="node14" class="node">
<title>Node13</title>
<g id="a_node14"><a xlink:href="classRa_1_1Core_1_1Geometry_1_1LineStrip.html" target="_top" xlink:title="Ra::Core::Geometry\l::LineStrip">
<polygon fill="#ffffff" stroke="#000000" points="343,-49.5 343,-79.5 456,-79.5 456,-49.5 343,-49.5"/>
<text text-anchor="start" x="351" y="-67.5" font-family="Helvetica,sans-Serif" font-size="10.00" fill="#000000">Ra::Core::Geometry</text>
<text text-anchor="middle" x="399.5" y="-56.5" font-family="Helvetica,sans-Serif" font-size="10.00" fill="#000000">::LineStrip</text>
</a>
</g>
</g>
<!-- Node5&#45;&gt;Node13 -->
<g id="edge13" class="edge">
<title>Node5&#45;&gt;Node13</title>
<path fill="none" stroke="#191970" d="M235.6068,-140.6702C254.6,-124.4974 282.3974,-103.0073 310,-89.5 320.2886,-84.4653 331.7546,-80.3003 342.9534,-76.9098"/>
<polygon fill="#191970" stroke="#191970" points="233.2952,-138.042 228.0321,-147.2371 237.8806,-143.3311 233.2952,-138.042"/>
</g>
<!-- Node14 -->
<g id="node15" class="node">
<title>Node14</title>
<g id="a_node15"><a xlink:href="classRa_1_1Core_1_1Geometry_1_1PointCloud.html" target="_top" xlink:title="Ra::Core::Geometry\l::PointCloud">
<polygon fill="#ffffff" stroke="#000000" points="343,-.5 343,-30.5 456,-30.5 456,-.5 343,-.5"/>
<text text-anchor="start" x="351" y="-18.5" font-family="Helvetica,sans-Serif" font-size="10.00" fill="#000000">Ra::Core::Geometry</text>
<text text-anchor="middle" x="399.5" y="-7.5" font-family="Helvetica,sans-Serif" font-size="10.00" fill="#000000">::PointCloud</text>
</a>
</g>
</g>
<!-- Node5&#45;&gt;Node14 -->
<g id="edge14" class="edge">
<title>Node5&#45;&gt;Node14</title>
<path fill="none" stroke="#191970" d="M224.2543,-138.6997C240.4758,-110.7273 271.1115,-64.9105 310,-39.5 319.831,-33.0762 331.3328,-28.3645 342.7532,-24.9107"/>
<polygon fill="#191970" stroke="#191970" points="221.1845,-137.0181 219.3146,-147.4466 227.2797,-140.4603 221.1845,-137.0181"/>
</g>
<!-- Node7 -->
<g id="node8" class="node">
<title>Node7</title>
<g id="a_node8"><a xlink:href="classRa_1_1Core_1_1Geometry_1_1IndexedPointCloud.html" target="_top" xlink:title="Ra::Core::Geometry\l::IndexedPointCloud">
<polygon fill="#ffffff" stroke="#000000" points="525,-245.5 525,-275.5 639,-275.5 639,-245.5 525,-245.5"/>
<text text-anchor="start" x="533" y="-263.5" font-family="Helvetica,sans-Serif" font-size="10.00" fill="#000000">Ra::Core::Geometry</text>
<text text-anchor="middle" x="582" y="-252.5" font-family="Helvetica,sans-Serif" font-size="10.00" fill="#000000">::IndexedPointCloud</text>
</a>
</g>
</g>
<!-- Node6&#45;&gt;Node7 -->
<g id="edge7" class="edge">
<title>Node6&#45;&gt;Node7</title>
<path fill="none" stroke="#191970" d="M499.4037,-260.5C508.1166,-260.5 516.7232,-260.5 524.9021,-260.5"/>
<polygon fill="#191970" stroke="#191970" points="499.1461,-257.0001 489.1461,-260.5 499.146,-264.0001 499.1461,-257.0001"/>
</g>
<!-- Node9 -->
<g id="node10" class="node">
<title>Node9</title>
<g id="a_node10"><a xlink:href="classRa_1_1Core_1_1Geometry_1_1LineMesh.html" target="_top" xlink:title="Ra::Core::Geometry\l::LineMesh">
<polygon fill="#ffffff" stroke="#000000" points="525.5,-196.5 525.5,-226.5 638.5,-226.5 638.5,-196.5 525.5,-196.5"/>
<text text-anchor="start" x="533.5" y="-214.5" font-family="Helvetica,sans-Serif" font-size="10.00" fill="#000000">Ra::Core::Geometry</text>
<text text-anchor="middle" x="582" y="-203.5" font-family="Helvetica,sans-Serif" font-size="10.00" fill="#000000">::LineMesh</text>
</a>
</g>
</g>
<!-- Node8&#45;&gt;Node9 -->
<g id="edge9" class="edge">
<title>Node8&#45;&gt;Node9</title>
<path fill="none" stroke="#191970" d="M499.2669,-211.5C508.2061,-211.5 517.0353,-211.5 525.4073,-211.5"/>
<polygon fill="#191970" stroke="#191970" points="499.1461,-208.0001 489.1461,-211.5 499.146,-215.0001 499.1461,-208.0001"/>
</g>
<!-- Node11 -->
<g id="node12" class="node">
<title>Node11</title>
<g id="a_node12"><a xlink:href="classRa_1_1Core_1_1Geometry_1_1TriangleMesh.html" target="_top" xlink:title="Ra::Core::Geometry\l::TriangleMesh">
<polygon fill="#ffffff" stroke="#000000" points="525.5,-147.5 525.5,-177.5 638.5,-177.5 638.5,-147.5 525.5,-147.5"/>
<text text-anchor="start" x="533.5" y="-165.5" font-family="Helvetica,sans-Serif" font-size="10.00" fill="#000000">Ra::Core::Geometry</text>
<text text-anchor="middle" x="582" y="-154.5" font-family="Helvetica,sans-Serif" font-size="10.00" fill="#000000">::TriangleMesh</text>
</a>
</g>
</g>
<!-- Node10&#45;&gt;Node11 -->
<g id="edge11" class="edge">
<title>Node10&#45;&gt;Node11</title>
<path fill="none" stroke="#191970" d="M499.2669,-162.5C508.2061,-162.5 517.0353,-162.5 525.4073,-162.5"/>
<polygon fill="#191970" stroke="#191970" points="499.1461,-159.0001 489.1461,-162.5 499.146,-166.0001 499.1461,-159.0001"/>
</g>
</g>
</svg>
