<?xml version="1.0" encoding="UTF-8" standalone="no"?>
<!DOCTYPE svg PUBLIC "-//W3C//DTD SVG 1.1//EN"
 "http://www.w3.org/Graphics/SVG/1.1/DTD/svg11.dtd">
<!-- Generated by graphviz version 2.40.1 (20161225.0304)
 -->
<!-- Title: Graphical Class Hierarchy Pages: 1 -->
<svg width="316pt" height="88pt"
 viewBox="0.00 0.00 316.00 88.00" xmlns="http://www.w3.org/2000/svg" xmlns:xlink="http://www.w3.org/1999/xlink">
<g id="graph0" class="graph" transform="scale(1 1) rotate(0) translate(4 84)">
<title>Graphical Class Hierarchy</title>
<polygon fill="#ffffff" stroke="transparent" points="-4,4 -4,-84 312,-84 312,4 -4,4"/>
<!-- Node0 -->
<g id="node1" class="node">
<title>Node0</title>
<g id="a_node1"><a xlink:href="classRa_1_1Core_1_1Animation_1_1KeyFrame.html" target="_top" xlink:title="Ra::Core::Animation\l::KeyFrame\&lt; Core::Vector3 \&gt;">
<polygon fill="#ffffff" stroke="#000000" points="0,-24.5 0,-54.5 158,-54.5 158,-24.5 0,-24.5"/>
<text text-anchor="start" x="8" y="-42.5" font-family="Helvetica,sans-Serif" font-size="10.00" fill="#000000">Ra::Core::Animation</text>
<text text-anchor="middle" x="79" y="-31.5" font-family="Helvetica,sans-Serif" font-size="10.00" fill="#000000">::KeyFrame&lt; Core::Vector3 &gt;</text>
</a>
</g>
</g>
<!-- Node1 -->
<g id="node2" class="node">
<title>Node1</title>
<g id="a_node2"><a xlink:href="classRa_1_1Core_1_1Animation_1_1KeyScaling.html" target="_top" xlink:title="Ra::Core::Animation\l::KeyScaling">
<polygon fill="#ffffff" stroke="#000000" points="194,-49.5 194,-79.5 308,-79.5 308,-49.5 194,-49.5"/>
<text text-anchor="start" x="202" y="-67.5" font-family="Helvetica,sans-Serif" font-size="10.00" fill="#000000">Ra::Core::Animation</text>
<text text-anchor="middle" x="251" y="-56.5" font-family="Helvetica,sans-Serif" font-size="10.00" fill="#000000">::KeyScaling</text>
</a>
</g>
</g>
<!-- Node0&#45;&gt;Node1 -->
<g id="edge1" class="edge">
<title>Node0&#45;&gt;Node1</title>
<path fill="none" stroke="#191970" d="M168.3419,-52.4857C176.9785,-53.7411 185.5701,-54.9898 193.7676,-56.1813"/>
<polygon fill="#191970" stroke="#191970" points="168.603,-48.987 158.2036,-51.0121 167.5961,-55.9142 168.603,-48.987"/>
</g>
<!-- Node2 -->
<g id="node3" class="node">
<title>Node2</title>
<g id="a_node3"><a xlink:href="classRa_1_1Core_1_1Animation_1_1KeyTranslation.html" target="_top" xlink:title="Ra::Core::Animation\l::KeyTranslation">
<polygon fill="#ffffff" stroke="#000000" points="194,-.5 194,-30.5 308,-30.5 308,-.5 194,-.5"/>
<text text-anchor="start" x="202" y="-18.5" font-family="Helvetica,sans-Serif" font-size="10.00" fill="#000000">Ra::Core::Animation</text>
<text text-anchor="middle" x="251" y="-7.5" font-family="Helvetica,sans-Serif" font-size="10.00" fill="#000000">::KeyTranslation</text>
</a>
</g>
</g>
<!-- Node0&#45;&gt;Node2 -->
<g id="edge2" class="edge">
<title>Node0&#45;&gt;Node2</title>
<path fill="none" stroke="#191970" d="M168.3419,-27.0337C176.9785,-25.8286 185.5701,-24.6298 193.7676,-23.4859"/>
<polygon fill="#191970" stroke="#191970" points="167.6239,-23.5999 158.2036,-28.4483 168.5913,-30.5327 167.6239,-23.5999"/>
</g>
</g>
</svg>
