<?xml version="1.0" encoding="UTF-8" standalone="no"?>
<!DOCTYPE svg PUBLIC "-//W3C//DTD SVG 1.1//EN"
 "http://www.w3.org/Graphics/SVG/1.1/DTD/svg11.dtd">
<!-- Generated by graphviz version 2.40.1 (20161225.0304)
 -->
<!-- Title: Graphical Class Hierarchy Pages: 1 -->
<svg width="756pt" height="66pt"
 viewBox="0.00 0.00 756.00 66.00" xmlns="http://www.w3.org/2000/svg" xmlns:xlink="http://www.w3.org/1999/xlink">
<g id="graph0" class="graph" transform="scale(1 1) rotate(0) translate(4 62)">
<title>Graphical Class Hierarchy</title>
<polygon fill="#ffffff" stroke="transparent" points="-4,4 -4,-62 752,-62 752,4 -4,4"/>
<!-- Node0 -->
<g id="node1" class="node">
<title>Node0</title>
<g id="a_node1"><a xlink:href="classRa_1_1Core_1_1Utils_1_1Observable.html" target="_top" xlink:title="Ra::Core::Utils::Observable\&lt;\&gt;">
<polygon fill="#ffffff" stroke="#000000" points="0,-19.5 0,-38.5 164,-38.5 164,-19.5 0,-19.5"/>
<text text-anchor="middle" x="82" y="-26.5" font-family="Helvetica,sans-Serif" font-size="10.00" fill="#000000">Ra::Core::Utils::Observable&lt;&gt;</text>
</a>
</g>
</g>
<!-- Node1 -->
<g id="node2" class="node">
<title>Node1</title>
<g id="a_node2"><a xlink:href="classRa_1_1Core_1_1Utils_1_1ObservableVoid.html" target="_top" xlink:title="Ra::Core::Utils::ObservableVoid">
<polygon fill="#ffffff" stroke="#000000" points="200,-19.5 200,-38.5 369,-38.5 369,-19.5 200,-19.5"/>
<text text-anchor="middle" x="284.5" y="-26.5" font-family="Helvetica,sans-Serif" font-size="10.00" fill="#000000">Ra::Core::Utils::ObservableVoid</text>
</a>
</g>
</g>
<!-- Node0&#45;&gt;Node1 -->
<g id="edge1" class="edge">
<title>Node0&#45;&gt;Node1</title>
<path fill="none" stroke="#191970" d="M174.3188,-29C182.7659,-29 191.2966,-29 199.6732,-29"/>
<polygon fill="#191970" stroke="#191970" points="174.0726,-25.5001 164.0726,-29 174.0725,-32.5001 174.0726,-25.5001"/>
</g>
<!-- Node2 -->
<g id="node3" class="node">
<title>Node2</title>
<g id="a_node3"><a xlink:href="classRa_1_1Core_1_1Utils_1_1AttribBase.html" target="_top" xlink:title="Ra::Core::Utils::AttribBase">
<polygon fill="#ffffff" stroke="#000000" points="413,-38.5 413,-57.5 556,-57.5 556,-38.5 413,-38.5"/>
<text text-anchor="middle" x="484.5" y="-45.5" font-family="Helvetica,sans-Serif" font-size="10.00" fill="#000000">Ra::Core::Utils::AttribBase</text>
</a>
</g>
</g>
<!-- Node1&#45;&gt;Node2 -->
<g id="edge2" class="edge">
<title>Node1&#45;&gt;Node2</title>
<path fill="none" stroke="#191970" d="M379.0099,-37.9784C390.4135,-39.0618 401.9126,-40.1542 412.9116,-41.1991"/>
<polygon fill="#191970" stroke="#191970" points="379.3143,-34.4917 369.0281,-37.0302 378.6523,-41.4603 379.3143,-34.4917"/>
</g>
<!-- Node4 -->
<g id="node5" class="node">
<title>Node4</title>
<g id="a_node5"><a xlink:href="classRa_1_1Gui_1_1KeyMappingManager.html" target="_top" xlink:title="Ra::Gui::KeyMappingManager">
<polygon fill="#ffffff" stroke="#000000" points="405,-.5 405,-19.5 564,-19.5 564,-.5 405,-.5"/>
<text text-anchor="middle" x="484.5" y="-7.5" font-family="Helvetica,sans-Serif" font-size="10.00" fill="#000000">Ra::Gui::KeyMappingManager</text>
</a>
</g>
</g>
<!-- Node1&#45;&gt;Node4 -->
<g id="edge4" class="edge">
<title>Node1&#45;&gt;Node4</title>
<path fill="none" stroke="#191970" d="M379.0679,-20.016C387.6543,-19.2003 396.2942,-18.3796 404.7335,-17.5778"/>
<polygon fill="#191970" stroke="#191970" points="378.6523,-16.5397 369.0281,-20.9698 379.3143,-23.5083 378.6523,-16.5397"/>
</g>
<!-- Node3 -->
<g id="node4" class="node">
<title>Node3</title>
<g id="a_node4"><a xlink:href="classRa_1_1Core_1_1Utils_1_1Attrib.html" target="_top" xlink:title="Ra::Core::Utils::Attrib\&lt; T \&gt;">
<polygon fill="#ffffff" stroke="#000000" points="600,-38.5 600,-57.5 748,-57.5 748,-38.5 600,-38.5"/>
<text text-anchor="middle" x="674" y="-45.5" font-family="Helvetica,sans-Serif" font-size="10.00" fill="#000000">Ra::Core::Utils::Attrib&lt; T &gt;</text>
</a>
</g>
</g>
<!-- Node2&#45;&gt;Node3 -->
<g id="edge3" class="edge">
<title>Node2&#45;&gt;Node3</title>
<path fill="none" stroke="#191970" d="M566.2688,-48C577.39,-48 588.7544,-48 599.7334,-48"/>
<polygon fill="#191970" stroke="#191970" points="566.1419,-44.5001 556.1418,-48 566.1418,-51.5001 566.1419,-44.5001"/>
</g>
</g>
</svg>
