<?xml version="1.0" encoding="UTF-8" standalone="no"?>
<!DOCTYPE svg PUBLIC "-//W3C//DTD SVG 1.1//EN"
 "http://www.w3.org/Graphics/SVG/1.1/DTD/svg11.dtd">
<!-- Generated by graphviz version 2.40.1 (20161225.0304)
 -->
<!-- Title: Graphical Class Hierarchy Pages: 1 -->
<svg width="943pt" height="296pt"
 viewBox="0.00 0.00 943.00 296.00" xmlns="http://www.w3.org/2000/svg" xmlns:xlink="http://www.w3.org/1999/xlink">
<g id="graph0" class="graph" transform="scale(1 1) rotate(0) translate(4 292)">
<title>Graphical Class Hierarchy</title>
<polygon fill="#ffffff" stroke="transparent" points="-4,4 -4,-292 939,-292 939,4 -4,4"/>
<!-- Node185 -->
<g id="node1" class="node">
<title>Node185</title>
<g id="a_node1"><a xlink:href="classRa_1_1Engine_1_1Displayable.html" target="_top" xlink:title="Ra::Engine::Displayable">
<polygon fill="#ffffff" stroke="#000000" points="0,-139.5 0,-158.5 132,-158.5 132,-139.5 0,-139.5"/>
<text text-anchor="middle" x="66" y="-146.5" font-family="Helvetica,sans-Serif" font-size="10.00" fill="#000000">Ra::Engine::Displayable</text>
</a>
</g>
</g>
<!-- Node186 -->
<g id="node2" class="node">
<title>Node186</title>
<g id="a_node2"><a xlink:href="classRa_1_1Engine_1_1AttribArrayDisplayable.html" target="_top" xlink:title="Ra::Engine::AttribArrayDisplayable">
<polygon fill="#ffffff" stroke="#000000" points="168,-158.5 168,-177.5 353,-177.5 353,-158.5 168,-158.5"/>
<text text-anchor="middle" x="260.5" y="-165.5" font-family="Helvetica,sans-Serif" font-size="10.00" fill="#000000">Ra::Engine::AttribArrayDisplayable</text>
</a>
</g>
</g>
<!-- Node185&#45;&gt;Node186 -->
<g id="edge1" class="edge">
<title>Node185&#45;&gt;Node186</title>
<path fill="none" stroke="#191970" d="M142.1961,-156.4433C150.5599,-157.2603 159.1418,-158.0987 167.6781,-158.9326"/>
<polygon fill="#191970" stroke="#191970" points="142.4132,-152.948 132.1202,-155.459 141.7325,-159.9148 142.4132,-152.948"/>
</g>
<!-- Node192 -->
<g id="node14" class="node">
<title>Node192</title>
<g id="a_node14"><a xlink:href="classRa_1_1Engine_1_1VolumeObject.html" target="_top" xlink:title="Ra::Engine::VolumeObject">
<polygon fill="#ffffff" stroke="#000000" points="189,-120.5 189,-139.5 332,-139.5 332,-120.5 189,-120.5"/>
<text text-anchor="middle" x="260.5" y="-127.5" font-family="Helvetica,sans-Serif" font-size="10.00" fill="#000000">Ra::Engine::VolumeObject</text>
</a>
</g>
</g>
<!-- Node185&#45;&gt;Node192 -->
<g id="edge13" class="edge">
<title>Node185&#45;&gt;Node192</title>
<path fill="none" stroke="#191970" d="M142.1166,-141.5644C157.5176,-140.06 173.6617,-138.4829 188.9008,-136.9943"/>
<polygon fill="#191970" stroke="#191970" points="141.7325,-138.0852 132.1202,-142.541 142.4132,-145.052 141.7325,-138.0852"/>
</g>
<!-- Node187 -->
<g id="node3" class="node">
<title>Node187</title>
<g id="a_node3"><a xlink:href="classRa_1_1Engine_1_1CoreGeometryDisplayable.html" target="_top" xlink:title="Ra::Engine::CoreGeometry\lDisplayable\&lt; Core::Geometry\l::LineMesh \&gt;">
<polygon fill="#ffffff" stroke="#000000" points="389,-60.5 389,-101.5 552,-101.5 552,-60.5 389,-60.5"/>
<text text-anchor="start" x="397" y="-89.5" font-family="Helvetica,sans-Serif" font-size="10.00" fill="#000000">Ra::Engine::CoreGeometry</text>
<text text-anchor="start" x="397" y="-78.5" font-family="Helvetica,sans-Serif" font-size="10.00" fill="#000000">Displayable&lt; Core::Geometry</text>
<text text-anchor="middle" x="470.5" y="-67.5" font-family="Helvetica,sans-Serif" font-size="10.00" fill="#000000">::LineMesh &gt;</text>
</a>
</g>
</g>
<!-- Node186&#45;&gt;Node187 -->
<g id="edge2" class="edge">
<title>Node186&#45;&gt;Node187</title>
<path fill="none" stroke="#191970" d="M339.8627,-155.1438C344.4157,-153.3546 348.8315,-151.3181 353,-149 373.3322,-137.6936 369.5729,-123.7993 389,-111 394.288,-107.5161 400.0346,-104.3678 405.9469,-101.5388"/>
<polygon fill="#191970" stroke="#191970" points="338.6361,-151.8649 330.3598,-158.4796 340.9546,-158.4698 338.6361,-151.8649"/>
</g>
<!-- Node188 -->
<g id="node6" class="node">
<title>Node188</title>
<g id="a_node6"><a xlink:href="classRa_1_1Engine_1_1CoreGeometryDisplayable.html" target="_top" xlink:title="Ra::Engine::CoreGeometry\lDisplayable\&lt; Core::Geometry\l::PointCloud \&gt;">
<polygon fill="#ffffff" stroke="#000000" points="389,-246.5 389,-287.5 552,-287.5 552,-246.5 389,-246.5"/>
<text text-anchor="start" x="397" y="-275.5" font-family="Helvetica,sans-Serif" font-size="10.00" fill="#000000">Ra::Engine::CoreGeometry</text>
<text text-anchor="start" x="397" y="-264.5" font-family="Helvetica,sans-Serif" font-size="10.00" fill="#000000">Displayable&lt; Core::Geometry</text>
<text text-anchor="middle" x="470.5" y="-253.5" font-family="Helvetica,sans-Serif" font-size="10.00" fill="#000000">::PointCloud &gt;</text>
</a>
</g>
</g>
<!-- Node186&#45;&gt;Node188 -->
<g id="edge5" class="edge">
<title>Node186&#45;&gt;Node188</title>
<path fill="none" stroke="#191970" d="M285.4213,-182.7333C310.9335,-197.4915 351.9796,-220.3458 389,-237 396.1501,-240.2166 403.7581,-243.3642 411.343,-246.3382"/>
<polygon fill="#191970" stroke="#191970" points="287.1638,-179.6978 276.7611,-177.6889 283.6405,-185.7465 287.1638,-179.6978"/>
</g>
<!-- Node190 -->
<g id="node8" class="node">
<title>Node190</title>
<g id="a_node8"><a xlink:href="classRa_1_1Engine_1_1CoreGeometryDisplayable.html" target="_top" xlink:title="Ra::Engine::CoreGeometry\lDisplayable\&lt; Core::Geometry\l::TriangleMesh \&gt;">
<polygon fill="#ffffff" stroke="#000000" points="389,-.5 389,-41.5 552,-41.5 552,-.5 389,-.5"/>
<text text-anchor="start" x="397" y="-29.5" font-family="Helvetica,sans-Serif" font-size="10.00" fill="#000000">Ra::Engine::CoreGeometry</text>
<text text-anchor="start" x="397" y="-18.5" font-family="Helvetica,sans-Serif" font-size="10.00" fill="#000000">Displayable&lt; Core::Geometry</text>
<text text-anchor="middle" x="470.5" y="-7.5" font-family="Helvetica,sans-Serif" font-size="10.00" fill="#000000">::TriangleMesh &gt;</text>
</a>
</g>
</g>
<!-- Node186&#45;&gt;Node190 -->
<g id="edge7" class="edge">
<title>Node186&#45;&gt;Node190</title>
<path fill="none" stroke="#191970" d="M347.4477,-153.2386C349.3774,-151.931 351.2332,-150.5207 353,-149 388.1688,-118.7305 356.2001,-83.8216 389,-51 392.5171,-47.4806 396.4817,-44.37 400.72,-41.6214"/>
<polygon fill="#191970" stroke="#191970" points="345.494,-150.3243 338.5625,-158.3371 348.9779,-156.3958 345.494,-150.3243"/>
</g>
<!-- Node191 -->
<g id="node11" class="node">
<title>Node191</title>
<g id="a_node11"><a xlink:href="classRa_1_1Engine_1_1CoreGeometryDisplayable.html" target="_top" xlink:title="Template class to manage the Displayable aspect of a Core Geomertry, such as TriangleMesh. ">
<polygon fill="#ffffff" stroke="#000000" points="397.5,-197 397.5,-227 543.5,-227 543.5,-197 397.5,-197"/>
<text text-anchor="start" x="405.5" y="-215" font-family="Helvetica,sans-Serif" font-size="10.00" fill="#000000">Ra::Engine::CoreGeometry</text>
<text text-anchor="middle" x="470.5" y="-204" font-family="Helvetica,sans-Serif" font-size="10.00" fill="#000000">Displayable&lt; T &gt;</text>
</a>
</g>
</g>
<!-- Node186&#45;&gt;Node191 -->
<g id="edge10" class="edge">
<title>Node186&#45;&gt;Node191</title>
<path fill="none" stroke="#191970" d="M315.8697,-179.6013C341.1987,-184.9083 371.5319,-191.2638 398.5971,-196.9346"/>
<polygon fill="#191970" stroke="#191970" points="316.5721,-176.1725 306.0669,-177.5473 315.1366,-183.0237 316.5721,-176.1725"/>
</g>
<!-- Node5 -->
<g id="node13" class="node">
<title>Node5</title>
<g id="a_node13"><a xlink:href="classRa_1_1Engine_1_1IndexedAttribArrayDisplayable.html" target="_top" xlink:title="Ra::Engine::IndexedAttrib\lArrayDisplayable\&lt; I \&gt;">
<polygon fill="#ffffff" stroke="#000000" points="613.5,-124 613.5,-154 753.5,-154 753.5,-124 613.5,-124"/>
<text text-anchor="start" x="621.5" y="-142" font-family="Helvetica,sans-Serif" font-size="10.00" fill="#000000">Ra::Engine::IndexedAttrib</text>
<text text-anchor="middle" x="683.5" y="-131" font-family="Helvetica,sans-Serif" font-size="10.00" fill="#000000">ArrayDisplayable&lt; I &gt;</text>
</a>
</g>
</g>
<!-- Node186&#45;&gt;Node5 -->
<g id="edge12" class="edge">
<title>Node186&#45;&gt;Node5</title>
<path fill="none" stroke="#191970" d="M363.3229,-161.5701C419.1504,-158.0104 489.3733,-153.4221 552,-149 571.8699,-147.597 593.4218,-145.9926 613.2178,-144.4858"/>
<polygon fill="#191970" stroke="#191970" points="362.8287,-158.0944 353.0712,-162.2225 363.2734,-165.0803 362.8287,-158.0944"/>
</g>
<!-- Node1 -->
<g id="node4" class="node">
<title>Node1</title>
<g id="a_node4"><a xlink:href="classRa_1_1Engine_1_1IndexedGeometry.html" target="_top" xlink:title="Ra::Engine::IndexedGeometry\l\&lt; Core::Geometry::LineMesh \&gt;">
<polygon fill="#ffffff" stroke="#000000" points="600,-66 600,-96 767,-96 767,-66 600,-66"/>
<text text-anchor="start" x="608" y="-84" font-family="Helvetica,sans-Serif" font-size="10.00" fill="#000000">Ra::Engine::IndexedGeometry</text>
<text text-anchor="middle" x="683.5" y="-73" font-family="Helvetica,sans-Serif" font-size="10.00" fill="#000000">&lt; Core::Geometry::LineMesh &gt;</text>
</a>
</g>
</g>
<!-- Node187&#45;&gt;Node1 -->
<g id="edge3" class="edge">
<title>Node187&#45;&gt;Node1</title>
<path fill="none" stroke="#191970" d="M562.5746,-81C574.9673,-81 587.6255,-81 599.8613,-81"/>
<polygon fill="#191970" stroke="#191970" points="562.2422,-77.5001 552.2422,-81 562.2422,-84.5001 562.2422,-77.5001"/>
</g>
<!-- Node2 -->
<g id="node5" class="node">
<title>Node2</title>
<g id="a_node5"><a xlink:href="classRa_1_1Engine_1_1LineMesh.html" target="_top" xlink:title="LineMesh, own a Core::Geometry::LineMesh. ">
<polygon fill="#ffffff" stroke="#000000" points="815,-71.5 815,-90.5 935,-90.5 935,-71.5 815,-71.5"/>
<text text-anchor="middle" x="875" y="-78.5" font-family="Helvetica,sans-Serif" font-size="10.00" fill="#000000">Ra::Engine::LineMesh</text>
</a>
</g>
</g>
<!-- Node1&#45;&gt;Node2 -->
<g id="edge4" class="edge">
<title>Node1&#45;&gt;Node2</title>
<path fill="none" stroke="#191970" d="M777.3863,-81C790.1007,-81 802.859,-81 814.7639,-81"/>
<polygon fill="#191970" stroke="#191970" points="777.2161,-77.5001 767.2161,-81 777.2161,-84.5001 777.2161,-77.5001"/>
</g>
<!-- Node189 -->
<g id="node7" class="node">
<title>Node189</title>
<g id="a_node7"><a xlink:href="classRa_1_1Engine_1_1PointCloud.html" target="_top" xlink:title="A PointCloud without indices. ">
<polygon fill="#ffffff" stroke="#000000" points="620,-257.5 620,-276.5 747,-276.5 747,-257.5 620,-257.5"/>
<text text-anchor="middle" x="683.5" y="-264.5" font-family="Helvetica,sans-Serif" font-size="10.00" fill="#000000">Ra::Engine::PointCloud</text>
</a>
</g>
</g>
<!-- Node188&#45;&gt;Node189 -->
<g id="edge6" class="edge">
<title>Node188&#45;&gt;Node189</title>
<path fill="none" stroke="#191970" d="M562.309,-267C581.7019,-267 601.7573,-267 619.8364,-267"/>
<polygon fill="#191970" stroke="#191970" points="562.2422,-263.5001 552.2422,-267 562.2422,-270.5001 562.2422,-263.5001"/>
</g>
<!-- Node3 -->
<g id="node9" class="node">
<title>Node3</title>
<g id="a_node9"><a xlink:href="classRa_1_1Engine_1_1IndexedGeometry.html" target="_top" xlink:title="Ra::Engine::IndexedGeometry\l\&lt; Core::Geometry::TriangleMesh \&gt;">
<polygon fill="#ffffff" stroke="#000000" points="591,-12 591,-42 776,-42 776,-12 591,-12"/>
<text text-anchor="start" x="599" y="-30" font-family="Helvetica,sans-Serif" font-size="10.00" fill="#000000">Ra::Engine::IndexedGeometry</text>
<text text-anchor="middle" x="683.5" y="-19" font-family="Helvetica,sans-Serif" font-size="10.00" fill="#000000">&lt; Core::Geometry::TriangleMesh &gt;</text>
</a>
</g>
</g>
<!-- Node190&#45;&gt;Node3 -->
<g id="edge8" class="edge">
<title>Node190&#45;&gt;Node3</title>
<path fill="none" stroke="#191970" d="M562.4292,-23.5896C571.8871,-23.856 581.5013,-24.1268 590.9657,-24.3934"/>
<polygon fill="#191970" stroke="#191970" points="562.3368,-20.0857 552.2422,-23.3026 562.1396,-27.0829 562.3368,-20.0857"/>
</g>
<!-- Node4 -->
<g id="node10" class="node">
<title>Node4</title>
<g id="a_node10"><a xlink:href="classRa_1_1Engine_1_1Mesh.html" target="_top" xlink:title="Mesh, own a Core::Geometry::TriangleMesh. ">
<polygon fill="#ffffff" stroke="#000000" points="825,-17.5 825,-36.5 925,-36.5 925,-17.5 825,-17.5"/>
<text text-anchor="middle" x="875" y="-24.5" font-family="Helvetica,sans-Serif" font-size="10.00" fill="#000000">Ra::Engine::Mesh</text>
</a>
</g>
</g>
<!-- Node3&#45;&gt;Node4 -->
<g id="edge9" class="edge">
<title>Node3&#45;&gt;Node4</title>
<path fill="none" stroke="#191970" d="M786.4023,-27C799.765,-27 812.9409,-27 824.8811,-27"/>
<polygon fill="#191970" stroke="#191970" points="786.1648,-23.5001 776.1648,-27 786.1647,-30.5001 786.1648,-23.5001"/>
</g>
<!-- Node6 -->
<g id="node12" class="node">
<title>Node6</title>
<g id="a_node12"><a xlink:href="classRa_1_1Engine_1_1IndexedGeometry.html" target="_top" xlink:title="A CoreGeometry, with indices. ">
<polygon fill="#ffffff" stroke="#000000" points="588,-183.5 588,-202.5 779,-202.5 779,-183.5 588,-183.5"/>
<text text-anchor="middle" x="683.5" y="-190.5" font-family="Helvetica,sans-Serif" font-size="10.00" fill="#000000">Ra::Engine::IndexedGeometry&lt; T &gt;</text>
</a>
</g>
</g>
<!-- Node191&#45;&gt;Node6 -->
<g id="edge11" class="edge">
<title>Node191&#45;&gt;Node6</title>
<path fill="none" stroke="#191970" d="M553.6273,-204.5849C564.7762,-203.5904 576.2846,-202.5638 587.6304,-201.5517"/>
<polygon fill="#191970" stroke="#191970" points="553.154,-201.1131 543.5045,-205.4879 553.776,-208.0854 553.154,-201.1131"/>
</g>
<!-- Node0 -->
<g id="node15" class="node">
<title>Node0</title>
<g id="a_node15"><a xlink:href="classRa_1_1Engine_1_1VaoIndices.html" target="_top" xlink:title="Concept class to ensure consistent naming of VaoIndices accross derived classes. ">
<polygon fill="#ffffff" stroke="#000000" points="407,-120.5 407,-139.5 534,-139.5 534,-120.5 407,-120.5"/>
<text text-anchor="middle" x="470.5" y="-127.5" font-family="Helvetica,sans-Serif" font-size="10.00" fill="#000000">Ra::Engine::VaoIndices</text>
</a>
</g>
</g>
<!-- Node0&#45;&gt;Node1 -->
<g id="edge14" class="edge">
<title>Node0&#45;&gt;Node1</title>
<path fill="none" stroke="#191970" d="M521.7085,-118.2196C550.608,-111.5714 587.0239,-103.194 617.9861,-96.0713"/>
<polygon fill="#191970" stroke="#191970" points="520.7819,-114.8413 511.8211,-120.4942 522.3512,-121.6631 520.7819,-114.8413"/>
</g>
<!-- Node0&#45;&gt;Node3 -->
<g id="edge15" class="edge">
<title>Node0&#45;&gt;Node3</title>
<path fill="none" stroke="#191970" d="M543.3386,-116.1908C546.3569,-114.6387 549.2613,-112.9147 552,-111 575.944,-94.2603 564.6194,-73.518 588,-56 595.4881,-50.3895 604.0664,-45.8556 612.9418,-42.1937"/>
<polygon fill="#191970" stroke="#191970" points="541.7065,-113.0861 533.994,-120.3504 544.5531,-119.4812 541.7065,-113.0861"/>
</g>
<!-- Node0&#45;&gt;Node6 -->
<g id="edge17" class="edge">
<title>Node0&#45;&gt;Node6</title>
<path fill="none" stroke="#191970" d="M512.4864,-142.4185C553.208,-154.4629 614.122,-172.4798 651.1951,-183.445"/>
<polygon fill="#191970" stroke="#191970" points="513.4322,-139.0484 502.8501,-139.5683 511.4467,-145.761 513.4322,-139.0484"/>
</g>
<!-- Node0&#45;&gt;Node5 -->
<g id="edge16" class="edge">
<title>Node0&#45;&gt;Node5</title>
<path fill="none" stroke="#191970" d="M544.2159,-133.1148C566.5542,-134.0586 591.0247,-135.0926 613.1372,-136.0269"/>
<polygon fill="#191970" stroke="#191970" points="544.2574,-129.6135 534.1185,-132.6881 543.9618,-136.6072 544.2574,-129.6135"/>
</g>
</g>
</svg>
