<?xml version="1.0" encoding="UTF-8" standalone="no"?>
<!DOCTYPE svg PUBLIC "-//W3C//DTD SVG 1.1//EN"
 "http://www.w3.org/Graphics/SVG/1.1/DTD/svg11.dtd">
<!-- Generated by graphviz version 2.40.1 (20161225.0304)
 -->
<!-- Title: Graphical Class Hierarchy Pages: 1 -->
<svg width="764pt" height="116pt"
 viewBox="0.00 0.00 764.00 115.50" xmlns="http://www.w3.org/2000/svg" xmlns:xlink="http://www.w3.org/1999/xlink">
<g id="graph0" class="graph" transform="scale(1 1) rotate(0) translate(4 111.5)">
<title>Graphical Class Hierarchy</title>
<polygon fill="#ffffff" stroke="transparent" points="-4,4 -4,-111.5 760,-111.5 760,4 -4,4"/>
<!-- Node0 -->
<g id="node1" class="node">
<title>Node0</title>
<g id="a_node1"><a xlink:href="classRa_1_1Engine_1_1ShaderParameterProvider.html" target="_top" xlink:title="Ra::Engine::ShaderParameter\lProvider">
<polygon fill="#ffffff" stroke="#000000" points="0,-22.5 0,-52.5 158,-52.5 158,-22.5 0,-22.5"/>
<text text-anchor="start" x="8" y="-40.5" font-family="Helvetica,sans-Serif" font-size="10.00" fill="#000000">Ra::Engine::ShaderParameter</text>
<text text-anchor="middle" x="79" y="-29.5" font-family="Helvetica,sans-Serif" font-size="10.00" fill="#000000">Provider</text>
</a>
</g>
</g>
<!-- Node1 -->
<g id="node2" class="node">
<title>Node1</title>
<g id="a_node2"><a xlink:href="classRa_1_1Engine_1_1Material.html" target="_top" xlink:title="Ra::Engine::Material">
<polygon fill="#ffffff" stroke="#000000" points="212.5,-50 212.5,-69 326.5,-69 326.5,-50 212.5,-50"/>
<text text-anchor="middle" x="269.5" y="-57" font-family="Helvetica,sans-Serif" font-size="10.00" fill="#000000">Ra::Engine::Material</text>
</a>
</g>
</g>
<!-- Node0&#45;&gt;Node1 -->
<g id="edge1" class="edge">
<title>Node0&#45;&gt;Node1</title>
<path fill="none" stroke="#191970" d="M168.4366,-47.8286C183.3884,-49.5553 198.5319,-51.3042 212.3861,-52.9042"/>
<polygon fill="#191970" stroke="#191970" points="168.4697,-44.3093 158.1342,-46.6389 167.6666,-51.2631 168.4697,-44.3093"/>
</g>
<!-- Node7 -->
<g id="node8" class="node">
<title>Node7</title>
<g id="a_node8"><a xlink:href="classRa_1_1Gui_1_1Gizmo_1_1UiSelectionControler.html" target="_top" xlink:title="Ra::Gui::Gizmo::UiSelection\lControler">
<polygon fill="#ffffff" stroke="#000000" points="194,-.5 194,-30.5 345,-30.5 345,-.5 194,-.5"/>
<text text-anchor="start" x="202" y="-18.5" font-family="Helvetica,sans-Serif" font-size="10.00" fill="#000000">Ra::Gui::Gizmo::UiSelection</text>
<text text-anchor="middle" x="269.5" y="-7.5" font-family="Helvetica,sans-Serif" font-size="10.00" fill="#000000">Controler</text>
</a>
</g>
</g>
<!-- Node0&#45;&gt;Node7 -->
<g id="edge7" class="edge">
<title>Node0&#45;&gt;Node7</title>
<path fill="none" stroke="#191970" d="M168.204,-27.1982C176.8224,-26.2029 185.507,-25.2 193.9742,-24.2221"/>
<polygon fill="#191970" stroke="#191970" points="167.6666,-23.7369 158.1342,-28.3611 168.4697,-30.6907 167.6666,-23.7369"/>
</g>
<!-- Node2 -->
<g id="node3" class="node">
<title>Node2</title>
<g id="a_node3"><a xlink:href="classRa_1_1Engine_1_1BlinnPhongMaterial.html" target="_top" xlink:title="Ra::Engine::BlinnPhongMaterial">
<polygon fill="#ffffff" stroke="#000000" points="381,-88 381,-107 550,-107 550,-88 381,-88"/>
<text text-anchor="middle" x="465.5" y="-95" font-family="Helvetica,sans-Serif" font-size="10.00" fill="#000000">Ra::Engine::BlinnPhongMaterial</text>
</a>
</g>
</g>
<!-- Node1&#45;&gt;Node2 -->
<g id="edge2" class="edge">
<title>Node1&#45;&gt;Node2</title>
<path fill="none" stroke="#191970" d="M328.7612,-70.9894C356.727,-76.4114 389.7091,-82.8058 416.2737,-87.9561"/>
<polygon fill="#191970" stroke="#191970" points="329.1895,-67.5073 318.7061,-69.04 327.8571,-74.3794 329.1895,-67.5073"/>
</g>
<!-- Node3 -->
<g id="node4" class="node">
<title>Node3</title>
<g id="a_node4"><a xlink:href="classRa_1_1Engine_1_1SimpleMaterial.html" target="_top" xlink:title="Ra::Engine::SimpleMaterial">
<polygon fill="#ffffff" stroke="#000000" points="391.5,-50 391.5,-69 539.5,-69 539.5,-50 391.5,-50"/>
<text text-anchor="middle" x="465.5" y="-57" font-family="Helvetica,sans-Serif" font-size="10.00" fill="#000000">Ra::Engine::SimpleMaterial</text>
</a>
</g>
</g>
<!-- Node1&#45;&gt;Node3 -->
<g id="edge3" class="edge">
<title>Node1&#45;&gt;Node3</title>
<path fill="none" stroke="#191970" d="M336.8812,-59.5C354.4622,-59.5 373.5048,-59.5 391.4128,-59.5"/>
<polygon fill="#191970" stroke="#191970" points="336.7182,-56.0001 326.7182,-59.5 336.7182,-63.0001 336.7182,-56.0001"/>
</g>
<!-- Node6 -->
<g id="node7" class="node">
<title>Node6</title>
<g id="a_node7"><a xlink:href="classRa_1_1Engine_1_1VolumetricMaterial.html" target="_top" xlink:title="Ra::Engine::VolumetricMaterial">
<polygon fill="#ffffff" stroke="#000000" points="382,-12 382,-31 549,-31 549,-12 382,-12"/>
<text text-anchor="middle" x="465.5" y="-19" font-family="Helvetica,sans-Serif" font-size="10.00" fill="#000000">Ra::Engine::VolumetricMaterial</text>
</a>
</g>
</g>
<!-- Node1&#45;&gt;Node6 -->
<g id="edge6" class="edge">
<title>Node1&#45;&gt;Node6</title>
<path fill="none" stroke="#191970" d="M328.7612,-48.0106C356.727,-42.5886 389.7091,-36.1942 416.2737,-31.0439"/>
<polygon fill="#191970" stroke="#191970" points="327.8571,-44.6206 318.7061,-49.96 329.1895,-51.4927 327.8571,-44.6206"/>
</g>
<!-- Node4 -->
<g id="node5" class="node">
<title>Node4</title>
<g id="a_node5"><a xlink:href="classRa_1_1Engine_1_1LambertianMaterial.html" target="_top" xlink:title="Ra::Engine::LambertianMaterial">
<polygon fill="#ffffff" stroke="#000000" points="586,-69 586,-88 756,-88 756,-69 586,-69"/>
<text text-anchor="middle" x="671" y="-76" font-family="Helvetica,sans-Serif" font-size="10.00" fill="#000000">Ra::Engine::LambertianMaterial</text>
</a>
</g>
</g>
<!-- Node3&#45;&gt;Node4 -->
<g id="edge4" class="edge">
<title>Node3&#45;&gt;Node4</title>
<path fill="none" stroke="#191970" d="M549.9671,-67.3096C561.7776,-68.4016 573.9212,-69.5243 585.7462,-70.6177"/>
<polygon fill="#191970" stroke="#191970" points="549.97,-63.795 539.6902,-66.3594 549.3255,-70.7653 549.97,-63.795"/>
</g>
<!-- Node5 -->
<g id="node6" class="node">
<title>Node5</title>
<g id="a_node6"><a xlink:href="classRa_1_1Engine_1_1PlainMaterial.html" target="_top" xlink:title="Ra::Engine::PlainMaterial">
<polygon fill="#ffffff" stroke="#000000" points="602,-31 602,-50 740,-50 740,-31 602,-31"/>
<text text-anchor="middle" x="671" y="-38" font-family="Helvetica,sans-Serif" font-size="10.00" fill="#000000">Ra::Engine::PlainMaterial</text>
</a>
</g>
</g>
<!-- Node3&#45;&gt;Node5 -->
<g id="edge5" class="edge">
<title>Node3&#45;&gt;Node5</title>
<path fill="none" stroke="#191970" d="M549.7634,-51.7092C567.0395,-50.1119 585.0367,-48.4479 601.7136,-46.906"/>
<polygon fill="#191970" stroke="#191970" points="549.3255,-48.2347 539.6902,-52.6406 549.97,-55.205 549.3255,-48.2347"/>
</g>
</g>
</svg>
