<?xml version="1.0" encoding="UTF-8" standalone="no"?>
<!DOCTYPE svg PUBLIC "-//W3C//DTD SVG 1.1//EN"
 "http://www.w3.org/Graphics/SVG/1.1/DTD/svg11.dtd">
<!-- Generated by graphviz version 2.40.1 (20161225.0304)
 -->
<!-- Title: Graphical Class Hierarchy Pages: 1 -->
<svg width="573pt" height="218pt"
 viewBox="0.00 0.00 573.00 218.00" xmlns="http://www.w3.org/2000/svg" xmlns:xlink="http://www.w3.org/1999/xlink">
<g id="graph0" class="graph" transform="scale(1 1) rotate(0) translate(4 214)">
<title>Graphical Class Hierarchy</title>
<polygon fill="#ffffff" stroke="transparent" points="-4,4 -4,-214 569,-214 569,4 -4,4"/>
<!-- Node0 -->
<g id="node1" class="node">
<title>Node0</title>
<g id="a_node1"><a xlink:href="classRa_1_1Engine_1_1Component.html" target="_top" xlink:title="A component is an element that can be updated by a system. It is also linked to some other components...">
<polygon fill="#ffffff" stroke="#000000" points="0,-95.5 0,-114.5 131,-114.5 131,-95.5 0,-95.5"/>
<text text-anchor="middle" x="65.5" y="-102.5" font-family="Helvetica,sans-Serif" font-size="10.00" fill="#000000">Ra::Engine::Component</text>
</a>
</g>
</g>
<!-- Node1 -->
<g id="node2" class="node">
<title>Node1</title>
<g id="a_node2"><a xlink:href="classRa_1_1Engine_1_1Camera.html" target="_top" xlink:title="A Camera is an Engine Component storing a Camera object. ">
<polygon fill="#ffffff" stroke="#000000" points="200,-190.5 200,-209.5 313,-209.5 313,-190.5 200,-190.5"/>
<text text-anchor="middle" x="256.5" y="-197.5" font-family="Helvetica,sans-Serif" font-size="10.00" fill="#000000">Ra::Engine::Camera</text>
</a>
</g>
</g>
<!-- Node0&#45;&gt;Node1 -->
<g id="edge1" class="edge">
<title>Node0&#45;&gt;Node1</title>
<path fill="none" stroke="#191970" d="M82.7479,-121.6868C101.8067,-139.165 134.1701,-166.1042 167,-181 177.2703,-185.6599 188.728,-189.1965 199.9246,-191.8744"/>
<polygon fill="#191970" stroke="#191970" points="84.8934,-118.9008 75.2025,-114.6186 80.1078,-124.0095 84.8934,-118.9008"/>
</g>
<!-- Node2 -->
<g id="node3" class="node">
<title>Node2</title>
<g id="a_node3"><a xlink:href="classRa_1_1Engine_1_1DebugComponent.html" target="_top" xlink:title="Component for debug drawing. ">
<polygon fill="#ffffff" stroke="#000000" points="175.5,-152.5 175.5,-171.5 337.5,-171.5 337.5,-152.5 175.5,-152.5"/>
<text text-anchor="middle" x="256.5" y="-159.5" font-family="Helvetica,sans-Serif" font-size="10.00" fill="#000000">Ra::Engine::DebugComponent</text>
</a>
</g>
</g>
<!-- Node0&#45;&gt;Node2 -->
<g id="edge2" class="edge">
<title>Node0&#45;&gt;Node2</title>
<path fill="none" stroke="#191970" d="M97.5919,-118.4177C117.3576,-126.3284 143.3569,-136.1063 167,-143 179.1996,-146.5571 192.5147,-149.7464 205.0567,-152.4505"/>
<polygon fill="#191970" stroke="#191970" points="98.7314,-115.103 88.1489,-114.5909 96.1023,-121.5905 98.7314,-115.103"/>
</g>
<!-- Node3 -->
<g id="node4" class="node">
<title>Node3</title>
<g id="a_node4"><a xlink:href="classRa_1_1Engine_1_1GeometryComponent.html" target="_top" xlink:title="Abstract interface of a geometric compoennet in the Engine. ">
<polygon fill="#ffffff" stroke="#000000" points="167,-114.5 167,-133.5 346,-133.5 346,-114.5 167,-114.5"/>
<text text-anchor="middle" x="256.5" y="-121.5" font-family="Helvetica,sans-Serif" font-size="10.00" fill="#000000">Ra::Engine::GeometryComponent</text>
</a>
</g>
</g>
<!-- Node0&#45;&gt;Node3 -->
<g id="edge3" class="edge">
<title>Node0&#45;&gt;Node3</title>
<path fill="none" stroke="#191970" d="M141.2911,-112.5394C149.6386,-113.3698 158.1961,-114.2211 166.6932,-115.0663"/>
<polygon fill="#191970" stroke="#191970" points="141.5287,-109.0459 131.2314,-111.5387 140.8358,-116.0115 141.5287,-109.0459"/>
</g>
<!-- Node6 -->
<g id="node7" class="node">
<title>Node6</title>
<g id="a_node7"><a xlink:href="classRa_1_1Engine_1_1Light.html" target="_top" xlink:title="Ra::Engine::Light">
<polygon fill="#ffffff" stroke="#000000" points="207.5,-76.5 207.5,-95.5 305.5,-95.5 305.5,-76.5 207.5,-76.5"/>
<text text-anchor="middle" x="256.5" y="-83.5" font-family="Helvetica,sans-Serif" font-size="10.00" fill="#000000">Ra::Engine::Light</text>
</a>
</g>
</g>
<!-- Node0&#45;&gt;Node6 -->
<g id="edge6" class="edge">
<title>Node0&#45;&gt;Node6</title>
<path fill="none" stroke="#191970" d="M141.3041,-97.4593C163.4939,-95.2519 187.1669,-92.897 207.2449,-90.8997"/>
<polygon fill="#191970" stroke="#191970" points="140.8358,-93.9885 131.2314,-98.4613 141.5287,-100.9541 140.8358,-93.9885"/>
</g>
<!-- Node10 -->
<g id="node11" class="node">
<title>Node10</title>
<g id="a_node11"><a xlink:href="classRa_1_1Engine_1_1UiComponent.html" target="_top" xlink:title="Component for UI drawing. ">
<polygon fill="#ffffff" stroke="#000000" points="186,-38.5 186,-57.5 327,-57.5 327,-38.5 186,-38.5"/>
<text text-anchor="middle" x="256.5" y="-45.5" font-family="Helvetica,sans-Serif" font-size="10.00" fill="#000000">Ra::Engine::UiComponent</text>
</a>
</g>
</g>
<!-- Node0&#45;&gt;Node10 -->
<g id="edge10" class="edge">
<title>Node0&#45;&gt;Node10</title>
<path fill="none" stroke="#191970" d="M97.5919,-91.5823C117.3576,-83.6716 143.3569,-73.8937 167,-67 179.1996,-63.4429 192.5147,-60.2536 205.0567,-57.5495"/>
<polygon fill="#191970" stroke="#191970" points="96.1023,-88.4095 88.1489,-95.4091 98.7314,-94.897 96.1023,-88.4095"/>
</g>
<!-- Node11 -->
<g id="node12" class="node">
<title>Node11</title>
<g id="a_node12"><a xlink:href="classRa_1_1Engine_1_1VolumeComponent.html" target="_top" xlink:title="Main class to convert Ra::Core::Asset::VolumeData to Ra::Engine::VolumeObject. ">
<polygon fill="#ffffff" stroke="#000000" points="173,-.5 173,-19.5 340,-19.5 340,-.5 173,-.5"/>
<text text-anchor="middle" x="256.5" y="-7.5" font-family="Helvetica,sans-Serif" font-size="10.00" fill="#000000">Ra::Engine::VolumeComponent</text>
</a>
</g>
</g>
<!-- Node0&#45;&gt;Node11 -->
<g id="edge11" class="edge">
<title>Node0&#45;&gt;Node11</title>
<path fill="none" stroke="#191970" d="M82.7479,-88.3132C101.8067,-70.835 134.1701,-43.8958 167,-29 175.5344,-25.1277 184.8889,-22.0311 194.2321,-19.5583"/>
<polygon fill="#191970" stroke="#191970" points="80.1078,-85.9905 75.2025,-95.3814 84.8934,-91.0992 80.1078,-85.9905"/>
</g>
<!-- Node4 -->
<g id="node5" class="node">
<title>Node4</title>
<g id="a_node5"><a xlink:href="classRa_1_1Engine_1_1PointCloudComponent.html" target="_top" xlink:title="Ra::Engine::PointCloudComponent">
<polygon fill="#ffffff" stroke="#000000" points="382,-164.5 382,-183.5 565,-183.5 565,-164.5 382,-164.5"/>
<text text-anchor="middle" x="473.5" y="-171.5" font-family="Helvetica,sans-Serif" font-size="10.00" fill="#000000">Ra::Engine::PointCloudComponent</text>
</a>
</g>
</g>
<!-- Node3&#45;&gt;Node4 -->
<g id="edge4" class="edge">
<title>Node3&#45;&gt;Node4</title>
<path fill="none" stroke="#191970" d="M316.3011,-135.7181C326.265,-137.9497 336.4583,-140.4058 346,-143 362.2747,-147.4248 365.7155,-150.6113 382,-155 395.0023,-158.5041 409.1916,-161.7333 422.4316,-164.4974"/>
<polygon fill="#191970" stroke="#191970" points="316.9631,-132.2802 306.4464,-133.5644 315.4685,-139.1188 316.9631,-132.2802"/>
</g>
<!-- Node5 -->
<g id="node6" class="node">
<title>Node5</title>
<g id="a_node6"><a xlink:href="classRa_1_1Engine_1_1TriangleMeshComponent.html" target="_top" xlink:title="Main class to convert Ra::Core::Asset::GeometryData to Ra::Engine::Mesh. ">
<polygon fill="#ffffff" stroke="#000000" points="404.5,-115 404.5,-145 542.5,-145 542.5,-115 404.5,-115"/>
<text text-anchor="start" x="412.5" y="-133" font-family="Helvetica,sans-Serif" font-size="10.00" fill="#000000">Ra::Engine::TriangleMesh</text>
<text text-anchor="middle" x="473.5" y="-122" font-family="Helvetica,sans-Serif" font-size="10.00" fill="#000000">Component</text>
</a>
</g>
</g>
<!-- Node3&#45;&gt;Node5 -->
<g id="edge5" class="edge">
<title>Node3&#45;&gt;Node5</title>
<path fill="none" stroke="#191970" d="M356.1296,-126.7547C372.4517,-127.206 389.0432,-127.6648 404.4135,-128.0898"/>
<polygon fill="#191970" stroke="#191970" points="356.108,-123.2529 346.015,-126.4751 355.9144,-130.2502 356.108,-123.2529"/>
</g>
<!-- Node7 -->
<g id="node8" class="node">
<title>Node7</title>
<g id="a_node8"><a xlink:href="classRa_1_1Engine_1_1DirectionalLight.html" target="_top" xlink:title="Ra::Engine::DirectionalLight">
<polygon fill="#ffffff" stroke="#000000" points="397.5,-76.5 397.5,-95.5 549.5,-95.5 549.5,-76.5 397.5,-76.5"/>
<text text-anchor="middle" x="473.5" y="-83.5" font-family="Helvetica,sans-Serif" font-size="10.00" fill="#000000">Ra::Engine::DirectionalLight</text>
</a>
</g>
</g>
<!-- Node6&#45;&gt;Node7 -->
<g id="edge7" class="edge">
<title>Node6&#45;&gt;Node7</title>
<path fill="none" stroke="#191970" d="M315.8447,-86C340.9498,-86 370.5069,-86 397.2037,-86"/>
<polygon fill="#191970" stroke="#191970" points="315.7407,-82.5001 305.7407,-86 315.7406,-89.5001 315.7407,-82.5001"/>
</g>
<!-- Node8 -->
<g id="node9" class="node">
<title>Node8</title>
<g id="a_node9"><a xlink:href="classRa_1_1Engine_1_1PointLight.html" target="_top" xlink:title="Ra::Engine::PointLight">
<polygon fill="#ffffff" stroke="#000000" points="412,-38.5 412,-57.5 535,-57.5 535,-38.5 412,-38.5"/>
<text text-anchor="middle" x="473.5" y="-45.5" font-family="Helvetica,sans-Serif" font-size="10.00" fill="#000000">Ra::Engine::PointLight</text>
</a>
</g>
</g>
<!-- Node6&#45;&gt;Node8 -->
<g id="edge8" class="edge">
<title>Node6&#45;&gt;Node8</title>
<path fill="none" stroke="#191970" d="M315.9284,-75.5932C348.1592,-69.9491 387.7091,-63.0233 419.1224,-57.5223"/>
<polygon fill="#191970" stroke="#191970" points="314.987,-72.2047 305.7407,-77.3772 316.1945,-79.0998 314.987,-72.2047"/>
</g>
<!-- Node9 -->
<g id="node10" class="node">
<title>Node9</title>
<g id="a_node10"><a xlink:href="classRa_1_1Engine_1_1SpotLight.html" target="_top" xlink:title="Ra::Engine::SpotLight">
<polygon fill="#ffffff" stroke="#000000" points="413.5,-.5 413.5,-19.5 533.5,-19.5 533.5,-.5 413.5,-.5"/>
<text text-anchor="middle" x="473.5" y="-7.5" font-family="Helvetica,sans-Serif" font-size="10.00" fill="#000000">Ra::Engine::SpotLight</text>
</a>
</g>
</g>
<!-- Node6&#45;&gt;Node9 -->
<g id="edge9" class="edge">
<title>Node6&#45;&gt;Node9</title>
<path fill="none" stroke="#191970" d="M315.7837,-78.6923C326.2594,-75.9486 336.7592,-72.1787 346,-67 366.2948,-55.6266 361.68,-40.3283 382,-29 391.4945,-23.7069 402.2867,-19.8829 413.0469,-17.1217"/>
<polygon fill="#191970" stroke="#191970" points="314.7341,-75.343 305.7891,-81.0209 316.3225,-82.1604 314.7341,-75.343"/>
</g>
</g>
</svg>
