<?xml version="1.0" encoding="UTF-8" standalone="no"?>
<!DOCTYPE svg PUBLIC "-//W3C//DTD SVG 1.1//EN"
 "http://www.w3.org/Graphics/SVG/1.1/DTD/svg11.dtd">
<!-- Generated by graphviz version 2.40.1 (20161225.0304)
 -->
<!-- Title: src/Core/Animation/KeyFrame.hpp Pages: 1 -->
<svg width="880pt" height="274pt"
 viewBox="0.00 0.00 879.50 274.00" xmlns="http://www.w3.org/2000/svg" xmlns:xlink="http://www.w3.org/1999/xlink">
<g id="graph0" class="graph" transform="scale(1 1) rotate(0) translate(4 270)">
<title>src/Core/Animation/KeyFrame.hpp</title>
<polygon fill="#ffffff" stroke="transparent" points="-4,4 -4,-270 875.5,-270 875.5,4 -4,4"/>
<!-- Node0 -->
<g id="node1" class="node">
<title>Node0</title>
<polygon fill="#bfbfbf" stroke="#000000" points="210.5,-235.5 210.5,-265.5 320.5,-265.5 320.5,-235.5 210.5,-235.5"/>
<text text-anchor="start" x="218.5" y="-253.5" font-family="Helvetica,sans-Serif" font-size="10.00" fill="#000000">src/Core/Animation</text>
<text text-anchor="middle" x="265.5" y="-242.5" font-family="Helvetica,sans-Serif" font-size="10.00" fill="#000000">/KeyFrame.hpp</text>
</g>
<!-- Node1 -->
<g id="node2" class="node">
<title>Node1</title>
<polygon fill="#ffffff" stroke="#bfbfbf" points="60.5,-174 60.5,-193 98.5,-193 98.5,-174 60.5,-174"/>
<text text-anchor="middle" x="79.5" y="-181" font-family="Helvetica,sans-Serif" font-size="10.00" fill="#000000">map</text>
</g>
<!-- Node0&#45;&gt;Node1 -->
<g id="edge1" class="edge">
<title>Node0&#45;&gt;Node1</title>
<path fill="none" stroke="#191970" d="M210.8032,-235.4741C179.9386,-226.3047 140.9668,-213.5591 107.5,-199 106.5065,-198.5678 105.5018,-198.1115 104.4936,-197.6373"/>
<polygon fill="#191970" stroke="#191970" points="106.0193,-194.4865 95.522,-193.0526 102.8339,-200.7197 106.0193,-194.4865"/>
</g>
<!-- Node2 -->
<g id="node3" class="node">
<title>Node2</title>
<polygon fill="#ffffff" stroke="#bfbfbf" points="116.5,-174 116.5,-193 148.5,-193 148.5,-174 116.5,-174"/>
<text text-anchor="middle" x="132.5" y="-181" font-family="Helvetica,sans-Serif" font-size="10.00" fill="#000000">set</text>
</g>
<!-- Node0&#45;&gt;Node2 -->
<g id="edge2" class="edge">
<title>Node0&#45;&gt;Node2</title>
<path fill="none" stroke="#191970" d="M231.4539,-235.4307C209.9493,-225.628 181.7458,-212.2448 157.5,-199 157.0854,-198.7735 156.6682,-198.5432 156.249,-198.3096"/>
<polygon fill="#191970" stroke="#191970" points="157.8069,-195.1655 147.4122,-193.1163 154.2602,-201.2005 157.8069,-195.1655"/>
</g>
<!-- Node3 -->
<g id="node4" class="node">
<title>Node3</title>
<g id="a_node4"><a xlink:href="AlignedAllocator_8hpp.html" target="_top" xlink:title="Core/Containers/AlignedAllocator.hpp">
<polygon fill="#ffffff" stroke="#000000" points="166.5,-174 166.5,-193 364.5,-193 364.5,-174 166.5,-174"/>
<text text-anchor="middle" x="265.5" y="-181" font-family="Helvetica,sans-Serif" font-size="10.00" fill="#000000">Core/Containers/AlignedAllocator.hpp</text>
</a>
</g>
</g>
<!-- Node0&#45;&gt;Node3 -->
<g id="edge3" class="edge">
<title>Node0&#45;&gt;Node3</title>
<path fill="none" stroke="#191970" d="M265.5,-235.2967C265.5,-225.7699 265.5,-213.3954 265.5,-203.1306"/>
<polygon fill="#191970" stroke="#191970" points="269.0001,-203.0549 265.5,-193.055 262.0001,-203.055 269.0001,-203.0549"/>
</g>
<!-- Node15 -->
<g id="node16" class="node">
<title>Node15</title>
<g id="a_node16"><a xlink:href="Types_8hpp.html" target="_top" xlink:title="Core/Types.hpp">
<polygon fill="#ffffff" stroke="#000000" points="414,-174 414,-193 505,-193 505,-174 414,-174"/>
<text text-anchor="middle" x="459.5" y="-181" font-family="Helvetica,sans-Serif" font-size="10.00" fill="#000000">Core/Types.hpp</text>
</a>
</g>
</g>
<!-- Node0&#45;&gt;Node15 -->
<g id="edge15" class="edge">
<title>Node0&#45;&gt;Node15</title>
<path fill="none" stroke="#191970" d="M309.0374,-235.4639C343.1556,-223.6808 390.1068,-207.4657 422.4419,-196.2984"/>
<polygon fill="#191970" stroke="#191970" points="423.6676,-199.578 431.9772,-193.0053 421.3825,-192.9615 423.6676,-199.578"/>
</g>
<!-- Node19 -->
<g id="node20" class="node">
<title>Node19</title>
<g id="a_node20"><a xlink:href="AnimationTime_8hpp.html" target="_top" xlink:title="Core/Animation/Animation\lTime.hpp">
<polygon fill="#ffffff" stroke="#000000" points="686.5,-168.5 686.5,-198.5 832.5,-198.5 832.5,-168.5 686.5,-168.5"/>
<text text-anchor="start" x="694.5" y="-186.5" font-family="Helvetica,sans-Serif" font-size="10.00" fill="#000000">Core/Animation/Animation</text>
<text text-anchor="middle" x="759.5" y="-175.5" font-family="Helvetica,sans-Serif" font-size="10.00" fill="#000000">Time.hpp</text>
</a>
</g>
</g>
<!-- Node0&#45;&gt;Node19 -->
<g id="edge20" class="edge">
<title>Node0&#45;&gt;Node19</title>
<path fill="none" stroke="#191970" d="M320.7301,-243.0093C407.1417,-231.2895 574.8658,-208.5415 676.0595,-194.8168"/>
<polygon fill="#191970" stroke="#191970" points="676.8052,-198.2478 686.2441,-193.4355 675.8644,-191.3113 676.8052,-198.2478"/>
</g>
<!-- Node4 -->
<g id="node5" class="node">
<title>Node4</title>
<g id="a_node5"><a xlink:href="RaCore_8hpp.html" target="_top" xlink:title="Core/RaCore.hpp">
<polygon fill="#ffffff" stroke="#000000" points="308.5,-112.5 308.5,-131.5 406.5,-131.5 406.5,-112.5 308.5,-112.5"/>
<text text-anchor="middle" x="357.5" y="-119.5" font-family="Helvetica,sans-Serif" font-size="10.00" fill="#000000">Core/RaCore.hpp</text>
</a>
</g>
</g>
<!-- Node3&#45;&gt;Node4 -->
<g id="edge4" class="edge">
<title>Node3&#45;&gt;Node4</title>
<path fill="none" stroke="#191970" d="M279.875,-173.8906C294.5931,-164.0519 317.6832,-148.6167 334.8589,-137.1351"/>
<polygon fill="#191970" stroke="#191970" points="336.8575,-140.0091 343.2259,-131.5419 332.9673,-134.1896 336.8575,-140.0091"/>
</g>
<!-- Node11 -->
<g id="node12" class="node">
<title>Node11</title>
<polygon fill="#ffffff" stroke="#bfbfbf" points="0,-112.5 0,-131.5 83,-131.5 83,-112.5 0,-112.5"/>
<text text-anchor="middle" x="41.5" y="-119.5" font-family="Helvetica,sans-Serif" font-size="10.00" fill="#000000">mm_malloc.h</text>
</g>
<!-- Node3&#45;&gt;Node11 -->
<g id="edge11" class="edge">
<title>Node3&#45;&gt;Node11</title>
<path fill="none" stroke="#191970" d="M230.5,-173.8906C191.5412,-163.1944 128.4907,-145.8836 86.0429,-134.2294"/>
<polygon fill="#191970" stroke="#191970" points="86.8241,-130.8144 76.2542,-131.5419 84.9707,-137.5646 86.8241,-130.8144"/>
</g>
<!-- Node12 -->
<g id="node13" class="node">
<title>Node12</title>
<polygon fill="#ffffff" stroke="#bfbfbf" points="101,-112.5 101,-131.5 154,-131.5 154,-112.5 101,-112.5"/>
<text text-anchor="middle" x="127.5" y="-119.5" font-family="Helvetica,sans-Serif" font-size="10.00" fill="#000000">cstddef</text>
</g>
<!-- Node3&#45;&gt;Node12 -->
<g id="edge12" class="edge">
<title>Node3&#45;&gt;Node12</title>
<path fill="none" stroke="#191970" d="M243.9375,-173.8906C220.9488,-163.6457 184.344,-147.3326 158.3176,-135.7339"/>
<polygon fill="#191970" stroke="#191970" points="159.4698,-132.4156 148.9111,-131.5419 156.6204,-138.8095 159.4698,-132.4156"/>
</g>
<!-- Node13 -->
<g id="node14" class="node">
<title>Node13</title>
<polygon fill="#ffffff" stroke="#bfbfbf" points="172.5,-112.5 172.5,-131.5 222.5,-131.5 222.5,-112.5 172.5,-112.5"/>
<text text-anchor="middle" x="197.5" y="-119.5" font-family="Helvetica,sans-Serif" font-size="10.00" fill="#000000">cstdint</text>
</g>
<!-- Node3&#45;&gt;Node13 -->
<g id="edge13" class="edge">
<title>Node3&#45;&gt;Node13</title>
<path fill="none" stroke="#191970" d="M254.875,-173.8906C244.4569,-164.4683 228.3636,-149.9134 215.8696,-138.6137"/>
<polygon fill="#191970" stroke="#191970" points="218.0392,-135.8568 208.2748,-131.7449 213.3438,-141.0484 218.0392,-135.8568"/>
</g>
<!-- Node14 -->
<g id="node15" class="node">
<title>Node14</title>
<polygon fill="#ffffff" stroke="#bfbfbf" points="241,-112.5 241,-131.5 290,-131.5 290,-112.5 241,-112.5"/>
<text text-anchor="middle" x="265.5" y="-119.5" font-family="Helvetica,sans-Serif" font-size="10.00" fill="#000000">cstdlib</text>
</g>
<!-- Node3&#45;&gt;Node14 -->
<g id="edge14" class="edge">
<title>Node3&#45;&gt;Node14</title>
<path fill="none" stroke="#191970" d="M265.5,-173.8906C265.5,-165.3657 265.5,-152.6392 265.5,-141.9235"/>
<polygon fill="#191970" stroke="#191970" points="269.0001,-141.7448 265.5,-131.7449 262.0001,-141.7449 269.0001,-141.7448"/>
</g>
<!-- Node5 -->
<g id="node6" class="node">
<title>Node5</title>
<g id="a_node6"><a xlink:href="CoreMacros_8hpp.html" target="_top" xlink:title="Core/CoreMacros.hpp">
<polygon fill="#ffffff" stroke="#000000" points="485.5,-56.5 485.5,-75.5 605.5,-75.5 605.5,-56.5 485.5,-56.5"/>
<text text-anchor="middle" x="545.5" y="-63.5" font-family="Helvetica,sans-Serif" font-size="10.00" fill="#000000">Core/CoreMacros.hpp</text>
</a>
</g>
</g>
<!-- Node4&#45;&gt;Node5 -->
<g id="edge5" class="edge">
<title>Node4&#45;&gt;Node5</title>
<path fill="none" stroke="#191970" d="M389.8184,-112.3733C421.3506,-102.9807 469.4621,-88.6496 503.8501,-78.4064"/>
<polygon fill="#191970" stroke="#191970" points="505.0187,-81.7103 513.6034,-75.5011 503.0203,-75.0016 505.0187,-81.7103"/>
</g>
<!-- Node6 -->
<g id="node7" class="node">
<title>Node6</title>
<polygon fill="#ffffff" stroke="#bfbfbf" points="381.5,-.5 381.5,-19.5 433.5,-19.5 433.5,-.5 381.5,-.5"/>
<text text-anchor="middle" x="407.5" y="-7.5" font-family="Helvetica,sans-Serif" font-size="10.00" fill="#000000">cassert</text>
</g>
<!-- Node5&#45;&gt;Node6 -->
<g id="edge6" class="edge">
<title>Node5&#45;&gt;Node6</title>
<path fill="none" stroke="#191970" d="M521.777,-56.3733C499.3263,-47.2629 465.4261,-33.5062 440.3745,-23.3404"/>
<polygon fill="#191970" stroke="#191970" points="441.4957,-20.0182 430.9135,-19.5011 438.8635,-26.5045 441.4957,-20.0182"/>
</g>
<!-- Node7 -->
<g id="node8" class="node">
<title>Node7</title>
<polygon fill="#ffffff" stroke="#bfbfbf" points="451.5,-.5 451.5,-19.5 497.5,-19.5 497.5,-.5 451.5,-.5"/>
<text text-anchor="middle" x="474.5" y="-7.5" font-family="Helvetica,sans-Serif" font-size="10.00" fill="#000000">cstdio</text>
</g>
<!-- Node5&#45;&gt;Node7 -->
<g id="edge7" class="edge">
<title>Node5&#45;&gt;Node7</title>
<path fill="none" stroke="#191970" d="M533.1327,-56.2455C522.5446,-47.8943 507.0936,-35.7076 494.7107,-25.9408"/>
<polygon fill="#191970" stroke="#191970" points="496.7447,-23.0875 486.7255,-19.6427 492.4097,-28.5837 496.7447,-23.0875"/>
</g>
<!-- Node8 -->
<g id="node9" class="node">
<title>Node8</title>
<polygon fill="#ffffff" stroke="#bfbfbf" points="515.5,-.5 515.5,-19.5 575.5,-19.5 575.5,-.5 515.5,-.5"/>
<text text-anchor="middle" x="545.5" y="-7.5" font-family="Helvetica,sans-Serif" font-size="10.00" fill="#000000">iostream</text>
</g>
<!-- Node5&#45;&gt;Node8 -->
<g id="edge8" class="edge">
<title>Node5&#45;&gt;Node8</title>
<path fill="none" stroke="#191970" d="M545.5,-56.2455C545.5,-48.9382 545.5,-38.6944 545.5,-29.7046"/>
<polygon fill="#191970" stroke="#191970" points="549.0001,-29.6426 545.5,-19.6427 542.0001,-29.6427 549.0001,-29.6426"/>
</g>
<!-- Node9 -->
<g id="node10" class="node">
<title>Node9</title>
<polygon fill="#ffffff" stroke="#bfbfbf" points="593.5,-.5 593.5,-19.5 649.5,-19.5 649.5,-.5 593.5,-.5"/>
<text text-anchor="middle" x="621.5" y="-7.5" font-family="Helvetica,sans-Serif" font-size="10.00" fill="#000000">sstream</text>
</g>
<!-- Node5&#45;&gt;Node9 -->
<g id="edge9" class="edge">
<title>Node5&#45;&gt;Node9</title>
<path fill="none" stroke="#191970" d="M558.7382,-56.2455C570.181,-47.814 586.9296,-35.4729 600.2475,-25.6598"/>
<polygon fill="#191970" stroke="#191970" points="602.4391,-28.3924 608.4135,-19.6427 598.2867,-22.757 602.4391,-28.3924"/>
</g>
<!-- Node10 -->
<g id="node11" class="node">
<title>Node10</title>
<polygon fill="#ffffff" stroke="#bfbfbf" points="667.5,-.5 667.5,-19.5 715.5,-19.5 715.5,-.5 667.5,-.5"/>
<text text-anchor="middle" x="691.5" y="-7.5" font-family="Helvetica,sans-Serif" font-size="10.00" fill="#000000">thread</text>
</g>
<!-- Node5&#45;&gt;Node10 -->
<g id="edge10" class="edge">
<title>Node5&#45;&gt;Node10</title>
<path fill="none" stroke="#191970" d="M570.5983,-56.3733C594.6001,-47.1671 630.9713,-33.2165 657.5524,-23.021"/>
<polygon fill="#191970" stroke="#191970" points="659.131,-26.1642 667.2144,-19.315 656.6242,-19.6285 659.131,-26.1642"/>
</g>
<!-- Node15&#45;&gt;Node4 -->
<g id="edge16" class="edge">
<title>Node15&#45;&gt;Node4</title>
<path fill="none" stroke="#191970" d="M443.5625,-173.8906C427.0949,-163.9616 401.1742,-148.333 382.0796,-136.8201"/>
<polygon fill="#191970" stroke="#191970" points="383.6966,-133.7081 373.3256,-131.5419 380.0822,-139.7027 383.6966,-133.7081"/>
</g>
<!-- Node16 -->
<g id="node17" class="node">
<title>Node16</title>
<polygon fill="#ffffff" stroke="#bfbfbf" points="425,-112.5 425,-131.5 494,-131.5 494,-112.5 425,-112.5"/>
<text text-anchor="middle" x="459.5" y="-119.5" font-family="Helvetica,sans-Serif" font-size="10.00" fill="#000000">Eigen/Core</text>
</g>
<!-- Node15&#45;&gt;Node16 -->
<g id="edge17" class="edge">
<title>Node15&#45;&gt;Node16</title>
<path fill="none" stroke="#191970" d="M459.5,-173.8906C459.5,-165.3657 459.5,-152.6392 459.5,-141.9235"/>
<polygon fill="#191970" stroke="#191970" points="463.0001,-141.7448 459.5,-131.7449 456.0001,-141.7449 463.0001,-141.7448"/>
</g>
<!-- Node17 -->
<g id="node18" class="node">
<title>Node17</title>
<polygon fill="#ffffff" stroke="#bfbfbf" points="512,-112.5 512,-131.5 607,-131.5 607,-112.5 512,-112.5"/>
<text text-anchor="middle" x="559.5" y="-119.5" font-family="Helvetica,sans-Serif" font-size="10.00" fill="#000000">Eigen/Geometry</text>
</g>
<!-- Node15&#45;&gt;Node17 -->
<g id="edge18" class="edge">
<title>Node15&#45;&gt;Node17</title>
<path fill="none" stroke="#191970" d="M475.125,-173.8906C491.2698,-163.9616 516.6822,-148.333 535.4023,-136.8201"/>
<polygon fill="#191970" stroke="#191970" points="537.3002,-139.7619 543.9847,-131.5419 533.6331,-133.7992 537.3002,-139.7619"/>
</g>
<!-- Node18 -->
<g id="node19" class="node">
<title>Node18</title>
<polygon fill="#ffffff" stroke="#bfbfbf" points="625.5,-112.5 625.5,-131.5 705.5,-131.5 705.5,-112.5 625.5,-112.5"/>
<text text-anchor="middle" x="665.5" y="-119.5" font-family="Helvetica,sans-Serif" font-size="10.00" fill="#000000">Eigen/Sparse</text>
</g>
<!-- Node15&#45;&gt;Node18 -->
<g id="edge19" class="edge">
<title>Node15&#45;&gt;Node18</title>
<path fill="none" stroke="#191970" d="M491.6875,-173.8906C527.2133,-163.2846 584.5226,-146.1753 623.5441,-134.5257"/>
<polygon fill="#191970" stroke="#191970" points="624.9577,-137.7564 633.5385,-131.5419 622.9552,-131.0489 624.9577,-137.7564"/>
</g>
<!-- Node19&#45;&gt;Node5 -->
<g id="edge21" class="edge">
<title>Node19&#45;&gt;Node5</title>
<path fill="none" stroke="#191970" d="M753.8566,-168.2787C747.0207,-151.9416 733.9487,-126.4021 714.5,-112 697.1733,-99.1692 647.1855,-86.4384 606.0376,-77.6339"/>
<polygon fill="#191970" stroke="#191970" points="606.5689,-74.1692 596.0629,-75.5383 605.1296,-81.0196 606.5689,-74.1692"/>
</g>
<!-- Node20 -->
<g id="node21" class="node">
<title>Node20</title>
<polygon fill="#ffffff" stroke="#bfbfbf" points="762,-112.5 762,-131.5 809,-131.5 809,-112.5 762,-112.5"/>
<text text-anchor="middle" x="785.5" y="-119.5" font-family="Helvetica,sans-Serif" font-size="10.00" fill="#000000">cmath</text>
</g>
<!-- Node19&#45;&gt;Node20 -->
<g id="edge22" class="edge">
<title>Node19&#45;&gt;Node20</title>
<path fill="none" stroke="#191970" d="M765.927,-168.2977C769.3857,-160.1166 773.6867,-149.943 777.3754,-141.2179"/>
<polygon fill="#191970" stroke="#191970" points="780.6668,-142.4205 781.3371,-131.8469 774.2193,-139.6947 780.6668,-142.4205"/>
</g>
<!-- Node21 -->
<g id="node22" class="node">
<title>Node21</title>
<polygon fill="#ffffff" stroke="#bfbfbf" points="827.5,-112.5 827.5,-131.5 871.5,-131.5 871.5,-112.5 827.5,-112.5"/>
<text text-anchor="middle" x="849.5" y="-119.5" font-family="Helvetica,sans-Serif" font-size="10.00" fill="#000000">limits</text>
</g>
<!-- Node19&#45;&gt;Node21 -->
<g id="edge23" class="edge">
<title>Node19&#45;&gt;Node21</title>
<path fill="none" stroke="#191970" d="M781.7472,-168.2977C795.4967,-158.9022 813.0921,-146.8787 826.9057,-137.4395"/>
<polygon fill="#191970" stroke="#191970" points="829.0768,-140.195 835.3586,-131.6633 825.1275,-134.4155 829.0768,-140.195"/>
</g>
</g>
</svg>
