<?xml version="1.0" encoding="UTF-8" standalone="no"?>
<!DOCTYPE svg PUBLIC "-//W3C//DTD SVG 1.1//EN"
 "http://www.w3.org/Graphics/SVG/1.1/DTD/svg11.dtd">
<!-- Generated by graphviz version 2.40.1 (20161225.0304)
 -->
<!-- Title: src/GuiBase/Utils/KeyMappingManager.cpp Pages: 1 -->
<!--zoomable 375 -->
<svg id="main" version="1.1" xmlns="http://www.w3.org/2000/svg" xmlns:xlink="http://www.w3.org/1999/xlink" xml:space="preserve" onload="init(evt)">
<style type="text/css"><![CDATA[
.edge:hover path { stroke: red; }
.edge:hover polygon { stroke: red; fill: red; }
]]></style>
<script type="text/javascript"><![CDATA[
var edges = document.getElementsByTagName('g');
if (edges && edges.length) {
  for (var i=0;i<edges.length;i++) {
    if (edges[i].id.substr(0,4)=='edge') {
      edges[i].setAttribute('class','edge');
    }
  }
}
]]></script>
        <defs>
                <circle id="rim" cx="0" cy="0" r="7"/>
                <circle id="rim2" cx="0" cy="0" r="3.5"/>
                <g id="zoomPlus">
                        <use xlink:href="#rim" fill="#404040">
                                <set attributeName="fill" to="#808080" begin="zoomplus.mouseover" end="zoomplus.mouseout"/>
                        </use>
                        <path d="M-4,0h8M0,-4v8" fill="none" stroke="white" stroke-width="1.5" pointer-events="none"/>
                </g>
                <g id="zoomMin">
                        <use xlink:href="#rim" fill="#404040">
                                <set attributeName="fill" to="#808080" begin="zoomminus.mouseover" end="zoomminus.mouseout"/>
                        </use>
                        <path d="M-4,0h8" fill="none" stroke="white" stroke-width="1.5" pointer-events="none"/>
                </g>
                <g id="dirArrow">
                        <path fill="none" stroke="white" stroke-width="1.5" d="M0,-3.0v7 M-2.5,-0.5L0,-3.0L2.5,-0.5"/>
                </g>
               <g id="resetDef">
                       <use xlink:href="#rim2" fill="#404040">
                               <set attributeName="fill" to="#808080" begin="reset.mouseover" end="reset.mouseout"/>
                       </use>
               </g>
        </defs>

<script type="text/javascript">
var viewWidth = 976;
var viewHeight = 375;
var sectionId = 'dynsection-0';
</script>
<script xlink:href="svgpan.js"/>
<svg id="graph" class="graph">
<g id="viewport">
<title>src/GuiBase/Utils/KeyMappingManager.cpp</title>
<polygon fill="#ffffff" stroke="transparent" points="-4,4 -4,-371 972.3851,-371 972.3851,4 -4,4"/>
<!-- Node0 -->
<g id="node1" class="node">
<title>Node0</title>
<polygon fill="#bfbfbf" stroke="#000000" points="640.8851,-336.5 640.8851,-366.5 802.8851,-366.5 802.8851,-336.5 640.8851,-336.5"/>
<text text-anchor="start" x="648.8851" y="-354.5" font-family="Helvetica,sans-Serif" font-size="10.00" fill="#000000">src/GuiBase/Utils/KeyMapping</text>
<text text-anchor="middle" x="721.8851" y="-343.5" font-family="Helvetica,sans-Serif" font-size="10.00" fill="#000000">Manager.cpp</text>
</g>
<!-- Node1 -->
<g id="node2" class="node">
<title>Node1</title>
<g id="a_node2"><a xlink:href="KeyMappingManager_8hpp.html" target="_top" xlink:title="KeyMappingManager.hpp">
<polygon fill="#ffffff" stroke="#000000" points="432.8851,-280.5 432.8851,-299.5 570.8851,-299.5 570.8851,-280.5 432.8851,-280.5"/>
<text text-anchor="middle" x="501.8851" y="-287.5" font-family="Helvetica,sans-Serif" font-size="10.00" fill="#000000">KeyMappingManager.hpp</text>
</a>
</g>
</g>
<!-- Node0&#45;&gt;Node1 -->
<g id="edge1" class="edge">
<title>Node0&#45;&gt;Node1</title>
<path fill="none" stroke="#191970" d="M668.067,-336.4554C630.5545,-325.9689 581.1261,-312.1515 545.9518,-302.3187"/>
<polygon fill="#191970" stroke="#191970" points="546.5504,-298.8519 535.9773,-299.5303 544.6657,-305.5934 546.5504,-298.8519"/>
</g>
<!-- Node17 -->
<g id="node18" class="node">
<title>Node17</title>
<g id="a_node18"><a xlink:href="Log_8hpp.html" target="_top" xlink:title="Core/Utils/Log.hpp">
<polygon fill="#ffffff" stroke="#000000" points="789.8851,-168.5 789.8851,-187.5 895.8851,-187.5 895.8851,-168.5 789.8851,-168.5"/>
<text text-anchor="middle" x="842.8851" y="-175.5" font-family="Helvetica,sans-Serif" font-size="10.00" fill="#000000">Core/Utils/Log.hpp</text>
</a>
</g>
</g>
<!-- Node0&#45;&gt;Node17 -->
<g id="edge33" class="edge">
<title>Node0&#45;&gt;Node17</title>
<path fill="none" stroke="#191970" d="M749.9043,-336.4983C779.5725,-318.8371 824.7114,-286.4501 843.8851,-244 850.3712,-229.6399 849.6013,-211.6655 847.4988,-198.1022"/>
<polygon fill="#191970" stroke="#191970" points="850.8679,-197.0857 845.5493,-187.9226 843.9928,-198.4024 850.8679,-197.0857"/>
</g>
<!-- Node25 -->
<g id="node26" class="node">
<title>Node25</title>
<g id="a_node26"><a xlink:href="Resources_8hpp.html" target="_top" xlink:title="Core/Resources/Resources.hpp">
<polygon fill="#ffffff" stroke="#000000" points="91.3851,-280.5 91.3851,-299.5 256.3851,-299.5 256.3851,-280.5 91.3851,-280.5"/>
<text text-anchor="middle" x="173.8851" y="-287.5" font-family="Helvetica,sans-Serif" font-size="10.00" fill="#000000">Core/Resources/Resources.hpp</text>
</a>
</g>
</g>
<!-- Node0&#45;&gt;Node25 -->
<g id="edge31" class="edge">
<title>Node0&#45;&gt;Node25</title>
<path fill="none" stroke="#191970" d="M640.7309,-342.3924C540.8647,-331.1848 371.6734,-312.197 266.7272,-300.4193"/>
<polygon fill="#191970" stroke="#191970" points="267.1041,-296.9397 256.7762,-299.3026 266.3234,-303.8961 267.1041,-296.9397"/>
</g>
<!-- Node26 -->
<g id="node27" class="node">
<title>Node26</title>
<polygon fill="#ffffff" stroke="#bfbfbf" points="909.3851,-280.5 909.3851,-299.5 968.3851,-299.5 968.3851,-280.5 909.3851,-280.5"/>
<text text-anchor="middle" x="938.8851" y="-287.5" font-family="Helvetica,sans-Serif" font-size="10.00" fill="#000000">QtGlobal</text>
</g>
<!-- Node0&#45;&gt;Node26 -->
<g id="edge34" class="edge">
<title>Node0&#45;&gt;Node26</title>
<path fill="none" stroke="#191970" d="M774.9693,-336.4554C813.4549,-325.5482 864.656,-311.0373 899.5259,-301.1548"/>
<polygon fill="#191970" stroke="#191970" points="900.6801,-304.4656 909.3468,-298.3714 898.7714,-297.7308 900.6801,-304.4656"/>
</g>
<!-- Node2 -->
<g id="node3" class="node">
<title>Node2</title>
<polygon fill="#ffffff" stroke="#bfbfbf" points="386.8851,-224.5 386.8851,-243.5 494.8851,-243.5 494.8851,-224.5 386.8851,-224.5"/>
<text text-anchor="middle" x="440.8851" y="-231.5" font-family="Helvetica,sans-Serif" font-size="10.00" fill="#000000">QXmlStreamWriter</text>
</g>
<!-- Node1&#45;&gt;Node2 -->
<g id="edge2" class="edge">
<title>Node1&#45;&gt;Node2</title>
<path fill="none" stroke="#191970" d="M491.2597,-280.2455C482.3378,-272.0549 469.3971,-260.1749 458.8658,-250.5069"/>
<polygon fill="#191970" stroke="#191970" points="461.1222,-247.8271 451.3887,-243.6427 456.3883,-252.9837 461.1222,-247.8271"/>
</g>
<!-- Node3 -->
<g id="node4" class="node">
<title>Node3</title>
<polygon fill="#ffffff" stroke="#bfbfbf" points="513.3851,-224.5 513.3851,-243.5 614.3851,-243.5 614.3851,-224.5 513.3851,-224.5"/>
<text text-anchor="middle" x="563.8851" y="-231.5" font-family="Helvetica,sans-Serif" font-size="10.00" fill="#000000">QtGui/QKeyEvent</text>
</g>
<!-- Node1&#45;&gt;Node3 -->
<g id="edge3" class="edge">
<title>Node1&#45;&gt;Node3</title>
<path fill="none" stroke="#191970" d="M512.6847,-280.2455C521.7528,-272.0549 534.9057,-260.1749 545.6096,-250.5069"/>
<polygon fill="#191970" stroke="#191970" points="548.1342,-252.9429 553.2093,-243.6427 543.4422,-247.7482 548.1342,-252.9429"/>
</g>
<!-- Node4 -->
<g id="node5" class="node">
<title>Node4</title>
<polygon fill="#ffffff" stroke="#bfbfbf" points="20.8851,-224.5 20.8851,-243.5 134.8851,-243.5 134.8851,-224.5 20.8851,-224.5"/>
<text text-anchor="middle" x="77.8851" y="-231.5" font-family="Helvetica,sans-Serif" font-size="10.00" fill="#000000">QtGui/QMouseEvent</text>
</g>
<!-- Node1&#45;&gt;Node4 -->
<g id="edge4" class="edge">
<title>Node1&#45;&gt;Node4</title>
<path fill="none" stroke="#191970" d="M432.8582,-281.5998C362.9011,-272.9797 251.2752,-258.934 145.043,-244.1391"/>
<polygon fill="#191970" stroke="#191970" points="145.4991,-240.6689 135.111,-242.7514 144.5305,-247.6015 145.4991,-240.6689"/>
</g>
<!-- Node5 -->
<g id="node6" class="node">
<title>Node5</title>
<polygon fill="#ffffff" stroke="#bfbfbf" points="153.3851,-224.5 153.3851,-243.5 234.3851,-243.5 234.3851,-224.5 153.3851,-224.5"/>
<text text-anchor="middle" x="193.8851" y="-231.5" font-family="Helvetica,sans-Serif" font-size="10.00" fill="#000000">QtXml/QtXml</text>
</g>
<!-- Node1&#45;&gt;Node5 -->
<g id="edge5" class="edge">
<title>Node1&#45;&gt;Node5</title>
<path fill="none" stroke="#191970" d="M446.4628,-280.4643C396.4219,-271.7761 320.4958,-258.4003 244.7319,-244.1302"/>
<polygon fill="#191970" stroke="#191970" points="245.0062,-240.6202 234.5303,-242.2031 243.7068,-247.4986 245.0062,-240.6202"/>
</g>
<!-- Node6 -->
<g id="node7" class="node">
<title>Node6</title>
<g id="a_node7"><a xlink:href="RaGuiBase_8hpp.html" target="_top" xlink:title="GuiBase/RaGuiBase.hpp">
<polygon fill="#ffffff" stroke="#000000" points="131.8851,-112.5 131.8851,-131.5 265.8851,-131.5 265.8851,-112.5 131.8851,-112.5"/>
<text text-anchor="middle" x="198.8851" y="-119.5" font-family="Helvetica,sans-Serif" font-size="10.00" fill="#000000">GuiBase/RaGuiBase.hpp</text>
</a>
</g>
</g>
<!-- Node1&#45;&gt;Node6 -->
<g id="edge6" class="edge">
<title>Node1&#45;&gt;Node6</title>
<path fill="none" stroke="#191970" d="M432.8024,-285.9551C301.1001,-277.9094 25.8618,-259.3503 11.8851,-244 -35.1272,-192.3676 76.6176,-152.9907 146.9715,-134.1878"/>
<polygon fill="#191970" stroke="#191970" points="148.2351,-137.4754 157.0274,-131.5639 146.4677,-130.7021 148.2351,-137.4754"/>
</g>
<!-- Node13 -->
<g id="node14" class="node">
<title>Node13</title>
<g id="a_node14"><a xlink:href="Index_8hpp.html" target="_top" xlink:title="Core/Utils/Index.hpp">
<polygon fill="#ffffff" stroke="#000000" points="252.8851,-224.5 252.8851,-243.5 368.8851,-243.5 368.8851,-224.5 252.8851,-224.5"/>
<text text-anchor="middle" x="310.8851" y="-231.5" font-family="Helvetica,sans-Serif" font-size="10.00" fill="#000000">Core/Utils/Index.hpp</text>
</a>
</g>
</g>
<!-- Node1&#45;&gt;Node13 -->
<g id="edge13" class="edge">
<title>Node1&#45;&gt;Node13</title>
<path fill="none" stroke="#191970" d="M469.051,-280.3733C437.0156,-270.9807 388.1364,-256.6496 353.1996,-246.4064"/>
<polygon fill="#191970" stroke="#191970" points="353.8715,-242.9561 343.2907,-243.5011 351.902,-249.6733 353.8715,-242.9561"/>
</g>
<!-- Node1&#45;&gt;Node17 -->
<g id="edge19" class="edge">
<title>Node1&#45;&gt;Node17</title>
<path fill="none" stroke="#191970" d="M571.0768,-284.1101C659.9759,-275.9375 805.1428,-260.3125 823.8851,-244 836.9294,-232.6467 841.2919,-212.9744 842.6229,-198.0528"/>
<polygon fill="#191970" stroke="#191970" points="846.1326,-197.9491 843.1435,-187.7847 839.1416,-197.5947 846.1326,-197.9491"/>
</g>
<!-- Node21 -->
<g id="node22" class="node">
<title>Node21</title>
<g id="a_node22"><a xlink:href="Observable_8hpp.html" target="_top" xlink:title="Core/Utils/Observable.hpp">
<polygon fill="#ffffff" stroke="#000000" points="670.8851,-224.5 670.8851,-243.5 814.8851,-243.5 814.8851,-224.5 670.8851,-224.5"/>
<text text-anchor="middle" x="742.8851" y="-231.5" font-family="Helvetica,sans-Serif" font-size="10.00" fill="#000000">Core/Utils/Observable.hpp</text>
</a>
</g>
</g>
<!-- Node1&#45;&gt;Node21 -->
<g id="edge25" class="edge">
<title>Node1&#45;&gt;Node21</title>
<path fill="none" stroke="#191970" d="M543.0406,-280.4369C584.1993,-270.8731 647.5901,-256.1432 691.9093,-245.845"/>
<polygon fill="#191970" stroke="#191970" points="692.951,-249.1963 701.8993,-243.5237 691.3666,-242.3779 692.951,-249.1963"/>
</g>
<!-- Node24 -->
<g id="node25" class="node">
<title>Node24</title>
<g id="a_node25"><a xlink:href="Singleton_8hpp.html" target="_top" xlink:title="Core/Utils/Singleton.hpp">
<polygon fill="#ffffff" stroke="#000000" points="478.8851,-168.5 478.8851,-187.5 612.8851,-187.5 612.8851,-168.5 478.8851,-168.5"/>
<text text-anchor="middle" x="545.8851" y="-175.5" font-family="Helvetica,sans-Serif" font-size="10.00" fill="#000000">Core/Utils/Singleton.hpp</text>
</a>
</g>
</g>
<!-- Node1&#45;&gt;Node24 -->
<g id="edge29" class="edge">
<title>Node1&#45;&gt;Node24</title>
<path fill="none" stroke="#191970" d="M540.4564,-280.4404C572.0801,-271.7303 613.1562,-258.1067 622.8851,-244 637.8625,-222.2829 608.9303,-203.3782 582.3574,-191.4332"/>
<polygon fill="#191970" stroke="#191970" points="583.7044,-188.2027 573.1325,-187.5052 580.9619,-194.6432 583.7044,-188.2027"/>
</g>
<!-- Node7 -->
<g id="node8" class="node">
<title>Node7</title>
<g id="a_node8"><a xlink:href="CoreMacros_8hpp.html" target="_top" xlink:title="Core/CoreMacros.hpp">
<polygon fill="#ffffff" stroke="#000000" points="415.8851,-56.5 415.8851,-75.5 535.8851,-75.5 535.8851,-56.5 415.8851,-56.5"/>
<text text-anchor="middle" x="475.8851" y="-63.5" font-family="Helvetica,sans-Serif" font-size="10.00" fill="#000000">Core/CoreMacros.hpp</text>
</a>
</g>
</g>
<!-- Node6&#45;&gt;Node7 -->
<g id="edge7" class="edge">
<title>Node6&#45;&gt;Node7</title>
<path fill="none" stroke="#191970" d="M246.1883,-112.4369C293.9931,-102.7724 367.8919,-87.8326 418.8959,-77.5213"/>
<polygon fill="#191970" stroke="#191970" points="419.6688,-80.9359 428.7769,-75.5237 418.2816,-74.0747 419.6688,-80.9359"/>
</g>
<!-- Node8 -->
<g id="node9" class="node">
<title>Node8</title>
<polygon fill="#ffffff" stroke="#bfbfbf" points="553.8851,-.5 553.8851,-19.5 605.8851,-19.5 605.8851,-.5 553.8851,-.5"/>
<text text-anchor="middle" x="579.8851" y="-7.5" font-family="Helvetica,sans-Serif" font-size="10.00" fill="#000000">cassert</text>
</g>
<!-- Node7&#45;&gt;Node8 -->
<g id="edge8" class="edge">
<title>Node7&#45;&gt;Node8</title>
<path fill="none" stroke="#191970" d="M494.0005,-56.2455C510.3301,-47.4527 534.5561,-34.4079 553.119,-24.4125"/>
<polygon fill="#191970" stroke="#191970" points="554.8319,-27.4654 561.9773,-19.6427 551.5132,-21.3021 554.8319,-27.4654"/>
</g>
<!-- Node9 -->
<g id="node10" class="node">
<title>Node9</title>
<polygon fill="#ffffff" stroke="#bfbfbf" points="345.8851,-.5 345.8851,-19.5 391.8851,-19.5 391.8851,-.5 345.8851,-.5"/>
<text text-anchor="middle" x="368.8851" y="-7.5" font-family="Helvetica,sans-Serif" font-size="10.00" fill="#000000">cstdio</text>
</g>
<!-- Node7&#45;&gt;Node9 -->
<g id="edge9" class="edge">
<title>Node7&#45;&gt;Node9</title>
<path fill="none" stroke="#191970" d="M457.2471,-56.2455C440.4464,-47.4527 415.5216,-34.4079 396.4233,-24.4125"/>
<polygon fill="#191970" stroke="#191970" points="397.7924,-21.1787 387.3095,-19.6427 394.5465,-27.3807 397.7924,-21.1787"/>
</g>
<!-- Node10 -->
<g id="node11" class="node">
<title>Node10</title>
<polygon fill="#ffffff" stroke="#bfbfbf" points="409.8851,-.5 409.8851,-19.5 469.8851,-19.5 469.8851,-.5 409.8851,-.5"/>
<text text-anchor="middle" x="439.8851" y="-7.5" font-family="Helvetica,sans-Serif" font-size="10.00" fill="#000000">iostream</text>
</g>
<!-- Node7&#45;&gt;Node10 -->
<g id="edge10" class="edge">
<title>Node7&#45;&gt;Node10</title>
<path fill="none" stroke="#191970" d="M469.6144,-56.2455C464.6587,-48.5367 457.6021,-37.5598 451.6075,-28.2348"/>
<polygon fill="#191970" stroke="#191970" points="454.4357,-26.1618 446.0839,-19.6427 448.5474,-29.9471 454.4357,-26.1618"/>
</g>
<!-- Node11 -->
<g id="node12" class="node">
<title>Node11</title>
<polygon fill="#ffffff" stroke="#bfbfbf" points="687.8851,-.5 687.8851,-19.5 743.8851,-19.5 743.8851,-.5 687.8851,-.5"/>
<text text-anchor="middle" x="715.8851" y="-7.5" font-family="Helvetica,sans-Serif" font-size="10.00" fill="#000000">sstream</text>
</g>
<!-- Node7&#45;&gt;Node11 -->
<g id="edge11" class="edge">
<title>Node7&#45;&gt;Node11</title>
<path fill="none" stroke="#191970" d="M516.8699,-56.4369C561.9855,-45.9099 633.925,-29.124 677.8353,-18.8783"/>
<polygon fill="#191970" stroke="#191970" points="678.8842,-22.2276 687.8272,-16.5468 677.2935,-15.4108 678.8842,-22.2276"/>
</g>
<!-- Node12 -->
<g id="node13" class="node">
<title>Node12</title>
<polygon fill="#ffffff" stroke="#bfbfbf" points="487.8851,-.5 487.8851,-19.5 535.8851,-19.5 535.8851,-.5 487.8851,-.5"/>
<text text-anchor="middle" x="511.8851" y="-7.5" font-family="Helvetica,sans-Serif" font-size="10.00" fill="#000000">thread</text>
</g>
<!-- Node7&#45;&gt;Node12 -->
<g id="edge12" class="edge">
<title>Node7&#45;&gt;Node12</title>
<path fill="none" stroke="#191970" d="M482.1558,-56.2455C487.1115,-48.5367 494.1681,-37.5598 500.1627,-28.2348"/>
<polygon fill="#191970" stroke="#191970" points="503.2227,-29.9471 505.6862,-19.6427 497.3345,-26.1618 503.2227,-29.9471"/>
</g>
<!-- Node14 -->
<g id="node15" class="node">
<title>Node14</title>
<g id="a_node15"><a xlink:href="RaCore_8hpp.html" target="_top" xlink:title="Core/RaCore.hpp">
<polygon fill="#ffffff" stroke="#000000" points="426.8851,-112.5 426.8851,-131.5 524.8851,-131.5 524.8851,-112.5 426.8851,-112.5"/>
<text text-anchor="middle" x="475.8851" y="-119.5" font-family="Helvetica,sans-Serif" font-size="10.00" fill="#000000">Core/RaCore.hpp</text>
</a>
</g>
</g>
<!-- Node13&#45;&gt;Node14 -->
<g id="edge14" class="edge">
<title>Node13&#45;&gt;Node14</title>
<path fill="none" stroke="#191970" d="M324.9529,-224.4509C353.5689,-205.0268 418.7681,-160.7703 453.3604,-137.2895"/>
<polygon fill="#191970" stroke="#191970" points="455.5446,-140.037 461.8529,-131.5249 451.6132,-134.2453 455.5446,-140.037"/>
</g>
<!-- Node15 -->
<g id="node16" class="node">
<title>Node15</title>
<polygon fill="#ffffff" stroke="#bfbfbf" points="193.8851,-168.5 193.8851,-187.5 237.8851,-187.5 237.8851,-168.5 193.8851,-168.5"/>
<text text-anchor="middle" x="215.8851" y="-175.5" font-family="Helvetica,sans-Serif" font-size="10.00" fill="#000000">limits</text>
</g>
<!-- Node13&#45;&gt;Node15 -->
<g id="edge16" class="edge">
<title>Node13&#45;&gt;Node15</title>
<path fill="none" stroke="#191970" d="M294.3373,-224.2455C279.6252,-215.5731 257.8963,-202.7645 241.0346,-192.825"/>
<polygon fill="#191970" stroke="#191970" points="242.6352,-189.7057 232.2432,-187.6427 239.0805,-195.736 242.6352,-189.7057"/>
</g>
<!-- Node16 -->
<g id="node17" class="node">
<title>Node16</title>
<g id="a_node17"><a xlink:href="Index_8inl.html" target="_top" xlink:title="Core/Utils/Index.inl">
<polygon fill="#ffffff" stroke="#000000" points="255.8851,-168.5 255.8851,-187.5 365.8851,-187.5 365.8851,-168.5 255.8851,-168.5"/>
<text text-anchor="middle" x="310.8851" y="-175.5" font-family="Helvetica,sans-Serif" font-size="10.00" fill="#000000">Core/Utils/Index.inl</text>
</a>
</g>
</g>
<!-- Node13&#45;&gt;Node16 -->
<g id="edge17" class="edge">
<title>Node13&#45;&gt;Node16</title>
<path fill="none" stroke="#191970" d="M305.6182,-224.2455C304.2072,-216.9382 303.803,-206.6944 304.4056,-197.7046"/>
<polygon fill="#191970" stroke="#191970" points="307.8962,-197.9945 305.6399,-187.6427 300.9483,-197.1421 307.8962,-197.9945"/>
</g>
<!-- Node14&#45;&gt;Node7 -->
<g id="edge15" class="edge">
<title>Node14&#45;&gt;Node7</title>
<path fill="none" stroke="#191970" d="M475.8851,-112.2455C475.8851,-104.9382 475.8851,-94.6944 475.8851,-85.7046"/>
<polygon fill="#191970" stroke="#191970" points="479.3852,-85.6426 475.8851,-75.6427 472.3852,-85.6427 479.3852,-85.6426"/>
</g>
<!-- Node16&#45;&gt;Node13 -->
<g id="edge18" class="edge">
<title>Node16&#45;&gt;Node13</title>
<path fill="none" stroke="#191970" d="M316.1302,-187.6427C317.5515,-194.9199 317.9661,-205.155 317.3737,-214.1575"/>
<polygon fill="#191970" stroke="#191970" points="313.8798,-213.8972 316.1519,-224.2455 320.829,-214.739 313.8798,-213.8972"/>
</g>
<!-- Node17&#45;&gt;Node11 -->
<g id="edge22" class="edge">
<title>Node17&#45;&gt;Node11</title>
<path fill="none" stroke="#191970" d="M841.7435,-168.4006C839.7993,-154.9538 834.9267,-130.1259 823.8851,-112 801.6587,-75.5132 762.9744,-43.5366 738.4388,-25.5114"/>
<polygon fill="#191970" stroke="#191970" points="740.2601,-22.5103 730.0962,-19.5192 736.1764,-28.1957 740.2601,-22.5103"/>
</g>
<!-- Node17&#45;&gt;Node14 -->
<g id="edge20" class="edge">
<title>Node17&#45;&gt;Node14</title>
<path fill="none" stroke="#191970" d="M789.7909,-169.3998C786.7784,-168.9233 783.7937,-168.4539 780.8851,-168 695.431,-154.6648 596.4036,-139.8466 534.9426,-130.7243"/>
<polygon fill="#191970" stroke="#191970" points="535.4413,-127.2601 525.036,-129.255 534.4143,-134.1843 535.4413,-127.2601"/>
</g>
<!-- Node18 -->
<g id="node19" class="node">
<title>Node18</title>
<polygon fill="#ffffff" stroke="#bfbfbf" points="870.8851,-112.5 870.8851,-131.5 914.8851,-131.5 914.8851,-112.5 870.8851,-112.5"/>
<text text-anchor="middle" x="892.8851" y="-119.5" font-family="Helvetica,sans-Serif" font-size="10.00" fill="#000000">ctime</text>
</g>
<!-- Node17&#45;&gt;Node18 -->
<g id="edge21" class="edge">
<title>Node17&#45;&gt;Node18</title>
<path fill="none" stroke="#191970" d="M851.5944,-168.2455C858.6924,-160.2958 868.8935,-148.8706 877.3801,-139.3656"/>
<polygon fill="#191970" stroke="#191970" points="880.2262,-141.4331 884.2756,-131.6427 875.0046,-136.771 880.2262,-141.4331"/>
</g>
<!-- Node19 -->
<g id="node20" class="node">
<title>Node19</title>
<polygon fill="#ffffff" stroke="#bfbfbf" points="702.8851,-112.5 702.8851,-131.5 752.8851,-131.5 752.8851,-112.5 702.8851,-112.5"/>
<text text-anchor="middle" x="727.8851" y="-119.5" font-family="Helvetica,sans-Serif" font-size="10.00" fill="#000000">stdio.h</text>
</g>
<!-- Node17&#45;&gt;Node19 -->
<g id="edge23" class="edge">
<title>Node17&#45;&gt;Node19</title>
<path fill="none" stroke="#191970" d="M823.1159,-168.3733C804.7382,-159.4241 777.1538,-145.9917 756.3958,-135.8835"/>
<polygon fill="#191970" stroke="#191970" points="757.9194,-132.7325 747.3963,-131.5011 754.8547,-139.026 757.9194,-132.7325"/>
</g>
<!-- Node20 -->
<g id="node21" class="node">
<title>Node20</title>
<polygon fill="#ffffff" stroke="#bfbfbf" points="770.8851,-112.5 770.8851,-131.5 814.8851,-131.5 814.8851,-112.5 770.8851,-112.5"/>
<text text-anchor="middle" x="792.8851" y="-119.5" font-family="Helvetica,sans-Serif" font-size="10.00" fill="#000000">string</text>
</g>
<!-- Node17&#45;&gt;Node20 -->
<g id="edge24" class="edge">
<title>Node17&#45;&gt;Node20</title>
<path fill="none" stroke="#191970" d="M834.1758,-168.2455C827.0778,-160.2958 816.8767,-148.8706 808.3901,-139.3656"/>
<polygon fill="#191970" stroke="#191970" points="810.7656,-136.771 801.4946,-131.6427 805.544,-141.4331 810.7656,-136.771"/>
</g>
<!-- Node21&#45;&gt;Node17 -->
<g id="edge26" class="edge">
<title>Node21&#45;&gt;Node17</title>
<path fill="none" stroke="#191970" d="M760.3038,-224.2455C775.9336,-215.4928 799.0869,-202.527 816.9036,-192.5496"/>
<polygon fill="#191970" stroke="#191970" points="818.6511,-195.5825 825.666,-187.6427 815.2308,-189.475 818.6511,-195.5825"/>
</g>
<!-- Node22 -->
<g id="node23" class="node">
<title>Node22</title>
<polygon fill="#ffffff" stroke="#bfbfbf" points="706.3851,-168.5 706.3851,-187.5 771.3851,-187.5 771.3851,-168.5 706.3851,-168.5"/>
<text text-anchor="middle" x="738.8851" y="-175.5" font-family="Helvetica,sans-Serif" font-size="10.00" fill="#000000">functional</text>
</g>
<!-- Node21&#45;&gt;Node22 -->
<g id="edge27" class="edge">
<title>Node21&#45;&gt;Node22</title>
<path fill="none" stroke="#191970" d="M742.1883,-224.2455C741.6664,-216.9382 740.9347,-206.6944 740.2926,-197.7046"/>
<polygon fill="#191970" stroke="#191970" points="743.7775,-197.3679 739.5738,-187.6427 736.7953,-197.8667 743.7775,-197.3679"/>
</g>
<!-- Node23 -->
<g id="node24" class="node">
<title>Node23</title>
<polygon fill="#ffffff" stroke="#bfbfbf" points="649.8851,-168.5 649.8851,-187.5 687.8851,-187.5 687.8851,-168.5 649.8851,-168.5"/>
<text text-anchor="middle" x="668.8851" y="-175.5" font-family="Helvetica,sans-Serif" font-size="10.00" fill="#000000">map</text>
</g>
<!-- Node21&#45;&gt;Node23 -->
<g id="edge28" class="edge">
<title>Node21&#45;&gt;Node23</title>
<path fill="none" stroke="#191970" d="M729.9953,-224.2455C718.9597,-215.8943 702.8559,-203.7076 689.9497,-193.9408"/>
<polygon fill="#191970" stroke="#191970" points="691.7133,-190.8862 681.6272,-187.6427 687.4892,-196.4681 691.7133,-190.8862"/>
</g>
<!-- Node24&#45;&gt;Node14 -->
<g id="edge30" class="edge">
<title>Node24&#45;&gt;Node14</title>
<path fill="none" stroke="#191970" d="M533.692,-168.2455C523.253,-159.8943 508.0196,-147.7076 495.8111,-137.9408"/>
<polygon fill="#191970" stroke="#191970" points="497.9336,-135.1566 487.9384,-131.6427 493.5607,-140.6227 497.9336,-135.1566"/>
</g>
<!-- Node25&#45;&gt;Node14 -->
<g id="edge32" class="edge">
<title>Node25&#45;&gt;Node14</title>
<path fill="none" stroke="#191970" d="M91.304,-283.1807C39.3217,-275.425 -13.5269,-258.9361 11.8851,-224 59.0507,-159.1574 302.2213,-133.9732 416.4616,-125.61"/>
<polygon fill="#191970" stroke="#191970" points="417.048,-129.0771 426.7739,-124.8752 416.5504,-122.0948 417.048,-129.0771"/>
</g>
</g>
</svg>
        <g id="navigator" transform="translate(0 0)" fill="#404254">
                <rect fill="#f2f5e9" fill-opacity="0.5" stroke="#606060" stroke-width=".5" x="0" y="0" width="60" height="60"/>
                <use id="zoomplus" xlink:href="#zoomPlus" x="17" y="9" onmousedown="handleZoom(evt,'in')"/>
                <use id="zoomminus" xlink:href="#zoomMin" x="42" y="9" onmousedown="handleZoom(evt,'out')"/>
                <use id="reset" xlink:href="#resetDef" x="30" y="36" onmousedown="handleReset()"/>
                <g id="arrowUp" xlink:href="#dirArrow" transform="translate(30 24)" onmousedown="handlePan(0,-1)">
                  <use xlink:href="#rim" fill="#404040">
                        <set attributeName="fill" to="#808080" begin="arrowUp.mouseover" end="arrowUp.mouseout"/>
                  </use>
                  <path fill="none" stroke="white" stroke-width="1.5" d="M0,-3.0v7 M-2.5,-0.5L0,-3.0L2.5,-0.5"/>
                </g>
                <g id="arrowRight" xlink:href="#dirArrow" transform="rotate(90) translate(36 -43)" onmousedown="handlePan(1,0)">
                  <use xlink:href="#rim" fill="#404040">
                        <set attributeName="fill" to="#808080" begin="arrowRight.mouseover" end="arrowRight.mouseout"/>
                  </use>
                  <path fill="none" stroke="white" stroke-width="1.5" d="M0,-3.0v7 M-2.5,-0.5L0,-3.0L2.5,-0.5"/>
                </g>
                <g id="arrowDown" xlink:href="#dirArrow" transform="rotate(180) translate(-30 -48)" onmousedown="handlePan(0,1)">
                  <use xlink:href="#rim" fill="#404040">
                        <set attributeName="fill" to="#808080" begin="arrowDown.mouseover" end="arrowDown.mouseout"/>
                  </use>
                  <path fill="none" stroke="white" stroke-width="1.5" d="M0,-3.0v7 M-2.5,-0.5L0,-3.0L2.5,-0.5"/>
                </g>
                <g id="arrowLeft" xlink:href="#dirArrow" transform="rotate(270) translate(-36 17)" onmousedown="handlePan(-1,0)">
                  <use xlink:href="#rim" fill="#404040">
                        <set attributeName="fill" to="#808080" begin="arrowLeft.mouseover" end="arrowLeft.mouseout"/>
                  </use>
                  <path fill="none" stroke="white" stroke-width="1.5" d="M0,-3.0v7 M-2.5,-0.5L0,-3.0L2.5,-0.5"/>
                </g>
        </g>
        <svg viewBox="0 0 15 15" width="100%" height="30px" preserveAspectRatio="xMaxYMin meet">
         <g id="arrow_out" transform="scale(0.3 0.3)">
          <a xlink:href="KeyMappingManager_8cpp__incl_org.svg" target="_base">
           <rect id="button" ry="5" rx="5" y="6" x="6" height="38" width="38"
                fill="#f2f5e9" fill-opacity="0.5" stroke="#606060" stroke-width="1.0"/>
           <path id="arrow"
             d="M 11.500037,31.436501 C 11.940474,20.09759 22.043105,11.32322 32.158766,21.979434 L 37.068811,17.246167 C 37.068811,17.246167 37.088388,32 37.088388,32 L 22.160133,31.978069 C 22.160133,31.978069 26.997745,27.140456 26.997745,27.140456 C 18.528582,18.264221 13.291696,25.230495 11.500037,31.436501 z"
             style="fill:#404040;"/>
          </a>
         </g>
        </svg>
</svg>
