<?xml version="1.0" encoding="UTF-8" standalone="no"?>
<!DOCTYPE svg PUBLIC "-//W3C//DTD SVG 1.1//EN"
 "http://www.w3.org/Graphics/SVG/1.1/DTD/svg11.dtd">
<!-- Generated by graphviz version 2.40.1 (20161225.0304)
 -->
<!-- Title: src/GuiBase/Utils/KeyMappingManager.hpp Pages: 1 -->
<svg width="1228pt" height="240pt"
 viewBox="0.00 0.00 1228.31 240.00" xmlns="http://www.w3.org/2000/svg" xmlns:xlink="http://www.w3.org/1999/xlink">
<g id="graph0" class="graph" transform="scale(1 1) rotate(0) translate(4 236)">
<title>src/GuiBase/Utils/KeyMappingManager.hpp</title>
<polygon fill="#ffffff" stroke="transparent" points="-4,4 -4,-236 1224.3071,-236 1224.3071,4 -4,4"/>
<!-- Node24 -->
<g id="node1" class="node">
<title>Node24</title>
<polygon fill="#bfbfbf" stroke="#000000" points="790.3071,-201.5 790.3071,-231.5 952.3071,-231.5 952.3071,-201.5 790.3071,-201.5"/>
<text text-anchor="start" x="798.3071" y="-219.5" font-family="Helvetica,sans-Serif" font-size="10.00" fill="#000000">src/GuiBase/Utils/KeyMapping</text>
<text text-anchor="middle" x="871.3071" y="-208.5" font-family="Helvetica,sans-Serif" font-size="10.00" fill="#000000">Manager.hpp</text>
</g>
<!-- Node25 -->
<g id="node2" class="node">
<title>Node25</title>
<g id="a_node2"><a xlink:href="Viewer_8hpp.html" target="_top" xlink:title="src/GuiBase/Viewer\l/Viewer.hpp">
<polygon fill="#ffffff" stroke="#000000" points="211.8071,-134.5 211.8071,-164.5 322.8071,-164.5 322.8071,-134.5 211.8071,-134.5"/>
<text text-anchor="start" x="219.8071" y="-152.5" font-family="Helvetica,sans-Serif" font-size="10.00" fill="#000000">src/GuiBase/Viewer</text>
<text text-anchor="middle" x="267.3071" y="-141.5" font-family="Helvetica,sans-Serif" font-size="10.00" fill="#000000">/Viewer.hpp</text>
</a>
</g>
</g>
<!-- Node24&#45;&gt;Node25 -->
<g id="edge1" class="edge">
<title>Node24&#45;&gt;Node25</title>
<path fill="none" stroke="#191970" d="M780.0742,-206.3798C653.165,-192.3021 427.215,-167.2381 322.9044,-155.6673"/>
<polygon fill="#191970" stroke="#191970" points="779.8376,-209.8749 790.1625,-207.4989 780.6094,-202.9176 779.8376,-209.8749"/>
</g>
<!-- Node28 -->
<g id="node5" class="node">
<title>Node28</title>
<g id="a_node5"><a xlink:href="Viewer_8cpp.html" target="_top" xlink:title="src/GuiBase/Viewer\l/Viewer.cpp">
<polygon fill="#ffffff" stroke="#000000" points="664.8071,-.5 664.8071,-30.5 775.8071,-30.5 775.8071,-.5 664.8071,-.5"/>
<text text-anchor="start" x="672.8071" y="-18.5" font-family="Helvetica,sans-Serif" font-size="10.00" fill="#000000">src/GuiBase/Viewer</text>
<text text-anchor="middle" x="720.3071" y="-7.5" font-family="Helvetica,sans-Serif" font-size="10.00" fill="#000000">/Viewer.cpp</text>
</a>
</g>
</g>
<!-- Node24&#45;&gt;Node28 -->
<g id="edge19" class="edge">
<title>Node24&#45;&gt;Node28</title>
<path fill="none" stroke="#191970" d="M921.3028,-196.4923C934.3732,-188.7047 946.8711,-178.3649 954.3071,-165 963.0151,-149.3486 965.5303,-83.9519 951.3071,-67 929.1556,-40.5988 836.8471,-26.6844 775.8372,-20.2285"/>
<polygon fill="#191970" stroke="#191970" points="919.2982,-193.6001 912.2178,-201.4816 922.6678,-199.7357 919.2982,-193.6001"/>
</g>
<!-- Node29 -->
<g id="node6" class="node">
<title>Node29</title>
<g id="a_node6"><a xlink:href="KeyMappingManager_8cpp.html" target="_top" xlink:title="src/GuiBase/Utils/KeyMapping\lManager.cpp">
<polygon fill="#ffffff" stroke="#000000" points="1058.3071,-134.5 1058.3071,-164.5 1220.3071,-164.5 1220.3071,-134.5 1058.3071,-134.5"/>
<text text-anchor="start" x="1066.3071" y="-152.5" font-family="Helvetica,sans-Serif" font-size="10.00" fill="#000000">src/GuiBase/Utils/KeyMapping</text>
<text text-anchor="middle" x="1139.3071" y="-141.5" font-family="Helvetica,sans-Serif" font-size="10.00" fill="#000000">Manager.cpp</text>
</a>
</g>
</g>
<!-- Node24&#45;&gt;Node29 -->
<g id="edge5" class="edge">
<title>Node24&#45;&gt;Node29</title>
<path fill="none" stroke="#191970" d="M941.2171,-199.0225C983.9426,-188.3411 1038.0388,-174.8171 1078.9003,-164.6017"/>
<polygon fill="#191970" stroke="#191970" points="940.304,-195.643 931.4515,-201.4639 942.0018,-202.434 940.304,-195.643"/>
</g>
<!-- Node30 -->
<g id="node7" class="node">
<title>Node30</title>
<g id="a_node7"><a xlink:href="CameraManipulator_8hpp.html" target="_top" xlink:title="src/GuiBase/Viewer\l/CameraManipulator.hpp">
<polygon fill="#ffffff" stroke="#000000" points="603.3071,-134.5 603.3071,-164.5 739.3071,-164.5 739.3071,-134.5 603.3071,-134.5"/>
<text text-anchor="start" x="611.3071" y="-152.5" font-family="Helvetica,sans-Serif" font-size="10.00" fill="#000000">src/GuiBase/Viewer</text>
<text text-anchor="middle" x="671.3071" y="-141.5" font-family="Helvetica,sans-Serif" font-size="10.00" fill="#000000">/CameraManipulator.hpp</text>
</a>
</g>
</g>
<!-- Node24&#45;&gt;Node30 -->
<g id="edge6" class="edge">
<title>Node24&#45;&gt;Node30</title>
<path fill="none" stroke="#191970" d="M816.9068,-198.2759C785.3862,-187.7165 746.1742,-174.5805 716.3867,-164.6017"/>
<polygon fill="#191970" stroke="#191970" points="815.8293,-201.6061 826.4232,-201.4639 818.0529,-194.9686 815.8293,-201.6061"/>
</g>
<!-- Node32 -->
<g id="node9" class="node">
<title>Node32</title>
<g id="a_node9"><a xlink:href="FlightCameraManipulator_8cpp.html" target="_top" xlink:title="src/GuiBase/Viewer\l/FlightCameraManipulator.cpp">
<polygon fill="#ffffff" stroke="#000000" points="154.3071,-.5 154.3071,-30.5 316.3071,-30.5 316.3071,-.5 154.3071,-.5"/>
<text text-anchor="start" x="162.3071" y="-18.5" font-family="Helvetica,sans-Serif" font-size="10.00" fill="#000000">src/GuiBase/Viewer</text>
<text text-anchor="middle" x="235.3071" y="-7.5" font-family="Helvetica,sans-Serif" font-size="10.00" fill="#000000">/FlightCameraManipulator.cpp</text>
</a>
</g>
</g>
<!-- Node24&#45;&gt;Node32 -->
<g id="edge14" class="edge">
<title>Node24&#45;&gt;Node32</title>
<path fill="none" stroke="#191970" d="M780.22,-212.3385C623.714,-204.7117 310.1828,-187.2166 202.3071,-165 112.1393,-146.4303 59.8501,-172.8879 6.3071,-98 -1.7062,-86.7922 -2.3004,-77.7582 6.3071,-67 24.7959,-43.8914 96.0246,-30.4266 154.1939,-23.1014"/>
<polygon fill="#191970" stroke="#191970" points="780.1403,-215.8387 790.2979,-212.8266 780.4789,-208.8469 780.1403,-215.8387"/>
</g>
<!-- Node35 -->
<g id="node12" class="node">
<title>Node35</title>
<g id="a_node12"><a xlink:href="TrackballCameraManipulator_8cpp.html" target="_top" xlink:title="src/GuiBase/Viewer\l/TrackballCameraManipulator.cpp">
<polygon fill="#ffffff" stroke="#000000" points="891.8071,-.5 891.8071,-30.5 1070.8071,-30.5 1070.8071,-.5 891.8071,-.5"/>
<text text-anchor="start" x="899.8071" y="-18.5" font-family="Helvetica,sans-Serif" font-size="10.00" fill="#000000">src/GuiBase/Viewer</text>
<text text-anchor="middle" x="981.3071" y="-7.5" font-family="Helvetica,sans-Serif" font-size="10.00" fill="#000000">/TrackballCameraManipulator.cpp</text>
</a>
</g>
</g>
<!-- Node24&#45;&gt;Node35 -->
<g id="edge18" class="edge">
<title>Node24&#45;&gt;Node35</title>
<path fill="none" stroke="#191970" d="M939.2749,-198.3981C968.5011,-189.1117 997.9012,-177.2034 1006.3071,-165 1035.1174,-123.1738 1006.2778,-59.4417 990.3385,-30.6066"/>
<polygon fill="#191970" stroke="#191970" points="937.9249,-195.1517 929.4006,-201.4436 939.988,-201.8408 937.9249,-195.1517"/>
</g>
<!-- Node36 -->
<g id="node13" class="node">
<title>Node36</title>
<g id="a_node13"><a xlink:href="GizmoManager_8hpp.html" target="_top" xlink:title="src/GuiBase/Viewer\l/Gizmo/GizmoManager.hpp">
<polygon fill="#ffffff" stroke="#000000" points="797.3071,-134.5 797.3071,-164.5 945.3071,-164.5 945.3071,-134.5 797.3071,-134.5"/>
<text text-anchor="start" x="805.3071" y="-152.5" font-family="Helvetica,sans-Serif" font-size="10.00" fill="#000000">src/GuiBase/Viewer</text>
<text text-anchor="middle" x="871.3071" y="-141.5" font-family="Helvetica,sans-Serif" font-size="10.00" fill="#000000">/Gizmo/GizmoManager.hpp</text>
</a>
</g>
</g>
<!-- Node24&#45;&gt;Node36 -->
<g id="edge15" class="edge">
<title>Node24&#45;&gt;Node36</title>
<path fill="none" stroke="#191970" d="M871.3071,-191.0249C871.3071,-182.128 871.3071,-172.4287 871.3071,-164.6432"/>
<polygon fill="#191970" stroke="#191970" points="867.8072,-191.2966 871.3071,-201.2967 874.8072,-191.2967 867.8072,-191.2966"/>
</g>
<!-- Node26 -->
<g id="node3" class="node">
<title>Node26</title>
<g id="a_node3"><a xlink:href="BaseApplication_8cpp.html" target="_top" xlink:title="src/GuiBase/BaseApplication.cpp">
<polygon fill="#ffffff" stroke="#000000" points="15.3071,-73 15.3071,-92 191.3071,-92 191.3071,-73 15.3071,-73"/>
<text text-anchor="middle" x="103.3071" y="-80" font-family="Helvetica,sans-Serif" font-size="10.00" fill="#000000">src/GuiBase/BaseApplication.cpp</text>
</a>
</g>
</g>
<!-- Node25&#45;&gt;Node26 -->
<g id="edge2" class="edge">
<title>Node25&#45;&gt;Node26</title>
<path fill="none" stroke="#191970" d="M220.859,-130.5243C190.1781,-117.99 151.2627,-102.0916 126.8152,-92.1039"/>
<polygon fill="#191970" stroke="#191970" points="219.9213,-133.9219 230.5023,-134.4639 222.5687,-127.4419 219.9213,-133.9219"/>
</g>
<!-- Node27 -->
<g id="node4" class="node">
<title>Node27</title>
<g id="a_node4"><a xlink:href="CameraManipulator_8cpp.html" target="_top" xlink:title="src/GuiBase/Viewer\l/CameraManipulator.cpp">
<polygon fill="#ffffff" stroke="#000000" points="247.8071,-67.5 247.8071,-97.5 382.8071,-97.5 382.8071,-67.5 247.8071,-67.5"/>
<text text-anchor="start" x="255.8071" y="-85.5" font-family="Helvetica,sans-Serif" font-size="10.00" fill="#000000">src/GuiBase/Viewer</text>
<text text-anchor="middle" x="315.3071" y="-74.5" font-family="Helvetica,sans-Serif" font-size="10.00" fill="#000000">/CameraManipulator.cpp</text>
</a>
</g>
</g>
<!-- Node25&#45;&gt;Node27 -->
<g id="edge3" class="edge">
<title>Node25&#45;&gt;Node27</title>
<path fill="none" stroke="#191970" d="M284.0981,-126.0626C290.8546,-116.6315 298.4514,-106.0276 304.4582,-97.6432"/>
<polygon fill="#191970" stroke="#191970" points="281.1777,-124.1292 278.199,-134.2967 286.8681,-128.2059 281.1777,-124.1292"/>
</g>
<!-- Node25&#45;&gt;Node28 -->
<g id="edge4" class="edge">
<title>Node25&#45;&gt;Node28</title>
<path fill="none" stroke="#191970" d="M247.6624,-126.0596C235.0204,-108.0321 223.4799,-83.4957 238.3071,-67 266.4009,-35.7445 544.1074,-21.9101 664.7901,-17.3395"/>
<polygon fill="#191970" stroke="#191970" points="245.0525,-128.4136 253.8463,-134.3228 250.6569,-124.2194 245.0525,-128.4136"/>
</g>
<!-- Node30&#45;&gt;Node27 -->
<g id="edge7" class="edge">
<title>Node30&#45;&gt;Node27</title>
<path fill="none" stroke="#191970" d="M593.171,-135.5452C536.9693,-125.4062 459.3963,-111.2038 391.3071,-98 388.5309,-97.4617 385.6988,-96.9073 382.8386,-96.3433"/>
<polygon fill="#191970" stroke="#191970" points="592.5943,-138.9976 603.0565,-137.3265 593.8357,-132.1085 592.5943,-138.9976"/>
</g>
<!-- Node31 -->
<g id="node8" class="node">
<title>Node31</title>
<g id="a_node8"><a xlink:href="FlightCameraManipulator_8hpp.html" target="_top" xlink:title="src/GuiBase/Viewer\l/FlightCameraManipulator.hpp">
<polygon fill="#ffffff" stroke="#000000" points="400.8071,-67.5 400.8071,-97.5 563.8071,-97.5 563.8071,-67.5 400.8071,-67.5"/>
<text text-anchor="start" x="408.8071" y="-85.5" font-family="Helvetica,sans-Serif" font-size="10.00" fill="#000000">src/GuiBase/Viewer</text>
<text text-anchor="middle" x="482.3071" y="-74.5" font-family="Helvetica,sans-Serif" font-size="10.00" fill="#000000">/FlightCameraManipulator.hpp</text>
</a>
</g>
</g>
<!-- Node30&#45;&gt;Node31 -->
<g id="edge8" class="edge">
<title>Node30&#45;&gt;Node31</title>
<path fill="none" stroke="#191970" d="M619.1268,-131.0023C589.4736,-120.4903 552.8138,-107.4945 524.9073,-97.6017"/>
<polygon fill="#191970" stroke="#191970" points="618.297,-134.4214 628.8918,-134.4639 620.6359,-127.8237 618.297,-134.4214"/>
</g>
<!-- Node33 -->
<g id="node10" class="node">
<title>Node33</title>
<g id="a_node10"><a xlink:href="GizmoManager_8cpp.html" target="_top" xlink:title="src/GuiBase/Viewer\l/Gizmo/GizmoManager.cpp">
<polygon fill="#ffffff" stroke="#000000" points="778.8071,-67.5 778.8071,-97.5 925.8071,-97.5 925.8071,-67.5 778.8071,-67.5"/>
<text text-anchor="start" x="786.8071" y="-85.5" font-family="Helvetica,sans-Serif" font-size="10.00" fill="#000000">src/GuiBase/Viewer</text>
<text text-anchor="middle" x="852.3071" y="-74.5" font-family="Helvetica,sans-Serif" font-size="10.00" fill="#000000">/Gizmo/GizmoManager.cpp</text>
</a>
</g>
</g>
<!-- Node30&#45;&gt;Node33 -->
<g id="edge10" class="edge">
<title>Node30&#45;&gt;Node33</title>
<path fill="none" stroke="#191970" d="M721.6494,-130.865C749.9817,-120.3773 784.9009,-107.4515 811.51,-97.6017"/>
<polygon fill="#191970" stroke="#191970" points="720.0901,-127.71 711.927,-134.4639 722.5201,-134.2747 720.0901,-127.71"/>
</g>
<!-- Node34 -->
<g id="node11" class="node">
<title>Node34</title>
<g id="a_node11"><a xlink:href="TrackballCameraManipulator_8hpp.html" target="_top" xlink:title="src/GuiBase/Viewer\l/TrackballCameraManipulator.hpp">
<polygon fill="#ffffff" stroke="#000000" points="581.8071,-67.5 581.8071,-97.5 760.8071,-97.5 760.8071,-67.5 581.8071,-67.5"/>
<text text-anchor="start" x="589.8071" y="-85.5" font-family="Helvetica,sans-Serif" font-size="10.00" fill="#000000">src/GuiBase/Viewer</text>
<text text-anchor="middle" x="671.3071" y="-74.5" font-family="Helvetica,sans-Serif" font-size="10.00" fill="#000000">/TrackballCameraManipulator.hpp</text>
</a>
</g>
</g>
<!-- Node30&#45;&gt;Node34 -->
<g id="edge11" class="edge">
<title>Node30&#45;&gt;Node34</title>
<path fill="none" stroke="#191970" d="M671.3071,-124.0249C671.3071,-115.128 671.3071,-105.4287 671.3071,-97.6432"/>
<polygon fill="#191970" stroke="#191970" points="667.8072,-124.2966 671.3071,-134.2967 674.8072,-124.2967 667.8072,-124.2966"/>
</g>
<!-- Node31&#45;&gt;Node32 -->
<g id="edge9" class="edge">
<title>Node31&#45;&gt;Node32</title>
<path fill="none" stroke="#191970" d="M417.1277,-64.8198C377.8682,-54.1704 328.4022,-40.7525 290.9804,-30.6017"/>
<polygon fill="#191970" stroke="#191970" points="416.3079,-68.2238 426.8754,-67.4639 418.1405,-61.4679 416.3079,-68.2238"/>
</g>
<!-- Node34&#45;&gt;Node28 -->
<g id="edge13" class="edge">
<title>Node34&#45;&gt;Node28</title>
<path fill="none" stroke="#191970" d="M688.4479,-59.0626C695.3452,-49.6315 703.1003,-39.0276 709.2322,-30.6432"/>
<polygon fill="#191970" stroke="#191970" points="685.504,-57.1588 682.4259,-67.2967 691.1542,-61.2911 685.504,-57.1588"/>
</g>
<!-- Node34&#45;&gt;Node35 -->
<g id="edge12" class="edge">
<title>Node34&#45;&gt;Node35</title>
<path fill="none" stroke="#191970" d="M750.9455,-65.2878C800.6478,-54.5457 864.0134,-40.8506 911.7016,-30.5438"/>
<polygon fill="#191970" stroke="#191970" points="749.912,-61.9303 740.8771,-67.4639 751.3908,-68.7723 749.912,-61.9303"/>
</g>
<!-- Node36&#45;&gt;Node28 -->
<g id="edge17" class="edge">
<title>Node36&#45;&gt;Node28</title>
<path fill="none" stroke="#191970" d="M905.6506,-128.4252C928.5563,-111.7119 951.7044,-87.7889 935.3071,-67 915.7859,-42.2507 832.8091,-28.0597 775.839,-21.0666"/>
<polygon fill="#191970" stroke="#191970" points="903.5064,-125.6532 897.2964,-134.2373 907.5041,-131.3994 903.5064,-125.6532"/>
</g>
<!-- Node36&#45;&gt;Node33 -->
<g id="edge16" class="edge">
<title>Node36&#45;&gt;Node33</title>
<path fill="none" stroke="#191970" d="M864.2488,-124.6103C861.6809,-115.5553 858.8578,-105.5998 856.6014,-97.6432"/>
<polygon fill="#191970" stroke="#191970" points="860.9001,-125.6309 866.9957,-134.2967 867.6346,-123.7211 860.9001,-125.6309"/>
</g>
</g>
</svg>
