<?xml version="1.0" encoding="UTF-8" standalone="no"?>
<!DOCTYPE svg PUBLIC "-//W3C//DTD SVG 1.1//EN"
 "http://www.w3.org/Graphics/SVG/1.1/DTD/svg11.dtd">
<!-- Generated by graphviz version 2.40.1 (20161225.0304)
 -->
<!-- Title: src/GuiBase/Utils/KeyMappingManager.hpp Pages: 1 -->
<!--zoomable 319 -->
<svg id="main" version="1.1" xmlns="http://www.w3.org/2000/svg" xmlns:xlink="http://www.w3.org/1999/xlink" xml:space="preserve" onload="init(evt)">
<style type="text/css"><![CDATA[
.edge:hover path { stroke: red; }
.edge:hover polygon { stroke: red; fill: red; }
]]></style>
<script type="text/javascript"><![CDATA[
var edges = document.getElementsByTagName('g');
if (edges && edges.length) {
  for (var i=0;i<edges.length;i++) {
    if (edges[i].id.substr(0,4)=='edge') {
      edges[i].setAttribute('class','edge');
    }
  }
}
]]></script>
        <defs>
                <circle id="rim" cx="0" cy="0" r="7"/>
                <circle id="rim2" cx="0" cy="0" r="3.5"/>
                <g id="zoomPlus">
                        <use xlink:href="#rim" fill="#404040">
                                <set attributeName="fill" to="#808080" begin="zoomplus.mouseover" end="zoomplus.mouseout"/>
                        </use>
                        <path d="M-4,0h8M0,-4v8" fill="none" stroke="white" stroke-width="1.5" pointer-events="none"/>
                </g>
                <g id="zoomMin">
                        <use xlink:href="#rim" fill="#404040">
                                <set attributeName="fill" to="#808080" begin="zoomminus.mouseover" end="zoomminus.mouseout"/>
                        </use>
                        <path d="M-4,0h8" fill="none" stroke="white" stroke-width="1.5" pointer-events="none"/>
                </g>
                <g id="dirArrow">
                        <path fill="none" stroke="white" stroke-width="1.5" d="M0,-3.0v7 M-2.5,-0.5L0,-3.0L2.5,-0.5"/>
                </g>
               <g id="resetDef">
                       <use xlink:href="#rim2" fill="#404040">
                               <set attributeName="fill" to="#808080" begin="reset.mouseover" end="reset.mouseout"/>
                       </use>
               </g>
        </defs>

<script type="text/javascript">
var viewWidth = 1135;
var viewHeight = 319;
var sectionId = 'dynsection-0';
</script>
<script xlink:href="svgpan.js"/>
<svg id="graph" class="graph">
<g id="viewport">
<title>src/GuiBase/Utils/KeyMappingManager.hpp</title>
<polygon fill="#ffffff" stroke="transparent" points="-4,4 -4,-315 1131,-315 1131,4 -4,4"/>
<!-- Node0 -->
<g id="node1" class="node">
<title>Node0</title>
<polygon fill="#bfbfbf" stroke="#000000" points="407,-280.5 407,-310.5 569,-310.5 569,-280.5 407,-280.5"/>
<text text-anchor="start" x="415" y="-298.5" font-family="Helvetica,sans-Serif" font-size="10.00" fill="#000000">src/GuiBase/Utils/KeyMapping</text>
<text text-anchor="middle" x="488" y="-287.5" font-family="Helvetica,sans-Serif" font-size="10.00" fill="#000000">Manager.hpp</text>
</g>
<!-- Node1 -->
<g id="node2" class="node">
<title>Node1</title>
<polygon fill="#ffffff" stroke="#bfbfbf" points="0,-224.5 0,-243.5 108,-243.5 108,-224.5 0,-224.5"/>
<text text-anchor="middle" x="54" y="-231.5" font-family="Helvetica,sans-Serif" font-size="10.00" fill="#000000">QXmlStreamWriter</text>
</g>
<!-- Node0&#45;&gt;Node1 -->
<g id="edge1" class="edge">
<title>Node0&#45;&gt;Node1</title>
<path fill="none" stroke="#191970" d="M406.877,-284.7019C334.0218,-274.8979 223.8425,-259.8094 118.467,-244.1978"/>
<polygon fill="#191970" stroke="#191970" points="118.6916,-240.6929 108.2858,-242.6856 117.663,-247.6169 118.6916,-240.6929"/>
</g>
<!-- Node2 -->
<g id="node3" class="node">
<title>Node2</title>
<polygon fill="#ffffff" stroke="#bfbfbf" points="126.5,-224.5 126.5,-243.5 227.5,-243.5 227.5,-224.5 126.5,-224.5"/>
<text text-anchor="middle" x="177" y="-231.5" font-family="Helvetica,sans-Serif" font-size="10.00" fill="#000000">QtGui/QKeyEvent</text>
</g>
<!-- Node0&#45;&gt;Node2 -->
<g id="edge2" class="edge">
<title>Node0&#45;&gt;Node2</title>
<path fill="none" stroke="#191970" d="M411.9208,-280.4554C357.4124,-269.6764 285.1063,-255.3779 235.1808,-245.5052"/>
<polygon fill="#191970" stroke="#191970" points="235.683,-242.0368 225.194,-243.5303 234.325,-248.9038 235.683,-242.0368"/>
</g>
<!-- Node3 -->
<g id="node4" class="node">
<title>Node3</title>
<polygon fill="#ffffff" stroke="#bfbfbf" points="246,-224.5 246,-243.5 360,-243.5 360,-224.5 246,-224.5"/>
<text text-anchor="middle" x="303" y="-231.5" font-family="Helvetica,sans-Serif" font-size="10.00" fill="#000000">QtGui/QMouseEvent</text>
</g>
<!-- Node0&#45;&gt;Node3 -->
<g id="edge3" class="edge">
<title>Node0&#45;&gt;Node3</title>
<path fill="none" stroke="#191970" d="M442.7439,-280.4554C411.6054,-270.104 370.7031,-256.5067 341.2045,-246.7004"/>
<polygon fill="#191970" stroke="#191970" points="342.262,-243.3637 331.6684,-243.5303 340.0537,-250.0063 342.262,-243.3637"/>
</g>
<!-- Node4 -->
<g id="node5" class="node">
<title>Node4</title>
<polygon fill="#ffffff" stroke="#bfbfbf" points="378.5,-224.5 378.5,-243.5 459.5,-243.5 459.5,-224.5 378.5,-224.5"/>
<text text-anchor="middle" x="419" y="-231.5" font-family="Helvetica,sans-Serif" font-size="10.00" fill="#000000">QtXml/QtXml</text>
</g>
<!-- Node0&#45;&gt;Node4 -->
<g id="edge4" class="edge">
<title>Node0&#45;&gt;Node4</title>
<path fill="none" stroke="#191970" d="M470.9438,-280.2977C460.8671,-271.3163 448.096,-259.9334 437.7389,-250.702"/>
<polygon fill="#191970" stroke="#191970" points="439.8417,-247.8879 430.0478,-243.8469 435.1841,-253.1135 439.8417,-247.8879"/>
</g>
<!-- Node5 -->
<g id="node6" class="node">
<title>Node5</title>
<g id="a_node6"><a xlink:href="RaGuiBase_8hpp.html" target="_top" xlink:title="GuiBase/RaGuiBase.hpp">
<polygon fill="#ffffff" stroke="#000000" points="434,-112.5 434,-131.5 568,-131.5 568,-112.5 434,-112.5"/>
<text text-anchor="middle" x="501" y="-119.5" font-family="Helvetica,sans-Serif" font-size="10.00" fill="#000000">GuiBase/RaGuiBase.hpp</text>
</a>
</g>
</g>
<!-- Node0&#45;&gt;Node5 -->
<g id="edge5" class="edge">
<title>Node0&#45;&gt;Node5</title>
<path fill="none" stroke="#191970" d="M487.6825,-280.1343C487.3661,-256.1206 487.4588,-208.2725 492,-168 492.9779,-159.3275 494.7161,-149.8479 496.4059,-141.7596"/>
<polygon fill="#191970" stroke="#191970" points="499.8667,-142.3183 498.6042,-131.799 493.0312,-140.8097 499.8667,-142.3183"/>
</g>
<!-- Node12 -->
<g id="node13" class="node">
<title>Node12</title>
<g id="a_node13"><a xlink:href="Index_8hpp.html" target="_top" xlink:title="Core/Utils/Index.hpp">
<polygon fill="#ffffff" stroke="#000000" points="655,-224.5 655,-243.5 771,-243.5 771,-224.5 655,-224.5"/>
<text text-anchor="middle" x="713" y="-231.5" font-family="Helvetica,sans-Serif" font-size="10.00" fill="#000000">Core/Utils/Index.hpp</text>
</a>
</g>
</g>
<!-- Node0&#45;&gt;Node12 -->
<g id="edge12" class="edge">
<title>Node0&#45;&gt;Node12</title>
<path fill="none" stroke="#191970" d="M543.0412,-280.4554C581.571,-269.9239 632.3922,-256.0328 668.3941,-246.1923"/>
<polygon fill="#191970" stroke="#191970" points="669.4097,-249.5432 678.133,-243.5303 667.564,-242.7909 669.4097,-249.5432"/>
</g>
<!-- Node16 -->
<g id="node17" class="node">
<title>Node16</title>
<g id="a_node17"><a xlink:href="Log_8hpp.html" target="_top" xlink:title="Core/Utils/Log.hpp">
<polygon fill="#ffffff" stroke="#000000" points="881,-168.5 881,-187.5 987,-187.5 987,-168.5 881,-168.5"/>
<text text-anchor="middle" x="934" y="-175.5" font-family="Helvetica,sans-Serif" font-size="10.00" fill="#000000">Core/Utils/Log.hpp</text>
</a>
</g>
</g>
<!-- Node0&#45;&gt;Node16 -->
<g id="edge18" class="edge">
<title>Node0&#45;&gt;Node16</title>
<path fill="none" stroke="#191970" d="M569.096,-286.2976C628.3478,-278.3493 710.1962,-264.8101 780,-244 825.7792,-230.3522 876.1992,-207.0535 906.466,-192.1027"/>
<polygon fill="#191970" stroke="#191970" points="908.1705,-195.1637 915.5533,-187.5647 905.0431,-188.9012 908.1705,-195.1637"/>
</g>
<!-- Node20 -->
<g id="node21" class="node">
<title>Node20</title>
<g id="a_node21"><a xlink:href="Observable_8hpp.html" target="_top" xlink:title="Core/Utils/Observable.hpp">
<polygon fill="#ffffff" stroke="#000000" points="931,-224.5 931,-243.5 1075,-243.5 1075,-224.5 931,-224.5"/>
<text text-anchor="middle" x="1003" y="-231.5" font-family="Helvetica,sans-Serif" font-size="10.00" fill="#000000">Core/Utils/Observable.hpp</text>
</a>
</g>
</g>
<!-- Node0&#45;&gt;Node20 -->
<g id="edge24" class="edge">
<title>Node0&#45;&gt;Node20</title>
<path fill="none" stroke="#191970" d="M569.0353,-285.823C665.0626,-274.3556 824.1762,-255.3547 920.7373,-243.8236"/>
<polygon fill="#191970" stroke="#191970" points="921.234,-247.2892 930.7484,-242.6281 920.4039,-240.3386 921.234,-247.2892"/>
</g>
<!-- Node23 -->
<g id="node24" class="node">
<title>Node23</title>
<g id="a_node24"><a xlink:href="Singleton_8hpp.html" target="_top" xlink:title="Core/Utils/Singleton.hpp">
<polygon fill="#ffffff" stroke="#000000" points="501,-168.5 501,-187.5 635,-187.5 635,-168.5 501,-168.5"/>
<text text-anchor="middle" x="568" y="-175.5" font-family="Helvetica,sans-Serif" font-size="10.00" fill="#000000">Core/Utils/Singleton.hpp</text>
</a>
</g>
</g>
<!-- Node0&#45;&gt;Node23 -->
<g id="edge28" class="edge">
<title>Node0&#45;&gt;Node23</title>
<path fill="none" stroke="#191970" d="M498.4586,-280.1389C513.1996,-258.4881 540.0344,-219.0745 555.709,-196.0525"/>
<polygon fill="#191970" stroke="#191970" points="558.7566,-197.7953 561.4914,-187.5595 552.9704,-193.8557 558.7566,-197.7953"/>
</g>
<!-- Node6 -->
<g id="node7" class="node">
<title>Node6</title>
<g id="a_node7"><a xlink:href="CoreMacros_8hpp.html" target="_top" xlink:title="Core/CoreMacros.hpp">
<polygon fill="#ffffff" stroke="#000000" points="603,-56.5 603,-75.5 723,-75.5 723,-56.5 603,-56.5"/>
<text text-anchor="middle" x="663" y="-63.5" font-family="Helvetica,sans-Serif" font-size="10.00" fill="#000000">Core/CoreMacros.hpp</text>
</a>
</g>
</g>
<!-- Node5&#45;&gt;Node6 -->
<g id="edge6" class="edge">
<title>Node5&#45;&gt;Node6</title>
<path fill="none" stroke="#191970" d="M528.8488,-112.3733C555.6703,-103.1016 596.4127,-89.0178 625.9598,-78.804"/>
<polygon fill="#191970" stroke="#191970" points="627.2069,-82.0762 635.5146,-75.5011 624.9198,-75.4603 627.2069,-82.0762"/>
</g>
<!-- Node7 -->
<g id="node8" class="node">
<title>Node7</title>
<polygon fill="#ffffff" stroke="#bfbfbf" points="741,-.5 741,-19.5 793,-19.5 793,-.5 741,-.5"/>
<text text-anchor="middle" x="767" y="-7.5" font-family="Helvetica,sans-Serif" font-size="10.00" fill="#000000">cassert</text>
</g>
<!-- Node6&#45;&gt;Node7 -->
<g id="edge7" class="edge">
<title>Node6&#45;&gt;Node7</title>
<path fill="none" stroke="#191970" d="M681.1154,-56.2455C697.445,-47.4527 721.671,-34.4079 740.2339,-24.4125"/>
<polygon fill="#191970" stroke="#191970" points="741.9468,-27.4654 749.0922,-19.6427 738.6281,-21.3021 741.9468,-27.4654"/>
</g>
<!-- Node8 -->
<g id="node9" class="node">
<title>Node8</title>
<polygon fill="#ffffff" stroke="#bfbfbf" points="533,-.5 533,-19.5 579,-19.5 579,-.5 533,-.5"/>
<text text-anchor="middle" x="556" y="-7.5" font-family="Helvetica,sans-Serif" font-size="10.00" fill="#000000">cstdio</text>
</g>
<!-- Node6&#45;&gt;Node8 -->
<g id="edge8" class="edge">
<title>Node6&#45;&gt;Node8</title>
<path fill="none" stroke="#191970" d="M644.362,-56.2455C627.5614,-47.4527 602.6366,-34.4079 583.5382,-24.4125"/>
<polygon fill="#191970" stroke="#191970" points="584.9073,-21.1787 574.4244,-19.6427 581.6614,-27.3807 584.9073,-21.1787"/>
</g>
<!-- Node9 -->
<g id="node10" class="node">
<title>Node9</title>
<polygon fill="#ffffff" stroke="#bfbfbf" points="597,-.5 597,-19.5 657,-19.5 657,-.5 597,-.5"/>
<text text-anchor="middle" x="627" y="-7.5" font-family="Helvetica,sans-Serif" font-size="10.00" fill="#000000">iostream</text>
</g>
<!-- Node6&#45;&gt;Node9 -->
<g id="edge9" class="edge">
<title>Node6&#45;&gt;Node9</title>
<path fill="none" stroke="#191970" d="M656.7293,-56.2455C651.7736,-48.5367 644.717,-37.5598 638.7224,-28.2348"/>
<polygon fill="#191970" stroke="#191970" points="641.5506,-26.1618 633.1989,-19.6427 635.6624,-29.9471 641.5506,-26.1618"/>
</g>
<!-- Node10 -->
<g id="node11" class="node">
<title>Node10</title>
<polygon fill="#ffffff" stroke="#bfbfbf" points="859,-.5 859,-19.5 915,-19.5 915,-.5 859,-.5"/>
<text text-anchor="middle" x="887" y="-7.5" font-family="Helvetica,sans-Serif" font-size="10.00" fill="#000000">sstream</text>
</g>
<!-- Node6&#45;&gt;Node10 -->
<g id="edge10" class="edge">
<title>Node6&#45;&gt;Node10</title>
<path fill="none" stroke="#191970" d="M701.2525,-56.4369C742.4916,-46.1271 807.7438,-29.814 848.917,-19.5207"/>
<polygon fill="#191970" stroke="#191970" points="849.9842,-22.8618 858.8367,-17.0408 848.2864,-16.0708 849.9842,-22.8618"/>
</g>
<!-- Node11 -->
<g id="node12" class="node">
<title>Node11</title>
<polygon fill="#ffffff" stroke="#bfbfbf" points="675,-.5 675,-19.5 723,-19.5 723,-.5 675,-.5"/>
<text text-anchor="middle" x="699" y="-7.5" font-family="Helvetica,sans-Serif" font-size="10.00" fill="#000000">thread</text>
</g>
<!-- Node6&#45;&gt;Node11 -->
<g id="edge11" class="edge">
<title>Node6&#45;&gt;Node11</title>
<path fill="none" stroke="#191970" d="M669.2707,-56.2455C674.2264,-48.5367 681.283,-37.5598 687.2776,-28.2348"/>
<polygon fill="#191970" stroke="#191970" points="690.3376,-29.9471 692.8011,-19.6427 684.4494,-26.1618 690.3376,-29.9471"/>
</g>
<!-- Node13 -->
<g id="node14" class="node">
<title>Node13</title>
<g id="a_node14"><a xlink:href="RaCore_8hpp.html" target="_top" xlink:title="Core/RaCore.hpp">
<polygon fill="#ffffff" stroke="#000000" points="614,-112.5 614,-131.5 712,-131.5 712,-112.5 614,-112.5"/>
<text text-anchor="middle" x="663" y="-119.5" font-family="Helvetica,sans-Serif" font-size="10.00" fill="#000000">Core/RaCore.hpp</text>
</a>
</g>
</g>
<!-- Node12&#45;&gt;Node13 -->
<g id="edge13" class="edge">
<title>Node12&#45;&gt;Node13</title>
<path fill="none" stroke="#191970" d="M705.1448,-224.3119C698.2162,-215.3557 688.272,-201.4392 682,-188 675.0664,-173.1432 670.0998,-155.2058 666.9874,-141.7829"/>
<polygon fill="#191970" stroke="#191970" points="670.3483,-140.7663 664.8066,-131.7363 663.5076,-142.2512 670.3483,-140.7663"/>
</g>
<!-- Node14 -->
<g id="node15" class="node">
<title>Node14</title>
<polygon fill="#ffffff" stroke="#bfbfbf" points="691,-168.5 691,-187.5 735,-187.5 735,-168.5 691,-168.5"/>
<text text-anchor="middle" x="713" y="-175.5" font-family="Helvetica,sans-Serif" font-size="10.00" fill="#000000">limits</text>
</g>
<!-- Node12&#45;&gt;Node14 -->
<g id="edge15" class="edge">
<title>Node12&#45;&gt;Node14</title>
<path fill="none" stroke="#191970" d="M713,-224.2455C713,-216.9382 713,-206.6944 713,-197.7046"/>
<polygon fill="#191970" stroke="#191970" points="716.5001,-197.6426 713,-187.6427 709.5001,-197.6427 716.5001,-197.6426"/>
</g>
<!-- Node15 -->
<g id="node16" class="node">
<title>Node15</title>
<g id="a_node16"><a xlink:href="Index_8inl.html" target="_top" xlink:title="Core/Utils/Index.inl">
<polygon fill="#ffffff" stroke="#000000" points="753,-168.5 753,-187.5 863,-187.5 863,-168.5 753,-168.5"/>
<text text-anchor="middle" x="808" y="-175.5" font-family="Helvetica,sans-Serif" font-size="10.00" fill="#000000">Core/Utils/Index.inl</text>
</a>
</g>
</g>
<!-- Node12&#45;&gt;Node15 -->
<g id="edge16" class="edge">
<title>Node12&#45;&gt;Node15</title>
<path fill="none" stroke="#191970" d="M724.2809,-224.2455C737.4391,-215.4928 759.1891,-202.527 777.3139,-192.5496"/>
<polygon fill="#191970" stroke="#191970" points="779.2622,-195.4752 786.3968,-187.6427 775.935,-189.3165 779.2622,-195.4752"/>
</g>
<!-- Node13&#45;&gt;Node6 -->
<g id="edge14" class="edge">
<title>Node13&#45;&gt;Node6</title>
<path fill="none" stroke="#191970" d="M663,-112.2455C663,-104.9382 663,-94.6944 663,-85.7046"/>
<polygon fill="#191970" stroke="#191970" points="666.5001,-85.6426 663,-75.6427 659.5001,-85.6427 666.5001,-85.6426"/>
</g>
<!-- Node15&#45;&gt;Node12 -->
<g id="edge17" class="edge">
<title>Node15&#45;&gt;Node12</title>
<path fill="none" stroke="#191970" d="M796.887,-187.6427C783.8023,-196.3593 762.0737,-209.3198 743.9183,-219.3225"/>
<polygon fill="#191970" stroke="#191970" points="741.9459,-216.4101 734.8146,-224.2455 745.2757,-222.5674 741.9459,-216.4101"/>
</g>
<!-- Node16&#45;&gt;Node10 -->
<g id="edge21" class="edge">
<title>Node16&#45;&gt;Node10</title>
<path fill="none" stroke="#191970" d="M931.3384,-168.4862C923.8766,-141.8144 902.642,-65.9117 892.5099,-29.695"/>
<polygon fill="#191970" stroke="#191970" points="895.8143,-28.5151 889.7495,-19.8279 889.0731,-30.4011 895.8143,-28.5151"/>
</g>
<!-- Node16&#45;&gt;Node13 -->
<g id="edge19" class="edge">
<title>Node16&#45;&gt;Node13</title>
<path fill="none" stroke="#191970" d="M887.7214,-168.4369C841.0495,-158.7925 768.9551,-143.8948 719.0669,-133.5858"/>
<polygon fill="#191970" stroke="#191970" points="719.5892,-130.1198 709.0878,-131.5237 718.1726,-136.975 719.5892,-130.1198"/>
</g>
<!-- Node17 -->
<g id="node18" class="node">
<title>Node17</title>
<polygon fill="#ffffff" stroke="#bfbfbf" points="962,-112.5 962,-131.5 1006,-131.5 1006,-112.5 962,-112.5"/>
<text text-anchor="middle" x="984" y="-119.5" font-family="Helvetica,sans-Serif" font-size="10.00" fill="#000000">ctime</text>
</g>
<!-- Node16&#45;&gt;Node17 -->
<g id="edge20" class="edge">
<title>Node16&#45;&gt;Node17</title>
<path fill="none" stroke="#191970" d="M942.7093,-168.2455C949.8073,-160.2958 960.0084,-148.8706 968.495,-139.3656"/>
<polygon fill="#191970" stroke="#191970" points="971.3411,-141.4331 975.3905,-131.6427 966.1195,-136.771 971.3411,-141.4331"/>
</g>
<!-- Node18 -->
<g id="node19" class="node">
<title>Node18</title>
<polygon fill="#ffffff" stroke="#bfbfbf" points="794,-112.5 794,-131.5 844,-131.5 844,-112.5 794,-112.5"/>
<text text-anchor="middle" x="819" y="-119.5" font-family="Helvetica,sans-Serif" font-size="10.00" fill="#000000">stdio.h</text>
</g>
<!-- Node16&#45;&gt;Node18 -->
<g id="edge22" class="edge">
<title>Node16&#45;&gt;Node18</title>
<path fill="none" stroke="#191970" d="M914.2308,-168.3733C895.8531,-159.4241 868.2688,-145.9917 847.5107,-135.8835"/>
<polygon fill="#191970" stroke="#191970" points="849.0343,-132.7325 838.5112,-131.5011 845.9696,-139.026 849.0343,-132.7325"/>
</g>
<!-- Node19 -->
<g id="node20" class="node">
<title>Node19</title>
<polygon fill="#ffffff" stroke="#bfbfbf" points="862,-112.5 862,-131.5 906,-131.5 906,-112.5 862,-112.5"/>
<text text-anchor="middle" x="884" y="-119.5" font-family="Helvetica,sans-Serif" font-size="10.00" fill="#000000">string</text>
</g>
<!-- Node16&#45;&gt;Node19 -->
<g id="edge23" class="edge">
<title>Node16&#45;&gt;Node19</title>
<path fill="none" stroke="#191970" d="M925.2907,-168.2455C918.1927,-160.2958 907.9916,-148.8706 899.505,-139.3656"/>
<polygon fill="#191970" stroke="#191970" points="901.8805,-136.771 892.6095,-131.6427 896.6589,-141.4331 901.8805,-136.771"/>
</g>
<!-- Node20&#45;&gt;Node16 -->
<g id="edge25" class="edge">
<title>Node20&#45;&gt;Node16</title>
<path fill="none" stroke="#191970" d="M990.9811,-224.2455C980.7902,-215.9746 965.9638,-203.9416 953.9893,-194.2232"/>
<polygon fill="#191970" stroke="#191970" points="955.8514,-191.2268 945.8812,-187.6427 951.4402,-196.662 955.8514,-191.2268"/>
</g>
<!-- Node21 -->
<g id="node22" class="node">
<title>Node21</title>
<polygon fill="#ffffff" stroke="#bfbfbf" points="1005.5,-168.5 1005.5,-187.5 1070.5,-187.5 1070.5,-168.5 1005.5,-168.5"/>
<text text-anchor="middle" x="1038" y="-175.5" font-family="Helvetica,sans-Serif" font-size="10.00" fill="#000000">functional</text>
</g>
<!-- Node20&#45;&gt;Node21 -->
<g id="edge26" class="edge">
<title>Node20&#45;&gt;Node21</title>
<path fill="none" stroke="#191970" d="M1009.0965,-224.2455C1013.9145,-216.5367 1020.7751,-205.5598 1026.6032,-196.2348"/>
<polygon fill="#191970" stroke="#191970" points="1029.6413,-197.9777 1031.9733,-187.6427 1023.7053,-194.2677 1029.6413,-197.9777"/>
</g>
<!-- Node22 -->
<g id="node23" class="node">
<title>Node22</title>
<polygon fill="#ffffff" stroke="#bfbfbf" points="1089,-168.5 1089,-187.5 1127,-187.5 1127,-168.5 1089,-168.5"/>
<text text-anchor="middle" x="1108" y="-175.5" font-family="Helvetica,sans-Serif" font-size="10.00" fill="#000000">map</text>
</g>
<!-- Node20&#45;&gt;Node22 -->
<g id="edge27" class="edge">
<title>Node20&#45;&gt;Node22</title>
<path fill="none" stroke="#191970" d="M1021.2896,-224.2455C1037.7762,-215.4527 1062.2352,-202.4079 1080.9765,-192.4125"/>
<polygon fill="#191970" stroke="#191970" points="1082.7435,-195.4368 1089.92,-187.6427 1079.4494,-189.2604 1082.7435,-195.4368"/>
</g>
<!-- Node23&#45;&gt;Node13 -->
<g id="edge29" class="edge">
<title>Node23&#45;&gt;Node13</title>
<path fill="none" stroke="#191970" d="M584.5477,-168.2455C599.2599,-159.5731 620.9888,-146.7645 637.8505,-136.825"/>
<polygon fill="#191970" stroke="#191970" points="639.8046,-139.736 646.6419,-131.6427 636.2498,-133.7057 639.8046,-139.736"/>
</g>
</g>
</svg>
        <g id="navigator" transform="translate(0 0)" fill="#404254">
                <rect fill="#f2f5e9" fill-opacity="0.5" stroke="#606060" stroke-width=".5" x="0" y="0" width="60" height="60"/>
                <use id="zoomplus" xlink:href="#zoomPlus" x="17" y="9" onmousedown="handleZoom(evt,'in')"/>
                <use id="zoomminus" xlink:href="#zoomMin" x="42" y="9" onmousedown="handleZoom(evt,'out')"/>
                <use id="reset" xlink:href="#resetDef" x="30" y="36" onmousedown="handleReset()"/>
                <g id="arrowUp" xlink:href="#dirArrow" transform="translate(30 24)" onmousedown="handlePan(0,-1)">
                  <use xlink:href="#rim" fill="#404040">
                        <set attributeName="fill" to="#808080" begin="arrowUp.mouseover" end="arrowUp.mouseout"/>
                  </use>
                  <path fill="none" stroke="white" stroke-width="1.5" d="M0,-3.0v7 M-2.5,-0.5L0,-3.0L2.5,-0.5"/>
                </g>
                <g id="arrowRight" xlink:href="#dirArrow" transform="rotate(90) translate(36 -43)" onmousedown="handlePan(1,0)">
                  <use xlink:href="#rim" fill="#404040">
                        <set attributeName="fill" to="#808080" begin="arrowRight.mouseover" end="arrowRight.mouseout"/>
                  </use>
                  <path fill="none" stroke="white" stroke-width="1.5" d="M0,-3.0v7 M-2.5,-0.5L0,-3.0L2.5,-0.5"/>
                </g>
                <g id="arrowDown" xlink:href="#dirArrow" transform="rotate(180) translate(-30 -48)" onmousedown="handlePan(0,1)">
                  <use xlink:href="#rim" fill="#404040">
                        <set attributeName="fill" to="#808080" begin="arrowDown.mouseover" end="arrowDown.mouseout"/>
                  </use>
                  <path fill="none" stroke="white" stroke-width="1.5" d="M0,-3.0v7 M-2.5,-0.5L0,-3.0L2.5,-0.5"/>
                </g>
                <g id="arrowLeft" xlink:href="#dirArrow" transform="rotate(270) translate(-36 17)" onmousedown="handlePan(-1,0)">
                  <use xlink:href="#rim" fill="#404040">
                        <set attributeName="fill" to="#808080" begin="arrowLeft.mouseover" end="arrowLeft.mouseout"/>
                  </use>
                  <path fill="none" stroke="white" stroke-width="1.5" d="M0,-3.0v7 M-2.5,-0.5L0,-3.0L2.5,-0.5"/>
                </g>
        </g>
        <svg viewBox="0 0 15 15" width="100%" height="30px" preserveAspectRatio="xMaxYMin meet">
         <g id="arrow_out" transform="scale(0.3 0.3)">
          <a xlink:href="KeyMappingManager_8hpp__incl_org.svg" target="_base">
           <rect id="button" ry="5" rx="5" y="6" x="6" height="38" width="38"
                fill="#f2f5e9" fill-opacity="0.5" stroke="#606060" stroke-width="1.0"/>
           <path id="arrow"
             d="M 11.500037,31.436501 C 11.940474,20.09759 22.043105,11.32322 32.158766,21.979434 L 37.068811,17.246167 C 37.068811,17.246167 37.088388,32 37.088388,32 L 22.160133,31.978069 C 22.160133,31.978069 26.997745,27.140456 26.997745,27.140456 C 18.528582,18.264221 13.291696,25.230495 11.500037,31.436501 z"
             style="fill:#404040;"/>
          </a>
         </g>
        </svg>
</svg>
