<?xml version="1.0" encoding="UTF-8" standalone="no"?>
<!DOCTYPE svg PUBLIC "-//W3C//DTD SVG 1.1//EN"
 "http://www.w3.org/Graphics/SVG/1.1/DTD/svg11.dtd">
<!-- Generated by graphviz version 2.40.1 (20161225.0304)
 -->
<!-- Title: src/Core/Animation/KeyScaling.hpp Pages: 1 -->
<!--zoomable 330 -->
<svg id="main" version="1.1" xmlns="http://www.w3.org/2000/svg" xmlns:xlink="http://www.w3.org/1999/xlink" xml:space="preserve" onload="init(evt)">
<style type="text/css"><![CDATA[
.edge:hover path { stroke: red; }
.edge:hover polygon { stroke: red; fill: red; }
]]></style>
<script type="text/javascript"><![CDATA[
var edges = document.getElementsByTagName('g');
if (edges && edges.length) {
  for (var i=0;i<edges.length;i++) {
    if (edges[i].id.substr(0,4)=='edge') {
      edges[i].setAttribute('class','edge');
    }
  }
}
]]></script>
        <defs>
                <circle id="rim" cx="0" cy="0" r="7"/>
                <circle id="rim2" cx="0" cy="0" r="3.5"/>
                <g id="zoomPlus">
                        <use xlink:href="#rim" fill="#404040">
                                <set attributeName="fill" to="#808080" begin="zoomplus.mouseover" end="zoomplus.mouseout"/>
                        </use>
                        <path d="M-4,0h8M0,-4v8" fill="none" stroke="white" stroke-width="1.5" pointer-events="none"/>
                </g>
                <g id="zoomMin">
                        <use xlink:href="#rim" fill="#404040">
                                <set attributeName="fill" to="#808080" begin="zoomminus.mouseover" end="zoomminus.mouseout"/>
                        </use>
                        <path d="M-4,0h8" fill="none" stroke="white" stroke-width="1.5" pointer-events="none"/>
                </g>
                <g id="dirArrow">
                        <path fill="none" stroke="white" stroke-width="1.5" d="M0,-3.0v7 M-2.5,-0.5L0,-3.0L2.5,-0.5"/>
                </g>
               <g id="resetDef">
                       <use xlink:href="#rim2" fill="#404040">
                               <set attributeName="fill" to="#808080" begin="reset.mouseover" end="reset.mouseout"/>
                       </use>
               </g>
        </defs>

<script type="text/javascript">
var viewWidth = 880;
var viewHeight = 330;
var sectionId = 'dynsection-0';
</script>
<script xlink:href="svgpan.js"/>
<svg id="graph" class="graph">
<g id="viewport">
<title>src/Core/Animation/KeyScaling.hpp</title>
<polygon fill="#ffffff" stroke="transparent" points="-4,4 -4,-326 875.5,-326 875.5,4 -4,4"/>
<!-- Node0 -->
<g id="node1" class="node">
<title>Node0</title>
<polygon fill="#bfbfbf" stroke="#000000" points="265.5,-291.5 265.5,-321.5 375.5,-321.5 375.5,-291.5 265.5,-291.5"/>
<text text-anchor="start" x="273.5" y="-309.5" font-family="Helvetica,sans-Serif" font-size="10.00" fill="#000000">src/Core/Animation</text>
<text text-anchor="middle" x="320.5" y="-298.5" font-family="Helvetica,sans-Serif" font-size="10.00" fill="#000000">/KeyScaling.hpp</text>
</g>
<!-- Node1 -->
<g id="node2" class="node">
<title>Node1</title>
<g id="a_node2"><a xlink:href="Interpolation_8hpp.html" target="_top" xlink:title="Core/Animation/Interpolation.hpp">
<polygon fill="#ffffff" stroke="#000000" points="136,-235.5 136,-254.5 315,-254.5 315,-235.5 136,-235.5"/>
<text text-anchor="middle" x="225.5" y="-242.5" font-family="Helvetica,sans-Serif" font-size="10.00" fill="#000000">Core/Animation/Interpolation.hpp</text>
</a>
</g>
</g>
<!-- Node0&#45;&gt;Node1 -->
<g id="edge1" class="edge">
<title>Node0&#45;&gt;Node1</title>
<path fill="none" stroke="#191970" d="M297.0168,-291.2977C282.3652,-281.8127 263.5764,-269.6495 248.9341,-260.1705"/>
<polygon fill="#191970" stroke="#191970" points="250.7236,-257.1596 240.427,-254.6633 246.9195,-263.0357 250.7236,-257.1596"/>
</g>
<!-- Node13 -->
<g id="node14" class="node">
<title>Node13</title>
<g id="a_node14"><a xlink:href="KeyFrame_8hpp.html" target="_top" xlink:title="Core/Animation/KeyFrame.hpp">
<polygon fill="#ffffff" stroke="#000000" points="333.5,-235.5 333.5,-254.5 497.5,-254.5 497.5,-235.5 333.5,-235.5"/>
<text text-anchor="middle" x="415.5" y="-242.5" font-family="Helvetica,sans-Serif" font-size="10.00" fill="#000000">Core/Animation/KeyFrame.hpp</text>
</a>
</g>
</g>
<!-- Node0&#45;&gt;Node13 -->
<g id="edge13" class="edge">
<title>Node0&#45;&gt;Node13</title>
<path fill="none" stroke="#191970" d="M343.9832,-291.2977C358.6348,-281.8127 377.4236,-269.6495 392.0659,-260.1705"/>
<polygon fill="#191970" stroke="#191970" points="394.0805,-263.0357 400.573,-254.6633 390.2764,-257.1596 394.0805,-263.0357"/>
</g>
<!-- Node2 -->
<g id="node3" class="node">
<title>Node2</title>
<g id="a_node3"><a xlink:href="Types_8hpp.html" target="_top" xlink:title="Core/Types.hpp">
<polygon fill="#ffffff" stroke="#000000" points="190,-174 190,-193 281,-193 281,-174 190,-174"/>
<text text-anchor="middle" x="235.5" y="-181" font-family="Helvetica,sans-Serif" font-size="10.00" fill="#000000">Core/Types.hpp</text>
</a>
</g>
</g>
<!-- Node1&#45;&gt;Node2 -->
<g id="edge2" class="edge">
<title>Node1&#45;&gt;Node2</title>
<path fill="none" stroke="#191970" d="M227.0625,-235.3906C228.4487,-226.8657 230.518,-214.1392 232.2604,-203.4235"/>
<polygon fill="#191970" stroke="#191970" points="235.7651,-203.677 233.9155,-193.2449 228.8558,-202.5535 235.7651,-203.677"/>
</g>
<!-- Node3 -->
<g id="node4" class="node">
<title>Node3</title>
<g id="a_node4"><a xlink:href="RaCore_8hpp.html" target="_top" xlink:title="Core/RaCore.hpp">
<polygon fill="#ffffff" stroke="#000000" points="298.5,-112.5 298.5,-131.5 396.5,-131.5 396.5,-112.5 298.5,-112.5"/>
<text text-anchor="middle" x="347.5" y="-119.5" font-family="Helvetica,sans-Serif" font-size="10.00" fill="#000000">Core/RaCore.hpp</text>
</a>
</g>
</g>
<!-- Node2&#45;&gt;Node3 -->
<g id="edge3" class="edge">
<title>Node2&#45;&gt;Node3</title>
<path fill="none" stroke="#191970" d="M253,-173.8906C271.2465,-163.8713 300.0624,-148.0483 321.0806,-136.5071"/>
<polygon fill="#191970" stroke="#191970" points="323.042,-139.423 330.1229,-131.5419 319.6728,-133.2872 323.042,-139.423"/>
</g>
<!-- Node10 -->
<g id="node11" class="node">
<title>Node10</title>
<polygon fill="#ffffff" stroke="#bfbfbf" points="0,-112.5 0,-131.5 69,-131.5 69,-112.5 0,-112.5"/>
<text text-anchor="middle" x="34.5" y="-119.5" font-family="Helvetica,sans-Serif" font-size="10.00" fill="#000000">Eigen/Core</text>
</g>
<!-- Node2&#45;&gt;Node10 -->
<g id="edge10" class="edge">
<title>Node2&#45;&gt;Node10</title>
<path fill="none" stroke="#191970" d="M204.0938,-173.8906C169.4302,-163.2846 113.5119,-146.1753 75.4375,-134.5257"/>
<polygon fill="#191970" stroke="#191970" points="76.2722,-131.1209 65.6857,-131.5419 74.2241,-137.8146 76.2722,-131.1209"/>
</g>
<!-- Node11 -->
<g id="node12" class="node">
<title>Node11</title>
<polygon fill="#ffffff" stroke="#bfbfbf" points="87,-112.5 87,-131.5 182,-131.5 182,-112.5 87,-112.5"/>
<text text-anchor="middle" x="134.5" y="-119.5" font-family="Helvetica,sans-Serif" font-size="10.00" fill="#000000">Eigen/Geometry</text>
</g>
<!-- Node2&#45;&gt;Node11 -->
<g id="edge11" class="edge">
<title>Node2&#45;&gt;Node11</title>
<path fill="none" stroke="#191970" d="M219.7188,-173.8906C203.4125,-163.9616 177.746,-148.333 158.8386,-136.8201"/>
<polygon fill="#191970" stroke="#191970" points="160.5319,-133.7533 150.1704,-131.5419 156.8913,-139.7322 160.5319,-133.7533"/>
</g>
<!-- Node12 -->
<g id="node13" class="node">
<title>Node12</title>
<polygon fill="#ffffff" stroke="#bfbfbf" points="200.5,-112.5 200.5,-131.5 280.5,-131.5 280.5,-112.5 200.5,-112.5"/>
<text text-anchor="middle" x="240.5" y="-119.5" font-family="Helvetica,sans-Serif" font-size="10.00" fill="#000000">Eigen/Sparse</text>
</g>
<!-- Node2&#45;&gt;Node12 -->
<g id="edge12" class="edge">
<title>Node2&#45;&gt;Node12</title>
<path fill="none" stroke="#191970" d="M236.2813,-173.8906C236.9743,-165.3657 238.009,-152.6392 238.8802,-141.9235"/>
<polygon fill="#191970" stroke="#191970" points="242.3858,-141.9956 239.7077,-131.7449 235.4088,-141.4283 242.3858,-141.9956"/>
</g>
<!-- Node4 -->
<g id="node5" class="node">
<title>Node4</title>
<g id="a_node5"><a xlink:href="CoreMacros_8hpp.html" target="_top" xlink:title="Core/CoreMacros.hpp">
<polygon fill="#ffffff" stroke="#000000" points="480.5,-56.5 480.5,-75.5 600.5,-75.5 600.5,-56.5 480.5,-56.5"/>
<text text-anchor="middle" x="540.5" y="-63.5" font-family="Helvetica,sans-Serif" font-size="10.00" fill="#000000">Core/CoreMacros.hpp</text>
</a>
</g>
</g>
<!-- Node3&#45;&gt;Node4 -->
<g id="edge4" class="edge">
<title>Node3&#45;&gt;Node4</title>
<path fill="none" stroke="#191970" d="M380.6779,-112.3733C413.0487,-102.9807 462.4398,-88.6496 497.7424,-78.4064"/>
<polygon fill="#191970" stroke="#191970" points="499.1265,-81.6492 507.7551,-75.5011 497.1758,-74.9264 499.1265,-81.6492"/>
</g>
<!-- Node5 -->
<g id="node6" class="node">
<title>Node5</title>
<polygon fill="#ffffff" stroke="#bfbfbf" points="376.5,-.5 376.5,-19.5 428.5,-19.5 428.5,-.5 376.5,-.5"/>
<text text-anchor="middle" x="402.5" y="-7.5" font-family="Helvetica,sans-Serif" font-size="10.00" fill="#000000">cassert</text>
</g>
<!-- Node4&#45;&gt;Node5 -->
<g id="edge5" class="edge">
<title>Node4&#45;&gt;Node5</title>
<path fill="none" stroke="#191970" d="M516.777,-56.3733C494.3263,-47.2629 460.4261,-33.5062 435.3745,-23.3404"/>
<polygon fill="#191970" stroke="#191970" points="436.4957,-20.0182 425.9135,-19.5011 433.8635,-26.5045 436.4957,-20.0182"/>
</g>
<!-- Node6 -->
<g id="node7" class="node">
<title>Node6</title>
<polygon fill="#ffffff" stroke="#bfbfbf" points="446.5,-.5 446.5,-19.5 492.5,-19.5 492.5,-.5 446.5,-.5"/>
<text text-anchor="middle" x="469.5" y="-7.5" font-family="Helvetica,sans-Serif" font-size="10.00" fill="#000000">cstdio</text>
</g>
<!-- Node4&#45;&gt;Node6 -->
<g id="edge6" class="edge">
<title>Node4&#45;&gt;Node6</title>
<path fill="none" stroke="#191970" d="M528.1327,-56.2455C517.5446,-47.8943 502.0936,-35.7076 489.7107,-25.9408"/>
<polygon fill="#191970" stroke="#191970" points="491.7447,-23.0875 481.7255,-19.6427 487.4097,-28.5837 491.7447,-23.0875"/>
</g>
<!-- Node7 -->
<g id="node8" class="node">
<title>Node7</title>
<polygon fill="#ffffff" stroke="#bfbfbf" points="510.5,-.5 510.5,-19.5 570.5,-19.5 570.5,-.5 510.5,-.5"/>
<text text-anchor="middle" x="540.5" y="-7.5" font-family="Helvetica,sans-Serif" font-size="10.00" fill="#000000">iostream</text>
</g>
<!-- Node4&#45;&gt;Node7 -->
<g id="edge7" class="edge">
<title>Node4&#45;&gt;Node7</title>
<path fill="none" stroke="#191970" d="M540.5,-56.2455C540.5,-48.9382 540.5,-38.6944 540.5,-29.7046"/>
<polygon fill="#191970" stroke="#191970" points="544.0001,-29.6426 540.5,-19.6427 537.0001,-29.6427 544.0001,-29.6426"/>
</g>
<!-- Node8 -->
<g id="node9" class="node">
<title>Node8</title>
<polygon fill="#ffffff" stroke="#bfbfbf" points="588.5,-.5 588.5,-19.5 644.5,-19.5 644.5,-.5 588.5,-.5"/>
<text text-anchor="middle" x="616.5" y="-7.5" font-family="Helvetica,sans-Serif" font-size="10.00" fill="#000000">sstream</text>
</g>
<!-- Node4&#45;&gt;Node8 -->
<g id="edge8" class="edge">
<title>Node4&#45;&gt;Node8</title>
<path fill="none" stroke="#191970" d="M553.7382,-56.2455C565.181,-47.814 581.9296,-35.4729 595.2475,-25.6598"/>
<polygon fill="#191970" stroke="#191970" points="597.4391,-28.3924 603.4135,-19.6427 593.2867,-22.757 597.4391,-28.3924"/>
</g>
<!-- Node9 -->
<g id="node10" class="node">
<title>Node9</title>
<polygon fill="#ffffff" stroke="#bfbfbf" points="662.5,-.5 662.5,-19.5 710.5,-19.5 710.5,-.5 662.5,-.5"/>
<text text-anchor="middle" x="686.5" y="-7.5" font-family="Helvetica,sans-Serif" font-size="10.00" fill="#000000">thread</text>
</g>
<!-- Node4&#45;&gt;Node9 -->
<g id="edge9" class="edge">
<title>Node4&#45;&gt;Node9</title>
<path fill="none" stroke="#191970" d="M565.5983,-56.3733C589.6001,-47.1671 625.9713,-33.2165 652.5524,-23.021"/>
<polygon fill="#191970" stroke="#191970" points="654.131,-26.1642 662.2144,-19.315 651.6242,-19.6285 654.131,-26.1642"/>
</g>
<!-- Node13&#45;&gt;Node2 -->
<g id="edge22" class="edge">
<title>Node13&#45;&gt;Node2</title>
<path fill="none" stroke="#191970" d="M387.375,-235.3906C356.5972,-224.8749 307.1079,-207.966 273.0345,-196.3243"/>
<polygon fill="#191970" stroke="#191970" points="274.022,-192.9631 263.4275,-193.0419 271.7588,-199.5871 274.022,-192.9631"/>
</g>
<!-- Node14 -->
<g id="node15" class="node">
<title>Node14</title>
<polygon fill="#ffffff" stroke="#bfbfbf" points="340.5,-174 340.5,-193 378.5,-193 378.5,-174 340.5,-174"/>
<text text-anchor="middle" x="359.5" y="-181" font-family="Helvetica,sans-Serif" font-size="10.00" fill="#000000">map</text>
</g>
<!-- Node13&#45;&gt;Node14 -->
<g id="edge14" class="edge">
<title>Node13&#45;&gt;Node14</title>
<path fill="none" stroke="#191970" d="M406.75,-235.3906C398.3338,-226.1478 385.4203,-211.966 375.219,-200.7628"/>
<polygon fill="#191970" stroke="#191970" points="377.694,-198.2824 368.3734,-193.2449 372.5182,-202.9953 377.694,-198.2824"/>
</g>
<!-- Node15 -->
<g id="node16" class="node">
<title>Node15</title>
<polygon fill="#ffffff" stroke="#bfbfbf" points="396.5,-174 396.5,-193 428.5,-193 428.5,-174 396.5,-174"/>
<text text-anchor="middle" x="412.5" y="-181" font-family="Helvetica,sans-Serif" font-size="10.00" fill="#000000">set</text>
</g>
<!-- Node13&#45;&gt;Node15 -->
<g id="edge15" class="edge">
<title>Node13&#45;&gt;Node15</title>
<path fill="none" stroke="#191970" d="M415.0313,-235.3906C414.6154,-226.8657 413.9946,-214.1392 413.4719,-203.4235"/>
<polygon fill="#191970" stroke="#191970" points="416.9585,-203.0624 412.9754,-193.2449 409.9668,-203.4035 416.9585,-203.0624"/>
</g>
<!-- Node16 -->
<g id="node17" class="node">
<title>Node16</title>
<g id="a_node17"><a xlink:href="AlignedAllocator_8hpp.html" target="_top" xlink:title="Core/Containers/AlignedAllocator.hpp">
<polygon fill="#ffffff" stroke="#000000" points="446.5,-174 446.5,-193 644.5,-193 644.5,-174 446.5,-174"/>
<text text-anchor="middle" x="545.5" y="-181" font-family="Helvetica,sans-Serif" font-size="10.00" fill="#000000">Core/Containers/AlignedAllocator.hpp</text>
</a>
</g>
</g>
<!-- Node13&#45;&gt;Node16 -->
<g id="edge16" class="edge">
<title>Node13&#45;&gt;Node16</title>
<path fill="none" stroke="#191970" d="M435.8125,-235.3906C457.3731,-225.1908 491.6478,-208.9763 516.1444,-197.3875"/>
<polygon fill="#191970" stroke="#191970" points="517.7874,-200.4822 525.3301,-193.0419 514.7939,-194.1545 517.7874,-200.4822"/>
</g>
<!-- Node21 -->
<g id="node22" class="node">
<title>Node21</title>
<g id="a_node22"><a xlink:href="AnimationTime_8hpp.html" target="_top" xlink:title="Core/Animation/Animation\lTime.hpp">
<polygon fill="#ffffff" stroke="#000000" points="686.5,-168.5 686.5,-198.5 832.5,-198.5 832.5,-168.5 686.5,-168.5"/>
<text text-anchor="start" x="694.5" y="-186.5" font-family="Helvetica,sans-Serif" font-size="10.00" fill="#000000">Core/Animation/Animation</text>
<text text-anchor="middle" x="759.5" y="-175.5" font-family="Helvetica,sans-Serif" font-size="10.00" fill="#000000">Time.hpp</text>
</a>
</g>
</g>
<!-- Node13&#45;&gt;Node21 -->
<g id="edge23" class="edge">
<title>Node13&#45;&gt;Node21</title>
<path fill="none" stroke="#191970" d="M468.8726,-235.4581C524.3145,-225.5462 611.8183,-209.9024 676.3363,-198.3679"/>
<polygon fill="#191970" stroke="#191970" points="677.2573,-201.7589 686.4852,-196.5535 676.0253,-194.8681 677.2573,-201.7589"/>
</g>
<!-- Node16&#45;&gt;Node3 -->
<g id="edge17" class="edge">
<title>Node16&#45;&gt;Node3</title>
<path fill="none" stroke="#191970" d="M514.5625,-173.8906C480.4163,-163.2846 425.3326,-146.1753 387.8265,-134.5257"/>
<polygon fill="#191970" stroke="#191970" points="388.8084,-131.1658 378.2203,-131.5419 386.732,-137.8507 388.8084,-131.1658"/>
</g>
<!-- Node17 -->
<g id="node18" class="node">
<title>Node17</title>
<polygon fill="#ffffff" stroke="#bfbfbf" points="415,-112.5 415,-131.5 498,-131.5 498,-112.5 415,-112.5"/>
<text text-anchor="middle" x="456.5" y="-119.5" font-family="Helvetica,sans-Serif" font-size="10.00" fill="#000000">mm_malloc.h</text>
</g>
<!-- Node16&#45;&gt;Node17 -->
<g id="edge18" class="edge">
<title>Node16&#45;&gt;Node17</title>
<path fill="none" stroke="#191970" d="M531.5938,-173.8906C517.4862,-164.1421 495.4276,-148.8994 478.8615,-137.4521"/>
<polygon fill="#191970" stroke="#191970" points="480.5253,-134.3474 470.3086,-131.5419 476.5458,-140.1063 480.5253,-134.3474"/>
</g>
<!-- Node18 -->
<g id="node19" class="node">
<title>Node18</title>
<polygon fill="#ffffff" stroke="#bfbfbf" points="516,-112.5 516,-131.5 569,-131.5 569,-112.5 516,-112.5"/>
<text text-anchor="middle" x="542.5" y="-119.5" font-family="Helvetica,sans-Serif" font-size="10.00" fill="#000000">cstddef</text>
</g>
<!-- Node16&#45;&gt;Node18 -->
<g id="edge19" class="edge">
<title>Node16&#45;&gt;Node18</title>
<path fill="none" stroke="#191970" d="M545.0313,-173.8906C544.6154,-165.3657 543.9946,-152.6392 543.4719,-141.9235"/>
<polygon fill="#191970" stroke="#191970" points="546.9585,-141.5624 542.9754,-131.7449 539.9668,-141.9035 546.9585,-141.5624"/>
</g>
<!-- Node19 -->
<g id="node20" class="node">
<title>Node19</title>
<polygon fill="#ffffff" stroke="#bfbfbf" points="587.5,-112.5 587.5,-131.5 637.5,-131.5 637.5,-112.5 587.5,-112.5"/>
<text text-anchor="middle" x="612.5" y="-119.5" font-family="Helvetica,sans-Serif" font-size="10.00" fill="#000000">cstdint</text>
</g>
<!-- Node16&#45;&gt;Node19 -->
<g id="edge20" class="edge">
<title>Node16&#45;&gt;Node19</title>
<path fill="none" stroke="#191970" d="M555.9688,-173.8906C566.2337,-164.4683 582.0903,-149.9134 594.4006,-138.6137"/>
<polygon fill="#191970" stroke="#191970" points="596.8834,-141.0856 601.8837,-131.7449 592.1499,-135.9287 596.8834,-141.0856"/>
</g>
<!-- Node20 -->
<g id="node21" class="node">
<title>Node20</title>
<polygon fill="#ffffff" stroke="#bfbfbf" points="656,-112.5 656,-131.5 705,-131.5 705,-112.5 656,-112.5"/>
<text text-anchor="middle" x="680.5" y="-119.5" font-family="Helvetica,sans-Serif" font-size="10.00" fill="#000000">cstdlib</text>
</g>
<!-- Node16&#45;&gt;Node20 -->
<g id="edge21" class="edge">
<title>Node16&#45;&gt;Node20</title>
<path fill="none" stroke="#191970" d="M566.5938,-173.8906C589.0827,-163.6457 624.8918,-147.3326 650.3524,-135.7339"/>
<polygon fill="#191970" stroke="#191970" points="651.9052,-138.8727 659.5544,-131.5419 649.0032,-132.5025 651.9052,-138.8727"/>
</g>
<!-- Node21&#45;&gt;Node4 -->
<g id="edge24" class="edge">
<title>Node21&#45;&gt;Node4</title>
<path fill="none" stroke="#191970" d="M753.8765,-168.2518C747.058,-151.8911 734.0011,-126.3311 714.5,-112 696.7264,-98.9384 645.636,-86.293 603.3824,-77.5773"/>
<polygon fill="#191970" stroke="#191970" points="603.9079,-74.1127 593.4122,-75.5587 602.5188,-80.9735 603.9079,-74.1127"/>
</g>
<!-- Node22 -->
<g id="node23" class="node">
<title>Node22</title>
<polygon fill="#ffffff" stroke="#bfbfbf" points="762,-112.5 762,-131.5 809,-131.5 809,-112.5 762,-112.5"/>
<text text-anchor="middle" x="785.5" y="-119.5" font-family="Helvetica,sans-Serif" font-size="10.00" fill="#000000">cmath</text>
</g>
<!-- Node21&#45;&gt;Node22 -->
<g id="edge25" class="edge">
<title>Node21&#45;&gt;Node22</title>
<path fill="none" stroke="#191970" d="M765.927,-168.2977C769.3857,-160.1166 773.6867,-149.943 777.3754,-141.2179"/>
<polygon fill="#191970" stroke="#191970" points="780.6668,-142.4205 781.3371,-131.8469 774.2193,-139.6947 780.6668,-142.4205"/>
</g>
<!-- Node23 -->
<g id="node24" class="node">
<title>Node23</title>
<polygon fill="#ffffff" stroke="#bfbfbf" points="827.5,-112.5 827.5,-131.5 871.5,-131.5 871.5,-112.5 827.5,-112.5"/>
<text text-anchor="middle" x="849.5" y="-119.5" font-family="Helvetica,sans-Serif" font-size="10.00" fill="#000000">limits</text>
</g>
<!-- Node21&#45;&gt;Node23 -->
<g id="edge26" class="edge">
<title>Node21&#45;&gt;Node23</title>
<path fill="none" stroke="#191970" d="M781.7472,-168.2977C795.4967,-158.9022 813.0921,-146.8787 826.9057,-137.4395"/>
<polygon fill="#191970" stroke="#191970" points="829.0768,-140.195 835.3586,-131.6633 825.1275,-134.4155 829.0768,-140.195"/>
</g>
</g>
</svg>
        <g id="navigator" transform="translate(0 0)" fill="#404254">
                <rect fill="#f2f5e9" fill-opacity="0.5" stroke="#606060" stroke-width=".5" x="0" y="0" width="60" height="60"/>
                <use id="zoomplus" xlink:href="#zoomPlus" x="17" y="9" onmousedown="handleZoom(evt,'in')"/>
                <use id="zoomminus" xlink:href="#zoomMin" x="42" y="9" onmousedown="handleZoom(evt,'out')"/>
                <use id="reset" xlink:href="#resetDef" x="30" y="36" onmousedown="handleReset()"/>
                <g id="arrowUp" xlink:href="#dirArrow" transform="translate(30 24)" onmousedown="handlePan(0,-1)">
                  <use xlink:href="#rim" fill="#404040">
                        <set attributeName="fill" to="#808080" begin="arrowUp.mouseover" end="arrowUp.mouseout"/>
                  </use>
                  <path fill="none" stroke="white" stroke-width="1.5" d="M0,-3.0v7 M-2.5,-0.5L0,-3.0L2.5,-0.5"/>
                </g>
                <g id="arrowRight" xlink:href="#dirArrow" transform="rotate(90) translate(36 -43)" onmousedown="handlePan(1,0)">
                  <use xlink:href="#rim" fill="#404040">
                        <set attributeName="fill" to="#808080" begin="arrowRight.mouseover" end="arrowRight.mouseout"/>
                  </use>
                  <path fill="none" stroke="white" stroke-width="1.5" d="M0,-3.0v7 M-2.5,-0.5L0,-3.0L2.5,-0.5"/>
                </g>
                <g id="arrowDown" xlink:href="#dirArrow" transform="rotate(180) translate(-30 -48)" onmousedown="handlePan(0,1)">
                  <use xlink:href="#rim" fill="#404040">
                        <set attributeName="fill" to="#808080" begin="arrowDown.mouseover" end="arrowDown.mouseout"/>
                  </use>
                  <path fill="none" stroke="white" stroke-width="1.5" d="M0,-3.0v7 M-2.5,-0.5L0,-3.0L2.5,-0.5"/>
                </g>
                <g id="arrowLeft" xlink:href="#dirArrow" transform="rotate(270) translate(-36 17)" onmousedown="handlePan(-1,0)">
                  <use xlink:href="#rim" fill="#404040">
                        <set attributeName="fill" to="#808080" begin="arrowLeft.mouseover" end="arrowLeft.mouseout"/>
                  </use>
                  <path fill="none" stroke="white" stroke-width="1.5" d="M0,-3.0v7 M-2.5,-0.5L0,-3.0L2.5,-0.5"/>
                </g>
        </g>
        <svg viewBox="0 0 15 15" width="100%" height="30px" preserveAspectRatio="xMaxYMin meet">
         <g id="arrow_out" transform="scale(0.3 0.3)">
          <a xlink:href="KeyScaling_8hpp__incl_org.svg" target="_base">
           <rect id="button" ry="5" rx="5" y="6" x="6" height="38" width="38"
                fill="#f2f5e9" fill-opacity="0.5" stroke="#606060" stroke-width="1.0"/>
           <path id="arrow"
             d="M 11.500037,31.436501 C 11.940474,20.09759 22.043105,11.32322 32.158766,21.979434 L 37.068811,17.246167 C 37.068811,17.246167 37.088388,32 37.088388,32 L 22.160133,31.978069 C 22.160133,31.978069 26.997745,27.140456 26.997745,27.140456 C 18.528582,18.264221 13.291696,25.230495 11.500037,31.436501 z"
             style="fill:#404040;"/>
          </a>
         </g>
        </svg>
</svg>
