<?xml version="1.0" encoding="UTF-8" standalone="no"?>
<!DOCTYPE svg PUBLIC "-//W3C//DTD SVG 1.1//EN"
 "http://www.w3.org/Graphics/SVG/1.1/DTD/svg11.dtd">
<!-- Generated by graphviz version 2.40.1 (20161225.0304)
 -->
<!-- Title: src/Core/Animation/KeyTranslation.hpp Pages: 1 -->
<svg width="190pt" height="106pt"
 viewBox="0.00 0.00 190.00 106.00" xmlns="http://www.w3.org/2000/svg" xmlns:xlink="http://www.w3.org/1999/xlink">
<g id="graph0" class="graph" transform="scale(1 1) rotate(0) translate(4 102)">
<title>src/Core/Animation/KeyTranslation.hpp</title>
<polygon fill="#ffffff" stroke="transparent" points="-4,4 -4,-102 186,-102 186,4 -4,4"/>
<!-- Node24 -->
<g id="node1" class="node">
<title>Node24</title>
<polygon fill="#bfbfbf" stroke="#000000" points="35,-67.5 35,-97.5 147,-97.5 147,-67.5 35,-67.5"/>
<text text-anchor="start" x="43" y="-85.5" font-family="Helvetica,sans-Serif" font-size="10.00" fill="#000000">src/Core/Animation</text>
<text text-anchor="middle" x="91" y="-74.5" font-family="Helvetica,sans-Serif" font-size="10.00" fill="#000000">/KeyTranslation.hpp</text>
</g>
<!-- Node25 -->
<g id="node2" class="node">
<title>Node25</title>
<g id="a_node2"><a xlink:href="AssimpAnimationDataLoader_8cpp.html" target="_top" xlink:title="src/IO/AssimpLoader\l/AssimpAnimationDataLoader.cpp">
<polygon fill="#ffffff" stroke="#000000" points="0,-.5 0,-30.5 182,-30.5 182,-.5 0,-.5"/>
<text text-anchor="start" x="8" y="-18.5" font-family="Helvetica,sans-Serif" font-size="10.00" fill="#000000">src/IO/AssimpLoader</text>
<text text-anchor="middle" x="91" y="-7.5" font-family="Helvetica,sans-Serif" font-size="10.00" fill="#000000">/AssimpAnimationDataLoader.cpp</text>
</a>
</g>
</g>
<!-- Node24&#45;&gt;Node25 -->
<g id="edge1" class="edge">
<title>Node24&#45;&gt;Node25</title>
<path fill="none" stroke="#191970" d="M91,-57.0249C91,-48.128 91,-38.4287 91,-30.6432"/>
<polygon fill="#191970" stroke="#191970" points="87.5001,-57.2966 91,-67.2967 94.5001,-57.2967 87.5001,-57.2966"/>
</g>
</g>
</svg>
