<?xml version="1.0" encoding="UTF-8" standalone="no"?>
<!DOCTYPE svg PUBLIC "-//W3C//DTD SVG 1.1//EN"
 "http://www.w3.org/Graphics/SVG/1.1/DTD/svg11.dtd">
<!-- Generated by graphviz version 2.40.1 (20161225.0304)
 -->
<!-- Title: src/Engine/Managers/LightManager/LightStorage.hpp Pages: 1 -->
<!--zoomable 397 -->
<svg id="main" version="1.1" xmlns="http://www.w3.org/2000/svg" xmlns:xlink="http://www.w3.org/1999/xlink" xml:space="preserve" onload="init(evt)">
<style type="text/css"><![CDATA[
.edge:hover path { stroke: red; }
.edge:hover polygon { stroke: red; fill: red; }
]]></style>
<script type="text/javascript"><![CDATA[
var edges = document.getElementsByTagName('g');
if (edges && edges.length) {
  for (var i=0;i<edges.length;i++) {
    if (edges[i].id.substr(0,4)=='edge') {
      edges[i].setAttribute('class','edge');
    }
  }
}
]]></script>
        <defs>
                <circle id="rim" cx="0" cy="0" r="7"/>
                <circle id="rim2" cx="0" cy="0" r="3.5"/>
                <g id="zoomPlus">
                        <use xlink:href="#rim" fill="#404040">
                                <set attributeName="fill" to="#808080" begin="zoomplus.mouseover" end="zoomplus.mouseout"/>
                        </use>
                        <path d="M-4,0h8M0,-4v8" fill="none" stroke="white" stroke-width="1.5" pointer-events="none"/>
                </g>
                <g id="zoomMin">
                        <use xlink:href="#rim" fill="#404040">
                                <set attributeName="fill" to="#808080" begin="zoomminus.mouseover" end="zoomminus.mouseout"/>
                        </use>
                        <path d="M-4,0h8" fill="none" stroke="white" stroke-width="1.5" pointer-events="none"/>
                </g>
                <g id="dirArrow">
                        <path fill="none" stroke="white" stroke-width="1.5" d="M0,-3.0v7 M-2.5,-0.5L0,-3.0L2.5,-0.5"/>
                </g>
               <g id="resetDef">
                       <use xlink:href="#rim2" fill="#404040">
                               <set attributeName="fill" to="#808080" begin="reset.mouseover" end="reset.mouseout"/>
                       </use>
               </g>
        </defs>

<script type="text/javascript">
var viewWidth = 1037;
var viewHeight = 397;
var sectionId = 'dynsection-0';
</script>
<script xlink:href="svgpan.js"/>
<svg id="graph" class="graph">
<g id="viewport">
<title>src/Engine/Managers/LightManager/LightStorage.hpp</title>
<polygon fill="#ffffff" stroke="transparent" points="-4,4 -4,-393 1032.5948,-393 1032.5948,4 -4,4"/>
<!-- Node0 -->
<g id="node1" class="node">
<title>Node0</title>
<polygon fill="#bfbfbf" stroke="#000000" points="611,-358.5 611,-388.5 782,-388.5 782,-358.5 611,-358.5"/>
<text text-anchor="start" x="619" y="-376.5" font-family="Helvetica,sans-Serif" font-size="10.00" fill="#000000">src/Engine/Managers</text>
<text text-anchor="middle" x="696.5" y="-365.5" font-family="Helvetica,sans-Serif" font-size="10.00" fill="#000000">/LightManager/LightStorage.hpp</text>
</g>
<!-- Node1 -->
<g id="node2" class="node">
<title>Node1</title>
<g id="a_node2"><a xlink:href="RaEngine_8hpp.html" target="_top" xlink:title="../../RaEngine.hpp">
<polygon fill="#ffffff" stroke="#000000" points="587,-168.5 587,-187.5 688,-187.5 688,-168.5 587,-168.5"/>
<text text-anchor="middle" x="637.5" y="-175.5" font-family="Helvetica,sans-Serif" font-size="10.00" fill="#000000">../../RaEngine.hpp</text>
</a>
</g>
</g>
<!-- Node0&#45;&gt;Node1 -->
<g id="edge1" class="edge">
<title>Node0&#45;&gt;Node1</title>
<path fill="none" stroke="#191970" d="M705.4172,-358.2879C720.8209,-329.8198 748.3918,-267.4521 722.5,-224 713.609,-209.0789 698.0103,-198.7035 682.5823,-191.6373"/>
<polygon fill="#191970" stroke="#191970" points="683.6358,-188.2841 673.0598,-187.6541 680.9346,-194.742 683.6358,-188.2841"/>
</g>
<!-- Node8 -->
<g id="node9" class="node">
<title>Node8</title>
<g id="a_node9"><a xlink:href="Light_8hpp.html" target="_top" xlink:title="../../Renderer/Light\l/Light.hpp">
<polygon fill="#ffffff" stroke="#000000" points="599,-291.5 599,-321.5 704,-321.5 704,-291.5 599,-291.5"/>
<text text-anchor="start" x="607" y="-309.5" font-family="Helvetica,sans-Serif" font-size="10.00" fill="#000000">../../Renderer/Light</text>
<text text-anchor="middle" x="651.5" y="-298.5" font-family="Helvetica,sans-Serif" font-size="10.00" fill="#000000">/Light.hpp</text>
</a>
</g>
</g>
<!-- Node0&#45;&gt;Node8 -->
<g id="edge8" class="edge">
<title>Node0&#45;&gt;Node8</title>
<path fill="none" stroke="#191970" d="M686.2888,-358.2967C680.7079,-349.9873 673.6719,-339.5115 667.3902,-330.1587"/>
<polygon fill="#191970" stroke="#191970" points="670.1519,-327.9931 661.6708,-321.6432 664.3409,-331.896 670.1519,-327.9931"/>
</g>
<!-- Node2 -->
<g id="node3" class="node">
<title>Node2</title>
<g id="a_node3"><a xlink:href="CoreMacros_8hpp.html" target="_top" xlink:title="Core/CoreMacros.hpp">
<polygon fill="#ffffff" stroke="#000000" points="664.5,-56.5 664.5,-75.5 784.5,-75.5 784.5,-56.5 664.5,-56.5"/>
<text text-anchor="middle" x="724.5" y="-63.5" font-family="Helvetica,sans-Serif" font-size="10.00" fill="#000000">Core/CoreMacros.hpp</text>
</a>
</g>
</g>
<!-- Node1&#45;&gt;Node2 -->
<g id="edge2" class="edge">
<title>Node1&#45;&gt;Node2</title>
<path fill="none" stroke="#191970" d="M659.1883,-168.3358C674.2608,-160.5635 693.6898,-148.2604 705.5,-132 715.3417,-118.4498 720.1034,-99.9013 722.3969,-85.9179"/>
<polygon fill="#191970" stroke="#191970" points="725.8846,-86.2439 723.757,-75.8649 718.9478,-85.3054 725.8846,-86.2439"/>
</g>
<!-- Node3 -->
<g id="node4" class="node">
<title>Node3</title>
<polygon fill="#ffffff" stroke="#bfbfbf" points="560.5,-.5 560.5,-19.5 612.5,-19.5 612.5,-.5 560.5,-.5"/>
<text text-anchor="middle" x="586.5" y="-7.5" font-family="Helvetica,sans-Serif" font-size="10.00" fill="#000000">cassert</text>
</g>
<!-- Node2&#45;&gt;Node3 -->
<g id="edge3" class="edge">
<title>Node2&#45;&gt;Node3</title>
<path fill="none" stroke="#191970" d="M700.777,-56.3733C678.3263,-47.2629 644.4261,-33.5062 619.3745,-23.3404"/>
<polygon fill="#191970" stroke="#191970" points="620.4957,-20.0182 609.9135,-19.5011 617.8635,-26.5045 620.4957,-20.0182"/>
</g>
<!-- Node4 -->
<g id="node5" class="node">
<title>Node4</title>
<polygon fill="#ffffff" stroke="#bfbfbf" points="630.5,-.5 630.5,-19.5 676.5,-19.5 676.5,-.5 630.5,-.5"/>
<text text-anchor="middle" x="653.5" y="-7.5" font-family="Helvetica,sans-Serif" font-size="10.00" fill="#000000">cstdio</text>
</g>
<!-- Node2&#45;&gt;Node4 -->
<g id="edge4" class="edge">
<title>Node2&#45;&gt;Node4</title>
<path fill="none" stroke="#191970" d="M712.1327,-56.2455C701.5446,-47.8943 686.0936,-35.7076 673.7107,-25.9408"/>
<polygon fill="#191970" stroke="#191970" points="675.7447,-23.0875 665.7255,-19.6427 671.4097,-28.5837 675.7447,-23.0875"/>
</g>
<!-- Node5 -->
<g id="node6" class="node">
<title>Node5</title>
<polygon fill="#ffffff" stroke="#bfbfbf" points="694.5,-.5 694.5,-19.5 754.5,-19.5 754.5,-.5 694.5,-.5"/>
<text text-anchor="middle" x="724.5" y="-7.5" font-family="Helvetica,sans-Serif" font-size="10.00" fill="#000000">iostream</text>
</g>
<!-- Node2&#45;&gt;Node5 -->
<g id="edge5" class="edge">
<title>Node2&#45;&gt;Node5</title>
<path fill="none" stroke="#191970" d="M724.5,-56.2455C724.5,-48.9382 724.5,-38.6944 724.5,-29.7046"/>
<polygon fill="#191970" stroke="#191970" points="728.0001,-29.6426 724.5,-19.6427 721.0001,-29.6427 728.0001,-29.6426"/>
</g>
<!-- Node6 -->
<g id="node7" class="node">
<title>Node6</title>
<polygon fill="#ffffff" stroke="#bfbfbf" points="772.5,-.5 772.5,-19.5 828.5,-19.5 828.5,-.5 772.5,-.5"/>
<text text-anchor="middle" x="800.5" y="-7.5" font-family="Helvetica,sans-Serif" font-size="10.00" fill="#000000">sstream</text>
</g>
<!-- Node2&#45;&gt;Node6 -->
<g id="edge6" class="edge">
<title>Node2&#45;&gt;Node6</title>
<path fill="none" stroke="#191970" d="M737.7382,-56.2455C749.181,-47.814 765.9296,-35.4729 779.2475,-25.6598"/>
<polygon fill="#191970" stroke="#191970" points="781.4391,-28.3924 787.4135,-19.6427 777.2867,-22.757 781.4391,-28.3924"/>
</g>
<!-- Node7 -->
<g id="node8" class="node">
<title>Node7</title>
<polygon fill="#ffffff" stroke="#bfbfbf" points="846.5,-.5 846.5,-19.5 894.5,-19.5 894.5,-.5 846.5,-.5"/>
<text text-anchor="middle" x="870.5" y="-7.5" font-family="Helvetica,sans-Serif" font-size="10.00" fill="#000000">thread</text>
</g>
<!-- Node2&#45;&gt;Node7 -->
<g id="edge7" class="edge">
<title>Node2&#45;&gt;Node7</title>
<path fill="none" stroke="#191970" d="M749.5983,-56.3733C773.6001,-47.1671 809.9713,-33.2165 836.5524,-23.021"/>
<polygon fill="#191970" stroke="#191970" points="838.131,-26.1642 846.2144,-19.315 835.6242,-19.6285 838.131,-26.1642"/>
</g>
<!-- Node8&#45;&gt;Node1 -->
<g id="edge38" class="edge">
<title>Node8&#45;&gt;Node1</title>
<path fill="none" stroke="#191970" d="M619.0457,-291.3708C604.773,-282.8631 589.4669,-270.7522 581.5,-255 575.2817,-242.7053 575.612,-236.4563 581.5,-224 587.5246,-211.2547 599.0032,-200.8542 610.0074,-193.1874"/>
<polygon fill="#191970" stroke="#191970" points="612.1121,-195.9948 618.6176,-187.6324 608.3172,-190.1127 612.1121,-195.9948"/>
</g>
<!-- Node9 -->
<g id="node10" class="node">
<title>Node9</title>
<g id="a_node10"><a xlink:href="Color_8hpp.html" target="_top" xlink:title="Core/Utils/Color.hpp">
<polygon fill="#ffffff" stroke="#000000" points="770,-230 770,-249 883,-249 883,-230 770,-230"/>
<text text-anchor="middle" x="826.5" y="-237" font-family="Helvetica,sans-Serif" font-size="10.00" fill="#000000">Core/Utils/Color.hpp</text>
</a>
</g>
</g>
<!-- Node8&#45;&gt;Node9 -->
<g id="edge9" class="edge">
<title>Node8&#45;&gt;Node9</title>
<path fill="none" stroke="#191970" d="M690.7734,-291.4639C721.2848,-279.7824 763.1737,-263.7449 792.314,-252.5884"/>
<polygon fill="#191970" stroke="#191970" points="793.5852,-255.8495 801.6728,-249.0053 791.0824,-249.3122 793.5852,-255.8495"/>
</g>
<!-- Node18 -->
<g id="node19" class="node">
<title>Node18</title>
<g id="a_node19"><a xlink:href="Component_8hpp.html" target="_top" xlink:title="Engine/Component/Component.hpp">
<polygon fill="#ffffff" stroke="#000000" points="344,-230 344,-249 533,-249 533,-230 344,-230"/>
<text text-anchor="middle" x="438.5" y="-237" font-family="Helvetica,sans-Serif" font-size="10.00" fill="#000000">Engine/Component/Component.hpp</text>
</a>
</g>
</g>
<!-- Node8&#45;&gt;Node18 -->
<g id="edge21" class="edge">
<title>Node8&#45;&gt;Node18</title>
<path fill="none" stroke="#191970" d="M603.6986,-291.4639C565.916,-279.5792 513.7996,-263.1858 478.273,-252.0108"/>
<polygon fill="#191970" stroke="#191970" points="479.3077,-248.6672 468.7183,-249.0053 477.2073,-255.3447 479.3077,-248.6672"/>
</g>
<!-- Node26 -->
<g id="node27" class="node">
<title>Node26</title>
<g id="a_node27"><a xlink:href="Light_8inl.html" target="_top" xlink:title="Engine/Renderer/Light\l/Light.inl">
<polygon fill="#ffffff" stroke="#000000" points="590,-224.5 590,-254.5 713,-254.5 713,-224.5 590,-224.5"/>
<text text-anchor="start" x="598" y="-242.5" font-family="Helvetica,sans-Serif" font-size="10.00" fill="#000000">Engine/Renderer/Light</text>
<text text-anchor="middle" x="651.5" y="-231.5" font-family="Helvetica,sans-Serif" font-size="10.00" fill="#000000">/Light.inl</text>
</a>
</g>
</g>
<!-- Node8&#45;&gt;Node26 -->
<g id="edge39" class="edge">
<title>Node8&#45;&gt;Node26</title>
<path fill="none" stroke="#191970" d="M651.5,-291.2967C651.5,-283.5013 651.5,-273.7991 651.5,-264.9064"/>
<polygon fill="#191970" stroke="#191970" points="655.0001,-264.6431 651.5,-254.6432 648.0001,-264.6432 655.0001,-264.6431"/>
</g>
<!-- Node9&#45;&gt;Node2 -->
<g id="edge10" class="edge">
<title>Node9&#45;&gt;Node2</title>
<path fill="none" stroke="#191970" d="M867.5821,-229.9962C937.3362,-212.0275 1066.8003,-169.6441 1017.5,-112 1003.1632,-95.2367 876.7473,-80.3052 794.7153,-72.2636"/>
<polygon fill="#191970" stroke="#191970" points="794.9845,-68.7734 784.6939,-71.2937 794.3102,-75.7408 794.9845,-68.7734"/>
</g>
<!-- Node10 -->
<g id="node11" class="node">
<title>Node10</title>
<g id="a_node11"><a xlink:href="Math_8hpp.html" target="_top" xlink:title="Core/Math/Math.hpp">
<polygon fill="#ffffff" stroke="#000000" points="854.5,-168.5 854.5,-187.5 968.5,-187.5 968.5,-168.5 854.5,-168.5"/>
<text text-anchor="middle" x="911.5" y="-175.5" font-family="Helvetica,sans-Serif" font-size="10.00" fill="#000000">Core/Math/Math.hpp</text>
</a>
</g>
</g>
<!-- Node9&#45;&gt;Node10 -->
<g id="edge11" class="edge">
<title>Node9&#45;&gt;Node10</title>
<path fill="none" stroke="#191970" d="M839.7813,-229.8906C853.2548,-220.1421 874.322,-204.8994 890.1435,-193.4521"/>
<polygon fill="#191970" stroke="#191970" points="892.2619,-196.2394 898.312,-187.5419 888.1586,-190.5682 892.2619,-196.2394"/>
</g>
<!-- Node15 -->
<g id="node16" class="node">
<title>Node15</title>
<polygon fill="#ffffff" stroke="#bfbfbf" points="514,-112.5 514,-131.5 583,-131.5 583,-112.5 514,-112.5"/>
<text text-anchor="middle" x="548.5" y="-119.5" font-family="Helvetica,sans-Serif" font-size="10.00" fill="#000000">Eigen/Core</text>
</g>
<!-- Node9&#45;&gt;Node15 -->
<g id="edge18" class="edge">
<title>Node9&#45;&gt;Node15</title>
<path fill="none" stroke="#191970" d="M809.476,-229.8065C777.1161,-211.4189 708.925,-172.8679 697.5,-168 663.3755,-153.4606 623.0982,-141.3079 593.0288,-133.1519"/>
<polygon fill="#191970" stroke="#191970" points="593.8107,-129.7381 583.2464,-130.5415 592.0059,-136.5015 593.8107,-129.7381"/>
</g>
<!-- Node16 -->
<g id="node17" class="node">
<title>Node16</title>
<polygon fill="#ffffff" stroke="#bfbfbf" points="601,-112.5 601,-131.5 696,-131.5 696,-112.5 601,-112.5"/>
<text text-anchor="middle" x="648.5" y="-119.5" font-family="Helvetica,sans-Serif" font-size="10.00" fill="#000000">Eigen/Geometry</text>
</g>
<!-- Node9&#45;&gt;Node16 -->
<g id="edge19" class="edge">
<title>Node9&#45;&gt;Node16</title>
<path fill="none" stroke="#191970" d="M826.7586,-229.7228C826.6119,-214.4393 824.0271,-184.8929 807.5,-168 793.1887,-153.372 745.5847,-140.782 706.1638,-132.4903"/>
<polygon fill="#191970" stroke="#191970" points="706.8424,-129.0567 696.3431,-130.4763 705.436,-135.914 706.8424,-129.0567"/>
</g>
<!-- Node17 -->
<g id="node18" class="node">
<title>Node17</title>
<polygon fill="#ffffff" stroke="#bfbfbf" points="744.5,-168.5 744.5,-187.5 798.5,-187.5 798.5,-168.5 744.5,-168.5"/>
<text text-anchor="middle" x="771.5" y="-175.5" font-family="Helvetica,sans-Serif" font-size="10.00" fill="#000000">random</text>
</g>
<!-- Node9&#45;&gt;Node17 -->
<g id="edge20" class="edge">
<title>Node9&#45;&gt;Node17</title>
<path fill="none" stroke="#191970" d="M817.9063,-229.8906C809.6403,-220.6478 796.9574,-206.466 786.9383,-195.2628"/>
<polygon fill="#191970" stroke="#191970" points="789.49,-192.8657 780.2149,-187.7449 784.2722,-197.5321 789.49,-192.8657"/>
</g>
<!-- Node11 -->
<g id="node12" class="node">
<title>Node11</title>
<g id="a_node12"><a xlink:href="RaCore_8hpp.html" target="_top" xlink:title="Core/RaCore.hpp">
<polygon fill="#ffffff" stroke="#000000" points="397.5,-112.5 397.5,-131.5 495.5,-131.5 495.5,-112.5 397.5,-112.5"/>
<text text-anchor="middle" x="446.5" y="-119.5" font-family="Helvetica,sans-Serif" font-size="10.00" fill="#000000">Core/RaCore.hpp</text>
</a>
</g>
</g>
<!-- Node10&#45;&gt;Node11 -->
<g id="edge12" class="edge">
<title>Node10&#45;&gt;Node11</title>
<path fill="none" stroke="#191970" d="M854.2229,-172.5143C777.4881,-164.9421 636.8442,-150.2842 505.9342,-131.9887"/>
<polygon fill="#191970" stroke="#191970" points="506.1141,-128.4796 495.7239,-130.5515 505.1383,-135.4113 506.1141,-128.4796"/>
</g>
<!-- Node12 -->
<g id="node13" class="node">
<title>Node12</title>
<polygon fill="#ffffff" stroke="#bfbfbf" points="752.5,-112.5 752.5,-131.5 816.5,-131.5 816.5,-112.5 752.5,-112.5"/>
<text text-anchor="middle" x="784.5" y="-119.5" font-family="Helvetica,sans-Serif" font-size="10.00" fill="#000000">algorithm</text>
</g>
<!-- Node10&#45;&gt;Node12 -->
<g id="edge14" class="edge">
<title>Node10&#45;&gt;Node12</title>
<path fill="none" stroke="#191970" d="M889.6679,-168.3733C869.1897,-159.3435 838.3601,-145.7494 815.3681,-135.6111"/>
<polygon fill="#191970" stroke="#191970" points="816.6093,-132.3333 806.0472,-131.5011 813.785,-138.7383 816.6093,-132.3333"/>
</g>
<!-- Node13 -->
<g id="node14" class="node">
<title>Node13</title>
<polygon fill="#ffffff" stroke="#bfbfbf" points="835,-112.5 835,-131.5 882,-131.5 882,-112.5 835,-112.5"/>
<text text-anchor="middle" x="858.5" y="-119.5" font-family="Helvetica,sans-Serif" font-size="10.00" fill="#000000">cmath</text>
</g>
<!-- Node10&#45;&gt;Node13 -->
<g id="edge15" class="edge">
<title>Node10&#45;&gt;Node13</title>
<path fill="none" stroke="#191970" d="M902.2681,-168.2455C894.6683,-160.2155 883.7123,-148.6394 874.6632,-139.0781"/>
<polygon fill="#191970" stroke="#191970" points="877.042,-136.4998 867.6261,-131.6427 871.9579,-141.3115 877.042,-136.4998"/>
</g>
<!-- Node14 -->
<g id="node15" class="node">
<title>Node14</title>
<g id="a_node15"><a xlink:href="Math_8inl.html" target="_top" xlink:title="Core/Math/Math.inl">
<polygon fill="#ffffff" stroke="#000000" points="900.5,-112.5 900.5,-131.5 1008.5,-131.5 1008.5,-112.5 900.5,-112.5"/>
<text text-anchor="middle" x="954.5" y="-119.5" font-family="Helvetica,sans-Serif" font-size="10.00" fill="#000000">Core/Math/Math.inl</text>
</a>
</g>
</g>
<!-- Node10&#45;&gt;Node14 -->
<g id="edge16" class="edge">
<title>Node10&#45;&gt;Node14</title>
<path fill="none" stroke="#191970" d="M913.7232,-168.2455C918.3385,-160.2155 926.8926,-148.6394 935.1153,-139.0781"/>
<polygon fill="#191970" stroke="#191970" points="937.7311,-141.4038 941.8507,-131.6427 932.5431,-136.7043 937.7311,-141.4038"/>
</g>
<!-- Node11&#45;&gt;Node2 -->
<g id="edge13" class="edge">
<title>Node11&#45;&gt;Node2</title>
<path fill="none" stroke="#191970" d="M493.974,-112.4369C541.9514,-102.7724 616.117,-87.8326 667.3051,-77.5213"/>
<polygon fill="#191970" stroke="#191970" points="668.1099,-80.9296 677.2218,-75.5237 666.7275,-74.0674 668.1099,-80.9296"/>
</g>
<!-- Node14&#45;&gt;Node10 -->
<g id="edge17" class="edge">
<title>Node14&#45;&gt;Node10</title>
<path fill="none" stroke="#191970" d="M952.3409,-131.6427C947.7623,-139.6396 939.2252,-151.2085 930.9995,-160.7884"/>
<polygon fill="#191970" stroke="#191970" points="928.3675,-158.4806 924.2569,-168.2455 933.5598,-163.1754 928.3675,-158.4806"/>
</g>
<!-- Node18&#45;&gt;Node1 -->
<g id="edge29" class="edge">
<title>Node18&#45;&gt;Node1</title>
<path fill="none" stroke="#191970" d="M469.5938,-229.8906C503.9124,-219.2846 559.2743,-202.1753 596.9698,-190.5257"/>
<polygon fill="#191970" stroke="#191970" points="598.1039,-193.8386 606.6246,-187.5419 596.037,-187.1507 598.1039,-193.8386"/>
</g>
<!-- Node18&#45;&gt;Node15 -->
<g id="edge27" class="edge">
<title>Node18&#45;&gt;Node15</title>
<path fill="none" stroke="#191970" d="M452.1706,-229.9861C465.5677,-220.2961 486.1537,-204.402 501.5,-188 515.3994,-173.1444 528.5946,-154.0094 537.4451,-140.1715"/>
<polygon fill="#191970" stroke="#191970" points="540.4986,-141.8898 542.8335,-131.5554 534.5636,-138.1781 540.4986,-141.8898"/>
</g>
<!-- Node18&#45;&gt;Node16 -->
<g id="edge28" class="edge">
<title>Node18&#45;&gt;Node16</title>
<path fill="none" stroke="#191970" d="M455.6852,-229.8845C492.4634,-209.3062 578.9854,-160.8951 622.5198,-136.5365"/>
<polygon fill="#191970" stroke="#191970" points="624.3541,-139.5209 631.3719,-131.5836 620.936,-133.4121 624.3541,-139.5209"/>
</g>
<!-- Node19 -->
<g id="node20" class="node">
<title>Node19</title>
<g id="a_node20"><a xlink:href="Index_8hpp.html" target="_top" xlink:title="Core/Utils/Index.hpp">
<polygon fill="#ffffff" stroke="#000000" points="201.5,-168.5 201.5,-187.5 317.5,-187.5 317.5,-168.5 201.5,-168.5"/>
<text text-anchor="middle" x="259.5" y="-175.5" font-family="Helvetica,sans-Serif" font-size="10.00" fill="#000000">Core/Utils/Index.hpp</text>
</a>
</g>
</g>
<!-- Node18&#45;&gt;Node19 -->
<g id="edge22" class="edge">
<title>Node18&#45;&gt;Node19</title>
<path fill="none" stroke="#191970" d="M410.5313,-229.8906C379.9245,-219.3749 330.7101,-202.466 296.8259,-190.8243"/>
<polygon fill="#191970" stroke="#191970" points="297.867,-187.4812 287.2724,-187.5419 295.5924,-194.1014 297.867,-187.4812"/>
</g>
<!-- Node22 -->
<g id="node23" class="node">
<title>Node22</title>
<polygon fill="#ffffff" stroke="#bfbfbf" points="336,-168.5 336,-187.5 383,-187.5 383,-168.5 336,-168.5"/>
<text text-anchor="middle" x="359.5" y="-175.5" font-family="Helvetica,sans-Serif" font-size="10.00" fill="#000000">vector</text>
</g>
<!-- Node18&#45;&gt;Node22 -->
<g id="edge30" class="edge">
<title>Node18&#45;&gt;Node22</title>
<path fill="none" stroke="#191970" d="M426.1563,-229.8906C413.7497,-220.2324 394.4157,-205.1812 379.7587,-193.771"/>
<polygon fill="#191970" stroke="#191970" points="381.7979,-190.923 371.7571,-187.5419 377.4979,-196.4466 381.7979,-190.923"/>
</g>
<!-- Node23 -->
<g id="node24" class="node">
<title>Node23</title>
<g id="a_node24"><a xlink:href="Types_8hpp.html" target="_top" xlink:title="Core/Types.hpp">
<polygon fill="#ffffff" stroke="#000000" points="401,-168.5 401,-187.5 492,-187.5 492,-168.5 401,-168.5"/>
<text text-anchor="middle" x="446.5" y="-175.5" font-family="Helvetica,sans-Serif" font-size="10.00" fill="#000000">Core/Types.hpp</text>
</a>
</g>
</g>
<!-- Node18&#45;&gt;Node23 -->
<g id="edge31" class="edge">
<title>Node18&#45;&gt;Node23</title>
<path fill="none" stroke="#191970" d="M439.75,-229.8906C440.8589,-221.3657 442.5144,-208.6392 443.9083,-197.9235"/>
<polygon fill="#191970" stroke="#191970" points="447.4131,-198.1128 445.2324,-187.7449 440.4716,-197.2098 447.4131,-198.1128"/>
</g>
<!-- Node25 -->
<g id="node26" class="node">
<title>Node25</title>
<g id="a_node26"><a xlink:href="Component_8inl.html" target="_top" xlink:title="Engine/Component/Component.inl">
<polygon fill="#ffffff" stroke="#000000" points="0,-168.5 0,-187.5 183,-187.5 183,-168.5 0,-168.5"/>
<text text-anchor="middle" x="91.5" y="-175.5" font-family="Helvetica,sans-Serif" font-size="10.00" fill="#000000">Engine/Component/Component.inl</text>
</a>
</g>
</g>
<!-- Node18&#45;&gt;Node25 -->
<g id="edge36" class="edge">
<title>Node18&#45;&gt;Node25</title>
<path fill="none" stroke="#191970" d="M379.6127,-229.9581C315.5701,-218.9894 213.9681,-201.0012 150.0572,-189.3305"/>
<polygon fill="#191970" stroke="#191970" points="150.602,-185.8721 140.1351,-187.5137 149.3411,-192.7576 150.602,-185.8721"/>
</g>
<!-- Node19&#45;&gt;Node11 -->
<g id="edge23" class="edge">
<title>Node19&#45;&gt;Node11</title>
<path fill="none" stroke="#191970" d="M291.6464,-168.3733C323.0109,-158.9807 370.8665,-144.6496 405.0716,-134.4064"/>
<polygon fill="#191970" stroke="#191970" points="406.1975,-137.7229 414.773,-131.5011 404.1893,-131.0171 406.1975,-137.7229"/>
</g>
<!-- Node20 -->
<g id="node21" class="node">
<title>Node20</title>
<polygon fill="#ffffff" stroke="#bfbfbf" points="237.5,-112.5 237.5,-131.5 281.5,-131.5 281.5,-112.5 237.5,-112.5"/>
<text text-anchor="middle" x="259.5" y="-119.5" font-family="Helvetica,sans-Serif" font-size="10.00" fill="#000000">limits</text>
</g>
<!-- Node19&#45;&gt;Node20 -->
<g id="edge24" class="edge">
<title>Node19&#45;&gt;Node20</title>
<path fill="none" stroke="#191970" d="M259.5,-168.2455C259.5,-160.9382 259.5,-150.6944 259.5,-141.7046"/>
<polygon fill="#191970" stroke="#191970" points="263.0001,-141.6426 259.5,-131.6427 256.0001,-141.6427 263.0001,-141.6426"/>
</g>
<!-- Node21 -->
<g id="node22" class="node">
<title>Node21</title>
<g id="a_node22"><a xlink:href="Index_8inl.html" target="_top" xlink:title="Core/Utils/Index.inl">
<polygon fill="#ffffff" stroke="#000000" points="109.5,-112.5 109.5,-131.5 219.5,-131.5 219.5,-112.5 109.5,-112.5"/>
<text text-anchor="middle" x="164.5" y="-119.5" font-family="Helvetica,sans-Serif" font-size="10.00" fill="#000000">Core/Utils/Index.inl</text>
</a>
</g>
</g>
<!-- Node19&#45;&gt;Node21 -->
<g id="edge25" class="edge">
<title>Node19&#45;&gt;Node21</title>
<path fill="none" stroke="#191970" d="M237.6854,-168.2455C221.4504,-159.6534 199.7199,-147.0014 184.0509,-137.1018"/>
<polygon fill="#191970" stroke="#191970" points="185.9102,-134.1361 175.613,-131.6427 182.1078,-140.0134 185.9102,-134.1361"/>
</g>
<!-- Node21&#45;&gt;Node19 -->
<g id="edge26" class="edge">
<title>Node21&#45;&gt;Node19</title>
<path fill="none" stroke="#191970" d="M186.1032,-131.6427C202.2903,-140.1994 224.023,-152.8456 239.7445,-162.769"/>
<polygon fill="#191970" stroke="#191970" points="237.9205,-165.7575 248.2191,-168.2455 241.7199,-159.8783 237.9205,-165.7575"/>
</g>
<!-- Node23&#45;&gt;Node11 -->
<g id="edge32" class="edge">
<title>Node23&#45;&gt;Node11</title>
<path fill="none" stroke="#191970" d="M446.5,-168.2455C446.5,-160.9382 446.5,-150.6944 446.5,-141.7046"/>
<polygon fill="#191970" stroke="#191970" points="450.0001,-141.6426 446.5,-131.6427 443.0001,-141.6427 450.0001,-141.6426"/>
</g>
<!-- Node23&#45;&gt;Node15 -->
<g id="edge33" class="edge">
<title>Node23&#45;&gt;Node15</title>
<path fill="none" stroke="#191970" d="M464.267,-168.2455C480.2095,-159.4928 503.8259,-146.527 521.9989,-136.5496"/>
<polygon fill="#191970" stroke="#191970" points="523.8552,-139.5233 530.9366,-131.6427 520.4863,-133.3873 523.8552,-139.5233"/>
</g>
<!-- Node23&#45;&gt;Node16 -->
<g id="edge34" class="edge">
<title>Node23&#45;&gt;Node16</title>
<path fill="none" stroke="#191970" d="M481.225,-168.3733C515.2508,-158.9404 567.2437,-144.5265 604.2234,-134.2747"/>
<polygon fill="#191970" stroke="#191970" points="605.5266,-137.5455 614.2281,-131.5011 603.6565,-130.7999 605.5266,-137.5455"/>
</g>
<!-- Node24 -->
<g id="node25" class="node">
<title>Node24</title>
<polygon fill="#ffffff" stroke="#bfbfbf" points="299.5,-112.5 299.5,-131.5 379.5,-131.5 379.5,-112.5 299.5,-112.5"/>
<text text-anchor="middle" x="339.5" y="-119.5" font-family="Helvetica,sans-Serif" font-size="10.00" fill="#000000">Eigen/Sparse</text>
</g>
<!-- Node23&#45;&gt;Node24 -->
<g id="edge35" class="edge">
<title>Node23&#45;&gt;Node24</title>
<path fill="none" stroke="#191970" d="M427.862,-168.2455C411.0614,-159.4527 386.1366,-146.4079 367.0382,-136.4125"/>
<polygon fill="#191970" stroke="#191970" points="368.4073,-133.1787 357.9244,-131.6427 365.1614,-139.3807 368.4073,-133.1787"/>
</g>
<!-- Node25&#45;&gt;Node18 -->
<g id="edge37" class="edge">
<title>Node25&#45;&gt;Node18</title>
<path fill="none" stroke="#191970" d="M150.2226,-187.5137C214.2007,-198.4703 315.8027,-216.4579 379.7782,-228.1395"/>
<polygon fill="#191970" stroke="#191970" points="379.2444,-231.5998 389.7113,-229.9581 380.5051,-224.7143 379.2444,-231.5998"/>
</g>
</g>
</svg>
        <g id="navigator" transform="translate(0 0)" fill="#404254">
                <rect fill="#f2f5e9" fill-opacity="0.5" stroke="#606060" stroke-width=".5" x="0" y="0" width="60" height="60"/>
                <use id="zoomplus" xlink:href="#zoomPlus" x="17" y="9" onmousedown="handleZoom(evt,'in')"/>
                <use id="zoomminus" xlink:href="#zoomMin" x="42" y="9" onmousedown="handleZoom(evt,'out')"/>
                <use id="reset" xlink:href="#resetDef" x="30" y="36" onmousedown="handleReset()"/>
                <g id="arrowUp" xlink:href="#dirArrow" transform="translate(30 24)" onmousedown="handlePan(0,-1)">
                  <use xlink:href="#rim" fill="#404040">
                        <set attributeName="fill" to="#808080" begin="arrowUp.mouseover" end="arrowUp.mouseout"/>
                  </use>
                  <path fill="none" stroke="white" stroke-width="1.5" d="M0,-3.0v7 M-2.5,-0.5L0,-3.0L2.5,-0.5"/>
                </g>
                <g id="arrowRight" xlink:href="#dirArrow" transform="rotate(90) translate(36 -43)" onmousedown="handlePan(1,0)">
                  <use xlink:href="#rim" fill="#404040">
                        <set attributeName="fill" to="#808080" begin="arrowRight.mouseover" end="arrowRight.mouseout"/>
                  </use>
                  <path fill="none" stroke="white" stroke-width="1.5" d="M0,-3.0v7 M-2.5,-0.5L0,-3.0L2.5,-0.5"/>
                </g>
                <g id="arrowDown" xlink:href="#dirArrow" transform="rotate(180) translate(-30 -48)" onmousedown="handlePan(0,1)">
                  <use xlink:href="#rim" fill="#404040">
                        <set attributeName="fill" to="#808080" begin="arrowDown.mouseover" end="arrowDown.mouseout"/>
                  </use>
                  <path fill="none" stroke="white" stroke-width="1.5" d="M0,-3.0v7 M-2.5,-0.5L0,-3.0L2.5,-0.5"/>
                </g>
                <g id="arrowLeft" xlink:href="#dirArrow" transform="rotate(270) translate(-36 17)" onmousedown="handlePan(-1,0)">
                  <use xlink:href="#rim" fill="#404040">
                        <set attributeName="fill" to="#808080" begin="arrowLeft.mouseover" end="arrowLeft.mouseout"/>
                  </use>
                  <path fill="none" stroke="white" stroke-width="1.5" d="M0,-3.0v7 M-2.5,-0.5L0,-3.0L2.5,-0.5"/>
                </g>
        </g>
        <svg viewBox="0 0 15 15" width="100%" height="30px" preserveAspectRatio="xMaxYMin meet">
         <g id="arrow_out" transform="scale(0.3 0.3)">
          <a xlink:href="LightStorage_8hpp__incl_org.svg" target="_base">
           <rect id="button" ry="5" rx="5" y="6" x="6" height="38" width="38"
                fill="#f2f5e9" fill-opacity="0.5" stroke="#606060" stroke-width="1.0"/>
           <path id="arrow"
             d="M 11.500037,31.436501 C 11.940474,20.09759 22.043105,11.32322 32.158766,21.979434 L 37.068811,17.246167 C 37.068811,17.246167 37.088388,32 37.088388,32 L 22.160133,31.978069 C 22.160133,31.978069 26.997745,27.140456 26.997745,27.140456 C 18.528582,18.264221 13.291696,25.230495 11.500037,31.436501 z"
             style="fill:#404040;"/>
          </a>
         </g>
        </svg>
</svg>
