<?xml version="1.0" encoding="UTF-8" standalone="no"?>
<!DOCTYPE svg PUBLIC "-//W3C//DTD SVG 1.1//EN"
 "http://www.w3.org/Graphics/SVG/1.1/DTD/svg11.dtd">
<!-- Generated by graphviz version 2.40.1 (20161225.0304)
 -->
<!-- Title: src/Engine/Renderer/Light/Light.cpp Pages: 1 -->
<svg width="2002pt" height="475pt"
 viewBox="0.00 0.00 2001.50 475.00" xmlns="http://www.w3.org/2000/svg" xmlns:xlink="http://www.w3.org/1999/xlink">
<g id="graph0" class="graph" transform="scale(1 1) rotate(0) translate(4 471)">
<title>src/Engine/Renderer/Light/Light.cpp</title>
<polygon fill="#ffffff" stroke="transparent" points="-4,4 -4,-471 1997.5,-471 1997.5,4 -4,4"/>
<!-- Node0 -->
<g id="node1" class="node">
<title>Node0</title>
<polygon fill="#bfbfbf" stroke="#000000" points="787,-436.5 787,-466.5 900,-466.5 900,-436.5 787,-436.5"/>
<text text-anchor="start" x="795" y="-454.5" font-family="Helvetica,sans-Serif" font-size="10.00" fill="#000000">src/Engine/Renderer</text>
<text text-anchor="middle" x="843.5" y="-443.5" font-family="Helvetica,sans-Serif" font-size="10.00" fill="#000000">/Light/Light.cpp</text>
</g>
<!-- Node1 -->
<g id="node2" class="node">
<title>Node1</title>
<g id="a_node2"><a xlink:href="Light_8hpp.html" target="_top" xlink:title="Engine/Renderer/Light\l/Light.hpp">
<polygon fill="#ffffff" stroke="#000000" points="650,-302.5 650,-332.5 773,-332.5 773,-302.5 650,-302.5"/>
<text text-anchor="start" x="658" y="-320.5" font-family="Helvetica,sans-Serif" font-size="10.00" fill="#000000">Engine/Renderer/Light</text>
<text text-anchor="middle" x="711.5" y="-309.5" font-family="Helvetica,sans-Serif" font-size="10.00" fill="#000000">/Light.hpp</text>
</a>
</g>
</g>
<!-- Node0&#45;&gt;Node1 -->
<g id="edge1" class="edge">
<title>Node0&#45;&gt;Node1</title>
<path fill="none" stroke="#191970" d="M828.6145,-436.389C805.4415,-412.8649 760.6076,-367.3517 733.6348,-339.9702"/>
<polygon fill="#191970" stroke="#191970" points="736.0448,-337.4293 726.5336,-332.7614 731.0579,-342.3417 736.0448,-337.4293"/>
</g>
<!-- Node27 -->
<g id="node28" class="node">
<title>Node27</title>
<g id="a_node28"><a xlink:href="RadiumEngine_8hpp.html" target="_top" xlink:title="Engine/RadiumEngine.hpp">
<polygon fill="#ffffff" stroke="#000000" points="989.5,-241 989.5,-260 1133.5,-260 1133.5,-241 989.5,-241"/>
<text text-anchor="middle" x="1061.5" y="-248" font-family="Helvetica,sans-Serif" font-size="10.00" fill="#000000">Engine/RadiumEngine.hpp</text>
</a>
</g>
</g>
<!-- Node0&#45;&gt;Node27 -->
<g id="edge39" class="edge">
<title>Node0&#45;&gt;Node27</title>
<path fill="none" stroke="#191970" d="M859.8854,-436.3923C899.803,-399.5876 1001.8481,-305.5001 1043.4422,-267.1496"/>
<polygon fill="#191970" stroke="#191970" points="1045.9392,-269.608 1050.9187,-260.2562 1041.1942,-264.4616 1045.9392,-269.608"/>
</g>
<!-- Node32 -->
<g id="node33" class="node">
<title>Node32</title>
<g id="a_node33"><a xlink:href="RenderParameters_8hpp.html" target="_top" xlink:title="Engine/Renderer/RenderTechnique\l/RenderParameters.hpp">
<polygon fill="#ffffff" stroke="#000000" points="1352.5,-369.5 1352.5,-399.5 1534.5,-399.5 1534.5,-369.5 1352.5,-369.5"/>
<text text-anchor="start" x="1360.5" y="-387.5" font-family="Helvetica,sans-Serif" font-size="10.00" fill="#000000">Engine/Renderer/RenderTechnique</text>
<text text-anchor="middle" x="1443.5" y="-376.5" font-family="Helvetica,sans-Serif" font-size="10.00" fill="#000000">/RenderParameters.hpp</text>
</a>
</g>
</g>
<!-- Node0&#45;&gt;Node32 -->
<g id="edge48" class="edge">
<title>Node0&#45;&gt;Node32</title>
<path fill="none" stroke="#191970" d="M900.2167,-445.1666C1001.6122,-433.8441 1215.2166,-409.9916 1342.2901,-395.8018"/>
<polygon fill="#191970" stroke="#191970" points="1342.8699,-399.2589 1352.4197,-394.6706 1342.093,-392.3021 1342.8699,-399.2589"/>
</g>
<!-- Node2 -->
<g id="node3" class="node">
<title>Node2</title>
<g id="a_node3"><a xlink:href="Color_8hpp.html" target="_top" xlink:title="Core/Utils/Color.hpp">
<polygon fill="#ffffff" stroke="#000000" points="246,-241 246,-260 359,-260 359,-241 246,-241"/>
<text text-anchor="middle" x="302.5" y="-248" font-family="Helvetica,sans-Serif" font-size="10.00" fill="#000000">Core/Utils/Color.hpp</text>
</a>
</g>
</g>
<!-- Node1&#45;&gt;Node2 -->
<g id="edge2" class="edge">
<title>Node1&#45;&gt;Node2</title>
<path fill="none" stroke="#191970" d="M649.8257,-307.3969C574.3284,-295.0293 446.9577,-274.1642 369.2283,-261.431"/>
<polygon fill="#191970" stroke="#191970" points="369.5024,-257.9294 359.0681,-259.7666 368.3707,-264.8373 369.5024,-257.9294"/>
</g>
<!-- Node17 -->
<g id="node18" class="node">
<title>Node17</title>
<g id="a_node18"><a xlink:href="Component_8hpp.html" target="_top" xlink:title="Engine/Component/Component.hpp">
<polygon fill="#ffffff" stroke="#000000" points="617,-241 617,-260 806,-260 806,-241 617,-241"/>
<text text-anchor="middle" x="711.5" y="-248" font-family="Helvetica,sans-Serif" font-size="10.00" fill="#000000">Engine/Component/Component.hpp</text>
</a>
</g>
</g>
<!-- Node1&#45;&gt;Node17 -->
<g id="edge19" class="edge">
<title>Node1&#45;&gt;Node17</title>
<path fill="none" stroke="#191970" d="M711.5,-302.2967C711.5,-292.7699 711.5,-280.3954 711.5,-270.1306"/>
<polygon fill="#191970" stroke="#191970" points="715.0001,-270.0549 711.5,-260.055 708.0001,-270.055 715.0001,-270.0549"/>
</g>
<!-- Node21 -->
<g id="node22" class="node">
<title>Node21</title>
<g id="a_node22"><a xlink:href="RaEngine_8hpp.html" target="_top" xlink:title="Engine/RaEngine.hpp">
<polygon fill="#ffffff" stroke="#000000" points="1220,-112.5 1220,-131.5 1339,-131.5 1339,-112.5 1220,-112.5"/>
<text text-anchor="middle" x="1279.5" y="-119.5" font-family="Helvetica,sans-Serif" font-size="10.00" fill="#000000">Engine/RaEngine.hpp</text>
</a>
</g>
</g>
<!-- Node1&#45;&gt;Node21 -->
<g id="edge37" class="edge">
<title>Node1&#45;&gt;Node21</title>
<path fill="none" stroke="#191970" d="M743.3798,-302.4781C815.6707,-268.5863 990.5645,-187.6048 1052.5,-168 1104.1788,-151.6418 1164.3757,-139.7562 1209.7899,-132.1688"/>
<polygon fill="#191970" stroke="#191970" points="1210.5291,-135.5944 1219.8302,-130.5209 1209.3953,-128.6868 1210.5291,-135.5944"/>
</g>
<!-- Node26 -->
<g id="node27" class="node">
<title>Node26</title>
<g id="a_node27"><a xlink:href="Light_8inl.html" target="_top" xlink:title="Engine/Renderer/Light\l/Light.inl">
<polygon fill="#ffffff" stroke="#000000" points="476,-235.5 476,-265.5 599,-265.5 599,-235.5 476,-235.5"/>
<text text-anchor="start" x="484" y="-253.5" font-family="Helvetica,sans-Serif" font-size="10.00" fill="#000000">Engine/Renderer/Light</text>
<text text-anchor="middle" x="537.5" y="-242.5" font-family="Helvetica,sans-Serif" font-size="10.00" fill="#000000">/Light.inl</text>
</a>
</g>
</g>
<!-- Node1&#45;&gt;Node26 -->
<g id="edge38" class="edge">
<title>Node1&#45;&gt;Node26</title>
<path fill="none" stroke="#191970" d="M672.451,-302.4639C646.9066,-292.6278 613.3416,-279.7034 586.0769,-269.2049"/>
<polygon fill="#191970" stroke="#191970" points="587.3091,-265.9289 576.7193,-265.6017 584.7937,-272.4614 587.3091,-265.9289"/>
</g>
<!-- Node3 -->
<g id="node4" class="node">
<title>Node3</title>
<g id="a_node4"><a xlink:href="CoreMacros_8hpp.html" target="_top" xlink:title="Core/CoreMacros.hpp">
<polygon fill="#ffffff" stroke="#000000" points="1089.5,-56.5 1089.5,-75.5 1209.5,-75.5 1209.5,-56.5 1089.5,-56.5"/>
<text text-anchor="middle" x="1149.5" y="-63.5" font-family="Helvetica,sans-Serif" font-size="10.00" fill="#000000">Core/CoreMacros.hpp</text>
</a>
</g>
</g>
<!-- Node2&#45;&gt;Node3 -->
<g id="edge3" class="edge">
<title>Node2&#45;&gt;Node3</title>
<path fill="none" stroke="#191970" d="M302.4484,-240.7114C302.9141,-214.073 308.3856,-140.3769 353.5,-112 383.9719,-92.8332 890.6385,-74.4385 1079.3826,-68.2198"/>
<polygon fill="#191970" stroke="#191970" points="1079.5929,-71.7149 1089.4728,-67.889 1079.3634,-64.7187 1079.5929,-71.7149"/>
</g>
<!-- Node9 -->
<g id="node10" class="node">
<title>Node9</title>
<g id="a_node10"><a xlink:href="Math_8hpp.html" target="_top" xlink:title="Core/Math/Math.hpp">
<polygon fill="#ffffff" stroke="#000000" points="141.5,-174 141.5,-193 255.5,-193 255.5,-174 141.5,-174"/>
<text text-anchor="middle" x="198.5" y="-181" font-family="Helvetica,sans-Serif" font-size="10.00" fill="#000000">Core/Math/Math.hpp</text>
</a>
</g>
</g>
<!-- Node2&#45;&gt;Node9 -->
<g id="edge9" class="edge">
<title>Node2&#45;&gt;Node9</title>
<path fill="none" stroke="#191970" d="M287.5993,-240.9005C270.4547,-229.8554 242.0832,-211.5776 221.9655,-198.6172"/>
<polygon fill="#191970" stroke="#191970" points="223.6751,-195.5552 213.373,-193.0817 219.884,-201.4397 223.6751,-195.5552"/>
</g>
<!-- Node14 -->
<g id="node15" class="node">
<title>Node14</title>
<polygon fill="#ffffff" stroke="#bfbfbf" points="363,-112.5 363,-131.5 432,-131.5 432,-112.5 363,-112.5"/>
<text text-anchor="middle" x="397.5" y="-119.5" font-family="Helvetica,sans-Serif" font-size="10.00" fill="#000000">Eigen/Core</text>
</g>
<!-- Node2&#45;&gt;Node14 -->
<g id="edge16" class="edge">
<title>Node2&#45;&gt;Node14</title>
<path fill="none" stroke="#191970" d="M306.1334,-240.9367C312.5282,-224.848 326.898,-191.7955 345.5,-168 354.1993,-156.872 365.8306,-146.2928 375.8867,-138.0918"/>
<polygon fill="#191970" stroke="#191970" points="378.1782,-140.7422 383.8644,-131.8025 373.8444,-135.245 378.1782,-140.7422"/>
</g>
<!-- Node15 -->
<g id="node16" class="node">
<title>Node15</title>
<polygon fill="#ffffff" stroke="#bfbfbf" points="560,-112.5 560,-131.5 655,-131.5 655,-112.5 560,-112.5"/>
<text text-anchor="middle" x="607.5" y="-119.5" font-family="Helvetica,sans-Serif" font-size="10.00" fill="#000000">Eigen/Geometry</text>
</g>
<!-- Node2&#45;&gt;Node15 -->
<g id="edge17" class="edge">
<title>Node2&#45;&gt;Node15</title>
<path fill="none" stroke="#191970" d="M312.9169,-240.747C331.9623,-223.4523 374.3344,-187.4091 416.5,-168 459.02,-148.4278 510.8416,-136.6206 549.7726,-129.8777"/>
<polygon fill="#191970" stroke="#191970" points="550.5976,-133.2885 559.8847,-128.1895 549.4449,-126.3841 550.5976,-133.2885"/>
</g>
<!-- Node16 -->
<g id="node17" class="node">
<title>Node16</title>
<polygon fill="#ffffff" stroke="#bfbfbf" points="69.5,-174 69.5,-193 123.5,-193 123.5,-174 69.5,-174"/>
<text text-anchor="middle" x="96.5" y="-181" font-family="Helvetica,sans-Serif" font-size="10.00" fill="#000000">random</text>
</g>
<!-- Node2&#45;&gt;Node16 -->
<g id="edge18" class="edge">
<title>Node2&#45;&gt;Node16</title>
<path fill="none" stroke="#191970" d="M266.9555,-240.9895C232.2951,-231.4218 178.2647,-215.7241 132.5,-199 130.6785,-198.3343 128.8163,-197.6248 126.9452,-196.8894"/>
<polygon fill="#191970" stroke="#191970" points="128.2412,-193.638 117.6611,-193.0802 125.5841,-200.1141 128.2412,-193.638"/>
</g>
<!-- Node4 -->
<g id="node5" class="node">
<title>Node4</title>
<polygon fill="#ffffff" stroke="#bfbfbf" points="1227.5,-.5 1227.5,-19.5 1279.5,-19.5 1279.5,-.5 1227.5,-.5"/>
<text text-anchor="middle" x="1253.5" y="-7.5" font-family="Helvetica,sans-Serif" font-size="10.00" fill="#000000">cassert</text>
</g>
<!-- Node3&#45;&gt;Node4 -->
<g id="edge4" class="edge">
<title>Node3&#45;&gt;Node4</title>
<path fill="none" stroke="#191970" d="M1167.6154,-56.2455C1183.945,-47.4527 1208.171,-34.4079 1226.7339,-24.4125"/>
<polygon fill="#191970" stroke="#191970" points="1228.4468,-27.4654 1235.5922,-19.6427 1225.1281,-21.3021 1228.4468,-27.4654"/>
</g>
<!-- Node5 -->
<g id="node6" class="node">
<title>Node5</title>
<polygon fill="#ffffff" stroke="#bfbfbf" points="1019.5,-.5 1019.5,-19.5 1065.5,-19.5 1065.5,-.5 1019.5,-.5"/>
<text text-anchor="middle" x="1042.5" y="-7.5" font-family="Helvetica,sans-Serif" font-size="10.00" fill="#000000">cstdio</text>
</g>
<!-- Node3&#45;&gt;Node5 -->
<g id="edge5" class="edge">
<title>Node3&#45;&gt;Node5</title>
<path fill="none" stroke="#191970" d="M1130.862,-56.2455C1114.0614,-47.4527 1089.1366,-34.4079 1070.0382,-24.4125"/>
<polygon fill="#191970" stroke="#191970" points="1071.4073,-21.1787 1060.9244,-19.6427 1068.1614,-27.3807 1071.4073,-21.1787"/>
</g>
<!-- Node6 -->
<g id="node7" class="node">
<title>Node6</title>
<polygon fill="#ffffff" stroke="#bfbfbf" points="1083.5,-.5 1083.5,-19.5 1143.5,-19.5 1143.5,-.5 1083.5,-.5"/>
<text text-anchor="middle" x="1113.5" y="-7.5" font-family="Helvetica,sans-Serif" font-size="10.00" fill="#000000">iostream</text>
</g>
<!-- Node3&#45;&gt;Node6 -->
<g id="edge6" class="edge">
<title>Node3&#45;&gt;Node6</title>
<path fill="none" stroke="#191970" d="M1143.2293,-56.2455C1138.2736,-48.5367 1131.217,-37.5598 1125.2224,-28.2348"/>
<polygon fill="#191970" stroke="#191970" points="1128.0506,-26.1618 1119.6989,-19.6427 1122.1624,-29.9471 1128.0506,-26.1618"/>
</g>
<!-- Node7 -->
<g id="node8" class="node">
<title>Node7</title>
<polygon fill="#ffffff" stroke="#bfbfbf" points="1668.5,-.5 1668.5,-19.5 1724.5,-19.5 1724.5,-.5 1668.5,-.5"/>
<text text-anchor="middle" x="1696.5" y="-7.5" font-family="Helvetica,sans-Serif" font-size="10.00" fill="#000000">sstream</text>
</g>
<!-- Node3&#45;&gt;Node7 -->
<g id="edge7" class="edge">
<title>Node3&#45;&gt;Node7</title>
<path fill="none" stroke="#191970" d="M1209.6033,-59.8468C1322.7759,-48.2606 1564.5322,-23.5104 1658.2607,-13.9148"/>
<polygon fill="#191970" stroke="#191970" points="1658.8305,-17.3749 1668.422,-12.8745 1658.1175,-10.4113 1658.8305,-17.3749"/>
</g>
<!-- Node8 -->
<g id="node9" class="node">
<title>Node8</title>
<polygon fill="#ffffff" stroke="#bfbfbf" points="1161.5,-.5 1161.5,-19.5 1209.5,-19.5 1209.5,-.5 1161.5,-.5"/>
<text text-anchor="middle" x="1185.5" y="-7.5" font-family="Helvetica,sans-Serif" font-size="10.00" fill="#000000">thread</text>
</g>
<!-- Node3&#45;&gt;Node8 -->
<g id="edge8" class="edge">
<title>Node3&#45;&gt;Node8</title>
<path fill="none" stroke="#191970" d="M1155.7707,-56.2455C1160.7264,-48.5367 1167.783,-37.5598 1173.7776,-28.2348"/>
<polygon fill="#191970" stroke="#191970" points="1176.8376,-29.9471 1179.3011,-19.6427 1170.9494,-26.1618 1176.8376,-29.9471"/>
</g>
<!-- Node10 -->
<g id="node11" class="node">
<title>Node10</title>
<g id="a_node11"><a xlink:href="RaCore_8hpp.html" target="_top" xlink:title="Core/RaCore.hpp">
<polygon fill="#ffffff" stroke="#000000" points="965.5,-112.5 965.5,-131.5 1063.5,-131.5 1063.5,-112.5 965.5,-112.5"/>
<text text-anchor="middle" x="1014.5" y="-119.5" font-family="Helvetica,sans-Serif" font-size="10.00" fill="#000000">Core/RaCore.hpp</text>
</a>
</g>
</g>
<!-- Node9&#45;&gt;Node10 -->
<g id="edge10" class="edge">
<title>Node9&#45;&gt;Node10</title>
<path fill="none" stroke="#191970" d="M255.8692,-179.3516C299.8286,-176.1897 361.9916,-171.7547 416.5,-168 653.1833,-151.6964 715.9517,-160.2313 955.141,-132.0544"/>
<polygon fill="#191970" stroke="#191970" points="955.6725,-135.516 965.1901,-130.8614 954.8472,-128.5648 955.6725,-135.516"/>
</g>
<!-- Node11 -->
<g id="node12" class="node">
<title>Node11</title>
<polygon fill="#ffffff" stroke="#bfbfbf" points="191.5,-112.5 191.5,-131.5 255.5,-131.5 255.5,-112.5 191.5,-112.5"/>
<text text-anchor="middle" x="223.5" y="-119.5" font-family="Helvetica,sans-Serif" font-size="10.00" fill="#000000">algorithm</text>
</g>
<!-- Node9&#45;&gt;Node11 -->
<g id="edge12" class="edge">
<title>Node9&#45;&gt;Node11</title>
<path fill="none" stroke="#191970" d="M202.4063,-173.8906C205.9446,-165.1862 211.2636,-152.1015 215.675,-141.2494"/>
<polygon fill="#191970" stroke="#191970" points="219.0152,-142.3268 219.5387,-131.7449 212.5305,-139.6907 219.0152,-142.3268"/>
</g>
<!-- Node12 -->
<g id="node13" class="node">
<title>Node12</title>
<polygon fill="#ffffff" stroke="#bfbfbf" points="0,-112.5 0,-131.5 47,-131.5 47,-112.5 0,-112.5"/>
<text text-anchor="middle" x="23.5" y="-119.5" font-family="Helvetica,sans-Serif" font-size="10.00" fill="#000000">cmath</text>
</g>
<!-- Node9&#45;&gt;Node12 -->
<g id="edge13" class="edge">
<title>Node9&#45;&gt;Node12</title>
<path fill="none" stroke="#191970" d="M171.1563,-173.8906C140.2293,-163.022 89.8692,-145.324 56.7088,-133.6705"/>
<polygon fill="#191970" stroke="#191970" points="57.6052,-130.2758 47.0104,-130.2622 55.2843,-136.8798 57.6052,-130.2758"/>
</g>
<!-- Node13 -->
<g id="node14" class="node">
<title>Node13</title>
<g id="a_node14"><a xlink:href="Math_8inl.html" target="_top" xlink:title="Core/Math/Math.inl">
<polygon fill="#ffffff" stroke="#000000" points="65.5,-112.5 65.5,-131.5 173.5,-131.5 173.5,-112.5 65.5,-112.5"/>
<text text-anchor="middle" x="119.5" y="-119.5" font-family="Helvetica,sans-Serif" font-size="10.00" fill="#000000">Core/Math/Math.inl</text>
</a>
</g>
</g>
<!-- Node9&#45;&gt;Node13 -->
<g id="edge14" class="edge">
<title>Node9&#45;&gt;Node13</title>
<path fill="none" stroke="#191970" d="M181.0938,-173.8906C167.1518,-164.4683 148.119,-149.9134 134.7699,-138.6137"/>
<polygon fill="#191970" stroke="#191970" points="136.7573,-135.7016 126.929,-131.7449 132.1447,-140.967 136.7573,-135.7016"/>
</g>
<!-- Node10&#45;&gt;Node3 -->
<g id="edge11" class="edge">
<title>Node10&#45;&gt;Node3</title>
<path fill="none" stroke="#191970" d="M1037.7073,-112.3733C1059.6699,-103.2629 1092.8332,-89.5062 1117.3401,-79.3404"/>
<polygon fill="#191970" stroke="#191970" points="1118.6997,-82.5657 1126.5955,-75.5011 1116.0176,-76.0999 1118.6997,-82.5657"/>
</g>
<!-- Node13&#45;&gt;Node9 -->
<g id="edge15" class="edge">
<title>Node13&#45;&gt;Node9</title>
<path fill="none" stroke="#191970" d="M136.8064,-131.5419C150.8057,-140.9949 169.9822,-155.6614 183.3698,-167.0046"/>
<polygon fill="#191970" stroke="#191970" points="181.3934,-169.9267 191.2188,-173.8906 186.0098,-164.6647 181.3934,-169.9267"/>
</g>
<!-- Node17&#45;&gt;Node14 -->
<g id="edge25" class="edge">
<title>Node17&#45;&gt;Node14</title>
<path fill="none" stroke="#191970" d="M652.186,-240.9762C567.2939,-227.2289 420.8118,-203.0237 416.5,-199 400.9754,-184.5125 397.2602,-159.5363 396.7599,-141.9661"/>
<polygon fill="#191970" stroke="#191970" points="400.261,-141.6889 396.8036,-131.6741 393.2611,-141.6591 400.261,-141.6889"/>
</g>
<!-- Node17&#45;&gt;Node15 -->
<g id="edge26" class="edge">
<title>Node17&#45;&gt;Node15</title>
<path fill="none" stroke="#191970" d="M699.2923,-240.6305C687.5536,-230.7966 669.6958,-214.9075 656.5,-199 641.085,-180.4172 626.6607,-156.6763 617.509,-140.5012"/>
<polygon fill="#191970" stroke="#191970" points="620.4403,-138.57 612.5304,-131.5213 614.3183,-141.9643 620.4403,-138.57"/>
</g>
<!-- Node18 -->
<g id="node19" class="node">
<title>Node18</title>
<g id="a_node19"><a xlink:href="Index_8hpp.html" target="_top" xlink:title="Core/Utils/Index.hpp">
<polygon fill="#ffffff" stroke="#000000" points="775.5,-174 775.5,-193 891.5,-193 891.5,-174 775.5,-174"/>
<text text-anchor="middle" x="833.5" y="-181" font-family="Helvetica,sans-Serif" font-size="10.00" fill="#000000">Core/Utils/Index.hpp</text>
</a>
</g>
</g>
<!-- Node17&#45;&gt;Node18 -->
<g id="edge20" class="edge">
<title>Node17&#45;&gt;Node18</title>
<path fill="none" stroke="#191970" d="M728.9796,-240.9005C749.454,-229.6564 783.5772,-210.9166 807.2393,-197.9219"/>
<polygon fill="#191970" stroke="#191970" points="808.9724,-200.9632 816.0528,-193.0817 805.6028,-194.8276 808.9724,-200.9632"/>
</g>
<!-- Node17&#45;&gt;Node21 -->
<g id="edge27" class="edge">
<title>Node17&#45;&gt;Node21</title>
<path fill="none" stroke="#191970" d="M750.9303,-240.9733C789.4001,-231.3935 849.4228,-215.6872 900.5,-199 937.1406,-187.0293 944.2425,-177.8848 981.5,-168 1058.2691,-147.6323 1148.7149,-135.2495 1209.6604,-128.541"/>
<polygon fill="#191970" stroke="#191970" points="1210.3661,-131.9853 1219.9332,-127.4332 1209.6156,-125.0256 1210.3661,-131.9853"/>
</g>
<!-- Node22 -->
<g id="node23" class="node">
<title>Node22</title>
<polygon fill="#ffffff" stroke="#bfbfbf" points="1364,-112.5 1364,-131.5 1411,-131.5 1411,-112.5 1364,-112.5"/>
<text text-anchor="middle" x="1387.5" y="-119.5" font-family="Helvetica,sans-Serif" font-size="10.00" fill="#000000">vector</text>
</g>
<!-- Node17&#45;&gt;Node22 -->
<g id="edge29" class="edge">
<title>Node17&#45;&gt;Node22</title>
<path fill="none" stroke="#191970" d="M763.9892,-240.9101C813.4411,-231.5139 889.4456,-216.1392 954.5,-199 998.6753,-187.3616 1007.8564,-177.6881 1052.5,-168 1182.0105,-139.8948 1218.2612,-156.5097 1348.5,-132 1350.2001,-131.68 1351.9361,-131.3285 1353.685,-130.9544"/>
<polygon fill="#191970" stroke="#191970" points="1354.7372,-134.3032 1363.6848,-128.6294 1353.1519,-127.4851 1354.7372,-134.3032"/>
</g>
<!-- Node23 -->
<g id="node24" class="node">
<title>Node23</title>
<g id="a_node24"><a xlink:href="Types_8hpp.html" target="_top" xlink:title="Core/Types.hpp">
<polygon fill="#ffffff" stroke="#000000" points="666,-174 666,-193 757,-193 757,-174 666,-174"/>
<text text-anchor="middle" x="711.5" y="-181" font-family="Helvetica,sans-Serif" font-size="10.00" fill="#000000">Core/Types.hpp</text>
</a>
</g>
</g>
<!-- Node17&#45;&gt;Node23 -->
<g id="edge30" class="edge">
<title>Node17&#45;&gt;Node23</title>
<path fill="none" stroke="#191970" d="M711.5,-240.9005C711.5,-231.149 711.5,-215.7597 711.5,-203.3695"/>
<polygon fill="#191970" stroke="#191970" points="715.0001,-203.0816 711.5,-193.0817 708.0001,-203.0817 715.0001,-203.0816"/>
</g>
<!-- Node25 -->
<g id="node26" class="node">
<title>Node25</title>
<g id="a_node26"><a xlink:href="Component_8inl.html" target="_top" xlink:title="Engine/Component/Component.inl">
<polygon fill="#ffffff" stroke="#000000" points="426,-174 426,-193 609,-193 609,-174 426,-174"/>
<text text-anchor="middle" x="517.5" y="-181" font-family="Helvetica,sans-Serif" font-size="10.00" fill="#000000">Engine/Component/Component.inl</text>
</a>
</g>
</g>
<!-- Node17&#45;&gt;Node25 -->
<g id="edge35" class="edge">
<title>Node17&#45;&gt;Node25</title>
<path fill="none" stroke="#191970" d="M678.8039,-240.9005C642.8389,-229.2584 585.6683,-209.5805 549.8483,-196.5641"/>
<polygon fill="#191970" stroke="#191970" points="550.9405,-193.2368 540.3468,-193.0817 548.5315,-199.8092 550.9405,-193.2368"/>
</g>
<!-- Node18&#45;&gt;Node10 -->
<g id="edge21" class="edge">
<title>Node18&#45;&gt;Node10</title>
<path fill="none" stroke="#191970" d="M861.7813,-173.8906C892.73,-163.3749 942.4942,-146.466 976.757,-134.8243"/>
<polygon fill="#191970" stroke="#191970" points="978.075,-138.073 986.4173,-131.5419 975.8229,-131.4452 978.075,-138.073"/>
</g>
<!-- Node19 -->
<g id="node20" class="node">
<title>Node19</title>
<polygon fill="#ffffff" stroke="#bfbfbf" points="903.5,-112.5 903.5,-131.5 947.5,-131.5 947.5,-112.5 903.5,-112.5"/>
<text text-anchor="middle" x="925.5" y="-119.5" font-family="Helvetica,sans-Serif" font-size="10.00" fill="#000000">limits</text>
</g>
<!-- Node18&#45;&gt;Node19 -->
<g id="edge22" class="edge">
<title>Node18&#45;&gt;Node19</title>
<path fill="none" stroke="#191970" d="M847.875,-173.8906C862.5931,-164.0519 885.6832,-148.6167 902.8589,-137.1351"/>
<polygon fill="#191970" stroke="#191970" points="904.8575,-140.0091 911.2259,-131.5419 900.9673,-134.1896 904.8575,-140.0091"/>
</g>
<!-- Node20 -->
<g id="node21" class="node">
<title>Node20</title>
<g id="a_node21"><a xlink:href="Index_8inl.html" target="_top" xlink:title="Core/Utils/Index.inl">
<polygon fill="#ffffff" stroke="#000000" points="775.5,-112.5 775.5,-131.5 885.5,-131.5 885.5,-112.5 775.5,-112.5"/>
<text text-anchor="middle" x="830.5" y="-119.5" font-family="Helvetica,sans-Serif" font-size="10.00" fill="#000000">Core/Utils/Index.inl</text>
</a>
</g>
</g>
<!-- Node18&#45;&gt;Node20 -->
<g id="edge23" class="edge">
<title>Node18&#45;&gt;Node20</title>
<path fill="none" stroke="#191970" d="M827.9688,-173.8906C825.8895,-165.3657 824.835,-152.6392 825.1084,-141.9235"/>
<polygon fill="#191970" stroke="#191970" points="828.614,-141.9826 825.8866,-131.7449 821.6344,-141.4489 828.614,-141.9826"/>
</g>
<!-- Node20&#45;&gt;Node18 -->
<g id="edge24" class="edge">
<title>Node20&#45;&gt;Node18</title>
<path fill="none" stroke="#191970" d="M836.0641,-131.7449C838.1325,-140.314 839.1746,-153.0519 838.8872,-163.7462"/>
<polygon fill="#191970" stroke="#191970" points="835.3843,-163.6481 838.0938,-173.8906 842.3629,-164.194 835.3843,-163.6481"/>
</g>
<!-- Node21&#45;&gt;Node3 -->
<g id="edge28" class="edge">
<title>Node21&#45;&gt;Node3</title>
<path fill="none" stroke="#191970" d="M1257.1522,-112.3733C1236.0967,-103.3032 1204.3505,-89.6279 1180.7825,-79.4755"/>
<polygon fill="#191970" stroke="#191970" points="1182.125,-76.243 1171.5562,-75.5011 1179.3556,-82.6719 1182.125,-76.243"/>
</g>
<!-- Node23&#45;&gt;Node10 -->
<g id="edge31" class="edge">
<title>Node23&#45;&gt;Node10</title>
<path fill="none" stroke="#191970" d="M743.3638,-173.9881C750.9144,-171.8821 758.9641,-169.7569 766.5,-168 801.5447,-159.8297 893.8073,-143.1908 955.3767,-132.3243"/>
<polygon fill="#191970" stroke="#191970" points="956.1179,-135.7477 965.3589,-130.5656 954.9033,-128.8539 956.1179,-135.7477"/>
</g>
<!-- Node23&#45;&gt;Node14 -->
<g id="edge32" class="edge">
<title>Node23&#45;&gt;Node14</title>
<path fill="none" stroke="#191970" d="M665.8417,-174.5574C605.867,-162.8107 501.2312,-142.3168 441.8926,-130.6947"/>
<polygon fill="#191970" stroke="#191970" points="442.5527,-127.2576 432.0664,-128.7702 441.2072,-134.1271 442.5527,-127.2576"/>
</g>
<!-- Node23&#45;&gt;Node15 -->
<g id="edge33" class="edge">
<title>Node23&#45;&gt;Node15</title>
<path fill="none" stroke="#191970" d="M695.25,-173.8906C678.3831,-163.9165 651.7901,-148.1908 632.2965,-136.6633"/>
<polygon fill="#191970" stroke="#191970" points="634.0251,-133.6194 623.6359,-131.5419 630.462,-139.6447 634.0251,-133.6194"/>
</g>
<!-- Node24 -->
<g id="node25" class="node">
<title>Node24</title>
<polygon fill="#ffffff" stroke="#bfbfbf" points="673.5,-112.5 673.5,-131.5 753.5,-131.5 753.5,-112.5 673.5,-112.5"/>
<text text-anchor="middle" x="713.5" y="-119.5" font-family="Helvetica,sans-Serif" font-size="10.00" fill="#000000">Eigen/Sparse</text>
</g>
<!-- Node23&#45;&gt;Node24 -->
<g id="edge34" class="edge">
<title>Node23&#45;&gt;Node24</title>
<path fill="none" stroke="#191970" d="M711.8125,-173.8906C712.0897,-165.3657 712.5036,-152.6392 712.8521,-141.9235"/>
<polygon fill="#191970" stroke="#191970" points="716.3561,-141.8534 713.1831,-131.7449 709.3598,-141.6258 716.3561,-141.8534"/>
</g>
<!-- Node25&#45;&gt;Node17 -->
<g id="edge36" class="edge">
<title>Node25&#45;&gt;Node17</title>
<path fill="none" stroke="#191970" d="M550.141,-193.0817C586.0845,-204.7156 643.2551,-224.3928 679.0969,-237.416"/>
<polygon fill="#191970" stroke="#191970" points="678.0114,-240.7458 688.6051,-240.9005 680.4201,-234.1732 678.0114,-240.7458"/>
</g>
<!-- Node27&#45;&gt;Node21 -->
<g id="edge40" class="edge">
<title>Node27&#45;&gt;Node21</title>
<path fill="none" stroke="#191970" d="M1108.7147,-240.9274C1164.0879,-229.2956 1249.7422,-209.8803 1260.5,-199 1275.4298,-183.9003 1279.2669,-159.0494 1279.958,-141.6757"/>
<polygon fill="#191970" stroke="#191970" points="1283.4591,-141.545 1280.0429,-131.5161 1276.4594,-141.4865 1283.4591,-141.545"/>
</g>
<!-- Node27&#45;&gt;Node22 -->
<g id="edge47" class="edge">
<title>Node27&#45;&gt;Node22</title>
<path fill="none" stroke="#191970" d="M1133.7067,-241.0335C1177.8266,-233.463 1234.5929,-220.4611 1281.5,-199 1315.5246,-183.4329 1349.5904,-156.0782 1369.5954,-138.5125"/>
<polygon fill="#191970" stroke="#191970" points="1372.1496,-140.9236 1377.2671,-131.6466 1367.4814,-135.7075 1372.1496,-140.9236"/>
</g>
<!-- Node27&#45;&gt;Node23 -->
<g id="edge41" class="edge">
<title>Node27&#45;&gt;Node23</title>
<path fill="none" stroke="#191970" d="M995.7961,-240.9937C935.7597,-231.8431 844.695,-216.7953 766.5,-199 762.138,-198.0073 757.6061,-196.8834 753.0997,-195.7053"/>
<polygon fill="#191970" stroke="#191970" points="753.9174,-192.3008 743.3504,-193.0696 752.0904,-199.0582 753.9174,-192.3008"/>
</g>
<!-- Node28 -->
<g id="node29" class="node">
<title>Node28</title>
<g id="a_node29"><a xlink:href="Singleton_8hpp.html" target="_top" xlink:title="Core/Utils/Singleton.hpp">
<polygon fill="#ffffff" stroke="#000000" points="1061.5,-174 1061.5,-193 1195.5,-193 1195.5,-174 1061.5,-174"/>
<text text-anchor="middle" x="1128.5" y="-181" font-family="Helvetica,sans-Serif" font-size="10.00" fill="#000000">Core/Utils/Singleton.hpp</text>
</a>
</g>
</g>
<!-- Node27&#45;&gt;Node28 -->
<g id="edge42" class="edge">
<title>Node27&#45;&gt;Node28</title>
<path fill="none" stroke="#191970" d="M1071.0995,-240.9005C1081.647,-230.353 1098.7904,-213.2096 1111.6002,-200.3998"/>
<polygon fill="#191970" stroke="#191970" points="1114.3221,-202.6276 1118.9183,-193.0817 1109.3724,-197.6779 1114.3221,-202.6276"/>
</g>
<!-- Node29 -->
<g id="node30" class="node">
<title>Node29</title>
<polygon fill="#ffffff" stroke="#bfbfbf" points="1213.5,-174 1213.5,-193 1251.5,-193 1251.5,-174 1213.5,-174"/>
<text text-anchor="middle" x="1232.5" y="-181" font-family="Helvetica,sans-Serif" font-size="10.00" fill="#000000">map</text>
</g>
<!-- Node27&#45;&gt;Node29 -->
<g id="edge44" class="edge">
<title>Node27&#45;&gt;Node29</title>
<path fill="none" stroke="#191970" d="M1092.4692,-240.9354C1121.8206,-231.5012 1166.8883,-216.051 1204.5,-199 1205.3413,-198.6186 1206.1914,-198.2214 1207.0457,-197.812"/>
<polygon fill="#191970" stroke="#191970" points="1208.8547,-200.8173 1216.1423,-193.1269 1205.6495,-194.5941 1208.8547,-200.8173"/>
</g>
<!-- Node30 -->
<g id="node31" class="node">
<title>Node30</title>
<polygon fill="#ffffff" stroke="#bfbfbf" points="1421.5,-174 1421.5,-193 1479.5,-193 1479.5,-174 1421.5,-174"/>
<text text-anchor="middle" x="1450.5" y="-181" font-family="Helvetica,sans-Serif" font-size="10.00" fill="#000000">memory</text>
</g>
<!-- Node27&#45;&gt;Node30 -->
<g id="edge45" class="edge">
<title>Node27&#45;&gt;Node30</title>
<path fill="none" stroke="#191970" d="M1120.9042,-240.9901C1182.9842,-230.9527 1283.1838,-214.4728 1369.5,-199 1383.0667,-196.5681 1397.884,-193.7734 1411.0929,-191.2326"/>
<polygon fill="#191970" stroke="#191970" points="1412.1333,-194.5963 1421.2868,-189.2612 1410.8041,-187.7237 1412.1333,-194.5963"/>
</g>
<!-- Node31 -->
<g id="node32" class="node">
<title>Node31</title>
<polygon fill="#ffffff" stroke="#bfbfbf" points="1768.5,-112.5 1768.5,-131.5 1812.5,-131.5 1812.5,-112.5 1768.5,-112.5"/>
<text text-anchor="middle" x="1790.5" y="-119.5" font-family="Helvetica,sans-Serif" font-size="10.00" fill="#000000">string</text>
</g>
<!-- Node27&#45;&gt;Node31 -->
<g id="edge46" class="edge">
<title>Node27&#45;&gt;Node31</title>
<path fill="none" stroke="#191970" d="M1129.0009,-240.9778C1146.1034,-238.7864 1164.4571,-236.6251 1181.5,-235 1246.1081,-228.8396 1712.9676,-238.4534 1764.5,-199 1782.0348,-185.5753 1787.8471,-159.7837 1789.7165,-141.7653"/>
<polygon fill="#191970" stroke="#191970" points="1793.2117,-141.9568 1790.4405,-131.7308 1786.2299,-141.453 1793.2117,-141.9568"/>
</g>
<!-- Node28&#45;&gt;Node10 -->
<g id="edge43" class="edge">
<title>Node28&#45;&gt;Node10</title>
<path fill="none" stroke="#191970" d="M1110.6875,-173.8906C1092.0315,-163.8262 1062.5203,-147.9057 1041.1026,-136.3514"/>
<polygon fill="#191970" stroke="#191970" points="1042.6502,-133.2095 1032.1874,-131.5419 1039.3266,-139.3702 1042.6502,-133.2095"/>
</g>
<!-- Node32&#45;&gt;Node21 -->
<g id="edge49" class="edge">
<title>Node32&#45;&gt;Node21</title>
<path fill="none" stroke="#191970" d="M1356.3089,-369.4937C1307.4356,-359.8939 1252.2366,-346.7048 1231.5,-333 1200.5023,-312.5137 1193.2075,-301.263 1181.5,-266 1177.1587,-252.9241 1173.5776,-246.2722 1181.5,-235 1208.6617,-196.3535 1254.3383,-237.6465 1281.5,-199 1293.2323,-182.3069 1290.2691,-158.1599 1285.96,-141.3739"/>
<polygon fill="#191970" stroke="#191970" points="1289.253,-140.1656 1283.0749,-131.5585 1282.5371,-142.1396 1289.253,-140.1656"/>
</g>
<!-- Node32&#45;&gt;Node22 -->
<g id="edge51" class="edge">
<title>Node32&#45;&gt;Node22</title>
<path fill="none" stroke="#191970" d="M1455.7493,-369.3861C1477.1022,-341.0817 1516.3294,-278.976 1488.5,-235 1468.5134,-203.4172 1437.1781,-227.0701 1412.5,-199 1398.3406,-182.8943 1392.1788,-158.6345 1389.5111,-141.6615"/>
<polygon fill="#191970" stroke="#191970" points="1392.9783,-141.1821 1388.2137,-131.7191 1386.0371,-142.0879 1392.9783,-141.1821"/>
</g>
<!-- Node32&#45;&gt;Node23 -->
<g id="edge58" class="edge">
<title>Node32&#45;&gt;Node23</title>
<path fill="none" stroke="#191970" d="M1352.3547,-372.4497C1293.4177,-363.7253 1215.3266,-350.4125 1147.5,-333 993.897,-293.5669 816.8244,-225.5937 744.6717,-196.8999"/>
<polygon fill="#191970" stroke="#191970" points="745.7853,-193.5759 735.2003,-193.1188 743.1899,-200.077 745.7853,-193.5759"/>
</g>
<!-- Node33 -->
<g id="node34" class="node">
<title>Node33</title>
<polygon fill="#ffffff" stroke="#bfbfbf" points="1545.5,-112.5 1545.5,-131.5 1577.5,-131.5 1577.5,-112.5 1545.5,-112.5"/>
<text text-anchor="middle" x="1561.5" y="-119.5" font-family="Helvetica,sans-Serif" font-size="10.00" fill="#000000">set</text>
</g>
<!-- Node32&#45;&gt;Node33 -->
<g id="edge50" class="edge">
<title>Node32&#45;&gt;Node33</title>
<path fill="none" stroke="#191970" d="M1465.0782,-369.2984C1476.7878,-360.0293 1490.6391,-347.2434 1499.5,-333 1538.7822,-269.856 1554.1798,-180.655 1559.298,-141.5992"/>
<polygon fill="#191970" stroke="#191970" points="1562.7843,-141.9238 1560.5262,-131.5724 1555.8362,-141.0726 1562.7843,-141.9238"/>
</g>
<!-- Node34 -->
<g id="node35" class="node">
<title>Node34</title>
<g id="a_node35"><a xlink:href="AlignedAllocator_8hpp.html" target="_top" xlink:title="Core/Containers/AlignedAllocator.hpp">
<polygon fill="#ffffff" stroke="#000000" points="1240.5,-308 1240.5,-327 1438.5,-327 1438.5,-308 1240.5,-308"/>
<text text-anchor="middle" x="1339.5" y="-315" font-family="Helvetica,sans-Serif" font-size="10.00" fill="#000000">Core/Containers/AlignedAllocator.hpp</text>
</a>
</g>
</g>
<!-- Node32&#45;&gt;Node34 -->
<g id="edge52" class="edge">
<title>Node32&#45;&gt;Node34</title>
<path fill="none" stroke="#191970" d="M1420.1604,-369.4639C1403.1821,-358.526 1380.2758,-343.769 1363.2118,-332.7759"/>
<polygon fill="#191970" stroke="#191970" points="1364.7096,-329.5774 1354.4076,-327.1039 1360.9186,-335.462 1364.7096,-329.5774"/>
</g>
<!-- Node39 -->
<g id="node40" class="node">
<title>Node39</title>
<g id="a_node40"><a xlink:href="Log_8hpp.html" target="_top" xlink:title="Core/Utils/Log.hpp">
<polygon fill="#ffffff" stroke="#000000" points="1887.5,-174 1887.5,-193 1993.5,-193 1993.5,-174 1887.5,-174"/>
<text text-anchor="middle" x="1940.5" y="-181" font-family="Helvetica,sans-Serif" font-size="10.00" fill="#000000">Core/Utils/Log.hpp</text>
</a>
</g>
</g>
<!-- Node32&#45;&gt;Node39 -->
<g id="edge59" class="edge">
<title>Node32&#45;&gt;Node39</title>
<path fill="none" stroke="#191970" d="M1534.6433,-375.4087C1614.768,-366.4158 1724.6411,-351.3584 1764.5,-333 1834.3628,-300.8222 1898.3613,-232.9076 1926.0466,-200.8938"/>
<polygon fill="#191970" stroke="#191970" points="1928.7599,-203.1059 1932.577,-193.2225 1923.4297,-198.5684 1928.7599,-203.1059"/>
</g>
<!-- Node42 -->
<g id="node43" class="node">
<title>Node42</title>
<g id="a_node43"><a xlink:href="RenderParameters_8inl.html" target="_top" xlink:title="Engine/Renderer/RenderTechnique\l/RenderParameters.inl">
<polygon fill="#ffffff" stroke="#000000" points="1573.5,-302.5 1573.5,-332.5 1755.5,-332.5 1755.5,-302.5 1573.5,-302.5"/>
<text text-anchor="start" x="1581.5" y="-320.5" font-family="Helvetica,sans-Serif" font-size="10.00" fill="#000000">Engine/Renderer/RenderTechnique</text>
<text text-anchor="middle" x="1664.5" y="-309.5" font-family="Helvetica,sans-Serif" font-size="10.00" fill="#000000">/RenderParameters.inl</text>
</a>
</g>
</g>
<!-- Node32&#45;&gt;Node42 -->
<g id="edge65" class="edge">
<title>Node32&#45;&gt;Node42</title>
<path fill="none" stroke="#191970" d="M1493.0967,-369.4639C1526.2495,-359.4131 1570.0389,-346.1375 1605.0584,-335.5208"/>
<polygon fill="#191970" stroke="#191970" points="1606.1326,-338.8525 1614.687,-332.6017 1604.1016,-332.1536 1606.1326,-338.8525"/>
</g>
<!-- Node34&#45;&gt;Node10 -->
<g id="edge53" class="edge">
<title>Node34&#45;&gt;Node10</title>
<path fill="none" stroke="#191970" d="M1240.2811,-309.885C1139.9868,-301.1565 997.4086,-285.5073 980.5,-266 949.2257,-229.9191 981.294,-170.3144 1001.2068,-140.3702"/>
<polygon fill="#191970" stroke="#191970" points="1004.3509,-141.9763 1007.1492,-131.7577 998.5893,-138.0009 1004.3509,-141.9763"/>
</g>
<!-- Node35 -->
<g id="node36" class="node">
<title>Node35</title>
<polygon fill="#ffffff" stroke="#bfbfbf" points="1257,-241 1257,-260 1340,-260 1340,-241 1257,-241"/>
<text text-anchor="middle" x="1298.5" y="-248" font-family="Helvetica,sans-Serif" font-size="10.00" fill="#000000">mm_malloc.h</text>
</g>
<!-- Node34&#45;&gt;Node35 -->
<g id="edge54" class="edge">
<title>Node34&#45;&gt;Node35</title>
<path fill="none" stroke="#191970" d="M1333.6257,-307.9005C1327.4148,-297.751 1317.4665,-281.4941 1309.7401,-268.8679"/>
<polygon fill="#191970" stroke="#191970" points="1312.5685,-266.7844 1304.3634,-260.0817 1306.5977,-270.4382 1312.5685,-266.7844"/>
</g>
<!-- Node36 -->
<g id="node37" class="node">
<title>Node36</title>
<polygon fill="#ffffff" stroke="#bfbfbf" points="1358,-241 1358,-260 1411,-260 1411,-241 1358,-241"/>
<text text-anchor="middle" x="1384.5" y="-248" font-family="Helvetica,sans-Serif" font-size="10.00" fill="#000000">cstddef</text>
</g>
<!-- Node34&#45;&gt;Node36 -->
<g id="edge55" class="edge">
<title>Node34&#45;&gt;Node36</title>
<path fill="none" stroke="#191970" d="M1345.9474,-307.9005C1352.8311,-297.6515 1363.8976,-281.1747 1372.412,-268.4976"/>
<polygon fill="#191970" stroke="#191970" points="1375.3944,-270.3345 1378.0646,-260.0817 1369.5835,-266.4316 1375.3944,-270.3345"/>
</g>
<!-- Node37 -->
<g id="node38" class="node">
<title>Node37</title>
<polygon fill="#ffffff" stroke="#bfbfbf" points="1429.5,-241 1429.5,-260 1479.5,-260 1479.5,-241 1429.5,-241"/>
<text text-anchor="middle" x="1454.5" y="-248" font-family="Helvetica,sans-Serif" font-size="10.00" fill="#000000">cstdint</text>
</g>
<!-- Node34&#45;&gt;Node37 -->
<g id="edge56" class="edge">
<title>Node34&#45;&gt;Node37</title>
<path fill="none" stroke="#191970" d="M1355.9767,-307.9005C1375.1055,-296.7559 1406.8733,-278.2477 1429.1516,-265.2682"/>
<polygon fill="#191970" stroke="#191970" points="1431.1753,-268.1399 1438.0539,-260.0817 1427.6514,-262.0916 1431.1753,-268.1399"/>
</g>
<!-- Node38 -->
<g id="node39" class="node">
<title>Node38</title>
<polygon fill="#ffffff" stroke="#bfbfbf" points="1190,-241 1190,-260 1239,-260 1239,-241 1190,-241"/>
<text text-anchor="middle" x="1214.5" y="-248" font-family="Helvetica,sans-Serif" font-size="10.00" fill="#000000">cstdlib</text>
</g>
<!-- Node34&#45;&gt;Node38 -->
<g id="edge57" class="edge">
<title>Node34&#45;&gt;Node38</title>
<path fill="none" stroke="#191970" d="M1321.5905,-307.9005C1300.6127,-296.6564 1265.6504,-277.9166 1241.4065,-264.9219"/>
<polygon fill="#191970" stroke="#191970" points="1242.8435,-261.7211 1232.3762,-260.0817 1239.5365,-267.8907 1242.8435,-261.7211"/>
</g>
<!-- Node39&#45;&gt;Node7 -->
<g id="edge62" class="edge">
<title>Node39&#45;&gt;Node7</title>
<path fill="none" stroke="#191970" d="M1949.1878,-173.988C1961.2609,-159.5709 1980.1686,-131.7752 1966.5,-112 1939.2643,-72.5966 1802.1196,-35.1583 1734.4205,-18.7267"/>
<polygon fill="#191970" stroke="#191970" points="1735.1082,-15.2925 1724.5678,-16.3649 1733.4764,-22.0997 1735.1082,-15.2925"/>
</g>
<!-- Node39&#45;&gt;Node10 -->
<g id="edge60" class="edge">
<title>Node39&#45;&gt;Node10</title>
<path fill="none" stroke="#191970" d="M1887.3877,-178.4522C1852.4804,-175.2259 1805.7946,-171.0842 1764.5,-168 1507.637,-148.8155 1200.8421,-131.8599 1073.942,-125.1075"/>
<polygon fill="#191970" stroke="#191970" points="1073.8427,-121.5974 1063.6713,-124.5624 1073.4717,-128.5875 1073.8427,-121.5974"/>
</g>
<!-- Node39&#45;&gt;Node31 -->
<g id="edge64" class="edge">
<title>Node39&#45;&gt;Node31</title>
<path fill="none" stroke="#191970" d="M1917.0625,-173.8906C1891.5598,-163.4345 1850.6406,-146.6577 1822.2631,-135.0229"/>
<polygon fill="#191970" stroke="#191970" points="1823.3748,-131.696 1812.7945,-131.1408 1820.7193,-138.1727 1823.3748,-131.696"/>
</g>
<!-- Node40 -->
<g id="node41" class="node">
<title>Node40</title>
<polygon fill="#ffffff" stroke="#bfbfbf" points="1845.5,-112.5 1845.5,-131.5 1889.5,-131.5 1889.5,-112.5 1845.5,-112.5"/>
<text text-anchor="middle" x="1867.5" y="-119.5" font-family="Helvetica,sans-Serif" font-size="10.00" fill="#000000">ctime</text>
</g>
<!-- Node39&#45;&gt;Node40 -->
<g id="edge61" class="edge">
<title>Node39&#45;&gt;Node40</title>
<path fill="none" stroke="#191970" d="M1929.0938,-173.8906C1917.8031,-164.3786 1900.3033,-149.6357 1886.8381,-138.2917"/>
<polygon fill="#191970" stroke="#191970" points="1888.9699,-135.5111 1879.0671,-131.7449 1884.4598,-140.8646 1888.9699,-135.5111"/>
</g>
<!-- Node41 -->
<g id="node42" class="node">
<title>Node41</title>
<polygon fill="#ffffff" stroke="#bfbfbf" points="1907.5,-112.5 1907.5,-131.5 1957.5,-131.5 1957.5,-112.5 1907.5,-112.5"/>
<text text-anchor="middle" x="1932.5" y="-119.5" font-family="Helvetica,sans-Serif" font-size="10.00" fill="#000000">stdio.h</text>
</g>
<!-- Node39&#45;&gt;Node41 -->
<g id="edge63" class="edge">
<title>Node39&#45;&gt;Node41</title>
<path fill="none" stroke="#191970" d="M1939.25,-173.8906C1938.1411,-165.3657 1936.4856,-152.6392 1935.0917,-141.9235"/>
<polygon fill="#191970" stroke="#191970" points="1938.5284,-141.2098 1933.7676,-131.7449 1931.5869,-142.1128 1938.5284,-141.2098"/>
</g>
<!-- Node43 -->
<g id="node44" class="node">
<title>Node43</title>
<g id="a_node44"><a xlink:href="ShaderProgram_8hpp.html" target="_top" xlink:title="Engine/Renderer/RenderTechnique\l/ShaderProgram.hpp">
<polygon fill="#ffffff" stroke="#000000" points="1573.5,-235.5 1573.5,-265.5 1755.5,-265.5 1755.5,-235.5 1573.5,-235.5"/>
<text text-anchor="start" x="1581.5" y="-253.5" font-family="Helvetica,sans-Serif" font-size="10.00" fill="#000000">Engine/Renderer/RenderTechnique</text>
<text text-anchor="middle" x="1664.5" y="-242.5" font-family="Helvetica,sans-Serif" font-size="10.00" fill="#000000">/ShaderProgram.hpp</text>
</a>
</g>
</g>
<!-- Node42&#45;&gt;Node43 -->
<g id="edge66" class="edge">
<title>Node42&#45;&gt;Node43</title>
<path fill="none" stroke="#191970" d="M1664.5,-302.2967C1664.5,-294.5013 1664.5,-284.7991 1664.5,-275.9064"/>
<polygon fill="#191970" stroke="#191970" points="1668.0001,-275.6431 1664.5,-265.6432 1661.0001,-275.6432 1668.0001,-275.6431"/>
</g>
<!-- Node43&#45;&gt;Node21 -->
<g id="edge67" class="edge">
<title>Node43&#45;&gt;Node21</title>
<path fill="none" stroke="#191970" d="M1634.4261,-235.4116C1592.1682,-214.383 1517.1773,-177.7423 1488.5,-168 1443.0014,-152.5431 1390.1299,-140.9632 1348.9487,-133.288"/>
<polygon fill="#191970" stroke="#191970" points="1349.4781,-129.8268 1339.0113,-131.4692 1348.2178,-136.7125 1349.4781,-129.8268"/>
</g>
<!-- Node43&#45;&gt;Node23 -->
<g id="edge68" class="edge">
<title>Node43&#45;&gt;Node23</title>
<path fill="none" stroke="#191970" d="M1573.2044,-241.7952C1545.9703,-239.3781 1516.0411,-236.8987 1488.5,-235 1167.9732,-212.903 1083.5675,-250.9027 766.5,-199 761.3096,-198.1504 755.9103,-196.9879 750.611,-195.6786"/>
<polygon fill="#191970" stroke="#191970" points="751.1887,-192.2106 740.6251,-193.0234 749.3899,-198.9756 751.1887,-192.2106"/>
</g>
<!-- Node43&#45;&gt;Node30 -->
<g id="edge77" class="edge">
<title>Node43&#45;&gt;Node30</title>
<path fill="none" stroke="#191970" d="M1616.4742,-235.4639C1578.0637,-223.4382 1524.9081,-206.796 1489.1958,-195.6151"/>
<polygon fill="#191970" stroke="#191970" points="1490.2014,-192.2624 1479.6125,-192.6146 1488.1099,-198.9427 1490.2014,-192.2624"/>
</g>
<!-- Node43&#45;&gt;Node31 -->
<g id="edge78" class="edge">
<title>Node43&#45;&gt;Node31</title>
<path fill="none" stroke="#191970" d="M1728.3658,-235.4024C1747.9679,-227.6725 1767.7177,-216.13 1780.5,-199 1792.6835,-182.6725 1793.9673,-158.7884 1792.9744,-141.9595"/>
<polygon fill="#191970" stroke="#191970" points="1796.4248,-141.2555 1792.0293,-131.6155 1789.4538,-141.8925 1796.4248,-141.2555"/>
</g>
<!-- Node44 -->
<g id="node45" class="node">
<title>Node44</title>
<g id="a_node45"><a xlink:href="ShaderConfiguration_8hpp.html" target="_top" xlink:title="Engine/Renderer/RenderTechnique\l/ShaderConfiguration.hpp">
<polygon fill="#ffffff" stroke="#000000" points="1573.5,-168.5 1573.5,-198.5 1755.5,-198.5 1755.5,-168.5 1573.5,-168.5"/>
<text text-anchor="start" x="1581.5" y="-186.5" font-family="Helvetica,sans-Serif" font-size="10.00" fill="#000000">Engine/Renderer/RenderTechnique</text>
<text text-anchor="middle" x="1664.5" y="-175.5" font-family="Helvetica,sans-Serif" font-size="10.00" fill="#000000">/ShaderConfiguration.hpp</text>
</a>
</g>
</g>
<!-- Node43&#45;&gt;Node44 -->
<g id="edge69" class="edge">
<title>Node43&#45;&gt;Node44</title>
<path fill="none" stroke="#191970" d="M1664.5,-235.2967C1664.5,-227.5013 1664.5,-217.7991 1664.5,-208.9064"/>
<polygon fill="#191970" stroke="#191970" points="1668.0001,-208.6431 1664.5,-198.6432 1661.0001,-208.6432 1668.0001,-208.6431"/>
</g>
<!-- Node45 -->
<g id="node46" class="node">
<title>Node45</title>
<polygon fill="#ffffff" stroke="#bfbfbf" points="1707.5,-112.5 1707.5,-131.5 1749.5,-131.5 1749.5,-112.5 1707.5,-112.5"/>
<text text-anchor="middle" x="1728.5" y="-119.5" font-family="Helvetica,sans-Serif" font-size="10.00" fill="#000000">array</text>
</g>
<!-- Node43&#45;&gt;Node45 -->
<g id="edge76" class="edge">
<title>Node43&#45;&gt;Node45</title>
<path fill="none" stroke="#191970" d="M1718.2661,-235.4745C1736.1476,-227.6361 1754.1293,-216.006 1764.5,-199 1776.4732,-179.3661 1760.5293,-155.103 1746.2198,-139.122"/>
<polygon fill="#191970" stroke="#191970" points="1748.4742,-136.4143 1739.0423,-131.5883 1743.4061,-141.2428 1748.4742,-136.4143"/>
</g>
<!-- Node44&#45;&gt;Node21 -->
<g id="edge70" class="edge">
<title>Node44&#45;&gt;Node21</title>
<path fill="none" stroke="#191970" d="M1573.2604,-168.9254C1504.6982,-157.9732 1412.178,-143.194 1349.4207,-133.1692"/>
<polygon fill="#191970" stroke="#191970" points="1349.6525,-129.6619 1339.2256,-131.5406 1348.5483,-136.5742 1349.6525,-129.6619"/>
</g>
<!-- Node44&#45;&gt;Node22 -->
<g id="edge75" class="edge">
<title>Node44&#45;&gt;Node22</title>
<path fill="none" stroke="#191970" d="M1596.7382,-168.4554C1541.1027,-156.1031 1464.6502,-139.129 1421.2344,-129.4898"/>
<polygon fill="#191970" stroke="#191970" points="1421.7201,-126.0124 1411.1992,-127.2617 1420.2028,-132.846 1421.7201,-126.0124"/>
</g>
<!-- Node44&#45;&gt;Node31 -->
<g id="edge74" class="edge">
<title>Node44&#45;&gt;Node31</title>
<path fill="none" stroke="#191970" d="M1695.3231,-168.4554C1715.6088,-158.554 1741.9788,-145.683 1761.8162,-136.0004"/>
<polygon fill="#191970" stroke="#191970" points="1763.523,-139.062 1770.9745,-131.5303 1760.4526,-132.7714 1763.523,-139.062"/>
</g>
<!-- Node44&#45;&gt;Node33 -->
<g id="edge73" class="edge">
<title>Node44&#45;&gt;Node33</title>
<path fill="none" stroke="#191970" d="M1639.3034,-168.4554C1623.1728,-158.8241 1602.3362,-146.3828 1586.2864,-136.7996"/>
<polygon fill="#191970" stroke="#191970" points="1587.8416,-133.6518 1577.4613,-131.5303 1584.253,-139.662 1587.8416,-133.6518"/>
</g>
<!-- Node44&#45;&gt;Node45 -->
<g id="edge71" class="edge">
<title>Node44&#45;&gt;Node45</title>
<path fill="none" stroke="#191970" d="M1680.3202,-168.2977C1689.5742,-159.4052 1701.2781,-148.1586 1710.833,-138.9769"/>
<polygon fill="#191970" stroke="#191970" points="1713.4674,-141.2995 1718.2528,-131.8469 1708.6172,-136.2521 1713.4674,-141.2995"/>
</g>
<!-- Node46 -->
<g id="node47" class="node">
<title>Node46</title>
<polygon fill="#ffffff" stroke="#bfbfbf" points="1648.5,-112.5 1648.5,-131.5 1680.5,-131.5 1680.5,-112.5 1648.5,-112.5"/>
<text text-anchor="middle" x="1664.5" y="-119.5" font-family="Helvetica,sans-Serif" font-size="10.00" fill="#000000">list</text>
</g>
<!-- Node44&#45;&gt;Node46 -->
<g id="edge72" class="edge">
<title>Node44&#45;&gt;Node46</title>
<path fill="none" stroke="#191970" d="M1664.5,-168.2977C1664.5,-160.3834 1664.5,-150.6043 1664.5,-142.0759"/>
<polygon fill="#191970" stroke="#191970" points="1668.0001,-141.8469 1664.5,-131.8469 1661.0001,-141.847 1668.0001,-141.8469"/>
</g>
</g>
</svg>
