<?xml version="1.0" encoding="UTF-8" standalone="no"?>
<!DOCTYPE svg PUBLIC "-//W3C//DTD SVG 1.1//EN"
 "http://www.w3.org/Graphics/SVG/1.1/DTD/svg11.dtd">
<!-- Generated by graphviz version 2.40.1 (20161225.0304)
 -->
<!-- Title: src/Engine/Managers/LightManager/LightManager.hpp Pages: 1 -->
<svg width="1158pt" height="464pt"
 viewBox="0.00 0.00 1157.50 464.00" xmlns="http://www.w3.org/2000/svg" xmlns:xlink="http://www.w3.org/1999/xlink">
<g id="graph0" class="graph" transform="scale(1 1) rotate(0) translate(4 460)">
<title>src/Engine/Managers/LightManager/LightManager.hpp</title>
<polygon fill="#ffffff" stroke="transparent" points="-4,4 -4,-460 1153.5,-460 1153.5,4 -4,4"/>
<!-- Node0 -->
<g id="node1" class="node">
<title>Node0</title>
<polygon fill="#bfbfbf" stroke="#000000" points="659.5,-425.5 659.5,-455.5 834.5,-455.5 834.5,-425.5 659.5,-425.5"/>
<text text-anchor="start" x="667.5" y="-443.5" font-family="Helvetica,sans-Serif" font-size="10.00" fill="#000000">src/Engine/Managers</text>
<text text-anchor="middle" x="747" y="-432.5" font-family="Helvetica,sans-Serif" font-size="10.00" fill="#000000">/LightManager/LightManager.hpp</text>
</g>
<!-- Node1 -->
<g id="node2" class="node">
<title>Node1</title>
<g id="a_node2"><a xlink:href="LightStorage_8hpp.html" target="_top" xlink:title="Engine/Managers/LightManager\l/LightStorage.hpp">
<polygon fill="#ffffff" stroke="#000000" points="498.5,-358.5 498.5,-388.5 667.5,-388.5 667.5,-358.5 498.5,-358.5"/>
<text text-anchor="start" x="506.5" y="-376.5" font-family="Helvetica,sans-Serif" font-size="10.00" fill="#000000">Engine/Managers/LightManager</text>
<text text-anchor="middle" x="583" y="-365.5" font-family="Helvetica,sans-Serif" font-size="10.00" fill="#000000">/LightStorage.hpp</text>
</a>
</g>
</g>
<!-- Node0&#45;&gt;Node1 -->
<g id="edge1" class="edge">
<title>Node0&#45;&gt;Node1</title>
<path fill="none" stroke="#191970" d="M710.1952,-425.4639C686.3291,-415.7137 655.0349,-402.9289 629.4598,-392.4805"/>
<polygon fill="#191970" stroke="#191970" points="630.5463,-389.1436 619.9653,-388.6017 627.8989,-395.6237 630.5463,-389.1436"/>
</g>
<!-- Node2 -->
<g id="node3" class="node">
<title>Node2</title>
<g id="a_node3"><a xlink:href="RaEngine_8hpp.html" target="_top" xlink:title="../../RaEngine.hpp">
<polygon fill="#ffffff" stroke="#000000" points="461.5,-168.5 461.5,-187.5 562.5,-187.5 562.5,-168.5 461.5,-168.5"/>
<text text-anchor="middle" x="512" y="-175.5" font-family="Helvetica,sans-Serif" font-size="10.00" fill="#000000">../../RaEngine.hpp</text>
</a>
</g>
</g>
<!-- Node0&#45;&gt;Node2 -->
<g id="edge41" class="edge">
<title>Node0&#45;&gt;Node2</title>
<path fill="none" stroke="#191970" d="M659.2014,-434.5717C593.1998,-428.0839 510.5914,-414.9302 489,-389 442.0716,-332.6414 468.9331,-295.0785 487,-224 489.4785,-214.2493 494.4873,-204.3309 499.3751,-196.2128"/>
<polygon fill="#191970" stroke="#191970" points="502.4313,-197.9312 504.8985,-187.6276 496.5444,-194.1437 502.4313,-197.9312"/>
</g>
<!-- Node28 -->
<g id="node29" class="node">
<title>Node28</title>
<g id="a_node29"><a xlink:href="System_8hpp.html" target="_top" xlink:title="Engine/System/System.hpp">
<polygon fill="#ffffff" stroke="#000000" points="704,-364 704,-383 854,-383 854,-364 704,-364"/>
<text text-anchor="middle" x="779" y="-371" font-family="Helvetica,sans-Serif" font-size="10.00" fill="#000000">Engine/System/System.hpp</text>
</a>
</g>
</g>
<!-- Node0&#45;&gt;Node28 -->
<g id="edge42" class="edge">
<title>Node0&#45;&gt;Node28</title>
<path fill="none" stroke="#191970" d="M754.2613,-425.2967C758.9566,-415.4658 765.1002,-402.6026 770.0904,-392.1545"/>
<polygon fill="#191970" stroke="#191970" points="773.2849,-393.587 774.4364,-383.055 766.9683,-390.5702 773.2849,-393.587"/>
</g>
<!-- Node29 -->
<g id="node30" class="node">
<title>Node29</title>
<polygon fill="#ffffff" stroke="#bfbfbf" points="966,-297 966,-316 1024,-316 1024,-297 966,-297"/>
<text text-anchor="middle" x="995" y="-304" font-family="Helvetica,sans-Serif" font-size="10.00" fill="#000000">memory</text>
</g>
<!-- Node0&#45;&gt;Node29 -->
<g id="edge46" class="edge">
<title>Node0&#45;&gt;Node29</title>
<path fill="none" stroke="#191970" d="M784.4643,-425.4492C807.5019,-415.8079 837.4098,-402.5908 863,-389 902.9245,-367.7964 947.0331,-339.078 972.8114,-321.7188"/>
<polygon fill="#191970" stroke="#191970" points="974.813,-324.5904 981.1281,-316.0833 970.8863,-318.7955 974.813,-324.5904"/>
</g>
<!-- Node1&#45;&gt;Node2 -->
<g id="edge2" class="edge">
<title>Node1&#45;&gt;Node2</title>
<path fill="none" stroke="#191970" d="M559.6858,-358.3327C546.9077,-349.0747 531.5664,-336.2885 521,-322 501.8107,-296.051 499.3461,-286.6434 493,-255 490.2908,-241.4912 490.3188,-237.5144 493,-224 494.8648,-214.6003 498.6799,-204.7115 502.4054,-196.5215"/>
<polygon fill="#191970" stroke="#191970" points="505.5557,-198.0464 506.7682,-187.5212 499.2567,-194.993 505.5557,-198.0464"/>
</g>
<!-- Node9 -->
<g id="node10" class="node">
<title>Node9</title>
<g id="a_node10"><a xlink:href="Light_8hpp.html" target="_top" xlink:title="../../Renderer/Light\l/Light.hpp">
<polygon fill="#ffffff" stroke="#000000" points="530.5,-291.5 530.5,-321.5 635.5,-321.5 635.5,-291.5 530.5,-291.5"/>
<text text-anchor="start" x="538.5" y="-309.5" font-family="Helvetica,sans-Serif" font-size="10.00" fill="#000000">../../Renderer/Light</text>
<text text-anchor="middle" x="583" y="-298.5" font-family="Helvetica,sans-Serif" font-size="10.00" fill="#000000">/Light.hpp</text>
</a>
</g>
</g>
<!-- Node1&#45;&gt;Node9 -->
<g id="edge9" class="edge">
<title>Node1&#45;&gt;Node9</title>
<path fill="none" stroke="#191970" d="M583,-358.2967C583,-350.5013 583,-340.7991 583,-331.9064"/>
<polygon fill="#191970" stroke="#191970" points="586.5001,-331.6431 583,-321.6432 579.5001,-331.6432 586.5001,-331.6431"/>
</g>
<!-- Node3 -->
<g id="node4" class="node">
<title>Node3</title>
<g id="a_node4"><a xlink:href="CoreMacros_8hpp.html" target="_top" xlink:title="Core/CoreMacros.hpp">
<polygon fill="#ffffff" stroke="#000000" points="267,-56.5 267,-75.5 387,-75.5 387,-56.5 267,-56.5"/>
<text text-anchor="middle" x="327" y="-63.5" font-family="Helvetica,sans-Serif" font-size="10.00" fill="#000000">Core/CoreMacros.hpp</text>
</a>
</g>
</g>
<!-- Node2&#45;&gt;Node3 -->
<g id="edge3" class="edge">
<title>Node2&#45;&gt;Node3</title>
<path fill="none" stroke="#191970" d="M461.319,-169.5486C418.7434,-161.47 362.3106,-148.1487 346,-132 333.7111,-119.8331 329.2481,-100.269 327.688,-85.5942"/>
<polygon fill="#191970" stroke="#191970" points="331.1731,-85.2582 326.9792,-75.5288 324.1904,-85.7499 331.1731,-85.2582"/>
</g>
<!-- Node4 -->
<g id="node5" class="node">
<title>Node4</title>
<polygon fill="#ffffff" stroke="#bfbfbf" points="163,-.5 163,-19.5 215,-19.5 215,-.5 163,-.5"/>
<text text-anchor="middle" x="189" y="-7.5" font-family="Helvetica,sans-Serif" font-size="10.00" fill="#000000">cassert</text>
</g>
<!-- Node3&#45;&gt;Node4 -->
<g id="edge4" class="edge">
<title>Node3&#45;&gt;Node4</title>
<path fill="none" stroke="#191970" d="M303.277,-56.3733C280.8263,-47.2629 246.9261,-33.5062 221.8745,-23.3404"/>
<polygon fill="#191970" stroke="#191970" points="222.9957,-20.0182 212.4135,-19.5011 220.3635,-26.5045 222.9957,-20.0182"/>
</g>
<!-- Node5 -->
<g id="node6" class="node">
<title>Node5</title>
<polygon fill="#ffffff" stroke="#bfbfbf" points="233,-.5 233,-19.5 279,-19.5 279,-.5 233,-.5"/>
<text text-anchor="middle" x="256" y="-7.5" font-family="Helvetica,sans-Serif" font-size="10.00" fill="#000000">cstdio</text>
</g>
<!-- Node3&#45;&gt;Node5 -->
<g id="edge5" class="edge">
<title>Node3&#45;&gt;Node5</title>
<path fill="none" stroke="#191970" d="M314.6327,-56.2455C304.0446,-47.8943 288.5936,-35.7076 276.2107,-25.9408"/>
<polygon fill="#191970" stroke="#191970" points="278.2447,-23.0875 268.2255,-19.6427 273.9097,-28.5837 278.2447,-23.0875"/>
</g>
<!-- Node6 -->
<g id="node7" class="node">
<title>Node6</title>
<polygon fill="#ffffff" stroke="#bfbfbf" points="297,-.5 297,-19.5 357,-19.5 357,-.5 297,-.5"/>
<text text-anchor="middle" x="327" y="-7.5" font-family="Helvetica,sans-Serif" font-size="10.00" fill="#000000">iostream</text>
</g>
<!-- Node3&#45;&gt;Node6 -->
<g id="edge6" class="edge">
<title>Node3&#45;&gt;Node6</title>
<path fill="none" stroke="#191970" d="M327,-56.2455C327,-48.9382 327,-38.6944 327,-29.7046"/>
<polygon fill="#191970" stroke="#191970" points="330.5001,-29.6426 327,-19.6427 323.5001,-29.6427 330.5001,-29.6426"/>
</g>
<!-- Node7 -->
<g id="node8" class="node">
<title>Node7</title>
<polygon fill="#ffffff" stroke="#bfbfbf" points="375,-.5 375,-19.5 431,-19.5 431,-.5 375,-.5"/>
<text text-anchor="middle" x="403" y="-7.5" font-family="Helvetica,sans-Serif" font-size="10.00" fill="#000000">sstream</text>
</g>
<!-- Node3&#45;&gt;Node7 -->
<g id="edge7" class="edge">
<title>Node3&#45;&gt;Node7</title>
<path fill="none" stroke="#191970" d="M340.2382,-56.2455C351.681,-47.814 368.4296,-35.4729 381.7475,-25.6598"/>
<polygon fill="#191970" stroke="#191970" points="383.9391,-28.3924 389.9135,-19.6427 379.7867,-22.757 383.9391,-28.3924"/>
</g>
<!-- Node8 -->
<g id="node9" class="node">
<title>Node8</title>
<polygon fill="#ffffff" stroke="#bfbfbf" points="449,-.5 449,-19.5 497,-19.5 497,-.5 449,-.5"/>
<text text-anchor="middle" x="473" y="-7.5" font-family="Helvetica,sans-Serif" font-size="10.00" fill="#000000">thread</text>
</g>
<!-- Node3&#45;&gt;Node8 -->
<g id="edge8" class="edge">
<title>Node3&#45;&gt;Node8</title>
<path fill="none" stroke="#191970" d="M352.0983,-56.3733C376.1001,-47.1671 412.4713,-33.2165 439.0524,-23.021"/>
<polygon fill="#191970" stroke="#191970" points="440.631,-26.1642 448.7144,-19.315 438.1242,-19.6285 440.631,-26.1642"/>
</g>
<!-- Node9&#45;&gt;Node2 -->
<g id="edge39" class="edge">
<title>Node9&#45;&gt;Node2</title>
<path fill="none" stroke="#191970" d="M603.7426,-291.2996C624.05,-274.5175 649.805,-246.8505 634,-224 625.1787,-211.2464 590.8539,-198.968 560.8515,-190.3093"/>
<polygon fill="#191970" stroke="#191970" points="561.4591,-186.8448 550.8855,-187.5162 559.57,-193.5851 561.4591,-186.8448"/>
</g>
<!-- Node10 -->
<g id="node11" class="node">
<title>Node10</title>
<g id="a_node11"><a xlink:href="Color_8hpp.html" target="_top" xlink:title="Core/Utils/Color.hpp">
<polygon fill="#ffffff" stroke="#000000" points="285.5,-230 285.5,-249 398.5,-249 398.5,-230 285.5,-230"/>
<text text-anchor="middle" x="342" y="-237" font-family="Helvetica,sans-Serif" font-size="10.00" fill="#000000">Core/Utils/Color.hpp</text>
</a>
</g>
</g>
<!-- Node9&#45;&gt;Node10 -->
<g id="edge10" class="edge">
<title>Node9&#45;&gt;Node10</title>
<path fill="none" stroke="#191970" d="M530.4093,-291.8794C487.1624,-279.8563 426.5881,-263.0162 385.9067,-251.7064"/>
<polygon fill="#191970" stroke="#191970" points="386.8426,-248.3339 376.2705,-249.0275 384.9676,-255.0782 386.8426,-248.3339"/>
</g>
<!-- Node19 -->
<g id="node20" class="node">
<title>Node19</title>
<g id="a_node20"><a xlink:href="Component_8hpp.html" target="_top" xlink:title="Engine/Component/Component.hpp">
<polygon fill="#ffffff" stroke="#000000" points="720.5,-230 720.5,-249 909.5,-249 909.5,-230 720.5,-230"/>
<text text-anchor="middle" x="815" y="-237" font-family="Helvetica,sans-Serif" font-size="10.00" fill="#000000">Engine/Component/Component.hpp</text>
</a>
</g>
</g>
<!-- Node9&#45;&gt;Node19 -->
<g id="edge22" class="edge">
<title>Node9&#45;&gt;Node19</title>
<path fill="none" stroke="#191970" d="M635.0653,-291.4639C676.3941,-279.5284 733.469,-263.0456 772.1743,-251.8678"/>
<polygon fill="#191970" stroke="#191970" points="773.4499,-255.1425 782.0862,-249.0053 771.5077,-248.4173 773.4499,-255.1425"/>
</g>
<!-- Node27 -->
<g id="node28" class="node">
<title>Node27</title>
<g id="a_node28"><a xlink:href="Light_8inl.html" target="_top" xlink:title="Engine/Renderer/Light\l/Light.inl">
<polygon fill="#ffffff" stroke="#000000" points="502.5,-224.5 502.5,-254.5 625.5,-254.5 625.5,-224.5 502.5,-224.5"/>
<text text-anchor="start" x="510.5" y="-242.5" font-family="Helvetica,sans-Serif" font-size="10.00" fill="#000000">Engine/Renderer/Light</text>
<text text-anchor="middle" x="564" y="-231.5" font-family="Helvetica,sans-Serif" font-size="10.00" fill="#000000">/Light.inl</text>
</a>
</g>
</g>
<!-- Node9&#45;&gt;Node27 -->
<g id="edge40" class="edge">
<title>Node9&#45;&gt;Node27</title>
<path fill="none" stroke="#191970" d="M578.6886,-291.2967C576.4294,-283.3299 573.6054,-273.3718 571.0389,-264.3213"/>
<polygon fill="#191970" stroke="#191970" points="574.3899,-263.3089 568.2943,-254.6432 567.6554,-265.2187 574.3899,-263.3089"/>
</g>
<!-- Node10&#45;&gt;Node3 -->
<g id="edge11" class="edge">
<title>Node10&#45;&gt;Node3</title>
<path fill="none" stroke="#191970" d="M340.1819,-229.6643C338.3394,-219.3277 335.5466,-202.5763 334,-188 330.1737,-151.939 328.3363,-109.644 327.5376,-85.5163"/>
<polygon fill="#191970" stroke="#191970" points="331.036,-85.4054 327.2326,-75.5168 324.0392,-85.6189 331.036,-85.4054"/>
</g>
<!-- Node11 -->
<g id="node12" class="node">
<title>Node11</title>
<g id="a_node12"><a xlink:href="Math_8hpp.html" target="_top" xlink:title="Core/Math/Math.hpp">
<polygon fill="#ffffff" stroke="#000000" points="143,-168.5 143,-187.5 257,-187.5 257,-168.5 143,-168.5"/>
<text text-anchor="middle" x="200" y="-175.5" font-family="Helvetica,sans-Serif" font-size="10.00" fill="#000000">Core/Math/Math.hpp</text>
</a>
</g>
</g>
<!-- Node10&#45;&gt;Node11 -->
<g id="edge12" class="edge">
<title>Node10&#45;&gt;Node11</title>
<path fill="none" stroke="#191970" d="M319.8125,-229.8906C296.0533,-219.6005 258.1595,-203.1888 231.3575,-191.5809"/>
<polygon fill="#191970" stroke="#191970" points="232.5991,-188.3045 222.0317,-187.5419 229.817,-194.7279 232.5991,-188.3045"/>
</g>
<!-- Node16 -->
<g id="node17" class="node">
<title>Node16</title>
<polygon fill="#ffffff" stroke="#bfbfbf" points="355.5,-112.5 355.5,-131.5 424.5,-131.5 424.5,-112.5 355.5,-112.5"/>
<text text-anchor="middle" x="390" y="-119.5" font-family="Helvetica,sans-Serif" font-size="10.00" fill="#000000">Eigen/Core</text>
</g>
<!-- Node10&#45;&gt;Node16 -->
<g id="edge19" class="edge">
<title>Node10&#45;&gt;Node16</title>
<path fill="none" stroke="#191970" d="M339.6813,-229.7704C336.793,-215.5506 333.2303,-188.5508 342,-168 347.1156,-156.0122 357.0575,-145.6498 366.5727,-137.8114"/>
<polygon fill="#191970" stroke="#191970" points="368.8797,-140.4532 374.6926,-131.5954 364.6246,-134.8949 368.8797,-140.4532"/>
</g>
<!-- Node17 -->
<g id="node18" class="node">
<title>Node17</title>
<polygon fill="#ffffff" stroke="#bfbfbf" points="442.5,-112.5 442.5,-131.5 537.5,-131.5 537.5,-112.5 442.5,-112.5"/>
<text text-anchor="middle" x="490" y="-119.5" font-family="Helvetica,sans-Serif" font-size="10.00" fill="#000000">Eigen/Geometry</text>
</g>
<!-- Node10&#45;&gt;Node17 -->
<g id="edge20" class="edge">
<title>Node10&#45;&gt;Node17</title>
<path fill="none" stroke="#191970" d="M356.3615,-229.8192C371.1053,-219.7445 394.575,-203.3264 414,-188 434.373,-171.9256 456.6835,-152.2917 471.8283,-138.6367"/>
<polygon fill="#191970" stroke="#191970" points="474.3914,-141.0371 479.447,-131.7262 469.6886,-135.8522 474.3914,-141.0371"/>
</g>
<!-- Node18 -->
<g id="node19" class="node">
<title>Node18</title>
<polygon fill="#ffffff" stroke="#bfbfbf" points="351,-168.5 351,-187.5 405,-187.5 405,-168.5 351,-168.5"/>
<text text-anchor="middle" x="378" y="-175.5" font-family="Helvetica,sans-Serif" font-size="10.00" fill="#000000">random</text>
</g>
<!-- Node10&#45;&gt;Node18 -->
<g id="edge21" class="edge">
<title>Node10&#45;&gt;Node18</title>
<path fill="none" stroke="#191970" d="M347.625,-229.8906C352.8253,-221.0068 360.6966,-207.5601 367.1233,-196.5811"/>
<polygon fill="#191970" stroke="#191970" points="370.2644,-198.1432 372.2957,-187.7449 364.2233,-194.6069 370.2644,-198.1432"/>
</g>
<!-- Node12 -->
<g id="node13" class="node">
<title>Node12</title>
<g id="a_node13"><a xlink:href="RaCore_8hpp.html" target="_top" xlink:title="Core/RaCore.hpp">
<polygon fill="#ffffff" stroke="#000000" points="556,-112.5 556,-131.5 654,-131.5 654,-112.5 556,-112.5"/>
<text text-anchor="middle" x="605" y="-119.5" font-family="Helvetica,sans-Serif" font-size="10.00" fill="#000000">Core/RaCore.hpp</text>
</a>
</g>
</g>
<!-- Node11&#45;&gt;Node12 -->
<g id="edge13" class="edge">
<title>Node11&#45;&gt;Node12</title>
<path fill="none" stroke="#191970" d="M257.028,-171.0521C323.6068,-162.7987 437.296,-148.2663 545.6362,-132.0076"/>
<polygon fill="#191970" stroke="#191970" points="546.3995,-135.4322 555.7657,-130.48 545.3555,-128.5105 546.3995,-135.4322"/>
</g>
<!-- Node13 -->
<g id="node14" class="node">
<title>Node13</title>
<polygon fill="#ffffff" stroke="#bfbfbf" points="0,-112.5 0,-131.5 64,-131.5 64,-112.5 0,-112.5"/>
<text text-anchor="middle" x="32" y="-119.5" font-family="Helvetica,sans-Serif" font-size="10.00" fill="#000000">algorithm</text>
</g>
<!-- Node11&#45;&gt;Node13 -->
<g id="edge15" class="edge">
<title>Node11&#45;&gt;Node13</title>
<path fill="none" stroke="#191970" d="M171.1198,-168.3733C143.1839,-159.0613 100.6858,-144.8953 70.0131,-134.671"/>
<polygon fill="#191970" stroke="#191970" points="71.097,-131.3431 60.5034,-131.5011 68.8834,-137.9839 71.097,-131.3431"/>
</g>
<!-- Node14 -->
<g id="node15" class="node">
<title>Node14</title>
<polygon fill="#ffffff" stroke="#bfbfbf" points="82.5,-112.5 82.5,-131.5 129.5,-131.5 129.5,-112.5 82.5,-112.5"/>
<text text-anchor="middle" x="106" y="-119.5" font-family="Helvetica,sans-Serif" font-size="10.00" fill="#000000">cmath</text>
</g>
<!-- Node11&#45;&gt;Node14 -->
<g id="edge16" class="edge">
<title>Node11&#45;&gt;Node14</title>
<path fill="none" stroke="#191970" d="M183.6264,-168.2455C169.0692,-159.5731 147.569,-146.7645 130.8848,-136.825"/>
<polygon fill="#191970" stroke="#191970" points="132.5683,-133.7539 122.1859,-131.6427 128.9856,-139.7676 132.5683,-133.7539"/>
</g>
<!-- Node15 -->
<g id="node16" class="node">
<title>Node15</title>
<g id="a_node16"><a xlink:href="Math_8inl.html" target="_top" xlink:title="Core/Math/Math.inl">
<polygon fill="#ffffff" stroke="#000000" points="148,-112.5 148,-131.5 256,-131.5 256,-112.5 148,-112.5"/>
<text text-anchor="middle" x="202" y="-119.5" font-family="Helvetica,sans-Serif" font-size="10.00" fill="#000000">Core/Math/Math.inl</text>
</a>
</g>
</g>
<!-- Node11&#45;&gt;Node15 -->
<g id="edge17" class="edge">
<title>Node11&#45;&gt;Node15</title>
<path fill="none" stroke="#191970" d="M195.0815,-168.2455C193.9315,-160.9382 193.8931,-150.6944 194.8168,-141.7046"/>
<polygon fill="#191970" stroke="#191970" points="198.3029,-142.0671 196.4105,-131.6427 191.3891,-140.972 198.3029,-142.0671"/>
</g>
<!-- Node12&#45;&gt;Node3 -->
<g id="edge14" class="edge">
<title>Node12&#45;&gt;Node3</title>
<path fill="none" stroke="#191970" d="M557.526,-112.4369C509.5486,-102.7724 435.383,-87.8326 384.1949,-77.5213"/>
<polygon fill="#191970" stroke="#191970" points="384.7725,-74.0674 374.2782,-75.5237 383.3901,-80.9296 384.7725,-74.0674"/>
</g>
<!-- Node15&#45;&gt;Node11 -->
<g id="edge18" class="edge">
<title>Node15&#45;&gt;Node11</title>
<path fill="none" stroke="#191970" d="M206.9008,-131.6427C208.0622,-138.9199 208.1111,-149.155 207.1973,-158.1575"/>
<polygon fill="#191970" stroke="#191970" points="203.7069,-157.824 205.6152,-168.2455 210.6224,-158.9086 203.7069,-157.824"/>
</g>
<!-- Node19&#45;&gt;Node2 -->
<g id="edge30" class="edge">
<title>Node19&#45;&gt;Node2</title>
<path fill="none" stroke="#191970" d="M767.9887,-229.9581C714.3598,-219.073 626.6724,-201.2751 569.1438,-189.5985"/>
<polygon fill="#191970" stroke="#191970" points="569.618,-186.1234 559.1216,-187.5643 568.2255,-192.9836 569.618,-186.1234"/>
</g>
<!-- Node19&#45;&gt;Node16 -->
<g id="edge28" class="edge">
<title>Node19&#45;&gt;Node16</title>
<path fill="none" stroke="#191970" d="M756.9879,-229.9861C714.0092,-221.8198 654.5546,-208.1445 605,-188 588.759,-181.3978 587.2132,-174.6702 571,-168 558.3768,-162.8067 484.0404,-144.5412 434.6438,-132.6486"/>
<polygon fill="#191970" stroke="#191970" points="435.3588,-129.2208 424.8179,-130.2877 433.7234,-136.0271 435.3588,-129.2208"/>
</g>
<!-- Node19&#45;&gt;Node17 -->
<g id="edge29" class="edge">
<title>Node19&#45;&gt;Node17</title>
<path fill="none" stroke="#191970" d="M779.5884,-229.9127C745.6786,-220.4052 693.2747,-204.8537 649,-188 628.9244,-180.3579 624.7553,-176.4356 605,-168 578.006,-156.4735 547.1034,-144.1608 524.135,-135.1775"/>
<polygon fill="#191970" stroke="#191970" points="525.4,-131.9141 514.8116,-131.5433 522.8577,-138.4362 525.4,-131.9141"/>
</g>
<!-- Node20 -->
<g id="node21" class="node">
<title>Node20</title>
<g id="a_node21"><a xlink:href="Index_8hpp.html" target="_top" xlink:title="Core/Utils/Index.hpp">
<polygon fill="#ffffff" stroke="#000000" points="767,-168.5 767,-187.5 883,-187.5 883,-168.5 767,-168.5"/>
<text text-anchor="middle" x="825" y="-175.5" font-family="Helvetica,sans-Serif" font-size="10.00" fill="#000000">Core/Utils/Index.hpp</text>
</a>
</g>
</g>
<!-- Node19&#45;&gt;Node20 -->
<g id="edge23" class="edge">
<title>Node19&#45;&gt;Node20</title>
<path fill="none" stroke="#191970" d="M816.5625,-229.8906C817.9487,-221.3657 820.018,-208.6392 821.7604,-197.9235"/>
<polygon fill="#191970" stroke="#191970" points="825.2651,-198.177 823.4155,-187.7449 818.3558,-197.0535 825.2651,-198.177"/>
</g>
<!-- Node23 -->
<g id="node24" class="node">
<title>Node23</title>
<polygon fill="#ffffff" stroke="#bfbfbf" points="1102.5,-168.5 1102.5,-187.5 1149.5,-187.5 1149.5,-168.5 1102.5,-168.5"/>
<text text-anchor="middle" x="1126" y="-175.5" font-family="Helvetica,sans-Serif" font-size="10.00" fill="#000000">vector</text>
</g>
<!-- Node19&#45;&gt;Node23 -->
<g id="edge31" class="edge">
<title>Node19&#45;&gt;Node23</title>
<path fill="none" stroke="#191970" d="M878.6246,-229.9939C933.1463,-221.3399 1013.8925,-207.3208 1092.2812,-188.2253"/>
<polygon fill="#191970" stroke="#191970" points="1093.4537,-191.5411 1102.3241,-185.7474 1091.7768,-184.7449 1093.4537,-191.5411"/>
</g>
<!-- Node24 -->
<g id="node25" class="node">
<title>Node24</title>
<g id="a_node25"><a xlink:href="Types_8hpp.html" target="_top" xlink:title="Core/Types.hpp">
<polygon fill="#ffffff" stroke="#000000" points="657.5,-168.5 657.5,-187.5 748.5,-187.5 748.5,-168.5 657.5,-168.5"/>
<text text-anchor="middle" x="703" y="-175.5" font-family="Helvetica,sans-Serif" font-size="10.00" fill="#000000">Core/Types.hpp</text>
</a>
</g>
</g>
<!-- Node19&#45;&gt;Node24 -->
<g id="edge32" class="edge">
<title>Node19&#45;&gt;Node24</title>
<path fill="none" stroke="#191970" d="M797.5,-229.8906C779.2535,-219.8713 750.4376,-204.0483 729.4194,-192.5071"/>
<polygon fill="#191970" stroke="#191970" points="730.8272,-189.2872 720.3771,-187.5419 727.458,-195.423 730.8272,-189.2872"/>
</g>
<!-- Node26 -->
<g id="node27" class="node">
<title>Node26</title>
<g id="a_node27"><a xlink:href="Component_8inl.html" target="_top" xlink:title="Engine/Component/Component.inl">
<polygon fill="#ffffff" stroke="#000000" points="901.5,-168.5 901.5,-187.5 1084.5,-187.5 1084.5,-168.5 901.5,-168.5"/>
<text text-anchor="middle" x="993" y="-175.5" font-family="Helvetica,sans-Serif" font-size="10.00" fill="#000000">Engine/Component/Component.inl</text>
</a>
</g>
</g>
<!-- Node19&#45;&gt;Node26 -->
<g id="edge37" class="edge">
<title>Node19&#45;&gt;Node26</title>
<path fill="none" stroke="#191970" d="M837.75,-229.8906C866.2558,-219.3298 915.3116,-202.3208 950.7329,-190.6747"/>
<polygon fill="#191970" stroke="#191970" points="951.9126,-193.9714 960.3335,-187.5419 949.7411,-187.3167 951.9126,-193.9714"/>
</g>
<!-- Node20&#45;&gt;Node12 -->
<g id="edge24" class="edge">
<title>Node20&#45;&gt;Node12</title>
<path fill="none" stroke="#191970" d="M787.1807,-168.3733C749.8062,-158.8598 692.5276,-144.2797 652.1929,-134.0127"/>
<polygon fill="#191970" stroke="#191970" points="652.8802,-130.5761 642.3258,-131.5011 651.1534,-137.3598 652.8802,-130.5761"/>
</g>
<!-- Node21 -->
<g id="node22" class="node">
<title>Node21</title>
<polygon fill="#ffffff" stroke="#bfbfbf" points="898,-112.5 898,-131.5 942,-131.5 942,-112.5 898,-112.5"/>
<text text-anchor="middle" x="920" y="-119.5" font-family="Helvetica,sans-Serif" font-size="10.00" fill="#000000">limits</text>
</g>
<!-- Node20&#45;&gt;Node21 -->
<g id="edge25" class="edge">
<title>Node20&#45;&gt;Node21</title>
<path fill="none" stroke="#191970" d="M841.5477,-168.2455C856.2599,-159.5731 877.9888,-146.7645 894.8505,-136.825"/>
<polygon fill="#191970" stroke="#191970" points="896.8046,-139.736 903.6419,-131.6427 893.2498,-133.7057 896.8046,-139.736"/>
</g>
<!-- Node22 -->
<g id="node23" class="node">
<title>Node22</title>
<g id="a_node23"><a xlink:href="Index_8inl.html" target="_top" xlink:title="Core/Utils/Index.inl">
<polygon fill="#ffffff" stroke="#000000" points="770,-112.5 770,-131.5 880,-131.5 880,-112.5 770,-112.5"/>
<text text-anchor="middle" x="825" y="-119.5" font-family="Helvetica,sans-Serif" font-size="10.00" fill="#000000">Core/Utils/Index.inl</text>
</a>
</g>
</g>
<!-- Node20&#45;&gt;Node22 -->
<g id="edge26" class="edge">
<title>Node20&#45;&gt;Node22</title>
<path fill="none" stroke="#191970" d="M819.7332,-168.2455C818.3221,-160.9382 817.9179,-150.6944 818.5205,-141.7046"/>
<polygon fill="#191970" stroke="#191970" points="822.0111,-141.9945 819.7549,-131.6427 815.0632,-141.1421 822.0111,-141.9945"/>
</g>
<!-- Node22&#45;&gt;Node20 -->
<g id="edge27" class="edge">
<title>Node22&#45;&gt;Node20</title>
<path fill="none" stroke="#191970" d="M830.2451,-131.6427C831.6665,-138.9199 832.081,-149.155 831.4887,-158.1575"/>
<polygon fill="#191970" stroke="#191970" points="827.9947,-157.8972 830.2668,-168.2455 834.9439,-158.739 827.9947,-157.8972"/>
</g>
<!-- Node24&#45;&gt;Node12 -->
<g id="edge33" class="edge">
<title>Node24&#45;&gt;Node12</title>
<path fill="none" stroke="#191970" d="M685.9297,-168.2455C670.753,-159.5731 648.3379,-146.7645 630.9437,-136.825"/>
<polygon fill="#191970" stroke="#191970" points="632.2936,-133.5653 621.8747,-131.6427 628.8206,-139.643 632.2936,-133.5653"/>
</g>
<!-- Node24&#45;&gt;Node16 -->
<g id="edge34" class="edge">
<title>Node24&#45;&gt;Node16</title>
<path fill="none" stroke="#191970" d="M657.463,-171.0927C605.7157,-163.0544 518.5085,-148.9372 434.6391,-132.2501"/>
<polygon fill="#191970" stroke="#191970" points="435.188,-128.7906 424.6951,-130.2561 433.8117,-135.6539 435.188,-128.7906"/>
</g>
<!-- Node24&#45;&gt;Node17 -->
<g id="edge35" class="edge">
<title>Node24&#45;&gt;Node17</title>
<path fill="none" stroke="#191970" d="M666.384,-168.3733C630.352,-158.9001 575.2122,-144.4032 536.1886,-134.1435"/>
<polygon fill="#191970" stroke="#191970" points="536.6995,-130.6589 526.1382,-131.5011 534.9196,-137.4289 536.6995,-130.6589"/>
</g>
<!-- Node25 -->
<g id="node26" class="node">
<title>Node25</title>
<polygon fill="#ffffff" stroke="#bfbfbf" points="672,-112.5 672,-131.5 752,-131.5 752,-112.5 672,-112.5"/>
<text text-anchor="middle" x="712" y="-119.5" font-family="Helvetica,sans-Serif" font-size="10.00" fill="#000000">Eigen/Sparse</text>
</g>
<!-- Node24&#45;&gt;Node25 -->
<g id="edge36" class="edge">
<title>Node24&#45;&gt;Node25</title>
<path fill="none" stroke="#191970" d="M704.5677,-168.2455C705.7421,-160.9382 707.3884,-150.6944 708.8332,-141.7046"/>
<polygon fill="#191970" stroke="#191970" points="712.3191,-142.0714 710.4503,-131.6427 705.4078,-140.9606 712.3191,-142.0714"/>
</g>
<!-- Node26&#45;&gt;Node19 -->
<g id="edge38" class="edge">
<title>Node26&#45;&gt;Node19</title>
<path fill="none" stroke="#191970" d="M970.4321,-187.5419C942.0141,-198.0752 892.9732,-215.0818 857.4939,-226.7507"/>
<polygon fill="#191970" stroke="#191970" points="856.2952,-223.4602 847.875,-229.8906 858.4675,-230.1147 856.2952,-223.4602"/>
</g>
<!-- Node28&#45;&gt;Node2 -->
<g id="edge43" class="edge">
<title>Node28&#45;&gt;Node2</title>
<path fill="none" stroke="#191970" d="M773.4112,-363.8809C757.6286,-337.5467 710.0095,-263.609 651,-224 627.2325,-208.0465 597.4779,-197.2274 571.6026,-190.1126"/>
<polygon fill="#191970" stroke="#191970" points="572.4573,-186.7184 561.8962,-187.5642 570.6796,-193.489 572.4573,-186.7184"/>
</g>
<!-- Node28&#45;&gt;Node23 -->
<g id="edge45" class="edge">
<title>Node28&#45;&gt;Node23</title>
<path fill="none" stroke="#191970" d="M796.2078,-363.8051C852.7617,-331.9426 1033.1133,-230.3324 1100.381,-192.4338"/>
<polygon fill="#191970" stroke="#191970" points="1102.1031,-195.4808 1109.0975,-187.5229 1098.6671,-189.3821 1102.1031,-195.4808"/>
</g>
<!-- Node28&#45;&gt;Node29 -->
<g id="edge44" class="edge">
<title>Node28&#45;&gt;Node29</title>
<path fill="none" stroke="#191970" d="M812.989,-363.9976C848.0022,-354.065 904.071,-337.7583 952,-322 954.4406,-321.1976 956.9516,-320.3502 959.4762,-319.4821"/>
<polygon fill="#191970" stroke="#191970" points="960.8843,-322.6973 969.1603,-316.0823 958.5655,-316.0925 960.8843,-322.6973"/>
</g>
</g>
</svg>
