<?xml version="1.0" encoding="UTF-8" standalone="no"?>
<!DOCTYPE svg PUBLIC "-//W3C//DTD SVG 1.1//EN"
 "http://www.w3.org/Graphics/SVG/1.1/DTD/svg11.dtd">
<!-- Generated by graphviz version 2.40.1 (20161225.0304)
 -->
<!-- Title: src/Engine/Renderer/Light/Light.hpp Pages: 1 -->
<!--zoomable 330 -->
<svg id="main" version="1.1" xmlns="http://www.w3.org/2000/svg" xmlns:xlink="http://www.w3.org/1999/xlink" xml:space="preserve" onload="init(evt)">
<style type="text/css"><![CDATA[
.edge:hover path { stroke: red; }
.edge:hover polygon { stroke: red; fill: red; }
]]></style>
<script type="text/javascript"><![CDATA[
var edges = document.getElementsByTagName('g');
if (edges && edges.length) {
  for (var i=0;i<edges.length;i++) {
    if (edges[i].id.substr(0,4)=='edge') {
      edges[i].setAttribute('class','edge');
    }
  }
}
]]></script>
        <defs>
                <circle id="rim" cx="0" cy="0" r="7"/>
                <circle id="rim2" cx="0" cy="0" r="3.5"/>
                <g id="zoomPlus">
                        <use xlink:href="#rim" fill="#404040">
                                <set attributeName="fill" to="#808080" begin="zoomplus.mouseover" end="zoomplus.mouseout"/>
                        </use>
                        <path d="M-4,0h8M0,-4v8" fill="none" stroke="white" stroke-width="1.5" pointer-events="none"/>
                </g>
                <g id="zoomMin">
                        <use xlink:href="#rim" fill="#404040">
                                <set attributeName="fill" to="#808080" begin="zoomminus.mouseover" end="zoomminus.mouseout"/>
                        </use>
                        <path d="M-4,0h8" fill="none" stroke="white" stroke-width="1.5" pointer-events="none"/>
                </g>
                <g id="dirArrow">
                        <path fill="none" stroke="white" stroke-width="1.5" d="M0,-3.0v7 M-2.5,-0.5L0,-3.0L2.5,-0.5"/>
                </g>
               <g id="resetDef">
                       <use xlink:href="#rim2" fill="#404040">
                               <set attributeName="fill" to="#808080" begin="reset.mouseover" end="reset.mouseout"/>
                       </use>
               </g>
        </defs>

<script type="text/javascript">
var viewWidth = 1204;
var viewHeight = 330;
var sectionId = 'dynsection-0';
</script>
<script xlink:href="svgpan.js"/>
<svg id="graph" class="graph">
<g id="viewport">
<title>src/Engine/Renderer/Light/Light.hpp</title>
<polygon fill="#ffffff" stroke="transparent" points="-4,4 -4,-326 1199.5,-326 1199.5,4 -4,4"/>
<!-- Node0 -->
<g id="node1" class="node">
<title>Node0</title>
<polygon fill="#bfbfbf" stroke="#000000" points="788.5,-291.5 788.5,-321.5 901.5,-321.5 901.5,-291.5 788.5,-291.5"/>
<text text-anchor="start" x="796.5" y="-309.5" font-family="Helvetica,sans-Serif" font-size="10.00" fill="#000000">src/Engine/Renderer</text>
<text text-anchor="middle" x="845" y="-298.5" font-family="Helvetica,sans-Serif" font-size="10.00" fill="#000000">/Light/Light.hpp</text>
</g>
<!-- Node1 -->
<g id="node2" class="node">
<title>Node1</title>
<g id="a_node2"><a xlink:href="Color_8hpp.html" target="_top" xlink:title="Core/Utils/Color.hpp">
<polygon fill="#ffffff" stroke="#000000" points="310.5,-230 310.5,-249 423.5,-249 423.5,-230 310.5,-230"/>
<text text-anchor="middle" x="367" y="-237" font-family="Helvetica,sans-Serif" font-size="10.00" fill="#000000">Core/Utils/Color.hpp</text>
</a>
</g>
</g>
<!-- Node0&#45;&gt;Node1 -->
<g id="edge1" class="edge">
<title>Node0&#45;&gt;Node1</title>
<path fill="none" stroke="#191970" d="M788.29,-298.5511C699.5289,-286.1097 528.1806,-262.0923 433.6552,-248.8429"/>
<polygon fill="#191970" stroke="#191970" points="434.0252,-245.3606 423.6361,-247.4385 433.0535,-252.2928 434.0252,-245.3606"/>
</g>
<!-- Node16 -->
<g id="node17" class="node">
<title>Node16</title>
<g id="a_node17"><a xlink:href="Component_8hpp.html" target="_top" xlink:title="Engine/Component/Component.hpp">
<polygon fill="#ffffff" stroke="#000000" points="689.5,-230 689.5,-249 878.5,-249 878.5,-230 689.5,-230"/>
<text text-anchor="middle" x="784" y="-237" font-family="Helvetica,sans-Serif" font-size="10.00" fill="#000000">Engine/Component/Component.hpp</text>
</a>
</g>
</g>
<!-- Node0&#45;&gt;Node16 -->
<g id="edge18" class="edge">
<title>Node0&#45;&gt;Node16</title>
<path fill="none" stroke="#191970" d="M831.1582,-291.2967C821.7463,-280.9591 809.2817,-267.2684 799.5311,-256.5588"/>
<polygon fill="#191970" stroke="#191970" points="802.0196,-254.0931 792.6993,-249.055 796.8435,-258.8057 802.0196,-254.0931"/>
</g>
<!-- Node20 -->
<g id="node21" class="node">
<title>Node20</title>
<g id="a_node21"><a xlink:href="RaEngine_8hpp.html" target="_top" xlink:title="Engine/RaEngine.hpp">
<polygon fill="#ffffff" stroke="#000000" points="1076.5,-168.5 1076.5,-187.5 1195.5,-187.5 1195.5,-168.5 1076.5,-168.5"/>
<text text-anchor="middle" x="1136" y="-175.5" font-family="Helvetica,sans-Serif" font-size="10.00" fill="#000000">Engine/RaEngine.hpp</text>
</a>
</g>
</g>
<!-- Node0&#45;&gt;Node20 -->
<g id="edge36" class="edge">
<title>Node0&#45;&gt;Node20</title>
<path fill="none" stroke="#191970" d="M858.1787,-291.3185C877.0033,-269.9844 911.0722,-232.754 927,-224 950.7329,-210.9563 1015.2111,-197.8513 1066.3329,-188.9846"/>
<polygon fill="#191970" stroke="#191970" points="1067.0963,-192.4049 1076.3631,-187.2691 1065.9162,-185.5051 1067.0963,-192.4049"/>
</g>
<!-- Node25 -->
<g id="node26" class="node">
<title>Node25</title>
<g id="a_node26"><a xlink:href="Light_8inl.html" target="_top" xlink:title="Engine/Renderer/Light\l/Light.inl">
<polygon fill="#ffffff" stroke="#000000" points="935.5,-224.5 935.5,-254.5 1058.5,-254.5 1058.5,-224.5 935.5,-224.5"/>
<text text-anchor="start" x="943.5" y="-242.5" font-family="Helvetica,sans-Serif" font-size="10.00" fill="#000000">Engine/Renderer/Light</text>
<text text-anchor="middle" x="997" y="-231.5" font-family="Helvetica,sans-Serif" font-size="10.00" fill="#000000">/Light.inl</text>
</a>
</g>
</g>
<!-- Node0&#45;&gt;Node25 -->
<g id="edge37" class="edge">
<title>Node0&#45;&gt;Node25</title>
<path fill="none" stroke="#191970" d="M879.1118,-291.4639C901.0367,-281.7996 929.7254,-269.154 953.3119,-258.7572"/>
<polygon fill="#191970" stroke="#191970" points="955.0007,-261.8379 962.7395,-254.6017 952.1772,-255.4325 955.0007,-261.8379"/>
</g>
<!-- Node2 -->
<g id="node3" class="node">
<title>Node2</title>
<g id="a_node3"><a xlink:href="CoreMacros_8hpp.html" target="_top" xlink:title="Core/CoreMacros.hpp">
<polygon fill="#ffffff" stroke="#000000" points="487,-56.5 487,-75.5 607,-75.5 607,-56.5 487,-56.5"/>
<text text-anchor="middle" x="547" y="-63.5" font-family="Helvetica,sans-Serif" font-size="10.00" fill="#000000">Core/CoreMacros.hpp</text>
</a>
</g>
</g>
<!-- Node1&#45;&gt;Node2 -->
<g id="edge2" class="edge">
<title>Node1&#45;&gt;Node2</title>
<path fill="none" stroke="#191970" d="M347.3065,-229.9007C332.0825,-221.2754 312.1164,-207.0372 303,-188 288.4113,-157.5351 281.4412,-138.003 303,-112 324.7418,-85.7763 412.6359,-74.3994 476.7157,-69.5324"/>
<polygon fill="#191970" stroke="#191970" points="477.0598,-73.0167 486.7819,-68.8059 476.5558,-66.0349 477.0598,-73.0167"/>
</g>
<!-- Node8 -->
<g id="node9" class="node">
<title>Node8</title>
<g id="a_node9"><a xlink:href="Math_8hpp.html" target="_top" xlink:title="Core/Math/Math.hpp">
<polygon fill="#ffffff" stroke="#000000" points="122,-168.5 122,-187.5 236,-187.5 236,-168.5 122,-168.5"/>
<text text-anchor="middle" x="179" y="-175.5" font-family="Helvetica,sans-Serif" font-size="10.00" fill="#000000">Core/Math/Math.hpp</text>
</a>
</g>
</g>
<!-- Node1&#45;&gt;Node8 -->
<g id="edge8" class="edge">
<title>Node1&#45;&gt;Node8</title>
<path fill="none" stroke="#191970" d="M337.625,-229.8906C305.3414,-219.3298 253.3465,-202.3208 217.7453,-190.6747"/>
<polygon fill="#191970" stroke="#191970" points="218.7613,-187.3246 208.1687,-187.5419 216.5849,-193.9776 218.7613,-187.3246"/>
</g>
<!-- Node13 -->
<g id="node14" class="node">
<title>Node13</title>
<polygon fill="#ffffff" stroke="#bfbfbf" points="312.5,-112.5 312.5,-131.5 381.5,-131.5 381.5,-112.5 312.5,-112.5"/>
<text text-anchor="middle" x="347" y="-119.5" font-family="Helvetica,sans-Serif" font-size="10.00" fill="#000000">Eigen/Core</text>
</g>
<!-- Node1&#45;&gt;Node13 -->
<g id="edge15" class="edge">
<title>Node1&#45;&gt;Node13</title>
<path fill="none" stroke="#191970" d="M370.4473,-229.5939C374.7904,-215.6126 381.003,-189.4076 375,-168 372.2122,-158.0584 366.6188,-148.1336 361.1593,-140.0613"/>
<polygon fill="#191970" stroke="#191970" points="363.9048,-137.8849 355.2089,-131.8323 358.2324,-141.9866 363.9048,-137.8849"/>
</g>
<!-- Node14 -->
<g id="node15" class="node">
<title>Node14</title>
<polygon fill="#ffffff" stroke="#bfbfbf" points="614.5,-112.5 614.5,-131.5 709.5,-131.5 709.5,-112.5 614.5,-112.5"/>
<text text-anchor="middle" x="662" y="-119.5" font-family="Helvetica,sans-Serif" font-size="10.00" fill="#000000">Eigen/Geometry</text>
</g>
<!-- Node1&#45;&gt;Node14 -->
<g id="edge16" class="edge">
<title>Node1&#45;&gt;Node14</title>
<path fill="none" stroke="#191970" d="M423.8487,-234.4808C470.6605,-228.4954 537.6086,-215.5729 590,-188 613.0433,-175.8726 634.3488,-154.5461 647.7097,-139.4205"/>
<polygon fill="#191970" stroke="#191970" points="650.4297,-141.6253 654.2757,-131.7531 645.1128,-137.0721 650.4297,-141.6253"/>
</g>
<!-- Node15 -->
<g id="node16" class="node">
<title>Node15</title>
<polygon fill="#ffffff" stroke="#bfbfbf" points="312,-168.5 312,-187.5 366,-187.5 366,-168.5 312,-168.5"/>
<text text-anchor="middle" x="339" y="-175.5" font-family="Helvetica,sans-Serif" font-size="10.00" fill="#000000">random</text>
</g>
<!-- Node1&#45;&gt;Node15 -->
<g id="edge17" class="edge">
<title>Node1&#45;&gt;Node15</title>
<path fill="none" stroke="#191970" d="M362.625,-229.8906C358.6212,-221.0965 352.5817,-207.8312 347.6115,-196.9145"/>
<polygon fill="#191970" stroke="#191970" points="350.7657,-195.3957 343.4367,-187.7449 344.3949,-198.2963 350.7657,-195.3957"/>
</g>
<!-- Node3 -->
<g id="node4" class="node">
<title>Node3</title>
<polygon fill="#ffffff" stroke="#bfbfbf" points="383,-.5 383,-19.5 435,-19.5 435,-.5 383,-.5"/>
<text text-anchor="middle" x="409" y="-7.5" font-family="Helvetica,sans-Serif" font-size="10.00" fill="#000000">cassert</text>
</g>
<!-- Node2&#45;&gt;Node3 -->
<g id="edge3" class="edge">
<title>Node2&#45;&gt;Node3</title>
<path fill="none" stroke="#191970" d="M523.277,-56.3733C500.8263,-47.2629 466.9261,-33.5062 441.8745,-23.3404"/>
<polygon fill="#191970" stroke="#191970" points="442.9957,-20.0182 432.4135,-19.5011 440.3635,-26.5045 442.9957,-20.0182"/>
</g>
<!-- Node4 -->
<g id="node5" class="node">
<title>Node4</title>
<polygon fill="#ffffff" stroke="#bfbfbf" points="453,-.5 453,-19.5 499,-19.5 499,-.5 453,-.5"/>
<text text-anchor="middle" x="476" y="-7.5" font-family="Helvetica,sans-Serif" font-size="10.00" fill="#000000">cstdio</text>
</g>
<!-- Node2&#45;&gt;Node4 -->
<g id="edge4" class="edge">
<title>Node2&#45;&gt;Node4</title>
<path fill="none" stroke="#191970" d="M534.6327,-56.2455C524.0446,-47.8943 508.5936,-35.7076 496.2107,-25.9408"/>
<polygon fill="#191970" stroke="#191970" points="498.2447,-23.0875 488.2255,-19.6427 493.9097,-28.5837 498.2447,-23.0875"/>
</g>
<!-- Node5 -->
<g id="node6" class="node">
<title>Node5</title>
<polygon fill="#ffffff" stroke="#bfbfbf" points="517,-.5 517,-19.5 577,-19.5 577,-.5 517,-.5"/>
<text text-anchor="middle" x="547" y="-7.5" font-family="Helvetica,sans-Serif" font-size="10.00" fill="#000000">iostream</text>
</g>
<!-- Node2&#45;&gt;Node5 -->
<g id="edge5" class="edge">
<title>Node2&#45;&gt;Node5</title>
<path fill="none" stroke="#191970" d="M547,-56.2455C547,-48.9382 547,-38.6944 547,-29.7046"/>
<polygon fill="#191970" stroke="#191970" points="550.5001,-29.6426 547,-19.6427 543.5001,-29.6427 550.5001,-29.6426"/>
</g>
<!-- Node6 -->
<g id="node7" class="node">
<title>Node6</title>
<polygon fill="#ffffff" stroke="#bfbfbf" points="595,-.5 595,-19.5 651,-19.5 651,-.5 595,-.5"/>
<text text-anchor="middle" x="623" y="-7.5" font-family="Helvetica,sans-Serif" font-size="10.00" fill="#000000">sstream</text>
</g>
<!-- Node2&#45;&gt;Node6 -->
<g id="edge6" class="edge">
<title>Node2&#45;&gt;Node6</title>
<path fill="none" stroke="#191970" d="M560.2382,-56.2455C571.681,-47.814 588.4296,-35.4729 601.7475,-25.6598"/>
<polygon fill="#191970" stroke="#191970" points="603.9391,-28.3924 609.9135,-19.6427 599.7867,-22.757 603.9391,-28.3924"/>
</g>
<!-- Node7 -->
<g id="node8" class="node">
<title>Node7</title>
<polygon fill="#ffffff" stroke="#bfbfbf" points="669,-.5 669,-19.5 717,-19.5 717,-.5 669,-.5"/>
<text text-anchor="middle" x="693" y="-7.5" font-family="Helvetica,sans-Serif" font-size="10.00" fill="#000000">thread</text>
</g>
<!-- Node2&#45;&gt;Node7 -->
<g id="edge7" class="edge">
<title>Node2&#45;&gt;Node7</title>
<path fill="none" stroke="#191970" d="M572.0983,-56.3733C596.1001,-47.1671 632.4713,-33.2165 659.0524,-23.021"/>
<polygon fill="#191970" stroke="#191970" points="660.631,-26.1642 668.7144,-19.315 658.1242,-19.6285 660.631,-26.1642"/>
</g>
<!-- Node9 -->
<g id="node10" class="node">
<title>Node9</title>
<g id="a_node10"><a xlink:href="RaCore_8hpp.html" target="_top" xlink:title="Core/RaCore.hpp">
<polygon fill="#ffffff" stroke="#000000" points="498,-112.5 498,-131.5 596,-131.5 596,-112.5 498,-112.5"/>
<text text-anchor="middle" x="547" y="-119.5" font-family="Helvetica,sans-Serif" font-size="10.00" fill="#000000">Core/RaCore.hpp</text>
</a>
</g>
</g>
<!-- Node8&#45;&gt;Node9 -->
<g id="edge9" class="edge">
<title>Node8&#45;&gt;Node9</title>
<path fill="none" stroke="#191970" d="M236.1974,-169.922C296.323,-161.3381 393.9394,-147.1418 487.9952,-132.1335"/>
<polygon fill="#191970" stroke="#191970" points="488.6448,-135.5742 497.9657,-130.5372 487.5382,-128.6622 488.6448,-135.5742"/>
</g>
<!-- Node10 -->
<g id="node11" class="node">
<title>Node10</title>
<polygon fill="#ffffff" stroke="#bfbfbf" points="126,-112.5 126,-131.5 190,-131.5 190,-112.5 126,-112.5"/>
<text text-anchor="middle" x="158" y="-119.5" font-family="Helvetica,sans-Serif" font-size="10.00" fill="#000000">algorithm</text>
</g>
<!-- Node8&#45;&gt;Node10 -->
<g id="edge11" class="edge">
<title>Node8&#45;&gt;Node10</title>
<path fill="none" stroke="#191970" d="M175.3421,-168.2455C172.5416,-160.7776 168.591,-150.2427 165.1676,-141.1137"/>
<polygon fill="#191970" stroke="#191970" points="168.4045,-139.777 161.616,-131.6427 161.8501,-142.2349 168.4045,-139.777"/>
</g>
<!-- Node11 -->
<g id="node12" class="node">
<title>Node11</title>
<polygon fill="#ffffff" stroke="#bfbfbf" points="208.5,-112.5 208.5,-131.5 255.5,-131.5 255.5,-112.5 208.5,-112.5"/>
<text text-anchor="middle" x="232" y="-119.5" font-family="Helvetica,sans-Serif" font-size="10.00" fill="#000000">cmath</text>
</g>
<!-- Node8&#45;&gt;Node11 -->
<g id="edge12" class="edge">
<title>Node8&#45;&gt;Node11</title>
<path fill="none" stroke="#191970" d="M188.2319,-168.2455C195.8317,-160.2155 206.7877,-148.6394 215.8368,-139.0781"/>
<polygon fill="#191970" stroke="#191970" points="218.5421,-141.3115 222.8739,-131.6427 213.458,-136.4998 218.5421,-141.3115"/>
</g>
<!-- Node12 -->
<g id="node13" class="node">
<title>Node12</title>
<g id="a_node13"><a xlink:href="Math_8inl.html" target="_top" xlink:title="Core/Math/Math.inl">
<polygon fill="#ffffff" stroke="#000000" points="0,-112.5 0,-131.5 108,-131.5 108,-112.5 0,-112.5"/>
<text text-anchor="middle" x="54" y="-119.5" font-family="Helvetica,sans-Serif" font-size="10.00" fill="#000000">Core/Math/Math.inl</text>
</a>
</g>
</g>
<!-- Node8&#45;&gt;Node12 -->
<g id="edge13" class="edge">
<title>Node8&#45;&gt;Node12</title>
<path fill="none" stroke="#191970" d="M152.2697,-168.3733C130.5432,-159.4241 100.3339,-145.9917 79.069,-135.8835"/>
<polygon fill="#191970" stroke="#191970" points="80.5178,-132.6965 69.9906,-131.5011 77.4747,-139.0004 80.5178,-132.6965"/>
</g>
<!-- Node9&#45;&gt;Node2 -->
<g id="edge10" class="edge">
<title>Node9&#45;&gt;Node2</title>
<path fill="none" stroke="#191970" d="M547,-112.2455C547,-104.9382 547,-94.6944 547,-85.7046"/>
<polygon fill="#191970" stroke="#191970" points="550.5001,-85.6426 547,-75.6427 543.5001,-85.6427 550.5001,-85.6426"/>
</g>
<!-- Node12&#45;&gt;Node8 -->
<g id="edge14" class="edge">
<title>Node12&#45;&gt;Node8</title>
<path fill="none" stroke="#191970" d="M80.4252,-131.5011C102.0717,-140.408 132.2828,-153.8348 153.6312,-163.9741"/>
<polygon fill="#191970" stroke="#191970" points="152.2261,-167.1821 162.7538,-168.3733 155.2667,-160.877 152.2261,-167.1821"/>
</g>
<!-- Node16&#45;&gt;Node13 -->
<g id="edge24" class="edge">
<title>Node16&#45;&gt;Node13</title>
<path fill="none" stroke="#191970" d="M689.4933,-230.5599C628.8557,-223.0949 549.0264,-210.0166 481,-188 441.0072,-175.0564 397.937,-152.0436 371.7201,-136.9021"/>
<polygon fill="#191970" stroke="#191970" points="373.2585,-133.747 362.8607,-131.713 369.7206,-139.7872 373.2585,-133.747"/>
</g>
<!-- Node16&#45;&gt;Node14 -->
<g id="edge25" class="edge">
<title>Node16&#45;&gt;Node14</title>
<path fill="none" stroke="#191970" d="M733.6479,-229.9269C709.4994,-222.6239 682.5128,-209.9198 667,-188 657.5717,-174.6777 657.0662,-155.8224 658.4847,-141.6744"/>
<polygon fill="#191970" stroke="#191970" points="661.9841,-141.9208 659.9011,-131.5328 655.0514,-140.9525 661.9841,-141.9208"/>
</g>
<!-- Node17 -->
<g id="node18" class="node">
<title>Node17</title>
<g id="a_node18"><a xlink:href="Index_8hpp.html" target="_top" xlink:title="Core/Utils/Index.hpp">
<polygon fill="#ffffff" stroke="#000000" points="676,-168.5 676,-187.5 792,-187.5 792,-168.5 676,-168.5"/>
<text text-anchor="middle" x="734" y="-175.5" font-family="Helvetica,sans-Serif" font-size="10.00" fill="#000000">Core/Utils/Index.hpp</text>
</a>
</g>
</g>
<!-- Node16&#45;&gt;Node17 -->
<g id="edge19" class="edge">
<title>Node16&#45;&gt;Node17</title>
<path fill="none" stroke="#191970" d="M776.1875,-229.8906C768.746,-220.7376 757.3666,-206.7409 748.3008,-195.59"/>
<polygon fill="#191970" stroke="#191970" points="750.9467,-193.2962 741.9226,-187.7449 745.5153,-197.712 750.9467,-193.2962"/>
</g>
<!-- Node16&#45;&gt;Node20 -->
<g id="edge26" class="edge">
<title>Node16&#45;&gt;Node20</title>
<path fill="none" stroke="#191970" d="M838.6138,-229.9581C901.5231,-218.9668 1004.7745,-200.9272 1071.561,-189.2585"/>
<polygon fill="#191970" stroke="#191970" points="1072.2993,-192.6826 1081.5477,-187.5137 1071.0945,-185.7871 1072.2993,-192.6826"/>
</g>
<!-- Node21 -->
<g id="node22" class="node">
<title>Node21</title>
<polygon fill="#ffffff" stroke="#bfbfbf" points="810.5,-168.5 810.5,-187.5 857.5,-187.5 857.5,-168.5 810.5,-168.5"/>
<text text-anchor="middle" x="834" y="-175.5" font-family="Helvetica,sans-Serif" font-size="10.00" fill="#000000">vector</text>
</g>
<!-- Node16&#45;&gt;Node21 -->
<g id="edge28" class="edge">
<title>Node16&#45;&gt;Node21</title>
<path fill="none" stroke="#191970" d="M791.8125,-229.8906C799.254,-220.7376 810.6334,-206.7409 819.6992,-195.59"/>
<polygon fill="#191970" stroke="#191970" points="822.4847,-197.712 826.0774,-187.7449 817.0533,-193.2962 822.4847,-197.712"/>
</g>
<!-- Node22 -->
<g id="node23" class="node">
<title>Node22</title>
<g id="a_node23"><a xlink:href="Types_8hpp.html" target="_top" xlink:title="Core/Types.hpp">
<polygon fill="#ffffff" stroke="#000000" points="490.5,-168.5 490.5,-187.5 581.5,-187.5 581.5,-168.5 490.5,-168.5"/>
<text text-anchor="middle" x="536" y="-175.5" font-family="Helvetica,sans-Serif" font-size="10.00" fill="#000000">Core/Types.hpp</text>
</a>
</g>
</g>
<!-- Node16&#45;&gt;Node22 -->
<g id="edge29" class="edge">
<title>Node16&#45;&gt;Node22</title>
<path fill="none" stroke="#191970" d="M745.5221,-229.9581C702.1731,-219.2082 631.6361,-201.7162 584.5373,-190.0365"/>
<polygon fill="#191970" stroke="#191970" points="585.1166,-186.5742 574.5682,-187.5643 583.4317,-193.3684 585.1166,-186.5742"/>
</g>
<!-- Node24 -->
<g id="node25" class="node">
<title>Node24</title>
<g id="a_node25"><a xlink:href="Component_8inl.html" target="_top" xlink:title="Engine/Component/Component.inl">
<polygon fill="#ffffff" stroke="#000000" points="875.5,-168.5 875.5,-187.5 1058.5,-187.5 1058.5,-168.5 875.5,-168.5"/>
<text text-anchor="middle" x="967" y="-175.5" font-family="Helvetica,sans-Serif" font-size="10.00" fill="#000000">Engine/Component/Component.inl</text>
</a>
</g>
</g>
<!-- Node16&#45;&gt;Node24 -->
<g id="edge34" class="edge">
<title>Node16&#45;&gt;Node24</title>
<path fill="none" stroke="#191970" d="M807.5313,-229.8906C836.8956,-219.3298 887.3343,-202.3208 923.7024,-190.6747"/>
<polygon fill="#191970" stroke="#191970" points="925.088,-193.9069 933.5577,-187.5419 922.9673,-187.2358 925.088,-193.9069"/>
</g>
<!-- Node17&#45;&gt;Node9 -->
<g id="edge20" class="edge">
<title>Node17&#45;&gt;Node9</title>
<path fill="none" stroke="#191970" d="M701.8536,-168.3733C670.4891,-158.9807 622.6335,-144.6496 588.4284,-134.4064"/>
<polygon fill="#191970" stroke="#191970" points="589.3107,-131.0171 578.727,-131.5011 587.3025,-137.7229 589.3107,-131.0171"/>
</g>
<!-- Node18 -->
<g id="node19" class="node">
<title>Node18</title>
<polygon fill="#ffffff" stroke="#bfbfbf" points="856,-112.5 856,-131.5 900,-131.5 900,-112.5 856,-112.5"/>
<text text-anchor="middle" x="878" y="-119.5" font-family="Helvetica,sans-Serif" font-size="10.00" fill="#000000">limits</text>
</g>
<!-- Node17&#45;&gt;Node18 -->
<g id="edge21" class="edge">
<title>Node17&#45;&gt;Node18</title>
<path fill="none" stroke="#191970" d="M758.7545,-168.3733C782.9979,-158.9453 820.0363,-144.5414 846.3955,-134.2906"/>
<polygon fill="#191970" stroke="#191970" points="847.8747,-137.4708 855.9261,-130.5843 845.3375,-130.9468 847.8747,-137.4708"/>
</g>
<!-- Node19 -->
<g id="node20" class="node">
<title>Node19</title>
<g id="a_node20"><a xlink:href="Index_8inl.html" target="_top" xlink:title="Core/Utils/Index.inl">
<polygon fill="#ffffff" stroke="#000000" points="728,-112.5 728,-131.5 838,-131.5 838,-112.5 728,-112.5"/>
<text text-anchor="middle" x="783" y="-119.5" font-family="Helvetica,sans-Serif" font-size="10.00" fill="#000000">Core/Utils/Index.inl</text>
</a>
</g>
</g>
<!-- Node17&#45;&gt;Node19 -->
<g id="edge22" class="edge">
<title>Node17&#45;&gt;Node19</title>
<path fill="none" stroke="#191970" d="M737.2683,-168.2455C742.7987,-160.1352 752.7346,-148.4075 762.0627,-138.7919"/>
<polygon fill="#191970" stroke="#191970" points="764.6515,-141.1547 769.3175,-131.6427 759.7381,-136.1688 764.6515,-141.1547"/>
</g>
<!-- Node19&#45;&gt;Node17 -->
<g id="edge23" class="edge">
<title>Node19&#45;&gt;Node17</title>
<path fill="none" stroke="#191970" d="M779.8078,-131.6427C774.318,-139.7196 764.3997,-151.4402 755.0662,-161.0751"/>
<polygon fill="#191970" stroke="#191970" points="752.4601,-158.7296 747.802,-168.2455 757.3776,-163.7114 752.4601,-158.7296"/>
</g>
<!-- Node20&#45;&gt;Node2 -->
<g id="edge27" class="edge">
<title>Node20&#45;&gt;Node2</title>
<path fill="none" stroke="#191970" d="M1108.3965,-168.4495C1066.0153,-154.1354 982.1368,-127.1816 909,-112 808.5818,-91.1554 690.4067,-78.2788 617.0883,-71.6284"/>
<polygon fill="#191970" stroke="#191970" points="617.3188,-68.1351 607.047,-70.7311 616.6957,-75.1073 617.3188,-68.1351"/>
</g>
<!-- Node22&#45;&gt;Node9 -->
<g id="edge30" class="edge">
<title>Node22&#45;&gt;Node9</title>
<path fill="none" stroke="#191970" d="M537.9161,-168.2455C539.3514,-160.9382 541.3636,-150.6944 543.1295,-141.7046"/>
<polygon fill="#191970" stroke="#191970" points="546.6127,-142.1298 545.1059,-131.6427 539.744,-140.7805 546.6127,-142.1298"/>
</g>
<!-- Node22&#45;&gt;Node13 -->
<g id="edge31" class="edge">
<title>Node22&#45;&gt;Node13</title>
<path fill="none" stroke="#191970" d="M503.5097,-168.3733C471.8098,-158.9807 423.4424,-144.6496 388.8714,-134.4064"/>
<polygon fill="#191970" stroke="#191970" points="389.6486,-130.9863 379.0663,-131.5011 387.6599,-137.6979 389.6486,-130.9863"/>
</g>
<!-- Node22&#45;&gt;Node14 -->
<g id="edge32" class="edge">
<title>Node22&#45;&gt;Node14</title>
<path fill="none" stroke="#191970" d="M557.6602,-168.3733C577.9772,-159.3435 608.564,-145.7494 631.375,-135.6111"/>
<polygon fill="#191970" stroke="#191970" points="632.9059,-138.7609 640.6225,-131.5011 630.0628,-132.3642 632.9059,-138.7609"/>
</g>
<!-- Node23 -->
<g id="node24" class="node">
<title>Node23</title>
<polygon fill="#ffffff" stroke="#bfbfbf" points="400,-112.5 400,-131.5 480,-131.5 480,-112.5 400,-112.5"/>
<text text-anchor="middle" x="440" y="-119.5" font-family="Helvetica,sans-Serif" font-size="10.00" fill="#000000">Eigen/Sparse</text>
</g>
<!-- Node22&#45;&gt;Node23 -->
<g id="edge33" class="edge">
<title>Node22&#45;&gt;Node23</title>
<path fill="none" stroke="#191970" d="M519.2781,-168.2455C504.4111,-159.5731 482.4534,-146.7645 465.4142,-136.825"/>
<polygon fill="#191970" stroke="#191970" points="466.9317,-133.6582 456.5303,-131.6427 463.4045,-139.7047 466.9317,-133.6582"/>
</g>
<!-- Node24&#45;&gt;Node16 -->
<g id="edge35" class="edge">
<title>Node24&#45;&gt;Node16</title>
<path fill="none" stroke="#191970" d="M943.6563,-187.5419C914.382,-198.0752 863.9585,-215.0818 827.5305,-226.7507"/>
<polygon fill="#191970" stroke="#191970" points="826.1254,-223.5248 817.6563,-229.8906 828.2467,-230.1956 826.1254,-223.5248"/>
</g>
</g>
</svg>
        <g id="navigator" transform="translate(0 0)" fill="#404254">
                <rect fill="#f2f5e9" fill-opacity="0.5" stroke="#606060" stroke-width=".5" x="0" y="0" width="60" height="60"/>
                <use id="zoomplus" xlink:href="#zoomPlus" x="17" y="9" onmousedown="handleZoom(evt,'in')"/>
                <use id="zoomminus" xlink:href="#zoomMin" x="42" y="9" onmousedown="handleZoom(evt,'out')"/>
                <use id="reset" xlink:href="#resetDef" x="30" y="36" onmousedown="handleReset()"/>
                <g id="arrowUp" xlink:href="#dirArrow" transform="translate(30 24)" onmousedown="handlePan(0,-1)">
                  <use xlink:href="#rim" fill="#404040">
                        <set attributeName="fill" to="#808080" begin="arrowUp.mouseover" end="arrowUp.mouseout"/>
                  </use>
                  <path fill="none" stroke="white" stroke-width="1.5" d="M0,-3.0v7 M-2.5,-0.5L0,-3.0L2.5,-0.5"/>
                </g>
                <g id="arrowRight" xlink:href="#dirArrow" transform="rotate(90) translate(36 -43)" onmousedown="handlePan(1,0)">
                  <use xlink:href="#rim" fill="#404040">
                        <set attributeName="fill" to="#808080" begin="arrowRight.mouseover" end="arrowRight.mouseout"/>
                  </use>
                  <path fill="none" stroke="white" stroke-width="1.5" d="M0,-3.0v7 M-2.5,-0.5L0,-3.0L2.5,-0.5"/>
                </g>
                <g id="arrowDown" xlink:href="#dirArrow" transform="rotate(180) translate(-30 -48)" onmousedown="handlePan(0,1)">
                  <use xlink:href="#rim" fill="#404040">
                        <set attributeName="fill" to="#808080" begin="arrowDown.mouseover" end="arrowDown.mouseout"/>
                  </use>
                  <path fill="none" stroke="white" stroke-width="1.5" d="M0,-3.0v7 M-2.5,-0.5L0,-3.0L2.5,-0.5"/>
                </g>
                <g id="arrowLeft" xlink:href="#dirArrow" transform="rotate(270) translate(-36 17)" onmousedown="handlePan(-1,0)">
                  <use xlink:href="#rim" fill="#404040">
                        <set attributeName="fill" to="#808080" begin="arrowLeft.mouseover" end="arrowLeft.mouseout"/>
                  </use>
                  <path fill="none" stroke="white" stroke-width="1.5" d="M0,-3.0v7 M-2.5,-0.5L0,-3.0L2.5,-0.5"/>
                </g>
        </g>
        <svg viewBox="0 0 15 15" width="100%" height="30px" preserveAspectRatio="xMaxYMin meet">
         <g id="arrow_out" transform="scale(0.3 0.3)">
          <a xlink:href="Light_8hpp__incl_org.svg" target="_base">
           <rect id="button" ry="5" rx="5" y="6" x="6" height="38" width="38"
                fill="#f2f5e9" fill-opacity="0.5" stroke="#606060" stroke-width="1.0"/>
           <path id="arrow"
             d="M 11.500037,31.436501 C 11.940474,20.09759 22.043105,11.32322 32.158766,21.979434 L 37.068811,17.246167 C 37.068811,17.246167 37.088388,32 37.088388,32 L 22.160133,31.978069 C 22.160133,31.978069 26.997745,27.140456 26.997745,27.140456 C 18.528582,18.264221 13.291696,25.230495 11.500037,31.436501 z"
             style="fill:#404040;"/>
          </a>
         </g>
        </svg>
</svg>
