<?xml version="1.0" encoding="UTF-8" standalone="no"?>
<!DOCTYPE svg PUBLIC "-//W3C//DTD SVG 1.1//EN"
 "http://www.w3.org/Graphics/SVG/1.1/DTD/svg11.dtd">
<!-- Generated by graphviz version 2.40.1 (20161225.0304)
 -->
<!-- Title: src/Core/Containers/MakeShared.hpp Pages: 1 -->
<!--zoomable 117 -->
<svg id="main" version="1.1" xmlns="http://www.w3.org/2000/svg" xmlns:xlink="http://www.w3.org/1999/xlink" xml:space="preserve" onload="init(evt)">
<style type="text/css"><![CDATA[
.edge:hover path { stroke: red; }
.edge:hover polygon { stroke: red; fill: red; }
]]></style>
<script type="text/javascript"><![CDATA[
var edges = document.getElementsByTagName('g');
if (edges && edges.length) {
  for (var i=0;i<edges.length;i++) {
    if (edges[i].id.substr(0,4)=='edge') {
      edges[i].setAttribute('class','edge');
    }
  }
}
]]></script>
        <defs>
                <circle id="rim" cx="0" cy="0" r="7"/>
                <circle id="rim2" cx="0" cy="0" r="3.5"/>
                <g id="zoomPlus">
                        <use xlink:href="#rim" fill="#404040">
                                <set attributeName="fill" to="#808080" begin="zoomplus.mouseover" end="zoomplus.mouseout"/>
                        </use>
                        <path d="M-4,0h8M0,-4v8" fill="none" stroke="white" stroke-width="1.5" pointer-events="none"/>
                </g>
                <g id="zoomMin">
                        <use xlink:href="#rim" fill="#404040">
                                <set attributeName="fill" to="#808080" begin="zoomminus.mouseover" end="zoomminus.mouseout"/>
                        </use>
                        <path d="M-4,0h8" fill="none" stroke="white" stroke-width="1.5" pointer-events="none"/>
                </g>
                <g id="dirArrow">
                        <path fill="none" stroke="white" stroke-width="1.5" d="M0,-3.0v7 M-2.5,-0.5L0,-3.0L2.5,-0.5"/>
                </g>
               <g id="resetDef">
                       <use xlink:href="#rim2" fill="#404040">
                               <set attributeName="fill" to="#808080" begin="reset.mouseover" end="reset.mouseout"/>
                       </use>
               </g>
        </defs>

<script type="text/javascript">
var viewWidth = 1459;
var viewHeight = 117;
var sectionId = 'dynsection-1';
</script>
<script xlink:href="svgpan.js"/>
<svg id="graph" class="graph">
<g id="viewport">
<title>src/Core/Containers/MakeShared.hpp</title>
<polygon fill="#ffffff" stroke="transparent" points="-4,4 -4,-113 1455,-113 1455,4 -4,4"/>
<!-- Node2 -->
<g id="node1" class="node">
<title>Node2</title>
<polygon fill="#bfbfbf" stroke="#000000" points="678.5,-78.5 678.5,-108.5 790.5,-108.5 790.5,-78.5 678.5,-78.5"/>
<text text-anchor="start" x="686.5" y="-96.5" font-family="Helvetica,sans-Serif" font-size="10.00" fill="#000000">src/Core/Containers</text>
<text text-anchor="middle" x="734.5" y="-85.5" font-family="Helvetica,sans-Serif" font-size="10.00" fill="#000000">/MakeShared.hpp</text>
</g>
<!-- Node3 -->
<g id="node2" class="node">
<title>Node3</title>
<g id="a_node2"><a xlink:href="GeometryComponent_8cpp.html" target="_top" xlink:title="src/Engine/Component\l/GeometryComponent.cpp">
<polygon fill="#ffffff" stroke="#000000" points="0,-6 0,-36 145,-36 145,-6 0,-6"/>
<text text-anchor="start" x="8" y="-24" font-family="Helvetica,sans-Serif" font-size="10.00" fill="#000000">src/Engine/Component</text>
<text text-anchor="middle" x="72.5" y="-13" font-family="Helvetica,sans-Serif" font-size="10.00" fill="#000000">/GeometryComponent.cpp</text>
</a>
</g>
</g>
<!-- Node2&#45;&gt;Node3 -->
<g id="edge1" class="edge">
<title>Node2&#45;&gt;Node3</title>
<path fill="none" stroke="#191970" d="M668.2977,-91.1916C559.9683,-86.6195 338.3768,-73.9336 153.5,-42 144.3381,-40.4175 134.6947,-38.3137 125.3831,-36.0482"/>
<polygon fill="#191970" stroke="#191970" points="668.2868,-94.6941 678.4226,-91.6091 668.5753,-87.7 668.2868,-94.6941"/>
</g>
<!-- Node4 -->
<g id="node3" class="node">
<title>Node4</title>
<g id="a_node3"><a xlink:href="Camera_8cpp.html" target="_top" xlink:title="src/Engine/Renderer\l/Camera/Camera.cpp">
<polygon fill="#ffffff" stroke="#000000" points="163,-6 163,-36 282,-36 282,-6 163,-6"/>
<text text-anchor="start" x="171" y="-24" font-family="Helvetica,sans-Serif" font-size="10.00" fill="#000000">src/Engine/Renderer</text>
<text text-anchor="middle" x="222.5" y="-13" font-family="Helvetica,sans-Serif" font-size="10.00" fill="#000000">/Camera/Camera.cpp</text>
</a>
</g>
</g>
<!-- Node2&#45;&gt;Node4 -->
<g id="edge2" class="edge">
<title>Node2&#45;&gt;Node4</title>
<path fill="none" stroke="#191970" d="M668.3777,-89.535C581.2723,-83.4661 423.65,-69.5577 291.5,-42 283.7775,-40.3896 275.6771,-38.3 267.8525,-36.0646"/>
<polygon fill="#191970" stroke="#191970" points="668.1712,-93.029 678.3867,-90.2194 668.6488,-86.0453 668.1712,-93.029"/>
</g>
<!-- Node5 -->
<g id="node4" class="node">
<title>Node5</title>
<g id="a_node4"><a xlink:href="DebugRender_8cpp.html" target="_top" xlink:title="src/Engine/Renderer\l/Renderers/DebugRender.cpp">
<polygon fill="#ffffff" stroke="#000000" points="300.5,-6 300.5,-36 456.5,-36 456.5,-6 300.5,-6"/>
<text text-anchor="start" x="308.5" y="-24" font-family="Helvetica,sans-Serif" font-size="10.00" fill="#000000">src/Engine/Renderer</text>
<text text-anchor="middle" x="378.5" y="-13" font-family="Helvetica,sans-Serif" font-size="10.00" fill="#000000">/Renderers/DebugRender.cpp</text>
</a>
</g>
</g>
<!-- Node2&#45;&gt;Node5 -->
<g id="edge3" class="edge">
<title>Node2&#45;&gt;Node5</title>
<path fill="none" stroke="#191970" d="M668.5521,-81.781C613.9854,-71.867 534.5185,-56.9277 465.5,-42 456.9954,-40.1606 448.0485,-38.121 439.2597,-36.0569"/>
<polygon fill="#191970" stroke="#191970" points="667.9793,-85.2341 678.443,-83.5725 669.2269,-78.3462 667.9793,-85.2341"/>
</g>
<!-- Node6 -->
<g id="node5" class="node">
<title>Node6</title>
<g id="a_node5"><a xlink:href="ForwardRenderer_8cpp.html" target="_top" xlink:title="src/Engine/Renderer\l/Renderers/ForwardRenderer.cpp">
<polygon fill="#ffffff" stroke="#000000" points="475,-6 475,-36 648,-36 648,-6 475,-6"/>
<text text-anchor="start" x="483" y="-24" font-family="Helvetica,sans-Serif" font-size="10.00" fill="#000000">src/Engine/Renderer</text>
<text text-anchor="middle" x="561.5" y="-13" font-family="Helvetica,sans-Serif" font-size="10.00" fill="#000000">/Renderers/ForwardRenderer.cpp</text>
</a>
</g>
</g>
<!-- Node2&#45;&gt;Node6 -->
<g id="edge4" class="edge">
<title>Node2&#45;&gt;Node6</title>
<path fill="none" stroke="#191970" d="M689.2531,-74.5382C660.5619,-62.5144 623.964,-47.1771 597.2998,-36.0028"/>
<polygon fill="#191970" stroke="#191970" points="688.0786,-77.8408 698.6543,-78.478 690.7842,-71.3848 688.0786,-77.8408"/>
</g>
<!-- Node7 -->
<g id="node6" class="node">
<title>Node7</title>
<g id="a_node6"><a xlink:href="DrawPrimitives_8cpp.html" target="_top" xlink:title="src/Engine/Renderer\l/RenderObject/Primitives\l/DrawPrimitives.cpp">
<polygon fill="#ffffff" stroke="#000000" points="666,-.5 666,-41.5 803,-41.5 803,-.5 666,-.5"/>
<text text-anchor="start" x="674" y="-29.5" font-family="Helvetica,sans-Serif" font-size="10.00" fill="#000000">src/Engine/Renderer</text>
<text text-anchor="start" x="674" y="-18.5" font-family="Helvetica,sans-Serif" font-size="10.00" fill="#000000">/RenderObject/Primitives</text>
<text text-anchor="middle" x="734.5" y="-7.5" font-family="Helvetica,sans-Serif" font-size="10.00" fill="#000000">/DrawPrimitives.cpp</text>
</a>
</g>
</g>
<!-- Node2&#45;&gt;Node7 -->
<g id="edge5" class="edge">
<title>Node2&#45;&gt;Node7</title>
<path fill="none" stroke="#191970" d="M734.5,-68.4016C734.5,-59.6173 734.5,-49.8652 734.5,-41.5015"/>
<polygon fill="#191970" stroke="#191970" points="731.0001,-68.4779 734.5,-78.478 738.0001,-68.478 731.0001,-68.4779"/>
</g>
<!-- Node8 -->
<g id="node7" class="node">
<title>Node8</title>
<g id="a_node7"><a xlink:href="RenderObject_8cpp.html" target="_top" xlink:title="src/Engine/Renderer\l/RenderObject/RenderObject.cpp">
<polygon fill="#ffffff" stroke="#000000" points="821,-6 821,-36 994,-36 994,-6 821,-6"/>
<text text-anchor="start" x="829" y="-24" font-family="Helvetica,sans-Serif" font-size="10.00" fill="#000000">src/Engine/Renderer</text>
<text text-anchor="middle" x="907.5" y="-13" font-family="Helvetica,sans-Serif" font-size="10.00" fill="#000000">/RenderObject/RenderObject.cpp</text>
</a>
</g>
</g>
<!-- Node2&#45;&gt;Node8 -->
<g id="edge6" class="edge">
<title>Node2&#45;&gt;Node8</title>
<path fill="none" stroke="#191970" d="M779.7469,-74.5382C808.4381,-62.5144 845.036,-47.1771 871.7002,-36.0028"/>
<polygon fill="#191970" stroke="#191970" points="778.2158,-71.3848 770.3457,-78.478 780.9214,-77.8408 778.2158,-71.3848"/>
</g>
<!-- Node9 -->
<g id="node8" class="node">
<title>Node9</title>
<g id="a_node8"><a xlink:href="ShaderProgramManager_8cpp.html" target="_top" xlink:title="src/Engine/Renderer\l/RenderTechnique/ShaderProgram\lManager.cpp">
<polygon fill="#ffffff" stroke="#000000" points="1012.5,-.5 1012.5,-41.5 1192.5,-41.5 1192.5,-.5 1012.5,-.5"/>
<text text-anchor="start" x="1020.5" y="-29.5" font-family="Helvetica,sans-Serif" font-size="10.00" fill="#000000">src/Engine/Renderer</text>
<text text-anchor="start" x="1020.5" y="-18.5" font-family="Helvetica,sans-Serif" font-size="10.00" fill="#000000">/RenderTechnique/ShaderProgram</text>
<text text-anchor="middle" x="1102.5" y="-7.5" font-family="Helvetica,sans-Serif" font-size="10.00" fill="#000000">Manager.cpp</text>
</a>
</g>
</g>
<!-- Node2&#45;&gt;Node9 -->
<g id="edge7" class="edge">
<title>Node2&#45;&gt;Node9</title>
<path fill="none" stroke="#191970" d="M800.6009,-81.2237C855.0976,-71.0116 934.3902,-55.9439 1003.5,-42 1006.4279,-41.4093 1009.4035,-40.8044 1012.4075,-40.1898"/>
<polygon fill="#191970" stroke="#191970" points="799.9072,-77.7927 790.7218,-83.0727 801.195,-84.6732 799.9072,-77.7927"/>
</g>
<!-- Node10 -->
<g id="node9" class="node">
<title>Node10</title>
<g id="a_node9"><a xlink:href="Gizmo_8cpp.html" target="_top" xlink:title="src/GuiBase/Viewer\l/Gizmo/Gizmo.cpp">
<polygon fill="#ffffff" stroke="#000000" points="1211,-6 1211,-36 1322,-36 1322,-6 1211,-6"/>
<text text-anchor="start" x="1219" y="-24" font-family="Helvetica,sans-Serif" font-size="10.00" fill="#000000">src/GuiBase/Viewer</text>
<text text-anchor="middle" x="1266.5" y="-13" font-family="Helvetica,sans-Serif" font-size="10.00" fill="#000000">/Gizmo/Gizmo.cpp</text>
</a>
</g>
</g>
<!-- Node2&#45;&gt;Node10 -->
<g id="edge8" class="edge">
<title>Node2&#45;&gt;Node10</title>
<path fill="none" stroke="#191970" d="M800.99,-90.4106C892.1786,-85.2145 1060.7706,-72.1666 1201.5,-42 1208.9212,-40.4092 1216.6943,-38.3013 1224.1795,-36.0343"/>
<polygon fill="#191970" stroke="#191970" points="800.5882,-86.9275 790.7978,-90.977 800.9767,-93.9167 800.5882,-86.9275"/>
</g>
<!-- Node11 -->
<g id="node10" class="node">
<title>Node11</title>
<g id="a_node10"><a xlink:href="Viewer_8cpp.html" target="_top" xlink:title="src/GuiBase/Viewer\l/Viewer.cpp">
<polygon fill="#ffffff" stroke="#000000" points="1340,-6 1340,-36 1451,-36 1451,-6 1340,-6"/>
<text text-anchor="start" x="1348" y="-24" font-family="Helvetica,sans-Serif" font-size="10.00" fill="#000000">src/GuiBase/Viewer</text>
<text text-anchor="middle" x="1395.5" y="-13" font-family="Helvetica,sans-Serif" font-size="10.00" fill="#000000">/Viewer.cpp</text>
</a>
</g>
</g>
<!-- Node2&#45;&gt;Node11 -->
<g id="edge9" class="edge">
<title>Node2&#45;&gt;Node11</title>
<path fill="none" stroke="#191970" d="M800.763,-89.7196C934.3032,-81.783 1231.5422,-62.4242 1331.5,-42 1338.9472,-40.4783 1346.7386,-38.3755 1354.2193,-36.0848"/>
<polygon fill="#191970" stroke="#191970" points="800.4418,-86.2324 790.6657,-90.3164 800.8549,-93.2202 800.4418,-86.2324"/>
</g>
</g>
</svg>
        <g id="navigator" transform="translate(0 0)" fill="#404254">
                <rect fill="#f2f5e9" fill-opacity="0.5" stroke="#606060" stroke-width=".5" x="0" y="0" width="60" height="60"/>
                <use id="zoomplus" xlink:href="#zoomPlus" x="17" y="9" onmousedown="handleZoom(evt,'in')"/>
                <use id="zoomminus" xlink:href="#zoomMin" x="42" y="9" onmousedown="handleZoom(evt,'out')"/>
                <use id="reset" xlink:href="#resetDef" x="30" y="36" onmousedown="handleReset()"/>
                <g id="arrowUp" xlink:href="#dirArrow" transform="translate(30 24)" onmousedown="handlePan(0,-1)">
                  <use xlink:href="#rim" fill="#404040">
                        <set attributeName="fill" to="#808080" begin="arrowUp.mouseover" end="arrowUp.mouseout"/>
                  </use>
                  <path fill="none" stroke="white" stroke-width="1.5" d="M0,-3.0v7 M-2.5,-0.5L0,-3.0L2.5,-0.5"/>
                </g>
                <g id="arrowRight" xlink:href="#dirArrow" transform="rotate(90) translate(36 -43)" onmousedown="handlePan(1,0)">
                  <use xlink:href="#rim" fill="#404040">
                        <set attributeName="fill" to="#808080" begin="arrowRight.mouseover" end="arrowRight.mouseout"/>
                  </use>
                  <path fill="none" stroke="white" stroke-width="1.5" d="M0,-3.0v7 M-2.5,-0.5L0,-3.0L2.5,-0.5"/>
                </g>
                <g id="arrowDown" xlink:href="#dirArrow" transform="rotate(180) translate(-30 -48)" onmousedown="handlePan(0,1)">
                  <use xlink:href="#rim" fill="#404040">
                        <set attributeName="fill" to="#808080" begin="arrowDown.mouseover" end="arrowDown.mouseout"/>
                  </use>
                  <path fill="none" stroke="white" stroke-width="1.5" d="M0,-3.0v7 M-2.5,-0.5L0,-3.0L2.5,-0.5"/>
                </g>
                <g id="arrowLeft" xlink:href="#dirArrow" transform="rotate(270) translate(-36 17)" onmousedown="handlePan(-1,0)">
                  <use xlink:href="#rim" fill="#404040">
                        <set attributeName="fill" to="#808080" begin="arrowLeft.mouseover" end="arrowLeft.mouseout"/>
                  </use>
                  <path fill="none" stroke="white" stroke-width="1.5" d="M0,-3.0v7 M-2.5,-0.5L0,-3.0L2.5,-0.5"/>
                </g>
        </g>
        <svg viewBox="0 0 15 15" width="100%" height="30px" preserveAspectRatio="xMaxYMin meet">
         <g id="arrow_out" transform="scale(0.3 0.3)">
          <a xlink:href="MakeShared_8hpp__dep__incl_org.svg" target="_base">
           <rect id="button" ry="5" rx="5" y="6" x="6" height="38" width="38"
                fill="#f2f5e9" fill-opacity="0.5" stroke="#606060" stroke-width="1.0"/>
           <path id="arrow"
             d="M 11.500037,31.436501 C 11.940474,20.09759 22.043105,11.32322 32.158766,21.979434 L 37.068811,17.246167 C 37.068811,17.246167 37.088388,32 37.088388,32 L 22.160133,31.978069 C 22.160133,31.978069 26.997745,27.140456 26.997745,27.140456 C 18.528582,18.264221 13.291696,25.230495 11.500037,31.436501 z"
             style="fill:#404040;"/>
          </a>
         </g>
        </svg>
</svg>
