<?xml version="1.0" encoding="UTF-8" standalone="no"?>
<!DOCTYPE svg PUBLIC "-//W3C//DTD SVG 1.1//EN"
 "http://www.w3.org/Graphics/SVG/1.1/DTD/svg11.dtd">
<!-- Generated by graphviz version 2.40.1 (20161225.0304)
 -->
<!-- Title: src/Engine/Renderer/Material/Material.inl Pages: 1 -->
<!--zoomable 318 -->
<svg id="main" version="1.1" xmlns="http://www.w3.org/2000/svg" xmlns:xlink="http://www.w3.org/1999/xlink" xml:space="preserve" onload="init(evt)">
<style type="text/css"><![CDATA[
.edge:hover path { stroke: red; }
.edge:hover polygon { stroke: red; fill: red; }
]]></style>
<script type="text/javascript"><![CDATA[
var edges = document.getElementsByTagName('g');
if (edges && edges.length) {
  for (var i=0;i<edges.length;i++) {
    if (edges[i].id.substr(0,4)=='edge') {
      edges[i].setAttribute('class','edge');
    }
  }
}
]]></script>
        <defs>
                <circle id="rim" cx="0" cy="0" r="7"/>
                <circle id="rim2" cx="0" cy="0" r="3.5"/>
                <g id="zoomPlus">
                        <use xlink:href="#rim" fill="#404040">
                                <set attributeName="fill" to="#808080" begin="zoomplus.mouseover" end="zoomplus.mouseout"/>
                        </use>
                        <path d="M-4,0h8M0,-4v8" fill="none" stroke="white" stroke-width="1.5" pointer-events="none"/>
                </g>
                <g id="zoomMin">
                        <use xlink:href="#rim" fill="#404040">
                                <set attributeName="fill" to="#808080" begin="zoomminus.mouseover" end="zoomminus.mouseout"/>
                        </use>
                        <path d="M-4,0h8" fill="none" stroke="white" stroke-width="1.5" pointer-events="none"/>
                </g>
                <g id="dirArrow">
                        <path fill="none" stroke="white" stroke-width="1.5" d="M0,-3.0v7 M-2.5,-0.5L0,-3.0L2.5,-0.5"/>
                </g>
               <g id="resetDef">
                       <use xlink:href="#rim2" fill="#404040">
                               <set attributeName="fill" to="#808080" begin="reset.mouseover" end="reset.mouseout"/>
                       </use>
               </g>
        </defs>

<script type="text/javascript">
var viewWidth = 1735;
var viewHeight = 318;
var sectionId = 'dynsection-0';
</script>
<script xlink:href="svgpan.js"/>
<svg id="graph" class="graph">
<g id="viewport">
<title>src/Engine/Renderer/Material/Material.inl</title>
<polygon fill="#ffffff" stroke="transparent" points="-4,4 -4,-314 1730.7323,-314 1730.7323,4 -4,4"/>
<!-- Node1 -->
<g id="node1" class="node">
<title>Node1</title>
<polygon fill="#bfbfbf" stroke="#000000" points="1014.7323,-279.5 1014.7323,-309.5 1131.7323,-309.5 1131.7323,-279.5 1014.7323,-279.5"/>
<text text-anchor="start" x="1022.7323" y="-297.5" font-family="Helvetica,sans-Serif" font-size="10.00" fill="#000000">src/Engine/Renderer</text>
<text text-anchor="middle" x="1073.2323" y="-286.5" font-family="Helvetica,sans-Serif" font-size="10.00" fill="#000000">/Material/Material.inl</text>
</g>
<!-- Node2 -->
<g id="node2" class="node">
<title>Node2</title>
<g id="a_node2"><a xlink:href="Material_8hpp.html" target="_top" xlink:title="src/Engine/Renderer\l/Material/Material.hpp">
<polygon fill="#ffffff" stroke="#000000" points="1011.7323,-212.5 1011.7323,-242.5 1134.7323,-242.5 1134.7323,-212.5 1011.7323,-212.5"/>
<text text-anchor="start" x="1019.7323" y="-230.5" font-family="Helvetica,sans-Serif" font-size="10.00" fill="#000000">src/Engine/Renderer</text>
<text text-anchor="middle" x="1073.2323" y="-219.5" font-family="Helvetica,sans-Serif" font-size="10.00" fill="#000000">/Material/Material.hpp</text>
</a>
</g>
</g>
<!-- Node1&#45;&gt;Node2 -->
<g id="edge1" class="edge">
<title>Node1&#45;&gt;Node2</title>
<path fill="none" stroke="#191970" d="M1073.2323,-269.0249C1073.2323,-260.128 1073.2323,-250.4287 1073.2323,-242.6432"/>
<polygon fill="#191970" stroke="#191970" points="1069.7324,-269.2966 1073.2323,-279.2967 1076.7324,-269.2967 1069.7324,-269.2966"/>
</g>
<!-- Node3 -->
<g id="node3" class="node">
<title>Node3</title>
<g id="a_node3"><a xlink:href="BlinnPhongMaterial_8hpp.html" target="_top" xlink:title="src/Engine/Renderer\l/Material/BlinnPhongMaterial.hpp">
<polygon fill="#ffffff" stroke="#000000" points="601.2323,-145.5 601.2323,-175.5 779.2323,-175.5 779.2323,-145.5 601.2323,-145.5"/>
<text text-anchor="start" x="609.2323" y="-163.5" font-family="Helvetica,sans-Serif" font-size="10.00" fill="#000000">src/Engine/Renderer</text>
<text text-anchor="middle" x="690.2323" y="-152.5" font-family="Helvetica,sans-Serif" font-size="10.00" fill="#000000">/Material/BlinnPhongMaterial.hpp</text>
</a>
</g>
</g>
<!-- Node2&#45;&gt;Node3 -->
<g id="edge2" class="edge">
<title>Node2&#45;&gt;Node3</title>
<path fill="none" stroke="#191970" d="M1001.7112,-214.9885C937.846,-203.8162 844.1674,-187.4286 776.2353,-175.5449"/>
<polygon fill="#191970" stroke="#191970" points="1001.2432,-218.4597 1011.6967,-216.7353 1002.4494,-211.5644 1001.2432,-218.4597"/>
</g>
<!-- Node4 -->
<g id="node4" class="node">
<title>Node4</title>
<g id="a_node4"><a xlink:href="GeometryComponent_8cpp.html" target="_top" xlink:title="src/Engine/Component\l/GeometryComponent.cpp">
<polygon fill="#ffffff" stroke="#000000" points="400.7323,-78.5 400.7323,-108.5 545.7323,-108.5 545.7323,-78.5 400.7323,-78.5"/>
<text text-anchor="start" x="408.7323" y="-96.5" font-family="Helvetica,sans-Serif" font-size="10.00" fill="#000000">src/Engine/Component</text>
<text text-anchor="middle" x="473.2323" y="-85.5" font-family="Helvetica,sans-Serif" font-size="10.00" fill="#000000">/GeometryComponent.cpp</text>
</a>
</g>
</g>
<!-- Node2&#45;&gt;Node4 -->
<g id="edge7" class="edge">
<title>Node2&#45;&gt;Node4</title>
<path fill="none" stroke="#191970" d="M1001.2225,-224.1563C885.9162,-218.0731 665.3851,-203.2373 592.2323,-176 551.2397,-160.7371 510.9964,-128.1092 489.4213,-108.773"/>
<polygon fill="#191970" stroke="#191970" points="1001.2001,-227.6598 1011.3682,-224.6833 1001.5632,-220.6692 1001.2001,-227.6598"/>
</g>
<!-- Node8 -->
<g id="node8" class="node">
<title>Node8</title>
<g id="a_node8"><a xlink:href="VolumetricMaterial_8hpp.html" target="_top" xlink:title="src/Engine/Renderer\l/Material/VolumetricMaterial.hpp">
<polygon fill="#ffffff" stroke="#000000" points="112.2323,-145.5 112.2323,-175.5 288.2323,-175.5 288.2323,-145.5 112.2323,-145.5"/>
<text text-anchor="start" x="120.2323" y="-163.5" font-family="Helvetica,sans-Serif" font-size="10.00" fill="#000000">src/Engine/Renderer</text>
<text text-anchor="middle" x="200.2323" y="-152.5" font-family="Helvetica,sans-Serif" font-size="10.00" fill="#000000">/Material/VolumetricMaterial.hpp</text>
</a>
</g>
</g>
<!-- Node2&#45;&gt;Node8 -->
<g id="edge8" class="edge">
<title>Node2&#45;&gt;Node8</title>
<path fill="none" stroke="#191970" d="M1001.3488,-221.9832C842.3371,-209.7795 461.2072,-180.529 288.2552,-167.2555"/>
<polygon fill="#191970" stroke="#191970" points="1001.2583,-225.4864 1011.4968,-222.762 1001.794,-218.5069 1001.2583,-225.4864"/>
</g>
<!-- Node11 -->
<g id="node11" class="node">
<title>Node11</title>
<g id="a_node11"><a xlink:href="SimpleMaterial_8hpp.html" target="_top" xlink:title="src/Engine/Renderer\l/Material/SimpleMaterial.hpp">
<polygon fill="#ffffff" stroke="#000000" points="915.7323,-145.5 915.7323,-175.5 1072.7323,-175.5 1072.7323,-145.5 915.7323,-145.5"/>
<text text-anchor="start" x="923.7323" y="-163.5" font-family="Helvetica,sans-Serif" font-size="10.00" fill="#000000">src/Engine/Renderer</text>
<text text-anchor="middle" x="994.2323" y="-152.5" font-family="Helvetica,sans-Serif" font-size="10.00" fill="#000000">/Material/SimpleMaterial.hpp</text>
</a>
</g>
</g>
<!-- Node2&#45;&gt;Node11 -->
<g id="edge14" class="edge">
<title>Node2&#45;&gt;Node11</title>
<path fill="none" stroke="#191970" d="M1047.6231,-205.7808C1036.0177,-195.9383 1022.5791,-184.541 1012.0877,-175.6432"/>
<polygon fill="#191970" stroke="#191970" points="1045.4156,-208.4978 1055.306,-212.2967 1049.9432,-203.1593 1045.4156,-208.4978"/>
</g>
<!-- Node20 -->
<g id="node20" class="node">
<title>Node20</title>
<g id="a_node20"><a xlink:href="Material_8cpp.html" target="_top" xlink:title="src/Engine/Renderer\l/Material/Material.cpp">
<polygon fill="#ffffff" stroke="#000000" points="1091.2323,-145.5 1091.2323,-175.5 1213.2323,-175.5 1213.2323,-145.5 1091.2323,-145.5"/>
<text text-anchor="start" x="1099.2323" y="-163.5" font-family="Helvetica,sans-Serif" font-size="10.00" fill="#000000">src/Engine/Renderer</text>
<text text-anchor="middle" x="1152.2323" y="-152.5" font-family="Helvetica,sans-Serif" font-size="10.00" fill="#000000">/Material/Material.cpp</text>
</a>
</g>
</g>
<!-- Node2&#45;&gt;Node20 -->
<g id="edge25" class="edge">
<title>Node2&#45;&gt;Node20</title>
<path fill="none" stroke="#191970" d="M1098.8415,-205.7808C1110.4468,-195.9383 1123.8855,-184.541 1134.3769,-175.6432"/>
<polygon fill="#191970" stroke="#191970" points="1096.5213,-203.1593 1091.1586,-212.2967 1101.049,-208.4978 1096.5213,-203.1593"/>
</g>
<!-- Node21 -->
<g id="node21" class="node">
<title>Node21</title>
<g id="a_node21"><a xlink:href="Renderer_8cpp.html" target="_top" xlink:title="src/Engine/Renderer\l/Renderer.cpp">
<polygon fill="#ffffff" stroke="#000000" points="1231.7323,-145.5 1231.7323,-175.5 1344.7323,-175.5 1344.7323,-145.5 1231.7323,-145.5"/>
<text text-anchor="start" x="1239.7323" y="-163.5" font-family="Helvetica,sans-Serif" font-size="10.00" fill="#000000">src/Engine/Renderer</text>
<text text-anchor="middle" x="1288.2323" y="-152.5" font-family="Helvetica,sans-Serif" font-size="10.00" fill="#000000">/Renderer.cpp</text>
</a>
</g>
</g>
<!-- Node2&#45;&gt;Node21 -->
<g id="edge26" class="edge">
<title>Node2&#45;&gt;Node21</title>
<path fill="none" stroke="#191970" d="M1131.2749,-209.4123C1165.2336,-198.8298 1207.6121,-185.6235 1239.7716,-175.6017"/>
<polygon fill="#191970" stroke="#191970" points="1129.9883,-206.1471 1121.4825,-212.4639 1132.071,-212.8302 1129.9883,-206.1471"/>
</g>
<!-- Node22 -->
<g id="node22" class="node">
<title>Node22</title>
<g id="a_node22"><a xlink:href="ForwardRenderer_8cpp.html" target="_top" xlink:title="src/Engine/Renderer\l/Renderers/ForwardRenderer.cpp">
<polygon fill="#ffffff" stroke="#000000" points="1362.7323,-145.5 1362.7323,-175.5 1535.7323,-175.5 1535.7323,-145.5 1362.7323,-145.5"/>
<text text-anchor="start" x="1370.7323" y="-163.5" font-family="Helvetica,sans-Serif" font-size="10.00" fill="#000000">src/Engine/Renderer</text>
<text text-anchor="middle" x="1449.2323" y="-152.5" font-family="Helvetica,sans-Serif" font-size="10.00" fill="#000000">/Renderers/ForwardRenderer.cpp</text>
</a>
</g>
</g>
<!-- Node2&#45;&gt;Node22 -->
<g id="edge27" class="edge">
<title>Node2&#45;&gt;Node22</title>
<path fill="none" stroke="#191970" d="M1145.103,-214.6933C1207.8284,-203.5161 1298.9063,-187.2868 1365.0307,-175.504"/>
<polygon fill="#191970" stroke="#191970" points="1144.1309,-211.3113 1134.9,-216.5113 1145.359,-218.2027 1144.1309,-211.3113"/>
</g>
<!-- Node23 -->
<g id="node23" class="node">
<title>Node23</title>
<g id="a_node23"><a xlink:href="RenderObject_8cpp.html" target="_top" xlink:title="src/Engine/Renderer\l/RenderObject/RenderObject.cpp">
<polygon fill="#ffffff" stroke="#000000" points="1553.7323,-145.5 1553.7323,-175.5 1726.7323,-175.5 1726.7323,-145.5 1553.7323,-145.5"/>
<text text-anchor="start" x="1561.7323" y="-163.5" font-family="Helvetica,sans-Serif" font-size="10.00" fill="#000000">src/Engine/Renderer</text>
<text text-anchor="middle" x="1640.2323" y="-152.5" font-family="Helvetica,sans-Serif" font-size="10.00" fill="#000000">/RenderObject/RenderObject.cpp</text>
</a>
</g>
</g>
<!-- Node2&#45;&gt;Node23 -->
<g id="edge28" class="edge">
<title>Node2&#45;&gt;Node23</title>
<path fill="none" stroke="#191970" d="M1144.9362,-220.8706C1237.5632,-212.033 1403.7201,-195.2508 1545.2323,-176 1547.9645,-175.6283 1550.7391,-175.2402 1553.5394,-174.8392"/>
<polygon fill="#191970" stroke="#191970" points="1144.4583,-217.4002 1134.8343,-221.8307 1145.1207,-224.3688 1144.4583,-217.4002"/>
</g>
<!-- Node3&#45;&gt;Node4 -->
<g id="edge3" class="edge">
<title>Node3&#45;&gt;Node4</title>
<path fill="none" stroke="#191970" d="M631.6498,-142.4123C597.3751,-131.8298 554.6024,-118.6235 522.1437,-108.6017"/>
<polygon fill="#191970" stroke="#191970" points="630.9457,-145.8579 641.5333,-145.4639 633.0109,-139.1695 630.9457,-145.8579"/>
</g>
<!-- Node5 -->
<g id="node5" class="node">
<title>Node5</title>
<g id="a_node5"><a xlink:href="RadiumEngine_8cpp.html" target="_top" xlink:title="src/Engine/RadiumEngine.cpp">
<polygon fill="#ffffff" stroke="#000000" points="589.7323,-11.5 589.7323,-30.5 750.7323,-30.5 750.7323,-11.5 589.7323,-11.5"/>
<text text-anchor="middle" x="670.2323" y="-18.5" font-family="Helvetica,sans-Serif" font-size="10.00" fill="#000000">src/Engine/RadiumEngine.cpp</text>
</a>
</g>
</g>
<!-- Node3&#45;&gt;Node5 -->
<g id="edge4" class="edge">
<title>Node3&#45;&gt;Node5</title>
<path fill="none" stroke="#191970" d="M628.9294,-141.0595C614.4178,-133.4307 600.7099,-123.032 592.2323,-109 572.9129,-77.0228 621.0723,-45.7949 650.1092,-30.5854"/>
<polygon fill="#191970" stroke="#191970" points="627.5028,-144.2573 638.0293,-145.4592 630.5499,-137.9552 627.5028,-144.2573"/>
</g>
<!-- Node6 -->
<g id="node6" class="node">
<title>Node6</title>
<g id="a_node6"><a xlink:href="BlinnPhongMaterial_8cpp.html" target="_top" xlink:title="src/Engine/Renderer\l/Material/BlinnPhongMaterial.cpp">
<polygon fill="#ffffff" stroke="#000000" points="601.7323,-78.5 601.7323,-108.5 778.7323,-108.5 778.7323,-78.5 601.7323,-78.5"/>
<text text-anchor="start" x="609.7323" y="-96.5" font-family="Helvetica,sans-Serif" font-size="10.00" fill="#000000">src/Engine/Renderer</text>
<text text-anchor="middle" x="690.2323" y="-85.5" font-family="Helvetica,sans-Serif" font-size="10.00" fill="#000000">/Material/BlinnPhongMaterial.cpp</text>
</a>
</g>
</g>
<!-- Node3&#45;&gt;Node6 -->
<g id="edge5" class="edge">
<title>Node3&#45;&gt;Node6</title>
<path fill="none" stroke="#191970" d="M690.2323,-135.0249C690.2323,-126.128 690.2323,-116.4287 690.2323,-108.6432"/>
<polygon fill="#191970" stroke="#191970" points="686.7324,-135.2966 690.2323,-145.2967 693.7324,-135.2967 686.7324,-135.2966"/>
</g>
<!-- Node7 -->
<g id="node7" class="node">
<title>Node7</title>
<g id="a_node7"><a xlink:href="RenderTechnique_8cpp.html" target="_top" xlink:title="src/Engine/Renderer\l/RenderTechnique/RenderTechnique.cpp">
<polygon fill="#ffffff" stroke="#000000" points="797.2323,-78.5 797.2323,-108.5 1005.2323,-108.5 1005.2323,-78.5 797.2323,-78.5"/>
<text text-anchor="start" x="805.2323" y="-96.5" font-family="Helvetica,sans-Serif" font-size="10.00" fill="#000000">src/Engine/Renderer</text>
<text text-anchor="middle" x="901.2323" y="-85.5" font-family="Helvetica,sans-Serif" font-size="10.00" fill="#000000">/RenderTechnique/RenderTechnique.cpp</text>
</a>
</g>
</g>
<!-- Node3&#45;&gt;Node7 -->
<g id="edge6" class="edge">
<title>Node3&#45;&gt;Node7</title>
<path fill="none" stroke="#191970" d="M747.195,-142.4123C780.522,-131.8298 822.112,-118.6235 853.6732,-108.6017"/>
<polygon fill="#191970" stroke="#191970" points="746.0566,-139.1015 737.5848,-145.4639 748.1751,-145.7732 746.0566,-139.1015"/>
</g>
<!-- Node8&#45;&gt;Node4 -->
<g id="edge9" class="edge">
<title>Node8&#45;&gt;Node4</title>
<path fill="none" stroke="#191970" d="M271.4467,-143.0225C314.9692,-132.3411 370.0747,-118.8171 411.6985,-108.6017"/>
<polygon fill="#191970" stroke="#191970" points="270.3764,-139.6812 261.4988,-145.4639 272.0449,-146.4795 270.3764,-139.6812"/>
</g>
<!-- Node8&#45;&gt;Node5 -->
<g id="edge12" class="edge">
<title>Node8&#45;&gt;Node5</title>
<path fill="none" stroke="#191970" d="M101.972,-148.6975C39.1226,-137.2953 -24.6118,-115.983 10.2323,-78 48.6927,-36.0749 422.0145,-24.907 589.5579,-21.9971"/>
<polygon fill="#191970" stroke="#191970" points="101.585,-152.1826 112.0361,-150.4435 102.7816,-145.2856 101.585,-152.1826"/>
</g>
<!-- Node9 -->
<g id="node9" class="node">
<title>Node9</title>
<g id="a_node9"><a xlink:href="VolumetricMaterial_8inl.html" target="_top" xlink:title="src/Engine/Renderer\l/Material/VolumetricMaterial.inl">
<polygon fill="#ffffff" stroke="#000000" points="19.2323,-78.5 19.2323,-108.5 189.2323,-108.5 189.2323,-78.5 19.2323,-78.5"/>
<text text-anchor="start" x="27.2323" y="-96.5" font-family="Helvetica,sans-Serif" font-size="10.00" fill="#000000">src/Engine/Renderer</text>
<text text-anchor="middle" x="104.2323" y="-85.5" font-family="Helvetica,sans-Serif" font-size="10.00" fill="#000000">/Material/VolumetricMaterial.inl</text>
</a>
</g>
</g>
<!-- Node8&#45;&gt;Node9 -->
<g id="edge10" class="edge">
<title>Node8&#45;&gt;Node9</title>
<path fill="none" stroke="#191970" d="M164.2737,-139.7951C149.1353,-129.7558 132.342,-117.9124 120.2743,-108.7177"/>
<polygon fill="#191970" stroke="#191970" points="162.6619,-142.9229 172.9475,-145.4639 166.4914,-137.0633 162.6619,-142.9229"/>
</g>
<!-- Node10 -->
<g id="node10" class="node">
<title>Node10</title>
<g id="a_node10"><a xlink:href="VolumetricMaterial_8cpp.html" target="_top" xlink:title="src/Engine/Renderer\l/Material/VolumetricMaterial.cpp">
<polygon fill="#ffffff" stroke="#000000" points="207.7323,-78.5 207.7323,-108.5 382.7323,-108.5 382.7323,-78.5 207.7323,-78.5"/>
<text text-anchor="start" x="215.7323" y="-96.5" font-family="Helvetica,sans-Serif" font-size="10.00" fill="#000000">src/Engine/Renderer</text>
<text text-anchor="middle" x="295.2323" y="-85.5" font-family="Helvetica,sans-Serif" font-size="10.00" fill="#000000">/Material/VolumetricMaterial.cpp</text>
</a>
</g>
</g>
<!-- Node8&#45;&gt;Node10 -->
<g id="edge13" class="edge">
<title>Node8&#45;&gt;Node10</title>
<path fill="none" stroke="#191970" d="M230.2255,-139.3469C244.3611,-129.3776 260.9017,-117.7121 273.7606,-108.6432"/>
<polygon fill="#191970" stroke="#191970" points="227.9441,-136.6729 221.7893,-145.2967 231.9786,-142.3934 227.9441,-136.6729"/>
</g>
<!-- Node9&#45;&gt;Node8 -->
<g id="edge11" class="edge">
<title>Node9&#45;&gt;Node8</title>
<path fill="none" stroke="#191970" d="M140.3426,-114.3055C155.4493,-124.3285 172.1804,-136.1306 184.2092,-145.2967"/>
<polygon fill="#191970" stroke="#191970" points="141.9685,-111.1869 131.6835,-108.6432 138.1374,-117.0455 141.9685,-111.1869"/>
</g>
<!-- Node12 -->
<g id="node12" class="node">
<title>Node12</title>
<g id="a_node12"><a xlink:href="LambertianMaterial_8hpp.html" target="_top" xlink:title="src/Engine/Renderer\l/Material/LambertianMaterial.hpp">
<polygon fill="#ffffff" stroke="#000000" points="1023.7323,-78.5 1023.7323,-108.5 1202.7323,-108.5 1202.7323,-78.5 1023.7323,-78.5"/>
<text text-anchor="start" x="1031.7323" y="-96.5" font-family="Helvetica,sans-Serif" font-size="10.00" fill="#000000">src/Engine/Renderer</text>
<text text-anchor="middle" x="1113.2323" y="-85.5" font-family="Helvetica,sans-Serif" font-size="10.00" fill="#000000">/Material/LambertianMaterial.hpp</text>
</a>
</g>
</g>
<!-- Node11&#45;&gt;Node12 -->
<g id="edge15" class="edge">
<title>Node11&#45;&gt;Node12</title>
<path fill="none" stroke="#191970" d="M1030.0102,-140.3561C1048.0496,-130.1995 1069.5677,-118.0843 1086.2038,-108.7177"/>
<polygon fill="#191970" stroke="#191970" points="1027.9349,-137.5079 1020.9382,-145.4639 1031.3692,-143.6076 1027.9349,-137.5079"/>
</g>
<!-- Node14 -->
<g id="node14" class="node">
<title>Node14</title>
<g id="a_node14"><a xlink:href="PlainMaterial_8hpp.html" target="_top" xlink:title="src/Engine/Renderer\l/Material/PlainMaterial.hpp">
<polygon fill="#ffffff" stroke="#000000" points="1220.7323,-78.5 1220.7323,-108.5 1367.7323,-108.5 1367.7323,-78.5 1220.7323,-78.5"/>
<text text-anchor="start" x="1228.7323" y="-96.5" font-family="Helvetica,sans-Serif" font-size="10.00" fill="#000000">src/Engine/Renderer</text>
<text text-anchor="middle" x="1294.2323" y="-85.5" font-family="Helvetica,sans-Serif" font-size="10.00" fill="#000000">/Material/PlainMaterial.hpp</text>
</a>
</g>
</g>
<!-- Node11&#45;&gt;Node14 -->
<g id="edge18" class="edge">
<title>Node11&#45;&gt;Node14</title>
<path fill="none" stroke="#191970" d="M1071.6031,-143.2205C1119.6567,-132.4886 1180.8186,-118.8291 1226.8721,-108.5438"/>
<polygon fill="#191970" stroke="#191970" points="1070.5548,-139.8683 1061.5581,-145.4639 1072.0806,-146.7 1070.5548,-139.8683"/>
</g>
<!-- Node19 -->
<g id="node19" class="node">
<title>Node19</title>
<g id="a_node19"><a xlink:href="SimpleMaterial_8cpp.html" target="_top" xlink:title="src/Engine/Renderer\l/Material/SimpleMaterial.cpp">
<polygon fill="#ffffff" stroke="#000000" points="1386.2323,-78.5 1386.2323,-108.5 1542.2323,-108.5 1542.2323,-78.5 1386.2323,-78.5"/>
<text text-anchor="start" x="1394.2323" y="-96.5" font-family="Helvetica,sans-Serif" font-size="10.00" fill="#000000">src/Engine/Renderer</text>
<text text-anchor="middle" x="1464.2323" y="-85.5" font-family="Helvetica,sans-Serif" font-size="10.00" fill="#000000">/Material/SimpleMaterial.cpp</text>
</a>
</g>
</g>
<!-- Node11&#45;&gt;Node19 -->
<g id="edge24" class="edge">
<title>Node11&#45;&gt;Node19</title>
<path fill="none" stroke="#191970" d="M1082.9474,-144.9462C1214.5792,-125.6728 1249.7985,-128.1128 1377.2323,-109 1380.115,-108.5676 1383.0491,-108.1141 1386.011,-107.6448"/>
<polygon fill="#191970" stroke="#191970" points="1082.2615,-141.5095 1072.881,-146.4346 1083.2854,-148.4342 1082.2615,-141.5095"/>
</g>
<!-- Node12&#45;&gt;Node5 -->
<g id="edge16" class="edge">
<title>Node12&#45;&gt;Node5</title>
<path fill="none" stroke="#191970" d="M1013.5999,-77.1945C925.766,-62.8198 800.8103,-42.37 728.3637,-30.5136"/>
<polygon fill="#191970" stroke="#191970" points="1013.1506,-80.6674 1023.5846,-78.8285 1014.2812,-73.7593 1013.1506,-80.6674"/>
</g>
<!-- Node13 -->
<g id="node13" class="node">
<title>Node13</title>
<g id="a_node13"><a xlink:href="LambertianMaterial_8cpp.html" target="_top" xlink:title="src/Engine/Renderer\l/Material/LambertianMaterial.cpp">
<polygon fill="#ffffff" stroke="#000000" points="865.2323,-6 865.2323,-36 1043.2323,-36 1043.2323,-6 865.2323,-6"/>
<text text-anchor="start" x="873.2323" y="-24" font-family="Helvetica,sans-Serif" font-size="10.00" fill="#000000">src/Engine/Renderer</text>
<text text-anchor="middle" x="954.2323" y="-13" font-family="Helvetica,sans-Serif" font-size="10.00" fill="#000000">/Material/LambertianMaterial.cpp</text>
</a>
</g>
</g>
<!-- Node12&#45;&gt;Node13 -->
<g id="edge17" class="edge">
<title>Node12&#45;&gt;Node13</title>
<path fill="none" stroke="#191970" d="M1070.9575,-74.2237C1044.6934,-62.248 1011.4283,-47.0799 987.135,-36.0028"/>
<polygon fill="#191970" stroke="#191970" points="1069.7365,-77.5137 1080.2874,-78.478 1072.6407,-71.1445 1069.7365,-77.5137"/>
</g>
<!-- Node14&#45;&gt;Node5 -->
<g id="edge19" class="edge">
<title>Node14&#45;&gt;Node5</title>
<path fill="none" stroke="#191970" d="M1210.4878,-77.8129C1053.1345,-55.3538 1011.1158,-58.574 856.2323,-42 821.6581,-38.3002 783.4919,-34.0246 750.7765,-30.3008"/>
<polygon fill="#191970" stroke="#191970" points="1210.1285,-81.2972 1220.5252,-79.2578 1211.1259,-74.3686 1210.1285,-81.2972"/>
</g>
<!-- Node15 -->
<g id="node15" class="node">
<title>Node15</title>
<g id="a_node15"><a xlink:href="Camera_8cpp.html" target="_top" xlink:title="src/Engine/Renderer\l/Camera/Camera.cpp">
<polygon fill="#ffffff" stroke="#000000" points="1509.7323,-6 1509.7323,-36 1628.7323,-36 1628.7323,-6 1509.7323,-6"/>
<text text-anchor="start" x="1517.7323" y="-24" font-family="Helvetica,sans-Serif" font-size="10.00" fill="#000000">src/Engine/Renderer</text>
<text text-anchor="middle" x="1569.2323" y="-13" font-family="Helvetica,sans-Serif" font-size="10.00" fill="#000000">/Camera/Camera.cpp</text>
</a>
</g>
</g>
<!-- Node14&#45;&gt;Node15 -->
<g id="edge20" class="edge">
<title>Node14&#45;&gt;Node15</title>
<path fill="none" stroke="#191970" d="M1368.64,-76.049C1408.1668,-66.5116 1457.4918,-54.185 1501.2323,-42 1507.8977,-40.1432 1514.9009,-38.0938 1521.7751,-36.0251"/>
<polygon fill="#191970" stroke="#191970" points="1367.7161,-72.6713 1358.8113,-78.4119 1369.3524,-79.4774 1367.7161,-72.6713"/>
</g>
<!-- Node16 -->
<g id="node16" class="node">
<title>Node16</title>
<g id="a_node16"><a xlink:href="PlainMaterial_8cpp.html" target="_top" xlink:title="src/Engine/Renderer\l/Material/PlainMaterial.cpp">
<polygon fill="#ffffff" stroke="#000000" points="1061.2323,-6 1061.2323,-36 1207.2323,-36 1207.2323,-6 1061.2323,-6"/>
<text text-anchor="start" x="1069.2323" y="-24" font-family="Helvetica,sans-Serif" font-size="10.00" fill="#000000">src/Engine/Renderer</text>
<text text-anchor="middle" x="1134.2323" y="-13" font-family="Helvetica,sans-Serif" font-size="10.00" fill="#000000">/Material/PlainMaterial.cpp</text>
</a>
</g>
</g>
<!-- Node14&#45;&gt;Node16 -->
<g id="edge21" class="edge">
<title>Node14&#45;&gt;Node16</title>
<path fill="none" stroke="#191970" d="M1251.6916,-74.2237C1225.2623,-62.248 1191.788,-47.0799 1167.3419,-36.0028"/>
<polygon fill="#191970" stroke="#191970" points="1250.5271,-77.5386 1261.0802,-78.478 1253.4162,-71.1626 1250.5271,-77.5386"/>
</g>
<!-- Node17 -->
<g id="node17" class="node">
<title>Node17</title>
<g id="a_node17"><a xlink:href="DrawPrimitives_8cpp.html" target="_top" xlink:title="src/Engine/Renderer\l/RenderObject/Primitives\l/DrawPrimitives.cpp">
<polygon fill="#ffffff" stroke="#000000" points="1225.7323,-.5 1225.7323,-41.5 1362.7323,-41.5 1362.7323,-.5 1225.7323,-.5"/>
<text text-anchor="start" x="1233.7323" y="-29.5" font-family="Helvetica,sans-Serif" font-size="10.00" fill="#000000">src/Engine/Renderer</text>
<text text-anchor="start" x="1233.7323" y="-18.5" font-family="Helvetica,sans-Serif" font-size="10.00" fill="#000000">/RenderObject/Primitives</text>
<text text-anchor="middle" x="1294.2323" y="-7.5" font-family="Helvetica,sans-Serif" font-size="10.00" fill="#000000">/DrawPrimitives.cpp</text>
</a>
</g>
</g>
<!-- Node14&#45;&gt;Node17 -->
<g id="edge22" class="edge">
<title>Node14&#45;&gt;Node17</title>
<path fill="none" stroke="#191970" d="M1294.2323,-68.4016C1294.2323,-59.6173 1294.2323,-49.8652 1294.2323,-41.5015"/>
<polygon fill="#191970" stroke="#191970" points="1290.7324,-68.4779 1294.2323,-78.478 1297.7324,-68.478 1290.7324,-68.4779"/>
</g>
<!-- Node18 -->
<g id="node18" class="node">
<title>Node18</title>
<g id="a_node18"><a xlink:href="Gizmo_8cpp.html" target="_top" xlink:title="src/GuiBase/Viewer\l/Gizmo/Gizmo.cpp">
<polygon fill="#ffffff" stroke="#000000" points="1380.7323,-6 1380.7323,-36 1491.7323,-36 1491.7323,-6 1380.7323,-6"/>
<text text-anchor="start" x="1388.7323" y="-24" font-family="Helvetica,sans-Serif" font-size="10.00" fill="#000000">src/GuiBase/Viewer</text>
<text text-anchor="middle" x="1436.2323" y="-13" font-family="Helvetica,sans-Serif" font-size="10.00" fill="#000000">/Gizmo/Gizmo.cpp</text>
</a>
</g>
</g>
<!-- Node14&#45;&gt;Node18 -->
<g id="edge23" class="edge">
<title>Node14&#45;&gt;Node18</title>
<path fill="none" stroke="#191970" d="M1332.6058,-73.9079C1355.9637,-61.9822 1385.3419,-46.9828 1406.8475,-36.0028"/>
<polygon fill="#191970" stroke="#191970" points="1330.9696,-70.8134 1323.6548,-78.478 1334.1527,-77.0479 1330.9696,-70.8134"/>
</g>
</g>
</svg>
        <g id="navigator" transform="translate(0 0)" fill="#404254">
                <rect fill="#f2f5e9" fill-opacity="0.5" stroke="#606060" stroke-width=".5" x="0" y="0" width="60" height="60"/>
                <use id="zoomplus" xlink:href="#zoomPlus" x="17" y="9" onmousedown="handleZoom(evt,'in')"/>
                <use id="zoomminus" xlink:href="#zoomMin" x="42" y="9" onmousedown="handleZoom(evt,'out')"/>
                <use id="reset" xlink:href="#resetDef" x="30" y="36" onmousedown="handleReset()"/>
                <g id="arrowUp" xlink:href="#dirArrow" transform="translate(30 24)" onmousedown="handlePan(0,-1)">
                  <use xlink:href="#rim" fill="#404040">
                        <set attributeName="fill" to="#808080" begin="arrowUp.mouseover" end="arrowUp.mouseout"/>
                  </use>
                  <path fill="none" stroke="white" stroke-width="1.5" d="M0,-3.0v7 M-2.5,-0.5L0,-3.0L2.5,-0.5"/>
                </g>
                <g id="arrowRight" xlink:href="#dirArrow" transform="rotate(90) translate(36 -43)" onmousedown="handlePan(1,0)">
                  <use xlink:href="#rim" fill="#404040">
                        <set attributeName="fill" to="#808080" begin="arrowRight.mouseover" end="arrowRight.mouseout"/>
                  </use>
                  <path fill="none" stroke="white" stroke-width="1.5" d="M0,-3.0v7 M-2.5,-0.5L0,-3.0L2.5,-0.5"/>
                </g>
                <g id="arrowDown" xlink:href="#dirArrow" transform="rotate(180) translate(-30 -48)" onmousedown="handlePan(0,1)">
                  <use xlink:href="#rim" fill="#404040">
                        <set attributeName="fill" to="#808080" begin="arrowDown.mouseover" end="arrowDown.mouseout"/>
                  </use>
                  <path fill="none" stroke="white" stroke-width="1.5" d="M0,-3.0v7 M-2.5,-0.5L0,-3.0L2.5,-0.5"/>
                </g>
                <g id="arrowLeft" xlink:href="#dirArrow" transform="rotate(270) translate(-36 17)" onmousedown="handlePan(-1,0)">
                  <use xlink:href="#rim" fill="#404040">
                        <set attributeName="fill" to="#808080" begin="arrowLeft.mouseover" end="arrowLeft.mouseout"/>
                  </use>
                  <path fill="none" stroke="white" stroke-width="1.5" d="M0,-3.0v7 M-2.5,-0.5L0,-3.0L2.5,-0.5"/>
                </g>
        </g>
        <svg viewBox="0 0 15 15" width="100%" height="30px" preserveAspectRatio="xMaxYMin meet">
         <g id="arrow_out" transform="scale(0.3 0.3)">
          <a xlink:href="Material_8inl__dep__incl_org.svg" target="_base">
           <rect id="button" ry="5" rx="5" y="6" x="6" height="38" width="38"
                fill="#f2f5e9" fill-opacity="0.5" stroke="#606060" stroke-width="1.0"/>
           <path id="arrow"
             d="M 11.500037,31.436501 C 11.940474,20.09759 22.043105,11.32322 32.158766,21.979434 L 37.068811,17.246167 C 37.068811,17.246167 37.088388,32 37.088388,32 L 22.160133,31.978069 C 22.160133,31.978069 26.997745,27.140456 26.997745,27.140456 C 18.528582,18.264221 13.291696,25.230495 11.500037,31.436501 z"
             style="fill:#404040;"/>
          </a>
         </g>
        </svg>
</svg>
