<?xml version="1.0" encoding="UTF-8" standalone="no"?>
<!DOCTYPE svg PUBLIC "-//W3C//DTD SVG 1.1//EN"
 "http://www.w3.org/Graphics/SVG/1.1/DTD/svg11.dtd">
<!-- Generated by graphviz version 2.40.1 (20161225.0304)
 -->
<!-- Title: src/Engine/Renderer/Material/MaterialConverters.hpp Pages: 1 -->
<svg width="721pt" height="106pt"
 viewBox="0.00 0.00 720.50 106.00" xmlns="http://www.w3.org/2000/svg" xmlns:xlink="http://www.w3.org/1999/xlink">
<g id="graph0" class="graph" transform="scale(1 1) rotate(0) translate(4 102)">
<title>src/Engine/Renderer/Material/MaterialConverters.hpp</title>
<polygon fill="#ffffff" stroke="transparent" points="-4,4 -4,-102 716.5,-102 716.5,4 -4,4"/>
<!-- Node10 -->
<g id="node1" class="node">
<title>Node10</title>
<polygon fill="#bfbfbf" stroke="#000000" points="248.5,-67.5 248.5,-97.5 424.5,-97.5 424.5,-67.5 248.5,-67.5"/>
<text text-anchor="start" x="256.5" y="-85.5" font-family="Helvetica,sans-Serif" font-size="10.00" fill="#000000">src/Engine/Renderer</text>
<text text-anchor="middle" x="336.5" y="-74.5" font-family="Helvetica,sans-Serif" font-size="10.00" fill="#000000">/Material/MaterialConverters.hpp</text>
</g>
<!-- Node11 -->
<g id="node2" class="node">
<title>Node11</title>
<g id="a_node2"><a xlink:href="GeometryComponent_8cpp.html" target="_top" xlink:title="src/Engine/Component\l/GeometryComponent.cpp">
<polygon fill="#ffffff" stroke="#000000" points="0,-.5 0,-30.5 145,-30.5 145,-.5 0,-.5"/>
<text text-anchor="start" x="8" y="-18.5" font-family="Helvetica,sans-Serif" font-size="10.00" fill="#000000">src/Engine/Component</text>
<text text-anchor="middle" x="72.5" y="-7.5" font-family="Helvetica,sans-Serif" font-size="10.00" fill="#000000">/GeometryComponent.cpp</text>
</a>
</g>
</g>
<!-- Node10&#45;&gt;Node11 -->
<g id="edge1" class="edge">
<title>Node10&#45;&gt;Node11</title>
<path fill="none" stroke="#191970" d="M267.3674,-64.955C225.3213,-54.2842 172.172,-40.7955 132.0052,-30.6017"/>
<polygon fill="#191970" stroke="#191970" points="266.6995,-68.3964 277.2532,-67.4639 268.4215,-61.6115 266.6995,-68.3964"/>
</g>
<!-- Node12 -->
<g id="node3" class="node">
<title>Node12</title>
<g id="a_node3"><a xlink:href="RadiumEngine_8cpp.html" target="_top" xlink:title="src/Engine/RadiumEngine.cpp">
<polygon fill="#ffffff" stroke="#000000" points="163,-6 163,-25 324,-25 324,-6 163,-6"/>
<text text-anchor="middle" x="243.5" y="-13" font-family="Helvetica,sans-Serif" font-size="10.00" fill="#000000">src/Engine/RadiumEngine.cpp</text>
</a>
</g>
</g>
<!-- Node10&#45;&gt;Node12 -->
<g id="edge2" class="edge">
<title>Node10&#45;&gt;Node12</title>
<path fill="none" stroke="#191970" d="M306.9506,-61.2117C290.0897,-49.0646 269.7841,-34.4358 256.7629,-25.055"/>
<polygon fill="#191970" stroke="#191970" points="305.2373,-64.2911 315.3969,-67.2967 309.329,-58.6115 305.2373,-64.2911"/>
</g>
<!-- Node13 -->
<g id="node4" class="node">
<title>Node13</title>
<g id="a_node4"><a xlink:href="BlinnPhongMaterial_8cpp.html" target="_top" xlink:title="src/Engine/Renderer\l/Material/BlinnPhongMaterial.cpp">
<polygon fill="#ffffff" stroke="#000000" points="342,-.5 342,-30.5 519,-30.5 519,-.5 342,-.5"/>
<text text-anchor="start" x="350" y="-18.5" font-family="Helvetica,sans-Serif" font-size="10.00" fill="#000000">src/Engine/Renderer</text>
<text text-anchor="middle" x="430.5" y="-7.5" font-family="Helvetica,sans-Serif" font-size="10.00" fill="#000000">/Material/BlinnPhongMaterial.cpp</text>
</a>
</g>
</g>
<!-- Node10&#45;&gt;Node13 -->
<g id="edge3" class="edge">
<title>Node10&#45;&gt;Node13</title>
<path fill="none" stroke="#191970" d="M366.1775,-61.3469C380.1643,-51.3776 396.5308,-39.7121 409.2544,-30.6432"/>
<polygon fill="#191970" stroke="#191970" points="363.9418,-58.6423 357.8301,-67.2967 368.0047,-64.3426 363.9418,-58.6423"/>
</g>
<!-- Node14 -->
<g id="node5" class="node">
<title>Node14</title>
<g id="a_node5"><a xlink:href="MaterialConverters_8cpp.html" target="_top" xlink:title="src/Engine/Renderer\l/Material/MaterialConverters.cpp">
<polygon fill="#ffffff" stroke="#000000" points="536.5,-.5 536.5,-30.5 712.5,-30.5 712.5,-.5 536.5,-.5"/>
<text text-anchor="start" x="544.5" y="-18.5" font-family="Helvetica,sans-Serif" font-size="10.00" fill="#000000">src/Engine/Renderer</text>
<text text-anchor="middle" x="624.5" y="-7.5" font-family="Helvetica,sans-Serif" font-size="10.00" fill="#000000">/Material/MaterialConverters.cpp</text>
</a>
</g>
</g>
<!-- Node10&#45;&gt;Node14 -->
<g id="edge4" class="edge">
<title>Node10&#45;&gt;Node14</title>
<path fill="none" stroke="#191970" d="M411.0479,-65.1573C457.0513,-54.4551 515.4896,-40.8601 559.5853,-30.6017"/>
<polygon fill="#191970" stroke="#191970" points="410.0796,-61.789 401.1328,-67.4639 411.6658,-68.6069 410.0796,-61.789"/>
</g>
</g>
</svg>
