<?xml version="1.0" encoding="UTF-8" standalone="no"?>
<!DOCTYPE svg PUBLIC "-//W3C//DTD SVG 1.1//EN"
 "http://www.w3.org/Graphics/SVG/1.1/DTD/svg11.dtd">
<!-- Generated by graphviz version 2.40.1 (20161225.0304)
 -->
<!-- Title: src/Core/Asset/MaterialData.hpp Pages: 1 -->
<svg width="1704pt" height="296pt"
 viewBox="0.00 0.00 1703.50 296.00" xmlns="http://www.w3.org/2000/svg" xmlns:xlink="http://www.w3.org/1999/xlink">
<g id="graph0" class="graph" transform="scale(1 1) rotate(0) translate(4 292)">
<title>src/Core/Asset/MaterialData.hpp</title>
<polygon fill="#ffffff" stroke="transparent" points="-4,4 -4,-292 1699.5,-292 1699.5,4 -4,4"/>
<!-- Node12 -->
<g id="node1" class="node">
<title>Node12</title>
<polygon fill="#bfbfbf" stroke="#000000" points="805.5,-268.5 805.5,-287.5 978.5,-287.5 978.5,-268.5 805.5,-268.5"/>
<text text-anchor="middle" x="892" y="-275.5" font-family="Helvetica,sans-Serif" font-size="10.00" fill="#000000">src/Core/Asset/MaterialData.hpp</text>
</g>
<!-- Node13 -->
<g id="node2" class="node">
<title>Node13</title>
<g id="a_node2"><a xlink:href="BlinnPhongMaterialData_8hpp.html" target="_top" xlink:title="src/Core/Asset/BlinnPhong\lMaterialData.hpp">
<polygon fill="#ffffff" stroke="#000000" points="346,-201.5 346,-231.5 490,-231.5 490,-201.5 346,-201.5"/>
<text text-anchor="start" x="354" y="-219.5" font-family="Helvetica,sans-Serif" font-size="10.00" fill="#000000">src/Core/Asset/BlinnPhong</text>
<text text-anchor="middle" x="418" y="-208.5" font-family="Helvetica,sans-Serif" font-size="10.00" fill="#000000">MaterialData.hpp</text>
</a>
</g>
</g>
<!-- Node12&#45;&gt;Node13 -->
<g id="edge1" class="edge">
<title>Node12&#45;&gt;Node13</title>
<path fill="none" stroke="#191970" d="M808.7948,-267.2044C718.5529,-255.4958 575.9501,-236.9935 490.2442,-225.8735"/>
<polygon fill="#191970" stroke="#191970" points="808.3499,-270.6759 818.7171,-268.4918 809.2506,-263.7341 808.3499,-270.6759"/>
</g>
<!-- Node18 -->
<g id="node7" class="node">
<title>Node18</title>
<g id="a_node7"><a xlink:href="MaterialData_8inl.html" target="_top" xlink:title="src/Core/Asset/MaterialData.inl">
<polygon fill="#ffffff" stroke="#000000" points="808.5,-207 808.5,-226 975.5,-226 975.5,-207 808.5,-207"/>
<text text-anchor="middle" x="892" y="-214" font-family="Helvetica,sans-Serif" font-size="10.00" fill="#000000">src/Core/Asset/MaterialData.inl</text>
</a>
</g>
</g>
<!-- Node12&#45;&gt;Node18 -->
<g id="edge7" class="edge">
<title>Node12&#45;&gt;Node18</title>
<path fill="none" stroke="#191970" d="M885.6492,-258.2462C884.8402,-247.5519 885.2608,-234.814 886.9112,-226.2449"/>
<polygon fill="#191970" stroke="#191970" points="882.2055,-258.9113 886.9375,-268.3906 889.1497,-258.0293 882.2055,-258.9113"/>
</g>
<!-- Node19 -->
<g id="node8" class="node">
<title>Node19</title>
<g id="a_node8"><a xlink:href="GeometryData_8hpp.html" target="_top" xlink:title="src/Core/Asset/GeometryData.hpp">
<polygon fill="#ffffff" stroke="#000000" points="994,-207 994,-226 1176,-226 1176,-207 994,-207"/>
<text text-anchor="middle" x="1085" y="-214" font-family="Helvetica,sans-Serif" font-size="10.00" fill="#000000">src/Core/Asset/GeometryData.hpp</text>
</a>
</g>
</g>
<!-- Node12&#45;&gt;Node19 -->
<g id="edge9" class="edge">
<title>Node12&#45;&gt;Node19</title>
<path fill="none" stroke="#191970" d="M932.0099,-265.2507C968.6294,-253.5818 1021.9997,-236.5752 1055.0555,-226.0419"/>
<polygon fill="#191970" stroke="#191970" points="930.6216,-262.0197 922.1563,-268.3906 932.7469,-268.6892 930.6216,-262.0197"/>
</g>
<!-- Node36 -->
<g id="node25" class="node">
<title>Node36</title>
<g id="a_node25"><a xlink:href="MaterialData_8cpp.html" target="_top" xlink:title="src/Core/Asset/MaterialData.cpp">
<polygon fill="#ffffff" stroke="#000000" points="1194.5,-207 1194.5,-226 1367.5,-226 1367.5,-207 1194.5,-207"/>
<text text-anchor="middle" x="1281" y="-214" font-family="Helvetica,sans-Serif" font-size="10.00" fill="#000000">src/Core/Asset/MaterialData.cpp</text>
</a>
</g>
</g>
<!-- Node12&#45;&gt;Node36 -->
<g id="edge32" class="edge">
<title>Node12&#45;&gt;Node36</title>
<path fill="none" stroke="#191970" d="M963.197,-266.911C1022.5385,-257.6472 1109.2903,-244.055 1185,-232 1197.0875,-230.0753 1210.0282,-227.9977 1222.3693,-226.008"/>
<polygon fill="#191970" stroke="#191970" points="962.5214,-263.474 953.1807,-268.4742 963.6008,-270.3903 962.5214,-263.474"/>
</g>
<!-- Node14 -->
<g id="node3" class="node">
<title>Node14</title>
<g id="a_node3"><a xlink:href="BlinnPhongMaterialData_8cpp.html" target="_top" xlink:title="src/Core/Asset/BlinnPhong\lMaterialData.cpp">
<polygon fill="#ffffff" stroke="#000000" points="94,-134.5 94,-164.5 238,-164.5 238,-134.5 94,-134.5"/>
<text text-anchor="start" x="102" y="-152.5" font-family="Helvetica,sans-Serif" font-size="10.00" fill="#000000">src/Core/Asset/BlinnPhong</text>
<text text-anchor="middle" x="166" y="-141.5" font-family="Helvetica,sans-Serif" font-size="10.00" fill="#000000">MaterialData.cpp</text>
</a>
</g>
</g>
<!-- Node13&#45;&gt;Node14 -->
<g id="edge2" class="edge">
<title>Node13&#45;&gt;Node14</title>
<path fill="none" stroke="#191970" d="M351.7556,-198.8874C311.6609,-188.2273 261.0606,-174.774 222.8004,-164.6017"/>
<polygon fill="#191970" stroke="#191970" points="350.8827,-202.2768 361.4463,-201.4639 352.6814,-195.5119 350.8827,-202.2768"/>
</g>
<!-- Node15 -->
<g id="node4" class="node">
<title>Node15</title>
<g id="a_node4"><a xlink:href="BlinnPhongMaterialData_8inl.html" target="_top" xlink:title="src/Core/Asset/BlinnPhong\lMaterialData.inl">
<polygon fill="#ffffff" stroke="#000000" points="256,-134.5 256,-164.5 400,-164.5 400,-134.5 256,-134.5"/>
<text text-anchor="start" x="264" y="-152.5" font-family="Helvetica,sans-Serif" font-size="10.00" fill="#000000">src/Core/Asset/BlinnPhong</text>
<text text-anchor="middle" x="328" y="-141.5" font-family="Helvetica,sans-Serif" font-size="10.00" fill="#000000">MaterialData.inl</text>
</a>
</g>
</g>
<!-- Node13&#45;&gt;Node15 -->
<g id="edge3" class="edge">
<title>Node13&#45;&gt;Node15</title>
<path fill="none" stroke="#191970" d="M383.2606,-195.3469C369.1515,-185.3776 353.6719,-173.7121 342.588,-164.6432"/>
<polygon fill="#191970" stroke="#191970" points="381.6084,-198.4611 391.8168,-201.2967 385.6048,-192.714 381.6084,-198.4611"/>
</g>
<!-- Node16 -->
<g id="node5" class="node">
<title>Node16</title>
<g id="a_node5"><a xlink:href="BlinnPhongMaterial_8cpp.html" target="_top" xlink:title="src/Engine/Renderer\l/Material/BlinnPhongMaterial.cpp">
<polygon fill="#ffffff" stroke="#000000" points="418.5,-134.5 418.5,-164.5 595.5,-164.5 595.5,-134.5 418.5,-134.5"/>
<text text-anchor="start" x="426.5" y="-152.5" font-family="Helvetica,sans-Serif" font-size="10.00" fill="#000000">src/Engine/Renderer</text>
<text text-anchor="middle" x="507" y="-141.5" font-family="Helvetica,sans-Serif" font-size="10.00" fill="#000000">/Material/BlinnPhongMaterial.cpp</text>
</a>
</g>
</g>
<!-- Node13&#45;&gt;Node16 -->
<g id="edge5" class="edge">
<title>Node13&#45;&gt;Node16</title>
<path fill="none" stroke="#191970" d="M446.4743,-195.0643C459.6338,-185.1577 474.9513,-173.6265 486.8844,-164.6432"/>
<polygon fill="#191970" stroke="#191970" points="444.0797,-192.486 438.1955,-201.2967 448.2897,-198.0785 444.0797,-192.486"/>
</g>
<!-- Node17 -->
<g id="node6" class="node">
<title>Node17</title>
<g id="a_node6"><a xlink:href="AssimpGeometryDataLoader_8cpp.html" target="_top" xlink:title="src/IO/AssimpLoader\l/AssimpGeometryDataLoader.cpp">
<polygon fill="#ffffff" stroke="#000000" points="614,-134.5 614,-164.5 794,-164.5 794,-134.5 614,-134.5"/>
<text text-anchor="start" x="622" y="-152.5" font-family="Helvetica,sans-Serif" font-size="10.00" fill="#000000">src/IO/AssimpLoader</text>
<text text-anchor="middle" x="704" y="-141.5" font-family="Helvetica,sans-Serif" font-size="10.00" fill="#000000">/AssimpGeometryDataLoader.cpp</text>
</a>
</g>
</g>
<!-- Node13&#45;&gt;Node17 -->
<g id="edge6" class="edge">
<title>Node13&#45;&gt;Node17</title>
<path fill="none" stroke="#191970" d="M492.0302,-199.1573C537.7142,-188.4551 595.7466,-174.8601 639.5361,-164.6017"/>
<polygon fill="#191970" stroke="#191970" points="491.122,-195.7752 482.184,-201.4639 492.7187,-202.5907 491.122,-195.7752"/>
</g>
<!-- Node15&#45;&gt;Node13 -->
<g id="edge4" class="edge">
<title>Node15&#45;&gt;Node13</title>
<path fill="none" stroke="#191970" d="M362.6459,-170.587C376.7488,-180.5488 392.2352,-192.2163 403.3384,-201.2967"/>
<polygon fill="#191970" stroke="#191970" points="364.3039,-167.4771 354.0951,-164.6432 360.3085,-173.2248 364.3039,-167.4771"/>
</g>
<!-- Node18&#45;&gt;Node12 -->
<g id="edge8" class="edge">
<title>Node18&#45;&gt;Node12</title>
<path fill="none" stroke="#191970" d="M898.3635,-236.4235C899.1596,-247.1392 898.7259,-259.8657 897.0625,-268.3906"/>
<polygon fill="#191970" stroke="#191970" points="901.8044,-235.7324 897.0888,-226.2449 894.8586,-236.6023 901.8044,-235.7324"/>
</g>
<!-- Node19&#45;&gt;Node17 -->
<g id="edge31" class="edge">
<title>Node19&#45;&gt;Node17</title>
<path fill="none" stroke="#191970" d="M1020.9271,-205.2326C957.4206,-194.0648 859.7409,-176.8875 789.6132,-164.5553"/>
<polygon fill="#191970" stroke="#191970" points="1020.3615,-208.6868 1030.8166,-206.9717 1021.5739,-201.7925 1020.3615,-208.6868"/>
</g>
<!-- Node20 -->
<g id="node9" class="node">
<title>Node20</title>
<g id="a_node9"><a xlink:href="FileData_8inl.html" target="_top" xlink:title="src/Core/Asset/FileData.inl">
<polygon fill="#ffffff" stroke="#000000" points="854,-140 854,-159 998,-159 998,-140 854,-140"/>
<text text-anchor="middle" x="926" y="-147" font-family="Helvetica,sans-Serif" font-size="10.00" fill="#000000">src/Core/Asset/FileData.inl</text>
</a>
</g>
</g>
<!-- Node19&#45;&gt;Node20 -->
<g id="edge10" class="edge">
<title>Node19&#45;&gt;Node20</title>
<path fill="none" stroke="#191970" d="M1052.7535,-202.9118C1021.8498,-189.8895 975.9935,-170.5664 948.7386,-159.0817"/>
<polygon fill="#191970" stroke="#191970" points="1051.6448,-206.2427 1062.2192,-206.9005 1054.363,-199.792 1051.6448,-206.2427"/>
</g>
<!-- Node24 -->
<g id="node13" class="node">
<title>Node24</title>
<g id="a_node13"><a xlink:href="LightManager_8cpp.html" target="_top" xlink:title="src/Engine/Managers\l/LightManager/LightManager.cpp">
<polygon fill="#ffffff" stroke="#000000" points="0,-.5 0,-30.5 174,-30.5 174,-.5 0,-.5"/>
<text text-anchor="start" x="8" y="-18.5" font-family="Helvetica,sans-Serif" font-size="10.00" fill="#000000">src/Engine/Managers</text>
<text text-anchor="middle" x="87" y="-7.5" font-family="Helvetica,sans-Serif" font-size="10.00" fill="#000000">/LightManager/LightManager.cpp</text>
</a>
</g>
</g>
<!-- Node19&#45;&gt;Node24 -->
<g id="edge29" class="edge">
<title>Node19&#45;&gt;Node24</title>
<path fill="none" stroke="#191970" d="M1017.0466,-205.2185C957.2702,-194.6958 875.2055,-178.6199 845,-165 823.85,-155.4633 824.3699,-143.0332 803,-134 795.7512,-130.9359 363.3559,-60.4202 174.1092,-29.648"/>
<polygon fill="#191970" stroke="#191970" points="1016.73,-208.716 1027.1829,-206.9874 1017.9335,-201.8203 1016.73,-208.716"/>
</g>
<!-- Node27 -->
<g id="node16" class="node">
<title>Node27</title>
<g id="a_node16"><a xlink:href="GeometrySystem_8cpp.html" target="_top" xlink:title="src/Engine/System/Geometry\lSystem.cpp">
<polygon fill="#ffffff" stroke="#000000" points="1443,-.5 1443,-30.5 1601,-30.5 1601,-.5 1443,-.5"/>
<text text-anchor="start" x="1451" y="-18.5" font-family="Helvetica,sans-Serif" font-size="10.00" fill="#000000">src/Engine/System/Geometry</text>
<text text-anchor="middle" x="1522" y="-7.5" font-family="Helvetica,sans-Serif" font-size="10.00" fill="#000000">System.cpp</text>
</a>
</g>
</g>
<!-- Node19&#45;&gt;Node27 -->
<g id="edge30" class="edge">
<title>Node19&#45;&gt;Node27</title>
<path fill="none" stroke="#191970" d="M1066.7448,-199.5316C1050.0513,-181.9435 1030.1794,-154.2421 1046,-134 1070.5496,-102.5895 1313.8517,-53.7302 1442.7609,-29.7527"/>
<polygon fill="#191970" stroke="#191970" points="1064.5054,-202.242 1074.0515,-206.8379 1069.455,-197.2921 1064.5054,-202.242"/>
</g>
<!-- Node32 -->
<g id="node21" class="node">
<title>Node32</title>
<g id="a_node21"><a xlink:href="GeometryData_8inl.html" target="_top" xlink:title="src/Core/Asset/GeometryData.inl">
<polygon fill="#ffffff" stroke="#000000" points="1055,-140 1055,-159 1231,-159 1231,-140 1055,-140"/>
<text text-anchor="middle" x="1143" y="-147" font-family="Helvetica,sans-Serif" font-size="10.00" fill="#000000">src/Core/Asset/GeometryData.inl</text>
</a>
</g>
</g>
<!-- Node19&#45;&gt;Node32 -->
<g id="edge22" class="edge">
<title>Node19&#45;&gt;Node32</title>
<path fill="none" stroke="#191970" d="M1094.5355,-198.4803C1104.3041,-185.7989 1118.9552,-169.3235 1129.8083,-159.0817"/>
<polygon fill="#191970" stroke="#191970" points="1091.4624,-196.7551 1088.4094,-206.9005 1097.1228,-200.8733 1091.4624,-196.7551"/>
</g>
<!-- Node33 -->
<g id="node22" class="node">
<title>Node33</title>
<g id="a_node22"><a xlink:href="GeometryData_8cpp.html" target="_top" xlink:title="src/Core/Asset/GeometryData.cpp">
<polygon fill="#ffffff" stroke="#000000" points="1249,-140 1249,-159 1431,-159 1431,-140 1249,-140"/>
<text text-anchor="middle" x="1340" y="-147" font-family="Helvetica,sans-Serif" font-size="10.00" fill="#000000">src/Core/Asset/GeometryData.cpp</text>
</a>
</g>
</g>
<!-- Node19&#45;&gt;Node33 -->
<g id="edge24" class="edge">
<title>Node19&#45;&gt;Node33</title>
<path fill="none" stroke="#191970" d="M1131.0626,-204.3973C1180.5002,-191.4078 1258.0306,-171.0371 1303.4478,-159.1039"/>
<polygon fill="#191970" stroke="#191970" points="1130.0468,-201.0453 1121.2645,-206.9717 1131.8256,-207.8155 1130.0468,-201.0453"/>
</g>
<!-- Node34 -->
<g id="node23" class="node">
<title>Node34</title>
<g id="a_node23"><a xlink:href="GeometryComponent_8hpp.html" target="_top" xlink:title="src/Engine/Component\l/GeometryComponent.hpp">
<polygon fill="#ffffff" stroke="#000000" points="1449,-134.5 1449,-164.5 1595,-164.5 1595,-134.5 1449,-134.5"/>
<text text-anchor="start" x="1457" y="-152.5" font-family="Helvetica,sans-Serif" font-size="10.00" fill="#000000">src/Engine/Component</text>
<text text-anchor="middle" x="1522" y="-141.5" font-family="Helvetica,sans-Serif" font-size="10.00" fill="#000000">/GeometryComponent.hpp</text>
</a>
</g>
</g>
<!-- Node19&#45;&gt;Node34 -->
<g id="edge25" class="edge">
<title>Node19&#45;&gt;Node34</title>
<path fill="none" stroke="#191970" d="M1155.7016,-205.4194C1165.539,-203.9132 1175.5197,-202.4039 1185,-201 1298.2225,-184.2339 1327.0699,-183.6344 1440,-165 1442.859,-164.5282 1445.7717,-164.0356 1448.7124,-163.5282"/>
<polygon fill="#191970" stroke="#191970" points="1154.8809,-202.0044 1145.5289,-206.9833 1155.9446,-208.9231 1154.8809,-202.0044"/>
</g>
<!-- Node35 -->
<g id="node24" class="node">
<title>Node35</title>
<g id="a_node24"><a xlink:href="GeometryComponent_8cpp.html" target="_top" xlink:title="src/Engine/Component\l/GeometryComponent.cpp">
<polygon fill="#ffffff" stroke="#000000" points="1550.5,-67.5 1550.5,-97.5 1695.5,-97.5 1695.5,-67.5 1550.5,-67.5"/>
<text text-anchor="start" x="1558.5" y="-85.5" font-family="Helvetica,sans-Serif" font-size="10.00" fill="#000000">src/Engine/Component</text>
<text text-anchor="middle" x="1623" y="-74.5" font-family="Helvetica,sans-Serif" font-size="10.00" fill="#000000">/GeometryComponent.cpp</text>
</a>
</g>
</g>
<!-- Node19&#45;&gt;Node35 -->
<g id="edge28" class="edge">
<title>Node19&#45;&gt;Node35</title>
<path fill="none" stroke="#191970" d="M1152.0172,-205.469C1163.0206,-203.843 1174.3164,-202.2854 1185,-201 1231.3925,-195.4182 1568.719,-195.6377 1604,-165 1623.1987,-148.328 1625.1261,-116.5131 1624.3578,-97.6357"/>
<polygon fill="#191970" stroke="#191970" points="1151.3869,-202.0244 1142.0202,-206.9756 1152.4301,-208.9462 1151.3869,-202.0244"/>
</g>
<!-- Node21 -->
<g id="node10" class="node">
<title>Node21</title>
<g id="a_node10"><a xlink:href="FileData_8hpp.html" target="_top" xlink:title="src/Core/Asset/FileData.hpp">
<polygon fill="#ffffff" stroke="#000000" points="850,-73 850,-92 1000,-92 1000,-73 850,-73"/>
<text text-anchor="middle" x="925" y="-80" font-family="Helvetica,sans-Serif" font-size="10.00" fill="#000000">src/Core/Asset/FileData.hpp</text>
</a>
</g>
</g>
<!-- Node20&#45;&gt;Node21 -->
<g id="edge11" class="edge">
<title>Node20&#45;&gt;Node21</title>
<path fill="none" stroke="#191970" d="M925.7031,-129.6079C925.5181,-117.214 925.2885,-101.8263 925.143,-92.0817"/>
<polygon fill="#191970" stroke="#191970" points="922.2078,-129.9539 925.8567,-139.9005 929.207,-129.8494 922.2078,-129.9539"/>
</g>
<!-- Node22 -->
<g id="node11" class="node">
<title>Node22</title>
<g id="a_node11"><a xlink:href="FileData_8cpp.html" target="_top" xlink:title="src/Core/Asset/FileData.cpp">
<polygon fill="#ffffff" stroke="#000000" points="192.5,-6 192.5,-25 341.5,-25 341.5,-6 192.5,-6"/>
<text text-anchor="middle" x="267" y="-13" font-family="Helvetica,sans-Serif" font-size="10.00" fill="#000000">src/Core/Asset/FileData.cpp</text>
</a>
</g>
</g>
<!-- Node21&#45;&gt;Node22 -->
<g id="edge12" class="edge">
<title>Node21&#45;&gt;Node22</title>
<path fill="none" stroke="#191970" d="M865.211,-71.2559C855.4716,-69.664 845.4728,-68.1728 836,-67 621.0494,-40.3869 564.7843,-58.923 350,-31 337.9347,-29.4315 324.9682,-27.2507 312.9532,-25.0196"/>
<polygon fill="#191970" stroke="#191970" points="864.7914,-74.7345 875.2335,-72.9422 865.9529,-67.8315 864.7914,-74.7345"/>
</g>
<!-- Node23 -->
<g id="node12" class="node">
<title>Node23</title>
<g id="a_node12"><a xlink:href="CameraManager_8cpp.html" target="_top" xlink:title="src/Engine/Managers\l/CameraManager/CameraManager.cpp">
<polygon fill="#ffffff" stroke="#000000" points="359.5,-.5 359.5,-30.5 562.5,-30.5 562.5,-.5 359.5,-.5"/>
<text text-anchor="start" x="367.5" y="-18.5" font-family="Helvetica,sans-Serif" font-size="10.00" fill="#000000">src/Engine/Managers</text>
<text text-anchor="middle" x="461" y="-7.5" font-family="Helvetica,sans-Serif" font-size="10.00" fill="#000000">/CameraManager/CameraManager.cpp</text>
</a>
</g>
</g>
<!-- Node21&#45;&gt;Node23 -->
<g id="edge13" class="edge">
<title>Node21&#45;&gt;Node23</title>
<path fill="none" stroke="#191970" d="M862.4295,-71.2995C853.5655,-69.8013 844.5584,-68.3261 836,-67 718.542,-48.8002 688.7377,-47.2923 571,-31 568.2299,-30.6167 565.4208,-30.2271 562.5858,-29.8331"/>
<polygon fill="#191970" stroke="#191970" points="861.8983,-74.7594 872.3451,-72.9942 863.0776,-67.8594 861.8983,-74.7594"/>
</g>
<!-- Node21&#45;&gt;Node24 -->
<g id="edge14" class="edge">
<title>Node21&#45;&gt;Node24</title>
<path fill="none" stroke="#191970" d="M866.2565,-71.2665C856.1923,-69.6298 845.817,-68.1215 836,-67 547.2155,-34.008 471.9827,-62.208 183,-31 180.0626,-30.6828 177.0783,-30.3365 174.067,-29.9666"/>
<polygon fill="#191970" stroke="#191970" points="865.7427,-74.7292 876.1847,-72.9364 866.9038,-67.8261 865.7427,-74.7292"/>
</g>
<!-- Node25 -->
<g id="node14" class="node">
<title>Node25</title>
<g id="a_node14"><a xlink:href="RadiumEngine_8cpp.html" target="_top" xlink:title="src/Engine/RadiumEngine.cpp">
<polygon fill="#ffffff" stroke="#000000" points="580.5,-6 580.5,-25 741.5,-25 741.5,-6 580.5,-6"/>
<text text-anchor="middle" x="661" y="-13" font-family="Helvetica,sans-Serif" font-size="10.00" fill="#000000">src/Engine/RadiumEngine.cpp</text>
</a>
</g>
</g>
<!-- Node21&#45;&gt;Node25 -->
<g id="edge15" class="edge">
<title>Node21&#45;&gt;Node25</title>
<path fill="none" stroke="#191970" d="M877.6319,-70.4785C826.4645,-57.4929 745.9606,-37.062 698.8423,-25.1039"/>
<polygon fill="#191970" stroke="#191970" points="876.9019,-73.9042 887.4556,-72.9717 878.6239,-67.1193 876.9019,-73.9042"/>
</g>
<!-- Node26 -->
<g id="node15" class="node">
<title>Node26</title>
<g id="a_node15"><a xlink:href="Renderer_8cpp.html" target="_top" xlink:title="src/Engine/Renderer\l/Renderer.cpp">
<polygon fill="#ffffff" stroke="#000000" points="759.5,-.5 759.5,-30.5 872.5,-30.5 872.5,-.5 759.5,-.5"/>
<text text-anchor="start" x="767.5" y="-18.5" font-family="Helvetica,sans-Serif" font-size="10.00" fill="#000000">src/Engine/Renderer</text>
<text text-anchor="middle" x="816" y="-7.5" font-family="Helvetica,sans-Serif" font-size="10.00" fill="#000000">/Renderer.cpp</text>
</a>
</g>
</g>
<!-- Node21&#45;&gt;Node26 -->
<g id="edge16" class="edge">
<title>Node21&#45;&gt;Node26</title>
<path fill="none" stroke="#191970" d="M900.6472,-67.5308C882.7045,-56.5019 858.4012,-41.5631 840.4384,-30.5218"/>
<polygon fill="#191970" stroke="#191970" points="899.0308,-70.6456 909.383,-72.9005 902.6965,-64.6821 899.0308,-70.6456"/>
</g>
<!-- Node21&#45;&gt;Node27 -->
<g id="edge17" class="edge">
<title>Node21&#45;&gt;Node27</title>
<path fill="none" stroke="#191970" d="M985.1577,-71.2944C994.7828,-69.7119 1004.6497,-68.2136 1014,-67 1199.3537,-42.943 1247.6463,-55.057 1433,-31 1436.2662,-30.5761 1439.5955,-30.1174 1442.9555,-29.6325"/>
<polygon fill="#191970" stroke="#191970" points="984.5255,-67.8515 975.2466,-72.9656 985.6894,-74.7541 984.5255,-67.8515"/>
</g>
<!-- Node28 -->
<g id="node17" class="node">
<title>Node28</title>
<g id="a_node17"><a xlink:href="Viewer_8cpp.html" target="_top" xlink:title="src/GuiBase/Viewer\l/Viewer.cpp">
<polygon fill="#ffffff" stroke="#000000" points="890.5,-.5 890.5,-30.5 1001.5,-30.5 1001.5,-.5 890.5,-.5"/>
<text text-anchor="start" x="898.5" y="-18.5" font-family="Helvetica,sans-Serif" font-size="10.00" fill="#000000">src/GuiBase/Viewer</text>
<text text-anchor="middle" x="946" y="-7.5" font-family="Helvetica,sans-Serif" font-size="10.00" fill="#000000">/Viewer.cpp</text>
</a>
</g>
</g>
<!-- Node21&#45;&gt;Node28 -->
<g id="edge18" class="edge">
<title>Node21&#45;&gt;Node28</title>
<path fill="none" stroke="#191970" d="M931.0793,-63.1042C934.3313,-52.7287 938.2755,-40.145 941.2917,-30.5218"/>
<polygon fill="#191970" stroke="#191970" points="927.6599,-62.3114 928.0088,-72.9005 934.3395,-64.4051 927.6599,-62.3114"/>
</g>
<!-- Node29 -->
<g id="node18" class="node">
<title>Node29</title>
<g id="a_node18"><a xlink:href="AssimpFileLoader_8cpp.html" target="_top" xlink:title="src/IO/AssimpLoader\l/AssimpFileLoader.cpp">
<polygon fill="#ffffff" stroke="#000000" points="1019.5,-.5 1019.5,-30.5 1144.5,-30.5 1144.5,-.5 1019.5,-.5"/>
<text text-anchor="start" x="1027.5" y="-18.5" font-family="Helvetica,sans-Serif" font-size="10.00" fill="#000000">src/IO/AssimpLoader</text>
<text text-anchor="middle" x="1082" y="-7.5" font-family="Helvetica,sans-Serif" font-size="10.00" fill="#000000">/AssimpFileLoader.cpp</text>
</a>
</g>
</g>
<!-- Node21&#45;&gt;Node29 -->
<g id="edge19" class="edge">
<title>Node21&#45;&gt;Node29</title>
<path fill="none" stroke="#191970" d="M956.9243,-68.8763C983.015,-57.742 1019.8585,-42.019 1046.7997,-30.5218"/>
<polygon fill="#191970" stroke="#191970" points="955.318,-65.7563 947.4943,-72.9005 958.0656,-72.1946 955.318,-65.7563"/>
</g>
<!-- Node30 -->
<g id="node19" class="node">
<title>Node30</title>
<g id="a_node19"><a xlink:href="CameraLoader_8cpp.html" target="_top" xlink:title="src/IO/CameraLoader\l/CameraLoader.cpp">
<polygon fill="#ffffff" stroke="#000000" points="1162.5,-.5 1162.5,-30.5 1281.5,-30.5 1281.5,-.5 1162.5,-.5"/>
<text text-anchor="start" x="1170.5" y="-18.5" font-family="Helvetica,sans-Serif" font-size="10.00" fill="#000000">src/IO/CameraLoader</text>
<text text-anchor="middle" x="1222" y="-7.5" font-family="Helvetica,sans-Serif" font-size="10.00" fill="#000000">/CameraLoader.cpp</text>
</a>
</g>
</g>
<!-- Node21&#45;&gt;Node30 -->
<g id="edge20" class="edge">
<title>Node21&#45;&gt;Node30</title>
<path fill="none" stroke="#191970" d="M977.2137,-70.7211C1029.0041,-59.0378 1108.2621,-41.158 1162.4688,-28.9296"/>
<polygon fill="#191970" stroke="#191970" points="976.2221,-67.3568 967.2374,-72.9717 977.7625,-74.1852 976.2221,-67.3568"/>
</g>
<!-- Node31 -->
<g id="node20" class="node">
<title>Node31</title>
<g id="a_node20"><a xlink:href="TinyPlyFileLoader_8cpp.html" target="_top" xlink:title="src/IO/TinyPlyLoader\l/TinyPlyFileLoader.cpp">
<polygon fill="#ffffff" stroke="#000000" points="1299.5,-.5 1299.5,-30.5 1424.5,-30.5 1424.5,-.5 1299.5,-.5"/>
<text text-anchor="start" x="1307.5" y="-18.5" font-family="Helvetica,sans-Serif" font-size="10.00" fill="#000000">src/IO/TinyPlyLoader</text>
<text text-anchor="middle" x="1362" y="-7.5" font-family="Helvetica,sans-Serif" font-size="10.00" fill="#000000">/TinyPlyFileLoader.cpp</text>
</a>
</g>
</g>
<!-- Node21&#45;&gt;Node31 -->
<g id="edge21" class="edge">
<title>Node21&#45;&gt;Node31</title>
<path fill="none" stroke="#191970" d="M987.564,-71.2575C996.429,-69.7656 1005.4381,-68.3033 1014,-67 1136.2969,-48.3834 1168.0958,-52.0351 1290,-31 1293.024,-30.4782 1296.1139,-29.918 1299.2306,-29.3312"/>
<polygon fill="#191970" stroke="#191970" points="986.9175,-67.8171 977.6478,-72.9477 988.0937,-74.7176 986.9175,-67.8171"/>
</g>
<!-- Node32&#45;&gt;Node19 -->
<g id="edge23" class="edge">
<title>Node32&#45;&gt;Node19</title>
<path fill="none" stroke="#191970" d="M1133.4815,-167.4976C1123.7185,-180.1747 1109.0681,-196.6515 1098.2106,-206.9005"/>
<polygon fill="#191970" stroke="#191970" points="1136.5511,-169.2276 1139.6026,-159.0817 1130.8901,-165.1102 1136.5511,-169.2276"/>
</g>
<!-- Node34&#45;&gt;Node27 -->
<g id="edge27" class="edge">
<title>Node34&#45;&gt;Node27</title>
<path fill="none" stroke="#191970" d="M1522,-124.3415C1522,-96.8131 1522,-53.5714 1522,-30.7614"/>
<polygon fill="#191970" stroke="#191970" points="1518.5001,-124.3889 1522,-134.389 1525.5001,-124.389 1518.5001,-124.3889"/>
</g>
<!-- Node34&#45;&gt;Node35 -->
<g id="edge26" class="edge">
<title>Node34&#45;&gt;Node35</title>
<path fill="none" stroke="#191970" d="M1553.2119,-128.7951C1568.3457,-118.7558 1586.1992,-106.9124 1600.0598,-97.7177"/>
<polygon fill="#191970" stroke="#191970" points="1551.0648,-126.0193 1544.6664,-134.4639 1554.9344,-131.8525 1551.0648,-126.0193"/>
</g>
</g>
</svg>
