<?xml version="1.0" encoding="UTF-8" standalone="no"?>
<!DOCTYPE svg PUBLIC "-//W3C//DTD SVG 1.1//EN"
 "http://www.w3.org/Graphics/SVG/1.1/DTD/svg11.dtd">
<!-- Generated by graphviz version 2.40.1 (20161225.0304)
 -->
<!-- Title: src/Engine/Renderer/Material/MaterialConverters.hpp Pages: 1 -->
<svg width="377pt" height="207pt"
 viewBox="0.00 0.00 377.00 207.00" xmlns="http://www.w3.org/2000/svg" xmlns:xlink="http://www.w3.org/1999/xlink">
<g id="graph0" class="graph" transform="scale(1 1) rotate(0) translate(4 203)">
<title>src/Engine/Renderer/Material/MaterialConverters.hpp</title>
<polygon fill="#ffffff" stroke="transparent" points="-4,4 -4,-203 373,-203 373,4 -4,4"/>
<!-- Node0 -->
<g id="node1" class="node">
<title>Node0</title>
<polygon fill="#bfbfbf" stroke="#000000" points="186,-168.5 186,-198.5 362,-198.5 362,-168.5 186,-168.5"/>
<text text-anchor="start" x="194" y="-186.5" font-family="Helvetica,sans-Serif" font-size="10.00" fill="#000000">src/Engine/Renderer</text>
<text text-anchor="middle" x="274" y="-175.5" font-family="Helvetica,sans-Serif" font-size="10.00" fill="#000000">/Material/MaterialConverters.hpp</text>
</g>
<!-- Node1 -->
<g id="node2" class="node">
<title>Node1</title>
<g id="a_node2"><a xlink:href="RaEngine_8hpp.html" target="_top" xlink:title="Engine/RaEngine.hpp">
<polygon fill="#ffffff" stroke="#000000" points="104.5,-112.5 104.5,-131.5 223.5,-131.5 223.5,-112.5 104.5,-112.5"/>
<text text-anchor="middle" x="164" y="-119.5" font-family="Helvetica,sans-Serif" font-size="10.00" fill="#000000">Engine/RaEngine.hpp</text>
</a>
</g>
</g>
<!-- Node0&#45;&gt;Node1 -->
<g id="edge1" class="edge">
<title>Node0&#45;&gt;Node1</title>
<path fill="none" stroke="#191970" d="M247.091,-168.4554C229.7032,-158.734 207.1951,-146.15 189.9916,-136.5317"/>
<polygon fill="#191970" stroke="#191970" points="191.4826,-133.3554 181.0461,-131.5303 188.0665,-139.4653 191.4826,-133.3554"/>
</g>
<!-- Node8 -->
<g id="node9" class="node">
<title>Node8</title>
<polygon fill="#ffffff" stroke="#bfbfbf" points="241.5,-112.5 241.5,-131.5 306.5,-131.5 306.5,-112.5 241.5,-112.5"/>
<text text-anchor="middle" x="274" y="-119.5" font-family="Helvetica,sans-Serif" font-size="10.00" fill="#000000">functional</text>
</g>
<!-- Node0&#45;&gt;Node8 -->
<g id="edge8" class="edge">
<title>Node0&#45;&gt;Node8</title>
<path fill="none" stroke="#191970" d="M274,-168.2977C274,-160.3834 274,-150.6043 274,-142.0759"/>
<polygon fill="#191970" stroke="#191970" points="277.5001,-141.8469 274,-131.8469 270.5001,-141.847 277.5001,-141.8469"/>
</g>
<!-- Node9 -->
<g id="node10" class="node">
<title>Node9</title>
<polygon fill="#ffffff" stroke="#bfbfbf" points="325,-112.5 325,-131.5 369,-131.5 369,-112.5 325,-112.5"/>
<text text-anchor="middle" x="347" y="-119.5" font-family="Helvetica,sans-Serif" font-size="10.00" fill="#000000">string</text>
</g>
<!-- Node0&#45;&gt;Node9 -->
<g id="edge9" class="edge">
<title>Node0&#45;&gt;Node9</title>
<path fill="none" stroke="#191970" d="M292.0449,-168.2977C302.8114,-159.2274 316.4851,-147.7077 327.4995,-138.4285"/>
<polygon fill="#191970" stroke="#191970" points="329.9191,-140.9667 335.3118,-131.8469 325.4089,-135.6132 329.9191,-140.9667"/>
</g>
<!-- Node2 -->
<g id="node3" class="node">
<title>Node2</title>
<g id="a_node3"><a xlink:href="CoreMacros_8hpp.html" target="_top" xlink:title="Core/CoreMacros.hpp">
<polygon fill="#ffffff" stroke="#000000" points="104,-56.5 104,-75.5 224,-75.5 224,-56.5 104,-56.5"/>
<text text-anchor="middle" x="164" y="-63.5" font-family="Helvetica,sans-Serif" font-size="10.00" fill="#000000">Core/CoreMacros.hpp</text>
</a>
</g>
</g>
<!-- Node1&#45;&gt;Node2 -->
<g id="edge2" class="edge">
<title>Node1&#45;&gt;Node2</title>
<path fill="none" stroke="#191970" d="M164,-112.2455C164,-104.9382 164,-94.6944 164,-85.7046"/>
<polygon fill="#191970" stroke="#191970" points="167.5001,-85.6426 164,-75.6427 160.5001,-85.6427 167.5001,-85.6426"/>
</g>
<!-- Node3 -->
<g id="node4" class="node">
<title>Node3</title>
<polygon fill="#ffffff" stroke="#bfbfbf" points="0,-.5 0,-19.5 52,-19.5 52,-.5 0,-.5"/>
<text text-anchor="middle" x="26" y="-7.5" font-family="Helvetica,sans-Serif" font-size="10.00" fill="#000000">cassert</text>
</g>
<!-- Node2&#45;&gt;Node3 -->
<g id="edge3" class="edge">
<title>Node2&#45;&gt;Node3</title>
<path fill="none" stroke="#191970" d="M140.277,-56.3733C117.8263,-47.2629 83.9261,-33.5062 58.8745,-23.3404"/>
<polygon fill="#191970" stroke="#191970" points="59.9957,-20.0182 49.4135,-19.5011 57.3635,-26.5045 59.9957,-20.0182"/>
</g>
<!-- Node4 -->
<g id="node5" class="node">
<title>Node4</title>
<polygon fill="#ffffff" stroke="#bfbfbf" points="70,-.5 70,-19.5 116,-19.5 116,-.5 70,-.5"/>
<text text-anchor="middle" x="93" y="-7.5" font-family="Helvetica,sans-Serif" font-size="10.00" fill="#000000">cstdio</text>
</g>
<!-- Node2&#45;&gt;Node4 -->
<g id="edge4" class="edge">
<title>Node2&#45;&gt;Node4</title>
<path fill="none" stroke="#191970" d="M151.6327,-56.2455C141.0446,-47.8943 125.5936,-35.7076 113.2107,-25.9408"/>
<polygon fill="#191970" stroke="#191970" points="115.2447,-23.0875 105.2255,-19.6427 110.9097,-28.5837 115.2447,-23.0875"/>
</g>
<!-- Node5 -->
<g id="node6" class="node">
<title>Node5</title>
<polygon fill="#ffffff" stroke="#bfbfbf" points="134,-.5 134,-19.5 194,-19.5 194,-.5 134,-.5"/>
<text text-anchor="middle" x="164" y="-7.5" font-family="Helvetica,sans-Serif" font-size="10.00" fill="#000000">iostream</text>
</g>
<!-- Node2&#45;&gt;Node5 -->
<g id="edge5" class="edge">
<title>Node2&#45;&gt;Node5</title>
<path fill="none" stroke="#191970" d="M164,-56.2455C164,-48.9382 164,-38.6944 164,-29.7046"/>
<polygon fill="#191970" stroke="#191970" points="167.5001,-29.6426 164,-19.6427 160.5001,-29.6427 167.5001,-29.6426"/>
</g>
<!-- Node6 -->
<g id="node7" class="node">
<title>Node6</title>
<polygon fill="#ffffff" stroke="#bfbfbf" points="212,-.5 212,-19.5 268,-19.5 268,-.5 212,-.5"/>
<text text-anchor="middle" x="240" y="-7.5" font-family="Helvetica,sans-Serif" font-size="10.00" fill="#000000">sstream</text>
</g>
<!-- Node2&#45;&gt;Node6 -->
<g id="edge6" class="edge">
<title>Node2&#45;&gt;Node6</title>
<path fill="none" stroke="#191970" d="M177.2382,-56.2455C188.681,-47.814 205.4296,-35.4729 218.7475,-25.6598"/>
<polygon fill="#191970" stroke="#191970" points="220.9391,-28.3924 226.9135,-19.6427 216.7867,-22.757 220.9391,-28.3924"/>
</g>
<!-- Node7 -->
<g id="node8" class="node">
<title>Node7</title>
<polygon fill="#ffffff" stroke="#bfbfbf" points="286,-.5 286,-19.5 334,-19.5 334,-.5 286,-.5"/>
<text text-anchor="middle" x="310" y="-7.5" font-family="Helvetica,sans-Serif" font-size="10.00" fill="#000000">thread</text>
</g>
<!-- Node2&#45;&gt;Node7 -->
<g id="edge7" class="edge">
<title>Node2&#45;&gt;Node7</title>
<path fill="none" stroke="#191970" d="M189.0983,-56.3733C213.1001,-47.1671 249.4713,-33.2165 276.0524,-23.021"/>
<polygon fill="#191970" stroke="#191970" points="277.631,-26.1642 285.7144,-19.315 275.1242,-19.6285 277.631,-26.1642"/>
</g>
</g>
</svg>
