<?xml version="1.0" encoding="UTF-8" standalone="no"?>
<!DOCTYPE svg PUBLIC "-//W3C//DTD SVG 1.1//EN"
 "http://www.w3.org/Graphics/SVG/1.1/DTD/svg11.dtd">
<!-- Generated by graphviz version 2.40.1 (20161225.0304)
 -->
<!-- Title: src/Engine/Renderer/Material/Material.hpp Pages: 1 -->
<svg width="1366pt" height="475pt"
 viewBox="0.00 0.00 1366.00 475.00" xmlns="http://www.w3.org/2000/svg" xmlns:xlink="http://www.w3.org/1999/xlink">
<g id="graph0" class="graph" transform="scale(1 1) rotate(0) translate(4 471)">
<title>src/Engine/Renderer/Material/Material.hpp</title>
<polygon fill="#ffffff" stroke="transparent" points="-4,4 -4,-471 1362,-471 1362,4 -4,4"/>
<!-- Node0 -->
<g id="node1" class="node">
<title>Node0</title>
<polygon fill="#bfbfbf" stroke="#000000" points="842,-436.5 842,-466.5 965,-466.5 965,-436.5 842,-436.5"/>
<text text-anchor="start" x="850" y="-454.5" font-family="Helvetica,sans-Serif" font-size="10.00" fill="#000000">src/Engine/Renderer</text>
<text text-anchor="middle" x="903.5" y="-443.5" font-family="Helvetica,sans-Serif" font-size="10.00" fill="#000000">/Material/Material.hpp</text>
</g>
<!-- Node1 -->
<g id="node2" class="node">
<title>Node1</title>
<g id="a_node2"><a xlink:href="RaEngine_8hpp.html" target="_top" xlink:title="Engine/RaEngine.hpp">
<polygon fill="#ffffff" stroke="#000000" points="589,-112.5 589,-131.5 708,-131.5 708,-112.5 589,-112.5"/>
<text text-anchor="middle" x="648.5" y="-119.5" font-family="Helvetica,sans-Serif" font-size="10.00" fill="#000000">Engine/RaEngine.hpp</text>
</a>
</g>
</g>
<!-- Node0&#45;&gt;Node1 -->
<g id="edge1" class="edge">
<title>Node0&#45;&gt;Node1</title>
<path fill="none" stroke="#191970" d="M841.9591,-446.2821C750.5976,-437.9051 587.9186,-420.3196 570.5,-400 502.7778,-320.9991 596.1665,-187.3323 633.9163,-139.5949"/>
<polygon fill="#191970" stroke="#191970" points="636.7176,-141.6968 640.2662,-131.7139 631.2667,-137.3049 636.7176,-141.6968"/>
</g>
<!-- Node8 -->
<g id="node9" class="node">
<title>Node8</title>
<polygon fill="#ffffff" stroke="#bfbfbf" points="1162.5,-375 1162.5,-394 1200.5,-394 1200.5,-375 1162.5,-375"/>
<text text-anchor="middle" x="1181.5" y="-382" font-family="Helvetica,sans-Serif" font-size="10.00" fill="#000000">map</text>
</g>
<!-- Node0&#45;&gt;Node8 -->
<g id="edge8" class="edge">
<title>Node0&#45;&gt;Node8</title>
<path fill="none" stroke="#191970" d="M965.2085,-442.6014C1015.3917,-434.401 1087.6055,-420.3929 1148.5,-400 1150.1506,-399.4472 1151.8273,-398.8344 1153.5056,-398.1807"/>
<polygon fill="#191970" stroke="#191970" points="1155.1515,-401.2832 1162.9624,-394.1249 1152.3924,-394.8499 1155.1515,-401.2832"/>
</g>
<!-- Node9 -->
<g id="node10" class="node">
<title>Node9</title>
<polygon fill="#ffffff" stroke="#bfbfbf" points="1048.5,-112.5 1048.5,-131.5 1092.5,-131.5 1092.5,-112.5 1048.5,-112.5"/>
<text text-anchor="middle" x="1070.5" y="-119.5" font-family="Helvetica,sans-Serif" font-size="10.00" fill="#000000">string</text>
</g>
<!-- Node0&#45;&gt;Node9 -->
<g id="edge9" class="edge">
<title>Node0&#45;&gt;Node9</title>
<path fill="none" stroke="#191970" d="M965.1003,-442.7988C1033.5307,-429.2526 1134.5,-395.9698 1134.5,-317.5 1134.5,-317.5 1134.5,-317.5 1134.5,-250.5 1134.5,-206.9638 1104.7008,-163.011 1085.7699,-139.4811"/>
<polygon fill="#191970" stroke="#191970" points="1088.2192,-136.9527 1079.1313,-131.5064 1082.8393,-141.4312 1088.2192,-136.9527"/>
</g>
<!-- Node10 -->
<g id="node11" class="node">
<title>Node10</title>
<g id="a_node11"><a xlink:href="Types_8hpp.html" target="_top" xlink:title="Core/Types.hpp">
<polygon fill="#ffffff" stroke="#000000" points="89,-174 89,-193 180,-193 180,-174 89,-174"/>
<text text-anchor="middle" x="134.5" y="-181" font-family="Helvetica,sans-Serif" font-size="10.00" fill="#000000">Core/Types.hpp</text>
</a>
</g>
</g>
<!-- Node0&#45;&gt;Node10 -->
<g id="edge10" class="edge">
<title>Node0&#45;&gt;Node10</title>
<path fill="none" stroke="#191970" d="M841.7501,-446.4569C694.0347,-433.5066 324.7532,-395.6295 219.5,-333 171.0907,-304.1947 147.8674,-236.6447 139.0003,-203.1058"/>
<polygon fill="#191970" stroke="#191970" points="142.333,-202.0036 136.5279,-193.1407 135.539,-203.6893 142.333,-202.0036"/>
</g>
<!-- Node15 -->
<g id="node16" class="node">
<title>Node15</title>
<g id="a_node16"><a xlink:href="RenderParameters_8hpp.html" target="_top" xlink:title="Engine/Renderer/RenderTechnique\l/RenderParameters.hpp">
<polygon fill="#ffffff" stroke="#000000" points="579.5,-369.5 579.5,-399.5 761.5,-399.5 761.5,-369.5 579.5,-369.5"/>
<text text-anchor="start" x="587.5" y="-387.5" font-family="Helvetica,sans-Serif" font-size="10.00" fill="#000000">Engine/Renderer/RenderTechnique</text>
<text text-anchor="middle" x="670.5" y="-376.5" font-family="Helvetica,sans-Serif" font-size="10.00" fill="#000000">/RenderParameters.hpp</text>
</a>
</g>
</g>
<!-- Node0&#45;&gt;Node15 -->
<g id="edge16" class="edge">
<title>Node0&#45;&gt;Node15</title>
<path fill="none" stroke="#191970" d="M851.2103,-436.4639C816.108,-426.3701 769.6954,-413.024 732.6964,-402.3848"/>
<polygon fill="#191970" stroke="#191970" points="733.5956,-399.0016 723.0178,-399.6017 731.6611,-405.729 733.5956,-399.0016"/>
</g>
<!-- Node32 -->
<g id="node33" class="node">
<title>Node32</title>
<g id="a_node33"><a xlink:href="Material_8inl.html" target="_top" xlink:title="Engine/Renderer/Material\l/Material.inl">
<polygon fill="#ffffff" stroke="#000000" points="1219,-369.5 1219,-399.5 1358,-399.5 1358,-369.5 1219,-369.5"/>
<text text-anchor="start" x="1227" y="-387.5" font-family="Helvetica,sans-Serif" font-size="10.00" fill="#000000">Engine/Renderer/Material</text>
<text text-anchor="middle" x="1288.5" y="-376.5" font-family="Helvetica,sans-Serif" font-size="10.00" fill="#000000">/Material.inl</text>
</a>
</g>
</g>
<!-- Node0&#45;&gt;Node32 -->
<g id="edge47" class="edge">
<title>Node0&#45;&gt;Node32</title>
<path fill="none" stroke="#191970" d="M965.1264,-441.6297C1024.8092,-431.957 1118.1212,-416.5351 1208.8292,-400.0955"/>
<polygon fill="#191970" stroke="#191970" points="1209.52,-403.5273 1218.7325,-398.2946 1208.2676,-396.6403 1209.52,-403.5273"/>
</g>
<!-- Node2 -->
<g id="node3" class="node">
<title>Node2</title>
<g id="a_node3"><a xlink:href="CoreMacros_8hpp.html" target="_top" xlink:title="Core/CoreMacros.hpp">
<polygon fill="#ffffff" stroke="#000000" points="509.5,-56.5 509.5,-75.5 629.5,-75.5 629.5,-56.5 509.5,-56.5"/>
<text text-anchor="middle" x="569.5" y="-63.5" font-family="Helvetica,sans-Serif" font-size="10.00" fill="#000000">Core/CoreMacros.hpp</text>
</a>
</g>
</g>
<!-- Node1&#45;&gt;Node2 -->
<g id="edge2" class="edge">
<title>Node1&#45;&gt;Node2</title>
<path fill="none" stroke="#191970" d="M634.7393,-112.2455C622.8448,-103.814 605.435,-91.4729 591.5915,-81.6598"/>
<polygon fill="#191970" stroke="#191970" points="593.2854,-78.5704 583.1031,-75.6427 589.2372,-84.2811 593.2854,-78.5704"/>
</g>
<!-- Node3 -->
<g id="node4" class="node">
<title>Node3</title>
<polygon fill="#ffffff" stroke="#bfbfbf" points="476.5,-.5 476.5,-19.5 528.5,-19.5 528.5,-.5 476.5,-.5"/>
<text text-anchor="middle" x="502.5" y="-7.5" font-family="Helvetica,sans-Serif" font-size="10.00" fill="#000000">cassert</text>
</g>
<!-- Node2&#45;&gt;Node3 -->
<g id="edge3" class="edge">
<title>Node2&#45;&gt;Node3</title>
<path fill="none" stroke="#191970" d="M557.8295,-56.2455C547.9339,-47.9746 533.5373,-35.9416 521.9099,-26.2232"/>
<polygon fill="#191970" stroke="#191970" points="523.9542,-23.3703 514.0368,-19.6427 519.465,-28.7413 523.9542,-23.3703"/>
</g>
<!-- Node4 -->
<g id="node5" class="node">
<title>Node4</title>
<polygon fill="#ffffff" stroke="#bfbfbf" points="546.5,-.5 546.5,-19.5 592.5,-19.5 592.5,-.5 546.5,-.5"/>
<text text-anchor="middle" x="569.5" y="-7.5" font-family="Helvetica,sans-Serif" font-size="10.00" fill="#000000">cstdio</text>
</g>
<!-- Node2&#45;&gt;Node4 -->
<g id="edge4" class="edge">
<title>Node2&#45;&gt;Node4</title>
<path fill="none" stroke="#191970" d="M569.5,-56.2455C569.5,-48.9382 569.5,-38.6944 569.5,-29.7046"/>
<polygon fill="#191970" stroke="#191970" points="573.0001,-29.6426 569.5,-19.6427 566.0001,-29.6427 573.0001,-29.6426"/>
</g>
<!-- Node5 -->
<g id="node6" class="node">
<title>Node5</title>
<polygon fill="#ffffff" stroke="#bfbfbf" points="610.5,-.5 610.5,-19.5 670.5,-19.5 670.5,-.5 610.5,-.5"/>
<text text-anchor="middle" x="640.5" y="-7.5" font-family="Helvetica,sans-Serif" font-size="10.00" fill="#000000">iostream</text>
</g>
<!-- Node2&#45;&gt;Node5 -->
<g id="edge5" class="edge">
<title>Node2&#45;&gt;Node5</title>
<path fill="none" stroke="#191970" d="M581.8673,-56.2455C592.4554,-47.8943 607.9064,-35.7076 620.2893,-25.9408"/>
<polygon fill="#191970" stroke="#191970" points="622.5903,-28.5837 628.2745,-19.6427 618.2553,-23.0875 622.5903,-28.5837"/>
</g>
<!-- Node6 -->
<g id="node7" class="node">
<title>Node6</title>
<polygon fill="#ffffff" stroke="#bfbfbf" points="402.5,-.5 402.5,-19.5 458.5,-19.5 458.5,-.5 402.5,-.5"/>
<text text-anchor="middle" x="430.5" y="-7.5" font-family="Helvetica,sans-Serif" font-size="10.00" fill="#000000">sstream</text>
</g>
<!-- Node2&#45;&gt;Node6 -->
<g id="edge6" class="edge">
<title>Node2&#45;&gt;Node6</title>
<path fill="none" stroke="#191970" d="M545.605,-56.3733C522.9918,-47.2629 488.8458,-33.5062 463.6127,-23.3404"/>
<polygon fill="#191970" stroke="#191970" points="464.6666,-19.9917 454.0831,-19.5011 462.0507,-26.4845 464.6666,-19.9917"/>
</g>
<!-- Node7 -->
<g id="node8" class="node">
<title>Node7</title>
<polygon fill="#ffffff" stroke="#bfbfbf" points="688.5,-.5 688.5,-19.5 736.5,-19.5 736.5,-.5 688.5,-.5"/>
<text text-anchor="middle" x="712.5" y="-7.5" font-family="Helvetica,sans-Serif" font-size="10.00" fill="#000000">thread</text>
</g>
<!-- Node2&#45;&gt;Node7 -->
<g id="edge7" class="edge">
<title>Node2&#45;&gt;Node7</title>
<path fill="none" stroke="#191970" d="M594.0826,-56.3733C617.4496,-47.2226 652.7862,-33.3844 678.7784,-23.2057"/>
<polygon fill="#191970" stroke="#191970" points="680.203,-26.4066 688.2382,-19.5011 677.6505,-19.8886 680.203,-26.4066"/>
</g>
<!-- Node11 -->
<g id="node12" class="node">
<title>Node11</title>
<g id="a_node12"><a xlink:href="RaCore_8hpp.html" target="_top" xlink:title="Core/RaCore.hpp">
<polygon fill="#ffffff" stroke="#000000" points="299.5,-112.5 299.5,-131.5 397.5,-131.5 397.5,-112.5 299.5,-112.5"/>
<text text-anchor="middle" x="348.5" y="-119.5" font-family="Helvetica,sans-Serif" font-size="10.00" fill="#000000">Core/RaCore.hpp</text>
</a>
</g>
</g>
<!-- Node10&#45;&gt;Node11 -->
<g id="edge11" class="edge">
<title>Node10&#45;&gt;Node11</title>
<path fill="none" stroke="#191970" d="M167.9375,-173.8906C205,-163.2395 264.8849,-146.0296 305.4312,-134.3772"/>
<polygon fill="#191970" stroke="#191970" points="306.653,-137.6679 315.2973,-131.5419 304.7196,-130.9402 306.653,-137.6679"/>
</g>
<!-- Node12 -->
<g id="node13" class="node">
<title>Node12</title>
<polygon fill="#ffffff" stroke="#bfbfbf" points="0,-112.5 0,-131.5 69,-131.5 69,-112.5 0,-112.5"/>
<text text-anchor="middle" x="34.5" y="-119.5" font-family="Helvetica,sans-Serif" font-size="10.00" fill="#000000">Eigen/Core</text>
</g>
<!-- Node10&#45;&gt;Node12 -->
<g id="edge13" class="edge">
<title>Node10&#45;&gt;Node12</title>
<path fill="none" stroke="#191970" d="M118.875,-173.8906C102.7302,-163.9616 77.3178,-148.333 58.5977,-136.8201"/>
<polygon fill="#191970" stroke="#191970" points="60.3669,-133.7992 50.0153,-131.5419 56.6998,-139.7619 60.3669,-133.7992"/>
</g>
<!-- Node13 -->
<g id="node14" class="node">
<title>Node13</title>
<polygon fill="#ffffff" stroke="#bfbfbf" points="87,-112.5 87,-131.5 182,-131.5 182,-112.5 87,-112.5"/>
<text text-anchor="middle" x="134.5" y="-119.5" font-family="Helvetica,sans-Serif" font-size="10.00" fill="#000000">Eigen/Geometry</text>
</g>
<!-- Node10&#45;&gt;Node13 -->
<g id="edge14" class="edge">
<title>Node10&#45;&gt;Node13</title>
<path fill="none" stroke="#191970" d="M134.5,-173.8906C134.5,-165.3657 134.5,-152.6392 134.5,-141.9235"/>
<polygon fill="#191970" stroke="#191970" points="138.0001,-141.7448 134.5,-131.7449 131.0001,-141.7449 138.0001,-141.7448"/>
</g>
<!-- Node14 -->
<g id="node15" class="node">
<title>Node14</title>
<polygon fill="#ffffff" stroke="#bfbfbf" points="200.5,-112.5 200.5,-131.5 280.5,-131.5 280.5,-112.5 200.5,-112.5"/>
<text text-anchor="middle" x="240.5" y="-119.5" font-family="Helvetica,sans-Serif" font-size="10.00" fill="#000000">Eigen/Sparse</text>
</g>
<!-- Node10&#45;&gt;Node14 -->
<g id="edge15" class="edge">
<title>Node10&#45;&gt;Node14</title>
<path fill="none" stroke="#191970" d="M151.0625,-173.8906C168.2537,-163.9165 195.3582,-148.1908 215.2266,-136.6633"/>
<polygon fill="#191970" stroke="#191970" points="217.1606,-139.5877 224.0538,-131.5419 213.6477,-133.533 217.1606,-139.5877"/>
</g>
<!-- Node11&#45;&gt;Node2 -->
<g id="edge12" class="edge">
<title>Node11&#45;&gt;Node2</title>
<path fill="none" stroke="#191970" d="M386.2401,-112.4369C423.7448,-102.9335 481.3799,-88.3291 521.9824,-78.0407"/>
<polygon fill="#191970" stroke="#191970" points="523.0816,-81.3728 531.9155,-75.5237 521.3621,-74.5873 523.0816,-81.3728"/>
</g>
<!-- Node15&#45;&gt;Node1 -->
<g id="edge17" class="edge">
<title>Node15&#45;&gt;Node1</title>
<path fill="none" stroke="#191970" d="M664.6262,-369.4405C660.9743,-359.3101 656.5893,-345.5605 654.5,-333 642.9474,-263.5467 645.3556,-179.4991 647.2765,-141.8812"/>
<polygon fill="#191970" stroke="#191970" points="650.7784,-141.9444 647.8411,-131.7649 643.7893,-141.5543 650.7784,-141.9444"/>
</g>
<!-- Node15&#45;&gt;Node10 -->
<g id="edge26" class="edge">
<title>Node15&#45;&gt;Node10</title>
<path fill="none" stroke="#191970" d="M579.35,-380.5306C476.4459,-374.7415 316.4562,-361.4077 263.5,-333 206.2814,-302.3058 163.116,-235.1939 144.5305,-202.355"/>
<polygon fill="#191970" stroke="#191970" points="147.4555,-200.4109 139.5634,-193.3423 141.3249,-203.7896 147.4555,-200.4109"/>
</g>
<!-- Node16 -->
<g id="node17" class="node">
<title>Node16</title>
<polygon fill="#ffffff" stroke="#bfbfbf" points="729.5,-112.5 729.5,-131.5 761.5,-131.5 761.5,-112.5 729.5,-112.5"/>
<text text-anchor="middle" x="745.5" y="-119.5" font-family="Helvetica,sans-Serif" font-size="10.00" fill="#000000">set</text>
</g>
<!-- Node15&#45;&gt;Node16 -->
<g id="edge18" class="edge">
<title>Node15&#45;&gt;Node16</title>
<path fill="none" stroke="#191970" d="M674.416,-369.4722C683.6695,-334.1697 707.8169,-243.2476 730.5,-168 733.1297,-159.2764 736.2239,-149.687 738.9168,-141.5317"/>
<polygon fill="#191970" stroke="#191970" points="742.3087,-142.4239 742.153,-131.8303 735.6684,-140.2089 742.3087,-142.4239"/>
</g>
<!-- Node17 -->
<g id="node18" class="node">
<title>Node17</title>
<polygon fill="#ffffff" stroke="#bfbfbf" points="781,-112.5 781,-131.5 828,-131.5 828,-112.5 781,-112.5"/>
<text text-anchor="middle" x="804.5" y="-119.5" font-family="Helvetica,sans-Serif" font-size="10.00" fill="#000000">vector</text>
</g>
<!-- Node15&#45;&gt;Node17 -->
<g id="edge19" class="edge">
<title>Node15&#45;&gt;Node17</title>
<path fill="none" stroke="#191970" d="M681.152,-369.1918C687.8237,-359.1864 696.3006,-345.67 702.5,-333 736.8622,-262.7716 723.2321,-235.0171 763.5,-168 769.8466,-157.4374 778.7826,-147.0672 786.6929,-138.8546"/>
<polygon fill="#191970" stroke="#191970" points="789.2463,-141.251 793.8446,-131.706 784.2976,-136.3001 789.2463,-141.251"/>
</g>
<!-- Node18 -->
<g id="node19" class="node">
<title>Node18</title>
<g id="a_node19"><a xlink:href="AlignedAllocator_8hpp.html" target="_top" xlink:title="Core/Containers/AlignedAllocator.hpp">
<polygon fill="#ffffff" stroke="#000000" points="272.5,-308 272.5,-327 470.5,-327 470.5,-308 272.5,-308"/>
<text text-anchor="middle" x="371.5" y="-315" font-family="Helvetica,sans-Serif" font-size="10.00" fill="#000000">Core/Containers/AlignedAllocator.hpp</text>
</a>
</g>
</g>
<!-- Node15&#45;&gt;Node18 -->
<g id="edge20" class="edge">
<title>Node15&#45;&gt;Node18</title>
<path fill="none" stroke="#191970" d="M603.3986,-369.4639C549.1144,-357.2999 473.752,-340.4127 423.8542,-329.2315"/>
<polygon fill="#191970" stroke="#191970" points="424.4425,-325.7766 413.9191,-327.0053 422.9118,-332.6072 424.4425,-325.7766"/>
</g>
<!-- Node23 -->
<g id="node24" class="node">
<title>Node23</title>
<g id="a_node24"><a xlink:href="Log_8hpp.html" target="_top" xlink:title="Core/Utils/Log.hpp">
<polygon fill="#ffffff" stroke="#000000" points="442.5,-174 442.5,-193 548.5,-193 548.5,-174 442.5,-174"/>
<text text-anchor="middle" x="495.5" y="-181" font-family="Helvetica,sans-Serif" font-size="10.00" fill="#000000">Core/Utils/Log.hpp</text>
</a>
</g>
</g>
<!-- Node15&#45;&gt;Node23 -->
<g id="edge27" class="edge">
<title>Node15&#45;&gt;Node23</title>
<path fill="none" stroke="#191970" d="M653.4138,-369.2556C642.51,-359.2758 628.2663,-345.7637 616.5,-333 574.8393,-287.8076 530.5294,-230.3093 508.9204,-201.5687"/>
<polygon fill="#191970" stroke="#191970" points="511.5272,-199.2104 502.7343,-193.2998 505.9222,-203.4037 511.5272,-199.2104"/>
</g>
<!-- Node26 -->
<g id="node27" class="node">
<title>Node26</title>
<g id="a_node27"><a xlink:href="RenderParameters_8inl.html" target="_top" xlink:title="Engine/Renderer/RenderTechnique\l/RenderParameters.inl">
<polygon fill="#ffffff" stroke="#000000" points="772.5,-302.5 772.5,-332.5 954.5,-332.5 954.5,-302.5 772.5,-302.5"/>
<text text-anchor="start" x="780.5" y="-320.5" font-family="Helvetica,sans-Serif" font-size="10.00" fill="#000000">Engine/Renderer/RenderTechnique</text>
<text text-anchor="middle" x="863.5" y="-309.5" font-family="Helvetica,sans-Serif" font-size="10.00" fill="#000000">/RenderParameters.inl</text>
</a>
</g>
</g>
<!-- Node15&#45;&gt;Node26 -->
<g id="edge33" class="edge">
<title>Node15&#45;&gt;Node26</title>
<path fill="none" stroke="#191970" d="M713.813,-369.4639C742.3942,-359.5419 780.0278,-346.4774 810.4094,-335.9304"/>
<polygon fill="#191970" stroke="#191970" points="811.699,-339.1877 819.9981,-332.6017 809.4033,-332.5748 811.699,-339.1877"/>
</g>
<!-- Node18&#45;&gt;Node11 -->
<g id="edge21" class="edge">
<title>Node18&#45;&gt;Node11</title>
<path fill="none" stroke="#191970" d="M328.935,-307.9961C290.9435,-298.5488 239.5024,-283.0395 227.5,-266 192.1391,-215.7993 274.0142,-161.6512 319.9733,-136.4414"/>
<polygon fill="#191970" stroke="#191970" points="321.7485,-139.4611 328.9107,-131.6538 318.443,-133.2906 321.7485,-139.4611"/>
</g>
<!-- Node19 -->
<g id="node20" class="node">
<title>Node19</title>
<polygon fill="#ffffff" stroke="#bfbfbf" points="372,-241 372,-260 455,-260 455,-241 372,-241"/>
<text text-anchor="middle" x="413.5" y="-248" font-family="Helvetica,sans-Serif" font-size="10.00" fill="#000000">mm_malloc.h</text>
</g>
<!-- Node18&#45;&gt;Node19 -->
<g id="edge22" class="edge">
<title>Node18&#45;&gt;Node19</title>
<path fill="none" stroke="#191970" d="M377.5176,-307.9005C383.88,-297.751 394.0709,-281.4941 401.9858,-268.8679"/>
<polygon fill="#191970" stroke="#191970" points="405.1477,-270.4135 407.4936,-260.0817 399.2167,-266.6956 405.1477,-270.4135"/>
</g>
<!-- Node20 -->
<g id="node21" class="node">
<title>Node20</title>
<polygon fill="#ffffff" stroke="#bfbfbf" points="473,-241 473,-260 526,-260 526,-241 473,-241"/>
<text text-anchor="middle" x="499.5" y="-248" font-family="Helvetica,sans-Serif" font-size="10.00" fill="#000000">cstddef</text>
</g>
<!-- Node18&#45;&gt;Node20 -->
<g id="edge23" class="edge">
<title>Node18&#45;&gt;Node20</title>
<path fill="none" stroke="#191970" d="M389.8393,-307.9005C411.4156,-296.6067 447.4391,-277.7506 472.2766,-264.7497"/>
<polygon fill="#191970" stroke="#191970" points="473.9582,-267.8201 481.1947,-260.0817 470.7119,-261.6183 473.9582,-267.8201"/>
</g>
<!-- Node21 -->
<g id="node22" class="node">
<title>Node21</title>
<polygon fill="#ffffff" stroke="#bfbfbf" points="236.5,-241 236.5,-260 286.5,-260 286.5,-241 236.5,-241"/>
<text text-anchor="middle" x="261.5" y="-248" font-family="Helvetica,sans-Serif" font-size="10.00" fill="#000000">cstdint</text>
</g>
<!-- Node18&#45;&gt;Node21 -->
<g id="edge24" class="edge">
<title>Node18&#45;&gt;Node21</title>
<path fill="none" stroke="#191970" d="M355.7397,-307.9005C337.5243,-296.8057 307.327,-278.4128 286.0323,-265.4424"/>
<polygon fill="#191970" stroke="#191970" points="287.5923,-262.2945 277.2311,-260.0817 283.9509,-268.2728 287.5923,-262.2945"/>
</g>
<!-- Node22 -->
<g id="node23" class="node">
<title>Node22</title>
<polygon fill="#ffffff" stroke="#bfbfbf" points="305,-241 305,-260 354,-260 354,-241 305,-241"/>
<text text-anchor="middle" x="329.5" y="-248" font-family="Helvetica,sans-Serif" font-size="10.00" fill="#000000">cstdlib</text>
</g>
<!-- Node18&#45;&gt;Node22 -->
<g id="edge25" class="edge">
<title>Node18&#45;&gt;Node22</title>
<path fill="none" stroke="#191970" d="M365.4824,-307.9005C359.12,-297.751 348.9291,-281.4941 341.0142,-268.8679"/>
<polygon fill="#191970" stroke="#191970" points="343.7833,-266.6956 335.5064,-260.0817 337.8523,-270.4135 343.7833,-266.6956"/>
</g>
<!-- Node23&#45;&gt;Node6 -->
<g id="edge30" class="edge">
<title>Node23&#45;&gt;Node6</title>
<path fill="none" stroke="#191970" d="M483.5867,-173.8035C472.8282,-164.3319 457.4958,-148.9063 449.5,-132 433.6844,-98.5594 430.5576,-54.7651 430.1993,-29.7718"/>
<polygon fill="#191970" stroke="#191970" points="433.6994,-29.7142 430.1939,-19.7161 426.6994,-29.7181 433.6994,-29.7142"/>
</g>
<!-- Node23&#45;&gt;Node9 -->
<g id="edge32" class="edge">
<title>Node23&#45;&gt;Node9</title>
<path fill="none" stroke="#191970" d="M548.6166,-177.9453C637.8504,-168.5943 823.5055,-149.0571 980.5,-132 999.6555,-129.9188 1021.0982,-127.5383 1038.2475,-125.6221"/>
<polygon fill="#191970" stroke="#191970" points="1038.7629,-129.0863 1048.3116,-124.4958 1037.9844,-122.1298 1038.7629,-129.0863"/>
</g>
<!-- Node23&#45;&gt;Node11 -->
<g id="edge28" class="edge">
<title>Node23&#45;&gt;Node11</title>
<path fill="none" stroke="#191970" d="M472.5313,-173.8906C447.8276,-163.5554 408.363,-147.0447 380.5973,-135.4284"/>
<polygon fill="#191970" stroke="#191970" points="381.8835,-132.1727 371.3075,-131.5419 379.1818,-138.6303 381.8835,-132.1727"/>
</g>
<!-- Node24 -->
<g id="node25" class="node">
<title>Node24</title>
<polygon fill="#ffffff" stroke="#bfbfbf" points="458.5,-112.5 458.5,-131.5 502.5,-131.5 502.5,-112.5 458.5,-112.5"/>
<text text-anchor="middle" x="480.5" y="-119.5" font-family="Helvetica,sans-Serif" font-size="10.00" fill="#000000">ctime</text>
</g>
<!-- Node23&#45;&gt;Node24 -->
<g id="edge29" class="edge">
<title>Node23&#45;&gt;Node24</title>
<path fill="none" stroke="#191970" d="M493.1563,-173.8906C491.0551,-165.276 487.9075,-152.3708 485.277,-141.5858"/>
<polygon fill="#191970" stroke="#191970" points="488.6468,-140.6307 482.8768,-131.7449 481.8461,-142.2894 488.6468,-140.6307"/>
</g>
<!-- Node25 -->
<g id="node26" class="node">
<title>Node25</title>
<polygon fill="#ffffff" stroke="#bfbfbf" points="520.5,-112.5 520.5,-131.5 570.5,-131.5 570.5,-112.5 520.5,-112.5"/>
<text text-anchor="middle" x="545.5" y="-119.5" font-family="Helvetica,sans-Serif" font-size="10.00" fill="#000000">stdio.h</text>
</g>
<!-- Node23&#45;&gt;Node25 -->
<g id="edge31" class="edge">
<title>Node23&#45;&gt;Node25</title>
<path fill="none" stroke="#191970" d="M503.3125,-173.8906C510.754,-164.7376 522.1334,-150.7409 531.1992,-139.59"/>
<polygon fill="#191970" stroke="#191970" points="533.9847,-141.712 537.5774,-131.7449 528.5533,-137.2962 533.9847,-141.712"/>
</g>
<!-- Node27 -->
<g id="node28" class="node">
<title>Node27</title>
<g id="a_node28"><a xlink:href="ShaderProgram_8hpp.html" target="_top" xlink:title="Engine/Renderer/RenderTechnique\l/ShaderProgram.hpp">
<polygon fill="#ffffff" stroke="#000000" points="772.5,-235.5 772.5,-265.5 954.5,-265.5 954.5,-235.5 772.5,-235.5"/>
<text text-anchor="start" x="780.5" y="-253.5" font-family="Helvetica,sans-Serif" font-size="10.00" fill="#000000">Engine/Renderer/RenderTechnique</text>
<text text-anchor="middle" x="863.5" y="-242.5" font-family="Helvetica,sans-Serif" font-size="10.00" fill="#000000">/ShaderProgram.hpp</text>
</a>
</g>
</g>
<!-- Node26&#45;&gt;Node27 -->
<g id="edge34" class="edge">
<title>Node26&#45;&gt;Node27</title>
<path fill="none" stroke="#191970" d="M863.5,-302.2967C863.5,-294.5013 863.5,-284.7991 863.5,-275.9064"/>
<polygon fill="#191970" stroke="#191970" points="867.0001,-275.6431 863.5,-265.6432 860.0001,-275.6432 867.0001,-275.6431"/>
</g>
<!-- Node27&#45;&gt;Node1 -->
<g id="edge35" class="edge">
<title>Node27&#45;&gt;Node1</title>
<path fill="none" stroke="#191970" d="M831.9223,-235.3945C811.9898,-225.5776 785.8725,-212.1924 763.5,-199 729.8802,-179.1753 692.6244,-153.5075 669.8827,-137.3934"/>
<polygon fill="#191970" stroke="#191970" points="671.8111,-134.4699 661.636,-131.5174 667.7491,-140.1708 671.8111,-134.4699"/>
</g>
<!-- Node27&#45;&gt;Node9 -->
<g id="edge46" class="edge">
<title>Node27&#45;&gt;Node9</title>
<path fill="none" stroke="#191970" d="M954.7894,-239.8549C1005.6966,-231.8343 1061.9208,-218.7731 1077.5,-199 1090.2959,-182.7594 1085.1594,-158.1864 1079.0374,-141.1874"/>
<polygon fill="#191970" stroke="#191970" points="1082.2151,-139.7075 1075.2498,-131.7241 1075.7163,-142.3087 1082.2151,-139.7075"/>
</g>
<!-- Node27&#45;&gt;Node10 -->
<g id="edge36" class="edge">
<title>Node27&#45;&gt;Node10</title>
<path fill="none" stroke="#191970" d="M772.278,-242.1161C619.3643,-228.0623 315.7747,-200.1604 190.5332,-188.6498"/>
<polygon fill="#191970" stroke="#191970" points="190.6792,-185.1486 180.4008,-187.7186 190.0385,-192.1192 190.6792,-185.1486"/>
</g>
<!-- Node28 -->
<g id="node29" class="node">
<title>Node28</title>
<g id="a_node29"><a xlink:href="ShaderConfiguration_8hpp.html" target="_top" xlink:title="Engine/Renderer/RenderTechnique\l/ShaderConfiguration.hpp">
<polygon fill="#ffffff" stroke="#000000" points="772.5,-168.5 772.5,-198.5 954.5,-198.5 954.5,-168.5 772.5,-168.5"/>
<text text-anchor="start" x="780.5" y="-186.5" font-family="Helvetica,sans-Serif" font-size="10.00" fill="#000000">Engine/Renderer/RenderTechnique</text>
<text text-anchor="middle" x="863.5" y="-175.5" font-family="Helvetica,sans-Serif" font-size="10.00" fill="#000000">/ShaderConfiguration.hpp</text>
</a>
</g>
</g>
<!-- Node27&#45;&gt;Node28 -->
<g id="edge37" class="edge">
<title>Node27&#45;&gt;Node28</title>
<path fill="none" stroke="#191970" d="M863.5,-235.2967C863.5,-227.5013 863.5,-217.7991 863.5,-208.9064"/>
<polygon fill="#191970" stroke="#191970" points="867.0001,-208.6431 863.5,-198.6432 860.0001,-208.6432 867.0001,-208.6431"/>
</g>
<!-- Node29 -->
<g id="node30" class="node">
<title>Node29</title>
<polygon fill="#ffffff" stroke="#bfbfbf" points="929.5,-112.5 929.5,-131.5 971.5,-131.5 971.5,-112.5 929.5,-112.5"/>
<text text-anchor="middle" x="950.5" y="-119.5" font-family="Helvetica,sans-Serif" font-size="10.00" fill="#000000">array</text>
</g>
<!-- Node27&#45;&gt;Node29 -->
<g id="edge44" class="edge">
<title>Node27&#45;&gt;Node29</title>
<path fill="none" stroke="#191970" d="M917.2661,-235.4745C935.1476,-227.6361 953.1293,-216.006 963.5,-199 974.2555,-181.3629 967.6017,-157.4419 960.4526,-140.9661"/>
<polygon fill="#191970" stroke="#191970" points="963.5451,-139.3191 956.0886,-131.7924 957.2239,-142.3262 963.5451,-139.3191"/>
</g>
<!-- Node31 -->
<g id="node32" class="node">
<title>Node31</title>
<polygon fill="#ffffff" stroke="#bfbfbf" points="1010.5,-174 1010.5,-193 1068.5,-193 1068.5,-174 1010.5,-174"/>
<text text-anchor="middle" x="1039.5" y="-181" font-family="Helvetica,sans-Serif" font-size="10.00" fill="#000000">memory</text>
</g>
<!-- Node27&#45;&gt;Node31 -->
<g id="edge45" class="edge">
<title>Node27&#45;&gt;Node31</title>
<path fill="none" stroke="#191970" d="M902.9978,-235.4639C933.6836,-223.7824 975.8118,-207.7449 1005.1186,-196.5884"/>
<polygon fill="#191970" stroke="#191970" points="1006.4304,-199.8341 1014.5309,-193.0053 1003.9399,-193.2921 1006.4304,-199.8341"/>
</g>
<!-- Node28&#45;&gt;Node1 -->
<g id="edge38" class="edge">
<title>Node28&#45;&gt;Node1</title>
<path fill="none" stroke="#191970" d="M810.9051,-168.4554C774.2451,-157.9689 725.94,-144.1515 691.5652,-134.3187"/>
<polygon fill="#191970" stroke="#191970" points="692.3944,-130.9155 681.8174,-131.5303 690.4692,-137.6456 692.3944,-130.9155"/>
</g>
<!-- Node28&#45;&gt;Node9 -->
<g id="edge42" class="edge">
<title>Node28&#45;&gt;Node9</title>
<path fill="none" stroke="#191970" d="M914.1379,-168.4554C953.0788,-156.886 1005.6666,-141.2621 1038.8343,-131.4079"/>
<polygon fill="#191970" stroke="#191970" points="1039.8786,-134.749 1048.4676,-128.5458 1037.8849,-128.0388 1039.8786,-134.749"/>
</g>
<!-- Node28&#45;&gt;Node16 -->
<g id="edge41" class="edge">
<title>Node28&#45;&gt;Node16</title>
<path fill="none" stroke="#191970" d="M834.634,-168.4554C815.1117,-158.2807 789.5724,-144.97 770.8381,-135.2059"/>
<polygon fill="#191970" stroke="#191970" points="772.2149,-131.9767 761.7294,-130.4586 768.9796,-138.1842 772.2149,-131.9767"/>
</g>
<!-- Node28&#45;&gt;Node17 -->
<g id="edge43" class="edge">
<title>Node28&#45;&gt;Node17</title>
<path fill="none" stroke="#191970" d="M848.9157,-168.2977C840.47,-159.4941 829.8108,-148.3833 821.0516,-139.2529"/>
<polygon fill="#191970" stroke="#191970" points="823.3952,-136.6402 813.9466,-131.8469 818.3439,-141.4862 823.3952,-136.6402"/>
</g>
<!-- Node28&#45;&gt;Node29 -->
<g id="edge39" class="edge">
<title>Node28&#45;&gt;Node29</title>
<path fill="none" stroke="#191970" d="M885.0056,-168.2977C898.2968,-158.9022 915.3057,-146.8787 928.6588,-137.4395"/>
<polygon fill="#191970" stroke="#191970" points="930.6846,-140.2937 936.83,-131.6633 926.6439,-134.5776 930.6846,-140.2937"/>
</g>
<!-- Node30 -->
<g id="node31" class="node">
<title>Node30</title>
<polygon fill="#ffffff" stroke="#bfbfbf" points="847.5,-112.5 847.5,-131.5 879.5,-131.5 879.5,-112.5 847.5,-112.5"/>
<text text-anchor="middle" x="863.5" y="-119.5" font-family="Helvetica,sans-Serif" font-size="10.00" fill="#000000">list</text>
</g>
<!-- Node28&#45;&gt;Node30 -->
<g id="edge40" class="edge">
<title>Node28&#45;&gt;Node30</title>
<path fill="none" stroke="#191970" d="M863.5,-168.2977C863.5,-160.3834 863.5,-150.6043 863.5,-142.0759"/>
<polygon fill="#191970" stroke="#191970" points="867.0001,-141.8469 863.5,-131.8469 860.0001,-141.847 867.0001,-141.8469"/>
</g>
</g>
</svg>
