<?xml version="1.0" encoding="UTF-8" standalone="no"?>
<!DOCTYPE svg PUBLIC "-//W3C//DTD SVG 1.1//EN"
 "http://www.w3.org/Graphics/SVG/1.1/DTD/svg11.dtd">
<!-- Generated by graphviz version 2.40.1 (20161225.0304)
 -->
<!-- Title: src/Engine/Renderer/Mesh/Mesh.inl Pages: 1 -->
<!--zoomable 341 -->
<svg id="main" version="1.1" xmlns="http://www.w3.org/2000/svg" xmlns:xlink="http://www.w3.org/1999/xlink" xml:space="preserve" onload="init(evt)">
<style type="text/css"><![CDATA[
.edge:hover path { stroke: red; }
.edge:hover polygon { stroke: red; fill: red; }
]]></style>
<script type="text/javascript"><![CDATA[
var edges = document.getElementsByTagName('g');
if (edges && edges.length) {
  for (var i=0;i<edges.length;i++) {
    if (edges[i].id.substr(0,4)=='edge') {
      edges[i].setAttribute('class','edge');
    }
  }
}
]]></script>
        <defs>
                <circle id="rim" cx="0" cy="0" r="7"/>
                <circle id="rim2" cx="0" cy="0" r="3.5"/>
                <g id="zoomPlus">
                        <use xlink:href="#rim" fill="#404040">
                                <set attributeName="fill" to="#808080" begin="zoomplus.mouseover" end="zoomplus.mouseout"/>
                        </use>
                        <path d="M-4,0h8M0,-4v8" fill="none" stroke="white" stroke-width="1.5" pointer-events="none"/>
                </g>
                <g id="zoomMin">
                        <use xlink:href="#rim" fill="#404040">
                                <set attributeName="fill" to="#808080" begin="zoomminus.mouseover" end="zoomminus.mouseout"/>
                        </use>
                        <path d="M-4,0h8" fill="none" stroke="white" stroke-width="1.5" pointer-events="none"/>
                </g>
                <g id="dirArrow">
                        <path fill="none" stroke="white" stroke-width="1.5" d="M0,-3.0v7 M-2.5,-0.5L0,-3.0L2.5,-0.5"/>
                </g>
               <g id="resetDef">
                       <use xlink:href="#rim2" fill="#404040">
                               <set attributeName="fill" to="#808080" begin="reset.mouseover" end="reset.mouseout"/>
                       </use>
               </g>
        </defs>

<script type="text/javascript">
var viewWidth = 1134;
var viewHeight = 341;
var sectionId = 'dynsection-0';
</script>
<script xlink:href="svgpan.js"/>
<svg id="graph" class="graph">
<g id="viewport">
<title>src/Engine/Renderer/Mesh/Mesh.inl</title>
<polygon fill="#ffffff" stroke="transparent" points="-4,4 -4,-337 1130,-337 1130,4 -4,4"/>
<!-- Node0 -->
<g id="node1" class="node">
<title>Node0</title>
<polygon fill="#bfbfbf" stroke="#000000" points="625.5,-302.5 625.5,-332.5 738.5,-332.5 738.5,-302.5 625.5,-302.5"/>
<text text-anchor="start" x="633.5" y="-320.5" font-family="Helvetica,sans-Serif" font-size="10.00" fill="#000000">src/Engine/Renderer</text>
<text text-anchor="middle" x="682" y="-309.5" font-family="Helvetica,sans-Serif" font-size="10.00" fill="#000000">/Mesh/Mesh.inl</text>
</g>
<!-- Node1 -->
<g id="node2" class="node">
<title>Node1</title>
<polygon fill="#ffffff" stroke="#bfbfbf" points="155.5,-241 155.5,-260 256.5,-260 256.5,-241 155.5,-241"/>
<text text-anchor="middle" x="206" y="-248" font-family="Helvetica,sans-Serif" font-size="10.00" fill="#000000">globjects/Buffer.h</text>
</g>
<!-- Node0&#45;&gt;Node1 -->
<g id="edge1" class="edge">
<title>Node0&#45;&gt;Node1</title>
<path fill="none" stroke="#191970" d="M625.3055,-312.9259C544.7302,-305.876 392.6887,-290.5429 265,-266 259.8665,-265.0133 254.5192,-263.8309 249.2314,-262.5649"/>
<polygon fill="#191970" stroke="#191970" points="249.7584,-259.0889 239.2079,-260.0567 248.0592,-265.8795 249.7584,-259.0889"/>
</g>
<!-- Node2 -->
<g id="node3" class="node">
<title>Node2</title>
<g id="a_node3"><a xlink:href="OpenGL_8hpp.html" target="_top" xlink:title="Engine/Renderer/OpenGL\l/OpenGL.hpp">
<polygon fill="#ffffff" stroke="#000000" points="274.5,-235.5 274.5,-265.5 411.5,-265.5 411.5,-235.5 274.5,-235.5"/>
<text text-anchor="start" x="282.5" y="-253.5" font-family="Helvetica,sans-Serif" font-size="10.00" fill="#000000">Engine/Renderer/OpenGL</text>
<text text-anchor="middle" x="343" y="-242.5" font-family="Helvetica,sans-Serif" font-size="10.00" fill="#000000">/OpenGL.hpp</text>
</a>
</g>
</g>
<!-- Node0&#45;&gt;Node2 -->
<g id="edge2" class="edge">
<title>Node0&#45;&gt;Node2</title>
<path fill="none" stroke="#191970" d="M625.259,-306.2857C569.5525,-295.2759 484.1076,-278.3885 421.8185,-266.0777"/>
<polygon fill="#191970" stroke="#191970" points="422.1289,-262.5714 411.64,-264.066 420.7716,-269.4386 422.1289,-262.5714"/>
</g>
<!-- Node6 -->
<g id="node7" class="node">
<title>Node6</title>
<g id="a_node7"><a xlink:href="ShaderProgram_8hpp.html" target="_top" xlink:title="Engine/Renderer/RenderTechnique\l/ShaderProgram.hpp">
<polygon fill="#ffffff" stroke="#000000" points="508,-235.5 508,-265.5 690,-265.5 690,-235.5 508,-235.5"/>
<text text-anchor="start" x="516" y="-253.5" font-family="Helvetica,sans-Serif" font-size="10.00" fill="#000000">Engine/Renderer/RenderTechnique</text>
<text text-anchor="middle" x="599" y="-242.5" font-family="Helvetica,sans-Serif" font-size="10.00" fill="#000000">/ShaderProgram.hpp</text>
</a>
</g>
</g>
<!-- Node0&#45;&gt;Node6 -->
<g id="edge6" class="edge">
<title>Node0&#45;&gt;Node6</title>
<path fill="none" stroke="#191970" d="M663.166,-302.2967C652.1295,-293.3876 638.0078,-281.9882 625.8235,-272.1527"/>
<polygon fill="#191970" stroke="#191970" points="627.7391,-269.201 617.7595,-265.6432 623.3422,-274.6478 627.7391,-269.201"/>
</g>
<!-- Node26 -->
<g id="node27" class="node">
<title>Node26</title>
<polygon fill="#ffffff" stroke="#bfbfbf" points="708,-241 708,-260 822,-260 822,-241 708,-241"/>
<text text-anchor="middle" x="765" y="-248" font-family="Helvetica,sans-Serif" font-size="10.00" fill="#000000">globjects/Program.h</text>
</g>
<!-- Node0&#45;&gt;Node26 -->
<g id="edge30" class="edge">
<title>Node0&#45;&gt;Node26</title>
<path fill="none" stroke="#191970" d="M700.834,-302.2967C714.0169,-291.6551 731.6015,-277.4602 745.0284,-266.6217"/>
<polygon fill="#191970" stroke="#191970" points="747.5805,-269.0596 753.1632,-260.055 743.1836,-263.6128 747.5805,-269.0596"/>
</g>
<!-- Node27 -->
<g id="node28" class="node">
<title>Node27</title>
<polygon fill="#ffffff" stroke="#bfbfbf" points="840.5,-241 840.5,-260 969.5,-260 969.5,-241 840.5,-241"/>
<text text-anchor="middle" x="905" y="-248" font-family="Helvetica,sans-Serif" font-size="10.00" fill="#000000">globjects/VertexArray.h</text>
</g>
<!-- Node0&#45;&gt;Node27 -->
<g id="edge31" class="edge">
<title>Node0&#45;&gt;Node27</title>
<path fill="none" stroke="#191970" d="M732.0456,-302.4639C771.602,-290.5792 826.1652,-274.1858 863.3597,-263.0108"/>
<polygon fill="#191970" stroke="#191970" points="864.793,-266.2348 873.363,-260.0053 862.7788,-259.5308 864.793,-266.2348"/>
</g>
<!-- Node28 -->
<g id="node29" class="node">
<title>Node28</title>
<polygon fill="#ffffff" stroke="#bfbfbf" points="988,-235.5 988,-265.5 1126,-265.5 1126,-235.5 988,-235.5"/>
<text text-anchor="start" x="996" y="-253.5" font-family="Helvetica,sans-Serif" font-size="10.00" fill="#000000">globjects/VertexAttribute</text>
<text text-anchor="middle" x="1057" y="-242.5" font-family="Helvetica,sans-Serif" font-size="10.00" fill="#000000">Binding.h</text>
</g>
<!-- Node0&#45;&gt;Node28 -->
<g id="edge32" class="edge">
<title>Node0&#45;&gt;Node28</title>
<path fill="none" stroke="#191970" d="M738.7343,-308.0864C796.3969,-298.4231 888.5648,-282.7153 977.6865,-266.2216"/>
<polygon fill="#191970" stroke="#191970" points="978.5013,-269.6302 987.6944,-264.3637 977.2236,-262.7478 978.5013,-269.6302"/>
</g>
<!-- Node3 -->
<g id="node4" class="node">
<title>Node3</title>
<polygon fill="#ffffff" stroke="#bfbfbf" points="0,-174 0,-193 128,-193 128,-174 0,-174"/>
<text text-anchor="middle" x="64" y="-181" font-family="Helvetica,sans-Serif" font-size="10.00" fill="#000000">glbinding/gl45core/gl.h</text>
</g>
<!-- Node2&#45;&gt;Node3 -->
<g id="edge3" class="edge">
<title>Node2&#45;&gt;Node3</title>
<path fill="none" stroke="#191970" d="M280.387,-235.4639C229.9453,-223.3507 159.9993,-206.5536 113.4367,-195.3719"/>
<polygon fill="#191970" stroke="#191970" points="114.1226,-191.9372 103.5817,-193.0053 112.488,-198.7437 114.1226,-191.9372"/>
</g>
<!-- Node4 -->
<g id="node5" class="node">
<title>Node4</title>
<polygon fill="#ffffff" stroke="#bfbfbf" points="146,-174 146,-193 268,-193 268,-174 146,-174"/>
<text text-anchor="middle" x="207" y="-181" font-family="Helvetica,sans-Serif" font-size="10.00" fill="#000000">glbinding/gl45ext/gl.h</text>
</g>
<!-- Node2&#45;&gt;Node4 -->
<g id="edge4" class="edge">
<title>Node2&#45;&gt;Node4</title>
<path fill="none" stroke="#191970" d="M312.4789,-235.4639C289.4543,-224.1209 258.0928,-208.6707 235.5606,-197.5703"/>
<polygon fill="#191970" stroke="#191970" points="237.0118,-194.3836 226.4945,-193.1039 233.9183,-200.6629 237.0118,-194.3836"/>
</g>
<!-- Node5 -->
<g id="node6" class="node">
<title>Node5</title>
<polygon fill="#ffffff" stroke="#bfbfbf" points="286.5,-168.5 286.5,-198.5 399.5,-198.5 399.5,-168.5 286.5,-168.5"/>
<text text-anchor="start" x="294.5" y="-186.5" font-family="Helvetica,sans-Serif" font-size="10.00" fill="#000000">glbinding&#45;aux/types</text>
<text text-anchor="middle" x="343" y="-175.5" font-family="Helvetica,sans-Serif" font-size="10.00" fill="#000000">_to_string.h</text>
</g>
<!-- Node2&#45;&gt;Node5 -->
<g id="edge5" class="edge">
<title>Node2&#45;&gt;Node5</title>
<path fill="none" stroke="#191970" d="M343,-235.2967C343,-227.5013 343,-217.7991 343,-208.9064"/>
<polygon fill="#191970" stroke="#191970" points="346.5001,-208.6431 343,-198.6432 339.5001,-208.6432 346.5001,-208.6431"/>
</g>
<!-- Node7 -->
<g id="node8" class="node">
<title>Node7</title>
<g id="a_node8"><a xlink:href="RaEngine_8hpp.html" target="_top" xlink:title="Engine/RaEngine.hpp">
<polygon fill="#ffffff" stroke="#000000" points="521.5,-112.5 521.5,-131.5 640.5,-131.5 640.5,-112.5 521.5,-112.5"/>
<text text-anchor="middle" x="581" y="-119.5" font-family="Helvetica,sans-Serif" font-size="10.00" fill="#000000">Engine/RaEngine.hpp</text>
</a>
</g>
</g>
<!-- Node6&#45;&gt;Node7 -->
<g id="edge7" class="edge">
<title>Node6&#45;&gt;Node7</title>
<path fill="none" stroke="#191970" d="M596.8645,-235.2548C593.6034,-211.9744 587.382,-167.5607 583.7752,-141.8117"/>
<polygon fill="#191970" stroke="#191970" points="587.2172,-141.1535 582.3638,-131.7358 580.2849,-142.1247 587.2172,-141.1535"/>
</g>
<!-- Node14 -->
<g id="node15" class="node">
<title>Node14</title>
<g id="a_node15"><a xlink:href="Types_8hpp.html" target="_top" xlink:title="Core/Types.hpp">
<polygon fill="#ffffff" stroke="#000000" points="417.5,-174 417.5,-193 508.5,-193 508.5,-174 417.5,-174"/>
<text text-anchor="middle" x="463" y="-181" font-family="Helvetica,sans-Serif" font-size="10.00" fill="#000000">Core/Types.hpp</text>
</a>
</g>
</g>
<!-- Node6&#45;&gt;Node14 -->
<g id="edge14" class="edge">
<title>Node6&#45;&gt;Node14</title>
<path fill="none" stroke="#191970" d="M568.4789,-235.4639C545.4543,-224.1209 514.0928,-208.6707 491.5606,-197.5703"/>
<polygon fill="#191970" stroke="#191970" points="493.0118,-194.3836 482.4945,-193.1039 489.9183,-200.6629 493.0118,-194.3836"/>
</g>
<!-- Node19 -->
<g id="node20" class="node">
<title>Node19</title>
<g id="a_node20"><a xlink:href="ShaderConfiguration_8hpp.html" target="_top" xlink:title="Engine/Renderer/RenderTechnique\l/ShaderConfiguration.hpp">
<polygon fill="#ffffff" stroke="#000000" points="646,-168.5 646,-198.5 828,-198.5 828,-168.5 646,-168.5"/>
<text text-anchor="start" x="654" y="-186.5" font-family="Helvetica,sans-Serif" font-size="10.00" fill="#000000">Engine/Renderer/RenderTechnique</text>
<text text-anchor="middle" x="737" y="-175.5" font-family="Helvetica,sans-Serif" font-size="10.00" fill="#000000">/ShaderConfiguration.hpp</text>
</a>
</g>
</g>
<!-- Node6&#45;&gt;Node19 -->
<g id="edge20" class="edge">
<title>Node6&#45;&gt;Node19</title>
<path fill="none" stroke="#191970" d="M629.9699,-235.4639C649.6292,-225.9191 675.2784,-213.4663 696.5393,-203.144"/>
<polygon fill="#191970" stroke="#191970" points="698.1888,-206.2339 705.656,-198.7177 695.1315,-199.9368 698.1888,-206.2339"/>
</g>
<!-- Node20 -->
<g id="node21" class="node">
<title>Node20</title>
<polygon fill="#ffffff" stroke="#bfbfbf" points="659,-112.5 659,-131.5 701,-131.5 701,-112.5 659,-112.5"/>
<text text-anchor="middle" x="680" y="-119.5" font-family="Helvetica,sans-Serif" font-size="10.00" fill="#000000">array</text>
</g>
<!-- Node6&#45;&gt;Node20 -->
<g id="edge27" class="edge">
<title>Node6&#45;&gt;Node20</title>
<path fill="none" stroke="#191970" d="M604.2593,-235.4448C610.6162,-218.3062 622.3119,-189.858 637,-168 644.0233,-157.5483 653.432,-147.1891 661.6574,-138.9552"/>
<polygon fill="#191970" stroke="#191970" points="664.3182,-141.2506 669.0647,-131.7784 659.4473,-136.2232 664.3182,-141.2506"/>
</g>
<!-- Node23 -->
<g id="node24" class="node">
<title>Node23</title>
<polygon fill="#ffffff" stroke="#bfbfbf" points="885,-112.5 885,-131.5 929,-131.5 929,-112.5 885,-112.5"/>
<text text-anchor="middle" x="907" y="-119.5" font-family="Helvetica,sans-Serif" font-size="10.00" fill="#000000">string</text>
</g>
<!-- Node6&#45;&gt;Node23 -->
<g id="edge29" class="edge">
<title>Node6&#45;&gt;Node23</title>
<path fill="none" stroke="#191970" d="M680.2418,-235.4572C743.6511,-223.2935 823.2432,-206.9322 837,-199 862.1895,-184.4755 883.3739,-157.7793 895.6329,-139.9568"/>
<polygon fill="#191970" stroke="#191970" points="898.5935,-141.8253 901.2039,-131.5571 892.7599,-137.9562 898.5935,-141.8253"/>
</g>
<!-- Node25 -->
<g id="node26" class="node">
<title>Node25</title>
<polygon fill="#ffffff" stroke="#bfbfbf" points="884,-174 884,-193 942,-193 942,-174 884,-174"/>
<text text-anchor="middle" x="913" y="-181" font-family="Helvetica,sans-Serif" font-size="10.00" fill="#000000">memory</text>
</g>
<!-- Node6&#45;&gt;Node25 -->
<g id="edge28" class="edge">
<title>Node6&#45;&gt;Node25</title>
<path fill="none" stroke="#191970" d="M686.0854,-235.49C751.7304,-223.886 836.0465,-208.283 870,-199 872.9661,-198.189 876.0195,-197.2685 879.0658,-196.29"/>
<polygon fill="#191970" stroke="#191970" points="880.3141,-199.5624 888.6563,-193.031 878.0619,-192.9347 880.3141,-199.5624"/>
</g>
<!-- Node8 -->
<g id="node9" class="node">
<title>Node8</title>
<g id="a_node9"><a xlink:href="CoreMacros_8hpp.html" target="_top" xlink:title="Core/CoreMacros.hpp">
<polygon fill="#ffffff" stroke="#000000" points="308,-56.5 308,-75.5 428,-75.5 428,-56.5 308,-56.5"/>
<text text-anchor="middle" x="368" y="-63.5" font-family="Helvetica,sans-Serif" font-size="10.00" fill="#000000">Core/CoreMacros.hpp</text>
</a>
</g>
</g>
<!-- Node7&#45;&gt;Node8 -->
<g id="edge8" class="edge">
<title>Node7&#45;&gt;Node8</title>
<path fill="none" stroke="#191970" d="M544.384,-112.3733C508.352,-102.9001 453.2122,-88.4032 414.1886,-78.1435"/>
<polygon fill="#191970" stroke="#191970" points="414.6995,-74.6589 404.1382,-75.5011 412.9196,-81.4289 414.6995,-74.6589"/>
</g>
<!-- Node9 -->
<g id="node10" class="node">
<title>Node9</title>
<polygon fill="#ffffff" stroke="#bfbfbf" points="204,-.5 204,-19.5 256,-19.5 256,-.5 204,-.5"/>
<text text-anchor="middle" x="230" y="-7.5" font-family="Helvetica,sans-Serif" font-size="10.00" fill="#000000">cassert</text>
</g>
<!-- Node8&#45;&gt;Node9 -->
<g id="edge9" class="edge">
<title>Node8&#45;&gt;Node9</title>
<path fill="none" stroke="#191970" d="M344.277,-56.3733C321.8263,-47.2629 287.9261,-33.5062 262.8745,-23.3404"/>
<polygon fill="#191970" stroke="#191970" points="263.9957,-20.0182 253.4135,-19.5011 261.3635,-26.5045 263.9957,-20.0182"/>
</g>
<!-- Node10 -->
<g id="node11" class="node">
<title>Node10</title>
<polygon fill="#ffffff" stroke="#bfbfbf" points="274,-.5 274,-19.5 320,-19.5 320,-.5 274,-.5"/>
<text text-anchor="middle" x="297" y="-7.5" font-family="Helvetica,sans-Serif" font-size="10.00" fill="#000000">cstdio</text>
</g>
<!-- Node8&#45;&gt;Node10 -->
<g id="edge10" class="edge">
<title>Node8&#45;&gt;Node10</title>
<path fill="none" stroke="#191970" d="M355.6327,-56.2455C345.0446,-47.8943 329.5936,-35.7076 317.2107,-25.9408"/>
<polygon fill="#191970" stroke="#191970" points="319.2447,-23.0875 309.2255,-19.6427 314.9097,-28.5837 319.2447,-23.0875"/>
</g>
<!-- Node11 -->
<g id="node12" class="node">
<title>Node11</title>
<polygon fill="#ffffff" stroke="#bfbfbf" points="338,-.5 338,-19.5 398,-19.5 398,-.5 338,-.5"/>
<text text-anchor="middle" x="368" y="-7.5" font-family="Helvetica,sans-Serif" font-size="10.00" fill="#000000">iostream</text>
</g>
<!-- Node8&#45;&gt;Node11 -->
<g id="edge11" class="edge">
<title>Node8&#45;&gt;Node11</title>
<path fill="none" stroke="#191970" d="M368,-56.2455C368,-48.9382 368,-38.6944 368,-29.7046"/>
<polygon fill="#191970" stroke="#191970" points="371.5001,-29.6426 368,-19.6427 364.5001,-29.6427 371.5001,-29.6426"/>
</g>
<!-- Node12 -->
<g id="node13" class="node">
<title>Node12</title>
<polygon fill="#ffffff" stroke="#bfbfbf" points="416,-.5 416,-19.5 472,-19.5 472,-.5 416,-.5"/>
<text text-anchor="middle" x="444" y="-7.5" font-family="Helvetica,sans-Serif" font-size="10.00" fill="#000000">sstream</text>
</g>
<!-- Node8&#45;&gt;Node12 -->
<g id="edge12" class="edge">
<title>Node8&#45;&gt;Node12</title>
<path fill="none" stroke="#191970" d="M381.2382,-56.2455C392.681,-47.814 409.4296,-35.4729 422.7475,-25.6598"/>
<polygon fill="#191970" stroke="#191970" points="424.9391,-28.3924 430.9135,-19.6427 420.7867,-22.757 424.9391,-28.3924"/>
</g>
<!-- Node13 -->
<g id="node14" class="node">
<title>Node13</title>
<polygon fill="#ffffff" stroke="#bfbfbf" points="490,-.5 490,-19.5 538,-19.5 538,-.5 490,-.5"/>
<text text-anchor="middle" x="514" y="-7.5" font-family="Helvetica,sans-Serif" font-size="10.00" fill="#000000">thread</text>
</g>
<!-- Node8&#45;&gt;Node13 -->
<g id="edge13" class="edge">
<title>Node8&#45;&gt;Node13</title>
<path fill="none" stroke="#191970" d="M393.0983,-56.3733C417.1001,-47.1671 453.4713,-33.2165 480.0524,-23.021"/>
<polygon fill="#191970" stroke="#191970" points="481.631,-26.1642 489.7144,-19.315 479.1242,-19.6285 481.631,-26.1642"/>
</g>
<!-- Node15 -->
<g id="node16" class="node">
<title>Node15</title>
<g id="a_node16"><a xlink:href="RaCore_8hpp.html" target="_top" xlink:title="Core/RaCore.hpp">
<polygon fill="#ffffff" stroke="#000000" points="106,-112.5 106,-131.5 204,-131.5 204,-112.5 106,-112.5"/>
<text text-anchor="middle" x="155" y="-119.5" font-family="Helvetica,sans-Serif" font-size="10.00" fill="#000000">Core/RaCore.hpp</text>
</a>
</g>
</g>
<!-- Node14&#45;&gt;Node15 -->
<g id="edge15" class="edge">
<title>Node14&#45;&gt;Node15</title>
<path fill="none" stroke="#191970" d="M431.1407,-173.9688C423.5899,-171.8636 415.539,-169.7435 408,-168 389.3963,-163.6975 282.6608,-144.6008 213.9003,-132.4055"/>
<polygon fill="#191970" stroke="#191970" points="214.5033,-128.9579 204.0459,-130.6589 213.2816,-135.8505 214.5033,-128.9579"/>
</g>
<!-- Node16 -->
<g id="node17" class="node">
<title>Node16</title>
<polygon fill="#ffffff" stroke="#bfbfbf" points="222.5,-112.5 222.5,-131.5 291.5,-131.5 291.5,-112.5 222.5,-112.5"/>
<text text-anchor="middle" x="257" y="-119.5" font-family="Helvetica,sans-Serif" font-size="10.00" fill="#000000">Eigen/Core</text>
</g>
<!-- Node14&#45;&gt;Node16 -->
<g id="edge17" class="edge">
<title>Node14&#45;&gt;Node16</title>
<path fill="none" stroke="#191970" d="M430.8125,-173.8906C395.2867,-163.2846 337.9774,-146.1753 298.9559,-134.5257"/>
<polygon fill="#191970" stroke="#191970" points="299.5448,-131.0489 288.9615,-131.5419 297.5423,-137.7564 299.5448,-131.0489"/>
</g>
<!-- Node17 -->
<g id="node18" class="node">
<title>Node17</title>
<polygon fill="#ffffff" stroke="#bfbfbf" points="309.5,-112.5 309.5,-131.5 404.5,-131.5 404.5,-112.5 309.5,-112.5"/>
<text text-anchor="middle" x="357" y="-119.5" font-family="Helvetica,sans-Serif" font-size="10.00" fill="#000000">Eigen/Geometry</text>
</g>
<!-- Node14&#45;&gt;Node17 -->
<g id="edge18" class="edge">
<title>Node14&#45;&gt;Node17</title>
<path fill="none" stroke="#191970" d="M446.4375,-173.8906C429.2463,-163.9165 402.1418,-148.1908 382.2734,-136.6633"/>
<polygon fill="#191970" stroke="#191970" points="383.8523,-133.533 373.4462,-131.5419 380.3394,-139.5877 383.8523,-133.533"/>
</g>
<!-- Node18 -->
<g id="node19" class="node">
<title>Node18</title>
<polygon fill="#ffffff" stroke="#bfbfbf" points="423,-112.5 423,-131.5 503,-131.5 503,-112.5 423,-112.5"/>
<text text-anchor="middle" x="463" y="-119.5" font-family="Helvetica,sans-Serif" font-size="10.00" fill="#000000">Eigen/Sparse</text>
</g>
<!-- Node14&#45;&gt;Node18 -->
<g id="edge19" class="edge">
<title>Node14&#45;&gt;Node18</title>
<path fill="none" stroke="#191970" d="M463,-173.8906C463,-165.3657 463,-152.6392 463,-141.9235"/>
<polygon fill="#191970" stroke="#191970" points="466.5001,-141.7448 463,-131.7449 459.5001,-141.7449 466.5001,-141.7448"/>
</g>
<!-- Node15&#45;&gt;Node8 -->
<g id="edge16" class="edge">
<title>Node15&#45;&gt;Node8</title>
<path fill="none" stroke="#191970" d="M191.616,-112.3733C227.648,-102.9001 282.7878,-88.4032 321.8114,-78.1435"/>
<polygon fill="#191970" stroke="#191970" points="323.0804,-81.4289 331.8618,-75.5011 321.3005,-74.6589 323.0804,-81.4289"/>
</g>
<!-- Node19&#45;&gt;Node7 -->
<g id="edge21" class="edge">
<title>Node19&#45;&gt;Node7</title>
<path fill="none" stroke="#191970" d="M698.8381,-168.4554C673.0374,-158.284 639.2874,-144.9787 614.5222,-135.2155"/>
<polygon fill="#191970" stroke="#191970" points="615.7613,-131.9419 605.1745,-131.5303 613.194,-138.4541 615.7613,-131.9419"/>
</g>
<!-- Node19&#45;&gt;Node20 -->
<g id="edge22" class="edge">
<title>Node19&#45;&gt;Node20</title>
<path fill="none" stroke="#191970" d="M722.9101,-168.2977C714.7507,-159.4941 704.4528,-148.3833 695.9905,-139.2529"/>
<polygon fill="#191970" stroke="#191970" points="698.4911,-136.8021 689.1264,-131.8469 693.3571,-141.5604 698.4911,-136.8021"/>
</g>
<!-- Node21 -->
<g id="node22" class="node">
<title>Node21</title>
<polygon fill="#ffffff" stroke="#bfbfbf" points="835,-112.5 835,-131.5 867,-131.5 867,-112.5 835,-112.5"/>
<text text-anchor="middle" x="851" y="-119.5" font-family="Helvetica,sans-Serif" font-size="10.00" fill="#000000">list</text>
</g>
<!-- Node19&#45;&gt;Node21 -->
<g id="edge23" class="edge">
<title>Node19&#45;&gt;Node21</title>
<path fill="none" stroke="#191970" d="M764.8875,-168.4554C783.4638,-158.434 807.6791,-145.3705 825.698,-135.6498"/>
<polygon fill="#191970" stroke="#191970" points="827.8567,-138.4621 834.9959,-130.6338 824.5331,-132.3014 827.8567,-138.4621"/>
</g>
<!-- Node22 -->
<g id="node23" class="node">
<title>Node22</title>
<polygon fill="#ffffff" stroke="#bfbfbf" points="719,-112.5 719,-131.5 751,-131.5 751,-112.5 719,-112.5"/>
<text text-anchor="middle" x="735" y="-119.5" font-family="Helvetica,sans-Serif" font-size="10.00" fill="#000000">set</text>
</g>
<!-- Node19&#45;&gt;Node22 -->
<g id="edge24" class="edge">
<title>Node19&#45;&gt;Node22</title>
<path fill="none" stroke="#191970" d="M736.5056,-168.2977C736.2482,-160.3834 735.9302,-150.6043 735.6529,-142.0759"/>
<polygon fill="#191970" stroke="#191970" points="739.1435,-141.7279 735.3202,-131.8469 732.1472,-141.9554 739.1435,-141.7279"/>
</g>
<!-- Node19&#45;&gt;Node23 -->
<g id="edge25" class="edge">
<title>Node19&#45;&gt;Node23</title>
<path fill="none" stroke="#191970" d="M778.5867,-168.4554C808.3524,-157.6872 847.8271,-143.4067 875.1147,-133.535"/>
<polygon fill="#191970" stroke="#191970" points="876.3631,-136.8054 884.576,-130.1122 873.9818,-130.2229 876.3631,-136.8054"/>
</g>
<!-- Node24 -->
<g id="node25" class="node">
<title>Node24</title>
<polygon fill="#ffffff" stroke="#bfbfbf" points="769.5,-112.5 769.5,-131.5 816.5,-131.5 816.5,-112.5 769.5,-112.5"/>
<text text-anchor="middle" x="793" y="-119.5" font-family="Helvetica,sans-Serif" font-size="10.00" fill="#000000">vector</text>
</g>
<!-- Node19&#45;&gt;Node24 -->
<g id="edge26" class="edge">
<title>Node19&#45;&gt;Node24</title>
<path fill="none" stroke="#191970" d="M750.8427,-168.2977C758.859,-159.4941 768.9762,-148.3833 777.29,-139.2529"/>
<polygon fill="#191970" stroke="#191970" points="779.8888,-141.5974 784.0337,-131.8469 774.7131,-136.8845 779.8888,-141.5974"/>
</g>
</g>
</svg>
        <g id="navigator" transform="translate(0 0)" fill="#404254">
                <rect fill="#f2f5e9" fill-opacity="0.5" stroke="#606060" stroke-width=".5" x="0" y="0" width="60" height="60"/>
                <use id="zoomplus" xlink:href="#zoomPlus" x="17" y="9" onmousedown="handleZoom(evt,'in')"/>
                <use id="zoomminus" xlink:href="#zoomMin" x="42" y="9" onmousedown="handleZoom(evt,'out')"/>
                <use id="reset" xlink:href="#resetDef" x="30" y="36" onmousedown="handleReset()"/>
                <g id="arrowUp" xlink:href="#dirArrow" transform="translate(30 24)" onmousedown="handlePan(0,-1)">
                  <use xlink:href="#rim" fill="#404040">
                        <set attributeName="fill" to="#808080" begin="arrowUp.mouseover" end="arrowUp.mouseout"/>
                  </use>
                  <path fill="none" stroke="white" stroke-width="1.5" d="M0,-3.0v7 M-2.5,-0.5L0,-3.0L2.5,-0.5"/>
                </g>
                <g id="arrowRight" xlink:href="#dirArrow" transform="rotate(90) translate(36 -43)" onmousedown="handlePan(1,0)">
                  <use xlink:href="#rim" fill="#404040">
                        <set attributeName="fill" to="#808080" begin="arrowRight.mouseover" end="arrowRight.mouseout"/>
                  </use>
                  <path fill="none" stroke="white" stroke-width="1.5" d="M0,-3.0v7 M-2.5,-0.5L0,-3.0L2.5,-0.5"/>
                </g>
                <g id="arrowDown" xlink:href="#dirArrow" transform="rotate(180) translate(-30 -48)" onmousedown="handlePan(0,1)">
                  <use xlink:href="#rim" fill="#404040">
                        <set attributeName="fill" to="#808080" begin="arrowDown.mouseover" end="arrowDown.mouseout"/>
                  </use>
                  <path fill="none" stroke="white" stroke-width="1.5" d="M0,-3.0v7 M-2.5,-0.5L0,-3.0L2.5,-0.5"/>
                </g>
                <g id="arrowLeft" xlink:href="#dirArrow" transform="rotate(270) translate(-36 17)" onmousedown="handlePan(-1,0)">
                  <use xlink:href="#rim" fill="#404040">
                        <set attributeName="fill" to="#808080" begin="arrowLeft.mouseover" end="arrowLeft.mouseout"/>
                  </use>
                  <path fill="none" stroke="white" stroke-width="1.5" d="M0,-3.0v7 M-2.5,-0.5L0,-3.0L2.5,-0.5"/>
                </g>
        </g>
        <svg viewBox="0 0 15 15" width="100%" height="30px" preserveAspectRatio="xMaxYMin meet">
         <g id="arrow_out" transform="scale(0.3 0.3)">
          <a xlink:href="Mesh_8inl__incl_org.svg" target="_base">
           <rect id="button" ry="5" rx="5" y="6" x="6" height="38" width="38"
                fill="#f2f5e9" fill-opacity="0.5" stroke="#606060" stroke-width="1.0"/>
           <path id="arrow"
             d="M 11.500037,31.436501 C 11.940474,20.09759 22.043105,11.32322 32.158766,21.979434 L 37.068811,17.246167 C 37.068811,17.246167 37.088388,32 37.088388,32 L 22.160133,31.978069 C 22.160133,31.978069 26.997745,27.140456 26.997745,27.140456 C 18.528582,18.264221 13.291696,25.230495 11.500037,31.436501 z"
             style="fill:#404040;"/>
          </a>
         </g>
        </svg>
</svg>
