<?xml version="1.0" encoding="UTF-8" standalone="no"?>
<!DOCTYPE svg PUBLIC "-//W3C//DTD SVG 1.1//EN"
 "http://www.w3.org/Graphics/SVG/1.1/DTD/svg11.dtd">
<!-- Generated by graphviz version 2.40.1 (20161225.0304)
 -->
<!-- Title: Ra::Core::Geometry::makeCapsule Pages: 1 -->
<svg width="754pt" height="258pt"
 viewBox="0.00 0.00 754.00 257.50" xmlns="http://www.w3.org/2000/svg" xmlns:xlink="http://www.w3.org/1999/xlink">
<g id="graph0" class="graph" transform="scale(1 1) rotate(0) translate(4 253.5)">
<title>Ra::Core::Geometry::makeCapsule</title>
<polygon fill="#ffffff" stroke="transparent" points="-4,4 -4,-253.5 750,-253.5 750,4 -4,4"/>
<!-- Node104 -->
<g id="node1" class="node">
<title>Node104</title>
<polygon fill="#bfbfbf" stroke="#000000" points="0,-115.5 0,-145.5 113,-145.5 113,-115.5 0,-115.5"/>
<text text-anchor="start" x="8" y="-133.5" font-family="Helvetica,sans-Serif" font-size="10.00" fill="#000000">Ra::Core::Geometry</text>
<text text-anchor="middle" x="56.5" y="-122.5" font-family="Helvetica,sans-Serif" font-size="10.00" fill="#000000">::makeCapsule</text>
</g>
<!-- Node105 -->
<g id="node2" class="node">
<title>Node105</title>
<g id="a_node2"><a xlink:href="namespaceRa_1_1Core_1_1Math.html#a4f441ac6a56092d52849a4f48e274aa8" target="_top" xlink:title="Ra::Core::Math::cos">
<polygon fill="#ffffff" stroke="#000000" points="195.5,-230 195.5,-249 305.5,-249 305.5,-230 195.5,-230"/>
<text text-anchor="middle" x="250.5" y="-237" font-family="Helvetica,sans-Serif" font-size="10.00" fill="#000000">Ra::Core::Math::cos</text>
</a>
</g>
</g>
<!-- Node104&#45;&gt;Node105 -->
<g id="edge1" class="edge">
<title>Node104&#45;&gt;Node105</title>
<path fill="none" stroke="#191970" d="M67.4314,-145.7067C83.0518,-166.2085 113.7932,-202.2436 149,-220.5 160.1766,-226.2956 172.8594,-230.3413 185.381,-233.161"/>
<polygon fill="#191970" stroke="#191970" points="184.8624,-236.6268 195.3566,-235.1695 186.2442,-229.7645 184.8624,-236.6268"/>
</g>
<!-- Node106 -->
<g id="node3" class="node">
<title>Node106</title>
<g id="a_node3"><a xlink:href="classRa_1_1Core_1_1Geometry_1_1AttribArrayGeometry.html#a887411177386edbcdc35d0c6bf78a83a" target="_top" xlink:title="Set vertices. ">
<polygon fill="#ffffff" stroke="#000000" points="188,-110 188,-151 313,-151 313,-110 188,-110"/>
<text text-anchor="start" x="196" y="-139" font-family="Helvetica,sans-Serif" font-size="10.00" fill="#000000">Ra::Core::Geometry</text>
<text text-anchor="start" x="196" y="-128" font-family="Helvetica,sans-Serif" font-size="10.00" fill="#000000">::AttribArrayGeometry</text>
<text text-anchor="middle" x="250.5" y="-117" font-family="Helvetica,sans-Serif" font-size="10.00" fill="#000000">::setVertices</text>
</a>
</g>
</g>
<!-- Node104&#45;&gt;Node106 -->
<g id="edge2" class="edge">
<title>Node104&#45;&gt;Node106</title>
<path fill="none" stroke="#191970" d="M113.1343,-130.5C133.2217,-130.5 156.1201,-130.5 177.3853,-130.5"/>
<polygon fill="#191970" stroke="#191970" points="177.6739,-134.0001 187.6739,-130.5 177.6739,-127.0001 177.6739,-134.0001"/>
</g>
<!-- Node110 -->
<g id="node7" class="node">
<title>Node110</title>
<g id="a_node7"><a xlink:href="classRa_1_1Core_1_1Geometry_1_1AttribArrayGeometry.html#a646faabae9b936589fe03d8a9d2002e9" target="_top" xlink:title="Set normals. ">
<polygon fill="#ffffff" stroke="#000000" points="188,-50 188,-91 313,-91 313,-50 188,-50"/>
<text text-anchor="start" x="196" y="-79" font-family="Helvetica,sans-Serif" font-size="10.00" fill="#000000">Ra::Core::Geometry</text>
<text text-anchor="start" x="196" y="-68" font-family="Helvetica,sans-Serif" font-size="10.00" fill="#000000">::AttribArrayGeometry</text>
<text text-anchor="middle" x="250.5" y="-57" font-family="Helvetica,sans-Serif" font-size="10.00" fill="#000000">::setNormals</text>
</a>
</g>
</g>
<!-- Node104&#45;&gt;Node110 -->
<g id="edge6" class="edge">
<title>Node104&#45;&gt;Node110</title>
<path fill="none" stroke="#191970" d="M102.0616,-115.4608C116.9925,-110.6026 133.6803,-105.2474 149,-100.5 158.4121,-97.5833 168.3347,-94.5722 178.141,-91.6342"/>
<polygon fill="#191970" stroke="#191970" points="179.3035,-94.9399 187.8853,-88.7268 177.3021,-88.2321 179.3035,-94.9399"/>
</g>
<!-- Node112 -->
<g id="node9" class="node">
<title>Node112</title>
<g id="a_node9"><a xlink:href="classRa_1_1Core_1_1Geometry_1_1AttribArrayGeometry.html#a3a3a1458f93f23c7c8663bc3d52f7841" target="_top" xlink:title="Ra::Core::Geometry\l::AttribArrayGeometry\l::colorize">
<polygon fill="#ffffff" stroke="#000000" points="188,-170 188,-211 313,-211 313,-170 188,-170"/>
<text text-anchor="start" x="196" y="-199" font-family="Helvetica,sans-Serif" font-size="10.00" fill="#000000">Ra::Core::Geometry</text>
<text text-anchor="start" x="196" y="-188" font-family="Helvetica,sans-Serif" font-size="10.00" fill="#000000">::AttribArrayGeometry</text>
<text text-anchor="middle" x="250.5" y="-177" font-family="Helvetica,sans-Serif" font-size="10.00" fill="#000000">::colorize</text>
</a>
</g>
</g>
<!-- Node104&#45;&gt;Node112 -->
<g id="edge10" class="edge">
<title>Node104&#45;&gt;Node112</title>
<path fill="none" stroke="#191970" d="M102.0616,-145.5392C116.9925,-150.3974 133.6803,-155.7526 149,-160.5 158.4121,-163.4167 168.3347,-166.4278 178.141,-169.3658"/>
<polygon fill="#191970" stroke="#191970" points="177.3021,-172.7679 187.8853,-172.2732 179.3035,-166.0601 177.3021,-172.7679"/>
</g>
<!-- Node114 -->
<g id="node11" class="node">
<title>Node114</title>
<g id="a_node11"><a xlink:href="classRa_1_1Core_1_1Geometry_1_1IndexedGeometry.html#a927f636cf0698e637cc23e2f7f012a48" target="_top" xlink:title="Ra::Core::Geometry\l::IndexedGeometry::checkConsistency">
<polygon fill="#ffffff" stroke="#000000" points="149,-.5 149,-30.5 352,-30.5 352,-.5 149,-.5"/>
<text text-anchor="start" x="157" y="-18.5" font-family="Helvetica,sans-Serif" font-size="10.00" fill="#000000">Ra::Core::Geometry</text>
<text text-anchor="middle" x="250.5" y="-7.5" font-family="Helvetica,sans-Serif" font-size="10.00" fill="#000000">::IndexedGeometry::checkConsistency</text>
</a>
</g>
</g>
<!-- Node104&#45;&gt;Node114 -->
<g id="edge14" class="edge">
<title>Node104&#45;&gt;Node114</title>
<path fill="none" stroke="#191970" d="M67.8518,-115.2316C83.7282,-94.9978 114.5183,-59.634 149,-40.5 153.1457,-38.1995 157.5023,-36.1082 161.9836,-34.2074"/>
<polygon fill="#191970" stroke="#191970" points="163.2819,-37.4579 171.3296,-30.5671 160.7412,-30.9352 163.2819,-37.4579"/>
</g>
<!-- Node107 -->
<g id="node4" class="node">
<title>Node107</title>
<g id="a_node4"><a xlink:href="classRa_1_1Core_1_1Utils_1_1AttribManager.html#a056b7697cfbedd6b20dde6ce7955094e" target="_top" xlink:title="Ra::Core::Utils::AttribManager\l::setAttrib">
<polygon fill="#ffffff" stroke="#000000" points="388,-85.5 388,-115.5 549,-115.5 549,-85.5 388,-85.5"/>
<text text-anchor="start" x="396" y="-103.5" font-family="Helvetica,sans-Serif" font-size="10.00" fill="#000000">Ra::Core::Utils::AttribManager</text>
<text text-anchor="middle" x="468.5" y="-92.5" font-family="Helvetica,sans-Serif" font-size="10.00" fill="#000000">::setAttrib</text>
</a>
</g>
</g>
<!-- Node106&#45;&gt;Node107 -->
<g id="edge3" class="edge">
<title>Node106&#45;&gt;Node107</title>
<path fill="none" stroke="#191970" d="M313.2622,-121.863C333.4417,-119.086 356.2166,-115.9518 377.9792,-112.957"/>
<polygon fill="#191970" stroke="#191970" points="378.4646,-116.4233 387.894,-111.5926 377.5102,-109.4886 378.4646,-116.4233"/>
</g>
<!-- Node108 -->
<g id="node5" class="node">
<title>Node108</title>
<g id="a_node5"><a xlink:href="classRa_1_1Core_1_1Geometry_1_1AttribArrayGeometry.html#acabe05880d71a8dc4406964c258fff5a" target="_top" xlink:title="Access the vertices positions. ">
<polygon fill="#ffffff" stroke="#000000" points="406,-135 406,-176 531,-176 531,-135 406,-135"/>
<text text-anchor="start" x="414" y="-164" font-family="Helvetica,sans-Serif" font-size="10.00" fill="#000000">Ra::Core::Geometry</text>
<text text-anchor="start" x="414" y="-153" font-family="Helvetica,sans-Serif" font-size="10.00" fill="#000000">::AttribArrayGeometry</text>
<text text-anchor="middle" x="468.5" y="-142" font-family="Helvetica,sans-Serif" font-size="10.00" fill="#000000">::vertices</text>
</a>
</g>
</g>
<!-- Node106&#45;&gt;Node108 -->
<g id="edge4" class="edge">
<title>Node106&#45;&gt;Node108</title>
<path fill="none" stroke="#191970" d="M313.2622,-137.6975C339.0268,-140.6522 369.0223,-144.092 395.7399,-147.1559"/>
<polygon fill="#191970" stroke="#191970" points="395.4698,-150.6478 405.8035,-148.31 396.2674,-143.6934 395.4698,-150.6478"/>
</g>
<!-- Node109 -->
<g id="node6" class="node">
<title>Node109</title>
<g id="a_node6"><a xlink:href="classRa_1_1Core_1_1Utils_1_1AttribManager.html#ae0cb7281ec72606a5392602b4ea50d2c" target="_top" xlink:title="Ra::Core::Utils::AttribManager\l::getAttrib">
<polygon fill="#ffffff" stroke="#000000" points="585,-140.5 585,-170.5 746,-170.5 746,-140.5 585,-140.5"/>
<text text-anchor="start" x="593" y="-158.5" font-family="Helvetica,sans-Serif" font-size="10.00" fill="#000000">Ra::Core::Utils::AttribManager</text>
<text text-anchor="middle" x="665.5" y="-147.5" font-family="Helvetica,sans-Serif" font-size="10.00" fill="#000000">::getAttrib</text>
</a>
</g>
</g>
<!-- Node108&#45;&gt;Node109 -->
<g id="edge5" class="edge">
<title>Node108&#45;&gt;Node109</title>
<path fill="none" stroke="#191970" d="M531.1027,-155.5C544.9253,-155.5 559.8405,-155.5 574.5309,-155.5"/>
<polygon fill="#191970" stroke="#191970" points="574.6492,-159.0001 584.6492,-155.5 574.6491,-152.0001 574.6492,-159.0001"/>
</g>
<!-- Node110&#45;&gt;Node107 -->
<g id="edge7" class="edge">
<title>Node110&#45;&gt;Node107</title>
<path fill="none" stroke="#191970" d="M313.2622,-79.137C333.4417,-81.914 356.2166,-85.0482 377.9792,-88.043"/>
<polygon fill="#191970" stroke="#191970" points="377.5102,-91.5114 387.894,-89.4074 378.4646,-84.5767 377.5102,-91.5114"/>
</g>
<!-- Node111 -->
<g id="node8" class="node">
<title>Node111</title>
<g id="a_node8"><a xlink:href="classRa_1_1Core_1_1Geometry_1_1AttribArrayGeometry.html#abfd2320cb73c0cb14805c234af594b5e" target="_top" xlink:title="Access the vertices normals. ">
<polygon fill="#ffffff" stroke="#000000" points="406,-25 406,-66 531,-66 531,-25 406,-25"/>
<text text-anchor="start" x="414" y="-54" font-family="Helvetica,sans-Serif" font-size="10.00" fill="#000000">Ra::Core::Geometry</text>
<text text-anchor="start" x="414" y="-43" font-family="Helvetica,sans-Serif" font-size="10.00" fill="#000000">::AttribArrayGeometry</text>
<text text-anchor="middle" x="468.5" y="-32" font-family="Helvetica,sans-Serif" font-size="10.00" fill="#000000">::normals</text>
</a>
</g>
</g>
<!-- Node110&#45;&gt;Node111 -->
<g id="edge8" class="edge">
<title>Node110&#45;&gt;Node111</title>
<path fill="none" stroke="#191970" d="M313.2622,-63.3025C339.0268,-60.3478 369.0223,-56.908 395.7399,-53.8441"/>
<polygon fill="#191970" stroke="#191970" points="396.2674,-57.3066 405.8035,-52.69 395.4698,-50.3522 396.2674,-57.3066"/>
</g>
<!-- Node111&#45;&gt;Node109 -->
<g id="edge9" class="edge">
<title>Node111&#45;&gt;Node109</title>
<path fill="none" stroke="#191970" d="M528.5614,-66.0137C535.5635,-68.9513 542.5151,-72.1302 549,-75.5 581.4325,-92.3531 615.5685,-116.6818 638.4432,-134.079"/>
<polygon fill="#191970" stroke="#191970" points="636.5713,-137.0547 646.6317,-140.3772 640.839,-131.5061 636.5713,-137.0547"/>
</g>
<!-- Node112&#45;&gt;Node108 -->
<g id="edge13" class="edge">
<title>Node112&#45;&gt;Node108</title>
<path fill="none" stroke="#191970" d="M313.2622,-180.4235C339.0268,-176.287 369.0223,-171.4712 395.7399,-167.1817"/>
<polygon fill="#191970" stroke="#191970" points="396.4848,-170.607 405.8035,-165.566 395.3751,-163.6955 396.4848,-170.607"/>
</g>
<!-- Node113 -->
<g id="node10" class="node">
<title>Node113</title>
<g id="a_node10"><a xlink:href="classRa_1_1Core_1_1Geometry_1_1AttribArrayGeometry.html#aeb68d9cd8cf8c1e05886a23f0ad33c59" target="_top" xlink:title="Ra::Core::Geometry\l::AttribArrayGeometry\l::getAttrib">
<polygon fill="#ffffff" stroke="#000000" points="406,-195 406,-236 531,-236 531,-195 406,-195"/>
<text text-anchor="start" x="414" y="-224" font-family="Helvetica,sans-Serif" font-size="10.00" fill="#000000">Ra::Core::Geometry</text>
<text text-anchor="start" x="414" y="-213" font-family="Helvetica,sans-Serif" font-size="10.00" fill="#000000">::AttribArrayGeometry</text>
<text text-anchor="middle" x="468.5" y="-202" font-family="Helvetica,sans-Serif" font-size="10.00" fill="#000000">::getAttrib</text>
</a>
</g>
</g>
<!-- Node112&#45;&gt;Node113 -->
<g id="edge11" class="edge">
<title>Node112&#45;&gt;Node113</title>
<path fill="none" stroke="#191970" d="M313.2622,-197.6975C339.0268,-200.6522 369.0223,-204.092 395.7399,-207.1559"/>
<polygon fill="#191970" stroke="#191970" points="395.4698,-210.6478 405.8035,-208.31 396.2674,-203.6934 395.4698,-210.6478"/>
</g>
<!-- Node113&#45;&gt;Node109 -->
<g id="edge12" class="edge">
<title>Node113&#45;&gt;Node109</title>
<path fill="none" stroke="#191970" d="M531.1027,-196.4332C555.2641,-189.0744 582.7637,-180.6989 606.5663,-173.4493"/>
<polygon fill="#191970" stroke="#191970" points="607.6294,-176.7844 616.1758,-170.5226 605.5899,-170.0881 607.6294,-176.7844"/>
</g>
</g>
</svg>
