<?xml version="1.0" encoding="UTF-8" standalone="no"?>
<!DOCTYPE svg PUBLIC "-//W3C//DTD SVG 1.1//EN"
 "http://www.w3.org/Graphics/SVG/1.1/DTD/svg11.dtd">
<!-- Generated by graphviz version 2.40.1 (20161225.0304)
 -->
<!-- Title: Ra::Core::Geometry::makeGeodesicSphere Pages: 1 -->
<svg width="770pt" height="258pt"
 viewBox="0.00 0.00 770.00 257.50" xmlns="http://www.w3.org/2000/svg" xmlns:xlink="http://www.w3.org/1999/xlink">
<g id="graph0" class="graph" transform="scale(1 1) rotate(0) translate(4 253.5)">
<title>Ra::Core::Geometry::makeGeodesicSphere</title>
<polygon fill="#ffffff" stroke="transparent" points="-4,4 -4,-253.5 766,-253.5 766,4 -4,4"/>
<!-- Node143 -->
<g id="node1" class="node">
<title>Node143</title>
<polygon fill="#bfbfbf" stroke="#000000" points="0,-115.5 0,-145.5 129,-145.5 129,-115.5 0,-115.5"/>
<text text-anchor="start" x="8" y="-133.5" font-family="Helvetica,sans-Serif" font-size="10.00" fill="#000000">Ra::Core::Geometry</text>
<text text-anchor="middle" x="64.5" y="-122.5" font-family="Helvetica,sans-Serif" font-size="10.00" fill="#000000">::makeGeodesicSphere</text>
</g>
<!-- Node144 -->
<g id="node2" class="node">
<title>Node144</title>
<g id="a_node2"><a xlink:href="namespaceRa_1_1Core_1_1Math.html#a4f441ac6a56092d52849a4f48e274aa8" target="_top" xlink:title="Ra::Core::Math::cos">
<polygon fill="#ffffff" stroke="#000000" points="211.5,-230 211.5,-249 321.5,-249 321.5,-230 211.5,-230"/>
<text text-anchor="middle" x="266.5" y="-237" font-family="Helvetica,sans-Serif" font-size="10.00" fill="#000000">Ra::Core::Math::cos</text>
</a>
</g>
</g>
<!-- Node143&#45;&gt;Node144 -->
<g id="edge1" class="edge">
<title>Node143&#45;&gt;Node144</title>
<path fill="none" stroke="#191970" d="M76.6804,-145.6889C94.004,-166.1701 127.8107,-202.1813 165,-220.5 176.2307,-226.032 188.8869,-229.9597 201.3552,-232.7468"/>
<polygon fill="#191970" stroke="#191970" points="200.7893,-236.203 211.2835,-234.7462 202.1714,-229.3408 200.7893,-236.203"/>
</g>
<!-- Node145 -->
<g id="node3" class="node">
<title>Node145</title>
<g id="a_node3"><a xlink:href="classRa_1_1Core_1_1Geometry_1_1AttribArrayGeometry.html#a887411177386edbcdc35d0c6bf78a83a" target="_top" xlink:title="Set vertices. ">
<polygon fill="#ffffff" stroke="#000000" points="204,-110 204,-151 329,-151 329,-110 204,-110"/>
<text text-anchor="start" x="212" y="-139" font-family="Helvetica,sans-Serif" font-size="10.00" fill="#000000">Ra::Core::Geometry</text>
<text text-anchor="start" x="212" y="-128" font-family="Helvetica,sans-Serif" font-size="10.00" fill="#000000">::AttribArrayGeometry</text>
<text text-anchor="middle" x="266.5" y="-117" font-family="Helvetica,sans-Serif" font-size="10.00" fill="#000000">::setVertices</text>
</a>
</g>
</g>
<!-- Node143&#45;&gt;Node145 -->
<g id="edge2" class="edge">
<title>Node143&#45;&gt;Node145</title>
<path fill="none" stroke="#191970" d="M129.2476,-130.5C149.7759,-130.5 172.6081,-130.5 193.665,-130.5"/>
<polygon fill="#191970" stroke="#191970" points="193.8416,-134.0001 203.8415,-130.5 193.8415,-127.0001 193.8416,-134.0001"/>
</g>
<!-- Node149 -->
<g id="node7" class="node">
<title>Node149</title>
<g id="a_node7"><a xlink:href="classRa_1_1Core_1_1Geometry_1_1AttribArrayGeometry.html#a646faabae9b936589fe03d8a9d2002e9" target="_top" xlink:title="Set normals. ">
<polygon fill="#ffffff" stroke="#000000" points="204,-50 204,-91 329,-91 329,-50 204,-50"/>
<text text-anchor="start" x="212" y="-79" font-family="Helvetica,sans-Serif" font-size="10.00" fill="#000000">Ra::Core::Geometry</text>
<text text-anchor="start" x="212" y="-68" font-family="Helvetica,sans-Serif" font-size="10.00" fill="#000000">::AttribArrayGeometry</text>
<text text-anchor="middle" x="266.5" y="-57" font-family="Helvetica,sans-Serif" font-size="10.00" fill="#000000">::setNormals</text>
</a>
</g>
</g>
<!-- Node143&#45;&gt;Node149 -->
<g id="edge6" class="edge">
<title>Node143&#45;&gt;Node149</title>
<path fill="none" stroke="#191970" d="M114.8462,-115.4423C130.8745,-110.6562 148.6796,-105.3477 165,-100.5 174.4458,-97.6943 184.388,-94.7476 194.2042,-91.8422"/>
<polygon fill="#191970" stroke="#191970" points="195.3591,-95.1505 203.9553,-88.9573 193.3732,-88.4381 195.3591,-95.1505"/>
</g>
<!-- Node151 -->
<g id="node9" class="node">
<title>Node151</title>
<g id="a_node9"><a xlink:href="classRa_1_1Core_1_1Geometry_1_1AttribArrayGeometry.html#a3a3a1458f93f23c7c8663bc3d52f7841" target="_top" xlink:title="Ra::Core::Geometry\l::AttribArrayGeometry\l::colorize">
<polygon fill="#ffffff" stroke="#000000" points="204,-170 204,-211 329,-211 329,-170 204,-170"/>
<text text-anchor="start" x="212" y="-199" font-family="Helvetica,sans-Serif" font-size="10.00" fill="#000000">Ra::Core::Geometry</text>
<text text-anchor="start" x="212" y="-188" font-family="Helvetica,sans-Serif" font-size="10.00" fill="#000000">::AttribArrayGeometry</text>
<text text-anchor="middle" x="266.5" y="-177" font-family="Helvetica,sans-Serif" font-size="10.00" fill="#000000">::colorize</text>
</a>
</g>
</g>
<!-- Node143&#45;&gt;Node151 -->
<g id="edge10" class="edge">
<title>Node143&#45;&gt;Node151</title>
<path fill="none" stroke="#191970" d="M114.8462,-145.5577C130.8745,-150.3438 148.6796,-155.6523 165,-160.5 174.4458,-163.3057 184.388,-166.2524 194.2042,-169.1578"/>
<polygon fill="#191970" stroke="#191970" points="193.3732,-172.5619 203.9553,-172.0427 195.3591,-165.8495 193.3732,-172.5619"/>
</g>
<!-- Node153 -->
<g id="node11" class="node">
<title>Node153</title>
<g id="a_node11"><a xlink:href="classRa_1_1Core_1_1Geometry_1_1IndexedGeometry.html#a927f636cf0698e637cc23e2f7f012a48" target="_top" xlink:title="Ra::Core::Geometry\l::IndexedGeometry::checkConsistency">
<polygon fill="#ffffff" stroke="#000000" points="165,-.5 165,-30.5 368,-30.5 368,-.5 165,-.5"/>
<text text-anchor="start" x="173" y="-18.5" font-family="Helvetica,sans-Serif" font-size="10.00" fill="#000000">Ra::Core::Geometry</text>
<text text-anchor="middle" x="266.5" y="-7.5" font-family="Helvetica,sans-Serif" font-size="10.00" fill="#000000">::IndexedGeometry::checkConsistency</text>
</a>
</g>
</g>
<!-- Node143&#45;&gt;Node153 -->
<g id="edge14" class="edge">
<title>Node143&#45;&gt;Node153</title>
<path fill="none" stroke="#191970" d="M77.1305,-115.2661C94.7165,-95.0712 128.5496,-59.7515 165,-40.5 169.3353,-38.2103 173.886,-36.1254 178.5583,-34.2277"/>
<polygon fill="#191970" stroke="#191970" points="180.1485,-37.3698 188.2895,-30.5894 177.6971,-30.8131 180.1485,-37.3698"/>
</g>
<!-- Node146 -->
<g id="node4" class="node">
<title>Node146</title>
<g id="a_node4"><a xlink:href="classRa_1_1Core_1_1Utils_1_1AttribManager.html#a056b7697cfbedd6b20dde6ce7955094e" target="_top" xlink:title="Ra::Core::Utils::AttribManager\l::setAttrib">
<polygon fill="#ffffff" stroke="#000000" points="404,-85.5 404,-115.5 565,-115.5 565,-85.5 404,-85.5"/>
<text text-anchor="start" x="412" y="-103.5" font-family="Helvetica,sans-Serif" font-size="10.00" fill="#000000">Ra::Core::Utils::AttribManager</text>
<text text-anchor="middle" x="484.5" y="-92.5" font-family="Helvetica,sans-Serif" font-size="10.00" fill="#000000">::setAttrib</text>
</a>
</g>
</g>
<!-- Node145&#45;&gt;Node146 -->
<g id="edge3" class="edge">
<title>Node145&#45;&gt;Node146</title>
<path fill="none" stroke="#191970" d="M329.2622,-121.863C349.4417,-119.086 372.2166,-115.9518 393.9792,-112.957"/>
<polygon fill="#191970" stroke="#191970" points="394.4646,-116.4233 403.894,-111.5926 393.5102,-109.4886 394.4646,-116.4233"/>
</g>
<!-- Node147 -->
<g id="node5" class="node">
<title>Node147</title>
<g id="a_node5"><a xlink:href="classRa_1_1Core_1_1Geometry_1_1AttribArrayGeometry.html#acabe05880d71a8dc4406964c258fff5a" target="_top" xlink:title="Access the vertices positions. ">
<polygon fill="#ffffff" stroke="#000000" points="422,-135 422,-176 547,-176 547,-135 422,-135"/>
<text text-anchor="start" x="430" y="-164" font-family="Helvetica,sans-Serif" font-size="10.00" fill="#000000">Ra::Core::Geometry</text>
<text text-anchor="start" x="430" y="-153" font-family="Helvetica,sans-Serif" font-size="10.00" fill="#000000">::AttribArrayGeometry</text>
<text text-anchor="middle" x="484.5" y="-142" font-family="Helvetica,sans-Serif" font-size="10.00" fill="#000000">::vertices</text>
</a>
</g>
</g>
<!-- Node145&#45;&gt;Node147 -->
<g id="edge4" class="edge">
<title>Node145&#45;&gt;Node147</title>
<path fill="none" stroke="#191970" d="M329.2622,-137.6975C355.0268,-140.6522 385.0223,-144.092 411.7399,-147.1559"/>
<polygon fill="#191970" stroke="#191970" points="411.4698,-150.6478 421.8035,-148.31 412.2674,-143.6934 411.4698,-150.6478"/>
</g>
<!-- Node148 -->
<g id="node6" class="node">
<title>Node148</title>
<g id="a_node6"><a xlink:href="classRa_1_1Core_1_1Utils_1_1AttribManager.html#ae0cb7281ec72606a5392602b4ea50d2c" target="_top" xlink:title="Ra::Core::Utils::AttribManager\l::getAttrib">
<polygon fill="#ffffff" stroke="#000000" points="601,-140.5 601,-170.5 762,-170.5 762,-140.5 601,-140.5"/>
<text text-anchor="start" x="609" y="-158.5" font-family="Helvetica,sans-Serif" font-size="10.00" fill="#000000">Ra::Core::Utils::AttribManager</text>
<text text-anchor="middle" x="681.5" y="-147.5" font-family="Helvetica,sans-Serif" font-size="10.00" fill="#000000">::getAttrib</text>
</a>
</g>
</g>
<!-- Node147&#45;&gt;Node148 -->
<g id="edge5" class="edge">
<title>Node147&#45;&gt;Node148</title>
<path fill="none" stroke="#191970" d="M547.1027,-155.5C560.9253,-155.5 575.8405,-155.5 590.5309,-155.5"/>
<polygon fill="#191970" stroke="#191970" points="590.6492,-159.0001 600.6492,-155.5 590.6491,-152.0001 590.6492,-159.0001"/>
</g>
<!-- Node149&#45;&gt;Node146 -->
<g id="edge7" class="edge">
<title>Node149&#45;&gt;Node146</title>
<path fill="none" stroke="#191970" d="M329.2622,-79.137C349.4417,-81.914 372.2166,-85.0482 393.9792,-88.043"/>
<polygon fill="#191970" stroke="#191970" points="393.5102,-91.5114 403.894,-89.4074 394.4646,-84.5767 393.5102,-91.5114"/>
</g>
<!-- Node150 -->
<g id="node8" class="node">
<title>Node150</title>
<g id="a_node8"><a xlink:href="classRa_1_1Core_1_1Geometry_1_1AttribArrayGeometry.html#abfd2320cb73c0cb14805c234af594b5e" target="_top" xlink:title="Access the vertices normals. ">
<polygon fill="#ffffff" stroke="#000000" points="422,-25 422,-66 547,-66 547,-25 422,-25"/>
<text text-anchor="start" x="430" y="-54" font-family="Helvetica,sans-Serif" font-size="10.00" fill="#000000">Ra::Core::Geometry</text>
<text text-anchor="start" x="430" y="-43" font-family="Helvetica,sans-Serif" font-size="10.00" fill="#000000">::AttribArrayGeometry</text>
<text text-anchor="middle" x="484.5" y="-32" font-family="Helvetica,sans-Serif" font-size="10.00" fill="#000000">::normals</text>
</a>
</g>
</g>
<!-- Node149&#45;&gt;Node150 -->
<g id="edge8" class="edge">
<title>Node149&#45;&gt;Node150</title>
<path fill="none" stroke="#191970" d="M329.2622,-63.3025C355.0268,-60.3478 385.0223,-56.908 411.7399,-53.8441"/>
<polygon fill="#191970" stroke="#191970" points="412.2674,-57.3066 421.8035,-52.69 411.4698,-50.3522 412.2674,-57.3066"/>
</g>
<!-- Node150&#45;&gt;Node148 -->
<g id="edge9" class="edge">
<title>Node150&#45;&gt;Node148</title>
<path fill="none" stroke="#191970" d="M544.5614,-66.0137C551.5635,-68.9513 558.5151,-72.1302 565,-75.5 597.4325,-92.3531 631.5685,-116.6818 654.4432,-134.079"/>
<polygon fill="#191970" stroke="#191970" points="652.5713,-137.0547 662.6317,-140.3772 656.839,-131.5061 652.5713,-137.0547"/>
</g>
<!-- Node151&#45;&gt;Node147 -->
<g id="edge13" class="edge">
<title>Node151&#45;&gt;Node147</title>
<path fill="none" stroke="#191970" d="M329.2622,-180.4235C355.0268,-176.287 385.0223,-171.4712 411.7399,-167.1817"/>
<polygon fill="#191970" stroke="#191970" points="412.4848,-170.607 421.8035,-165.566 411.3751,-163.6955 412.4848,-170.607"/>
</g>
<!-- Node152 -->
<g id="node10" class="node">
<title>Node152</title>
<g id="a_node10"><a xlink:href="classRa_1_1Core_1_1Geometry_1_1AttribArrayGeometry.html#aeb68d9cd8cf8c1e05886a23f0ad33c59" target="_top" xlink:title="Ra::Core::Geometry\l::AttribArrayGeometry\l::getAttrib">
<polygon fill="#ffffff" stroke="#000000" points="422,-195 422,-236 547,-236 547,-195 422,-195"/>
<text text-anchor="start" x="430" y="-224" font-family="Helvetica,sans-Serif" font-size="10.00" fill="#000000">Ra::Core::Geometry</text>
<text text-anchor="start" x="430" y="-213" font-family="Helvetica,sans-Serif" font-size="10.00" fill="#000000">::AttribArrayGeometry</text>
<text text-anchor="middle" x="484.5" y="-202" font-family="Helvetica,sans-Serif" font-size="10.00" fill="#000000">::getAttrib</text>
</a>
</g>
</g>
<!-- Node151&#45;&gt;Node152 -->
<g id="edge11" class="edge">
<title>Node151&#45;&gt;Node152</title>
<path fill="none" stroke="#191970" d="M329.2622,-197.6975C355.0268,-200.6522 385.0223,-204.092 411.7399,-207.1559"/>
<polygon fill="#191970" stroke="#191970" points="411.4698,-210.6478 421.8035,-208.31 412.2674,-203.6934 411.4698,-210.6478"/>
</g>
<!-- Node152&#45;&gt;Node148 -->
<g id="edge12" class="edge">
<title>Node152&#45;&gt;Node148</title>
<path fill="none" stroke="#191970" d="M547.1027,-196.4332C571.2641,-189.0744 598.7637,-180.6989 622.5663,-173.4493"/>
<polygon fill="#191970" stroke="#191970" points="623.6294,-176.7844 632.1758,-170.5226 621.5899,-170.0881 623.6294,-176.7844"/>
</g>
</g>
</svg>
