<?xml version="1.0" encoding="UTF-8" standalone="no"?>
<!DOCTYPE svg PUBLIC "-//W3C//DTD SVG 1.1//EN"
 "http://www.w3.org/Graphics/SVG/1.1/DTD/svg11.dtd">
<!-- Generated by graphviz version 2.40.1 (20161225.0304)
 -->
<!-- Title: Ra::IO::header Pages: 1 -->
<svg width="664pt" height="252pt"
 viewBox="0.00 0.00 664.00 252.00" xmlns="http://www.w3.org/2000/svg" xmlns:xlink="http://www.w3.org/1999/xlink">
<g id="graph0" class="graph" transform="scale(1 1) rotate(0) translate(4 248)">
<title>Ra::IO::header</title>
<polygon fill="#ffffff" stroke="transparent" points="-4,4 -4,-248 660,-248 660,4 -4,4"/>
<!-- Node13 -->
<g id="node1" class="node">
<title>Node13</title>
<polygon fill="#bfbfbf" stroke="#000000" points="0,-114.5 0,-133.5 86,-133.5 86,-114.5 0,-114.5"/>
<text text-anchor="middle" x="43" y="-121.5" font-family="Helvetica,sans-Serif" font-size="10.00" fill="#000000">Ra::IO::header</text>
</g>
<!-- Node14 -->
<g id="node2" class="node">
<title>Node14</title>
<g id="a_node2"><a xlink:href="namespaceRa_1_1IO.html#a966c5896ae38f8116c9a0217fbfca14d" target="_top" xlink:title="INTERFACE. ">
<polygon fill="#ffffff" stroke="#000000" points="134.5,-224.5 134.5,-243.5 249.5,-243.5 249.5,-224.5 134.5,-224.5"/>
<text text-anchor="middle" x="192" y="-231.5" font-family="Helvetica,sans-Serif" font-size="10.00" fill="#000000">Ra::IO::fileExtension</text>
</a>
</g>
</g>
<!-- Node13&#45;&gt;Node14 -->
<g id="edge1" class="edge">
<title>Node13&#45;&gt;Node14</title>
<path fill="none" stroke="#191970" d="M48.6074,-133.6309C59.98,-152.29 87.6219,-193.4248 122,-215 125.3831,-217.1232 129.0025,-219.0119 132.7477,-220.6917"/>
<polygon fill="#191970" stroke="#191970" points="131.6669,-224.028 142.2533,-224.4514 134.2415,-217.5187 131.6669,-224.028"/>
</g>
<!-- Node15 -->
<g id="node3" class="node">
<title>Node15</title>
<g id="a_node3"><a xlink:href="namespaceRa_1_1IO.html#a500f44220d3d052530dc956f6de3fea3" target="_top" xlink:title="Ra::IO::importData">
<polygon fill="#ffffff" stroke="#000000" points="138.5,-186.5 138.5,-205.5 245.5,-205.5 245.5,-186.5 138.5,-186.5"/>
<text text-anchor="middle" x="192" y="-193.5" font-family="Helvetica,sans-Serif" font-size="10.00" fill="#000000">Ra::IO::importData</text>
</a>
</g>
</g>
<!-- Node13&#45;&gt;Node15 -->
<g id="edge2" class="edge">
<title>Node13&#45;&gt;Node15</title>
<path fill="none" stroke="#191970" d="M54.5871,-133.566C69.3773,-145.3378 96.1549,-165.21 122,-177 127.2844,-179.4106 132.937,-181.5694 138.6536,-183.4888"/>
<polygon fill="#191970" stroke="#191970" points="137.6921,-186.8552 148.2808,-186.4952 139.7787,-180.1734 137.6921,-186.8552"/>
</g>
<!-- Node16 -->
<g id="node4" class="node">
<title>Node16</title>
<g id="a_node4"><a xlink:href="classRa_1_1Core_1_1Geometry_1_1IndexedGeometry.html#ab39bf689191e11e975554952d2532cb9" target="_top" xlink:title="Erases all data, making the AttribArrayGeometry empty. ">
<polygon fill="#ffffff" stroke="#000000" points="122,-137 122,-167 262,-167 262,-137 122,-137"/>
<text text-anchor="start" x="130" y="-155" font-family="Helvetica,sans-Serif" font-size="10.00" fill="#000000">Ra::Core::Geometry</text>
<text text-anchor="middle" x="192" y="-144" font-family="Helvetica,sans-Serif" font-size="10.00" fill="#000000">::IndexedGeometry::clear</text>
</a>
</g>
</g>
<!-- Node13&#45;&gt;Node16 -->
<g id="edge3" class="edge">
<title>Node13&#45;&gt;Node16</title>
<path fill="none" stroke="#191970" d="M86.097,-132.0988C94.215,-133.6243 102.942,-135.2643 111.777,-136.9245"/>
<polygon fill="#191970" stroke="#191970" points="111.2967,-140.3955 121.7711,-138.8026 112.5895,-133.5159 111.2967,-140.3955"/>
</g>
<!-- Node17 -->
<g id="node5" class="node">
<title>Node17</title>
<g id="a_node5"><a xlink:href="classRa_1_1Core_1_1Geometry_1_1AttribArrayGeometry.html#a887411177386edbcdc35d0c6bf78a83a" target="_top" xlink:title="Set vertices. ">
<polygon fill="#ffffff" stroke="#000000" points="129.5,-76.5 129.5,-117.5 254.5,-117.5 254.5,-76.5 129.5,-76.5"/>
<text text-anchor="start" x="137.5" y="-105.5" font-family="Helvetica,sans-Serif" font-size="10.00" fill="#000000">Ra::Core::Geometry</text>
<text text-anchor="start" x="137.5" y="-94.5" font-family="Helvetica,sans-Serif" font-size="10.00" fill="#000000">::AttribArrayGeometry</text>
<text text-anchor="middle" x="192" y="-83.5" font-family="Helvetica,sans-Serif" font-size="10.00" fill="#000000">::setVertices</text>
</a>
</g>
</g>
<!-- Node13&#45;&gt;Node17 -->
<g id="edge4" class="edge">
<title>Node13&#45;&gt;Node17</title>
<path fill="none" stroke="#191970" d="M86.097,-116.1905C96.5336,-114.2993 107.9767,-112.2257 119.3617,-110.1626"/>
<polygon fill="#191970" stroke="#191970" points="120.1094,-113.5842 129.325,-108.3572 118.8612,-106.6964 120.1094,-113.5842"/>
</g>
<!-- Node19 -->
<g id="node7" class="node">
<title>Node19</title>
<g id="a_node7"><a xlink:href="classRa_1_1Core_1_1Geometry_1_1AttribArrayGeometry.html#acabe05880d71a8dc4406964c258fff5a" target="_top" xlink:title="Access the vertices positions. ">
<polygon fill="#ffffff" stroke="#000000" points="316,-27.5 316,-68.5 441,-68.5 441,-27.5 316,-27.5"/>
<text text-anchor="start" x="324" y="-56.5" font-family="Helvetica,sans-Serif" font-size="10.00" fill="#000000">Ra::Core::Geometry</text>
<text text-anchor="start" x="324" y="-45.5" font-family="Helvetica,sans-Serif" font-size="10.00" fill="#000000">::AttribArrayGeometry</text>
<text text-anchor="middle" x="378.5" y="-34.5" font-family="Helvetica,sans-Serif" font-size="10.00" fill="#000000">::vertices</text>
</a>
</g>
</g>
<!-- Node13&#45;&gt;Node19 -->
<g id="edge9" class="edge">
<title>Node13&#45;&gt;Node19</title>
<path fill="none" stroke="#191970" d="M52.6553,-114.2207C66.5707,-100.8387 93.7154,-77.3081 122,-67 181.1945,-45.4272 253.0545,-41.8624 305.6378,-43.0086"/>
<polygon fill="#191970" stroke="#191970" points="305.7936,-46.5143 315.888,-43.2967 305.9903,-39.5171 305.7936,-46.5143"/>
</g>
<!-- Node21 -->
<g id="node9" class="node">
<title>Node21</title>
<g id="a_node9"><a xlink:href="namespaceRa_1_1IO.html#a12ada915ca1c3b7b7dfedb7172d5cfcc" target="_top" xlink:title="Ra::IO::exportData">
<polygon fill="#ffffff" stroke="#000000" points="138.5,-.5 138.5,-19.5 245.5,-19.5 245.5,-.5 138.5,-.5"/>
<text text-anchor="middle" x="192" y="-7.5" font-family="Helvetica,sans-Serif" font-size="10.00" fill="#000000">Ra::IO::exportData</text>
</a>
</g>
</g>
<!-- Node13&#45;&gt;Node21 -->
<g id="edge8" class="edge">
<title>Node13&#45;&gt;Node21</title>
<path fill="none" stroke="#191970" d="M48.942,-114.3891C60.6916,-96.1472 88.6655,-56.336 122,-34 128.3103,-29.7717 135.4397,-26.2164 142.6731,-23.2487"/>
<polygon fill="#191970" stroke="#191970" points="144.3957,-26.3411 152.5344,-19.558 141.942,-19.7852 144.3957,-26.3411"/>
</g>
<!-- Node18 -->
<g id="node6" class="node">
<title>Node18</title>
<g id="a_node6"><a xlink:href="classRa_1_1Core_1_1Utils_1_1AttribManager.html#a056b7697cfbedd6b20dde6ce7955094e" target="_top" xlink:title="Ra::Core::Utils::AttribManager\l::setAttrib">
<polygon fill="#ffffff" stroke="#000000" points="298,-88 298,-118 459,-118 459,-88 298,-88"/>
<text text-anchor="start" x="306" y="-106" font-family="Helvetica,sans-Serif" font-size="10.00" fill="#000000">Ra::Core::Utils::AttribManager</text>
<text text-anchor="middle" x="378.5" y="-95" font-family="Helvetica,sans-Serif" font-size="10.00" fill="#000000">::setAttrib</text>
</a>
</g>
</g>
<!-- Node17&#45;&gt;Node18 -->
<g id="edge5" class="edge">
<title>Node17&#45;&gt;Node18</title>
<path fill="none" stroke="#191970" d="M254.6206,-99.0146C265.2341,-99.3561 276.4431,-99.7167 287.6071,-100.0758"/>
<polygon fill="#191970" stroke="#191970" points="287.7212,-103.5812 297.8286,-100.4047 287.9463,-96.5848 287.7212,-103.5812"/>
</g>
<!-- Node17&#45;&gt;Node19 -->
<g id="edge6" class="edge">
<title>Node17&#45;&gt;Node19</title>
<path fill="none" stroke="#191970" d="M254.6206,-80.5474C271.0741,-76.2245 288.9587,-71.5256 305.888,-67.0777"/>
<polygon fill="#191970" stroke="#191970" points="306.9449,-70.4189 315.7272,-64.4926 305.166,-63.6486 306.9449,-70.4189"/>
</g>
<!-- Node20 -->
<g id="node8" class="node">
<title>Node20</title>
<g id="a_node8"><a xlink:href="classRa_1_1Core_1_1Utils_1_1AttribManager.html#ae0cb7281ec72606a5392602b4ea50d2c" target="_top" xlink:title="Ra::Core::Utils::AttribManager\l::getAttrib">
<polygon fill="#ffffff" stroke="#000000" points="495,-33 495,-63 656,-63 656,-33 495,-33"/>
<text text-anchor="start" x="503" y="-51" font-family="Helvetica,sans-Serif" font-size="10.00" fill="#000000">Ra::Core::Utils::AttribManager</text>
<text text-anchor="middle" x="575.5" y="-40" font-family="Helvetica,sans-Serif" font-size="10.00" fill="#000000">::getAttrib</text>
</a>
</g>
</g>
<!-- Node19&#45;&gt;Node20 -->
<g id="edge7" class="edge">
<title>Node19&#45;&gt;Node20</title>
<path fill="none" stroke="#191970" d="M441.1027,-48C454.9253,-48 469.8405,-48 484.5309,-48"/>
<polygon fill="#191970" stroke="#191970" points="484.6492,-51.5001 494.6492,-48 484.6491,-44.5001 484.6492,-51.5001"/>
</g>
</g>
</svg>
