<?xml version="1.0" encoding="UTF-8" standalone="no"?>
<!DOCTYPE svg PUBLIC "-//W3C//DTD SVG 1.1//EN"
 "http://www.w3.org/Graphics/SVG/1.1/DTD/svg11.dtd">
<!-- Generated by graphviz version 2.40.1 (20161225.0304)
 -->
<!-- Title: Ra::Core::Geometry::makeParametricTorus Pages: 1 -->
<!--zoomable 258 -->
<svg id="main" version="1.1" xmlns="http://www.w3.org/2000/svg" xmlns:xlink="http://www.w3.org/1999/xlink" xml:space="preserve" onload="init(evt)">
<style type="text/css"><![CDATA[
.edge:hover path { stroke: red; }
.edge:hover polygon { stroke: red; fill: red; }
]]></style>
<script type="text/javascript"><![CDATA[
var edges = document.getElementsByTagName('g');
if (edges && edges.length) {
  for (var i=0;i<edges.length;i++) {
    if (edges[i].id.substr(0,4)=='edge') {
      edges[i].setAttribute('class','edge');
    }
  }
}
]]></script>
        <defs>
                <circle id="rim" cx="0" cy="0" r="7"/>
                <circle id="rim2" cx="0" cy="0" r="3.5"/>
                <g id="zoomPlus">
                        <use xlink:href="#rim" fill="#404040">
                                <set attributeName="fill" to="#808080" begin="zoomplus.mouseover" end="zoomplus.mouseout"/>
                        </use>
                        <path d="M-4,0h8M0,-4v8" fill="none" stroke="white" stroke-width="1.5" pointer-events="none"/>
                </g>
                <g id="zoomMin">
                        <use xlink:href="#rim" fill="#404040">
                                <set attributeName="fill" to="#808080" begin="zoomminus.mouseover" end="zoomminus.mouseout"/>
                        </use>
                        <path d="M-4,0h8" fill="none" stroke="white" stroke-width="1.5" pointer-events="none"/>
                </g>
                <g id="dirArrow">
                        <path fill="none" stroke="white" stroke-width="1.5" d="M0,-3.0v7 M-2.5,-0.5L0,-3.0L2.5,-0.5"/>
                </g>
               <g id="resetDef">
                       <use xlink:href="#rim2" fill="#404040">
                               <set attributeName="fill" to="#808080" begin="reset.mouseover" end="reset.mouseout"/>
                       </use>
               </g>
        </defs>

<script type="text/javascript">
var viewWidth = 769;
var viewHeight = 258;
var sectionId = 'dynsection-25';
</script>
<script xlink:href="svgpan.js"/>
<svg id="graph" class="graph">
<g id="viewport">
<title>Ra::Core::Geometry::makeParametricTorus</title>
<polygon fill="#ffffff" stroke="transparent" points="-4,4 -4,-253.5 765,-253.5 765,4 -4,4"/>
<!-- Node165 -->
<g id="node1" class="node">
<title>Node165</title>
<polygon fill="#bfbfbf" stroke="#000000" points="0,-115.5 0,-145.5 128,-145.5 128,-115.5 0,-115.5"/>
<text text-anchor="start" x="8" y="-133.5" font-family="Helvetica,sans-Serif" font-size="10.00" fill="#000000">Ra::Core::Geometry</text>
<text text-anchor="middle" x="64" y="-122.5" font-family="Helvetica,sans-Serif" font-size="10.00" fill="#000000">::makeParametricTorus</text>
</g>
<!-- Node166 -->
<g id="node2" class="node">
<title>Node166</title>
<g id="a_node2"><a xlink:href="namespaceRa_1_1Core_1_1Math.html#a4f441ac6a56092d52849a4f48e274aa8" target="_top" xlink:title="Ra::Core::Math::cos">
<polygon fill="#ffffff" stroke="#000000" points="210.5,-230 210.5,-249 320.5,-249 320.5,-230 210.5,-230"/>
<text text-anchor="middle" x="265.5" y="-237" font-family="Helvetica,sans-Serif" font-size="10.00" fill="#000000">Ra::Core::Math::cos</text>
</a>
</g>
</g>
<!-- Node165&#45;&gt;Node166 -->
<g id="edge1" class="edge">
<title>Node165&#45;&gt;Node166</title>
<path fill="none" stroke="#191970" d="M76.1027,-145.6902C93.3203,-166.1729 126.936,-202.1859 164,-220.5 175.2238,-226.0459 187.8769,-229.98 200.3443,-232.7688"/>
<polygon fill="#191970" stroke="#191970" points="199.7781,-236.225 210.2724,-234.7689 201.1605,-229.3629 199.7781,-236.225"/>
</g>
<!-- Node167 -->
<g id="node3" class="node">
<title>Node167</title>
<g id="a_node3"><a xlink:href="classRa_1_1Core_1_1Geometry_1_1AttribArrayGeometry.html#a887411177386edbcdc35d0c6bf78a83a" target="_top" xlink:title="Set vertices. ">
<polygon fill="#ffffff" stroke="#000000" points="203,-110 203,-151 328,-151 328,-110 203,-110"/>
<text text-anchor="start" x="211" y="-139" font-family="Helvetica,sans-Serif" font-size="10.00" fill="#000000">Ra::Core::Geometry</text>
<text text-anchor="start" x="211" y="-128" font-family="Helvetica,sans-Serif" font-size="10.00" fill="#000000">::AttribArrayGeometry</text>
<text text-anchor="middle" x="265.5" y="-117" font-family="Helvetica,sans-Serif" font-size="10.00" fill="#000000">::setVertices</text>
</a>
</g>
</g>
<!-- Node165&#45;&gt;Node167 -->
<g id="edge2" class="edge">
<title>Node165&#45;&gt;Node167</title>
<path fill="none" stroke="#191970" d="M128.0327,-130.5C148.5326,-130.5 171.3819,-130.5 192.4735,-130.5"/>
<polygon fill="#191970" stroke="#191970" points="192.6684,-134.0001 202.6683,-130.5 192.6683,-127.0001 192.6684,-134.0001"/>
</g>
<!-- Node171 -->
<g id="node7" class="node">
<title>Node171</title>
<g id="a_node7"><a xlink:href="classRa_1_1Core_1_1Geometry_1_1AttribArrayGeometry.html#a646faabae9b936589fe03d8a9d2002e9" target="_top" xlink:title="Set normals. ">
<polygon fill="#ffffff" stroke="#000000" points="203,-50 203,-91 328,-91 328,-50 203,-50"/>
<text text-anchor="start" x="211" y="-79" font-family="Helvetica,sans-Serif" font-size="10.00" fill="#000000">Ra::Core::Geometry</text>
<text text-anchor="start" x="211" y="-68" font-family="Helvetica,sans-Serif" font-size="10.00" fill="#000000">::AttribArrayGeometry</text>
<text text-anchor="middle" x="265.5" y="-57" font-family="Helvetica,sans-Serif" font-size="10.00" fill="#000000">::setNormals</text>
</a>
</g>
</g>
<!-- Node165&#45;&gt;Node171 -->
<g id="edge6" class="edge">
<title>Node165&#45;&gt;Node171</title>
<path fill="none" stroke="#191970" d="M114.0917,-115.429C130.04,-110.6423 147.7575,-105.3367 164,-100.5 173.4438,-97.6878 183.3849,-94.7374 193.2005,-91.8301"/>
<polygon fill="#191970" stroke="#191970" points="194.356,-95.1383 202.9513,-88.9438 192.3691,-88.4261 194.356,-95.1383"/>
</g>
<!-- Node173 -->
<g id="node9" class="node">
<title>Node173</title>
<g id="a_node9"><a xlink:href="classRa_1_1Core_1_1Geometry_1_1AttribArrayGeometry.html#a3a3a1458f93f23c7c8663bc3d52f7841" target="_top" xlink:title="Ra::Core::Geometry\l::AttribArrayGeometry\l::colorize">
<polygon fill="#ffffff" stroke="#000000" points="203,-170 203,-211 328,-211 328,-170 203,-170"/>
<text text-anchor="start" x="211" y="-199" font-family="Helvetica,sans-Serif" font-size="10.00" fill="#000000">Ra::Core::Geometry</text>
<text text-anchor="start" x="211" y="-188" font-family="Helvetica,sans-Serif" font-size="10.00" fill="#000000">::AttribArrayGeometry</text>
<text text-anchor="middle" x="265.5" y="-177" font-family="Helvetica,sans-Serif" font-size="10.00" fill="#000000">::colorize</text>
</a>
</g>
</g>
<!-- Node165&#45;&gt;Node173 -->
<g id="edge10" class="edge">
<title>Node165&#45;&gt;Node173</title>
<path fill="none" stroke="#191970" d="M114.0917,-145.571C130.04,-150.3577 147.7575,-155.6633 164,-160.5 173.4438,-163.3122 183.3849,-166.2626 193.2005,-169.1699"/>
<polygon fill="#191970" stroke="#191970" points="192.3691,-172.5739 202.9513,-172.0562 194.356,-165.8617 192.3691,-172.5739"/>
</g>
<!-- Node175 -->
<g id="node11" class="node">
<title>Node175</title>
<g id="a_node11"><a xlink:href="classRa_1_1Core_1_1Geometry_1_1IndexedGeometry.html#a927f636cf0698e637cc23e2f7f012a48" target="_top" xlink:title="Ra::Core::Geometry\l::IndexedGeometry::checkConsistency">
<polygon fill="#ffffff" stroke="#000000" points="164,-.5 164,-30.5 367,-30.5 367,-.5 164,-.5"/>
<text text-anchor="start" x="172" y="-18.5" font-family="Helvetica,sans-Serif" font-size="10.00" fill="#000000">Ra::Core::Geometry</text>
<text text-anchor="middle" x="265.5" y="-7.5" font-family="Helvetica,sans-Serif" font-size="10.00" fill="#000000">::IndexedGeometry::checkConsistency</text>
</a>
</g>
</g>
<!-- Node165&#45;&gt;Node175 -->
<g id="edge14" class="edge">
<title>Node165&#45;&gt;Node175</title>
<path fill="none" stroke="#191970" d="M76.551,-115.2637C94.0306,-95.0662 127.6739,-59.7434 164,-40.5 168.3325,-38.2049 172.8809,-36.1158 177.5515,-34.2148"/>
<polygon fill="#191970" stroke="#191970" points="179.1428,-37.3562 187.2798,-30.571 176.6875,-30.801 179.1428,-37.3562"/>
</g>
<!-- Node168 -->
<g id="node4" class="node">
<title>Node168</title>
<g id="a_node4"><a xlink:href="classRa_1_1Core_1_1Utils_1_1AttribManager.html#a056b7697cfbedd6b20dde6ce7955094e" target="_top" xlink:title="Ra::Core::Utils::AttribManager\l::setAttrib">
<polygon fill="#ffffff" stroke="#000000" points="403,-85.5 403,-115.5 564,-115.5 564,-85.5 403,-85.5"/>
<text text-anchor="start" x="411" y="-103.5" font-family="Helvetica,sans-Serif" font-size="10.00" fill="#000000">Ra::Core::Utils::AttribManager</text>
<text text-anchor="middle" x="483.5" y="-92.5" font-family="Helvetica,sans-Serif" font-size="10.00" fill="#000000">::setAttrib</text>
</a>
</g>
</g>
<!-- Node167&#45;&gt;Node168 -->
<g id="edge3" class="edge">
<title>Node167&#45;&gt;Node168</title>
<path fill="none" stroke="#191970" d="M328.2622,-121.863C348.4417,-119.086 371.2166,-115.9518 392.9792,-112.957"/>
<polygon fill="#191970" stroke="#191970" points="393.4646,-116.4233 402.894,-111.5926 392.5102,-109.4886 393.4646,-116.4233"/>
</g>
<!-- Node169 -->
<g id="node5" class="node">
<title>Node169</title>
<g id="a_node5"><a xlink:href="classRa_1_1Core_1_1Geometry_1_1AttribArrayGeometry.html#acabe05880d71a8dc4406964c258fff5a" target="_top" xlink:title="Access the vertices positions. ">
<polygon fill="#ffffff" stroke="#000000" points="421,-135 421,-176 546,-176 546,-135 421,-135"/>
<text text-anchor="start" x="429" y="-164" font-family="Helvetica,sans-Serif" font-size="10.00" fill="#000000">Ra::Core::Geometry</text>
<text text-anchor="start" x="429" y="-153" font-family="Helvetica,sans-Serif" font-size="10.00" fill="#000000">::AttribArrayGeometry</text>
<text text-anchor="middle" x="483.5" y="-142" font-family="Helvetica,sans-Serif" font-size="10.00" fill="#000000">::vertices</text>
</a>
</g>
</g>
<!-- Node167&#45;&gt;Node169 -->
<g id="edge4" class="edge">
<title>Node167&#45;&gt;Node169</title>
<path fill="none" stroke="#191970" d="M328.2622,-137.6975C354.0268,-140.6522 384.0223,-144.092 410.7399,-147.1559"/>
<polygon fill="#191970" stroke="#191970" points="410.4698,-150.6478 420.8035,-148.31 411.2674,-143.6934 410.4698,-150.6478"/>
</g>
<!-- Node170 -->
<g id="node6" class="node">
<title>Node170</title>
<g id="a_node6"><a xlink:href="classRa_1_1Core_1_1Utils_1_1AttribManager.html#ae0cb7281ec72606a5392602b4ea50d2c" target="_top" xlink:title="Ra::Core::Utils::AttribManager\l::getAttrib">
<polygon fill="#ffffff" stroke="#000000" points="600,-140.5 600,-170.5 761,-170.5 761,-140.5 600,-140.5"/>
<text text-anchor="start" x="608" y="-158.5" font-family="Helvetica,sans-Serif" font-size="10.00" fill="#000000">Ra::Core::Utils::AttribManager</text>
<text text-anchor="middle" x="680.5" y="-147.5" font-family="Helvetica,sans-Serif" font-size="10.00" fill="#000000">::getAttrib</text>
</a>
</g>
</g>
<!-- Node169&#45;&gt;Node170 -->
<g id="edge5" class="edge">
<title>Node169&#45;&gt;Node170</title>
<path fill="none" stroke="#191970" d="M546.1027,-155.5C559.9253,-155.5 574.8405,-155.5 589.5309,-155.5"/>
<polygon fill="#191970" stroke="#191970" points="589.6492,-159.0001 599.6492,-155.5 589.6491,-152.0001 589.6492,-159.0001"/>
</g>
<!-- Node171&#45;&gt;Node168 -->
<g id="edge7" class="edge">
<title>Node171&#45;&gt;Node168</title>
<path fill="none" stroke="#191970" d="M328.2622,-79.137C348.4417,-81.914 371.2166,-85.0482 392.9792,-88.043"/>
<polygon fill="#191970" stroke="#191970" points="392.5102,-91.5114 402.894,-89.4074 393.4646,-84.5767 392.5102,-91.5114"/>
</g>
<!-- Node172 -->
<g id="node8" class="node">
<title>Node172</title>
<g id="a_node8"><a xlink:href="classRa_1_1Core_1_1Geometry_1_1AttribArrayGeometry.html#abfd2320cb73c0cb14805c234af594b5e" target="_top" xlink:title="Access the vertices normals. ">
<polygon fill="#ffffff" stroke="#000000" points="421,-25 421,-66 546,-66 546,-25 421,-25"/>
<text text-anchor="start" x="429" y="-54" font-family="Helvetica,sans-Serif" font-size="10.00" fill="#000000">Ra::Core::Geometry</text>
<text text-anchor="start" x="429" y="-43" font-family="Helvetica,sans-Serif" font-size="10.00" fill="#000000">::AttribArrayGeometry</text>
<text text-anchor="middle" x="483.5" y="-32" font-family="Helvetica,sans-Serif" font-size="10.00" fill="#000000">::normals</text>
</a>
</g>
</g>
<!-- Node171&#45;&gt;Node172 -->
<g id="edge8" class="edge">
<title>Node171&#45;&gt;Node172</title>
<path fill="none" stroke="#191970" d="M328.2622,-63.3025C354.0268,-60.3478 384.0223,-56.908 410.7399,-53.8441"/>
<polygon fill="#191970" stroke="#191970" points="411.2674,-57.3066 420.8035,-52.69 410.4698,-50.3522 411.2674,-57.3066"/>
</g>
<!-- Node172&#45;&gt;Node170 -->
<g id="edge9" class="edge">
<title>Node172&#45;&gt;Node170</title>
<path fill="none" stroke="#191970" d="M543.5614,-66.0137C550.5635,-68.9513 557.5151,-72.1302 564,-75.5 596.4325,-92.3531 630.5685,-116.6818 653.4432,-134.079"/>
<polygon fill="#191970" stroke="#191970" points="651.5713,-137.0547 661.6317,-140.3772 655.839,-131.5061 651.5713,-137.0547"/>
</g>
<!-- Node173&#45;&gt;Node169 -->
<g id="edge13" class="edge">
<title>Node173&#45;&gt;Node169</title>
<path fill="none" stroke="#191970" d="M328.2622,-180.4235C354.0268,-176.287 384.0223,-171.4712 410.7399,-167.1817"/>
<polygon fill="#191970" stroke="#191970" points="411.4848,-170.607 420.8035,-165.566 410.3751,-163.6955 411.4848,-170.607"/>
</g>
<!-- Node174 -->
<g id="node10" class="node">
<title>Node174</title>
<g id="a_node10"><a xlink:href="classRa_1_1Core_1_1Geometry_1_1AttribArrayGeometry.html#aeb68d9cd8cf8c1e05886a23f0ad33c59" target="_top" xlink:title="Ra::Core::Geometry\l::AttribArrayGeometry\l::getAttrib">
<polygon fill="#ffffff" stroke="#000000" points="421,-195 421,-236 546,-236 546,-195 421,-195"/>
<text text-anchor="start" x="429" y="-224" font-family="Helvetica,sans-Serif" font-size="10.00" fill="#000000">Ra::Core::Geometry</text>
<text text-anchor="start" x="429" y="-213" font-family="Helvetica,sans-Serif" font-size="10.00" fill="#000000">::AttribArrayGeometry</text>
<text text-anchor="middle" x="483.5" y="-202" font-family="Helvetica,sans-Serif" font-size="10.00" fill="#000000">::getAttrib</text>
</a>
</g>
</g>
<!-- Node173&#45;&gt;Node174 -->
<g id="edge11" class="edge">
<title>Node173&#45;&gt;Node174</title>
<path fill="none" stroke="#191970" d="M328.2622,-197.6975C354.0268,-200.6522 384.0223,-204.092 410.7399,-207.1559"/>
<polygon fill="#191970" stroke="#191970" points="410.4698,-210.6478 420.8035,-208.31 411.2674,-203.6934 410.4698,-210.6478"/>
</g>
<!-- Node174&#45;&gt;Node170 -->
<g id="edge12" class="edge">
<title>Node174&#45;&gt;Node170</title>
<path fill="none" stroke="#191970" d="M546.1027,-196.4332C570.2641,-189.0744 597.7637,-180.6989 621.5663,-173.4493"/>
<polygon fill="#191970" stroke="#191970" points="622.6294,-176.7844 631.1758,-170.5226 620.5899,-170.0881 622.6294,-176.7844"/>
</g>
</g>
</svg>
        <g id="navigator" transform="translate(0 0)" fill="#404254">
                <rect fill="#f2f5e9" fill-opacity="0.5" stroke="#606060" stroke-width=".5" x="0" y="0" width="60" height="60"/>
                <use id="zoomplus" xlink:href="#zoomPlus" x="17" y="9" onmousedown="handleZoom(evt,'in')"/>
                <use id="zoomminus" xlink:href="#zoomMin" x="42" y="9" onmousedown="handleZoom(evt,'out')"/>
                <use id="reset" xlink:href="#resetDef" x="30" y="36" onmousedown="handleReset()"/>
                <g id="arrowUp" xlink:href="#dirArrow" transform="translate(30 24)" onmousedown="handlePan(0,-1)">
                  <use xlink:href="#rim" fill="#404040">
                        <set attributeName="fill" to="#808080" begin="arrowUp.mouseover" end="arrowUp.mouseout"/>
                  </use>
                  <path fill="none" stroke="white" stroke-width="1.5" d="M0,-3.0v7 M-2.5,-0.5L0,-3.0L2.5,-0.5"/>
                </g>
                <g id="arrowRight" xlink:href="#dirArrow" transform="rotate(90) translate(36 -43)" onmousedown="handlePan(1,0)">
                  <use xlink:href="#rim" fill="#404040">
                        <set attributeName="fill" to="#808080" begin="arrowRight.mouseover" end="arrowRight.mouseout"/>
                  </use>
                  <path fill="none" stroke="white" stroke-width="1.5" d="M0,-3.0v7 M-2.5,-0.5L0,-3.0L2.5,-0.5"/>
                </g>
                <g id="arrowDown" xlink:href="#dirArrow" transform="rotate(180) translate(-30 -48)" onmousedown="handlePan(0,1)">
                  <use xlink:href="#rim" fill="#404040">
                        <set attributeName="fill" to="#808080" begin="arrowDown.mouseover" end="arrowDown.mouseout"/>
                  </use>
                  <path fill="none" stroke="white" stroke-width="1.5" d="M0,-3.0v7 M-2.5,-0.5L0,-3.0L2.5,-0.5"/>
                </g>
                <g id="arrowLeft" xlink:href="#dirArrow" transform="rotate(270) translate(-36 17)" onmousedown="handlePan(-1,0)">
                  <use xlink:href="#rim" fill="#404040">
                        <set attributeName="fill" to="#808080" begin="arrowLeft.mouseover" end="arrowLeft.mouseout"/>
                  </use>
                  <path fill="none" stroke="white" stroke-width="1.5" d="M0,-3.0v7 M-2.5,-0.5L0,-3.0L2.5,-0.5"/>
                </g>
        </g>
        <svg viewBox="0 0 15 15" width="100%" height="30px" preserveAspectRatio="xMaxYMin meet">
         <g id="arrow_out" transform="scale(0.3 0.3)">
          <a xlink:href="namespaceRa_1_1Core_1_1Geometry_a04686f466f9df16ac6424ee42c601931_cgraph_org.svg" target="_base">
           <rect id="button" ry="5" rx="5" y="6" x="6" height="38" width="38"
                fill="#f2f5e9" fill-opacity="0.5" stroke="#606060" stroke-width="1.0"/>
           <path id="arrow"
             d="M 11.500037,31.436501 C 11.940474,20.09759 22.043105,11.32322 32.158766,21.979434 L 37.068811,17.246167 C 37.068811,17.246167 37.088388,32 37.088388,32 L 22.160133,31.978069 C 22.160133,31.978069 26.997745,27.140456 26.997745,27.140456 C 18.528582,18.264221 13.291696,25.230495 11.500037,31.436501 z"
             style="fill:#404040;"/>
          </a>
         </g>
        </svg>
</svg>
