<?xml version="1.0" encoding="UTF-8" standalone="no"?>
<!DOCTYPE svg PUBLIC "-//W3C//DTD SVG 1.1//EN"
 "http://www.w3.org/Graphics/SVG/1.1/DTD/svg11.dtd">
<!-- Generated by graphviz version 2.40.1 (20161225.0304)
 -->
<!-- Title: Ra::Core::Animation::computeCoR Pages: 1 -->
<svg width="1397pt" height="285pt"
 viewBox="0.00 0.00 1397.00 285.00" xmlns="http://www.w3.org/2000/svg" xmlns:xlink="http://www.w3.org/1999/xlink">
<g id="graph0" class="graph" transform="scale(1 1) rotate(0) translate(4 281)">
<title>Ra::Core::Animation::computeCoR</title>
<polygon fill="#ffffff" stroke="transparent" points="-4,4 -4,-281 1393,-281 1393,4 -4,4"/>
<!-- Node35 -->
<g id="node1" class="node">
<title>Node35</title>
<polygon fill="#bfbfbf" stroke="#000000" points="0,-125.5 0,-155.5 114,-155.5 114,-125.5 0,-125.5"/>
<text text-anchor="start" x="8" y="-143.5" font-family="Helvetica,sans-Serif" font-size="10.00" fill="#000000">Ra::Core::Animation</text>
<text text-anchor="middle" x="57" y="-132.5" font-family="Helvetica,sans-Serif" font-size="10.00" fill="#000000">::computeCoR</text>
</g>
<!-- Node36 -->
<g id="node2" class="node">
<title>Node36</title>
<g id="a_node2"><a xlink:href="classRa_1_1Core_1_1Geometry_1_1IndexedGeometry.html#a240c93af3b90a3b019c9ef01f7cb2f7b" target="_top" xlink:title="Copy only the geometry and the indices from other, but not the attributes. ">
<polygon fill="#ffffff" stroke="#000000" points="157.5,-246.5 157.5,-276.5 296.5,-276.5 296.5,-246.5 157.5,-246.5"/>
<text text-anchor="start" x="165.5" y="-264.5" font-family="Helvetica,sans-Serif" font-size="10.00" fill="#000000">Ra::Core::Geometry</text>
<text text-anchor="middle" x="227" y="-253.5" font-family="Helvetica,sans-Serif" font-size="10.00" fill="#000000">::IndexedGeometry::copy</text>
</a>
</g>
</g>
<!-- Node35&#45;&gt;Node36 -->
<g id="edge1" class="edge">
<title>Node35&#45;&gt;Node36</title>
<path fill="none" stroke="#191970" d="M69.0633,-155.6286C85.5209,-175.4126 116.783,-210.067 150,-231.5 156.2159,-235.5108 163.0517,-239.123 170.0053,-242.3344"/>
<polygon fill="#191970" stroke="#191970" points="168.9471,-245.6906 179.5136,-246.465 171.7363,-239.2703 168.9471,-245.6906"/>
</g>
<!-- Node37 -->
<g id="node3" class="node">
<title>Node37</title>
<g id="a_node3"><a xlink:href="classRa_1_1Core_1_1Geometry_1_1AttribArrayGeometry.html#acabe05880d71a8dc4406964c258fff5a" target="_top" xlink:title="Access the vertices positions. ">
<polygon fill="#ffffff" stroke="#000000" points="704,-156 704,-197 829,-197 829,-156 704,-156"/>
<text text-anchor="start" x="712" y="-185" font-family="Helvetica,sans-Serif" font-size="10.00" fill="#000000">Ra::Core::Geometry</text>
<text text-anchor="start" x="712" y="-174" font-family="Helvetica,sans-Serif" font-size="10.00" fill="#000000">::AttribArrayGeometry</text>
<text text-anchor="middle" x="766.5" y="-163" font-family="Helvetica,sans-Serif" font-size="10.00" fill="#000000">::vertices</text>
</a>
</g>
</g>
<!-- Node35&#45;&gt;Node37 -->
<g id="edge2" class="edge">
<title>Node35&#45;&gt;Node37</title>
<path fill="none" stroke="#191970" d="M74.4097,-155.5844C92.0822,-169.8159 120.9132,-190.1732 150,-198.5 340.0902,-252.9177 576.638,-217.4049 693.7731,-193.3699"/>
<polygon fill="#191970" stroke="#191970" points="694.6309,-196.7664 703.7066,-191.3001 693.2029,-189.9136 694.6309,-196.7664"/>
</g>
<!-- Node39 -->
<g id="node5" class="node">
<title>Node39</title>
<g id="a_node5"><a xlink:href="classRa_1_1Core_1_1Geometry_1_1TopologicalMesh.html#afaacfdb6d79a9ccac45b78eba989d41d" target="_top" xlink:title="Ra::Core::Geometry\l::TopologicalMesh::halfedge\l_handle">
<polygon fill="#ffffff" stroke="#000000" points="151,-148 151,-189 303,-189 303,-148 151,-148"/>
<text text-anchor="start" x="159" y="-177" font-family="Helvetica,sans-Serif" font-size="10.00" fill="#000000">Ra::Core::Geometry</text>
<text text-anchor="start" x="159" y="-166" font-family="Helvetica,sans-Serif" font-size="10.00" fill="#000000">::TopologicalMesh::halfedge</text>
<text text-anchor="middle" x="227" y="-155" font-family="Helvetica,sans-Serif" font-size="10.00" fill="#000000">_handle</text>
</a>
</g>
</g>
<!-- Node35&#45;&gt;Node39 -->
<g id="edge4" class="edge">
<title>Node35&#45;&gt;Node39</title>
<path fill="none" stroke="#191970" d="M114.0805,-149.9015C122.6306,-151.3097 131.6047,-152.7878 140.5998,-154.2694"/>
<polygon fill="#191970" stroke="#191970" points="140.307,-157.7682 150.7429,-155.94 141.4447,-150.8613 140.307,-157.7682"/>
</g>
<!-- Node40 -->
<g id="node6" class="node">
<title>Node40</title>
<g id="a_node6"><a xlink:href="classRa_1_1Core_1_1Geometry_1_1TopologicalMesh.html#a5be06e9a973e79d487dad3e570fb5928" target="_top" xlink:title="Apply a 2&#45;4 edge split. ">
<polygon fill="#ffffff" stroke="#000000" points="150,-98.5 150,-128.5 304,-128.5 304,-98.5 150,-98.5"/>
<text text-anchor="start" x="158" y="-116.5" font-family="Helvetica,sans-Serif" font-size="10.00" fill="#000000">Ra::Core::Geometry</text>
<text text-anchor="middle" x="227" y="-105.5" font-family="Helvetica,sans-Serif" font-size="10.00" fill="#000000">::TopologicalMesh::splitEdge</text>
</a>
</g>
</g>
<!-- Node35&#45;&gt;Node40 -->
<g id="edge5" class="edge">
<title>Node35&#45;&gt;Node40</title>
<path fill="none" stroke="#191970" d="M114.0805,-131.4343C122.4204,-130.1097 131.1637,-128.7211 139.9363,-127.3278"/>
<polygon fill="#191970" stroke="#191970" points="140.5062,-130.7812 149.8334,-125.7559 139.4081,-123.8679 140.5062,-130.7812"/>
</g>
<!-- Node51 -->
<g id="node17" class="node">
<title>Node51</title>
<g id="a_node17"><a xlink:href="namespaceRa_1_1Core_1_1Geometry.html#a178f2b7309fe2ea5bc31a3abcb25368e" target="_top" xlink:title="Ra::Core::Geometry\l::triangleArea">
<polygon fill="#ffffff" stroke="#000000" points="170.5,-49.5 170.5,-79.5 283.5,-79.5 283.5,-49.5 170.5,-49.5"/>
<text text-anchor="start" x="178.5" y="-67.5" font-family="Helvetica,sans-Serif" font-size="10.00" fill="#000000">Ra::Core::Geometry</text>
<text text-anchor="middle" x="227" y="-56.5" font-family="Helvetica,sans-Serif" font-size="10.00" fill="#000000">::triangleArea</text>
</a>
</g>
</g>
<!-- Node35&#45;&gt;Node51 -->
<g id="edge18" class="edge">
<title>Node35&#45;&gt;Node51</title>
<path fill="none" stroke="#191970" d="M81.6212,-125.3358C100.0071,-114.4269 125.9958,-99.8694 150,-89.5 155.2901,-87.2148 160.8607,-85.0203 166.4864,-82.9461"/>
<polygon fill="#191970" stroke="#191970" points="167.7173,-86.2231 175.966,-79.5741 165.3713,-79.6279 167.7173,-86.2231"/>
</g>
<!-- Node54 -->
<g id="node20" class="node">
<title>Node54</title>
<g id="a_node20"><a xlink:href="namespaceRa_1_1Core_1_1Animation.html#a71236244c5603a8a5bc63595db9b7717" target="_top" xlink:title="Computes the similarity between two weights vector. ">
<polygon fill="#ffffff" stroke="#000000" points="170,-.5 170,-30.5 284,-30.5 284,-.5 170,-.5"/>
<text text-anchor="start" x="178" y="-18.5" font-family="Helvetica,sans-Serif" font-size="10.00" fill="#000000">Ra::Core::Animation</text>
<text text-anchor="middle" x="227" y="-7.5" font-family="Helvetica,sans-Serif" font-size="10.00" fill="#000000">::weightSimilarity</text>
</a>
</g>
</g>
<!-- Node35&#45;&gt;Node54 -->
<g id="edge21" class="edge">
<title>Node35&#45;&gt;Node54</title>
<path fill="none" stroke="#191970" d="M67.1379,-125.1484C82.4981,-103.0591 113.7488,-62.4494 150,-39.5 153.3644,-37.3701 156.9315,-35.4173 160.6147,-33.6284"/>
<polygon fill="#191970" stroke="#191970" points="162.2194,-36.7461 169.9602,-29.5121 159.3978,-30.34 162.2194,-36.7461"/>
</g>
<!-- Node38 -->
<g id="node4" class="node">
<title>Node38</title>
<g id="a_node4"><a xlink:href="classRa_1_1Core_1_1Utils_1_1AttribManager.html#ae0cb7281ec72606a5392602b4ea50d2c" target="_top" xlink:title="Ra::Core::Utils::AttribManager\l::getAttrib">
<polygon fill="#ffffff" stroke="#000000" points="883,-161.5 883,-191.5 1044,-191.5 1044,-161.5 883,-161.5"/>
<text text-anchor="start" x="891" y="-179.5" font-family="Helvetica,sans-Serif" font-size="10.00" fill="#000000">Ra::Core::Utils::AttribManager</text>
<text text-anchor="middle" x="963.5" y="-168.5" font-family="Helvetica,sans-Serif" font-size="10.00" fill="#000000">::getAttrib</text>
</a>
</g>
</g>
<!-- Node37&#45;&gt;Node38 -->
<g id="edge3" class="edge">
<title>Node37&#45;&gt;Node38</title>
<path fill="none" stroke="#191970" d="M829.1027,-176.5C842.9253,-176.5 857.8405,-176.5 872.5309,-176.5"/>
<polygon fill="#191970" stroke="#191970" points="872.6492,-180.0001 882.6492,-176.5 872.6491,-173.0001 872.6492,-180.0001"/>
</g>
<!-- Node41 -->
<g id="node7" class="node">
<title>Node41</title>
<g id="a_node7"><a xlink:href="namespaceRa_1_1Engine_1_1DrawPrimitives.html#afd38c03569ecb100b4f5f5036ce84e17" target="_top" xlink:title="Displays given point shown as the crossing of 3 lines of length &#39;scale&#39;. ">
<polygon fill="#ffffff" stroke="#000000" points="340,-101.5 340,-131.5 489,-131.5 489,-101.5 340,-101.5"/>
<text text-anchor="start" x="348" y="-119.5" font-family="Helvetica,sans-Serif" font-size="10.00" fill="#000000">Ra::Engine::DrawPrimitives</text>
<text text-anchor="middle" x="414.5" y="-108.5" font-family="Helvetica,sans-Serif" font-size="10.00" fill="#000000">::Point</text>
</a>
</g>
</g>
<!-- Node40&#45;&gt;Node41 -->
<g id="edge6" class="edge">
<title>Node40&#45;&gt;Node41</title>
<path fill="none" stroke="#191970" d="M304.0751,-114.7332C312.5691,-114.8691 321.2518,-115.008 329.832,-115.1453"/>
<polygon fill="#191970" stroke="#191970" points="329.7852,-118.6449 339.84,-115.3054 329.8973,-111.6458 329.7852,-118.6449"/>
</g>
<!-- Node41&#45;&gt;Node37 -->
<g id="edge17" class="edge">
<title>Node41&#45;&gt;Node37</title>
<path fill="none" stroke="#191970" d="M452.2585,-131.5279C473.3368,-139.3079 500.2618,-148.2523 525,-153.5 580.9653,-165.3718 645.5336,-171.1206 693.818,-173.9018"/>
<polygon fill="#191970" stroke="#191970" points="693.6889,-177.3999 703.8652,-174.4513 694.0713,-170.4103 693.6889,-177.3999"/>
</g>
<!-- Node42 -->
<g id="node8" class="node">
<title>Node42</title>
<g id="a_node8"><a xlink:href="classRa_1_1Core_1_1Geometry_1_1AttribArrayGeometry.html#a887411177386edbcdc35d0c6bf78a83a" target="_top" xlink:title="Set vertices. ">
<polygon fill="#ffffff" stroke="#000000" points="525,-103 525,-144 650,-144 650,-103 525,-103"/>
<text text-anchor="start" x="533" y="-132" font-family="Helvetica,sans-Serif" font-size="10.00" fill="#000000">Ra::Core::Geometry</text>
<text text-anchor="start" x="533" y="-121" font-family="Helvetica,sans-Serif" font-size="10.00" fill="#000000">::AttribArrayGeometry</text>
<text text-anchor="middle" x="587.5" y="-110" font-family="Helvetica,sans-Serif" font-size="10.00" fill="#000000">::setVertices</text>
</a>
</g>
</g>
<!-- Node41&#45;&gt;Node42 -->
<g id="edge7" class="edge">
<title>Node41&#45;&gt;Node42</title>
<path fill="none" stroke="#191970" d="M489.1228,-119.5194C497.5748,-119.8614 506.1809,-120.2096 514.6103,-120.5507"/>
<polygon fill="#191970" stroke="#191970" points="514.6488,-124.055 524.7822,-120.9623 514.9319,-117.0608 514.6488,-124.055"/>
</g>
<!-- Node44 -->
<g id="node10" class="node">
<title>Node44</title>
<g id="a_node10"><a xlink:href="classRa_1_1Core_1_1Geometry_1_1AttribArrayGeometry.html#ae1956b0396dadd84f55a12f2160e5671" target="_top" xlink:title="Ra::Core::Geometry\l::AttribArrayGeometry\l::addAttrib">
<polygon fill="#ffffff" stroke="#000000" points="525,-43 525,-84 650,-84 650,-43 525,-43"/>
<text text-anchor="start" x="533" y="-72" font-family="Helvetica,sans-Serif" font-size="10.00" fill="#000000">Ra::Core::Geometry</text>
<text text-anchor="start" x="533" y="-61" font-family="Helvetica,sans-Serif" font-size="10.00" fill="#000000">::AttribArrayGeometry</text>
<text text-anchor="middle" x="587.5" y="-50" font-family="Helvetica,sans-Serif" font-size="10.00" fill="#000000">::addAttrib</text>
</a>
</g>
</g>
<!-- Node41&#45;&gt;Node44 -->
<g id="edge10" class="edge">
<title>Node41&#45;&gt;Node44</title>
<path fill="none" stroke="#191970" d="M463.6121,-101.4541C479.7109,-96.5221 497.9491,-90.9347 515.385,-85.593"/>
<polygon fill="#191970" stroke="#191970" points="516.4343,-88.9322 524.9704,-82.6565 514.3838,-82.2393 516.4343,-88.9322"/>
</g>
<!-- Node42&#45;&gt;Node37 -->
<g id="edge9" class="edge">
<title>Node42&#45;&gt;Node37</title>
<path fill="none" stroke="#191970" d="M650.1055,-142.0368C664.2766,-146.2327 679.4395,-150.7223 693.9814,-155.028"/>
<polygon fill="#191970" stroke="#191970" points="693.3476,-158.4905 703.9298,-157.9736 695.335,-151.7785 693.3476,-158.4905"/>
</g>
<!-- Node43 -->
<g id="node9" class="node">
<title>Node43</title>
<g id="a_node9"><a xlink:href="classRa_1_1Core_1_1Utils_1_1AttribManager.html#a056b7697cfbedd6b20dde6ce7955094e" target="_top" xlink:title="Ra::Core::Utils::AttribManager\l::setAttrib">
<polygon fill="#ffffff" stroke="#000000" points="686,-106.5 686,-136.5 847,-136.5 847,-106.5 686,-106.5"/>
<text text-anchor="start" x="694" y="-124.5" font-family="Helvetica,sans-Serif" font-size="10.00" fill="#000000">Ra::Core::Utils::AttribManager</text>
<text text-anchor="middle" x="766.5" y="-113.5" font-family="Helvetica,sans-Serif" font-size="10.00" fill="#000000">::setAttrib</text>
</a>
</g>
</g>
<!-- Node42&#45;&gt;Node43 -->
<g id="edge8" class="edge">
<title>Node42&#45;&gt;Node43</title>
<path fill="none" stroke="#191970" d="M650.1055,-122.8005C658.4387,-122.7074 667.1148,-122.6104 675.8059,-122.5133"/>
<polygon fill="#191970" stroke="#191970" points="676.0355,-126.0111 685.9957,-122.3995 675.9572,-119.0115 676.0355,-126.0111"/>
</g>
<!-- Node45 -->
<g id="node11" class="node">
<title>Node45</title>
<g id="a_node11"><a xlink:href="classRa_1_1Core_1_1Utils_1_1AttribManager.html#ac2d3cdc360ffe1904a15ff8504de95b8" target="_top" xlink:title="Ra::Core::Utils::AttribManager\l::addAttrib">
<polygon fill="#ffffff" stroke="#000000" points="686,-48.5 686,-78.5 847,-78.5 847,-48.5 686,-48.5"/>
<text text-anchor="start" x="694" y="-66.5" font-family="Helvetica,sans-Serif" font-size="10.00" fill="#000000">Ra::Core::Utils::AttribManager</text>
<text text-anchor="middle" x="766.5" y="-55.5" font-family="Helvetica,sans-Serif" font-size="10.00" fill="#000000">::addAttrib</text>
</a>
</g>
</g>
<!-- Node44&#45;&gt;Node45 -->
<g id="edge11" class="edge">
<title>Node44&#45;&gt;Node45</title>
<path fill="none" stroke="#191970" d="M650.1055,-63.5C658.4387,-63.5 667.1148,-63.5 675.8059,-63.5"/>
<polygon fill="#191970" stroke="#191970" points="675.9958,-67.0001 685.9957,-63.5 675.9957,-60.0001 675.9958,-67.0001"/>
</g>
<!-- Node46 -->
<g id="node12" class="node">
<title>Node46</title>
<g id="a_node12"><a xlink:href="classRa_1_1Core_1_1Utils_1_1AttribManager.html#ae61e2c70f407d49d854ee4b98a39121f" target="_top" xlink:title="Return true if h correspond to an existing attribute in *this. ">
<polygon fill="#ffffff" stroke="#000000" points="883,-73.5 883,-103.5 1044,-103.5 1044,-73.5 883,-73.5"/>
<text text-anchor="start" x="891" y="-91.5" font-family="Helvetica,sans-Serif" font-size="10.00" fill="#000000">Ra::Core::Utils::AttribManager</text>
<text text-anchor="middle" x="963.5" y="-80.5" font-family="Helvetica,sans-Serif" font-size="10.00" fill="#000000">::isValid</text>
</a>
</g>
</g>
<!-- Node45&#45;&gt;Node46 -->
<g id="edge12" class="edge">
<title>Node45&#45;&gt;Node46</title>
<path fill="none" stroke="#191970" d="M847.1959,-73.7406C855.6733,-74.8164 864.3327,-75.9153 872.9115,-77.004"/>
<polygon fill="#191970" stroke="#191970" points="872.5685,-80.4885 882.9296,-78.2753 873.4499,-73.5442 872.5685,-80.4885"/>
</g>
<!-- Node50 -->
<g id="node16" class="node">
<title>Node50</title>
<g id="a_node16"><a xlink:href="classRa_1_1Core_1_1Utils_1_1Observable.html#a7e5fe761726d56a51f95192eb6555f8f" target="_top" xlink:title="Notify (i.e. call) each attached observer with argument p. ">
<polygon fill="#ffffff" stroke="#000000" points="884,-24.5 884,-54.5 1043,-54.5 1043,-24.5 884,-24.5"/>
<text text-anchor="start" x="892" y="-42.5" font-family="Helvetica,sans-Serif" font-size="10.00" fill="#000000">Ra::Core::Utils::Observable</text>
<text text-anchor="middle" x="963.5" y="-31.5" font-family="Helvetica,sans-Serif" font-size="10.00" fill="#000000">&lt; const std::string &amp;&gt;::notify</text>
</a>
</g>
</g>
<!-- Node45&#45;&gt;Node50 -->
<g id="edge16" class="edge">
<title>Node45&#45;&gt;Node50</title>
<path fill="none" stroke="#191970" d="M847.1959,-53.669C855.997,-52.5968 864.9944,-51.5007 873.8941,-50.4165"/>
<polygon fill="#191970" stroke="#191970" points="874.3817,-53.883 883.885,-49.1993 873.5351,-46.9344 874.3817,-53.883"/>
</g>
<!-- Node47 -->
<g id="node13" class="node">
<title>Node47</title>
<g id="a_node13"><a xlink:href="classRa_1_1Core_1_1Utils_1_1AttribHandle.html#a17afbd6718234d480c05258369bdfde9" target="_top" xlink:title="Ra::Core::Utils::AttribHandle\l::attribName">
<polygon fill="#ffffff" stroke="#000000" points="1080,-98.5 1080,-128.5 1234,-128.5 1234,-98.5 1080,-98.5"/>
<text text-anchor="start" x="1088" y="-116.5" font-family="Helvetica,sans-Serif" font-size="10.00" fill="#000000">Ra::Core::Utils::AttribHandle</text>
<text text-anchor="middle" x="1157" y="-105.5" font-family="Helvetica,sans-Serif" font-size="10.00" fill="#000000">::attribName</text>
</a>
</g>
</g>
<!-- Node46&#45;&gt;Node47 -->
<g id="edge13" class="edge">
<title>Node46&#45;&gt;Node47</title>
<path fill="none" stroke="#191970" d="M1044.1603,-98.9212C1052.6571,-100.019 1061.3244,-101.1388 1069.8898,-102.2455"/>
<polygon fill="#191970" stroke="#191970" points="1069.5158,-105.7261 1079.8818,-103.5364 1070.4128,-98.7838 1069.5158,-105.7261"/>
</g>
<!-- Node48 -->
<g id="node14" class="node">
<title>Node48</title>
<g id="a_node14"><a xlink:href="classRa_1_1Core_1_1Utils_1_1Index.html#a771f93efd49538950e3cb9e57e46fbaf" target="_top" xlink:title="Ra::Core::Utils::Index\l::Invalid">
<polygon fill="#ffffff" stroke="#000000" points="1097.5,-49.5 1097.5,-79.5 1216.5,-79.5 1216.5,-49.5 1097.5,-49.5"/>
<text text-anchor="start" x="1105.5" y="-67.5" font-family="Helvetica,sans-Serif" font-size="10.00" fill="#000000">Ra::Core::Utils::Index</text>
<text text-anchor="middle" x="1157" y="-56.5" font-family="Helvetica,sans-Serif" font-size="10.00" fill="#000000">::Invalid</text>
</a>
</g>
</g>
<!-- Node46&#45;&gt;Node48 -->
<g id="edge14" class="edge">
<title>Node46&#45;&gt;Node48</title>
<path fill="none" stroke="#191970" d="M1044.1603,-78.4956C1058.5129,-76.7155 1073.3516,-74.875 1087.3648,-73.1369"/>
<polygon fill="#191970" stroke="#191970" points="1087.9108,-76.5961 1097.4039,-71.8918 1087.0491,-69.6493 1087.9108,-76.5961"/>
</g>
<!-- Node49 -->
<g id="node15" class="node">
<title>Node49</title>
<g id="a_node15"><a xlink:href="classRa_1_1Core_1_1Utils_1_1Index.html#ab3376097b792b1ac2068c6da1cb6c8e4" target="_top" xlink:title="CONSTRUCTOR. ">
<polygon fill="#ffffff" stroke="#000000" points="1270,-49.5 1270,-79.5 1389,-79.5 1389,-49.5 1270,-49.5"/>
<text text-anchor="start" x="1278" y="-67.5" font-family="Helvetica,sans-Serif" font-size="10.00" fill="#000000">Ra::Core::Utils::Index</text>
<text text-anchor="middle" x="1329.5" y="-56.5" font-family="Helvetica,sans-Serif" font-size="10.00" fill="#000000">::Index</text>
</a>
</g>
</g>
<!-- Node48&#45;&gt;Node49 -->
<g id="edge15" class="edge">
<title>Node48&#45;&gt;Node49</title>
<path fill="none" stroke="#191970" d="M1216.848,-64.5C1230.6294,-64.5 1245.406,-64.5 1259.5728,-64.5"/>
<polygon fill="#191970" stroke="#191970" points="1259.7578,-68.0001 1269.7578,-64.5 1259.7577,-61.0001 1259.7578,-68.0001"/>
</g>
<!-- Node52 -->
<g id="node18" class="node">
<title>Node52</title>
<g id="a_node18"><a xlink:href="namespaceOpenMesh.html#a71e7f1dd3eac016d2b8245ac408a291c" target="_top" xlink:title="OpenMesh::cross">
<polygon fill="#ffffff" stroke="#000000" points="365,-57 365,-76 464,-76 464,-57 365,-57"/>
<text text-anchor="middle" x="414.5" y="-64" font-family="Helvetica,sans-Serif" font-size="10.00" fill="#000000">OpenMesh::cross</text>
</a>
</g>
</g>
<!-- Node51&#45;&gt;Node52 -->
<g id="edge19" class="edge">
<title>Node51&#45;&gt;Node52</title>
<path fill="none" stroke="#191970" d="M283.5105,-65.1028C305.9522,-65.3422 331.7934,-65.6178 354.5622,-65.8607"/>
<polygon fill="#191970" stroke="#191970" points="354.7473,-69.3627 364.7841,-65.9697 354.822,-62.3631 354.7473,-69.3627"/>
</g>
<!-- Node53 -->
<g id="node19" class="node">
<title>Node53</title>
<g id="a_node19"><a xlink:href="namespaceOpenMesh.html#a8205f789ce08919bc11c58383574596c" target="_top" xlink:title="OpenMesh::norm">
<polygon fill="#ffffff" stroke="#000000" points="365,-19 365,-38 464,-38 464,-19 365,-19"/>
<text text-anchor="middle" x="414.5" y="-26" font-family="Helvetica,sans-Serif" font-size="10.00" fill="#000000">OpenMesh::norm</text>
</a>
</g>
</g>
<!-- Node51&#45;&gt;Node53 -->
<g id="edge20" class="edge">
<title>Node51&#45;&gt;Node53</title>
<path fill="none" stroke="#191970" d="M283.5105,-53.65C306.0533,-49.3218 332.0263,-44.3349 354.8697,-39.949"/>
<polygon fill="#191970" stroke="#191970" points="355.6235,-43.3683 364.7841,-38.0455 354.3035,-36.4939 355.6235,-43.3683"/>
</g>
</g>
</svg>
