<?xml version="1.0" encoding="UTF-8" standalone="no"?>
<!DOCTYPE svg PUBLIC "-//W3C//DTD SVG 1.1//EN"
 "http://www.w3.org/Graphics/SVG/1.1/DTD/svg11.dtd">
<!-- Generated by graphviz version 2.40.1 (20161225.0304)
 -->
<!-- Title: Ra::Engine::DrawPrimitives::Disk Pages: 1 -->
<svg width="673pt" height="78pt"
 viewBox="0.00 0.00 673.00 77.50" xmlns="http://www.w3.org/2000/svg" xmlns:xlink="http://www.w3.org/1999/xlink">
<g id="graph0" class="graph" transform="scale(1 1) rotate(0) translate(4 73.5)">
<title>Ra::Engine::DrawPrimitives::Disk</title>
<polygon fill="#ffffff" stroke="transparent" points="-4,4 -4,-73.5 669,-73.5 669,4 -4,4"/>
<!-- Node56 -->
<g id="node1" class="node">
<title>Node56</title>
<polygon fill="#bfbfbf" stroke="#000000" points="0,-17 0,-47 149,-47 149,-17 0,-17"/>
<text text-anchor="start" x="8" y="-35" font-family="Helvetica,sans-Serif" font-size="10.00" fill="#000000">Ra::Engine::DrawPrimitives</text>
<text text-anchor="middle" x="74.5" y="-24" font-family="Helvetica,sans-Serif" font-size="10.00" fill="#000000">::Disk</text>
</g>
<!-- Node57 -->
<g id="node2" class="node">
<title>Node57</title>
<g id="a_node2"><a xlink:href="namespaceRa_1_1Core_1_1Math.html#a5f25a31a29b0688e349dc35a353b9766" target="_top" xlink:title="Ra::Core::Math::getOrthogonal\lVectors">
<polygon fill="#ffffff" stroke="#000000" points="185,-39 185,-69 349,-69 349,-39 185,-39"/>
<text text-anchor="start" x="193" y="-57" font-family="Helvetica,sans-Serif" font-size="10.00" fill="#000000">Ra::Core::Math::getOrthogonal</text>
<text text-anchor="middle" x="267" y="-46" font-family="Helvetica,sans-Serif" font-size="10.00" fill="#000000">Vectors</text>
</a>
</g>
</g>
<!-- Node56&#45;&gt;Node57 -->
<g id="edge1" class="edge">
<title>Node56&#45;&gt;Node57</title>
<path fill="none" stroke="#191970" d="M149.201,-40.5373C157.6327,-41.5009 166.2969,-42.4911 174.9164,-43.4762"/>
<polygon fill="#191970" stroke="#191970" points="174.6652,-46.9701 184.9979,-44.6283 175.46,-40.0154 174.6652,-46.9701"/>
</g>
<!-- Node60 -->
<g id="node5" class="node">
<title>Node60</title>
<g id="a_node5"><a xlink:href="namespaceRa_1_1Core_1_1Math.html#a4f441ac6a56092d52849a4f48e274aa8" target="_top" xlink:title="Ra::Core::Math::cos">
<polygon fill="#ffffff" stroke="#000000" points="212,-.5 212,-19.5 322,-19.5 322,-.5 212,-.5"/>
<text text-anchor="middle" x="267" y="-7.5" font-family="Helvetica,sans-Serif" font-size="10.00" fill="#000000">Ra::Core::Math::cos</text>
</a>
</g>
</g>
<!-- Node56&#45;&gt;Node60 -->
<g id="edge4" class="edge">
<title>Node56&#45;&gt;Node60</title>
<path fill="none" stroke="#191970" d="M149.201,-23.4627C166.4425,-21.4923 184.6563,-19.4107 201.4724,-17.4889"/>
<polygon fill="#191970" stroke="#191970" points="202.2032,-20.9282 211.741,-16.3153 201.4083,-13.9735 202.2032,-20.9282"/>
</g>
<!-- Node58 -->
<g id="node3" class="node">
<title>Node58</title>
<g id="a_node3"><a xlink:href="namespaceRa_1_1Core_1_1Math.html#a90f0fe9079f5bb86c721ea4b61738470" target="_top" xlink:title="Returns the sign of any numeric type as { &#45;1, 0, 1}. ">
<polygon fill="#ffffff" stroke="#000000" points="385,-44.5 385,-63.5 499,-63.5 499,-44.5 385,-44.5"/>
<text text-anchor="middle" x="442" y="-51.5" font-family="Helvetica,sans-Serif" font-size="10.00" fill="#000000">Ra::Core::Math::sign</text>
</a>
</g>
</g>
<!-- Node57&#45;&gt;Node58 -->
<g id="edge2" class="edge">
<title>Node57&#45;&gt;Node58</title>
<path fill="none" stroke="#191970" d="M349.1197,-54C357.706,-54 366.3616,-54 374.7542,-54"/>
<polygon fill="#191970" stroke="#191970" points="374.8385,-57.5001 384.8385,-54 374.8384,-50.5001 374.8385,-57.5001"/>
</g>
<!-- Node59 -->
<g id="node4" class="node">
<title>Node59</title>
<g id="a_node4"><a xlink:href="namespaceRa_1_1Core_1_1Math.html#a1e6a5327cb1c73b29e0c6539576d02b0" target="_top" xlink:title="Ra::Core::Math::signum">
<polygon fill="#ffffff" stroke="#000000" points="535,-44.5 535,-63.5 665,-63.5 665,-44.5 535,-44.5"/>
<text text-anchor="middle" x="600" y="-51.5" font-family="Helvetica,sans-Serif" font-size="10.00" fill="#000000">Ra::Core::Math::signum</text>
</a>
</g>
</g>
<!-- Node58&#45;&gt;Node59 -->
<g id="edge3" class="edge">
<title>Node58&#45;&gt;Node59</title>
<path fill="none" stroke="#191970" d="M499.0416,-54C507.4279,-54 516.1728,-54 524.8555,-54"/>
<polygon fill="#191970" stroke="#191970" points="524.9944,-57.5001 534.9943,-54 524.9943,-50.5001 524.9944,-57.5001"/>
</g>
</g>
</svg>
