<?xml version="1.0" encoding="UTF-8" standalone="no"?>
<!DOCTYPE svg PUBLIC "-//W3C//DTD SVG 1.1//EN"
 "http://www.w3.org/Graphics/SVG/1.1/DTD/svg11.dtd">
<!-- Generated by graphviz version 2.40.1 (20161225.0304)
 -->
<!-- Title: Ra::Engine::DrawPrimitives::Normal Pages: 1 -->
<svg width="673pt" height="78pt"
 viewBox="0.00 0.00 673.00 77.50" xmlns="http://www.w3.org/2000/svg" xmlns:xlink="http://www.w3.org/1999/xlink">
<g id="graph0" class="graph" transform="scale(1 1) rotate(0) translate(4 73.5)">
<title>Ra::Engine::DrawPrimitives::Normal</title>
<polygon fill="#ffffff" stroke="transparent" points="-4,4 -4,-73.5 669,-73.5 669,4 -4,4"/>
<!-- Node79 -->
<g id="node1" class="node">
<title>Node79</title>
<polygon fill="#bfbfbf" stroke="#000000" points="0,-17 0,-47 149,-47 149,-17 0,-17"/>
<text text-anchor="start" x="8" y="-35" font-family="Helvetica,sans-Serif" font-size="10.00" fill="#000000">Ra::Engine::DrawPrimitives</text>
<text text-anchor="middle" x="74.5" y="-24" font-family="Helvetica,sans-Serif" font-size="10.00" fill="#000000">::Normal</text>
</g>
<!-- Node80 -->
<g id="node2" class="node">
<title>Node80</title>
<g id="a_node2"><a xlink:href="namespaceRa_1_1Core_1_1Math.html#a5f25a31a29b0688e349dc35a353b9766" target="_top" xlink:title="Ra::Core::Math::getOrthogonal\lVectors">
<polygon fill="#ffffff" stroke="#000000" points="185,-39 185,-69 349,-69 349,-39 185,-39"/>
<text text-anchor="start" x="193" y="-57" font-family="Helvetica,sans-Serif" font-size="10.00" fill="#000000">Ra::Core::Math::getOrthogonal</text>
<text text-anchor="middle" x="267" y="-46" font-family="Helvetica,sans-Serif" font-size="10.00" fill="#000000">Vectors</text>
</a>
</g>
</g>
<!-- Node79&#45;&gt;Node80 -->
<g id="edge1" class="edge">
<title>Node79&#45;&gt;Node80</title>
<path fill="none" stroke="#191970" d="M149.201,-40.5373C157.6327,-41.5009 166.2969,-42.4911 174.9164,-43.4762"/>
<polygon fill="#191970" stroke="#191970" points="174.6652,-46.9701 184.9979,-44.6283 175.46,-40.0154 174.6652,-46.9701"/>
</g>
<!-- Node83 -->
<g id="node5" class="node">
<title>Node83</title>
<g id="a_node5"><a xlink:href="namespaceRa_1_1Core_1_1Math.html#a941baf20065c77d494ca251e6e104f31" target="_top" xlink:title="Returns the quaternion q multipled by a scalar factor of k. ">
<polygon fill="#ffffff" stroke="#000000" points="207.5,-.5 207.5,-19.5 326.5,-19.5 326.5,-.5 207.5,-.5"/>
<text text-anchor="middle" x="267" y="-7.5" font-family="Helvetica,sans-Serif" font-size="10.00" fill="#000000">Ra::Core::Math::scale</text>
</a>
</g>
</g>
<!-- Node79&#45;&gt;Node83 -->
<g id="edge4" class="edge">
<title>Node79&#45;&gt;Node83</title>
<path fill="none" stroke="#191970" d="M149.201,-23.4627C164.9794,-21.6595 181.5721,-19.7632 197.1628,-17.9814"/>
<polygon fill="#191970" stroke="#191970" points="197.7068,-21.4421 207.2447,-16.8292 196.9119,-14.4874 197.7068,-21.4421"/>
</g>
<!-- Node81 -->
<g id="node3" class="node">
<title>Node81</title>
<g id="a_node3"><a xlink:href="namespaceRa_1_1Core_1_1Math.html#a90f0fe9079f5bb86c721ea4b61738470" target="_top" xlink:title="Returns the sign of any numeric type as { &#45;1, 0, 1}. ">
<polygon fill="#ffffff" stroke="#000000" points="385,-44.5 385,-63.5 499,-63.5 499,-44.5 385,-44.5"/>
<text text-anchor="middle" x="442" y="-51.5" font-family="Helvetica,sans-Serif" font-size="10.00" fill="#000000">Ra::Core::Math::sign</text>
</a>
</g>
</g>
<!-- Node80&#45;&gt;Node81 -->
<g id="edge2" class="edge">
<title>Node80&#45;&gt;Node81</title>
<path fill="none" stroke="#191970" d="M349.1197,-54C357.706,-54 366.3616,-54 374.7542,-54"/>
<polygon fill="#191970" stroke="#191970" points="374.8385,-57.5001 384.8385,-54 374.8384,-50.5001 374.8385,-57.5001"/>
</g>
<!-- Node82 -->
<g id="node4" class="node">
<title>Node82</title>
<g id="a_node4"><a xlink:href="namespaceRa_1_1Core_1_1Math.html#a1e6a5327cb1c73b29e0c6539576d02b0" target="_top" xlink:title="Ra::Core::Math::signum">
<polygon fill="#ffffff" stroke="#000000" points="535,-44.5 535,-63.5 665,-63.5 665,-44.5 535,-44.5"/>
<text text-anchor="middle" x="600" y="-51.5" font-family="Helvetica,sans-Serif" font-size="10.00" fill="#000000">Ra::Core::Math::signum</text>
</a>
</g>
</g>
<!-- Node81&#45;&gt;Node82 -->
<g id="edge3" class="edge">
<title>Node81&#45;&gt;Node82</title>
<path fill="none" stroke="#191970" d="M499.0416,-54C507.4279,-54 516.1728,-54 524.8555,-54"/>
<polygon fill="#191970" stroke="#191970" points="524.9944,-57.5001 534.9943,-54 524.9943,-50.5001 524.9944,-57.5001"/>
</g>
</g>
</svg>
