<?xml version="1.0" encoding="UTF-8" standalone="no"?>
<!DOCTYPE svg PUBLIC "-//W3C//DTD SVG 1.1//EN"
 "http://www.w3.org/Graphics/SVG/1.1/DTD/svg11.dtd">
<!-- Generated by graphviz version 2.40.1 (20161225.0304)
 -->
<!-- Title: Ra::Core::Geometry::makeParametricSphere Pages: 1 -->
<!--zoomable 258 -->
<svg id="main" version="1.1" xmlns="http://www.w3.org/2000/svg" xmlns:xlink="http://www.w3.org/1999/xlink" xml:space="preserve" onload="init(evt)">
<style type="text/css"><![CDATA[
.edge:hover path { stroke: red; }
.edge:hover polygon { stroke: red; fill: red; }
]]></style>
<script type="text/javascript"><![CDATA[
var edges = document.getElementsByTagName('g');
if (edges && edges.length) {
  for (var i=0;i<edges.length;i++) {
    if (edges[i].id.substr(0,4)=='edge') {
      edges[i].setAttribute('class','edge');
    }
  }
}
]]></script>
        <defs>
                <circle id="rim" cx="0" cy="0" r="7"/>
                <circle id="rim2" cx="0" cy="0" r="3.5"/>
                <g id="zoomPlus">
                        <use xlink:href="#rim" fill="#404040">
                                <set attributeName="fill" to="#808080" begin="zoomplus.mouseover" end="zoomplus.mouseout"/>
                        </use>
                        <path d="M-4,0h8M0,-4v8" fill="none" stroke="white" stroke-width="1.5" pointer-events="none"/>
                </g>
                <g id="zoomMin">
                        <use xlink:href="#rim" fill="#404040">
                                <set attributeName="fill" to="#808080" begin="zoomminus.mouseover" end="zoomminus.mouseout"/>
                        </use>
                        <path d="M-4,0h8" fill="none" stroke="white" stroke-width="1.5" pointer-events="none"/>
                </g>
                <g id="dirArrow">
                        <path fill="none" stroke="white" stroke-width="1.5" d="M0,-3.0v7 M-2.5,-0.5L0,-3.0L2.5,-0.5"/>
                </g>
               <g id="resetDef">
                       <use xlink:href="#rim2" fill="#404040">
                               <set attributeName="fill" to="#808080" begin="reset.mouseover" end="reset.mouseout"/>
                       </use>
               </g>
        </defs>

<script type="text/javascript">
var viewWidth = 778;
var viewHeight = 258;
var sectionId = 'dynsection-24';
</script>
<script xlink:href="svgpan.js"/>
<svg id="graph" class="graph">
<g id="viewport">
<title>Ra::Core::Geometry::makeParametricSphere</title>
<polygon fill="#ffffff" stroke="transparent" points="-4,4 -4,-253.5 774,-253.5 774,4 -4,4"/>
<!-- Node154 -->
<g id="node1" class="node">
<title>Node154</title>
<polygon fill="#bfbfbf" stroke="#000000" points="0,-115.5 0,-145.5 137,-145.5 137,-115.5 0,-115.5"/>
<text text-anchor="start" x="8" y="-133.5" font-family="Helvetica,sans-Serif" font-size="10.00" fill="#000000">Ra::Core::Geometry</text>
<text text-anchor="middle" x="68.5" y="-122.5" font-family="Helvetica,sans-Serif" font-size="10.00" fill="#000000">::makeParametricSphere</text>
</g>
<!-- Node155 -->
<g id="node2" class="node">
<title>Node155</title>
<g id="a_node2"><a xlink:href="namespaceRa_1_1Core_1_1Math.html#a4f441ac6a56092d52849a4f48e274aa8" target="_top" xlink:title="Ra::Core::Math::cos">
<polygon fill="#ffffff" stroke="#000000" points="219.5,-230 219.5,-249 329.5,-249 329.5,-230 219.5,-230"/>
<text text-anchor="middle" x="274.5" y="-237" font-family="Helvetica,sans-Serif" font-size="10.00" fill="#000000">Ra::Core::Math::cos</text>
</a>
</g>
</g>
<!-- Node154&#45;&gt;Node155 -->
<g id="edge1" class="edge">
<title>Node154&#45;&gt;Node155</title>
<path fill="none" stroke="#191970" d="M81.3001,-145.6777C99.4697,-166.1458 134.8028,-202.1419 173,-220.5 184.2837,-225.9231 196.964,-229.8013 209.4393,-232.574"/>
<polygon fill="#191970" stroke="#191970" points="208.8763,-236.0307 219.3698,-234.569 210.2551,-229.1678 208.8763,-236.0307"/>
</g>
<!-- Node156 -->
<g id="node3" class="node">
<title>Node156</title>
<g id="a_node3"><a xlink:href="classRa_1_1Core_1_1Geometry_1_1AttribArrayGeometry.html#a887411177386edbcdc35d0c6bf78a83a" target="_top" xlink:title="Set vertices. ">
<polygon fill="#ffffff" stroke="#000000" points="212,-110 212,-151 337,-151 337,-110 212,-110"/>
<text text-anchor="start" x="220" y="-139" font-family="Helvetica,sans-Serif" font-size="10.00" fill="#000000">Ra::Core::Geometry</text>
<text text-anchor="start" x="220" y="-128" font-family="Helvetica,sans-Serif" font-size="10.00" fill="#000000">::AttribArrayGeometry</text>
<text text-anchor="middle" x="274.5" y="-117" font-family="Helvetica,sans-Serif" font-size="10.00" fill="#000000">::setVertices</text>
</a>
</g>
</g>
<!-- Node154&#45;&gt;Node156 -->
<g id="edge2" class="edge">
<title>Node154&#45;&gt;Node156</title>
<path fill="none" stroke="#191970" d="M137.095,-130.5C157.8151,-130.5 180.6338,-130.5 201.6228,-130.5"/>
<polygon fill="#191970" stroke="#191970" points="201.7623,-134.0001 211.7622,-130.5 201.7622,-127.0001 201.7623,-134.0001"/>
</g>
<!-- Node160 -->
<g id="node7" class="node">
<title>Node160</title>
<g id="a_node7"><a xlink:href="classRa_1_1Core_1_1Geometry_1_1AttribArrayGeometry.html#a646faabae9b936589fe03d8a9d2002e9" target="_top" xlink:title="Set normals. ">
<polygon fill="#ffffff" stroke="#000000" points="212,-50 212,-91 337,-91 337,-50 212,-50"/>
<text text-anchor="start" x="220" y="-79" font-family="Helvetica,sans-Serif" font-size="10.00" fill="#000000">Ra::Core::Geometry</text>
<text text-anchor="start" x="220" y="-68" font-family="Helvetica,sans-Serif" font-size="10.00" fill="#000000">::AttribArrayGeometry</text>
<text text-anchor="middle" x="274.5" y="-57" font-family="Helvetica,sans-Serif" font-size="10.00" fill="#000000">::setNormals</text>
</a>
</g>
</g>
<!-- Node154&#45;&gt;Node160 -->
<g id="edge6" class="edge">
<title>Node154&#45;&gt;Node160</title>
<path fill="none" stroke="#191970" d="M120.2166,-115.4369C144.9487,-108.2334 174.9771,-99.4872 201.9458,-91.6323"/>
<polygon fill="#191970" stroke="#191970" points="203.1055,-94.94 211.7278,-88.7832 201.1479,-88.2193 203.1055,-94.94"/>
</g>
<!-- Node162 -->
<g id="node9" class="node">
<title>Node162</title>
<g id="a_node9"><a xlink:href="classRa_1_1Core_1_1Geometry_1_1AttribArrayGeometry.html#a3a3a1458f93f23c7c8663bc3d52f7841" target="_top" xlink:title="Ra::Core::Geometry\l::AttribArrayGeometry\l::colorize">
<polygon fill="#ffffff" stroke="#000000" points="212,-170 212,-211 337,-211 337,-170 212,-170"/>
<text text-anchor="start" x="220" y="-199" font-family="Helvetica,sans-Serif" font-size="10.00" fill="#000000">Ra::Core::Geometry</text>
<text text-anchor="start" x="220" y="-188" font-family="Helvetica,sans-Serif" font-size="10.00" fill="#000000">::AttribArrayGeometry</text>
<text text-anchor="middle" x="274.5" y="-177" font-family="Helvetica,sans-Serif" font-size="10.00" fill="#000000">::colorize</text>
</a>
</g>
</g>
<!-- Node154&#45;&gt;Node162 -->
<g id="edge10" class="edge">
<title>Node154&#45;&gt;Node162</title>
<path fill="none" stroke="#191970" d="M120.2166,-145.5631C144.9487,-152.7666 174.9771,-161.5128 201.9458,-169.3677"/>
<polygon fill="#191970" stroke="#191970" points="201.1479,-172.7807 211.7278,-172.2168 203.1055,-166.06 201.1479,-172.7807"/>
</g>
<!-- Node164 -->
<g id="node11" class="node">
<title>Node164</title>
<g id="a_node11"><a xlink:href="classRa_1_1Core_1_1Geometry_1_1IndexedGeometry.html#a927f636cf0698e637cc23e2f7f012a48" target="_top" xlink:title="Ra::Core::Geometry\l::IndexedGeometry::checkConsistency">
<polygon fill="#ffffff" stroke="#000000" points="173,-.5 173,-30.5 376,-30.5 376,-.5 173,-.5"/>
<text text-anchor="start" x="181" y="-18.5" font-family="Helvetica,sans-Serif" font-size="10.00" fill="#000000">Ra::Core::Geometry</text>
<text text-anchor="middle" x="274.5" y="-7.5" font-family="Helvetica,sans-Serif" font-size="10.00" fill="#000000">::IndexedGeometry::checkConsistency</text>
</a>
</g>
</g>
<!-- Node154&#45;&gt;Node164 -->
<g id="edge14" class="edge">
<title>Node154&#45;&gt;Node164</title>
<path fill="none" stroke="#191970" d="M81.765,-115.2858C100.2005,-95.1134 135.5488,-59.8189 173,-40.5 177.5702,-38.1425 182.3723,-36.0006 187.2988,-34.0554"/>
<polygon fill="#191970" stroke="#191970" points="188.704,-37.2685 196.8981,-30.5523 186.3042,-30.6926 188.704,-37.2685"/>
</g>
<!-- Node157 -->
<g id="node4" class="node">
<title>Node157</title>
<g id="a_node4"><a xlink:href="classRa_1_1Core_1_1Utils_1_1AttribManager.html#a056b7697cfbedd6b20dde6ce7955094e" target="_top" xlink:title="Ra::Core::Utils::AttribManager\l::setAttrib">
<polygon fill="#ffffff" stroke="#000000" points="412,-85.5 412,-115.5 573,-115.5 573,-85.5 412,-85.5"/>
<text text-anchor="start" x="420" y="-103.5" font-family="Helvetica,sans-Serif" font-size="10.00" fill="#000000">Ra::Core::Utils::AttribManager</text>
<text text-anchor="middle" x="492.5" y="-92.5" font-family="Helvetica,sans-Serif" font-size="10.00" fill="#000000">::setAttrib</text>
</a>
</g>
</g>
<!-- Node156&#45;&gt;Node157 -->
<g id="edge3" class="edge">
<title>Node156&#45;&gt;Node157</title>
<path fill="none" stroke="#191970" d="M337.2622,-121.863C357.4417,-119.086 380.2166,-115.9518 401.9792,-112.957"/>
<polygon fill="#191970" stroke="#191970" points="402.4646,-116.4233 411.894,-111.5926 401.5102,-109.4886 402.4646,-116.4233"/>
</g>
<!-- Node158 -->
<g id="node5" class="node">
<title>Node158</title>
<g id="a_node5"><a xlink:href="classRa_1_1Core_1_1Geometry_1_1AttribArrayGeometry.html#acabe05880d71a8dc4406964c258fff5a" target="_top" xlink:title="Access the vertices positions. ">
<polygon fill="#ffffff" stroke="#000000" points="430,-135 430,-176 555,-176 555,-135 430,-135"/>
<text text-anchor="start" x="438" y="-164" font-family="Helvetica,sans-Serif" font-size="10.00" fill="#000000">Ra::Core::Geometry</text>
<text text-anchor="start" x="438" y="-153" font-family="Helvetica,sans-Serif" font-size="10.00" fill="#000000">::AttribArrayGeometry</text>
<text text-anchor="middle" x="492.5" y="-142" font-family="Helvetica,sans-Serif" font-size="10.00" fill="#000000">::vertices</text>
</a>
</g>
</g>
<!-- Node156&#45;&gt;Node158 -->
<g id="edge4" class="edge">
<title>Node156&#45;&gt;Node158</title>
<path fill="none" stroke="#191970" d="M337.2622,-137.6975C363.0268,-140.6522 393.0223,-144.092 419.7399,-147.1559"/>
<polygon fill="#191970" stroke="#191970" points="419.4698,-150.6478 429.8035,-148.31 420.2674,-143.6934 419.4698,-150.6478"/>
</g>
<!-- Node159 -->
<g id="node6" class="node">
<title>Node159</title>
<g id="a_node6"><a xlink:href="classRa_1_1Core_1_1Utils_1_1AttribManager.html#ae0cb7281ec72606a5392602b4ea50d2c" target="_top" xlink:title="Ra::Core::Utils::AttribManager\l::getAttrib">
<polygon fill="#ffffff" stroke="#000000" points="609,-140.5 609,-170.5 770,-170.5 770,-140.5 609,-140.5"/>
<text text-anchor="start" x="617" y="-158.5" font-family="Helvetica,sans-Serif" font-size="10.00" fill="#000000">Ra::Core::Utils::AttribManager</text>
<text text-anchor="middle" x="689.5" y="-147.5" font-family="Helvetica,sans-Serif" font-size="10.00" fill="#000000">::getAttrib</text>
</a>
</g>
</g>
<!-- Node158&#45;&gt;Node159 -->
<g id="edge5" class="edge">
<title>Node158&#45;&gt;Node159</title>
<path fill="none" stroke="#191970" d="M555.1027,-155.5C568.9253,-155.5 583.8405,-155.5 598.5309,-155.5"/>
<polygon fill="#191970" stroke="#191970" points="598.6492,-159.0001 608.6492,-155.5 598.6491,-152.0001 598.6492,-159.0001"/>
</g>
<!-- Node160&#45;&gt;Node157 -->
<g id="edge7" class="edge">
<title>Node160&#45;&gt;Node157</title>
<path fill="none" stroke="#191970" d="M337.2622,-79.137C357.4417,-81.914 380.2166,-85.0482 401.9792,-88.043"/>
<polygon fill="#191970" stroke="#191970" points="401.5102,-91.5114 411.894,-89.4074 402.4646,-84.5767 401.5102,-91.5114"/>
</g>
<!-- Node161 -->
<g id="node8" class="node">
<title>Node161</title>
<g id="a_node8"><a xlink:href="classRa_1_1Core_1_1Geometry_1_1AttribArrayGeometry.html#abfd2320cb73c0cb14805c234af594b5e" target="_top" xlink:title="Access the vertices normals. ">
<polygon fill="#ffffff" stroke="#000000" points="430,-25 430,-66 555,-66 555,-25 430,-25"/>
<text text-anchor="start" x="438" y="-54" font-family="Helvetica,sans-Serif" font-size="10.00" fill="#000000">Ra::Core::Geometry</text>
<text text-anchor="start" x="438" y="-43" font-family="Helvetica,sans-Serif" font-size="10.00" fill="#000000">::AttribArrayGeometry</text>
<text text-anchor="middle" x="492.5" y="-32" font-family="Helvetica,sans-Serif" font-size="10.00" fill="#000000">::normals</text>
</a>
</g>
</g>
<!-- Node160&#45;&gt;Node161 -->
<g id="edge8" class="edge">
<title>Node160&#45;&gt;Node161</title>
<path fill="none" stroke="#191970" d="M337.2622,-63.3025C363.0268,-60.3478 393.0223,-56.908 419.7399,-53.8441"/>
<polygon fill="#191970" stroke="#191970" points="420.2674,-57.3066 429.8035,-52.69 419.4698,-50.3522 420.2674,-57.3066"/>
</g>
<!-- Node161&#45;&gt;Node159 -->
<g id="edge9" class="edge">
<title>Node161&#45;&gt;Node159</title>
<path fill="none" stroke="#191970" d="M552.5614,-66.0137C559.5635,-68.9513 566.5151,-72.1302 573,-75.5 605.4325,-92.3531 639.5685,-116.6818 662.4432,-134.079"/>
<polygon fill="#191970" stroke="#191970" points="660.5713,-137.0547 670.6317,-140.3772 664.839,-131.5061 660.5713,-137.0547"/>
</g>
<!-- Node162&#45;&gt;Node158 -->
<g id="edge13" class="edge">
<title>Node162&#45;&gt;Node158</title>
<path fill="none" stroke="#191970" d="M337.2622,-180.4235C363.0268,-176.287 393.0223,-171.4712 419.7399,-167.1817"/>
<polygon fill="#191970" stroke="#191970" points="420.4848,-170.607 429.8035,-165.566 419.3751,-163.6955 420.4848,-170.607"/>
</g>
<!-- Node163 -->
<g id="node10" class="node">
<title>Node163</title>
<g id="a_node10"><a xlink:href="classRa_1_1Core_1_1Geometry_1_1AttribArrayGeometry.html#aeb68d9cd8cf8c1e05886a23f0ad33c59" target="_top" xlink:title="Ra::Core::Geometry\l::AttribArrayGeometry\l::getAttrib">
<polygon fill="#ffffff" stroke="#000000" points="430,-195 430,-236 555,-236 555,-195 430,-195"/>
<text text-anchor="start" x="438" y="-224" font-family="Helvetica,sans-Serif" font-size="10.00" fill="#000000">Ra::Core::Geometry</text>
<text text-anchor="start" x="438" y="-213" font-family="Helvetica,sans-Serif" font-size="10.00" fill="#000000">::AttribArrayGeometry</text>
<text text-anchor="middle" x="492.5" y="-202" font-family="Helvetica,sans-Serif" font-size="10.00" fill="#000000">::getAttrib</text>
</a>
</g>
</g>
<!-- Node162&#45;&gt;Node163 -->
<g id="edge11" class="edge">
<title>Node162&#45;&gt;Node163</title>
<path fill="none" stroke="#191970" d="M337.2622,-197.6975C363.0268,-200.6522 393.0223,-204.092 419.7399,-207.1559"/>
<polygon fill="#191970" stroke="#191970" points="419.4698,-210.6478 429.8035,-208.31 420.2674,-203.6934 419.4698,-210.6478"/>
</g>
<!-- Node163&#45;&gt;Node159 -->
<g id="edge12" class="edge">
<title>Node163&#45;&gt;Node159</title>
<path fill="none" stroke="#191970" d="M555.1027,-196.4332C579.2641,-189.0744 606.7637,-180.6989 630.5663,-173.4493"/>
<polygon fill="#191970" stroke="#191970" points="631.6294,-176.7844 640.1758,-170.5226 629.5899,-170.0881 631.6294,-176.7844"/>
</g>
</g>
</svg>
        <g id="navigator" transform="translate(0 0)" fill="#404254">
                <rect fill="#f2f5e9" fill-opacity="0.5" stroke="#606060" stroke-width=".5" x="0" y="0" width="60" height="60"/>
                <use id="zoomplus" xlink:href="#zoomPlus" x="17" y="9" onmousedown="handleZoom(evt,'in')"/>
                <use id="zoomminus" xlink:href="#zoomMin" x="42" y="9" onmousedown="handleZoom(evt,'out')"/>
                <use id="reset" xlink:href="#resetDef" x="30" y="36" onmousedown="handleReset()"/>
                <g id="arrowUp" xlink:href="#dirArrow" transform="translate(30 24)" onmousedown="handlePan(0,-1)">
                  <use xlink:href="#rim" fill="#404040">
                        <set attributeName="fill" to="#808080" begin="arrowUp.mouseover" end="arrowUp.mouseout"/>
                  </use>
                  <path fill="none" stroke="white" stroke-width="1.5" d="M0,-3.0v7 M-2.5,-0.5L0,-3.0L2.5,-0.5"/>
                </g>
                <g id="arrowRight" xlink:href="#dirArrow" transform="rotate(90) translate(36 -43)" onmousedown="handlePan(1,0)">
                  <use xlink:href="#rim" fill="#404040">
                        <set attributeName="fill" to="#808080" begin="arrowRight.mouseover" end="arrowRight.mouseout"/>
                  </use>
                  <path fill="none" stroke="white" stroke-width="1.5" d="M0,-3.0v7 M-2.5,-0.5L0,-3.0L2.5,-0.5"/>
                </g>
                <g id="arrowDown" xlink:href="#dirArrow" transform="rotate(180) translate(-30 -48)" onmousedown="handlePan(0,1)">
                  <use xlink:href="#rim" fill="#404040">
                        <set attributeName="fill" to="#808080" begin="arrowDown.mouseover" end="arrowDown.mouseout"/>
                  </use>
                  <path fill="none" stroke="white" stroke-width="1.5" d="M0,-3.0v7 M-2.5,-0.5L0,-3.0L2.5,-0.5"/>
                </g>
                <g id="arrowLeft" xlink:href="#dirArrow" transform="rotate(270) translate(-36 17)" onmousedown="handlePan(-1,0)">
                  <use xlink:href="#rim" fill="#404040">
                        <set attributeName="fill" to="#808080" begin="arrowLeft.mouseover" end="arrowLeft.mouseout"/>
                  </use>
                  <path fill="none" stroke="white" stroke-width="1.5" d="M0,-3.0v7 M-2.5,-0.5L0,-3.0L2.5,-0.5"/>
                </g>
        </g>
        <svg viewBox="0 0 15 15" width="100%" height="30px" preserveAspectRatio="xMaxYMin meet">
         <g id="arrow_out" transform="scale(0.3 0.3)">
          <a xlink:href="namespaceRa_1_1Core_1_1Geometry_a3924dd04a97acc1a70488f1898879528_cgraph_org.svg" target="_base">
           <rect id="button" ry="5" rx="5" y="6" x="6" height="38" width="38"
                fill="#f2f5e9" fill-opacity="0.5" stroke="#606060" stroke-width="1.0"/>
           <path id="arrow"
             d="M 11.500037,31.436501 C 11.940474,20.09759 22.043105,11.32322 32.158766,21.979434 L 37.068811,17.246167 C 37.068811,17.246167 37.088388,32 37.088388,32 L 22.160133,31.978069 C 22.160133,31.978069 26.997745,27.140456 26.997745,27.140456 C 18.528582,18.264221 13.291696,25.230495 11.500037,31.436501 z"
             style="fill:#404040;"/>
          </a>
         </g>
        </svg>
</svg>
