<?xml version="1.0" encoding="UTF-8" standalone="no"?>
<!DOCTYPE svg PUBLIC "-//W3C//DTD SVG 1.1//EN"
 "http://www.w3.org/Graphics/SVG/1.1/DTD/svg11.dtd">
<!-- Generated by graphviz version 2.40.1 (20161225.0304)
 -->
<!-- Title: Ra::Engine::DrawPrimitives::Ray Pages: 1 -->
<!--zoomable 195 -->
<svg id="main" version="1.1" xmlns="http://www.w3.org/2000/svg" xmlns:xlink="http://www.w3.org/1999/xlink" xml:space="preserve" onload="init(evt)">
<style type="text/css"><![CDATA[
.edge:hover path { stroke: red; }
.edge:hover polygon { stroke: red; fill: red; }
]]></style>
<script type="text/javascript"><![CDATA[
var edges = document.getElementsByTagName('g');
if (edges && edges.length) {
  for (var i=0;i<edges.length;i++) {
    if (edges[i].id.substr(0,4)=='edge') {
      edges[i].setAttribute('class','edge');
    }
  }
}
]]></script>
        <defs>
                <circle id="rim" cx="0" cy="0" r="7"/>
                <circle id="rim2" cx="0" cy="0" r="3.5"/>
                <g id="zoomPlus">
                        <use xlink:href="#rim" fill="#404040">
                                <set attributeName="fill" to="#808080" begin="zoomplus.mouseover" end="zoomplus.mouseout"/>
                        </use>
                        <path d="M-4,0h8M0,-4v8" fill="none" stroke="white" stroke-width="1.5" pointer-events="none"/>
                </g>
                <g id="zoomMin">
                        <use xlink:href="#rim" fill="#404040">
                                <set attributeName="fill" to="#808080" begin="zoomminus.mouseover" end="zoomminus.mouseout"/>
                        </use>
                        <path d="M-4,0h8" fill="none" stroke="white" stroke-width="1.5" pointer-events="none"/>
                </g>
                <g id="dirArrow">
                        <path fill="none" stroke="white" stroke-width="1.5" d="M0,-3.0v7 M-2.5,-0.5L0,-3.0L2.5,-0.5"/>
                </g>
               <g id="resetDef">
                       <use xlink:href="#rim2" fill="#404040">
                               <set attributeName="fill" to="#808080" begin="reset.mouseover" end="reset.mouseout"/>
                       </use>
               </g>
        </defs>

<script type="text/javascript">
var viewWidth = 1082;
var viewHeight = 195;
var sectionId = 'dynsection-10';
</script>
<script xlink:href="svgpan.js"/>
<svg id="graph" class="graph">
<g id="viewport">
<title>Ra::Engine::DrawPrimitives::Ray</title>
<polygon fill="#ffffff" stroke="transparent" points="-4,4 -4,-191 1078,-191 1078,4 -4,4"/>
<!-- Node106 -->
<g id="node1" class="node">
<title>Node106</title>
<polygon fill="#bfbfbf" stroke="#000000" points="0,-105 0,-124 174,-124 174,-105 0,-105"/>
<text text-anchor="middle" x="87" y="-112" font-family="Helvetica,sans-Serif" font-size="10.00" fill="#000000">Ra::Engine::DrawPrimitives::Ray</text>
</g>
<!-- Node107 -->
<g id="node2" class="node">
<title>Node107</title>
<g id="a_node2"><a xlink:href="classRa_1_1Core_1_1Geometry_1_1AttribArrayGeometry.html#a887411177386edbcdc35d0c6bf78a83a" target="_top" xlink:title="Set vertices. ">
<polygon fill="#ffffff" stroke="#000000" points="210,-143 210,-184 335,-184 335,-143 210,-143"/>
<text text-anchor="start" x="218" y="-172" font-family="Helvetica,sans-Serif" font-size="10.00" fill="#000000">Ra::Core::Geometry</text>
<text text-anchor="start" x="218" y="-161" font-family="Helvetica,sans-Serif" font-size="10.00" fill="#000000">::AttribArrayGeometry</text>
<text text-anchor="middle" x="272.5" y="-150" font-family="Helvetica,sans-Serif" font-size="10.00" fill="#000000">::setVertices</text>
</a>
</g>
</g>
<!-- Node106&#45;&gt;Node107 -->
<g id="edge1" class="edge">
<title>Node106&#45;&gt;Node107</title>
<path fill="none" stroke="#191970" d="M123.2066,-124.064C144.9905,-129.8183 173.5037,-137.35 199.768,-144.2878"/>
<polygon fill="#191970" stroke="#191970" points="199.143,-147.7427 209.7052,-146.9127 200.9307,-140.9748 199.143,-147.7427"/>
</g>
<!-- Node109 -->
<g id="node4" class="node">
<title>Node109</title>
<g id="a_node4"><a xlink:href="classRa_1_1Core_1_1Geometry_1_1AttribArrayGeometry.html#acabe05880d71a8dc4406964c258fff5a" target="_top" xlink:title="Access the vertices positions. ">
<polygon fill="#ffffff" stroke="#000000" points="389,-96 389,-137 514,-137 514,-96 389,-96"/>
<text text-anchor="start" x="397" y="-125" font-family="Helvetica,sans-Serif" font-size="10.00" fill="#000000">Ra::Core::Geometry</text>
<text text-anchor="start" x="397" y="-114" font-family="Helvetica,sans-Serif" font-size="10.00" fill="#000000">::AttribArrayGeometry</text>
<text text-anchor="middle" x="451.5" y="-103" font-family="Helvetica,sans-Serif" font-size="10.00" fill="#000000">::vertices</text>
</a>
</g>
</g>
<!-- Node106&#45;&gt;Node109 -->
<g id="edge12" class="edge">
<title>Node106&#45;&gt;Node109</title>
<path fill="none" stroke="#191970" d="M174.3068,-114.979C236.6937,-115.3214 319.6738,-115.7767 378.5371,-116.0997"/>
<polygon fill="#191970" stroke="#191970" points="378.8503,-119.6013 388.8694,-116.1563 378.8888,-112.6014 378.8503,-119.6013"/>
</g>
<!-- Node111 -->
<g id="node6" class="node">
<title>Node111</title>
<g id="a_node6"><a xlink:href="classRa_1_1Core_1_1Geometry_1_1AttribArrayGeometry.html#ae1956b0396dadd84f55a12f2160e5671" target="_top" xlink:title="Ra::Core::Geometry\l::AttribArrayGeometry\l::addAttrib">
<polygon fill="#ffffff" stroke="#000000" points="210,-44 210,-85 335,-85 335,-44 210,-44"/>
<text text-anchor="start" x="218" y="-73" font-family="Helvetica,sans-Serif" font-size="10.00" fill="#000000">Ra::Core::Geometry</text>
<text text-anchor="start" x="218" y="-62" font-family="Helvetica,sans-Serif" font-size="10.00" fill="#000000">::AttribArrayGeometry</text>
<text text-anchor="middle" x="272.5" y="-51" font-family="Helvetica,sans-Serif" font-size="10.00" fill="#000000">::addAttrib</text>
</a>
</g>
</g>
<!-- Node106&#45;&gt;Node111 -->
<g id="edge5" class="edge">
<title>Node106&#45;&gt;Node111</title>
<path fill="none" stroke="#191970" d="M122.3278,-104.9777C144.3289,-99.0475 173.437,-91.2016 200.1651,-83.9973"/>
<polygon fill="#191970" stroke="#191970" points="201.1426,-87.3588 209.8871,-81.3768 199.3208,-80.6 201.1426,-87.3588"/>
</g>
<!-- Node108 -->
<g id="node3" class="node">
<title>Node108</title>
<g id="a_node3"><a xlink:href="classRa_1_1Core_1_1Utils_1_1AttribManager.html#a056b7697cfbedd6b20dde6ce7955094e" target="_top" xlink:title="Ra::Core::Utils::AttribManager\l::setAttrib">
<polygon fill="#ffffff" stroke="#000000" points="371,-156.5 371,-186.5 532,-186.5 532,-156.5 371,-156.5"/>
<text text-anchor="start" x="379" y="-174.5" font-family="Helvetica,sans-Serif" font-size="10.00" fill="#000000">Ra::Core::Utils::AttribManager</text>
<text text-anchor="middle" x="451.5" y="-163.5" font-family="Helvetica,sans-Serif" font-size="10.00" fill="#000000">::setAttrib</text>
</a>
</g>
</g>
<!-- Node107&#45;&gt;Node108 -->
<g id="edge2" class="edge">
<title>Node107&#45;&gt;Node108</title>
<path fill="none" stroke="#191970" d="M335.1055,-166.298C343.4387,-166.6704 352.1148,-167.0582 360.8059,-167.4466"/>
<polygon fill="#191970" stroke="#191970" points="360.8494,-170.952 370.9957,-167.902 361.162,-163.959 360.8494,-170.952"/>
</g>
<!-- Node107&#45;&gt;Node109 -->
<g id="edge3" class="edge">
<title>Node107&#45;&gt;Node109</title>
<path fill="none" stroke="#191970" d="M335.1055,-147.0617C349.2766,-143.3408 364.4395,-139.3595 378.9814,-135.5412"/>
<polygon fill="#191970" stroke="#191970" points="380.1466,-138.854 388.9298,-132.929 378.3688,-132.0835 380.1466,-138.854"/>
</g>
<!-- Node110 -->
<g id="node5" class="node">
<title>Node110</title>
<g id="a_node5"><a xlink:href="classRa_1_1Core_1_1Utils_1_1AttribManager.html#ae0cb7281ec72606a5392602b4ea50d2c" target="_top" xlink:title="Ra::Core::Utils::AttribManager\l::getAttrib">
<polygon fill="#ffffff" stroke="#000000" points="568,-101.5 568,-131.5 729,-131.5 729,-101.5 568,-101.5"/>
<text text-anchor="start" x="576" y="-119.5" font-family="Helvetica,sans-Serif" font-size="10.00" fill="#000000">Ra::Core::Utils::AttribManager</text>
<text text-anchor="middle" x="648.5" y="-108.5" font-family="Helvetica,sans-Serif" font-size="10.00" fill="#000000">::getAttrib</text>
</a>
</g>
</g>
<!-- Node109&#45;&gt;Node110 -->
<g id="edge4" class="edge">
<title>Node109&#45;&gt;Node110</title>
<path fill="none" stroke="#191970" d="M514.1027,-116.5C527.9253,-116.5 542.8405,-116.5 557.5309,-116.5"/>
<polygon fill="#191970" stroke="#191970" points="557.6492,-120.0001 567.6492,-116.5 557.6491,-113.0001 557.6492,-120.0001"/>
</g>
<!-- Node112 -->
<g id="node7" class="node">
<title>Node112</title>
<g id="a_node7"><a xlink:href="classRa_1_1Core_1_1Utils_1_1AttribManager.html#ac2d3cdc360ffe1904a15ff8504de95b8" target="_top" xlink:title="Ra::Core::Utils::AttribManager\l::addAttrib">
<polygon fill="#ffffff" stroke="#000000" points="371,-46.5 371,-76.5 532,-76.5 532,-46.5 371,-46.5"/>
<text text-anchor="start" x="379" y="-64.5" font-family="Helvetica,sans-Serif" font-size="10.00" fill="#000000">Ra::Core::Utils::AttribManager</text>
<text text-anchor="middle" x="451.5" y="-53.5" font-family="Helvetica,sans-Serif" font-size="10.00" fill="#000000">::addAttrib</text>
</a>
</g>
</g>
<!-- Node111&#45;&gt;Node112 -->
<g id="edge6" class="edge">
<title>Node111&#45;&gt;Node112</title>
<path fill="none" stroke="#191970" d="M335.1055,-63.4507C343.4387,-63.3111 352.1148,-63.1657 360.8059,-63.02"/>
<polygon fill="#191970" stroke="#191970" points="361.0558,-66.5164 370.9957,-62.8492 360.9385,-59.5174 361.0558,-66.5164"/>
</g>
<!-- Node113 -->
<g id="node8" class="node">
<title>Node113</title>
<g id="a_node8"><a xlink:href="classRa_1_1Core_1_1Utils_1_1AttribManager.html#ae61e2c70f407d49d854ee4b98a39121f" target="_top" xlink:title="Return true if h correspond to an existing attribute in *this. ">
<polygon fill="#ffffff" stroke="#000000" points="568,-49.5 568,-79.5 729,-79.5 729,-49.5 568,-49.5"/>
<text text-anchor="start" x="576" y="-67.5" font-family="Helvetica,sans-Serif" font-size="10.00" fill="#000000">Ra::Core::Utils::AttribManager</text>
<text text-anchor="middle" x="648.5" y="-56.5" font-family="Helvetica,sans-Serif" font-size="10.00" fill="#000000">::isValid</text>
</a>
</g>
</g>
<!-- Node112&#45;&gt;Node113 -->
<g id="edge7" class="edge">
<title>Node112&#45;&gt;Node113</title>
<path fill="none" stroke="#191970" d="M532.1959,-62.7289C540.6733,-62.858 549.3327,-62.9898 557.9115,-63.1205"/>
<polygon fill="#191970" stroke="#191970" points="557.8775,-66.6203 567.9296,-63.273 557.9841,-59.6211 557.8775,-66.6203"/>
</g>
<!-- Node117 -->
<g id="node12" class="node">
<title>Node117</title>
<g id="a_node12"><a xlink:href="classRa_1_1Core_1_1Utils_1_1Observable.html#a7e5fe761726d56a51f95192eb6555f8f" target="_top" xlink:title="Notify (i.e. call) each attached observer with argument p. ">
<polygon fill="#ffffff" stroke="#000000" points="569,-.5 569,-30.5 728,-30.5 728,-.5 569,-.5"/>
<text text-anchor="start" x="577" y="-18.5" font-family="Helvetica,sans-Serif" font-size="10.00" fill="#000000">Ra::Core::Utils::Observable</text>
<text text-anchor="middle" x="648.5" y="-7.5" font-family="Helvetica,sans-Serif" font-size="10.00" fill="#000000">&lt; const std::string &amp;&gt;::notify</text>
</a>
</g>
</g>
<!-- Node112&#45;&gt;Node117 -->
<g id="edge11" class="edge">
<title>Node112&#45;&gt;Node117</title>
<path fill="none" stroke="#191970" d="M516.0052,-46.4379C534.6388,-42.0869 555.1225,-37.3039 574.2961,-32.8268"/>
<polygon fill="#191970" stroke="#191970" points="575.2444,-36.1996 584.1865,-30.5174 573.6526,-29.383 575.2444,-36.1996"/>
</g>
<!-- Node114 -->
<g id="node9" class="node">
<title>Node114</title>
<g id="a_node9"><a xlink:href="classRa_1_1Core_1_1Utils_1_1AttribHandle.html#a17afbd6718234d480c05258369bdfde9" target="_top" xlink:title="Ra::Core::Utils::AttribHandle\l::attribName">
<polygon fill="#ffffff" stroke="#000000" points="765,-73.5 765,-103.5 919,-103.5 919,-73.5 765,-73.5"/>
<text text-anchor="start" x="773" y="-91.5" font-family="Helvetica,sans-Serif" font-size="10.00" fill="#000000">Ra::Core::Utils::AttribHandle</text>
<text text-anchor="middle" x="842" y="-80.5" font-family="Helvetica,sans-Serif" font-size="10.00" fill="#000000">::attribName</text>
</a>
</g>
</g>
<!-- Node113&#45;&gt;Node114 -->
<g id="edge8" class="edge">
<title>Node113&#45;&gt;Node114</title>
<path fill="none" stroke="#191970" d="M729.1603,-74.5044C737.6571,-75.5582 746.3244,-76.6333 754.8898,-77.6956"/>
<polygon fill="#191970" stroke="#191970" points="754.527,-81.1774 764.8818,-78.935 755.3887,-74.2306 754.527,-81.1774"/>
</g>
<!-- Node115 -->
<g id="node10" class="node">
<title>Node115</title>
<g id="a_node10"><a xlink:href="classRa_1_1Core_1_1Utils_1_1Index.html#a771f93efd49538950e3cb9e57e46fbaf" target="_top" xlink:title="Ra::Core::Utils::Index\l::Invalid">
<polygon fill="#ffffff" stroke="#000000" points="782.5,-24.5 782.5,-54.5 901.5,-54.5 901.5,-24.5 782.5,-24.5"/>
<text text-anchor="start" x="790.5" y="-42.5" font-family="Helvetica,sans-Serif" font-size="10.00" fill="#000000">Ra::Core::Utils::Index</text>
<text text-anchor="middle" x="842" y="-31.5" font-family="Helvetica,sans-Serif" font-size="10.00" fill="#000000">::Invalid</text>
</a>
</g>
</g>
<!-- Node113&#45;&gt;Node115 -->
<g id="edge9" class="edge">
<title>Node113&#45;&gt;Node115</title>
<path fill="none" stroke="#191970" d="M729.1603,-54.0788C743.5129,-52.2244 758.3516,-50.3073 772.3648,-48.4968"/>
<polygon fill="#191970" stroke="#191970" points="772.9348,-51.9523 782.4039,-47.1998 772.0378,-45.01 772.9348,-51.9523"/>
</g>
<!-- Node116 -->
<g id="node11" class="node">
<title>Node116</title>
<g id="a_node11"><a xlink:href="classRa_1_1Core_1_1Utils_1_1Index.html#ab3376097b792b1ac2068c6da1cb6c8e4" target="_top" xlink:title="CONSTRUCTOR. ">
<polygon fill="#ffffff" stroke="#000000" points="955,-24.5 955,-54.5 1074,-54.5 1074,-24.5 955,-24.5"/>
<text text-anchor="start" x="963" y="-42.5" font-family="Helvetica,sans-Serif" font-size="10.00" fill="#000000">Ra::Core::Utils::Index</text>
<text text-anchor="middle" x="1014.5" y="-31.5" font-family="Helvetica,sans-Serif" font-size="10.00" fill="#000000">::Index</text>
</a>
</g>
</g>
<!-- Node115&#45;&gt;Node116 -->
<g id="edge10" class="edge">
<title>Node115&#45;&gt;Node116</title>
<path fill="none" stroke="#191970" d="M901.848,-39.5C915.6294,-39.5 930.406,-39.5 944.5728,-39.5"/>
<polygon fill="#191970" stroke="#191970" points="944.7578,-43.0001 954.7578,-39.5 944.7577,-36.0001 944.7578,-43.0001"/>
</g>
</g>
</svg>
        <g id="navigator" transform="translate(0 0)" fill="#404254">
                <rect fill="#f2f5e9" fill-opacity="0.5" stroke="#606060" stroke-width=".5" x="0" y="0" width="60" height="60"/>
                <use id="zoomplus" xlink:href="#zoomPlus" x="17" y="9" onmousedown="handleZoom(evt,'in')"/>
                <use id="zoomminus" xlink:href="#zoomMin" x="42" y="9" onmousedown="handleZoom(evt,'out')"/>
                <use id="reset" xlink:href="#resetDef" x="30" y="36" onmousedown="handleReset()"/>
                <g id="arrowUp" xlink:href="#dirArrow" transform="translate(30 24)" onmousedown="handlePan(0,-1)">
                  <use xlink:href="#rim" fill="#404040">
                        <set attributeName="fill" to="#808080" begin="arrowUp.mouseover" end="arrowUp.mouseout"/>
                  </use>
                  <path fill="none" stroke="white" stroke-width="1.5" d="M0,-3.0v7 M-2.5,-0.5L0,-3.0L2.5,-0.5"/>
                </g>
                <g id="arrowRight" xlink:href="#dirArrow" transform="rotate(90) translate(36 -43)" onmousedown="handlePan(1,0)">
                  <use xlink:href="#rim" fill="#404040">
                        <set attributeName="fill" to="#808080" begin="arrowRight.mouseover" end="arrowRight.mouseout"/>
                  </use>
                  <path fill="none" stroke="white" stroke-width="1.5" d="M0,-3.0v7 M-2.5,-0.5L0,-3.0L2.5,-0.5"/>
                </g>
                <g id="arrowDown" xlink:href="#dirArrow" transform="rotate(180) translate(-30 -48)" onmousedown="handlePan(0,1)">
                  <use xlink:href="#rim" fill="#404040">
                        <set attributeName="fill" to="#808080" begin="arrowDown.mouseover" end="arrowDown.mouseout"/>
                  </use>
                  <path fill="none" stroke="white" stroke-width="1.5" d="M0,-3.0v7 M-2.5,-0.5L0,-3.0L2.5,-0.5"/>
                </g>
                <g id="arrowLeft" xlink:href="#dirArrow" transform="rotate(270) translate(-36 17)" onmousedown="handlePan(-1,0)">
                  <use xlink:href="#rim" fill="#404040">
                        <set attributeName="fill" to="#808080" begin="arrowLeft.mouseover" end="arrowLeft.mouseout"/>
                  </use>
                  <path fill="none" stroke="white" stroke-width="1.5" d="M0,-3.0v7 M-2.5,-0.5L0,-3.0L2.5,-0.5"/>
                </g>
        </g>
        <svg viewBox="0 0 15 15" width="100%" height="30px" preserveAspectRatio="xMaxYMin meet">
         <g id="arrow_out" transform="scale(0.3 0.3)">
          <a xlink:href="namespaceRa_1_1Engine_1_1DrawPrimitives_ac8766e72db5f6d926db3d55ca02b5024_cgraph_org.svg" target="_base">
           <rect id="button" ry="5" rx="5" y="6" x="6" height="38" width="38"
                fill="#f2f5e9" fill-opacity="0.5" stroke="#606060" stroke-width="1.0"/>
           <path id="arrow"
             d="M 11.500037,31.436501 C 11.940474,20.09759 22.043105,11.32322 32.158766,21.979434 L 37.068811,17.246167 C 37.068811,17.246167 37.088388,32 37.088388,32 L 22.160133,31.978069 C 22.160133,31.978069 26.997745,27.140456 26.997745,27.140456 C 18.528582,18.264221 13.291696,25.230495 11.500037,31.436501 z"
             style="fill:#404040;"/>
          </a>
         </g>
        </svg>
</svg>
