<?xml version="1.0" encoding="UTF-8" standalone="no"?>
<!DOCTYPE svg PUBLIC "-//W3C//DTD SVG 1.1//EN"
 "http://www.w3.org/Graphics/SVG/1.1/DTD/svg11.dtd">
<!-- Generated by graphviz version 2.40.1 (20161225.0304)
 -->
<!-- Title: Ra::Engine::DrawPrimitives::Circle Pages: 1 -->
<!--zoomable 280 -->
<svg id="main" version="1.1" xmlns="http://www.w3.org/2000/svg" xmlns:xlink="http://www.w3.org/1999/xlink" xml:space="preserve" onload="init(evt)">
<style type="text/css"><![CDATA[
.edge:hover path { stroke: red; }
.edge:hover polygon { stroke: red; fill: red; }
]]></style>
<script type="text/javascript"><![CDATA[
var edges = document.getElementsByTagName('g');
if (edges && edges.length) {
  for (var i=0;i<edges.length;i++) {
    if (edges[i].id.substr(0,4)=='edge') {
      edges[i].setAttribute('class','edge');
    }
  }
}
]]></script>
        <defs>
                <circle id="rim" cx="0" cy="0" r="7"/>
                <circle id="rim2" cx="0" cy="0" r="3.5"/>
                <g id="zoomPlus">
                        <use xlink:href="#rim" fill="#404040">
                                <set attributeName="fill" to="#808080" begin="zoomplus.mouseover" end="zoomplus.mouseout"/>
                        </use>
                        <path d="M-4,0h8M0,-4v8" fill="none" stroke="white" stroke-width="1.5" pointer-events="none"/>
                </g>
                <g id="zoomMin">
                        <use xlink:href="#rim" fill="#404040">
                                <set attributeName="fill" to="#808080" begin="zoomminus.mouseover" end="zoomminus.mouseout"/>
                        </use>
                        <path d="M-4,0h8" fill="none" stroke="white" stroke-width="1.5" pointer-events="none"/>
                </g>
                <g id="dirArrow">
                        <path fill="none" stroke="white" stroke-width="1.5" d="M0,-3.0v7 M-2.5,-0.5L0,-3.0L2.5,-0.5"/>
                </g>
               <g id="resetDef">
                       <use xlink:href="#rim2" fill="#404040">
                               <set attributeName="fill" to="#808080" begin="reset.mouseover" end="reset.mouseout"/>
                       </use>
               </g>
        </defs>

<script type="text/javascript">
var viewWidth = 1096;
var viewHeight = 280;
var sectionId = 'dynsection-1';
</script>
<script xlink:href="svgpan.js"/>
<svg id="graph" class="graph">
<g id="viewport">
<title>Ra::Engine::DrawPrimitives::Circle</title>
<polygon fill="#ffffff" stroke="transparent" points="-4,4 -4,-276 1092,-276 1092,4 -4,4"/>
<!-- Node24 -->
<g id="node1" class="node">
<title>Node24</title>
<polygon fill="#bfbfbf" stroke="#000000" points="0,-148.5 0,-178.5 149,-178.5 149,-148.5 0,-148.5"/>
<text text-anchor="start" x="8" y="-166.5" font-family="Helvetica,sans-Serif" font-size="10.00" fill="#000000">Ra::Engine::DrawPrimitives</text>
<text text-anchor="middle" x="74.5" y="-155.5" font-family="Helvetica,sans-Serif" font-size="10.00" fill="#000000">::Circle</text>
</g>
<!-- Node25 -->
<g id="node2" class="node">
<title>Node25</title>
<g id="a_node2"><a xlink:href="namespaceRa_1_1Core_1_1Math.html#a5f25a31a29b0688e349dc35a353b9766" target="_top" xlink:title="Ra::Core::Math::getOrthogonal\lVectors">
<polygon fill="#ffffff" stroke="#000000" points="185,-241.5 185,-271.5 349,-271.5 349,-241.5 185,-241.5"/>
<text text-anchor="start" x="193" y="-259.5" font-family="Helvetica,sans-Serif" font-size="10.00" fill="#000000">Ra::Core::Math::getOrthogonal</text>
<text text-anchor="middle" x="267" y="-248.5" font-family="Helvetica,sans-Serif" font-size="10.00" fill="#000000">Vectors</text>
</a>
</g>
</g>
<!-- Node24&#45;&gt;Node25 -->
<g id="edge1" class="edge">
<title>Node24&#45;&gt;Node25</title>
<path fill="none" stroke="#191970" d="M95.6032,-178.7632C117.1966,-193.822 152.1475,-216.6794 185,-231.5 190.0874,-233.7951 195.4439,-235.9542 200.8815,-237.968"/>
<polygon fill="#191970" stroke="#191970" points="200.1212,-241.411 210.7161,-241.4337 202.4479,-234.8089 200.1212,-241.411"/>
</g>
<!-- Node28 -->
<g id="node5" class="node">
<title>Node28</title>
<g id="a_node5"><a xlink:href="namespaceRa_1_1Core_1_1Math.html#a4f441ac6a56092d52849a4f48e274aa8" target="_top" xlink:title="Ra::Core::Math::cos">
<polygon fill="#ffffff" stroke="#000000" points="212,-203 212,-222 322,-222 322,-203 212,-203"/>
<text text-anchor="middle" x="267" y="-210" font-family="Helvetica,sans-Serif" font-size="10.00" fill="#000000">Ra::Core::Math::cos</text>
</a>
</g>
</g>
<!-- Node24&#45;&gt;Node28 -->
<g id="edge4" class="edge">
<title>Node24&#45;&gt;Node28</title>
<path fill="none" stroke="#191970" d="M128.3493,-178.5532C146.3272,-183.463 166.493,-188.8454 185,-193.5 194.4664,-195.8809 204.5755,-198.3128 214.3474,-200.6071"/>
<polygon fill="#191970" stroke="#191970" points="213.8343,-204.0812 224.3676,-202.9403 215.4218,-197.2636 213.8343,-204.0812"/>
</g>
<!-- Node29 -->
<g id="node6" class="node">
<title>Node29</title>
<g id="a_node6"><a xlink:href="classRa_1_1Core_1_1Geometry_1_1AttribArrayGeometry.html#a887411177386edbcdc35d0c6bf78a83a" target="_top" xlink:title="Set vertices. ">
<polygon fill="#ffffff" stroke="#000000" points="204.5,-143 204.5,-184 329.5,-184 329.5,-143 204.5,-143"/>
<text text-anchor="start" x="212.5" y="-172" font-family="Helvetica,sans-Serif" font-size="10.00" fill="#000000">Ra::Core::Geometry</text>
<text text-anchor="start" x="212.5" y="-161" font-family="Helvetica,sans-Serif" font-size="10.00" fill="#000000">::AttribArrayGeometry</text>
<text text-anchor="middle" x="267" y="-150" font-family="Helvetica,sans-Serif" font-size="10.00" fill="#000000">::setVertices</text>
</a>
</g>
</g>
<!-- Node24&#45;&gt;Node29 -->
<g id="edge5" class="edge">
<title>Node24&#45;&gt;Node29</title>
<path fill="none" stroke="#191970" d="M149.201,-163.5C163.9704,-163.5 179.4534,-163.5 194.1601,-163.5"/>
<polygon fill="#191970" stroke="#191970" points="194.1993,-167.0001 204.1993,-163.5 194.1993,-160.0001 194.1993,-167.0001"/>
</g>
<!-- Node31 -->
<g id="node8" class="node">
<title>Node31</title>
<g id="a_node8"><a xlink:href="classRa_1_1Core_1_1Geometry_1_1AttribArrayGeometry.html#acabe05880d71a8dc4406964c258fff5a" target="_top" xlink:title="Access the vertices positions. ">
<polygon fill="#ffffff" stroke="#000000" points="403,-96 403,-137 528,-137 528,-96 403,-96"/>
<text text-anchor="start" x="411" y="-125" font-family="Helvetica,sans-Serif" font-size="10.00" fill="#000000">Ra::Core::Geometry</text>
<text text-anchor="start" x="411" y="-114" font-family="Helvetica,sans-Serif" font-size="10.00" fill="#000000">::AttribArrayGeometry</text>
<text text-anchor="middle" x="465.5" y="-103" font-family="Helvetica,sans-Serif" font-size="10.00" fill="#000000">::vertices</text>
</a>
</g>
</g>
<!-- Node24&#45;&gt;Node31 -->
<g id="edge16" class="edge">
<title>Node24&#45;&gt;Node31</title>
<path fill="none" stroke="#191970" d="M121.623,-148.4241C141.0511,-142.8088 163.9133,-136.964 185,-133.5 254.908,-122.0161 335.7597,-118.0905 392.6467,-116.8435"/>
<polygon fill="#191970" stroke="#191970" points="393.0524,-120.3363 402.9818,-116.6406 392.915,-113.3377 393.0524,-120.3363"/>
</g>
<!-- Node33 -->
<g id="node10" class="node">
<title>Node33</title>
<g id="a_node10"><a xlink:href="classRa_1_1Core_1_1Geometry_1_1AttribArrayGeometry.html#ae1956b0396dadd84f55a12f2160e5671" target="_top" xlink:title="Ra::Core::Geometry\l::AttribArrayGeometry\l::addAttrib">
<polygon fill="#ffffff" stroke="#000000" points="204.5,-44 204.5,-85 329.5,-85 329.5,-44 204.5,-44"/>
<text text-anchor="start" x="212.5" y="-73" font-family="Helvetica,sans-Serif" font-size="10.00" fill="#000000">Ra::Core::Geometry</text>
<text text-anchor="start" x="212.5" y="-62" font-family="Helvetica,sans-Serif" font-size="10.00" fill="#000000">::AttribArrayGeometry</text>
<text text-anchor="middle" x="267" y="-51" font-family="Helvetica,sans-Serif" font-size="10.00" fill="#000000">::addAttrib</text>
</a>
</g>
</g>
<!-- Node24&#45;&gt;Node33 -->
<g id="edge9" class="edge">
<title>Node24&#45;&gt;Node33</title>
<path fill="none" stroke="#191970" d="M99.11,-148.4827C121.2404,-135.2174 154.8147,-115.6789 185,-100.5 192.4878,-96.7347 200.458,-92.9589 208.3755,-89.344"/>
<polygon fill="#191970" stroke="#191970" points="209.9323,-92.4815 217.6137,-85.1845 207.0584,-86.0987 209.9323,-92.4815"/>
</g>
<!-- Node26 -->
<g id="node3" class="node">
<title>Node26</title>
<g id="a_node3"><a xlink:href="namespaceRa_1_1Core_1_1Math.html#a90f0fe9079f5bb86c721ea4b61738470" target="_top" xlink:title="Returns the sign of any numeric type as { &#45;1, 0, 1}. ">
<polygon fill="#ffffff" stroke="#000000" points="408.5,-247 408.5,-266 522.5,-266 522.5,-247 408.5,-247"/>
<text text-anchor="middle" x="465.5" y="-254" font-family="Helvetica,sans-Serif" font-size="10.00" fill="#000000">Ra::Core::Math::sign</text>
</a>
</g>
</g>
<!-- Node25&#45;&gt;Node26 -->
<g id="edge2" class="edge">
<title>Node25&#45;&gt;Node26</title>
<path fill="none" stroke="#191970" d="M349.1704,-256.5C365.5315,-256.5 382.531,-256.5 398.3178,-256.5"/>
<polygon fill="#191970" stroke="#191970" points="398.4979,-260.0001 408.4979,-256.5 398.4979,-253.0001 398.4979,-260.0001"/>
</g>
<!-- Node27 -->
<g id="node4" class="node">
<title>Node27</title>
<g id="a_node4"><a xlink:href="namespaceRa_1_1Core_1_1Math.html#a1e6a5327cb1c73b29e0c6539576d02b0" target="_top" xlink:title="Ra::Core::Math::signum">
<polygon fill="#ffffff" stroke="#000000" points="597.5,-247 597.5,-266 727.5,-266 727.5,-247 597.5,-247"/>
<text text-anchor="middle" x="662.5" y="-254" font-family="Helvetica,sans-Serif" font-size="10.00" fill="#000000">Ra::Core::Math::signum</text>
</a>
</g>
</g>
<!-- Node26&#45;&gt;Node27 -->
<g id="edge3" class="edge">
<title>Node26&#45;&gt;Node27</title>
<path fill="none" stroke="#191970" d="M522.7452,-256.5C542.9479,-256.5 565.9767,-256.5 587.431,-256.5"/>
<polygon fill="#191970" stroke="#191970" points="587.4884,-260.0001 597.4884,-256.5 587.4883,-253.0001 587.4884,-260.0001"/>
</g>
<!-- Node30 -->
<g id="node7" class="node">
<title>Node30</title>
<g id="a_node7"><a xlink:href="classRa_1_1Core_1_1Utils_1_1AttribManager.html#a056b7697cfbedd6b20dde6ce7955094e" target="_top" xlink:title="Ra::Core::Utils::AttribManager\l::setAttrib">
<polygon fill="#ffffff" stroke="#000000" points="385,-156.5 385,-186.5 546,-186.5 546,-156.5 385,-156.5"/>
<text text-anchor="start" x="393" y="-174.5" font-family="Helvetica,sans-Serif" font-size="10.00" fill="#000000">Ra::Core::Utils::AttribManager</text>
<text text-anchor="middle" x="465.5" y="-163.5" font-family="Helvetica,sans-Serif" font-size="10.00" fill="#000000">::setAttrib</text>
</a>
</g>
</g>
<!-- Node29&#45;&gt;Node30 -->
<g id="edge6" class="edge">
<title>Node29&#45;&gt;Node30</title>
<path fill="none" stroke="#191970" d="M329.5342,-166.0203C343.7535,-166.5933 359.1433,-167.2136 374.2822,-167.8237"/>
<polygon fill="#191970" stroke="#191970" points="374.5726,-171.3382 384.7054,-168.2438 374.8545,-164.3438 374.5726,-171.3382"/>
</g>
<!-- Node29&#45;&gt;Node31 -->
<g id="edge7" class="edge">
<title>Node29&#45;&gt;Node31</title>
<path fill="none" stroke="#191970" d="M329.5342,-148.6934C349.7437,-143.9083 372.3174,-138.5634 393.1749,-133.6248"/>
<polygon fill="#191970" stroke="#191970" points="394.0147,-137.0228 402.9392,-131.3129 392.4018,-130.2112 394.0147,-137.0228"/>
</g>
<!-- Node32 -->
<g id="node9" class="node">
<title>Node32</title>
<g id="a_node9"><a xlink:href="classRa_1_1Core_1_1Utils_1_1AttribManager.html#ae0cb7281ec72606a5392602b4ea50d2c" target="_top" xlink:title="Ra::Core::Utils::AttribManager\l::getAttrib">
<polygon fill="#ffffff" stroke="#000000" points="582,-101.5 582,-131.5 743,-131.5 743,-101.5 582,-101.5"/>
<text text-anchor="start" x="590" y="-119.5" font-family="Helvetica,sans-Serif" font-size="10.00" fill="#000000">Ra::Core::Utils::AttribManager</text>
<text text-anchor="middle" x="662.5" y="-108.5" font-family="Helvetica,sans-Serif" font-size="10.00" fill="#000000">::getAttrib</text>
</a>
</g>
</g>
<!-- Node31&#45;&gt;Node32 -->
<g id="edge8" class="edge">
<title>Node31&#45;&gt;Node32</title>
<path fill="none" stroke="#191970" d="M528.1027,-116.5C541.9253,-116.5 556.8405,-116.5 571.5309,-116.5"/>
<polygon fill="#191970" stroke="#191970" points="571.6492,-120.0001 581.6492,-116.5 571.6491,-113.0001 571.6492,-120.0001"/>
</g>
<!-- Node34 -->
<g id="node11" class="node">
<title>Node34</title>
<g id="a_node11"><a xlink:href="classRa_1_1Core_1_1Utils_1_1AttribManager.html#ac2d3cdc360ffe1904a15ff8504de95b8" target="_top" xlink:title="Ra::Core::Utils::AttribManager\l::addAttrib">
<polygon fill="#ffffff" stroke="#000000" points="385,-46.5 385,-76.5 546,-76.5 546,-46.5 385,-46.5"/>
<text text-anchor="start" x="393" y="-64.5" font-family="Helvetica,sans-Serif" font-size="10.00" fill="#000000">Ra::Core::Utils::AttribManager</text>
<text text-anchor="middle" x="465.5" y="-53.5" font-family="Helvetica,sans-Serif" font-size="10.00" fill="#000000">::addAttrib</text>
</a>
</g>
</g>
<!-- Node33&#45;&gt;Node34 -->
<g id="edge10" class="edge">
<title>Node33&#45;&gt;Node34</title>
<path fill="none" stroke="#191970" d="M329.5342,-63.5549C343.7535,-63.34 359.1433,-63.1074 374.2822,-62.8786"/>
<polygon fill="#191970" stroke="#191970" points="374.7595,-66.3719 384.7054,-62.7211 374.6536,-59.3727 374.7595,-66.3719"/>
</g>
<!-- Node35 -->
<g id="node12" class="node">
<title>Node35</title>
<g id="a_node12"><a xlink:href="classRa_1_1Core_1_1Utils_1_1AttribManager.html#ae61e2c70f407d49d854ee4b98a39121f" target="_top" xlink:title="Return true if h correspond to an existing attribute in *this. ">
<polygon fill="#ffffff" stroke="#000000" points="582,-49.5 582,-79.5 743,-79.5 743,-49.5 582,-49.5"/>
<text text-anchor="start" x="590" y="-67.5" font-family="Helvetica,sans-Serif" font-size="10.00" fill="#000000">Ra::Core::Utils::AttribManager</text>
<text text-anchor="middle" x="662.5" y="-56.5" font-family="Helvetica,sans-Serif" font-size="10.00" fill="#000000">::isValid</text>
</a>
</g>
</g>
<!-- Node34&#45;&gt;Node35 -->
<g id="edge11" class="edge">
<title>Node34&#45;&gt;Node35</title>
<path fill="none" stroke="#191970" d="M546.1959,-62.7289C554.6733,-62.858 563.3327,-62.9898 571.9115,-63.1205"/>
<polygon fill="#191970" stroke="#191970" points="571.8775,-66.6203 581.9296,-63.273 571.9841,-59.6211 571.8775,-66.6203"/>
</g>
<!-- Node39 -->
<g id="node16" class="node">
<title>Node39</title>
<g id="a_node16"><a xlink:href="classRa_1_1Core_1_1Utils_1_1Observable.html#a7e5fe761726d56a51f95192eb6555f8f" target="_top" xlink:title="Notify (i.e. call) each attached observer with argument p. ">
<polygon fill="#ffffff" stroke="#000000" points="583,-.5 583,-30.5 742,-30.5 742,-.5 583,-.5"/>
<text text-anchor="start" x="591" y="-18.5" font-family="Helvetica,sans-Serif" font-size="10.00" fill="#000000">Ra::Core::Utils::Observable</text>
<text text-anchor="middle" x="662.5" y="-7.5" font-family="Helvetica,sans-Serif" font-size="10.00" fill="#000000">&lt; const std::string &amp;&gt;::notify</text>
</a>
</g>
</g>
<!-- Node34&#45;&gt;Node39 -->
<g id="edge15" class="edge">
<title>Node34&#45;&gt;Node39</title>
<path fill="none" stroke="#191970" d="M530.0052,-46.4379C548.6388,-42.0869 569.1225,-37.3039 588.2961,-32.8268"/>
<polygon fill="#191970" stroke="#191970" points="589.2444,-36.1996 598.1865,-30.5174 587.6526,-29.383 589.2444,-36.1996"/>
</g>
<!-- Node36 -->
<g id="node13" class="node">
<title>Node36</title>
<g id="a_node13"><a xlink:href="classRa_1_1Core_1_1Utils_1_1AttribHandle.html#a17afbd6718234d480c05258369bdfde9" target="_top" xlink:title="Ra::Core::Utils::AttribHandle\l::attribName">
<polygon fill="#ffffff" stroke="#000000" points="779,-73.5 779,-103.5 933,-103.5 933,-73.5 779,-73.5"/>
<text text-anchor="start" x="787" y="-91.5" font-family="Helvetica,sans-Serif" font-size="10.00" fill="#000000">Ra::Core::Utils::AttribHandle</text>
<text text-anchor="middle" x="856" y="-80.5" font-family="Helvetica,sans-Serif" font-size="10.00" fill="#000000">::attribName</text>
</a>
</g>
</g>
<!-- Node35&#45;&gt;Node36 -->
<g id="edge12" class="edge">
<title>Node35&#45;&gt;Node36</title>
<path fill="none" stroke="#191970" d="M743.1603,-74.5044C751.6571,-75.5582 760.3244,-76.6333 768.8898,-77.6956"/>
<polygon fill="#191970" stroke="#191970" points="768.527,-81.1774 778.8818,-78.935 769.3887,-74.2306 768.527,-81.1774"/>
</g>
<!-- Node37 -->
<g id="node14" class="node">
<title>Node37</title>
<g id="a_node14"><a xlink:href="classRa_1_1Core_1_1Utils_1_1Index.html#a771f93efd49538950e3cb9e57e46fbaf" target="_top" xlink:title="Ra::Core::Utils::Index\l::Invalid">
<polygon fill="#ffffff" stroke="#000000" points="796.5,-24.5 796.5,-54.5 915.5,-54.5 915.5,-24.5 796.5,-24.5"/>
<text text-anchor="start" x="804.5" y="-42.5" font-family="Helvetica,sans-Serif" font-size="10.00" fill="#000000">Ra::Core::Utils::Index</text>
<text text-anchor="middle" x="856" y="-31.5" font-family="Helvetica,sans-Serif" font-size="10.00" fill="#000000">::Invalid</text>
</a>
</g>
</g>
<!-- Node35&#45;&gt;Node37 -->
<g id="edge13" class="edge">
<title>Node35&#45;&gt;Node37</title>
<path fill="none" stroke="#191970" d="M743.1603,-54.0788C757.5129,-52.2244 772.3516,-50.3073 786.3648,-48.4968"/>
<polygon fill="#191970" stroke="#191970" points="786.9348,-51.9523 796.4039,-47.1998 786.0378,-45.01 786.9348,-51.9523"/>
</g>
<!-- Node38 -->
<g id="node15" class="node">
<title>Node38</title>
<g id="a_node15"><a xlink:href="classRa_1_1Core_1_1Utils_1_1Index.html#ab3376097b792b1ac2068c6da1cb6c8e4" target="_top" xlink:title="CONSTRUCTOR. ">
<polygon fill="#ffffff" stroke="#000000" points="969,-24.5 969,-54.5 1088,-54.5 1088,-24.5 969,-24.5"/>
<text text-anchor="start" x="977" y="-42.5" font-family="Helvetica,sans-Serif" font-size="10.00" fill="#000000">Ra::Core::Utils::Index</text>
<text text-anchor="middle" x="1028.5" y="-31.5" font-family="Helvetica,sans-Serif" font-size="10.00" fill="#000000">::Index</text>
</a>
</g>
</g>
<!-- Node37&#45;&gt;Node38 -->
<g id="edge14" class="edge">
<title>Node37&#45;&gt;Node38</title>
<path fill="none" stroke="#191970" d="M915.848,-39.5C929.6294,-39.5 944.406,-39.5 958.5728,-39.5"/>
<polygon fill="#191970" stroke="#191970" points="958.7578,-43.0001 968.7578,-39.5 958.7577,-36.0001 958.7578,-43.0001"/>
</g>
</g>
</svg>
        <g id="navigator" transform="translate(0 0)" fill="#404254">
                <rect fill="#f2f5e9" fill-opacity="0.5" stroke="#606060" stroke-width=".5" x="0" y="0" width="60" height="60"/>
                <use id="zoomplus" xlink:href="#zoomPlus" x="17" y="9" onmousedown="handleZoom(evt,'in')"/>
                <use id="zoomminus" xlink:href="#zoomMin" x="42" y="9" onmousedown="handleZoom(evt,'out')"/>
                <use id="reset" xlink:href="#resetDef" x="30" y="36" onmousedown="handleReset()"/>
                <g id="arrowUp" xlink:href="#dirArrow" transform="translate(30 24)" onmousedown="handlePan(0,-1)">
                  <use xlink:href="#rim" fill="#404040">
                        <set attributeName="fill" to="#808080" begin="arrowUp.mouseover" end="arrowUp.mouseout"/>
                  </use>
                  <path fill="none" stroke="white" stroke-width="1.5" d="M0,-3.0v7 M-2.5,-0.5L0,-3.0L2.5,-0.5"/>
                </g>
                <g id="arrowRight" xlink:href="#dirArrow" transform="rotate(90) translate(36 -43)" onmousedown="handlePan(1,0)">
                  <use xlink:href="#rim" fill="#404040">
                        <set attributeName="fill" to="#808080" begin="arrowRight.mouseover" end="arrowRight.mouseout"/>
                  </use>
                  <path fill="none" stroke="white" stroke-width="1.5" d="M0,-3.0v7 M-2.5,-0.5L0,-3.0L2.5,-0.5"/>
                </g>
                <g id="arrowDown" xlink:href="#dirArrow" transform="rotate(180) translate(-30 -48)" onmousedown="handlePan(0,1)">
                  <use xlink:href="#rim" fill="#404040">
                        <set attributeName="fill" to="#808080" begin="arrowDown.mouseover" end="arrowDown.mouseout"/>
                  </use>
                  <path fill="none" stroke="white" stroke-width="1.5" d="M0,-3.0v7 M-2.5,-0.5L0,-3.0L2.5,-0.5"/>
                </g>
                <g id="arrowLeft" xlink:href="#dirArrow" transform="rotate(270) translate(-36 17)" onmousedown="handlePan(-1,0)">
                  <use xlink:href="#rim" fill="#404040">
                        <set attributeName="fill" to="#808080" begin="arrowLeft.mouseover" end="arrowLeft.mouseout"/>
                  </use>
                  <path fill="none" stroke="white" stroke-width="1.5" d="M0,-3.0v7 M-2.5,-0.5L0,-3.0L2.5,-0.5"/>
                </g>
        </g>
        <svg viewBox="0 0 15 15" width="100%" height="30px" preserveAspectRatio="xMaxYMin meet">
         <g id="arrow_out" transform="scale(0.3 0.3)">
          <a xlink:href="namespaceRa_1_1Engine_1_1DrawPrimitives_a80e6b453e8ebd8cb6874bf7ac89e2e5e_cgraph_org.svg" target="_base">
           <rect id="button" ry="5" rx="5" y="6" x="6" height="38" width="38"
                fill="#f2f5e9" fill-opacity="0.5" stroke="#606060" stroke-width="1.0"/>
           <path id="arrow"
             d="M 11.500037,31.436501 C 11.940474,20.09759 22.043105,11.32322 32.158766,21.979434 L 37.068811,17.246167 C 37.068811,17.246167 37.088388,32 37.088388,32 L 22.160133,31.978069 C 22.160133,31.978069 26.997745,27.140456 26.997745,27.140456 C 18.528582,18.264221 13.291696,25.230495 11.500037,31.436501 z"
             style="fill:#404040;"/>
          </a>
         </g>
        </svg>
</svg>
