<?xml version="1.0" encoding="UTF-8" standalone="no"?>
<!DOCTYPE svg PUBLIC "-//W3C//DTD SVG 1.1//EN"
 "http://www.w3.org/Graphics/SVG/1.1/DTD/svg11.dtd">
<!-- Generated by graphviz version 2.40.1 (20161225.0304)
 -->
<!-- Title: Ra::Core::Animation::operator&lt;&lt; Pages: 1 -->
<svg width="914pt" height="431pt"
 viewBox="0.00 0.00 914.00 431.00" xmlns="http://www.w3.org/2000/svg" xmlns:xlink="http://www.w3.org/1999/xlink">
<g id="graph0" class="graph" transform="scale(1 1) rotate(0) translate(4 427)">
<title>Ra::Core::Animation::operator&lt;&lt;</title>
<polygon fill="#ffffff" stroke="transparent" points="-4,4 -4,-427 910,-427 910,4 -4,4"/>
<!-- Node140 -->
<g id="node1" class="node">
<title>Node140</title>
<polygon fill="#bfbfbf" stroke="#000000" points="0,-196.5 0,-226.5 114,-226.5 114,-196.5 0,-196.5"/>
<text text-anchor="start" x="8" y="-214.5" font-family="Helvetica,sans-Serif" font-size="10.00" fill="#000000">Ra::Core::Animation</text>
<text text-anchor="middle" x="57" y="-203.5" font-family="Helvetica,sans-Serif" font-size="10.00" fill="#000000">::operator&lt;&lt;</text>
</g>
<!-- Node141 -->
<g id="node2" class="node">
<title>Node141</title>
<g id="a_node2"><a xlink:href="classRa_1_1Core_1_1Animation_1_1Skeleton.html#a5679e1beb544b515c4539ce48a2f2ba3" target="_top" xlink:title="Ra::Core::Animation\l::Skeleton::size">
<polygon fill="#ffffff" stroke="#000000" points="158.5,-343.5 158.5,-373.5 272.5,-373.5 272.5,-343.5 158.5,-343.5"/>
<text text-anchor="start" x="166.5" y="-361.5" font-family="Helvetica,sans-Serif" font-size="10.00" fill="#000000">Ra::Core::Animation</text>
<text text-anchor="middle" x="215.5" y="-350.5" font-family="Helvetica,sans-Serif" font-size="10.00" fill="#000000">::Skeleton::size</text>
</a>
</g>
</g>
<!-- Node140&#45;&gt;Node141 -->
<g id="edge1" class="edge">
<title>Node140&#45;&gt;Node141</title>
<path fill="none" stroke="#191970" d="M67.9894,-226.5693C83.0529,-250.9203 112.5625,-297.7822 150,-325.5 157.9465,-331.3834 167.4861,-335.9551 176.7945,-339.7453"/>
<polygon fill="#191970" stroke="#191970" points="175.7454,-343.0921 186.3347,-343.4344 178.2701,-336.5633 175.7454,-343.0921"/>
</g>
<!-- Node148 -->
<g id="node9" class="node">
<title>Node148</title>
<g id="a_node9"><a xlink:href="classRa_1_1Core_1_1Animation_1_1HandleArray.html#a1c75459bc9ff0e1f940b97f55fc18a7e" target="_top" xlink:title="Ra::Core::Animation\l::HandleArray::getLabel">
<polygon fill="#ffffff" stroke="#000000" points="150,-294.5 150,-324.5 281,-324.5 281,-294.5 150,-294.5"/>
<text text-anchor="start" x="158" y="-312.5" font-family="Helvetica,sans-Serif" font-size="10.00" fill="#000000">Ra::Core::Animation</text>
<text text-anchor="middle" x="215.5" y="-301.5" font-family="Helvetica,sans-Serif" font-size="10.00" fill="#000000">::HandleArray::getLabel</text>
</a>
</g>
</g>
<!-- Node140&#45;&gt;Node148 -->
<g id="edge10" class="edge">
<title>Node140&#45;&gt;Node148</title>
<path fill="none" stroke="#191970" d="M72.6466,-226.5849C90.2617,-242.9078 120.315,-268.8304 150,-285.5 152.9947,-287.1817 156.1297,-288.7853 159.3372,-290.3075"/>
<polygon fill="#191970" stroke="#191970" points="157.952,-293.5219 168.5121,-294.3791 160.7914,-287.1236 157.952,-293.5219"/>
</g>
<!-- Node150 -->
<g id="node11" class="node">
<title>Node150</title>
<g id="a_node11"><a xlink:href="classRa_1_1Core_1_1AdjacencyList.html#a9bf4ac88fdea50ef9916b641617d4827" target="_top" xlink:title="Return true if a node is a root node. ">
<polygon fill="#ffffff" stroke="#000000" points="150,-245.5 150,-275.5 281,-275.5 281,-245.5 150,-245.5"/>
<text text-anchor="start" x="158" y="-263.5" font-family="Helvetica,sans-Serif" font-size="10.00" fill="#000000">Ra::Core::AdjacencyList</text>
<text text-anchor="middle" x="215.5" y="-252.5" font-family="Helvetica,sans-Serif" font-size="10.00" fill="#000000">::isRoot</text>
</a>
</g>
</g>
<!-- Node140&#45;&gt;Node150 -->
<g id="edge12" class="edge">
<title>Node140&#45;&gt;Node150</title>
<path fill="none" stroke="#191970" d="M105.8485,-226.6014C122.0442,-231.6083 140.2366,-237.2324 157.0781,-242.439"/>
<polygon fill="#191970" stroke="#191970" points="156.2251,-245.8386 166.8128,-245.4484 158.2927,-239.1509 156.2251,-245.8386"/>
</g>
<!-- Node152 -->
<g id="node13" class="node">
<title>Node152</title>
<g id="a_node13"><a xlink:href="classRa_1_1Core_1_1AdjacencyList.html#a5c9f8b77aebc7f3d807c35df4b030727" target="_top" xlink:title="Return true if the node is a joint node. ( |child| == 1 ) ">
<polygon fill="#ffffff" stroke="#000000" points="150,-196.5 150,-226.5 281,-226.5 281,-196.5 150,-196.5"/>
<text text-anchor="start" x="158" y="-214.5" font-family="Helvetica,sans-Serif" font-size="10.00" fill="#000000">Ra::Core::AdjacencyList</text>
<text text-anchor="middle" x="215.5" y="-203.5" font-family="Helvetica,sans-Serif" font-size="10.00" fill="#000000">::isJoint</text>
</a>
</g>
</g>
<!-- Node140&#45;&gt;Node152 -->
<g id="edge14" class="edge">
<title>Node140&#45;&gt;Node152</title>
<path fill="none" stroke="#191970" d="M114.2221,-211.5C122.5075,-211.5 131.1418,-211.5 139.7217,-211.5"/>
<polygon fill="#191970" stroke="#191970" points="139.7447,-215.0001 149.7446,-211.5 139.7446,-208.0001 139.7447,-215.0001"/>
</g>
<!-- Node153 -->
<g id="node14" class="node">
<title>Node153</title>
<g id="a_node14"><a xlink:href="classRa_1_1Core_1_1AdjacencyList.html#a7cc5e8bee935a36439b9cd62d47e4404" target="_top" xlink:title="Return true if the node is a branch node. ( |child| &gt; 1 ) ">
<polygon fill="#ffffff" stroke="#000000" points="150,-147.5 150,-177.5 281,-177.5 281,-147.5 150,-147.5"/>
<text text-anchor="start" x="158" y="-165.5" font-family="Helvetica,sans-Serif" font-size="10.00" fill="#000000">Ra::Core::AdjacencyList</text>
<text text-anchor="middle" x="215.5" y="-154.5" font-family="Helvetica,sans-Serif" font-size="10.00" fill="#000000">::isBranch</text>
</a>
</g>
</g>
<!-- Node140&#45;&gt;Node153 -->
<g id="edge16" class="edge">
<title>Node140&#45;&gt;Node153</title>
<path fill="none" stroke="#191970" d="M105.8485,-196.3986C122.0442,-191.3917 140.2366,-185.7676 157.0781,-180.561"/>
<polygon fill="#191970" stroke="#191970" points="158.2927,-183.8491 166.8128,-177.5516 156.2251,-177.1614 158.2927,-183.8491"/>
</g>
<!-- Node154 -->
<g id="node15" class="node">
<title>Node154</title>
<g id="a_node15"><a xlink:href="classRa_1_1Core_1_1AdjacencyList.html#a778181dcdae7c7a6a482401c89d75253" target="_top" xlink:title="Return true if the node is a leaf node. ">
<polygon fill="#ffffff" stroke="#000000" points="150,-98.5 150,-128.5 281,-128.5 281,-98.5 150,-98.5"/>
<text text-anchor="start" x="158" y="-116.5" font-family="Helvetica,sans-Serif" font-size="10.00" fill="#000000">Ra::Core::AdjacencyList</text>
<text text-anchor="middle" x="215.5" y="-105.5" font-family="Helvetica,sans-Serif" font-size="10.00" fill="#000000">::isLeaf</text>
</a>
</g>
</g>
<!-- Node140&#45;&gt;Node154 -->
<g id="edge18" class="edge">
<title>Node140&#45;&gt;Node154</title>
<path fill="none" stroke="#191970" d="M72.6466,-196.4151C90.2617,-180.0922 120.315,-154.1696 150,-137.5 152.9947,-135.8183 156.1297,-134.2147 159.3372,-132.6925"/>
<polygon fill="#191970" stroke="#191970" points="160.7914,-135.8764 168.5121,-128.6209 157.952,-129.4781 160.7914,-135.8764"/>
</g>
<!-- Node155 -->
<g id="node16" class="node">
<title>Node155</title>
<g id="a_node16"><a xlink:href="classRa_1_1Core_1_1AdjacencyList.html#a45d58d25c05abf04f4f6526ef3ae5a26" target="_top" xlink:title="Ra::Core::AdjacencyList\l::parents">
<polygon fill="#ffffff" stroke="#000000" points="150,-49.5 150,-79.5 281,-79.5 281,-49.5 150,-49.5"/>
<text text-anchor="start" x="158" y="-67.5" font-family="Helvetica,sans-Serif" font-size="10.00" fill="#000000">Ra::Core::AdjacencyList</text>
<text text-anchor="middle" x="215.5" y="-56.5" font-family="Helvetica,sans-Serif" font-size="10.00" fill="#000000">::parents</text>
</a>
</g>
</g>
<!-- Node140&#45;&gt;Node155 -->
<g id="edge20" class="edge">
<title>Node140&#45;&gt;Node155</title>
<path fill="none" stroke="#191970" d="M64.6374,-196.4141C78.3556,-170.7446 109.5502,-118.448 150,-88.5 151.8585,-87.124 153.8041,-85.8198 155.8135,-84.5843"/>
<polygon fill="#191970" stroke="#191970" points="157.8556,-87.4574 164.9601,-79.5976 154.5048,-81.3114 157.8556,-87.4574"/>
</g>
<!-- Node156 -->
<g id="node17" class="node">
<title>Node156</title>
<g id="a_node17"><a xlink:href="classRa_1_1Core_1_1AdjacencyList.html#afb228941d27a01e44071d404e8b58aa4" target="_top" xlink:title="Ra::Core::AdjacencyList\l::children">
<polygon fill="#ffffff" stroke="#000000" points="150,-.5 150,-30.5 281,-30.5 281,-.5 150,-.5"/>
<text text-anchor="start" x="158" y="-18.5" font-family="Helvetica,sans-Serif" font-size="10.00" fill="#000000">Ra::Core::AdjacencyList</text>
<text text-anchor="middle" x="215.5" y="-7.5" font-family="Helvetica,sans-Serif" font-size="10.00" fill="#000000">::children</text>
</a>
</g>
</g>
<!-- Node140&#45;&gt;Node156 -->
<g id="edge21" class="edge">
<title>Node140&#45;&gt;Node156</title>
<path fill="none" stroke="#191970" d="M61.18,-196.2893C71.0524,-163.1144 98.9097,-83.6961 150,-39.5 151.3539,-38.3288 152.7697,-37.2129 154.236,-36.1497"/>
<polygon fill="#191970" stroke="#191970" points="156.4695,-38.8817 163.1028,-30.6203 152.7654,-32.942 156.4695,-38.8817"/>
</g>
<!-- Node141&#45;&gt;Node140 -->
<g id="edge9" class="edge">
<title>Node141&#45;&gt;Node140</title>
<path fill="none" stroke="#191970" d="M158.3409,-348.9049C155.4303,-347.248 152.628,-345.4457 150,-343.5 111.3388,-314.8762 81.1322,-265.8364 66.5588,-236.0305"/>
<polygon fill="#191970" stroke="#191970" points="69.6176,-234.3077 62.2262,-226.7171 63.2708,-237.2603 69.6176,-234.3077"/>
</g>
<!-- Node142 -->
<g id="node3" class="node">
<title>Node142</title>
<g id="a_node3"><a xlink:href="namespaceRa_1_1Core_1_1Animation.html#a547f9928803752e611f856afca5b613f" target="_top" xlink:title="Remove all the key Poses. ">
<polygon fill="#ffffff" stroke="#000000" points="325.5,-392.5 325.5,-422.5 439.5,-422.5 439.5,-392.5 325.5,-392.5"/>
<text text-anchor="start" x="333.5" y="-410.5" font-family="Helvetica,sans-Serif" font-size="10.00" fill="#000000">Ra::Core::Animation</text>
<text text-anchor="middle" x="382.5" y="-399.5" font-family="Helvetica,sans-Serif" font-size="10.00" fill="#000000">::clear</text>
</a>
</g>
</g>
<!-- Node141&#45;&gt;Node142 -->
<g id="edge2" class="edge">
<title>Node141&#45;&gt;Node142</title>
<path fill="none" stroke="#191970" d="M266.9682,-373.6014C284.1919,-378.6551 303.5588,-384.3376 321.4422,-389.5848"/>
<polygon fill="#191970" stroke="#191970" points="320.6209,-392.9913 331.2018,-392.4484 322.5917,-386.2745 320.6209,-392.9913"/>
</g>
<!-- Node143 -->
<g id="node4" class="node">
<title>Node143</title>
<g id="a_node4"><a xlink:href="namespaceRa_1_1Core_1_1Animation.html#a60602749517c440955bc88c5ae5d25ee" target="_top" xlink:title="Ra::Core::Animation\l::getPose">
<polygon fill="#ffffff" stroke="#000000" points="325.5,-343.5 325.5,-373.5 439.5,-373.5 439.5,-343.5 325.5,-343.5"/>
<text text-anchor="start" x="333.5" y="-361.5" font-family="Helvetica,sans-Serif" font-size="10.00" fill="#000000">Ra::Core::Animation</text>
<text text-anchor="middle" x="382.5" y="-350.5" font-family="Helvetica,sans-Serif" font-size="10.00" fill="#000000">::getPose</text>
</a>
</g>
</g>
<!-- Node141&#45;&gt;Node143 -->
<g id="edge3" class="edge">
<title>Node141&#45;&gt;Node143</title>
<path fill="none" stroke="#191970" d="M272.5048,-358.5C286.2671,-358.5 301.1006,-358.5 315.2822,-358.5"/>
<polygon fill="#191970" stroke="#191970" points="315.4688,-362.0001 325.4687,-358.5 315.4687,-355.0001 315.4688,-362.0001"/>
</g>
<!-- Node144 -->
<g id="node5" class="node">
<title>Node144</title>
<g id="a_node5"><a xlink:href="namespaceRa_1_1Core_1_1Animation.html#a7613da42bbde2caf7e0b3ff501a09cfe" target="_top" xlink:title="Ra::Core::Animation\l::getTime">
<polygon fill="#ffffff" stroke="#000000" points="484,-387.5 484,-417.5 598,-417.5 598,-387.5 484,-387.5"/>
<text text-anchor="start" x="492" y="-405.5" font-family="Helvetica,sans-Serif" font-size="10.00" fill="#000000">Ra::Core::Animation</text>
<text text-anchor="middle" x="541" y="-394.5" font-family="Helvetica,sans-Serif" font-size="10.00" fill="#000000">::getTime</text>
</a>
</g>
</g>
<!-- Node143&#45;&gt;Node144 -->
<g id="edge4" class="edge">
<title>Node143&#45;&gt;Node144</title>
<path fill="none" stroke="#191970" d="M436.6034,-373.5192C449.6652,-377.1452 463.7437,-381.0534 477.2034,-384.7899"/>
<polygon fill="#191970" stroke="#191970" points="476.2997,-388.1713 486.8715,-387.4738 478.1721,-381.4264 476.2997,-388.1713"/>
</g>
<!-- Node145 -->
<g id="node6" class="node">
<title>Node145</title>
<g id="a_node6"><a xlink:href="namespaceRa_1_1Core_1_1Geometry.html#aa04e6052d8911b1df1bd881474debb45" target="_top" xlink:title="Ra::Core::Geometry::t">
<polygon fill="#ffffff" stroke="#000000" points="784,-327 784,-346 906,-346 906,-327 784,-327"/>
<text text-anchor="middle" x="845" y="-334" font-family="Helvetica,sans-Serif" font-size="10.00" fill="#000000">Ra::Core::Geometry::t</text>
</a>
</g>
</g>
<!-- Node143&#45;&gt;Node145 -->
<g id="edge5" class="edge">
<title>Node143&#45;&gt;Node145</title>
<path fill="none" stroke="#191970" d="M439.6754,-355.7803C524.1203,-351.7635 682.072,-344.2501 773.8783,-339.8831"/>
<polygon fill="#191970" stroke="#191970" points="774.0944,-343.3769 783.9168,-339.4056 773.7618,-336.3848 774.0944,-343.3769"/>
</g>
<!-- Node146 -->
<g id="node7" class="node">
<title>Node146</title>
<g id="a_node7"><a xlink:href="namespaceRa_1_1Core_1_1Animation.html#aa5e2e11d79318fd2777aaa259f8210db" target="_top" xlink:title="Ra::Core::Animation\l::interpolatePoses">
<polygon fill="#ffffff" stroke="#000000" points="484,-299.5 484,-329.5 598,-329.5 598,-299.5 484,-299.5"/>
<text text-anchor="start" x="492" y="-317.5" font-family="Helvetica,sans-Serif" font-size="10.00" fill="#000000">Ra::Core::Animation</text>
<text text-anchor="middle" x="541" y="-306.5" font-family="Helvetica,sans-Serif" font-size="10.00" fill="#000000">::interpolatePoses</text>
</a>
</g>
</g>
<!-- Node143&#45;&gt;Node146 -->
<g id="edge6" class="edge">
<title>Node143&#45;&gt;Node146</title>
<path fill="none" stroke="#191970" d="M436.6034,-343.4808C449.6652,-339.8548 463.7437,-335.9466 477.2034,-332.2101"/>
<polygon fill="#191970" stroke="#191970" points="478.1721,-335.5736 486.8715,-329.5262 476.2997,-328.8287 478.1721,-335.5736"/>
</g>
<!-- Node147 -->
<g id="node8" class="node">
<title>Node147</title>
<g id="a_node8"><a xlink:href="namespaceRa_1_1Core_1_1Animation.html#a6951de94ba127cd79685e704d658808b" target="_top" xlink:title="Ra::Core::Animation\l::interpolate">
<polygon fill="#ffffff" stroke="#000000" points="634,-299.5 634,-329.5 748,-329.5 748,-299.5 634,-299.5"/>
<text text-anchor="start" x="642" y="-317.5" font-family="Helvetica,sans-Serif" font-size="10.00" fill="#000000">Ra::Core::Animation</text>
<text text-anchor="middle" x="691" y="-306.5" font-family="Helvetica,sans-Serif" font-size="10.00" fill="#000000">::interpolate</text>
</a>
</g>
</g>
<!-- Node146&#45;&gt;Node147 -->
<g id="edge7" class="edge">
<title>Node146&#45;&gt;Node147</title>
<path fill="none" stroke="#191970" d="M598.1365,-314.5C606.3769,-314.5 614.9229,-314.5 623.3442,-314.5"/>
<polygon fill="#191970" stroke="#191970" points="623.5255,-318.0001 633.5255,-314.5 623.5255,-311.0001 623.5255,-318.0001"/>
</g>
<!-- Node147&#45;&gt;Node145 -->
<g id="edge8" class="edge">
<title>Node147&#45;&gt;Node145</title>
<path fill="none" stroke="#191970" d="M748.3439,-322.692C756.7031,-323.8862 765.3936,-325.1277 773.9841,-326.3549"/>
<polygon fill="#191970" stroke="#191970" points="773.6024,-329.8358 783.9969,-327.7853 774.5924,-322.9061 773.6024,-329.8358"/>
</g>
<!-- Node149 -->
<g id="node10" class="node">
<title>Node149</title>
<g id="a_node10"><a xlink:href="classRa_1_1Core_1_1Animation_1_1HandleArray.html#a669862596d63a98a032123f739fc989a" target="_top" xlink:title="Ra::Core::Animation\l::HandleArray::size">
<polygon fill="#ffffff" stroke="#000000" points="325.5,-294.5 325.5,-324.5 439.5,-324.5 439.5,-294.5 325.5,-294.5"/>
<text text-anchor="start" x="333.5" y="-312.5" font-family="Helvetica,sans-Serif" font-size="10.00" fill="#000000">Ra::Core::Animation</text>
<text text-anchor="middle" x="382.5" y="-301.5" font-family="Helvetica,sans-Serif" font-size="10.00" fill="#000000">::HandleArray::size</text>
</a>
</g>
</g>
<!-- Node148&#45;&gt;Node149 -->
<g id="edge11" class="edge">
<title>Node148&#45;&gt;Node149</title>
<path fill="none" stroke="#191970" d="M281.0235,-309.5C292.2174,-309.5 303.8638,-309.5 315.1054,-309.5"/>
<polygon fill="#191970" stroke="#191970" points="315.2909,-313.0001 325.2909,-309.5 315.2909,-306.0001 315.2909,-313.0001"/>
</g>
<!-- Node151 -->
<g id="node12" class="node">
<title>Node151</title>
<g id="a_node12"><a xlink:href="classRa_1_1Core_1_1AdjacencyList.html#a48b78362d882a41b32f0df6aa1d42855" target="_top" xlink:title="Return the number of nodes in the graph. ">
<polygon fill="#ffffff" stroke="#000000" points="317,-172.5 317,-202.5 448,-202.5 448,-172.5 317,-172.5"/>
<text text-anchor="start" x="325" y="-190.5" font-family="Helvetica,sans-Serif" font-size="10.00" fill="#000000">Ra::Core::AdjacencyList</text>
<text text-anchor="middle" x="382.5" y="-179.5" font-family="Helvetica,sans-Serif" font-size="10.00" fill="#000000">::size</text>
</a>
</g>
</g>
<!-- Node150&#45;&gt;Node151 -->
<g id="edge13" class="edge">
<title>Node150&#45;&gt;Node151</title>
<path fill="none" stroke="#191970" d="M258.3705,-245.4813C265.9602,-242.6269 273.7509,-239.5691 281,-236.5 302.1183,-227.5591 325.1736,-216.5348 343.9662,-207.2086"/>
<polygon fill="#191970" stroke="#191970" points="345.7161,-210.2468 353.0963,-202.6453 342.5865,-203.9854 345.7161,-210.2468"/>
</g>
<!-- Node152&#45;&gt;Node151 -->
<g id="edge15" class="edge">
<title>Node152&#45;&gt;Node151</title>
<path fill="none" stroke="#191970" d="M281.0235,-202.0834C289.496,-200.8658 298.2278,-199.611 306.8471,-198.3723"/>
<polygon fill="#191970" stroke="#191970" points="307.4909,-201.8158 316.8913,-196.9288 306.4951,-194.887 307.4909,-201.8158"/>
</g>
<!-- Node153&#45;&gt;Node151 -->
<g id="edge17" class="edge">
<title>Node153&#45;&gt;Node151</title>
<path fill="none" stroke="#191970" d="M281.0235,-172.3089C289.496,-173.5773 298.2278,-174.8844 306.8471,-176.1747"/>
<polygon fill="#191970" stroke="#191970" points="306.4833,-179.6592 316.8913,-177.6783 307.5197,-172.7363 306.4833,-179.6592"/>
</g>
<!-- Node154&#45;&gt;Node151 -->
<g id="edge19" class="edge">
<title>Node154&#45;&gt;Node151</title>
<path fill="none" stroke="#191970" d="M258.7413,-128.6027C266.218,-131.4246 273.8745,-134.4498 281,-137.5 302.5715,-146.7342 326.1113,-158.2372 345.0858,-167.8811"/>
<polygon fill="#191970" stroke="#191970" points="343.509,-171.0058 354.0052,-172.448 346.6993,-164.7751 343.509,-171.0058"/>
</g>
</g>
</svg>
