<?xml version="1.0" encoding="UTF-8" standalone="no"?>
<!DOCTYPE svg PUBLIC "-//W3C//DTD SVG 1.1//EN"
 "http://www.w3.org/Graphics/SVG/1.1/DTD/svg11.dtd">
<!-- Generated by graphviz version 2.40.1 (20161225.0304)
 -->
<!-- Title: Ra::Engine::DrawPrimitives::Capsule Pages: 1 -->
<!--zoomable 511 -->
<svg id="main" version="1.1" xmlns="http://www.w3.org/2000/svg" xmlns:xlink="http://www.w3.org/1999/xlink" xml:space="preserve" onload="init(evt)">
<style type="text/css"><![CDATA[
.edge:hover path { stroke: red; }
.edge:hover polygon { stroke: red; fill: red; }
]]></style>
<script type="text/javascript"><![CDATA[
var edges = document.getElementsByTagName('g');
if (edges && edges.length) {
  for (var i=0;i<edges.length;i++) {
    if (edges[i].id.substr(0,4)=='edge') {
      edges[i].setAttribute('class','edge');
    }
  }
}
]]></script>
        <defs>
                <circle id="rim" cx="0" cy="0" r="7"/>
                <circle id="rim2" cx="0" cy="0" r="3.5"/>
                <g id="zoomPlus">
                        <use xlink:href="#rim" fill="#404040">
                                <set attributeName="fill" to="#808080" begin="zoomplus.mouseover" end="zoomplus.mouseout"/>
                        </use>
                        <path d="M-4,0h8M0,-4v8" fill="none" stroke="white" stroke-width="1.5" pointer-events="none"/>
                </g>
                <g id="zoomMin">
                        <use xlink:href="#rim" fill="#404040">
                                <set attributeName="fill" to="#808080" begin="zoomminus.mouseover" end="zoomminus.mouseout"/>
                        </use>
                        <path d="M-4,0h8" fill="none" stroke="white" stroke-width="1.5" pointer-events="none"/>
                </g>
                <g id="dirArrow">
                        <path fill="none" stroke="white" stroke-width="1.5" d="M0,-3.0v7 M-2.5,-0.5L0,-3.0L2.5,-0.5"/>
                </g>
               <g id="resetDef">
                       <use xlink:href="#rim2" fill="#404040">
                               <set attributeName="fill" to="#808080" begin="reset.mouseover" end="reset.mouseout"/>
                       </use>
               </g>
        </defs>

<script type="text/javascript">
var viewWidth = 1106;
var viewHeight = 511;
var sectionId = 'dynsection-0';
</script>
<script xlink:href="svgpan.js"/>
<svg id="graph" class="graph">
<g id="viewport">
<title>Ra::Engine::DrawPrimitives::Capsule</title>
<polygon fill="#ffffff" stroke="transparent" points="-4,4 -4,-506.5 1102,-506.5 1102,4 -4,4"/>
<!-- Node1 -->
<g id="node1" class="node">
<title>Node1</title>
<polygon fill="#bfbfbf" stroke="#000000" points="0,-171.5 0,-201.5 149,-201.5 149,-171.5 0,-171.5"/>
<text text-anchor="start" x="8" y="-189.5" font-family="Helvetica,sans-Serif" font-size="10.00" fill="#000000">Ra::Engine::DrawPrimitives</text>
<text text-anchor="middle" x="74.5" y="-178.5" font-family="Helvetica,sans-Serif" font-size="10.00" fill="#000000">::Capsule</text>
</g>
<!-- Node2 -->
<g id="node2" class="node">
<title>Node2</title>
<g id="a_node2"><a xlink:href="namespaceOpenMesh.html#a8205f789ce08919bc11c58383574596c" target="_top" xlink:title="OpenMesh::norm">
<polygon fill="#ffffff" stroke="#000000" points="198,-368 198,-387 297,-387 297,-368 198,-368"/>
<text text-anchor="middle" x="247.5" y="-375" font-family="Helvetica,sans-Serif" font-size="10.00" fill="#000000">OpenMesh::norm</text>
</a>
</g>
</g>
<!-- Node1&#45;&gt;Node2 -->
<g id="edge1" class="edge">
<title>Node1&#45;&gt;Node2</title>
<path fill="none" stroke="#191970" d="M80.0183,-201.6954C92.9631,-235.1926 128.5218,-315.7929 185,-358.5 187.4975,-360.3886 190.1833,-362.0907 192.9877,-363.6248"/>
<polygon fill="#191970" stroke="#191970" points="191.7228,-366.8973 202.2628,-367.9743 194.6949,-360.5596 191.7228,-366.8973"/>
</g>
<!-- Node3 -->
<g id="node3" class="node">
<title>Node3</title>
<g id="a_node3"><a xlink:href="namespaceRa_1_1Core_1_1Geometry.html#a9a7411d1ab626094d61750c9236d1681" target="_top" xlink:title="Ra::Core::Geometry\l::makeCapsule">
<polygon fill="#ffffff" stroke="#000000" points="191,-318.5 191,-348.5 304,-348.5 304,-318.5 191,-318.5"/>
<text text-anchor="start" x="199" y="-336.5" font-family="Helvetica,sans-Serif" font-size="10.00" fill="#000000">Ra::Core::Geometry</text>
<text text-anchor="middle" x="247.5" y="-325.5" font-family="Helvetica,sans-Serif" font-size="10.00" fill="#000000">::makeCapsule</text>
</a>
</g>
</g>
<!-- Node1&#45;&gt;Node3 -->
<g id="edge2" class="edge">
<title>Node1&#45;&gt;Node3</title>
<path fill="none" stroke="#191970" d="M92.3624,-201.6779C123.1328,-227.8239 186.2442,-281.4503 221.7568,-311.6257"/>
<polygon fill="#191970" stroke="#191970" points="219.8479,-314.5966 229.7347,-318.4047 224.3806,-309.2622 219.8479,-314.5966"/>
</g>
<!-- Node7 -->
<g id="node7" class="node">
<title>Node7</title>
<g id="a_node7"><a xlink:href="classRa_1_1Core_1_1Geometry_1_1AttribArrayGeometry.html#acabe05880d71a8dc4406964c258fff5a" target="_top" xlink:title="Access the vertices positions. ">
<polygon fill="#ffffff" stroke="#000000" points="603,-267 603,-308 728,-308 728,-267 603,-267"/>
<text text-anchor="start" x="611" y="-296" font-family="Helvetica,sans-Serif" font-size="10.00" fill="#000000">Ra::Core::Geometry</text>
<text text-anchor="start" x="611" y="-285" font-family="Helvetica,sans-Serif" font-size="10.00" fill="#000000">::AttribArrayGeometry</text>
<text text-anchor="middle" x="665.5" y="-274" font-family="Helvetica,sans-Serif" font-size="10.00" fill="#000000">::vertices</text>
</a>
</g>
</g>
<!-- Node1&#45;&gt;Node7 -->
<g id="edge28" class="edge">
<title>Node1&#45;&gt;Node7</title>
<path fill="none" stroke="#191970" d="M149.2897,-200.0501C161.214,-202.0112 173.4303,-203.9032 185,-205.5 346.1296,-227.7385 390.9072,-205.2382 549,-243.5 565.6856,-247.5383 568.9563,-251.3912 585,-257.5 590.0527,-259.4239 595.2886,-261.4044 600.5544,-263.387"/>
<polygon fill="#191970" stroke="#191970" points="599.4401,-266.7071 610.0322,-266.9461 601.901,-260.1539 599.4401,-266.7071"/>
</g>
<!-- Node12 -->
<g id="node12" class="node">
<title>Node12</title>
<g id="a_node12"><a xlink:href="classRa_1_1Core_1_1Geometry_1_1AttribArrayGeometry.html#aeb68d9cd8cf8c1e05886a23f0ad33c59" target="_top" xlink:title="Ra::Core::Geometry\l::AttribArrayGeometry\l::getAttrib">
<polygon fill="#ffffff" stroke="#000000" points="603,-207 603,-248 728,-248 728,-207 603,-207"/>
<text text-anchor="start" x="611" y="-236" font-family="Helvetica,sans-Serif" font-size="10.00" fill="#000000">Ra::Core::Geometry</text>
<text text-anchor="start" x="611" y="-225" font-family="Helvetica,sans-Serif" font-size="10.00" fill="#000000">::AttribArrayGeometry</text>
<text text-anchor="middle" x="665.5" y="-214" font-family="Helvetica,sans-Serif" font-size="10.00" fill="#000000">::getAttrib</text>
</a>
</g>
</g>
<!-- Node1&#45;&gt;Node12 -->
<g id="edge20" class="edge">
<title>Node1&#45;&gt;Node12</title>
<path fill="none" stroke="#191970" d="M149.0388,-188.0964C242.6252,-190.6002 408.0099,-196.6787 549,-210.5 563.2142,-211.8934 578.3484,-213.7927 592.8412,-215.8179"/>
<polygon fill="#191970" stroke="#191970" points="592.3583,-219.2843 602.7531,-217.2354 593.3493,-212.3548 592.3583,-219.2843"/>
</g>
<!-- Node14 -->
<g id="node14" class="node">
<title>Node14</title>
<g id="a_node14"><a xlink:href="namespaceRa_1_1Core_1_1Geometry.html#aa04e6052d8911b1df1bd881474debb45" target="_top" xlink:title="Ra::Core::Geometry::t">
<polygon fill="#ffffff" stroke="#000000" points="186.5,-139 186.5,-158 308.5,-158 308.5,-139 186.5,-139"/>
<text text-anchor="middle" x="247.5" y="-146" font-family="Helvetica,sans-Serif" font-size="10.00" fill="#000000">Ra::Core::Geometry::t</text>
</a>
</g>
</g>
<!-- Node1&#45;&gt;Node14 -->
<g id="edge17" class="edge">
<title>Node1&#45;&gt;Node14</title>
<path fill="none" stroke="#191970" d="M142.8742,-171.4814C160.0029,-167.719 178.1244,-163.7386 194.3863,-160.1666"/>
<polygon fill="#191970" stroke="#191970" points="195.2296,-163.5649 204.2458,-158.0009 193.7277,-156.7279 195.2296,-163.5649"/>
</g>
<!-- Node15 -->
<g id="node15" class="node">
<title>Node15</title>
<g id="a_node15"><a xlink:href="classRa_1_1Core_1_1Geometry_1_1AttribArrayGeometry.html#a25adccb0a28277580c023e2cd4adb0b0" target="_top" xlink:title="Ra::Core::Geometry\l::AttribArrayGeometry\l::getAttribHandle">
<polygon fill="#ffffff" stroke="#000000" points="185,-79 185,-120 310,-120 310,-79 185,-79"/>
<text text-anchor="start" x="193" y="-108" font-family="Helvetica,sans-Serif" font-size="10.00" fill="#000000">Ra::Core::Geometry</text>
<text text-anchor="start" x="193" y="-97" font-family="Helvetica,sans-Serif" font-size="10.00" fill="#000000">::AttribArrayGeometry</text>
<text text-anchor="middle" x="247.5" y="-86" font-family="Helvetica,sans-Serif" font-size="10.00" fill="#000000">::getAttribHandle</text>
</a>
</g>
</g>
<!-- Node1&#45;&gt;Node15 -->
<g id="edge18" class="edge">
<title>Node1&#45;&gt;Node15</title>
<path fill="none" stroke="#191970" d="M103.4659,-171.2699C125.6887,-159.6556 157.1732,-143.3519 185,-129.5 188.2627,-127.8758 191.6281,-126.2162 195.0261,-124.5521"/>
<polygon fill="#191970" stroke="#191970" points="196.5908,-127.6832 204.0492,-120.1583 193.5261,-121.3896 196.5908,-127.6832"/>
</g>
<!-- Node17 -->
<g id="node17" class="node">
<title>Node17</title>
<g id="a_node17"><a xlink:href="classRa_1_1Core_1_1Geometry_1_1AttribArrayGeometry.html#ae1956b0396dadd84f55a12f2160e5671" target="_top" xlink:title="Ra::Core::Geometry\l::AttribArrayGeometry\l::addAttrib">
<polygon fill="#ffffff" stroke="#000000" points="185,-19 185,-60 310,-60 310,-19 185,-19"/>
<text text-anchor="start" x="193" y="-48" font-family="Helvetica,sans-Serif" font-size="10.00" fill="#000000">Ra::Core::Geometry</text>
<text text-anchor="start" x="193" y="-37" font-family="Helvetica,sans-Serif" font-size="10.00" fill="#000000">::AttribArrayGeometry</text>
<text text-anchor="middle" x="247.5" y="-26" font-family="Helvetica,sans-Serif" font-size="10.00" fill="#000000">::addAttrib</text>
</a>
</g>
</g>
<!-- Node1&#45;&gt;Node17 -->
<g id="edge21" class="edge">
<title>Node1&#45;&gt;Node17</title>
<path fill="none" stroke="#191970" d="M85.9532,-171.1358C104.562,-146.9963 143.4826,-99.8181 185,-69.5 186.8559,-68.1447 188.7827,-66.8247 190.7594,-65.5422"/>
<polygon fill="#191970" stroke="#191970" points="192.922,-68.3255 199.6814,-60.1669 189.3096,-62.3296 192.922,-68.3255"/>
</g>
<!-- Node4 -->
<g id="node4" class="node">
<title>Node4</title>
<g id="a_node4"><a xlink:href="namespaceRa_1_1Core_1_1Math.html#a4f441ac6a56092d52849a4f48e274aa8" target="_top" xlink:title="Ra::Core::Math::cos">
<polygon fill="#ffffff" stroke="#000000" points="392.5,-373 392.5,-392 502.5,-392 502.5,-373 392.5,-373"/>
<text text-anchor="middle" x="447.5" y="-380" font-family="Helvetica,sans-Serif" font-size="10.00" fill="#000000">Ra::Core::Math::cos</text>
</a>
</g>
</g>
<!-- Node3&#45;&gt;Node4 -->
<g id="edge3" class="edge">
<title>Node3&#45;&gt;Node4</title>
<path fill="none" stroke="#191970" d="M293.3104,-348.603C309.8097,-353.7363 328.6376,-359.2447 346,-363.5 357.6989,-366.3672 370.2484,-369.0381 382.3962,-371.4183"/>
<polygon fill="#191970" stroke="#191970" points="381.9988,-374.9057 392.4783,-373.3472 383.3142,-368.0304 381.9988,-374.9057"/>
</g>
<!-- Node5 -->
<g id="node5" class="node">
<title>Node5</title>
<g id="a_node5"><a xlink:href="classRa_1_1Core_1_1Geometry_1_1AttribArrayGeometry.html#a887411177386edbcdc35d0c6bf78a83a" target="_top" xlink:title="Set vertices. ">
<polygon fill="#ffffff" stroke="#000000" points="385,-313 385,-354 510,-354 510,-313 385,-313"/>
<text text-anchor="start" x="393" y="-342" font-family="Helvetica,sans-Serif" font-size="10.00" fill="#000000">Ra::Core::Geometry</text>
<text text-anchor="start" x="393" y="-331" font-family="Helvetica,sans-Serif" font-size="10.00" fill="#000000">::AttribArrayGeometry</text>
<text text-anchor="middle" x="447.5" y="-320" font-family="Helvetica,sans-Serif" font-size="10.00" fill="#000000">::setVertices</text>
</a>
</g>
</g>
<!-- Node3&#45;&gt;Node5 -->
<g id="edge4" class="edge">
<title>Node3&#45;&gt;Node5</title>
<path fill="none" stroke="#191970" d="M304.01,-333.5C325.9456,-333.5 351.3485,-333.5 374.6293,-333.5"/>
<polygon fill="#191970" stroke="#191970" points="374.8071,-337.0001 384.8071,-333.5 374.8071,-330.0001 374.8071,-337.0001"/>
</g>
<!-- Node9 -->
<g id="node9" class="node">
<title>Node9</title>
<g id="a_node9"><a xlink:href="classRa_1_1Core_1_1Geometry_1_1AttribArrayGeometry.html#a646faabae9b936589fe03d8a9d2002e9" target="_top" xlink:title="Set normals. ">
<polygon fill="#ffffff" stroke="#000000" points="385,-461 385,-502 510,-502 510,-461 385,-461"/>
<text text-anchor="start" x="393" y="-490" font-family="Helvetica,sans-Serif" font-size="10.00" fill="#000000">Ra::Core::Geometry</text>
<text text-anchor="start" x="393" y="-479" font-family="Helvetica,sans-Serif" font-size="10.00" fill="#000000">::AttribArrayGeometry</text>
<text text-anchor="middle" x="447.5" y="-468" font-family="Helvetica,sans-Serif" font-size="10.00" fill="#000000">::setNormals</text>
</a>
</g>
</g>
<!-- Node3&#45;&gt;Node9 -->
<g id="edge8" class="edge">
<title>Node3&#45;&gt;Node9</title>
<path fill="none" stroke="#191970" d="M297.0405,-348.652C301.7805,-351.4216 306.22,-354.6775 310,-358.5 341.1649,-390.015 313.4021,-421.4697 346,-451.5 354.3621,-459.2035 364.6115,-464.9356 375.3473,-469.1994"/>
<polygon fill="#191970" stroke="#191970" points="374.277,-472.5334 384.8718,-472.581 376.6192,-465.9369 374.277,-472.5334"/>
</g>
<!-- Node11 -->
<g id="node11" class="node">
<title>Node11</title>
<g id="a_node11"><a xlink:href="classRa_1_1Core_1_1Geometry_1_1AttribArrayGeometry.html#a3a3a1458f93f23c7c8663bc3d52f7841" target="_top" xlink:title="Ra::Core::Geometry\l::AttribArrayGeometry\l::colorize">
<polygon fill="#ffffff" stroke="#000000" points="385,-253 385,-294 510,-294 510,-253 385,-253"/>
<text text-anchor="start" x="393" y="-282" font-family="Helvetica,sans-Serif" font-size="10.00" fill="#000000">Ra::Core::Geometry</text>
<text text-anchor="start" x="393" y="-271" font-family="Helvetica,sans-Serif" font-size="10.00" fill="#000000">::AttribArrayGeometry</text>
<text text-anchor="middle" x="447.5" y="-260" font-family="Helvetica,sans-Serif" font-size="10.00" fill="#000000">::colorize</text>
</a>
</g>
</g>
<!-- Node3&#45;&gt;Node11 -->
<g id="edge12" class="edge">
<title>Node3&#45;&gt;Node11</title>
<path fill="none" stroke="#191970" d="M296.576,-318.4658C312.3497,-313.657 329.9053,-308.3294 346,-303.5 355.4379,-300.668 365.3756,-297.7061 375.1895,-294.793"/>
<polygon fill="#191970" stroke="#191970" points="376.3462,-298.1007 384.939,-291.9028 374.3566,-291.3894 376.3462,-298.1007"/>
</g>
<!-- Node13 -->
<g id="node13" class="node">
<title>Node13</title>
<g id="a_node13"><a xlink:href="classRa_1_1Core_1_1Geometry_1_1IndexedGeometry.html#a927f636cf0698e637cc23e2f7f012a48" target="_top" xlink:title="Ra::Core::Geometry\l::IndexedGeometry::checkConsistency">
<polygon fill="#ffffff" stroke="#000000" points="346,-411.5 346,-441.5 549,-441.5 549,-411.5 346,-411.5"/>
<text text-anchor="start" x="354" y="-429.5" font-family="Helvetica,sans-Serif" font-size="10.00" fill="#000000">Ra::Core::Geometry</text>
<text text-anchor="middle" x="447.5" y="-418.5" font-family="Helvetica,sans-Serif" font-size="10.00" fill="#000000">::IndexedGeometry::checkConsistency</text>
</a>
</g>
</g>
<!-- Node3&#45;&gt;Node13 -->
<g id="edge16" class="edge">
<title>Node3&#45;&gt;Node13</title>
<path fill="none" stroke="#191970" d="M292.9598,-348.5582C298.9425,-351.423 304.7955,-354.7281 310,-358.5 330.1816,-373.1265 324.8513,-388.3104 346,-401.5 349.4106,-403.6271 352.9908,-405.5732 356.6858,-407.3538"/>
<polygon fill="#191970" stroke="#191970" points="355.5099,-410.6593 366.0754,-411.4477 358.3076,-404.2427 355.5099,-410.6593"/>
</g>
<!-- Node6 -->
<g id="node6" class="node">
<title>Node6</title>
<g id="a_node6"><a xlink:href="classRa_1_1Core_1_1Utils_1_1AttribManager.html#a056b7697cfbedd6b20dde6ce7955094e" target="_top" xlink:title="Ra::Core::Utils::AttribManager\l::setAttrib">
<polygon fill="#ffffff" stroke="#000000" points="585,-341.5 585,-371.5 746,-371.5 746,-341.5 585,-341.5"/>
<text text-anchor="start" x="593" y="-359.5" font-family="Helvetica,sans-Serif" font-size="10.00" fill="#000000">Ra::Core::Utils::AttribManager</text>
<text text-anchor="middle" x="665.5" y="-348.5" font-family="Helvetica,sans-Serif" font-size="10.00" fill="#000000">::setAttrib</text>
</a>
</g>
</g>
<!-- Node5&#45;&gt;Node6 -->
<g id="edge5" class="edge">
<title>Node5&#45;&gt;Node6</title>
<path fill="none" stroke="#191970" d="M510.2622,-340.1217C530.3508,-342.2411 553.0115,-344.6319 574.6851,-346.9186"/>
<polygon fill="#191970" stroke="#191970" points="574.582,-350.4271 584.894,-347.9957 575.3165,-343.4657 574.582,-350.4271"/>
</g>
<!-- Node5&#45;&gt;Node7 -->
<g id="edge6" class="edge">
<title>Node5&#45;&gt;Node7</title>
<path fill="none" stroke="#191970" d="M510.2622,-320.2566C536.0268,-314.82 566.0223,-308.4907 592.7399,-302.8531"/>
<polygon fill="#191970" stroke="#191970" points="593.7416,-306.2188 602.8035,-300.7295 592.2963,-299.3697 593.7416,-306.2188"/>
</g>
<!-- Node8 -->
<g id="node8" class="node">
<title>Node8</title>
<g id="a_node8"><a xlink:href="classRa_1_1Core_1_1Utils_1_1AttribManager.html#ae0cb7281ec72606a5392602b4ea50d2c" target="_top" xlink:title="Ra::Core::Utils::AttribManager\l::getAttrib">
<polygon fill="#ffffff" stroke="#000000" points="782,-272.5 782,-302.5 943,-302.5 943,-272.5 782,-272.5"/>
<text text-anchor="start" x="790" y="-290.5" font-family="Helvetica,sans-Serif" font-size="10.00" fill="#000000">Ra::Core::Utils::AttribManager</text>
<text text-anchor="middle" x="862.5" y="-279.5" font-family="Helvetica,sans-Serif" font-size="10.00" fill="#000000">::getAttrib</text>
</a>
</g>
</g>
<!-- Node7&#45;&gt;Node8 -->
<g id="edge7" class="edge">
<title>Node7&#45;&gt;Node8</title>
<path fill="none" stroke="#191970" d="M728.1027,-287.5C741.9253,-287.5 756.8405,-287.5 771.5309,-287.5"/>
<polygon fill="#191970" stroke="#191970" points="771.6492,-291.0001 781.6492,-287.5 771.6491,-284.0001 771.6492,-291.0001"/>
</g>
<!-- Node9&#45;&gt;Node6 -->
<g id="edge9" class="edge">
<title>Node9&#45;&gt;Node6</title>
<path fill="none" stroke="#191970" d="M510.2269,-467.1967C523.4212,-463.033 536.9752,-457.8482 549,-451.5 568.4302,-441.2423 612.6997,-403.3803 640.7277,-378.664"/>
<polygon fill="#191970" stroke="#191970" points="643.3482,-381.0185 648.5135,-371.7681 638.707,-375.7783 643.3482,-381.0185"/>
</g>
<!-- Node10 -->
<g id="node10" class="node">
<title>Node10</title>
<g id="a_node10"><a xlink:href="classRa_1_1Core_1_1Geometry_1_1AttribArrayGeometry.html#abfd2320cb73c0cb14805c234af594b5e" target="_top" xlink:title="Access the vertices normals. ">
<polygon fill="#ffffff" stroke="#000000" points="603,-437 603,-478 728,-478 728,-437 603,-437"/>
<text text-anchor="start" x="611" y="-466" font-family="Helvetica,sans-Serif" font-size="10.00" fill="#000000">Ra::Core::Geometry</text>
<text text-anchor="start" x="611" y="-455" font-family="Helvetica,sans-Serif" font-size="10.00" fill="#000000">::AttribArrayGeometry</text>
<text text-anchor="middle" x="665.5" y="-444" font-family="Helvetica,sans-Serif" font-size="10.00" fill="#000000">::normals</text>
</a>
</g>
</g>
<!-- Node9&#45;&gt;Node10 -->
<g id="edge10" class="edge">
<title>Node9&#45;&gt;Node10</title>
<path fill="none" stroke="#191970" d="M510.2622,-474.5904C536.0268,-471.7539 566.0223,-468.4517 592.7399,-465.5103"/>
<polygon fill="#191970" stroke="#191970" points="593.2466,-468.9757 602.8035,-464.4024 592.4805,-462.0178 593.2466,-468.9757"/>
</g>
<!-- Node10&#45;&gt;Node8 -->
<g id="edge11" class="edge">
<title>Node10&#45;&gt;Node8</title>
<path fill="none" stroke="#191970" d="M689.2628,-436.994C726.7146,-404.6753 799.1359,-342.1796 837.4009,-309.1591"/>
<polygon fill="#191970" stroke="#191970" points="839.7388,-311.7647 845.023,-302.5817 835.1655,-306.4651 839.7388,-311.7647"/>
</g>
<!-- Node11&#45;&gt;Node7 -->
<g id="edge15" class="edge">
<title>Node11&#45;&gt;Node7</title>
<path fill="none" stroke="#191970" d="M510.2622,-277.5306C536.0268,-279.1852 566.0223,-281.1115 592.7399,-282.8273"/>
<polygon fill="#191970" stroke="#191970" points="592.5997,-286.3254 602.8035,-283.4736 593.0484,-279.3398 592.5997,-286.3254"/>
</g>
<!-- Node11&#45;&gt;Node12 -->
<g id="edge13" class="edge">
<title>Node11&#45;&gt;Node12</title>
<path fill="none" stroke="#191970" d="M510.2622,-260.2566C536.0268,-254.82 566.0223,-248.4907 592.7399,-242.8531"/>
<polygon fill="#191970" stroke="#191970" points="593.7416,-246.2188 602.8035,-240.7295 592.2963,-239.3697 593.7416,-246.2188"/>
</g>
<!-- Node12&#45;&gt;Node8 -->
<g id="edge14" class="edge">
<title>Node12&#45;&gt;Node8</title>
<path fill="none" stroke="#191970" d="M728.1027,-246.5668C752.2641,-253.9256 779.7637,-262.3011 803.5663,-269.5507"/>
<polygon fill="#191970" stroke="#191970" points="802.5899,-272.9119 813.1758,-272.4774 804.6294,-266.2156 802.5899,-272.9119"/>
</g>
<!-- Node16 -->
<g id="node16" class="node">
<title>Node16</title>
<g id="a_node16"><a xlink:href="classRa_1_1Core_1_1Utils_1_1AttribManager.html#af89047a2747bc4e08144bbb3477e1d8e" target="_top" xlink:title="findAttrib Grab an attribute handler by name. ">
<polygon fill="#ffffff" stroke="#000000" points="367,-84.5 367,-114.5 528,-114.5 528,-84.5 367,-84.5"/>
<text text-anchor="start" x="375" y="-102.5" font-family="Helvetica,sans-Serif" font-size="10.00" fill="#000000">Ra::Core::Utils::AttribManager</text>
<text text-anchor="middle" x="447.5" y="-91.5" font-family="Helvetica,sans-Serif" font-size="10.00" fill="#000000">::findAttrib</text>
</a>
</g>
</g>
<!-- Node15&#45;&gt;Node16 -->
<g id="edge19" class="edge">
<title>Node15&#45;&gt;Node16</title>
<path fill="none" stroke="#191970" d="M310.2325,-99.5C324.9863,-99.5 341.003,-99.5 356.7138,-99.5"/>
<polygon fill="#191970" stroke="#191970" points="356.9775,-103.0001 366.9775,-99.5 356.9775,-96.0001 356.9775,-103.0001"/>
</g>
<!-- Node18 -->
<g id="node18" class="node">
<title>Node18</title>
<g id="a_node18"><a xlink:href="classRa_1_1Core_1_1Utils_1_1AttribManager.html#ac2d3cdc360ffe1904a15ff8504de95b8" target="_top" xlink:title="Ra::Core::Utils::AttribManager\l::addAttrib">
<polygon fill="#ffffff" stroke="#000000" points="367,-24.5 367,-54.5 528,-54.5 528,-24.5 367,-24.5"/>
<text text-anchor="start" x="375" y="-42.5" font-family="Helvetica,sans-Serif" font-size="10.00" fill="#000000">Ra::Core::Utils::AttribManager</text>
<text text-anchor="middle" x="447.5" y="-31.5" font-family="Helvetica,sans-Serif" font-size="10.00" fill="#000000">::addAttrib</text>
</a>
</g>
</g>
<!-- Node17&#45;&gt;Node18 -->
<g id="edge22" class="edge">
<title>Node17&#45;&gt;Node18</title>
<path fill="none" stroke="#191970" d="M310.2325,-39.5C324.9863,-39.5 341.003,-39.5 356.7138,-39.5"/>
<polygon fill="#191970" stroke="#191970" points="356.9775,-43.0001 366.9775,-39.5 356.9775,-36.0001 356.9775,-43.0001"/>
</g>
<!-- Node19 -->
<g id="node19" class="node">
<title>Node19</title>
<g id="a_node19"><a xlink:href="classRa_1_1Core_1_1Utils_1_1AttribManager.html#ae61e2c70f407d49d854ee4b98a39121f" target="_top" xlink:title="Return true if h correspond to an existing attribute in *this. ">
<polygon fill="#ffffff" stroke="#000000" points="585,-49.5 585,-79.5 746,-79.5 746,-49.5 585,-49.5"/>
<text text-anchor="start" x="593" y="-67.5" font-family="Helvetica,sans-Serif" font-size="10.00" fill="#000000">Ra::Core::Utils::AttribManager</text>
<text text-anchor="middle" x="665.5" y="-56.5" font-family="Helvetica,sans-Serif" font-size="10.00" fill="#000000">::isValid</text>
</a>
</g>
</g>
<!-- Node18&#45;&gt;Node19 -->
<g id="edge23" class="edge">
<title>Node18&#45;&gt;Node19</title>
<path fill="none" stroke="#191970" d="M528.0558,-48.738C543.2785,-50.4838 559.2971,-52.3208 574.8066,-54.0994"/>
<polygon fill="#191970" stroke="#191970" points="574.5779,-57.596 584.9116,-55.2582 575.3755,-50.6416 574.5779,-57.596"/>
</g>
<!-- Node23 -->
<g id="node23" class="node">
<title>Node23</title>
<g id="a_node23"><a xlink:href="classRa_1_1Core_1_1Utils_1_1Observable.html#a7e5fe761726d56a51f95192eb6555f8f" target="_top" xlink:title="Notify (i.e. call) each attached observer with argument p. ">
<polygon fill="#ffffff" stroke="#000000" points="586,-.5 586,-30.5 745,-30.5 745,-.5 586,-.5"/>
<text text-anchor="start" x="594" y="-18.5" font-family="Helvetica,sans-Serif" font-size="10.00" fill="#000000">Ra::Core::Utils::Observable</text>
<text text-anchor="middle" x="665.5" y="-7.5" font-family="Helvetica,sans-Serif" font-size="10.00" fill="#000000">&lt; const std::string &amp;&gt;::notify</text>
</a>
</g>
</g>
<!-- Node18&#45;&gt;Node23 -->
<g id="edge27" class="edge">
<title>Node18&#45;&gt;Node23</title>
<path fill="none" stroke="#191970" d="M528.0558,-30.6315C543.4775,-28.9337 559.716,-27.1459 575.4146,-25.4177"/>
<polygon fill="#191970" stroke="#191970" points="576.0818,-28.8654 585.6388,-24.2921 575.3158,-21.9075 576.0818,-28.8654"/>
</g>
<!-- Node20 -->
<g id="node20" class="node">
<title>Node20</title>
<g id="a_node20"><a xlink:href="classRa_1_1Core_1_1Utils_1_1AttribHandle.html#a17afbd6718234d480c05258369bdfde9" target="_top" xlink:title="Ra::Core::Utils::AttribHandle\l::attribName">
<polygon fill="#ffffff" stroke="#000000" points="785.5,-25.5 785.5,-55.5 939.5,-55.5 939.5,-25.5 785.5,-25.5"/>
<text text-anchor="start" x="793.5" y="-43.5" font-family="Helvetica,sans-Serif" font-size="10.00" fill="#000000">Ra::Core::Utils::AttribHandle</text>
<text text-anchor="middle" x="862.5" y="-32.5" font-family="Helvetica,sans-Serif" font-size="10.00" fill="#000000">::attribName</text>
</a>
</g>
</g>
<!-- Node19&#45;&gt;Node20 -->
<g id="edge24" class="edge">
<title>Node19&#45;&gt;Node20</title>
<path fill="none" stroke="#191970" d="M746.1959,-54.669C755.8172,-53.4969 765.673,-52.2962 775.3794,-51.1137"/>
<polygon fill="#191970" stroke="#191970" points="775.921,-54.5737 785.4243,-49.8899 775.0744,-47.625 775.921,-54.5737"/>
</g>
<!-- Node21 -->
<g id="node21" class="node">
<title>Node21</title>
<g id="a_node21"><a xlink:href="classRa_1_1Core_1_1Utils_1_1Index.html#a771f93efd49538950e3cb9e57e46fbaf" target="_top" xlink:title="Ra::Core::Utils::Index\l::Invalid">
<polygon fill="#ffffff" stroke="#000000" points="803,-74.5 803,-104.5 922,-104.5 922,-74.5 803,-74.5"/>
<text text-anchor="start" x="811" y="-92.5" font-family="Helvetica,sans-Serif" font-size="10.00" fill="#000000">Ra::Core::Utils::Index</text>
<text text-anchor="middle" x="862.5" y="-81.5" font-family="Helvetica,sans-Serif" font-size="10.00" fill="#000000">::Invalid</text>
</a>
</g>
</g>
<!-- Node19&#45;&gt;Node21 -->
<g id="edge25" class="edge">
<title>Node19&#45;&gt;Node21</title>
<path fill="none" stroke="#191970" d="M746.1959,-74.7406C761.5635,-76.6908 777.5291,-78.7169 792.5288,-80.6204"/>
<polygon fill="#191970" stroke="#191970" points="792.3786,-84.1293 802.7397,-81.9162 793.2599,-77.185 792.3786,-84.1293"/>
</g>
<!-- Node22 -->
<g id="node22" class="node">
<title>Node22</title>
<g id="a_node22"><a xlink:href="classRa_1_1Core_1_1Utils_1_1Index.html#ab3376097b792b1ac2068c6da1cb6c8e4" target="_top" xlink:title="CONSTRUCTOR. ">
<polygon fill="#ffffff" stroke="#000000" points="979,-74.5 979,-104.5 1098,-104.5 1098,-74.5 979,-74.5"/>
<text text-anchor="start" x="987" y="-92.5" font-family="Helvetica,sans-Serif" font-size="10.00" fill="#000000">Ra::Core::Utils::Index</text>
<text text-anchor="middle" x="1038.5" y="-81.5" font-family="Helvetica,sans-Serif" font-size="10.00" fill="#000000">::Index</text>
</a>
</g>
</g>
<!-- Node21&#45;&gt;Node22 -->
<g id="edge26" class="edge">
<title>Node21&#45;&gt;Node22</title>
<path fill="none" stroke="#191970" d="M922.0856,-89.5C937.1377,-89.5 953.4324,-89.5 968.9288,-89.5"/>
<polygon fill="#191970" stroke="#191970" points="968.9758,-93.0001 978.9758,-89.5 968.9758,-86.0001 968.9758,-93.0001"/>
</g>
</g>
</svg>
        <g id="navigator" transform="translate(0 0)" fill="#404254">
                <rect fill="#f2f5e9" fill-opacity="0.5" stroke="#606060" stroke-width=".5" x="0" y="0" width="60" height="60"/>
                <use id="zoomplus" xlink:href="#zoomPlus" x="17" y="9" onmousedown="handleZoom(evt,'in')"/>
                <use id="zoomminus" xlink:href="#zoomMin" x="42" y="9" onmousedown="handleZoom(evt,'out')"/>
                <use id="reset" xlink:href="#resetDef" x="30" y="36" onmousedown="handleReset()"/>
                <g id="arrowUp" xlink:href="#dirArrow" transform="translate(30 24)" onmousedown="handlePan(0,-1)">
                  <use xlink:href="#rim" fill="#404040">
                        <set attributeName="fill" to="#808080" begin="arrowUp.mouseover" end="arrowUp.mouseout"/>
                  </use>
                  <path fill="none" stroke="white" stroke-width="1.5" d="M0,-3.0v7 M-2.5,-0.5L0,-3.0L2.5,-0.5"/>
                </g>
                <g id="arrowRight" xlink:href="#dirArrow" transform="rotate(90) translate(36 -43)" onmousedown="handlePan(1,0)">
                  <use xlink:href="#rim" fill="#404040">
                        <set attributeName="fill" to="#808080" begin="arrowRight.mouseover" end="arrowRight.mouseout"/>
                  </use>
                  <path fill="none" stroke="white" stroke-width="1.5" d="M0,-3.0v7 M-2.5,-0.5L0,-3.0L2.5,-0.5"/>
                </g>
                <g id="arrowDown" xlink:href="#dirArrow" transform="rotate(180) translate(-30 -48)" onmousedown="handlePan(0,1)">
                  <use xlink:href="#rim" fill="#404040">
                        <set attributeName="fill" to="#808080" begin="arrowDown.mouseover" end="arrowDown.mouseout"/>
                  </use>
                  <path fill="none" stroke="white" stroke-width="1.5" d="M0,-3.0v7 M-2.5,-0.5L0,-3.0L2.5,-0.5"/>
                </g>
                <g id="arrowLeft" xlink:href="#dirArrow" transform="rotate(270) translate(-36 17)" onmousedown="handlePan(-1,0)">
                  <use xlink:href="#rim" fill="#404040">
                        <set attributeName="fill" to="#808080" begin="arrowLeft.mouseover" end="arrowLeft.mouseout"/>
                  </use>
                  <path fill="none" stroke="white" stroke-width="1.5" d="M0,-3.0v7 M-2.5,-0.5L0,-3.0L2.5,-0.5"/>
                </g>
        </g>
        <svg viewBox="0 0 15 15" width="100%" height="30px" preserveAspectRatio="xMaxYMin meet">
         <g id="arrow_out" transform="scale(0.3 0.3)">
          <a xlink:href="namespaceRa_1_1Engine_1_1DrawPrimitives_a8e58958e0c04a4e64a2383a4d445357d_cgraph_org.svg" target="_base">
           <rect id="button" ry="5" rx="5" y="6" x="6" height="38" width="38"
                fill="#f2f5e9" fill-opacity="0.5" stroke="#606060" stroke-width="1.0"/>
           <path id="arrow"
             d="M 11.500037,31.436501 C 11.940474,20.09759 22.043105,11.32322 32.158766,21.979434 L 37.068811,17.246167 C 37.068811,17.246167 37.088388,32 37.088388,32 L 22.160133,31.978069 C 22.160133,31.978069 26.997745,27.140456 26.997745,27.140456 C 18.528582,18.264221 13.291696,25.230495 11.500037,31.436501 z"
             style="fill:#404040;"/>
          </a>
         </g>
        </svg>
</svg>
