<?xml version="1.0" encoding="UTF-8" standalone="no"?>
<!DOCTYPE svg PUBLIC "-//W3C//DTD SVG 1.1//EN"
 "http://www.w3.org/Graphics/SVG/1.1/DTD/svg11.dtd">
<!-- Generated by graphviz version 2.40.1 (20161225.0304)
 -->
<!-- Title: Ra::Engine::DrawPrimitives::Primitive Pages: 1 -->
<!--zoomable 137 -->
<svg id="main" version="1.1" xmlns="http://www.w3.org/2000/svg" xmlns:xlink="http://www.w3.org/1999/xlink" xml:space="preserve" onload="init(evt)">
<style type="text/css"><![CDATA[
.edge:hover path { stroke: red; }
.edge:hover polygon { stroke: red; fill: red; }
]]></style>
<script type="text/javascript"><![CDATA[
var edges = document.getElementsByTagName('g');
if (edges && edges.length) {
  for (var i=0;i<edges.length;i++) {
    if (edges[i].id.substr(0,4)=='edge') {
      edges[i].setAttribute('class','edge');
    }
  }
}
]]></script>
        <defs>
                <circle id="rim" cx="0" cy="0" r="7"/>
                <circle id="rim2" cx="0" cy="0" r="3.5"/>
                <g id="zoomPlus">
                        <use xlink:href="#rim" fill="#404040">
                                <set attributeName="fill" to="#808080" begin="zoomplus.mouseover" end="zoomplus.mouseout"/>
                        </use>
                        <path d="M-4,0h8M0,-4v8" fill="none" stroke="white" stroke-width="1.5" pointer-events="none"/>
                </g>
                <g id="zoomMin">
                        <use xlink:href="#rim" fill="#404040">
                                <set attributeName="fill" to="#808080" begin="zoomminus.mouseover" end="zoomminus.mouseout"/>
                        </use>
                        <path d="M-4,0h8" fill="none" stroke="white" stroke-width="1.5" pointer-events="none"/>
                </g>
                <g id="dirArrow">
                        <path fill="none" stroke="white" stroke-width="1.5" d="M0,-3.0v7 M-2.5,-0.5L0,-3.0L2.5,-0.5"/>
                </g>
               <g id="resetDef">
                       <use xlink:href="#rim2" fill="#404040">
                               <set attributeName="fill" to="#808080" begin="reset.mouseover" end="reset.mouseout"/>
                       </use>
               </g>
        </defs>

<script type="text/javascript">
var viewWidth = 756;
var viewHeight = 137;
var sectionId = 'dynsection-9';
</script>
<script xlink:href="svgpan.js"/>
<svg id="graph" class="graph">
<g id="viewport">
<title>Ra::Engine::DrawPrimitives::Primitive</title>
<polygon fill="#ffffff" stroke="transparent" points="-4,4 -4,-133 752,-133 752,4 -4,4"/>
<!-- Node98 -->
<g id="node1" class="node">
<title>Node98</title>
<polygon fill="#bfbfbf" stroke="#000000" points="0,-73.5 0,-103.5 149,-103.5 149,-73.5 0,-73.5"/>
<text text-anchor="start" x="8" y="-91.5" font-family="Helvetica,sans-Serif" font-size="10.00" fill="#000000">Ra::Engine::DrawPrimitives</text>
<text text-anchor="middle" x="74.5" y="-80.5" font-family="Helvetica,sans-Serif" font-size="10.00" fill="#000000">::Primitive</text>
</g>
<!-- Node99 -->
<g id="node2" class="node">
<title>Node99</title>
<g id="a_node2"><a xlink:href="namespaceRa_1_1Engine_1_1EngineRenderTechniques.html#a5e831d5088144082e9bd3828323aa57a" target="_top" xlink:title="Ra::Engine::EngineRender\lTechniques::getDefaultTechnique">
<polygon fill="#ffffff" stroke="#000000" points="185,-98.5 185,-128.5 362,-128.5 362,-98.5 185,-98.5"/>
<text text-anchor="start" x="193" y="-116.5" font-family="Helvetica,sans-Serif" font-size="10.00" fill="#000000">Ra::Engine::EngineRender</text>
<text text-anchor="middle" x="273.5" y="-105.5" font-family="Helvetica,sans-Serif" font-size="10.00" fill="#000000">Techniques::getDefaultTechnique</text>
</a>
</g>
</g>
<!-- Node98&#45;&gt;Node99 -->
<g id="edge1" class="edge">
<title>Node98&#45;&gt;Node99</title>
<path fill="none" stroke="#191970" d="M149.1664,-97.8802C157.4897,-98.9258 166.0606,-100.0026 174.6253,-101.0786"/>
<polygon fill="#191970" stroke="#191970" points="174.3032,-104.5655 184.6615,-102.3394 175.1758,-97.6201 174.3032,-104.5655"/>
</g>
<!-- Node100 -->
<g id="node3" class="node">
<title>Node100</title>
<g id="a_node3"><a xlink:href="classRa_1_1Engine_1_1RenderTechnique.html#a006f925de56f6c0858b91c9182d40baf" target="_top" xlink:title="Ra::Engine::RenderTechnique\l::setParametersProvider">
<polygon fill="#ffffff" stroke="#000000" points="195,-49.5 195,-79.5 352,-79.5 352,-49.5 195,-49.5"/>
<text text-anchor="start" x="203" y="-67.5" font-family="Helvetica,sans-Serif" font-size="10.00" fill="#000000">Ra::Engine::RenderTechnique</text>
<text text-anchor="middle" x="273.5" y="-56.5" font-family="Helvetica,sans-Serif" font-size="10.00" fill="#000000">::setParametersProvider</text>
</a>
</g>
</g>
<!-- Node98&#45;&gt;Node100 -->
<g id="edge2" class="edge">
<title>Node98&#45;&gt;Node100</title>
<path fill="none" stroke="#191970" d="M149.1664,-79.495C160.7983,-78.0922 172.9139,-76.631 184.8203,-75.195"/>
<polygon fill="#191970" stroke="#191970" points="185.2483,-78.6689 194.7573,-73.9966 184.4101,-71.7192 185.2483,-78.6689"/>
</g>
<!-- Node101 -->
<g id="node4" class="node">
<title>Node101</title>
<g id="a_node4"><a xlink:href="classRa_1_1Core_1_1Utils_1_1Index.html#ac1a3e02d77abd15c2a307673f5b67fa1" target="_top" xlink:title="VALID. ">
<polygon fill="#ffffff" stroke="#000000" points="610,-98.5 610,-128.5 729,-128.5 729,-98.5 610,-98.5"/>
<text text-anchor="start" x="618" y="-116.5" font-family="Helvetica,sans-Serif" font-size="10.00" fill="#000000">Ra::Core::Utils::Index</text>
<text text-anchor="middle" x="669.5" y="-105.5" font-family="Helvetica,sans-Serif" font-size="10.00" fill="#000000">::isValid</text>
</a>
</g>
</g>
<!-- Node100&#45;&gt;Node101 -->
<g id="edge3" class="edge">
<title>Node100&#45;&gt;Node101</title>
<path fill="none" stroke="#191970" d="M341.4362,-79.5481C359.7311,-83.215 379.5617,-86.842 398,-89.5 466.3408,-99.3516 544.9821,-105.7699 599.9781,-109.4682"/>
<polygon fill="#191970" stroke="#191970" points="599.7553,-112.961 609.9641,-110.1273 600.2164,-105.9762 599.7553,-112.961"/>
</g>
<!-- Node102 -->
<g id="node5" class="node">
<title>Node102</title>
<g id="a_node5"><a xlink:href="classRa_1_1Engine_1_1RenderTechnique.html#ad1d5a9d900e46594224f5b8df142081f" target="_top" xlink:title="Ra::Engine::RenderTechnique\l::hasConfiguration">
<polygon fill="#ffffff" stroke="#000000" points="591,-.5 591,-30.5 748,-30.5 748,-.5 591,-.5"/>
<text text-anchor="start" x="599" y="-18.5" font-family="Helvetica,sans-Serif" font-size="10.00" fill="#000000">Ra::Engine::RenderTechnique</text>
<text text-anchor="middle" x="669.5" y="-7.5" font-family="Helvetica,sans-Serif" font-size="10.00" fill="#000000">::hasConfiguration</text>
</a>
</g>
</g>
<!-- Node100&#45;&gt;Node102 -->
<g id="edge4" class="edge">
<title>Node100&#45;&gt;Node102</title>
<path fill="none" stroke="#191970" d="M341.4362,-49.4519C359.7311,-45.785 379.5617,-42.158 398,-39.5 458.7191,-30.7471 527.5693,-24.7044 580.7427,-20.8717"/>
<polygon fill="#191970" stroke="#191970" points="581.0941,-24.3556 590.8219,-20.158 580.5997,-17.3731 581.0941,-24.3556"/>
</g>
<!-- Node103 -->
<g id="node6" class="node">
<title>Node103</title>
<g id="a_node6"><a xlink:href="classRa_1_1Engine_1_1RenderTechnique.html#a78ba61b1637743a35f058eeefa631f8a" target="_top" xlink:title="Ra::Engine::RenderTechnique\l::addPassProperties">
<polygon fill="#ffffff" stroke="#000000" points="398,-49.5 398,-79.5 555,-79.5 555,-49.5 398,-49.5"/>
<text text-anchor="start" x="406" y="-67.5" font-family="Helvetica,sans-Serif" font-size="10.00" fill="#000000">Ra::Engine::RenderTechnique</text>
<text text-anchor="middle" x="476.5" y="-56.5" font-family="Helvetica,sans-Serif" font-size="10.00" fill="#000000">::addPassProperties</text>
</a>
</g>
</g>
<!-- Node100&#45;&gt;Node103 -->
<g id="edge5" class="edge">
<title>Node100&#45;&gt;Node103</title>
<path fill="none" stroke="#191970" d="M352.2757,-64.5C363.8263,-64.5 375.7908,-64.5 387.5283,-64.5"/>
<polygon fill="#191970" stroke="#191970" points="387.7687,-68.0001 397.7686,-64.5 387.7686,-61.0001 387.7687,-68.0001"/>
</g>
<!-- Node103&#45;&gt;Node101 -->
<g id="edge6" class="edge">
<title>Node103&#45;&gt;Node101</title>
<path fill="none" stroke="#191970" d="M535.718,-79.5346C556.1887,-84.7318 579.3044,-90.6006 600.4912,-95.9796"/>
<polygon fill="#191970" stroke="#191970" points="599.8402,-99.4253 610.394,-98.4938 601.5628,-92.6406 599.8402,-99.4253"/>
</g>
<!-- Node103&#45;&gt;Node102 -->
<g id="edge7" class="edge">
<title>Node103&#45;&gt;Node102</title>
<path fill="none" stroke="#191970" d="M535.718,-49.4654C556.1887,-44.2682 579.3044,-38.3994 600.4912,-33.0204"/>
<polygon fill="#191970" stroke="#191970" points="601.5628,-36.3594 610.394,-30.5062 599.8402,-29.5747 601.5628,-36.3594"/>
</g>
<!-- Node104 -->
<g id="node7" class="node">
<title>Node104</title>
<g id="a_node7"><a xlink:href="classRa_1_1Engine_1_1RenderTechnique.html#a49da5c66a13007251db4e1511daf3852" target="_top" xlink:title="Ra::Engine::RenderTechnique\l::setDirty">
<polygon fill="#ffffff" stroke="#000000" points="591,-49.5 591,-79.5 748,-79.5 748,-49.5 591,-49.5"/>
<text text-anchor="start" x="599" y="-67.5" font-family="Helvetica,sans-Serif" font-size="10.00" fill="#000000">Ra::Engine::RenderTechnique</text>
<text text-anchor="middle" x="669.5" y="-56.5" font-family="Helvetica,sans-Serif" font-size="10.00" fill="#000000">::setDirty</text>
</a>
</g>
</g>
<!-- Node103&#45;&gt;Node104 -->
<g id="edge8" class="edge">
<title>Node103&#45;&gt;Node104</title>
<path fill="none" stroke="#191970" d="M555.0005,-64.5C563.4766,-64.5 572.1448,-64.5 580.7308,-64.5"/>
<polygon fill="#191970" stroke="#191970" points="580.756,-68.0001 590.7559,-64.5 580.7559,-61.0001 580.756,-68.0001"/>
</g>
</g>
</svg>
        <g id="navigator" transform="translate(0 0)" fill="#404254">
                <rect fill="#f2f5e9" fill-opacity="0.5" stroke="#606060" stroke-width=".5" x="0" y="0" width="60" height="60"/>
                <use id="zoomplus" xlink:href="#zoomPlus" x="17" y="9" onmousedown="handleZoom(evt,'in')"/>
                <use id="zoomminus" xlink:href="#zoomMin" x="42" y="9" onmousedown="handleZoom(evt,'out')"/>
                <use id="reset" xlink:href="#resetDef" x="30" y="36" onmousedown="handleReset()"/>
                <g id="arrowUp" xlink:href="#dirArrow" transform="translate(30 24)" onmousedown="handlePan(0,-1)">
                  <use xlink:href="#rim" fill="#404040">
                        <set attributeName="fill" to="#808080" begin="arrowUp.mouseover" end="arrowUp.mouseout"/>
                  </use>
                  <path fill="none" stroke="white" stroke-width="1.5" d="M0,-3.0v7 M-2.5,-0.5L0,-3.0L2.5,-0.5"/>
                </g>
                <g id="arrowRight" xlink:href="#dirArrow" transform="rotate(90) translate(36 -43)" onmousedown="handlePan(1,0)">
                  <use xlink:href="#rim" fill="#404040">
                        <set attributeName="fill" to="#808080" begin="arrowRight.mouseover" end="arrowRight.mouseout"/>
                  </use>
                  <path fill="none" stroke="white" stroke-width="1.5" d="M0,-3.0v7 M-2.5,-0.5L0,-3.0L2.5,-0.5"/>
                </g>
                <g id="arrowDown" xlink:href="#dirArrow" transform="rotate(180) translate(-30 -48)" onmousedown="handlePan(0,1)">
                  <use xlink:href="#rim" fill="#404040">
                        <set attributeName="fill" to="#808080" begin="arrowDown.mouseover" end="arrowDown.mouseout"/>
                  </use>
                  <path fill="none" stroke="white" stroke-width="1.5" d="M0,-3.0v7 M-2.5,-0.5L0,-3.0L2.5,-0.5"/>
                </g>
                <g id="arrowLeft" xlink:href="#dirArrow" transform="rotate(270) translate(-36 17)" onmousedown="handlePan(-1,0)">
                  <use xlink:href="#rim" fill="#404040">
                        <set attributeName="fill" to="#808080" begin="arrowLeft.mouseover" end="arrowLeft.mouseout"/>
                  </use>
                  <path fill="none" stroke="white" stroke-width="1.5" d="M0,-3.0v7 M-2.5,-0.5L0,-3.0L2.5,-0.5"/>
                </g>
        </g>
        <svg viewBox="0 0 15 15" width="100%" height="30px" preserveAspectRatio="xMaxYMin meet">
         <g id="arrow_out" transform="scale(0.3 0.3)">
          <a xlink:href="namespaceRa_1_1Engine_1_1DrawPrimitives_a70881604443264a7fceb751567eaa5b4_cgraph_org.svg" target="_base">
           <rect id="button" ry="5" rx="5" y="6" x="6" height="38" width="38"
                fill="#f2f5e9" fill-opacity="0.5" stroke="#606060" stroke-width="1.0"/>
           <path id="arrow"
             d="M 11.500037,31.436501 C 11.940474,20.09759 22.043105,11.32322 32.158766,21.979434 L 37.068811,17.246167 C 37.068811,17.246167 37.088388,32 37.088388,32 L 22.160133,31.978069 C 22.160133,31.978069 26.997745,27.140456 26.997745,27.140456 C 18.528582,18.264221 13.291696,25.230495 11.500037,31.436501 z"
             style="fill:#404040;"/>
          </a>
         </g>
        </svg>
</svg>
