<?xml version="1.0" encoding="UTF-8" standalone="no"?>
<!DOCTYPE svg PUBLIC "-//W3C//DTD SVG 1.1//EN"
 "http://www.w3.org/Graphics/SVG/1.1/DTD/svg11.dtd">
<!-- Generated by graphviz version 2.40.1 (20161225.0304)
 -->
<!-- Title: Ra::Engine::DrawPrimitives::Triangle Pages: 1 -->
<svg width="1057pt" height="195pt"
 viewBox="0.00 0.00 1057.00 195.00" xmlns="http://www.w3.org/2000/svg" xmlns:xlink="http://www.w3.org/1999/xlink">
<g id="graph0" class="graph" transform="scale(1 1) rotate(0) translate(4 191)">
<title>Ra::Engine::DrawPrimitives::Triangle</title>
<polygon fill="#ffffff" stroke="transparent" points="-4,4 -4,-191 1053,-191 1053,4 -4,4"/>
<!-- Node134 -->
<g id="node1" class="node">
<title>Node134</title>
<polygon fill="#bfbfbf" stroke="#000000" points="0,-99.5 0,-129.5 149,-129.5 149,-99.5 0,-99.5"/>
<text text-anchor="start" x="8" y="-117.5" font-family="Helvetica,sans-Serif" font-size="10.00" fill="#000000">Ra::Engine::DrawPrimitives</text>
<text text-anchor="middle" x="74.5" y="-106.5" font-family="Helvetica,sans-Serif" font-size="10.00" fill="#000000">::Triangle</text>
</g>
<!-- Node135 -->
<g id="node2" class="node">
<title>Node135</title>
<g id="a_node2"><a xlink:href="classRa_1_1Core_1_1Geometry_1_1AttribArrayGeometry.html#a887411177386edbcdc35d0c6bf78a83a" target="_top" xlink:title="Set vertices. ">
<polygon fill="#ffffff" stroke="#000000" points="185,-143 185,-184 310,-184 310,-143 185,-143"/>
<text text-anchor="start" x="193" y="-172" font-family="Helvetica,sans-Serif" font-size="10.00" fill="#000000">Ra::Core::Geometry</text>
<text text-anchor="start" x="193" y="-161" font-family="Helvetica,sans-Serif" font-size="10.00" fill="#000000">::AttribArrayGeometry</text>
<text text-anchor="middle" x="247.5" y="-150" font-family="Helvetica,sans-Serif" font-size="10.00" fill="#000000">::setVertices</text>
</a>
</g>
</g>
<!-- Node134&#45;&gt;Node135 -->
<g id="edge1" class="edge">
<title>Node134&#45;&gt;Node135</title>
<path fill="none" stroke="#191970" d="M127.8173,-129.6014C142.7807,-133.8396 159.3056,-138.5201 175.176,-143.0152"/>
<polygon fill="#191970" stroke="#191970" points="174.3779,-146.4267 184.9532,-145.7844 176.2856,-139.6917 174.3779,-146.4267"/>
</g>
<!-- Node137 -->
<g id="node4" class="node">
<title>Node137</title>
<g id="a_node4"><a xlink:href="classRa_1_1Core_1_1Geometry_1_1AttribArrayGeometry.html#acabe05880d71a8dc4406964c258fff5a" target="_top" xlink:title="Access the vertices positions. ">
<polygon fill="#ffffff" stroke="#000000" points="364,-96 364,-137 489,-137 489,-96 364,-96"/>
<text text-anchor="start" x="372" y="-125" font-family="Helvetica,sans-Serif" font-size="10.00" fill="#000000">Ra::Core::Geometry</text>
<text text-anchor="start" x="372" y="-114" font-family="Helvetica,sans-Serif" font-size="10.00" fill="#000000">::AttribArrayGeometry</text>
<text text-anchor="middle" x="426.5" y="-103" font-family="Helvetica,sans-Serif" font-size="10.00" fill="#000000">::vertices</text>
</a>
</g>
</g>
<!-- Node134&#45;&gt;Node137 -->
<g id="edge12" class="edge">
<title>Node134&#45;&gt;Node137</title>
<path fill="none" stroke="#191970" d="M149.1501,-114.9241C209.4344,-115.2667 293.7837,-115.7459 353.5967,-116.0858"/>
<polygon fill="#191970" stroke="#191970" points="353.7019,-119.5863 363.7217,-116.1433 353.7417,-112.5864 353.7019,-119.5863"/>
</g>
<!-- Node139 -->
<g id="node6" class="node">
<title>Node139</title>
<g id="a_node6"><a xlink:href="classRa_1_1Core_1_1Geometry_1_1AttribArrayGeometry.html#ae1956b0396dadd84f55a12f2160e5671" target="_top" xlink:title="Ra::Core::Geometry\l::AttribArrayGeometry\l::addAttrib">
<polygon fill="#ffffff" stroke="#000000" points="185,-44 185,-85 310,-85 310,-44 185,-44"/>
<text text-anchor="start" x="193" y="-73" font-family="Helvetica,sans-Serif" font-size="10.00" fill="#000000">Ra::Core::Geometry</text>
<text text-anchor="start" x="193" y="-62" font-family="Helvetica,sans-Serif" font-size="10.00" fill="#000000">::AttribArrayGeometry</text>
<text text-anchor="middle" x="247.5" y="-51" font-family="Helvetica,sans-Serif" font-size="10.00" fill="#000000">::addAttrib</text>
</a>
</g>
</g>
<!-- Node134&#45;&gt;Node139 -->
<g id="edge5" class="edge">
<title>Node134&#45;&gt;Node139</title>
<path fill="none" stroke="#191970" d="M126.4057,-99.4984C141.6537,-95.0914 158.6187,-90.1882 174.9081,-85.4803"/>
<polygon fill="#191970" stroke="#191970" points="176.3068,-88.7194 184.9418,-82.5804 174.3631,-81.9946 176.3068,-88.7194"/>
</g>
<!-- Node136 -->
<g id="node3" class="node">
<title>Node136</title>
<g id="a_node3"><a xlink:href="classRa_1_1Core_1_1Utils_1_1AttribManager.html#a056b7697cfbedd6b20dde6ce7955094e" target="_top" xlink:title="Ra::Core::Utils::AttribManager\l::setAttrib">
<polygon fill="#ffffff" stroke="#000000" points="346,-156.5 346,-186.5 507,-186.5 507,-156.5 346,-156.5"/>
<text text-anchor="start" x="354" y="-174.5" font-family="Helvetica,sans-Serif" font-size="10.00" fill="#000000">Ra::Core::Utils::AttribManager</text>
<text text-anchor="middle" x="426.5" y="-163.5" font-family="Helvetica,sans-Serif" font-size="10.00" fill="#000000">::setAttrib</text>
</a>
</g>
</g>
<!-- Node135&#45;&gt;Node136 -->
<g id="edge2" class="edge">
<title>Node135&#45;&gt;Node136</title>
<path fill="none" stroke="#191970" d="M310.1055,-166.298C318.4387,-166.6704 327.1148,-167.0582 335.8059,-167.4466"/>
<polygon fill="#191970" stroke="#191970" points="335.8494,-170.952 345.9957,-167.902 336.162,-163.959 335.8494,-170.952"/>
</g>
<!-- Node135&#45;&gt;Node137 -->
<g id="edge3" class="edge">
<title>Node135&#45;&gt;Node137</title>
<path fill="none" stroke="#191970" d="M310.1055,-147.0617C324.2766,-143.3408 339.4395,-139.3595 353.9814,-135.5412"/>
<polygon fill="#191970" stroke="#191970" points="355.1466,-138.854 363.9298,-132.929 353.3688,-132.0835 355.1466,-138.854"/>
</g>
<!-- Node138 -->
<g id="node5" class="node">
<title>Node138</title>
<g id="a_node5"><a xlink:href="classRa_1_1Core_1_1Utils_1_1AttribManager.html#ae0cb7281ec72606a5392602b4ea50d2c" target="_top" xlink:title="Ra::Core::Utils::AttribManager\l::getAttrib">
<polygon fill="#ffffff" stroke="#000000" points="543,-101.5 543,-131.5 704,-131.5 704,-101.5 543,-101.5"/>
<text text-anchor="start" x="551" y="-119.5" font-family="Helvetica,sans-Serif" font-size="10.00" fill="#000000">Ra::Core::Utils::AttribManager</text>
<text text-anchor="middle" x="623.5" y="-108.5" font-family="Helvetica,sans-Serif" font-size="10.00" fill="#000000">::getAttrib</text>
</a>
</g>
</g>
<!-- Node137&#45;&gt;Node138 -->
<g id="edge4" class="edge">
<title>Node137&#45;&gt;Node138</title>
<path fill="none" stroke="#191970" d="M489.1027,-116.5C502.9253,-116.5 517.8405,-116.5 532.5309,-116.5"/>
<polygon fill="#191970" stroke="#191970" points="532.6492,-120.0001 542.6492,-116.5 532.6491,-113.0001 532.6492,-120.0001"/>
</g>
<!-- Node140 -->
<g id="node7" class="node">
<title>Node140</title>
<g id="a_node7"><a xlink:href="classRa_1_1Core_1_1Utils_1_1AttribManager.html#ac2d3cdc360ffe1904a15ff8504de95b8" target="_top" xlink:title="Ra::Core::Utils::AttribManager\l::addAttrib">
<polygon fill="#ffffff" stroke="#000000" points="346,-46.5 346,-76.5 507,-76.5 507,-46.5 346,-46.5"/>
<text text-anchor="start" x="354" y="-64.5" font-family="Helvetica,sans-Serif" font-size="10.00" fill="#000000">Ra::Core::Utils::AttribManager</text>
<text text-anchor="middle" x="426.5" y="-53.5" font-family="Helvetica,sans-Serif" font-size="10.00" fill="#000000">::addAttrib</text>
</a>
</g>
</g>
<!-- Node139&#45;&gt;Node140 -->
<g id="edge6" class="edge">
<title>Node139&#45;&gt;Node140</title>
<path fill="none" stroke="#191970" d="M310.1055,-63.4507C318.4387,-63.3111 327.1148,-63.1657 335.8059,-63.02"/>
<polygon fill="#191970" stroke="#191970" points="336.0558,-66.5164 345.9957,-62.8492 335.9385,-59.5174 336.0558,-66.5164"/>
</g>
<!-- Node141 -->
<g id="node8" class="node">
<title>Node141</title>
<g id="a_node8"><a xlink:href="classRa_1_1Core_1_1Utils_1_1AttribManager.html#ae61e2c70f407d49d854ee4b98a39121f" target="_top" xlink:title="Return true if h correspond to an existing attribute in *this. ">
<polygon fill="#ffffff" stroke="#000000" points="543,-49.5 543,-79.5 704,-79.5 704,-49.5 543,-49.5"/>
<text text-anchor="start" x="551" y="-67.5" font-family="Helvetica,sans-Serif" font-size="10.00" fill="#000000">Ra::Core::Utils::AttribManager</text>
<text text-anchor="middle" x="623.5" y="-56.5" font-family="Helvetica,sans-Serif" font-size="10.00" fill="#000000">::isValid</text>
</a>
</g>
</g>
<!-- Node140&#45;&gt;Node141 -->
<g id="edge7" class="edge">
<title>Node140&#45;&gt;Node141</title>
<path fill="none" stroke="#191970" d="M507.1959,-62.7289C515.6733,-62.858 524.3327,-62.9898 532.9115,-63.1205"/>
<polygon fill="#191970" stroke="#191970" points="532.8775,-66.6203 542.9296,-63.273 532.9841,-59.6211 532.8775,-66.6203"/>
</g>
<!-- Node145 -->
<g id="node12" class="node">
<title>Node145</title>
<g id="a_node12"><a xlink:href="classRa_1_1Core_1_1Utils_1_1Observable.html#a7e5fe761726d56a51f95192eb6555f8f" target="_top" xlink:title="Notify (i.e. call) each attached observer with argument p. ">
<polygon fill="#ffffff" stroke="#000000" points="544,-.5 544,-30.5 703,-30.5 703,-.5 544,-.5"/>
<text text-anchor="start" x="552" y="-18.5" font-family="Helvetica,sans-Serif" font-size="10.00" fill="#000000">Ra::Core::Utils::Observable</text>
<text text-anchor="middle" x="623.5" y="-7.5" font-family="Helvetica,sans-Serif" font-size="10.00" fill="#000000">&lt; const std::string &amp;&gt;::notify</text>
</a>
</g>
</g>
<!-- Node140&#45;&gt;Node145 -->
<g id="edge11" class="edge">
<title>Node140&#45;&gt;Node145</title>
<path fill="none" stroke="#191970" d="M491.0052,-46.4379C509.6388,-42.0869 530.1225,-37.3039 549.2961,-32.8268"/>
<polygon fill="#191970" stroke="#191970" points="550.2444,-36.1996 559.1865,-30.5174 548.6526,-29.383 550.2444,-36.1996"/>
</g>
<!-- Node142 -->
<g id="node9" class="node">
<title>Node142</title>
<g id="a_node9"><a xlink:href="classRa_1_1Core_1_1Utils_1_1AttribHandle.html#a17afbd6718234d480c05258369bdfde9" target="_top" xlink:title="Ra::Core::Utils::AttribHandle\l::attribName">
<polygon fill="#ffffff" stroke="#000000" points="740,-73.5 740,-103.5 894,-103.5 894,-73.5 740,-73.5"/>
<text text-anchor="start" x="748" y="-91.5" font-family="Helvetica,sans-Serif" font-size="10.00" fill="#000000">Ra::Core::Utils::AttribHandle</text>
<text text-anchor="middle" x="817" y="-80.5" font-family="Helvetica,sans-Serif" font-size="10.00" fill="#000000">::attribName</text>
</a>
</g>
</g>
<!-- Node141&#45;&gt;Node142 -->
<g id="edge8" class="edge">
<title>Node141&#45;&gt;Node142</title>
<path fill="none" stroke="#191970" d="M704.1603,-74.5044C712.6571,-75.5582 721.3244,-76.6333 729.8898,-77.6956"/>
<polygon fill="#191970" stroke="#191970" points="729.527,-81.1774 739.8818,-78.935 730.3887,-74.2306 729.527,-81.1774"/>
</g>
<!-- Node143 -->
<g id="node10" class="node">
<title>Node143</title>
<g id="a_node10"><a xlink:href="classRa_1_1Core_1_1Utils_1_1Index.html#a771f93efd49538950e3cb9e57e46fbaf" target="_top" xlink:title="Ra::Core::Utils::Index\l::Invalid">
<polygon fill="#ffffff" stroke="#000000" points="757.5,-24.5 757.5,-54.5 876.5,-54.5 876.5,-24.5 757.5,-24.5"/>
<text text-anchor="start" x="765.5" y="-42.5" font-family="Helvetica,sans-Serif" font-size="10.00" fill="#000000">Ra::Core::Utils::Index</text>
<text text-anchor="middle" x="817" y="-31.5" font-family="Helvetica,sans-Serif" font-size="10.00" fill="#000000">::Invalid</text>
</a>
</g>
</g>
<!-- Node141&#45;&gt;Node143 -->
<g id="edge9" class="edge">
<title>Node141&#45;&gt;Node143</title>
<path fill="none" stroke="#191970" d="M704.1603,-54.0788C718.5129,-52.2244 733.3516,-50.3073 747.3648,-48.4968"/>
<polygon fill="#191970" stroke="#191970" points="747.9348,-51.9523 757.4039,-47.1998 747.0378,-45.01 747.9348,-51.9523"/>
</g>
<!-- Node144 -->
<g id="node11" class="node">
<title>Node144</title>
<g id="a_node11"><a xlink:href="classRa_1_1Core_1_1Utils_1_1Index.html#ab3376097b792b1ac2068c6da1cb6c8e4" target="_top" xlink:title="CONSTRUCTOR. ">
<polygon fill="#ffffff" stroke="#000000" points="930,-24.5 930,-54.5 1049,-54.5 1049,-24.5 930,-24.5"/>
<text text-anchor="start" x="938" y="-42.5" font-family="Helvetica,sans-Serif" font-size="10.00" fill="#000000">Ra::Core::Utils::Index</text>
<text text-anchor="middle" x="989.5" y="-31.5" font-family="Helvetica,sans-Serif" font-size="10.00" fill="#000000">::Index</text>
</a>
</g>
</g>
<!-- Node143&#45;&gt;Node144 -->
<g id="edge10" class="edge">
<title>Node143&#45;&gt;Node144</title>
<path fill="none" stroke="#191970" d="M876.848,-39.5C890.6294,-39.5 905.406,-39.5 919.5728,-39.5"/>
<polygon fill="#191970" stroke="#191970" points="919.7578,-43.0001 929.7578,-39.5 919.7577,-36.0001 919.7578,-43.0001"/>
</g>
</g>
</svg>
