<?xml version="1.0" encoding="UTF-8" standalone="no"?>
<!DOCTYPE svg PUBLIC "-//W3C//DTD SVG 1.1//EN"
 "http://www.w3.org/Graphics/SVG/1.1/DTD/svg11.dtd">
<!-- Generated by graphviz version 2.40.1 (20161225.0304)
 -->
<!-- Title: Ra::Core::Geometry::makeTube Pages: 1 -->
<!--zoomable 307 -->
<svg id="main" version="1.1" xmlns="http://www.w3.org/2000/svg" xmlns:xlink="http://www.w3.org/1999/xlink" xml:space="preserve" onload="init(evt)">
<style type="text/css"><![CDATA[
.edge:hover path { stroke: red; }
.edge:hover polygon { stroke: red; fill: red; }
]]></style>
<script type="text/javascript"><![CDATA[
var edges = document.getElementsByTagName('g');
if (edges && edges.length) {
  for (var i=0;i<edges.length;i++) {
    if (edges[i].id.substr(0,4)=='edge') {
      edges[i].setAttribute('class','edge');
    }
  }
}
]]></script>
        <defs>
                <circle id="rim" cx="0" cy="0" r="7"/>
                <circle id="rim2" cx="0" cy="0" r="3.5"/>
                <g id="zoomPlus">
                        <use xlink:href="#rim" fill="#404040">
                                <set attributeName="fill" to="#808080" begin="zoomplus.mouseover" end="zoomplus.mouseout"/>
                        </use>
                        <path d="M-4,0h8M0,-4v8" fill="none" stroke="white" stroke-width="1.5" pointer-events="none"/>
                </g>
                <g id="zoomMin">
                        <use xlink:href="#rim" fill="#404040">
                                <set attributeName="fill" to="#808080" begin="zoomminus.mouseover" end="zoomminus.mouseout"/>
                        </use>
                        <path d="M-4,0h8" fill="none" stroke="white" stroke-width="1.5" pointer-events="none"/>
                </g>
                <g id="dirArrow">
                        <path fill="none" stroke="white" stroke-width="1.5" d="M0,-3.0v7 M-2.5,-0.5L0,-3.0L2.5,-0.5"/>
                </g>
               <g id="resetDef">
                       <use xlink:href="#rim2" fill="#404040">
                               <set attributeName="fill" to="#808080" begin="reset.mouseover" end="reset.mouseout"/>
                       </use>
               </g>
        </defs>

<script type="text/javascript">
var viewWidth = 754;
var viewHeight = 307;
var sectionId = 'dynsection-28';
</script>
<script xlink:href="svgpan.js"/>
<svg id="graph" class="graph">
<g id="viewport">
<title>Ra::Core::Geometry::makeTube</title>
<polygon fill="#ffffff" stroke="transparent" points="-4,4 -4,-303 750,-303 750,4 -4,4"/>
<!-- Node198 -->
<g id="node1" class="node">
<title>Node198</title>
<polygon fill="#bfbfbf" stroke="#000000" points="0,-145.5 0,-175.5 113,-175.5 113,-145.5 0,-145.5"/>
<text text-anchor="start" x="8" y="-163.5" font-family="Helvetica,sans-Serif" font-size="10.00" fill="#000000">Ra::Core::Geometry</text>
<text text-anchor="middle" x="56.5" y="-152.5" font-family="Helvetica,sans-Serif" font-size="10.00" fill="#000000">::makeTube</text>
</g>
<!-- Node199 -->
<g id="node2" class="node">
<title>Node199</title>
<g id="a_node2"><a xlink:href="namespaceRa_1_1Core_1_1Math.html#a5f25a31a29b0688e349dc35a353b9766" target="_top" xlink:title="Ra::Core::Math::getOrthogonal\lVectors">
<polygon fill="#ffffff" stroke="#000000" points="168.5,-268.5 168.5,-298.5 332.5,-298.5 332.5,-268.5 168.5,-268.5"/>
<text text-anchor="start" x="176.5" y="-286.5" font-family="Helvetica,sans-Serif" font-size="10.00" fill="#000000">Ra::Core::Math::getOrthogonal</text>
<text text-anchor="middle" x="250.5" y="-275.5" font-family="Helvetica,sans-Serif" font-size="10.00" fill="#000000">Vectors</text>
</a>
</g>
</g>
<!-- Node198&#45;&gt;Node199 -->
<g id="edge1" class="edge">
<title>Node198&#45;&gt;Node199</title>
<path fill="none" stroke="#191970" d="M66.4978,-175.6747C81.6688,-197.4556 112.62,-237.2878 149,-258.5 152.8521,-260.746 156.8997,-262.7912 161.0699,-264.6535"/>
<polygon fill="#191970" stroke="#191970" points="159.7853,-267.9094 170.3666,-268.4448 162.4287,-261.4277 159.7853,-267.9094"/>
</g>
<!-- Node202 -->
<g id="node5" class="node">
<title>Node202</title>
<g id="a_node5"><a xlink:href="namespaceRa_1_1Core_1_1Math.html#a4f441ac6a56092d52849a4f48e274aa8" target="_top" xlink:title="Ra::Core::Math::cos">
<polygon fill="#ffffff" stroke="#000000" points="195.5,-230 195.5,-249 305.5,-249 305.5,-230 195.5,-230"/>
<text text-anchor="middle" x="250.5" y="-237" font-family="Helvetica,sans-Serif" font-size="10.00" fill="#000000">Ra::Core::Math::cos</text>
</a>
</g>
</g>
<!-- Node198&#45;&gt;Node202 -->
<g id="edge4" class="edge">
<title>Node198&#45;&gt;Node202</title>
<path fill="none" stroke="#191970" d="M75.1234,-175.7401C92.9887,-189.5615 121.2719,-209.4174 149,-220.5 160.4937,-225.0939 173.1706,-228.5919 185.5564,-231.2509"/>
<polygon fill="#191970" stroke="#191970" points="184.9084,-234.6905 195.399,-233.2084 186.2739,-227.825 184.9084,-234.6905"/>
</g>
<!-- Node203 -->
<g id="node6" class="node">
<title>Node203</title>
<g id="a_node6"><a xlink:href="classRa_1_1Core_1_1Geometry_1_1AttribArrayGeometry.html#a887411177386edbcdc35d0c6bf78a83a" target="_top" xlink:title="Set vertices. ">
<polygon fill="#ffffff" stroke="#000000" points="188,-110 188,-151 313,-151 313,-110 188,-110"/>
<text text-anchor="start" x="196" y="-139" font-family="Helvetica,sans-Serif" font-size="10.00" fill="#000000">Ra::Core::Geometry</text>
<text text-anchor="start" x="196" y="-128" font-family="Helvetica,sans-Serif" font-size="10.00" fill="#000000">::AttribArrayGeometry</text>
<text text-anchor="middle" x="250.5" y="-117" font-family="Helvetica,sans-Serif" font-size="10.00" fill="#000000">::setVertices</text>
</a>
</g>
</g>
<!-- Node198&#45;&gt;Node203 -->
<g id="edge5" class="edge">
<title>Node198&#45;&gt;Node203</title>
<path fill="none" stroke="#191970" d="M113.1343,-151.7421C133.3131,-148.6217 156.3283,-145.0626 177.6752,-141.7616"/>
<polygon fill="#191970" stroke="#191970" points="178.3263,-145.2026 187.6739,-140.2154 177.2565,-138.2848 178.3263,-145.2026"/>
</g>
<!-- Node207 -->
<g id="node10" class="node">
<title>Node207</title>
<g id="a_node10"><a xlink:href="classRa_1_1Core_1_1Geometry_1_1AttribArrayGeometry.html#a646faabae9b936589fe03d8a9d2002e9" target="_top" xlink:title="Set normals. ">
<polygon fill="#ffffff" stroke="#000000" points="188,-170 188,-211 313,-211 313,-170 188,-170"/>
<text text-anchor="start" x="196" y="-199" font-family="Helvetica,sans-Serif" font-size="10.00" fill="#000000">Ra::Core::Geometry</text>
<text text-anchor="start" x="196" y="-188" font-family="Helvetica,sans-Serif" font-size="10.00" fill="#000000">::AttribArrayGeometry</text>
<text text-anchor="middle" x="250.5" y="-177" font-family="Helvetica,sans-Serif" font-size="10.00" fill="#000000">::setNormals</text>
</a>
</g>
</g>
<!-- Node198&#45;&gt;Node207 -->
<g id="edge9" class="edge">
<title>Node198&#45;&gt;Node207</title>
<path fill="none" stroke="#191970" d="M113.1343,-169.2579C133.3131,-172.3783 156.3283,-175.9374 177.6752,-179.2384"/>
<polygon fill="#191970" stroke="#191970" points="177.2565,-182.7152 187.6739,-180.7846 178.3263,-175.7974 177.2565,-182.7152"/>
</g>
<!-- Node209 -->
<g id="node12" class="node">
<title>Node209</title>
<g id="a_node12"><a xlink:href="classRa_1_1Core_1_1Geometry_1_1AttribArrayGeometry.html#a3a3a1458f93f23c7c8663bc3d52f7841" target="_top" xlink:title="Ra::Core::Geometry\l::AttribArrayGeometry\l::colorize">
<polygon fill="#ffffff" stroke="#000000" points="188,-50 188,-91 313,-91 313,-50 188,-50"/>
<text text-anchor="start" x="196" y="-79" font-family="Helvetica,sans-Serif" font-size="10.00" fill="#000000">Ra::Core::Geometry</text>
<text text-anchor="start" x="196" y="-68" font-family="Helvetica,sans-Serif" font-size="10.00" fill="#000000">::AttribArrayGeometry</text>
<text text-anchor="middle" x="250.5" y="-57" font-family="Helvetica,sans-Serif" font-size="10.00" fill="#000000">::colorize</text>
</a>
</g>
</g>
<!-- Node198&#45;&gt;Node209 -->
<g id="edge13" class="edge">
<title>Node198&#45;&gt;Node209</title>
<path fill="none" stroke="#191970" d="M76.0992,-145.3853C94.1882,-132.035 122.2228,-112.8261 149,-100.5 158.2338,-96.2495 168.2166,-92.4351 178.1935,-89.0668"/>
<polygon fill="#191970" stroke="#191970" points="179.2993,-92.3877 187.7326,-85.9744 177.1406,-85.7289 179.2993,-92.3877"/>
</g>
<!-- Node211 -->
<g id="node14" class="node">
<title>Node211</title>
<g id="a_node14"><a xlink:href="classRa_1_1Core_1_1Geometry_1_1IndexedGeometry.html#a927f636cf0698e637cc23e2f7f012a48" target="_top" xlink:title="Ra::Core::Geometry\l::IndexedGeometry::checkConsistency">
<polygon fill="#ffffff" stroke="#000000" points="149,-.5 149,-30.5 352,-30.5 352,-.5 149,-.5"/>
<text text-anchor="start" x="157" y="-18.5" font-family="Helvetica,sans-Serif" font-size="10.00" fill="#000000">Ra::Core::Geometry</text>
<text text-anchor="middle" x="250.5" y="-7.5" font-family="Helvetica,sans-Serif" font-size="10.00" fill="#000000">::IndexedGeometry::checkConsistency</text>
</a>
</g>
</g>
<!-- Node198&#45;&gt;Node211 -->
<g id="edge17" class="edge">
<title>Node198&#45;&gt;Node211</title>
<path fill="none" stroke="#191970" d="M63.8439,-145.3148C77.1073,-119.5657 107.5754,-67.5098 149,-40.5 152.1497,-38.4463 155.4544,-36.5613 158.8684,-34.8311"/>
<polygon fill="#191970" stroke="#191970" points="160.4859,-37.9402 168.1293,-30.6033 157.5788,-31.5724 160.4859,-37.9402"/>
</g>
<!-- Node200 -->
<g id="node3" class="node">
<title>Node200</title>
<g id="a_node3"><a xlink:href="namespaceRa_1_1Core_1_1Math.html#a90f0fe9079f5bb86c721ea4b61738470" target="_top" xlink:title="Returns the sign of any numeric type as { &#45;1, 0, 1}. ">
<polygon fill="#ffffff" stroke="#000000" points="411.5,-274 411.5,-293 525.5,-293 525.5,-274 411.5,-274"/>
<text text-anchor="middle" x="468.5" y="-281" font-family="Helvetica,sans-Serif" font-size="10.00" fill="#000000">Ra::Core::Math::sign</text>
</a>
</g>
</g>
<!-- Node199&#45;&gt;Node200 -->
<g id="edge2" class="edge">
<title>Node199&#45;&gt;Node200</title>
<path fill="none" stroke="#191970" d="M332.6058,-283.5C355.2161,-283.5 379.4731,-283.5 401.145,-283.5"/>
<polygon fill="#191970" stroke="#191970" points="401.2303,-287.0001 411.2303,-283.5 401.2303,-280.0001 401.2303,-287.0001"/>
</g>
<!-- Node201 -->
<g id="node4" class="node">
<title>Node201</title>
<g id="a_node4"><a xlink:href="namespaceRa_1_1Core_1_1Math.html#a1e6a5327cb1c73b29e0c6539576d02b0" target="_top" xlink:title="Ra::Core::Math::signum">
<polygon fill="#ffffff" stroke="#000000" points="600.5,-274 600.5,-293 730.5,-293 730.5,-274 600.5,-274"/>
<text text-anchor="middle" x="665.5" y="-281" font-family="Helvetica,sans-Serif" font-size="10.00" fill="#000000">Ra::Core::Math::signum</text>
</a>
</g>
</g>
<!-- Node200&#45;&gt;Node201 -->
<g id="edge3" class="edge">
<title>Node200&#45;&gt;Node201</title>
<path fill="none" stroke="#191970" d="M525.7452,-283.5C545.9479,-283.5 568.9767,-283.5 590.431,-283.5"/>
<polygon fill="#191970" stroke="#191970" points="590.4884,-287.0001 600.4884,-283.5 590.4883,-280.0001 590.4884,-287.0001"/>
</g>
<!-- Node204 -->
<g id="node7" class="node">
<title>Node204</title>
<g id="a_node7"><a xlink:href="classRa_1_1Core_1_1Utils_1_1AttribManager.html#a056b7697cfbedd6b20dde6ce7955094e" target="_top" xlink:title="Ra::Core::Utils::AttribManager\l::setAttrib">
<polygon fill="#ffffff" stroke="#000000" points="388,-142.5 388,-172.5 549,-172.5 549,-142.5 388,-142.5"/>
<text text-anchor="start" x="396" y="-160.5" font-family="Helvetica,sans-Serif" font-size="10.00" fill="#000000">Ra::Core::Utils::AttribManager</text>
<text text-anchor="middle" x="468.5" y="-149.5" font-family="Helvetica,sans-Serif" font-size="10.00" fill="#000000">::setAttrib</text>
</a>
</g>
</g>
<!-- Node203&#45;&gt;Node204 -->
<g id="edge6" class="edge">
<title>Node203&#45;&gt;Node204</title>
<path fill="none" stroke="#191970" d="M313.2622,-138.2733C333.3508,-140.7613 356.0115,-143.5679 377.6851,-146.2523"/>
<polygon fill="#191970" stroke="#191970" points="377.5396,-149.7609 387.894,-147.5167 378.4001,-142.814 377.5396,-149.7609"/>
</g>
<!-- Node205 -->
<g id="node8" class="node">
<title>Node205</title>
<g id="a_node8"><a xlink:href="classRa_1_1Core_1_1Geometry_1_1AttribArrayGeometry.html#acabe05880d71a8dc4406964c258fff5a" target="_top" xlink:title="Access the vertices positions. ">
<polygon fill="#ffffff" stroke="#000000" points="406,-82 406,-123 531,-123 531,-82 406,-82"/>
<text text-anchor="start" x="414" y="-111" font-family="Helvetica,sans-Serif" font-size="10.00" fill="#000000">Ra::Core::Geometry</text>
<text text-anchor="start" x="414" y="-100" font-family="Helvetica,sans-Serif" font-size="10.00" fill="#000000">::AttribArrayGeometry</text>
<text text-anchor="middle" x="468.5" y="-89" font-family="Helvetica,sans-Serif" font-size="10.00" fill="#000000">::vertices</text>
</a>
</g>
</g>
<!-- Node203&#45;&gt;Node205 -->
<g id="edge7" class="edge">
<title>Node203&#45;&gt;Node205</title>
<path fill="none" stroke="#191970" d="M313.2622,-122.4388C339.0268,-119.1296 369.0223,-115.2769 395.7399,-111.8453"/>
<polygon fill="#191970" stroke="#191970" points="396.3309,-115.2983 405.8035,-110.5528 395.4391,-108.3553 396.3309,-115.2983"/>
</g>
<!-- Node206 -->
<g id="node9" class="node">
<title>Node206</title>
<g id="a_node9"><a xlink:href="classRa_1_1Core_1_1Utils_1_1AttribManager.html#ae0cb7281ec72606a5392602b4ea50d2c" target="_top" xlink:title="Ra::Core::Utils::AttribManager\l::getAttrib">
<polygon fill="#ffffff" stroke="#000000" points="585,-87.5 585,-117.5 746,-117.5 746,-87.5 585,-87.5"/>
<text text-anchor="start" x="593" y="-105.5" font-family="Helvetica,sans-Serif" font-size="10.00" fill="#000000">Ra::Core::Utils::AttribManager</text>
<text text-anchor="middle" x="665.5" y="-94.5" font-family="Helvetica,sans-Serif" font-size="10.00" fill="#000000">::getAttrib</text>
</a>
</g>
</g>
<!-- Node205&#45;&gt;Node206 -->
<g id="edge8" class="edge">
<title>Node205&#45;&gt;Node206</title>
<path fill="none" stroke="#191970" d="M531.1027,-102.5C544.9253,-102.5 559.8405,-102.5 574.5309,-102.5"/>
<polygon fill="#191970" stroke="#191970" points="574.6492,-106.0001 584.6492,-102.5 574.6491,-99.0001 574.6492,-106.0001"/>
</g>
<!-- Node207&#45;&gt;Node204 -->
<g id="edge10" class="edge">
<title>Node207&#45;&gt;Node204</title>
<path fill="none" stroke="#191970" d="M313.2622,-180.9993C333.4417,-177.9446 356.2166,-174.497 377.9792,-171.2027"/>
<polygon fill="#191970" stroke="#191970" points="378.5306,-174.6592 387.894,-169.7018 377.4828,-167.738 378.5306,-174.6592"/>
</g>
<!-- Node208 -->
<g id="node11" class="node">
<title>Node208</title>
<g id="a_node11"><a xlink:href="classRa_1_1Core_1_1Geometry_1_1AttribArrayGeometry.html#abfd2320cb73c0cb14805c234af594b5e" target="_top" xlink:title="Access the vertices normals. ">
<polygon fill="#ffffff" stroke="#000000" points="406,-192 406,-233 531,-233 531,-192 406,-192"/>
<text text-anchor="start" x="414" y="-221" font-family="Helvetica,sans-Serif" font-size="10.00" fill="#000000">Ra::Core::Geometry</text>
<text text-anchor="start" x="414" y="-210" font-family="Helvetica,sans-Serif" font-size="10.00" fill="#000000">::AttribArrayGeometry</text>
<text text-anchor="middle" x="468.5" y="-199" font-family="Helvetica,sans-Serif" font-size="10.00" fill="#000000">::normals</text>
</a>
</g>
</g>
<!-- Node207&#45;&gt;Node208 -->
<g id="edge11" class="edge">
<title>Node207&#45;&gt;Node208</title>
<path fill="none" stroke="#191970" d="M313.2622,-196.8338C339.0268,-199.4339 369.0223,-202.461 395.7399,-205.1572"/>
<polygon fill="#191970" stroke="#191970" points="395.5026,-208.651 405.8035,-206.1728 396.2055,-201.6864 395.5026,-208.651"/>
</g>
<!-- Node208&#45;&gt;Node206 -->
<g id="edge12" class="edge">
<title>Node208&#45;&gt;Node206</title>
<path fill="none" stroke="#191970" d="M528.5614,-191.9863C535.5635,-189.0487 542.5151,-185.8698 549,-182.5 581.4325,-165.6469 615.5685,-141.3182 638.4432,-123.921"/>
<polygon fill="#191970" stroke="#191970" points="640.839,-126.4939 646.6317,-117.6228 636.5713,-120.9453 640.839,-126.4939"/>
</g>
<!-- Node209&#45;&gt;Node205 -->
<g id="edge16" class="edge">
<title>Node209&#45;&gt;Node205</title>
<path fill="none" stroke="#191970" d="M313.2622,-79.7128C339.0268,-83.4948 369.0223,-87.8978 395.7399,-91.8196"/>
<polygon fill="#191970" stroke="#191970" points="395.4012,-95.3073 405.8035,-93.2968 396.4178,-88.3815 395.4012,-95.3073"/>
</g>
<!-- Node210 -->
<g id="node13" class="node">
<title>Node210</title>
<g id="a_node13"><a xlink:href="classRa_1_1Core_1_1Geometry_1_1AttribArrayGeometry.html#aeb68d9cd8cf8c1e05886a23f0ad33c59" target="_top" xlink:title="Ra::Core::Geometry\l::AttribArrayGeometry\l::getAttrib">
<polygon fill="#ffffff" stroke="#000000" points="406,-22 406,-63 531,-63 531,-22 406,-22"/>
<text text-anchor="start" x="414" y="-51" font-family="Helvetica,sans-Serif" font-size="10.00" fill="#000000">Ra::Core::Geometry</text>
<text text-anchor="start" x="414" y="-40" font-family="Helvetica,sans-Serif" font-size="10.00" fill="#000000">::AttribArrayGeometry</text>
<text text-anchor="middle" x="468.5" y="-29" font-family="Helvetica,sans-Serif" font-size="10.00" fill="#000000">::getAttrib</text>
</a>
</g>
</g>
<!-- Node209&#45;&gt;Node210 -->
<g id="edge14" class="edge">
<title>Node209&#45;&gt;Node210</title>
<path fill="none" stroke="#191970" d="M313.2622,-62.4388C339.0268,-59.1296 369.0223,-55.2769 395.7399,-51.8453"/>
<polygon fill="#191970" stroke="#191970" points="396.3309,-55.2983 405.8035,-50.5528 395.4391,-48.3553 396.3309,-55.2983"/>
</g>
<!-- Node210&#45;&gt;Node206 -->
<g id="edge15" class="edge">
<title>Node210&#45;&gt;Node206</title>
<path fill="none" stroke="#191970" d="M531.1027,-61.5668C555.2641,-68.9256 582.7637,-77.3011 606.5663,-84.5507"/>
<polygon fill="#191970" stroke="#191970" points="605.5899,-87.9119 616.1758,-87.4774 607.6294,-81.2156 605.5899,-87.9119"/>
</g>
</g>
</svg>
        <g id="navigator" transform="translate(0 0)" fill="#404254">
                <rect fill="#f2f5e9" fill-opacity="0.5" stroke="#606060" stroke-width=".5" x="0" y="0" width="60" height="60"/>
                <use id="zoomplus" xlink:href="#zoomPlus" x="17" y="9" onmousedown="handleZoom(evt,'in')"/>
                <use id="zoomminus" xlink:href="#zoomMin" x="42" y="9" onmousedown="handleZoom(evt,'out')"/>
                <use id="reset" xlink:href="#resetDef" x="30" y="36" onmousedown="handleReset()"/>
                <g id="arrowUp" xlink:href="#dirArrow" transform="translate(30 24)" onmousedown="handlePan(0,-1)">
                  <use xlink:href="#rim" fill="#404040">
                        <set attributeName="fill" to="#808080" begin="arrowUp.mouseover" end="arrowUp.mouseout"/>
                  </use>
                  <path fill="none" stroke="white" stroke-width="1.5" d="M0,-3.0v7 M-2.5,-0.5L0,-3.0L2.5,-0.5"/>
                </g>
                <g id="arrowRight" xlink:href="#dirArrow" transform="rotate(90) translate(36 -43)" onmousedown="handlePan(1,0)">
                  <use xlink:href="#rim" fill="#404040">
                        <set attributeName="fill" to="#808080" begin="arrowRight.mouseover" end="arrowRight.mouseout"/>
                  </use>
                  <path fill="none" stroke="white" stroke-width="1.5" d="M0,-3.0v7 M-2.5,-0.5L0,-3.0L2.5,-0.5"/>
                </g>
                <g id="arrowDown" xlink:href="#dirArrow" transform="rotate(180) translate(-30 -48)" onmousedown="handlePan(0,1)">
                  <use xlink:href="#rim" fill="#404040">
                        <set attributeName="fill" to="#808080" begin="arrowDown.mouseover" end="arrowDown.mouseout"/>
                  </use>
                  <path fill="none" stroke="white" stroke-width="1.5" d="M0,-3.0v7 M-2.5,-0.5L0,-3.0L2.5,-0.5"/>
                </g>
                <g id="arrowLeft" xlink:href="#dirArrow" transform="rotate(270) translate(-36 17)" onmousedown="handlePan(-1,0)">
                  <use xlink:href="#rim" fill="#404040">
                        <set attributeName="fill" to="#808080" begin="arrowLeft.mouseover" end="arrowLeft.mouseout"/>
                  </use>
                  <path fill="none" stroke="white" stroke-width="1.5" d="M0,-3.0v7 M-2.5,-0.5L0,-3.0L2.5,-0.5"/>
                </g>
        </g>
        <svg viewBox="0 0 15 15" width="100%" height="30px" preserveAspectRatio="xMaxYMin meet">
         <g id="arrow_out" transform="scale(0.3 0.3)">
          <a xlink:href="namespaceRa_1_1Core_1_1Geometry_a552371bb1256aab67bf187c00247bbcf_cgraph_org.svg" target="_base">
           <rect id="button" ry="5" rx="5" y="6" x="6" height="38" width="38"
                fill="#f2f5e9" fill-opacity="0.5" stroke="#606060" stroke-width="1.0"/>
           <path id="arrow"
             d="M 11.500037,31.436501 C 11.940474,20.09759 22.043105,11.32322 32.158766,21.979434 L 37.068811,17.246167 C 37.068811,17.246167 37.088388,32 37.088388,32 L 22.160133,31.978069 C 22.160133,31.978069 26.997745,27.140456 26.997745,27.140456 C 18.528582,18.264221 13.291696,25.230495 11.500037,31.436501 z"
             style="fill:#404040;"/>
          </a>
         </g>
        </svg>
</svg>
