<?xml version="1.0" encoding="UTF-8" standalone="no"?>
<!DOCTYPE svg PUBLIC "-//W3C//DTD SVG 1.1//EN"
 "http://www.w3.org/Graphics/SVG/1.1/DTD/svg11.dtd">
<!-- Generated by graphviz version 2.40.1 (20161225.0304)
 -->
<!-- Title: src/Engine/Renderer/Light/PointLight.hpp Pages: 1 -->
<!--zoomable 397 -->
<svg id="main" version="1.1" xmlns="http://www.w3.org/2000/svg" xmlns:xlink="http://www.w3.org/1999/xlink" xml:space="preserve" onload="init(evt)">
<style type="text/css"><![CDATA[
.edge:hover path { stroke: red; }
.edge:hover polygon { stroke: red; fill: red; }
]]></style>
<script type="text/javascript"><![CDATA[
var edges = document.getElementsByTagName('g');
if (edges && edges.length) {
  for (var i=0;i<edges.length;i++) {
    if (edges[i].id.substr(0,4)=='edge') {
      edges[i].setAttribute('class','edge');
    }
  }
}
]]></script>
        <defs>
                <circle id="rim" cx="0" cy="0" r="7"/>
                <circle id="rim2" cx="0" cy="0" r="3.5"/>
                <g id="zoomPlus">
                        <use xlink:href="#rim" fill="#404040">
                                <set attributeName="fill" to="#808080" begin="zoomplus.mouseover" end="zoomplus.mouseout"/>
                        </use>
                        <path d="M-4,0h8M0,-4v8" fill="none" stroke="white" stroke-width="1.5" pointer-events="none"/>
                </g>
                <g id="zoomMin">
                        <use xlink:href="#rim" fill="#404040">
                                <set attributeName="fill" to="#808080" begin="zoomminus.mouseover" end="zoomminus.mouseout"/>
                        </use>
                        <path d="M-4,0h8" fill="none" stroke="white" stroke-width="1.5" pointer-events="none"/>
                </g>
                <g id="dirArrow">
                        <path fill="none" stroke="white" stroke-width="1.5" d="M0,-3.0v7 M-2.5,-0.5L0,-3.0L2.5,-0.5"/>
                </g>
               <g id="resetDef">
                       <use xlink:href="#rim2" fill="#404040">
                               <set attributeName="fill" to="#808080" begin="reset.mouseover" end="reset.mouseout"/>
                       </use>
               </g>
        </defs>

<script type="text/javascript">
var viewWidth = 1239;
var viewHeight = 397;
var sectionId = 'dynsection-0';
</script>
<script xlink:href="svgpan.js"/>
<svg id="graph" class="graph">
<g id="viewport">
<title>src/Engine/Renderer/Light/PointLight.hpp</title>
<polygon fill="#ffffff" stroke="transparent" points="-4,4 -4,-393 1234.5,-393 1234.5,4 -4,4"/>
<!-- Node0 -->
<g id="node1" class="node">
<title>Node0</title>
<polygon fill="#bfbfbf" stroke="#000000" points="1021,-358.5 1021,-388.5 1137,-388.5 1137,-358.5 1021,-358.5"/>
<text text-anchor="start" x="1029" y="-376.5" font-family="Helvetica,sans-Serif" font-size="10.00" fill="#000000">src/Engine/Renderer</text>
<text text-anchor="middle" x="1079" y="-365.5" font-family="Helvetica,sans-Serif" font-size="10.00" fill="#000000">/Light/PointLight.hpp</text>
</g>
<!-- Node1 -->
<g id="node2" class="node">
<title>Node1</title>
<g id="a_node2"><a xlink:href="RaEngine_8hpp.html" target="_top" xlink:title="Engine/RaEngine.hpp">
<polygon fill="#ffffff" stroke="#000000" points="1047.5,-168.5 1047.5,-187.5 1166.5,-187.5 1166.5,-168.5 1047.5,-168.5"/>
<text text-anchor="middle" x="1107" y="-175.5" font-family="Helvetica,sans-Serif" font-size="10.00" fill="#000000">Engine/RaEngine.hpp</text>
</a>
</g>
</g>
<!-- Node0&#45;&gt;Node1 -->
<g id="edge1" class="edge">
<title>Node0&#45;&gt;Node1</title>
<path fill="none" stroke="#191970" d="M1081.1506,-358.4841C1086.1498,-323.5793 1098.5532,-236.9766 1104.1636,-197.804"/>
<polygon fill="#191970" stroke="#191970" points="1107.6304,-198.2851 1105.5836,-187.8898 1100.7011,-197.2926 1107.6304,-198.2851"/>
</g>
<!-- Node8 -->
<g id="node9" class="node">
<title>Node8</title>
<g id="a_node9"><a xlink:href="Light_8hpp.html" target="_top" xlink:title="Engine/Renderer/Light\l/Light.hpp">
<polygon fill="#ffffff" stroke="#000000" points="772.5,-291.5 772.5,-321.5 895.5,-321.5 895.5,-291.5 772.5,-291.5"/>
<text text-anchor="start" x="780.5" y="-309.5" font-family="Helvetica,sans-Serif" font-size="10.00" fill="#000000">Engine/Renderer/Light</text>
<text text-anchor="middle" x="834" y="-298.5" font-family="Helvetica,sans-Serif" font-size="10.00" fill="#000000">/Light.hpp</text>
</a>
</g>
</g>
<!-- Node0&#45;&gt;Node8 -->
<g id="edge8" class="edge">
<title>Node0&#45;&gt;Node8</title>
<path fill="none" stroke="#191970" d="M1024.0172,-358.4639C986.95,-348.3272 937.8886,-334.9104 898.9035,-324.2491"/>
<polygon fill="#191970" stroke="#191970" points="899.7917,-320.8636 889.2226,-321.6017 897.9451,-327.6156 899.7917,-320.8636"/>
</g>
<!-- Node27 -->
<g id="node28" class="node">
<title>Node27</title>
<g id="a_node28"><a xlink:href="PointLight_8inl.html" target="_top" xlink:title="Engine/Renderer/Light\l/PointLight.inl">
<polygon fill="#ffffff" stroke="#000000" points="1107.5,-291.5 1107.5,-321.5 1230.5,-321.5 1230.5,-291.5 1107.5,-291.5"/>
<text text-anchor="start" x="1115.5" y="-309.5" font-family="Helvetica,sans-Serif" font-size="10.00" fill="#000000">Engine/Renderer/Light</text>
<text text-anchor="middle" x="1169" y="-298.5" font-family="Helvetica,sans-Serif" font-size="10.00" fill="#000000">/PointLight.inl</text>
</a>
</g>
</g>
<!-- Node0&#45;&gt;Node27 -->
<g id="edge40" class="edge">
<title>Node0&#45;&gt;Node27</title>
<path fill="none" stroke="#191970" d="M1099.4224,-358.2967C1111.5048,-349.302 1126.9972,-337.7687 1140.2948,-327.8694"/>
<polygon fill="#191970" stroke="#191970" points="1142.7271,-330.4221 1148.6584,-321.6432 1138.5471,-324.8072 1142.7271,-330.4221"/>
</g>
<!-- Node2 -->
<g id="node3" class="node">
<title>Node2</title>
<g id="a_node3"><a xlink:href="CoreMacros_8hpp.html" target="_top" xlink:title="Core/CoreMacros.hpp">
<polygon fill="#ffffff" stroke="#000000" points="389,-56.5 389,-75.5 509,-75.5 509,-56.5 389,-56.5"/>
<text text-anchor="middle" x="449" y="-63.5" font-family="Helvetica,sans-Serif" font-size="10.00" fill="#000000">Core/CoreMacros.hpp</text>
</a>
</g>
</g>
<!-- Node1&#45;&gt;Node2 -->
<g id="edge2" class="edge">
<title>Node1&#45;&gt;Node2</title>
<path fill="none" stroke="#191970" d="M1083.9981,-168.464C1047.5595,-153.7875 974.0196,-125.9067 909,-112 772.9708,-82.9055 610.2824,-72.1217 519.3852,-68.1908"/>
<polygon fill="#191970" stroke="#191970" points="519.3385,-64.6859 509.2013,-67.7662 519.0468,-71.6798 519.3385,-64.6859"/>
</g>
<!-- Node3 -->
<g id="node4" class="node">
<title>Node3</title>
<polygon fill="#ffffff" stroke="#bfbfbf" points="285,-.5 285,-19.5 337,-19.5 337,-.5 285,-.5"/>
<text text-anchor="middle" x="311" y="-7.5" font-family="Helvetica,sans-Serif" font-size="10.00" fill="#000000">cassert</text>
</g>
<!-- Node2&#45;&gt;Node3 -->
<g id="edge3" class="edge">
<title>Node2&#45;&gt;Node3</title>
<path fill="none" stroke="#191970" d="M425.277,-56.3733C402.8263,-47.2629 368.9261,-33.5062 343.8745,-23.3404"/>
<polygon fill="#191970" stroke="#191970" points="344.9957,-20.0182 334.4135,-19.5011 342.3635,-26.5045 344.9957,-20.0182"/>
</g>
<!-- Node4 -->
<g id="node5" class="node">
<title>Node4</title>
<polygon fill="#ffffff" stroke="#bfbfbf" points="355,-.5 355,-19.5 401,-19.5 401,-.5 355,-.5"/>
<text text-anchor="middle" x="378" y="-7.5" font-family="Helvetica,sans-Serif" font-size="10.00" fill="#000000">cstdio</text>
</g>
<!-- Node2&#45;&gt;Node4 -->
<g id="edge4" class="edge">
<title>Node2&#45;&gt;Node4</title>
<path fill="none" stroke="#191970" d="M436.6327,-56.2455C426.0446,-47.8943 410.5936,-35.7076 398.2107,-25.9408"/>
<polygon fill="#191970" stroke="#191970" points="400.2447,-23.0875 390.2255,-19.6427 395.9097,-28.5837 400.2447,-23.0875"/>
</g>
<!-- Node5 -->
<g id="node6" class="node">
<title>Node5</title>
<polygon fill="#ffffff" stroke="#bfbfbf" points="419,-.5 419,-19.5 479,-19.5 479,-.5 419,-.5"/>
<text text-anchor="middle" x="449" y="-7.5" font-family="Helvetica,sans-Serif" font-size="10.00" fill="#000000">iostream</text>
</g>
<!-- Node2&#45;&gt;Node5 -->
<g id="edge5" class="edge">
<title>Node2&#45;&gt;Node5</title>
<path fill="none" stroke="#191970" d="M449,-56.2455C449,-48.9382 449,-38.6944 449,-29.7046"/>
<polygon fill="#191970" stroke="#191970" points="452.5001,-29.6426 449,-19.6427 445.5001,-29.6427 452.5001,-29.6426"/>
</g>
<!-- Node6 -->
<g id="node7" class="node">
<title>Node6</title>
<polygon fill="#ffffff" stroke="#bfbfbf" points="497,-.5 497,-19.5 553,-19.5 553,-.5 497,-.5"/>
<text text-anchor="middle" x="525" y="-7.5" font-family="Helvetica,sans-Serif" font-size="10.00" fill="#000000">sstream</text>
</g>
<!-- Node2&#45;&gt;Node6 -->
<g id="edge6" class="edge">
<title>Node2&#45;&gt;Node6</title>
<path fill="none" stroke="#191970" d="M462.2382,-56.2455C473.681,-47.814 490.4296,-35.4729 503.7475,-25.6598"/>
<polygon fill="#191970" stroke="#191970" points="505.9391,-28.3924 511.9135,-19.6427 501.7867,-22.757 505.9391,-28.3924"/>
</g>
<!-- Node7 -->
<g id="node8" class="node">
<title>Node7</title>
<polygon fill="#ffffff" stroke="#bfbfbf" points="571,-.5 571,-19.5 619,-19.5 619,-.5 571,-.5"/>
<text text-anchor="middle" x="595" y="-7.5" font-family="Helvetica,sans-Serif" font-size="10.00" fill="#000000">thread</text>
</g>
<!-- Node2&#45;&gt;Node7 -->
<g id="edge7" class="edge">
<title>Node2&#45;&gt;Node7</title>
<path fill="none" stroke="#191970" d="M474.0983,-56.3733C498.1001,-47.1671 534.4713,-33.2165 561.0524,-23.021"/>
<polygon fill="#191970" stroke="#191970" points="562.631,-26.1642 570.7144,-19.315 560.1242,-19.6285 562.631,-26.1642"/>
</g>
<!-- Node8&#45;&gt;Node1 -->
<g id="edge38" class="edge">
<title>Node8&#45;&gt;Node1</title>
<path fill="none" stroke="#191970" d="M866.1194,-291.3816C919.4822,-266.2639 1025.6376,-216.297 1077.3321,-191.9646"/>
<polygon fill="#191970" stroke="#191970" points="1079.0625,-195.0185 1086.6197,-187.5929 1076.0813,-188.685 1079.0625,-195.0185"/>
</g>
<!-- Node9 -->
<g id="node10" class="node">
<title>Node9</title>
<g id="a_node10"><a xlink:href="Color_8hpp.html" target="_top" xlink:title="Core/Utils/Color.hpp">
<polygon fill="#ffffff" stroke="#000000" points="310.5,-230 310.5,-249 423.5,-249 423.5,-230 310.5,-230"/>
<text text-anchor="middle" x="367" y="-237" font-family="Helvetica,sans-Serif" font-size="10.00" fill="#000000">Core/Utils/Color.hpp</text>
</a>
</g>
</g>
<!-- Node8&#45;&gt;Node9 -->
<g id="edge9" class="edge">
<title>Node8&#45;&gt;Node9</title>
<path fill="none" stroke="#191970" d="M772.4677,-297.672C684.7048,-285.0808 524.2119,-262.055 433.6946,-249.0686"/>
<polygon fill="#191970" stroke="#191970" points="433.9448,-245.5687 423.5491,-247.613 432.9506,-252.4978 433.9448,-245.5687"/>
</g>
<!-- Node18 -->
<g id="node19" class="node">
<title>Node18</title>
<g id="a_node19"><a xlink:href="Component_8hpp.html" target="_top" xlink:title="Engine/Component/Component.hpp">
<polygon fill="#ffffff" stroke="#000000" points="739.5,-230 739.5,-249 928.5,-249 928.5,-230 739.5,-230"/>
<text text-anchor="middle" x="834" y="-237" font-family="Helvetica,sans-Serif" font-size="10.00" fill="#000000">Engine/Component/Component.hpp</text>
</a>
</g>
</g>
<!-- Node8&#45;&gt;Node18 -->
<g id="edge21" class="edge">
<title>Node8&#45;&gt;Node18</title>
<path fill="none" stroke="#191970" d="M834,-291.2967C834,-281.7699 834,-269.3954 834,-259.1306"/>
<polygon fill="#191970" stroke="#191970" points="837.5001,-259.0549 834,-249.055 830.5001,-259.055 837.5001,-259.0549"/>
</g>
<!-- Node26 -->
<g id="node27" class="node">
<title>Node26</title>
<g id="a_node27"><a xlink:href="Light_8inl.html" target="_top" xlink:title="Engine/Renderer/Light\l/Light.inl">
<polygon fill="#ffffff" stroke="#000000" points="598.5,-224.5 598.5,-254.5 721.5,-254.5 721.5,-224.5 598.5,-224.5"/>
<text text-anchor="start" x="606.5" y="-242.5" font-family="Helvetica,sans-Serif" font-size="10.00" fill="#000000">Engine/Renderer/Light</text>
<text text-anchor="middle" x="660" y="-231.5" font-family="Helvetica,sans-Serif" font-size="10.00" fill="#000000">/Light.inl</text>
</a>
</g>
</g>
<!-- Node8&#45;&gt;Node26 -->
<g id="edge39" class="edge">
<title>Node8&#45;&gt;Node26</title>
<path fill="none" stroke="#191970" d="M794.951,-291.4639C769.4066,-281.6278 735.8416,-268.7034 708.5769,-258.2049"/>
<polygon fill="#191970" stroke="#191970" points="709.8091,-254.9289 699.2193,-254.6017 707.2937,-261.4614 709.8091,-254.9289"/>
</g>
<!-- Node9&#45;&gt;Node2 -->
<g id="edge10" class="edge">
<title>Node9&#45;&gt;Node2</title>
<path fill="none" stroke="#191970" d="M347.3065,-229.9007C332.0825,-221.2754 312.1164,-207.0372 303,-188 288.4113,-157.5351 283.024,-139.2378 303,-112 313.4872,-97.7005 352.7166,-85.8089 387.8716,-77.7008"/>
<polygon fill="#191970" stroke="#191970" points="388.6558,-81.1119 397.6518,-75.5153 387.1292,-74.2804 388.6558,-81.1119"/>
</g>
<!-- Node10 -->
<g id="node11" class="node">
<title>Node10</title>
<g id="a_node11"><a xlink:href="Math_8hpp.html" target="_top" xlink:title="Core/Math/Math.hpp">
<polygon fill="#ffffff" stroke="#000000" points="122,-168.5 122,-187.5 236,-187.5 236,-168.5 122,-168.5"/>
<text text-anchor="middle" x="179" y="-175.5" font-family="Helvetica,sans-Serif" font-size="10.00" fill="#000000">Core/Math/Math.hpp</text>
</a>
</g>
</g>
<!-- Node9&#45;&gt;Node10 -->
<g id="edge11" class="edge">
<title>Node9&#45;&gt;Node10</title>
<path fill="none" stroke="#191970" d="M337.625,-229.8906C305.3414,-219.3298 253.3465,-202.3208 217.7453,-190.6747"/>
<polygon fill="#191970" stroke="#191970" points="218.7613,-187.3246 208.1687,-187.5419 216.5849,-193.9776 218.7613,-187.3246"/>
</g>
<!-- Node15 -->
<g id="node16" class="node">
<title>Node15</title>
<polygon fill="#ffffff" stroke="#bfbfbf" points="312.5,-112.5 312.5,-131.5 381.5,-131.5 381.5,-112.5 312.5,-112.5"/>
<text text-anchor="middle" x="347" y="-119.5" font-family="Helvetica,sans-Serif" font-size="10.00" fill="#000000">Eigen/Core</text>
</g>
<!-- Node9&#45;&gt;Node15 -->
<g id="edge18" class="edge">
<title>Node9&#45;&gt;Node15</title>
<path fill="none" stroke="#191970" d="M370.4473,-229.5939C374.7904,-215.6126 381.003,-189.4076 375,-168 372.2122,-158.0584 366.6188,-148.1336 361.1593,-140.0613"/>
<polygon fill="#191970" stroke="#191970" points="363.9048,-137.8849 355.2089,-131.8323 358.2324,-141.9866 363.9048,-137.8849"/>
</g>
<!-- Node16 -->
<g id="node17" class="node">
<title>Node16</title>
<polygon fill="#ffffff" stroke="#bfbfbf" points="804.5,-112.5 804.5,-131.5 899.5,-131.5 899.5,-112.5 804.5,-112.5"/>
<text text-anchor="middle" x="852" y="-119.5" font-family="Helvetica,sans-Serif" font-size="10.00" fill="#000000">Eigen/Geometry</text>
</g>
<!-- Node9&#45;&gt;Node16 -->
<g id="edge19" class="edge">
<title>Node9&#45;&gt;Node16</title>
<path fill="none" stroke="#191970" d="M423.6894,-236.0797C490.1024,-230.8309 602.783,-218.0281 695,-188 713.5224,-181.9687 716.2355,-175.9924 734,-168 760.8442,-155.9225 791.8823,-143.8969 815.3866,-135.1719"/>
<polygon fill="#191970" stroke="#191970" points="816.7904,-138.3848 824.9644,-131.6441 814.371,-131.8162 816.7904,-138.3848"/>
</g>
<!-- Node17 -->
<g id="node18" class="node">
<title>Node17</title>
<polygon fill="#ffffff" stroke="#bfbfbf" points="312,-168.5 312,-187.5 366,-187.5 366,-168.5 312,-168.5"/>
<text text-anchor="middle" x="339" y="-175.5" font-family="Helvetica,sans-Serif" font-size="10.00" fill="#000000">random</text>
</g>
<!-- Node9&#45;&gt;Node17 -->
<g id="edge20" class="edge">
<title>Node9&#45;&gt;Node17</title>
<path fill="none" stroke="#191970" d="M362.625,-229.8906C358.6212,-221.0965 352.5817,-207.8312 347.6115,-196.9145"/>
<polygon fill="#191970" stroke="#191970" points="350.7657,-195.3957 343.4367,-187.7449 344.3949,-198.2963 350.7657,-195.3957"/>
</g>
<!-- Node11 -->
<g id="node12" class="node">
<title>Node11</title>
<g id="a_node12"><a xlink:href="RaCore_8hpp.html" target="_top" xlink:title="Core/RaCore.hpp">
<polygon fill="#ffffff" stroke="#000000" points="400,-112.5 400,-131.5 498,-131.5 498,-112.5 400,-112.5"/>
<text text-anchor="middle" x="449" y="-119.5" font-family="Helvetica,sans-Serif" font-size="10.00" fill="#000000">Core/RaCore.hpp</text>
</a>
</g>
</g>
<!-- Node10&#45;&gt;Node11 -->
<g id="edge12" class="edge">
<title>Node10&#45;&gt;Node11</title>
<path fill="none" stroke="#191970" d="M225.1079,-168.4369C271.6075,-158.7925 343.4359,-143.8948 393.14,-133.5858"/>
<polygon fill="#191970" stroke="#191970" points="394.0015,-136.9817 403.0823,-131.5237 392.5799,-130.1275 394.0015,-136.9817"/>
</g>
<!-- Node12 -->
<g id="node13" class="node">
<title>Node12</title>
<polygon fill="#ffffff" stroke="#bfbfbf" points="126,-112.5 126,-131.5 190,-131.5 190,-112.5 126,-112.5"/>
<text text-anchor="middle" x="158" y="-119.5" font-family="Helvetica,sans-Serif" font-size="10.00" fill="#000000">algorithm</text>
</g>
<!-- Node10&#45;&gt;Node12 -->
<g id="edge14" class="edge">
<title>Node10&#45;&gt;Node12</title>
<path fill="none" stroke="#191970" d="M175.3421,-168.2455C172.5416,-160.7776 168.591,-150.2427 165.1676,-141.1137"/>
<polygon fill="#191970" stroke="#191970" points="168.4045,-139.777 161.616,-131.6427 161.8501,-142.2349 168.4045,-139.777"/>
</g>
<!-- Node13 -->
<g id="node14" class="node">
<title>Node13</title>
<polygon fill="#ffffff" stroke="#bfbfbf" points="208.5,-112.5 208.5,-131.5 255.5,-131.5 255.5,-112.5 208.5,-112.5"/>
<text text-anchor="middle" x="232" y="-119.5" font-family="Helvetica,sans-Serif" font-size="10.00" fill="#000000">cmath</text>
</g>
<!-- Node10&#45;&gt;Node13 -->
<g id="edge15" class="edge">
<title>Node10&#45;&gt;Node13</title>
<path fill="none" stroke="#191970" d="M188.2319,-168.2455C195.8317,-160.2155 206.7877,-148.6394 215.8368,-139.0781"/>
<polygon fill="#191970" stroke="#191970" points="218.5421,-141.3115 222.8739,-131.6427 213.458,-136.4998 218.5421,-141.3115"/>
</g>
<!-- Node14 -->
<g id="node15" class="node">
<title>Node14</title>
<g id="a_node15"><a xlink:href="Math_8inl.html" target="_top" xlink:title="Core/Math/Math.inl">
<polygon fill="#ffffff" stroke="#000000" points="0,-112.5 0,-131.5 108,-131.5 108,-112.5 0,-112.5"/>
<text text-anchor="middle" x="54" y="-119.5" font-family="Helvetica,sans-Serif" font-size="10.00" fill="#000000">Core/Math/Math.inl</text>
</a>
</g>
</g>
<!-- Node10&#45;&gt;Node14 -->
<g id="edge16" class="edge">
<title>Node10&#45;&gt;Node14</title>
<path fill="none" stroke="#191970" d="M152.2697,-168.3733C130.5432,-159.4241 100.3339,-145.9917 79.069,-135.8835"/>
<polygon fill="#191970" stroke="#191970" points="80.5178,-132.6965 69.9906,-131.5011 77.4747,-139.0004 80.5178,-132.6965"/>
</g>
<!-- Node11&#45;&gt;Node2 -->
<g id="edge13" class="edge">
<title>Node11&#45;&gt;Node2</title>
<path fill="none" stroke="#191970" d="M449,-112.2455C449,-104.9382 449,-94.6944 449,-85.7046"/>
<polygon fill="#191970" stroke="#191970" points="452.5001,-85.6426 449,-75.6427 445.5001,-85.6427 452.5001,-85.6426"/>
</g>
<!-- Node14&#45;&gt;Node10 -->
<g id="edge17" class="edge">
<title>Node14&#45;&gt;Node10</title>
<path fill="none" stroke="#191970" d="M80.4252,-131.5011C102.0717,-140.408 132.2828,-153.8348 153.6312,-163.9741"/>
<polygon fill="#191970" stroke="#191970" points="152.2261,-167.1821 162.7538,-168.3733 155.2667,-160.877 152.2261,-167.1821"/>
</g>
<!-- Node18&#45;&gt;Node1 -->
<g id="edge29" class="edge">
<title>Node18&#45;&gt;Node1</title>
<path fill="none" stroke="#191970" d="M876.3567,-229.9581C924.3757,-219.1406 1002.701,-201.4959 1054.545,-189.8168"/>
<polygon fill="#191970" stroke="#191970" points="1055.5576,-193.1765 1064.5439,-187.5643 1054.0192,-186.3476 1055.5576,-193.1765"/>
</g>
<!-- Node18&#45;&gt;Node15 -->
<g id="edge27" class="edge">
<title>Node18&#45;&gt;Node15</title>
<path fill="none" stroke="#191970" d="M772.2128,-229.9811C758.6428,-227.9522 744.3428,-225.8615 731,-224 606.7347,-206.6635 569.0043,-230.6311 451,-188 418.7638,-176.3541 386.1257,-153.4192 366.2256,-137.8965"/>
<polygon fill="#191970" stroke="#191970" points="368.2711,-135.0511 358.2704,-131.5529 363.9068,-140.5241 368.2711,-135.0511"/>
</g>
<!-- Node18&#45;&gt;Node16 -->
<g id="edge28" class="edge">
<title>Node18&#45;&gt;Node16</title>
<path fill="none" stroke="#191970" d="M874.3724,-229.9501C896.392,-222.4587 921.7881,-209.5671 935,-188 949.0653,-165.0398 919.9683,-146.7722 892.4364,-135.3296"/>
<polygon fill="#191970" stroke="#191970" points="893.4243,-131.9577 882.8366,-131.5703 890.8718,-138.4757 893.4243,-131.9577"/>
</g>
<!-- Node19 -->
<g id="node20" class="node">
<title>Node19</title>
<g id="a_node20"><a xlink:href="Index_8hpp.html" target="_top" xlink:title="Core/Utils/Index.hpp">
<polygon fill="#ffffff" stroke="#000000" points="460,-168.5 460,-187.5 576,-187.5 576,-168.5 460,-168.5"/>
<text text-anchor="middle" x="518" y="-175.5" font-family="Helvetica,sans-Serif" font-size="10.00" fill="#000000">Core/Utils/Index.hpp</text>
</a>
</g>
</g>
<!-- Node18&#45;&gt;Node19 -->
<g id="edge22" class="edge">
<title>Node18&#45;&gt;Node19</title>
<path fill="none" stroke="#191970" d="M784.9717,-229.9581C728.8442,-219.0345 636.9453,-201.1492 576.9604,-189.4749"/>
<polygon fill="#191970" stroke="#191970" points="577.3678,-185.9886 566.8833,-187.5137 576.0305,-192.8597 577.3678,-185.9886"/>
</g>
<!-- Node22 -->
<g id="node23" class="node">
<title>Node22</title>
<polygon fill="#ffffff" stroke="#bfbfbf" points="982.5,-168.5 982.5,-187.5 1029.5,-187.5 1029.5,-168.5 982.5,-168.5"/>
<text text-anchor="middle" x="1006" y="-175.5" font-family="Helvetica,sans-Serif" font-size="10.00" fill="#000000">vector</text>
</g>
<!-- Node18&#45;&gt;Node22 -->
<g id="edge30" class="edge">
<title>Node18&#45;&gt;Node22</title>
<path fill="none" stroke="#191970" d="M860.875,-229.8906C891.1005,-219.0832 940.2114,-201.5232 972.808,-189.8681"/>
<polygon fill="#191970" stroke="#191970" points="974.117,-193.1171 982.3548,-186.4545 971.7602,-186.5258 974.117,-193.1171"/>
</g>
<!-- Node23 -->
<g id="node24" class="node">
<title>Node23</title>
<g id="a_node24"><a xlink:href="Types_8hpp.html" target="_top" xlink:title="Core/Types.hpp">
<polygon fill="#ffffff" stroke="#000000" points="594.5,-168.5 594.5,-187.5 685.5,-187.5 685.5,-168.5 594.5,-168.5"/>
<text text-anchor="middle" x="640" y="-175.5" font-family="Helvetica,sans-Serif" font-size="10.00" fill="#000000">Core/Types.hpp</text>
</a>
</g>
</g>
<!-- Node18&#45;&gt;Node23 -->
<g id="edge31" class="edge">
<title>Node18&#45;&gt;Node23</title>
<path fill="none" stroke="#191970" d="M803.6875,-229.8906C770.3735,-219.3298 716.7192,-202.3208 679.9819,-190.6747"/>
<polygon fill="#191970" stroke="#191970" points="680.6898,-187.2275 670.0996,-187.5419 678.5744,-193.9002 680.6898,-187.2275"/>
</g>
<!-- Node25 -->
<g id="node26" class="node">
<title>Node25</title>
<g id="a_node26"><a xlink:href="Component_8inl.html" target="_top" xlink:title="Engine/Component/Component.inl">
<polygon fill="#ffffff" stroke="#000000" points="742.5,-168.5 742.5,-187.5 925.5,-187.5 925.5,-168.5 742.5,-168.5"/>
<text text-anchor="middle" x="834" y="-175.5" font-family="Helvetica,sans-Serif" font-size="10.00" fill="#000000">Engine/Component/Component.inl</text>
</a>
</g>
</g>
<!-- Node18&#45;&gt;Node25 -->
<g id="edge36" class="edge">
<title>Node18&#45;&gt;Node25</title>
<path fill="none" stroke="#191970" d="M828.9375,-229.8906C827.2741,-221.3657 826.8404,-208.6392 827.6365,-197.9235"/>
<polygon fill="#191970" stroke="#191970" points="831.1414,-198.1023 828.9112,-187.7449 824.1956,-197.2324 831.1414,-198.1023"/>
</g>
<!-- Node19&#45;&gt;Node11 -->
<g id="edge23" class="edge">
<title>Node19&#45;&gt;Node11</title>
<path fill="none" stroke="#191970" d="M505.9811,-168.2455C495.7902,-159.9746 480.9638,-147.9416 468.9893,-138.2232"/>
<polygon fill="#191970" stroke="#191970" points="470.8514,-135.2268 460.8812,-131.6427 466.4402,-140.662 470.8514,-135.2268"/>
</g>
<!-- Node20 -->
<g id="node21" class="node">
<title>Node20</title>
<polygon fill="#ffffff" stroke="#bfbfbf" points="516,-112.5 516,-131.5 560,-131.5 560,-112.5 516,-112.5"/>
<text text-anchor="middle" x="538" y="-119.5" font-family="Helvetica,sans-Serif" font-size="10.00" fill="#000000">limits</text>
</g>
<!-- Node19&#45;&gt;Node20 -->
<g id="edge24" class="edge">
<title>Node19&#45;&gt;Node20</title>
<path fill="none" stroke="#191970" d="M521.4837,-168.2455C524.1508,-160.7776 527.9133,-150.2427 531.1737,-141.1137"/>
<polygon fill="#191970" stroke="#191970" points="534.4889,-142.2373 534.5562,-131.6427 527.8967,-139.8829 534.4889,-142.2373"/>
</g>
<!-- Node21 -->
<g id="node22" class="node">
<title>Node21</title>
<g id="a_node22"><a xlink:href="Index_8inl.html" target="_top" xlink:title="Core/Utils/Index.inl">
<polygon fill="#ffffff" stroke="#000000" points="578,-112.5 578,-131.5 688,-131.5 688,-112.5 578,-112.5"/>
<text text-anchor="middle" x="633" y="-119.5" font-family="Helvetica,sans-Serif" font-size="10.00" fill="#000000">Core/Utils/Index.inl</text>
</a>
</g>
</g>
<!-- Node19&#45;&gt;Node21 -->
<g id="edge25" class="edge">
<title>Node19&#45;&gt;Node21</title>
<path fill="none" stroke="#191970" d="M532.7646,-168.2455C549.4223,-159.2921 576.645,-145.93 598.6023,-135.8679"/>
<polygon fill="#191970" stroke="#191970" points="600.2813,-138.95 607.9529,-131.6427 597.3988,-132.571 600.2813,-138.95"/>
</g>
<!-- Node21&#45;&gt;Node19 -->
<g id="edge26" class="edge">
<title>Node21&#45;&gt;Node19</title>
<path fill="none" stroke="#191970" d="M618.7061,-131.5011C602.0312,-140.4883 574.3545,-154.0771 552.1462,-164.2473"/>
<polygon fill="#191970" stroke="#191970" points="550.6841,-161.0672 543.0112,-168.3733 553.5655,-167.4467 550.6841,-161.0672"/>
</g>
<!-- Node23&#45;&gt;Node11 -->
<g id="edge32" class="edge">
<title>Node23&#45;&gt;Node11</title>
<path fill="none" stroke="#191970" d="M607.1659,-168.3733C575.1305,-158.9807 526.2513,-144.6496 491.3145,-134.4064"/>
<polygon fill="#191970" stroke="#191970" points="491.9864,-130.9561 481.4056,-131.5011 490.0169,-137.6733 491.9864,-130.9561"/>
</g>
<!-- Node23&#45;&gt;Node15 -->
<g id="edge33" class="edge">
<title>Node23&#45;&gt;Node15</title>
<path fill="none" stroke="#191970" d="M594.2484,-169.6525C533.8208,-158.6127 431.2291,-139.8153 391.4132,-131.977"/>
<polygon fill="#191970" stroke="#191970" points="392.0522,-128.5355 381.5583,-129.9941 390.6714,-135.3979 392.0522,-128.5355"/>
</g>
<!-- Node23&#45;&gt;Node16 -->
<g id="edge34" class="edge">
<title>Node23&#45;&gt;Node16</title>
<path fill="none" stroke="#191970" d="M676.4441,-168.3733C712.3069,-158.9001 767.1878,-144.4032 806.0282,-134.1435"/>
<polygon fill="#191970" stroke="#191970" points="807.257,-137.439 816.0315,-131.5011 805.4692,-130.6712 807.257,-137.439"/>
</g>
<!-- Node24 -->
<g id="node25" class="node">
<title>Node24</title>
<polygon fill="#ffffff" stroke="#bfbfbf" points="706,-112.5 706,-131.5 786,-131.5 786,-112.5 706,-112.5"/>
<text text-anchor="middle" x="746" y="-119.5" font-family="Helvetica,sans-Serif" font-size="10.00" fill="#000000">Eigen/Sparse</text>
</g>
<!-- Node23&#45;&gt;Node24 -->
<g id="edge35" class="edge">
<title>Node23&#45;&gt;Node24</title>
<path fill="none" stroke="#191970" d="M658.4638,-168.2455C675.1074,-159.4527 699.7993,-146.4079 718.7192,-136.4125"/>
<polygon fill="#191970" stroke="#191970" points="720.5408,-139.4086 727.7478,-131.6427 717.2709,-133.2193 720.5408,-139.4086"/>
</g>
<!-- Node25&#45;&gt;Node18 -->
<g id="edge37" class="edge">
<title>Node25&#45;&gt;Node18</title>
<path fill="none" stroke="#191970" d="M839.0888,-187.7449C840.7392,-196.314 841.1598,-209.0519 840.3508,-219.7462"/>
<polygon fill="#191970" stroke="#191970" points="836.8503,-219.5293 839.0625,-229.8906 843.7945,-220.4113 836.8503,-219.5293"/>
</g>
</g>
</svg>
        <g id="navigator" transform="translate(0 0)" fill="#404254">
                <rect fill="#f2f5e9" fill-opacity="0.5" stroke="#606060" stroke-width=".5" x="0" y="0" width="60" height="60"/>
                <use id="zoomplus" xlink:href="#zoomPlus" x="17" y="9" onmousedown="handleZoom(evt,'in')"/>
                <use id="zoomminus" xlink:href="#zoomMin" x="42" y="9" onmousedown="handleZoom(evt,'out')"/>
                <use id="reset" xlink:href="#resetDef" x="30" y="36" onmousedown="handleReset()"/>
                <g id="arrowUp" xlink:href="#dirArrow" transform="translate(30 24)" onmousedown="handlePan(0,-1)">
                  <use xlink:href="#rim" fill="#404040">
                        <set attributeName="fill" to="#808080" begin="arrowUp.mouseover" end="arrowUp.mouseout"/>
                  </use>
                  <path fill="none" stroke="white" stroke-width="1.5" d="M0,-3.0v7 M-2.5,-0.5L0,-3.0L2.5,-0.5"/>
                </g>
                <g id="arrowRight" xlink:href="#dirArrow" transform="rotate(90) translate(36 -43)" onmousedown="handlePan(1,0)">
                  <use xlink:href="#rim" fill="#404040">
                        <set attributeName="fill" to="#808080" begin="arrowRight.mouseover" end="arrowRight.mouseout"/>
                  </use>
                  <path fill="none" stroke="white" stroke-width="1.5" d="M0,-3.0v7 M-2.5,-0.5L0,-3.0L2.5,-0.5"/>
                </g>
                <g id="arrowDown" xlink:href="#dirArrow" transform="rotate(180) translate(-30 -48)" onmousedown="handlePan(0,1)">
                  <use xlink:href="#rim" fill="#404040">
                        <set attributeName="fill" to="#808080" begin="arrowDown.mouseover" end="arrowDown.mouseout"/>
                  </use>
                  <path fill="none" stroke="white" stroke-width="1.5" d="M0,-3.0v7 M-2.5,-0.5L0,-3.0L2.5,-0.5"/>
                </g>
                <g id="arrowLeft" xlink:href="#dirArrow" transform="rotate(270) translate(-36 17)" onmousedown="handlePan(-1,0)">
                  <use xlink:href="#rim" fill="#404040">
                        <set attributeName="fill" to="#808080" begin="arrowLeft.mouseover" end="arrowLeft.mouseout"/>
                  </use>
                  <path fill="none" stroke="white" stroke-width="1.5" d="M0,-3.0v7 M-2.5,-0.5L0,-3.0L2.5,-0.5"/>
                </g>
        </g>
        <svg viewBox="0 0 15 15" width="100%" height="30px" preserveAspectRatio="xMaxYMin meet">
         <g id="arrow_out" transform="scale(0.3 0.3)">
          <a xlink:href="PointLight_8hpp__incl_org.svg" target="_base">
           <rect id="button" ry="5" rx="5" y="6" x="6" height="38" width="38"
                fill="#f2f5e9" fill-opacity="0.5" stroke="#606060" stroke-width="1.0"/>
           <path id="arrow"
             d="M 11.500037,31.436501 C 11.940474,20.09759 22.043105,11.32322 32.158766,21.979434 L 37.068811,17.246167 C 37.068811,17.246167 37.088388,32 37.088388,32 L 22.160133,31.978069 C 22.160133,31.978069 26.997745,27.140456 26.997745,27.140456 C 18.528582,18.264221 13.291696,25.230495 11.500037,31.436501 z"
             style="fill:#404040;"/>
          </a>
         </g>
        </svg>
</svg>
