<?xml version="1.0" encoding="UTF-8" standalone="no"?>
<!DOCTYPE svg PUBLIC "-//W3C//DTD SVG 1.1//EN"
 "http://www.w3.org/Graphics/SVG/1.1/DTD/svg11.dtd">
<!-- Generated by graphviz version 2.40.1 (20161225.0304)
 -->
<!-- Title: src/Core/Animation/Pose.hpp Pages: 1 -->
<!--zoomable 374 -->
<svg id="main" version="1.1" xmlns="http://www.w3.org/2000/svg" xmlns:xlink="http://www.w3.org/1999/xlink" xml:space="preserve" onload="init(evt)">
<style type="text/css"><![CDATA[
.edge:hover path { stroke: red; }
.edge:hover polygon { stroke: red; fill: red; }
]]></style>
<script type="text/javascript"><![CDATA[
var edges = document.getElementsByTagName('g');
if (edges && edges.length) {
  for (var i=0;i<edges.length;i++) {
    if (edges[i].id.substr(0,4)=='edge') {
      edges[i].setAttribute('class','edge');
    }
  }
}
]]></script>
        <defs>
                <circle id="rim" cx="0" cy="0" r="7"/>
                <circle id="rim2" cx="0" cy="0" r="3.5"/>
                <g id="zoomPlus">
                        <use xlink:href="#rim" fill="#404040">
                                <set attributeName="fill" to="#808080" begin="zoomplus.mouseover" end="zoomplus.mouseout"/>
                        </use>
                        <path d="M-4,0h8M0,-4v8" fill="none" stroke="white" stroke-width="1.5" pointer-events="none"/>
                </g>
                <g id="zoomMin">
                        <use xlink:href="#rim" fill="#404040">
                                <set attributeName="fill" to="#808080" begin="zoomminus.mouseover" end="zoomminus.mouseout"/>
                        </use>
                        <path d="M-4,0h8" fill="none" stroke="white" stroke-width="1.5" pointer-events="none"/>
                </g>
                <g id="dirArrow">
                        <path fill="none" stroke="white" stroke-width="1.5" d="M0,-3.0v7 M-2.5,-0.5L0,-3.0L2.5,-0.5"/>
                </g>
               <g id="resetDef">
                       <use xlink:href="#rim2" fill="#404040">
                               <set attributeName="fill" to="#808080" begin="reset.mouseover" end="reset.mouseout"/>
                       </use>
               </g>
        </defs>

<script type="text/javascript">
var viewWidth = 1740;
var viewHeight = 374;
var sectionId = 'dynsection-1';
</script>
<script xlink:href="svgpan.js"/>
<svg id="graph" class="graph">
<g id="viewport">
<title>src/Core/Animation/Pose.hpp</title>
<polygon fill="#ffffff" stroke="transparent" points="-4,4 -4,-370 1736,-370 1736,4 -4,4"/>
<!-- Node11 -->
<g id="node1" class="node">
<title>Node11</title>
<polygon fill="#bfbfbf" stroke="#000000" points="899,-335.5 899,-365.5 1009,-365.5 1009,-335.5 899,-335.5"/>
<text text-anchor="start" x="907" y="-353.5" font-family="Helvetica,sans-Serif" font-size="10.00" fill="#000000">src/Core/Animation</text>
<text text-anchor="middle" x="954" y="-342.5" font-family="Helvetica,sans-Serif" font-size="10.00" fill="#000000">/Pose.hpp</text>
</g>
<!-- Node12 -->
<g id="node2" class="node">
<title>Node12</title>
<g id="a_node2"><a xlink:href="Animation_8hpp.html" target="_top" xlink:title="src/Core/Animation\l/Animation.hpp">
<polygon fill="#ffffff" stroke="#000000" points="0,-268.5 0,-298.5 110,-298.5 110,-268.5 0,-268.5"/>
<text text-anchor="start" x="8" y="-286.5" font-family="Helvetica,sans-Serif" font-size="10.00" fill="#000000">src/Core/Animation</text>
<text text-anchor="middle" x="55" y="-275.5" font-family="Helvetica,sans-Serif" font-size="10.00" fill="#000000">/Animation.hpp</text>
</a>
</g>
</g>
<!-- Node11&#45;&gt;Node12 -->
<g id="edge1" class="edge">
<title>Node11&#45;&gt;Node12</title>
<path fill="none" stroke="#191970" d="M888.823,-347.9661C719.2523,-341.1356 267.2202,-321.3415 119,-299 116.0608,-298.557 113.0585,-298.044 110.0361,-297.48"/>
<polygon fill="#191970" stroke="#191970" points="888.7244,-351.4649 898.8566,-348.3684 889.0049,-344.4705 888.7244,-351.4649"/>
</g>
<!-- Node14 -->
<g id="node4" class="node">
<title>Node14</title>
<g id="a_node4"><a xlink:href="PoseOperation_8hpp.html" target="_top" xlink:title="src/Core/Animation\l/PoseOperation.hpp">
<polygon fill="#ffffff" stroke="#000000" points="128,-268.5 128,-298.5 240,-298.5 240,-268.5 128,-268.5"/>
<text text-anchor="start" x="136" y="-286.5" font-family="Helvetica,sans-Serif" font-size="10.00" fill="#000000">src/Core/Animation</text>
<text text-anchor="middle" x="184" y="-275.5" font-family="Helvetica,sans-Serif" font-size="10.00" fill="#000000">/PoseOperation.hpp</text>
</a>
</g>
</g>
<!-- Node11&#45;&gt;Node14 -->
<g id="edge3" class="edge">
<title>Node11&#45;&gt;Node14</title>
<path fill="none" stroke="#191970" d="M888.4885,-346.0928C772.3982,-338.0919 523.0037,-320.0444 313,-299 289.0966,-296.6046 262.7557,-293.5197 240.1423,-290.7336"/>
<polygon fill="#191970" stroke="#191970" points="888.4143,-349.5958 898.6307,-346.7896 888.8941,-342.6123 888.4143,-349.5958"/>
</g>
<!-- Node16 -->
<g id="node6" class="node">
<title>Node16</title>
<g id="a_node6"><a xlink:href="BulgeCorrection_8hpp.html" target="_top" xlink:title="src/Core/Animation\l/BulgeCorrection.hpp">
<polygon fill="#ffffff" stroke="#000000" points="322.5,-268.5 322.5,-298.5 441.5,-298.5 441.5,-268.5 322.5,-268.5"/>
<text text-anchor="start" x="330.5" y="-286.5" font-family="Helvetica,sans-Serif" font-size="10.00" fill="#000000">src/Core/Animation</text>
<text text-anchor="middle" x="382" y="-275.5" font-family="Helvetica,sans-Serif" font-size="10.00" fill="#000000">/BulgeCorrection.hpp</text>
</a>
</g>
</g>
<!-- Node11&#45;&gt;Node16 -->
<g id="edge6" class="edge">
<title>Node11&#45;&gt;Node16</title>
<path fill="none" stroke="#191970" d="M888.7535,-342.8575C776.8043,-329.7446 549.7737,-303.1518 441.7342,-290.4968"/>
<polygon fill="#191970" stroke="#191970" points="888.5553,-346.3581 898.8946,-344.0453 889.3697,-339.4057 888.5553,-346.3581"/>
</g>
<!-- Node18 -->
<g id="node8" class="node">
<title>Node18</title>
<g id="a_node8"><a xlink:href="HandleArray_8hpp.html" target="_top" xlink:title="src/Core/Animation\l/HandleArray.hpp">
<polygon fill="#ffffff" stroke="#000000" points="587,-268.5 587,-298.5 697,-298.5 697,-268.5 587,-268.5"/>
<text text-anchor="start" x="595" y="-286.5" font-family="Helvetica,sans-Serif" font-size="10.00" fill="#000000">src/Core/Animation</text>
<text text-anchor="middle" x="642" y="-275.5" font-family="Helvetica,sans-Serif" font-size="10.00" fill="#000000">/HandleArray.hpp</text>
</a>
</g>
</g>
<!-- Node11&#45;&gt;Node18 -->
<g id="edge8" class="edge">
<title>Node11&#45;&gt;Node18</title>
<path fill="none" stroke="#191970" d="M888.9876,-336.539C832.1923,-324.3426 750.6603,-306.8341 697.0346,-295.3183"/>
<polygon fill="#191970" stroke="#191970" points="888.4269,-339.9983 898.9389,-338.676 889.8966,-333.1543 888.4269,-339.9983"/>
</g>
<!-- Node24 -->
<g id="node14" class="node">
<title>Node24</title>
<g id="a_node14"><a xlink:href="SkinningData_8hpp.html" target="_top" xlink:title="src/Core/Animation\l/SkinningData.hpp">
<polygon fill="#ffffff" stroke="#000000" points="956,-134.5 956,-164.5 1066,-164.5 1066,-134.5 956,-134.5"/>
<text text-anchor="start" x="964" y="-152.5" font-family="Helvetica,sans-Serif" font-size="10.00" fill="#000000">src/Core/Animation</text>
<text text-anchor="middle" x="1011" y="-141.5" font-family="Helvetica,sans-Serif" font-size="10.00" fill="#000000">/SkinningData.hpp</text>
</a>
</g>
</g>
<!-- Node11&#45;&gt;Node24 -->
<g id="edge29" class="edge">
<title>Node11&#45;&gt;Node24</title>
<path fill="none" stroke="#191970" d="M954.937,-324.9361C956.762,-294.4987 962.1418,-242.5601 978,-201 982.9971,-187.9038 991.6147,-174.6208 998.7905,-164.8255"/>
<polygon fill="#191970" stroke="#191970" points="951.4317,-324.9512 954.4126,-335.118 958.4224,-325.3113 951.4317,-324.9512"/>
</g>
<!-- Node26 -->
<g id="node16" class="node">
<title>Node26</title>
<g id="a_node16"><a xlink:href="RotationCenterSkinning_8cpp.html" target="_top" xlink:title="src/Core/Animation\l/RotationCenterSkinning.cpp">
<polygon fill="#ffffff" stroke="#000000" points="1168.5,-.5 1168.5,-30.5 1323.5,-30.5 1323.5,-.5 1168.5,-.5"/>
<text text-anchor="start" x="1176.5" y="-18.5" font-family="Helvetica,sans-Serif" font-size="10.00" fill="#000000">src/Core/Animation</text>
<text text-anchor="middle" x="1246" y="-7.5" font-family="Helvetica,sans-Serif" font-size="10.00" fill="#000000">/RotationCenterSkinning.cpp</text>
</a>
</g>
</g>
<!-- Node11&#45;&gt;Node26 -->
<g id="edge30" class="edge">
<title>Node11&#45;&gt;Node26</title>
<path fill="none" stroke="#191970" d="M1019.6158,-348.2311C1116.4207,-343.8291 1291.8029,-331.5115 1345,-299 1383.0276,-275.7594 1402,-261.0671 1402,-216.5 1402,-216.5 1402,-216.5 1402,-149.5 1402,-89.1617 1334.0142,-50.0907 1287.8051,-30.5034"/>
<polygon fill="#191970" stroke="#191970" points="1019.1934,-344.7462 1009.3565,-348.6813 1019.5004,-351.7394 1019.1934,-344.7462"/>
</g>
<!-- Node28 -->
<g id="node18" class="node">
<title>Node28</title>
<g id="a_node18"><a xlink:href="StretchableTwistableBoneSkinning_8hpp.html" target="_top" xlink:title="src/Core/Animation\l/StretchableTwistableBoneSkinning.hpp">
<polygon fill="#ffffff" stroke="#000000" points="728.5,-134.5 728.5,-164.5 937.5,-164.5 937.5,-134.5 728.5,-134.5"/>
<text text-anchor="start" x="736.5" y="-152.5" font-family="Helvetica,sans-Serif" font-size="10.00" fill="#000000">src/Core/Animation</text>
<text text-anchor="middle" x="833" y="-141.5" font-family="Helvetica,sans-Serif" font-size="10.00" fill="#000000">/StretchableTwistableBoneSkinning.hpp</text>
</a>
</g>
</g>
<!-- Node11&#45;&gt;Node28 -->
<g id="edge34" class="edge">
<title>Node11&#45;&gt;Node28</title>
<path fill="none" stroke="#191970" d="M948.6594,-325.1187C941.1237,-293.6872 925.0577,-239.5847 897,-201 886.4316,-186.4665 870.7626,-173.7636 857.574,-164.61"/>
<polygon fill="#191970" stroke="#191970" points="945.3306,-326.2621 950.9748,-335.2283 952.1539,-324.6992 945.3306,-326.2621"/>
</g>
<!-- Node31 -->
<g id="node21" class="node">
<title>Node31</title>
<g id="a_node21"><a xlink:href="DualQuaternionSkinning_8hpp.html" target="_top" xlink:title="src/Core/Animation\l/DualQuaternionSkinning.hpp">
<polygon fill="#ffffff" stroke="#000000" points="981.5,-268.5 981.5,-298.5 1140.5,-298.5 1140.5,-268.5 981.5,-268.5"/>
<text text-anchor="start" x="989.5" y="-286.5" font-family="Helvetica,sans-Serif" font-size="10.00" fill="#000000">src/Core/Animation</text>
<text text-anchor="middle" x="1061" y="-275.5" font-family="Helvetica,sans-Serif" font-size="10.00" fill="#000000">/DualQuaternionSkinning.hpp</text>
</a>
</g>
</g>
<!-- Node11&#45;&gt;Node31 -->
<g id="edge22" class="edge">
<title>Node11&#45;&gt;Node31</title>
<path fill="none" stroke="#191970" d="M986.6173,-330.0761C1002.745,-319.9774 1021.8758,-307.9983 1036.697,-298.7177"/>
<polygon fill="#191970" stroke="#191970" points="984.6309,-327.1903 978.0129,-335.4639 988.3459,-333.1232 984.6309,-327.1903"/>
</g>
<!-- Node33 -->
<g id="node23" class="node">
<title>Node33</title>
<g id="a_node23"><a xlink:href="KeyPose_8hpp.html" target="_top" xlink:title="src/Core/Animation\l/KeyPose.hpp">
<polygon fill="#ffffff" stroke="#000000" points="1430,-268.5 1430,-298.5 1540,-298.5 1540,-268.5 1430,-268.5"/>
<text text-anchor="start" x="1438" y="-286.5" font-family="Helvetica,sans-Serif" font-size="10.00" fill="#000000">src/Core/Animation</text>
<text text-anchor="middle" x="1485" y="-275.5" font-family="Helvetica,sans-Serif" font-size="10.00" fill="#000000">/KeyPose.hpp</text>
</a>
</g>
</g>
<!-- Node11&#45;&gt;Node33 -->
<g id="edge25" class="edge">
<title>Node11&#45;&gt;Node33</title>
<path fill="none" stroke="#191970" d="M1019.0564,-345.5182C1108.7759,-338.132 1275.3618,-322.5616 1416,-299 1420.4803,-298.2494 1425.1069,-297.392 1429.7439,-296.4743"/>
<polygon fill="#191970" stroke="#191970" points="1018.714,-342.0344 1009.0316,-346.3357 1019.283,-349.0113 1018.714,-342.0344"/>
</g>
<!-- Node34 -->
<g id="node24" class="node">
<title>Node34</title>
<g id="a_node24"><a xlink:href="LinearBlendSkinning_8hpp.html" target="_top" xlink:title="src/Core/Animation\l/LinearBlendSkinning.hpp">
<polygon fill="#ffffff" stroke="#000000" points="1196,-268.5 1196,-298.5 1336,-298.5 1336,-268.5 1196,-268.5"/>
<text text-anchor="start" x="1204" y="-286.5" font-family="Helvetica,sans-Serif" font-size="10.00" fill="#000000">src/Core/Animation</text>
<text text-anchor="middle" x="1266" y="-275.5" font-family="Helvetica,sans-Serif" font-size="10.00" fill="#000000">/LinearBlendSkinning.hpp</text>
</a>
</g>
</g>
<!-- Node11&#45;&gt;Node34 -->
<g id="edge26" class="edge">
<title>Node11&#45;&gt;Node34</title>
<path fill="none" stroke="#191970" d="M1019.1156,-336.5169C1070.8094,-325.4159 1142.9477,-309.9247 1195.8999,-298.5536"/>
<polygon fill="#191970" stroke="#191970" points="1018.1034,-333.1543 1009.0611,-338.676 1019.5731,-339.9983 1018.1034,-333.1543"/>
</g>
<!-- Node36 -->
<g id="node26" class="node">
<title>Node36</title>
<g id="a_node26"><a xlink:href="Sequence_8hpp.html" target="_top" xlink:title="src/Core/Animation\l/Sequence.hpp">
<polygon fill="#ffffff" stroke="#000000" points="1558,-268.5 1558,-298.5 1668,-298.5 1668,-268.5 1558,-268.5"/>
<text text-anchor="start" x="1566" y="-286.5" font-family="Helvetica,sans-Serif" font-size="10.00" fill="#000000">src/Core/Animation</text>
<text text-anchor="middle" x="1613" y="-275.5" font-family="Helvetica,sans-Serif" font-size="10.00" fill="#000000">/Sequence.hpp</text>
</a>
</g>
</g>
<!-- Node11&#45;&gt;Node36 -->
<g id="edge31" class="edge">
<title>Node11&#45;&gt;Node36</title>
<path fill="none" stroke="#191970" d="M1019.5806,-348.0679C1129.6302,-343.2631 1358.1749,-330.1822 1549,-299 1551.9335,-298.5206 1554.9313,-297.9788 1557.95,-297.392"/>
<polygon fill="#191970" stroke="#191970" points="1019.147,-344.5831 1009.3057,-348.5073 1019.4462,-351.5767 1019.147,-344.5831"/>
</g>
<!-- Node13 -->
<g id="node3" class="node">
<title>Node13</title>
<g id="a_node3"><a xlink:href="Animation_8cpp.html" target="_top" xlink:title="src/Core/Animation\l/Animation.cpp">
<polygon fill="#ffffff" stroke="#000000" points="0,-201.5 0,-231.5 110,-231.5 110,-201.5 0,-201.5"/>
<text text-anchor="start" x="8" y="-219.5" font-family="Helvetica,sans-Serif" font-size="10.00" fill="#000000">src/Core/Animation</text>
<text text-anchor="middle" x="55" y="-208.5" font-family="Helvetica,sans-Serif" font-size="10.00" fill="#000000">/Animation.cpp</text>
</a>
</g>
</g>
<!-- Node12&#45;&gt;Node13 -->
<g id="edge2" class="edge">
<title>Node12&#45;&gt;Node13</title>
<path fill="none" stroke="#191970" d="M55,-258.0249C55,-249.128 55,-239.4287 55,-231.6432"/>
<polygon fill="#191970" stroke="#191970" points="51.5001,-258.2966 55,-268.2967 58.5001,-258.2967 51.5001,-258.2966"/>
</g>
<!-- Node14&#45;&gt;Node13 -->
<g id="edge4" class="edge">
<title>Node14&#45;&gt;Node13</title>
<path fill="none" stroke="#191970" d="M146.0207,-263.7743C126.3033,-253.5335 102.5821,-241.2132 84.2998,-231.7177"/>
<polygon fill="#191970" stroke="#191970" points="144.5622,-266.9607 155.0499,-268.4639 147.7887,-260.7486 144.5622,-266.9607"/>
</g>
<!-- Node15 -->
<g id="node5" class="node">
<title>Node15</title>
<g id="a_node5"><a xlink:href="PoseOperation_8cpp.html" target="_top" xlink:title="src/Core/Animation\l/PoseOperation.cpp">
<polygon fill="#ffffff" stroke="#000000" points="128.5,-201.5 128.5,-231.5 239.5,-231.5 239.5,-201.5 128.5,-201.5"/>
<text text-anchor="start" x="136.5" y="-219.5" font-family="Helvetica,sans-Serif" font-size="10.00" fill="#000000">src/Core/Animation</text>
<text text-anchor="middle" x="184" y="-208.5" font-family="Helvetica,sans-Serif" font-size="10.00" fill="#000000">/PoseOperation.cpp</text>
</a>
</g>
</g>
<!-- Node14&#45;&gt;Node15 -->
<g id="edge5" class="edge">
<title>Node14&#45;&gt;Node15</title>
<path fill="none" stroke="#191970" d="M184,-258.0249C184,-249.128 184,-239.4287 184,-231.6432"/>
<polygon fill="#191970" stroke="#191970" points="180.5001,-258.2966 184,-268.2967 187.5001,-258.2967 180.5001,-258.2966"/>
</g>
<!-- Node17 -->
<g id="node7" class="node">
<title>Node17</title>
<g id="a_node7"><a xlink:href="BulgeCorrection_8cpp.html" target="_top" xlink:title="src/Core/Animation\l/BulgeCorrection.cpp">
<polygon fill="#ffffff" stroke="#000000" points="258,-201.5 258,-231.5 376,-231.5 376,-201.5 258,-201.5"/>
<text text-anchor="start" x="266" y="-219.5" font-family="Helvetica,sans-Serif" font-size="10.00" fill="#000000">src/Core/Animation</text>
<text text-anchor="middle" x="317" y="-208.5" font-family="Helvetica,sans-Serif" font-size="10.00" fill="#000000">/BulgeCorrection.cpp</text>
</a>
</g>
</g>
<!-- Node16&#45;&gt;Node17 -->
<g id="edge7" class="edge">
<title>Node16&#45;&gt;Node17</title>
<path fill="none" stroke="#191970" d="M360.0992,-260.9253C350.7445,-251.2828 340.0743,-240.2843 331.6911,-231.6432"/>
<polygon fill="#191970" stroke="#191970" points="357.7752,-263.5564 367.2505,-268.2967 362.7994,-258.6821 357.7752,-263.5564"/>
</g>
<!-- Node19 -->
<g id="node9" class="node">
<title>Node19</title>
<g id="a_node9"><a xlink:href="Cage_8hpp.html" target="_top" xlink:title="src/Core/Animation\l/Cage.hpp">
<polygon fill="#ffffff" stroke="#000000" points="650,-201.5 650,-231.5 760,-231.5 760,-201.5 650,-201.5"/>
<text text-anchor="start" x="658" y="-219.5" font-family="Helvetica,sans-Serif" font-size="10.00" fill="#000000">src/Core/Animation</text>
<text text-anchor="middle" x="705" y="-208.5" font-family="Helvetica,sans-Serif" font-size="10.00" fill="#000000">/Cage.hpp</text>
</a>
</g>
</g>
<!-- Node18&#45;&gt;Node19 -->
<g id="edge9" class="edge">
<title>Node18&#45;&gt;Node19</title>
<path fill="none" stroke="#191970" d="M663.227,-260.9253C672.2938,-251.2828 682.6357,-240.2843 690.7609,-231.6432"/>
<polygon fill="#191970" stroke="#191970" points="660.5961,-258.6138 656.2957,-268.2967 665.6958,-263.409 660.5961,-258.6138"/>
</g>
<!-- Node21 -->
<g id="node11" class="node">
<title>Node21</title>
<g id="a_node11"><a xlink:href="HandleArray_8inl.html" target="_top" xlink:title="src/Core/Animation\l/HandleArray.inl">
<polygon fill="#ffffff" stroke="#000000" points="394,-201.5 394,-231.5 504,-231.5 504,-201.5 394,-201.5"/>
<text text-anchor="start" x="402" y="-219.5" font-family="Helvetica,sans-Serif" font-size="10.00" fill="#000000">src/Core/Animation</text>
<text text-anchor="middle" x="449" y="-208.5" font-family="Helvetica,sans-Serif" font-size="10.00" fill="#000000">/HandleArray.inl</text>
</a>
</g>
</g>
<!-- Node18&#45;&gt;Node21 -->
<g id="edge11" class="edge">
<title>Node18&#45;&gt;Node21</title>
<path fill="none" stroke="#191970" d="M583.4208,-265.2759C552.0139,-254.7165 514.2857,-241.5805 486.7534,-231.6017"/>
<polygon fill="#191970" stroke="#191970" points="582.3527,-268.6092 592.9465,-268.4639 584.5743,-261.9711 582.3527,-268.6092"/>
</g>
<!-- Node22 -->
<g id="node12" class="node">
<title>Node22</title>
<g id="a_node12"><a xlink:href="HandleArray_8cpp.html" target="_top" xlink:title="src/Core/Animation\l/HandleArray.cpp">
<polygon fill="#ffffff" stroke="#000000" points="522,-201.5 522,-231.5 632,-231.5 632,-201.5 522,-201.5"/>
<text text-anchor="start" x="530" y="-219.5" font-family="Helvetica,sans-Serif" font-size="10.00" fill="#000000">src/Core/Animation</text>
<text text-anchor="middle" x="577" y="-208.5" font-family="Helvetica,sans-Serif" font-size="10.00" fill="#000000">/HandleArray.cpp</text>
</a>
</g>
</g>
<!-- Node18&#45;&gt;Node22 -->
<g id="edge13" class="edge">
<title>Node18&#45;&gt;Node22</title>
<path fill="none" stroke="#191970" d="M620.0992,-260.9253C610.7445,-251.2828 600.0743,-240.2843 591.6911,-231.6432"/>
<polygon fill="#191970" stroke="#191970" points="617.7752,-263.5564 627.2505,-268.2967 622.7994,-258.6821 617.7752,-263.5564"/>
</g>
<!-- Node23 -->
<g id="node13" class="node">
<title>Node23</title>
<g id="a_node13"><a xlink:href="Skeleton_8hpp.html" target="_top" xlink:title="src/Core/Animation\l/Skeleton.hpp">
<polygon fill="#ffffff" stroke="#000000" points="778,-201.5 778,-231.5 888,-231.5 888,-201.5 778,-201.5"/>
<text text-anchor="start" x="786" y="-219.5" font-family="Helvetica,sans-Serif" font-size="10.00" fill="#000000">src/Core/Animation</text>
<text text-anchor="middle" x="833" y="-208.5" font-family="Helvetica,sans-Serif" font-size="10.00" fill="#000000">/Skeleton.hpp</text>
</a>
</g>
</g>
<!-- Node18&#45;&gt;Node23 -->
<g id="edge14" class="edge">
<title>Node18&#45;&gt;Node23</title>
<path fill="none" stroke="#191970" d="M694.3419,-265.1392C724.3771,-254.6033 761.6245,-241.5375 789.9489,-231.6017"/>
<polygon fill="#191970" stroke="#191970" points="693.1418,-261.851 684.8641,-268.4639 695.459,-268.4564 693.1418,-261.851"/>
</g>
<!-- Node20 -->
<g id="node10" class="node">
<title>Node20</title>
<g id="a_node10"><a xlink:href="Cage_8cpp.html" target="_top" xlink:title="src/Core/Animation\l/Cage.cpp">
<polygon fill="#ffffff" stroke="#000000" points="257,-134.5 257,-164.5 367,-164.5 367,-134.5 257,-134.5"/>
<text text-anchor="start" x="265" y="-152.5" font-family="Helvetica,sans-Serif" font-size="10.00" fill="#000000">src/Core/Animation</text>
<text text-anchor="middle" x="312" y="-141.5" font-family="Helvetica,sans-Serif" font-size="10.00" fill="#000000">/Cage.cpp</text>
</a>
</g>
</g>
<!-- Node19&#45;&gt;Node20 -->
<g id="edge10" class="edge">
<title>Node19&#45;&gt;Node20</title>
<path fill="none" stroke="#191970" d="M639.8144,-200.8985C522.4167,-179.3993 489.6087,-186.4157 376,-165 373.079,-164.4494 370.0912,-163.8507 367.0803,-163.2195"/>
<polygon fill="#191970" stroke="#191970" points="639.4479,-204.3903 649.9197,-202.7805 640.7296,-197.5086 639.4479,-204.3903"/>
</g>
<!-- Node21&#45;&gt;Node18 -->
<g id="edge12" class="edge">
<title>Node21&#45;&gt;Node18</title>
<path fill="none" stroke="#191970" d="M507.7859,-234.7936C539.2204,-245.3642 576.94,-258.499 604.4276,-268.4639"/>
<polygon fill="#191970" stroke="#191970" points="508.8442,-231.457 498.2504,-231.6017 506.6222,-238.095 508.8442,-231.457"/>
</g>
<!-- Node23&#45;&gt;Node24 -->
<g id="edge15" class="edge">
<title>Node23&#45;&gt;Node24</title>
<path fill="none" stroke="#191970" d="M882.5079,-197.865C910.3707,-187.3773 944.7111,-174.4515 970.8791,-164.6017"/>
<polygon fill="#191970" stroke="#191970" points="881.0727,-194.6654 872.9467,-201.4639 883.5386,-201.2167 881.0727,-194.6654"/>
</g>
<!-- Node27 -->
<g id="node17" class="node">
<title>Node27</title>
<g id="a_node17"><a xlink:href="Skeleton_8cpp.html" target="_top" xlink:title="src/Core/Animation\l/Skeleton.cpp">
<polygon fill="#ffffff" stroke="#000000" points="385,-134.5 385,-164.5 495,-164.5 495,-134.5 385,-134.5"/>
<text text-anchor="start" x="393" y="-152.5" font-family="Helvetica,sans-Serif" font-size="10.00" fill="#000000">src/Core/Animation</text>
<text text-anchor="middle" x="440" y="-141.5" font-family="Helvetica,sans-Serif" font-size="10.00" fill="#000000">/Skeleton.cpp</text>
</a>
</g>
</g>
<!-- Node23&#45;&gt;Node27 -->
<g id="edge18" class="edge">
<title>Node23&#45;&gt;Node27</title>
<path fill="none" stroke="#191970" d="M767.8144,-200.8985C650.4167,-179.3993 617.6087,-186.4157 504,-165 501.079,-164.4494 498.0912,-163.8507 495.0803,-163.2195"/>
<polygon fill="#191970" stroke="#191970" points="767.4479,-204.3903 777.9197,-202.7805 768.7296,-197.5086 767.4479,-204.3903"/>
</g>
<!-- Node23&#45;&gt;Node28 -->
<g id="edge19" class="edge">
<title>Node23&#45;&gt;Node28</title>
<path fill="none" stroke="#191970" d="M833,-191.0249C833,-182.128 833,-172.4287 833,-164.6432"/>
<polygon fill="#191970" stroke="#191970" points="829.5001,-191.2966 833,-201.2967 836.5001,-191.2967 829.5001,-191.2966"/>
</g>
<!-- Node30 -->
<g id="node20" class="node">
<title>Node30</title>
<g id="a_node20"><a xlink:href="HandleToSkeleton_8cpp.html" target="_top" xlink:title="src/Core/Asset/HandleToSkeleton.cpp">
<polygon fill="#ffffff" stroke="#000000" points="513.5,-140 513.5,-159 710.5,-159 710.5,-140 513.5,-140"/>
<text text-anchor="middle" x="612" y="-147" font-family="Helvetica,sans-Serif" font-size="10.00" fill="#000000">src/Core/Asset/HandleToSkeleton.cpp</text>
</a>
</g>
</g>
<!-- Node23&#45;&gt;Node30 -->
<g id="edge21" class="edge">
<title>Node23&#45;&gt;Node30</title>
<path fill="none" stroke="#191970" d="M773.5772,-198.4849C731.6411,-185.7713 677.1214,-169.2427 643.3533,-159.0053"/>
<polygon fill="#191970" stroke="#191970" points="772.8179,-201.912 783.4033,-201.4639 774.8489,-195.2131 772.8179,-201.912"/>
</g>
<!-- Node25 -->
<g id="node15" class="node">
<title>Node25</title>
<g id="a_node15"><a xlink:href="RotationCenterSkinning_8hpp.html" target="_top" xlink:title="src/Core/Animation\l/RotationCenterSkinning.hpp">
<polygon fill="#ffffff" stroke="#000000" points="927.5,-67.5 927.5,-97.5 1082.5,-97.5 1082.5,-67.5 927.5,-67.5"/>
<text text-anchor="start" x="935.5" y="-85.5" font-family="Helvetica,sans-Serif" font-size="10.00" fill="#000000">src/Core/Animation</text>
<text text-anchor="middle" x="1005" y="-74.5" font-family="Helvetica,sans-Serif" font-size="10.00" fill="#000000">/RotationCenterSkinning.hpp</text>
</a>
</g>
</g>
<!-- Node24&#45;&gt;Node25 -->
<g id="edge16" class="edge">
<title>Node24&#45;&gt;Node25</title>
<path fill="none" stroke="#191970" d="M1008.7449,-124.3179C1007.941,-115.3414 1007.061,-105.5143 1006.3561,-97.6432"/>
<polygon fill="#191970" stroke="#191970" points="1005.2604,-124.6487 1009.6385,-134.2967 1012.2325,-124.0243 1005.2604,-124.6487"/>
</g>
<!-- Node25&#45;&gt;Node26 -->
<g id="edge17" class="edge">
<title>Node25&#45;&gt;Node26</title>
<path fill="none" stroke="#191970" d="M1069.0836,-64.6842C1107.3107,-54.0568 1155.321,-40.7095 1191.679,-30.6017"/>
<polygon fill="#191970" stroke="#191970" points="1067.7822,-61.4132 1059.0851,-67.4639 1069.6572,-68.1574 1067.7822,-61.4132"/>
</g>
<!-- Node29 -->
<g id="node19" class="node">
<title>Node29</title>
<g id="a_node19"><a xlink:href="StretchableTwistableBoneSkinning_8cpp.html" target="_top" xlink:title="src/Core/Animation\l/StretchableTwistableBoneSkinning.cpp">
<polygon fill="#ffffff" stroke="#000000" points="701,-67.5 701,-97.5 909,-97.5 909,-67.5 701,-67.5"/>
<text text-anchor="start" x="709" y="-85.5" font-family="Helvetica,sans-Serif" font-size="10.00" fill="#000000">src/Core/Animation</text>
<text text-anchor="middle" x="805" y="-74.5" font-family="Helvetica,sans-Serif" font-size="10.00" fill="#000000">/StretchableTwistableBoneSkinning.cpp</text>
</a>
</g>
</g>
<!-- Node28&#45;&gt;Node29 -->
<g id="edge20" class="edge">
<title>Node28&#45;&gt;Node29</title>
<path fill="none" stroke="#191970" d="M822.7203,-124.9021C818.9037,-115.7696 814.6894,-105.6854 811.3285,-97.6432"/>
<polygon fill="#191970" stroke="#191970" points="819.561,-126.4196 826.6464,-134.2967 826.0197,-123.7204 819.561,-126.4196"/>
</g>
<!-- Node31&#45;&gt;Node26 -->
<g id="edge24" class="edge">
<title>Node31&#45;&gt;Node26</title>
<path fill="none" stroke="#191970" d="M1033.0222,-261.2799C1015.7422,-244.7385 998.9751,-221.5607 1011,-201 1027.476,-172.8286 1048.3516,-183.8402 1075,-165 1136.8222,-121.2922 1202.0986,-59.0524 1230.8729,-30.6642"/>
<polygon fill="#191970" stroke="#191970" points="1031.1257,-264.2825 1040.8962,-268.3798 1035.8133,-259.0838 1031.1257,-264.2825"/>
</g>
<!-- Node32 -->
<g id="node22" class="node">
<title>Node32</title>
<g id="a_node22"><a xlink:href="DualQuaternionSkinning_8cpp.html" target="_top" xlink:title="src/Core/Animation\l/DualQuaternionSkinning.cpp">
<polygon fill="#ffffff" stroke="#000000" points="1020,-201.5 1020,-231.5 1178,-231.5 1178,-201.5 1020,-201.5"/>
<text text-anchor="start" x="1028" y="-219.5" font-family="Helvetica,sans-Serif" font-size="10.00" fill="#000000">src/Core/Animation</text>
<text text-anchor="middle" x="1099" y="-208.5" font-family="Helvetica,sans-Serif" font-size="10.00" fill="#000000">/DualQuaternionSkinning.cpp</text>
</a>
</g>
</g>
<!-- Node31&#45;&gt;Node32 -->
<g id="edge23" class="edge">
<title>Node31&#45;&gt;Node32</title>
<path fill="none" stroke="#191970" d="M1074.6212,-259.4837C1079.8868,-250.1996 1085.753,-239.8565 1090.4113,-231.6432"/>
<polygon fill="#191970" stroke="#191970" points="1071.5118,-257.8716 1069.6228,-268.2967 1077.6007,-261.325 1071.5118,-257.8716"/>
</g>
<!-- Node34&#45;&gt;Node26 -->
<g id="edge28" class="edge">
<title>Node34&#45;&gt;Node26</title>
<path fill="none" stroke="#191970" d="M1312.9678,-263.4304C1325.6532,-255.5771 1337.839,-245.2164 1345,-232 1351.5636,-219.8861 1348.3435,-214.3659 1345,-201 1327.8144,-132.2985 1279.822,-61.1938 1257.5837,-30.7822"/>
<polygon fill="#191970" stroke="#191970" points="1311.1016,-260.4657 1304.1614,-268.471 1314.579,-266.5409 1311.1016,-260.4657"/>
</g>
<!-- Node35 -->
<g id="node25" class="node">
<title>Node35</title>
<g id="a_node25"><a xlink:href="LinearBlendSkinning_8cpp.html" target="_top" xlink:title="src/Core/Animation\l/LinearBlendSkinning.cpp">
<polygon fill="#ffffff" stroke="#000000" points="1196,-201.5 1196,-231.5 1336,-231.5 1336,-201.5 1196,-201.5"/>
<text text-anchor="start" x="1204" y="-219.5" font-family="Helvetica,sans-Serif" font-size="10.00" fill="#000000">src/Core/Animation</text>
<text text-anchor="middle" x="1266" y="-208.5" font-family="Helvetica,sans-Serif" font-size="10.00" fill="#000000">/LinearBlendSkinning.cpp</text>
</a>
</g>
</g>
<!-- Node34&#45;&gt;Node35 -->
<g id="edge27" class="edge">
<title>Node34&#45;&gt;Node35</title>
<path fill="none" stroke="#191970" d="M1266,-258.0249C1266,-249.128 1266,-239.4287 1266,-231.6432"/>
<polygon fill="#191970" stroke="#191970" points="1262.5001,-258.2966 1266,-268.2967 1269.5001,-258.2967 1262.5001,-258.2966"/>
</g>
<!-- Node37 -->
<g id="node27" class="node">
<title>Node37</title>
<g id="a_node27"><a xlink:href="Sequence_8cpp.html" target="_top" xlink:title="src/Core/Animation\l/Sequence.cpp">
<polygon fill="#ffffff" stroke="#000000" points="1494,-201.5 1494,-231.5 1604,-231.5 1604,-201.5 1494,-201.5"/>
<text text-anchor="start" x="1502" y="-219.5" font-family="Helvetica,sans-Serif" font-size="10.00" fill="#000000">src/Core/Animation</text>
<text text-anchor="middle" x="1549" y="-208.5" font-family="Helvetica,sans-Serif" font-size="10.00" fill="#000000">/Sequence.cpp</text>
</a>
</g>
</g>
<!-- Node36&#45;&gt;Node37 -->
<g id="edge32" class="edge">
<title>Node36&#45;&gt;Node37</title>
<path fill="none" stroke="#191970" d="M1591.4361,-260.9253C1582.2254,-251.2828 1571.7193,-240.2843 1563.4651,-231.6432"/>
<polygon fill="#191970" stroke="#191970" points="1589.0392,-263.4831 1598.4774,-268.2967 1594.101,-258.648 1589.0392,-263.4831"/>
</g>
<!-- Node38 -->
<g id="node28" class="node">
<title>Node38</title>
<g id="a_node28"><a xlink:href="Sequence_8inl.html" target="_top" xlink:title="src/Core/Animation\l/Sequence.inl">
<polygon fill="#ffffff" stroke="#000000" points="1622,-201.5 1622,-231.5 1732,-231.5 1732,-201.5 1622,-201.5"/>
<text text-anchor="start" x="1630" y="-219.5" font-family="Helvetica,sans-Serif" font-size="10.00" fill="#000000">src/Core/Animation</text>
<text text-anchor="middle" x="1677" y="-208.5" font-family="Helvetica,sans-Serif" font-size="10.00" fill="#000000">/Sequence.inl</text>
</a>
</g>
</g>
<!-- Node36&#45;&gt;Node38 -->
<g id="edge33" class="edge">
<title>Node36&#45;&gt;Node38</title>
<path fill="none" stroke="#191970" d="M1634.5639,-260.9253C1643.7746,-251.2828 1654.2807,-240.2843 1662.5349,-231.6432"/>
<polygon fill="#191970" stroke="#191970" points="1631.899,-258.648 1627.5226,-268.2967 1636.9608,-263.4831 1631.899,-258.648"/>
</g>
</g>
</svg>
        <g id="navigator" transform="translate(0 0)" fill="#404254">
                <rect fill="#f2f5e9" fill-opacity="0.5" stroke="#606060" stroke-width=".5" x="0" y="0" width="60" height="60"/>
                <use id="zoomplus" xlink:href="#zoomPlus" x="17" y="9" onmousedown="handleZoom(evt,'in')"/>
                <use id="zoomminus" xlink:href="#zoomMin" x="42" y="9" onmousedown="handleZoom(evt,'out')"/>
                <use id="reset" xlink:href="#resetDef" x="30" y="36" onmousedown="handleReset()"/>
                <g id="arrowUp" xlink:href="#dirArrow" transform="translate(30 24)" onmousedown="handlePan(0,-1)">
                  <use xlink:href="#rim" fill="#404040">
                        <set attributeName="fill" to="#808080" begin="arrowUp.mouseover" end="arrowUp.mouseout"/>
                  </use>
                  <path fill="none" stroke="white" stroke-width="1.5" d="M0,-3.0v7 M-2.5,-0.5L0,-3.0L2.5,-0.5"/>
                </g>
                <g id="arrowRight" xlink:href="#dirArrow" transform="rotate(90) translate(36 -43)" onmousedown="handlePan(1,0)">
                  <use xlink:href="#rim" fill="#404040">
                        <set attributeName="fill" to="#808080" begin="arrowRight.mouseover" end="arrowRight.mouseout"/>
                  </use>
                  <path fill="none" stroke="white" stroke-width="1.5" d="M0,-3.0v7 M-2.5,-0.5L0,-3.0L2.5,-0.5"/>
                </g>
                <g id="arrowDown" xlink:href="#dirArrow" transform="rotate(180) translate(-30 -48)" onmousedown="handlePan(0,1)">
                  <use xlink:href="#rim" fill="#404040">
                        <set attributeName="fill" to="#808080" begin="arrowDown.mouseover" end="arrowDown.mouseout"/>
                  </use>
                  <path fill="none" stroke="white" stroke-width="1.5" d="M0,-3.0v7 M-2.5,-0.5L0,-3.0L2.5,-0.5"/>
                </g>
                <g id="arrowLeft" xlink:href="#dirArrow" transform="rotate(270) translate(-36 17)" onmousedown="handlePan(-1,0)">
                  <use xlink:href="#rim" fill="#404040">
                        <set attributeName="fill" to="#808080" begin="arrowLeft.mouseover" end="arrowLeft.mouseout"/>
                  </use>
                  <path fill="none" stroke="white" stroke-width="1.5" d="M0,-3.0v7 M-2.5,-0.5L0,-3.0L2.5,-0.5"/>
                </g>
        </g>
        <svg viewBox="0 0 15 15" width="100%" height="30px" preserveAspectRatio="xMaxYMin meet">
         <g id="arrow_out" transform="scale(0.3 0.3)">
          <a xlink:href="Pose_8hpp__dep__incl_org.svg" target="_base">
           <rect id="button" ry="5" rx="5" y="6" x="6" height="38" width="38"
                fill="#f2f5e9" fill-opacity="0.5" stroke="#606060" stroke-width="1.0"/>
           <path id="arrow"
             d="M 11.500037,31.436501 C 11.940474,20.09759 22.043105,11.32322 32.158766,21.979434 L 37.068811,17.246167 C 37.068811,17.246167 37.088388,32 37.088388,32 L 22.160133,31.978069 C 22.160133,31.978069 26.997745,27.140456 26.997745,27.140456 C 18.528582,18.264221 13.291696,25.230495 11.500037,31.436501 z"
             style="fill:#404040;"/>
          </a>
         </g>
        </svg>
</svg>
