<?xml version="1.0" encoding="UTF-8" standalone="no"?>
<!DOCTYPE svg PUBLIC "-//W3C//DTD SVG 1.1//EN"
 "http://www.w3.org/Graphics/SVG/1.1/DTD/svg11.dtd">
<!-- Generated by graphviz version 2.40.1 (20161225.0304)
 -->
<!-- Title: src/Engine/RadiumEngine.hpp Pages: 1 -->
<!--zoomable 251 -->
<svg id="main" version="1.1" xmlns="http://www.w3.org/2000/svg" xmlns:xlink="http://www.w3.org/1999/xlink" xml:space="preserve" onload="init(evt)">
<style type="text/css"><![CDATA[
.edge:hover path { stroke: red; }
.edge:hover polygon { stroke: red; fill: red; }
]]></style>
<script type="text/javascript"><![CDATA[
var edges = document.getElementsByTagName('g');
if (edges && edges.length) {
  for (var i=0;i<edges.length;i++) {
    if (edges[i].id.substr(0,4)=='edge') {
      edges[i].setAttribute('class','edge');
    }
  }
}
]]></script>
        <defs>
                <circle id="rim" cx="0" cy="0" r="7"/>
                <circle id="rim2" cx="0" cy="0" r="3.5"/>
                <g id="zoomPlus">
                        <use xlink:href="#rim" fill="#404040">
                                <set attributeName="fill" to="#808080" begin="zoomplus.mouseover" end="zoomplus.mouseout"/>
                        </use>
                        <path d="M-4,0h8M0,-4v8" fill="none" stroke="white" stroke-width="1.5" pointer-events="none"/>
                </g>
                <g id="zoomMin">
                        <use xlink:href="#rim" fill="#404040">
                                <set attributeName="fill" to="#808080" begin="zoomminus.mouseover" end="zoomminus.mouseout"/>
                        </use>
                        <path d="M-4,0h8" fill="none" stroke="white" stroke-width="1.5" pointer-events="none"/>
                </g>
                <g id="dirArrow">
                        <path fill="none" stroke="white" stroke-width="1.5" d="M0,-3.0v7 M-2.5,-0.5L0,-3.0L2.5,-0.5"/>
                </g>
               <g id="resetDef">
                       <use xlink:href="#rim2" fill="#404040">
                               <set attributeName="fill" to="#808080" begin="reset.mouseover" end="reset.mouseout"/>
                       </use>
               </g>
        </defs>

<script type="text/javascript">
var viewWidth = 3781;
var viewHeight = 251;
var sectionId = 'dynsection-1';
</script>
<script xlink:href="svgpan.js"/>
<svg id="graph" class="graph">
<g id="viewport">
<title>src/Engine/RadiumEngine.hpp</title>
<polygon fill="#ffffff" stroke="transparent" points="-4,4 -4,-247 3776.5,-247 3776.5,4 -4,4"/>
<!-- Node18 -->
<g id="node1" class="node">
<title>Node18</title>
<polygon fill="#bfbfbf" stroke="#000000" points="1622.5,-223.5 1622.5,-242.5 1783.5,-242.5 1783.5,-223.5 1622.5,-223.5"/>
<text text-anchor="middle" x="1703" y="-230.5" font-family="Helvetica,sans-Serif" font-size="10.00" fill="#000000">src/Engine/RadiumEngine.hpp</text>
</g>
<!-- Node19 -->
<g id="node2" class="node">
<title>Node19</title>
<g id="a_node2"><a xlink:href="Component_8cpp.html" target="_top" xlink:title="src/Engine/Component\l/Component.cpp">
<polygon fill="#ffffff" stroke="#000000" points="0,-151 0,-181 126,-181 126,-151 0,-151"/>
<text text-anchor="start" x="8" y="-169" font-family="Helvetica,sans-Serif" font-size="10.00" fill="#000000">src/Engine/Component</text>
<text text-anchor="middle" x="63" y="-158" font-family="Helvetica,sans-Serif" font-size="10.00" fill="#000000">/Component.cpp</text>
</a>
</g>
</g>
<!-- Node18&#45;&gt;Node19 -->
<g id="edge1" class="edge">
<title>Node18&#45;&gt;Node19</title>
<path fill="none" stroke="#191970" d="M1612.0343,-231.6806C1299.4387,-226.9599 280.4618,-209.9616 135,-187 126.1255,-185.5991 116.8043,-183.4278 107.922,-181.0032"/>
<polygon fill="#191970" stroke="#191970" points="1612.3585,-235.1857 1622.4101,-231.8367 1612.4639,-228.1865 1612.3585,-235.1857"/>
</g>
<!-- Node20 -->
<g id="node3" class="node">
<title>Node20</title>
<g id="a_node3"><a xlink:href="Entity_8cpp.html" target="_top" xlink:title="src/Engine/Entity/Entity.cpp">
<polygon fill="#ffffff" stroke="#000000" points="144.5,-156.5 144.5,-175.5 293.5,-175.5 293.5,-156.5 144.5,-156.5"/>
<text text-anchor="middle" x="219" y="-163.5" font-family="Helvetica,sans-Serif" font-size="10.00" fill="#000000">src/Engine/Entity/Entity.cpp</text>
</a>
</g>
</g>
<!-- Node18&#45;&gt;Node20 -->
<g id="edge2" class="edge">
<title>Node18&#45;&gt;Node20</title>
<path fill="none" stroke="#191970" d="M1612.1245,-232.5296C1343.671,-230.7416 557.1344,-222.5312 303,-187 285.4329,-184.5439 266.2136,-179.8903 250.5975,-175.5868"/>
<polygon fill="#191970" stroke="#191970" points="1612.1984,-236.0301 1622.221,-232.5955 1612.2441,-229.0302 1612.1984,-236.0301"/>
</g>
<!-- Node21 -->
<g id="node4" class="node">
<title>Node21</title>
<g id="a_node4"><a xlink:href="ItemEntry_8cpp.html" target="_top" xlink:title="src/Engine/ItemModel\l/ItemEntry.cpp">
<polygon fill="#ffffff" stroke="#000000" points="312,-151 312,-181 434,-181 434,-151 312,-151"/>
<text text-anchor="start" x="320" y="-169" font-family="Helvetica,sans-Serif" font-size="10.00" fill="#000000">src/Engine/ItemModel</text>
<text text-anchor="middle" x="373" y="-158" font-family="Helvetica,sans-Serif" font-size="10.00" fill="#000000">/ItemEntry.cpp</text>
</a>
</g>
</g>
<!-- Node18&#45;&gt;Node21 -->
<g id="edge3" class="edge">
<title>Node18&#45;&gt;Node21</title>
<path fill="none" stroke="#191970" d="M1612.1605,-232.6838C1362.2488,-231.3361 668.1217,-224.2486 443,-187 434.488,-185.5916 425.559,-183.4497 417.0352,-181.0634"/>
<polygon fill="#191970" stroke="#191970" points="1612.2762,-236.1844 1622.2944,-232.7366 1612.3128,-229.1845 1612.2762,-236.1844"/>
</g>
<!-- Node22 -->
<g id="node5" class="node">
<title>Node22</title>
<g id="a_node5"><a xlink:href="CameraManager_8cpp.html" target="_top" xlink:title="src/Engine/Managers\l/CameraManager/CameraManager.cpp">
<polygon fill="#ffffff" stroke="#000000" points="452.5,-151 452.5,-181 655.5,-181 655.5,-151 452.5,-151"/>
<text text-anchor="start" x="460.5" y="-169" font-family="Helvetica,sans-Serif" font-size="10.00" fill="#000000">src/Engine/Managers</text>
<text text-anchor="middle" x="554" y="-158" font-family="Helvetica,sans-Serif" font-size="10.00" fill="#000000">/CameraManager/CameraManager.cpp</text>
</a>
</g>
</g>
<!-- Node18&#45;&gt;Node22 -->
<g id="edge4" class="edge">
<title>Node18&#45;&gt;Node22</title>
<path fill="none" stroke="#191970" d="M1612.1263,-230.663C1394.1661,-224.7852 846.2712,-208.3204 664,-187 651.1585,-185.4979 637.566,-183.3592 624.4792,-181.0159"/>
<polygon fill="#191970" stroke="#191970" points="1612.1629,-234.1652 1622.2532,-230.9349 1612.3508,-227.1677 1612.1629,-234.1652"/>
</g>
<!-- Node23 -->
<g id="node6" class="node">
<title>Node23</title>
<g id="a_node6"><a xlink:href="DefaultCameraManager_8cpp.html" target="_top" xlink:title="src/Engine/Managers\l/CameraManager/DefaultCamera\lManager.cpp">
<polygon fill="#ffffff" stroke="#000000" points="673.5,-145.5 673.5,-186.5 850.5,-186.5 850.5,-145.5 673.5,-145.5"/>
<text text-anchor="start" x="681.5" y="-174.5" font-family="Helvetica,sans-Serif" font-size="10.00" fill="#000000">src/Engine/Managers</text>
<text text-anchor="start" x="681.5" y="-163.5" font-family="Helvetica,sans-Serif" font-size="10.00" fill="#000000">/CameraManager/DefaultCamera</text>
<text text-anchor="middle" x="762" y="-152.5" font-family="Helvetica,sans-Serif" font-size="10.00" fill="#000000">Manager.cpp</text>
</a>
</g>
</g>
<!-- Node18&#45;&gt;Node23 -->
<g id="edge5" class="edge">
<title>Node18&#45;&gt;Node23</title>
<path fill="none" stroke="#191970" d="M1612.352,-229.8821C1425.3571,-223.151 1002.3412,-206.2982 859,-187 856.2678,-186.6322 853.4982,-186.2283 850.7066,-185.7943"/>
<polygon fill="#191970" stroke="#191970" points="1612.3116,-233.3828 1622.4305,-230.2433 1612.5624,-226.3873 1612.3116,-233.3828"/>
</g>
<!-- Node24 -->
<g id="node7" class="node">
<title>Node24</title>
<g id="a_node7"><a xlink:href="EntityManager_8cpp.html" target="_top" xlink:title="src/Engine/Managers\l/EntityManager/EntityManager.cpp">
<polygon fill="#ffffff" stroke="#000000" points="868.5,-151 868.5,-181 1051.5,-181 1051.5,-151 868.5,-151"/>
<text text-anchor="start" x="876.5" y="-169" font-family="Helvetica,sans-Serif" font-size="10.00" fill="#000000">src/Engine/Managers</text>
<text text-anchor="middle" x="960" y="-158" font-family="Helvetica,sans-Serif" font-size="10.00" fill="#000000">/EntityManager/EntityManager.cpp</text>
</a>
</g>
</g>
<!-- Node18&#45;&gt;Node24 -->
<g id="edge6" class="edge">
<title>Node18&#45;&gt;Node24</title>
<path fill="none" stroke="#191970" d="M1612.2825,-229.9743C1488.4051,-225.0402 1259.59,-213.0648 1066,-187 1054.1007,-185.3979 1041.526,-183.2843 1029.3574,-181.0152"/>
<polygon fill="#191970" stroke="#191970" points="1612.3487,-233.4795 1622.4781,-230.3739 1612.6229,-226.4848 1612.3487,-233.4795"/>
</g>
<!-- Node25 -->
<g id="node8" class="node">
<title>Node25</title>
<g id="a_node8"><a xlink:href="DefaultLightManager_8hpp.html" target="_top" xlink:title="src/Engine/Managers\l/LightManager/DefaultLight\lManager.hpp">
<polygon fill="#ffffff" stroke="#000000" points="1107.5,-145.5 1107.5,-186.5 1256.5,-186.5 1256.5,-145.5 1107.5,-145.5"/>
<text text-anchor="start" x="1115.5" y="-174.5" font-family="Helvetica,sans-Serif" font-size="10.00" fill="#000000">src/Engine/Managers</text>
<text text-anchor="start" x="1115.5" y="-163.5" font-family="Helvetica,sans-Serif" font-size="10.00" fill="#000000">/LightManager/DefaultLight</text>
<text text-anchor="middle" x="1182" y="-152.5" font-family="Helvetica,sans-Serif" font-size="10.00" fill="#000000">Manager.hpp</text>
</a>
</g>
</g>
<!-- Node18&#45;&gt;Node25 -->
<g id="edge7" class="edge">
<title>Node18&#45;&gt;Node25</title>
<path fill="none" stroke="#191970" d="M1612.3529,-227.1796C1523.6092,-220.6078 1384.8106,-207.9979 1266,-187 1262.8914,-186.4506 1259.7276,-185.85 1256.5385,-185.2104"/>
<polygon fill="#191970" stroke="#191970" points="1612.1578,-230.6746 1622.3863,-227.9126 1612.6679,-223.6932 1612.1578,-230.6746"/>
</g>
<!-- Node26 -->
<g id="node9" class="node">
<title>Node26</title>
<g id="a_node9"><a xlink:href="DefaultLightManager_8cpp.html" target="_top" xlink:title="src/Engine/Managers\l/LightManager/DefaultLight\lManager.cpp">
<polygon fill="#ffffff" stroke="#000000" points="1005.5,-67.5 1005.5,-108.5 1154.5,-108.5 1154.5,-67.5 1005.5,-67.5"/>
<text text-anchor="start" x="1013.5" y="-96.5" font-family="Helvetica,sans-Serif" font-size="10.00" fill="#000000">src/Engine/Managers</text>
<text text-anchor="start" x="1013.5" y="-85.5" font-family="Helvetica,sans-Serif" font-size="10.00" fill="#000000">/LightManager/DefaultLight</text>
<text text-anchor="middle" x="1080" y="-74.5" font-family="Helvetica,sans-Serif" font-size="10.00" fill="#000000">Manager.cpp</text>
</a>
</g>
</g>
<!-- Node18&#45;&gt;Node26 -->
<g id="edge10" class="edge">
<title>Node18&#45;&gt;Node26</title>
<path fill="none" stroke="#191970" d="M1611.9348,-232.1048C1452.3063,-229.6633 1135.2817,-220.594 1098,-187 1076.4568,-167.5878 1075.284,-131.7241 1077.122,-108.9068"/>
<polygon fill="#191970" stroke="#191970" points="1612.1665,-235.6085 1622.217,-232.2562 1612.2697,-228.6092 1612.1665,-235.6085"/>
</g>
<!-- Node28 -->
<g id="node11" class="node">
<title>Node28</title>
<g id="a_node11"><a xlink:href="LightManager_8cpp.html" target="_top" xlink:title="src/Engine/Managers\l/LightManager/LightManager.cpp">
<polygon fill="#ffffff" stroke="#000000" points="1275,-151 1275,-181 1449,-181 1449,-151 1275,-151"/>
<text text-anchor="start" x="1283" y="-169" font-family="Helvetica,sans-Serif" font-size="10.00" fill="#000000">src/Engine/Managers</text>
<text text-anchor="middle" x="1362" y="-158" font-family="Helvetica,sans-Serif" font-size="10.00" fill="#000000">/LightManager/LightManager.cpp</text>
</a>
</g>
</g>
<!-- Node18&#45;&gt;Node28 -->
<g id="edge11" class="edge">
<title>Node18&#45;&gt;Node28</title>
<path fill="none" stroke="#191970" d="M1639.9339,-221.6921C1590.3927,-212.6805 1519.6987,-199.5375 1458,-187 1448.8045,-185.1314 1439.1291,-183.0964 1429.6043,-181.0528"/>
<polygon fill="#191970" stroke="#191970" points="1639.3977,-225.1518 1649.862,-223.4942 1640.6479,-218.2644 1639.3977,-225.1518"/>
</g>
<!-- Node29 -->
<g id="node12" class="node">
<title>Node29</title>
<g id="a_node12"><a xlink:href="RadiumEngine_8cpp.html" target="_top" xlink:title="src/Engine/RadiumEngine.cpp">
<polygon fill="#ffffff" stroke="#000000" points="1467.5,-156.5 1467.5,-175.5 1628.5,-175.5 1628.5,-156.5 1467.5,-156.5"/>
<text text-anchor="middle" x="1548" y="-163.5" font-family="Helvetica,sans-Serif" font-size="10.00" fill="#000000">src/Engine/RadiumEngine.cpp</text>
</a>
</g>
</g>
<!-- Node18&#45;&gt;Node29 -->
<g id="edge12" class="edge">
<title>Node18&#45;&gt;Node29</title>
<path fill="none" stroke="#191970" d="M1671.5647,-219.4118C1641.4385,-206.3895 1596.7358,-187.0664 1570.1665,-175.5817"/>
<polygon fill="#191970" stroke="#191970" points="1670.2244,-222.6454 1680.7923,-223.4005 1673.0019,-216.22 1670.2244,-222.6454"/>
</g>
<!-- Node30 -->
<g id="node13" class="node">
<title>Node30</title>
<g id="a_node13"><a xlink:href="Light_8cpp.html" target="_top" xlink:title="src/Engine/Renderer\l/Light/Light.cpp">
<polygon fill="#ffffff" stroke="#000000" points="1646.5,-151 1646.5,-181 1759.5,-181 1759.5,-151 1646.5,-151"/>
<text text-anchor="start" x="1654.5" y="-169" font-family="Helvetica,sans-Serif" font-size="10.00" fill="#000000">src/Engine/Renderer</text>
<text text-anchor="middle" x="1703" y="-158" font-family="Helvetica,sans-Serif" font-size="10.00" fill="#000000">/Light/Light.cpp</text>
</a>
</g>
</g>
<!-- Node18&#45;&gt;Node30 -->
<g id="edge13" class="edge">
<title>Node18&#45;&gt;Node30</title>
<path fill="none" stroke="#191970" d="M1703,-213.2758C1703,-202.9641 1703,-190.5437 1703,-181.0218"/>
<polygon fill="#191970" stroke="#191970" points="1699.5001,-213.4005 1703,-223.4005 1706.5001,-213.4006 1699.5001,-213.4005"/>
</g>
<!-- Node31 -->
<g id="node14" class="node">
<title>Node31</title>
<g id="a_node14"><a xlink:href="Renderer_8cpp.html" target="_top" xlink:title="src/Engine/Renderer\l/Renderer.cpp">
<polygon fill="#ffffff" stroke="#000000" points="1777.5,-151 1777.5,-181 1890.5,-181 1890.5,-151 1777.5,-151"/>
<text text-anchor="start" x="1785.5" y="-169" font-family="Helvetica,sans-Serif" font-size="10.00" fill="#000000">src/Engine/Renderer</text>
<text text-anchor="middle" x="1834" y="-158" font-family="Helvetica,sans-Serif" font-size="10.00" fill="#000000">/Renderer.cpp</text>
</a>
</g>
</g>
<!-- Node18&#45;&gt;Node31 -->
<g id="edge14" class="edge">
<title>Node18&#45;&gt;Node31</title>
<path fill="none" stroke="#191970" d="M1730.7965,-218.7834C1752.4883,-207.6892 1782.5456,-192.3164 1804.6291,-181.0218"/>
<polygon fill="#191970" stroke="#191970" points="1729.0785,-215.7309 1721.7691,-223.4005 1732.266,-221.9631 1729.0785,-215.7309"/>
</g>
<!-- Node32 -->
<g id="node15" class="node">
<title>Node32</title>
<g id="a_node15"><a xlink:href="RenderObject_8cpp.html" target="_top" xlink:title="src/Engine/Renderer\l/RenderObject/RenderObject.cpp">
<polygon fill="#ffffff" stroke="#000000" points="1908.5,-151 1908.5,-181 2081.5,-181 2081.5,-151 1908.5,-151"/>
<text text-anchor="start" x="1916.5" y="-169" font-family="Helvetica,sans-Serif" font-size="10.00" fill="#000000">src/Engine/Renderer</text>
<text text-anchor="middle" x="1995" y="-158" font-family="Helvetica,sans-Serif" font-size="10.00" fill="#000000">/RenderObject/RenderObject.cpp</text>
</a>
</g>
</g>
<!-- Node18&#45;&gt;Node32 -->
<g id="edge15" class="edge">
<title>Node18&#45;&gt;Node32</title>
<path fill="none" stroke="#191970" d="M1754.5304,-221.1762C1803.2363,-210.0006 1876.5242,-193.1845 1929.3856,-181.0553"/>
<polygon fill="#191970" stroke="#191970" points="1753.4903,-217.8239 1744.5264,-223.4717 1755.0559,-224.6466 1753.4903,-217.8239"/>
</g>
<!-- Node33 -->
<g id="node16" class="node">
<title>Node33</title>
<g id="a_node16"><a xlink:href="RenderObjectManager_8cpp.html" target="_top" xlink:title="src/Engine/Renderer\l/RenderObject/RenderObject\lManager.cpp">
<polygon fill="#ffffff" stroke="#000000" points="2099.5,-145.5 2099.5,-186.5 2252.5,-186.5 2252.5,-145.5 2099.5,-145.5"/>
<text text-anchor="start" x="2107.5" y="-174.5" font-family="Helvetica,sans-Serif" font-size="10.00" fill="#000000">src/Engine/Renderer</text>
<text text-anchor="start" x="2107.5" y="-163.5" font-family="Helvetica,sans-Serif" font-size="10.00" fill="#000000">/RenderObject/RenderObject</text>
<text text-anchor="middle" x="2176" y="-152.5" font-family="Helvetica,sans-Serif" font-size="10.00" fill="#000000">Manager.cpp</text>
</a>
</g>
</g>
<!-- Node18&#45;&gt;Node33 -->
<g id="edge16" class="edge">
<title>Node18&#45;&gt;Node33</title>
<path fill="none" stroke="#191970" d="M1794.212,-225.3039C1872.9289,-217.9132 1989.4822,-205.1773 2090,-187 2093.0248,-186.453 2096.1019,-185.8633 2099.2046,-185.2409"/>
<polygon fill="#191970" stroke="#191970" points="1793.4764,-221.8571 1783.843,-226.267 1794.1239,-228.8271 1793.4764,-221.8571"/>
</g>
<!-- Node34 -->
<g id="node17" class="node">
<title>Node34</title>
<g id="a_node17"><a xlink:href="GeometrySystem_8cpp.html" target="_top" xlink:title="src/Engine/System/Geometry\lSystem.cpp">
<polygon fill="#ffffff" stroke="#000000" points="2271,-151 2271,-181 2429,-181 2429,-151 2271,-151"/>
<text text-anchor="start" x="2279" y="-169" font-family="Helvetica,sans-Serif" font-size="10.00" fill="#000000">src/Engine/System/Geometry</text>
<text text-anchor="middle" x="2350" y="-158" font-family="Helvetica,sans-Serif" font-size="10.00" fill="#000000">System.cpp</text>
</a>
</g>
</g>
<!-- Node18&#45;&gt;Node34 -->
<g id="edge17" class="edge">
<title>Node18&#45;&gt;Node34</title>
<path fill="none" stroke="#191970" d="M1793.984,-229.6772C1904.8506,-224.6686 2097.6063,-212.863 2261,-187 2271.0355,-185.4115 2281.6158,-183.3048 2291.8412,-181.0382"/>
<polygon fill="#191970" stroke="#191970" points="1793.6788,-226.1872 1783.8436,-230.1266 1793.9888,-233.1803 1793.6788,-226.1872"/>
</g>
<!-- Node35 -->
<g id="node18" class="node">
<title>Node35</title>
<g id="a_node18"><a xlink:href="Viewer_8hpp.html" target="_top" xlink:title="src/GuiBase/Viewer\l/Viewer.hpp">
<polygon fill="#ffffff" stroke="#000000" points="2485.5,-151 2485.5,-181 2596.5,-181 2596.5,-151 2485.5,-151"/>
<text text-anchor="start" x="2493.5" y="-169" font-family="Helvetica,sans-Serif" font-size="10.00" fill="#000000">src/GuiBase/Viewer</text>
<text text-anchor="middle" x="2541" y="-158" font-family="Helvetica,sans-Serif" font-size="10.00" fill="#000000">/Viewer.hpp</text>
</a>
</g>
</g>
<!-- Node18&#45;&gt;Node35 -->
<g id="edge18" class="edge">
<title>Node18&#45;&gt;Node35</title>
<path fill="none" stroke="#191970" d="M1793.8453,-230.1973C1968.1209,-224.3847 2343.4215,-209.6413 2471,-187 2479.3701,-185.5146 2488.1537,-183.3682 2496.5611,-181.0087"/>
<polygon fill="#191970" stroke="#191970" points="1793.552,-226.705 1783.6733,-230.534 1793.7837,-233.7012 1793.552,-226.705"/>
</g>
<!-- Node36 -->
<g id="node19" class="node">
<title>Node36</title>
<g id="a_node19"><a xlink:href="BaseApplication_8cpp.html" target="_top" xlink:title="src/GuiBase/BaseApplication.cpp">
<polygon fill="#ffffff" stroke="#000000" points="2229,-78.5 2229,-97.5 2405,-97.5 2405,-78.5 2229,-78.5"/>
<text text-anchor="middle" x="2317" y="-85.5" font-family="Helvetica,sans-Serif" font-size="10.00" fill="#000000">src/GuiBase/BaseApplication.cpp</text>
</a>
</g>
</g>
<!-- Node18&#45;&gt;Node36 -->
<g id="edge22" class="edge">
<title>Node18&#45;&gt;Node36</title>
<path fill="none" stroke="#191970" d="M1793.7316,-230.5962C1985.494,-225.0727 2416.2585,-210.1447 2438,-187 2450.7804,-173.3947 2447.9988,-160.7629 2438,-145 2422.0167,-119.8027 2391.5923,-105.5396 2365.2515,-97.5824"/>
<polygon fill="#191970" stroke="#191970" points="1793.5674,-227.0994 1783.6715,-230.8837 1793.7674,-234.0965 1793.5674,-227.0994"/>
</g>
<!-- Node38 -->
<g id="node21" class="node">
<title>Node38</title>
<g id="a_node21"><a xlink:href="Viewer_8cpp.html" target="_top" xlink:title="src/GuiBase/Viewer\l/Viewer.cpp">
<polygon fill="#ffffff" stroke="#000000" points="2569.5,-.5 2569.5,-30.5 2680.5,-30.5 2680.5,-.5 2569.5,-.5"/>
<text text-anchor="start" x="2577.5" y="-18.5" font-family="Helvetica,sans-Serif" font-size="10.00" fill="#000000">src/GuiBase/Viewer</text>
<text text-anchor="middle" x="2625" y="-7.5" font-family="Helvetica,sans-Serif" font-size="10.00" fill="#000000">/Viewer.cpp</text>
</a>
</g>
</g>
<!-- Node18&#45;&gt;Node38 -->
<g id="edge42" class="edge">
<title>Node18&#45;&gt;Node38</title>
<path fill="none" stroke="#191970" d="M1793.9288,-231.4977C2017.0662,-227.3932 2575.7346,-214.4185 2605,-187 2648.7506,-146.0104 2636.3479,-64.3917 2628.8282,-30.645"/>
<polygon fill="#191970" stroke="#191970" points="1793.8158,-227.999 1783.8812,-231.6806 1793.9433,-234.9979 1793.8158,-227.999"/>
</g>
<!-- Node39 -->
<g id="node22" class="node">
<title>Node39</title>
<g id="a_node22"><a xlink:href="EntityTreeModel_8hpp.html" target="_top" xlink:title="src/GuiBase/TreeModel\l/EntityTreeModel.hpp">
<polygon fill="#ffffff" stroke="#000000" points="3481.5,-151 3481.5,-181 3608.5,-181 3608.5,-151 3481.5,-151"/>
<text text-anchor="start" x="3489.5" y="-169" font-family="Helvetica,sans-Serif" font-size="10.00" fill="#000000">src/GuiBase/TreeModel</text>
<text text-anchor="middle" x="3545" y="-158" font-family="Helvetica,sans-Serif" font-size="10.00" fill="#000000">/EntityTreeModel.hpp</text>
</a>
</g>
</g>
<!-- Node18&#45;&gt;Node39 -->
<g id="edge23" class="edge">
<title>Node18&#45;&gt;Node39</title>
<path fill="none" stroke="#191970" d="M1793.8966,-231.6125C2129.0284,-226.3583 3284.5788,-206.9674 3449,-187 3460.6014,-185.5911 3472.8676,-183.4327 3484.6123,-181.0266"/>
<polygon fill="#191970" stroke="#191970" points="1793.6907,-228.1152 1783.7467,-231.7712 1793.8003,-235.1143 1793.6907,-228.1152"/>
</g>
<!-- Node41 -->
<g id="node24" class="node">
<title>Node41</title>
<g id="a_node24"><a xlink:href="SelectionManager_8cpp.html" target="_top" xlink:title="src/GuiBase/SelectionManager\l/SelectionManager.cpp">
<polygon fill="#ffffff" stroke="#000000" points="3444,-.5 3444,-30.5 3608,-30.5 3608,-.5 3444,-.5"/>
<text text-anchor="start" x="3452" y="-18.5" font-family="Helvetica,sans-Serif" font-size="10.00" fill="#000000">src/GuiBase/SelectionManager</text>
<text text-anchor="middle" x="3526" y="-7.5" font-family="Helvetica,sans-Serif" font-size="10.00" fill="#000000">/SelectionManager.cpp</text>
</a>
</g>
</g>
<!-- Node18&#45;&gt;Node41 -->
<g id="edge27" class="edge">
<title>Node18&#45;&gt;Node41</title>
<path fill="none" stroke="#191970" d="M1793.7294,-231.7173C2050.976,-227.7801 2781.8367,-214.437 3020,-187 3198.203,-166.4706 3259.8782,-197.339 3416,-109 3437.9089,-96.6032 3435.2104,-83.752 3454,-67 3469.1422,-53.4999 3487.8116,-40.2295 3502.3449,-30.5412"/>
<polygon fill="#191970" stroke="#191970" points="1793.6207,-228.2184 1783.6751,-231.87 1793.7272,-235.2176 1793.6207,-228.2184"/>
</g>
<!-- Node43 -->
<g id="node26" class="node">
<title>Node43</title>
<g id="a_node26"><a xlink:href="Gizmo_8hpp.html" target="_top" xlink:title="src/GuiBase/Viewer\l/Gizmo/Gizmo.hpp">
<polygon fill="#ffffff" stroke="#000000" points="2900.5,-151 2900.5,-181 3011.5,-181 3011.5,-151 2900.5,-151"/>
<text text-anchor="start" x="2908.5" y="-169" font-family="Helvetica,sans-Serif" font-size="10.00" fill="#000000">src/GuiBase/Viewer</text>
<text text-anchor="middle" x="2956" y="-158" font-family="Helvetica,sans-Serif" font-size="10.00" fill="#000000">/Gizmo/Gizmo.hpp</text>
</a>
</g>
</g>
<!-- Node18&#45;&gt;Node43 -->
<g id="edge28" class="edge">
<title>Node18&#45;&gt;Node43</title>
<path fill="none" stroke="#191970" d="M1793.7746,-229.0536C1961.0034,-221.6687 2329.008,-204.8839 2639,-187 2730.6812,-181.7108 2837.1987,-174.4185 2900.4719,-169.9661"/>
<polygon fill="#191970" stroke="#191970" points="1793.6155,-225.5571 1783.7794,-229.4943 1793.924,-232.5503 1793.6155,-225.5571"/>
</g>
<!-- Node25&#45;&gt;Node26 -->
<g id="edge8" class="edge">
<title>Node25&#45;&gt;Node26</title>
<path fill="none" stroke="#191970" d="M1146.9894,-139.2272C1133.8457,-129.1761 1119.1257,-117.9196 1106.8389,-108.5239"/>
<polygon fill="#191970" stroke="#191970" points="1144.864,-142.0079 1154.9337,-145.3022 1149.1162,-136.4474 1144.864,-142.0079"/>
</g>
<!-- Node27 -->
<g id="node10" class="node">
<title>Node27</title>
<g id="a_node10"><a xlink:href="ForwardRenderer_8cpp.html" target="_top" xlink:title="src/Engine/Renderer\l/Renderers/ForwardRenderer.cpp">
<polygon fill="#ffffff" stroke="#000000" points="1172.5,-73 1172.5,-103 1345.5,-103 1345.5,-73 1172.5,-73"/>
<text text-anchor="start" x="1180.5" y="-91" font-family="Helvetica,sans-Serif" font-size="10.00" fill="#000000">src/Engine/Renderer</text>
<text text-anchor="middle" x="1259" y="-80" font-family="Helvetica,sans-Serif" font-size="10.00" fill="#000000">/Renderers/ForwardRenderer.cpp</text>
</a>
</g>
</g>
<!-- Node25&#45;&gt;Node27 -->
<g id="edge9" class="edge">
<title>Node25&#45;&gt;Node27</title>
<path fill="none" stroke="#191970" d="M1209.9376,-137.6996C1221.4211,-126.0669 1234.2634,-113.0578 1243.9279,-103.2679"/>
<polygon fill="#191970" stroke="#191970" points="1207.1691,-135.522 1202.6346,-145.0974 1212.1507,-140.4397 1207.1691,-135.522"/>
</g>
<!-- Node35&#45;&gt;Node36 -->
<g id="edge19" class="edge">
<title>Node35&#45;&gt;Node36</title>
<path fill="none" stroke="#191970" d="M2488.2036,-147.6155C2443.1642,-131.9322 2380.1985,-110.0066 2344.5229,-97.5839"/>
<polygon fill="#191970" stroke="#191970" points="2487.2157,-150.9776 2497.8105,-150.9608 2489.5177,-144.3669 2487.2157,-150.9776"/>
</g>
<!-- Node37 -->
<g id="node20" class="node">
<title>Node37</title>
<g id="a_node20"><a xlink:href="CameraManipulator_8cpp.html" target="_top" xlink:title="src/GuiBase/Viewer\l/CameraManipulator.cpp">
<polygon fill="#ffffff" stroke="#000000" points="2423.5,-73 2423.5,-103 2558.5,-103 2558.5,-73 2423.5,-73"/>
<text text-anchor="start" x="2431.5" y="-91" font-family="Helvetica,sans-Serif" font-size="10.00" fill="#000000">src/GuiBase/Viewer</text>
<text text-anchor="middle" x="2491" y="-80" font-family="Helvetica,sans-Serif" font-size="10.00" fill="#000000">/CameraManipulator.cpp</text>
</a>
</g>
</g>
<!-- Node35&#45;&gt;Node37 -->
<g id="edge20" class="edge">
<title>Node35&#45;&gt;Node37</title>
<path fill="none" stroke="#191970" d="M2525.7922,-142.2759C2517.6641,-129.596 2507.8958,-114.3574 2500.7815,-103.2592"/>
<polygon fill="#191970" stroke="#191970" points="2523.0162,-144.4309 2531.3595,-150.9608 2528.9094,-140.6532 2523.0162,-144.4309"/>
</g>
<!-- Node35&#45;&gt;Node38 -->
<g id="edge21" class="edge">
<title>Node35&#45;&gt;Node38</title>
<path fill="none" stroke="#191970" d="M2554.5052,-141.8032C2571.9643,-110.5224 2601.8546,-56.9688 2616.4608,-30.7994"/>
<polygon fill="#191970" stroke="#191970" points="2551.3341,-140.3032 2549.5166,-150.741 2557.4465,-143.7148 2551.3341,-140.3032"/>
</g>
<!-- Node40 -->
<g id="node23" class="node">
<title>Node40</title>
<g id="a_node23"><a xlink:href="SelectionManager_8hpp.html" target="_top" xlink:title="src/GuiBase/SelectionManager\l/SelectionManager.hpp">
<polygon fill="#ffffff" stroke="#000000" points="3463,-73 3463,-103 3627,-103 3627,-73 3463,-73"/>
<text text-anchor="start" x="3471" y="-91" font-family="Helvetica,sans-Serif" font-size="10.00" fill="#000000">src/GuiBase/SelectionManager</text>
<text text-anchor="middle" x="3545" y="-80" font-family="Helvetica,sans-Serif" font-size="10.00" fill="#000000">/SelectionManager.hpp</text>
</a>
</g>
</g>
<!-- Node39&#45;&gt;Node40 -->
<g id="edge24" class="edge">
<title>Node39&#45;&gt;Node40</title>
<path fill="none" stroke="#191970" d="M3545,-140.7875C3545,-128.4187 3545,-113.9264 3545,-103.2592"/>
<polygon fill="#191970" stroke="#191970" points="3541.5001,-140.9608 3545,-150.9608 3548.5001,-140.9608 3541.5001,-140.9608"/>
</g>
<!-- Node42 -->
<g id="node25" class="node">
<title>Node42</title>
<g id="a_node25"><a xlink:href="EntityTreeModel_8cpp.html" target="_top" xlink:title="src/GuiBase/TreeModel\l/EntityTreeModel.cpp">
<polygon fill="#ffffff" stroke="#000000" points="3645.5,-73 3645.5,-103 3772.5,-103 3772.5,-73 3645.5,-73"/>
<text text-anchor="start" x="3653.5" y="-91" font-family="Helvetica,sans-Serif" font-size="10.00" fill="#000000">src/GuiBase/TreeModel</text>
<text text-anchor="middle" x="3709" y="-80" font-family="Helvetica,sans-Serif" font-size="10.00" fill="#000000">/EntityTreeModel.cpp</text>
</a>
</g>
</g>
<!-- Node39&#45;&gt;Node42 -->
<g id="edge26" class="edge">
<title>Node39&#45;&gt;Node42</title>
<path fill="none" stroke="#191970" d="M3585.8354,-146.5783C3614.0859,-133.1421 3651.1378,-115.5198 3677.1969,-103.1259"/>
<polygon fill="#191970" stroke="#191970" points="3584.1482,-143.505 3576.6208,-150.9608 3587.1548,-149.8264 3584.1482,-143.505"/>
</g>
<!-- Node40&#45;&gt;Node41 -->
<g id="edge25" class="edge">
<title>Node40&#45;&gt;Node41</title>
<path fill="none" stroke="#191970" d="M3538.4948,-63.1774C3535.6481,-52.3151 3532.4018,-39.9281 3529.9318,-30.5028"/>
<polygon fill="#191970" stroke="#191970" points="3535.1424,-64.1919 3541.0632,-72.978 3541.9137,-62.4173 3535.1424,-64.1919"/>
</g>
<!-- Node44 -->
<g id="node27" class="node">
<title>Node44</title>
<g id="a_node27"><a xlink:href="Gizmo_8cpp.html" target="_top" xlink:title="src/GuiBase/Viewer\l/Gizmo/Gizmo.cpp">
<polygon fill="#ffffff" stroke="#000000" points="2970.5,-73 2970.5,-103 3081.5,-103 3081.5,-73 2970.5,-73"/>
<text text-anchor="start" x="2978.5" y="-91" font-family="Helvetica,sans-Serif" font-size="10.00" fill="#000000">src/GuiBase/Viewer</text>
<text text-anchor="middle" x="3026" y="-80" font-family="Helvetica,sans-Serif" font-size="10.00" fill="#000000">/Gizmo/Gizmo.cpp</text>
</a>
</g>
</g>
<!-- Node43&#45;&gt;Node44 -->
<g id="edge29" class="edge">
<title>Node43&#45;&gt;Node44</title>
<path fill="none" stroke="#191970" d="M2976.3025,-143.3772C2987.8704,-130.4872 3002.0558,-114.6807 3012.3059,-103.2592"/>
<polygon fill="#191970" stroke="#191970" points="2973.571,-141.1807 2969.4967,-150.9608 2978.7807,-145.8561 2973.571,-141.1807"/>
</g>
<!-- Node45 -->
<g id="node28" class="node">
<title>Node45</title>
<g id="a_node28"><a xlink:href="GizmoManager_8hpp.html" target="_top" xlink:title="src/GuiBase/Viewer\l/Gizmo/GizmoManager.hpp">
<polygon fill="#ffffff" stroke="#000000" points="2653,-73 2653,-103 2801,-103 2801,-73 2653,-73"/>
<text text-anchor="start" x="2661" y="-91" font-family="Helvetica,sans-Serif" font-size="10.00" fill="#000000">src/GuiBase/Viewer</text>
<text text-anchor="middle" x="2727" y="-80" font-family="Helvetica,sans-Serif" font-size="10.00" fill="#000000">/Gizmo/GizmoManager.hpp</text>
</a>
</g>
</g>
<!-- Node43&#45;&gt;Node45 -->
<g id="edge30" class="edge">
<title>Node43&#45;&gt;Node45</title>
<path fill="none" stroke="#191970" d="M2902.2942,-147.7072C2862.469,-134.1423 2808.8237,-115.8701 2771.408,-103.1259"/>
<polygon fill="#191970" stroke="#191970" points="2901.252,-151.0496 2911.8465,-150.9608 2903.509,-144.4234 2901.252,-151.0496"/>
</g>
<!-- Node47 -->
<g id="node30" class="node">
<title>Node47</title>
<g id="a_node30"><a xlink:href="RotateGizmo_8hpp.html" target="_top" xlink:title="src/GuiBase/Viewer\l/Gizmo/RotateGizmo.hpp">
<polygon fill="#ffffff" stroke="#000000" points="3269,-73 3269,-103 3407,-103 3407,-73 3269,-73"/>
<text text-anchor="start" x="3277" y="-91" font-family="Helvetica,sans-Serif" font-size="10.00" fill="#000000">src/GuiBase/Viewer</text>
<text text-anchor="middle" x="3338" y="-80" font-family="Helvetica,sans-Serif" font-size="10.00" fill="#000000">/Gizmo/RotateGizmo.hpp</text>
</a>
</g>
</g>
<!-- Node43&#45;&gt;Node47 -->
<g id="edge33" class="edge">
<title>Node43&#45;&gt;Node47</title>
<path fill="none" stroke="#191970" d="M3021.5104,-155.1159C3083.0746,-144.5476 3177.6548,-127.4365 3259,-109 3266.8891,-107.212 3275.1816,-105.1791 3283.3067,-103.099"/>
<polygon fill="#191970" stroke="#191970" points="3020.811,-151.6846 3011.5435,-156.8192 3021.9902,-158.5846 3020.811,-151.6846"/>
</g>
<!-- Node49 -->
<g id="node32" class="node">
<title>Node49</title>
<g id="a_node32"><a xlink:href="ScaleGizmo_8hpp.html" target="_top" xlink:title="src/GuiBase/Viewer\l/Gizmo/ScaleGizmo.hpp">
<polygon fill="#ffffff" stroke="#000000" points="2819.5,-73 2819.5,-103 2952.5,-103 2952.5,-73 2819.5,-73"/>
<text text-anchor="start" x="2827.5" y="-91" font-family="Helvetica,sans-Serif" font-size="10.00" fill="#000000">src/GuiBase/Viewer</text>
<text text-anchor="middle" x="2886" y="-80" font-family="Helvetica,sans-Serif" font-size="10.00" fill="#000000">/Gizmo/ScaleGizmo.hpp</text>
</a>
</g>
</g>
<!-- Node43&#45;&gt;Node49 -->
<g id="edge36" class="edge">
<title>Node43&#45;&gt;Node49</title>
<path fill="none" stroke="#191970" d="M2935.6975,-143.3772C2924.1296,-130.4872 2909.9442,-114.6807 2899.6941,-103.2592"/>
<polygon fill="#191970" stroke="#191970" points="2933.2193,-145.8561 2942.5033,-150.9608 2938.429,-141.1807 2933.2193,-145.8561"/>
</g>
<!-- Node51 -->
<g id="node34" class="node">
<title>Node51</title>
<g id="a_node34"><a xlink:href="TranslateGizmo_8hpp.html" target="_top" xlink:title="src/GuiBase/Viewer\l/Gizmo/TranslateGizmo.hpp">
<polygon fill="#ffffff" stroke="#000000" points="3099.5,-73 3099.5,-103 3250.5,-103 3250.5,-73 3099.5,-73"/>
<text text-anchor="start" x="3107.5" y="-91" font-family="Helvetica,sans-Serif" font-size="10.00" fill="#000000">src/GuiBase/Viewer</text>
<text text-anchor="middle" x="3175" y="-80" font-family="Helvetica,sans-Serif" font-size="10.00" fill="#000000">/Gizmo/TranslateGizmo.hpp</text>
</a>
</g>
</g>
<!-- Node43&#45;&gt;Node51 -->
<g id="edge39" class="edge">
<title>Node43&#45;&gt;Node51</title>
<path fill="none" stroke="#191970" d="M3008.0869,-147.4485C3046.0968,-133.9107 3096.9763,-115.7892 3132.5312,-103.1259"/>
<polygon fill="#191970" stroke="#191970" points="3006.4714,-144.3084 2998.2254,-150.9608 3008.8201,-150.9027 3006.4714,-144.3084"/>
</g>
<!-- Node45&#45;&gt;Node38 -->
<g id="edge32" class="edge">
<title>Node45&#45;&gt;Node38</title>
<path fill="none" stroke="#191970" d="M2697.6383,-67.1302C2681.1708,-55.4253 2661.0082,-41.0941 2646.1074,-30.5028"/>
<polygon fill="#191970" stroke="#191970" points="2695.687,-70.0372 2705.8655,-72.978 2699.7424,-64.3317 2695.687,-70.0372"/>
</g>
<!-- Node46 -->
<g id="node29" class="node">
<title>Node46</title>
<g id="a_node29"><a xlink:href="GizmoManager_8cpp.html" target="_top" xlink:title="src/GuiBase/Viewer\l/Gizmo/GizmoManager.cpp">
<polygon fill="#ffffff" stroke="#000000" points="2934.5,-.5 2934.5,-30.5 3081.5,-30.5 3081.5,-.5 2934.5,-.5"/>
<text text-anchor="start" x="2942.5" y="-18.5" font-family="Helvetica,sans-Serif" font-size="10.00" fill="#000000">src/GuiBase/Viewer</text>
<text text-anchor="middle" x="3008" y="-7.5" font-family="Helvetica,sans-Serif" font-size="10.00" fill="#000000">/Gizmo/GizmoManager.cpp</text>
</a>
</g>
</g>
<!-- Node45&#45;&gt;Node46 -->
<g id="edge31" class="edge">
<title>Node45&#45;&gt;Node46</title>
<path fill="none" stroke="#191970" d="M2795.0835,-70.434C2842.419,-58.2211 2904.8464,-42.1144 2949.8512,-30.5028"/>
<polygon fill="#191970" stroke="#191970" points="2794.0319,-67.0906 2785.2234,-72.978 2795.7807,-73.8686 2794.0319,-67.0906"/>
</g>
<!-- Node47&#45;&gt;Node46 -->
<g id="edge34" class="edge">
<title>Node47&#45;&gt;Node46</title>
<path fill="none" stroke="#191970" d="M3273.0846,-70.4255C3268.326,-69.2351 3263.5933,-68.0808 3259,-67 3199.5685,-53.016 3131.7163,-39.2235 3081.5555,-29.4367"/>
<polygon fill="#191970" stroke="#191970" points="3272.298,-73.8368 3282.852,-72.908 3274.0223,-67.0525 3272.298,-73.8368"/>
</g>
<!-- Node48 -->
<g id="node31" class="node">
<title>Node48</title>
<g id="a_node31"><a xlink:href="RotateGizmo_8cpp.html" target="_top" xlink:title="src/GuiBase/Viewer\l/Gizmo/RotateGizmo.cpp">
<polygon fill="#ffffff" stroke="#000000" points="3269.5,-.5 3269.5,-30.5 3406.5,-30.5 3406.5,-.5 3269.5,-.5"/>
<text text-anchor="start" x="3277.5" y="-18.5" font-family="Helvetica,sans-Serif" font-size="10.00" fill="#000000">src/GuiBase/Viewer</text>
<text text-anchor="middle" x="3338" y="-7.5" font-family="Helvetica,sans-Serif" font-size="10.00" fill="#000000">/Gizmo/RotateGizmo.cpp</text>
</a>
</g>
</g>
<!-- Node47&#45;&gt;Node48 -->
<g id="edge35" class="edge">
<title>Node47&#45;&gt;Node48</title>
<path fill="none" stroke="#191970" d="M3338,-62.8409C3338,-52.0601 3338,-39.8309 3338,-30.5028"/>
<polygon fill="#191970" stroke="#191970" points="3334.5001,-62.9779 3338,-72.978 3341.5001,-62.978 3334.5001,-62.9779"/>
</g>
<!-- Node49&#45;&gt;Node46 -->
<g id="edge37" class="edge">
<title>Node49&#45;&gt;Node46</title>
<path fill="none" stroke="#191970" d="M2920.0392,-67.7718C2939.9282,-55.9525 2964.6043,-41.2884 2982.7539,-30.5028"/>
<polygon fill="#191970" stroke="#191970" points="2918.0871,-64.8604 2911.2785,-72.978 2921.6631,-70.8781 2918.0871,-64.8604"/>
</g>
<!-- Node50 -->
<g id="node33" class="node">
<title>Node50</title>
<g id="a_node33"><a xlink:href="ScaleGizmo_8cpp.html" target="_top" xlink:title="src/GuiBase/Viewer\l/Gizmo/ScaleGizmo.cpp">
<polygon fill="#ffffff" stroke="#000000" points="2784,-.5 2784,-30.5 2916,-30.5 2916,-.5 2784,-.5"/>
<text text-anchor="start" x="2792" y="-18.5" font-family="Helvetica,sans-Serif" font-size="10.00" fill="#000000">src/GuiBase/Viewer</text>
<text text-anchor="middle" x="2850" y="-7.5" font-family="Helvetica,sans-Serif" font-size="10.00" fill="#000000">/Gizmo/ScaleGizmo.cpp</text>
</a>
</g>
</g>
<!-- Node49&#45;&gt;Node50 -->
<g id="edge38" class="edge">
<title>Node49&#45;&gt;Node50</title>
<path fill="none" stroke="#191970" d="M2874.0069,-63.8473C2868.5349,-52.8272 2862.2263,-40.1224 2857.4497,-30.5028"/>
<polygon fill="#191970" stroke="#191970" points="2870.9585,-65.578 2878.5408,-72.978 2877.2281,-62.4647 2870.9585,-65.578"/>
</g>
<!-- Node51&#45;&gt;Node46 -->
<g id="edge40" class="edge">
<title>Node51&#45;&gt;Node46</title>
<path fill="none" stroke="#191970" d="M3130.9607,-68.8811C3103.3192,-56.8811 3068.1857,-41.6285 3042.5582,-30.5028"/>
<polygon fill="#191970" stroke="#191970" points="3129.8308,-72.2062 3140.3975,-72.978 3132.6184,-65.7851 3129.8308,-72.2062"/>
</g>
<!-- Node52 -->
<g id="node35" class="node">
<title>Node52</title>
<g id="a_node35"><a xlink:href="TranslateGizmo_8cpp.html" target="_top" xlink:title="src/GuiBase/Viewer\l/Gizmo/TranslateGizmo.cpp">
<polygon fill="#ffffff" stroke="#000000" points="3100,-.5 3100,-30.5 3250,-30.5 3250,-.5 3100,-.5"/>
<text text-anchor="start" x="3108" y="-18.5" font-family="Helvetica,sans-Serif" font-size="10.00" fill="#000000">src/GuiBase/Viewer</text>
<text text-anchor="middle" x="3175" y="-7.5" font-family="Helvetica,sans-Serif" font-size="10.00" fill="#000000">/Gizmo/TranslateGizmo.cpp</text>
</a>
</g>
</g>
<!-- Node51&#45;&gt;Node52 -->
<g id="edge41" class="edge">
<title>Node51&#45;&gt;Node52</title>
<path fill="none" stroke="#191970" d="M3175,-62.8409C3175,-52.0601 3175,-39.8309 3175,-30.5028"/>
<polygon fill="#191970" stroke="#191970" points="3171.5001,-62.9779 3175,-72.978 3178.5001,-62.978 3171.5001,-62.9779"/>
</g>
</g>
</svg>
        <g id="navigator" transform="translate(0 0)" fill="#404254">
                <rect fill="#f2f5e9" fill-opacity="0.5" stroke="#606060" stroke-width=".5" x="0" y="0" width="60" height="60"/>
                <use id="zoomplus" xlink:href="#zoomPlus" x="17" y="9" onmousedown="handleZoom(evt,'in')"/>
                <use id="zoomminus" xlink:href="#zoomMin" x="42" y="9" onmousedown="handleZoom(evt,'out')"/>
                <use id="reset" xlink:href="#resetDef" x="30" y="36" onmousedown="handleReset()"/>
                <g id="arrowUp" xlink:href="#dirArrow" transform="translate(30 24)" onmousedown="handlePan(0,-1)">
                  <use xlink:href="#rim" fill="#404040">
                        <set attributeName="fill" to="#808080" begin="arrowUp.mouseover" end="arrowUp.mouseout"/>
                  </use>
                  <path fill="none" stroke="white" stroke-width="1.5" d="M0,-3.0v7 M-2.5,-0.5L0,-3.0L2.5,-0.5"/>
                </g>
                <g id="arrowRight" xlink:href="#dirArrow" transform="rotate(90) translate(36 -43)" onmousedown="handlePan(1,0)">
                  <use xlink:href="#rim" fill="#404040">
                        <set attributeName="fill" to="#808080" begin="arrowRight.mouseover" end="arrowRight.mouseout"/>
                  </use>
                  <path fill="none" stroke="white" stroke-width="1.5" d="M0,-3.0v7 M-2.5,-0.5L0,-3.0L2.5,-0.5"/>
                </g>
                <g id="arrowDown" xlink:href="#dirArrow" transform="rotate(180) translate(-30 -48)" onmousedown="handlePan(0,1)">
                  <use xlink:href="#rim" fill="#404040">
                        <set attributeName="fill" to="#808080" begin="arrowDown.mouseover" end="arrowDown.mouseout"/>
                  </use>
                  <path fill="none" stroke="white" stroke-width="1.5" d="M0,-3.0v7 M-2.5,-0.5L0,-3.0L2.5,-0.5"/>
                </g>
                <g id="arrowLeft" xlink:href="#dirArrow" transform="rotate(270) translate(-36 17)" onmousedown="handlePan(-1,0)">
                  <use xlink:href="#rim" fill="#404040">
                        <set attributeName="fill" to="#808080" begin="arrowLeft.mouseover" end="arrowLeft.mouseout"/>
                  </use>
                  <path fill="none" stroke="white" stroke-width="1.5" d="M0,-3.0v7 M-2.5,-0.5L0,-3.0L2.5,-0.5"/>
                </g>
        </g>
        <svg viewBox="0 0 15 15" width="100%" height="30px" preserveAspectRatio="xMaxYMin meet">
         <g id="arrow_out" transform="scale(0.3 0.3)">
          <a xlink:href="RadiumEngine_8hpp__dep__incl_org.svg" target="_base">
           <rect id="button" ry="5" rx="5" y="6" x="6" height="38" width="38"
                fill="#f2f5e9" fill-opacity="0.5" stroke="#606060" stroke-width="1.0"/>
           <path id="arrow"
             d="M 11.500037,31.436501 C 11.940474,20.09759 22.043105,11.32322 32.158766,21.979434 L 37.068811,17.246167 C 37.068811,17.246167 37.088388,32 37.088388,32 L 22.160133,31.978069 C 22.160133,31.978069 26.997745,27.140456 26.997745,27.140456 C 18.528582,18.264221 13.291696,25.230495 11.500037,31.436501 z"
             style="fill:#404040;"/>
          </a>
         </g>
        </svg>
</svg>
