<?xml version="1.0" encoding="UTF-8" standalone="no"?>
<!DOCTYPE svg PUBLIC "-//W3C//DTD SVG 1.1//EN"
 "http://www.w3.org/Graphics/SVG/1.1/DTD/svg11.dtd">
<!-- Generated by graphviz version 2.40.1 (20161225.0304)
 -->
<!-- Title: src/PluginBase/RadiumPluginInterface.hpp Pages: 1 -->
<svg width="399pt" height="162pt"
 viewBox="0.00 0.00 398.50 162.00" xmlns="http://www.w3.org/2000/svg" xmlns:xlink="http://www.w3.org/1999/xlink">
<g id="graph0" class="graph" transform="scale(1 1) rotate(0) translate(4 158)">
<title>src/PluginBase/RadiumPluginInterface.hpp</title>
<polygon fill="#ffffff" stroke="transparent" points="-4,4 -4,-158 394.5,-158 394.5,4 -4,4"/>
<!-- Node13 -->
<g id="node1" class="node">
<title>Node13</title>
<polygon fill="#bfbfbf" stroke="#000000" points="125.5,-123.5 125.5,-153.5 283.5,-153.5 283.5,-123.5 125.5,-123.5"/>
<text text-anchor="start" x="133.5" y="-141.5" font-family="Helvetica,sans-Serif" font-size="10.00" fill="#000000">src/PluginBase/RadiumPlugin</text>
<text text-anchor="middle" x="204.5" y="-130.5" font-family="Helvetica,sans-Serif" font-size="10.00" fill="#000000">Interface.hpp</text>
</g>
<!-- Node14 -->
<g id="node2" class="node">
<title>Node14</title>
<g id="a_node2"><a xlink:href="BaseApplication_8hpp.html" target="_top" xlink:title="src/GuiBase/BaseApplication.hpp">
<polygon fill="#ffffff" stroke="#000000" points="0,-62 0,-81 177,-81 177,-62 0,-62"/>
<text text-anchor="middle" x="88.5" y="-69" font-family="Helvetica,sans-Serif" font-size="10.00" fill="#000000">src/GuiBase/BaseApplication.hpp</text>
</a>
</g>
</g>
<!-- Node13&#45;&gt;Node14 -->
<g id="edge1" class="edge">
<title>Node13&#45;&gt;Node14</title>
<path fill="none" stroke="#191970" d="M169.6581,-118.3758C148.2866,-106.0319 121.8958,-90.789 105.1277,-81.1039"/>
<polygon fill="#191970" stroke="#191970" points="168.0574,-121.4931 178.4673,-123.4639 171.5585,-115.4315 168.0574,-121.4931"/>
</g>
<!-- Node15 -->
<g id="node3" class="node">
<title>Node15</title>
<g id="a_node3"><a xlink:href="BaseApplication_8cpp.html" target="_top" xlink:title="src/GuiBase/BaseApplication.cpp">
<polygon fill="#ffffff" stroke="#000000" points="58.5,-.5 58.5,-19.5 234.5,-19.5 234.5,-.5 58.5,-.5"/>
<text text-anchor="middle" x="146.5" y="-7.5" font-family="Helvetica,sans-Serif" font-size="10.00" fill="#000000">src/GuiBase/BaseApplication.cpp</text>
</a>
</g>
</g>
<!-- Node13&#45;&gt;Node15 -->
<g id="edge3" class="edge">
<title>Node13&#45;&gt;Node15</title>
<path fill="none" stroke="#191970" d="M201.8507,-113.2588C199.332,-96.3591 194.5252,-73.9989 185.5,-56 178.3665,-41.7738 165.955,-28.2244 157.048,-19.5634"/>
<polygon fill="#191970" stroke="#191970" points="198.4204,-114.0179 203.1968,-123.475 205.3604,-113.1035 198.4204,-114.0179"/>
</g>
<!-- Node16 -->
<g id="node4" class="node">
<title>Node16</title>
<g id="a_node4"><a xlink:href="RadiumPluginInterface_8cpp.html" target="_top" xlink:title="src/PluginBase/RadiumPlugin\lInterface.cpp">
<polygon fill="#ffffff" stroke="#000000" points="232.5,-56.5 232.5,-86.5 390.5,-86.5 390.5,-56.5 232.5,-56.5"/>
<text text-anchor="start" x="240.5" y="-74.5" font-family="Helvetica,sans-Serif" font-size="10.00" fill="#000000">src/PluginBase/RadiumPlugin</text>
<text text-anchor="middle" x="311.5" y="-63.5" font-family="Helvetica,sans-Serif" font-size="10.00" fill="#000000">Interface.cpp</text>
</a>
</g>
</g>
<!-- Node13&#45;&gt;Node16 -->
<g id="edge4" class="edge">
<title>Node13&#45;&gt;Node16</title>
<path fill="none" stroke="#191970" d="M237.1173,-118.0761C253.245,-107.9774 272.3758,-95.9983 287.197,-86.7177"/>
<polygon fill="#191970" stroke="#191970" points="235.1309,-115.1903 228.5129,-123.4639 238.8459,-121.1232 235.1309,-115.1903"/>
</g>
<!-- Node14&#45;&gt;Node15 -->
<g id="edge2" class="edge">
<title>Node14&#45;&gt;Node15</title>
<path fill="none" stroke="#191970" d="M104.6261,-54.4007C115.1642,-43.2268 128.5477,-29.0356 137.3097,-19.7449"/>
<polygon fill="#191970" stroke="#191970" points="101.8773,-52.2142 97.5625,-61.8906 106.9698,-57.0169 101.8773,-52.2142"/>
</g>
</g>
</svg>
