<?xml version="1.0" encoding="UTF-8" standalone="no"?>
<!DOCTYPE svg PUBLIC "-//W3C//DTD SVG 1.1//EN"
 "http://www.w3.org/Graphics/SVG/1.1/DTD/svg11.dtd">
<!-- Generated by graphviz version 2.40.1 (20161225.0304)
 -->
<!-- Title: src/Engine/Renderer/RenderObject/RenderObject.hpp Pages: 1 -->
<!--zoomable 341 -->
<svg id="main" version="1.1" xmlns="http://www.w3.org/2000/svg" xmlns:xlink="http://www.w3.org/1999/xlink" xml:space="preserve" onload="init(evt)">
<style type="text/css"><![CDATA[
.edge:hover path { stroke: red; }
.edge:hover polygon { stroke: red; fill: red; }
]]></style>
<script type="text/javascript"><![CDATA[
var edges = document.getElementsByTagName('g');
if (edges && edges.length) {
  for (var i=0;i<edges.length;i++) {
    if (edges[i].id.substr(0,4)=='edge') {
      edges[i].setAttribute('class','edge');
    }
  }
}
]]></script>
        <defs>
                <circle id="rim" cx="0" cy="0" r="7"/>
                <circle id="rim2" cx="0" cy="0" r="3.5"/>
                <g id="zoomPlus">
                        <use xlink:href="#rim" fill="#404040">
                                <set attributeName="fill" to="#808080" begin="zoomplus.mouseover" end="zoomplus.mouseout"/>
                        </use>
                        <path d="M-4,0h8M0,-4v8" fill="none" stroke="white" stroke-width="1.5" pointer-events="none"/>
                </g>
                <g id="zoomMin">
                        <use xlink:href="#rim" fill="#404040">
                                <set attributeName="fill" to="#808080" begin="zoomminus.mouseover" end="zoomminus.mouseout"/>
                        </use>
                        <path d="M-4,0h8" fill="none" stroke="white" stroke-width="1.5" pointer-events="none"/>
                </g>
                <g id="dirArrow">
                        <path fill="none" stroke="white" stroke-width="1.5" d="M0,-3.0v7 M-2.5,-0.5L0,-3.0L2.5,-0.5"/>
                </g>
               <g id="resetDef">
                       <use xlink:href="#rim2" fill="#404040">
                               <set attributeName="fill" to="#808080" begin="reset.mouseover" end="reset.mouseout"/>
                       </use>
               </g>
        </defs>

<script type="text/javascript">
var viewWidth = 1478;
var viewHeight = 341;
var sectionId = 'dynsection-0';
</script>
<script xlink:href="svgpan.js"/>
<svg id="graph" class="graph">
<g id="viewport">
<title>src/Engine/Renderer/RenderObject/RenderObject.hpp</title>
<polygon fill="#ffffff" stroke="transparent" points="-4,4 -4,-337 1473.5,-337 1473.5,4 -4,4"/>
<!-- Node0 -->
<g id="node1" class="node">
<title>Node0</title>
<polygon fill="#bfbfbf" stroke="#000000" points="892.5,-302.5 892.5,-332.5 1066.5,-332.5 1066.5,-302.5 892.5,-302.5"/>
<text text-anchor="start" x="900.5" y="-320.5" font-family="Helvetica,sans-Serif" font-size="10.00" fill="#000000">src/Engine/Renderer</text>
<text text-anchor="middle" x="979.5" y="-309.5" font-family="Helvetica,sans-Serif" font-size="10.00" fill="#000000">/RenderObject/RenderObject.hpp</text>
</g>
<!-- Node1 -->
<g id="node2" class="node">
<title>Node1</title>
<g id="a_node2"><a xlink:href="RaEngine_8hpp.html" target="_top" xlink:title="Engine/RaEngine.hpp">
<polygon fill="#ffffff" stroke="#000000" points="567,-112.5 567,-131.5 686,-131.5 686,-112.5 567,-112.5"/>
<text text-anchor="middle" x="626.5" y="-119.5" font-family="Helvetica,sans-Serif" font-size="10.00" fill="#000000">Engine/RaEngine.hpp</text>
</a>
</g>
</g>
<!-- Node0&#45;&gt;Node1 -->
<g id="edge1" class="edge">
<title>Node0&#45;&gt;Node1</title>
<path fill="none" stroke="#191970" d="M892.4876,-309.448C808.8793,-300.7464 689.1368,-285.4724 646.5,-266 604.6226,-246.8744 586.8468,-240.7757 567.5,-199 561.7101,-186.4978 561.454,-180.3803 567.5,-168 573.9041,-154.8865 586.0521,-144.4229 597.6685,-136.8092"/>
<polygon fill="#191970" stroke="#191970" points="599.6098,-139.7252 606.3439,-131.5457 595.9789,-133.7405 599.6098,-139.7252"/>
</g>
<!-- Node8 -->
<g id="node9" class="node">
<title>Node8</title>
<polygon fill="#ffffff" stroke="#bfbfbf" points="1125.5,-174 1125.5,-193 1183.5,-193 1183.5,-174 1125.5,-174"/>
<text text-anchor="middle" x="1154.5" y="-181" font-family="Helvetica,sans-Serif" font-size="10.00" fill="#000000">memory</text>
</g>
<!-- Node0&#45;&gt;Node8 -->
<g id="edge8" class="edge">
<title>Node0&#45;&gt;Node8</title>
<path fill="none" stroke="#191970" d="M999.2345,-302.389C1032.5493,-276.8794 1099.6333,-225.5122 1133.6715,-199.4487"/>
<polygon fill="#191970" stroke="#191970" points="1136.1454,-201.9627 1141.9572,-193.1042 1131.8897,-196.4048 1136.1454,-201.9627"/>
</g>
<!-- Node9 -->
<g id="node10" class="node">
<title>Node9</title>
<polygon fill="#ffffff" stroke="#bfbfbf" points="1239.5,-241 1239.5,-260 1287.5,-260 1287.5,-241 1239.5,-241"/>
<text text-anchor="middle" x="1263.5" y="-248" font-family="Helvetica,sans-Serif" font-size="10.00" fill="#000000">mutex</text>
</g>
<!-- Node0&#45;&gt;Node9 -->
<g id="edge9" class="edge">
<title>Node0&#45;&gt;Node9</title>
<path fill="none" stroke="#191970" d="M1066.7086,-303.219C1114.1873,-294.4538 1173.6555,-281.8576 1225.5,-266 1227.7995,-265.2967 1230.1532,-264.5094 1232.5067,-263.6725"/>
<polygon fill="#191970" stroke="#191970" points="1233.9428,-266.8709 1242.0424,-260.041 1231.4514,-260.3292 1233.9428,-266.8709"/>
</g>
<!-- Node10 -->
<g id="node11" class="node">
<title>Node10</title>
<polygon fill="#ffffff" stroke="#bfbfbf" points="1166.5,-112.5 1166.5,-131.5 1210.5,-131.5 1210.5,-112.5 1166.5,-112.5"/>
<text text-anchor="middle" x="1188.5" y="-119.5" font-family="Helvetica,sans-Serif" font-size="10.00" fill="#000000">string</text>
</g>
<!-- Node0&#45;&gt;Node10 -->
<g id="edge10" class="edge">
<title>Node0&#45;&gt;Node10</title>
<path fill="none" stroke="#191970" d="M1040.7438,-302.4524C1091.7204,-286.2875 1160.883,-255.0143 1192.5,-199 1202.4315,-181.4048 1199.2613,-157.7905 1194.9864,-141.3714"/>
<polygon fill="#191970" stroke="#191970" points="1198.3355,-140.354 1192.1443,-131.7563 1191.6226,-142.3383 1198.3355,-140.354"/>
</g>
<!-- Node11 -->
<g id="node12" class="node">
<title>Node11</title>
<g id="a_node12"><a xlink:href="Types_8hpp.html" target="_top" xlink:title="Core/Types.hpp">
<polygon fill="#ffffff" stroke="#000000" points="201,-241 201,-260 292,-260 292,-241 201,-241"/>
<text text-anchor="middle" x="246.5" y="-248" font-family="Helvetica,sans-Serif" font-size="10.00" fill="#000000">Core/Types.hpp</text>
</a>
</g>
</g>
<!-- Node0&#45;&gt;Node11 -->
<g id="edge11" class="edge">
<title>Node0&#45;&gt;Node11</title>
<path fill="none" stroke="#191970" d="M892.3901,-313.9993C766.3928,-308.1803 526.1718,-294.2498 323.5,-266 315.5306,-264.8892 307.1441,-263.4669 298.9562,-261.9358"/>
<polygon fill="#191970" stroke="#191970" points="299.5918,-258.494 289.1086,-260.0279 298.2602,-265.3662 299.5918,-258.494"/>
</g>
<!-- Node16 -->
<g id="node17" class="node">
<title>Node16</title>
<g id="a_node17"><a xlink:href="IndexedObject_8hpp.html" target="_top" xlink:title="Core/Utils/IndexedObject.hpp">
<polygon fill="#ffffff" stroke="#000000" points="333,-241 333,-260 492,-260 492,-241 333,-241"/>
<text text-anchor="middle" x="412.5" y="-248" font-family="Helvetica,sans-Serif" font-size="10.00" fill="#000000">Core/Utils/IndexedObject.hpp</text>
</a>
</g>
</g>
<!-- Node0&#45;&gt;Node16 -->
<g id="edge17" class="edge">
<title>Node0&#45;&gt;Node16</title>
<path fill="none" stroke="#191970" d="M892.3902,-309.5353C797.1697,-300.4795 640.1914,-284.5261 505.5,-266 496.1125,-264.7088 486.215,-263.209 476.5181,-261.6608"/>
<polygon fill="#191970" stroke="#191970" points="476.947,-258.1847 466.5153,-260.0368 475.8252,-265.0943 476.947,-258.1847"/>
</g>
<!-- Node20 -->
<g id="node21" class="node">
<title>Node20</title>
<g id="a_node21"><a xlink:href="RenderObjectTypes_8hpp.html" target="_top" xlink:title="Engine/Renderer/RenderObject\l/RenderObjectTypes.hpp">
<polygon fill="#ffffff" stroke="#000000" points="1305.5,-235.5 1305.5,-265.5 1469.5,-265.5 1469.5,-235.5 1305.5,-235.5"/>
<text text-anchor="start" x="1313.5" y="-253.5" font-family="Helvetica,sans-Serif" font-size="10.00" fill="#000000">Engine/Renderer/RenderObject</text>
<text text-anchor="middle" x="1387.5" y="-242.5" font-family="Helvetica,sans-Serif" font-size="10.00" fill="#000000">/RenderObjectTypes.hpp</text>
</a>
</g>
</g>
<!-- Node0&#45;&gt;Node20 -->
<g id="edge24" class="edge">
<title>Node0&#45;&gt;Node20</title>
<path fill="none" stroke="#191970" d="M1066.6498,-303.5257C1127.9218,-293.6577 1212.1098,-280.0131 1295.2907,-266.1951"/>
<polygon fill="#191970" stroke="#191970" points="1295.8745,-269.6462 1305.1649,-264.5532 1294.7262,-262.741 1295.8745,-269.6462"/>
</g>
<!-- Node21 -->
<g id="node22" class="node">
<title>Node21</title>
<g id="a_node22"><a xlink:href="RenderTechnique_8hpp.html" target="_top" xlink:title="Engine/Renderer/RenderTechnique\l/RenderTechnique.hpp">
<polygon fill="#ffffff" stroke="#000000" points="655.5,-235.5 655.5,-265.5 837.5,-265.5 837.5,-235.5 655.5,-235.5"/>
<text text-anchor="start" x="663.5" y="-253.5" font-family="Helvetica,sans-Serif" font-size="10.00" fill="#000000">Engine/Renderer/RenderTechnique</text>
<text text-anchor="middle" x="746.5" y="-242.5" font-family="Helvetica,sans-Serif" font-size="10.00" fill="#000000">/RenderTechnique.hpp</text>
</a>
</g>
</g>
<!-- Node0&#45;&gt;Node21 -->
<g id="edge25" class="edge">
<title>Node0&#45;&gt;Node21</title>
<path fill="none" stroke="#191970" d="M927.2103,-302.4639C892.108,-292.3701 845.6954,-279.024 808.6964,-268.3848"/>
<polygon fill="#191970" stroke="#191970" points="809.5956,-265.0016 799.0178,-265.6017 807.6611,-271.729 809.5956,-265.0016"/>
</g>
<!-- Node2 -->
<g id="node3" class="node">
<title>Node2</title>
<g id="a_node3"><a xlink:href="CoreMacros_8hpp.html" target="_top" xlink:title="Core/CoreMacros.hpp">
<polygon fill="#ffffff" stroke="#000000" points="407.5,-56.5 407.5,-75.5 527.5,-75.5 527.5,-56.5 407.5,-56.5"/>
<text text-anchor="middle" x="467.5" y="-63.5" font-family="Helvetica,sans-Serif" font-size="10.00" fill="#000000">Core/CoreMacros.hpp</text>
</a>
</g>
</g>
<!-- Node1&#45;&gt;Node2 -->
<g id="edge2" class="edge">
<title>Node1&#45;&gt;Node2</title>
<path fill="none" stroke="#191970" d="M599.1669,-112.3733C572.9566,-103.1419 533.2016,-89.1402 504.2332,-78.9375"/>
<polygon fill="#191970" stroke="#191970" points="505.0712,-75.5219 494.4764,-75.5011 502.7458,-82.1244 505.0712,-75.5219"/>
</g>
<!-- Node3 -->
<g id="node4" class="node">
<title>Node3</title>
<polygon fill="#ffffff" stroke="#bfbfbf" points="303.5,-.5 303.5,-19.5 355.5,-19.5 355.5,-.5 303.5,-.5"/>
<text text-anchor="middle" x="329.5" y="-7.5" font-family="Helvetica,sans-Serif" font-size="10.00" fill="#000000">cassert</text>
</g>
<!-- Node2&#45;&gt;Node3 -->
<g id="edge3" class="edge">
<title>Node2&#45;&gt;Node3</title>
<path fill="none" stroke="#191970" d="M443.777,-56.3733C421.3263,-47.2629 387.4261,-33.5062 362.3745,-23.3404"/>
<polygon fill="#191970" stroke="#191970" points="363.4957,-20.0182 352.9135,-19.5011 360.8635,-26.5045 363.4957,-20.0182"/>
</g>
<!-- Node4 -->
<g id="node5" class="node">
<title>Node4</title>
<polygon fill="#ffffff" stroke="#bfbfbf" points="373.5,-.5 373.5,-19.5 419.5,-19.5 419.5,-.5 373.5,-.5"/>
<text text-anchor="middle" x="396.5" y="-7.5" font-family="Helvetica,sans-Serif" font-size="10.00" fill="#000000">cstdio</text>
</g>
<!-- Node2&#45;&gt;Node4 -->
<g id="edge4" class="edge">
<title>Node2&#45;&gt;Node4</title>
<path fill="none" stroke="#191970" d="M455.1327,-56.2455C444.5446,-47.8943 429.0936,-35.7076 416.7107,-25.9408"/>
<polygon fill="#191970" stroke="#191970" points="418.7447,-23.0875 408.7255,-19.6427 414.4097,-28.5837 418.7447,-23.0875"/>
</g>
<!-- Node5 -->
<g id="node6" class="node">
<title>Node5</title>
<polygon fill="#ffffff" stroke="#bfbfbf" points="437.5,-.5 437.5,-19.5 497.5,-19.5 497.5,-.5 437.5,-.5"/>
<text text-anchor="middle" x="467.5" y="-7.5" font-family="Helvetica,sans-Serif" font-size="10.00" fill="#000000">iostream</text>
</g>
<!-- Node2&#45;&gt;Node5 -->
<g id="edge5" class="edge">
<title>Node2&#45;&gt;Node5</title>
<path fill="none" stroke="#191970" d="M467.5,-56.2455C467.5,-48.9382 467.5,-38.6944 467.5,-29.7046"/>
<polygon fill="#191970" stroke="#191970" points="471.0001,-29.6426 467.5,-19.6427 464.0001,-29.6427 471.0001,-29.6426"/>
</g>
<!-- Node6 -->
<g id="node7" class="node">
<title>Node6</title>
<polygon fill="#ffffff" stroke="#bfbfbf" points="515.5,-.5 515.5,-19.5 571.5,-19.5 571.5,-.5 515.5,-.5"/>
<text text-anchor="middle" x="543.5" y="-7.5" font-family="Helvetica,sans-Serif" font-size="10.00" fill="#000000">sstream</text>
</g>
<!-- Node2&#45;&gt;Node6 -->
<g id="edge6" class="edge">
<title>Node2&#45;&gt;Node6</title>
<path fill="none" stroke="#191970" d="M480.7382,-56.2455C492.181,-47.814 508.9296,-35.4729 522.2475,-25.6598"/>
<polygon fill="#191970" stroke="#191970" points="524.4391,-28.3924 530.4135,-19.6427 520.2867,-22.757 524.4391,-28.3924"/>
</g>
<!-- Node7 -->
<g id="node8" class="node">
<title>Node7</title>
<polygon fill="#ffffff" stroke="#bfbfbf" points="589.5,-.5 589.5,-19.5 637.5,-19.5 637.5,-.5 589.5,-.5"/>
<text text-anchor="middle" x="613.5" y="-7.5" font-family="Helvetica,sans-Serif" font-size="10.00" fill="#000000">thread</text>
</g>
<!-- Node2&#45;&gt;Node7 -->
<g id="edge7" class="edge">
<title>Node2&#45;&gt;Node7</title>
<path fill="none" stroke="#191970" d="M492.5983,-56.3733C516.6001,-47.1671 552.9713,-33.2165 579.5524,-23.021"/>
<polygon fill="#191970" stroke="#191970" points="581.131,-26.1642 589.2144,-19.315 578.6242,-19.6285 581.131,-26.1642"/>
</g>
<!-- Node12 -->
<g id="node13" class="node">
<title>Node12</title>
<g id="a_node13"><a xlink:href="RaCore_8hpp.html" target="_top" xlink:title="Core/RaCore.hpp">
<polygon fill="#ffffff" stroke="#000000" points="260.5,-112.5 260.5,-131.5 358.5,-131.5 358.5,-112.5 260.5,-112.5"/>
<text text-anchor="middle" x="309.5" y="-119.5" font-family="Helvetica,sans-Serif" font-size="10.00" fill="#000000">Core/RaCore.hpp</text>
</a>
</g>
</g>
<!-- Node11&#45;&gt;Node12 -->
<g id="edge12" class="edge">
<title>Node11&#45;&gt;Node12</title>
<path fill="none" stroke="#191970" d="M256.8802,-240.8325C266.6776,-231.1483 281.0849,-215.3669 289.5,-199 298.8903,-180.7365 304.1195,-157.713 306.8534,-141.6199"/>
<polygon fill="#191970" stroke="#191970" points="310.3139,-142.1439 308.368,-131.7293 303.3945,-141.0843 310.3139,-142.1439"/>
</g>
<!-- Node13 -->
<g id="node14" class="node">
<title>Node13</title>
<polygon fill="#ffffff" stroke="#bfbfbf" points="212,-174 212,-193 281,-193 281,-174 212,-174"/>
<text text-anchor="middle" x="246.5" y="-181" font-family="Helvetica,sans-Serif" font-size="10.00" fill="#000000">Eigen/Core</text>
</g>
<!-- Node11&#45;&gt;Node13 -->
<g id="edge14" class="edge">
<title>Node11&#45;&gt;Node13</title>
<path fill="none" stroke="#191970" d="M246.5,-240.9005C246.5,-231.149 246.5,-215.7597 246.5,-203.3695"/>
<polygon fill="#191970" stroke="#191970" points="250.0001,-203.0816 246.5,-193.0817 243.0001,-203.0817 250.0001,-203.0816"/>
</g>
<!-- Node14 -->
<g id="node15" class="node">
<title>Node14</title>
<polygon fill="#ffffff" stroke="#bfbfbf" points="0,-174 0,-193 95,-193 95,-174 0,-174"/>
<text text-anchor="middle" x="47.5" y="-181" font-family="Helvetica,sans-Serif" font-size="10.00" fill="#000000">Eigen/Geometry</text>
</g>
<!-- Node11&#45;&gt;Node14 -->
<g id="edge15" class="edge">
<title>Node11&#45;&gt;Node14</title>
<path fill="none" stroke="#191970" d="M217.9882,-240.9005C183.2615,-229.2086 124.4631,-209.4122 85.8078,-196.3976"/>
<polygon fill="#191970" stroke="#191970" points="86.553,-192.9555 75.959,-193.0817 84.3194,-199.5896 86.553,-192.9555"/>
</g>
<!-- Node15 -->
<g id="node16" class="node">
<title>Node15</title>
<polygon fill="#ffffff" stroke="#bfbfbf" points="113.5,-174 113.5,-193 193.5,-193 193.5,-174 113.5,-174"/>
<text text-anchor="middle" x="153.5" y="-181" font-family="Helvetica,sans-Serif" font-size="10.00" fill="#000000">Eigen/Sparse</text>
</g>
<!-- Node11&#45;&gt;Node15 -->
<g id="edge16" class="edge">
<title>Node11&#45;&gt;Node15</title>
<path fill="none" stroke="#191970" d="M233.1754,-240.9005C217.9822,-229.9549 192.9297,-211.9064 174.9716,-198.9688"/>
<polygon fill="#191970" stroke="#191970" points="176.9595,-196.0872 166.7999,-193.0817 172.8677,-201.7668 176.9595,-196.0872"/>
</g>
<!-- Node12&#45;&gt;Node2 -->
<g id="edge13" class="edge">
<title>Node12&#45;&gt;Node2</title>
<path fill="none" stroke="#191970" d="M336.6612,-112.3733C362.7067,-103.1419 402.2116,-89.1402 430.9979,-78.9375"/>
<polygon fill="#191970" stroke="#191970" points="432.437,-82.1408 440.6933,-75.5011 430.0985,-75.5429 432.437,-82.1408"/>
</g>
<!-- Node16&#45;&gt;Node12 -->
<g id="edge18" class="edge">
<title>Node16&#45;&gt;Node12</title>
<path fill="none" stroke="#191970" d="M403.4071,-240.8611C393.9236,-230.685 378.7592,-214.0628 366.5,-199 350.527,-179.3741 333.4075,-155.8797 322.1459,-140.0467"/>
<polygon fill="#191970" stroke="#191970" points="324.8747,-137.8434 316.245,-131.6969 319.1581,-141.8834 324.8747,-137.8434"/>
</g>
<!-- Node17 -->
<g id="node18" class="node">
<title>Node17</title>
<g id="a_node18"><a xlink:href="Index_8hpp.html" target="_top" xlink:title="Core/Utils/Index.hpp">
<polygon fill="#ffffff" stroke="#000000" points="375.5,-174 375.5,-193 491.5,-193 491.5,-174 375.5,-174"/>
<text text-anchor="middle" x="433.5" y="-181" font-family="Helvetica,sans-Serif" font-size="10.00" fill="#000000">Core/Utils/Index.hpp</text>
</a>
</g>
</g>
<!-- Node16&#45;&gt;Node17 -->
<g id="edge19" class="edge">
<title>Node16&#45;&gt;Node17</title>
<path fill="none" stroke="#191970" d="M415.5088,-240.9005C418.5964,-231.0495 423.4874,-215.4451 427.3908,-202.9912"/>
<polygon fill="#191970" stroke="#191970" points="430.8457,-203.6707 430.4968,-193.0817 424.1661,-201.5771 430.8457,-203.6707"/>
</g>
<!-- Node17&#45;&gt;Node12 -->
<g id="edge20" class="edge">
<title>Node17&#45;&gt;Node12</title>
<path fill="none" stroke="#191970" d="M414.125,-173.8906C393.6505,-163.7359 361.1558,-147.6196 337.8115,-136.0416"/>
<polygon fill="#191970" stroke="#191970" points="339.2528,-132.8496 328.7389,-131.5419 336.1425,-139.1207 339.2528,-132.8496"/>
</g>
<!-- Node18 -->
<g id="node19" class="node">
<title>Node18</title>
<polygon fill="#ffffff" stroke="#bfbfbf" points="376.5,-112.5 376.5,-131.5 420.5,-131.5 420.5,-112.5 376.5,-112.5"/>
<text text-anchor="middle" x="398.5" y="-119.5" font-family="Helvetica,sans-Serif" font-size="10.00" fill="#000000">limits</text>
</g>
<!-- Node17&#45;&gt;Node18 -->
<g id="edge21" class="edge">
<title>Node17&#45;&gt;Node18</title>
<path fill="none" stroke="#191970" d="M428.0313,-173.8906C422.9754,-165.0068 415.3228,-151.5601 409.0746,-140.5811"/>
<polygon fill="#191970" stroke="#191970" points="412.034,-138.7048 404.0459,-131.7449 405.9502,-142.1672 412.034,-138.7048"/>
</g>
<!-- Node19 -->
<g id="node20" class="node">
<title>Node19</title>
<g id="a_node20"><a xlink:href="Index_8inl.html" target="_top" xlink:title="Core/Utils/Index.inl">
<polygon fill="#ffffff" stroke="#000000" points="438.5,-112.5 438.5,-131.5 548.5,-131.5 548.5,-112.5 438.5,-112.5"/>
<text text-anchor="middle" x="493.5" y="-119.5" font-family="Helvetica,sans-Serif" font-size="10.00" fill="#000000">Core/Utils/Index.inl</text>
</a>
</g>
</g>
<!-- Node17&#45;&gt;Node19 -->
<g id="edge22" class="edge">
<title>Node17&#45;&gt;Node19</title>
<path fill="none" stroke="#191970" d="M437.8125,-173.8906C445.1665,-164.4683 459.0302,-149.9134 471.2203,-138.6137"/>
<polygon fill="#191970" stroke="#191970" points="473.7813,-141.0189 478.9041,-131.7449 469.116,-135.8002 473.7813,-141.0189"/>
</g>
<!-- Node19&#45;&gt;Node17 -->
<g id="edge23" class="edge">
<title>Node19&#45;&gt;Node17</title>
<path fill="none" stroke="#191970" d="M489.0816,-131.7449C481.6656,-141.216 467.7789,-155.7798 455.605,-167.0482"/>
<polygon fill="#191970" stroke="#191970" points="453.0682,-164.621 447.9375,-173.8906 457.729,-169.8437 453.0682,-164.621"/>
</g>
<!-- Node21&#45;&gt;Node1 -->
<g id="edge27" class="edge">
<title>Node21&#45;&gt;Node1</title>
<path fill="none" stroke="#191970" d="M665.2069,-235.4671C627.1644,-226.6135 587.7547,-214.1693 576.5,-199 568.2905,-187.9351 570.9636,-180.6165 576.5,-168 581.8323,-155.8487 592.1339,-145.4938 602.0076,-137.7031"/>
<polygon fill="#191970" stroke="#191970" points="604.09,-140.5162 610.0823,-131.7788 599.9491,-134.8723 604.09,-140.5162"/>
</g>
<!-- Node21&#45;&gt;Node8 -->
<g id="edge37" class="edge">
<title>Node21&#45;&gt;Node8</title>
<path fill="none" stroke="#191970" d="M837.8556,-244.1528C913.5209,-237.3867 1023.3398,-224.0618 1116.5,-199 1118.9683,-198.336 1121.4911,-197.5537 1124.0046,-196.6993"/>
<polygon fill="#191970" stroke="#191970" points="1125.3757,-199.9234 1133.5179,-193.1444 1122.9254,-193.3662 1125.3757,-199.9234"/>
</g>
<!-- Node21&#45;&gt;Node17 -->
<g id="edge26" class="edge">
<title>Node21&#45;&gt;Node17</title>
<path fill="none" stroke="#191970" d="M676.2567,-235.4639C619.3122,-223.2745 540.2102,-206.3421 487.9788,-195.1616"/>
<polygon fill="#191970" stroke="#191970" points="488.4164,-191.6761 477.9053,-193.0053 486.9511,-198.521 488.4164,-191.6761"/>
</g>
<!-- Node22 -->
<g id="node23" class="node">
<title>Node22</title>
<g id="a_node23"><a xlink:href="ShaderConfiguration_8hpp.html" target="_top" xlink:title="Engine/Renderer/RenderTechnique\l/ShaderConfiguration.hpp">
<polygon fill="#ffffff" stroke="#000000" points="925.5,-168.5 925.5,-198.5 1107.5,-198.5 1107.5,-168.5 925.5,-168.5"/>
<text text-anchor="start" x="933.5" y="-186.5" font-family="Helvetica,sans-Serif" font-size="10.00" fill="#000000">Engine/Renderer/RenderTechnique</text>
<text text-anchor="middle" x="1016.5" y="-175.5" font-family="Helvetica,sans-Serif" font-size="10.00" fill="#000000">/ShaderConfiguration.hpp</text>
</a>
</g>
</g>
<!-- Node21&#45;&gt;Node22 -->
<g id="edge28" class="edge">
<title>Node21&#45;&gt;Node22</title>
<path fill="none" stroke="#191970" d="M807.0933,-235.4639C848.2024,-225.2627 902.6983,-211.7397 945.7915,-201.0462"/>
<polygon fill="#191970" stroke="#191970" points="946.7798,-204.4072 955.6425,-198.6017 945.0938,-197.6132 946.7798,-204.4072"/>
</g>
<!-- Node27 -->
<g id="node28" class="node">
<title>Node27</title>
<polygon fill="#ffffff" stroke="#bfbfbf" points="586,-174 586,-193 651,-193 651,-174 586,-174"/>
<text text-anchor="middle" x="618.5" y="-181" font-family="Helvetica,sans-Serif" font-size="10.00" fill="#000000">functional</text>
</g>
<!-- Node21&#45;&gt;Node27 -->
<g id="edge35" class="edge">
<title>Node21&#45;&gt;Node27</title>
<path fill="none" stroke="#191970" d="M717.7743,-235.4639C696.2975,-224.2222 667.1138,-208.9463 645.9505,-197.8686"/>
<polygon fill="#191970" stroke="#191970" points="647.3306,-194.6406 636.8478,-193.1039 644.0843,-200.8423 647.3306,-194.6406"/>
</g>
<!-- Node28 -->
<g id="node29" class="node">
<title>Node28</title>
<polygon fill="#ffffff" stroke="#bfbfbf" points="669.5,-174 669.5,-193 707.5,-193 707.5,-174 669.5,-174"/>
<text text-anchor="middle" x="688.5" y="-181" font-family="Helvetica,sans-Serif" font-size="10.00" fill="#000000">map</text>
</g>
<!-- Node21&#45;&gt;Node28 -->
<g id="edge36" class="edge">
<title>Node21&#45;&gt;Node28</title>
<path fill="none" stroke="#191970" d="M733.3389,-235.2967C724.4777,-225.0605 712.7705,-211.5366 703.5407,-200.8746"/>
<polygon fill="#191970" stroke="#191970" points="705.9627,-198.3248 696.7715,-193.055 700.6703,-202.9064 705.9627,-198.3248"/>
</g>
<!-- Node29 -->
<g id="node30" class="node">
<title>Node29</title>
<g id="a_node30"><a xlink:href="RenderTechnique_8inl.html" target="_top" xlink:title="Engine/Renderer/RenderTechnique\l/RenderTechnique.inl">
<polygon fill="#ffffff" stroke="#000000" points="725.5,-168.5 725.5,-198.5 907.5,-198.5 907.5,-168.5 725.5,-168.5"/>
<text text-anchor="start" x="733.5" y="-186.5" font-family="Helvetica,sans-Serif" font-size="10.00" fill="#000000">Engine/Renderer/RenderTechnique</text>
<text text-anchor="middle" x="816.5" y="-175.5" font-family="Helvetica,sans-Serif" font-size="10.00" fill="#000000">/RenderTechnique.inl</text>
</a>
</g>
</g>
<!-- Node21&#45;&gt;Node29 -->
<g id="edge38" class="edge">
<title>Node21&#45;&gt;Node29</title>
<path fill="none" stroke="#191970" d="M762.3841,-235.2967C771.513,-226.559 783.1448,-215.4257 793.2832,-205.7218"/>
<polygon fill="#191970" stroke="#191970" points="795.8747,-208.0862 800.6788,-198.6432 791.0345,-203.0293 795.8747,-208.0862"/>
</g>
<!-- Node22&#45;&gt;Node1 -->
<g id="edge29" class="edge">
<title>Node22&#45;&gt;Node1</title>
<path fill="none" stroke="#191970" d="M925.0623,-169.081C855.0729,-158.0442 760.0086,-143.0533 696.1204,-132.9786"/>
<polygon fill="#191970" stroke="#191970" points="696.5662,-129.5057 686.143,-131.4052 695.4757,-136.4203 696.5662,-129.5057"/>
</g>
<!-- Node22&#45;&gt;Node10 -->
<g id="edge33" class="edge">
<title>Node22&#45;&gt;Node10</title>
<path fill="none" stroke="#191970" d="M1058.5759,-168.4554C1088.8689,-157.6239 1129.1011,-143.2385 1156.7255,-133.3612"/>
<polygon fill="#191970" stroke="#191970" points="1158.0529,-136.6037 1166.2907,-129.9411 1155.6961,-130.0124 1158.0529,-136.6037"/>
</g>
<!-- Node23 -->
<g id="node24" class="node">
<title>Node23</title>
<polygon fill="#ffffff" stroke="#bfbfbf" points="962.5,-112.5 962.5,-131.5 1004.5,-131.5 1004.5,-112.5 962.5,-112.5"/>
<text text-anchor="middle" x="983.5" y="-119.5" font-family="Helvetica,sans-Serif" font-size="10.00" fill="#000000">array</text>
</g>
<!-- Node22&#45;&gt;Node23 -->
<g id="edge30" class="edge">
<title>Node22&#45;&gt;Node23</title>
<path fill="none" stroke="#191970" d="M1008.3427,-168.2977C1003.9051,-160.0277 998.375,-149.7215 993.6596,-140.9339"/>
<polygon fill="#191970" stroke="#191970" points="996.596,-139.0037 988.7837,-131.8469 990.4279,-142.3134 996.596,-139.0037"/>
</g>
<!-- Node24 -->
<g id="node25" class="node">
<title>Node24</title>
<polygon fill="#ffffff" stroke="#bfbfbf" points="1022.5,-112.5 1022.5,-131.5 1054.5,-131.5 1054.5,-112.5 1022.5,-112.5"/>
<text text-anchor="middle" x="1038.5" y="-119.5" font-family="Helvetica,sans-Serif" font-size="10.00" fill="#000000">list</text>
</g>
<!-- Node22&#45;&gt;Node24 -->
<g id="edge31" class="edge">
<title>Node22&#45;&gt;Node24</title>
<path fill="none" stroke="#191970" d="M1021.9382,-168.2977C1024.833,-160.2055 1028.4251,-150.1639 1031.5234,-141.5029"/>
<polygon fill="#191970" stroke="#191970" points="1034.9047,-142.4415 1034.9775,-131.8469 1028.3138,-140.0837 1034.9047,-142.4415"/>
</g>
<!-- Node25 -->
<g id="node26" class="node">
<title>Node25</title>
<polygon fill="#ffffff" stroke="#bfbfbf" points="1072.5,-112.5 1072.5,-131.5 1104.5,-131.5 1104.5,-112.5 1072.5,-112.5"/>
<text text-anchor="middle" x="1088.5" y="-119.5" font-family="Helvetica,sans-Serif" font-size="10.00" fill="#000000">set</text>
</g>
<!-- Node22&#45;&gt;Node25 -->
<g id="edge32" class="edge">
<title>Node22&#45;&gt;Node25</title>
<path fill="none" stroke="#191970" d="M1034.2978,-168.2977C1044.9167,-159.2274 1058.4031,-147.7077 1069.2667,-138.4285"/>
<polygon fill="#191970" stroke="#191970" points="1071.6413,-141.0031 1076.9719,-131.8469 1067.0949,-135.6805 1071.6413,-141.0031"/>
</g>
<!-- Node26 -->
<g id="node27" class="node">
<title>Node26</title>
<polygon fill="#ffffff" stroke="#bfbfbf" points="897,-112.5 897,-131.5 944,-131.5 944,-112.5 897,-112.5"/>
<text text-anchor="middle" x="920.5" y="-119.5" font-family="Helvetica,sans-Serif" font-size="10.00" fill="#000000">vector</text>
</g>
<!-- Node22&#45;&gt;Node26 -->
<g id="edge34" class="edge">
<title>Node22&#45;&gt;Node26</title>
<path fill="none" stroke="#191970" d="M992.7697,-168.2977C977.9638,-158.8127 958.9772,-146.6495 944.1807,-137.1705"/>
<polygon fill="#191970" stroke="#191970" points="945.8925,-134.1105 935.5841,-131.6633 942.1165,-140.0047 945.8925,-134.1105"/>
</g>
</g>
</svg>
        <g id="navigator" transform="translate(0 0)" fill="#404254">
                <rect fill="#f2f5e9" fill-opacity="0.5" stroke="#606060" stroke-width=".5" x="0" y="0" width="60" height="60"/>
                <use id="zoomplus" xlink:href="#zoomPlus" x="17" y="9" onmousedown="handleZoom(evt,'in')"/>
                <use id="zoomminus" xlink:href="#zoomMin" x="42" y="9" onmousedown="handleZoom(evt,'out')"/>
                <use id="reset" xlink:href="#resetDef" x="30" y="36" onmousedown="handleReset()"/>
                <g id="arrowUp" xlink:href="#dirArrow" transform="translate(30 24)" onmousedown="handlePan(0,-1)">
                  <use xlink:href="#rim" fill="#404040">
                        <set attributeName="fill" to="#808080" begin="arrowUp.mouseover" end="arrowUp.mouseout"/>
                  </use>
                  <path fill="none" stroke="white" stroke-width="1.5" d="M0,-3.0v7 M-2.5,-0.5L0,-3.0L2.5,-0.5"/>
                </g>
                <g id="arrowRight" xlink:href="#dirArrow" transform="rotate(90) translate(36 -43)" onmousedown="handlePan(1,0)">
                  <use xlink:href="#rim" fill="#404040">
                        <set attributeName="fill" to="#808080" begin="arrowRight.mouseover" end="arrowRight.mouseout"/>
                  </use>
                  <path fill="none" stroke="white" stroke-width="1.5" d="M0,-3.0v7 M-2.5,-0.5L0,-3.0L2.5,-0.5"/>
                </g>
                <g id="arrowDown" xlink:href="#dirArrow" transform="rotate(180) translate(-30 -48)" onmousedown="handlePan(0,1)">
                  <use xlink:href="#rim" fill="#404040">
                        <set attributeName="fill" to="#808080" begin="arrowDown.mouseover" end="arrowDown.mouseout"/>
                  </use>
                  <path fill="none" stroke="white" stroke-width="1.5" d="M0,-3.0v7 M-2.5,-0.5L0,-3.0L2.5,-0.5"/>
                </g>
                <g id="arrowLeft" xlink:href="#dirArrow" transform="rotate(270) translate(-36 17)" onmousedown="handlePan(-1,0)">
                  <use xlink:href="#rim" fill="#404040">
                        <set attributeName="fill" to="#808080" begin="arrowLeft.mouseover" end="arrowLeft.mouseout"/>
                  </use>
                  <path fill="none" stroke="white" stroke-width="1.5" d="M0,-3.0v7 M-2.5,-0.5L0,-3.0L2.5,-0.5"/>
                </g>
        </g>
        <svg viewBox="0 0 15 15" width="100%" height="30px" preserveAspectRatio="xMaxYMin meet">
         <g id="arrow_out" transform="scale(0.3 0.3)">
          <a xlink:href="RenderObject_8hpp__incl_org.svg" target="_base">
           <rect id="button" ry="5" rx="5" y="6" x="6" height="38" width="38"
                fill="#f2f5e9" fill-opacity="0.5" stroke="#606060" stroke-width="1.0"/>
           <path id="arrow"
             d="M 11.500037,31.436501 C 11.940474,20.09759 22.043105,11.32322 32.158766,21.979434 L 37.068811,17.246167 C 37.068811,17.246167 37.088388,32 37.088388,32 L 22.160133,31.978069 C 22.160133,31.978069 26.997745,27.140456 26.997745,27.140456 C 18.528582,18.264221 13.291696,25.230495 11.500037,31.436501 z"
             style="fill:#404040;"/>
          </a>
         </g>
        </svg>
</svg>
