<?xml version="1.0" encoding="UTF-8" standalone="no"?>
<!DOCTYPE svg PUBLIC "-//W3C//DTD SVG 1.1//EN"
 "http://www.w3.org/Graphics/SVG/1.1/DTD/svg11.dtd">
<!-- Generated by graphviz version 2.40.1 (20161225.0304)
 -->
<!-- Title: src/Engine/Renderer/RenderObject/RenderObjectManager.hpp Pages: 1 -->
<!--zoomable 128 -->
<svg id="main" version="1.1" xmlns="http://www.w3.org/2000/svg" xmlns:xlink="http://www.w3.org/1999/xlink" xml:space="preserve" onload="init(evt)">
<style type="text/css"><![CDATA[
.edge:hover path { stroke: red; }
.edge:hover polygon { stroke: red; fill: red; }
]]></style>
<script type="text/javascript"><![CDATA[
var edges = document.getElementsByTagName('g');
if (edges && edges.length) {
  for (var i=0;i<edges.length;i++) {
    if (edges[i].id.substr(0,4)=='edge') {
      edges[i].setAttribute('class','edge');
    }
  }
}
]]></script>
        <defs>
                <circle id="rim" cx="0" cy="0" r="7"/>
                <circle id="rim2" cx="0" cy="0" r="3.5"/>
                <g id="zoomPlus">
                        <use xlink:href="#rim" fill="#404040">
                                <set attributeName="fill" to="#808080" begin="zoomplus.mouseover" end="zoomplus.mouseout"/>
                        </use>
                        <path d="M-4,0h8M0,-4v8" fill="none" stroke="white" stroke-width="1.5" pointer-events="none"/>
                </g>
                <g id="zoomMin">
                        <use xlink:href="#rim" fill="#404040">
                                <set attributeName="fill" to="#808080" begin="zoomminus.mouseover" end="zoomminus.mouseout"/>
                        </use>
                        <path d="M-4,0h8" fill="none" stroke="white" stroke-width="1.5" pointer-events="none"/>
                </g>
                <g id="dirArrow">
                        <path fill="none" stroke="white" stroke-width="1.5" d="M0,-3.0v7 M-2.5,-0.5L0,-3.0L2.5,-0.5"/>
                </g>
               <g id="resetDef">
                       <use xlink:href="#rim2" fill="#404040">
                               <set attributeName="fill" to="#808080" begin="reset.mouseover" end="reset.mouseout"/>
                       </use>
               </g>
        </defs>

<script type="text/javascript">
var viewWidth = 1446;
var viewHeight = 128;
var sectionId = 'dynsection-1';
</script>
<script xlink:href="svgpan.js"/>
<svg id="graph" class="graph">
<g id="viewport">
<title>src/Engine/Renderer/RenderObject/RenderObjectManager.hpp</title>
<polygon fill="#ffffff" stroke="transparent" points="-4,4 -4,-124 1441.5,-124 1441.5,4 -4,4"/>
<!-- Node27 -->
<g id="node1" class="node">
<title>Node27</title>
<polygon fill="#bfbfbf" stroke="#000000" points="658.5,-78.5 658.5,-119.5 811.5,-119.5 811.5,-78.5 658.5,-78.5"/>
<text text-anchor="start" x="666.5" y="-107.5" font-family="Helvetica,sans-Serif" font-size="10.00" fill="#000000">src/Engine/Renderer</text>
<text text-anchor="start" x="666.5" y="-96.5" font-family="Helvetica,sans-Serif" font-size="10.00" fill="#000000">/RenderObject/RenderObject</text>
<text text-anchor="middle" x="735" y="-85.5" font-family="Helvetica,sans-Serif" font-size="10.00" fill="#000000">Manager.hpp</text>
</g>
<!-- Node28 -->
<g id="node2" class="node">
<title>Node28</title>
<g id="a_node2"><a xlink:href="Component_8cpp.html" target="_top" xlink:title="src/Engine/Component\l/Component.cpp">
<polygon fill="#ffffff" stroke="#000000" points="0,-6 0,-36 126,-36 126,-6 0,-6"/>
<text text-anchor="start" x="8" y="-24" font-family="Helvetica,sans-Serif" font-size="10.00" fill="#000000">src/Engine/Component</text>
<text text-anchor="middle" x="63" y="-13" font-family="Helvetica,sans-Serif" font-size="10.00" fill="#000000">/Component.cpp</text>
</a>
</g>
</g>
<!-- Node27&#45;&gt;Node28 -->
<g id="edge1" class="edge">
<title>Node27&#45;&gt;Node28</title>
<path fill="none" stroke="#191970" d="M648.0911,-95.8961C530.7335,-90.5361 315.4914,-76.5727 135,-42 126.8155,-40.4323 118.2232,-38.3359 109.9386,-36.0732"/>
<polygon fill="#191970" stroke="#191970" points="647.9535,-99.3934 658.0997,-96.3431 648.2659,-92.4003 647.9535,-99.3934"/>
</g>
<!-- Node29 -->
<g id="node3" class="node">
<title>Node29</title>
<g id="a_node3"><a xlink:href="GeometryComponent_8cpp.html" target="_top" xlink:title="src/Engine/Component\l/GeometryComponent.cpp">
<polygon fill="#ffffff" stroke="#000000" points="144.5,-6 144.5,-36 289.5,-36 289.5,-6 144.5,-6"/>
<text text-anchor="start" x="152.5" y="-24" font-family="Helvetica,sans-Serif" font-size="10.00" fill="#000000">src/Engine/Component</text>
<text text-anchor="middle" x="217" y="-13" font-family="Helvetica,sans-Serif" font-size="10.00" fill="#000000">/GeometryComponent.cpp</text>
</a>
</g>
</g>
<!-- Node27&#45;&gt;Node29 -->
<g id="edge2" class="edge">
<title>Node27&#45;&gt;Node29</title>
<path fill="none" stroke="#191970" d="M648.1765,-90.7692C559.8278,-81.6642 419.1764,-65.1563 299,-42 290.1976,-40.3039 280.9344,-38.2238 271.9296,-36.0389"/>
<polygon fill="#191970" stroke="#191970" points="647.8499,-94.2539 658.154,-91.7888 648.5617,-87.2902 647.8499,-94.2539"/>
</g>
<!-- Node30 -->
<g id="node4" class="node">
<title>Node30</title>
<g id="a_node4"><a xlink:href="ItemEntry_8cpp.html" target="_top" xlink:title="src/Engine/ItemModel\l/ItemEntry.cpp">
<polygon fill="#ffffff" stroke="#000000" points="308,-6 308,-36 430,-36 430,-6 308,-6"/>
<text text-anchor="start" x="316" y="-24" font-family="Helvetica,sans-Serif" font-size="10.00" fill="#000000">src/Engine/ItemModel</text>
<text text-anchor="middle" x="369" y="-13" font-family="Helvetica,sans-Serif" font-size="10.00" fill="#000000">/ItemEntry.cpp</text>
</a>
</g>
</g>
<!-- Node27&#45;&gt;Node30 -->
<g id="edge3" class="edge">
<title>Node27&#45;&gt;Node30</title>
<path fill="none" stroke="#191970" d="M648.4216,-84.7097C589.1366,-74.3432 508.9028,-59.1692 439,-42 431.8534,-40.2447 424.352,-38.2068 417.0234,-36.1045"/>
<polygon fill="#191970" stroke="#191970" points="648.0427,-88.1963 658.4943,-86.4601 649.2412,-81.2996 648.0427,-88.1963"/>
</g>
<!-- Node31 -->
<g id="node5" class="node">
<title>Node31</title>
<g id="a_node5"><a xlink:href="SystemDisplay_8cpp.html" target="_top" xlink:title="src/Engine/Managers\l/SystemDisplay/SystemDisplay.cpp">
<polygon fill="#ffffff" stroke="#000000" points="448,-6 448,-36 636,-36 636,-6 448,-6"/>
<text text-anchor="start" x="456" y="-24" font-family="Helvetica,sans-Serif" font-size="10.00" fill="#000000">src/Engine/Managers</text>
<text text-anchor="middle" x="542" y="-13" font-family="Helvetica,sans-Serif" font-size="10.00" fill="#000000">/SystemDisplay/SystemDisplay.cpp</text>
</a>
</g>
</g>
<!-- Node27&#45;&gt;Node31 -->
<g id="edge4" class="edge">
<title>Node27&#45;&gt;Node31</title>
<path fill="none" stroke="#191970" d="M674.5486,-74.5688C643.3017,-61.9406 606.1657,-46.9323 579.1619,-36.0188"/>
<polygon fill="#191970" stroke="#191970" points="673.4561,-77.9023 684.0391,-78.4044 676.0791,-71.4123 673.4561,-77.9023"/>
</g>
<!-- Node32 -->
<g id="node6" class="node">
<title>Node32</title>
<g id="a_node6"><a xlink:href="RadiumEngine_8cpp.html" target="_top" xlink:title="src/Engine/RadiumEngine.cpp">
<polygon fill="#ffffff" stroke="#000000" points="654.5,-11.5 654.5,-30.5 815.5,-30.5 815.5,-11.5 654.5,-11.5"/>
<text text-anchor="middle" x="735" y="-18.5" font-family="Helvetica,sans-Serif" font-size="10.00" fill="#000000">src/Engine/RadiumEngine.cpp</text>
</a>
</g>
</g>
<!-- Node27&#45;&gt;Node32 -->
<g id="edge5" class="edge">
<title>Node27&#45;&gt;Node32</title>
<path fill="none" stroke="#191970" d="M735,-67.8707C735,-54.6273 735,-40.1205 735,-30.8072"/>
<polygon fill="#191970" stroke="#191970" points="731.5001,-68.0974 735,-78.0974 738.5001,-68.0975 731.5001,-68.0974"/>
</g>
<!-- Node33 -->
<g id="node7" class="node">
<title>Node33</title>
<g id="a_node7"><a xlink:href="Renderer_8cpp.html" target="_top" xlink:title="src/Engine/Renderer\l/Renderer.cpp">
<polygon fill="#ffffff" stroke="#000000" points="833.5,-6 833.5,-36 946.5,-36 946.5,-6 833.5,-6"/>
<text text-anchor="start" x="841.5" y="-24" font-family="Helvetica,sans-Serif" font-size="10.00" fill="#000000">src/Engine/Renderer</text>
<text text-anchor="middle" x="890" y="-13" font-family="Helvetica,sans-Serif" font-size="10.00" fill="#000000">/Renderer.cpp</text>
</a>
</g>
</g>
<!-- Node27&#45;&gt;Node33 -->
<g id="edge6" class="edge">
<title>Node27&#45;&gt;Node33</title>
<path fill="none" stroke="#191970" d="M785.3461,-73.6646C809.9924,-61.2619 838.8329,-46.7486 859.9896,-36.102"/>
<polygon fill="#191970" stroke="#191970" points="783.4896,-70.6805 776.1302,-78.3022 786.6363,-76.9334 783.4896,-70.6805"/>
</g>
<!-- Node34 -->
<g id="node8" class="node">
<title>Node34</title>
<g id="a_node8"><a xlink:href="RenderObject_8cpp.html" target="_top" xlink:title="src/Engine/Renderer\l/RenderObject/RenderObject.cpp">
<polygon fill="#ffffff" stroke="#000000" points="964.5,-6 964.5,-36 1137.5,-36 1137.5,-6 964.5,-6"/>
<text text-anchor="start" x="972.5" y="-24" font-family="Helvetica,sans-Serif" font-size="10.00" fill="#000000">src/Engine/Renderer</text>
<text text-anchor="middle" x="1051" y="-13" font-family="Helvetica,sans-Serif" font-size="10.00" fill="#000000">/RenderObject/RenderObject.cpp</text>
</a>
</g>
</g>
<!-- Node27&#45;&gt;Node34 -->
<g id="edge7" class="edge">
<title>Node27&#45;&gt;Node34</title>
<path fill="none" stroke="#191970" d="M821.7082,-77.5973C875.1457,-64.4071 942.3497,-47.8187 990.1568,-36.0183"/>
<polygon fill="#191970" stroke="#191970" points="820.7681,-74.2243 811.8982,-80.0188 822.4456,-81.0203 820.7681,-74.2243"/>
</g>
<!-- Node35 -->
<g id="node9" class="node">
<title>Node35</title>
<g id="a_node9"><a xlink:href="RenderObjectManager_8cpp.html" target="_top" xlink:title="src/Engine/Renderer\l/RenderObject/RenderObject\lManager.cpp">
<polygon fill="#ffffff" stroke="#000000" points="1155.5,-.5 1155.5,-41.5 1308.5,-41.5 1308.5,-.5 1155.5,-.5"/>
<text text-anchor="start" x="1163.5" y="-29.5" font-family="Helvetica,sans-Serif" font-size="10.00" fill="#000000">src/Engine/Renderer</text>
<text text-anchor="start" x="1163.5" y="-18.5" font-family="Helvetica,sans-Serif" font-size="10.00" fill="#000000">/RenderObject/RenderObject</text>
<text text-anchor="middle" x="1232" y="-7.5" font-family="Helvetica,sans-Serif" font-size="10.00" fill="#000000">Manager.cpp</text>
</a>
</g>
</g>
<!-- Node27&#45;&gt;Node35 -->
<g id="edge8" class="edge">
<title>Node27&#45;&gt;Node35</title>
<path fill="none" stroke="#191970" d="M821.6761,-89.6829C905.3488,-80.0594 1035.4178,-63.4413 1147,-42 1149.687,-41.4837 1152.4163,-40.9362 1155.1688,-40.3643"/>
<polygon fill="#191970" stroke="#191970" points="821.2446,-86.2093 811.7064,-90.8217 822.0391,-93.1641 821.2446,-86.2093"/>
</g>
<!-- Node36 -->
<g id="node10" class="node">
<title>Node36</title>
<g id="a_node10"><a xlink:href="Gizmo_8cpp.html" target="_top" xlink:title="src/GuiBase/Viewer\l/Gizmo/Gizmo.cpp">
<polygon fill="#ffffff" stroke="#000000" points="1326.5,-6 1326.5,-36 1437.5,-36 1437.5,-6 1326.5,-6"/>
<text text-anchor="start" x="1334.5" y="-24" font-family="Helvetica,sans-Serif" font-size="10.00" fill="#000000">src/GuiBase/Viewer</text>
<text text-anchor="middle" x="1382" y="-13" font-family="Helvetica,sans-Serif" font-size="10.00" fill="#000000">/Gizmo/Gizmo.cpp</text>
</a>
</g>
</g>
<!-- Node27&#45;&gt;Node36 -->
<g id="edge9" class="edge">
<title>Node27&#45;&gt;Node36</title>
<path fill="none" stroke="#191970" d="M821.8706,-96.4493C936.5811,-91.7333 1144.3511,-78.5145 1318,-42 1325.4384,-40.4359 1333.2255,-38.3122 1340.7046,-36.0139"/>
<polygon fill="#191970" stroke="#191970" points="821.5946,-92.9575 811.7421,-96.8535 821.8738,-99.9519 821.5946,-92.9575"/>
</g>
</g>
</svg>
        <g id="navigator" transform="translate(0 0)" fill="#404254">
                <rect fill="#f2f5e9" fill-opacity="0.5" stroke="#606060" stroke-width=".5" x="0" y="0" width="60" height="60"/>
                <use id="zoomplus" xlink:href="#zoomPlus" x="17" y="9" onmousedown="handleZoom(evt,'in')"/>
                <use id="zoomminus" xlink:href="#zoomMin" x="42" y="9" onmousedown="handleZoom(evt,'out')"/>
                <use id="reset" xlink:href="#resetDef" x="30" y="36" onmousedown="handleReset()"/>
                <g id="arrowUp" xlink:href="#dirArrow" transform="translate(30 24)" onmousedown="handlePan(0,-1)">
                  <use xlink:href="#rim" fill="#404040">
                        <set attributeName="fill" to="#808080" begin="arrowUp.mouseover" end="arrowUp.mouseout"/>
                  </use>
                  <path fill="none" stroke="white" stroke-width="1.5" d="M0,-3.0v7 M-2.5,-0.5L0,-3.0L2.5,-0.5"/>
                </g>
                <g id="arrowRight" xlink:href="#dirArrow" transform="rotate(90) translate(36 -43)" onmousedown="handlePan(1,0)">
                  <use xlink:href="#rim" fill="#404040">
                        <set attributeName="fill" to="#808080" begin="arrowRight.mouseover" end="arrowRight.mouseout"/>
                  </use>
                  <path fill="none" stroke="white" stroke-width="1.5" d="M0,-3.0v7 M-2.5,-0.5L0,-3.0L2.5,-0.5"/>
                </g>
                <g id="arrowDown" xlink:href="#dirArrow" transform="rotate(180) translate(-30 -48)" onmousedown="handlePan(0,1)">
                  <use xlink:href="#rim" fill="#404040">
                        <set attributeName="fill" to="#808080" begin="arrowDown.mouseover" end="arrowDown.mouseout"/>
                  </use>
                  <path fill="none" stroke="white" stroke-width="1.5" d="M0,-3.0v7 M-2.5,-0.5L0,-3.0L2.5,-0.5"/>
                </g>
                <g id="arrowLeft" xlink:href="#dirArrow" transform="rotate(270) translate(-36 17)" onmousedown="handlePan(-1,0)">
                  <use xlink:href="#rim" fill="#404040">
                        <set attributeName="fill" to="#808080" begin="arrowLeft.mouseover" end="arrowLeft.mouseout"/>
                  </use>
                  <path fill="none" stroke="white" stroke-width="1.5" d="M0,-3.0v7 M-2.5,-0.5L0,-3.0L2.5,-0.5"/>
                </g>
        </g>
        <svg viewBox="0 0 15 15" width="100%" height="30px" preserveAspectRatio="xMaxYMin meet">
         <g id="arrow_out" transform="scale(0.3 0.3)">
          <a xlink:href="RenderObjectManager_8hpp__dep__incl_org.svg" target="_base">
           <rect id="button" ry="5" rx="5" y="6" x="6" height="38" width="38"
                fill="#f2f5e9" fill-opacity="0.5" stroke="#606060" stroke-width="1.0"/>
           <path id="arrow"
             d="M 11.500037,31.436501 C 11.940474,20.09759 22.043105,11.32322 32.158766,21.979434 L 37.068811,17.246167 C 37.068811,17.246167 37.088388,32 37.088388,32 L 22.160133,31.978069 C 22.160133,31.978069 26.997745,27.140456 26.997745,27.140456 C 18.528582,18.264221 13.291696,25.230495 11.500037,31.436501 z"
             style="fill:#404040;"/>
          </a>
         </g>
        </svg>
</svg>
