<?xml version="1.0" encoding="UTF-8" standalone="no"?>
<!DOCTYPE svg PUBLIC "-//W3C//DTD SVG 1.1//EN"
 "http://www.w3.org/Graphics/SVG/1.1/DTD/svg11.dtd">
<!-- Generated by graphviz version 2.40.1 (20161225.0304)
 -->
<!-- Title: src/Engine/Renderer/RenderTechnique/RenderTechnique.hpp Pages: 1 -->
<!--zoomable 274 -->
<svg id="main" version="1.1" xmlns="http://www.w3.org/2000/svg" xmlns:xlink="http://www.w3.org/1999/xlink" xml:space="preserve" onload="init(evt)">
<style type="text/css"><![CDATA[
.edge:hover path { stroke: red; }
.edge:hover polygon { stroke: red; fill: red; }
]]></style>
<script type="text/javascript"><![CDATA[
var edges = document.getElementsByTagName('g');
if (edges && edges.length) {
  for (var i=0;i<edges.length;i++) {
    if (edges[i].id.substr(0,4)=='edge') {
      edges[i].setAttribute('class','edge');
    }
  }
}
]]></script>
        <defs>
                <circle id="rim" cx="0" cy="0" r="7"/>
                <circle id="rim2" cx="0" cy="0" r="3.5"/>
                <g id="zoomPlus">
                        <use xlink:href="#rim" fill="#404040">
                                <set attributeName="fill" to="#808080" begin="zoomplus.mouseover" end="zoomplus.mouseout"/>
                        </use>
                        <path d="M-4,0h8M0,-4v8" fill="none" stroke="white" stroke-width="1.5" pointer-events="none"/>
                </g>
                <g id="zoomMin">
                        <use xlink:href="#rim" fill="#404040">
                                <set attributeName="fill" to="#808080" begin="zoomminus.mouseover" end="zoomminus.mouseout"/>
                        </use>
                        <path d="M-4,0h8" fill="none" stroke="white" stroke-width="1.5" pointer-events="none"/>
                </g>
                <g id="dirArrow">
                        <path fill="none" stroke="white" stroke-width="1.5" d="M0,-3.0v7 M-2.5,-0.5L0,-3.0L2.5,-0.5"/>
                </g>
               <g id="resetDef">
                       <use xlink:href="#rim2" fill="#404040">
                               <set attributeName="fill" to="#808080" begin="reset.mouseover" end="reset.mouseout"/>
                       </use>
               </g>
        </defs>

<script type="text/javascript">
var viewWidth = 1026;
var viewHeight = 274;
var sectionId = 'dynsection-0';
</script>
<script xlink:href="svgpan.js"/>
<svg id="graph" class="graph">
<g id="viewport">
<title>src/Engine/Renderer/RenderTechnique/RenderTechnique.hpp</title>
<polygon fill="#ffffff" stroke="transparent" points="-4,4 -4,-270 1022,-270 1022,4 -4,4"/>
<!-- Node0 -->
<g id="node1" class="node">
<title>Node0</title>
<polygon fill="#bfbfbf" stroke="#000000" points="548.5,-235.5 548.5,-265.5 757.5,-265.5 757.5,-235.5 548.5,-235.5"/>
<text text-anchor="start" x="556.5" y="-253.5" font-family="Helvetica,sans-Serif" font-size="10.00" fill="#000000">src/Engine/Renderer</text>
<text text-anchor="middle" x="653" y="-242.5" font-family="Helvetica,sans-Serif" font-size="10.00" fill="#000000">/RenderTechnique/RenderTechnique.hpp</text>
</g>
<!-- Node1 -->
<g id="node2" class="node">
<title>Node1</title>
<g id="a_node2"><a xlink:href="Index_8hpp.html" target="_top" xlink:title="Core/Utils/Index.hpp">
<polygon fill="#ffffff" stroke="#000000" points="175,-174 175,-193 291,-193 291,-174 175,-174"/>
<text text-anchor="middle" x="233" y="-181" font-family="Helvetica,sans-Serif" font-size="10.00" fill="#000000">Core/Utils/Index.hpp</text>
</a>
</g>
</g>
<!-- Node0&#45;&gt;Node1 -->
<g id="edge1" class="edge">
<title>Node0&#45;&gt;Node1</title>
<path fill="none" stroke="#191970" d="M558.7438,-235.4639C480.4828,-222.9794 371.0328,-205.5195 301.0767,-194.3599"/>
<polygon fill="#191970" stroke="#191970" points="301.4768,-190.8795 291.0503,-192.7604 300.374,-197.7921 301.4768,-190.8795"/>
</g>
<!-- Node11 -->
<g id="node12" class="node">
<title>Node11</title>
<g id="a_node12"><a xlink:href="RaEngine_8hpp.html" target="_top" xlink:title="Engine/RaEngine.hpp">
<polygon fill="#ffffff" stroke="#000000" points="306.5,-112.5 306.5,-131.5 425.5,-131.5 425.5,-112.5 306.5,-112.5"/>
<text text-anchor="middle" x="366" y="-119.5" font-family="Helvetica,sans-Serif" font-size="10.00" fill="#000000">Engine/RaEngine.hpp</text>
</a>
</g>
</g>
<!-- Node0&#45;&gt;Node11 -->
<g id="edge12" class="edge">
<title>Node0&#45;&gt;Node11</title>
<path fill="none" stroke="#191970" d="M548.3891,-236.7751C493.5452,-227.9274 433.2378,-215.0713 411,-199 391.2657,-184.738 378.796,-158.943 372.1123,-141.1653"/>
<polygon fill="#191970" stroke="#191970" points="375.3542,-139.832 368.7598,-131.5397 368.7437,-142.1345 375.3542,-139.832"/>
</g>
<!-- Node12 -->
<g id="node13" class="node">
<title>Node12</title>
<g id="a_node13"><a xlink:href="ShaderConfiguration_8hpp.html" target="_top" xlink:title="Engine/Renderer/RenderTechnique\l/ShaderConfiguration.hpp">
<polygon fill="#ffffff" stroke="#000000" points="420,-168.5 420,-198.5 602,-198.5 602,-168.5 420,-168.5"/>
<text text-anchor="start" x="428" y="-186.5" font-family="Helvetica,sans-Serif" font-size="10.00" fill="#000000">Engine/Renderer/RenderTechnique</text>
<text text-anchor="middle" x="511" y="-175.5" font-family="Helvetica,sans-Serif" font-size="10.00" fill="#000000">/ShaderConfiguration.hpp</text>
</a>
</g>
</g>
<!-- Node0&#45;&gt;Node12 -->
<g id="edge14" class="edge">
<title>Node0&#45;&gt;Node12</title>
<path fill="none" stroke="#191970" d="M621.1324,-235.4639C600.8125,-225.8763 574.2738,-213.3545 552.3395,-203.0052"/>
<polygon fill="#191970" stroke="#191970" points="553.7899,-199.8196 543.2525,-198.7177 550.8028,-206.1503 553.7899,-199.8196"/>
</g>
<!-- Node18 -->
<g id="node19" class="node">
<title>Node18</title>
<polygon fill="#ffffff" stroke="#bfbfbf" points="620.5,-174 620.5,-193 685.5,-193 685.5,-174 620.5,-174"/>
<text text-anchor="middle" x="653" y="-181" font-family="Helvetica,sans-Serif" font-size="10.00" fill="#000000">functional</text>
</g>
<!-- Node0&#45;&gt;Node18 -->
<g id="edge21" class="edge">
<title>Node0&#45;&gt;Node18</title>
<path fill="none" stroke="#191970" d="M653,-235.2967C653,-225.7699 653,-213.3954 653,-203.1306"/>
<polygon fill="#191970" stroke="#191970" points="656.5001,-203.0549 653,-193.055 649.5001,-203.055 656.5001,-203.0549"/>
</g>
<!-- Node19 -->
<g id="node20" class="node">
<title>Node19</title>
<polygon fill="#ffffff" stroke="#bfbfbf" points="704,-174 704,-193 742,-193 742,-174 704,-174"/>
<text text-anchor="middle" x="723" y="-181" font-family="Helvetica,sans-Serif" font-size="10.00" fill="#000000">map</text>
</g>
<!-- Node0&#45;&gt;Node19 -->
<g id="edge22" class="edge">
<title>Node0&#45;&gt;Node19</title>
<path fill="none" stroke="#191970" d="M668.8841,-235.2967C679.7904,-224.8578 694.269,-210.9997 705.5056,-200.2446"/>
<polygon fill="#191970" stroke="#191970" points="708.2131,-202.498 713.0172,-193.055 703.3729,-197.4411 708.2131,-202.498"/>
</g>
<!-- Node20 -->
<g id="node21" class="node">
<title>Node20</title>
<polygon fill="#ffffff" stroke="#bfbfbf" points="760,-174 760,-193 818,-193 818,-174 760,-174"/>
<text text-anchor="middle" x="789" y="-181" font-family="Helvetica,sans-Serif" font-size="10.00" fill="#000000">memory</text>
</g>
<!-- Node0&#45;&gt;Node20 -->
<g id="edge23" class="edge">
<title>Node0&#45;&gt;Node20</title>
<path fill="none" stroke="#191970" d="M683.5211,-235.4639C706.5457,-224.1209 737.9072,-208.6707 760.4394,-197.5703"/>
<polygon fill="#191970" stroke="#191970" points="762.0817,-200.6629 769.5055,-193.1039 758.9882,-194.3836 762.0817,-200.6629"/>
</g>
<!-- Node21 -->
<g id="node22" class="node">
<title>Node21</title>
<g id="a_node22"><a xlink:href="RenderTechnique_8inl.html" target="_top" xlink:title="Engine/Renderer/RenderTechnique\l/RenderTechnique.inl">
<polygon fill="#ffffff" stroke="#000000" points="836,-168.5 836,-198.5 1018,-198.5 1018,-168.5 836,-168.5"/>
<text text-anchor="start" x="844" y="-186.5" font-family="Helvetica,sans-Serif" font-size="10.00" fill="#000000">Engine/Renderer/RenderTechnique</text>
<text text-anchor="middle" x="927" y="-175.5" font-family="Helvetica,sans-Serif" font-size="10.00" fill="#000000">/RenderTechnique.inl</text>
</a>
</g>
</g>
<!-- Node0&#45;&gt;Node21 -->
<g id="edge24" class="edge">
<title>Node0&#45;&gt;Node21</title>
<path fill="none" stroke="#191970" d="M714.4909,-235.4639C756.297,-225.2412 811.7453,-211.6827 855.52,-200.9787"/>
<polygon fill="#191970" stroke="#191970" points="856.3584,-204.3769 865.2409,-198.6017 854.6957,-197.5772 856.3584,-204.3769"/>
</g>
<!-- Node2 -->
<g id="node3" class="node">
<title>Node2</title>
<g id="a_node3"><a xlink:href="RaCore_8hpp.html" target="_top" xlink:title="Core/RaCore.hpp">
<polygon fill="#ffffff" stroke="#000000" points="0,-112.5 0,-131.5 98,-131.5 98,-112.5 0,-112.5"/>
<text text-anchor="middle" x="49" y="-119.5" font-family="Helvetica,sans-Serif" font-size="10.00" fill="#000000">Core/RaCore.hpp</text>
</a>
</g>
</g>
<!-- Node1&#45;&gt;Node2 -->
<g id="edge2" class="edge">
<title>Node1&#45;&gt;Node2</title>
<path fill="none" stroke="#191970" d="M204.25,-173.8906C172.7883,-163.3749 122.1992,-146.466 87.3686,-134.8243"/>
<polygon fill="#191970" stroke="#191970" points="88.1419,-131.3925 77.5481,-131.5419 85.9228,-138.0315 88.1419,-131.3925"/>
</g>
<!-- Node9 -->
<g id="node10" class="node">
<title>Node9</title>
<polygon fill="#ffffff" stroke="#bfbfbf" points="116,-112.5 116,-131.5 160,-131.5 160,-112.5 116,-112.5"/>
<text text-anchor="middle" x="138" y="-119.5" font-family="Helvetica,sans-Serif" font-size="10.00" fill="#000000">limits</text>
</g>
<!-- Node1&#45;&gt;Node9 -->
<g id="edge9" class="edge">
<title>Node1&#45;&gt;Node9</title>
<path fill="none" stroke="#191970" d="M218.1563,-173.8906C202.9582,-164.0519 179.1152,-148.6167 161.3794,-137.1351"/>
<polygon fill="#191970" stroke="#191970" points="163.0361,-134.0382 152.7395,-131.5419 159.232,-139.9144 163.0361,-134.0382"/>
</g>
<!-- Node10 -->
<g id="node11" class="node">
<title>Node10</title>
<g id="a_node11"><a xlink:href="Index_8inl.html" target="_top" xlink:title="Core/Utils/Index.inl">
<polygon fill="#ffffff" stroke="#000000" points="178,-112.5 178,-131.5 288,-131.5 288,-112.5 178,-112.5"/>
<text text-anchor="middle" x="233" y="-119.5" font-family="Helvetica,sans-Serif" font-size="10.00" fill="#000000">Core/Utils/Index.inl</text>
</a>
</g>
</g>
<!-- Node1&#45;&gt;Node10 -->
<g id="edge10" class="edge">
<title>Node1&#45;&gt;Node10</title>
<path fill="none" stroke="#191970" d="M227.9375,-173.8906C226.2741,-165.3657 225.8404,-152.6392 226.6365,-141.9235"/>
<polygon fill="#191970" stroke="#191970" points="230.1414,-142.1023 227.9112,-131.7449 223.1956,-141.2324 230.1414,-142.1023"/>
</g>
<!-- Node3 -->
<g id="node4" class="node">
<title>Node3</title>
<g id="a_node4"><a xlink:href="CoreMacros_8hpp.html" target="_top" xlink:title="Core/CoreMacros.hpp">
<polygon fill="#ffffff" stroke="#000000" points="147,-56.5 147,-75.5 267,-75.5 267,-56.5 147,-56.5"/>
<text text-anchor="middle" x="207" y="-63.5" font-family="Helvetica,sans-Serif" font-size="10.00" fill="#000000">Core/CoreMacros.hpp</text>
</a>
</g>
</g>
<!-- Node2&#45;&gt;Node3 -->
<g id="edge3" class="edge">
<title>Node2&#45;&gt;Node3</title>
<path fill="none" stroke="#191970" d="M76.1612,-112.3733C102.2067,-103.1419 141.7116,-89.1402 170.4979,-78.9375"/>
<polygon fill="#191970" stroke="#191970" points="171.937,-82.1408 180.1933,-75.5011 169.5985,-75.5429 171.937,-82.1408"/>
</g>
<!-- Node4 -->
<g id="node5" class="node">
<title>Node4</title>
<polygon fill="#ffffff" stroke="#bfbfbf" points="43,-.5 43,-19.5 95,-19.5 95,-.5 43,-.5"/>
<text text-anchor="middle" x="69" y="-7.5" font-family="Helvetica,sans-Serif" font-size="10.00" fill="#000000">cassert</text>
</g>
<!-- Node3&#45;&gt;Node4 -->
<g id="edge4" class="edge">
<title>Node3&#45;&gt;Node4</title>
<path fill="none" stroke="#191970" d="M183.277,-56.3733C160.8263,-47.2629 126.9261,-33.5062 101.8745,-23.3404"/>
<polygon fill="#191970" stroke="#191970" points="102.9957,-20.0182 92.4135,-19.5011 100.3635,-26.5045 102.9957,-20.0182"/>
</g>
<!-- Node5 -->
<g id="node6" class="node">
<title>Node5</title>
<polygon fill="#ffffff" stroke="#bfbfbf" points="113,-.5 113,-19.5 159,-19.5 159,-.5 113,-.5"/>
<text text-anchor="middle" x="136" y="-7.5" font-family="Helvetica,sans-Serif" font-size="10.00" fill="#000000">cstdio</text>
</g>
<!-- Node3&#45;&gt;Node5 -->
<g id="edge5" class="edge">
<title>Node3&#45;&gt;Node5</title>
<path fill="none" stroke="#191970" d="M194.6327,-56.2455C184.0446,-47.8943 168.5936,-35.7076 156.2107,-25.9408"/>
<polygon fill="#191970" stroke="#191970" points="158.2447,-23.0875 148.2255,-19.6427 153.9097,-28.5837 158.2447,-23.0875"/>
</g>
<!-- Node6 -->
<g id="node7" class="node">
<title>Node6</title>
<polygon fill="#ffffff" stroke="#bfbfbf" points="177,-.5 177,-19.5 237,-19.5 237,-.5 177,-.5"/>
<text text-anchor="middle" x="207" y="-7.5" font-family="Helvetica,sans-Serif" font-size="10.00" fill="#000000">iostream</text>
</g>
<!-- Node3&#45;&gt;Node6 -->
<g id="edge6" class="edge">
<title>Node3&#45;&gt;Node6</title>
<path fill="none" stroke="#191970" d="M207,-56.2455C207,-48.9382 207,-38.6944 207,-29.7046"/>
<polygon fill="#191970" stroke="#191970" points="210.5001,-29.6426 207,-19.6427 203.5001,-29.6427 210.5001,-29.6426"/>
</g>
<!-- Node7 -->
<g id="node8" class="node">
<title>Node7</title>
<polygon fill="#ffffff" stroke="#bfbfbf" points="255,-.5 255,-19.5 311,-19.5 311,-.5 255,-.5"/>
<text text-anchor="middle" x="283" y="-7.5" font-family="Helvetica,sans-Serif" font-size="10.00" fill="#000000">sstream</text>
</g>
<!-- Node3&#45;&gt;Node7 -->
<g id="edge7" class="edge">
<title>Node3&#45;&gt;Node7</title>
<path fill="none" stroke="#191970" d="M220.2382,-56.2455C231.681,-47.814 248.4296,-35.4729 261.7475,-25.6598"/>
<polygon fill="#191970" stroke="#191970" points="263.9391,-28.3924 269.9135,-19.6427 259.7867,-22.757 263.9391,-28.3924"/>
</g>
<!-- Node8 -->
<g id="node9" class="node">
<title>Node8</title>
<polygon fill="#ffffff" stroke="#bfbfbf" points="329,-.5 329,-19.5 377,-19.5 377,-.5 329,-.5"/>
<text text-anchor="middle" x="353" y="-7.5" font-family="Helvetica,sans-Serif" font-size="10.00" fill="#000000">thread</text>
</g>
<!-- Node3&#45;&gt;Node8 -->
<g id="edge8" class="edge">
<title>Node3&#45;&gt;Node8</title>
<path fill="none" stroke="#191970" d="M232.0983,-56.3733C256.1001,-47.1671 292.4713,-33.2165 319.0524,-23.021"/>
<polygon fill="#191970" stroke="#191970" points="320.631,-26.1642 328.7144,-19.315 318.1242,-19.6285 320.631,-26.1642"/>
</g>
<!-- Node10&#45;&gt;Node1 -->
<g id="edge11" class="edge">
<title>Node10&#45;&gt;Node1</title>
<path fill="none" stroke="#191970" d="M238.0888,-131.7449C239.7392,-140.314 240.1598,-153.0519 239.3508,-163.7462"/>
<polygon fill="#191970" stroke="#191970" points="235.8503,-163.5293 238.0625,-173.8906 242.7945,-164.4113 235.8503,-163.5293"/>
</g>
<!-- Node11&#45;&gt;Node3 -->
<g id="edge13" class="edge">
<title>Node11&#45;&gt;Node3</title>
<path fill="none" stroke="#191970" d="M338.6669,-112.3733C312.4566,-103.1419 272.7016,-89.1402 243.7332,-78.9375"/>
<polygon fill="#191970" stroke="#191970" points="244.5712,-75.5219 233.9764,-75.5011 242.2458,-82.1244 244.5712,-75.5219"/>
</g>
<!-- Node12&#45;&gt;Node11 -->
<g id="edge15" class="edge">
<title>Node12&#45;&gt;Node11</title>
<path fill="none" stroke="#191970" d="M475.529,-168.4554C451.7598,-158.374 420.732,-145.2139 397.7715,-135.4755"/>
<polygon fill="#191970" stroke="#191970" points="399.0427,-132.2129 388.4699,-131.5303 396.3094,-138.6572 399.0427,-132.2129"/>
</g>
<!-- Node13 -->
<g id="node14" class="node">
<title>Node13</title>
<polygon fill="#ffffff" stroke="#bfbfbf" points="444,-112.5 444,-131.5 486,-131.5 486,-112.5 444,-112.5"/>
<text text-anchor="middle" x="465" y="-119.5" font-family="Helvetica,sans-Serif" font-size="10.00" fill="#000000">array</text>
</g>
<!-- Node12&#45;&gt;Node13 -->
<g id="edge16" class="edge">
<title>Node12&#45;&gt;Node13</title>
<path fill="none" stroke="#191970" d="M499.6292,-168.2977C493.2439,-159.7609 485.2359,-149.0545 478.5295,-140.0883"/>
<polygon fill="#191970" stroke="#191970" points="481.1575,-137.7584 472.3652,-131.8469 475.5521,-141.9511 481.1575,-137.7584"/>
</g>
<!-- Node14 -->
<g id="node15" class="node">
<title>Node14</title>
<polygon fill="#ffffff" stroke="#bfbfbf" points="504,-112.5 504,-131.5 536,-131.5 536,-112.5 504,-112.5"/>
<text text-anchor="middle" x="520" y="-119.5" font-family="Helvetica,sans-Serif" font-size="10.00" fill="#000000">list</text>
</g>
<!-- Node12&#45;&gt;Node14 -->
<g id="edge17" class="edge">
<title>Node12&#45;&gt;Node14</title>
<path fill="none" stroke="#191970" d="M513.2247,-168.2977C514.3959,-160.2945 515.8462,-150.3843 517.1041,-141.7889"/>
<polygon fill="#191970" stroke="#191970" points="520.574,-142.2484 518.559,-131.8469 513.6478,-141.2347 520.574,-142.2484"/>
</g>
<!-- Node15 -->
<g id="node16" class="node">
<title>Node15</title>
<polygon fill="#ffffff" stroke="#bfbfbf" points="554,-112.5 554,-131.5 586,-131.5 586,-112.5 554,-112.5"/>
<text text-anchor="middle" x="570" y="-119.5" font-family="Helvetica,sans-Serif" font-size="10.00" fill="#000000">set</text>
</g>
<!-- Node12&#45;&gt;Node15 -->
<g id="edge18" class="edge">
<title>Node12&#45;&gt;Node15</title>
<path fill="none" stroke="#191970" d="M525.5843,-168.2977C534.03,-159.4941 544.6892,-148.3833 553.4484,-139.2529"/>
<polygon fill="#191970" stroke="#191970" points="556.1561,-141.4862 560.5534,-131.8469 551.1048,-136.6402 556.1561,-141.4862"/>
</g>
<!-- Node16 -->
<g id="node17" class="node">
<title>Node16</title>
<polygon fill="#ffffff" stroke="#bfbfbf" points="604,-112.5 604,-131.5 648,-131.5 648,-112.5 604,-112.5"/>
<text text-anchor="middle" x="626" y="-119.5" font-family="Helvetica,sans-Serif" font-size="10.00" fill="#000000">string</text>
</g>
<!-- Node12&#45;&gt;Node16 -->
<g id="edge19" class="edge">
<title>Node12&#45;&gt;Node16</title>
<path fill="none" stroke="#191970" d="M539.1322,-168.4554C557.4786,-158.644 581.2777,-145.9167 599.3251,-136.2653"/>
<polygon fill="#191970" stroke="#191970" points="601.0114,-139.3326 608.1791,-131.5303 597.7103,-133.1598 601.0114,-139.3326"/>
</g>
<!-- Node17 -->
<g id="node18" class="node">
<title>Node17</title>
<polygon fill="#ffffff" stroke="#bfbfbf" points="666.5,-112.5 666.5,-131.5 713.5,-131.5 713.5,-112.5 666.5,-112.5"/>
<text text-anchor="middle" x="690" y="-119.5" font-family="Helvetica,sans-Serif" font-size="10.00" fill="#000000">vector</text>
</g>
<!-- Node12&#45;&gt;Node17 -->
<g id="edge20" class="edge">
<title>Node12&#45;&gt;Node17</title>
<path fill="none" stroke="#191970" d="M554.7883,-168.4554C586.2673,-157.64 628.0592,-143.2813 656.8039,-133.4054"/>
<polygon fill="#191970" stroke="#191970" points="658.0688,-136.6717 666.3889,-130.1122 655.7942,-130.0515 658.0688,-136.6717"/>
</g>
</g>
</svg>
        <g id="navigator" transform="translate(0 0)" fill="#404254">
                <rect fill="#f2f5e9" fill-opacity="0.5" stroke="#606060" stroke-width=".5" x="0" y="0" width="60" height="60"/>
                <use id="zoomplus" xlink:href="#zoomPlus" x="17" y="9" onmousedown="handleZoom(evt,'in')"/>
                <use id="zoomminus" xlink:href="#zoomMin" x="42" y="9" onmousedown="handleZoom(evt,'out')"/>
                <use id="reset" xlink:href="#resetDef" x="30" y="36" onmousedown="handleReset()"/>
                <g id="arrowUp" xlink:href="#dirArrow" transform="translate(30 24)" onmousedown="handlePan(0,-1)">
                  <use xlink:href="#rim" fill="#404040">
                        <set attributeName="fill" to="#808080" begin="arrowUp.mouseover" end="arrowUp.mouseout"/>
                  </use>
                  <path fill="none" stroke="white" stroke-width="1.5" d="M0,-3.0v7 M-2.5,-0.5L0,-3.0L2.5,-0.5"/>
                </g>
                <g id="arrowRight" xlink:href="#dirArrow" transform="rotate(90) translate(36 -43)" onmousedown="handlePan(1,0)">
                  <use xlink:href="#rim" fill="#404040">
                        <set attributeName="fill" to="#808080" begin="arrowRight.mouseover" end="arrowRight.mouseout"/>
                  </use>
                  <path fill="none" stroke="white" stroke-width="1.5" d="M0,-3.0v7 M-2.5,-0.5L0,-3.0L2.5,-0.5"/>
                </g>
                <g id="arrowDown" xlink:href="#dirArrow" transform="rotate(180) translate(-30 -48)" onmousedown="handlePan(0,1)">
                  <use xlink:href="#rim" fill="#404040">
                        <set attributeName="fill" to="#808080" begin="arrowDown.mouseover" end="arrowDown.mouseout"/>
                  </use>
                  <path fill="none" stroke="white" stroke-width="1.5" d="M0,-3.0v7 M-2.5,-0.5L0,-3.0L2.5,-0.5"/>
                </g>
                <g id="arrowLeft" xlink:href="#dirArrow" transform="rotate(270) translate(-36 17)" onmousedown="handlePan(-1,0)">
                  <use xlink:href="#rim" fill="#404040">
                        <set attributeName="fill" to="#808080" begin="arrowLeft.mouseover" end="arrowLeft.mouseout"/>
                  </use>
                  <path fill="none" stroke="white" stroke-width="1.5" d="M0,-3.0v7 M-2.5,-0.5L0,-3.0L2.5,-0.5"/>
                </g>
        </g>
        <svg viewBox="0 0 15 15" width="100%" height="30px" preserveAspectRatio="xMaxYMin meet">
         <g id="arrow_out" transform="scale(0.3 0.3)">
          <a xlink:href="RenderTechnique_8hpp__incl_org.svg" target="_base">
           <rect id="button" ry="5" rx="5" y="6" x="6" height="38" width="38"
                fill="#f2f5e9" fill-opacity="0.5" stroke="#606060" stroke-width="1.0"/>
           <path id="arrow"
             d="M 11.500037,31.436501 C 11.940474,20.09759 22.043105,11.32322 32.158766,21.979434 L 37.068811,17.246167 C 37.068811,17.246167 37.088388,32 37.088388,32 L 22.160133,31.978069 C 22.160133,31.978069 26.997745,27.140456 26.997745,27.140456 C 18.528582,18.264221 13.291696,25.230495 11.500037,31.436501 z"
             style="fill:#404040;"/>
          </a>
         </g>
        </svg>
</svg>
