<?xml version="1.0" encoding="UTF-8" standalone="no"?>
<!DOCTYPE svg PUBLIC "-//W3C//DTD SVG 1.1//EN"
 "http://www.w3.org/Graphics/SVG/1.1/DTD/svg11.dtd">
<!-- Generated by graphviz version 2.40.1 (20161225.0304)
 -->
<!-- Title: src/Engine/Renderer/RenderTechnique/RenderParameters.cpp Pages: 1 -->
<svg width="998pt" height="475pt"
 viewBox="0.00 0.00 997.50 475.00" xmlns="http://www.w3.org/2000/svg" xmlns:xlink="http://www.w3.org/1999/xlink">
<g id="graph0" class="graph" transform="scale(1 1) rotate(0) translate(4 471)">
<title>src/Engine/Renderer/RenderTechnique/RenderParameters.cpp</title>
<polygon fill="#ffffff" stroke="transparent" points="-4,4 -4,-471 993.5,-471 993.5,4 -4,4"/>
<!-- Node0 -->
<g id="node1" class="node">
<title>Node0</title>
<polygon fill="#bfbfbf" stroke="#000000" points="583,-436.5 583,-466.5 798,-466.5 798,-436.5 583,-436.5"/>
<text text-anchor="start" x="591" y="-454.5" font-family="Helvetica,sans-Serif" font-size="10.00" fill="#000000">src/Engine/Renderer</text>
<text text-anchor="middle" x="690.5" y="-443.5" font-family="Helvetica,sans-Serif" font-size="10.00" fill="#000000">/RenderTechnique/RenderParameters.cpp</text>
</g>
<!-- Node1 -->
<g id="node2" class="node">
<title>Node1</title>
<g id="a_node2"><a xlink:href="Log_8hpp.html" target="_top" xlink:title="Core/Utils/Log.hpp">
<polygon fill="#ffffff" stroke="#000000" points="811.5,-174 811.5,-193 917.5,-193 917.5,-174 811.5,-174"/>
<text text-anchor="middle" x="864.5" y="-181" font-family="Helvetica,sans-Serif" font-size="10.00" fill="#000000">Core/Utils/Log.hpp</text>
</a>
</g>
</g>
<!-- Node0&#45;&gt;Node1 -->
<g id="edge1" class="edge">
<title>Node0&#45;&gt;Node1</title>
<path fill="none" stroke="#191970" d="M700.3535,-436.3233C730.3408,-390.1359 820.413,-251.4041 852.7672,-201.5712"/>
<polygon fill="#191970" stroke="#191970" points="855.762,-203.3858 858.272,-193.0926 849.8909,-199.5739 855.762,-203.3858"/>
</g>
<!-- Node12 -->
<g id="node13" class="node">
<title>Node12</title>
<g id="a_node13"><a xlink:href="RenderParameters_8hpp.html" target="_top" xlink:title="Engine/Renderer/RenderTechnique\l/RenderParameters.hpp">
<polygon fill="#ffffff" stroke="#000000" points="447.5,-369.5 447.5,-399.5 629.5,-399.5 629.5,-369.5 447.5,-369.5"/>
<text text-anchor="start" x="455.5" y="-387.5" font-family="Helvetica,sans-Serif" font-size="10.00" fill="#000000">Engine/Renderer/RenderTechnique</text>
<text text-anchor="middle" x="538.5" y="-376.5" font-family="Helvetica,sans-Serif" font-size="10.00" fill="#000000">/RenderParameters.hpp</text>
</a>
</g>
</g>
<!-- Node0&#45;&gt;Node12 -->
<g id="edge13" class="edge">
<title>Node0&#45;&gt;Node12</title>
<path fill="none" stroke="#191970" d="M656.3882,-436.4639C634.4633,-426.7996 605.7746,-414.154 582.1881,-403.7572"/>
<polygon fill="#191970" stroke="#191970" points="583.3228,-400.4325 572.7605,-399.6017 580.4993,-406.8379 583.3228,-400.4325"/>
</g>
<!-- Node2 -->
<g id="node3" class="node">
<title>Node2</title>
<g id="a_node3"><a xlink:href="RaCore_8hpp.html" target="_top" xlink:title="Core/RaCore.hpp">
<polygon fill="#ffffff" stroke="#000000" points="723.5,-112.5 723.5,-131.5 821.5,-131.5 821.5,-112.5 723.5,-112.5"/>
<text text-anchor="middle" x="772.5" y="-119.5" font-family="Helvetica,sans-Serif" font-size="10.00" fill="#000000">Core/RaCore.hpp</text>
</a>
</g>
</g>
<!-- Node1&#45;&gt;Node2 -->
<g id="edge2" class="edge">
<title>Node1&#45;&gt;Node2</title>
<path fill="none" stroke="#191970" d="M850.125,-173.8906C835.4069,-164.0519 812.3168,-148.6167 795.1411,-137.1351"/>
<polygon fill="#191970" stroke="#191970" points="797.0327,-134.1896 786.7741,-131.5419 793.1425,-140.0091 797.0327,-134.1896"/>
</g>
<!-- Node7 -->
<g id="node8" class="node">
<title>Node7</title>
<polygon fill="#ffffff" stroke="#bfbfbf" points="887.5,-.5 887.5,-19.5 943.5,-19.5 943.5,-.5 887.5,-.5"/>
<text text-anchor="middle" x="915.5" y="-7.5" font-family="Helvetica,sans-Serif" font-size="10.00" fill="#000000">sstream</text>
</g>
<!-- Node1&#45;&gt;Node7 -->
<g id="edge10" class="edge">
<title>Node1&#45;&gt;Node7</title>
<path fill="none" stroke="#191970" d="M872.7036,-173.9708C880.678,-164.1451 892.4456,-148.0372 898.5,-132 911.4757,-97.6295 914.6919,-54.4485 915.4038,-29.7599"/>
<polygon fill="#191970" stroke="#191970" points="918.9072,-29.5896 915.5824,-19.53 911.9083,-29.4673 918.9072,-29.5896"/>
</g>
<!-- Node9 -->
<g id="node10" class="node">
<title>Node9</title>
<polygon fill="#ffffff" stroke="#bfbfbf" points="945.5,-112.5 945.5,-131.5 989.5,-131.5 989.5,-112.5 945.5,-112.5"/>
<text text-anchor="middle" x="967.5" y="-119.5" font-family="Helvetica,sans-Serif" font-size="10.00" fill="#000000">ctime</text>
</g>
<!-- Node1&#45;&gt;Node9 -->
<g id="edge9" class="edge">
<title>Node1&#45;&gt;Node9</title>
<path fill="none" stroke="#191970" d="M880.5938,-173.8906C897.2228,-163.9616 923.3976,-148.333 942.6794,-136.8201"/>
<polygon fill="#191970" stroke="#191970" points="944.7276,-139.6736 951.5193,-131.5419 941.139,-133.6634 944.7276,-139.6736"/>
</g>
<!-- Node10 -->
<g id="node11" class="node">
<title>Node10</title>
<polygon fill="#ffffff" stroke="#bfbfbf" points="839.5,-112.5 839.5,-131.5 889.5,-131.5 889.5,-112.5 839.5,-112.5"/>
<text text-anchor="middle" x="864.5" y="-119.5" font-family="Helvetica,sans-Serif" font-size="10.00" fill="#000000">stdio.h</text>
</g>
<!-- Node1&#45;&gt;Node10 -->
<g id="edge11" class="edge">
<title>Node1&#45;&gt;Node10</title>
<path fill="none" stroke="#191970" d="M864.5,-173.8906C864.5,-165.3657 864.5,-152.6392 864.5,-141.9235"/>
<polygon fill="#191970" stroke="#191970" points="868.0001,-141.7448 864.5,-131.7449 861.0001,-141.7449 868.0001,-141.7448"/>
</g>
<!-- Node11 -->
<g id="node12" class="node">
<title>Node11</title>
<polygon fill="#ffffff" stroke="#bfbfbf" points="197.5,-112.5 197.5,-131.5 241.5,-131.5 241.5,-112.5 197.5,-112.5"/>
<text text-anchor="middle" x="219.5" y="-119.5" font-family="Helvetica,sans-Serif" font-size="10.00" fill="#000000">string</text>
</g>
<!-- Node1&#45;&gt;Node11 -->
<g id="edge12" class="edge">
<title>Node1&#45;&gt;Node11</title>
<path fill="none" stroke="#191970" d="M811.493,-179.3847C676.184,-168.8383 324.1022,-141.1211 252.0072,-131.4618"/>
<polygon fill="#191970" stroke="#191970" points="252.1141,-127.9352 241.6898,-129.8286 251.0196,-134.8491 252.1141,-127.9352"/>
</g>
<!-- Node3 -->
<g id="node4" class="node">
<title>Node3</title>
<g id="a_node4"><a xlink:href="CoreMacros_8hpp.html" target="_top" xlink:title="Core/CoreMacros.hpp">
<polygon fill="#ffffff" stroke="#000000" points="712.5,-56.5 712.5,-75.5 832.5,-75.5 832.5,-56.5 712.5,-56.5"/>
<text text-anchor="middle" x="772.5" y="-63.5" font-family="Helvetica,sans-Serif" font-size="10.00" fill="#000000">Core/CoreMacros.hpp</text>
</a>
</g>
</g>
<!-- Node2&#45;&gt;Node3 -->
<g id="edge3" class="edge">
<title>Node2&#45;&gt;Node3</title>
<path fill="none" stroke="#191970" d="M772.5,-112.2455C772.5,-104.9382 772.5,-94.6944 772.5,-85.7046"/>
<polygon fill="#191970" stroke="#191970" points="776.0001,-85.6426 772.5,-75.6427 769.0001,-85.6427 776.0001,-85.6426"/>
</g>
<!-- Node4 -->
<g id="node5" class="node">
<title>Node4</title>
<polygon fill="#ffffff" stroke="#bfbfbf" points="749.5,-.5 749.5,-19.5 801.5,-19.5 801.5,-.5 749.5,-.5"/>
<text text-anchor="middle" x="775.5" y="-7.5" font-family="Helvetica,sans-Serif" font-size="10.00" fill="#000000">cassert</text>
</g>
<!-- Node3&#45;&gt;Node4 -->
<g id="edge4" class="edge">
<title>Node3&#45;&gt;Node4</title>
<path fill="none" stroke="#191970" d="M773.0226,-56.2455C773.414,-48.9382 773.9628,-38.6944 774.4444,-29.7046"/>
<polygon fill="#191970" stroke="#191970" points="777.9434,-29.8156 774.9834,-19.6427 770.9534,-29.4411 777.9434,-29.8156"/>
</g>
<!-- Node5 -->
<g id="node6" class="node">
<title>Node5</title>
<polygon fill="#ffffff" stroke="#bfbfbf" points="819.5,-.5 819.5,-19.5 865.5,-19.5 865.5,-.5 819.5,-.5"/>
<text text-anchor="middle" x="842.5" y="-7.5" font-family="Helvetica,sans-Serif" font-size="10.00" fill="#000000">cstdio</text>
</g>
<!-- Node3&#45;&gt;Node5 -->
<g id="edge5" class="edge">
<title>Node3&#45;&gt;Node5</title>
<path fill="none" stroke="#191970" d="M784.6931,-56.2455C795.1321,-47.8943 810.3655,-35.7076 822.574,-25.9408"/>
<polygon fill="#191970" stroke="#191970" points="824.8244,-28.6227 830.4467,-19.6427 820.4515,-23.1566 824.8244,-28.6227"/>
</g>
<!-- Node6 -->
<g id="node7" class="node">
<title>Node6</title>
<polygon fill="#ffffff" stroke="#bfbfbf" points="605.5,-.5 605.5,-19.5 665.5,-19.5 665.5,-.5 605.5,-.5"/>
<text text-anchor="middle" x="635.5" y="-7.5" font-family="Helvetica,sans-Serif" font-size="10.00" fill="#000000">iostream</text>
</g>
<!-- Node3&#45;&gt;Node6 -->
<g id="edge6" class="edge">
<title>Node3&#45;&gt;Node6</title>
<path fill="none" stroke="#191970" d="M748.9489,-56.3733C726.6609,-47.2629 693.0063,-33.5062 668.1363,-23.3404"/>
<polygon fill="#191970" stroke="#191970" points="669.3247,-20.0451 658.7438,-19.5011 666.6761,-26.5247 669.3247,-20.0451"/>
</g>
<!-- Node3&#45;&gt;Node7 -->
<g id="edge7" class="edge">
<title>Node3&#45;&gt;Node7</title>
<path fill="none" stroke="#191970" d="M797.0826,-56.3733C820.4496,-47.2226 855.7862,-33.3844 881.7784,-23.2057"/>
<polygon fill="#191970" stroke="#191970" points="883.203,-26.4066 891.2382,-19.5011 880.6505,-19.8886 883.203,-26.4066"/>
</g>
<!-- Node8 -->
<g id="node9" class="node">
<title>Node8</title>
<polygon fill="#ffffff" stroke="#bfbfbf" points="683.5,-.5 683.5,-19.5 731.5,-19.5 731.5,-.5 683.5,-.5"/>
<text text-anchor="middle" x="707.5" y="-7.5" font-family="Helvetica,sans-Serif" font-size="10.00" fill="#000000">thread</text>
</g>
<!-- Node3&#45;&gt;Node8 -->
<g id="edge8" class="edge">
<title>Node3&#45;&gt;Node8</title>
<path fill="none" stroke="#191970" d="M761.1779,-56.2455C751.5777,-47.9746 737.6108,-35.9416 726.3305,-26.2232"/>
<polygon fill="#191970" stroke="#191970" points="728.553,-23.5182 718.6924,-19.6427 723.984,-28.8214 728.553,-23.5182"/>
</g>
<!-- Node12&#45;&gt;Node1 -->
<g id="edge29" class="edge">
<title>Node12&#45;&gt;Node1</title>
<path fill="none" stroke="#191970" d="M629.5934,-369.7596C661.1807,-361.9991 695.833,-350.3463 724.5,-333 781.8467,-298.2997 830.6465,-233.6453 852.3939,-201.9626"/>
<polygon fill="#191970" stroke="#191970" points="855.5726,-203.5081 858.254,-193.2582 849.7659,-199.5988 855.5726,-203.5081"/>
</g>
<!-- Node13 -->
<g id="node14" class="node">
<title>Node13</title>
<g id="a_node14"><a xlink:href="RaEngine_8hpp.html" target="_top" xlink:title="Engine/RaEngine.hpp">
<polygon fill="#ffffff" stroke="#000000" points="0,-112.5 0,-131.5 119,-131.5 119,-112.5 0,-112.5"/>
<text text-anchor="middle" x="59.5" y="-119.5" font-family="Helvetica,sans-Serif" font-size="10.00" fill="#000000">Engine/RaEngine.hpp</text>
</a>
</g>
</g>
<!-- Node12&#45;&gt;Node13 -->
<g id="edge14" class="edge">
<title>Node12&#45;&gt;Node13</title>
<path fill="none" stroke="#191970" d="M447.3112,-381.0558C339.1948,-375.6828 166.4732,-362.6585 109.5,-333 42.871,-298.315 27.6405,-271.0801 6.5,-199 2.6224,-185.7791 .7816,-180.535 6.5,-168 12.1889,-155.5296 23.1131,-145.1361 33.5726,-137.4023"/>
<polygon fill="#191970" stroke="#191970" points="35.8523,-140.0832 42.1242,-131.5442 31.8963,-134.3082 35.8523,-140.0832"/>
</g>
<!-- Node14 -->
<g id="node15" class="node">
<title>Node14</title>
<polygon fill="#ffffff" stroke="#bfbfbf" points="309.5,-112.5 309.5,-131.5 341.5,-131.5 341.5,-112.5 309.5,-112.5"/>
<text text-anchor="middle" x="325.5" y="-119.5" font-family="Helvetica,sans-Serif" font-size="10.00" fill="#000000">set</text>
</g>
<!-- Node12&#45;&gt;Node14 -->
<g id="edge16" class="edge">
<title>Node12&#45;&gt;Node14</title>
<path fill="none" stroke="#191970" d="M511.7335,-369.4892C496.9092,-360.2817 478.839,-347.4939 465.5,-333 407.8941,-270.4069 419.4093,-236.1512 368.5,-168 360.8648,-157.7789 351.2548,-147.3172 343.0571,-138.9583"/>
<polygon fill="#191970" stroke="#191970" points="345.2941,-136.2462 335.7409,-131.665 340.3521,-141.2038 345.2941,-136.2462"/>
</g>
<!-- Node15 -->
<g id="node16" class="node">
<title>Node15</title>
<polygon fill="#ffffff" stroke="#bfbfbf" points="360,-112.5 360,-131.5 407,-131.5 407,-112.5 360,-112.5"/>
<text text-anchor="middle" x="383.5" y="-119.5" font-family="Helvetica,sans-Serif" font-size="10.00" fill="#000000">vector</text>
</g>
<!-- Node12&#45;&gt;Node15 -->
<g id="edge17" class="edge">
<title>Node12&#45;&gt;Node15</title>
<path fill="none" stroke="#191970" d="M524.2827,-369.3955C504.4832,-347.7839 468.3573,-306.1953 444.5,-266 437.7837,-254.6843 406.2579,-177.9271 391.3496,-141.3325"/>
<polygon fill="#191970" stroke="#191970" points="394.4703,-139.7153 387.4603,-131.7711 387.9862,-142.3529 394.4703,-139.7153"/>
</g>
<!-- Node16 -->
<g id="node17" class="node">
<title>Node16</title>
<g id="a_node17"><a xlink:href="AlignedAllocator_8hpp.html" target="_top" xlink:title="Core/Containers/AlignedAllocator.hpp">
<polygon fill="#ffffff" stroke="#000000" points="517.5,-308 517.5,-327 715.5,-327 715.5,-308 517.5,-308"/>
<text text-anchor="middle" x="616.5" y="-315" font-family="Helvetica,sans-Serif" font-size="10.00" fill="#000000">Core/Containers/AlignedAllocator.hpp</text>
</a>
</g>
</g>
<!-- Node12&#45;&gt;Node16 -->
<g id="edge18" class="edge">
<title>Node12&#45;&gt;Node16</title>
<path fill="none" stroke="#191970" d="M556.1994,-369.2967C568.5881,-358.6551 585.1135,-344.4602 597.7315,-333.6217"/>
<polygon fill="#191970" stroke="#191970" points="600.0712,-336.2259 605.3763,-327.055 595.51,-330.9159 600.0712,-336.2259"/>
</g>
<!-- Node21 -->
<g id="node22" class="node">
<title>Node21</title>
<g id="a_node22"><a xlink:href="Types_8hpp.html" target="_top" xlink:title="Core/Types.hpp">
<polygon fill="#ffffff" stroke="#000000" points="567,-174 567,-193 658,-193 658,-174 567,-174"/>
<text text-anchor="middle" x="612.5" y="-181" font-family="Helvetica,sans-Serif" font-size="10.00" fill="#000000">Core/Types.hpp</text>
</a>
</g>
</g>
<!-- Node12&#45;&gt;Node21 -->
<g id="edge24" class="edge">
<title>Node12&#45;&gt;Node21</title>
<path fill="none" stroke="#191970" d="M618.9378,-369.4947C661.5502,-360.1563 708.3511,-347.2361 724.5,-333 748.7095,-311.658 746.1539,-297.6434 752.5,-266 755.2092,-252.4912 760.3833,-246.2996 752.5,-235 741.8336,-219.7111 698.8887,-205.3311 663.3431,-195.6728"/>
<polygon fill="#191970" stroke="#191970" points="664.1095,-192.2551 653.5465,-193.077 662.3165,-199.0216 664.1095,-192.2551"/>
</g>
<!-- Node25 -->
<g id="node26" class="node">
<title>Node25</title>
<g id="a_node26"><a xlink:href="RenderParameters_8inl.html" target="_top" xlink:title="Engine/Renderer/RenderTechnique\l/RenderParameters.inl">
<polygon fill="#ffffff" stroke="#000000" points="118.5,-302.5 118.5,-332.5 300.5,-332.5 300.5,-302.5 118.5,-302.5"/>
<text text-anchor="start" x="126.5" y="-320.5" font-family="Helvetica,sans-Serif" font-size="10.00" fill="#000000">Engine/Renderer/RenderTechnique</text>
<text text-anchor="middle" x="209.5" y="-309.5" font-family="Helvetica,sans-Serif" font-size="10.00" fill="#000000">/RenderParameters.inl</text>
</a>
</g>
</g>
<!-- Node12&#45;&gt;Node25 -->
<g id="edge30" class="edge">
<title>Node12&#45;&gt;Node25</title>
<path fill="none" stroke="#191970" d="M464.666,-369.4639C413.8519,-359.1157 346.2526,-345.3493 293.3986,-334.5857"/>
<polygon fill="#191970" stroke="#191970" points="293.869,-331.1098 283.3716,-332.5438 292.4721,-337.969 293.869,-331.1098"/>
</g>
<!-- Node13&#45;&gt;Node3 -->
<g id="edge15" class="edge">
<title>Node13&#45;&gt;Node3</title>
<path fill="none" stroke="#191970" d="M119.3055,-113.0614C122.4124,-112.6819 125.4914,-112.325 128.5,-112 336.6796,-89.5096 583.952,-75.3482 702.4141,-69.3359"/>
<polygon fill="#191970" stroke="#191970" points="702.6285,-72.8297 712.4397,-68.831 702.2763,-65.8385 702.6285,-72.8297"/>
</g>
<!-- Node16&#45;&gt;Node2 -->
<g id="edge19" class="edge">
<title>Node16&#45;&gt;Node2</title>
<path fill="none" stroke="#191970" d="M680.4441,-307.9287C706.6294,-300.7246 734.865,-288.1042 752.5,-266 781.2531,-229.9601 779.1563,-172.0371 775.5953,-141.8084"/>
<polygon fill="#191970" stroke="#191970" points="779.0341,-141.1204 774.2201,-131.6824 772.0977,-142.0624 779.0341,-141.1204"/>
</g>
<!-- Node17 -->
<g id="node18" class="node">
<title>Node17</title>
<polygon fill="#ffffff" stroke="#bfbfbf" points="454,-241 454,-260 537,-260 537,-241 454,-241"/>
<text text-anchor="middle" x="495.5" y="-248" font-family="Helvetica,sans-Serif" font-size="10.00" fill="#000000">mm_malloc.h</text>
</g>
<!-- Node16&#45;&gt;Node17 -->
<g id="edge20" class="edge">
<title>Node16&#45;&gt;Node17</title>
<path fill="none" stroke="#191970" d="M599.1637,-307.9005C578.947,-296.7062 545.3128,-278.0823 521.8576,-265.0947"/>
<polygon fill="#191970" stroke="#191970" points="523.2481,-261.8639 512.8042,-260.0817 519.8571,-267.9878 523.2481,-261.8639"/>
</g>
<!-- Node18 -->
<g id="node19" class="node">
<title>Node18</title>
<polygon fill="#ffffff" stroke="#bfbfbf" points="555,-241 555,-260 608,-260 608,-241 555,-241"/>
<text text-anchor="middle" x="581.5" y="-248" font-family="Helvetica,sans-Serif" font-size="10.00" fill="#000000">cstddef</text>
</g>
<!-- Node16&#45;&gt;Node18 -->
<g id="edge21" class="edge">
<title>Node16&#45;&gt;Node18</title>
<path fill="none" stroke="#191970" d="M611.4854,-307.9005C606.2353,-297.8505 597.8571,-281.8122 591.2897,-269.2403"/>
<polygon fill="#191970" stroke="#191970" points="594.2378,-267.3246 586.5053,-260.0817 588.0334,-270.5657 594.2378,-267.3246"/>
</g>
<!-- Node19 -->
<g id="node20" class="node">
<title>Node19</title>
<polygon fill="#ffffff" stroke="#bfbfbf" points="626.5,-241 626.5,-260 676.5,-260 676.5,-241 626.5,-241"/>
<text text-anchor="middle" x="651.5" y="-248" font-family="Helvetica,sans-Serif" font-size="10.00" fill="#000000">cstdint</text>
</g>
<!-- Node16&#45;&gt;Node19 -->
<g id="edge22" class="edge">
<title>Node16&#45;&gt;Node19</title>
<path fill="none" stroke="#191970" d="M621.5146,-307.9005C626.7647,-297.8505 635.1429,-281.8122 641.7103,-269.2403"/>
<polygon fill="#191970" stroke="#191970" points="644.9666,-270.5657 646.4947,-260.0817 638.7622,-267.3246 644.9666,-270.5657"/>
</g>
<!-- Node20 -->
<g id="node21" class="node">
<title>Node20</title>
<polygon fill="#ffffff" stroke="#bfbfbf" points="695,-241 695,-260 744,-260 744,-241 695,-241"/>
<text text-anchor="middle" x="719.5" y="-248" font-family="Helvetica,sans-Serif" font-size="10.00" fill="#000000">cstdlib</text>
</g>
<!-- Node16&#45;&gt;Node20 -->
<g id="edge23" class="edge">
<title>Node16&#45;&gt;Node20</title>
<path fill="none" stroke="#191970" d="M631.2574,-307.9005C648.2372,-296.8554 676.3359,-278.5776 696.2601,-265.6172"/>
<polygon fill="#191970" stroke="#191970" points="698.2959,-268.4684 704.77,-260.0817 694.4789,-262.6005 698.2959,-268.4684"/>
</g>
<!-- Node21&#45;&gt;Node2 -->
<g id="edge25" class="edge">
<title>Node21&#45;&gt;Node2</title>
<path fill="none" stroke="#191970" d="M637.5,-173.8906C664.5058,-163.5103 707.7185,-146.9004 737.9594,-135.2766"/>
<polygon fill="#191970" stroke="#191970" points="739.5971,-138.3968 747.6756,-131.5419 737.0856,-131.8628 739.5971,-138.3968"/>
</g>
<!-- Node22 -->
<g id="node23" class="node">
<title>Node22</title>
<polygon fill="#ffffff" stroke="#bfbfbf" points="425,-112.5 425,-131.5 494,-131.5 494,-112.5 425,-112.5"/>
<text text-anchor="middle" x="459.5" y="-119.5" font-family="Helvetica,sans-Serif" font-size="10.00" fill="#000000">Eigen/Core</text>
</g>
<!-- Node21&#45;&gt;Node22 -->
<g id="edge26" class="edge">
<title>Node21&#45;&gt;Node22</title>
<path fill="none" stroke="#191970" d="M588.5938,-173.8906C562.7695,-163.5103 521.4473,-146.9004 492.5295,-135.2766"/>
<polygon fill="#191970" stroke="#191970" points="493.8222,-132.0241 483.2384,-131.5419 491.2115,-138.519 493.8222,-132.0241"/>
</g>
<!-- Node23 -->
<g id="node24" class="node">
<title>Node23</title>
<polygon fill="#ffffff" stroke="#bfbfbf" points="512,-112.5 512,-131.5 607,-131.5 607,-112.5 512,-112.5"/>
<text text-anchor="middle" x="559.5" y="-119.5" font-family="Helvetica,sans-Serif" font-size="10.00" fill="#000000">Eigen/Geometry</text>
</g>
<!-- Node21&#45;&gt;Node23 -->
<g id="edge27" class="edge">
<title>Node21&#45;&gt;Node23</title>
<path fill="none" stroke="#191970" d="M604.2188,-173.8906C596.3307,-164.7376 584.2686,-150.7409 574.6588,-139.59"/>
<polygon fill="#191970" stroke="#191970" points="577.0775,-137.0352 567.898,-131.7449 571.7749,-141.6049 577.0775,-137.0352"/>
</g>
<!-- Node24 -->
<g id="node25" class="node">
<title>Node24</title>
<polygon fill="#ffffff" stroke="#bfbfbf" points="625.5,-112.5 625.5,-131.5 705.5,-131.5 705.5,-112.5 625.5,-112.5"/>
<text text-anchor="middle" x="665.5" y="-119.5" font-family="Helvetica,sans-Serif" font-size="10.00" fill="#000000">Eigen/Sparse</text>
</g>
<!-- Node21&#45;&gt;Node24 -->
<g id="edge28" class="edge">
<title>Node21&#45;&gt;Node24</title>
<path fill="none" stroke="#191970" d="M620.7813,-173.8906C628.6693,-164.7376 640.7314,-150.7409 650.3412,-139.59"/>
<polygon fill="#191970" stroke="#191970" points="653.2251,-141.6049 657.102,-131.7449 647.9225,-137.0352 653.2251,-141.6049"/>
</g>
<!-- Node26 -->
<g id="node27" class="node">
<title>Node26</title>
<g id="a_node27"><a xlink:href="ShaderProgram_8hpp.html" target="_top" xlink:title="Engine/Renderer/RenderTechnique\l/ShaderProgram.hpp">
<polygon fill="#ffffff" stroke="#000000" points="58.5,-235.5 58.5,-265.5 240.5,-265.5 240.5,-235.5 58.5,-235.5"/>
<text text-anchor="start" x="66.5" y="-253.5" font-family="Helvetica,sans-Serif" font-size="10.00" fill="#000000">Engine/Renderer/RenderTechnique</text>
<text text-anchor="middle" x="149.5" y="-242.5" font-family="Helvetica,sans-Serif" font-size="10.00" fill="#000000">/ShaderProgram.hpp</text>
</a>
</g>
</g>
<!-- Node25&#45;&gt;Node26 -->
<g id="edge31" class="edge">
<title>Node25&#45;&gt;Node26</title>
<path fill="none" stroke="#191970" d="M195.8851,-302.2967C188.2137,-293.7303 178.4804,-282.8614 169.9128,-273.2943"/>
<polygon fill="#191970" stroke="#191970" points="172.3396,-270.7578 163.061,-265.6432 167.1249,-275.4276 172.3396,-270.7578"/>
</g>
<!-- Node26&#45;&gt;Node11 -->
<g id="edge43" class="edge">
<title>Node26&#45;&gt;Node11</title>
<path fill="none" stroke="#191970" d="M84.4606,-235.3669C39.2317,-221.7563 -8.7707,-199.1074 16.5,-168 63.7252,-109.8672 109.1273,-148.5321 187.0527,-131.9384"/>
<polygon fill="#191970" stroke="#191970" points="188.326,-135.2322 197.2324,-129.4941 186.6916,-128.4257 188.326,-135.2322"/>
</g>
<!-- Node26&#45;&gt;Node13 -->
<g id="edge32" class="edge">
<title>Node26&#45;&gt;Node13</title>
<path fill="none" stroke="#191970" d="M139.0747,-235.2385C127.7065,-218.6373 108.9365,-191.345 92.5,-168 86.0178,-158.7932 78.7285,-148.6144 72.6527,-140.1775"/>
<polygon fill="#191970" stroke="#191970" points="75.3219,-137.8952 66.6317,-131.8345 69.6457,-141.9916 75.3219,-137.8952"/>
</g>
<!-- Node26&#45;&gt;Node21 -->
<g id="edge33" class="edge">
<title>Node26&#45;&gt;Node21</title>
<path fill="none" stroke="#191970" d="M240.6975,-237.3029C334.7413,-223.694 478.3831,-202.9078 556.7471,-191.5679"/>
<polygon fill="#191970" stroke="#191970" points="557.5015,-194.9953 566.8971,-190.0991 556.4989,-188.0674 557.5015,-194.9953"/>
</g>
<!-- Node27 -->
<g id="node28" class="node">
<title>Node27</title>
<g id="a_node28"><a xlink:href="ShaderConfiguration_8hpp.html" target="_top" xlink:title="Engine/Renderer/RenderTechnique\l/ShaderConfiguration.hpp">
<polygon fill="#ffffff" stroke="#000000" points="177.5,-168.5 177.5,-198.5 359.5,-198.5 359.5,-168.5 177.5,-168.5"/>
<text text-anchor="start" x="185.5" y="-186.5" font-family="Helvetica,sans-Serif" font-size="10.00" fill="#000000">Engine/Renderer/RenderTechnique</text>
<text text-anchor="middle" x="268.5" y="-175.5" font-family="Helvetica,sans-Serif" font-size="10.00" fill="#000000">/ShaderConfiguration.hpp</text>
</a>
</g>
</g>
<!-- Node26&#45;&gt;Node27 -->
<g id="edge34" class="edge">
<title>Node26&#45;&gt;Node27</title>
<path fill="none" stroke="#191970" d="M176.2059,-235.4639C192.7784,-226.1332 214.2871,-214.0232 232.3711,-203.8415"/>
<polygon fill="#191970" stroke="#191970" points="234.4748,-206.6737 241.4715,-198.7177 231.0405,-200.574 234.4748,-206.6737"/>
</g>
<!-- Node28 -->
<g id="node29" class="node">
<title>Node28</title>
<polygon fill="#ffffff" stroke="#bfbfbf" points="137.5,-112.5 137.5,-131.5 179.5,-131.5 179.5,-112.5 137.5,-112.5"/>
<text text-anchor="middle" x="158.5" y="-119.5" font-family="Helvetica,sans-Serif" font-size="10.00" fill="#000000">array</text>
</g>
<!-- Node26&#45;&gt;Node28 -->
<g id="edge41" class="edge">
<title>Node26&#45;&gt;Node28</title>
<path fill="none" stroke="#191970" d="M150.5678,-235.2548C152.1983,-211.9744 155.309,-167.5607 157.1124,-141.8117"/>
<polygon fill="#191970" stroke="#191970" points="160.6108,-141.9559 157.8181,-131.7358 153.6279,-141.4668 160.6108,-141.9559"/>
</g>
<!-- Node30 -->
<g id="node31" class="node">
<title>Node30</title>
<polygon fill="#ffffff" stroke="#bfbfbf" points="25.5,-174 25.5,-193 83.5,-193 83.5,-174 25.5,-174"/>
<text text-anchor="middle" x="54.5" y="-181" font-family="Helvetica,sans-Serif" font-size="10.00" fill="#000000">memory</text>
</g>
<!-- Node26&#45;&gt;Node30 -->
<g id="edge42" class="edge">
<title>Node26&#45;&gt;Node30</title>
<path fill="none" stroke="#191970" d="M127.943,-235.2967C112.5668,-224.4524 91.9586,-209.9182 76.4862,-199.006"/>
<polygon fill="#191970" stroke="#191970" points="78.2374,-195.9582 68.0481,-193.055 74.203,-201.6787 78.2374,-195.9582"/>
</g>
<!-- Node27&#45;&gt;Node11 -->
<g id="edge39" class="edge">
<title>Node27&#45;&gt;Node11</title>
<path fill="none" stroke="#191970" d="M256.3876,-168.2977C249.5151,-159.672 240.8777,-148.8312 233.689,-139.8087"/>
<polygon fill="#191970" stroke="#191970" points="236.3144,-137.487 227.3455,-131.8469 230.8396,-141.849 236.3144,-137.487"/>
</g>
<!-- Node27&#45;&gt;Node13 -->
<g id="edge35" class="edge">
<title>Node27&#45;&gt;Node13</title>
<path fill="none" stroke="#191970" d="M217.3728,-168.4554C181.8889,-158.0139 135.1818,-144.27 101.7944,-134.4455"/>
<polygon fill="#191970" stroke="#191970" points="102.4689,-130.9956 91.8876,-131.5303 100.4928,-137.7109 102.4689,-130.9956"/>
</g>
<!-- Node27&#45;&gt;Node14 -->
<g id="edge38" class="edge">
<title>Node27&#45;&gt;Node14</title>
<path fill="none" stroke="#191970" d="M282.5899,-168.2977C290.7493,-159.4941 301.0472,-148.3833 309.5095,-139.2529"/>
<polygon fill="#191970" stroke="#191970" points="312.1429,-141.5604 316.3736,-131.8469 307.0089,-136.8021 312.1429,-141.5604"/>
</g>
<!-- Node27&#45;&gt;Node15 -->
<g id="edge40" class="edge">
<title>Node27&#45;&gt;Node15</title>
<path fill="none" stroke="#191970" d="M296.6322,-168.4554C314.9786,-158.644 338.7777,-145.9167 356.8251,-136.2653"/>
<polygon fill="#191970" stroke="#191970" points="358.5114,-139.3326 365.6791,-131.5303 355.2103,-133.1598 358.5114,-139.3326"/>
</g>
<!-- Node27&#45;&gt;Node28 -->
<g id="edge36" class="edge">
<title>Node27&#45;&gt;Node28</title>
<path fill="none" stroke="#191970" d="M241.591,-168.4554C224.2032,-158.734 201.6951,-146.15 184.4916,-136.5317"/>
<polygon fill="#191970" stroke="#191970" points="185.9826,-133.3554 175.5461,-131.5303 182.5665,-139.4653 185.9826,-133.3554"/>
</g>
<!-- Node29 -->
<g id="node30" class="node">
<title>Node29</title>
<polygon fill="#ffffff" stroke="#bfbfbf" points="259.5,-112.5 259.5,-131.5 291.5,-131.5 291.5,-112.5 259.5,-112.5"/>
<text text-anchor="middle" x="275.5" y="-119.5" font-family="Helvetica,sans-Serif" font-size="10.00" fill="#000000">list</text>
</g>
<!-- Node27&#45;&gt;Node29 -->
<g id="edge37" class="edge">
<title>Node27&#45;&gt;Node29</title>
<path fill="none" stroke="#191970" d="M270.2303,-168.2977C271.1413,-160.2945 272.2693,-150.3843 273.2476,-141.7889"/>
<polygon fill="#191970" stroke="#191970" points="276.7258,-142.1786 274.3792,-131.8469 269.7707,-141.3869 276.7258,-142.1786"/>
</g>
</g>
</svg>
