<?xml version="1.0" encoding="UTF-8" standalone="no"?>
<!DOCTYPE svg PUBLIC "-//W3C//DTD SVG 1.1//EN"
 "http://www.w3.org/Graphics/SVG/1.1/DTD/svg11.dtd">
<!-- Generated by graphviz version 2.40.1 (20161225.0304)
 -->
<!-- Title: src/Engine/Renderer/RenderTechnique/RenderParameters.hpp Pages: 1 -->
<!--zoomable 408 -->
<svg id="main" version="1.1" xmlns="http://www.w3.org/2000/svg" xmlns:xlink="http://www.w3.org/1999/xlink" xml:space="preserve" onload="init(evt)">
<style type="text/css"><![CDATA[
.edge:hover path { stroke: red; }
.edge:hover polygon { stroke: red; fill: red; }
]]></style>
<script type="text/javascript"><![CDATA[
var edges = document.getElementsByTagName('g');
if (edges && edges.length) {
  for (var i=0;i<edges.length;i++) {
    if (edges[i].id.substr(0,4)=='edge') {
      edges[i].setAttribute('class','edge');
    }
  }
}
]]></script>
        <defs>
                <circle id="rim" cx="0" cy="0" r="7"/>
                <circle id="rim2" cx="0" cy="0" r="3.5"/>
                <g id="zoomPlus">
                        <use xlink:href="#rim" fill="#404040">
                                <set attributeName="fill" to="#808080" begin="zoomplus.mouseover" end="zoomplus.mouseout"/>
                        </use>
                        <path d="M-4,0h8M0,-4v8" fill="none" stroke="white" stroke-width="1.5" pointer-events="none"/>
                </g>
                <g id="zoomMin">
                        <use xlink:href="#rim" fill="#404040">
                                <set attributeName="fill" to="#808080" begin="zoomminus.mouseover" end="zoomminus.mouseout"/>
                        </use>
                        <path d="M-4,0h8" fill="none" stroke="white" stroke-width="1.5" pointer-events="none"/>
                </g>
                <g id="dirArrow">
                        <path fill="none" stroke="white" stroke-width="1.5" d="M0,-3.0v7 M-2.5,-0.5L0,-3.0L2.5,-0.5"/>
                </g>
               <g id="resetDef">
                       <use xlink:href="#rim2" fill="#404040">
                               <set attributeName="fill" to="#808080" begin="reset.mouseover" end="reset.mouseout"/>
                       </use>
               </g>
        </defs>

<script type="text/javascript">
var viewWidth = 1022;
var viewHeight = 408;
var sectionId = 'dynsection-0';
</script>
<script xlink:href="svgpan.js"/>
<svg id="graph" class="graph">
<g id="viewport">
<title>src/Engine/Renderer/RenderTechnique/RenderParameters.hpp</title>
<polygon fill="#ffffff" stroke="transparent" points="-4,4 -4,-404 1017.5,-404 1017.5,4 -4,4"/>
<!-- Node0 -->
<g id="node1" class="node">
<title>Node0</title>
<polygon fill="#bfbfbf" stroke="#000000" points="418.5,-369.5 418.5,-399.5 633.5,-399.5 633.5,-369.5 418.5,-369.5"/>
<text text-anchor="start" x="426.5" y="-387.5" font-family="Helvetica,sans-Serif" font-size="10.00" fill="#000000">src/Engine/Renderer</text>
<text text-anchor="middle" x="526" y="-376.5" font-family="Helvetica,sans-Serif" font-size="10.00" fill="#000000">/RenderTechnique/RenderParameters.hpp</text>
</g>
<!-- Node1 -->
<g id="node2" class="node">
<title>Node1</title>
<g id="a_node2"><a xlink:href="RaEngine_8hpp.html" target="_top" xlink:title="Engine/RaEngine.hpp">
<polygon fill="#ffffff" stroke="#000000" points="645.5,-112.5 645.5,-131.5 764.5,-131.5 764.5,-112.5 645.5,-112.5"/>
<text text-anchor="middle" x="705" y="-119.5" font-family="Helvetica,sans-Serif" font-size="10.00" fill="#000000">Engine/RaEngine.hpp</text>
</a>
</g>
</g>
<!-- Node0&#45;&gt;Node1 -->
<g id="edge1" class="edge">
<title>Node0&#45;&gt;Node1</title>
<path fill="none" stroke="#191970" d="M524.8301,-369.174C523.3365,-341.0467 523.1672,-279.9509 545,-235 569.5857,-184.3813 629.2392,-151.9877 668.3528,-135.4077"/>
<polygon fill="#191970" stroke="#191970" points="669.8921,-138.5595 677.8205,-131.5317 667.24,-132.0813 669.8921,-138.5595"/>
</g>
<!-- Node8 -->
<g id="node9" class="node">
<title>Node8</title>
<polygon fill="#ffffff" stroke="#bfbfbf" points="913,-112.5 913,-131.5 945,-131.5 945,-112.5 913,-112.5"/>
<text text-anchor="middle" x="929" y="-119.5" font-family="Helvetica,sans-Serif" font-size="10.00" fill="#000000">set</text>
</g>
<!-- Node0&#45;&gt;Node8 -->
<g id="edge8" class="edge">
<title>Node0&#45;&gt;Node8</title>
<path fill="none" stroke="#191970" d="M631.7175,-369.4446C668.7644,-361.6545 709.8666,-350.0636 745,-333 830.9123,-291.2742 862.9816,-280.3642 913,-199 923.6899,-181.6109 927.3509,-158.2718 928.5469,-141.8625"/>
<polygon fill="#191970" stroke="#191970" points="932.0479,-141.9256 929.0372,-131.7676 925.0562,-141.586 932.0479,-141.9256"/>
</g>
<!-- Node9 -->
<g id="node10" class="node">
<title>Node9</title>
<polygon fill="#ffffff" stroke="#bfbfbf" points="966.5,-112.5 966.5,-131.5 1013.5,-131.5 1013.5,-112.5 966.5,-112.5"/>
<text text-anchor="middle" x="990" y="-119.5" font-family="Helvetica,sans-Serif" font-size="10.00" fill="#000000">vector</text>
</g>
<!-- Node0&#45;&gt;Node9 -->
<g id="edge9" class="edge">
<title>Node0&#45;&gt;Node9</title>
<path fill="none" stroke="#191970" d="M633.5949,-373.6023C682.6582,-366.1113 740.673,-353.6328 790,-333 838.6751,-312.6399 850.3832,-302.997 888,-266 928.0543,-226.6057 963.0631,-169.7603 979.7022,-140.6791"/>
<polygon fill="#191970" stroke="#191970" points="982.9437,-142.0557 984.7997,-131.6247 976.8439,-138.6216 982.9437,-142.0557"/>
</g>
<!-- Node10 -->
<g id="node11" class="node">
<title>Node10</title>
<g id="a_node11"><a xlink:href="AlignedAllocator_8hpp.html" target="_top" xlink:title="Core/Containers/AlignedAllocator.hpp">
<polygon fill="#ffffff" stroke="#000000" points="167,-308 167,-327 365,-327 365,-308 167,-308"/>
<text text-anchor="middle" x="266" y="-315" font-family="Helvetica,sans-Serif" font-size="10.00" fill="#000000">Core/Containers/AlignedAllocator.hpp</text>
</a>
</g>
</g>
<!-- Node0&#45;&gt;Node10 -->
<g id="edge10" class="edge">
<title>Node0&#45;&gt;Node10</title>
<path fill="none" stroke="#191970" d="M467.6509,-369.4639C420.8415,-357.4015 356.008,-340.6944 312.617,-329.5128"/>
<polygon fill="#191970" stroke="#191970" points="313.4433,-326.1115 302.8862,-327.0053 311.6964,-332.89 313.4433,-326.1115"/>
</g>
<!-- Node16 -->
<g id="node17" class="node">
<title>Node16</title>
<g id="a_node17"><a xlink:href="Types_8hpp.html" target="_top" xlink:title="Core/Types.hpp">
<polygon fill="#ffffff" stroke="#000000" points="406.5,-174 406.5,-193 497.5,-193 497.5,-174 406.5,-174"/>
<text text-anchor="middle" x="452" y="-181" font-family="Helvetica,sans-Serif" font-size="10.00" fill="#000000">Core/Types.hpp</text>
</a>
</g>
</g>
<!-- Node0&#45;&gt;Node16 -->
<g id="edge17" class="edge">
<title>Node0&#45;&gt;Node16</title>
<path fill="none" stroke="#191970" d="M520.438,-369.3923C507.1985,-333.431 473.8254,-242.7824 459.1322,-202.8727"/>
<polygon fill="#191970" stroke="#191970" points="462.3313,-201.4312 455.5918,-193.2562 455.7623,-203.8497 462.3313,-201.4312"/>
</g>
<!-- Node20 -->
<g id="node21" class="node">
<title>Node20</title>
<g id="a_node21"><a xlink:href="Log_8hpp.html" target="_top" xlink:title="Core/Utils/Log.hpp">
<polygon fill="#ffffff" stroke="#000000" points="50,-174 50,-193 156,-193 156,-174 50,-174"/>
<text text-anchor="middle" x="103" y="-181" font-family="Helvetica,sans-Serif" font-size="10.00" fill="#000000">Core/Utils/Log.hpp</text>
</a>
</g>
</g>
<!-- Node0&#45;&gt;Node20 -->
<g id="edge22" class="edge">
<title>Node0&#45;&gt;Node20</title>
<path fill="none" stroke="#191970" d="M418.2037,-374.3984C327.1905,-364.9559 204.4831,-349.8178 158,-333 104.8833,-313.7821 77.4652,-315.3597 50,-266 43.3009,-253.9605 44.6363,-247.6908 50,-235 56.0499,-220.6858 68.2397,-208.3878 79.405,-199.4027"/>
<polygon fill="#191970" stroke="#191970" points="81.7514,-202.0168 87.6247,-193.1989 77.5344,-196.4295 81.7514,-202.0168"/>
</g>
<!-- Node24 -->
<g id="node25" class="node">
<title>Node24</title>
<g id="a_node25"><a xlink:href="RenderParameters_8inl.html" target="_top" xlink:title="Engine/Renderer/RenderTechnique\l/RenderParameters.inl">
<polygon fill="#ffffff" stroke="#000000" points="554,-302.5 554,-332.5 736,-332.5 736,-302.5 554,-302.5"/>
<text text-anchor="start" x="562" y="-320.5" font-family="Helvetica,sans-Serif" font-size="10.00" fill="#000000">Engine/Renderer/RenderTechnique</text>
<text text-anchor="middle" x="645" y="-309.5" font-family="Helvetica,sans-Serif" font-size="10.00" fill="#000000">/RenderParameters.inl</text>
</a>
</g>
</g>
<!-- Node0&#45;&gt;Node24 -->
<g id="edge28" class="edge">
<title>Node0&#45;&gt;Node24</title>
<path fill="none" stroke="#191970" d="M552.7059,-369.4639C569.2784,-360.1332 590.7871,-348.0232 608.8711,-337.8415"/>
<polygon fill="#191970" stroke="#191970" points="610.9748,-340.6737 617.9715,-332.7177 607.5405,-334.574 610.9748,-340.6737"/>
</g>
<!-- Node2 -->
<g id="node3" class="node">
<title>Node2</title>
<g id="a_node3"><a xlink:href="CoreMacros_8hpp.html" target="_top" xlink:title="Core/CoreMacros.hpp">
<polygon fill="#ffffff" stroke="#000000" points="157,-56.5 157,-75.5 277,-75.5 277,-56.5 157,-56.5"/>
<text text-anchor="middle" x="217" y="-63.5" font-family="Helvetica,sans-Serif" font-size="10.00" fill="#000000">Core/CoreMacros.hpp</text>
</a>
</g>
</g>
<!-- Node1&#45;&gt;Node2 -->
<g id="edge2" class="edge">
<title>Node1&#45;&gt;Node2</title>
<path fill="none" stroke="#191970" d="M645.1781,-113.201C642.0754,-112.7851 639.0018,-112.3822 636,-112 513.5242,-96.4067 370.4968,-81.3874 287.2009,-72.9581"/>
<polygon fill="#191970" stroke="#191970" points="287.3969,-69.4602 277.0959,-71.9382 286.6939,-76.4248 287.3969,-69.4602"/>
</g>
<!-- Node3 -->
<g id="node4" class="node">
<title>Node3</title>
<polygon fill="#ffffff" stroke="#bfbfbf" points="124,-.5 124,-19.5 176,-19.5 176,-.5 124,-.5"/>
<text text-anchor="middle" x="150" y="-7.5" font-family="Helvetica,sans-Serif" font-size="10.00" fill="#000000">cassert</text>
</g>
<!-- Node2&#45;&gt;Node3 -->
<g id="edge3" class="edge">
<title>Node2&#45;&gt;Node3</title>
<path fill="none" stroke="#191970" d="M205.3295,-56.2455C195.4339,-47.9746 181.0373,-35.9416 169.4099,-26.2232"/>
<polygon fill="#191970" stroke="#191970" points="171.4542,-23.3703 161.5368,-19.6427 166.965,-28.7413 171.4542,-23.3703"/>
</g>
<!-- Node4 -->
<g id="node5" class="node">
<title>Node4</title>
<polygon fill="#ffffff" stroke="#bfbfbf" points="194,-.5 194,-19.5 240,-19.5 240,-.5 194,-.5"/>
<text text-anchor="middle" x="217" y="-7.5" font-family="Helvetica,sans-Serif" font-size="10.00" fill="#000000">cstdio</text>
</g>
<!-- Node2&#45;&gt;Node4 -->
<g id="edge4" class="edge">
<title>Node2&#45;&gt;Node4</title>
<path fill="none" stroke="#191970" d="M217,-56.2455C217,-48.9382 217,-38.6944 217,-29.7046"/>
<polygon fill="#191970" stroke="#191970" points="220.5001,-29.6426 217,-19.6427 213.5001,-29.6427 220.5001,-29.6426"/>
</g>
<!-- Node5 -->
<g id="node6" class="node">
<title>Node5</title>
<polygon fill="#ffffff" stroke="#bfbfbf" points="258,-.5 258,-19.5 318,-19.5 318,-.5 258,-.5"/>
<text text-anchor="middle" x="288" y="-7.5" font-family="Helvetica,sans-Serif" font-size="10.00" fill="#000000">iostream</text>
</g>
<!-- Node2&#45;&gt;Node5 -->
<g id="edge5" class="edge">
<title>Node2&#45;&gt;Node5</title>
<path fill="none" stroke="#191970" d="M229.3673,-56.2455C239.9554,-47.8943 255.4064,-35.7076 267.7893,-25.9408"/>
<polygon fill="#191970" stroke="#191970" points="270.0903,-28.5837 275.7745,-19.6427 265.7553,-23.0875 270.0903,-28.5837"/>
</g>
<!-- Node6 -->
<g id="node7" class="node">
<title>Node6</title>
<polygon fill="#ffffff" stroke="#bfbfbf" points="50,-.5 50,-19.5 106,-19.5 106,-.5 50,-.5"/>
<text text-anchor="middle" x="78" y="-7.5" font-family="Helvetica,sans-Serif" font-size="10.00" fill="#000000">sstream</text>
</g>
<!-- Node2&#45;&gt;Node6 -->
<g id="edge6" class="edge">
<title>Node2&#45;&gt;Node6</title>
<path fill="none" stroke="#191970" d="M193.105,-56.3733C170.4918,-47.2629 136.3458,-33.5062 111.1127,-23.3404"/>
<polygon fill="#191970" stroke="#191970" points="112.1666,-19.9917 101.5831,-19.5011 109.5507,-26.4845 112.1666,-19.9917"/>
</g>
<!-- Node7 -->
<g id="node8" class="node">
<title>Node7</title>
<polygon fill="#ffffff" stroke="#bfbfbf" points="336,-.5 336,-19.5 384,-19.5 384,-.5 336,-.5"/>
<text text-anchor="middle" x="360" y="-7.5" font-family="Helvetica,sans-Serif" font-size="10.00" fill="#000000">thread</text>
</g>
<!-- Node2&#45;&gt;Node7 -->
<g id="edge7" class="edge">
<title>Node2&#45;&gt;Node7</title>
<path fill="none" stroke="#191970" d="M241.5826,-56.3733C264.9496,-47.2226 300.2862,-33.3844 326.2784,-23.2057"/>
<polygon fill="#191970" stroke="#191970" points="327.703,-26.4066 335.7382,-19.5011 325.1505,-19.8886 327.703,-26.4066"/>
</g>
<!-- Node11 -->
<g id="node12" class="node">
<title>Node11</title>
<g id="a_node12"><a xlink:href="RaCore_8hpp.html" target="_top" xlink:title="Core/RaCore.hpp">
<polygon fill="#ffffff" stroke="#000000" points="168,-112.5 168,-131.5 266,-131.5 266,-112.5 168,-112.5"/>
<text text-anchor="middle" x="217" y="-119.5" font-family="Helvetica,sans-Serif" font-size="10.00" fill="#000000">Core/RaCore.hpp</text>
</a>
</g>
</g>
<!-- Node10&#45;&gt;Node11 -->
<g id="edge11" class="edge">
<title>Node10&#45;&gt;Node11</title>
<path fill="none" stroke="#191970" d="M300.3162,-307.9763C320.97,-300.2784 345.5953,-287.16 358,-266 364.9679,-254.1141 363.963,-247.4205 358,-235 335.2271,-187.5657 281.7668,-153.78 247.6076,-136.1207"/>
<polygon fill="#191970" stroke="#191970" points="249.0347,-132.9209 238.5264,-131.5695 245.8983,-139.179 249.0347,-132.9209"/>
</g>
<!-- Node12 -->
<g id="node13" class="node">
<title>Node12</title>
<polygon fill="#ffffff" stroke="#bfbfbf" points="266.5,-241 266.5,-260 349.5,-260 349.5,-241 266.5,-241"/>
<text text-anchor="middle" x="308" y="-248" font-family="Helvetica,sans-Serif" font-size="10.00" fill="#000000">mm_malloc.h</text>
</g>
<!-- Node10&#45;&gt;Node12 -->
<g id="edge13" class="edge">
<title>Node10&#45;&gt;Node12</title>
<path fill="none" stroke="#191970" d="M272.0176,-307.9005C278.38,-297.751 288.5709,-281.4941 296.4858,-268.8679"/>
<polygon fill="#191970" stroke="#191970" points="299.6477,-270.4135 301.9936,-260.0817 293.7167,-266.6956 299.6477,-270.4135"/>
</g>
<!-- Node13 -->
<g id="node14" class="node">
<title>Node13</title>
<polygon fill="#ffffff" stroke="#bfbfbf" points="59.5,-241 59.5,-260 112.5,-260 112.5,-241 59.5,-241"/>
<text text-anchor="middle" x="86" y="-248" font-family="Helvetica,sans-Serif" font-size="10.00" fill="#000000">cstddef</text>
</g>
<!-- Node10&#45;&gt;Node13 -->
<g id="edge14" class="edge">
<title>Node10&#45;&gt;Node13</title>
<path fill="none" stroke="#191970" d="M237.6595,-307.956C208.4765,-297.9903 161.7759,-281.6575 122,-266 120.3894,-265.366 118.7433,-264.7049 117.0849,-264.0285"/>
<polygon fill="#191970" stroke="#191970" points="118.1864,-260.6954 107.6102,-260.0666 115.4859,-267.1536 118.1864,-260.6954"/>
</g>
<!-- Node14 -->
<g id="node15" class="node">
<title>Node14</title>
<polygon fill="#ffffff" stroke="#bfbfbf" points="131,-241 131,-260 181,-260 181,-241 131,-241"/>
<text text-anchor="middle" x="156" y="-248" font-family="Helvetica,sans-Serif" font-size="10.00" fill="#000000">cstdint</text>
</g>
<!-- Node10&#45;&gt;Node14 -->
<g id="edge15" class="edge">
<title>Node10&#45;&gt;Node14</title>
<path fill="none" stroke="#191970" d="M250.2397,-307.9005C232.0243,-296.8057 201.827,-278.4128 180.5323,-265.4424"/>
<polygon fill="#191970" stroke="#191970" points="182.0923,-262.2945 171.7311,-260.0817 178.4509,-268.2728 182.0923,-262.2945"/>
</g>
<!-- Node15 -->
<g id="node16" class="node">
<title>Node15</title>
<polygon fill="#ffffff" stroke="#bfbfbf" points="199.5,-241 199.5,-260 248.5,-260 248.5,-241 199.5,-241"/>
<text text-anchor="middle" x="224" y="-248" font-family="Helvetica,sans-Serif" font-size="10.00" fill="#000000">cstdlib</text>
</g>
<!-- Node10&#45;&gt;Node15 -->
<g id="edge16" class="edge">
<title>Node10&#45;&gt;Node15</title>
<path fill="none" stroke="#191970" d="M259.9824,-307.9005C253.62,-297.751 243.4291,-281.4941 235.5142,-268.8679"/>
<polygon fill="#191970" stroke="#191970" points="238.2833,-266.6956 230.0064,-260.0817 232.3523,-270.4135 238.2833,-266.6956"/>
</g>
<!-- Node11&#45;&gt;Node2 -->
<g id="edge12" class="edge">
<title>Node11&#45;&gt;Node2</title>
<path fill="none" stroke="#191970" d="M217,-112.2455C217,-104.9382 217,-94.6944 217,-85.7046"/>
<polygon fill="#191970" stroke="#191970" points="220.5001,-85.6426 217,-75.6427 213.5001,-85.6427 220.5001,-85.6426"/>
</g>
<!-- Node16&#45;&gt;Node11 -->
<g id="edge18" class="edge">
<title>Node16&#45;&gt;Node11</title>
<path fill="none" stroke="#191970" d="M415.5391,-173.9581C374.5485,-163.2308 307.9031,-145.7895 263.274,-134.11"/>
<polygon fill="#191970" stroke="#191970" points="264.1068,-130.7101 253.5464,-131.5643 262.3345,-137.4821 264.1068,-130.7101"/>
</g>
<!-- Node17 -->
<g id="node18" class="node">
<title>Node17</title>
<polygon fill="#ffffff" stroke="#bfbfbf" points="284.5,-112.5 284.5,-131.5 353.5,-131.5 353.5,-112.5 284.5,-112.5"/>
<text text-anchor="middle" x="319" y="-119.5" font-family="Helvetica,sans-Serif" font-size="10.00" fill="#000000">Eigen/Core</text>
</g>
<!-- Node16&#45;&gt;Node17 -->
<g id="edge19" class="edge">
<title>Node16&#45;&gt;Node17</title>
<path fill="none" stroke="#191970" d="M431.2188,-173.8906C409.1606,-163.6908 374.095,-147.4763 349.0331,-135.8875"/>
<polygon fill="#191970" stroke="#191970" points="350.1809,-132.5622 339.6353,-131.5419 347.2429,-138.9158 350.1809,-132.5622"/>
</g>
<!-- Node18 -->
<g id="node19" class="node">
<title>Node18</title>
<polygon fill="#ffffff" stroke="#bfbfbf" points="371.5,-112.5 371.5,-131.5 466.5,-131.5 466.5,-112.5 371.5,-112.5"/>
<text text-anchor="middle" x="419" y="-119.5" font-family="Helvetica,sans-Serif" font-size="10.00" fill="#000000">Eigen/Geometry</text>
</g>
<!-- Node16&#45;&gt;Node18 -->
<g id="edge20" class="edge">
<title>Node16&#45;&gt;Node18</title>
<path fill="none" stroke="#191970" d="M446.8438,-173.8906C442.0768,-165.0068 434.8615,-151.5601 428.9703,-140.5811"/>
<polygon fill="#191970" stroke="#191970" points="432.0412,-138.9016 424.2289,-131.7449 425.8731,-142.2114 432.0412,-138.9016"/>
</g>
<!-- Node19 -->
<g id="node20" class="node">
<title>Node19</title>
<polygon fill="#ffffff" stroke="#bfbfbf" points="485,-112.5 485,-131.5 565,-131.5 565,-112.5 485,-112.5"/>
<text text-anchor="middle" x="525" y="-119.5" font-family="Helvetica,sans-Serif" font-size="10.00" fill="#000000">Eigen/Sparse</text>
</g>
<!-- Node16&#45;&gt;Node19 -->
<g id="edge21" class="edge">
<title>Node16&#45;&gt;Node19</title>
<path fill="none" stroke="#191970" d="M463.4063,-173.8906C474.6969,-164.3786 492.1967,-149.6357 505.6619,-138.2917"/>
<polygon fill="#191970" stroke="#191970" points="508.0402,-140.8646 513.4329,-131.7449 503.5301,-135.5111 508.0402,-140.8646"/>
</g>
<!-- Node20&#45;&gt;Node6 -->
<g id="edge25" class="edge">
<title>Node20&#45;&gt;Node6</title>
<path fill="none" stroke="#191970" d="M101.6203,-173.9248C97.6684,-146.499 86.2467,-67.232 80.8669,-29.8964"/>
<polygon fill="#191970" stroke="#191970" points="84.2968,-29.1581 79.4063,-19.7595 77.3683,-30.1565 84.2968,-29.1581"/>
</g>
<!-- Node20&#45;&gt;Node11 -->
<g id="edge23" class="edge">
<title>Node20&#45;&gt;Node11</title>
<path fill="none" stroke="#191970" d="M120.8125,-173.8906C139.4685,-163.8262 168.9797,-147.9057 190.3974,-136.3514"/>
<polygon fill="#191970" stroke="#191970" points="192.1734,-139.3702 199.3126,-131.5419 188.8498,-133.2095 192.1734,-139.3702"/>
</g>
<!-- Node21 -->
<g id="node22" class="node">
<title>Node21</title>
<polygon fill="#ffffff" stroke="#bfbfbf" points="106,-112.5 106,-131.5 150,-131.5 150,-112.5 106,-112.5"/>
<text text-anchor="middle" x="128" y="-119.5" font-family="Helvetica,sans-Serif" font-size="10.00" fill="#000000">ctime</text>
</g>
<!-- Node20&#45;&gt;Node21 -->
<g id="edge24" class="edge">
<title>Node20&#45;&gt;Node21</title>
<path fill="none" stroke="#191970" d="M106.9063,-173.8906C110.4446,-165.1862 115.7636,-152.1015 120.175,-141.2494"/>
<polygon fill="#191970" stroke="#191970" points="123.5152,-142.3268 124.0387,-131.7449 117.0305,-139.6907 123.5152,-142.3268"/>
</g>
<!-- Node22 -->
<g id="node23" class="node">
<title>Node22</title>
<polygon fill="#ffffff" stroke="#bfbfbf" points="0,-112.5 0,-131.5 50,-131.5 50,-112.5 0,-112.5"/>
<text text-anchor="middle" x="25" y="-119.5" font-family="Helvetica,sans-Serif" font-size="10.00" fill="#000000">stdio.h</text>
</g>
<!-- Node20&#45;&gt;Node22 -->
<g id="edge26" class="edge">
<title>Node20&#45;&gt;Node22</title>
<path fill="none" stroke="#191970" d="M90.8125,-173.8906C78.563,-164.2324 59.4737,-149.1812 45.0023,-137.771"/>
<polygon fill="#191970" stroke="#191970" points="47.1217,-134.985 37.1019,-131.5419 42.7876,-140.4819 47.1217,-134.985"/>
</g>
<!-- Node23 -->
<g id="node24" class="node">
<title>Node23</title>
<polygon fill="#ffffff" stroke="#bfbfbf" points="583,-112.5 583,-131.5 627,-131.5 627,-112.5 583,-112.5"/>
<text text-anchor="middle" x="605" y="-119.5" font-family="Helvetica,sans-Serif" font-size="10.00" fill="#000000">string</text>
</g>
<!-- Node20&#45;&gt;Node23 -->
<g id="edge27" class="edge">
<title>Node20&#45;&gt;Node23</title>
<path fill="none" stroke="#191970" d="M156.1816,-181.2057C242.1357,-176.7317 416.8619,-164.465 572.5684,-131.9318"/>
<polygon fill="#191970" stroke="#191970" points="573.7413,-135.2608 582.7959,-129.7594 572.2869,-128.4136 573.7413,-135.2608"/>
</g>
<!-- Node25 -->
<g id="node26" class="node">
<title>Node25</title>
<g id="a_node26"><a xlink:href="ShaderProgram_8hpp.html" target="_top" xlink:title="Engine/Renderer/RenderTechnique\l/ShaderProgram.hpp">
<polygon fill="#ffffff" stroke="#000000" points="554,-235.5 554,-265.5 736,-265.5 736,-235.5 554,-235.5"/>
<text text-anchor="start" x="562" y="-253.5" font-family="Helvetica,sans-Serif" font-size="10.00" fill="#000000">Engine/Renderer/RenderTechnique</text>
<text text-anchor="middle" x="645" y="-242.5" font-family="Helvetica,sans-Serif" font-size="10.00" fill="#000000">/ShaderProgram.hpp</text>
</a>
</g>
</g>
<!-- Node24&#45;&gt;Node25 -->
<g id="edge29" class="edge">
<title>Node24&#45;&gt;Node25</title>
<path fill="none" stroke="#191970" d="M645,-302.2967C645,-294.5013 645,-284.7991 645,-275.9064"/>
<polygon fill="#191970" stroke="#191970" points="648.5001,-275.6431 645,-265.6432 641.5001,-275.6432 648.5001,-275.6431"/>
</g>
<!-- Node25&#45;&gt;Node1 -->
<g id="edge30" class="edge">
<title>Node25&#45;&gt;Node1</title>
<path fill="none" stroke="#191970" d="M633.7103,-235.2901C622.384,-218.0096 608.3018,-189.4314 621,-168 629.8436,-153.0742 645.4332,-142.6736 660.8002,-135.589"/>
<polygon fill="#191970" stroke="#191970" points="662.4211,-138.7041 670.2773,-131.5956 659.7029,-132.2534 662.4211,-138.7041"/>
</g>
<!-- Node25&#45;&gt;Node16 -->
<g id="edge31" class="edge">
<title>Node25&#45;&gt;Node16</title>
<path fill="none" stroke="#191970" d="M601.687,-235.4639C567.7447,-223.6808 521.0355,-207.4657 488.8671,-196.2984"/>
<polygon fill="#191970" stroke="#191970" points="489.9757,-192.9784 479.3809,-193.0053 487.68,-199.5913 489.9757,-192.9784"/>
</g>
<!-- Node25&#45;&gt;Node23 -->
<g id="edge41" class="edge">
<title>Node25&#45;&gt;Node23</title>
<path fill="none" stroke="#191970" d="M620.2233,-235.3813C608.0779,-226.4661 594.6594,-213.9917 588,-199 579.6572,-180.2186 586.9444,-156.9866 594.3996,-140.9819"/>
<polygon fill="#191970" stroke="#191970" points="597.7438,-142.1273 599.1604,-131.6276 591.5053,-138.9522 597.7438,-142.1273"/>
</g>
<!-- Node26 -->
<g id="node27" class="node">
<title>Node26</title>
<g id="a_node27"><a xlink:href="ShaderConfiguration_8hpp.html" target="_top" xlink:title="Engine/Renderer/RenderTechnique\l/ShaderConfiguration.hpp">
<polygon fill="#ffffff" stroke="#000000" points="706,-168.5 706,-198.5 888,-198.5 888,-168.5 706,-168.5"/>
<text text-anchor="start" x="714" y="-186.5" font-family="Helvetica,sans-Serif" font-size="10.00" fill="#000000">Engine/Renderer/RenderTechnique</text>
<text text-anchor="middle" x="797" y="-175.5" font-family="Helvetica,sans-Serif" font-size="10.00" fill="#000000">/ShaderConfiguration.hpp</text>
</a>
</g>
</g>
<!-- Node25&#45;&gt;Node26 -->
<g id="edge32" class="edge">
<title>Node25&#45;&gt;Node26</title>
<path fill="none" stroke="#191970" d="M679.1118,-235.4639C701.0367,-225.7996 729.7254,-213.154 753.3119,-202.7572"/>
<polygon fill="#191970" stroke="#191970" points="755.0007,-205.8379 762.7395,-198.6017 752.1772,-199.4325 755.0007,-205.8379"/>
</g>
<!-- Node27 -->
<g id="node28" class="node">
<title>Node27</title>
<polygon fill="#ffffff" stroke="#bfbfbf" points="846,-112.5 846,-131.5 888,-131.5 888,-112.5 846,-112.5"/>
<text text-anchor="middle" x="867" y="-119.5" font-family="Helvetica,sans-Serif" font-size="10.00" fill="#000000">array</text>
</g>
<!-- Node25&#45;&gt;Node27 -->
<g id="edge39" class="edge">
<title>Node25&#45;&gt;Node27</title>
<path fill="none" stroke="#191970" d="M736.1551,-243.8194C799.7436,-237.0423 876.7041,-223.8632 897,-199 911.2154,-181.5857 896.7909,-156.643 883.4598,-139.9113"/>
<polygon fill="#191970" stroke="#191970" points="885.8827,-137.3569 876.7457,-131.9935 880.5438,-141.8842 885.8827,-137.3569"/>
</g>
<!-- Node29 -->
<g id="node30" class="node">
<title>Node29</title>
<polygon fill="#ffffff" stroke="#bfbfbf" points="630,-174 630,-193 688,-193 688,-174 630,-174"/>
<text text-anchor="middle" x="659" y="-181" font-family="Helvetica,sans-Serif" font-size="10.00" fill="#000000">memory</text>
</g>
<!-- Node25&#45;&gt;Node29 -->
<g id="edge40" class="edge">
<title>Node25&#45;&gt;Node29</title>
<path fill="none" stroke="#191970" d="M648.1768,-235.2967C650.1675,-225.7699 652.7532,-213.3954 654.8981,-203.1306"/>
<polygon fill="#191970" stroke="#191970" points="658.384,-203.5595 657.0034,-193.055 651.532,-202.1277 658.384,-203.5595"/>
</g>
<!-- Node26&#45;&gt;Node1 -->
<g id="edge33" class="edge">
<title>Node26&#45;&gt;Node1</title>
<path fill="none" stroke="#191970" d="M774.2584,-168.2977C760.2033,-158.9022 742.217,-146.8787 728.0964,-137.4395"/>
<polygon fill="#191970" stroke="#191970" points="729.7143,-134.311 719.4556,-131.6633 725.8241,-140.1305 729.7143,-134.311"/>
</g>
<!-- Node26&#45;&gt;Node8 -->
<g id="edge36" class="edge">
<title>Node26&#45;&gt;Node8</title>
<path fill="none" stroke="#191970" d="M829.2908,-168.4554C852.0888,-157.8336 882.2219,-143.7944 903.3725,-133.9401"/>
<polygon fill="#191970" stroke="#191970" points="905.0945,-136.9991 912.6808,-129.6033 902.1382,-130.654 905.0945,-136.9991"/>
</g>
<!-- Node26&#45;&gt;Node9 -->
<g id="edge38" class="edge">
<title>Node26&#45;&gt;Node9</title>
<path fill="none" stroke="#191970" d="M844.2131,-168.4554C879.0042,-157.3691 925.4787,-142.5599 956.5094,-132.6719"/>
<polygon fill="#191970" stroke="#191970" points="957.9363,-135.8907 966.4016,-129.5197 955.8109,-129.2211 957.9363,-135.8907"/>
</g>
<!-- Node26&#45;&gt;Node23 -->
<g id="edge37" class="edge">
<title>Node26&#45;&gt;Node23</title>
<path fill="none" stroke="#191970" d="M750.0315,-168.4554C714.922,-157.2094 667.8522,-142.1323 636.9923,-132.2475"/>
<polygon fill="#191970" stroke="#191970" points="637.78,-128.8247 627.1889,-129.1074 635.6446,-135.4911 637.78,-128.8247"/>
</g>
<!-- Node26&#45;&gt;Node27 -->
<g id="edge34" class="edge">
<title>Node26&#45;&gt;Node27</title>
<path fill="none" stroke="#191970" d="M814.3034,-168.2977C824.5262,-159.3163 837.4823,-147.9334 847.9896,-138.702"/>
<polygon fill="#191970" stroke="#191970" points="850.5897,-141.0766 855.7921,-131.8469 845.9695,-135.8178 850.5897,-141.0766"/>
</g>
<!-- Node28 -->
<g id="node29" class="node">
<title>Node28</title>
<polygon fill="#ffffff" stroke="#bfbfbf" points="783,-112.5 783,-131.5 815,-131.5 815,-112.5 783,-112.5"/>
<text text-anchor="middle" x="799" y="-119.5" font-family="Helvetica,sans-Serif" font-size="10.00" fill="#000000">list</text>
</g>
<!-- Node26&#45;&gt;Node28 -->
<g id="edge35" class="edge">
<title>Node26&#45;&gt;Node28</title>
<path fill="none" stroke="#191970" d="M797.4944,-168.2977C797.7518,-160.3834 798.0698,-150.6043 798.3471,-142.0759"/>
<polygon fill="#191970" stroke="#191970" points="801.8528,-141.9554 798.6798,-131.8469 794.8565,-141.7279 801.8528,-141.9554"/>
</g>
</g>
</svg>
        <g id="navigator" transform="translate(0 0)" fill="#404254">
                <rect fill="#f2f5e9" fill-opacity="0.5" stroke="#606060" stroke-width=".5" x="0" y="0" width="60" height="60"/>
                <use id="zoomplus" xlink:href="#zoomPlus" x="17" y="9" onmousedown="handleZoom(evt,'in')"/>
                <use id="zoomminus" xlink:href="#zoomMin" x="42" y="9" onmousedown="handleZoom(evt,'out')"/>
                <use id="reset" xlink:href="#resetDef" x="30" y="36" onmousedown="handleReset()"/>
                <g id="arrowUp" xlink:href="#dirArrow" transform="translate(30 24)" onmousedown="handlePan(0,-1)">
                  <use xlink:href="#rim" fill="#404040">
                        <set attributeName="fill" to="#808080" begin="arrowUp.mouseover" end="arrowUp.mouseout"/>
                  </use>
                  <path fill="none" stroke="white" stroke-width="1.5" d="M0,-3.0v7 M-2.5,-0.5L0,-3.0L2.5,-0.5"/>
                </g>
                <g id="arrowRight" xlink:href="#dirArrow" transform="rotate(90) translate(36 -43)" onmousedown="handlePan(1,0)">
                  <use xlink:href="#rim" fill="#404040">
                        <set attributeName="fill" to="#808080" begin="arrowRight.mouseover" end="arrowRight.mouseout"/>
                  </use>
                  <path fill="none" stroke="white" stroke-width="1.5" d="M0,-3.0v7 M-2.5,-0.5L0,-3.0L2.5,-0.5"/>
                </g>
                <g id="arrowDown" xlink:href="#dirArrow" transform="rotate(180) translate(-30 -48)" onmousedown="handlePan(0,1)">
                  <use xlink:href="#rim" fill="#404040">
                        <set attributeName="fill" to="#808080" begin="arrowDown.mouseover" end="arrowDown.mouseout"/>
                  </use>
                  <path fill="none" stroke="white" stroke-width="1.5" d="M0,-3.0v7 M-2.5,-0.5L0,-3.0L2.5,-0.5"/>
                </g>
                <g id="arrowLeft" xlink:href="#dirArrow" transform="rotate(270) translate(-36 17)" onmousedown="handlePan(-1,0)">
                  <use xlink:href="#rim" fill="#404040">
                        <set attributeName="fill" to="#808080" begin="arrowLeft.mouseover" end="arrowLeft.mouseout"/>
                  </use>
                  <path fill="none" stroke="white" stroke-width="1.5" d="M0,-3.0v7 M-2.5,-0.5L0,-3.0L2.5,-0.5"/>
                </g>
        </g>
        <svg viewBox="0 0 15 15" width="100%" height="30px" preserveAspectRatio="xMaxYMin meet">
         <g id="arrow_out" transform="scale(0.3 0.3)">
          <a xlink:href="RenderParameters_8hpp__incl_org.svg" target="_base">
           <rect id="button" ry="5" rx="5" y="6" x="6" height="38" width="38"
                fill="#f2f5e9" fill-opacity="0.5" stroke="#606060" stroke-width="1.0"/>
           <path id="arrow"
             d="M 11.500037,31.436501 C 11.940474,20.09759 22.043105,11.32322 32.158766,21.979434 L 37.068811,17.246167 C 37.068811,17.246167 37.088388,32 37.088388,32 L 22.160133,31.978069 C 22.160133,31.978069 26.997745,27.140456 26.997745,27.140456 C 18.528582,18.264221 13.291696,25.230495 11.500037,31.436501 z"
             style="fill:#404040;"/>
          </a>
         </g>
        </svg>
</svg>
