<?xml version="1.0" encoding="UTF-8" standalone="no"?>
<!DOCTYPE svg PUBLIC "-//W3C//DTD SVG 1.1//EN"
 "http://www.w3.org/Graphics/SVG/1.1/DTD/svg11.dtd">
<!-- Generated by graphviz version 2.40.1 (20161225.0304)
 -->
<!-- Title: src/Engine/Renderer/Renderer.cpp Pages: 1 -->
<svg width="4634pt" height="352pt"
 viewBox="0.00 0.00 4633.50 352.00" xmlns="http://www.w3.org/2000/svg" xmlns:xlink="http://www.w3.org/1999/xlink">
<g id="graph0" class="graph" transform="scale(1 1) rotate(0) translate(4 348)">
<title>src/Engine/Renderer/Renderer.cpp</title>
<polygon fill="#ffffff" stroke="transparent" points="-4,4 -4,-348 4629.5,-348 4629.5,4 -4,4"/>
<!-- Node0 -->
<g id="node1" class="node">
<title>Node0</title>
<polygon fill="#bfbfbf" stroke="#000000" points="2941,-313.5 2941,-343.5 3054,-343.5 3054,-313.5 2941,-313.5"/>
<text text-anchor="start" x="2949" y="-331.5" font-family="Helvetica,sans-Serif" font-size="10.00" fill="#000000">src/Engine/Renderer</text>
<text text-anchor="middle" x="2997.5" y="-320.5" font-family="Helvetica,sans-Serif" font-size="10.00" fill="#000000">/Renderer.cpp</text>
</g>
<!-- Node1 -->
<g id="node2" class="node">
<title>Node1</title>
<g id="a_node2"><a xlink:href="Renderer_8hpp.html" target="_top" xlink:title="Engine/Renderer/Renderer.hpp">
<polygon fill="#ffffff" stroke="#000000" points="648,-252 648,-271 811,-271 811,-252 648,-252"/>
<text text-anchor="middle" x="729.5" y="-259" font-family="Helvetica,sans-Serif" font-size="10.00" fill="#000000">Engine/Renderer/Renderer.hpp</text>
</a>
</g>
</g>
<!-- Node0&#45;&gt;Node1 -->
<g id="edge1" class="edge">
<title>Node0&#45;&gt;Node1</title>
<path fill="none" stroke="#191970" d="M2940.8166,-326.9984C2717.6946,-321.0641 1878.3712,-298.519 1187.5,-277 1060.6483,-273.0489 914.0511,-268.0034 821.5708,-264.7616"/>
<polygon fill="#191970" stroke="#191970" points="821.519,-261.2577 811.4023,-264.4048 821.2734,-268.2534 821.519,-261.2577"/>
</g>
<!-- Node46 -->
<g id="node17" class="node">
<title>Node46</title>
<g id="a_node17"><a xlink:href="FileData_8hpp.html" target="_top" xlink:title="Core/Asset/FileData.hpp">
<polygon fill="#ffffff" stroke="#000000" points="4090,-252 4090,-271 4223,-271 4223,-252 4090,-252"/>
<text text-anchor="middle" x="4156.5" y="-259" font-family="Helvetica,sans-Serif" font-size="10.00" fill="#000000">Core/Asset/FileData.hpp</text>
</a>
</g>
</g>
<!-- Node0&#45;&gt;Node46 -->
<g id="edge27" class="edge">
<title>Node0&#45;&gt;Node46</title>
<path fill="none" stroke="#191970" d="M3054.181,-326.8517C3246.7194,-321.0867 3874.7939,-300.8763 4075.5,-277 4084.3837,-275.9432 4093.7562,-274.4789 4102.8498,-272.8689"/>
<polygon fill="#191970" stroke="#191970" points="4103.7587,-276.2603 4112.9573,-271.0033 4102.4881,-269.3766 4103.7587,-276.2603"/>
</g>
<!-- Node38 -->
<g id="node20" class="node">
<title>Node38</title>
<g id="a_node20"><a xlink:href="Log_8hpp.html" target="_top" xlink:title="Core/Utils/Log.hpp">
<polygon fill="#ffffff" stroke="#000000" points="4213.5,-118 4213.5,-137 4319.5,-137 4319.5,-118 4213.5,-118"/>
<text text-anchor="middle" x="4266.5" y="-125" font-family="Helvetica,sans-Serif" font-size="10.00" fill="#000000">Core/Utils/Log.hpp</text>
</a>
</g>
</g>
<!-- Node0&#45;&gt;Node38 -->
<g id="edge48" class="edge">
<title>Node0&#45;&gt;Node38</title>
<path fill="none" stroke="#191970" d="M3054.087,-327.8304C3281.1241,-324.9139 4119.1777,-311.8648 4232.5,-277 4286.489,-260.3897 4313.0348,-259.3597 4340.5,-210 4347.1991,-197.9605 4346.8794,-191.2119 4340.5,-179 4331.9176,-162.571 4315.4405,-150.3213 4300.2091,-141.9"/>
<polygon fill="#191970" stroke="#191970" points="4301.4619,-138.6086 4290.9681,-137.1482 4298.2607,-144.8338 4301.4619,-138.6086"/>
</g>
<!-- Node72 -->
<g id="node24" class="node">
<title>Node72</title>
<g id="a_node24"><a xlink:href="MeshPrimitives_8hpp.html" target="_top" xlink:title="Core/Geometry/MeshPrimitives.hpp">
<polygon fill="#ffffff" stroke="#000000" points="321.5,-185 321.5,-204 511.5,-204 511.5,-185 321.5,-185"/>
<text text-anchor="middle" x="416.5" y="-192" font-family="Helvetica,sans-Serif" font-size="10.00" fill="#000000">Core/Geometry/MeshPrimitives.hpp</text>
</a>
</g>
</g>
<!-- Node0&#45;&gt;Node72 -->
<g id="edge39" class="edge">
<title>Node0&#45;&gt;Node72</title>
<path fill="none" stroke="#191970" d="M2940.7771,-328.3923C2603.7009,-327.6018 870.8032,-321.3915 638.5,-277 565.9657,-263.1392 485.9389,-228.1206 444.6339,-208.4538"/>
<polygon fill="#191970" stroke="#191970" points="445.9983,-205.2261 435.4702,-204.0386 442.9598,-211.5324 445.9983,-205.2261"/>
</g>
<!-- Node78 -->
<g id="node27" class="node">
<title>Node78</title>
<g id="a_node27"><a xlink:href="Resources_8hpp.html" target="_top" xlink:title="Core/Resources/Resources.hpp">
<polygon fill="#ffffff" stroke="#000000" points="0,-56.5 0,-75.5 165,-75.5 165,-56.5 0,-56.5"/>
<text text-anchor="middle" x="82.5" y="-63.5" font-family="Helvetica,sans-Serif" font-size="10.00" fill="#000000">Core/Resources/Resources.hpp</text>
</a>
</g>
</g>
<!-- Node0&#45;&gt;Node78 -->
<g id="edge46" class="edge">
<title>Node0&#45;&gt;Node78</title>
<path fill="none" stroke="#191970" d="M2940.7968,-327.8265C2594.9716,-323.6513 776.397,-300.7038 529.5,-277 354.8684,-260.2342 276.998,-320.207 140.5,-210 101.6532,-178.6355 88.6567,-117.259 84.4401,-85.7296"/>
<polygon fill="#191970" stroke="#191970" points="87.8905,-85.1005 83.2523,-75.5748 80.9379,-85.9138 87.8905,-85.1005"/>
</g>
<!-- Node79 -->
<g id="node28" class="node">
<title>Node79</title>
<g id="a_node28"><a xlink:href="LightManager_8hpp.html" target="_top" xlink:title="Engine/Managers/LightManager\l/LightManager.hpp">
<polygon fill="#ffffff" stroke="#000000" points="2025,-246.5 2025,-276.5 2194,-276.5 2194,-246.5 2025,-246.5"/>
<text text-anchor="start" x="2033" y="-264.5" font-family="Helvetica,sans-Serif" font-size="10.00" fill="#000000">Engine/Managers/LightManager</text>
<text text-anchor="middle" x="2109.5" y="-253.5" font-family="Helvetica,sans-Serif" font-size="10.00" fill="#000000">/LightManager.hpp</text>
</a>
</g>
</g>
<!-- Node0&#45;&gt;Node79 -->
<g id="edge49" class="edge">
<title>Node0&#45;&gt;Node79</title>
<path fill="none" stroke="#191970" d="M2940.9376,-325.7678C2814.2563,-319.4109 2498.1656,-302.2256 2234.5,-277 2224.7043,-276.0628 2214.49,-274.9762 2204.307,-273.8216"/>
<polygon fill="#191970" stroke="#191970" points="2204.4869,-270.3192 2194.1511,-272.6474 2203.6829,-277.2728 2204.4869,-270.3192"/>
</g>
<!-- Node86 -->
<g id="node31" class="node">
<title>Node86</title>
<g id="a_node31"><a xlink:href="RadiumEngine_8hpp.html" target="_top" xlink:title="Engine/RadiumEngine.hpp">
<polygon fill="#ffffff" stroke="#000000" points="1787.5,-185 1787.5,-204 1931.5,-204 1931.5,-185 1787.5,-185"/>
<text text-anchor="middle" x="1859.5" y="-192" font-family="Helvetica,sans-Serif" font-size="10.00" fill="#000000">Engine/RadiumEngine.hpp</text>
</a>
</g>
</g>
<!-- Node0&#45;&gt;Node86 -->
<g id="edge58" class="edge">
<title>Node0&#45;&gt;Node86</title>
<path fill="none" stroke="#191970" d="M2940.9392,-326.9568C2745.326,-321.4235 2104.5689,-301.5956 2015.5,-277 1964.0691,-262.7978 1910.4189,-229.7389 1881.3703,-210.0516"/>
<polygon fill="#191970" stroke="#191970" points="1883.0575,-206.9637 1872.8375,-204.1704 1879.0849,-212.7273 1883.0575,-206.9637"/>
</g>
<!-- Node88 -->
<g id="node33" class="node">
<title>Node88</title>
<g id="a_node33"><a xlink:href="ViewingParameters_8hpp.html" target="_top" xlink:title="Engine/Renderer/Camera\l/ViewingParameters.hpp">
<polygon fill="#ffffff" stroke="#000000" points="3581,-246.5 3581,-276.5 3718,-276.5 3718,-246.5 3581,-246.5"/>
<text text-anchor="start" x="3589" y="-264.5" font-family="Helvetica,sans-Serif" font-size="10.00" fill="#000000">Engine/Renderer/Camera</text>
<text text-anchor="middle" x="3649.5" y="-253.5" font-family="Helvetica,sans-Serif" font-size="10.00" fill="#000000">/ViewingParameters.hpp</text>
</a>
</g>
</g>
<!-- Node0&#45;&gt;Node88 -->
<g id="edge67" class="edge">
<title>Node0&#45;&gt;Node88</title>
<path fill="none" stroke="#191970" d="M3054.2202,-322.6714C3170.774,-310.6942 3437.4273,-283.2927 3570.6799,-269.5996"/>
<polygon fill="#191970" stroke="#191970" points="3571.2279,-273.0618 3580.8177,-268.5578 3570.5123,-266.0985 3571.2279,-273.0618"/>
</g>
<!-- Node89 -->
<g id="node34" class="node">
<title>Node89</title>
<g id="a_node34"><a xlink:href="Material_8hpp.html" target="_top" xlink:title="Engine/Renderer/Material\l/Material.hpp">
<polygon fill="#ffffff" stroke="#000000" points="3287,-246.5 3287,-276.5 3426,-276.5 3426,-246.5 3287,-246.5"/>
<text text-anchor="start" x="3295" y="-264.5" font-family="Helvetica,sans-Serif" font-size="10.00" fill="#000000">Engine/Renderer/Material</text>
<text text-anchor="middle" x="3356.5" y="-253.5" font-family="Helvetica,sans-Serif" font-size="10.00" fill="#000000">/Material.hpp</text>
</a>
</g>
</g>
<!-- Node0&#45;&gt;Node89 -->
<g id="edge69" class="edge">
<title>Node0&#45;&gt;Node89</title>
<path fill="none" stroke="#191970" d="M3054.3846,-317.8837C3114.375,-306.6877 3209.3659,-288.9596 3276.8042,-276.3736"/>
<polygon fill="#191970" stroke="#191970" points="3277.7756,-279.7528 3286.9637,-274.4775 3276.4913,-272.8716 3277.7756,-279.7528"/>
</g>
<!-- Node96 -->
<g id="node37" class="node">
<title>Node96</title>
<g id="a_node37"><a xlink:href="Mesh_8hpp.html" target="_top" xlink:title="Engine/Renderer/Mesh\l/Mesh.hpp">
<polygon fill="#ffffff" stroke="#ff0000" points="2244,-246.5 2244,-276.5 2369,-276.5 2369,-246.5 2244,-246.5"/>
<text text-anchor="start" x="2252" y="-264.5" font-family="Helvetica,sans-Serif" font-size="10.00" fill="#000000">Engine/Renderer/Mesh</text>
<text text-anchor="middle" x="2306.5" y="-253.5" font-family="Helvetica,sans-Serif" font-size="10.00" fill="#000000">/Mesh.hpp</text>
</a>
</g>
</g>
<!-- Node0&#45;&gt;Node96 -->
<g id="edge80" class="edge">
<title>Node0&#45;&gt;Node96</title>
<path fill="none" stroke="#191970" d="M2940.9526,-323.0171C2816.1918,-310.9202 2517.4683,-281.9557 2379.1103,-268.5404"/>
<polygon fill="#191970" stroke="#191970" points="2379.3207,-265.0444 2369.0296,-267.5629 2378.6451,-272.0118 2379.3207,-265.0444"/>
</g>
<!-- Node97 -->
<g id="node38" class="node">
<title>Node97</title>
<g id="a_node38"><a xlink:href="OpenGL_8hpp.html" target="_top" xlink:title="Engine/Renderer/OpenGL\l/OpenGL.hpp">
<polygon fill="#ffffff" stroke="#ff0000" points="3377,-112.5 3377,-142.5 3514,-142.5 3514,-112.5 3377,-112.5"/>
<text text-anchor="start" x="3385" y="-130.5" font-family="Helvetica,sans-Serif" font-size="10.00" fill="#000000">Engine/Renderer/OpenGL</text>
<text text-anchor="middle" x="3445.5" y="-119.5" font-family="Helvetica,sans-Serif" font-size="10.00" fill="#000000">/OpenGL.hpp</text>
</a>
</g>
</g>
<!-- Node0&#45;&gt;Node97 -->
<g id="edge99" class="edge">
<title>Node0&#45;&gt;Node97</title>
<path fill="none" stroke="#191970" d="M3054.0045,-326.45C3209.5167,-320.5432 3641.5636,-302.2808 3781.5,-277 3883.3393,-258.6018 3942.742,-293.0402 4004.5,-210 4012.7221,-198.9445 4013.7847,-189.1794 4004.5,-179 3972.7918,-144.2363 3670.8212,-132.6148 3524.3802,-129.0029"/>
<polygon fill="#191970" stroke="#191970" points="3524.1923,-125.4975 3514.1111,-128.7565 3524.0243,-132.4955 3524.1923,-125.4975"/>
</g>
<!-- Node92 -->
<g id="node39" class="node">
<title>Node92</title>
<g id="a_node39"><a xlink:href="ShaderProgram_8hpp.html" target="_top" xlink:title="Engine/Renderer/RenderTechnique\l/ShaderProgram.hpp">
<polygon fill="#ffffff" stroke="#ff0000" points="2539.5,-179.5 2539.5,-209.5 2721.5,-209.5 2721.5,-179.5 2539.5,-179.5"/>
<text text-anchor="start" x="2547.5" y="-197.5" font-family="Helvetica,sans-Serif" font-size="10.00" fill="#000000">Engine/Renderer/RenderTechnique</text>
<text text-anchor="middle" x="2630.5" y="-186.5" font-family="Helvetica,sans-Serif" font-size="10.00" fill="#000000">/ShaderProgram.hpp</text>
</a>
</g>
</g>
<!-- Node0&#45;&gt;Node92 -->
<g id="edge116" class="edge">
<title>Node0&#45;&gt;Node92</title>
<path fill="none" stroke="#191970" d="M2956.1138,-313.389C2888.4779,-288.6936 2754.4711,-239.7646 2681.2222,-213.0198"/>
<polygon fill="#191970" stroke="#191970" points="2682.3288,-209.6979 2671.7349,-209.5558 2679.9279,-216.2733 2682.3288,-209.6979"/>
</g>
<!-- Node106 -->
<g id="node42" class="node">
<title>Node106</title>
<g id="a_node42"><a xlink:href="RenderObject_8hpp.html" target="_top" xlink:title="Engine/Renderer/RenderObject\l/RenderObject.hpp">
<polygon fill="#ffffff" stroke="#ff0000" points="2739.5,-179.5 2739.5,-209.5 2903.5,-209.5 2903.5,-179.5 2739.5,-179.5"/>
<text text-anchor="start" x="2747.5" y="-197.5" font-family="Helvetica,sans-Serif" font-size="10.00" fill="#000000">Engine/Renderer/RenderObject</text>
<text text-anchor="middle" x="2821.5" y="-186.5" font-family="Helvetica,sans-Serif" font-size="10.00" fill="#000000">/RenderObject.hpp</text>
</a>
</g>
</g>
<!-- Node0&#45;&gt;Node106 -->
<g id="edge100" class="edge">
<title>Node0&#45;&gt;Node106</title>
<path fill="none" stroke="#191970" d="M2973.8184,-313.2806C2958.6182,-303.3107 2938.5966,-289.8004 2921.5,-277 2895.2142,-257.3194 2866.4094,-233.2751 2846.4945,-216.2332"/>
<polygon fill="#191970" stroke="#191970" points="2848.6639,-213.4827 2838.7992,-209.6178 2844.1006,-218.7908 2848.6639,-213.4827"/>
</g>
<!-- Node111 -->
<g id="node43" class="node">
<title>Node111</title>
<g id="a_node43"><a xlink:href="RenderObjectManager_8hpp.html" target="_top" xlink:title="Engine/Renderer/RenderObject\l/RenderObjectManager.hpp">
<polygon fill="#ffffff" stroke="#ff0000" points="971.5,-179.5 971.5,-209.5 1135.5,-209.5 1135.5,-179.5 971.5,-179.5"/>
<text text-anchor="start" x="979.5" y="-197.5" font-family="Helvetica,sans-Serif" font-size="10.00" fill="#000000">Engine/Renderer/RenderObject</text>
<text text-anchor="middle" x="1053.5" y="-186.5" font-family="Helvetica,sans-Serif" font-size="10.00" fill="#000000">/RenderObjectManager.hpp</text>
</a>
</g>
</g>
<!-- Node0&#45;&gt;Node111 -->
<g id="edge106" class="edge">
<title>Node0&#45;&gt;Node111</title>
<path fill="none" stroke="#191970" d="M2940.6876,-328.0288C2759.1999,-326.143 2177.2112,-317.1508 1697.5,-277 1500.0966,-260.4778 1270.2286,-227.7608 1145.4983,-208.8704"/>
<polygon fill="#191970" stroke="#191970" points="1146.011,-205.4082 1135.5988,-207.3667 1144.9597,-212.3288 1146.011,-205.4082"/>
</g>
<!-- Node116 -->
<g id="node44" class="node">
<title>Node116</title>
<g id="a_node44"><a xlink:href="ShaderConfigFactory_8hpp.html" target="_top" xlink:title="Engine/Renderer/RenderTechnique\l/ShaderConfigFactory.hpp">
<polygon fill="#ffffff" stroke="#ff0000" points="3813.5,-179.5 3813.5,-209.5 3995.5,-209.5 3995.5,-179.5 3813.5,-179.5"/>
<text text-anchor="start" x="3821.5" y="-197.5" font-family="Helvetica,sans-Serif" font-size="10.00" fill="#000000">Engine/Renderer/RenderTechnique</text>
<text text-anchor="middle" x="3904.5" y="-186.5" font-family="Helvetica,sans-Serif" font-size="10.00" fill="#000000">/ShaderConfigFactory.hpp</text>
</a>
</g>
</g>
<!-- Node0&#45;&gt;Node116 -->
<g id="edge113" class="edge">
<title>Node0&#45;&gt;Node116</title>
<path fill="none" stroke="#191970" d="M3054.0411,-327.1696C3202.4385,-323.2545 3600.3518,-309.9132 3727.5,-277 3780.2258,-263.3516 3836.4776,-234.3457 3871.0679,-214.6309"/>
<polygon fill="#191970" stroke="#191970" points="3872.8947,-217.6177 3879.8042,-209.5859 3869.3941,-211.5559 3872.8947,-217.6177"/>
</g>
<!-- Node117 -->
<g id="node45" class="node">
<title>Node117</title>
<g id="a_node45"><a xlink:href="ShaderProgramManager_8hpp.html" target="_top" xlink:title="Engine/Renderer/RenderTechnique\l/ShaderProgramManager.hpp">
<polygon fill="#ffffff" stroke="#000000" points="1305.5,-179.5 1305.5,-209.5 1487.5,-209.5 1487.5,-179.5 1305.5,-179.5"/>
<text text-anchor="start" x="1313.5" y="-197.5" font-family="Helvetica,sans-Serif" font-size="10.00" fill="#000000">Engine/Renderer/RenderTechnique</text>
<text text-anchor="middle" x="1396.5" y="-186.5" font-family="Helvetica,sans-Serif" font-size="10.00" fill="#000000">/ShaderProgramManager.hpp</text>
</a>
</g>
</g>
<!-- Node0&#45;&gt;Node117 -->
<g id="edge117" class="edge">
<title>Node0&#45;&gt;Node117</title>
<path fill="none" stroke="#191970" d="M2940.9175,-327.7683C2782.5396,-325.2839 2321.439,-315.0659 1940.5,-277 1780.5791,-261.0197 1595.8914,-230.4098 1488.0666,-211.3025"/>
<polygon fill="#191970" stroke="#191970" points="1488.6544,-207.8522 1478.1961,-209.5474 1487.4289,-214.7441 1488.6544,-207.8522"/>
</g>
<!-- Node118 -->
<g id="node46" class="node">
<title>Node118</title>
<g id="a_node46"><a xlink:href="Texture_8hpp.html" target="_top" xlink:title="Engine/Renderer/Texture\l/Texture.hpp">
<polygon fill="#ffffff" stroke="#000000" points="3112,-179.5 3112,-209.5 3247,-209.5 3247,-179.5 3112,-179.5"/>
<text text-anchor="start" x="3120" y="-197.5" font-family="Helvetica,sans-Serif" font-size="10.00" fill="#000000">Engine/Renderer/Texture</text>
<text text-anchor="middle" x="3179.5" y="-186.5" font-family="Helvetica,sans-Serif" font-size="10.00" fill="#000000">/Texture.hpp</text>
</a>
</g>
</g>
<!-- Node0&#45;&gt;Node118 -->
<g id="edge125" class="edge">
<title>Node0&#45;&gt;Node118</title>
<path fill="none" stroke="#191970" d="M3021.0678,-313.4063C3036.4757,-303.3757 3056.9277,-289.7513 3074.5,-277 3101.9971,-257.0467 3132.4211,-232.9029 3153.4102,-215.9048"/>
<polygon fill="#191970" stroke="#191970" points="3155.6886,-218.5633 3161.2411,-209.54 3151.2735,-213.1313 3155.6886,-218.5633"/>
</g>
<!-- Node119 -->
<g id="node47" class="node">
<title>Node119</title>
<g id="a_node47"><a xlink:href="TextureManager_8hpp.html" target="_top" xlink:title="Engine/Renderer/Texture\l/TextureManager.hpp">
<polygon fill="#ffffff" stroke="#000000" points="2930,-246.5 2930,-276.5 3065,-276.5 3065,-246.5 2930,-246.5"/>
<text text-anchor="start" x="2938" y="-264.5" font-family="Helvetica,sans-Serif" font-size="10.00" fill="#000000">Engine/Renderer/Texture</text>
<text text-anchor="middle" x="2997.5" y="-253.5" font-family="Helvetica,sans-Serif" font-size="10.00" fill="#000000">/TextureManager.hpp</text>
</a>
</g>
</g>
<!-- Node0&#45;&gt;Node119 -->
<g id="edge131" class="edge">
<title>Node0&#45;&gt;Node119</title>
<path fill="none" stroke="#191970" d="M2997.5,-313.2967C2997.5,-305.5013 2997.5,-295.7991 2997.5,-286.9064"/>
<polygon fill="#191970" stroke="#191970" points="3001.0001,-286.6431 2997.5,-276.6432 2994.0001,-286.6432 3001.0001,-286.6431"/>
</g>
<!-- Node120 -->
<g id="node48" class="node">
<title>Node120</title>
<polygon fill="#ffffff" stroke="#bfbfbf" points="4334,-252 4334,-271 4465,-271 4465,-252 4334,-252"/>
<text text-anchor="middle" x="4399.5" y="-259" font-family="Helvetica,sans-Serif" font-size="10.00" fill="#000000">globjects/Framebuffer.h</text>
</g>
<!-- Node0&#45;&gt;Node120 -->
<g id="edge138" class="edge">
<title>Node0&#45;&gt;Node120</title>
<path fill="none" stroke="#191970" d="M3054.0603,-327.4462C3273.4847,-323.1795 4068.6593,-306.0146 4319.5,-277 4328.2812,-275.9843 4337.5418,-274.541 4346.5246,-272.9393"/>
<polygon fill="#191970" stroke="#191970" points="4347.3189,-276.3517 4356.5081,-271.0781 4346.036,-269.4702 4347.3189,-276.3517"/>
</g>
<!-- Node21 -->
<g id="node49" class="node">
<title>Node21</title>
<polygon fill="#ffffff" stroke="#bfbfbf" points="4483.5,-252 4483.5,-271 4547.5,-271 4547.5,-252 4483.5,-252"/>
<text text-anchor="middle" x="4515.5" y="-259" font-family="Helvetica,sans-Serif" font-size="10.00" fill="#000000">algorithm</text>
</g>
<!-- Node0&#45;&gt;Node21 -->
<g id="edge139" class="edge">
<title>Node0&#45;&gt;Node21</title>
<path fill="none" stroke="#191970" d="M3054.3614,-327.613C3308.4536,-323.5009 4333.627,-305.2848 4474.5,-277 4477.7828,-276.3409 4481.1483,-275.4504 4484.4711,-274.4277"/>
<polygon fill="#191970" stroke="#191970" points="4485.8832,-277.6426 4494.186,-271.0614 4483.5913,-271.0284 4485.8832,-277.6426"/>
</g>
<!-- Node6 -->
<g id="node50" class="node">
<title>Node6</title>
<polygon fill="#ffffff" stroke="#bfbfbf" points="4565.5,-252 4565.5,-271 4625.5,-271 4625.5,-252 4565.5,-252"/>
<text text-anchor="middle" x="4595.5" y="-259" font-family="Helvetica,sans-Serif" font-size="10.00" fill="#000000">iostream</text>
</g>
<!-- Node0&#45;&gt;Node6 -->
<g id="edge140" class="edge">
<title>Node0&#45;&gt;Node6</title>
<path fill="none" stroke="#191970" d="M3054.4232,-327.78C3317.3071,-324.2983 4407.4638,-308.0901 4556.5,-277 4559.5402,-276.3658 4562.6492,-275.5131 4565.7198,-274.5322"/>
<polygon fill="#191970" stroke="#191970" points="4567.0568,-277.7705 4575.2662,-271.0729 4564.672,-271.1892 4567.0568,-277.7705"/>
</g>
<!-- Node2 -->
<g id="node3" class="node">
<title>Node2</title>
<g id="a_node3"><a xlink:href="RaEngine_8hpp.html" target="_top" xlink:title="Engine/RaEngine.hpp">
<polygon fill="#ffffff" stroke="#ff0000" points="2162,-118 2162,-137 2281,-137 2281,-118 2162,-118"/>
<text text-anchor="middle" x="2221.5" y="-125" font-family="Helvetica,sans-Serif" font-size="10.00" fill="#000000">Engine/RaEngine.hpp</text>
</a>
</g>
</g>
<!-- Node1&#45;&gt;Node2 -->
<g id="edge2" class="edge">
<title>Node1&#45;&gt;Node2</title>
<path fill="none" stroke="#191970" d="M811.2603,-259.6732C1065.3947,-253.7652 1831.0778,-234.1502 1940.5,-210 1975.7209,-202.2265 1981.2451,-190.2933 2015.5,-179 2065.3099,-162.5784 2123.3796,-148.5035 2165.1449,-139.2387"/>
<polygon fill="#191970" stroke="#191970" points="2166.1128,-142.6096 2175.1295,-137.0465 2164.6115,-135.7725 2166.1128,-142.6096"/>
</g>
<!-- Node9 -->
<g id="node4" class="node">
<title>Node9</title>
<polygon fill="#ffffff" stroke="#bfbfbf" points="955.5,-118 955.5,-137 997.5,-137 997.5,-118 955.5,-118"/>
<text text-anchor="middle" x="976.5" y="-125" font-family="Helvetica,sans-Serif" font-size="10.00" fill="#000000">array</text>
</g>
<!-- Node1&#45;&gt;Node9 -->
<g id="edge3" class="edge">
<title>Node1&#45;&gt;Node9</title>
<path fill="none" stroke="#191970" d="M723.5301,-251.8537C713.9735,-235.0446 698.0055,-200.1624 715.5,-179 742.6025,-146.2153 861.8044,-151.4178 903.5,-143 917.329,-140.2081 932.6012,-136.9869 945.5868,-134.2068"/>
<polygon fill="#191970" stroke="#191970" points="946.3986,-137.6123 955.4395,-132.0884 944.9271,-130.7687 946.3986,-137.6123"/>
</g>
<!-- Node10 -->
<g id="node5" class="node">
<title>Node10</title>
<polygon fill="#ffffff" stroke="#bfbfbf" points="221.5,-118 221.5,-137 271.5,-137 271.5,-118 221.5,-118"/>
<text text-anchor="middle" x="246.5" y="-125" font-family="Helvetica,sans-Serif" font-size="10.00" fill="#000000">chrono</text>
</g>
<!-- Node1&#45;&gt;Node10 -->
<g id="edge4" class="edge">
<title>Node1&#45;&gt;Node10</title>
<path fill="none" stroke="#191970" d="M647.8609,-258.6655C543.1243,-253.8012 368.3014,-241.174 312.5,-210 286.1988,-195.3066 266.4783,-165.5065 255.7211,-146.0332"/>
<polygon fill="#191970" stroke="#191970" points="258.808,-144.3834 251.0479,-137.1702 252.616,-147.6483 258.808,-144.3834"/>
</g>
<!-- Node11 -->
<g id="node6" class="node">
<title>Node11</title>
<polygon fill="#ffffff" stroke="#bfbfbf" points="1697.5,-118 1697.5,-137 1755.5,-137 1755.5,-118 1697.5,-118"/>
<text text-anchor="middle" x="1726.5" y="-125" font-family="Helvetica,sans-Serif" font-size="10.00" fill="#000000">memory</text>
</g>
<!-- Node1&#45;&gt;Node11 -->
<g id="edge5" class="edge">
<title>Node1&#45;&gt;Node11</title>
<path fill="none" stroke="#191970" d="M811.0712,-259.9574C981.2774,-256.0975 1369.0257,-243.7822 1496.5,-210 1527.051,-201.9036 1531.1017,-190.6041 1560.5,-179 1602.9778,-162.2331 1653.2483,-147.2916 1687.2515,-137.8773"/>
<polygon fill="#191970" stroke="#191970" points="1688.5352,-141.1546 1697.2553,-135.1371 1686.6859,-134.4033 1688.5352,-141.1546"/>
</g>
<!-- Node12 -->
<g id="node7" class="node">
<title>Node12</title>
<polygon fill="#ffffff" stroke="#bfbfbf" points="1081.5,-118 1081.5,-137 1129.5,-137 1129.5,-118 1081.5,-118"/>
<text text-anchor="middle" x="1105.5" y="-125" font-family="Helvetica,sans-Serif" font-size="10.00" fill="#000000">mutex</text>
</g>
<!-- Node1&#45;&gt;Node12 -->
<g id="edge6" class="edge">
<title>Node1&#45;&gt;Node12</title>
<path fill="none" stroke="#191970" d="M728.5488,-251.9121C727.4109,-234.5528 727.7982,-197.9611 748.5,-179 791.1889,-139.9005 949.2353,-151.4775 1006.5,-143 1027.9901,-139.8186 1052.0711,-136.0528 1071.1018,-133.0298"/>
<polygon fill="#191970" stroke="#191970" points="1071.782,-136.4656 1081.1064,-131.4351 1070.6801,-129.5529 1071.782,-136.4656"/>
</g>
<!-- Node13 -->
<g id="node8" class="node">
<title>Node13</title>
<polygon fill="#ffffff" stroke="#bfbfbf" points="1195,-118 1195,-137 1242,-137 1242,-118 1195,-118"/>
<text text-anchor="middle" x="1218.5" y="-125" font-family="Helvetica,sans-Serif" font-size="10.00" fill="#000000">vector</text>
</g>
<!-- Node1&#45;&gt;Node13 -->
<g id="edge7" class="edge">
<title>Node1&#45;&gt;Node13</title>
<path fill="none" stroke="#191970" d="M811.3858,-258.1087C915.4368,-252.6473 1088.279,-239.381 1144.5,-210 1172.6364,-195.296 1195.2443,-165.2742 1207.7619,-145.7885"/>
<polygon fill="#191970" stroke="#191970" points="1210.8001,-147.5299 1213.0763,-137.1825 1204.8442,-143.852 1210.8001,-147.5299"/>
</g>
<!-- Node14 -->
<g id="node9" class="node">
<title>Node14</title>
<g id="a_node9"><a xlink:href="Types_8hpp.html" target="_top" xlink:title="Core/Types.hpp">
<polygon fill="#ffffff" stroke="#ff0000" points="2260,-56.5 2260,-75.5 2351,-75.5 2351,-56.5 2260,-56.5"/>
<text text-anchor="middle" x="2305.5" y="-63.5" font-family="Helvetica,sans-Serif" font-size="10.00" fill="#000000">Core/Types.hpp</text>
</a>
</g>
</g>
<!-- Node1&#45;&gt;Node14 -->
<g id="edge8" class="edge">
<title>Node1&#45;&gt;Node14</title>
<path fill="none" stroke="#191970" d="M721.4098,-251.768C708.6072,-235.1343 686.8521,-200.9135 704.5,-179 751.5789,-120.5418 797.7669,-165.0938 869.5,-143 904.7571,-132.1408 910.4058,-119.6287 946.5,-112 1075.2288,-84.7925 2010.3738,-70.087 2249.7876,-66.7422"/>
<polygon fill="#191970" stroke="#191970" points="2250.0484,-70.2391 2259.9989,-66.6006 2249.9512,-63.2397 2250.0484,-70.2391"/>
</g>
<!-- Node19 -->
<g id="node11" class="node">
<title>Node19</title>
<g id="a_node11"><a xlink:href="Color_8hpp.html" target="_top" xlink:title="Core/Utils/Color.hpp">
<polygon fill="#ffffff" stroke="#ff0000" points="578,-56.5 578,-75.5 691,-75.5 691,-56.5 578,-56.5"/>
<text text-anchor="middle" x="634.5" y="-63.5" font-family="Helvetica,sans-Serif" font-size="10.00" fill="#000000">Core/Utils/Color.hpp</text>
</a>
</g>
</g>
<!-- Node1&#45;&gt;Node19 -->
<g id="edge10" class="edge">
<title>Node1&#45;&gt;Node19</title>
<path fill="none" stroke="#191970" d="M675.8782,-251.9605C632.706,-243.0599 577.0581,-228.4019 563.5,-210 532.5381,-167.9766 584.8661,-110.3794 615.1975,-82.4798"/>
<polygon fill="#191970" stroke="#191970" points="617.6075,-85.02 622.7268,-75.7441 612.9403,-79.8029 617.6075,-85.02"/>
</g>
<!-- Node25 -->
<g id="node12" class="node">
<title>Node25</title>
<g id="a_node12"><a xlink:href="Timer_8hpp.html" target="_top" xlink:title="Core/Utils/Timer.hpp">
<polygon fill="#ffffff" stroke="#000000" points="149.5,-185 149.5,-204 265.5,-204 265.5,-185 149.5,-185"/>
<text text-anchor="middle" x="207.5" y="-192" font-family="Helvetica,sans-Serif" font-size="10.00" fill="#000000">Core/Utils/Timer.hpp</text>
</a>
</g>
</g>
<!-- Node1&#45;&gt;Node25 -->
<g id="edge11" class="edge">
<title>Node1&#45;&gt;Node25</title>
<path fill="none" stroke="#191970" d="M647.8734,-254.5854C557.4591,-246.3628 407.528,-231.0547 279.5,-210 272.7184,-208.8847 265.6106,-207.5545 258.6124,-206.1487"/>
<polygon fill="#191970" stroke="#191970" points="258.9906,-202.6528 248.4885,-204.0513 257.5705,-209.5073 258.9906,-202.6528"/>
</g>
<!-- Node26 -->
<g id="node13" class="node">
<title>Node26</title>
<g id="a_node13"><a xlink:href="DisplayableObject_8hpp.html" target="_top" xlink:title="Engine/Renderer/Displayable\l/DisplayableObject.hpp">
<polygon fill="#ffffff" stroke="#000000" points="758,-179.5 758,-209.5 915,-209.5 915,-179.5 758,-179.5"/>
<text text-anchor="start" x="766" y="-197.5" font-family="Helvetica,sans-Serif" font-size="10.00" fill="#000000">Engine/Renderer/Displayable</text>
<text text-anchor="middle" x="836.5" y="-186.5" font-family="Helvetica,sans-Serif" font-size="10.00" fill="#000000">/DisplayableObject.hpp</text>
</a>
</g>
</g>
<!-- Node1&#45;&gt;Node26 -->
<g id="edge14" class="edge">
<title>Node1&#45;&gt;Node26</title>
<path fill="none" stroke="#191970" d="M744.8305,-251.9005C760.1646,-242.2988 784.2277,-227.2313 803.8527,-214.9427"/>
<polygon fill="#191970" stroke="#191970" points="805.892,-217.7954 812.51,-209.5218 802.177,-211.8625 805.892,-217.7954"/>
</g>
<!-- Node15 -->
<g id="node10" class="node">
<title>Node15</title>
<g id="a_node10"><a xlink:href="RaCore_8hpp.html" target="_top" xlink:title="Core/RaCore.hpp">
<polygon fill="#ffffff" stroke="#ff0000" points="878.5,-.5 878.5,-19.5 976.5,-19.5 976.5,-.5 878.5,-.5"/>
<text text-anchor="middle" x="927.5" y="-7.5" font-family="Helvetica,sans-Serif" font-size="10.00" fill="#000000">Core/RaCore.hpp</text>
</a>
</g>
</g>
<!-- Node14&#45;&gt;Node15 -->
<g id="edge9" class="edge">
<title>Node14&#45;&gt;Node15</title>
<path fill="none" stroke="#191970" d="M2259.6515,-64.1368C2054.1771,-55.7866 1218.0794,-21.8087 986.9513,-12.416"/>
<polygon fill="#191970" stroke="#191970" points="986.8616,-8.9096 976.7277,-12.0005 986.5773,-15.9038 986.8616,-8.9096"/>
</g>
<!-- Node25&#45;&gt;Node10 -->
<g id="edge13" class="edge">
<title>Node25&#45;&gt;Node10</title>
<path fill="none" stroke="#191970" d="M213.0877,-184.9005C218.9957,-174.751 228.4587,-158.4941 235.8082,-145.8679"/>
<polygon fill="#191970" stroke="#191970" points="238.9167,-147.4849 240.9226,-137.0817 232.867,-143.9634 238.9167,-147.4849"/>
</g>
<!-- Node25&#45;&gt;Node15 -->
<g id="edge12" class="edge">
<title>Node25&#45;&gt;Node15</title>
<path fill="none" stroke="#191970" d="M204.6999,-184.9275C200.3702,-167.9191 194.317,-132.3144 212.5,-112 256.151,-63.2323 704.207,-26.1645 867.9755,-14.1515"/>
<polygon fill="#191970" stroke="#191970" points="868.6247,-17.6136 878.3442,-13.3966 868.1164,-10.6321 868.6247,-17.6136"/>
</g>
<!-- Node26&#45;&gt;Node2 -->
<g id="edge15" class="edge">
<title>Node26&#45;&gt;Node2</title>
<path fill="none" stroke="#191970" d="M915.0321,-183.7602C930.7296,-181.9181 947.1196,-180.2106 962.5,-179 1422.2445,-142.812 1538.9617,-167.0639 1999.5,-143 2050.4,-140.3404 2107.7945,-136.3057 2151.4728,-133.0195"/>
<polygon fill="#191970" stroke="#191970" points="2151.9958,-136.49 2161.7028,-132.2446 2151.467,-129.51 2151.9958,-136.49"/>
</g>
<!-- Node26&#45;&gt;Node9 -->
<g id="edge16" class="edge">
<title>Node26&#45;&gt;Node9</title>
<path fill="none" stroke="#191970" d="M867.9187,-179.4639C891.7264,-168.0702 924.1929,-152.5327 947.4095,-141.4219"/>
<polygon fill="#191970" stroke="#191970" points="948.9228,-144.5779 956.4321,-137.1039 945.9009,-138.2637 948.9228,-144.5779"/>
</g>
<!-- Node26&#45;&gt;Node13 -->
<g id="edge18" class="edge">
<title>Node26&#45;&gt;Node13</title>
<path fill="none" stroke="#191970" d="M915.117,-181.5907C976.116,-171.4541 1062.757,-156.794 1138.5,-143 1153.7318,-140.226 1170.5605,-136.9912 1184.8373,-134.1964"/>
<polygon fill="#191970" stroke="#191970" points="1185.5861,-137.6163 1194.7226,-132.252 1184.2351,-130.7479 1185.5861,-137.6163"/>
</g>
<!-- Node26&#45;&gt;Node19 -->
<g id="edge26" class="edge">
<title>Node26&#45;&gt;Node19</title>
<path fill="none" stroke="#191970" d="M757.8938,-183.2674C728.4671,-175.8292 696.4111,-163.4824 672.5,-143 654.8738,-127.9014 644.6322,-102.6888 639.3122,-85.2481"/>
<polygon fill="#191970" stroke="#191970" points="642.6671,-84.2484 636.6138,-75.5531 635.9234,-86.1255 642.6671,-84.2484"/>
</g>
<!-- Node27 -->
<g id="node14" class="node">
<title>Node27</title>
<polygon fill="#ffffff" stroke="#bfbfbf" points="1952.5,-118 1952.5,-137 1990.5,-137 1990.5,-118 1952.5,-118"/>
<text text-anchor="middle" x="1971.5" y="-125" font-family="Helvetica,sans-Serif" font-size="10.00" fill="#000000">map</text>
</g>
<!-- Node26&#45;&gt;Node27 -->
<g id="edge17" class="edge">
<title>Node26&#45;&gt;Node27</title>
<path fill="none" stroke="#191970" d="M915.0422,-183.8839C930.7389,-182.0316 947.126,-180.2887 962.5,-179 1318.0564,-149.1956 1408.3344,-164.3237 1764.5,-143 1827.9335,-139.2022 1902.1913,-133.2824 1942.2661,-129.9656"/>
<polygon fill="#191970" stroke="#191970" points="1942.7169,-133.4403 1952.3921,-129.1226 1942.1361,-126.4644 1942.7169,-133.4403"/>
</g>
<!-- Node28 -->
<g id="node15" class="node">
<title>Node28</title>
<g id="a_node15"><a xlink:href="VectorArray_8hpp.html" target="_top" xlink:title="Core/Containers/VectorArray.hpp">
<polygon fill="#ffffff" stroke="#ff0000" points="840.5,-56.5 840.5,-75.5 1014.5,-75.5 1014.5,-56.5 840.5,-56.5"/>
<text text-anchor="middle" x="927.5" y="-63.5" font-family="Helvetica,sans-Serif" font-size="10.00" fill="#000000">Core/Containers/VectorArray.hpp</text>
</a>
</g>
</g>
<!-- Node26&#45;&gt;Node28 -->
<g id="edge19" class="edge">
<title>Node26&#45;&gt;Node28</title>
<path fill="none" stroke="#191970" d="M847.2962,-179.2548C864.1524,-155.4524 896.6532,-109.5584 914.6762,-84.1084"/>
<polygon fill="#191970" stroke="#191970" points="917.6824,-85.9194 920.6054,-75.7358 911.9697,-81.8739 917.6824,-85.9194"/>
</g>
<!-- Node31 -->
<g id="node16" class="node">
<title>Node31</title>
<g id="a_node16"><a xlink:href="TriangleMesh_8hpp.html" target="_top" xlink:title="Core/Geometry/TriangleMesh.hpp">
<polygon fill="#ffffff" stroke="#ff0000" points="682,-118 682,-137 861,-137 861,-118 682,-118"/>
<text text-anchor="middle" x="771.5" y="-125" font-family="Helvetica,sans-Serif" font-size="10.00" fill="#000000">Core/Geometry/TriangleMesh.hpp</text>
</a>
</g>
</g>
<!-- Node26&#45;&gt;Node31 -->
<g id="edge21" class="edge">
<title>Node26&#45;&gt;Node31</title>
<path fill="none" stroke="#191970" d="M821.7505,-179.2967C811.6232,-168.8578 798.1788,-154.9997 787.7448,-144.2446"/>
<polygon fill="#191970" stroke="#191970" points="790.245,-141.7953 780.7697,-137.055 785.2208,-146.6695 790.245,-141.7953"/>
</g>
<!-- Node28&#45;&gt;Node15 -->
<g id="edge20" class="edge">
<title>Node28&#45;&gt;Node15</title>
<path fill="none" stroke="#191970" d="M927.5,-56.2455C927.5,-48.9382 927.5,-38.6944 927.5,-29.7046"/>
<polygon fill="#191970" stroke="#191970" points="931.0001,-29.6426 927.5,-19.6427 924.0001,-29.6427 931.0001,-29.6426"/>
</g>
<!-- Node31&#45;&gt;Node14 -->
<g id="edge24" class="edge">
<title>Node31&#45;&gt;Node14</title>
<path fill="none" stroke="#191970" d="M827.2199,-117.9806C842.8009,-115.6501 859.7734,-113.4201 875.5,-112 1149.5963,-87.2498 2020.6285,-70.881 2249.8067,-66.9282"/>
<polygon fill="#191970" stroke="#191970" points="2249.9759,-70.4259 2259.9143,-66.7547 2249.8557,-63.4269 2249.9759,-70.4259"/>
</g>
<!-- Node31&#45;&gt;Node15 -->
<g id="edge23" class="edge">
<title>Node31&#45;&gt;Node15</title>
<path fill="none" stroke="#191970" d="M777.8003,-117.5621C787.7016,-102.5888 808.1962,-74.0763 831.5,-56 849.2826,-42.2064 871.8695,-31.127 890.6664,-23.3007"/>
<polygon fill="#191970" stroke="#191970" points="892.1314,-26.4841 900.105,-19.5075 889.5211,-19.989 892.1314,-26.4841"/>
</g>
<!-- Node31&#45;&gt;Node19 -->
<g id="edge25" class="edge">
<title>Node31&#45;&gt;Node19</title>
<path fill="none" stroke="#191970" d="M750.0938,-117.8906C727.2717,-107.6457 690.9321,-91.3326 665.0943,-79.7339"/>
<polygon fill="#191970" stroke="#191970" points="666.3123,-76.4443 655.7559,-75.5419 663.4455,-82.8303 666.3123,-76.4443"/>
</g>
<!-- Node31&#45;&gt;Node28 -->
<g id="edge22" class="edge">
<title>Node31&#45;&gt;Node28</title>
<path fill="none" stroke="#191970" d="M795.875,-117.8906C822.2056,-107.5103 864.338,-90.9004 893.8229,-79.2766"/>
<polygon fill="#191970" stroke="#191970" points="895.2767,-82.4657 903.2962,-75.5419 892.7093,-75.9534 895.2767,-82.4657"/>
</g>
<!-- Node46&#45;&gt;Node11 -->
<g id="edge28" class="edge">
<title>Node46&#45;&gt;Node11</title>
<path fill="none" stroke="#191970" d="M4089.6342,-258.7186C4005.2494,-255.2925 3855.64,-249.498 3727.5,-246 3673.372,-244.5224 1825.6665,-236.5959 1778.5,-210 1754.3731,-196.3955 1739.8467,-166.4869 1732.5035,-146.6685"/>
<polygon fill="#191970" stroke="#191970" points="1735.7815,-145.4375 1729.2263,-137.114 1729.1602,-147.7086 1735.7815,-145.4375"/>
</g>
<!-- Node46&#45;&gt;Node13 -->
<g id="edge30" class="edge">
<title>Node46&#45;&gt;Node13</title>
<path fill="none" stroke="#191970" d="M4089.6362,-258.6428C4005.2534,-255.1386 3855.6462,-249.2635 3727.5,-246 3659.9867,-244.2807 1358.3265,-237.175 1296.5,-210 1266.4349,-196.7853 1242.465,-165.8261 1229.3915,-145.8173"/>
<polygon fill="#191970" stroke="#191970" points="1232.2966,-143.8619 1224.019,-137.2488 1226.3659,-147.5805 1232.2966,-143.8619"/>
</g>
<!-- Node46&#45;&gt;Node15 -->
<g id="edge31" class="edge">
<title>Node46&#45;&gt;Node15</title>
<path fill="none" stroke="#191970" d="M4150.5395,-251.8869C4139.9879,-235.4328 4116.6529,-201.4753 4090.5,-179 4045.3459,-140.1954 4031.1093,-130.4411 3974.5,-112 3750.963,-39.1804 3683.145,-70.6031 3448.5,-56 2947.4089,-24.8148 1320.2619,-12.5833 987.3355,-10.377"/>
<polygon fill="#191970" stroke="#191970" points="986.9737,-6.8747 976.9508,-10.3087 986.9276,-13.8745 986.9737,-6.8747"/>
</g>
<!-- Node41 -->
<g id="node18" class="node">
<title>Node41</title>
<polygon fill="#ffffff" stroke="#bfbfbf" points="3395.5,-56.5 3395.5,-75.5 3439.5,-75.5 3439.5,-56.5 3395.5,-56.5"/>
<text text-anchor="middle" x="3417.5" y="-63.5" font-family="Helvetica,sans-Serif" font-size="10.00" fill="#000000">string</text>
</g>
<!-- Node46&#45;&gt;Node41 -->
<g id="edge29" class="edge">
<title>Node46&#45;&gt;Node41</title>
<path fill="none" stroke="#191970" d="M4146.1156,-251.8737C4115.5076,-224.1761 4021.86,-144.2107 3927.5,-112 3838.3977,-81.5841 3547.6125,-70.0095 3449.878,-66.9199"/>
<polygon fill="#191970" stroke="#191970" points="3449.8242,-63.4167 3439.7213,-66.6076 3449.609,-70.4134 3449.8242,-63.4167"/>
</g>
<!-- Node47 -->
<g id="node19" class="node">
<title>Node47</title>
<g id="a_node19"><a xlink:href="FileData_8inl.html" target="_top" xlink:title="Core/Asset/FileData.inl">
<polygon fill="#ffffff" stroke="#ff0000" points="4204,-185 4204,-204 4331,-204 4331,-185 4204,-185"/>
<text text-anchor="middle" x="4267.5" y="-192" font-family="Helvetica,sans-Serif" font-size="10.00" fill="#000000">Core/Asset/FileData.inl</text>
</a>
</g>
</g>
<!-- Node46&#45;&gt;Node47 -->
<g id="edge32" class="edge">
<title>Node46&#45;&gt;Node47</title>
<path fill="none" stroke="#191970" d="M4172.4036,-251.9005C4190.867,-240.7559 4221.5299,-222.2477 4243.0332,-209.2682"/>
<polygon fill="#191970" stroke="#191970" points="4244.8733,-212.2458 4251.6259,-204.0817 4241.2559,-206.2529 4244.8733,-212.2458"/>
</g>
<!-- Node47&#45;&gt;Node38 -->
<g id="edge33" class="edge">
<title>Node47&#45;&gt;Node38</title>
<path fill="none" stroke="#191970" d="M4267.3567,-184.9005C4267.2112,-175.149 4266.9815,-159.7597 4266.7966,-147.3695"/>
<polygon fill="#191970" stroke="#191970" points="4270.292,-147.0283 4266.643,-137.0817 4263.2927,-147.1328 4270.292,-147.0283"/>
</g>
<!-- Node38&#45;&gt;Node15 -->
<g id="edge34" class="edge">
<title>Node38&#45;&gt;Node15</title>
<path fill="none" stroke="#191970" d="M4259.8259,-117.7467C4247.9383,-101.3395 4221.3338,-68.7606 4189.5,-56 4112.2155,-25.0205 1423.1496,-12.1359 986.992,-10.2478"/>
<polygon fill="#191970" stroke="#191970" points="986.828,-6.7472 976.8129,-10.204 986.7977,-13.7471 986.828,-6.7472"/>
</g>
<!-- Node38&#45;&gt;Node41 -->
<g id="edge38" class="edge">
<title>Node38&#45;&gt;Node41</title>
<path fill="none" stroke="#191970" d="M4213.3459,-119.53C4193.9207,-116.8303 4171.7491,-113.9965 4151.5,-112 3880.8994,-85.3189 3552.5618,-71.1954 3449.8146,-67.2008"/>
<polygon fill="#191970" stroke="#191970" points="3449.8933,-63.7014 3439.7663,-66.8147 3449.6245,-70.6962 3449.8933,-63.7014"/>
</g>
<!-- Node39 -->
<g id="node21" class="node">
<title>Node39</title>
<polygon fill="#ffffff" stroke="#bfbfbf" points="4309.5,-56.5 4309.5,-75.5 4353.5,-75.5 4353.5,-56.5 4309.5,-56.5"/>
<text text-anchor="middle" x="4331.5" y="-63.5" font-family="Helvetica,sans-Serif" font-size="10.00" fill="#000000">ctime</text>
</g>
<!-- Node38&#45;&gt;Node39 -->
<g id="edge35" class="edge">
<title>Node38&#45;&gt;Node39</title>
<path fill="none" stroke="#191970" d="M4276.6563,-117.8906C4286.5199,-108.5581 4301.7055,-94.1902 4313.5987,-82.9374"/>
<polygon fill="#191970" stroke="#191970" points="4316.3421,-85.1601 4321.2006,-75.7449 4311.5311,-80.0753 4316.3421,-85.1601"/>
</g>
<!-- Node7 -->
<g id="node22" class="node">
<title>Node7</title>
<polygon fill="#ffffff" stroke="#bfbfbf" points="4371.5,-56.5 4371.5,-75.5 4427.5,-75.5 4427.5,-56.5 4371.5,-56.5"/>
<text text-anchor="middle" x="4399.5" y="-63.5" font-family="Helvetica,sans-Serif" font-size="10.00" fill="#000000">sstream</text>
</g>
<!-- Node38&#45;&gt;Node7 -->
<g id="edge36" class="edge">
<title>Node38&#45;&gt;Node7</title>
<path fill="none" stroke="#191970" d="M4287.2813,-117.8906C4309.3394,-107.6908 4344.405,-91.4763 4369.4669,-79.8875"/>
<polygon fill="#191970" stroke="#191970" points="4371.2571,-82.9158 4378.8647,-75.5419 4368.3191,-76.5622 4371.2571,-82.9158"/>
</g>
<!-- Node40 -->
<g id="node23" class="node">
<title>Node40</title>
<polygon fill="#ffffff" stroke="#bfbfbf" points="4241.5,-56.5 4241.5,-75.5 4291.5,-75.5 4291.5,-56.5 4241.5,-56.5"/>
<text text-anchor="middle" x="4266.5" y="-63.5" font-family="Helvetica,sans-Serif" font-size="10.00" fill="#000000">stdio.h</text>
</g>
<!-- Node38&#45;&gt;Node40 -->
<g id="edge37" class="edge">
<title>Node38&#45;&gt;Node40</title>
<path fill="none" stroke="#191970" d="M4266.5,-117.8906C4266.5,-109.3657 4266.5,-96.6392 4266.5,-85.9235"/>
<polygon fill="#191970" stroke="#191970" points="4270.0001,-85.7448 4266.5,-75.7449 4263.0001,-85.7449 4270.0001,-85.7448"/>
</g>
<!-- Node72&#45;&gt;Node15 -->
<g id="edge41" class="edge">
<title>Node72&#45;&gt;Node15</title>
<path fill="none" stroke="#191970" d="M429.7974,-184.9117C443.4182,-174.9107 465.0149,-158.5503 482.5,-143 523.1271,-106.8685 519.7653,-80.1036 568.5,-56 619.8341,-30.6108 780.0784,-18.0558 868.1091,-12.9304"/>
<polygon fill="#191970" stroke="#191970" points="868.4294,-16.4179 878.2147,-12.3562 868.0322,-9.4292 868.4294,-16.4179"/>
</g>
<!-- Node72&#45;&gt;Node19 -->
<g id="edge42" class="edge">
<title>Node72&#45;&gt;Node19</title>
<path fill="none" stroke="#191970" d="M436.1435,-184.9684C456.3338,-175.0126 488.5399,-158.6876 515.5,-143 516.7142,-142.2935 576.7894,-103.3875 611.1037,-81.1583"/>
<polygon fill="#191970" stroke="#191970" points="613.1356,-84.0123 619.6253,-75.6376 609.3295,-78.1374 613.1356,-84.0123"/>
</g>
<!-- Node72&#45;&gt;Node31 -->
<g id="edge40" class="edge">
<title>Node72&#45;&gt;Node31</title>
<path fill="none" stroke="#191970" d="M466.9858,-184.9717C531.1681,-172.8584 641.8778,-151.9639 710.6531,-138.9838"/>
<polygon fill="#191970" stroke="#191970" points="711.7239,-142.3436 720.9012,-137.0496 710.4256,-135.465 711.7239,-142.3436"/>
</g>
<!-- Node73 -->
<g id="node25" class="node">
<title>Node73</title>
<g id="a_node25"><a xlink:href="StdOptional_8hpp.html" target="_top" xlink:title="Core/Utils/StdOptional.hpp">
<polygon fill="#ffffff" stroke="#000000" points="1412.5,-118 1412.5,-137 1558.5,-137 1558.5,-118 1412.5,-118"/>
<text text-anchor="middle" x="1485.5" y="-125" font-family="Helvetica,sans-Serif" font-size="10.00" fill="#000000">Core/Utils/StdOptional.hpp</text>
</a>
</g>
</g>
<!-- Node72&#45;&gt;Node73 -->
<g id="edge43" class="edge">
<title>Node72&#45;&gt;Node73</title>
<path fill="none" stroke="#191970" d="M511.8977,-189.8705C750.9702,-178.2219 1359.7643,-148.2503 1403.5,-143 1412.3838,-141.9335 1421.7535,-140.4795 1430.8577,-138.8871"/>
<polygon fill="#191970" stroke="#191970" points="1431.7723,-142.2782 1440.9837,-137.0436 1430.5185,-135.3914 1431.7723,-142.2782"/>
</g>
<!-- Node74 -->
<g id="node26" class="node">
<title>Node74</title>
<g id="a_node26"><a xlink:href="MeshPrimitives_8inl.html" target="_top" xlink:title="Core/Geometry/MeshPrimitives.inl">
<polygon fill="#ffffff" stroke="#ff0000" points="289.5,-118 289.5,-137 473.5,-137 473.5,-118 289.5,-118"/>
<text text-anchor="middle" x="381.5" y="-125" font-family="Helvetica,sans-Serif" font-size="10.00" fill="#000000">Core/Geometry/MeshPrimitives.inl</text>
</a>
</g>
</g>
<!-- Node72&#45;&gt;Node74 -->
<g id="edge44" class="edge">
<title>Node72&#45;&gt;Node74</title>
<path fill="none" stroke="#191970" d="M406.5848,-184.9005C399.4594,-174.95 390.7739,-159.1292 385.322,-146.6147"/>
<polygon fill="#191970" stroke="#191970" points="388.4995,-145.1291 381.6082,-137.0817 381.977,-147.6701 388.4995,-145.1291"/>
</g>
<!-- Node74&#45;&gt;Node72 -->
<g id="edge45" class="edge">
<title>Node74&#45;&gt;Node72</title>
<path fill="none" stroke="#191970" d="M391.4025,-137.0817C398.526,-147.0252 407.2125,-162.8444 412.6682,-175.3628"/>
<polygon fill="#191970" stroke="#191970" points="409.4931,-176.8545 416.3859,-184.9005 416.0151,-174.3122 409.4931,-176.8545"/>
</g>
<!-- Node78&#45;&gt;Node15 -->
<g id="edge47" class="edge">
<title>Node78&#45;&gt;Node15</title>
<path fill="none" stroke="#191970" d="M165.0305,-57.2575C169.9244,-56.8119 174.7757,-56.3886 179.5,-56 435.5294,-34.9391 741.5868,-19.0016 868.1931,-12.813"/>
<polygon fill="#191970" stroke="#191970" points="868.6222,-16.2964 878.4402,-12.3143 868.2819,-9.3046 868.6222,-16.2964"/>
</g>
<!-- Node79&#45;&gt;Node2 -->
<g id="edge52" class="edge">
<title>Node79&#45;&gt;Node2</title>
<path fill="none" stroke="#191970" d="M2153.3441,-246.3977C2171.0504,-238.2171 2190.172,-226.3618 2202.5,-210 2216.2051,-191.8104 2220.2803,-165.4151 2221.362,-147.4117"/>
<polygon fill="#191970" stroke="#191970" points="2224.8674,-147.3125 2221.7101,-137.1991 2217.8714,-147.074 2224.8674,-147.3125"/>
</g>
<!-- Node79&#45;&gt;Node11 -->
<g id="edge57" class="edge">
<title>Node79&#45;&gt;Node11</title>
<path fill="none" stroke="#191970" d="M2024.8058,-259.5022C1881.143,-255.2302 1602.2801,-242.7728 1572.5,-210 1535.1509,-168.8976 1630.0128,-144.3867 1687.0655,-133.7604"/>
<polygon fill="#191970" stroke="#191970" points="1688.0125,-137.1465 1697.2381,-131.9369 1686.7774,-130.2563 1688.0125,-137.1465"/>
</g>
<!-- Node80 -->
<g id="node29" class="node">
<title>Node80</title>
<g id="a_node29"><a xlink:href="LightStorage_8hpp.html" target="_top" xlink:title="Engine/Managers/LightManager\l/LightStorage.hpp">
<polygon fill="#ffffff" stroke="#ff0000" points="2025,-179.5 2025,-209.5 2194,-209.5 2194,-179.5 2025,-179.5"/>
<text text-anchor="start" x="2033" y="-197.5" font-family="Helvetica,sans-Serif" font-size="10.00" fill="#000000">Engine/Managers/LightManager</text>
<text text-anchor="middle" x="2109.5" y="-186.5" font-family="Helvetica,sans-Serif" font-size="10.00" fill="#000000">/LightStorage.hpp</text>
</a>
</g>
</g>
<!-- Node79&#45;&gt;Node80 -->
<g id="edge50" class="edge">
<title>Node79&#45;&gt;Node80</title>
<path fill="none" stroke="#191970" d="M2109.5,-246.2967C2109.5,-238.5013 2109.5,-228.7991 2109.5,-219.9064"/>
<polygon fill="#191970" stroke="#191970" points="2113.0001,-219.6431 2109.5,-209.6432 2106.0001,-219.6432 2113.0001,-219.6431"/>
</g>
<!-- Node85 -->
<g id="node30" class="node">
<title>Node85</title>
<g id="a_node30"><a xlink:href="System_8hpp.html" target="_top" xlink:title="Engine/System/System.hpp">
<polygon fill="#ffffff" stroke="#000000" points="1581.5,-185 1581.5,-204 1731.5,-204 1731.5,-185 1581.5,-185"/>
<text text-anchor="middle" x="1656.5" y="-192" font-family="Helvetica,sans-Serif" font-size="10.00" fill="#000000">Engine/System/System.hpp</text>
</a>
</g>
</g>
<!-- Node79&#45;&gt;Node85 -->
<g id="edge53" class="edge">
<title>Node79&#45;&gt;Node85</title>
<path fill="none" stroke="#191970" d="M2024.8032,-250.2948C1950.9576,-240.3395 1841.0115,-225.0697 1745.5,-210 1737.1487,-208.6823 1728.3682,-207.2323 1719.7095,-205.7641"/>
<polygon fill="#191970" stroke="#191970" points="1720.0813,-202.2769 1709.634,-204.0391 1718.8999,-209.1765 1720.0813,-202.2769"/>
</g>
<!-- Node80&#45;&gt;Node2 -->
<g id="edge51" class="edge">
<title>Node80&#45;&gt;Node2</title>
<path fill="none" stroke="#191970" d="M2134.635,-179.4639C2153.1732,-168.3741 2178.274,-153.3584 2196.7262,-142.32"/>
<polygon fill="#191970" stroke="#191970" points="2198.6608,-145.2412 2205.4457,-137.1039 2195.0672,-139.2341 2198.6608,-145.2412"/>
</g>
<!-- Node85&#45;&gt;Node2 -->
<g id="edge54" class="edge">
<title>Node85&#45;&gt;Node2</title>
<path fill="none" stroke="#191970" d="M1730.3539,-184.9886C1746.2325,-182.9796 1762.922,-180.895 1778.5,-179 1910.2869,-162.9685 2064.2662,-145.3093 2151.5918,-135.3944"/>
<polygon fill="#191970" stroke="#191970" points="2152.1038,-138.8589 2161.6455,-134.2537 2151.3146,-131.9035 2152.1038,-138.8589"/>
</g>
<!-- Node85&#45;&gt;Node11 -->
<g id="edge55" class="edge">
<title>Node85&#45;&gt;Node11</title>
<path fill="none" stroke="#191970" d="M1666.5293,-184.9005C1677.6531,-174.2535 1695.7987,-156.8856 1709.221,-144.0385"/>
<polygon fill="#191970" stroke="#191970" points="1711.6852,-146.5247 1716.4893,-137.0817 1706.845,-141.4678 1711.6852,-146.5247"/>
</g>
<!-- Node85&#45;&gt;Node13 -->
<g id="edge56" class="edge">
<title>Node85&#45;&gt;Node13</title>
<path fill="none" stroke="#191970" d="M1581.4115,-186.234C1473.0521,-174.1103 1282.3837,-151.9744 1251.5,-143 1249.5854,-142.4436 1247.6423,-141.7895 1245.7067,-141.0701"/>
<polygon fill="#191970" stroke="#191970" points="1246.8321,-137.7461 1236.2583,-137.0795 1244.1085,-144.1945 1246.8321,-137.7461"/>
</g>
<!-- Node86&#45;&gt;Node2 -->
<g id="edge59" class="edge">
<title>Node86&#45;&gt;Node2</title>
<path fill="none" stroke="#191970" d="M1910.9813,-184.9717C1976.5635,-172.8335 2089.7857,-151.8781 2159.8847,-138.9039"/>
<polygon fill="#191970" stroke="#191970" points="2160.7075,-142.3112 2169.9035,-137.0496 2159.4335,-135.4281 2160.7075,-142.3112"/>
</g>
<!-- Node86&#45;&gt;Node11 -->
<g id="edge64" class="edge">
<title>Node86&#45;&gt;Node11</title>
<path fill="none" stroke="#191970" d="M1840.4443,-184.9005C1818.0252,-173.6067 1780.5946,-154.7506 1754.7868,-141.7497"/>
<polygon fill="#191970" stroke="#191970" points="1756.0258,-138.4549 1745.5203,-137.0817 1752.8765,-144.7065 1756.0258,-138.4549"/>
</g>
<!-- Node86&#45;&gt;Node13 -->
<g id="edge66" class="edge">
<title>Node86&#45;&gt;Node13</title>
<path fill="none" stroke="#191970" d="M1791.6123,-184.9898C1774.9208,-182.8359 1757.0816,-180.6889 1740.5,-179 1523.7002,-156.9178 1462.303,-198.2438 1251.5,-143 1249.5254,-142.4825 1247.5245,-141.8494 1245.5354,-141.1381"/>
<polygon fill="#191970" stroke="#191970" points="1246.4401,-137.7231 1235.8635,-137.102 1243.7442,-144.1832 1246.4401,-137.7231"/>
</g>
<!-- Node86&#45;&gt;Node14 -->
<g id="edge60" class="edge">
<title>Node86&#45;&gt;Node14</title>
<path fill="none" stroke="#191970" d="M1860.8361,-184.9342C1863.8546,-167.2725 1872.9592,-129.7325 1897.5,-112 1925.4926,-91.7733 2144.9186,-75.8091 2249.899,-69.2452"/>
<polygon fill="#191970" stroke="#191970" points="2250.2295,-72.7315 2259.9944,-68.6209 2249.7974,-65.7449 2250.2295,-72.7315"/>
</g>
<!-- Node86&#45;&gt;Node27 -->
<g id="edge63" class="edge">
<title>Node86&#45;&gt;Node27</title>
<path fill="none" stroke="#191970" d="M1875.5469,-184.9005C1894.1767,-173.7559 1925.1158,-155.2477 1946.8128,-142.2682"/>
<polygon fill="#191970" stroke="#191970" points="1948.698,-145.219 1955.4829,-137.0817 1945.1044,-139.2118 1948.698,-145.219"/>
</g>
<!-- Node86&#45;&gt;Node41 -->
<g id="edge65" class="edge">
<title>Node86&#45;&gt;Node41</title>
<path fill="none" stroke="#191970" d="M1865.6666,-184.7862C1877.9011,-166.52 1907.2223,-127.5004 1943.5,-112 2012.0562,-82.7079 3176.3572,-68.6358 3385.4692,-66.3392"/>
<polygon fill="#191970" stroke="#191970" points="3385.5383,-69.8388 3395.4996,-66.2301 3385.4621,-62.8392 3385.5383,-69.8388"/>
</g>
<!-- Node87 -->
<g id="node32" class="node">
<title>Node87</title>
<g id="a_node32"><a xlink:href="Singleton_8hpp.html" target="_top" xlink:title="Core/Utils/Singleton.hpp">
<polygon fill="#ffffff" stroke="#000000" points="1260.5,-118 1260.5,-137 1394.5,-137 1394.5,-118 1260.5,-118"/>
<text text-anchor="middle" x="1327.5" y="-125" font-family="Helvetica,sans-Serif" font-size="10.00" fill="#000000">Core/Utils/Singleton.hpp</text>
</a>
</g>
</g>
<!-- Node86&#45;&gt;Node87 -->
<g id="edge61" class="edge">
<title>Node86&#45;&gt;Node87</title>
<path fill="none" stroke="#191970" d="M1788.4275,-184.9697C1772.656,-182.931 1756.0171,-180.8391 1740.5,-179 1590.917,-161.2711 1552.3518,-166.0764 1403.5,-143 1396.0979,-141.8525 1388.3244,-140.4718 1380.6903,-139.0135"/>
<polygon fill="#191970" stroke="#191970" points="1381.2652,-135.5596 1370.7778,-137.0648 1379.9148,-142.4282 1381.2652,-135.5596"/>
</g>
<!-- Node87&#45;&gt;Node15 -->
<g id="edge62" class="edge">
<title>Node87&#45;&gt;Node15</title>
<path fill="none" stroke="#191970" d="M1295.1051,-117.984C1223.1368,-96.8433 1049.983,-45.9794 969.6946,-22.3947"/>
<polygon fill="#191970" stroke="#191970" points="970.4987,-18.9831 959.9176,-19.5227 968.5258,-25.6993 970.4987,-18.9831"/>
</g>
<!-- Node88&#45;&gt;Node14 -->
<g id="edge68" class="edge">
<title>Node88&#45;&gt;Node14</title>
<path fill="none" stroke="#191970" d="M3703.696,-246.454C3744.1509,-232.418 3788.8781,-209.1287 3766.5,-179 3705.0473,-96.2631 3646.1606,-128.9393 3544.5,-112 3312.0794,-73.2726 2571.041,-67.1417 2361.2977,-66.1781"/>
<polygon fill="#191970" stroke="#191970" points="2361.1496,-62.6776 2351.1344,-66.1336 2361.1189,-69.6775 2361.1496,-62.6776"/>
</g>
<!-- Node89&#45;&gt;Node2 -->
<g id="edge70" class="edge">
<title>Node89&#45;&gt;Node2</title>
<path fill="none" stroke="#191970" d="M3286.7802,-250.4164C3235.5555,-241.5241 3164.5442,-227.6281 3103.5,-210 3066.0677,-199.1905 3059.5825,-187.2311 3021.5,-179 2883.1746,-149.1026 2459.7609,-134.206 2291.5025,-129.3443"/>
<polygon fill="#191970" stroke="#191970" points="2291.3703,-125.8392 2281.2744,-129.0521 2291.1703,-132.8363 2291.3703,-125.8392"/>
</g>
<!-- Node89&#45;&gt;Node14 -->
<g id="edge73" class="edge">
<title>Node89&#45;&gt;Node14</title>
<path fill="none" stroke="#191970" d="M3418.9188,-246.4755C3454.3941,-236.7422 3494.1427,-223.4177 3506.5,-210 3536.447,-177.4831 3554.1629,-143.8428 3523.5,-112 3503.0824,-90.7967 2597.5348,-71.6923 2361.3532,-67.0639"/>
<polygon fill="#191970" stroke="#191970" points="2361.3352,-63.563 2351.2688,-66.8671 2361.1985,-70.5616 2361.3352,-63.563"/>
</g>
<!-- Node89&#45;&gt;Node27 -->
<g id="edge71" class="edge">
<title>Node89&#45;&gt;Node27</title>
<path fill="none" stroke="#191970" d="M3286.9452,-255.2568C3218.5517,-248.0817 3111.6047,-234.077 3021.5,-210 2984.6608,-200.1562 2978.8126,-186.8609 2941.5,-179 2769.7543,-142.8172 2327.6392,-154.4901 2152.5,-143 2098.8813,-139.4823 2036.4623,-133.7815 2000.7058,-130.3615"/>
<polygon fill="#191970" stroke="#191970" points="2000.7939,-126.8539 1990.5043,-129.3783 2000.1223,-133.8216 2000.7939,-126.8539"/>
</g>
<!-- Node89&#45;&gt;Node41 -->
<g id="edge72" class="edge">
<title>Node89&#45;&gt;Node41</title>
<path fill="none" stroke="#191970" d="M3426.1584,-256.2695C3593.0265,-243.7002 4002.0622,-212.6392 4004.5,-210 4090.9132,-116.4466 4103.6298,-178.6272 3837.5,-112 3696.0443,-76.5857 3521.0136,-68.434 3449.8531,-66.5592"/>
<polygon fill="#191970" stroke="#191970" points="3449.8147,-63.0574 3439.7339,-66.3173 3449.6474,-70.0554 3449.8147,-63.0574"/>
</g>
<!-- Node90 -->
<g id="node35" class="node">
<title>Node90</title>
<g id="a_node35"><a xlink:href="RenderParameters_8hpp.html" target="_top" xlink:title="Engine/Renderer/RenderTechnique\l/RenderParameters.hpp">
<polygon fill="#ffffff" stroke="#ff0000" points="3265.5,-179.5 3265.5,-209.5 3447.5,-209.5 3447.5,-179.5 3265.5,-179.5"/>
<text text-anchor="start" x="3273.5" y="-197.5" font-family="Helvetica,sans-Serif" font-size="10.00" fill="#000000">Engine/Renderer/RenderTechnique</text>
<text text-anchor="middle" x="3356.5" y="-186.5" font-family="Helvetica,sans-Serif" font-size="10.00" fill="#000000">/RenderParameters.hpp</text>
</a>
</g>
</g>
<!-- Node89&#45;&gt;Node90 -->
<g id="edge74" class="edge">
<title>Node89&#45;&gt;Node90</title>
<path fill="none" stroke="#191970" d="M3356.5,-246.2967C3356.5,-238.5013 3356.5,-228.7991 3356.5,-219.9064"/>
<polygon fill="#191970" stroke="#191970" points="3360.0001,-219.6431 3356.5,-209.6432 3353.0001,-219.6432 3360.0001,-219.6431"/>
</g>
<!-- Node95 -->
<g id="node36" class="node">
<title>Node95</title>
<g id="a_node36"><a xlink:href="Material_8inl.html" target="_top" xlink:title="Engine/Renderer/Material\l/Material.inl">
<polygon fill="#ffffff" stroke="#000000" points="3618,-179.5 3618,-209.5 3757,-209.5 3757,-179.5 3618,-179.5"/>
<text text-anchor="start" x="3626" y="-197.5" font-family="Helvetica,sans-Serif" font-size="10.00" fill="#000000">Engine/Renderer/Material</text>
<text text-anchor="middle" x="3687.5" y="-186.5" font-family="Helvetica,sans-Serif" font-size="10.00" fill="#000000">/Material.inl</text>
</a>
</g>
</g>
<!-- Node89&#45;&gt;Node95 -->
<g id="edge79" class="edge">
<title>Node89&#45;&gt;Node95</title>
<path fill="none" stroke="#191970" d="M3426.2921,-247.3729C3479.3237,-236.6384 3552.3311,-221.8605 3607.6823,-210.6565"/>
<polygon fill="#191970" stroke="#191970" points="3608.6965,-214.0222 3617.8033,-208.6078 3607.3077,-207.1614 3608.6965,-214.0222"/>
</g>
<!-- Node90&#45;&gt;Node2 -->
<g id="edge75" class="edge">
<title>Node90&#45;&gt;Node2</title>
<path fill="none" stroke="#191970" d="M3265.2648,-179.958C3262.3113,-179.6153 3259.3838,-179.2944 3256.5,-179 2894.4872,-142.0387 2458.4216,-131.3344 2291.3096,-128.4691"/>
<polygon fill="#191970" stroke="#191970" points="2291.2271,-124.9673 2281.1698,-128.2993 2291.1098,-131.9664 2291.2271,-124.9673"/>
</g>
<!-- Node90&#45;&gt;Node13 -->
<g id="edge76" class="edge">
<title>Node90&#45;&gt;Node13</title>
<path fill="none" stroke="#191970" d="M3265.2761,-179.8376C3262.3193,-179.5295 3259.3881,-179.2486 3256.5,-179 3034.5072,-159.8917 1468.5205,-193.4782 1251.5,-143 1249.296,-142.4874 1247.064,-141.8156 1244.8548,-141.0392"/>
<polygon fill="#191970" stroke="#191970" points="1246.0504,-137.7458 1235.4732,-137.1342 1243.3603,-144.2083 1246.0504,-137.7458"/>
</g>
<!-- Node90&#45;&gt;Node14 -->
<g id="edge77" class="edge">
<title>Node90&#45;&gt;Node14</title>
<path fill="none" stroke="#191970" d="M3322.3469,-179.4103C3276.5306,-159.9529 3192.1599,-126.8554 3116.5,-112 2971.3578,-83.5022 2519.5442,-70.8212 2361.0928,-67.1705"/>
<polygon fill="#191970" stroke="#191970" points="2361.1635,-63.6713 2351.0865,-66.9431 2361.0043,-70.6695 2361.1635,-63.6713"/>
</g>
<!-- Node90&#45;&gt;Node38 -->
<g id="edge78" class="edge">
<title>Node90&#45;&gt;Node38</title>
<path fill="none" stroke="#191970" d="M3447.5006,-187.8C3631.835,-174.2281 4045.2262,-143.7916 4203.3435,-132.15"/>
<polygon fill="#191970" stroke="#191970" points="4203.6681,-135.6357 4213.3841,-131.4107 4203.1541,-128.6545 4203.6681,-135.6357"/>
</g>
<!-- Node96&#45;&gt;Node2 -->
<g id="edge81" class="edge">
<title>Node96&#45;&gt;Node2</title>
<path fill="none" stroke="#191970" d="M2296.9146,-246.389C2281.2152,-221.6393 2250.0761,-172.5495 2233.136,-145.8438"/>
<polygon fill="#191970" stroke="#191970" points="2235.9043,-143.6738 2227.5922,-137.1042 2229.9932,-147.4234 2235.9043,-143.6738"/>
</g>
<!-- Node96&#45;&gt;Node9 -->
<g id="edge83" class="edge">
<title>Node96&#45;&gt;Node9</title>
<path fill="none" stroke="#191970" d="M2243.949,-250.9468C2230.3225,-248.9925 2215.9558,-247.1938 2202.5,-246 2133.8517,-239.9096 1010.52,-259.4344 962.5,-210 946.1973,-193.2171 955.9484,-164.8983 965.4238,-146.201"/>
<polygon fill="#191970" stroke="#191970" points="968.6317,-147.6293 970.3532,-137.1752 962.4882,-144.2741 968.6317,-147.6293"/>
</g>
<!-- Node96&#45;&gt;Node13 -->
<g id="edge85" class="edge">
<title>Node96&#45;&gt;Node13</title>
<path fill="none" stroke="#191970" d="M2243.9418,-251.0264C2230.3157,-249.0672 2215.9511,-247.2463 2202.5,-246 2148.417,-240.989 1264.8134,-247.4771 1225.5,-210 1208.8881,-194.164 1210.2746,-165.99 1213.6705,-147.0282"/>
<polygon fill="#191970" stroke="#191970" points="1217.127,-147.6002 1215.7813,-137.0912 1210.2798,-146.1457 1217.127,-147.6002"/>
</g>
<!-- Node96&#45;&gt;Node19 -->
<g id="edge88" class="edge">
<title>Node96&#45;&gt;Node19</title>
<path fill="none" stroke="#191970" d="M2243.953,-250.9013C2230.3262,-248.9499 2215.9585,-247.1638 2202.5,-246 2040.2785,-231.9721 891.5617,-262.7029 737.5,-210 689.9794,-193.7437 672.5531,-185.9384 646.5,-143 636.0078,-125.7077 633.6777,-102.3524 633.5549,-85.9127"/>
<polygon fill="#191970" stroke="#191970" points="637.0564,-85.8613 633.7493,-75.7959 630.0577,-85.7267 637.0564,-85.8613"/>
</g>
<!-- Node96&#45;&gt;Node26 -->
<g id="edge82" class="edge">
<title>Node96&#45;&gt;Node26</title>
<path fill="none" stroke="#191970" d="M2243.9497,-250.9391C2230.3231,-248.9853 2215.9563,-247.1887 2202.5,-246 1638.6917,-196.1935 1492.8591,-264.6532 929.5,-210 928.0235,-209.8568 926.5351,-209.7042 925.0373,-209.5433"/>
<polygon fill="#191970" stroke="#191970" points="925.386,-206.0603 915.0454,-208.3672 924.5677,-213.0123 925.386,-206.0603"/>
</g>
<!-- Node96&#45;&gt;Node27 -->
<g id="edge84" class="edge">
<title>Node96&#45;&gt;Node27</title>
<path fill="none" stroke="#191970" d="M2243.7924,-251.829C2161.0467,-238.8602 2024.7116,-216.6881 2015.5,-210 1994.4293,-194.7015 1982.4888,-166.1831 1976.5094,-147.0188"/>
<polygon fill="#191970" stroke="#191970" points="1979.8265,-145.8879 1973.7171,-137.232 1973.0952,-147.8086 1979.8265,-145.8879"/>
</g>
<!-- Node96&#45;&gt;Node28 -->
<g id="edge86" class="edge">
<title>Node96&#45;&gt;Node28</title>
<path fill="none" stroke="#191970" d="M2369.0066,-260.8661C2516.4373,-258.7231 2876.2489,-249.4625 2912.5,-210 2921.8208,-199.8535 2921.7068,-189.25 2912.5,-179 2848.7691,-108.0478 1415.2272,-75.3769 1024.8801,-67.7769"/>
<polygon fill="#191970" stroke="#191970" points="1024.8101,-64.275 1014.7442,-67.5806 1024.6745,-71.2737 1024.8101,-64.275"/>
</g>
<!-- Node96&#45;&gt;Node31 -->
<g id="edge87" class="edge">
<title>Node96&#45;&gt;Node31</title>
<path fill="none" stroke="#191970" d="M2243.9528,-250.9032C2230.326,-248.9517 2215.9584,-247.1651 2202.5,-246 2162.2493,-242.5156 776.7122,-238.9194 748.5,-210 731.5463,-192.6214 745.576,-163.8496 757.9625,-145.288"/>
<polygon fill="#191970" stroke="#191970" points="760.8446,-147.2743 763.7682,-137.0908 755.1323,-143.2285 760.8446,-147.2743"/>
</g>
<!-- Node96&#45;&gt;Node38 -->
<g id="edge89" class="edge">
<title>Node96&#45;&gt;Node38</title>
<path fill="none" stroke="#191970" d="M2369.298,-259.8305C2671.5235,-251.7665 3963.4259,-216.953 4004.5,-210 4089.6176,-195.5914 4185.3678,-160.3066 4234.15,-140.8754"/>
<polygon fill="#191970" stroke="#191970" points="4235.5729,-144.0757 4243.5447,-137.0971 4232.961,-137.5812 4235.5729,-144.0757"/>
</g>
<!-- Node96&#45;&gt;Node97 -->
<g id="edge90" class="edge">
<title>Node96&#45;&gt;Node97</title>
<path fill="none" stroke="#191970" d="M2369.2167,-259.8554C2606.5959,-253.485 3437.5624,-229.8046 3456.5,-210 3471.0597,-194.7737 3465.4675,-170.1317 3457.9547,-151.7375"/>
<polygon fill="#191970" stroke="#191970" points="3461.1062,-150.2114 3453.8237,-142.5163 3454.718,-153.0733 3461.1062,-150.2114"/>
</g>
<!-- Node96&#45;&gt;Node92 -->
<g id="edge91" class="edge">
<title>Node96&#45;&gt;Node92</title>
<path fill="none" stroke="#191970" d="M2369.3546,-248.5023C2420.3068,-237.9659 2492.5201,-223.0329 2548.0994,-211.5396"/>
<polygon fill="#191970" stroke="#191970" points="2548.8384,-214.9609 2557.9224,-209.5083 2547.4208,-208.106 2548.8384,-214.9609"/>
</g>
<!-- Node101 -->
<g id="node40" class="node">
<title>Node101</title>
<polygon fill="#ffffff" stroke="#bfbfbf" points="2288,-185 2288,-204 2389,-204 2389,-185 2288,-185"/>
<text text-anchor="middle" x="2338.5" y="-192" font-family="Helvetica,sans-Serif" font-size="10.00" fill="#000000">globjects/Buffer.h</text>
</g>
<!-- Node96&#45;&gt;Node101 -->
<g id="edge97" class="edge">
<title>Node96&#45;&gt;Node101</title>
<path fill="none" stroke="#191970" d="M2313.7613,-246.2967C2318.4566,-236.4658 2324.6002,-223.6026 2329.5904,-213.1545"/>
<polygon fill="#191970" stroke="#191970" points="2332.7849,-214.587 2333.9364,-204.055 2326.4683,-211.5702 2332.7849,-214.587"/>
</g>
<!-- Node102 -->
<g id="node41" class="node">
<title>Node102</title>
<polygon fill="#ffffff" stroke="#bfbfbf" points="2407.5,-185 2407.5,-204 2521.5,-204 2521.5,-185 2407.5,-185"/>
<text text-anchor="middle" x="2464.5" y="-192" font-family="Helvetica,sans-Serif" font-size="10.00" fill="#000000">globjects/Program.h</text>
</g>
<!-- Node96&#45;&gt;Node102 -->
<g id="edge98" class="edge">
<title>Node96&#45;&gt;Node102</title>
<path fill="none" stroke="#191970" d="M2341.9583,-246.4639C2369.0657,-234.969 2406.1199,-219.2561 2432.3655,-208.1266"/>
<polygon fill="#191970" stroke="#191970" points="2434.0119,-211.2302 2441.8519,-204.1039 2431.2791,-204.7857 2434.0119,-211.2302"/>
</g>
<!-- Node92&#45;&gt;Node2 -->
<g id="edge92" class="edge">
<title>Node92&#45;&gt;Node2</title>
<path fill="none" stroke="#191970" d="M2539.4757,-179.5889C2464.0234,-167.2288 2358.4145,-149.9285 2289.9829,-138.7185"/>
<polygon fill="#191970" stroke="#191970" points="2290.1814,-135.2044 2279.7471,-137.0417 2289.0498,-142.1123 2290.1814,-135.2044"/>
</g>
<!-- Node92&#45;&gt;Node9 -->
<g id="edge94" class="edge">
<title>Node92&#45;&gt;Node9</title>
<path fill="none" stroke="#191970" d="M2539.2739,-179.8632C2536.3177,-179.5477 2533.3873,-179.2583 2530.5,-179 1884.8813,-121.2372 1717.9335,-202.7964 1072.5,-143 1050.758,-140.9857 1026.4813,-137.0504 1007.7806,-133.6493"/>
<polygon fill="#191970" stroke="#191970" points="1008.2188,-130.1708 997.7467,-131.7789 1006.9359,-137.0522 1008.2188,-130.1708"/>
</g>
<!-- Node92&#45;&gt;Node11 -->
<g id="edge95" class="edge">
<title>Node92&#45;&gt;Node11</title>
<path fill="none" stroke="#191970" d="M2539.2602,-180.0016C2536.308,-179.6464 2533.3821,-179.3111 2530.5,-179 2270.6302,-150.9522 2204.3051,-160.3115 1943.5,-143 1881.3534,-138.8749 1809.2301,-133.6327 1765.7698,-130.4242"/>
<polygon fill="#191970" stroke="#191970" points="1765.8569,-126.9212 1755.6259,-129.6739 1765.3404,-133.9021 1765.8569,-126.9212"/>
</g>
<!-- Node92&#45;&gt;Node14 -->
<g id="edge93" class="edge">
<title>Node92&#45;&gt;Node14</title>
<path fill="none" stroke="#191970" d="M2592.2627,-179.3816C2528.2072,-154.055 2400.2538,-103.4642 2339.2972,-79.3629"/>
<polygon fill="#191970" stroke="#191970" points="2340.3487,-76.015 2329.7622,-75.5929 2337.7748,-82.5247 2340.3487,-76.015"/>
</g>
<!-- Node92&#45;&gt;Node41 -->
<g id="edge96" class="edge">
<title>Node92&#45;&gt;Node41</title>
<path fill="none" stroke="#191970" d="M2701.9512,-179.4465C2787.2574,-161.7938 2934.3679,-132.3619 3061.5,-112 3180.4575,-92.9474 3322.7607,-76.4386 3385.3166,-69.4963"/>
<polygon fill="#191970" stroke="#191970" points="3385.7971,-72.9646 3395.3528,-68.3889 3385.0292,-66.0069 3385.7971,-72.9646"/>
</g>
<!-- Node106&#45;&gt;Node2 -->
<g id="edge101" class="edge">
<title>Node106&#45;&gt;Node2</title>
<path fill="none" stroke="#191970" d="M2739.1985,-180.2242C2736.265,-179.7973 2733.3585,-179.3876 2730.5,-179 2574.0899,-157.7916 2389.5521,-141.2108 2291.3107,-133.053"/>
<polygon fill="#191970" stroke="#191970" points="2291.4641,-129.5539 2281.2099,-132.2187 2290.8878,-136.5301 2291.4641,-129.5539"/>
</g>
<!-- Node106&#45;&gt;Node11 -->
<g id="edge102" class="edge">
<title>Node106&#45;&gt;Node11</title>
<path fill="none" stroke="#191970" d="M2739.2234,-180.0195C2736.2828,-179.6506 2733.3681,-179.3087 2730.5,-179 2382.3668,-141.5326 2293.0444,-163.475 1943.5,-143 1881.3233,-139.3579 1809.2086,-133.9765 1765.7584,-130.6077"/>
<polygon fill="#191970" stroke="#191970" points="1765.8586,-127.105 1755.6169,-129.8176 1765.3148,-134.0839 1765.8586,-127.105"/>
</g>
<!-- Node106&#45;&gt;Node12 -->
<g id="edge103" class="edge">
<title>Node106&#45;&gt;Node12</title>
<path fill="none" stroke="#191970" d="M2739.2319,-179.9361C2736.2889,-179.5908 2733.3714,-179.2765 2730.5,-179 2046.8098,-113.1608 1868.4001,-216.5838 1185.5,-143 1170.3332,-141.3657 1153.75,-138.3583 1139.6344,-135.4244"/>
<polygon fill="#191970" stroke="#191970" points="1140.3598,-132.0005 1129.8477,-133.3217 1138.8894,-138.8443 1140.3598,-132.0005"/>
</g>
<!-- Node106&#45;&gt;Node14 -->
<g id="edge105" class="edge">
<title>Node106&#45;&gt;Node14</title>
<path fill="none" stroke="#191970" d="M2761.0448,-179.4448C2657.4369,-153.6432 2448.006,-101.4884 2353.5872,-77.9752"/>
<polygon fill="#191970" stroke="#191970" points="2354.2843,-74.542 2343.7349,-75.5217 2352.5927,-81.3345 2354.2843,-74.542"/>
</g>
<!-- Node106&#45;&gt;Node41 -->
<g id="edge104" class="edge">
<title>Node106&#45;&gt;Node41</title>
<path fill="none" stroke="#191970" d="M2891.328,-179.4448C3020.5244,-151.5895 3292.1824,-93.019 3385.3451,-72.9327"/>
<polygon fill="#191970" stroke="#191970" points="3386.2651,-76.3149 3395.3028,-70.7858 3384.7897,-69.4721 3386.2651,-76.3149"/>
</g>
<!-- Node111&#45;&gt;Node2 -->
<g id="edge107" class="edge">
<title>Node111&#45;&gt;Node2</title>
<path fill="none" stroke="#191970" d="M1135.5944,-189.0067C1182.6783,-185.9204 1242.9015,-182.0817 1296.5,-179 1608.838,-161.042 1687.2173,-161.896 1999.5,-143 2050.3764,-139.9215 2107.7716,-135.8997 2151.4562,-132.7243"/>
<polygon fill="#191970" stroke="#191970" points="2151.969,-136.1962 2161.6878,-131.9778 2151.4596,-129.2148 2151.969,-136.1962"/>
</g>
<!-- Node111&#45;&gt;Node9 -->
<g id="edge108" class="edge">
<title>Node111&#45;&gt;Node9</title>
<path fill="none" stroke="#191970" d="M1036.0275,-179.2967C1023.7976,-168.6551 1007.4841,-154.4602 995.0279,-143.6217"/>
<polygon fill="#191970" stroke="#191970" points="997.3225,-140.9788 987.4811,-137.055 992.7276,-146.2596 997.3225,-140.9788"/>
</g>
<!-- Node111&#45;&gt;Node11 -->
<g id="edge109" class="edge">
<title>Node111&#45;&gt;Node11</title>
<path fill="none" stroke="#191970" d="M1135.6863,-186.318C1281.6073,-171.791 1580.6221,-142.0228 1687.4714,-131.3855"/>
<polygon fill="#191970" stroke="#191970" points="1687.8895,-134.8612 1697.4935,-130.3877 1687.196,-127.8957 1687.8895,-134.8612"/>
</g>
<!-- Node111&#45;&gt;Node12 -->
<g id="edge110" class="edge">
<title>Node111&#45;&gt;Node12</title>
<path fill="none" stroke="#191970" d="M1065.2996,-179.2967C1073.1655,-169.1618 1083.5327,-155.804 1091.7688,-145.1921"/>
<polygon fill="#191970" stroke="#191970" points="1094.7179,-147.1008 1098.0842,-137.055 1089.188,-142.8089 1094.7179,-147.1008"/>
</g>
<!-- Node111&#45;&gt;Node13 -->
<g id="edge111" class="edge">
<title>Node111&#45;&gt;Node13</title>
<path fill="none" stroke="#191970" d="M1090.5292,-179.4639C1118.9623,-167.9183 1157.8746,-152.1176 1185.3034,-140.9798"/>
<polygon fill="#191970" stroke="#191970" points="1186.9001,-144.1091 1194.8486,-137.1039 1184.2665,-137.6234 1186.9001,-144.1091"/>
</g>
<!-- Node111&#45;&gt;Node14 -->
<g id="edge112" class="edge">
<title>Node111&#45;&gt;Node14</title>
<path fill="none" stroke="#191970" d="M1052.0168,-179.2162C1051.1159,-160.1823 1052.9033,-128.2024 1072.5,-112 1118.4044,-74.0466 2015.4731,-67.3191 2249.8628,-66.2076"/>
<polygon fill="#191970" stroke="#191970" points="2249.8881,-69.7076 2259.8719,-66.1616 2249.8559,-62.7077 2249.8881,-69.7076"/>
</g>
<!-- Node116&#45;&gt;Node41 -->
<g id="edge115" class="edge">
<title>Node116&#45;&gt;Node41</title>
<path fill="none" stroke="#191970" d="M3890.5525,-179.2829C3871.88,-160.0071 3836.7645,-127.4445 3799.5,-112 3736.309,-85.8102 3529.7347,-72.0837 3449.6398,-67.641"/>
<polygon fill="#191970" stroke="#191970" points="3449.8157,-64.1455 3439.6408,-67.0984 3449.4364,-71.1352 3449.8157,-64.1455"/>
</g>
<!-- Node116&#45;&gt;Node73 -->
<g id="edge114" class="edge">
<title>Node116&#45;&gt;Node73</title>
<path fill="none" stroke="#191970" d="M3813.3038,-183.0256C3797.7115,-181.4168 3781.657,-179.9803 3766.5,-179 2844.7317,-119.3834 2611.1843,-186.1806 1688.5,-143 1649.1272,-141.1574 1605.5365,-137.9789 1568.8737,-134.978"/>
<polygon fill="#191970" stroke="#191970" points="1568.9807,-131.475 1558.7259,-134.1376 1568.4029,-138.4511 1568.9807,-131.475"/>
</g>
<!-- Node117&#45;&gt;Node2 -->
<g id="edge118" class="edge">
<title>Node117&#45;&gt;Node2</title>
<path fill="none" stroke="#191970" d="M1487.8345,-186.3051C1515.0698,-183.9023 1544.9898,-181.3029 1572.5,-179 1783.4534,-161.3413 2033.113,-141.9558 2151.931,-132.8219"/>
<polygon fill="#191970" stroke="#191970" points="2152.28,-136.3055 2161.9825,-132.0497 2151.7438,-129.3261 2152.28,-136.3055"/>
</g>
<!-- Node117&#45;&gt;Node11 -->
<g id="edge120" class="edge">
<title>Node117&#45;&gt;Node11</title>
<path fill="none" stroke="#191970" d="M1470.5584,-179.4639C1537.7219,-165.8277 1634.1209,-146.2558 1687.3874,-135.441"/>
<polygon fill="#191970" stroke="#191970" points="1688.3405,-138.819 1697.4441,-133.3992 1686.9477,-131.959 1688.3405,-138.819"/>
</g>
<!-- Node117&#45;&gt;Node13 -->
<g id="edge122" class="edge">
<title>Node117&#45;&gt;Node13</title>
<path fill="none" stroke="#191970" d="M1350.3517,-179.3974C1321.6442,-169.686 1284.1123,-156.4128 1251.5,-143 1250.1463,-142.4432 1248.7679,-141.8606 1247.3802,-141.2613"/>
<polygon fill="#191970" stroke="#191970" points="1248.8097,-138.0665 1238.2535,-137.1619 1245.9415,-144.452 1248.8097,-138.0665"/>
</g>
<!-- Node117&#45;&gt;Node27 -->
<g id="edge119" class="edge">
<title>Node117&#45;&gt;Node27</title>
<path fill="none" stroke="#191970" d="M1487.6105,-183.8837C1620.1837,-168.436 1859.478,-140.553 1942.3297,-130.899"/>
<polygon fill="#191970" stroke="#191970" points="1942.773,-134.3711 1952.3007,-129.7371 1941.9628,-127.4181 1942.773,-134.3711"/>
</g>
<!-- Node117&#45;&gt;Node41 -->
<g id="edge121" class="edge">
<title>Node117&#45;&gt;Node41</title>
<path fill="none" stroke="#191970" d="M1447.1155,-179.4581C1524.1767,-156.6698 1664.5433,-115.6447 1688.5,-112 1862.1966,-85.5746 3163.4135,-69.0195 3385.3548,-66.374"/>
<polygon fill="#191970" stroke="#191970" points="3385.4232,-69.8735 3395.381,-66.2552 3385.3402,-62.874 3385.4232,-69.8735"/>
</g>
<!-- Node117&#45;&gt;Node73 -->
<g id="edge124" class="edge">
<title>Node117&#45;&gt;Node73</title>
<path fill="none" stroke="#191970" d="M1416.6955,-179.2967C1430.966,-168.5537 1450.0468,-154.1895 1464.4948,-143.3129"/>
<polygon fill="#191970" stroke="#191970" points="1466.9234,-145.8656 1472.8076,-137.055 1462.7133,-140.2731 1466.9234,-145.8656"/>
</g>
<!-- Node117&#45;&gt;Node87 -->
<g id="edge123" class="edge">
<title>Node117&#45;&gt;Node87</title>
<path fill="none" stroke="#191970" d="M1380.8428,-179.2967C1370.0923,-168.8578 1355.8206,-154.9997 1344.7445,-144.2446"/>
<polygon fill="#191970" stroke="#191970" points="1346.9527,-141.5103 1337.3402,-137.055 1342.0763,-146.5323 1346.9527,-141.5103"/>
</g>
<!-- Node118&#45;&gt;Node2 -->
<g id="edge126" class="edge">
<title>Node118&#45;&gt;Node2</title>
<path fill="none" stroke="#191970" d="M3111.5921,-180.9701C3106.8336,-180.2358 3102.1013,-179.5678 3097.5,-179 2799.2359,-142.1966 2440.4898,-131.5328 2291.5749,-128.5769"/>
<polygon fill="#191970" stroke="#191970" points="2291.285,-125.0708 2281.2194,-128.3771 2291.15,-132.0695 2291.285,-125.0708"/>
</g>
<!-- Node118&#45;&gt;Node11 -->
<g id="edge127" class="edge">
<title>Node118&#45;&gt;Node11</title>
<path fill="none" stroke="#191970" d="M3111.758,-190.1764C3057.8003,-186.8269 2980.3303,-182.2285 2912.5,-179 2482.0236,-158.5107 2373.8304,-166.3559 1943.5,-143 1881.3082,-139.6246 1809.1979,-134.1663 1765.7527,-130.709"/>
<polygon fill="#191970" stroke="#191970" points="1765.8599,-127.2065 1755.6124,-129.897 1765.3011,-134.1842 1765.8599,-127.2065"/>
</g>
<!-- Node118&#45;&gt;Node19 -->
<g id="edge130" class="edge">
<title>Node118&#45;&gt;Node19</title>
<path fill="none" stroke="#191970" d="M3111.9898,-183.7045C3100.1785,-181.9978 3087.994,-180.3527 3076.5,-179 2727.863,-137.9705 2640.0159,-131.2302 2289.5,-112 1642.2758,-76.4917 1479.2369,-100.4326 831.5,-76 788.3333,-74.3718 739.8767,-71.9202 701.8237,-69.852"/>
<polygon fill="#191970" stroke="#191970" points="701.5562,-66.3322 691.3797,-69.2799 701.1732,-73.3217 701.5562,-66.3322"/>
</g>
<!-- Node118&#45;&gt;Node41 -->
<g id="edge128" class="edge">
<title>Node118&#45;&gt;Node41</title>
<path fill="none" stroke="#191970" d="M3207.7363,-179.2548C3254.0634,-154.242 3345.5748,-104.8335 3390.8479,-80.3899"/>
<polygon fill="#191970" stroke="#191970" points="3392.6374,-83.4013 3399.7739,-75.5706 3389.3117,-77.2418 3392.6374,-83.4013"/>
</g>
<!-- Node118&#45;&gt;Node97 -->
<g id="edge129" class="edge">
<title>Node118&#45;&gt;Node97</title>
<path fill="none" stroke="#191970" d="M3239.1956,-179.4639C3279.6957,-169.2627 3333.3843,-155.7397 3375.8391,-145.0462"/>
<polygon fill="#191970" stroke="#191970" points="3376.7018,-148.4383 3385.544,-142.6017 3374.992,-141.6503 3376.7018,-148.4383"/>
</g>
<!-- Node119&#45;&gt;Node2 -->
<g id="edge132" class="edge">
<title>Node119&#45;&gt;Node2</title>
<path fill="none" stroke="#191970" d="M2992.691,-246.1887C2985.7126,-226.8111 2970.772,-194.1386 2945.5,-179 2890.2805,-145.9221 2461.9904,-132.8387 2291.3379,-128.9047"/>
<polygon fill="#191970" stroke="#191970" points="2291.2842,-125.4027 2281.2074,-128.6749 2291.1254,-132.4009 2291.2842,-125.4027"/>
</g>
<!-- Node119&#45;&gt;Node27 -->
<g id="edge133" class="edge">
<title>Node119&#45;&gt;Node27</title>
<path fill="none" stroke="#191970" d="M2982.0156,-246.2005C2958.0999,-222.6086 2914.6818,-179.9454 2912.5,-179 2834.9305,-145.387 2236.8529,-148.6076 2152.5,-143 2098.8844,-139.4358 2036.4644,-133.7504 2000.7069,-130.3459"/>
<polygon fill="#191970" stroke="#191970" points="2000.7935,-126.8382 1990.505,-129.3674 2000.1251,-133.8062 2000.7935,-126.8382"/>
</g>
<!-- Node119&#45;&gt;Node41 -->
<g id="edge134" class="edge">
<title>Node119&#45;&gt;Node41</title>
<path fill="none" stroke="#191970" d="M3065.0432,-256.7185C3199.6692,-246.9072 3489.9988,-224.2284 3506.5,-210 3539.9788,-181.1323 3547.7511,-148.9602 3523.5,-112 3507.3223,-87.3441 3474.7726,-75.8365 3449.9873,-70.5069"/>
<polygon fill="#191970" stroke="#191970" points="3450.3901,-67.0206 3439.9108,-68.5808 3449.0758,-73.8961 3450.3901,-67.0206"/>
</g>
<!-- Node119&#45;&gt;Node87 -->
<g id="edge135" class="edge">
<title>Node119&#45;&gt;Node87</title>
<path fill="none" stroke="#191970" d="M2929.8201,-259.7656C2614.4154,-251.6449 1303.7386,-217.4611 1296.5,-210 1279.0378,-192.0011 1296.6419,-163.2329 1311.569,-144.8626"/>
<polygon fill="#191970" stroke="#191970" points="1314.2587,-147.1026 1318.1034,-137.23 1308.9412,-142.5502 1314.2587,-147.1026"/>
</g>
<!-- Node119&#45;&gt;Node97 -->
<g id="edge136" class="edge">
<title>Node119&#45;&gt;Node97</title>
<path fill="none" stroke="#191970" d="M3065.0991,-256.8071C3196.6433,-247.3493 3475.4711,-225.574 3489.5,-210 3505.5656,-192.165 3488.3898,-167.407 3471.015,-149.6748"/>
<polygon fill="#191970" stroke="#191970" points="3473.2716,-146.988 3463.6528,-142.5462 3468.4023,-152.0169 3473.2716,-146.988"/>
</g>
<!-- Node119&#45;&gt;Node118 -->
<g id="edge137" class="edge">
<title>Node119&#45;&gt;Node118</title>
<path fill="none" stroke="#191970" d="M3038.3444,-246.4639C3065.1799,-236.5849 3100.4782,-223.5905 3129.0629,-213.0675"/>
<polygon fill="#191970" stroke="#191970" points="3130.3023,-216.3409 3138.4775,-209.6017 3127.884,-209.7719 3130.3023,-216.3409"/>
</g>
</g>
</svg>
