<?xml version="1.0" encoding="UTF-8" standalone="no"?>
<!DOCTYPE svg PUBLIC "-//W3C//DTD SVG 1.1//EN"
 "http://www.w3.org/Graphics/SVG/1.1/DTD/svg11.dtd">
<!-- Generated by graphviz version 2.40.1 (20161225.0304)
 -->
<!-- Title: src/GuiBase/Viewer/Gizmo/RotateGizmo.hpp Pages: 1 -->
<!--zoomable 542 -->
<svg id="main" version="1.1" xmlns="http://www.w3.org/2000/svg" xmlns:xlink="http://www.w3.org/1999/xlink" xml:space="preserve" onload="init(evt)">
<style type="text/css"><![CDATA[
.edge:hover path { stroke: red; }
.edge:hover polygon { stroke: red; fill: red; }
]]></style>
<script type="text/javascript"><![CDATA[
var edges = document.getElementsByTagName('g');
if (edges && edges.length) {
  for (var i=0;i<edges.length;i++) {
    if (edges[i].id.substr(0,4)=='edge') {
      edges[i].setAttribute('class','edge');
    }
  }
}
]]></script>
        <defs>
                <circle id="rim" cx="0" cy="0" r="7"/>
                <circle id="rim2" cx="0" cy="0" r="3.5"/>
                <g id="zoomPlus">
                        <use xlink:href="#rim" fill="#404040">
                                <set attributeName="fill" to="#808080" begin="zoomplus.mouseover" end="zoomplus.mouseout"/>
                        </use>
                        <path d="M-4,0h8M0,-4v8" fill="none" stroke="white" stroke-width="1.5" pointer-events="none"/>
                </g>
                <g id="zoomMin">
                        <use xlink:href="#rim" fill="#404040">
                                <set attributeName="fill" to="#808080" begin="zoomminus.mouseover" end="zoomminus.mouseout"/>
                        </use>
                        <path d="M-4,0h8" fill="none" stroke="white" stroke-width="1.5" pointer-events="none"/>
                </g>
                <g id="dirArrow">
                        <path fill="none" stroke="white" stroke-width="1.5" d="M0,-3.0v7 M-2.5,-0.5L0,-3.0L2.5,-0.5"/>
                </g>
               <g id="resetDef">
                       <use xlink:href="#rim2" fill="#404040">
                               <set attributeName="fill" to="#808080" begin="reset.mouseover" end="reset.mouseout"/>
                       </use>
               </g>
        </defs>

<script type="text/javascript">
var viewWidth = 1618;
var viewHeight = 542;
var sectionId = 'dynsection-0';
</script>
<script xlink:href="svgpan.js"/>
<svg id="graph" class="graph">
<g id="viewport">
<title>src/GuiBase/Viewer/Gizmo/RotateGizmo.hpp</title>
<polygon fill="#ffffff" stroke="transparent" points="-4,4 -4,-538 1614,-538 1614,4 -4,4"/>
<!-- Node0 -->
<g id="node1" class="node">
<title>Node0</title>
<polygon fill="#bfbfbf" stroke="#000000" points="558,-503.5 558,-533.5 696,-533.5 696,-503.5 558,-503.5"/>
<text text-anchor="start" x="566" y="-521.5" font-family="Helvetica,sans-Serif" font-size="10.00" fill="#000000">src/GuiBase/Viewer</text>
<text text-anchor="middle" x="627" y="-510.5" font-family="Helvetica,sans-Serif" font-size="10.00" fill="#000000">/Gizmo/RotateGizmo.hpp</text>
</g>
<!-- Node1 -->
<g id="node2" class="node">
<title>Node1</title>
<g id="a_node2"><a xlink:href="Gizmo_8hpp.html" target="_top" xlink:title="GuiBase/Viewer/Gizmo\l/Gizmo.hpp">
<polygon fill="#ffffff" stroke="#000000" points="563,-436.5 563,-466.5 691,-466.5 691,-436.5 563,-436.5"/>
<text text-anchor="start" x="571" y="-454.5" font-family="Helvetica,sans-Serif" font-size="10.00" fill="#000000">GuiBase/Viewer/Gizmo</text>
<text text-anchor="middle" x="627" y="-443.5" font-family="Helvetica,sans-Serif" font-size="10.00" fill="#000000">/Gizmo.hpp</text>
</a>
</g>
</g>
<!-- Node0&#45;&gt;Node1 -->
<g id="edge1" class="edge">
<title>Node0&#45;&gt;Node1</title>
<path fill="none" stroke="#191970" d="M627,-503.2967C627,-495.5013 627,-485.7991 627,-476.9064"/>
<polygon fill="#191970" stroke="#191970" points="630.5001,-476.6431 627,-466.6432 623.5001,-476.6432 630.5001,-476.6431"/>
</g>
<!-- Node2 -->
<g id="node3" class="node">
<title>Node2</title>
<polygon fill="#ffffff" stroke="#bfbfbf" points="888.5,-112.5 888.5,-131.5 935.5,-131.5 935.5,-112.5 888.5,-112.5"/>
<text text-anchor="middle" x="912" y="-119.5" font-family="Helvetica,sans-Serif" font-size="10.00" fill="#000000">vector</text>
</g>
<!-- Node1&#45;&gt;Node2 -->
<g id="edge2" class="edge">
<title>Node1&#45;&gt;Node2</title>
<path fill="none" stroke="#191970" d="M642.2991,-436.0548C673.0783,-404.7765 744.3003,-331.3567 800,-266 837.4676,-222.0364 878.3957,-167.6263 898.8364,-139.9688"/>
<polygon fill="#191970" stroke="#191970" points="901.8372,-141.7963 904.9485,-131.6686 896.2006,-137.6456 901.8372,-141.7963"/>
</g>
<!-- Node3 -->
<g id="node4" class="node">
<title>Node3</title>
<g id="a_node4"><a xlink:href="Types_8hpp.html" target="_top" xlink:title="Core/Types.hpp">
<polygon fill="#ffffff" stroke="#000000" points="463.5,-174 463.5,-193 554.5,-193 554.5,-174 463.5,-174"/>
<text text-anchor="middle" x="509" y="-181" font-family="Helvetica,sans-Serif" font-size="10.00" fill="#000000">Core/Types.hpp</text>
</a>
</g>
</g>
<!-- Node1&#45;&gt;Node3 -->
<g id="edge3" class="edge">
<title>Node1&#45;&gt;Node3</title>
<path fill="none" stroke="#191970" d="M620.3177,-436.3233C600.1083,-390.424 539.6584,-253.131 517.3718,-202.514"/>
<polygon fill="#191970" stroke="#191970" points="520.4566,-200.8343 513.2236,-193.0926 514.0501,-203.6551 520.4566,-200.8343"/>
</g>
<!-- Node14 -->
<g id="node15" class="node">
<title>Node14</title>
<g id="a_node15"><a xlink:href="Color_8hpp.html" target="_top" xlink:title="Core/Utils/Color.hpp">
<polygon fill="#ffffff" stroke="#000000" points="236.5,-241 236.5,-260 349.5,-260 349.5,-241 236.5,-241"/>
<text text-anchor="middle" x="293" y="-248" font-family="Helvetica,sans-Serif" font-size="10.00" fill="#000000">Core/Utils/Color.hpp</text>
</a>
</g>
</g>
<!-- Node1&#45;&gt;Node14 -->
<g id="edge14" class="edge">
<title>Node1&#45;&gt;Node14</title>
<path fill="none" stroke="#191970" d="M562.9568,-444.3497C485.7908,-435.1242 361.1288,-418.0972 318,-400 271.3571,-380.4282 248.9388,-378.0825 226,-333 219.7519,-320.7204 219.9114,-314.3595 226,-302 233.8181,-286.1298 249.1367,-273.7839 263.1551,-265.1633"/>
<polygon fill="#191970" stroke="#191970" points="265.1567,-268.0501 272.0876,-260.0368 261.6723,-261.9789 265.1567,-268.0501"/>
</g>
<!-- Node20 -->
<g id="node21" class="node">
<title>Node20</title>
<g id="a_node21"><a xlink:href="Index_8hpp.html" target="_top" xlink:title="Core/Utils/Index.hpp">
<polygon fill="#ffffff" stroke="#000000" points="327,-375 327,-394 443,-394 443,-375 327,-375"/>
<text text-anchor="middle" x="385" y="-382" font-family="Helvetica,sans-Serif" font-size="10.00" fill="#000000">Core/Utils/Index.hpp</text>
</a>
</g>
</g>
<!-- Node1&#45;&gt;Node20 -->
<g id="edge25" class="edge">
<title>Node1&#45;&gt;Node20</title>
<path fill="none" stroke="#191970" d="M572.6905,-436.4639C529.3969,-424.4776 469.5383,-407.9052 429.1573,-396.7254"/>
<polygon fill="#191970" stroke="#191970" points="429.9039,-393.3005 419.3325,-394.0053 428.0361,-400.0467 429.9039,-393.3005"/>
</g>
<!-- Node23 -->
<g id="node24" class="node">
<title>Node23</title>
<g id="a_node24"><a xlink:href="RadiumEngine_8hpp.html" target="_top" xlink:title="Engine/RadiumEngine.hpp">
<polygon fill="#ffffff" stroke="#000000" points="647,-241 647,-260 791,-260 791,-241 647,-241"/>
<text text-anchor="middle" x="719" y="-248" font-family="Helvetica,sans-Serif" font-size="10.00" fill="#000000">Engine/RadiumEngine.hpp</text>
</a>
</g>
</g>
<!-- Node1&#45;&gt;Node23 -->
<g id="edge30" class="edge">
<title>Node1&#45;&gt;Node23</title>
<path fill="none" stroke="#191970" d="M633.915,-436.3923C650.445,-400.2777 692.2201,-309.0083 710.3653,-269.3649"/>
<polygon fill="#191970" stroke="#191970" points="713.555,-270.8057 714.5345,-260.2562 707.1901,-267.8923 713.555,-270.8057"/>
</g>
<!-- Node29 -->
<g id="node30" class="node">
<title>Node29</title>
<g id="a_node30"><a xlink:href="RenderParameters_8hpp.html" target="_top" xlink:title="Engine/Renderer/RenderTechnique\l/RenderParameters.hpp">
<polygon fill="#ffffff" stroke="#000000" points="932,-369.5 932,-399.5 1114,-399.5 1114,-369.5 932,-369.5"/>
<text text-anchor="start" x="940" y="-387.5" font-family="Helvetica,sans-Serif" font-size="10.00" fill="#000000">Engine/Renderer/RenderTechnique</text>
<text text-anchor="middle" x="1023" y="-376.5" font-family="Helvetica,sans-Serif" font-size="10.00" fill="#000000">/RenderParameters.hpp</text>
</a>
</g>
</g>
<!-- Node1&#45;&gt;Node29 -->
<g id="edge40" class="edge">
<title>Node1&#45;&gt;Node29</title>
<path fill="none" stroke="#191970" d="M691.0644,-440.6608C754.0978,-429.9961 851.2239,-413.5631 924.1562,-401.2236"/>
<polygon fill="#191970" stroke="#191970" points="925.0047,-404.6298 934.2806,-399.5106 923.8368,-397.7279 925.0047,-404.6298"/>
</g>
<!-- Node4 -->
<g id="node5" class="node">
<title>Node4</title>
<g id="a_node5"><a xlink:href="RaCore_8hpp.html" target="_top" xlink:title="Core/RaCore.hpp">
<polygon fill="#ffffff" stroke="#000000" points="648,-112.5 648,-131.5 746,-131.5 746,-112.5 648,-112.5"/>
<text text-anchor="middle" x="697" y="-119.5" font-family="Helvetica,sans-Serif" font-size="10.00" fill="#000000">Core/RaCore.hpp</text>
</a>
</g>
</g>
<!-- Node3&#45;&gt;Node4 -->
<g id="edge4" class="edge">
<title>Node3&#45;&gt;Node4</title>
<path fill="none" stroke="#191970" d="M538.375,-173.8906C570.6586,-163.3298 622.6535,-146.3208 658.2547,-134.6747"/>
<polygon fill="#191970" stroke="#191970" points="659.4151,-137.9776 667.8313,-131.5419 657.2387,-131.3246 659.4151,-137.9776"/>
</g>
<!-- Node11 -->
<g id="node12" class="node">
<title>Node11</title>
<polygon fill="#ffffff" stroke="#bfbfbf" points="462.5,-112.5 462.5,-131.5 531.5,-131.5 531.5,-112.5 462.5,-112.5"/>
<text text-anchor="middle" x="497" y="-119.5" font-family="Helvetica,sans-Serif" font-size="10.00" fill="#000000">Eigen/Core</text>
</g>
<!-- Node3&#45;&gt;Node11 -->
<g id="edge11" class="edge">
<title>Node3&#45;&gt;Node11</title>
<path fill="none" stroke="#191970" d="M507.125,-173.8906C505.4441,-165.276 502.926,-152.3708 500.8216,-141.5858"/>
<polygon fill="#191970" stroke="#191970" points="504.2518,-140.8895 498.9014,-131.7449 497.3814,-142.2301 504.2518,-140.8895"/>
</g>
<!-- Node12 -->
<g id="node13" class="node">
<title>Node12</title>
<polygon fill="#ffffff" stroke="#bfbfbf" points="349.5,-112.5 349.5,-131.5 444.5,-131.5 444.5,-112.5 349.5,-112.5"/>
<text text-anchor="middle" x="397" y="-119.5" font-family="Helvetica,sans-Serif" font-size="10.00" fill="#000000">Eigen/Geometry</text>
</g>
<!-- Node3&#45;&gt;Node12 -->
<g id="edge12" class="edge">
<title>Node3&#45;&gt;Node12</title>
<path fill="none" stroke="#191970" d="M491.5,-173.8906C473.2535,-163.8713 444.4376,-148.0483 423.4194,-136.5071"/>
<polygon fill="#191970" stroke="#191970" points="424.8272,-133.2872 414.3771,-131.5419 421.458,-139.423 424.8272,-133.2872"/>
</g>
<!-- Node13 -->
<g id="node14" class="node">
<title>Node13</title>
<polygon fill="#ffffff" stroke="#bfbfbf" points="550,-112.5 550,-131.5 630,-131.5 630,-112.5 550,-112.5"/>
<text text-anchor="middle" x="590" y="-119.5" font-family="Helvetica,sans-Serif" font-size="10.00" fill="#000000">Eigen/Sparse</text>
</g>
<!-- Node3&#45;&gt;Node13 -->
<g id="edge13" class="edge">
<title>Node3&#45;&gt;Node13</title>
<path fill="none" stroke="#191970" d="M521.6563,-173.8906C534.3768,-164.2324 554.2004,-149.1812 569.2284,-137.771"/>
<polygon fill="#191970" stroke="#191970" points="571.5846,-140.3766 577.4326,-131.5419 567.3516,-134.8015 571.5846,-140.3766"/>
</g>
<!-- Node5 -->
<g id="node6" class="node">
<title>Node5</title>
<g id="a_node6"><a xlink:href="CoreMacros_8hpp.html" target="_top" xlink:title="Core/CoreMacros.hpp">
<polygon fill="#ffffff" stroke="#000000" points="817,-56.5 817,-75.5 937,-75.5 937,-56.5 817,-56.5"/>
<text text-anchor="middle" x="877" y="-63.5" font-family="Helvetica,sans-Serif" font-size="10.00" fill="#000000">Core/CoreMacros.hpp</text>
</a>
</g>
</g>
<!-- Node4&#45;&gt;Node5 -->
<g id="edge5" class="edge">
<title>Node4&#45;&gt;Node5</title>
<path fill="none" stroke="#191970" d="M727.9431,-112.3733C758.0039,-103.021 803.8026,-88.7725 836.6978,-78.5385"/>
<polygon fill="#191970" stroke="#191970" points="837.9519,-81.8139 846.4607,-75.5011 835.8723,-75.1299 837.9519,-81.8139"/>
</g>
<!-- Node6 -->
<g id="node7" class="node">
<title>Node6</title>
<polygon fill="#ffffff" stroke="#bfbfbf" points="818,-.5 818,-19.5 870,-19.5 870,-.5 818,-.5"/>
<text text-anchor="middle" x="844" y="-7.5" font-family="Helvetica,sans-Serif" font-size="10.00" fill="#000000">cassert</text>
</g>
<!-- Node5&#45;&gt;Node6 -->
<g id="edge6" class="edge">
<title>Node5&#45;&gt;Node6</title>
<path fill="none" stroke="#191970" d="M871.2518,-56.2455C866.7565,-48.617 860.3752,-37.7881 854.9175,-28.5267"/>
<polygon fill="#191970" stroke="#191970" points="857.7747,-26.4811 849.6823,-19.6427 851.7439,-30.035 857.7747,-26.4811"/>
</g>
<!-- Node7 -->
<g id="node8" class="node">
<title>Node7</title>
<polygon fill="#ffffff" stroke="#bfbfbf" points="888,-.5 888,-19.5 934,-19.5 934,-.5 888,-.5"/>
<text text-anchor="middle" x="911" y="-7.5" font-family="Helvetica,sans-Serif" font-size="10.00" fill="#000000">cstdio</text>
</g>
<!-- Node5&#45;&gt;Node7 -->
<g id="edge7" class="edge">
<title>Node5&#45;&gt;Node7</title>
<path fill="none" stroke="#191970" d="M882.9223,-56.2455C887.6027,-48.5367 894.2673,-37.5598 899.9289,-28.2348"/>
<polygon fill="#191970" stroke="#191970" points="902.9475,-30.007 905.1455,-19.6427 896.9639,-26.3741 902.9475,-30.007"/>
</g>
<!-- Node8 -->
<g id="node9" class="node">
<title>Node8</title>
<polygon fill="#ffffff" stroke="#bfbfbf" points="952,-.5 952,-19.5 1012,-19.5 1012,-.5 952,-.5"/>
<text text-anchor="middle" x="982" y="-7.5" font-family="Helvetica,sans-Serif" font-size="10.00" fill="#000000">iostream</text>
</g>
<!-- Node5&#45;&gt;Node8 -->
<g id="edge8" class="edge">
<title>Node5&#45;&gt;Node8</title>
<path fill="none" stroke="#191970" d="M895.2896,-56.2455C911.7762,-47.4527 936.2352,-34.4079 954.9765,-24.4125"/>
<polygon fill="#191970" stroke="#191970" points="956.7435,-27.4368 963.92,-19.6427 953.4494,-21.2604 956.7435,-27.4368"/>
</g>
<!-- Node9 -->
<g id="node10" class="node">
<title>Node9</title>
<polygon fill="#ffffff" stroke="#bfbfbf" points="1233,-.5 1233,-19.5 1289,-19.5 1289,-.5 1233,-.5"/>
<text text-anchor="middle" x="1261" y="-7.5" font-family="Helvetica,sans-Serif" font-size="10.00" fill="#000000">sstream</text>
</g>
<!-- Node5&#45;&gt;Node9 -->
<g id="edge9" class="edge">
<title>Node5&#45;&gt;Node9</title>
<path fill="none" stroke="#191970" d="M937.4224,-57.1884C1017.4159,-45.5227 1156.1219,-25.2947 1222.9067,-15.5553"/>
<polygon fill="#191970" stroke="#191970" points="1223.5975,-18.9916 1232.9877,-14.0851 1222.5873,-12.0649 1223.5975,-18.9916"/>
</g>
<!-- Node10 -->
<g id="node11" class="node">
<title>Node10</title>
<polygon fill="#ffffff" stroke="#bfbfbf" points="752,-.5 752,-19.5 800,-19.5 800,-.5 752,-.5"/>
<text text-anchor="middle" x="776" y="-7.5" font-family="Helvetica,sans-Serif" font-size="10.00" fill="#000000">thread</text>
</g>
<!-- Node5&#45;&gt;Node10 -->
<g id="edge10" class="edge">
<title>Node5&#45;&gt;Node10</title>
<path fill="none" stroke="#191970" d="M859.4071,-56.2455C843.621,-47.4928 820.2361,-34.527 802.2413,-24.5496"/>
<polygon fill="#191970" stroke="#191970" points="803.8341,-21.4308 793.3913,-19.6427 800.4397,-27.5528 803.8341,-21.4308"/>
</g>
<!-- Node14&#45;&gt;Node5 -->
<g id="edge15" class="edge">
<title>Node14&#45;&gt;Node5</title>
<path fill="none" stroke="#191970" d="M294.8914,-240.6974C300.6575,-211.8961 318.9122,-128.5205 340,-112 375.975,-83.8166 669.7735,-71.8595 806.9396,-67.7762"/>
<polygon fill="#191970" stroke="#191970" points="807.043,-71.2748 816.9366,-67.4844 806.8387,-64.2778 807.043,-71.2748"/>
</g>
<!-- Node14&#45;&gt;Node11 -->
<g id="edge22" class="edge">
<title>Node14&#45;&gt;Node11</title>
<path fill="none" stroke="#191970" d="M307.5037,-240.9623C331.1452,-225.4585 379.5188,-193.9143 421,-168 438.0065,-157.3756 457.3418,-145.6779 472.2539,-136.7375"/>
<polygon fill="#191970" stroke="#191970" points="474.1217,-139.6986 480.9067,-131.5614 470.5282,-133.6913 474.1217,-139.6986"/>
</g>
<!-- Node14&#45;&gt;Node12 -->
<g id="edge23" class="edge">
<title>Node14&#45;&gt;Node12</title>
<path fill="none" stroke="#191970" d="M301.07,-240.642C309.5395,-230.2872 323.2328,-213.5212 335,-199 351.4109,-178.7484 370.1714,-155.4249 382.7176,-139.8021"/>
<polygon fill="#191970" stroke="#191970" points="385.4634,-141.9728 388.9941,-131.9835 380.0046,-137.5907 385.4634,-141.9728"/>
</g>
<!-- Node15 -->
<g id="node16" class="node">
<title>Node15</title>
<g id="a_node16"><a xlink:href="Math_8hpp.html" target="_top" xlink:title="Core/Math/Math.hpp">
<polygon fill="#ffffff" stroke="#000000" points="107,-174 107,-193 221,-193 221,-174 107,-174"/>
<text text-anchor="middle" x="164" y="-181" font-family="Helvetica,sans-Serif" font-size="10.00" fill="#000000">Core/Math/Math.hpp</text>
</a>
</g>
</g>
<!-- Node14&#45;&gt;Node15 -->
<g id="edge16" class="edge">
<title>Node14&#45;&gt;Node15</title>
<path fill="none" stroke="#191970" d="M274.5174,-240.9005C252.7725,-229.6067 216.4677,-210.7506 191.436,-197.7497"/>
<polygon fill="#191970" stroke="#191970" points="192.9359,-194.5849 182.4483,-193.0817 189.7095,-200.797 192.9359,-194.5849"/>
</g>
<!-- Node19 -->
<g id="node20" class="node">
<title>Node19</title>
<polygon fill="#ffffff" stroke="#bfbfbf" points="239,-174 239,-193 293,-193 293,-174 239,-174"/>
<text text-anchor="middle" x="266" y="-181" font-family="Helvetica,sans-Serif" font-size="10.00" fill="#000000">random</text>
</g>
<!-- Node14&#45;&gt;Node19 -->
<g id="edge24" class="edge">
<title>Node14&#45;&gt;Node19</title>
<path fill="none" stroke="#191970" d="M289.1316,-240.9005C285.1216,-230.95 278.7461,-215.1292 273.703,-202.6147"/>
<polygon fill="#191970" stroke="#191970" points="276.8454,-201.0486 269.8613,-193.0817 270.3528,-203.6651 276.8454,-201.0486"/>
</g>
<!-- Node15&#45;&gt;Node4 -->
<g id="edge17" class="edge">
<title>Node15&#45;&gt;Node4</title>
<path fill="none" stroke="#191970" d="M200.4705,-173.9536C210.0256,-171.7229 220.3544,-169.549 230,-168 406.917,-139.5888 456.269,-154.9428 637.8378,-132.0463"/>
<polygon fill="#191970" stroke="#191970" points="638.5223,-135.4872 647.9956,-130.7431 637.6315,-128.5441 638.5223,-135.4872"/>
</g>
<!-- Node16 -->
<g id="node17" class="node">
<title>Node16</title>
<polygon fill="#ffffff" stroke="#bfbfbf" points="0,-112.5 0,-131.5 64,-131.5 64,-112.5 0,-112.5"/>
<text text-anchor="middle" x="32" y="-119.5" font-family="Helvetica,sans-Serif" font-size="10.00" fill="#000000">algorithm</text>
</g>
<!-- Node15&#45;&gt;Node16 -->
<g id="edge18" class="edge">
<title>Node15&#45;&gt;Node16</title>
<path fill="none" stroke="#191970" d="M143.375,-173.8906C121.4827,-163.6908 86.6807,-147.4763 61.8073,-135.8875"/>
<polygon fill="#191970" stroke="#191970" points="63.0228,-132.5926 52.4802,-131.5419 60.0665,-138.9377 63.0228,-132.5926"/>
</g>
<!-- Node17 -->
<g id="node18" class="node">
<title>Node17</title>
<polygon fill="#ffffff" stroke="#bfbfbf" points="82.5,-112.5 82.5,-131.5 129.5,-131.5 129.5,-112.5 82.5,-112.5"/>
<text text-anchor="middle" x="106" y="-119.5" font-family="Helvetica,sans-Serif" font-size="10.00" fill="#000000">cmath</text>
</g>
<!-- Node15&#45;&gt;Node17 -->
<g id="edge19" class="edge">
<title>Node15&#45;&gt;Node17</title>
<path fill="none" stroke="#191970" d="M154.9375,-173.8906C146.2207,-164.6478 132.846,-150.466 122.2804,-139.2628"/>
<polygon fill="#191970" stroke="#191970" points="124.5976,-136.6186 115.1903,-131.7449 119.505,-141.4213 124.5976,-136.6186"/>
</g>
<!-- Node18 -->
<g id="node19" class="node">
<title>Node18</title>
<g id="a_node19"><a xlink:href="Math_8inl.html" target="_top" xlink:title="Core/Math/Math.inl">
<polygon fill="#ffffff" stroke="#000000" points="148,-112.5 148,-131.5 256,-131.5 256,-112.5 148,-112.5"/>
<text text-anchor="middle" x="202" y="-119.5" font-family="Helvetica,sans-Serif" font-size="10.00" fill="#000000">Core/Math/Math.inl</text>
</a>
</g>
</g>
<!-- Node15&#45;&gt;Node18 -->
<g id="edge20" class="edge">
<title>Node15&#45;&gt;Node18</title>
<path fill="none" stroke="#191970" d="M164.875,-173.8906C168.7067,-164.8273 176.8627,-151.0149 184.7303,-139.9188"/>
<polygon fill="#191970" stroke="#191970" points="187.6669,-141.8375 190.89,-131.7449 182.0765,-137.6247 187.6669,-141.8375"/>
</g>
<!-- Node18&#45;&gt;Node15 -->
<g id="edge21" class="edge">
<title>Node18&#45;&gt;Node15</title>
<path fill="none" stroke="#191970" d="M201.0676,-131.7449C197.193,-140.8552 189.0171,-154.6775 181.1524,-165.7465"/>
<polygon fill="#191970" stroke="#191970" points="178.2351,-163.8018 175,-173.8906 183.8205,-168.0212 178.2351,-163.8018"/>
</g>
<!-- Node20&#45;&gt;Node4 -->
<g id="edge26" class="edge">
<title>Node20&#45;&gt;Node4</title>
<path fill="none" stroke="#191970" d="M392.169,-374.736C399.1979,-364.7277 409.7431,-348.4807 416,-333 444.1992,-263.2303 399.7536,-220.1569 454,-168 457.3418,-164.7869 566.8312,-144.9628 637.6854,-132.4097"/>
<polygon fill="#191970" stroke="#191970" points="638.6042,-135.8016 647.8417,-130.6132 637.3849,-128.9086 638.6042,-135.8016"/>
</g>
<!-- Node21 -->
<g id="node22" class="node">
<title>Node21</title>
<polygon fill="#ffffff" stroke="#bfbfbf" points="363,-308 363,-327 407,-327 407,-308 363,-308"/>
<text text-anchor="middle" x="385" y="-315" font-family="Helvetica,sans-Serif" font-size="10.00" fill="#000000">limits</text>
</g>
<!-- Node20&#45;&gt;Node21 -->
<g id="edge27" class="edge">
<title>Node20&#45;&gt;Node21</title>
<path fill="none" stroke="#191970" d="M385,-374.9005C385,-365.149 385,-349.7597 385,-337.3695"/>
<polygon fill="#191970" stroke="#191970" points="388.5001,-337.0816 385,-327.0817 381.5001,-337.0817 388.5001,-337.0816"/>
</g>
<!-- Node22 -->
<g id="node23" class="node">
<title>Node22</title>
<g id="a_node23"><a xlink:href="Index_8inl.html" target="_top" xlink:title="Core/Utils/Index.inl">
<polygon fill="#ffffff" stroke="#000000" points="235,-308 235,-327 345,-327 345,-308 235,-308"/>
<text text-anchor="middle" x="290" y="-315" font-family="Helvetica,sans-Serif" font-size="10.00" fill="#000000">Core/Utils/Index.inl</text>
</a>
</g>
</g>
<!-- Node20&#45;&gt;Node22 -->
<g id="edge28" class="edge">
<title>Node20&#45;&gt;Node22</title>
<path fill="none" stroke="#191970" d="M366.4882,-374.9005C349.0086,-364.0544 323.4297,-346.2339 306.6018,-333.3229"/>
<polygon fill="#191970" stroke="#191970" points="308.708,-330.5264 298.6888,-327.0817 304.373,-336.0226 308.708,-330.5264"/>
</g>
<!-- Node22&#45;&gt;Node20 -->
<g id="edge29" class="edge">
<title>Node22&#45;&gt;Node20</title>
<path fill="none" stroke="#191970" d="M308.4831,-327.0817C325.9538,-337.9201 351.533,-355.7395 368.3706,-368.6559"/>
<polygon fill="#191970" stroke="#191970" points="366.2699,-371.4567 376.2894,-374.9005 370.6044,-365.9601 366.2699,-371.4567"/>
</g>
<!-- Node23&#45;&gt;Node2 -->
<g id="edge39" class="edge">
<title>Node23&#45;&gt;Node2</title>
<path fill="none" stroke="#191970" d="M728.3897,-240.8954C744.8242,-224.454 780.3603,-190.5153 815,-168 835.1863,-154.8792 859.6984,-143.2875 879.0311,-135.0225"/>
<polygon fill="#191970" stroke="#191970" points="880.4667,-138.2159 888.3405,-131.1269 877.7645,-131.7585 880.4667,-138.2159"/>
</g>
<!-- Node23&#45;&gt;Node3 -->
<g id="edge33" class="edge">
<title>Node23&#45;&gt;Node3</title>
<path fill="none" stroke="#191970" d="M688.9121,-240.9005C652.032,-229.134 589.4242,-209.1591 548.6468,-196.1492"/>
<polygon fill="#191970" stroke="#191970" points="549.6228,-192.7868 539.0321,-193.0817 547.4951,-199.4557 549.6228,-192.7868"/>
</g>
<!-- Node24 -->
<g id="node25" class="node">
<title>Node24</title>
<g id="a_node25"><a xlink:href="RaEngine_8hpp.html" target="_top" xlink:title="Engine/RaEngine.hpp">
<polygon fill="#ffffff" stroke="#000000" points="997.5,-112.5 997.5,-131.5 1116.5,-131.5 1116.5,-112.5 997.5,-112.5"/>
<text text-anchor="middle" x="1057" y="-119.5" font-family="Helvetica,sans-Serif" font-size="10.00" fill="#000000">Engine/RaEngine.hpp</text>
</a>
</g>
</g>
<!-- Node23&#45;&gt;Node24 -->
<g id="edge31" class="edge">
<title>Node23&#45;&gt;Node24</title>
<path fill="none" stroke="#191970" d="M741.608,-240.9736C779.2296,-225.2177 857.1616,-192.9902 924,-168 955.555,-156.2019 991.7019,-143.7683 1018.34,-134.8064"/>
<polygon fill="#191970" stroke="#191970" points="1019.6852,-138.0469 1028.0543,-131.5502 1017.4604,-131.4099 1019.6852,-138.0469"/>
</g>
<!-- Node25 -->
<g id="node26" class="node">
<title>Node25</title>
<g id="a_node26"><a xlink:href="Singleton_8hpp.html" target="_top" xlink:title="Core/Utils/Singleton.hpp">
<polygon fill="#ffffff" stroke="#000000" points="629,-174 629,-193 763,-193 763,-174 629,-174"/>
<text text-anchor="middle" x="696" y="-181" font-family="Helvetica,sans-Serif" font-size="10.00" fill="#000000">Core/Utils/Singleton.hpp</text>
</a>
</g>
</g>
<!-- Node23&#45;&gt;Node25 -->
<g id="edge34" class="edge">
<title>Node23&#45;&gt;Node25</title>
<path fill="none" stroke="#191970" d="M715.7047,-240.9005C712.2888,-230.95 706.8578,-215.1292 702.5618,-202.6147"/>
<polygon fill="#191970" stroke="#191970" points="705.8465,-201.4035 699.2892,-193.0817 699.2258,-203.6763 705.8465,-201.4035"/>
</g>
<!-- Node26 -->
<g id="node27" class="node">
<title>Node26</title>
<polygon fill="#ffffff" stroke="#bfbfbf" points="573,-174 573,-193 611,-193 611,-174 573,-174"/>
<text text-anchor="middle" x="592" y="-181" font-family="Helvetica,sans-Serif" font-size="10.00" fill="#000000">map</text>
</g>
<!-- Node23&#45;&gt;Node26 -->
<g id="edge36" class="edge">
<title>Node23&#45;&gt;Node26</title>
<path fill="none" stroke="#191970" d="M700.313,-240.9615C680.3519,-230.7302 647.8245,-213.9354 620,-199 619.3391,-198.6452 618.67,-198.2848 617.9955,-197.9203"/>
<polygon fill="#191970" stroke="#191970" points="619.592,-194.8042 609.1386,-193.0792 616.2347,-200.9466 619.592,-194.8042"/>
</g>
<!-- Node27 -->
<g id="node28" class="node">
<title>Node27</title>
<polygon fill="#ffffff" stroke="#bfbfbf" points="933,-174 933,-193 991,-193 991,-174 933,-174"/>
<text text-anchor="middle" x="962" y="-181" font-family="Helvetica,sans-Serif" font-size="10.00" fill="#000000">memory</text>
</g>
<!-- Node23&#45;&gt;Node27 -->
<g id="edge37" class="edge">
<title>Node23&#45;&gt;Node27</title>
<path fill="none" stroke="#191970" d="M753.5579,-240.9717C798.3591,-228.6191 876.2794,-207.1349 923.106,-194.2239"/>
<polygon fill="#191970" stroke="#191970" points="924.1762,-197.5595 932.8861,-191.5273 922.3155,-190.8113 924.1762,-197.5595"/>
</g>
<!-- Node28 -->
<g id="node29" class="node">
<title>Node28</title>
<polygon fill="#ffffff" stroke="#bfbfbf" points="1356,-112.5 1356,-131.5 1400,-131.5 1400,-112.5 1356,-112.5"/>
<text text-anchor="middle" x="1378" y="-119.5" font-family="Helvetica,sans-Serif" font-size="10.00" fill="#000000">string</text>
</g>
<!-- Node23&#45;&gt;Node28 -->
<g id="edge38" class="edge">
<title>Node23&#45;&gt;Node28</title>
<path fill="none" stroke="#191970" d="M791.0596,-245.6744C954.6924,-234.5796 1341.0506,-207.5536 1352,-199 1369.403,-185.4049 1375.2447,-159.6513 1377.1568,-141.6881"/>
<polygon fill="#191970" stroke="#191970" points="1380.649,-141.9226 1377.9078,-131.6885 1373.6686,-141.3983 1380.649,-141.9226"/>
</g>
<!-- Node24&#45;&gt;Node5 -->
<g id="edge32" class="edge">
<title>Node24&#45;&gt;Node5</title>
<path fill="none" stroke="#191970" d="M1026.0569,-112.3733C995.9961,-103.021 950.1974,-88.7725 917.3022,-78.5385"/>
<polygon fill="#191970" stroke="#191970" points="918.1277,-75.1299 907.5393,-75.5011 916.0481,-81.8139 918.1277,-75.1299"/>
</g>
<!-- Node25&#45;&gt;Node4 -->
<g id="edge35" class="edge">
<title>Node25&#45;&gt;Node4</title>
<path fill="none" stroke="#191970" d="M696.1563,-173.8906C696.2949,-165.3657 696.5018,-152.6392 696.676,-141.9235"/>
<polygon fill="#191970" stroke="#191970" points="700.1784,-141.8005 696.8415,-131.7449 693.1793,-141.6866 700.1784,-141.8005"/>
</g>
<!-- Node29&#45;&gt;Node2 -->
<g id="edge43" class="edge">
<title>Node29&#45;&gt;Node2</title>
<path fill="none" stroke="#191970" d="M994.5966,-369.3658C980.9744,-360.5935 965.7512,-348.254 957,-333 942.0488,-306.9389 950.0045,-295.9783 948,-266 947.0808,-252.2529 941.6056,-247.2041 948,-235 961.0456,-210.1015 986.9544,-223.8985 1000,-199 1006.3944,-186.7959 1007.1375,-179.7849 1000,-168 988.1581,-148.4478 964.9746,-136.8091 945.3755,-130.1317"/>
<polygon fill="#191970" stroke="#191970" points="946.409,-126.7878 935.8206,-127.1578 944.3287,-133.4715 946.409,-126.7878"/>
</g>
<!-- Node29&#45;&gt;Node3 -->
<g id="edge50" class="edge">
<title>Node29&#45;&gt;Node3</title>
<path fill="none" stroke="#191970" d="M954.5034,-369.4413C875.8568,-350.7946 744.0464,-315.3475 638,-266 597.4289,-247.1207 554.4385,-217.4001 529.7511,-199.2577"/>
<polygon fill="#191970" stroke="#191970" points="531.6355,-196.2973 521.5223,-193.1391 527.4586,-201.9146 531.6355,-196.2973"/>
</g>
<!-- Node29&#45;&gt;Node24 -->
<g id="edge41" class="edge">
<title>Node29&#45;&gt;Node24</title>
<path fill="none" stroke="#191970" d="M1005.6434,-369.4642C995.7761,-359.9755 984.0236,-346.9124 977,-333 957.1714,-293.7237 940.082,-272.5575 963,-235 981.223,-205.1366 1010.4902,-225.7808 1033,-199 1046.6156,-182.801 1052.5195,-158.8937 1055.0718,-142.0242"/>
<polygon fill="#191970" stroke="#191970" points="1058.6008,-142.0055 1056.3568,-131.651 1051.6539,-141.1448 1058.6008,-142.0055"/>
</g>
<!-- Node30 -->
<g id="node31" class="node">
<title>Node30</title>
<polygon fill="#ffffff" stroke="#bfbfbf" points="1161,-112.5 1161,-131.5 1193,-131.5 1193,-112.5 1161,-112.5"/>
<text text-anchor="middle" x="1177" y="-119.5" font-family="Helvetica,sans-Serif" font-size="10.00" fill="#000000">set</text>
</g>
<!-- Node29&#45;&gt;Node30 -->
<g id="edge42" class="edge">
<title>Node29&#45;&gt;Node30</title>
<path fill="none" stroke="#191970" d="M1114.0251,-370.56C1172.8353,-355.9233 1243.3659,-326.1663 1271,-266 1276.7505,-253.4797 1279.2116,-246.0633 1271,-235 1238.0672,-190.6303 1184.9328,-243.3697 1152,-199 1138.995,-181.4786 1150.958,-156.89 1162.3885,-140.2499"/>
<polygon fill="#191970" stroke="#191970" points="1165.412,-142.0466 1168.5221,-131.9185 1159.7749,-137.8965 1165.412,-142.0466"/>
</g>
<!-- Node31 -->
<g id="node32" class="node">
<title>Node31</title>
<g id="a_node32"><a xlink:href="AlignedAllocator_8hpp.html" target="_top" xlink:title="Core/Containers/AlignedAllocator.hpp">
<polygon fill="#ffffff" stroke="#000000" points="986,-308 986,-327 1184,-327 1184,-308 986,-308"/>
<text text-anchor="middle" x="1085" y="-315" font-family="Helvetica,sans-Serif" font-size="10.00" fill="#000000">Core/Containers/AlignedAllocator.hpp</text>
</a>
</g>
</g>
<!-- Node29&#45;&gt;Node31 -->
<g id="edge44" class="edge">
<title>Node29&#45;&gt;Node31</title>
<path fill="none" stroke="#191970" d="M1037.0688,-369.2967C1046.6349,-358.9591 1059.3038,-345.2684 1069.2143,-334.5588"/>
<polygon fill="#191970" stroke="#191970" points="1071.935,-336.7718 1076.1581,-327.055 1066.7973,-332.0175 1071.935,-336.7718"/>
</g>
<!-- Node36 -->
<g id="node37" class="node">
<title>Node36</title>
<g id="a_node37"><a xlink:href="Log_8hpp.html" target="_top" xlink:title="Core/Utils/Log.hpp">
<polygon fill="#ffffff" stroke="#000000" points="1475,-174 1475,-193 1581,-193 1581,-174 1475,-174"/>
<text text-anchor="middle" x="1528" y="-181" font-family="Helvetica,sans-Serif" font-size="10.00" fill="#000000">Core/Utils/Log.hpp</text>
</a>
</g>
</g>
<!-- Node29&#45;&gt;Node36 -->
<g id="edge51" class="edge">
<title>Node29&#45;&gt;Node36</title>
<path fill="none" stroke="#191970" d="M1114.1617,-380.8622C1247.0931,-374.6664 1481.3998,-360.0309 1509,-333 1543.7793,-298.9381 1538.0396,-235.416 1532.3078,-203.2505"/>
<polygon fill="#191970" stroke="#191970" points="1535.7111,-202.4173 1530.3472,-193.2806 1528.8427,-203.7681 1535.7111,-202.4173"/>
</g>
<!-- Node39 -->
<g id="node40" class="node">
<title>Node39</title>
<g id="a_node40"><a xlink:href="RenderParameters_8inl.html" target="_top" xlink:title="Engine/Renderer/RenderTechnique\l/RenderParameters.inl">
<polygon fill="#ffffff" stroke="#000000" points="1318,-302.5 1318,-332.5 1500,-332.5 1500,-302.5 1318,-302.5"/>
<text text-anchor="start" x="1326" y="-320.5" font-family="Helvetica,sans-Serif" font-size="10.00" fill="#000000">Engine/Renderer/RenderTechnique</text>
<text text-anchor="middle" x="1409" y="-309.5" font-family="Helvetica,sans-Serif" font-size="10.00" fill="#000000">/RenderParameters.inl</text>
</a>
</g>
</g>
<!-- Node29&#45;&gt;Node39 -->
<g id="edge57" class="edge">
<title>Node29&#45;&gt;Node39</title>
<path fill="none" stroke="#191970" d="M1109.6259,-369.4639C1169.7394,-359.0297 1249.8752,-345.1201 1312.1092,-334.3178"/>
<polygon fill="#191970" stroke="#191970" points="1313.0758,-337.7025 1322.3299,-332.5438 1311.8786,-330.8056 1313.0758,-337.7025"/>
</g>
<!-- Node31&#45;&gt;Node4 -->
<g id="edge45" class="edge">
<title>Node31&#45;&gt;Node4</title>
<path fill="none" stroke="#191970" d="M1060.3868,-307.9245C1035.5244,-298.0628 996.1575,-281.9274 963,-266 872.6597,-222.6045 769.1789,-163.879 722.3608,-136.7998"/>
<polygon fill="#191970" stroke="#191970" points="723.9204,-133.6583 713.514,-131.669 720.4085,-139.7136 723.9204,-133.6583"/>
</g>
<!-- Node32 -->
<g id="node33" class="node">
<title>Node32</title>
<polygon fill="#ffffff" stroke="#bfbfbf" points="971.5,-241 971.5,-260 1054.5,-260 1054.5,-241 971.5,-241"/>
<text text-anchor="middle" x="1013" y="-248" font-family="Helvetica,sans-Serif" font-size="10.00" fill="#000000">mm_malloc.h</text>
</g>
<!-- Node31&#45;&gt;Node32 -->
<g id="edge46" class="edge">
<title>Node31&#45;&gt;Node32</title>
<path fill="none" stroke="#191970" d="M1074.6842,-307.9005C1063.2425,-297.2535 1044.5785,-279.8856 1030.7727,-267.0385"/>
<polygon fill="#191970" stroke="#191970" points="1033.0017,-264.3317 1023.2967,-260.0817 1028.2331,-269.4562 1033.0017,-264.3317"/>
</g>
<!-- Node33 -->
<g id="node34" class="node">
<title>Node33</title>
<polygon fill="#ffffff" stroke="#bfbfbf" points="1072.5,-241 1072.5,-260 1125.5,-260 1125.5,-241 1072.5,-241"/>
<text text-anchor="middle" x="1099" y="-248" font-family="Helvetica,sans-Serif" font-size="10.00" fill="#000000">cstddef</text>
</g>
<!-- Node31&#45;&gt;Node33 -->
<g id="edge47" class="edge">
<title>Node31&#45;&gt;Node33</title>
<path fill="none" stroke="#191970" d="M1087.0059,-307.9005C1089.0643,-298.0495 1092.3249,-282.4451 1094.9272,-269.9912"/>
<polygon fill="#191970" stroke="#191970" points="1098.3784,-270.5862 1096.9979,-260.0817 1091.5264,-269.1543 1098.3784,-270.5862"/>
</g>
<!-- Node34 -->
<g id="node35" class="node">
<title>Node34</title>
<polygon fill="#ffffff" stroke="#bfbfbf" points="1144,-241 1144,-260 1194,-260 1194,-241 1144,-241"/>
<text text-anchor="middle" x="1169" y="-248" font-family="Helvetica,sans-Serif" font-size="10.00" fill="#000000">cstdint</text>
</g>
<!-- Node31&#45;&gt;Node34 -->
<g id="edge48" class="edge">
<title>Node31&#45;&gt;Node34</title>
<path fill="none" stroke="#191970" d="M1097.0352,-307.9005C1110.6332,-297.0544 1132.9754,-279.2339 1149.1624,-266.3229"/>
<polygon fill="#191970" stroke="#191970" points="1151.3519,-269.0535 1156.9872,-260.0817 1146.9869,-263.5811 1151.3519,-269.0535"/>
</g>
<!-- Node35 -->
<g id="node36" class="node">
<title>Node35</title>
<polygon fill="#ffffff" stroke="#bfbfbf" points="1212.5,-241 1212.5,-260 1261.5,-260 1261.5,-241 1212.5,-241"/>
<text text-anchor="middle" x="1237" y="-248" font-family="Helvetica,sans-Serif" font-size="10.00" fill="#000000">cstdlib</text>
</g>
<!-- Node31&#45;&gt;Node35 -->
<g id="edge49" class="edge">
<title>Node31&#45;&gt;Node35</title>
<path fill="none" stroke="#191970" d="M1107.2304,-307.9253C1130.9865,-297.6638 1169.7269,-280.844 1203,-266 1204.1997,-265.4648 1205.4223,-264.9173 1206.6568,-264.3627"/>
<polygon fill="#191970" stroke="#191970" points="1208.497,-267.3719 1216.1663,-260.0622 1205.6125,-260.9937 1208.497,-267.3719"/>
</g>
<!-- Node36&#45;&gt;Node4 -->
<g id="edge52" class="edge">
<title>Node36&#45;&gt;Node4</title>
<path fill="none" stroke="#191970" d="M1474.8783,-178.5747C1439.9671,-175.3988 1393.2806,-171.267 1352,-168 1132.4817,-150.6268 871.306,-133.2809 756.3282,-125.813"/>
<polygon fill="#191970" stroke="#191970" points="756.528,-122.3187 746.3224,-125.1641 756.0749,-129.304 756.528,-122.3187"/>
</g>
<!-- Node36&#45;&gt;Node9 -->
<g id="edge54" class="edge">
<title>Node36&#45;&gt;Node9</title>
<path fill="none" stroke="#191970" d="M1513.2646,-173.9248C1469.1364,-145.2497 1337.7957,-59.9029 1284.1823,-25.0642"/>
<polygon fill="#191970" stroke="#191970" points="1285.9821,-22.0597 1275.6899,-19.5457 1282.1679,-27.9293 1285.9821,-22.0597"/>
</g>
<!-- Node36&#45;&gt;Node28 -->
<g id="edge56" class="edge">
<title>Node36&#45;&gt;Node28</title>
<path fill="none" stroke="#191970" d="M1504.5625,-173.8906C1479.0598,-163.4345 1438.1406,-146.6577 1409.7631,-135.0229"/>
<polygon fill="#191970" stroke="#191970" points="1410.8748,-131.696 1400.2945,-131.1408 1408.2193,-138.1727 1410.8748,-131.696"/>
</g>
<!-- Node37 -->
<g id="node38" class="node">
<title>Node37</title>
<polygon fill="#ffffff" stroke="#bfbfbf" points="1498,-112.5 1498,-131.5 1542,-131.5 1542,-112.5 1498,-112.5"/>
<text text-anchor="middle" x="1520" y="-119.5" font-family="Helvetica,sans-Serif" font-size="10.00" fill="#000000">ctime</text>
</g>
<!-- Node36&#45;&gt;Node37 -->
<g id="edge53" class="edge">
<title>Node36&#45;&gt;Node37</title>
<path fill="none" stroke="#191970" d="M1526.75,-173.8906C1525.6411,-165.3657 1523.9856,-152.6392 1522.5917,-141.9235"/>
<polygon fill="#191970" stroke="#191970" points="1526.0284,-141.2098 1521.2676,-131.7449 1519.0869,-142.1128 1526.0284,-141.2098"/>
</g>
<!-- Node38 -->
<g id="node39" class="node">
<title>Node38</title>
<polygon fill="#ffffff" stroke="#bfbfbf" points="1560,-112.5 1560,-131.5 1610,-131.5 1610,-112.5 1560,-112.5"/>
<text text-anchor="middle" x="1585" y="-119.5" font-family="Helvetica,sans-Serif" font-size="10.00" fill="#000000">stdio.h</text>
</g>
<!-- Node36&#45;&gt;Node38 -->
<g id="edge55" class="edge">
<title>Node36&#45;&gt;Node38</title>
<path fill="none" stroke="#191970" d="M1536.9063,-173.8906C1545.4728,-164.6478 1558.6169,-150.466 1569.0003,-139.2628"/>
<polygon fill="#191970" stroke="#191970" points="1571.7375,-141.4584 1575.9682,-131.7449 1566.6035,-136.7 1571.7375,-141.4584"/>
</g>
<!-- Node40 -->
<g id="node41" class="node">
<title>Node40</title>
<g id="a_node41"><a xlink:href="ShaderProgram_8hpp.html" target="_top" xlink:title="Engine/Renderer/RenderTechnique\l/ShaderProgram.hpp">
<polygon fill="#ffffff" stroke="#000000" points="1318,-235.5 1318,-265.5 1500,-265.5 1500,-235.5 1318,-235.5"/>
<text text-anchor="start" x="1326" y="-253.5" font-family="Helvetica,sans-Serif" font-size="10.00" fill="#000000">Engine/Renderer/RenderTechnique</text>
<text text-anchor="middle" x="1409" y="-242.5" font-family="Helvetica,sans-Serif" font-size="10.00" fill="#000000">/ShaderProgram.hpp</text>
</a>
</g>
</g>
<!-- Node39&#45;&gt;Node40 -->
<g id="edge58" class="edge">
<title>Node39&#45;&gt;Node40</title>
<path fill="none" stroke="#191970" d="M1409,-302.2967C1409,-294.5013 1409,-284.7991 1409,-275.9064"/>
<polygon fill="#191970" stroke="#191970" points="1412.5001,-275.6431 1409,-265.6432 1405.5001,-275.6432 1412.5001,-275.6431"/>
</g>
<!-- Node40&#45;&gt;Node3 -->
<g id="edge60" class="edge">
<title>Node40&#45;&gt;Node3</title>
<path fill="none" stroke="#191970" d="M1317.7721,-239.459C1302.1835,-237.8 1286.1384,-236.2344 1271,-235 957.4115,-209.4291 874.4699,-249.9909 564,-199 558.8101,-198.1476 553.411,-196.9835 548.1119,-195.6734"/>
<polygon fill="#191970" stroke="#191970" points="548.6897,-192.2055 538.126,-193.0175 546.8904,-198.9703 548.6897,-192.2055"/>
</g>
<!-- Node40&#45;&gt;Node24 -->
<g id="edge59" class="edge">
<title>Node40&#45;&gt;Node24</title>
<path fill="none" stroke="#191970" d="M1317.9124,-236.9755C1256.314,-226.9359 1181.0844,-212.6728 1152,-199 1120.51,-184.1963 1090.4018,-156.7864 1072.8136,-138.9799"/>
<polygon fill="#191970" stroke="#191970" points="1075.1142,-136.3234 1065.6535,-131.5541 1070.0751,-141.1822 1075.1142,-136.3234"/>
</g>
<!-- Node40&#45;&gt;Node27 -->
<g id="edge69" class="edge">
<title>Node40&#45;&gt;Node27</title>
<path fill="none" stroke="#191970" d="M1317.7343,-236.8204C1220.8267,-222.2951 1072.1274,-200.0068 1001.6625,-189.4449"/>
<polygon fill="#191970" stroke="#191970" points="1001.8551,-185.9348 991.4467,-187.9137 1000.8174,-192.8575 1001.8551,-185.9348"/>
</g>
<!-- Node40&#45;&gt;Node28 -->
<g id="edge70" class="edge">
<title>Node40&#45;&gt;Node28</title>
<path fill="none" stroke="#191970" d="M1416.3509,-235.3594C1423.5162,-218.3901 1432.1062,-190.3306 1423,-168 1418.2844,-156.4363 1409.1073,-146.2008 1400.2638,-138.3383"/>
<polygon fill="#191970" stroke="#191970" points="1402.3109,-135.4894 1392.3737,-131.8147 1397.8504,-140.8842 1402.3109,-135.4894"/>
</g>
<!-- Node41 -->
<g id="node42" class="node">
<title>Node41</title>
<g id="a_node42"><a xlink:href="ShaderConfiguration_8hpp.html" target="_top" xlink:title="Engine/Renderer/RenderTechnique\l/ShaderConfiguration.hpp">
<polygon fill="#ffffff" stroke="#000000" points="1161,-168.5 1161,-198.5 1343,-198.5 1343,-168.5 1161,-168.5"/>
<text text-anchor="start" x="1169" y="-186.5" font-family="Helvetica,sans-Serif" font-size="10.00" fill="#000000">Engine/Renderer/RenderTechnique</text>
<text text-anchor="middle" x="1252" y="-175.5" font-family="Helvetica,sans-Serif" font-size="10.00" fill="#000000">/ShaderConfiguration.hpp</text>
</a>
</g>
</g>
<!-- Node40&#45;&gt;Node41 -->
<g id="edge61" class="edge">
<title>Node40&#45;&gt;Node41</title>
<path fill="none" stroke="#191970" d="M1373.7661,-235.4639C1351.0194,-225.7567 1321.2241,-213.0415 1296.8007,-202.6188"/>
<polygon fill="#191970" stroke="#191970" points="1297.9588,-199.3077 1287.3875,-198.6017 1295.2113,-205.7459 1297.9588,-199.3077"/>
</g>
<!-- Node42 -->
<g id="node43" class="node">
<title>Node42</title>
<polygon fill="#ffffff" stroke="#bfbfbf" points="1295,-112.5 1295,-131.5 1337,-131.5 1337,-112.5 1295,-112.5"/>
<text text-anchor="middle" x="1316" y="-119.5" font-family="Helvetica,sans-Serif" font-size="10.00" fill="#000000">array</text>
</g>
<!-- Node40&#45;&gt;Node42 -->
<g id="edge68" class="edge">
<title>Node40&#45;&gt;Node42</title>
<path fill="none" stroke="#191970" d="M1398.9663,-235.4083C1387.7814,-218.7212 1369.0233,-191.1371 1352,-168 1345.0417,-158.5426 1337.0137,-148.2306 1330.3069,-139.7715"/>
<polygon fill="#191970" stroke="#191970" points="1332.8702,-137.3723 1323.8962,-131.7404 1327.3994,-141.7393 1332.8702,-137.3723"/>
</g>
<!-- Node41&#45;&gt;Node2 -->
<g id="edge67" class="edge">
<title>Node41&#45;&gt;Node2</title>
<path fill="none" stroke="#191970" d="M1168.8266,-168.4554C1097.0964,-155.4807 997.1746,-137.4066 945.6681,-128.09"/>
<polygon fill="#191970" stroke="#191970" points="946.2005,-124.6295 935.7372,-126.2936 944.9545,-131.5178 946.2005,-124.6295"/>
</g>
<!-- Node41&#45;&gt;Node24 -->
<g id="edge62" class="edge">
<title>Node41&#45;&gt;Node24</title>
<path fill="none" stroke="#191970" d="M1204.2976,-168.4554C1171.3333,-158.059 1127.9877,-144.3884 1096.8648,-134.5727"/>
<polygon fill="#191970" stroke="#191970" points="1097.8078,-131.2003 1087.2181,-131.5303 1095.7023,-137.8761 1097.8078,-131.2003"/>
</g>
<!-- Node41&#45;&gt;Node28 -->
<g id="edge66" class="edge">
<title>Node41&#45;&gt;Node28</title>
<path fill="none" stroke="#191970" d="M1282.8231,-168.4554C1303.1088,-158.554 1329.4788,-145.683 1349.3162,-136.0004"/>
<polygon fill="#191970" stroke="#191970" points="1351.023,-139.062 1358.4745,-131.5303 1347.9526,-132.7714 1351.023,-139.062"/>
</g>
<!-- Node41&#45;&gt;Node30 -->
<g id="edge65" class="edge">
<title>Node41&#45;&gt;Node30</title>
<path fill="none" stroke="#191970" d="M1233.4607,-168.2977C1222.3992,-159.2274 1208.3509,-147.7077 1197.0347,-138.4285"/>
<polygon fill="#191970" stroke="#191970" points="1198.9604,-135.4813 1189.0084,-131.8469 1194.5219,-140.8942 1198.9604,-135.4813"/>
</g>
<!-- Node41&#45;&gt;Node42 -->
<g id="edge63" class="edge">
<title>Node41&#45;&gt;Node42</title>
<path fill="none" stroke="#191970" d="M1267.8202,-168.2977C1277.0742,-159.4052 1288.7781,-148.1586 1298.333,-138.9769"/>
<polygon fill="#191970" stroke="#191970" points="1300.9674,-141.2995 1305.7528,-131.8469 1296.1172,-136.2521 1300.9674,-141.2995"/>
</g>
<!-- Node43 -->
<g id="node44" class="node">
<title>Node43</title>
<polygon fill="#ffffff" stroke="#bfbfbf" points="1236,-112.5 1236,-131.5 1268,-131.5 1268,-112.5 1236,-112.5"/>
<text text-anchor="middle" x="1252" y="-119.5" font-family="Helvetica,sans-Serif" font-size="10.00" fill="#000000">list</text>
</g>
<!-- Node41&#45;&gt;Node43 -->
<g id="edge64" class="edge">
<title>Node41&#45;&gt;Node43</title>
<path fill="none" stroke="#191970" d="M1252,-168.2977C1252,-160.3834 1252,-150.6043 1252,-142.0759"/>
<polygon fill="#191970" stroke="#191970" points="1255.5001,-141.8469 1252,-131.8469 1248.5001,-141.847 1255.5001,-141.8469"/>
</g>
</g>
</svg>
        <g id="navigator" transform="translate(0 0)" fill="#404254">
                <rect fill="#f2f5e9" fill-opacity="0.5" stroke="#606060" stroke-width=".5" x="0" y="0" width="60" height="60"/>
                <use id="zoomplus" xlink:href="#zoomPlus" x="17" y="9" onmousedown="handleZoom(evt,'in')"/>
                <use id="zoomminus" xlink:href="#zoomMin" x="42" y="9" onmousedown="handleZoom(evt,'out')"/>
                <use id="reset" xlink:href="#resetDef" x="30" y="36" onmousedown="handleReset()"/>
                <g id="arrowUp" xlink:href="#dirArrow" transform="translate(30 24)" onmousedown="handlePan(0,-1)">
                  <use xlink:href="#rim" fill="#404040">
                        <set attributeName="fill" to="#808080" begin="arrowUp.mouseover" end="arrowUp.mouseout"/>
                  </use>
                  <path fill="none" stroke="white" stroke-width="1.5" d="M0,-3.0v7 M-2.5,-0.5L0,-3.0L2.5,-0.5"/>
                </g>
                <g id="arrowRight" xlink:href="#dirArrow" transform="rotate(90) translate(36 -43)" onmousedown="handlePan(1,0)">
                  <use xlink:href="#rim" fill="#404040">
                        <set attributeName="fill" to="#808080" begin="arrowRight.mouseover" end="arrowRight.mouseout"/>
                  </use>
                  <path fill="none" stroke="white" stroke-width="1.5" d="M0,-3.0v7 M-2.5,-0.5L0,-3.0L2.5,-0.5"/>
                </g>
                <g id="arrowDown" xlink:href="#dirArrow" transform="rotate(180) translate(-30 -48)" onmousedown="handlePan(0,1)">
                  <use xlink:href="#rim" fill="#404040">
                        <set attributeName="fill" to="#808080" begin="arrowDown.mouseover" end="arrowDown.mouseout"/>
                  </use>
                  <path fill="none" stroke="white" stroke-width="1.5" d="M0,-3.0v7 M-2.5,-0.5L0,-3.0L2.5,-0.5"/>
                </g>
                <g id="arrowLeft" xlink:href="#dirArrow" transform="rotate(270) translate(-36 17)" onmousedown="handlePan(-1,0)">
                  <use xlink:href="#rim" fill="#404040">
                        <set attributeName="fill" to="#808080" begin="arrowLeft.mouseover" end="arrowLeft.mouseout"/>
                  </use>
                  <path fill="none" stroke="white" stroke-width="1.5" d="M0,-3.0v7 M-2.5,-0.5L0,-3.0L2.5,-0.5"/>
                </g>
        </g>
        <svg viewBox="0 0 15 15" width="100%" height="30px" preserveAspectRatio="xMaxYMin meet">
         <g id="arrow_out" transform="scale(0.3 0.3)">
          <a xlink:href="RotateGizmo_8hpp__incl_org.svg" target="_base">
           <rect id="button" ry="5" rx="5" y="6" x="6" height="38" width="38"
                fill="#f2f5e9" fill-opacity="0.5" stroke="#606060" stroke-width="1.0"/>
           <path id="arrow"
             d="M 11.500037,31.436501 C 11.940474,20.09759 22.043105,11.32322 32.158766,21.979434 L 37.068811,17.246167 C 37.068811,17.246167 37.088388,32 37.088388,32 L 22.160133,31.978069 C 22.160133,31.978069 26.997745,27.140456 26.997745,27.140456 C 18.528582,18.264221 13.291696,25.230495 11.500037,31.436501 z"
             style="fill:#404040;"/>
          </a>
         </g>
        </svg>
</svg>
