<?xml version="1.0" encoding="UTF-8" standalone="no"?>
<!DOCTYPE svg PUBLIC "-//W3C//DTD SVG 1.1//EN"
 "http://www.w3.org/Graphics/SVG/1.1/DTD/svg11.dtd">
<!-- Generated by graphviz version 2.40.1 (20161225.0304)
 -->
<!-- Title: src/GuiBase/SelectionManager/SelectionManager.hpp Pages: 1 -->
<!--zoomable 386 -->
<svg id="main" version="1.1" xmlns="http://www.w3.org/2000/svg" xmlns:xlink="http://www.w3.org/1999/xlink" xml:space="preserve" onload="init(evt)">
<style type="text/css"><![CDATA[
.edge:hover path { stroke: red; }
.edge:hover polygon { stroke: red; fill: red; }
]]></style>
<script type="text/javascript"><![CDATA[
var edges = document.getElementsByTagName('g');
if (edges && edges.length) {
  for (var i=0;i<edges.length;i++) {
    if (edges[i].id.substr(0,4)=='edge') {
      edges[i].setAttribute('class','edge');
    }
  }
}
]]></script>
        <defs>
                <circle id="rim" cx="0" cy="0" r="7"/>
                <circle id="rim2" cx="0" cy="0" r="3.5"/>
                <g id="zoomPlus">
                        <use xlink:href="#rim" fill="#404040">
                                <set attributeName="fill" to="#808080" begin="zoomplus.mouseover" end="zoomplus.mouseout"/>
                        </use>
                        <path d="M-4,0h8M0,-4v8" fill="none" stroke="white" stroke-width="1.5" pointer-events="none"/>
                </g>
                <g id="zoomMin">
                        <use xlink:href="#rim" fill="#404040">
                                <set attributeName="fill" to="#808080" begin="zoomminus.mouseover" end="zoomminus.mouseout"/>
                        </use>
                        <path d="M-4,0h8" fill="none" stroke="white" stroke-width="1.5" pointer-events="none"/>
                </g>
                <g id="dirArrow">
                        <path fill="none" stroke="white" stroke-width="1.5" d="M0,-3.0v7 M-2.5,-0.5L0,-3.0L2.5,-0.5"/>
                </g>
               <g id="resetDef">
                       <use xlink:href="#rim2" fill="#404040">
                               <set attributeName="fill" to="#808080" begin="reset.mouseover" end="reset.mouseout"/>
                       </use>
               </g>
        </defs>

<script type="text/javascript">
var viewWidth = 1335;
var viewHeight = 386;
var sectionId = 'dynsection-0';
</script>
<script xlink:href="svgpan.js"/>
<svg id="graph" class="graph">
<g id="viewport">
<title>src/GuiBase/SelectionManager/SelectionManager.hpp</title>
<polygon fill="#ffffff" stroke="transparent" points="-4,4 -4,-382 1330.5,-382 1330.5,4 -4,4"/>
<!-- Node0 -->
<g id="node1" class="node">
<title>Node0</title>
<polygon fill="#bfbfbf" stroke="#000000" points="447,-347.5 447,-377.5 611,-377.5 611,-347.5 447,-347.5"/>
<text text-anchor="start" x="455" y="-365.5" font-family="Helvetica,sans-Serif" font-size="10.00" fill="#000000">src/GuiBase/SelectionManager</text>
<text text-anchor="middle" x="529" y="-354.5" font-family="Helvetica,sans-Serif" font-size="10.00" fill="#000000">/SelectionManager.hpp</text>
</g>
<!-- Node1 -->
<g id="node2" class="node">
<title>Node1</title>
<g id="a_node2"><a xlink:href="RaGuiBase_8hpp.html" target="_top" xlink:title="GuiBase/RaGuiBase.hpp">
<polygon fill="#ffffff" stroke="#000000" points="0,-168.5 0,-187.5 134,-187.5 134,-168.5 0,-168.5"/>
<text text-anchor="middle" x="67" y="-175.5" font-family="Helvetica,sans-Serif" font-size="10.00" fill="#000000">GuiBase/RaGuiBase.hpp</text>
</a>
</g>
</g>
<!-- Node0&#45;&gt;Node1 -->
<g id="edge1" class="edge">
<title>Node0&#45;&gt;Node1</title>
<path fill="none" stroke="#191970" d="M476.9655,-347.4819C409.0042,-327.1901 286.916,-288.4035 187,-244 152.6654,-228.7414 114.9949,-207.1722 91.1894,-192.8973"/>
<polygon fill="#191970" stroke="#191970" points="92.8504,-189.8115 82.4825,-187.63 89.227,-195.8008 92.8504,-189.8115"/>
</g>
<!-- Node8 -->
<g id="node9" class="node">
<title>Node8</title>
<g id="a_node9"><a xlink:href="ItemEntry_8hpp.html" target="_top" xlink:title="Engine/ItemModel/ItemEntry.hpp">
<polygon fill="#ffffff" stroke="#000000" points="795.5,-224.5 795.5,-243.5 970.5,-243.5 970.5,-224.5 795.5,-224.5"/>
<text text-anchor="middle" x="883" y="-231.5" font-family="Helvetica,sans-Serif" font-size="10.00" fill="#000000">Engine/ItemModel/ItemEntry.hpp</text>
</a>
</g>
</g>
<!-- Node0&#45;&gt;Node8 -->
<g id="edge8" class="edge">
<title>Node0&#45;&gt;Node8</title>
<path fill="none" stroke="#191970" d="M537.0104,-347.4732C548.0319,-328.4032 569.7591,-296.0629 598,-280 629.4021,-262.1391 715.814,-249.807 785.3229,-242.4407"/>
<polygon fill="#191970" stroke="#191970" points="785.862,-245.9037 795.4472,-241.3899 785.1392,-238.9411 785.862,-245.9037"/>
</g>
<!-- Node17 -->
<g id="node18" class="node">
<title>Node17</title>
<g id="a_node18"><a xlink:href="EntityTreeModel_8hpp.html" target="_top" xlink:title="GuiBase/TreeModel/Entity\lTreeModel.hpp">
<polygon fill="#ffffff" stroke="#000000" points="409.5,-280.5 409.5,-310.5 550.5,-310.5 550.5,-280.5 409.5,-280.5"/>
<text text-anchor="start" x="417.5" y="-298.5" font-family="Helvetica,sans-Serif" font-size="10.00" fill="#000000">GuiBase/TreeModel/Entity</text>
<text text-anchor="middle" x="480" y="-287.5" font-family="Helvetica,sans-Serif" font-size="10.00" fill="#000000">TreeModel.hpp</text>
</a>
</g>
</g>
<!-- Node0&#45;&gt;Node17 -->
<g id="edge20" class="edge">
<title>Node0&#45;&gt;Node17</title>
<path fill="none" stroke="#191970" d="M517.8811,-347.2967C511.7415,-338.9016 503.9846,-328.2952 497.0914,-318.8698"/>
<polygon fill="#191970" stroke="#191970" points="499.8032,-316.6488 491.0749,-310.6432 494.153,-320.781 499.8032,-316.6488"/>
</g>
<!-- Node29 -->
<g id="node30" class="node">
<title>Node29</title>
<polygon fill="#ffffff" stroke="#bfbfbf" points="607.5,-286 607.5,-305 728.5,-305 728.5,-286 607.5,-286"/>
<text text-anchor="middle" x="668" y="-293" font-family="Helvetica,sans-Serif" font-size="10.00" fill="#000000">QItemSelectionModel</text>
</g>
<!-- Node0&#45;&gt;Node29 -->
<g id="edge42" class="edge">
<title>Node0&#45;&gt;Node29</title>
<path fill="none" stroke="#191970" d="M560.1943,-347.4639C583.7268,-336.1209 615.7802,-320.6707 638.8094,-309.5703"/>
<polygon fill="#191970" stroke="#191970" points="640.587,-312.5989 648.0754,-305.1039 637.5476,-306.2932 640.587,-312.5989"/>
</g>
<!-- Node2 -->
<g id="node3" class="node">
<title>Node2</title>
<g id="a_node3"><a xlink:href="CoreMacros_8hpp.html" target="_top" xlink:title="Core/CoreMacros.hpp">
<polygon fill="#ffffff" stroke="#000000" points="646,-56.5 646,-75.5 766,-75.5 766,-56.5 646,-56.5"/>
<text text-anchor="middle" x="706" y="-63.5" font-family="Helvetica,sans-Serif" font-size="10.00" fill="#000000">Core/CoreMacros.hpp</text>
</a>
</g>
</g>
<!-- Node1&#45;&gt;Node2 -->
<g id="edge2" class="edge">
<title>Node1&#45;&gt;Node2</title>
<path fill="none" stroke="#191970" d="M102.371,-168.4977C155.5567,-154.4887 259.4453,-128.206 349,-112 447.7584,-94.1284 563.1084,-80.5762 635.3644,-72.9575"/>
<polygon fill="#191970" stroke="#191970" points="636.1233,-76.3973 645.7053,-71.8767 635.3956,-69.4353 636.1233,-76.3973"/>
</g>
<!-- Node3 -->
<g id="node4" class="node">
<title>Node3</title>
<polygon fill="#ffffff" stroke="#bfbfbf" points="542,-.5 542,-19.5 594,-19.5 594,-.5 542,-.5"/>
<text text-anchor="middle" x="568" y="-7.5" font-family="Helvetica,sans-Serif" font-size="10.00" fill="#000000">cassert</text>
</g>
<!-- Node2&#45;&gt;Node3 -->
<g id="edge3" class="edge">
<title>Node2&#45;&gt;Node3</title>
<path fill="none" stroke="#191970" d="M682.277,-56.3733C659.8263,-47.2629 625.9261,-33.5062 600.8745,-23.3404"/>
<polygon fill="#191970" stroke="#191970" points="601.9957,-20.0182 591.4135,-19.5011 599.3635,-26.5045 601.9957,-20.0182"/>
</g>
<!-- Node4 -->
<g id="node5" class="node">
<title>Node4</title>
<polygon fill="#ffffff" stroke="#bfbfbf" points="612,-.5 612,-19.5 658,-19.5 658,-.5 612,-.5"/>
<text text-anchor="middle" x="635" y="-7.5" font-family="Helvetica,sans-Serif" font-size="10.00" fill="#000000">cstdio</text>
</g>
<!-- Node2&#45;&gt;Node4 -->
<g id="edge4" class="edge">
<title>Node2&#45;&gt;Node4</title>
<path fill="none" stroke="#191970" d="M693.6327,-56.2455C683.0446,-47.8943 667.5936,-35.7076 655.2107,-25.9408"/>
<polygon fill="#191970" stroke="#191970" points="657.2447,-23.0875 647.2255,-19.6427 652.9097,-28.5837 657.2447,-23.0875"/>
</g>
<!-- Node5 -->
<g id="node6" class="node">
<title>Node5</title>
<polygon fill="#ffffff" stroke="#bfbfbf" points="676,-.5 676,-19.5 736,-19.5 736,-.5 676,-.5"/>
<text text-anchor="middle" x="706" y="-7.5" font-family="Helvetica,sans-Serif" font-size="10.00" fill="#000000">iostream</text>
</g>
<!-- Node2&#45;&gt;Node5 -->
<g id="edge5" class="edge">
<title>Node2&#45;&gt;Node5</title>
<path fill="none" stroke="#191970" d="M706,-56.2455C706,-48.9382 706,-38.6944 706,-29.7046"/>
<polygon fill="#191970" stroke="#191970" points="709.5001,-29.6426 706,-19.6427 702.5001,-29.6427 709.5001,-29.6426"/>
</g>
<!-- Node6 -->
<g id="node7" class="node">
<title>Node6</title>
<polygon fill="#ffffff" stroke="#bfbfbf" points="754,-.5 754,-19.5 810,-19.5 810,-.5 754,-.5"/>
<text text-anchor="middle" x="782" y="-7.5" font-family="Helvetica,sans-Serif" font-size="10.00" fill="#000000">sstream</text>
</g>
<!-- Node2&#45;&gt;Node6 -->
<g id="edge6" class="edge">
<title>Node2&#45;&gt;Node6</title>
<path fill="none" stroke="#191970" d="M719.2382,-56.2455C730.681,-47.814 747.4296,-35.4729 760.7475,-25.6598"/>
<polygon fill="#191970" stroke="#191970" points="762.9391,-28.3924 768.9135,-19.6427 758.7867,-22.757 762.9391,-28.3924"/>
</g>
<!-- Node7 -->
<g id="node8" class="node">
<title>Node7</title>
<polygon fill="#ffffff" stroke="#bfbfbf" points="828,-.5 828,-19.5 876,-19.5 876,-.5 828,-.5"/>
<text text-anchor="middle" x="852" y="-7.5" font-family="Helvetica,sans-Serif" font-size="10.00" fill="#000000">thread</text>
</g>
<!-- Node2&#45;&gt;Node7 -->
<g id="edge7" class="edge">
<title>Node2&#45;&gt;Node7</title>
<path fill="none" stroke="#191970" d="M731.0983,-56.3733C755.1001,-47.1671 791.4713,-33.2165 818.0524,-23.021"/>
<polygon fill="#191970" stroke="#191970" points="819.631,-26.1642 827.7144,-19.315 817.1242,-19.6285 819.631,-26.1642"/>
</g>
<!-- Node9 -->
<g id="node10" class="node">
<title>Node9</title>
<g id="a_node10"><a xlink:href="RaEngine_8hpp.html" target="_top" xlink:title="Engine/RaEngine.hpp">
<polygon fill="#ffffff" stroke="#000000" points="823.5,-168.5 823.5,-187.5 942.5,-187.5 942.5,-168.5 823.5,-168.5"/>
<text text-anchor="middle" x="883" y="-175.5" font-family="Helvetica,sans-Serif" font-size="10.00" fill="#000000">Engine/RaEngine.hpp</text>
</a>
</g>
</g>
<!-- Node8&#45;&gt;Node9 -->
<g id="edge9" class="edge">
<title>Node8&#45;&gt;Node9</title>
<path fill="none" stroke="#191970" d="M883,-224.2455C883,-216.9382 883,-206.6944 883,-197.7046"/>
<polygon fill="#191970" stroke="#191970" points="886.5001,-197.6426 883,-187.6427 879.5001,-197.6427 886.5001,-197.6426"/>
</g>
<!-- Node10 -->
<g id="node11" class="node">
<title>Node10</title>
<g id="a_node11"><a xlink:href="Index_8hpp.html" target="_top" xlink:title="Core/Utils/Index.hpp">
<polygon fill="#ffffff" stroke="#000000" points="1023,-168.5 1023,-187.5 1139,-187.5 1139,-168.5 1023,-168.5"/>
<text text-anchor="middle" x="1081" y="-175.5" font-family="Helvetica,sans-Serif" font-size="10.00" fill="#000000">Core/Utils/Index.hpp</text>
</a>
</g>
</g>
<!-- Node8&#45;&gt;Node10 -->
<g id="edge11" class="edge">
<title>Node8&#45;&gt;Node10</title>
<path fill="none" stroke="#191970" d="M917.0374,-224.3733C950.3894,-214.9404 1001.3527,-200.5265 1037.6002,-190.2747"/>
<polygon fill="#191970" stroke="#191970" points="1038.7368,-193.5906 1047.4067,-187.5011 1036.8316,-186.8548 1038.7368,-193.5906"/>
</g>
<!-- Node14 -->
<g id="node15" class="node">
<title>Node14</title>
<polygon fill="#ffffff" stroke="#bfbfbf" points="961,-168.5 961,-187.5 1005,-187.5 1005,-168.5 961,-168.5"/>
<text text-anchor="middle" x="983" y="-175.5" font-family="Helvetica,sans-Serif" font-size="10.00" fill="#000000">string</text>
</g>
<!-- Node8&#45;&gt;Node14 -->
<g id="edge17" class="edge">
<title>Node8&#45;&gt;Node14</title>
<path fill="none" stroke="#191970" d="M900.4187,-224.2455C916.0485,-215.4928 939.2019,-202.527 957.0185,-192.5496"/>
<polygon fill="#191970" stroke="#191970" points="958.766,-195.5825 965.7809,-187.6427 955.3457,-189.475 958.766,-195.5825"/>
</g>
<!-- Node15 -->
<g id="node16" class="node">
<title>Node15</title>
<polygon fill="#ffffff" stroke="#bfbfbf" points="758.5,-168.5 758.5,-187.5 805.5,-187.5 805.5,-168.5 758.5,-168.5"/>
<text text-anchor="middle" x="782" y="-175.5" font-family="Helvetica,sans-Serif" font-size="10.00" fill="#000000">vector</text>
</g>
<!-- Node8&#45;&gt;Node15 -->
<g id="edge18" class="edge">
<title>Node8&#45;&gt;Node15</title>
<path fill="none" stroke="#191970" d="M865.4071,-224.2455C849.621,-215.4928 826.2361,-202.527 808.2413,-192.5496"/>
<polygon fill="#191970" stroke="#191970" points="809.8341,-189.4308 799.3913,-187.6427 806.4397,-195.5528 809.8341,-189.4308"/>
</g>
<!-- Node16 -->
<g id="node17" class="node">
<title>Node16</title>
<g id="a_node17"><a xlink:href="ItemEntry_8inl.html" target="_top" xlink:title="Engine/ItemModel/ItemEntry.inl">
<polygon fill="#ffffff" stroke="#000000" points="1157.5,-168.5 1157.5,-187.5 1326.5,-187.5 1326.5,-168.5 1157.5,-168.5"/>
<text text-anchor="middle" x="1242" y="-175.5" font-family="Helvetica,sans-Serif" font-size="10.00" fill="#000000">Engine/ItemModel/ItemEntry.inl</text>
</a>
</g>
</g>
<!-- Node8&#45;&gt;Node16 -->
<g id="edge19" class="edge">
<title>Node8&#45;&gt;Node16</title>
<path fill="none" stroke="#191970" d="M944.3064,-224.4369C1007.1663,-214.6314 1104.8383,-199.3957 1171.0132,-189.0731"/>
<polygon fill="#191970" stroke="#191970" points="1171.6054,-192.5232 1180.9465,-187.5237 1170.5265,-185.6068 1171.6054,-192.5232"/>
</g>
<!-- Node9&#45;&gt;Node2 -->
<g id="edge10" class="edge">
<title>Node9&#45;&gt;Node2</title>
<path fill="none" stroke="#191970" d="M867.9091,-168.4509C837.0813,-148.9441 766.675,-104.3932 729.6909,-80.9909"/>
<polygon fill="#191970" stroke="#191970" points="731.3746,-77.9144 721.0527,-75.5249 727.6316,-83.8297 731.3746,-77.9144"/>
</g>
<!-- Node11 -->
<g id="node12" class="node">
<title>Node11</title>
<g id="a_node12"><a xlink:href="RaCore_8hpp.html" target="_top" xlink:title="Core/RaCore.hpp">
<polygon fill="#ffffff" stroke="#000000" points="657,-112.5 657,-131.5 755,-131.5 755,-112.5 657,-112.5"/>
<text text-anchor="middle" x="706" y="-119.5" font-family="Helvetica,sans-Serif" font-size="10.00" fill="#000000">Core/RaCore.hpp</text>
</a>
</g>
</g>
<!-- Node10&#45;&gt;Node11 -->
<g id="edge12" class="edge">
<title>Node10&#45;&gt;Node11</title>
<path fill="none" stroke="#191970" d="M1022.8177,-169.3114C952.719,-158.8434 835.6028,-141.354 765.0977,-130.8253"/>
<polygon fill="#191970" stroke="#191970" points="765.4519,-127.3394 755.0446,-129.324 764.418,-134.2627 765.4519,-127.3394"/>
</g>
<!-- Node12 -->
<g id="node13" class="node">
<title>Node12</title>
<polygon fill="#ffffff" stroke="#bfbfbf" points="964,-112.5 964,-131.5 1008,-131.5 1008,-112.5 964,-112.5"/>
<text text-anchor="middle" x="986" y="-119.5" font-family="Helvetica,sans-Serif" font-size="10.00" fill="#000000">limits</text>
</g>
<!-- Node10&#45;&gt;Node12 -->
<g id="edge14" class="edge">
<title>Node10&#45;&gt;Node12</title>
<path fill="none" stroke="#191970" d="M1064.4523,-168.2455C1049.7401,-159.5731 1028.0112,-146.7645 1011.1495,-136.825"/>
<polygon fill="#191970" stroke="#191970" points="1012.7502,-133.7057 1002.3581,-131.6427 1009.1954,-139.736 1012.7502,-133.7057"/>
</g>
<!-- Node13 -->
<g id="node14" class="node">
<title>Node13</title>
<g id="a_node14"><a xlink:href="Index_8inl.html" target="_top" xlink:title="Core/Utils/Index.inl">
<polygon fill="#ffffff" stroke="#000000" points="1026,-112.5 1026,-131.5 1136,-131.5 1136,-112.5 1026,-112.5"/>
<text text-anchor="middle" x="1081" y="-119.5" font-family="Helvetica,sans-Serif" font-size="10.00" fill="#000000">Core/Utils/Index.inl</text>
</a>
</g>
</g>
<!-- Node10&#45;&gt;Node13 -->
<g id="edge15" class="edge">
<title>Node10&#45;&gt;Node13</title>
<path fill="none" stroke="#191970" d="M1075.7332,-168.2455C1074.3221,-160.9382 1073.9179,-150.6944 1074.5205,-141.7046"/>
<polygon fill="#191970" stroke="#191970" points="1078.0111,-141.9945 1075.7549,-131.6427 1071.0632,-141.1421 1078.0111,-141.9945"/>
</g>
<!-- Node11&#45;&gt;Node2 -->
<g id="edge13" class="edge">
<title>Node11&#45;&gt;Node2</title>
<path fill="none" stroke="#191970" d="M706,-112.2455C706,-104.9382 706,-94.6944 706,-85.7046"/>
<polygon fill="#191970" stroke="#191970" points="709.5001,-85.6426 706,-75.6427 702.5001,-85.6427 709.5001,-85.6426"/>
</g>
<!-- Node13&#45;&gt;Node10 -->
<g id="edge16" class="edge">
<title>Node13&#45;&gt;Node10</title>
<path fill="none" stroke="#191970" d="M1086.2451,-131.6427C1087.6665,-138.9199 1088.081,-149.155 1087.4887,-158.1575"/>
<polygon fill="#191970" stroke="#191970" points="1083.9947,-157.8972 1086.2668,-168.2455 1090.9439,-158.739 1083.9947,-157.8972"/>
</g>
<!-- Node17&#45;&gt;Node1 -->
<g id="edge21" class="edge">
<title>Node17&#45;&gt;Node1</title>
<path fill="none" stroke="#191970" d="M409.406,-281.7227C364.3227,-272.3748 304.8175,-259.0147 253,-244 199.0022,-228.3535 137.8168,-205.6522 100.8379,-191.3663"/>
<polygon fill="#191970" stroke="#191970" points="101.6647,-187.9327 91.0759,-187.573 99.1292,-194.4574 101.6647,-187.9327"/>
</g>
<!-- Node17&#45;&gt;Node8 -->
<g id="edge22" class="edge">
<title>Node17&#45;&gt;Node8</title>
<path fill="none" stroke="#191970" d="M550.9275,-282.3651C555.6866,-281.5458 560.4108,-280.7501 565,-280 645.3448,-266.8679 737.4324,-253.7587 801.7619,-244.9142"/>
<polygon fill="#191970" stroke="#191970" points="802.4102,-248.3582 811.842,-243.532 801.4592,-241.4231 802.4102,-248.3582"/>
</g>
<!-- Node18 -->
<g id="node19" class="node">
<title>Node18</title>
<g id="a_node19"><a xlink:href="RadiumEngine_8hpp.html" target="_top" xlink:title="Engine/RadiumEngine.hpp">
<polygon fill="#ffffff" stroke="#000000" points="535,-224.5 535,-243.5 679,-243.5 679,-224.5 535,-224.5"/>
<text text-anchor="middle" x="607" y="-231.5" font-family="Helvetica,sans-Serif" font-size="10.00" fill="#000000">Engine/RadiumEngine.hpp</text>
</a>
</g>
</g>
<!-- Node17&#45;&gt;Node18 -->
<g id="edge23" class="edge">
<title>Node17&#45;&gt;Node18</title>
<path fill="none" stroke="#191970" d="M511.0677,-280.4554C531.5145,-270.554 558.0937,-257.683 578.0885,-248.0004"/>
<polygon fill="#191970" stroke="#191970" points="579.8447,-251.0388 587.3195,-243.5303 576.7938,-244.7387 579.8447,-251.0388"/>
</g>
<!-- Node26 -->
<g id="node27" class="node">
<title>Node26</title>
<g id="a_node27"><a xlink:href="TreeModel_8hpp.html" target="_top" xlink:title="GuiBase/TreeModel/TreeModel.hpp">
<polygon fill="#ffffff" stroke="#000000" points="262.5,-224.5 262.5,-243.5 445.5,-243.5 445.5,-224.5 262.5,-224.5"/>
<text text-anchor="middle" x="354" y="-231.5" font-family="Helvetica,sans-Serif" font-size="10.00" fill="#000000">GuiBase/TreeModel/TreeModel.hpp</text>
</a>
</g>
</g>
<!-- Node17&#45;&gt;Node26 -->
<g id="edge36" class="edge">
<title>Node17&#45;&gt;Node26</title>
<path fill="none" stroke="#191970" d="M449.1769,-280.4554C428.8912,-270.554 402.5212,-257.683 382.6838,-248.0004"/>
<polygon fill="#191970" stroke="#191970" points="384.0474,-244.7714 373.5255,-243.5303 380.977,-251.062 384.0474,-244.7714"/>
</g>
<!-- Node18&#45;&gt;Node9 -->
<g id="edge24" class="edge">
<title>Node18&#45;&gt;Node9</title>
<path fill="none" stroke="#191970" d="M654.1325,-224.4369C701.7647,-214.7724 775.3967,-199.8326 826.2166,-189.5213"/>
<polygon fill="#191970" stroke="#191970" points="826.9576,-192.9423 836.0619,-187.5237 825.5656,-186.0821 826.9576,-192.9423"/>
</g>
<!-- Node18&#45;&gt;Node14 -->
<g id="edge34" class="edge">
<title>Node18&#45;&gt;Node14</title>
<path fill="none" stroke="#191970" d="M679.0254,-228.1918C747.0204,-221.8492 851.8536,-209.8541 950.9071,-187.9193"/>
<polygon fill="#191970" stroke="#191970" points="951.7954,-191.3069 960.7817,-185.6948 950.2569,-184.4781 951.7954,-191.3069"/>
</g>
<!-- Node18&#45;&gt;Node15 -->
<g id="edge35" class="edge">
<title>Node18&#45;&gt;Node15</title>
<path fill="none" stroke="#191970" d="M637.0836,-224.3733C668.1234,-214.4405 716.4222,-198.9849 748.6208,-188.6813"/>
<polygon fill="#191970" stroke="#191970" points="750.0094,-191.9119 758.4669,-185.5306 747.8759,-185.2449 750.0094,-191.9119"/>
</g>
<!-- Node19 -->
<g id="node20" class="node">
<title>Node19</title>
<g id="a_node20"><a xlink:href="Types_8hpp.html" target="_top" xlink:title="Core/Types.hpp">
<polygon fill="#ffffff" stroke="#000000" points="496.5,-168.5 496.5,-187.5 587.5,-187.5 587.5,-168.5 496.5,-168.5"/>
<text text-anchor="middle" x="542" y="-175.5" font-family="Helvetica,sans-Serif" font-size="10.00" fill="#000000">Core/Types.hpp</text>
</a>
</g>
</g>
<!-- Node18&#45;&gt;Node19 -->
<g id="edge25" class="edge">
<title>Node18&#45;&gt;Node19</title>
<path fill="none" stroke="#191970" d="M595.6779,-224.2455C586.0777,-215.9746 572.1108,-203.9416 560.8305,-194.2232"/>
<polygon fill="#191970" stroke="#191970" points="563.053,-191.5182 553.1924,-187.6427 558.484,-196.8214 563.053,-191.5182"/>
</g>
<!-- Node23 -->
<g id="node24" class="node">
<title>Node23</title>
<g id="a_node24"><a xlink:href="Singleton_8hpp.html" target="_top" xlink:title="Core/Utils/Singleton.hpp">
<polygon fill="#ffffff" stroke="#000000" points="606,-168.5 606,-187.5 740,-187.5 740,-168.5 606,-168.5"/>
<text text-anchor="middle" x="673" y="-175.5" font-family="Helvetica,sans-Serif" font-size="10.00" fill="#000000">Core/Utils/Singleton.hpp</text>
</a>
</g>
</g>
<!-- Node18&#45;&gt;Node23 -->
<g id="edge30" class="edge">
<title>Node18&#45;&gt;Node23</title>
<path fill="none" stroke="#191970" d="M618.4963,-224.2455C628.2442,-215.9746 642.4259,-203.9416 653.8798,-194.2232"/>
<polygon fill="#191970" stroke="#191970" points="656.2747,-196.7813 661.6354,-187.6427 651.7459,-191.4437 656.2747,-196.7813"/>
</g>
<!-- Node24 -->
<g id="node25" class="node">
<title>Node24</title>
<polygon fill="#ffffff" stroke="#bfbfbf" points="440,-168.5 440,-187.5 478,-187.5 478,-168.5 440,-168.5"/>
<text text-anchor="middle" x="459" y="-175.5" font-family="Helvetica,sans-Serif" font-size="10.00" fill="#000000">map</text>
</g>
<!-- Node18&#45;&gt;Node24 -->
<g id="edge32" class="edge">
<title>Node18&#45;&gt;Node24</title>
<path fill="none" stroke="#191970" d="M581.5579,-224.3733C555.3536,-214.4581 514.6047,-199.0396 487.3741,-188.7361"/>
<polygon fill="#191970" stroke="#191970" points="488.5968,-185.4567 478.0053,-185.1912 486.1195,-192.0037 488.5968,-185.4567"/>
</g>
<!-- Node25 -->
<g id="node26" class="node">
<title>Node25</title>
<polygon fill="#ffffff" stroke="#bfbfbf" points="364,-168.5 364,-187.5 422,-187.5 422,-168.5 364,-168.5"/>
<text text-anchor="middle" x="393" y="-175.5" font-family="Helvetica,sans-Serif" font-size="10.00" fill="#000000">memory</text>
</g>
<!-- Node18&#45;&gt;Node25 -->
<g id="edge33" class="edge">
<title>Node18&#45;&gt;Node25</title>
<path fill="none" stroke="#191970" d="M570.2525,-224.4147C536.6608,-215.6483 485.341,-202.2448 431.724,-188.1871"/>
<polygon fill="#191970" stroke="#191970" points="432.6056,-184.8 422.0448,-185.6487 430.8298,-191.571 432.6056,-184.8"/>
</g>
<!-- Node19&#45;&gt;Node11 -->
<g id="edge26" class="edge">
<title>Node19&#45;&gt;Node11</title>
<path fill="none" stroke="#191970" d="M570.1926,-168.3733C597.3453,-159.1016 638.5907,-145.0178 668.5025,-134.804"/>
<polygon fill="#191970" stroke="#191970" points="669.8428,-138.0449 678.1753,-131.5011 667.5808,-131.4204 669.8428,-138.0449"/>
</g>
<!-- Node20 -->
<g id="node21" class="node">
<title>Node20</title>
<polygon fill="#ffffff" stroke="#bfbfbf" points="358.5,-112.5 358.5,-131.5 427.5,-131.5 427.5,-112.5 358.5,-112.5"/>
<text text-anchor="middle" x="393" y="-119.5" font-family="Helvetica,sans-Serif" font-size="10.00" fill="#000000">Eigen/Core</text>
</g>
<!-- Node19&#45;&gt;Node20 -->
<g id="edge27" class="edge">
<title>Node19&#45;&gt;Node20</title>
<path fill="none" stroke="#191970" d="M516.386,-168.3733C491.9313,-159.1822 454.8946,-145.2624 427.7791,-135.0713"/>
<polygon fill="#191970" stroke="#191970" points="428.8719,-131.7431 418.2798,-131.5011 426.4091,-138.2956 428.8719,-131.7431"/>
</g>
<!-- Node21 -->
<g id="node22" class="node">
<title>Node21</title>
<polygon fill="#ffffff" stroke="#bfbfbf" points="445.5,-112.5 445.5,-131.5 540.5,-131.5 540.5,-112.5 445.5,-112.5"/>
<text text-anchor="middle" x="493" y="-119.5" font-family="Helvetica,sans-Serif" font-size="10.00" fill="#000000">Eigen/Geometry</text>
</g>
<!-- Node19&#45;&gt;Node21 -->
<g id="edge28" class="edge">
<title>Node19&#45;&gt;Node21</title>
<path fill="none" stroke="#191970" d="M533.4649,-168.2455C526.5088,-160.2958 516.5117,-148.8706 508.1949,-139.3656"/>
<polygon fill="#191970" stroke="#191970" points="510.6564,-136.8637 501.4373,-131.6427 505.3884,-141.4732 510.6564,-136.8637"/>
</g>
<!-- Node22 -->
<g id="node23" class="node">
<title>Node22</title>
<polygon fill="#ffffff" stroke="#bfbfbf" points="559,-112.5 559,-131.5 639,-131.5 639,-112.5 559,-112.5"/>
<text text-anchor="middle" x="599" y="-119.5" font-family="Helvetica,sans-Serif" font-size="10.00" fill="#000000">Eigen/Sparse</text>
</g>
<!-- Node19&#45;&gt;Node22 -->
<g id="edge29" class="edge">
<title>Node19&#45;&gt;Node22</title>
<path fill="none" stroke="#191970" d="M551.9286,-168.2455C560.1838,-160.1352 572.1209,-148.4075 581.9082,-138.7919"/>
<polygon fill="#191970" stroke="#191970" points="584.5046,-141.1476 589.1851,-131.6427 579.5989,-136.1542 584.5046,-141.1476"/>
</g>
<!-- Node23&#45;&gt;Node11 -->
<g id="edge31" class="edge">
<title>Node23&#45;&gt;Node11</title>
<path fill="none" stroke="#191970" d="M678.7482,-168.2455C683.2435,-160.617 689.6248,-149.7881 695.0825,-140.5267"/>
<polygon fill="#191970" stroke="#191970" points="698.2561,-142.035 700.3177,-131.6427 692.2253,-138.4811 698.2561,-142.035"/>
</g>
<!-- Node26&#45;&gt;Node1 -->
<g id="edge37" class="edge">
<title>Node26&#45;&gt;Node1</title>
<path fill="none" stroke="#191970" d="M304.989,-224.4369C255.3553,-214.7522 178.5727,-199.7703 125.7166,-189.4569"/>
<polygon fill="#191970" stroke="#191970" points="126.294,-186.0036 115.8088,-187.5237 124.9534,-192.8741 126.294,-186.0036"/>
</g>
<!-- Node26&#45;&gt;Node15 -->
<g id="edge39" class="edge">
<title>Node26&#45;&gt;Node15</title>
<path fill="none" stroke="#191970" d="M445.735,-227.9741C523.9103,-221.7681 639.2619,-210.0815 748.4677,-187.7713"/>
<polygon fill="#191970" stroke="#191970" points="749.2579,-191.182 758.3376,-185.7221 747.8348,-184.3282 749.2579,-191.182"/>
</g>
<!-- Node26&#45;&gt;Node25 -->
<g id="edge38" class="edge">
<title>Node26&#45;&gt;Node25</title>
<path fill="none" stroke="#191970" d="M360.7933,-224.2455C366.2178,-216.4564 373.9661,-205.3308 380.5033,-195.9439"/>
<polygon fill="#191970" stroke="#191970" points="383.4417,-197.849 386.2846,-187.6427 377.6975,-193.8485 383.4417,-197.849"/>
</g>
<!-- Node27 -->
<g id="node28" class="node">
<title>Node27</title>
<polygon fill="#ffffff" stroke="#bfbfbf" points="152,-168.5 152,-187.5 268,-187.5 268,-168.5 152,-168.5"/>
<text text-anchor="middle" x="210" y="-175.5" font-family="Helvetica,sans-Serif" font-size="10.00" fill="#000000">QAbstractItemModel</text>
</g>
<!-- Node26&#45;&gt;Node27 -->
<g id="edge40" class="edge">
<title>Node26&#45;&gt;Node27</title>
<path fill="none" stroke="#191970" d="M329.2455,-224.3733C305.7151,-215.2226 270.1313,-201.3844 243.9574,-191.2057"/>
<polygon fill="#191970" stroke="#191970" points="245.0201,-187.8636 234.4315,-187.5011 242.4829,-194.3877 245.0201,-187.8636"/>
</g>
<!-- Node28 -->
<g id="node29" class="node">
<title>Node28</title>
<polygon fill="#ffffff" stroke="#bfbfbf" points="286.5,-168.5 286.5,-187.5 345.5,-187.5 345.5,-168.5 286.5,-168.5"/>
<text text-anchor="middle" x="316" y="-175.5" font-family="Helvetica,sans-Serif" font-size="10.00" fill="#000000">QVariant</text>
</g>
<!-- Node26&#45;&gt;Node28 -->
<g id="edge41" class="edge">
<title>Node26&#45;&gt;Node28</title>
<path fill="none" stroke="#191970" d="M347.3809,-224.2455C342.0954,-216.4564 334.5459,-205.3308 328.1762,-195.9439"/>
<polygon fill="#191970" stroke="#191970" points="331.0545,-193.9522 322.5432,-187.6427 325.2621,-197.8827 331.0545,-193.9522"/>
</g>
</g>
</svg>
        <g id="navigator" transform="translate(0 0)" fill="#404254">
                <rect fill="#f2f5e9" fill-opacity="0.5" stroke="#606060" stroke-width=".5" x="0" y="0" width="60" height="60"/>
                <use id="zoomplus" xlink:href="#zoomPlus" x="17" y="9" onmousedown="handleZoom(evt,'in')"/>
                <use id="zoomminus" xlink:href="#zoomMin" x="42" y="9" onmousedown="handleZoom(evt,'out')"/>
                <use id="reset" xlink:href="#resetDef" x="30" y="36" onmousedown="handleReset()"/>
                <g id="arrowUp" xlink:href="#dirArrow" transform="translate(30 24)" onmousedown="handlePan(0,-1)">
                  <use xlink:href="#rim" fill="#404040">
                        <set attributeName="fill" to="#808080" begin="arrowUp.mouseover" end="arrowUp.mouseout"/>
                  </use>
                  <path fill="none" stroke="white" stroke-width="1.5" d="M0,-3.0v7 M-2.5,-0.5L0,-3.0L2.5,-0.5"/>
                </g>
                <g id="arrowRight" xlink:href="#dirArrow" transform="rotate(90) translate(36 -43)" onmousedown="handlePan(1,0)">
                  <use xlink:href="#rim" fill="#404040">
                        <set attributeName="fill" to="#808080" begin="arrowRight.mouseover" end="arrowRight.mouseout"/>
                  </use>
                  <path fill="none" stroke="white" stroke-width="1.5" d="M0,-3.0v7 M-2.5,-0.5L0,-3.0L2.5,-0.5"/>
                </g>
                <g id="arrowDown" xlink:href="#dirArrow" transform="rotate(180) translate(-30 -48)" onmousedown="handlePan(0,1)">
                  <use xlink:href="#rim" fill="#404040">
                        <set attributeName="fill" to="#808080" begin="arrowDown.mouseover" end="arrowDown.mouseout"/>
                  </use>
                  <path fill="none" stroke="white" stroke-width="1.5" d="M0,-3.0v7 M-2.5,-0.5L0,-3.0L2.5,-0.5"/>
                </g>
                <g id="arrowLeft" xlink:href="#dirArrow" transform="rotate(270) translate(-36 17)" onmousedown="handlePan(-1,0)">
                  <use xlink:href="#rim" fill="#404040">
                        <set attributeName="fill" to="#808080" begin="arrowLeft.mouseover" end="arrowLeft.mouseout"/>
                  </use>
                  <path fill="none" stroke="white" stroke-width="1.5" d="M0,-3.0v7 M-2.5,-0.5L0,-3.0L2.5,-0.5"/>
                </g>
        </g>
        <svg viewBox="0 0 15 15" width="100%" height="30px" preserveAspectRatio="xMaxYMin meet">
         <g id="arrow_out" transform="scale(0.3 0.3)">
          <a xlink:href="SelectionManager_8hpp__incl_org.svg" target="_base">
           <rect id="button" ry="5" rx="5" y="6" x="6" height="38" width="38"
                fill="#f2f5e9" fill-opacity="0.5" stroke="#606060" stroke-width="1.0"/>
           <path id="arrow"
             d="M 11.500037,31.436501 C 11.940474,20.09759 22.043105,11.32322 32.158766,21.979434 L 37.068811,17.246167 C 37.068811,17.246167 37.088388,32 37.088388,32 L 22.160133,31.978069 C 22.160133,31.978069 26.997745,27.140456 26.997745,27.140456 C 18.528582,18.264221 13.291696,25.230495 11.500037,31.436501 z"
             style="fill:#404040;"/>
          </a>
         </g>
        </svg>
</svg>
