<?xml version="1.0" encoding="UTF-8" standalone="no"?>
<!DOCTYPE svg PUBLIC "-//W3C//DTD SVG 1.1//EN"
 "http://www.w3.org/Graphics/SVG/1.1/DTD/svg11.dtd">
<!-- Generated by graphviz version 2.40.1 (20161225.0304)
 -->
<!-- Title: src/GuiBase/SelectionManager/SelectionManager.cpp Pages: 1 -->
<svg width="1541pt" height="453pt"
 viewBox="0.00 0.00 1541.00 453.00" xmlns="http://www.w3.org/2000/svg" xmlns:xlink="http://www.w3.org/1999/xlink">
<g id="graph0" class="graph" transform="scale(1 1) rotate(0) translate(4 449)">
<title>src/GuiBase/SelectionManager/SelectionManager.cpp</title>
<polygon fill="#ffffff" stroke="transparent" points="-4,4 -4,-449 1537,-449 1537,4 -4,4"/>
<!-- Node0 -->
<g id="node1" class="node">
<title>Node0</title>
<polygon fill="#bfbfbf" stroke="#000000" points="821,-414.5 821,-444.5 985,-444.5 985,-414.5 821,-414.5"/>
<text text-anchor="start" x="829" y="-432.5" font-family="Helvetica,sans-Serif" font-size="10.00" fill="#000000">src/GuiBase/SelectionManager</text>
<text text-anchor="middle" x="903" y="-421.5" font-family="Helvetica,sans-Serif" font-size="10.00" fill="#000000">/SelectionManager.cpp</text>
</g>
<!-- Node1 -->
<g id="node2" class="node">
<title>Node1</title>
<g id="a_node2"><a xlink:href="SelectionManager_8hpp.html" target="_top" xlink:title="GuiBase/SelectionManager\l/SelectionManager.hpp">
<polygon fill="#ffffff" stroke="#000000" points="534.5,-347.5 534.5,-377.5 681.5,-377.5 681.5,-347.5 534.5,-347.5"/>
<text text-anchor="start" x="542.5" y="-365.5" font-family="Helvetica,sans-Serif" font-size="10.00" fill="#000000">GuiBase/SelectionManager</text>
<text text-anchor="middle" x="608" y="-354.5" font-family="Helvetica,sans-Serif" font-size="10.00" fill="#000000">/SelectionManager.hpp</text>
</a>
</g>
</g>
<!-- Node0&#45;&gt;Node1 -->
<g id="edge1" class="edge">
<title>Node0&#45;&gt;Node1</title>
<path fill="none" stroke="#191970" d="M836.7962,-414.4639C791.5177,-404.1803 731.3756,-390.5209 684.1165,-379.7875"/>
<polygon fill="#191970" stroke="#191970" points="684.7644,-376.3456 674.2375,-377.5438 683.214,-383.1717 684.7644,-376.3456"/>
</g>
<!-- Node19 -->
<g id="node20" class="node">
<title>Node19</title>
<g id="a_node20"><a xlink:href="RadiumEngine_8hpp.html" target="_top" xlink:title="Engine/RadiumEngine.hpp">
<polygon fill="#ffffff" stroke="#000000" points="831,-224.5 831,-243.5 975,-243.5 975,-224.5 831,-224.5"/>
<text text-anchor="middle" x="903" y="-231.5" font-family="Helvetica,sans-Serif" font-size="10.00" fill="#000000">Engine/RadiumEngine.hpp</text>
</a>
</g>
</g>
<!-- Node0&#45;&gt;Node19 -->
<g id="edge50" class="edge">
<title>Node0&#45;&gt;Node19</title>
<path fill="none" stroke="#191970" d="M903,-414.4841C903,-379.654 903,-293.3473 903,-254.0563"/>
<polygon fill="#191970" stroke="#191970" points="906.5001,-253.8898 903,-243.8898 899.5001,-253.8899 906.5001,-253.8898"/>
</g>
<!-- Node31 -->
<g id="node32" class="node">
<title>Node31</title>
<g id="a_node32"><a xlink:href="Log_8hpp.html" target="_top" xlink:title="Core/Utils/Log.hpp">
<polygon fill="#ffffff" stroke="#000000" points="1265,-224.5 1265,-243.5 1371,-243.5 1371,-224.5 1265,-224.5"/>
<text text-anchor="middle" x="1318" y="-231.5" font-family="Helvetica,sans-Serif" font-size="10.00" fill="#000000">Core/Utils/Log.hpp</text>
</a>
</g>
</g>
<!-- Node0&#45;&gt;Node31 -->
<g id="edge44" class="edge">
<title>Node0&#45;&gt;Node31</title>
<path fill="none" stroke="#191970" d="M934.8753,-414.4841C1012.8006,-377.7746 1212.1095,-283.8834 1288.0222,-248.1221"/>
<polygon fill="#191970" stroke="#191970" points="1289.9239,-251.0952 1297.4787,-243.6672 1286.9407,-244.7627 1289.9239,-251.0952"/>
</g>
<!-- Node2 -->
<g id="node3" class="node">
<title>Node2</title>
<g id="a_node3"><a xlink:href="RaGuiBase_8hpp.html" target="_top" xlink:title="GuiBase/RaGuiBase.hpp">
<polygon fill="#ffffff" stroke="#000000" points="0,-168.5 0,-187.5 134,-187.5 134,-168.5 0,-168.5"/>
<text text-anchor="middle" x="67" y="-175.5" font-family="Helvetica,sans-Serif" font-size="10.00" fill="#000000">GuiBase/RaGuiBase.hpp</text>
</a>
</g>
</g>
<!-- Node1&#45;&gt;Node2 -->
<g id="edge2" class="edge">
<title>Node1&#45;&gt;Node2</title>
<path fill="none" stroke="#191970" d="M534.4441,-348.2889C491.5547,-339.2398 436.6838,-326.3445 389,-311 278.1976,-275.3442 152.0181,-218.1362 96.1965,-191.9288"/>
<polygon fill="#191970" stroke="#191970" points="97.4588,-188.6545 86.9211,-187.5549 94.4731,-194.9858 97.4588,-188.6545"/>
</g>
<!-- Node9 -->
<g id="node10" class="node">
<title>Node9</title>
<g id="a_node10"><a xlink:href="ItemEntry_8hpp.html" target="_top" xlink:title="Engine/ItemModel/ItemEntry.hpp">
<polygon fill="#ffffff" stroke="#000000" points="619.5,-224.5 619.5,-243.5 794.5,-243.5 794.5,-224.5 619.5,-224.5"/>
<text text-anchor="middle" x="707" y="-231.5" font-family="Helvetica,sans-Serif" font-size="10.00" fill="#000000">Engine/ItemModel/ItemEntry.hpp</text>
</a>
</g>
</g>
<!-- Node1&#45;&gt;Node9 -->
<g id="edge9" class="edge">
<title>Node1&#45;&gt;Node9</title>
<path fill="none" stroke="#191970" d="M642.2844,-347.4104C658.0522,-338.85 675.7182,-326.6829 687,-311 699.058,-294.2381 703.8534,-270.7937 705.7564,-254.1881"/>
<polygon fill="#191970" stroke="#191970" points="709.2672,-254.2212 706.6655,-243.9508 702.2946,-253.6019 709.2672,-254.2212"/>
</g>
<!-- Node18 -->
<g id="node19" class="node">
<title>Node18</title>
<g id="a_node19"><a xlink:href="EntityTreeModel_8hpp.html" target="_top" xlink:title="GuiBase/TreeModel/Entity\lTreeModel.hpp">
<polygon fill="#ffffff" stroke="#000000" points="537.5,-280.5 537.5,-310.5 678.5,-310.5 678.5,-280.5 537.5,-280.5"/>
<text text-anchor="start" x="545.5" y="-298.5" font-family="Helvetica,sans-Serif" font-size="10.00" fill="#000000">GuiBase/TreeModel/Entity</text>
<text text-anchor="middle" x="608" y="-287.5" font-family="Helvetica,sans-Serif" font-size="10.00" fill="#000000">TreeModel.hpp</text>
</a>
</g>
</g>
<!-- Node1&#45;&gt;Node18 -->
<g id="edge21" class="edge">
<title>Node1&#45;&gt;Node18</title>
<path fill="none" stroke="#191970" d="M608,-347.2967C608,-339.5013 608,-329.7991 608,-320.9064"/>
<polygon fill="#191970" stroke="#191970" points="611.5001,-320.6431 608,-310.6432 604.5001,-320.6432 611.5001,-320.6431"/>
</g>
<!-- Node30 -->
<g id="node31" class="node">
<title>Node30</title>
<polygon fill="#ffffff" stroke="#bfbfbf" points="398.5,-286 398.5,-305 519.5,-305 519.5,-286 398.5,-286"/>
<text text-anchor="middle" x="459" y="-293" font-family="Helvetica,sans-Serif" font-size="10.00" fill="#000000">QItemSelectionModel</text>
</g>
<!-- Node1&#45;&gt;Node30 -->
<g id="edge43" class="edge">
<title>Node1&#45;&gt;Node30</title>
<path fill="none" stroke="#191970" d="M574.5615,-347.4639C549.1107,-336.0196 514.3623,-320.3945 489.6317,-309.274"/>
<polygon fill="#191970" stroke="#191970" points="490.9137,-306.013 480.358,-305.1039 488.0429,-312.3972 490.9137,-306.013"/>
</g>
<!-- Node3 -->
<g id="node4" class="node">
<title>Node3</title>
<g id="a_node4"><a xlink:href="CoreMacros_8hpp.html" target="_top" xlink:title="Core/CoreMacros.hpp">
<polygon fill="#ffffff" stroke="#000000" points="918,-56.5 918,-75.5 1038,-75.5 1038,-56.5 918,-56.5"/>
<text text-anchor="middle" x="978" y="-63.5" font-family="Helvetica,sans-Serif" font-size="10.00" fill="#000000">Core/CoreMacros.hpp</text>
</a>
</g>
</g>
<!-- Node2&#45;&gt;Node3 -->
<g id="edge3" class="edge">
<title>Node2&#45;&gt;Node3</title>
<path fill="none" stroke="#191970" d="M101.6209,-168.3831C155.8276,-153.7279 264.2428,-126.0305 358,-112 555.9119,-82.3831 792.3547,-71.5377 907.7094,-67.8083"/>
<polygon fill="#191970" stroke="#191970" points="907.9339,-71.3031 917.8187,-67.4898 907.7134,-64.3065 907.9339,-71.3031"/>
</g>
<!-- Node4 -->
<g id="node5" class="node">
<title>Node4</title>
<polygon fill="#ffffff" stroke="#bfbfbf" points="1056,-.5 1056,-19.5 1108,-19.5 1108,-.5 1056,-.5"/>
<text text-anchor="middle" x="1082" y="-7.5" font-family="Helvetica,sans-Serif" font-size="10.00" fill="#000000">cassert</text>
</g>
<!-- Node3&#45;&gt;Node4 -->
<g id="edge4" class="edge">
<title>Node3&#45;&gt;Node4</title>
<path fill="none" stroke="#191970" d="M996.1154,-56.2455C1012.445,-47.4527 1036.671,-34.4079 1055.2339,-24.4125"/>
<polygon fill="#191970" stroke="#191970" points="1056.9468,-27.4654 1064.0922,-19.6427 1053.6281,-21.3021 1056.9468,-27.4654"/>
</g>
<!-- Node5 -->
<g id="node6" class="node">
<title>Node5</title>
<polygon fill="#ffffff" stroke="#bfbfbf" points="848,-.5 848,-19.5 894,-19.5 894,-.5 848,-.5"/>
<text text-anchor="middle" x="871" y="-7.5" font-family="Helvetica,sans-Serif" font-size="10.00" fill="#000000">cstdio</text>
</g>
<!-- Node3&#45;&gt;Node5 -->
<g id="edge5" class="edge">
<title>Node3&#45;&gt;Node5</title>
<path fill="none" stroke="#191970" d="M959.362,-56.2455C942.5614,-47.4527 917.6366,-34.4079 898.5382,-24.4125"/>
<polygon fill="#191970" stroke="#191970" points="899.9073,-21.1787 889.4244,-19.6427 896.6614,-27.3807 899.9073,-21.1787"/>
</g>
<!-- Node6 -->
<g id="node7" class="node">
<title>Node6</title>
<polygon fill="#ffffff" stroke="#bfbfbf" points="912,-.5 912,-19.5 972,-19.5 972,-.5 912,-.5"/>
<text text-anchor="middle" x="942" y="-7.5" font-family="Helvetica,sans-Serif" font-size="10.00" fill="#000000">iostream</text>
</g>
<!-- Node3&#45;&gt;Node6 -->
<g id="edge6" class="edge">
<title>Node3&#45;&gt;Node6</title>
<path fill="none" stroke="#191970" d="M971.7293,-56.2455C966.7736,-48.5367 959.717,-37.5598 953.7224,-28.2348"/>
<polygon fill="#191970" stroke="#191970" points="956.5506,-26.1618 948.1989,-19.6427 950.6624,-29.9471 956.5506,-26.1618"/>
</g>
<!-- Node7 -->
<g id="node8" class="node">
<title>Node7</title>
<polygon fill="#ffffff" stroke="#bfbfbf" points="1232,-.5 1232,-19.5 1288,-19.5 1288,-.5 1232,-.5"/>
<text text-anchor="middle" x="1260" y="-7.5" font-family="Helvetica,sans-Serif" font-size="10.00" fill="#000000">sstream</text>
</g>
<!-- Node3&#45;&gt;Node7 -->
<g id="edge7" class="edge">
<title>Node3&#45;&gt;Node7</title>
<path fill="none" stroke="#191970" d="M1026.1571,-56.4369C1081.4932,-45.4481 1171.173,-27.6394 1221.8852,-17.5689"/>
<polygon fill="#191970" stroke="#191970" points="1222.6609,-20.9833 1231.7876,-15.6025 1221.2974,-14.1174 1222.6609,-20.9833"/>
</g>
<!-- Node8 -->
<g id="node9" class="node">
<title>Node8</title>
<polygon fill="#ffffff" stroke="#bfbfbf" points="990,-.5 990,-19.5 1038,-19.5 1038,-.5 990,-.5"/>
<text text-anchor="middle" x="1014" y="-7.5" font-family="Helvetica,sans-Serif" font-size="10.00" fill="#000000">thread</text>
</g>
<!-- Node3&#45;&gt;Node8 -->
<g id="edge8" class="edge">
<title>Node3&#45;&gt;Node8</title>
<path fill="none" stroke="#191970" d="M984.2707,-56.2455C989.2264,-48.5367 996.283,-37.5598 1002.2776,-28.2348"/>
<polygon fill="#191970" stroke="#191970" points="1005.3376,-29.9471 1007.8011,-19.6427 999.4494,-26.1618 1005.3376,-29.9471"/>
</g>
<!-- Node10 -->
<g id="node11" class="node">
<title>Node10</title>
<g id="a_node11"><a xlink:href="RaEngine_8hpp.html" target="_top" xlink:title="Engine/RaEngine.hpp">
<polygon fill="#ffffff" stroke="#000000" points="826.5,-168.5 826.5,-187.5 945.5,-187.5 945.5,-168.5 826.5,-168.5"/>
<text text-anchor="middle" x="886" y="-175.5" font-family="Helvetica,sans-Serif" font-size="10.00" fill="#000000">Engine/RaEngine.hpp</text>
</a>
</g>
</g>
<!-- Node9&#45;&gt;Node10 -->
<g id="edge10" class="edge">
<title>Node9&#45;&gt;Node10</title>
<path fill="none" stroke="#191970" d="M737.7712,-224.3733C767.665,-215.021 813.2093,-200.7725 845.9217,-190.5385"/>
<polygon fill="#191970" stroke="#191970" points="847.1315,-193.8273 855.6303,-187.5011 845.0414,-187.1466 847.1315,-193.8273"/>
</g>
<!-- Node11 -->
<g id="node12" class="node">
<title>Node11</title>
<g id="a_node12"><a xlink:href="Index_8hpp.html" target="_top" xlink:title="Core/Utils/Index.hpp">
<polygon fill="#ffffff" stroke="#000000" points="364,-168.5 364,-187.5 480,-187.5 480,-168.5 364,-168.5"/>
<text text-anchor="middle" x="422" y="-175.5" font-family="Helvetica,sans-Serif" font-size="10.00" fill="#000000">Core/Utils/Index.hpp</text>
</a>
</g>
</g>
<!-- Node9&#45;&gt;Node11 -->
<g id="edge12" class="edge">
<title>Node9&#45;&gt;Node11</title>
<path fill="none" stroke="#191970" d="M658.3306,-224.4369C609.0427,-214.7522 532.7952,-199.7703 480.3074,-189.4569"/>
<polygon fill="#191970" stroke="#191970" points="480.9559,-186.0175 470.4687,-187.5237 479.6062,-192.8861 480.9559,-186.0175"/>
</g>
<!-- Node15 -->
<g id="node16" class="node">
<title>Node15</title>
<polygon fill="#ffffff" stroke="#bfbfbf" points="1172,-168.5 1172,-187.5 1216,-187.5 1216,-168.5 1172,-168.5"/>
<text text-anchor="middle" x="1194" y="-175.5" font-family="Helvetica,sans-Serif" font-size="10.00" fill="#000000">string</text>
</g>
<!-- Node9&#45;&gt;Node15 -->
<g id="edge18" class="edge">
<title>Node9&#45;&gt;Node15</title>
<path fill="none" stroke="#191970" d="M794.6943,-226.1606C909.3979,-215.7621 1101.9571,-197.7627 1161.688,-187.6872"/>
<polygon fill="#191970" stroke="#191970" points="1162.6214,-191.073 1171.8007,-185.7824 1161.3256,-184.194 1162.6214,-191.073"/>
</g>
<!-- Node16 -->
<g id="node17" class="node">
<title>Node16</title>
<polygon fill="#ffffff" stroke="#bfbfbf" points="574.5,-168.5 574.5,-187.5 621.5,-187.5 621.5,-168.5 574.5,-168.5"/>
<text text-anchor="middle" x="598" y="-175.5" font-family="Helvetica,sans-Serif" font-size="10.00" fill="#000000">vector</text>
</g>
<!-- Node9&#45;&gt;Node16 -->
<g id="edge19" class="edge">
<title>Node9&#45;&gt;Node16</title>
<path fill="none" stroke="#191970" d="M688.0136,-224.2455C670.8208,-215.4125 645.2762,-202.2887 625.7868,-192.2758"/>
<polygon fill="#191970" stroke="#191970" points="627.263,-189.0993 616.7688,-187.6427 624.0641,-195.3257 627.263,-189.0993"/>
</g>
<!-- Node17 -->
<g id="node18" class="node">
<title>Node17</title>
<g id="a_node18"><a xlink:href="ItemEntry_8inl.html" target="_top" xlink:title="Engine/ItemModel/ItemEntry.inl">
<polygon fill="#ffffff" stroke="#000000" points="639.5,-168.5 639.5,-187.5 808.5,-187.5 808.5,-168.5 639.5,-168.5"/>
<text text-anchor="middle" x="724" y="-175.5" font-family="Helvetica,sans-Serif" font-size="10.00" fill="#000000">Engine/ItemModel/ItemEntry.inl</text>
</a>
</g>
</g>
<!-- Node9&#45;&gt;Node17 -->
<g id="edge20" class="edge">
<title>Node9&#45;&gt;Node17</title>
<path fill="none" stroke="#191970" d="M709.9612,-224.2455C712.2038,-216.8579 715.3577,-206.4689 718.1081,-197.4087"/>
<polygon fill="#191970" stroke="#191970" points="721.517,-198.2282 721.0728,-187.6427 714.8188,-196.1948 721.517,-198.2282"/>
</g>
<!-- Node10&#45;&gt;Node3 -->
<g id="edge11" class="edge">
<title>Node10&#45;&gt;Node3</title>
<path fill="none" stroke="#191970" d="M893.8439,-168.4509C909.3242,-149.6054 944.0053,-107.3849 963.6727,-83.4419"/>
<polygon fill="#191970" stroke="#191970" points="966.5331,-85.4738 970.176,-75.5249 961.124,-81.0306 966.5331,-85.4738"/>
</g>
<!-- Node12 -->
<g id="node13" class="node">
<title>Node12</title>
<g id="a_node13"><a xlink:href="RaCore_8hpp.html" target="_top" xlink:title="Core/RaCore.hpp">
<polygon fill="#ffffff" stroke="#000000" points="968,-112.5 968,-131.5 1066,-131.5 1066,-112.5 968,-112.5"/>
<text text-anchor="middle" x="1017" y="-119.5" font-family="Helvetica,sans-Serif" font-size="10.00" fill="#000000">Core/RaCore.hpp</text>
</a>
</g>
</g>
<!-- Node11&#45;&gt;Node12 -->
<g id="edge13" class="edge">
<title>Node11&#45;&gt;Node12</title>
<path fill="none" stroke="#191970" d="M480.0755,-169.1096C483.0915,-168.7176 486.0801,-168.3448 489,-168 658.6718,-147.966 859.981,-132.7943 957.7742,-125.9709"/>
<polygon fill="#191970" stroke="#191970" points="958.028,-129.4618 967.7618,-125.278 957.5435,-122.4786 958.028,-129.4618"/>
</g>
<!-- Node13 -->
<g id="node14" class="node">
<title>Node13</title>
<polygon fill="#ffffff" stroke="#bfbfbf" points="495,-112.5 495,-131.5 539,-131.5 539,-112.5 495,-112.5"/>
<text text-anchor="middle" x="517" y="-119.5" font-family="Helvetica,sans-Serif" font-size="10.00" fill="#000000">limits</text>
</g>
<!-- Node11&#45;&gt;Node13 -->
<g id="edge15" class="edge">
<title>Node11&#45;&gt;Node13</title>
<path fill="none" stroke="#191970" d="M438.5477,-168.2455C453.2599,-159.5731 474.9888,-146.7645 491.8505,-136.825"/>
<polygon fill="#191970" stroke="#191970" points="493.8046,-139.736 500.6419,-131.6427 490.2498,-133.7057 493.8046,-139.736"/>
</g>
<!-- Node14 -->
<g id="node15" class="node">
<title>Node14</title>
<g id="a_node15"><a xlink:href="Index_8inl.html" target="_top" xlink:title="Core/Utils/Index.inl">
<polygon fill="#ffffff" stroke="#000000" points="367,-112.5 367,-131.5 477,-131.5 477,-112.5 367,-112.5"/>
<text text-anchor="middle" x="422" y="-119.5" font-family="Helvetica,sans-Serif" font-size="10.00" fill="#000000">Core/Utils/Index.inl</text>
</a>
</g>
</g>
<!-- Node11&#45;&gt;Node14 -->
<g id="edge16" class="edge">
<title>Node11&#45;&gt;Node14</title>
<path fill="none" stroke="#191970" d="M416.7332,-168.2455C415.3221,-160.9382 414.9179,-150.6944 415.5205,-141.7046"/>
<polygon fill="#191970" stroke="#191970" points="419.0111,-141.9945 416.7549,-131.6427 412.0632,-141.1421 419.0111,-141.9945"/>
</g>
<!-- Node12&#45;&gt;Node3 -->
<g id="edge14" class="edge">
<title>Node12&#45;&gt;Node3</title>
<path fill="none" stroke="#191970" d="M1010.2067,-112.2455C1004.7822,-104.4564 997.0339,-93.3308 990.4967,-83.9439"/>
<polygon fill="#191970" stroke="#191970" points="993.3025,-81.8485 984.7154,-75.6427 987.5583,-85.849 993.3025,-81.8485"/>
</g>
<!-- Node14&#45;&gt;Node11 -->
<g id="edge17" class="edge">
<title>Node14&#45;&gt;Node11</title>
<path fill="none" stroke="#191970" d="M427.2451,-131.6427C428.6665,-138.9199 429.081,-149.155 428.4887,-158.1575"/>
<polygon fill="#191970" stroke="#191970" points="424.9947,-157.8972 427.2668,-168.2455 431.9439,-158.739 424.9947,-157.8972"/>
</g>
<!-- Node18&#45;&gt;Node2 -->
<g id="edge22" class="edge">
<title>Node18&#45;&gt;Node2</title>
<path fill="none" stroke="#191970" d="M538.9325,-280.4992C429.7368,-256.7829 219.5076,-211.1232 120.7428,-189.6724"/>
<polygon fill="#191970" stroke="#191970" points="121.485,-186.2521 110.97,-187.5499 119.9993,-193.0926 121.485,-186.2521"/>
</g>
<!-- Node18&#45;&gt;Node9 -->
<g id="edge23" class="edge">
<title>Node18&#45;&gt;Node9</title>
<path fill="none" stroke="#191970" d="M632.2181,-280.4554C647.5773,-270.9141 667.3757,-258.6151 682.7425,-249.0691"/>
<polygon fill="#191970" stroke="#191970" points="685.011,-251.7802 691.6585,-243.5303 681.3172,-245.8341 685.011,-251.7802"/>
</g>
<!-- Node18&#45;&gt;Node19 -->
<g id="edge24" class="edge">
<title>Node18&#45;&gt;Node19</title>
<path fill="none" stroke="#191970" d="M678.6599,-280.7692C730.3791,-269.9871 799.5854,-255.5593 847.3894,-245.5934"/>
<polygon fill="#191970" stroke="#191970" points="848.1762,-249.0047 857.2514,-243.5374 846.7475,-242.152 848.1762,-249.0047"/>
</g>
<!-- Node27 -->
<g id="node28" class="node">
<title>Node27</title>
<g id="a_node28"><a xlink:href="TreeModel_8hpp.html" target="_top" xlink:title="GuiBase/TreeModel/TreeModel.hpp">
<polygon fill="#ffffff" stroke="#000000" points="382.5,-224.5 382.5,-243.5 565.5,-243.5 565.5,-224.5 382.5,-224.5"/>
<text text-anchor="middle" x="474" y="-231.5" font-family="Helvetica,sans-Serif" font-size="10.00" fill="#000000">GuiBase/TreeModel/TreeModel.hpp</text>
</a>
</g>
</g>
<!-- Node18&#45;&gt;Node27 -->
<g id="edge37" class="edge">
<title>Node18&#45;&gt;Node27</title>
<path fill="none" stroke="#191970" d="M575.2199,-280.4554C553.45,-270.464 525.0914,-257.4487 503.9314,-247.7372"/>
<polygon fill="#191970" stroke="#191970" points="505.3137,-244.5206 494.7652,-243.5303 502.3938,-250.8826 505.3137,-244.5206"/>
</g>
<!-- Node19&#45;&gt;Node10 -->
<g id="edge25" class="edge">
<title>Node19&#45;&gt;Node10</title>
<path fill="none" stroke="#191970" d="M900.0388,-224.2455C897.7962,-216.8579 894.6423,-206.4689 891.8919,-197.4087"/>
<polygon fill="#191970" stroke="#191970" points="895.1812,-196.1948 888.9272,-187.6427 888.483,-198.2282 895.1812,-196.1948"/>
</g>
<!-- Node19&#45;&gt;Node15 -->
<g id="edge35" class="edge">
<title>Node19&#45;&gt;Node15</title>
<path fill="none" stroke="#191970" d="M971.6926,-224.4729C1022.0544,-216.8851 1092.1868,-205.0684 1161.9193,-188.0193"/>
<polygon fill="#191970" stroke="#191970" points="1162.8915,-191.3843 1171.7541,-185.5788 1161.2055,-184.5904 1162.8915,-191.3843"/>
</g>
<!-- Node19&#45;&gt;Node16 -->
<g id="edge36" class="edge">
<title>Node19&#45;&gt;Node16</title>
<path fill="none" stroke="#191970" d="M830.8998,-224.5814C777.9254,-217.0328 704.0994,-205.2078 631.443,-188.1225"/>
<polygon fill="#191970" stroke="#191970" points="632.205,-184.7061 621.6657,-185.7893 630.5802,-191.5149 632.205,-184.7061"/>
</g>
<!-- Node20 -->
<g id="node21" class="node">
<title>Node20</title>
<g id="a_node21"><a xlink:href="Types_8hpp.html" target="_top" xlink:title="Core/Types.hpp">
<polygon fill="#ffffff" stroke="#000000" points="1272.5,-168.5 1272.5,-187.5 1363.5,-187.5 1363.5,-168.5 1272.5,-168.5"/>
<text text-anchor="middle" x="1318" y="-175.5" font-family="Helvetica,sans-Serif" font-size="10.00" fill="#000000">Core/Types.hpp</text>
</a>
</g>
</g>
<!-- Node19&#45;&gt;Node20 -->
<g id="edge26" class="edge">
<title>Node19&#45;&gt;Node20</title>
<path fill="none" stroke="#191970" d="M973.8695,-224.4369C1055.4563,-213.4276 1187.7735,-195.5727 1262.3274,-185.5124"/>
<polygon fill="#191970" stroke="#191970" points="1263.0106,-188.9521 1272.4527,-184.1461 1262.0744,-182.0149 1263.0106,-188.9521"/>
</g>
<!-- Node24 -->
<g id="node25" class="node">
<title>Node24</title>
<g id="a_node25"><a xlink:href="Singleton_8hpp.html" target="_top" xlink:title="Core/Utils/Singleton.hpp">
<polygon fill="#ffffff" stroke="#000000" points="1020,-168.5 1020,-187.5 1154,-187.5 1154,-168.5 1020,-168.5"/>
<text text-anchor="middle" x="1087" y="-175.5" font-family="Helvetica,sans-Serif" font-size="10.00" fill="#000000">Core/Utils/Singleton.hpp</text>
</a>
</g>
</g>
<!-- Node19&#45;&gt;Node24 -->
<g id="edge31" class="edge">
<title>Node19&#45;&gt;Node24</title>
<path fill="none" stroke="#191970" d="M934.6307,-224.3733C965.3596,-215.021 1012.176,-200.7725 1045.8022,-190.5385"/>
<polygon fill="#191970" stroke="#191970" points="1047.2344,-193.7612 1055.782,-187.5011 1045.1962,-187.0644 1047.2344,-193.7612"/>
</g>
<!-- Node25 -->
<g id="node26" class="node">
<title>Node25</title>
<polygon fill="#ffffff" stroke="#bfbfbf" points="964,-168.5 964,-187.5 1002,-187.5 1002,-168.5 964,-168.5"/>
<text text-anchor="middle" x="983" y="-175.5" font-family="Helvetica,sans-Serif" font-size="10.00" fill="#000000">map</text>
</g>
<!-- Node19&#45;&gt;Node25 -->
<g id="edge33" class="edge">
<title>Node19&#45;&gt;Node25</title>
<path fill="none" stroke="#191970" d="M916.9349,-224.2455C929.0947,-215.7337 946.9464,-203.2375 961.0285,-193.3801"/>
<polygon fill="#191970" stroke="#191970" points="963.0395,-196.2447 969.2248,-187.6427 959.0253,-190.51 963.0395,-196.2447"/>
</g>
<!-- Node26 -->
<g id="node27" class="node">
<title>Node26</title>
<polygon fill="#ffffff" stroke="#bfbfbf" points="498,-168.5 498,-187.5 556,-187.5 556,-168.5 498,-168.5"/>
<text text-anchor="middle" x="527" y="-175.5" font-family="Helvetica,sans-Serif" font-size="10.00" fill="#000000">memory</text>
</g>
<!-- Node19&#45;&gt;Node26 -->
<g id="edge34" class="edge">
<title>Node19&#45;&gt;Node26</title>
<path fill="none" stroke="#191970" d="M830.7071,-226.7468C764.262,-219.4918 662.9049,-206.9443 566.3098,-188.0758"/>
<polygon fill="#191970" stroke="#191970" points="566.8653,-184.6179 556.376,-186.1093 565.506,-191.4847 566.8653,-184.6179"/>
</g>
<!-- Node20&#45;&gt;Node12 -->
<g id="edge27" class="edge">
<title>Node20&#45;&gt;Node12</title>
<path fill="none" stroke="#191970" d="M1272.2846,-169.4948C1219.8454,-159.7387 1133.7123,-143.7139 1076.1898,-133.0121"/>
<polygon fill="#191970" stroke="#191970" points="1076.623,-129.5327 1066.1515,-131.1445 1075.3426,-136.4146 1076.623,-129.5327"/>
</g>
<!-- Node21 -->
<g id="node22" class="node">
<title>Node21</title>
<polygon fill="#ffffff" stroke="#bfbfbf" points="1182.5,-112.5 1182.5,-131.5 1251.5,-131.5 1251.5,-112.5 1182.5,-112.5"/>
<text text-anchor="middle" x="1217" y="-119.5" font-family="Helvetica,sans-Serif" font-size="10.00" fill="#000000">Eigen/Core</text>
</g>
<!-- Node20&#45;&gt;Node21 -->
<g id="edge28" class="edge">
<title>Node20&#45;&gt;Node21</title>
<path fill="none" stroke="#191970" d="M1300.4071,-168.2455C1284.621,-159.4928 1261.2361,-146.527 1243.2413,-136.5496"/>
<polygon fill="#191970" stroke="#191970" points="1244.8341,-133.4308 1234.3913,-131.6427 1241.4397,-139.5528 1244.8341,-133.4308"/>
</g>
<!-- Node22 -->
<g id="node23" class="node">
<title>Node22</title>
<polygon fill="#ffffff" stroke="#bfbfbf" points="1269.5,-112.5 1269.5,-131.5 1364.5,-131.5 1364.5,-112.5 1269.5,-112.5"/>
<text text-anchor="middle" x="1317" y="-119.5" font-family="Helvetica,sans-Serif" font-size="10.00" fill="#000000">Eigen/Geometry</text>
</g>
<!-- Node20&#45;&gt;Node22 -->
<g id="edge29" class="edge">
<title>Node20&#45;&gt;Node22</title>
<path fill="none" stroke="#191970" d="M1317.8258,-168.2455C1317.6953,-160.9382 1317.5124,-150.6944 1317.3519,-141.7046"/>
<polygon fill="#191970" stroke="#191970" points="1320.8503,-141.5786 1317.1722,-131.6427 1313.8514,-141.7036 1320.8503,-141.5786"/>
</g>
<!-- Node23 -->
<g id="node24" class="node">
<title>Node23</title>
<polygon fill="#ffffff" stroke="#bfbfbf" points="1084,-112.5 1084,-131.5 1164,-131.5 1164,-112.5 1084,-112.5"/>
<text text-anchor="middle" x="1124" y="-119.5" font-family="Helvetica,sans-Serif" font-size="10.00" fill="#000000">Eigen/Sparse</text>
</g>
<!-- Node20&#45;&gt;Node23 -->
<g id="edge30" class="edge">
<title>Node20&#45;&gt;Node23</title>
<path fill="none" stroke="#191970" d="M1284.6502,-168.3733C1251.972,-158.9404 1202.0382,-144.5265 1166.523,-134.2747"/>
<polygon fill="#191970" stroke="#191970" points="1167.493,-130.9119 1156.9146,-131.5011 1165.5516,-137.6373 1167.493,-130.9119"/>
</g>
<!-- Node24&#45;&gt;Node12 -->
<g id="edge32" class="edge">
<title>Node24&#45;&gt;Node12</title>
<path fill="none" stroke="#191970" d="M1074.8069,-168.2455C1064.3679,-159.8943 1049.1345,-147.7076 1036.926,-137.9408"/>
<polygon fill="#191970" stroke="#191970" points="1039.0485,-135.1566 1029.0533,-131.6427 1034.6756,-140.6227 1039.0485,-135.1566"/>
</g>
<!-- Node27&#45;&gt;Node2 -->
<g id="edge38" class="edge">
<title>Node27&#45;&gt;Node2</title>
<path fill="none" stroke="#191970" d="M404.4967,-224.4369C332.2889,-214.5017 219.5628,-198.9914 144.5182,-188.6659"/>
<polygon fill="#191970" stroke="#191970" points="144.571,-185.1403 134.1873,-187.2444 143.6168,-192.0749 144.571,-185.1403"/>
</g>
<!-- Node27&#45;&gt;Node16 -->
<g id="edge40" class="edge">
<title>Node27&#45;&gt;Node16</title>
<path fill="none" stroke="#191970" d="M495.3164,-224.3733C515.2216,-215.3838 545.1436,-201.8706 567.56,-191.7471"/>
<polygon fill="#191970" stroke="#191970" points="569.2887,-194.8068 576.9618,-187.5011 566.4075,-188.4272 569.2887,-194.8068"/>
</g>
<!-- Node27&#45;&gt;Node26 -->
<g id="edge39" class="edge">
<title>Node27&#45;&gt;Node26</title>
<path fill="none" stroke="#191970" d="M483.2319,-224.2455C490.8317,-216.2155 501.7877,-204.6394 510.8368,-195.0781"/>
<polygon fill="#191970" stroke="#191970" points="513.5421,-197.3115 517.8739,-187.6427 508.458,-192.4998 513.5421,-197.3115"/>
</g>
<!-- Node28 -->
<g id="node29" class="node">
<title>Node28</title>
<polygon fill="#ffffff" stroke="#bfbfbf" points="152,-168.5 152,-187.5 268,-187.5 268,-168.5 152,-168.5"/>
<text text-anchor="middle" x="210" y="-175.5" font-family="Helvetica,sans-Serif" font-size="10.00" fill="#000000">QAbstractItemModel</text>
</g>
<!-- Node27&#45;&gt;Node28 -->
<g id="edge41" class="edge">
<title>Node27&#45;&gt;Node28</title>
<path fill="none" stroke="#191970" d="M428.9167,-224.4369C383.5454,-214.8127 313.5114,-199.957 264.9234,-189.6504"/>
<polygon fill="#191970" stroke="#191970" points="265.4059,-186.175 254.8973,-187.5237 263.9534,-193.0226 265.4059,-186.175"/>
</g>
<!-- Node29 -->
<g id="node30" class="node">
<title>Node29</title>
<polygon fill="#ffffff" stroke="#bfbfbf" points="286.5,-168.5 286.5,-187.5 345.5,-187.5 345.5,-168.5 286.5,-168.5"/>
<text text-anchor="middle" x="316" y="-175.5" font-family="Helvetica,sans-Serif" font-size="10.00" fill="#000000">QVariant</text>
</g>
<!-- Node27&#45;&gt;Node29 -->
<g id="edge42" class="edge">
<title>Node27&#45;&gt;Node29</title>
<path fill="none" stroke="#191970" d="M446.8388,-224.3733C420.7933,-215.1419 381.2884,-201.1402 352.5021,-190.9375"/>
<polygon fill="#191970" stroke="#191970" points="353.4015,-187.5429 342.8067,-187.5011 351.063,-194.1408 353.4015,-187.5429"/>
</g>
<!-- Node31&#45;&gt;Node7 -->
<g id="edge47" class="edge">
<title>Node31&#45;&gt;Node7</title>
<path fill="none" stroke="#191970" d="M1335.5302,-224.4575C1348.1581,-216.5241 1364.2789,-203.9651 1372,-188 1386.7114,-157.5812 1387.7918,-142.8466 1374,-112 1356.275,-72.3566 1314.6834,-41.7424 1286.9454,-24.7965"/>
<polygon fill="#191970" stroke="#191970" points="1288.5134,-21.6576 1278.1242,-19.5804 1284.9504,-27.6831 1288.5134,-21.6576"/>
</g>
<!-- Node31&#45;&gt;Node12 -->
<g id="edge45" class="edge">
<title>Node31&#45;&gt;Node12</title>
<path fill="none" stroke="#191970" d="M1307.437,-224.3057C1291.0483,-209.8038 1257.9394,-182.6081 1225,-168 1198.7723,-156.3685 1127.9317,-141.9389 1076.1903,-132.3756"/>
<polygon fill="#191970" stroke="#191970" points="1076.5826,-128.8893 1066.1156,-130.5301 1075.3213,-135.7748 1076.5826,-128.8893"/>
</g>
<!-- Node31&#45;&gt;Node15 -->
<g id="edge49" class="edge">
<title>Node31&#45;&gt;Node15</title>
<path fill="none" stroke="#191970" d="M1296.6836,-224.3733C1276.7784,-215.3838 1246.8564,-201.8706 1224.44,-191.7471"/>
<polygon fill="#191970" stroke="#191970" points="1225.5925,-188.4272 1215.0382,-187.5011 1222.7113,-194.8068 1225.5925,-188.4272"/>
</g>
<!-- Node32 -->
<g id="node33" class="node">
<title>Node32</title>
<polygon fill="#ffffff" stroke="#bfbfbf" points="1421,-168.5 1421,-187.5 1465,-187.5 1465,-168.5 1421,-168.5"/>
<text text-anchor="middle" x="1443" y="-175.5" font-family="Helvetica,sans-Serif" font-size="10.00" fill="#000000">ctime</text>
</g>
<!-- Node31&#45;&gt;Node32 -->
<g id="edge46" class="edge">
<title>Node31&#45;&gt;Node32</title>
<path fill="none" stroke="#191970" d="M1339.4883,-224.3733C1359.644,-215.3435 1389.988,-201.7494 1412.618,-191.6111"/>
<polygon fill="#191970" stroke="#191970" points="1414.0971,-194.7838 1421.7921,-187.5011 1411.2351,-188.3955 1414.0971,-194.7838"/>
</g>
<!-- Node33 -->
<g id="node34" class="node">
<title>Node33</title>
<polygon fill="#ffffff" stroke="#bfbfbf" points="1483,-168.5 1483,-187.5 1533,-187.5 1533,-168.5 1483,-168.5"/>
<text text-anchor="middle" x="1508" y="-175.5" font-family="Helvetica,sans-Serif" font-size="10.00" fill="#000000">stdio.h</text>
</g>
<!-- Node31&#45;&gt;Node33 -->
<g id="edge48" class="edge">
<title>Node31&#45;&gt;Node33</title>
<path fill="none" stroke="#191970" d="M1350.6622,-224.3733C1384.7509,-214.3261 1438.0123,-198.6279 1472.9613,-188.3272"/>
<polygon fill="#191970" stroke="#191970" points="1474.137,-191.6296 1482.7396,-185.4452 1472.158,-184.9152 1474.137,-191.6296"/>
</g>
</g>
</svg>
