<?xml version="1.0" encoding="UTF-8" standalone="no"?>
<!DOCTYPE svg PUBLIC "-//W3C//DTD SVG 1.1//EN"
 "http://www.w3.org/Graphics/SVG/1.1/DTD/svg11.dtd">
<!-- Generated by graphviz version 2.40.1 (20161225.0304)
 -->
<!-- Title: src/Engine/Renderer/RenderTechnique/ShaderProgramManager.cpp Pages: 1 -->
<svg width="1409pt" height="352pt"
 viewBox="0.00 0.00 1409.00 352.00" xmlns="http://www.w3.org/2000/svg" xmlns:xlink="http://www.w3.org/1999/xlink">
<g id="graph0" class="graph" transform="scale(1 1) rotate(0) translate(4 348)">
<title>src/Engine/Renderer/RenderTechnique/ShaderProgramManager.cpp</title>
<polygon fill="#ffffff" stroke="transparent" points="-4,4 -4,-348 1405,-348 1405,4 -4,4"/>
<!-- Node0 -->
<g id="node1" class="node">
<title>Node0</title>
<polygon fill="#bfbfbf" stroke="#000000" points="803,-302.5 803,-343.5 983,-343.5 983,-302.5 803,-302.5"/>
<text text-anchor="start" x="811" y="-331.5" font-family="Helvetica,sans-Serif" font-size="10.00" fill="#000000">src/Engine/Renderer</text>
<text text-anchor="start" x="811" y="-320.5" font-family="Helvetica,sans-Serif" font-size="10.00" fill="#000000">/RenderTechnique/ShaderProgram</text>
<text text-anchor="middle" x="893" y="-309.5" font-family="Helvetica,sans-Serif" font-size="10.00" fill="#000000">Manager.cpp</text>
</g>
<!-- Node1 -->
<g id="node2" class="node">
<title>Node1</title>
<g id="a_node2"><a xlink:href="ShaderProgram_8hpp.html" target="_top" xlink:title="Engine/Renderer/RenderTechnique\l/ShaderProgram.hpp">
<polygon fill="#ffffff" stroke="#000000" points="237,-235.5 237,-265.5 419,-265.5 419,-235.5 237,-235.5"/>
<text text-anchor="start" x="245" y="-253.5" font-family="Helvetica,sans-Serif" font-size="10.00" fill="#000000">Engine/Renderer/RenderTechnique</text>
<text text-anchor="middle" x="328" y="-242.5" font-family="Helvetica,sans-Serif" font-size="10.00" fill="#000000">/ShaderProgram.hpp</text>
</a>
</g>
</g>
<!-- Node0&#45;&gt;Node1 -->
<g id="edge1" class="edge">
<title>Node0&#45;&gt;Node1</title>
<path fill="none" stroke="#191970" d="M802.8774,-312.813C711.407,-302.2769 565.4464,-284.9256 429.2091,-266.1434"/>
<polygon fill="#191970" stroke="#191970" points="429.3857,-262.6346 419.0003,-264.7307 428.4261,-269.5685 429.3857,-262.6346"/>
</g>
<!-- Node21 -->
<g id="node22" class="node">
<title>Node21</title>
<g id="a_node22"><a xlink:href="ShaderProgramManager_8hpp.html" target="_top" xlink:title="Engine/Renderer/RenderTechnique\l/ShaderProgramManager.hpp">
<polygon fill="#ffffff" stroke="#000000" points="635,-235.5 635,-265.5 817,-265.5 817,-235.5 635,-235.5"/>
<text text-anchor="start" x="643" y="-253.5" font-family="Helvetica,sans-Serif" font-size="10.00" fill="#000000">Engine/Renderer/RenderTechnique</text>
<text text-anchor="middle" x="726" y="-242.5" font-family="Helvetica,sans-Serif" font-size="10.00" fill="#000000">/ShaderProgramManager.hpp</text>
</a>
</g>
</g>
<!-- Node0&#45;&gt;Node21 -->
<g id="edge25" class="edge">
<title>Node0&#45;&gt;Node21</title>
<path fill="none" stroke="#191970" d="M845.5912,-302.4183C821.8602,-292.116 793.3132,-279.7228 770.0623,-269.6289"/>
<polygon fill="#191970" stroke="#191970" points="771.3467,-266.3709 760.78,-265.5991 768.5591,-272.7919 771.3467,-266.3709"/>
</g>
<!-- Node25 -->
<g id="node26" class="node">
<title>Node25</title>
<g id="a_node26"><a xlink:href="MakeShared_8hpp.html" target="_top" xlink:title="Core/Containers/MakeShared.hpp">
<polygon fill="#ffffff" stroke="#000000" points="437.5,-241 437.5,-260 616.5,-260 616.5,-241 437.5,-241"/>
<text text-anchor="middle" x="527" y="-248" font-family="Helvetica,sans-Serif" font-size="10.00" fill="#000000">Core/Containers/MakeShared.hpp</text>
</a>
</g>
</g>
<!-- Node0&#45;&gt;Node25 -->
<g id="edge34" class="edge">
<title>Node0&#45;&gt;Node25</title>
<path fill="none" stroke="#191970" d="M802.9976,-305.1716C734.9692,-291.6961 643.5888,-273.5948 584.9823,-261.9856"/>
<polygon fill="#191970" stroke="#191970" points="585.6404,-258.548 575.1509,-260.0381 584.2802,-265.4146 585.6404,-258.548"/>
</g>
<!-- Node26 -->
<g id="node27" class="node">
<title>Node26</title>
<g id="a_node27"><a xlink:href="Log_8hpp.html" target="_top" xlink:title="Core/Utils/Log.hpp">
<polygon fill="#ffffff" stroke="#000000" points="1022,-174 1022,-193 1128,-193 1128,-174 1022,-174"/>
<text text-anchor="middle" x="1075" y="-181" font-family="Helvetica,sans-Serif" font-size="10.00" fill="#000000">Core/Utils/Log.hpp</text>
</a>
</g>
</g>
<!-- Node0&#45;&gt;Node26 -->
<g id="edge36" class="edge">
<title>Node0&#45;&gt;Node26</title>
<path fill="none" stroke="#191970" d="M876.4459,-302.2089C863.3236,-283.0406 849.5454,-254.6644 865,-235 906.8305,-181.7748 947.2735,-215.2094 1013,-199 1017.6052,-197.8643 1022.4013,-196.6756 1027.1961,-195.4834"/>
<polygon fill="#191970" stroke="#191970" points="1028.1176,-198.8609 1036.9747,-193.047 1026.4252,-192.0685 1028.1176,-198.8609"/>
</g>
<!-- Node29 -->
<g id="node30" class="node">
<title>Node29</title>
<polygon fill="#ffffff" stroke="#bfbfbf" points="873.5,-241 873.5,-260 1010.5,-260 1010.5,-241 873.5,-241"/>
<text text-anchor="middle" x="942" y="-248" font-family="Helvetica,sans-Serif" font-size="10.00" fill="#000000">globjects/NamedString.h</text>
</g>
<!-- Node0&#45;&gt;Node29 -->
<g id="edge42" class="edge">
<title>Node0&#45;&gt;Node29</title>
<path fill="none" stroke="#191970" d="M906.9104,-302.4183C914.1024,-291.7771 922.8019,-278.9053 929.7395,-268.6405"/>
<polygon fill="#191970" stroke="#191970" points="932.8218,-270.3304 935.5216,-260.0853 927.0221,-266.4107 932.8218,-270.3304"/>
</g>
<!-- Node30 -->
<g id="node31" class="node">
<title>Node30</title>
<polygon fill="#ffffff" stroke="#bfbfbf" points="1029,-241 1029,-260 1143,-260 1143,-241 1029,-241"/>
<text text-anchor="middle" x="1086" y="-248" font-family="Helvetica,sans-Serif" font-size="10.00" fill="#000000">globjects/Program.h</text>
</g>
<!-- Node0&#45;&gt;Node30 -->
<g id="edge43" class="edge">
<title>Node0&#45;&gt;Node30</title>
<path fill="none" stroke="#191970" d="M947.7898,-302.4183C980.8869,-289.9855 1022.0897,-274.5077 1050.8592,-263.7006"/>
<polygon fill="#191970" stroke="#191970" points="1052.3526,-266.8784 1060.4831,-260.0853 1049.891,-260.3255 1052.3526,-266.8784"/>
</g>
<!-- Node31 -->
<g id="node32" class="node">
<title>Node31</title>
<polygon fill="#ffffff" stroke="#bfbfbf" points="1161,-241 1161,-260 1267,-260 1267,-241 1161,-241"/>
<text text-anchor="middle" x="1214" y="-248" font-family="Helvetica,sans-Serif" font-size="10.00" fill="#000000">globjects/Shader.h</text>
</g>
<!-- Node0&#45;&gt;Node31 -->
<g id="edge44" class="edge">
<title>Node0&#45;&gt;Node31</title>
<path fill="none" stroke="#191970" d="M983.04,-303.8405C1032.9109,-293.0638 1095.9744,-279.1654 1152,-266 1156.7457,-264.8848 1161.6887,-263.6959 1166.6215,-262.4913"/>
<polygon fill="#191970" stroke="#191970" points="1167.7942,-265.8071 1176.6659,-260.0154 1166.1189,-259.0105 1167.7942,-265.8071"/>
</g>
<!-- Node32 -->
<g id="node33" class="node">
<title>Node32</title>
<polygon fill="#ffffff" stroke="#bfbfbf" points="1285,-241 1285,-260 1401,-260 1401,-241 1285,-241"/>
<text text-anchor="middle" x="1343" y="-248" font-family="Helvetica,sans-Serif" font-size="10.00" fill="#000000">globjects/base/File.h</text>
</g>
<!-- Node0&#45;&gt;Node32 -->
<g id="edge45" class="edge">
<title>Node0&#45;&gt;Node32</title>
<path fill="none" stroke="#191970" d="M983.1079,-311.6507C1060.9382,-301.3565 1176.2696,-284.9261 1276,-266 1281.8612,-264.8877 1287.987,-263.6191 1294.0508,-262.2975"/>
<polygon fill="#191970" stroke="#191970" points="1295.1441,-265.6396 1304.1393,-260.0418 1293.6166,-258.8083 1295.1441,-265.6396"/>
</g>
<!-- Node2 -->
<g id="node3" class="node">
<title>Node2</title>
<g id="a_node3"><a xlink:href="RaEngine_8hpp.html" target="_top" xlink:title="Engine/RaEngine.hpp">
<polygon fill="#ffffff" stroke="#000000" points="524.5,-112.5 524.5,-131.5 643.5,-131.5 643.5,-112.5 524.5,-112.5"/>
<text text-anchor="middle" x="584" y="-119.5" font-family="Helvetica,sans-Serif" font-size="10.00" fill="#000000">Engine/RaEngine.hpp</text>
</a>
</g>
</g>
<!-- Node1&#45;&gt;Node2 -->
<g id="edge2" class="edge">
<title>Node1&#45;&gt;Node2</title>
<path fill="none" stroke="#191970" d="M353.628,-235.3664C370.4027,-225.3195 392.7074,-211.6919 412,-199 431.9849,-185.8527 434.7748,-179.0335 456,-168 482.8201,-154.0581 514.8223,-142.5576 540.1184,-134.5428"/>
<polygon fill="#191970" stroke="#191970" points="541.295,-137.8424 549.8098,-131.5377 539.2218,-131.1564 541.295,-137.8424"/>
</g>
<!-- Node9 -->
<g id="node10" class="node">
<title>Node9</title>
<g id="a_node10"><a xlink:href="Types_8hpp.html" target="_top" xlink:title="Core/Types.hpp">
<polygon fill="#ffffff" stroke="#000000" points="312.5,-174 312.5,-193 403.5,-193 403.5,-174 312.5,-174"/>
<text text-anchor="middle" x="358" y="-181" font-family="Helvetica,sans-Serif" font-size="10.00" fill="#000000">Core/Types.hpp</text>
</a>
</g>
</g>
<!-- Node1&#45;&gt;Node9 -->
<g id="edge9" class="edge">
<title>Node1&#45;&gt;Node9</title>
<path fill="none" stroke="#191970" d="M334.8075,-235.2967C339.1639,-225.5672 344.8504,-212.8675 349.5022,-202.4784"/>
<polygon fill="#191970" stroke="#191970" points="352.8293,-203.6122 353.7217,-193.055 346.4406,-200.7515 352.8293,-203.6122"/>
</g>
<!-- Node14 -->
<g id="node15" class="node">
<title>Node14</title>
<g id="a_node15"><a xlink:href="ShaderConfiguration_8hpp.html" target="_top" xlink:title="Engine/Renderer/RenderTechnique\l/ShaderConfiguration.hpp">
<polygon fill="#ffffff" stroke="#000000" points="74,-168.5 74,-198.5 256,-198.5 256,-168.5 74,-168.5"/>
<text text-anchor="start" x="82" y="-186.5" font-family="Helvetica,sans-Serif" font-size="10.00" fill="#000000">Engine/Renderer/RenderTechnique</text>
<text text-anchor="middle" x="165" y="-175.5" font-family="Helvetica,sans-Serif" font-size="10.00" fill="#000000">/ShaderConfiguration.hpp</text>
</a>
</g>
</g>
<!-- Node1&#45;&gt;Node14 -->
<g id="edge15" class="edge">
<title>Node1&#45;&gt;Node14</title>
<path fill="none" stroke="#191970" d="M291.4196,-235.4639C267.6991,-225.7137 236.5957,-212.9289 211.1765,-202.4805"/>
<polygon fill="#191970" stroke="#191970" points="212.3197,-199.1663 201.7399,-198.6017 209.6584,-205.6407 212.3197,-199.1663"/>
</g>
<!-- Node15 -->
<g id="node16" class="node">
<title>Node15</title>
<polygon fill="#ffffff" stroke="#bfbfbf" points="0,-112.5 0,-131.5 42,-131.5 42,-112.5 0,-112.5"/>
<text text-anchor="middle" x="21" y="-119.5" font-family="Helvetica,sans-Serif" font-size="10.00" fill="#000000">array</text>
</g>
<!-- Node1&#45;&gt;Node15 -->
<g id="edge22" class="edge">
<title>Node1&#45;&gt;Node15</title>
<path fill="none" stroke="#191970" d="M236.9919,-240.8126C172.3057,-232.4341 92.2627,-218.5666 65,-199 45.3299,-184.8826 33.2228,-159.0546 26.8094,-141.2299"/>
<polygon fill="#191970" stroke="#191970" points="30.0772,-139.9643 23.606,-131.5754 23.4334,-142.1688 30.0772,-139.9643"/>
</g>
<!-- Node18 -->
<g id="node19" class="node">
<title>Node18</title>
<polygon fill="#ffffff" stroke="#bfbfbf" points="662,-112.5 662,-131.5 706,-131.5 706,-112.5 662,-112.5"/>
<text text-anchor="middle" x="684" y="-119.5" font-family="Helvetica,sans-Serif" font-size="10.00" fill="#000000">string</text>
</g>
<!-- Node1&#45;&gt;Node18 -->
<g id="edge24" class="edge">
<title>Node1&#45;&gt;Node18</title>
<path fill="none" stroke="#191970" d="M369.7395,-235.4677C393.3781,-226.2533 423.1057,-213.4656 448,-199 467.752,-187.5224 468.2516,-177.5593 489,-168 553.8645,-138.1152 578.8034,-150.2985 651.6199,-132.1081"/>
<polygon fill="#191970" stroke="#191970" points="652.9349,-135.382 661.7253,-129.4677 651.1653,-128.6094 652.9349,-135.382"/>
</g>
<!-- Node20 -->
<g id="node21" class="node">
<title>Node20</title>
<polygon fill="#ffffff" stroke="#bfbfbf" points="498,-174 498,-193 556,-193 556,-174 498,-174"/>
<text text-anchor="middle" x="527" y="-181" font-family="Helvetica,sans-Serif" font-size="10.00" fill="#000000">memory</text>
</g>
<!-- Node1&#45;&gt;Node20 -->
<g id="edge23" class="edge">
<title>Node1&#45;&gt;Node20</title>
<path fill="none" stroke="#191970" d="M374.8712,-235.3931C405.9059,-225.3003 447.4696,-211.6112 484,-199 486.2784,-198.2134 488.6216,-197.3953 490.982,-196.5642"/>
<polygon fill="#191970" stroke="#191970" points="492.4119,-199.7704 500.661,-193.1219 490.0663,-193.1751 492.4119,-199.7704"/>
</g>
<!-- Node3 -->
<g id="node4" class="node">
<title>Node3</title>
<g id="a_node4"><a xlink:href="CoreMacros_8hpp.html" target="_top" xlink:title="Core/CoreMacros.hpp">
<polygon fill="#ffffff" stroke="#000000" points="713,-56.5 713,-75.5 833,-75.5 833,-56.5 713,-56.5"/>
<text text-anchor="middle" x="773" y="-63.5" font-family="Helvetica,sans-Serif" font-size="10.00" fill="#000000">Core/CoreMacros.hpp</text>
</a>
</g>
</g>
<!-- Node2&#45;&gt;Node3 -->
<g id="edge3" class="edge">
<title>Node2&#45;&gt;Node3</title>
<path fill="none" stroke="#191970" d="M616.4903,-112.3733C648.1902,-102.9807 696.5576,-88.6496 731.1286,-78.4064"/>
<polygon fill="#191970" stroke="#191970" points="732.3401,-81.6979 740.9337,-75.5011 730.3514,-74.9863 732.3401,-81.6979"/>
</g>
<!-- Node4 -->
<g id="node5" class="node">
<title>Node4</title>
<polygon fill="#ffffff" stroke="#bfbfbf" points="851,-.5 851,-19.5 903,-19.5 903,-.5 851,-.5"/>
<text text-anchor="middle" x="877" y="-7.5" font-family="Helvetica,sans-Serif" font-size="10.00" fill="#000000">cassert</text>
</g>
<!-- Node3&#45;&gt;Node4 -->
<g id="edge4" class="edge">
<title>Node3&#45;&gt;Node4</title>
<path fill="none" stroke="#191970" d="M791.1154,-56.2455C807.445,-47.4527 831.671,-34.4079 850.2339,-24.4125"/>
<polygon fill="#191970" stroke="#191970" points="851.9468,-27.4654 859.0922,-19.6427 848.6281,-21.3021 851.9468,-27.4654"/>
</g>
<!-- Node5 -->
<g id="node6" class="node">
<title>Node5</title>
<polygon fill="#ffffff" stroke="#bfbfbf" points="643,-.5 643,-19.5 689,-19.5 689,-.5 643,-.5"/>
<text text-anchor="middle" x="666" y="-7.5" font-family="Helvetica,sans-Serif" font-size="10.00" fill="#000000">cstdio</text>
</g>
<!-- Node3&#45;&gt;Node5 -->
<g id="edge5" class="edge">
<title>Node3&#45;&gt;Node5</title>
<path fill="none" stroke="#191970" d="M754.362,-56.2455C737.5614,-47.4527 712.6366,-34.4079 693.5382,-24.4125"/>
<polygon fill="#191970" stroke="#191970" points="694.9073,-21.1787 684.4244,-19.6427 691.6614,-27.3807 694.9073,-21.1787"/>
</g>
<!-- Node6 -->
<g id="node7" class="node">
<title>Node6</title>
<polygon fill="#ffffff" stroke="#bfbfbf" points="707,-.5 707,-19.5 767,-19.5 767,-.5 707,-.5"/>
<text text-anchor="middle" x="737" y="-7.5" font-family="Helvetica,sans-Serif" font-size="10.00" fill="#000000">iostream</text>
</g>
<!-- Node3&#45;&gt;Node6 -->
<g id="edge6" class="edge">
<title>Node3&#45;&gt;Node6</title>
<path fill="none" stroke="#191970" d="M766.7293,-56.2455C761.7736,-48.5367 754.717,-37.5598 748.7224,-28.2348"/>
<polygon fill="#191970" stroke="#191970" points="751.5506,-26.1618 743.1989,-19.6427 745.6624,-29.9471 751.5506,-26.1618"/>
</g>
<!-- Node7 -->
<g id="node8" class="node">
<title>Node7</title>
<polygon fill="#ffffff" stroke="#bfbfbf" points="1010,-.5 1010,-19.5 1066,-19.5 1066,-.5 1010,-.5"/>
<text text-anchor="middle" x="1038" y="-7.5" font-family="Helvetica,sans-Serif" font-size="10.00" fill="#000000">sstream</text>
</g>
<!-- Node3&#45;&gt;Node7 -->
<g id="edge7" class="edge">
<title>Node3&#45;&gt;Node7</title>
<path fill="none" stroke="#191970" d="M818.254,-56.4369C869.3486,-45.6395 951.6019,-28.2577 999.6598,-18.1021"/>
<polygon fill="#191970" stroke="#191970" points="1000.6002,-21.4807 1009.6605,-15.9887 999.1529,-14.632 1000.6002,-21.4807"/>
</g>
<!-- Node8 -->
<g id="node9" class="node">
<title>Node8</title>
<polygon fill="#ffffff" stroke="#bfbfbf" points="785,-.5 785,-19.5 833,-19.5 833,-.5 785,-.5"/>
<text text-anchor="middle" x="809" y="-7.5" font-family="Helvetica,sans-Serif" font-size="10.00" fill="#000000">thread</text>
</g>
<!-- Node3&#45;&gt;Node8 -->
<g id="edge8" class="edge">
<title>Node3&#45;&gt;Node8</title>
<path fill="none" stroke="#191970" d="M779.2707,-56.2455C784.2264,-48.5367 791.283,-37.5598 797.2776,-28.2348"/>
<polygon fill="#191970" stroke="#191970" points="800.3376,-29.9471 802.8011,-19.6427 794.4494,-26.1618 800.3376,-29.9471"/>
</g>
<!-- Node10 -->
<g id="node11" class="node">
<title>Node10</title>
<g id="a_node11"><a xlink:href="RaCore_8hpp.html" target="_top" xlink:title="Core/RaCore.hpp">
<polygon fill="#ffffff" stroke="#000000" points="724,-112.5 724,-131.5 822,-131.5 822,-112.5 724,-112.5"/>
<text text-anchor="middle" x="773" y="-119.5" font-family="Helvetica,sans-Serif" font-size="10.00" fill="#000000">Core/RaCore.hpp</text>
</a>
</g>
</g>
<!-- Node9&#45;&gt;Node10 -->
<g id="edge10" class="edge">
<title>Node9&#45;&gt;Node10</title>
<path fill="none" stroke="#191970" d="M403.7079,-177.3155C469.8141,-168.2809 596.2058,-150.6702 714.051,-132.1179"/>
<polygon fill="#191970" stroke="#191970" points="714.6367,-135.5689 723.968,-130.5512 713.5443,-128.6546 714.6367,-135.5689"/>
</g>
<!-- Node11 -->
<g id="node12" class="node">
<title>Node11</title>
<polygon fill="#ffffff" stroke="#bfbfbf" points="324.5,-112.5 324.5,-131.5 393.5,-131.5 393.5,-112.5 324.5,-112.5"/>
<text text-anchor="middle" x="359" y="-119.5" font-family="Helvetica,sans-Serif" font-size="10.00" fill="#000000">Eigen/Core</text>
</g>
<!-- Node9&#45;&gt;Node11 -->
<g id="edge12" class="edge">
<title>Node9&#45;&gt;Node11</title>
<path fill="none" stroke="#191970" d="M358.1563,-173.8906C358.2949,-165.3657 358.5018,-152.6392 358.676,-141.9235"/>
<polygon fill="#191970" stroke="#191970" points="362.1784,-141.8005 358.8415,-131.7449 355.1793,-141.6866 362.1784,-141.8005"/>
</g>
<!-- Node12 -->
<g id="node13" class="node">
<title>Node12</title>
<polygon fill="#ffffff" stroke="#bfbfbf" points="411.5,-112.5 411.5,-131.5 506.5,-131.5 506.5,-112.5 411.5,-112.5"/>
<text text-anchor="middle" x="459" y="-119.5" font-family="Helvetica,sans-Serif" font-size="10.00" fill="#000000">Eigen/Geometry</text>
</g>
<!-- Node9&#45;&gt;Node12 -->
<g id="edge13" class="edge">
<title>Node9&#45;&gt;Node12</title>
<path fill="none" stroke="#191970" d="M373.7813,-173.8906C390.0875,-163.9616 415.754,-148.333 434.6614,-136.8201"/>
<polygon fill="#191970" stroke="#191970" points="436.6087,-139.7322 443.3296,-131.5419 432.9681,-133.7533 436.6087,-139.7322"/>
</g>
<!-- Node13 -->
<g id="node14" class="node">
<title>Node13</title>
<polygon fill="#ffffff" stroke="#bfbfbf" points="226,-112.5 226,-131.5 306,-131.5 306,-112.5 226,-112.5"/>
<text text-anchor="middle" x="266" y="-119.5" font-family="Helvetica,sans-Serif" font-size="10.00" fill="#000000">Eigen/Sparse</text>
</g>
<!-- Node9&#45;&gt;Node13 -->
<g id="edge14" class="edge">
<title>Node9&#45;&gt;Node13</title>
<path fill="none" stroke="#191970" d="M343.625,-173.8906C328.9069,-164.0519 305.8168,-148.6167 288.6411,-137.1351"/>
<polygon fill="#191970" stroke="#191970" points="290.5327,-134.1896 280.2741,-131.5419 286.6425,-140.0091 290.5327,-134.1896"/>
</g>
<!-- Node10&#45;&gt;Node3 -->
<g id="edge11" class="edge">
<title>Node10&#45;&gt;Node3</title>
<path fill="none" stroke="#191970" d="M773,-112.2455C773,-104.9382 773,-94.6944 773,-85.7046"/>
<polygon fill="#191970" stroke="#191970" points="776.5001,-85.6426 773,-75.6427 769.5001,-85.6427 776.5001,-85.6426"/>
</g>
<!-- Node14&#45;&gt;Node2 -->
<g id="edge16" class="edge">
<title>Node14&#45;&gt;Node2</title>
<path fill="none" stroke="#191970" d="M256.175,-170.1175C333.731,-158.734 443.477,-142.6257 514.1994,-132.2452"/>
<polygon fill="#191970" stroke="#191970" points="514.9565,-135.6717 524.3422,-130.7565 513.9399,-128.7459 514.9565,-135.6717"/>
</g>
<!-- Node14&#45;&gt;Node15 -->
<g id="edge17" class="edge">
<title>Node14&#45;&gt;Node15</title>
<path fill="none" stroke="#191970" d="M129.7736,-168.4554C105.7313,-158.1873 74.2108,-144.7255 51.2939,-134.938"/>
<polygon fill="#191970" stroke="#191970" points="52.6171,-131.6974 42.046,-130.9884 49.8677,-138.1348 52.6171,-131.6974"/>
</g>
<!-- Node16 -->
<g id="node17" class="node">
<title>Node16</title>
<polygon fill="#ffffff" stroke="#bfbfbf" points="60,-112.5 60,-131.5 92,-131.5 92,-112.5 60,-112.5"/>
<text text-anchor="middle" x="76" y="-119.5" font-family="Helvetica,sans-Serif" font-size="10.00" fill="#000000">list</text>
</g>
<!-- Node14&#45;&gt;Node16 -->
<g id="edge18" class="edge">
<title>Node14&#45;&gt;Node16</title>
<path fill="none" stroke="#191970" d="M143,-168.2977C129.4032,-158.9022 112.0034,-146.8787 98.3433,-137.4395"/>
<polygon fill="#191970" stroke="#191970" points="100.2009,-134.4688 89.9842,-131.6633 96.2215,-140.2276 100.2009,-134.4688"/>
</g>
<!-- Node17 -->
<g id="node18" class="node">
<title>Node17</title>
<polygon fill="#ffffff" stroke="#bfbfbf" points="110,-112.5 110,-131.5 142,-131.5 142,-112.5 110,-112.5"/>
<text text-anchor="middle" x="126" y="-119.5" font-family="Helvetica,sans-Serif" font-size="10.00" fill="#000000">set</text>
</g>
<!-- Node14&#45;&gt;Node17 -->
<g id="edge19" class="edge">
<title>Node14&#45;&gt;Node17</title>
<path fill="none" stroke="#191970" d="M155.3595,-168.2977C150.0023,-159.8498 143.2978,-149.2773 137.6487,-140.369"/>
<polygon fill="#191970" stroke="#191970" points="140.5556,-138.4176 132.2444,-131.8469 134.6441,-142.1664 140.5556,-138.4176"/>
</g>
<!-- Node14&#45;&gt;Node18 -->
<g id="edge20" class="edge">
<title>Node14&#45;&gt;Node18</title>
<path fill="none" stroke="#191970" d="M256.2908,-173.1244C271.8722,-171.3885 287.8985,-169.6247 303,-168 455.2905,-151.6157 498.221,-163.6635 651.9931,-131.8346"/>
<polygon fill="#191970" stroke="#191970" points="652.7315,-135.256 661.7996,-129.777 651.294,-128.4052 652.7315,-135.256"/>
</g>
<!-- Node19 -->
<g id="node20" class="node">
<title>Node19</title>
<polygon fill="#ffffff" stroke="#bfbfbf" points="160.5,-112.5 160.5,-131.5 207.5,-131.5 207.5,-112.5 160.5,-112.5"/>
<text text-anchor="middle" x="184" y="-119.5" font-family="Helvetica,sans-Serif" font-size="10.00" fill="#000000">vector</text>
</g>
<!-- Node14&#45;&gt;Node19 -->
<g id="edge21" class="edge">
<title>Node14&#45;&gt;Node19</title>
<path fill="none" stroke="#191970" d="M169.6966,-168.2977C172.1967,-160.2055 175.299,-150.1639 177.9747,-141.5029"/>
<polygon fill="#191970" stroke="#191970" points="181.3501,-142.4345 180.9579,-131.8469 174.662,-140.3682 181.3501,-142.4345"/>
</g>
<!-- Node21&#45;&gt;Node2 -->
<g id="edge26" class="edge">
<title>Node21&#45;&gt;Node2</title>
<path fill="none" stroke="#191970" d="M688.3387,-235.3268C669.8956,-226.6142 648.2272,-214.3395 632,-199 614.3672,-182.3317 600.576,-157.8456 592.387,-140.9838"/>
<polygon fill="#191970" stroke="#191970" points="595.4177,-139.2005 588.0279,-131.6082 589.0703,-142.1517 595.4177,-139.2005"/>
</g>
<!-- Node21&#45;&gt;Node18 -->
<g id="edge29" class="edge">
<title>Node21&#45;&gt;Node18</title>
<path fill="none" stroke="#191970" d="M683.6841,-235.4897C667.3193,-227.3701 650.3156,-215.5362 641,-199 634.2376,-186.996 635.9427,-180.816 641,-168 645.5469,-156.4774 654.4932,-146.143 663.0534,-138.2024"/>
<polygon fill="#191970" stroke="#191970" points="665.3938,-140.8057 670.669,-131.6175 660.8153,-135.5106 665.3938,-140.8057"/>
</g>
<!-- Node21&#45;&gt;Node19 -->
<g id="edge30" class="edge">
<title>Node21&#45;&gt;Node19</title>
<path fill="none" stroke="#191970" d="M634.7376,-236.1896C631.7919,-235.7803 628.8734,-235.3826 626,-235 482.8195,-215.9333 436.1742,-254.936 303,-199 282.9047,-190.5596 282.9842,-180.3139 265,-168 247.9336,-156.3145 227.7022,-144.8235 211.7281,-136.2493"/>
<polygon fill="#191970" stroke="#191970" points="213.3461,-133.1457 202.8708,-131.5587 210.07,-139.3318 213.3461,-133.1457"/>
</g>
<!-- Node21&#45;&gt;Node20 -->
<g id="edge28" class="edge">
<title>Node21&#45;&gt;Node20</title>
<path fill="none" stroke="#191970" d="M679.1288,-235.3931C648.0941,-225.3003 606.5304,-211.6112 570,-199 567.7216,-198.2134 565.3784,-197.3953 563.018,-196.5642"/>
<polygon fill="#191970" stroke="#191970" points="563.9337,-193.1751 553.339,-193.1219 561.5881,-199.7704 563.9337,-193.1751"/>
</g>
<!-- Node22 -->
<g id="node23" class="node">
<title>Node22</title>
<polygon fill="#ffffff" stroke="#bfbfbf" points="650,-174 650,-193 688,-193 688,-174 650,-174"/>
<text text-anchor="middle" x="669" y="-181" font-family="Helvetica,sans-Serif" font-size="10.00" fill="#000000">map</text>
</g>
<!-- Node21&#45;&gt;Node22 -->
<g id="edge27" class="edge">
<title>Node21&#45;&gt;Node22</title>
<path fill="none" stroke="#191970" d="M713.0658,-235.2967C704.3574,-225.0605 692.852,-211.5366 683.7814,-200.8746"/>
<polygon fill="#191970" stroke="#191970" points="686.2745,-198.4036 677.1289,-193.055 680.9429,-202.9395 686.2745,-198.4036"/>
</g>
<!-- Node23 -->
<g id="node24" class="node">
<title>Node23</title>
<g id="a_node24"><a xlink:href="Singleton_8hpp.html" target="_top" xlink:title="Core/Utils/Singleton.hpp">
<polygon fill="#ffffff" stroke="#000000" points="706,-174 706,-193 840,-193 840,-174 706,-174"/>
<text text-anchor="middle" x="773" y="-181" font-family="Helvetica,sans-Serif" font-size="10.00" fill="#000000">Core/Utils/Singleton.hpp</text>
</a>
</g>
</g>
<!-- Node21&#45;&gt;Node23 -->
<g id="edge31" class="edge">
<title>Node21&#45;&gt;Node23</title>
<path fill="none" stroke="#191970" d="M736.665,-235.2967C743.7035,-225.2631 752.9577,-212.0709 760.3652,-201.5113"/>
<polygon fill="#191970" stroke="#191970" points="763.4197,-203.2516 766.2973,-193.055 757.6891,-199.2316 763.4197,-203.2516"/>
</g>
<!-- Node24 -->
<g id="node25" class="node">
<title>Node24</title>
<g id="a_node25"><a xlink:href="StdOptional_8hpp.html" target="_top" xlink:title="Core/Utils/StdOptional.hpp">
<polygon fill="#ffffff" stroke="#000000" points="858,-174 858,-193 1004,-193 1004,-174 858,-174"/>
<text text-anchor="middle" x="931" y="-181" font-family="Helvetica,sans-Serif" font-size="10.00" fill="#000000">Core/Utils/StdOptional.hpp</text>
</a>
</g>
</g>
<!-- Node21&#45;&gt;Node24 -->
<g id="edge33" class="edge">
<title>Node21&#45;&gt;Node24</title>
<path fill="none" stroke="#191970" d="M772.006,-235.4639C808.2141,-223.63 858.1001,-207.3258 892.2816,-196.1543"/>
<polygon fill="#191970" stroke="#191970" points="893.4988,-199.4388 901.9167,-193.0053 891.3241,-192.7851 893.4988,-199.4388"/>
</g>
<!-- Node23&#45;&gt;Node10 -->
<g id="edge32" class="edge">
<title>Node23&#45;&gt;Node10</title>
<path fill="none" stroke="#191970" d="M773,-173.8906C773,-165.3657 773,-152.6392 773,-141.9235"/>
<polygon fill="#191970" stroke="#191970" points="776.5001,-141.7448 773,-131.7449 769.5001,-141.7449 776.5001,-141.7448"/>
</g>
<!-- Node25&#45;&gt;Node20 -->
<g id="edge35" class="edge">
<title>Node25&#45;&gt;Node20</title>
<path fill="none" stroke="#191970" d="M527,-240.9005C527,-231.149 527,-215.7597 527,-203.3695"/>
<polygon fill="#191970" stroke="#191970" points="530.5001,-203.0816 527,-193.0817 523.5001,-203.0817 530.5001,-203.0816"/>
</g>
<!-- Node26&#45;&gt;Node7 -->
<g id="edge39" class="edge">
<title>Node26&#45;&gt;Node7</title>
<path fill="none" stroke="#191970" d="M1077.8039,-173.6872C1081.3516,-159.8166 1086.4896,-133.7424 1082,-112 1075.6609,-81.3009 1059.6341,-48.4663 1048.7768,-28.5833"/>
<polygon fill="#191970" stroke="#191970" points="1051.7322,-26.6977 1043.7881,-19.6875 1045.6267,-30.1216 1051.7322,-26.6977"/>
</g>
<!-- Node26&#45;&gt;Node10 -->
<g id="edge37" class="edge">
<title>Node26&#45;&gt;Node10</title>
<path fill="none" stroke="#191970" d="M1038.3613,-173.9819C1030.0438,-171.9211 1021.2342,-169.8169 1013,-168 951.6963,-154.4731 881.0755,-141.2147 832.3911,-132.434"/>
<polygon fill="#191970" stroke="#191970" points="832.8079,-128.9529 822.3466,-130.6298 831.5702,-135.8427 832.8079,-128.9529"/>
</g>
<!-- Node26&#45;&gt;Node18 -->
<g id="edge41" class="edge">
<title>Node26&#45;&gt;Node18</title>
<path fill="none" stroke="#191970" d="M1040.0827,-173.9611C1031.2898,-171.7829 1021.8377,-169.6319 1013,-168 885.0134,-144.3663 847.1426,-159.8122 716.2177,-131.9062"/>
<polygon fill="#191970" stroke="#191970" points="716.7264,-128.4351 706.2108,-129.7285 715.2378,-135.275 716.7264,-128.4351"/>
</g>
<!-- Node27 -->
<g id="node28" class="node">
<title>Node27</title>
<polygon fill="#ffffff" stroke="#bfbfbf" points="961,-112.5 961,-131.5 1005,-131.5 1005,-112.5 961,-112.5"/>
<text text-anchor="middle" x="983" y="-119.5" font-family="Helvetica,sans-Serif" font-size="10.00" fill="#000000">ctime</text>
</g>
<!-- Node26&#45;&gt;Node27 -->
<g id="edge38" class="edge">
<title>Node26&#45;&gt;Node27</title>
<path fill="none" stroke="#191970" d="M1060.625,-173.8906C1045.9069,-164.0519 1022.8168,-148.6167 1005.6411,-137.1351"/>
<polygon fill="#191970" stroke="#191970" points="1007.5327,-134.1896 997.2741,-131.5419 1003.6425,-140.0091 1007.5327,-134.1896"/>
</g>
<!-- Node28 -->
<g id="node29" class="node">
<title>Node28</title>
<polygon fill="#ffffff" stroke="#bfbfbf" points="1023,-112.5 1023,-131.5 1073,-131.5 1073,-112.5 1023,-112.5"/>
<text text-anchor="middle" x="1048" y="-119.5" font-family="Helvetica,sans-Serif" font-size="10.00" fill="#000000">stdio.h</text>
</g>
<!-- Node26&#45;&gt;Node28 -->
<g id="edge40" class="edge">
<title>Node26&#45;&gt;Node28</title>
<path fill="none" stroke="#191970" d="M1070.7813,-173.8906C1066.9204,-165.0965 1061.0966,-151.8312 1056.3039,-140.9145"/>
<polygon fill="#191970" stroke="#191970" points="1059.5029,-139.4943 1052.2782,-131.7449 1053.0934,-142.3083 1059.5029,-139.4943"/>
</g>
</g>
</svg>
