<?xml version="1.0" encoding="UTF-8" standalone="no"?>
<!DOCTYPE svg PUBLIC "-//W3C//DTD SVG 1.1//EN"
 "http://www.w3.org/Graphics/SVG/1.1/DTD/svg11.dtd">
<!-- Generated by graphviz version 2.40.1 (20161225.0304)
 -->
<!-- Title: src/Engine/Renderer/RenderTechnique/ShaderProgram.cpp Pages: 1 -->
<!--zoomable 408 -->
<svg id="main" version="1.1" xmlns="http://www.w3.org/2000/svg" xmlns:xlink="http://www.w3.org/1999/xlink" xml:space="preserve" onload="init(evt)">
<style type="text/css"><![CDATA[
.edge:hover path { stroke: red; }
.edge:hover polygon { stroke: red; fill: red; }
]]></style>
<script type="text/javascript"><![CDATA[
var edges = document.getElementsByTagName('g');
if (edges && edges.length) {
  for (var i=0;i<edges.length;i++) {
    if (edges[i].id.substr(0,4)=='edge') {
      edges[i].setAttribute('class','edge');
    }
  }
}
]]></script>
        <defs>
                <circle id="rim" cx="0" cy="0" r="7"/>
                <circle id="rim2" cx="0" cy="0" r="3.5"/>
                <g id="zoomPlus">
                        <use xlink:href="#rim" fill="#404040">
                                <set attributeName="fill" to="#808080" begin="zoomplus.mouseover" end="zoomplus.mouseout"/>
                        </use>
                        <path d="M-4,0h8M0,-4v8" fill="none" stroke="white" stroke-width="1.5" pointer-events="none"/>
                </g>
                <g id="zoomMin">
                        <use xlink:href="#rim" fill="#404040">
                                <set attributeName="fill" to="#808080" begin="zoomminus.mouseover" end="zoomminus.mouseout"/>
                        </use>
                        <path d="M-4,0h8" fill="none" stroke="white" stroke-width="1.5" pointer-events="none"/>
                </g>
                <g id="dirArrow">
                        <path fill="none" stroke="white" stroke-width="1.5" d="M0,-3.0v7 M-2.5,-0.5L0,-3.0L2.5,-0.5"/>
                </g>
               <g id="resetDef">
                       <use xlink:href="#rim2" fill="#404040">
                               <set attributeName="fill" to="#808080" begin="reset.mouseover" end="reset.mouseout"/>
                       </use>
               </g>
        </defs>

<script type="text/javascript">
var viewWidth = 2027;
var viewHeight = 408;
var sectionId = 'dynsection-0';
</script>
<script xlink:href="svgpan.js"/>
<svg id="graph" class="graph">
<g id="viewport">
<title>src/Engine/Renderer/RenderTechnique/ShaderProgram.cpp</title>
<polygon fill="#ffffff" stroke="transparent" points="-4,4 -4,-404 2022.5,-404 2022.5,4 -4,4"/>
<!-- Node0 -->
<g id="node1" class="node">
<title>Node0</title>
<polygon fill="#bfbfbf" stroke="#000000" points="1169.5,-369.5 1169.5,-399.5 1369.5,-399.5 1369.5,-369.5 1169.5,-369.5"/>
<text text-anchor="start" x="1177.5" y="-387.5" font-family="Helvetica,sans-Serif" font-size="10.00" fill="#000000">src/Engine/Renderer</text>
<text text-anchor="middle" x="1269.5" y="-376.5" font-family="Helvetica,sans-Serif" font-size="10.00" fill="#000000">/RenderTechnique/ShaderProgram.cpp</text>
</g>
<!-- Node1 -->
<g id="node2" class="node">
<title>Node1</title>
<g id="a_node2"><a xlink:href="ShaderProgram_8hpp.html" target="_top" xlink:title="Engine/Renderer/RenderTechnique\l/ShaderProgram.hpp">
<polygon fill="#ffffff" stroke="#000000" points="431.5,-302.5 431.5,-332.5 613.5,-332.5 613.5,-302.5 431.5,-302.5"/>
<text text-anchor="start" x="439.5" y="-320.5" font-family="Helvetica,sans-Serif" font-size="10.00" fill="#000000">Engine/Renderer/RenderTechnique</text>
<text text-anchor="middle" x="522.5" y="-309.5" font-family="Helvetica,sans-Serif" font-size="10.00" fill="#000000">/ShaderProgram.hpp</text>
</a>
</g>
</g>
<!-- Node0&#45;&gt;Node1 -->
<g id="edge1" class="edge">
<title>Node0&#45;&gt;Node1</title>
<path fill="none" stroke="#191970" d="M1169.494,-378.5452C1043.0383,-370.5406 818.7299,-354.7602 627.5,-333 626.2127,-332.8535 624.9169,-332.7034 623.614,-332.5499"/>
<polygon fill="#191970" stroke="#191970" points="623.8623,-329.0543 613.511,-331.3132 623.0116,-336.0024 623.8623,-329.0543"/>
</g>
<!-- Node21 -->
<g id="node22" class="node">
<title>Node21</title>
<g id="a_node22"><a xlink:href="StringUtils_8hpp.html" target="_top" xlink:title="Core/Utils/StringUtils.hpp">
<polygon fill="#ffffff" stroke="#000000" points="358.5,-241 358.5,-260 498.5,-260 498.5,-241 358.5,-241"/>
<text text-anchor="middle" x="428.5" y="-248" font-family="Helvetica,sans-Serif" font-size="10.00" fill="#000000">Core/Utils/StringUtils.hpp</text>
</a>
</g>
</g>
<!-- Node0&#45;&gt;Node21 -->
<g id="edge25" class="edge">
<title>Node0&#45;&gt;Node21</title>
<path fill="none" stroke="#191970" d="M1169.31,-383.1663C1020.8002,-379.989 750.1361,-369.2526 660.5,-333 640.2941,-324.8279 641.9139,-311.9077 622.5,-302 584.4624,-282.5878 538.3855,-269.9594 500.6829,-262.0683"/>
<polygon fill="#191970" stroke="#191970" points="501.2834,-258.619 490.7877,-260.0649 499.8943,-265.4798 501.2834,-258.619"/>
</g>
<!-- Node22 -->
<g id="node23" class="node">
<title>Node22</title>
<polygon fill="#ffffff" stroke="#bfbfbf" points="1062.5,-308 1062.5,-327 1178.5,-327 1178.5,-308 1062.5,-308"/>
<text text-anchor="middle" x="1120.5" y="-315" font-family="Helvetica,sans-Serif" font-size="10.00" fill="#000000">globjects/base/File.h</text>
</g>
<!-- Node0&#45;&gt;Node22 -->
<g id="edge29" class="edge">
<title>Node0&#45;&gt;Node22</title>
<path fill="none" stroke="#191970" d="M1236.0615,-369.4639C1210.6107,-358.0196 1175.8623,-342.3945 1151.1317,-331.274"/>
<polygon fill="#191970" stroke="#191970" points="1152.4137,-328.013 1141.858,-327.1039 1149.5429,-334.3972 1152.4137,-328.013"/>
</g>
<!-- Node23 -->
<g id="node24" class="node">
<title>Node23</title>
<polygon fill="#ffffff" stroke="#bfbfbf" points="1196.5,-302.5 1196.5,-332.5 1342.5,-332.5 1342.5,-302.5 1196.5,-302.5"/>
<text text-anchor="start" x="1204.5" y="-320.5" font-family="Helvetica,sans-Serif" font-size="10.00" fill="#000000">globjects/base/StaticString</text>
<text text-anchor="middle" x="1269.5" y="-309.5" font-family="Helvetica,sans-Serif" font-size="10.00" fill="#000000">Source.h</text>
</g>
<!-- Node0&#45;&gt;Node23 -->
<g id="edge30" class="edge">
<title>Node0&#45;&gt;Node23</title>
<path fill="none" stroke="#191970" d="M1269.5,-369.2967C1269.5,-361.5013 1269.5,-351.7991 1269.5,-342.9064"/>
<polygon fill="#191970" stroke="#191970" points="1273.0001,-342.6431 1269.5,-332.6432 1266.0001,-342.6432 1273.0001,-342.6431"/>
</g>
<!-- Node24 -->
<g id="node25" class="node">
<title>Node24</title>
<polygon fill="#ffffff" stroke="#bfbfbf" points="1361,-308 1361,-327 1498,-327 1498,-308 1361,-308"/>
<text text-anchor="middle" x="1429.5" y="-315" font-family="Helvetica,sans-Serif" font-size="10.00" fill="#000000">globjects/NamedString.h</text>
</g>
<!-- Node0&#45;&gt;Node24 -->
<g id="edge31" class="edge">
<title>Node0&#45;&gt;Node24</title>
<path fill="none" stroke="#191970" d="M1305.4071,-369.4639C1332.9786,-357.9183 1370.7117,-342.1176 1397.3094,-330.9798"/>
<polygon fill="#191970" stroke="#191970" points="1398.6932,-334.1949 1406.5653,-327.1039 1395.9894,-327.7381 1398.6932,-334.1949"/>
</g>
<!-- Node25 -->
<g id="node26" class="node">
<title>Node25</title>
<polygon fill="#ffffff" stroke="#bfbfbf" points="1516.5,-308 1516.5,-327 1630.5,-327 1630.5,-308 1516.5,-308"/>
<text text-anchor="middle" x="1573.5" y="-315" font-family="Helvetica,sans-Serif" font-size="10.00" fill="#000000">globjects/Program.h</text>
</g>
<!-- Node0&#45;&gt;Node25 -->
<g id="edge32" class="edge">
<title>Node0&#45;&gt;Node25</title>
<path fill="none" stroke="#191970" d="M1340.6492,-369.4457C1387.984,-359.3462 1451.5176,-345.6296 1507.5,-333 1512.6075,-331.8478 1517.9328,-330.6279 1523.2461,-329.3988"/>
<polygon fill="#191970" stroke="#191970" points="1524.4417,-332.7142 1533.3884,-327.039 1522.8554,-325.8963 1524.4417,-332.7142"/>
</g>
<!-- Node26 -->
<g id="node27" class="node">
<title>Node26</title>
<polygon fill="#ffffff" stroke="#bfbfbf" points="1648.5,-308 1648.5,-327 1754.5,-327 1754.5,-308 1648.5,-308"/>
<text text-anchor="middle" x="1701.5" y="-315" font-family="Helvetica,sans-Serif" font-size="10.00" fill="#000000">globjects/Shader.h</text>
</g>
<!-- Node0&#45;&gt;Node26 -->
<g id="edge33" class="edge">
<title>Node0&#45;&gt;Node26</title>
<path fill="none" stroke="#191970" d="M1369.697,-373.4873C1444.4066,-364.566 1548.773,-350.6029 1639.5,-333 1644.946,-331.9434 1650.6298,-330.7082 1656.2507,-329.4045"/>
<polygon fill="#191970" stroke="#191970" points="1657.3287,-332.7453 1666.2355,-327.0078 1655.6948,-325.9386 1657.3287,-332.7453"/>
</g>
<!-- Node27 -->
<g id="node28" class="node">
<title>Node27</title>
<polygon fill="#ffffff" stroke="#bfbfbf" points="1773,-308 1773,-327 1882,-327 1882,-308 1773,-308"/>
<text text-anchor="middle" x="1827.5" y="-315" font-family="Helvetica,sans-Serif" font-size="10.00" fill="#000000">globjects/Texture.h</text>
</g>
<!-- Node0&#45;&gt;Node27 -->
<g id="edge34" class="edge">
<title>Node0&#45;&gt;Node27</title>
<path fill="none" stroke="#191970" d="M1369.8584,-377.9905C1470.0514,-370.5653 1628.1776,-356.3327 1763.5,-333 1769.4182,-331.9796 1775.6024,-330.7253 1781.6943,-329.376"/>
<polygon fill="#191970" stroke="#191970" points="1782.8416,-332.7032 1791.7961,-327.0403 1781.2646,-325.8831 1782.8416,-332.7032"/>
</g>
<!-- Node28 -->
<g id="node29" class="node">
<title>Node28</title>
<polygon fill="#ffffff" stroke="#bfbfbf" points="1900.5,-308 1900.5,-327 1944.5,-327 1944.5,-308 1900.5,-308"/>
<text text-anchor="middle" x="1922.5" y="-315" font-family="Helvetica,sans-Serif" font-size="10.00" fill="#000000">regex</text>
</g>
<!-- Node0&#45;&gt;Node28 -->
<g id="edge35" class="edge">
<title>Node0&#45;&gt;Node28</title>
<path fill="none" stroke="#191970" d="M1369.7139,-380.8235C1519.9651,-374.5285 1796.1602,-359.7074 1891.5,-333 1893.2129,-332.5202 1894.9436,-331.9445 1896.6651,-331.3014"/>
<polygon fill="#191970" stroke="#191970" points="1898.4991,-334.318 1906.237,-327.0809 1895.6749,-327.9129 1898.4991,-334.318"/>
</g>
<!-- Node29 -->
<g id="node30" class="node">
<title>Node29</title>
<g id="a_node30"><a xlink:href="GlmAdapters_8hpp.html" target="_top" xlink:title="Core/Math/GlmAdapters.hpp">
<polygon fill="#ffffff" stroke="#000000" points="852.5,-308 852.5,-327 1006.5,-327 1006.5,-308 852.5,-308"/>
<text text-anchor="middle" x="929.5" y="-315" font-family="Helvetica,sans-Serif" font-size="10.00" fill="#000000">Core/Math/GlmAdapters.hpp</text>
</a>
</g>
</g>
<!-- Node0&#45;&gt;Node29 -->
<g id="edge36" class="edge">
<title>Node0&#45;&gt;Node29</title>
<path fill="none" stroke="#191970" d="M1193.1974,-369.4639C1130.9541,-357.1983 1044.3403,-340.1303 987.6178,-328.9526"/>
<polygon fill="#191970" stroke="#191970" points="988.2238,-325.5048 977.7358,-327.0053 986.8704,-332.3727 988.2238,-325.5048"/>
</g>
<!-- Node31 -->
<g id="node32" class="node">
<title>Node31</title>
<g id="a_node32"><a xlink:href="Log_8hpp.html" target="_top" xlink:title="Core/Utils/Log.hpp">
<polygon fill="#ffffff" stroke="#000000" points="1395.5,-241 1395.5,-260 1501.5,-260 1501.5,-241 1395.5,-241"/>
<text text-anchor="middle" x="1448.5" y="-248" font-family="Helvetica,sans-Serif" font-size="10.00" fill="#000000">Core/Utils/Log.hpp</text>
</a>
</g>
</g>
<!-- Node0&#45;&gt;Node31 -->
<g id="edge39" class="edge">
<title>Node0&#45;&gt;Node31</title>
<path fill="none" stroke="#191970" d="M1169.3734,-377.1442C1095.2978,-367.9301 1013.6379,-347.3967 1053.5,-302 1056.2206,-298.9016 1274.2903,-271.8157 1385.2038,-258.2185"/>
<polygon fill="#191970" stroke="#191970" points="1385.7681,-261.6757 1395.2683,-256.9857 1384.9169,-254.7276 1385.7681,-261.6757"/>
</g>
<!-- Node34 -->
<g id="node35" class="node">
<title>Node34</title>
<g id="a_node35"><a xlink:href="Texture_8hpp.html" target="_top" xlink:title="Engine/Renderer/Texture\l/Texture.hpp">
<polygon fill="#ffffff" stroke="#000000" points="670,-302.5 670,-332.5 805,-332.5 805,-302.5 670,-302.5"/>
<text text-anchor="start" x="678" y="-320.5" font-family="Helvetica,sans-Serif" font-size="10.00" fill="#000000">Engine/Renderer/Texture</text>
<text text-anchor="middle" x="737.5" y="-309.5" font-family="Helvetica,sans-Serif" font-size="10.00" fill="#000000">/Texture.hpp</text>
</a>
</g>
</g>
<!-- Node0&#45;&gt;Node34 -->
<g id="edge45" class="edge">
<title>Node0&#45;&gt;Node34</title>
<path fill="none" stroke="#191970" d="M1169.1354,-373.0806C1082.7529,-363.0813 954.8158,-347.8649 843.5,-333 834.2646,-331.7667 824.5844,-330.4225 814.9872,-329.0581"/>
<polygon fill="#191970" stroke="#191970" points="815.4334,-325.5864 805.0381,-327.6327 814.4406,-332.5156 815.4334,-325.5864"/>
</g>
<!-- Node45 -->
<g id="node46" class="node">
<title>Node45</title>
<polygon fill="#ffffff" stroke="#bfbfbf" points="1962.5,-308 1962.5,-327 2018.5,-327 2018.5,-308 1962.5,-308"/>
<text text-anchor="middle" x="1990.5" y="-315" font-family="Helvetica,sans-Serif" font-size="10.00" fill="#000000">numeric</text>
</g>
<!-- Node0&#45;&gt;Node45 -->
<g id="edge64" class="edge">
<title>Node0&#45;&gt;Node45</title>
<path fill="none" stroke="#191970" d="M1369.8202,-380.9001C1532.2725,-374.406 1845.6009,-358.9397 1953.5,-333 1956.1388,-332.3656 1958.8316,-331.5652 1961.5007,-330.664"/>
<polygon fill="#191970" stroke="#191970" points="1962.8255,-333.9048 1970.9255,-327.0754 1960.3346,-327.363 1962.8255,-333.9048"/>
</g>
<!-- Node2 -->
<g id="node3" class="node">
<title>Node2</title>
<g id="a_node3"><a xlink:href="RaEngine_8hpp.html" target="_top" xlink:title="Engine/RaEngine.hpp">
<polygon fill="#ffffff" stroke="#000000" points="0,-174 0,-193 119,-193 119,-174 0,-174"/>
<text text-anchor="middle" x="59.5" y="-181" font-family="Helvetica,sans-Serif" font-size="10.00" fill="#000000">Engine/RaEngine.hpp</text>
</a>
</g>
</g>
<!-- Node1&#45;&gt;Node2 -->
<g id="edge2" class="edge">
<title>Node1&#45;&gt;Node2</title>
<path fill="none" stroke="#191970" d="M431.3864,-312.4996C309.1247,-304.9528 104.2515,-289.0435 78.5,-266 61.0939,-250.4243 57.9765,-222.3944 58.1152,-203.375"/>
<polygon fill="#191970" stroke="#191970" points="61.6221,-203.2609 58.5066,-193.1345 54.6272,-202.9935 61.6221,-203.2609"/>
</g>
<!-- Node9 -->
<g id="node10" class="node">
<title>Node9</title>
<g id="a_node10"><a xlink:href="Types_8hpp.html" target="_top" xlink:title="Core/Types.hpp">
<polygon fill="#ffffff" stroke="#000000" points="899,-241 899,-260 990,-260 990,-241 899,-241"/>
<text text-anchor="middle" x="944.5" y="-248" font-family="Helvetica,sans-Serif" font-size="10.00" fill="#000000">Core/Types.hpp</text>
</a>
</g>
</g>
<!-- Node1&#45;&gt;Node9 -->
<g id="edge9" class="edge">
<title>Node1&#45;&gt;Node9</title>
<path fill="none" stroke="#191970" d="M613.5482,-303.0445C697.2639,-289.7531 818.703,-270.4725 888.8299,-259.3386"/>
<polygon fill="#191970" stroke="#191970" points="889.4661,-262.7815 898.7936,-257.7567 888.3685,-255.8681 889.4661,-262.7815"/>
</g>
<!-- Node14 -->
<g id="node15" class="node">
<title>Node14</title>
<g id="a_node15"><a xlink:href="ShaderConfiguration_8hpp.html" target="_top" xlink:title="Engine/Renderer/RenderTechnique\l/ShaderConfiguration.hpp">
<polygon fill="#ffffff" stroke="#000000" points="158.5,-235.5 158.5,-265.5 340.5,-265.5 340.5,-235.5 158.5,-235.5"/>
<text text-anchor="start" x="166.5" y="-253.5" font-family="Helvetica,sans-Serif" font-size="10.00" fill="#000000">Engine/Renderer/RenderTechnique</text>
<text text-anchor="middle" x="249.5" y="-242.5" font-family="Helvetica,sans-Serif" font-size="10.00" fill="#000000">/ShaderConfiguration.hpp</text>
</a>
</g>
</g>
<!-- Node1&#45;&gt;Node14 -->
<g id="edge15" class="edge">
<title>Node1&#45;&gt;Node14</title>
<path fill="none" stroke="#191970" d="M461.2335,-302.4639C419.6675,-292.2627 364.5662,-278.7397 320.9941,-268.0462"/>
<polygon fill="#191970" stroke="#191970" points="321.5798,-264.5861 311.0337,-265.6017 319.9113,-271.3844 321.5798,-264.5861"/>
</g>
<!-- Node15 -->
<g id="node16" class="node">
<title>Node15</title>
<polygon fill="#ffffff" stroke="#bfbfbf" points="137.5,-174 137.5,-193 179.5,-193 179.5,-174 137.5,-174"/>
<text text-anchor="middle" x="158.5" y="-181" font-family="Helvetica,sans-Serif" font-size="10.00" fill="#000000">array</text>
</g>
<!-- Node1&#45;&gt;Node15 -->
<g id="edge22" class="edge">
<title>Node1&#45;&gt;Node15</title>
<path fill="none" stroke="#191970" d="M431.1386,-311.0969C326.7151,-302.83 167.7794,-286.9766 149.5,-266 134.3255,-248.5864 141.6855,-220.6297 149.3076,-202.1634"/>
<polygon fill="#191970" stroke="#191970" points="152.5156,-203.5634 153.4277,-193.0079 146.1322,-200.6908 152.5156,-203.5634"/>
</g>
<!-- Node18 -->
<g id="node19" class="node">
<title>Node18</title>
<polygon fill="#ffffff" stroke="#bfbfbf" points="401.5,-174 401.5,-193 445.5,-193 445.5,-174 401.5,-174"/>
<text text-anchor="middle" x="423.5" y="-181" font-family="Helvetica,sans-Serif" font-size="10.00" fill="#000000">string</text>
</g>
<!-- Node1&#45;&gt;Node18 -->
<g id="edge24" class="edge">
<title>Node1&#45;&gt;Node18</title>
<path fill="none" stroke="#191970" d="M523.2958,-302.4254C523.4836,-284.7522 521.3983,-255.3008 507.5,-235 500.387,-224.6103 473.6767,-209.1393 452.2604,-197.8669"/>
<polygon fill="#191970" stroke="#191970" points="453.6711,-194.6561 443.1812,-193.1685 450.4539,-200.873 453.6711,-194.6561"/>
</g>
<!-- Node20 -->
<g id="node21" class="node">
<title>Node20</title>
<polygon fill="#ffffff" stroke="#bfbfbf" points="554.5,-241 554.5,-260 612.5,-260 612.5,-241 554.5,-241"/>
<text text-anchor="middle" x="583.5" y="-248" font-family="Helvetica,sans-Serif" font-size="10.00" fill="#000000">memory</text>
</g>
<!-- Node1&#45;&gt;Node20 -->
<g id="edge23" class="edge">
<title>Node1&#45;&gt;Node20</title>
<path fill="none" stroke="#191970" d="M536.3418,-302.2967C545.7537,-291.9591 558.2183,-278.2684 567.9689,-267.5588"/>
<polygon fill="#191970" stroke="#191970" points="570.6565,-269.8057 574.8007,-260.055 565.4804,-265.0931 570.6565,-269.8057"/>
</g>
<!-- Node3 -->
<g id="node4" class="node">
<title>Node3</title>
<g id="a_node4"><a xlink:href="CoreMacros_8hpp.html" target="_top" xlink:title="Core/CoreMacros.hpp">
<polygon fill="#ffffff" stroke="#000000" points="1201.5,-56.5 1201.5,-75.5 1321.5,-75.5 1321.5,-56.5 1201.5,-56.5"/>
<text text-anchor="middle" x="1261.5" y="-63.5" font-family="Helvetica,sans-Serif" font-size="10.00" fill="#000000">Core/CoreMacros.hpp</text>
</a>
</g>
</g>
<!-- Node2&#45;&gt;Node3 -->
<g id="edge3" class="edge">
<title>Node2&#45;&gt;Node3</title>
<path fill="none" stroke="#191970" d="M97.6506,-173.992C107.6397,-171.7607 118.4323,-169.577 128.5,-168 527.8126,-105.4519 1012.7597,-77.7227 1191.2338,-69.1154"/>
<polygon fill="#191970" stroke="#191970" points="1191.4568,-72.6089 1201.2784,-68.6357 1191.1228,-65.6168 1191.4568,-72.6089"/>
</g>
<!-- Node4 -->
<g id="node5" class="node">
<title>Node4</title>
<polygon fill="#ffffff" stroke="#bfbfbf" points="1133.5,-.5 1133.5,-19.5 1185.5,-19.5 1185.5,-.5 1133.5,-.5"/>
<text text-anchor="middle" x="1159.5" y="-7.5" font-family="Helvetica,sans-Serif" font-size="10.00" fill="#000000">cassert</text>
</g>
<!-- Node3&#45;&gt;Node4 -->
<g id="edge4" class="edge">
<title>Node3&#45;&gt;Node4</title>
<path fill="none" stroke="#191970" d="M1243.733,-56.2455C1227.7905,-47.4928 1204.1741,-34.527 1186.0011,-24.5496"/>
<polygon fill="#191970" stroke="#191970" points="1187.5137,-21.3873 1177.0634,-19.6427 1184.1448,-27.5233 1187.5137,-21.3873"/>
</g>
<!-- Node5 -->
<g id="node6" class="node">
<title>Node5</title>
<polygon fill="#ffffff" stroke="#bfbfbf" points="1203.5,-.5 1203.5,-19.5 1249.5,-19.5 1249.5,-.5 1203.5,-.5"/>
<text text-anchor="middle" x="1226.5" y="-7.5" font-family="Helvetica,sans-Serif" font-size="10.00" fill="#000000">cstdio</text>
</g>
<!-- Node3&#45;&gt;Node5 -->
<g id="edge5" class="edge">
<title>Node3&#45;&gt;Node5</title>
<path fill="none" stroke="#191970" d="M1255.4035,-56.2455C1250.5855,-48.5367 1243.7249,-37.5598 1237.8968,-28.2348"/>
<polygon fill="#191970" stroke="#191970" points="1240.7947,-26.2677 1232.5267,-19.6427 1234.8587,-29.9777 1240.7947,-26.2677"/>
</g>
<!-- Node6 -->
<g id="node7" class="node">
<title>Node6</title>
<polygon fill="#ffffff" stroke="#bfbfbf" points="1267.5,-.5 1267.5,-19.5 1327.5,-19.5 1327.5,-.5 1267.5,-.5"/>
<text text-anchor="middle" x="1297.5" y="-7.5" font-family="Helvetica,sans-Serif" font-size="10.00" fill="#000000">iostream</text>
</g>
<!-- Node3&#45;&gt;Node6 -->
<g id="edge6" class="edge">
<title>Node3&#45;&gt;Node6</title>
<path fill="none" stroke="#191970" d="M1267.7707,-56.2455C1272.7264,-48.5367 1279.783,-37.5598 1285.7776,-28.2348"/>
<polygon fill="#191970" stroke="#191970" points="1288.8376,-29.9471 1291.3011,-19.6427 1282.9494,-26.1618 1288.8376,-29.9471"/>
</g>
<!-- Node7 -->
<g id="node8" class="node">
<title>Node7</title>
<polygon fill="#ffffff" stroke="#bfbfbf" points="1511.5,-.5 1511.5,-19.5 1567.5,-19.5 1567.5,-.5 1511.5,-.5"/>
<text text-anchor="middle" x="1539.5" y="-7.5" font-family="Helvetica,sans-Serif" font-size="10.00" fill="#000000">sstream</text>
</g>
<!-- Node3&#45;&gt;Node7 -->
<g id="edge7" class="edge">
<title>Node3&#45;&gt;Node7</title>
<path fill="none" stroke="#191970" d="M1308.974,-56.4369C1363.2666,-45.5003 1451.0953,-27.8081 1501.2121,-17.7127"/>
<polygon fill="#191970" stroke="#191970" points="1502.1965,-21.0848 1511.3085,-15.6789 1500.8142,-14.2226 1502.1965,-21.0848"/>
</g>
<!-- Node8 -->
<g id="node9" class="node">
<title>Node8</title>
<polygon fill="#ffffff" stroke="#bfbfbf" points="1345.5,-.5 1345.5,-19.5 1393.5,-19.5 1393.5,-.5 1345.5,-.5"/>
<text text-anchor="middle" x="1369.5" y="-7.5" font-family="Helvetica,sans-Serif" font-size="10.00" fill="#000000">thread</text>
</g>
<!-- Node3&#45;&gt;Node8 -->
<g id="edge8" class="edge">
<title>Node3&#45;&gt;Node8</title>
<path fill="none" stroke="#191970" d="M1280.3122,-56.2455C1297.3473,-47.4125 1322.6575,-34.2887 1341.9681,-24.2758"/>
<polygon fill="#191970" stroke="#191970" points="1343.637,-27.353 1350.9034,-19.6427 1340.4147,-21.1388 1343.637,-27.353"/>
</g>
<!-- Node10 -->
<g id="node11" class="node">
<title>Node10</title>
<g id="a_node11"><a xlink:href="RaCore_8hpp.html" target="_top" xlink:title="Core/RaCore.hpp">
<polygon fill="#ffffff" stroke="#000000" points="1174.5,-112.5 1174.5,-131.5 1272.5,-131.5 1272.5,-112.5 1174.5,-112.5"/>
<text text-anchor="middle" x="1223.5" y="-119.5" font-family="Helvetica,sans-Serif" font-size="10.00" fill="#000000">Core/RaCore.hpp</text>
</a>
</g>
</g>
<!-- Node9&#45;&gt;Node10 -->
<g id="edge10" class="edge">
<title>Node9&#45;&gt;Node10</title>
<path fill="none" stroke="#191970" d="M934.5479,-240.7949C918.7225,-224.2017 891.4621,-190.0403 910.5,-168 926.823,-149.1028 1077.9074,-133.8405 1164.0522,-126.5851"/>
<polygon fill="#191970" stroke="#191970" points="1164.5464,-130.0562 1174.2223,-125.7403 1163.9669,-123.0803 1164.5464,-130.0562"/>
</g>
<!-- Node11 -->
<g id="node12" class="node">
<title>Node11</title>
<polygon fill="#ffffff" stroke="#bfbfbf" points="1018,-174 1018,-193 1087,-193 1087,-174 1018,-174"/>
<text text-anchor="middle" x="1052.5" y="-181" font-family="Helvetica,sans-Serif" font-size="10.00" fill="#000000">Eigen/Core</text>
</g>
<!-- Node9&#45;&gt;Node11 -->
<g id="edge12" class="edge">
<title>Node9&#45;&gt;Node11</title>
<path fill="none" stroke="#191970" d="M959.9738,-240.9005C977.858,-229.8057 1007.5062,-211.4128 1028.4138,-198.4424"/>
<polygon fill="#191970" stroke="#191970" points="1030.4024,-201.3275 1037.0549,-193.0817 1026.7122,-195.3792 1030.4024,-201.3275"/>
</g>
<!-- Node12 -->
<g id="node13" class="node">
<title>Node12</title>
<polygon fill="#ffffff" stroke="#bfbfbf" points="1105,-174 1105,-193 1200,-193 1200,-174 1105,-174"/>
<text text-anchor="middle" x="1152.5" y="-181" font-family="Helvetica,sans-Serif" font-size="10.00" fill="#000000">Eigen/Geometry</text>
</g>
<!-- Node9&#45;&gt;Node12 -->
<g id="edge13" class="edge">
<title>Node9&#45;&gt;Node12</title>
<path fill="none" stroke="#191970" d="M974.3013,-240.9005C1010.8302,-229.134 1072.8418,-209.1591 1113.2308,-196.1492"/>
<polygon fill="#191970" stroke="#191970" points="1114.3087,-199.4792 1122.754,-193.0817 1112.1624,-192.8163 1114.3087,-199.4792"/>
</g>
<!-- Node13 -->
<g id="node14" class="node">
<title>Node13</title>
<polygon fill="#ffffff" stroke="#bfbfbf" points="919.5,-174 919.5,-193 999.5,-193 999.5,-174 919.5,-174"/>
<text text-anchor="middle" x="959.5" y="-181" font-family="Helvetica,sans-Serif" font-size="10.00" fill="#000000">Eigen/Sparse</text>
</g>
<!-- Node9&#45;&gt;Node13 -->
<g id="edge14" class="edge">
<title>Node9&#45;&gt;Node13</title>
<path fill="none" stroke="#191970" d="M946.6491,-240.9005C948.8546,-231.0495 952.3481,-215.4451 955.1363,-202.9912"/>
<polygon fill="#191970" stroke="#191970" points="958.5855,-203.6048 957.3549,-193.0817 951.7546,-202.0754 958.5855,-203.6048"/>
</g>
<!-- Node10&#45;&gt;Node3 -->
<g id="edge11" class="edge">
<title>Node10&#45;&gt;Node3</title>
<path fill="none" stroke="#191970" d="M1230.1191,-112.2455C1235.4046,-104.4564 1242.9541,-93.3308 1249.3238,-83.9439"/>
<polygon fill="#191970" stroke="#191970" points="1252.2379,-85.8827 1254.9568,-75.6427 1246.4455,-81.9522 1252.2379,-85.8827"/>
</g>
<!-- Node14&#45;&gt;Node2 -->
<g id="edge16" class="edge">
<title>Node14&#45;&gt;Node2</title>
<path fill="none" stroke="#191970" d="M206.8603,-235.4639C173.5896,-223.7316 127.8585,-207.6054 96.2044,-196.4431"/>
<polygon fill="#191970" stroke="#191970" points="97.0501,-193.0302 86.4553,-193.0053 94.7221,-199.6317 97.0501,-193.0302"/>
</g>
<!-- Node14&#45;&gt;Node15 -->
<g id="edge17" class="edge">
<title>Node14&#45;&gt;Node15</title>
<path fill="none" stroke="#191970" d="M228.8507,-235.2967C214.1219,-224.4524 194.3814,-209.9182 179.5604,-199.006"/>
<polygon fill="#191970" stroke="#191970" points="181.6056,-196.1655 171.4776,-193.055 177.4553,-201.8025 181.6056,-196.1655"/>
</g>
<!-- Node16 -->
<g id="node17" class="node">
<title>Node16</title>
<polygon fill="#ffffff" stroke="#bfbfbf" points="197.5,-174 197.5,-193 229.5,-193 229.5,-174 197.5,-174"/>
<text text-anchor="middle" x="213.5" y="-181" font-family="Helvetica,sans-Serif" font-size="10.00" fill="#000000">list</text>
</g>
<!-- Node14&#45;&gt;Node16 -->
<g id="edge18" class="edge">
<title>Node14&#45;&gt;Node16</title>
<path fill="none" stroke="#191970" d="M241.331,-235.2967C236.0488,-225.4658 229.1372,-212.6026 223.5233,-202.1545"/>
<polygon fill="#191970" stroke="#191970" points="226.4504,-200.2073 218.634,-193.055 220.2841,-203.5205 226.4504,-200.2073"/>
</g>
<!-- Node17 -->
<g id="node18" class="node">
<title>Node17</title>
<polygon fill="#ffffff" stroke="#bfbfbf" points="247.5,-174 247.5,-193 279.5,-193 279.5,-174 247.5,-174"/>
<text text-anchor="middle" x="263.5" y="-181" font-family="Helvetica,sans-Serif" font-size="10.00" fill="#000000">set</text>
</g>
<!-- Node14&#45;&gt;Node17 -->
<g id="edge19" class="edge">
<title>Node14&#45;&gt;Node17</title>
<path fill="none" stroke="#191970" d="M252.6768,-235.2967C254.6675,-225.7699 257.2532,-213.3954 259.3981,-203.1306"/>
<polygon fill="#191970" stroke="#191970" points="262.884,-203.5595 261.5034,-193.055 256.032,-202.1277 262.884,-203.5595"/>
</g>
<!-- Node14&#45;&gt;Node18 -->
<g id="edge20" class="edge">
<title>Node14&#45;&gt;Node18</title>
<path fill="none" stroke="#191970" d="M288.549,-235.4639C319.5608,-223.5226 362.3939,-207.0293 391.4236,-195.8513"/>
<polygon fill="#191970" stroke="#191970" points="392.9997,-198.9949 401.0741,-192.1353 390.4843,-192.4625 392.9997,-198.9949"/>
</g>
<!-- Node19 -->
<g id="node20" class="node">
<title>Node19</title>
<polygon fill="#ffffff" stroke="#bfbfbf" points="298,-174 298,-193 345,-193 345,-174 298,-174"/>
<text text-anchor="middle" x="321.5" y="-181" font-family="Helvetica,sans-Serif" font-size="10.00" fill="#000000">vector</text>
</g>
<!-- Node14&#45;&gt;Node19 -->
<g id="edge21" class="edge">
<title>Node14&#45;&gt;Node19</title>
<path fill="none" stroke="#191970" d="M265.8379,-235.2967C277.1648,-224.7564 292.2376,-210.7303 303.8414,-199.9323"/>
<polygon fill="#191970" stroke="#191970" points="306.2956,-202.4296 311.232,-193.055 301.5269,-197.3051 306.2956,-202.4296"/>
</g>
<!-- Node21&#45;&gt;Node10 -->
<g id="edge26" class="edge">
<title>Node21&#45;&gt;Node10</title>
<path fill="none" stroke="#191970" d="M418.2218,-240.9136C401.4967,-224.1972 372.2007,-189.454 392.5,-168 418.983,-140.0105 978.4544,-126.725 1164.1731,-123.0746"/>
<polygon fill="#191970" stroke="#191970" points="1164.3694,-126.5716 1174.2995,-122.8779 1164.2333,-119.5729 1164.3694,-126.5716"/>
</g>
<!-- Node21&#45;&gt;Node18 -->
<g id="edge27" class="edge">
<title>Node21&#45;&gt;Node18</title>
<path fill="none" stroke="#191970" d="M427.7836,-240.9005C427.0559,-231.149 425.9074,-215.7597 424.9828,-203.3695"/>
<polygon fill="#191970" stroke="#191970" points="428.4496,-202.7934 424.215,-193.0817 421.469,-203.3144 428.4496,-202.7934"/>
</g>
<!-- Node21&#45;&gt;Node19 -->
<g id="edge28" class="edge">
<title>Node21&#45;&gt;Node19</title>
<path fill="none" stroke="#191970" d="M413.1695,-240.9005C395.4509,-229.8057 366.0772,-211.4128 345.3632,-198.4424"/>
<polygon fill="#191970" stroke="#191970" points="347.1351,-195.4224 336.8021,-193.0817 343.4201,-201.3553 347.1351,-195.4224"/>
</g>
<!-- Node29&#45;&gt;Node9 -->
<g id="edge38" class="edge">
<title>Node29&#45;&gt;Node9</title>
<path fill="none" stroke="#191970" d="M931.6491,-307.9005C933.8546,-298.0495 937.3481,-282.4451 940.1363,-269.9912"/>
<polygon fill="#191970" stroke="#191970" points="943.5855,-270.6048 942.3549,-260.0817 936.7546,-269.0754 943.5855,-270.6048"/>
</g>
<!-- Node30 -->
<g id="node31" class="node">
<title>Node30</title>
<polygon fill="#ffffff" stroke="#bfbfbf" points="1227.5,-241 1227.5,-260 1305.5,-260 1305.5,-241 1227.5,-241"/>
<text text-anchor="middle" x="1266.5" y="-248" font-family="Helvetica,sans-Serif" font-size="10.00" fill="#000000">glm/glm.hpp</text>
</g>
<!-- Node29&#45;&gt;Node30 -->
<g id="edge37" class="edge">
<title>Node29&#45;&gt;Node30</title>
<path fill="none" stroke="#191970" d="M985.2291,-307.9897C1062.7819,-294.6906 1196.2783,-271.5405 1218.5,-266 1222.1112,-265.0996 1225.8463,-264.071 1229.5646,-262.9815"/>
<polygon fill="#191970" stroke="#191970" points="1230.7389,-266.2823 1239.2715,-260.0018 1228.6847,-259.5905 1230.7389,-266.2823"/>
</g>
<!-- Node31&#45;&gt;Node7 -->
<g id="edge42" class="edge">
<title>Node31&#45;&gt;Node7</title>
<path fill="none" stroke="#191970" d="M1501.5253,-241.6135C1546.271,-232.9058 1605.2594,-218.1612 1619.5,-199 1661.1924,-142.9013 1592.0168,-61.8018 1557.4017,-26.9551"/>
<polygon fill="#191970" stroke="#191970" points="1559.7868,-24.3917 1550.2038,-19.8732 1554.8774,-29.3815 1559.7868,-24.3917"/>
</g>
<!-- Node31&#45;&gt;Node10 -->
<g id="edge40" class="edge">
<title>Node31&#45;&gt;Node10</title>
<path fill="none" stroke="#191970" d="M1431.3736,-240.8518C1413.0678,-230.5287 1383.2038,-213.6582 1357.5,-199 1319.5541,-177.3605 1275.6771,-152.1027 1248.7597,-136.5806"/>
<polygon fill="#191970" stroke="#191970" points="1250.3945,-133.4831 1239.9835,-131.5181 1246.8968,-139.5466 1250.3945,-133.4831"/>
</g>
<!-- Node31&#45;&gt;Node18 -->
<g id="edge44" class="edge">
<title>Node31&#45;&gt;Node18</title>
<path fill="none" stroke="#191970" d="M1395.441,-243.4557C1370.8578,-240.4252 1341.2322,-237.1027 1314.5,-235 1123.8105,-220.0004 639.7016,-246.831 454.5,-199 452.5774,-198.5035 450.6354,-197.8774 448.7108,-197.1634"/>
<polygon fill="#191970" stroke="#191970" points="449.9668,-193.892 439.4052,-193.0538 447.1389,-200.2954 449.9668,-193.892"/>
</g>
<!-- Node32 -->
<g id="node33" class="node">
<title>Node32</title>
<polygon fill="#ffffff" stroke="#bfbfbf" points="1498.5,-174 1498.5,-193 1542.5,-193 1542.5,-174 1498.5,-174"/>
<text text-anchor="middle" x="1520.5" y="-181" font-family="Helvetica,sans-Serif" font-size="10.00" fill="#000000">ctime</text>
</g>
<!-- Node31&#45;&gt;Node32 -->
<g id="edge41" class="edge">
<title>Node31&#45;&gt;Node32</title>
<path fill="none" stroke="#191970" d="M1458.8158,-240.9005C1470.2575,-230.2535 1488.9215,-212.8856 1502.7273,-200.0385"/>
<polygon fill="#191970" stroke="#191970" points="1505.2669,-202.4562 1510.2033,-193.0817 1500.4983,-197.3317 1505.2669,-202.4562"/>
</g>
<!-- Node33 -->
<g id="node34" class="node">
<title>Node33</title>
<polygon fill="#ffffff" stroke="#bfbfbf" points="1560.5,-174 1560.5,-193 1610.5,-193 1610.5,-174 1560.5,-174"/>
<text text-anchor="middle" x="1585.5" y="-181" font-family="Helvetica,sans-Serif" font-size="10.00" fill="#000000">stdio.h</text>
</g>
<!-- Node31&#45;&gt;Node33 -->
<g id="edge43" class="edge">
<title>Node31&#45;&gt;Node33</title>
<path fill="none" stroke="#191970" d="M1468.1288,-240.9005C1491.3239,-229.5569 1530.1185,-210.5844 1556.7131,-197.5783"/>
<polygon fill="#191970" stroke="#191970" points="1558.462,-200.6191 1565.9077,-193.0817 1555.3867,-194.3308 1558.462,-200.6191"/>
</g>
<!-- Node34&#45;&gt;Node2 -->
<g id="edge46" class="edge">
<title>Node34&#45;&gt;Node2</title>
<path fill="none" stroke="#191970" d="M669.7762,-307.7068C654.2626,-305.6486 637.8267,-303.6148 622.5,-302 517.6651,-290.955 246.2222,-307.9184 149.5,-266 116.803,-251.8295 88.2361,-220.6901 72.4764,-200.9812"/>
<polygon fill="#191970" stroke="#191970" points="75.2412,-198.8351 66.3494,-193.0744 69.7081,-203.1228 75.2412,-198.8351"/>
</g>
<!-- Node34&#45;&gt;Node18 -->
<g id="edge48" class="edge">
<title>Node34&#45;&gt;Node18</title>
<path fill="none" stroke="#191970" d="M713.1769,-302.3344C697.5693,-292.386 677.0196,-278.8794 659.5,-266 641.9388,-253.0901 641.1421,-244.4472 621.5,-235 553.0758,-202.0901 526.1316,-224.1764 454.5,-199 453.0808,-198.5012 451.6432,-197.952 450.2042,-197.367"/>
<polygon fill="#191970" stroke="#191970" points="451.4239,-194.0773 440.8705,-193.1417 448.5371,-200.4543 451.4239,-194.0773"/>
</g>
<!-- Node34&#45;&gt;Node20 -->
<g id="edge47" class="edge">
<title>Node34&#45;&gt;Node20</title>
<path fill="none" stroke="#191970" d="M702.9394,-302.4639C676.5182,-290.969 640.4021,-275.2561 614.8209,-264.1266"/>
<polygon fill="#191970" stroke="#191970" points="616.1408,-260.884 605.5747,-260.1039 613.3481,-267.3028 616.1408,-260.884"/>
</g>
<!-- Node35 -->
<g id="node36" class="node">
<title>Node35</title>
<g id="a_node36"><a xlink:href="OpenGL_8hpp.html" target="_top" xlink:title="Engine/Renderer/OpenGL\l/OpenGL.hpp">
<polygon fill="#ffffff" stroke="#000000" points="669,-235.5 669,-265.5 806,-265.5 806,-235.5 669,-235.5"/>
<text text-anchor="start" x="677" y="-253.5" font-family="Helvetica,sans-Serif" font-size="10.00" fill="#000000">Engine/Renderer/OpenGL</text>
<text text-anchor="middle" x="737.5" y="-242.5" font-family="Helvetica,sans-Serif" font-size="10.00" fill="#000000">/OpenGL.hpp</text>
</a>
</g>
</g>
<!-- Node34&#45;&gt;Node35 -->
<g id="edge49" class="edge">
<title>Node34&#45;&gt;Node35</title>
<path fill="none" stroke="#191970" d="M737.5,-302.2967C737.5,-294.5013 737.5,-284.7991 737.5,-275.9064"/>
<polygon fill="#191970" stroke="#191970" points="741.0001,-275.6431 737.5,-265.6432 734.0001,-275.6432 741.0001,-275.6431"/>
</g>
<!-- Node39 -->
<g id="node40" class="node">
<title>Node39</title>
<g id="a_node40"><a xlink:href="Color_8hpp.html" target="_top" xlink:title="Core/Utils/Color.hpp">
<polygon fill="#ffffff" stroke="#000000" points="1096,-241 1096,-260 1209,-260 1209,-241 1096,-241"/>
<text text-anchor="middle" x="1152.5" y="-248" font-family="Helvetica,sans-Serif" font-size="10.00" fill="#000000">Core/Utils/Color.hpp</text>
</a>
</g>
</g>
<!-- Node34&#45;&gt;Node39 -->
<g id="edge53" class="edge">
<title>Node34&#45;&gt;Node39</title>
<path fill="none" stroke="#191970" d="M805.1006,-306.5862C882.5832,-294.0769 1008.7805,-273.7029 1085.8585,-261.259"/>
<polygon fill="#191970" stroke="#191970" points="1086.6202,-264.6814 1095.9345,-259.6323 1085.5045,-257.7709 1086.6202,-264.6814"/>
</g>
<!-- Node36 -->
<g id="node37" class="node">
<title>Node36</title>
<polygon fill="#ffffff" stroke="#bfbfbf" points="735.5,-174 735.5,-193 863.5,-193 863.5,-174 735.5,-174"/>
<text text-anchor="middle" x="799.5" y="-181" font-family="Helvetica,sans-Serif" font-size="10.00" fill="#000000">glbinding/gl45core/gl.h</text>
</g>
<!-- Node35&#45;&gt;Node36 -->
<g id="edge50" class="edge">
<title>Node35&#45;&gt;Node36</title>
<path fill="none" stroke="#191970" d="M751.5688,-235.2967C761.1349,-224.9591 773.8038,-211.2684 783.7143,-200.5588"/>
<polygon fill="#191970" stroke="#191970" points="786.435,-202.7718 790.6581,-193.055 781.2973,-198.0175 786.435,-202.7718"/>
</g>
<!-- Node37 -->
<g id="node38" class="node">
<title>Node37</title>
<polygon fill="#ffffff" stroke="#bfbfbf" points="463.5,-174 463.5,-193 585.5,-193 585.5,-174 463.5,-174"/>
<text text-anchor="middle" x="524.5" y="-181" font-family="Helvetica,sans-Serif" font-size="10.00" fill="#000000">glbinding/gl45ext/gl.h</text>
</g>
<!-- Node35&#45;&gt;Node37 -->
<g id="edge51" class="edge">
<title>Node35&#45;&gt;Node37</title>
<path fill="none" stroke="#191970" d="M689.6986,-235.4639C651.916,-223.5792 599.7996,-207.1858 564.273,-196.0108"/>
<polygon fill="#191970" stroke="#191970" points="565.3077,-192.6672 554.7183,-193.0053 563.2073,-199.3447 565.3077,-192.6672"/>
</g>
<!-- Node38 -->
<g id="node39" class="node">
<title>Node38</title>
<polygon fill="#ffffff" stroke="#bfbfbf" points="604,-168.5 604,-198.5 717,-198.5 717,-168.5 604,-168.5"/>
<text text-anchor="start" x="612" y="-186.5" font-family="Helvetica,sans-Serif" font-size="10.00" fill="#000000">glbinding&#45;aux/types</text>
<text text-anchor="middle" x="660.5" y="-175.5" font-family="Helvetica,sans-Serif" font-size="10.00" fill="#000000">_to_string.h</text>
</g>
<!-- Node35&#45;&gt;Node38 -->
<g id="edge52" class="edge">
<title>Node35&#45;&gt;Node38</title>
<path fill="none" stroke="#191970" d="M720.0275,-235.2967C709.8872,-226.4733 696.9396,-215.2072 685.711,-205.4368"/>
<polygon fill="#191970" stroke="#191970" points="687.7448,-202.567 677.9033,-198.6432 683.1498,-207.8478 687.7448,-202.567"/>
</g>
<!-- Node39&#45;&gt;Node3 -->
<g id="edge54" class="edge">
<title>Node39&#45;&gt;Node3</title>
<path fill="none" stroke="#191970" d="M1188.7514,-240.9429C1222.9938,-231.0956 1270.6792,-214.9712 1281.5,-199 1305.1791,-164.0503 1285.4366,-112.1296 1271.794,-84.6409"/>
<polygon fill="#191970" stroke="#191970" points="1274.8588,-82.9483 1267.1355,-75.6956 1268.6502,-86.1816 1274.8588,-82.9483"/>
</g>
<!-- Node39&#45;&gt;Node11 -->
<g id="edge61" class="edge">
<title>Node39&#45;&gt;Node11</title>
<path fill="none" stroke="#191970" d="M1138.1724,-240.9005C1121.7615,-229.9052 1094.6525,-211.7422 1075.3249,-198.7927"/>
<polygon fill="#191970" stroke="#191970" points="1077.0569,-195.7402 1066.801,-193.0817 1073.1605,-201.5556 1077.0569,-195.7402"/>
</g>
<!-- Node39&#45;&gt;Node12 -->
<g id="edge62" class="edge">
<title>Node39&#45;&gt;Node12</title>
<path fill="none" stroke="#191970" d="M1152.5,-240.9005C1152.5,-231.149 1152.5,-215.7597 1152.5,-203.3695"/>
<polygon fill="#191970" stroke="#191970" points="1156.0001,-203.0816 1152.5,-193.0817 1149.0001,-203.0817 1156.0001,-203.0816"/>
</g>
<!-- Node40 -->
<g id="node41" class="node">
<title>Node40</title>
<g id="a_node41"><a xlink:href="Math_8hpp.html" target="_top" xlink:title="Core/Math/Math.hpp">
<polygon fill="#ffffff" stroke="#000000" points="1366.5,-174 1366.5,-193 1480.5,-193 1480.5,-174 1366.5,-174"/>
<text text-anchor="middle" x="1423.5" y="-181" font-family="Helvetica,sans-Serif" font-size="10.00" fill="#000000">Core/Math/Math.hpp</text>
</a>
</g>
</g>
<!-- Node39&#45;&gt;Node40 -->
<g id="edge55" class="edge">
<title>Node39&#45;&gt;Node40</title>
<path fill="none" stroke="#191970" d="M1191.0399,-240.9717C1239.3631,-229.0246 1322.2364,-208.5357 1374.8716,-195.5225"/>
<polygon fill="#191970" stroke="#191970" points="1375.7866,-198.9018 1384.6543,-193.1039 1374.1065,-192.1064 1375.7866,-198.9018"/>
</g>
<!-- Node44 -->
<g id="node45" class="node">
<title>Node44</title>
<polygon fill="#ffffff" stroke="#bfbfbf" points="1218.5,-174 1218.5,-193 1272.5,-193 1272.5,-174 1218.5,-174"/>
<text text-anchor="middle" x="1245.5" y="-181" font-family="Helvetica,sans-Serif" font-size="10.00" fill="#000000">random</text>
</g>
<!-- Node39&#45;&gt;Node44 -->
<g id="edge63" class="edge">
<title>Node39&#45;&gt;Node44</title>
<path fill="none" stroke="#191970" d="M1165.8246,-240.9005C1181.0178,-229.9549 1206.0703,-211.9064 1224.0284,-198.9688"/>
<polygon fill="#191970" stroke="#191970" points="1226.1323,-201.7668 1232.2001,-193.0817 1222.0405,-196.0872 1226.1323,-201.7668"/>
</g>
<!-- Node40&#45;&gt;Node10 -->
<g id="edge56" class="edge">
<title>Node40&#45;&gt;Node10</title>
<path fill="none" stroke="#191970" d="M1392.25,-173.8906C1357.7589,-163.2846 1302.1188,-146.1753 1264.2338,-134.5257"/>
<polygon fill="#191970" stroke="#191970" points="1265.1176,-131.1357 1254.5306,-131.5419 1263.0601,-137.8266 1265.1176,-131.1357"/>
</g>
<!-- Node41 -->
<g id="node42" class="node">
<title>Node41</title>
<polygon fill="#ffffff" stroke="#bfbfbf" points="1467.5,-112.5 1467.5,-131.5 1531.5,-131.5 1531.5,-112.5 1467.5,-112.5"/>
<text text-anchor="middle" x="1499.5" y="-119.5" font-family="Helvetica,sans-Serif" font-size="10.00" fill="#000000">algorithm</text>
</g>
<!-- Node40&#45;&gt;Node41 -->
<g id="edge57" class="edge">
<title>Node40&#45;&gt;Node41</title>
<path fill="none" stroke="#191970" d="M1435.375,-173.8906C1447.1297,-164.3786 1465.3486,-149.6357 1479.3672,-138.2917"/>
<polygon fill="#191970" stroke="#191970" points="1481.8856,-140.7562 1487.4576,-131.7449 1477.4822,-135.3146 1481.8856,-140.7562"/>
</g>
<!-- Node42 -->
<g id="node43" class="node">
<title>Node42</title>
<polygon fill="#ffffff" stroke="#bfbfbf" points="1550,-112.5 1550,-131.5 1597,-131.5 1597,-112.5 1550,-112.5"/>
<text text-anchor="middle" x="1573.5" y="-119.5" font-family="Helvetica,sans-Serif" font-size="10.00" fill="#000000">cmath</text>
</g>
<!-- Node40&#45;&gt;Node42 -->
<g id="edge58" class="edge">
<title>Node40&#45;&gt;Node42</title>
<path fill="none" stroke="#191970" d="M1446.9375,-173.8906C1472.1453,-163.5554 1512.4153,-147.0447 1540.7477,-135.4284"/>
<polygon fill="#191970" stroke="#191970" points="1542.3023,-138.5739 1550.2271,-131.5419 1539.6468,-132.0971 1542.3023,-138.5739"/>
</g>
<!-- Node43 -->
<g id="node44" class="node">
<title>Node43</title>
<g id="a_node44"><a xlink:href="Math_8inl.html" target="_top" xlink:title="Core/Math/Math.inl">
<polygon fill="#ffffff" stroke="#000000" points="1341.5,-112.5 1341.5,-131.5 1449.5,-131.5 1449.5,-112.5 1341.5,-112.5"/>
<text text-anchor="middle" x="1395.5" y="-119.5" font-family="Helvetica,sans-Serif" font-size="10.00" fill="#000000">Core/Math/Math.inl</text>
</a>
</g>
</g>
<!-- Node40&#45;&gt;Node43 -->
<g id="edge59" class="edge">
<title>Node40&#45;&gt;Node43</title>
<path fill="none" stroke="#191970" d="M1414.0625,-173.8906C1408.4595,-165.276 1402.1588,-152.3708 1398.0791,-141.5858"/>
<polygon fill="#191970" stroke="#191970" points="1401.2929,-140.1539 1394.8479,-131.7449 1394.6423,-142.3377 1401.2929,-140.1539"/>
</g>
<!-- Node43&#45;&gt;Node40 -->
<g id="edge60" class="edge">
<title>Node43&#45;&gt;Node40</title>
<path fill="none" stroke="#191970" d="M1405.0254,-131.7449C1410.6357,-140.4042 1416.9283,-153.3205 1420.9847,-164.0832"/>
<polygon fill="#191970" stroke="#191970" points="1417.756,-165.4712 1424.1875,-173.8906 1424.4101,-163.2981 1417.756,-165.4712"/>
</g>
</g>
</svg>
        <g id="navigator" transform="translate(0 0)" fill="#404254">
                <rect fill="#f2f5e9" fill-opacity="0.5" stroke="#606060" stroke-width=".5" x="0" y="0" width="60" height="60"/>
                <use id="zoomplus" xlink:href="#zoomPlus" x="17" y="9" onmousedown="handleZoom(evt,'in')"/>
                <use id="zoomminus" xlink:href="#zoomMin" x="42" y="9" onmousedown="handleZoom(evt,'out')"/>
                <use id="reset" xlink:href="#resetDef" x="30" y="36" onmousedown="handleReset()"/>
                <g id="arrowUp" xlink:href="#dirArrow" transform="translate(30 24)" onmousedown="handlePan(0,-1)">
                  <use xlink:href="#rim" fill="#404040">
                        <set attributeName="fill" to="#808080" begin="arrowUp.mouseover" end="arrowUp.mouseout"/>
                  </use>
                  <path fill="none" stroke="white" stroke-width="1.5" d="M0,-3.0v7 M-2.5,-0.5L0,-3.0L2.5,-0.5"/>
                </g>
                <g id="arrowRight" xlink:href="#dirArrow" transform="rotate(90) translate(36 -43)" onmousedown="handlePan(1,0)">
                  <use xlink:href="#rim" fill="#404040">
                        <set attributeName="fill" to="#808080" begin="arrowRight.mouseover" end="arrowRight.mouseout"/>
                  </use>
                  <path fill="none" stroke="white" stroke-width="1.5" d="M0,-3.0v7 M-2.5,-0.5L0,-3.0L2.5,-0.5"/>
                </g>
                <g id="arrowDown" xlink:href="#dirArrow" transform="rotate(180) translate(-30 -48)" onmousedown="handlePan(0,1)">
                  <use xlink:href="#rim" fill="#404040">
                        <set attributeName="fill" to="#808080" begin="arrowDown.mouseover" end="arrowDown.mouseout"/>
                  </use>
                  <path fill="none" stroke="white" stroke-width="1.5" d="M0,-3.0v7 M-2.5,-0.5L0,-3.0L2.5,-0.5"/>
                </g>
                <g id="arrowLeft" xlink:href="#dirArrow" transform="rotate(270) translate(-36 17)" onmousedown="handlePan(-1,0)">
                  <use xlink:href="#rim" fill="#404040">
                        <set attributeName="fill" to="#808080" begin="arrowLeft.mouseover" end="arrowLeft.mouseout"/>
                  </use>
                  <path fill="none" stroke="white" stroke-width="1.5" d="M0,-3.0v7 M-2.5,-0.5L0,-3.0L2.5,-0.5"/>
                </g>
        </g>
        <svg viewBox="0 0 15 15" width="100%" height="30px" preserveAspectRatio="xMaxYMin meet">
         <g id="arrow_out" transform="scale(0.3 0.3)">
          <a xlink:href="ShaderProgram_8cpp__incl_org.svg" target="_base">
           <rect id="button" ry="5" rx="5" y="6" x="6" height="38" width="38"
                fill="#f2f5e9" fill-opacity="0.5" stroke="#606060" stroke-width="1.0"/>
           <path id="arrow"
             d="M 11.500037,31.436501 C 11.940474,20.09759 22.043105,11.32322 32.158766,21.979434 L 37.068811,17.246167 C 37.068811,17.246167 37.088388,32 37.088388,32 L 22.160133,31.978069 C 22.160133,31.978069 26.997745,27.140456 26.997745,27.140456 C 18.528582,18.264221 13.291696,25.230495 11.500037,31.436501 z"
             style="fill:#404040;"/>
          </a>
         </g>
        </svg>
</svg>
