<?xml version="1.0" encoding="UTF-8" standalone="no"?>
<!DOCTYPE svg PUBLIC "-//W3C//DTD SVG 1.1//EN"
 "http://www.w3.org/Graphics/SVG/1.1/DTD/svg11.dtd">
<!-- Generated by graphviz version 2.40.1 (20161225.0304)
 -->
<!-- Title: src/Engine/Renderer/RenderTechnique/ShaderProgram.hpp Pages: 1 -->
<svg width="880pt" height="274pt"
 viewBox="0.00 0.00 879.50 274.00" xmlns="http://www.w3.org/2000/svg" xmlns:xlink="http://www.w3.org/1999/xlink">
<g id="graph0" class="graph" transform="scale(1 1) rotate(0) translate(4 270)">
<title>src/Engine/Renderer/RenderTechnique/ShaderProgram.hpp</title>
<polygon fill="#ffffff" stroke="transparent" points="-4,4 -4,-270 875.5,-270 875.5,4 -4,4"/>
<!-- Node0 -->
<g id="node1" class="node">
<title>Node0</title>
<polygon fill="#bfbfbf" stroke="#000000" points="506,-235.5 506,-265.5 707,-265.5 707,-235.5 506,-235.5"/>
<text text-anchor="start" x="514" y="-253.5" font-family="Helvetica,sans-Serif" font-size="10.00" fill="#000000">src/Engine/Renderer</text>
<text text-anchor="middle" x="606.5" y="-242.5" font-family="Helvetica,sans-Serif" font-size="10.00" fill="#000000">/RenderTechnique/ShaderProgram.hpp</text>
</g>
<!-- Node1 -->
<g id="node2" class="node">
<title>Node1</title>
<g id="a_node2"><a xlink:href="RaEngine_8hpp.html" target="_top" xlink:title="Engine/RaEngine.hpp">
<polygon fill="#ffffff" stroke="#000000" points="415,-112.5 415,-131.5 534,-131.5 534,-112.5 415,-112.5"/>
<text text-anchor="middle" x="474.5" y="-119.5" font-family="Helvetica,sans-Serif" font-size="10.00" fill="#000000">Engine/RaEngine.hpp</text>
</a>
</g>
</g>
<!-- Node0&#45;&gt;Node1 -->
<g id="edge1" class="edge">
<title>Node0&#45;&gt;Node1</title>
<path fill="none" stroke="#191970" d="M590.8395,-235.2548C565.9599,-211.0349 517.5836,-163.9413 491.7452,-138.788"/>
<polygon fill="#191970" stroke="#191970" points="494.1078,-136.2033 484.501,-131.7358 489.225,-141.2192 494.1078,-136.2033"/>
</g>
<!-- Node8 -->
<g id="node9" class="node">
<title>Node8</title>
<g id="a_node9"><a xlink:href="Types_8hpp.html" target="_top" xlink:title="Core/Types.hpp">
<polygon fill="#ffffff" stroke="#000000" points="195,-174 195,-193 286,-193 286,-174 195,-174"/>
<text text-anchor="middle" x="240.5" y="-181" font-family="Helvetica,sans-Serif" font-size="10.00" fill="#000000">Core/Types.hpp</text>
</a>
</g>
</g>
<!-- Node0&#45;&gt;Node8 -->
<g id="edge8" class="edge">
<title>Node0&#45;&gt;Node8</title>
<path fill="none" stroke="#191970" d="M524.3625,-235.4639C454.8299,-222.7352 357.0449,-204.8347 296.2874,-193.7124"/>
<polygon fill="#191970" stroke="#191970" points="296.5939,-190.2105 286.1271,-191.8525 295.3334,-197.096 296.5939,-190.2105"/>
</g>
<!-- Node13 -->
<g id="node14" class="node">
<title>Node13</title>
<g id="a_node14"><a xlink:href="ShaderConfiguration_8hpp.html" target="_top" xlink:title="Engine/Renderer/RenderTechnique\l/ShaderConfiguration.hpp">
<polygon fill="#ffffff" stroke="#000000" points="575.5,-168.5 575.5,-198.5 757.5,-198.5 757.5,-168.5 575.5,-168.5"/>
<text text-anchor="start" x="583.5" y="-186.5" font-family="Helvetica,sans-Serif" font-size="10.00" fill="#000000">Engine/Renderer/RenderTechnique</text>
<text text-anchor="middle" x="666.5" y="-175.5" font-family="Helvetica,sans-Serif" font-size="10.00" fill="#000000">/ShaderConfiguration.hpp</text>
</a>
</g>
</g>
<!-- Node0&#45;&gt;Node13 -->
<g id="edge14" class="edge">
<title>Node0&#45;&gt;Node13</title>
<path fill="none" stroke="#191970" d="M620.1149,-235.2967C627.7863,-226.7303 637.5196,-215.8614 646.0872,-206.2943"/>
<polygon fill="#191970" stroke="#191970" points="648.8751,-208.4276 652.939,-198.6432 643.6604,-203.7578 648.8751,-208.4276"/>
</g>
<!-- Node14 -->
<g id="node15" class="node">
<title>Node14</title>
<polygon fill="#ffffff" stroke="#bfbfbf" points="552.5,-112.5 552.5,-131.5 594.5,-131.5 594.5,-112.5 552.5,-112.5"/>
<text text-anchor="middle" x="573.5" y="-119.5" font-family="Helvetica,sans-Serif" font-size="10.00" fill="#000000">array</text>
</g>
<!-- Node0&#45;&gt;Node14 -->
<g id="edge21" class="edge">
<title>Node0&#45;&gt;Node14</title>
<path fill="none" stroke="#191970" d="M590.4365,-235.4715C581.512,-225.9853 571.2716,-212.9224 566.5,-199 560.0644,-180.2227 563.3993,-157.4462 567.3645,-141.5559"/>
<polygon fill="#191970" stroke="#191970" points="570.7733,-142.3622 570.0979,-131.789 564.0323,-140.4756 570.7733,-142.3622"/>
</g>
<!-- Node17 -->
<g id="node18" class="node">
<title>Node17</title>
<polygon fill="#ffffff" stroke="#bfbfbf" points="778.5,-112.5 778.5,-131.5 822.5,-131.5 822.5,-112.5 778.5,-112.5"/>
<text text-anchor="middle" x="800.5" y="-119.5" font-family="Helvetica,sans-Serif" font-size="10.00" fill="#000000">string</text>
</g>
<!-- Node0&#45;&gt;Node17 -->
<g id="edge23" class="edge">
<title>Node0&#45;&gt;Node17</title>
<path fill="none" stroke="#191970" d="M697.7106,-235.4064C722.2672,-227.772 747.3107,-216.2836 766.5,-199 783.2455,-183.9176 792.1542,-159.0632 796.5912,-141.6839"/>
<polygon fill="#191970" stroke="#191970" points="800.0977,-142.0473 798.8986,-131.5206 793.2714,-140.4975 800.0977,-142.0473"/>
</g>
<!-- Node19 -->
<g id="node20" class="node">
<title>Node19</title>
<polygon fill="#ffffff" stroke="#bfbfbf" points="813.5,-174 813.5,-193 871.5,-193 871.5,-174 813.5,-174"/>
<text text-anchor="middle" x="842.5" y="-181" font-family="Helvetica,sans-Serif" font-size="10.00" fill="#000000">memory</text>
</g>
<!-- Node0&#45;&gt;Node19 -->
<g id="edge22" class="edge">
<title>Node0&#45;&gt;Node19</title>
<path fill="none" stroke="#191970" d="M668.1629,-235.4722C706.2444,-225.8395 755.9791,-212.6232 799.5,-199 802.108,-198.1836 804.7924,-197.3064 807.4856,-196.3995"/>
<polygon fill="#191970" stroke="#191970" points="808.8576,-199.6281 817.1556,-193.0407 806.5608,-193.0156 808.8576,-199.6281"/>
</g>
<!-- Node2 -->
<g id="node3" class="node">
<title>Node2</title>
<g id="a_node3"><a xlink:href="CoreMacros_8hpp.html" target="_top" xlink:title="Core/CoreMacros.hpp">
<polygon fill="#ffffff" stroke="#000000" points="350.5,-56.5 350.5,-75.5 470.5,-75.5 470.5,-56.5 350.5,-56.5"/>
<text text-anchor="middle" x="410.5" y="-63.5" font-family="Helvetica,sans-Serif" font-size="10.00" fill="#000000">Core/CoreMacros.hpp</text>
</a>
</g>
</g>
<!-- Node1&#45;&gt;Node2 -->
<g id="edge2" class="edge">
<title>Node1&#45;&gt;Node2</title>
<path fill="none" stroke="#191970" d="M463.3521,-112.2455C453.9913,-104.0549 440.4142,-92.1749 429.3651,-82.5069"/>
<polygon fill="#191970" stroke="#191970" points="431.3508,-79.5937 421.5202,-75.6427 426.7412,-84.8618 431.3508,-79.5937"/>
</g>
<!-- Node3 -->
<g id="node4" class="node">
<title>Node3</title>
<polygon fill="#ffffff" stroke="#bfbfbf" points="246.5,-.5 246.5,-19.5 298.5,-19.5 298.5,-.5 246.5,-.5"/>
<text text-anchor="middle" x="272.5" y="-7.5" font-family="Helvetica,sans-Serif" font-size="10.00" fill="#000000">cassert</text>
</g>
<!-- Node2&#45;&gt;Node3 -->
<g id="edge3" class="edge">
<title>Node2&#45;&gt;Node3</title>
<path fill="none" stroke="#191970" d="M386.777,-56.3733C364.3263,-47.2629 330.4261,-33.5062 305.3745,-23.3404"/>
<polygon fill="#191970" stroke="#191970" points="306.4957,-20.0182 295.9135,-19.5011 303.8635,-26.5045 306.4957,-20.0182"/>
</g>
<!-- Node4 -->
<g id="node5" class="node">
<title>Node4</title>
<polygon fill="#ffffff" stroke="#bfbfbf" points="316.5,-.5 316.5,-19.5 362.5,-19.5 362.5,-.5 316.5,-.5"/>
<text text-anchor="middle" x="339.5" y="-7.5" font-family="Helvetica,sans-Serif" font-size="10.00" fill="#000000">cstdio</text>
</g>
<!-- Node2&#45;&gt;Node4 -->
<g id="edge4" class="edge">
<title>Node2&#45;&gt;Node4</title>
<path fill="none" stroke="#191970" d="M398.1327,-56.2455C387.5446,-47.8943 372.0936,-35.7076 359.7107,-25.9408"/>
<polygon fill="#191970" stroke="#191970" points="361.7447,-23.0875 351.7255,-19.6427 357.4097,-28.5837 361.7447,-23.0875"/>
</g>
<!-- Node5 -->
<g id="node6" class="node">
<title>Node5</title>
<polygon fill="#ffffff" stroke="#bfbfbf" points="380.5,-.5 380.5,-19.5 440.5,-19.5 440.5,-.5 380.5,-.5"/>
<text text-anchor="middle" x="410.5" y="-7.5" font-family="Helvetica,sans-Serif" font-size="10.00" fill="#000000">iostream</text>
</g>
<!-- Node2&#45;&gt;Node5 -->
<g id="edge5" class="edge">
<title>Node2&#45;&gt;Node5</title>
<path fill="none" stroke="#191970" d="M410.5,-56.2455C410.5,-48.9382 410.5,-38.6944 410.5,-29.7046"/>
<polygon fill="#191970" stroke="#191970" points="414.0001,-29.6426 410.5,-19.6427 407.0001,-29.6427 414.0001,-29.6426"/>
</g>
<!-- Node6 -->
<g id="node7" class="node">
<title>Node6</title>
<polygon fill="#ffffff" stroke="#bfbfbf" points="458.5,-.5 458.5,-19.5 514.5,-19.5 514.5,-.5 458.5,-.5"/>
<text text-anchor="middle" x="486.5" y="-7.5" font-family="Helvetica,sans-Serif" font-size="10.00" fill="#000000">sstream</text>
</g>
<!-- Node2&#45;&gt;Node6 -->
<g id="edge6" class="edge">
<title>Node2&#45;&gt;Node6</title>
<path fill="none" stroke="#191970" d="M423.7382,-56.2455C435.181,-47.814 451.9296,-35.4729 465.2475,-25.6598"/>
<polygon fill="#191970" stroke="#191970" points="467.4391,-28.3924 473.4135,-19.6427 463.2867,-22.757 467.4391,-28.3924"/>
</g>
<!-- Node7 -->
<g id="node8" class="node">
<title>Node7</title>
<polygon fill="#ffffff" stroke="#bfbfbf" points="532.5,-.5 532.5,-19.5 580.5,-19.5 580.5,-.5 532.5,-.5"/>
<text text-anchor="middle" x="556.5" y="-7.5" font-family="Helvetica,sans-Serif" font-size="10.00" fill="#000000">thread</text>
</g>
<!-- Node2&#45;&gt;Node7 -->
<g id="edge7" class="edge">
<title>Node2&#45;&gt;Node7</title>
<path fill="none" stroke="#191970" d="M435.5983,-56.3733C459.6001,-47.1671 495.9713,-33.2165 522.5524,-23.021"/>
<polygon fill="#191970" stroke="#191970" points="524.131,-26.1642 532.2144,-19.315 521.6242,-19.6285 524.131,-26.1642"/>
</g>
<!-- Node9 -->
<g id="node10" class="node">
<title>Node9</title>
<g id="a_node10"><a xlink:href="RaCore_8hpp.html" target="_top" xlink:title="Core/RaCore.hpp">
<polygon fill="#ffffff" stroke="#000000" points="298.5,-112.5 298.5,-131.5 396.5,-131.5 396.5,-112.5 298.5,-112.5"/>
<text text-anchor="middle" x="347.5" y="-119.5" font-family="Helvetica,sans-Serif" font-size="10.00" fill="#000000">Core/RaCore.hpp</text>
</a>
</g>
</g>
<!-- Node8&#45;&gt;Node9 -->
<g id="edge9" class="edge">
<title>Node8&#45;&gt;Node9</title>
<path fill="none" stroke="#191970" d="M257.2188,-173.8906C274.5722,-163.9165 301.9323,-148.1908 321.9882,-136.6633"/>
<polygon fill="#191970" stroke="#191970" points="323.9728,-139.5596 330.8987,-131.5419 320.4846,-133.4907 323.9728,-139.5596"/>
</g>
<!-- Node10 -->
<g id="node11" class="node">
<title>Node10</title>
<polygon fill="#ffffff" stroke="#bfbfbf" points="0,-112.5 0,-131.5 69,-131.5 69,-112.5 0,-112.5"/>
<text text-anchor="middle" x="34.5" y="-119.5" font-family="Helvetica,sans-Serif" font-size="10.00" fill="#000000">Eigen/Core</text>
</g>
<!-- Node8&#45;&gt;Node10 -->
<g id="edge11" class="edge">
<title>Node8&#45;&gt;Node10</title>
<path fill="none" stroke="#191970" d="M208.3125,-173.8906C172.7867,-163.2846 115.4774,-146.1753 76.4559,-134.5257"/>
<polygon fill="#191970" stroke="#191970" points="77.0448,-131.0489 66.4615,-131.5419 75.0423,-137.7564 77.0448,-131.0489"/>
</g>
<!-- Node11 -->
<g id="node12" class="node">
<title>Node11</title>
<polygon fill="#ffffff" stroke="#bfbfbf" points="87,-112.5 87,-131.5 182,-131.5 182,-112.5 87,-112.5"/>
<text text-anchor="middle" x="134.5" y="-119.5" font-family="Helvetica,sans-Serif" font-size="10.00" fill="#000000">Eigen/Geometry</text>
</g>
<!-- Node8&#45;&gt;Node11 -->
<g id="edge12" class="edge">
<title>Node8&#45;&gt;Node11</title>
<path fill="none" stroke="#191970" d="M223.9375,-173.8906C206.7463,-163.9165 179.6418,-148.1908 159.7734,-136.6633"/>
<polygon fill="#191970" stroke="#191970" points="161.3523,-133.533 150.9462,-131.5419 157.8394,-139.5877 161.3523,-133.533"/>
</g>
<!-- Node12 -->
<g id="node13" class="node">
<title>Node12</title>
<polygon fill="#ffffff" stroke="#bfbfbf" points="200.5,-112.5 200.5,-131.5 280.5,-131.5 280.5,-112.5 200.5,-112.5"/>
<text text-anchor="middle" x="240.5" y="-119.5" font-family="Helvetica,sans-Serif" font-size="10.00" fill="#000000">Eigen/Sparse</text>
</g>
<!-- Node8&#45;&gt;Node12 -->
<g id="edge13" class="edge">
<title>Node8&#45;&gt;Node12</title>
<path fill="none" stroke="#191970" d="M240.5,-173.8906C240.5,-165.3657 240.5,-152.6392 240.5,-141.9235"/>
<polygon fill="#191970" stroke="#191970" points="244.0001,-141.7448 240.5,-131.7449 237.0001,-141.7449 244.0001,-141.7448"/>
</g>
<!-- Node9&#45;&gt;Node2 -->
<g id="edge10" class="edge">
<title>Node9&#45;&gt;Node2</title>
<path fill="none" stroke="#191970" d="M358.4738,-112.2455C367.6882,-104.0549 381.0532,-92.1749 391.9297,-82.5069"/>
<polygon fill="#191970" stroke="#191970" points="394.5032,-84.9023 399.652,-75.6427 389.8526,-79.6704 394.5032,-84.9023"/>
</g>
<!-- Node13&#45;&gt;Node1 -->
<g id="edge15" class="edge">
<title>Node13&#45;&gt;Node1</title>
<path fill="none" stroke="#191970" d="M619.5315,-168.4554C587.2148,-158.104 544.7649,-144.5067 514.1501,-134.7004"/>
<polygon fill="#191970" stroke="#191970" points="514.8443,-131.2477 504.2532,-131.5303 512.7089,-137.914 514.8443,-131.2477"/>
</g>
<!-- Node13&#45;&gt;Node14 -->
<g id="edge16" class="edge">
<title>Node13&#45;&gt;Node14</title>
<path fill="none" stroke="#191970" d="M643.5112,-168.2977C629.3034,-158.9022 611.1215,-146.8787 596.8475,-137.4395"/>
<polygon fill="#191970" stroke="#191970" points="598.3845,-134.2598 588.1128,-131.6633 594.5233,-140.0986 598.3845,-134.2598"/>
</g>
<!-- Node15 -->
<g id="node16" class="node">
<title>Node15</title>
<polygon fill="#ffffff" stroke="#bfbfbf" points="612.5,-112.5 612.5,-131.5 644.5,-131.5 644.5,-112.5 612.5,-112.5"/>
<text text-anchor="middle" x="628.5" y="-119.5" font-family="Helvetica,sans-Serif" font-size="10.00" fill="#000000">list</text>
</g>
<!-- Node13&#45;&gt;Node15 -->
<g id="edge17" class="edge">
<title>Node13&#45;&gt;Node15</title>
<path fill="none" stroke="#191970" d="M657.1067,-168.2977C651.8869,-159.8498 645.3543,-149.2773 639.85,-140.369"/>
<polygon fill="#191970" stroke="#191970" points="642.8182,-138.5143 634.5843,-131.8469 636.8632,-142.1938 642.8182,-138.5143"/>
</g>
<!-- Node16 -->
<g id="node17" class="node">
<title>Node16</title>
<polygon fill="#ffffff" stroke="#bfbfbf" points="662.5,-112.5 662.5,-131.5 694.5,-131.5 694.5,-112.5 662.5,-112.5"/>
<text text-anchor="middle" x="678.5" y="-119.5" font-family="Helvetica,sans-Serif" font-size="10.00" fill="#000000">set</text>
</g>
<!-- Node13&#45;&gt;Node16 -->
<g id="edge18" class="edge">
<title>Node13&#45;&gt;Node16</title>
<path fill="none" stroke="#191970" d="M669.4663,-168.2977C671.0279,-160.2945 672.9616,-150.3843 674.6388,-141.7889"/>
<polygon fill="#191970" stroke="#191970" points="678.0987,-142.3322 676.5786,-131.8469 671.2282,-140.9915 678.0987,-142.3322"/>
</g>
<!-- Node13&#45;&gt;Node17 -->
<g id="edge19" class="edge">
<title>Node13&#45;&gt;Node17</title>
<path fill="none" stroke="#191970" d="M699.2801,-168.4554C721.05,-158.464 749.4086,-145.4487 770.5686,-135.7372"/>
<polygon fill="#191970" stroke="#191970" points="772.1062,-138.8826 779.7348,-131.5303 769.1863,-132.5206 772.1062,-138.8826"/>
</g>
<!-- Node18 -->
<g id="node19" class="node">
<title>Node18</title>
<polygon fill="#ffffff" stroke="#bfbfbf" points="713,-112.5 713,-131.5 760,-131.5 760,-112.5 713,-112.5"/>
<text text-anchor="middle" x="736.5" y="-119.5" font-family="Helvetica,sans-Serif" font-size="10.00" fill="#000000">vector</text>
</g>
<!-- Node13&#45;&gt;Node18 -->
<g id="edge20" class="edge">
<title>Node13&#45;&gt;Node18</title>
<path fill="none" stroke="#191970" d="M683.8034,-168.2977C694.0262,-159.3163 706.9823,-147.9334 717.4896,-138.702"/>
<polygon fill="#191970" stroke="#191970" points="720.0897,-141.0766 725.2921,-131.8469 715.4695,-135.8178 720.0897,-141.0766"/>
</g>
</g>
</svg>
