<?xml version="1.0" encoding="UTF-8" standalone="no"?>
<!DOCTYPE svg PUBLIC "-//W3C//DTD SVG 1.1//EN"
 "http://www.w3.org/Graphics/SVG/1.1/DTD/svg11.dtd">
<!-- Generated by graphviz version 2.40.1 (20161225.0304)
 -->
<!-- Title: src/Engine/Renderer/RenderTechnique/ShaderConfigFactory.hpp Pages: 1 -->
<svg width="528pt" height="285pt"
 viewBox="0.00 0.00 527.50 285.00" xmlns="http://www.w3.org/2000/svg" xmlns:xlink="http://www.w3.org/1999/xlink">
<g id="graph0" class="graph" transform="scale(1 1) rotate(0) translate(4 281)">
<title>src/Engine/Renderer/RenderTechnique/ShaderConfigFactory.hpp</title>
<polygon fill="#ffffff" stroke="transparent" points="-4,4 -4,-281 523.5,-281 523.5,4 -4,4"/>
<!-- Node0 -->
<g id="node1" class="node">
<title>Node0</title>
<polygon fill="#bfbfbf" stroke="#000000" points="89,-235.5 89,-276.5 259,-276.5 259,-235.5 89,-235.5"/>
<text text-anchor="start" x="97" y="-264.5" font-family="Helvetica,sans-Serif" font-size="10.00" fill="#000000">src/Engine/Renderer</text>
<text text-anchor="start" x="97" y="-253.5" font-family="Helvetica,sans-Serif" font-size="10.00" fill="#000000">/RenderTechnique/ShaderConfig</text>
<text text-anchor="middle" x="174" y="-242.5" font-family="Helvetica,sans-Serif" font-size="10.00" fill="#000000">Factory.hpp</text>
</g>
<!-- Node1 -->
<g id="node2" class="node">
<title>Node1</title>
<g id="a_node2"><a xlink:href="StdOptional_8hpp.html" target="_top" xlink:title="Core/Utils/StdOptional.hpp">
<polygon fill="#ffffff" stroke="#000000" points="0,-174 0,-193 146,-193 146,-174 0,-174"/>
<text text-anchor="middle" x="73" y="-181" font-family="Helvetica,sans-Serif" font-size="10.00" fill="#000000">Core/Utils/StdOptional.hpp</text>
</a>
</g>
</g>
<!-- Node0&#45;&gt;Node1 -->
<g id="edge1" class="edge">
<title>Node0&#45;&gt;Node1</title>
<path fill="none" stroke="#191970" d="M145.3276,-235.4183C129.2932,-223.9085 109.6232,-209.789 94.8459,-199.1815"/>
<polygon fill="#191970" stroke="#191970" points="96.5181,-196.0735 86.3534,-193.0853 92.4361,-201.7601 96.5181,-196.0735"/>
</g>
<!-- Node2 -->
<g id="node3" class="node">
<title>Node2</title>
<polygon fill="#ffffff" stroke="#bfbfbf" points="112,-112.5 112,-131.5 156,-131.5 156,-112.5 112,-112.5"/>
<text text-anchor="middle" x="134" y="-119.5" font-family="Helvetica,sans-Serif" font-size="10.00" fill="#000000">string</text>
</g>
<!-- Node0&#45;&gt;Node2 -->
<g id="edge2" class="edge">
<title>Node0&#45;&gt;Node2</title>
<path fill="none" stroke="#191970" d="M170.8458,-235.3938C167.7786,-217.3436 162.4835,-190.5479 155,-168 151.9331,-158.7592 147.5821,-148.8916 143.6352,-140.6747"/>
<polygon fill="#191970" stroke="#191970" points="146.7211,-139.0195 139.1349,-131.6235 140.4531,-142.136 146.7211,-139.0195"/>
</g>
<!-- Node3 -->
<g id="node4" class="node">
<title>Node3</title>
<g id="a_node4"><a xlink:href="ShaderConfiguration_8hpp.html" target="_top" xlink:title="Engine/Renderer/RenderTechnique\l/ShaderConfiguration.hpp">
<polygon fill="#ffffff" stroke="#000000" points="242,-168.5 242,-198.5 424,-198.5 424,-168.5 242,-168.5"/>
<text text-anchor="start" x="250" y="-186.5" font-family="Helvetica,sans-Serif" font-size="10.00" fill="#000000">Engine/Renderer/RenderTechnique</text>
<text text-anchor="middle" x="333" y="-175.5" font-family="Helvetica,sans-Serif" font-size="10.00" fill="#000000">/ShaderConfiguration.hpp</text>
</a>
</g>
</g>
<!-- Node0&#45;&gt;Node3 -->
<g id="edge3" class="edge">
<title>Node0&#45;&gt;Node3</title>
<path fill="none" stroke="#191970" d="M219.1377,-235.4183C241.6315,-225.1617 268.6699,-212.8329 290.753,-202.7636"/>
<polygon fill="#191970" stroke="#191970" points="292.2394,-205.9325 299.8861,-198.5991 289.3352,-199.5634 292.2394,-205.9325"/>
</g>
<!-- Node3&#45;&gt;Node2 -->
<g id="edge14" class="edge">
<title>Node3&#45;&gt;Node2</title>
<path fill="none" stroke="#191970" d="M283.3214,-168.4788C252.0708,-158.982 210.6643,-146.3129 165.6588,-132.179"/>
<polygon fill="#191970" stroke="#191970" points="166.5923,-128.8036 156.0028,-129.1414 164.4916,-135.481 166.5923,-128.8036"/>
</g>
<!-- Node4 -->
<g id="node5" class="node">
<title>Node4</title>
<g id="a_node5"><a xlink:href="RaEngine_8hpp.html" target="_top" xlink:title="Engine/RaEngine.hpp">
<polygon fill="#ffffff" stroke="#000000" points="174.5,-112.5 174.5,-131.5 293.5,-131.5 293.5,-112.5 174.5,-112.5"/>
<text text-anchor="middle" x="234" y="-119.5" font-family="Helvetica,sans-Serif" font-size="10.00" fill="#000000">Engine/RaEngine.hpp</text>
</a>
</g>
</g>
<!-- Node3&#45;&gt;Node4 -->
<g id="edge4" class="edge">
<title>Node3&#45;&gt;Node4</title>
<path fill="none" stroke="#191970" d="M308.7819,-168.4554C293.4227,-158.9141 273.6243,-146.6151 258.2575,-137.0691"/>
<polygon fill="#191970" stroke="#191970" points="259.6828,-133.8341 249.3415,-131.5303 255.989,-139.7802 259.6828,-133.8341"/>
</g>
<!-- Node11 -->
<g id="node12" class="node">
<title>Node11</title>
<polygon fill="#ffffff" stroke="#bfbfbf" points="312,-112.5 312,-131.5 354,-131.5 354,-112.5 312,-112.5"/>
<text text-anchor="middle" x="333" y="-119.5" font-family="Helvetica,sans-Serif" font-size="10.00" fill="#000000">array</text>
</g>
<!-- Node3&#45;&gt;Node11 -->
<g id="edge11" class="edge">
<title>Node3&#45;&gt;Node11</title>
<path fill="none" stroke="#191970" d="M333,-168.2977C333,-160.3834 333,-150.6043 333,-142.0759"/>
<polygon fill="#191970" stroke="#191970" points="336.5001,-141.8469 333,-131.8469 329.5001,-141.847 336.5001,-141.8469"/>
</g>
<!-- Node12 -->
<g id="node13" class="node">
<title>Node12</title>
<polygon fill="#ffffff" stroke="#bfbfbf" points="372,-112.5 372,-131.5 404,-131.5 404,-112.5 372,-112.5"/>
<text text-anchor="middle" x="388" y="-119.5" font-family="Helvetica,sans-Serif" font-size="10.00" fill="#000000">list</text>
</g>
<!-- Node3&#45;&gt;Node12 -->
<g id="edge12" class="edge">
<title>Node3&#45;&gt;Node12</title>
<path fill="none" stroke="#191970" d="M346.5955,-168.2977C354.3891,-159.5831 364.2047,-148.6075 372.3226,-139.5302"/>
<polygon fill="#191970" stroke="#191970" points="375.1365,-141.6341 379.1938,-131.8469 369.9187,-136.9678 375.1365,-141.6341"/>
</g>
<!-- Node13 -->
<g id="node14" class="node">
<title>Node13</title>
<polygon fill="#ffffff" stroke="#bfbfbf" points="422,-112.5 422,-131.5 454,-131.5 454,-112.5 422,-112.5"/>
<text text-anchor="middle" x="438" y="-119.5" font-family="Helvetica,sans-Serif" font-size="10.00" fill="#000000">set</text>
</g>
<!-- Node3&#45;&gt;Node13 -->
<g id="edge13" class="edge">
<title>Node3&#45;&gt;Node13</title>
<path fill="none" stroke="#191970" d="M358.6859,-168.4554C375.1297,-158.8241 396.3708,-146.3828 412.7323,-136.7996"/>
<polygon fill="#191970" stroke="#191970" points="414.8688,-139.6045 421.7287,-131.5303 411.331,-133.5643 414.8688,-139.6045"/>
</g>
<!-- Node14 -->
<g id="node15" class="node">
<title>Node14</title>
<polygon fill="#ffffff" stroke="#bfbfbf" points="472.5,-112.5 472.5,-131.5 519.5,-131.5 519.5,-112.5 472.5,-112.5"/>
<text text-anchor="middle" x="496" y="-119.5" font-family="Helvetica,sans-Serif" font-size="10.00" fill="#000000">vector</text>
</g>
<!-- Node3&#45;&gt;Node14 -->
<g id="edge15" class="edge">
<title>Node3&#45;&gt;Node14</title>
<path fill="none" stroke="#191970" d="M372.8743,-168.4554C400.4534,-158.0498 436.7255,-144.3643 462.7459,-134.5468"/>
<polygon fill="#191970" stroke="#191970" points="464.0564,-137.7932 472.1771,-130.9884 461.5853,-131.2439 464.0564,-137.7932"/>
</g>
<!-- Node5 -->
<g id="node6" class="node">
<title>Node5</title>
<g id="a_node6"><a xlink:href="CoreMacros_8hpp.html" target="_top" xlink:title="Core/CoreMacros.hpp">
<polygon fill="#ffffff" stroke="#000000" points="174,-56.5 174,-75.5 294,-75.5 294,-56.5 174,-56.5"/>
<text text-anchor="middle" x="234" y="-63.5" font-family="Helvetica,sans-Serif" font-size="10.00" fill="#000000">Core/CoreMacros.hpp</text>
</a>
</g>
</g>
<!-- Node4&#45;&gt;Node5 -->
<g id="edge5" class="edge">
<title>Node4&#45;&gt;Node5</title>
<path fill="none" stroke="#191970" d="M234,-112.2455C234,-104.9382 234,-94.6944 234,-85.7046"/>
<polygon fill="#191970" stroke="#191970" points="237.5001,-85.6426 234,-75.6427 230.5001,-85.6427 237.5001,-85.6426"/>
</g>
<!-- Node6 -->
<g id="node7" class="node">
<title>Node6</title>
<polygon fill="#ffffff" stroke="#bfbfbf" points="70,-.5 70,-19.5 122,-19.5 122,-.5 70,-.5"/>
<text text-anchor="middle" x="96" y="-7.5" font-family="Helvetica,sans-Serif" font-size="10.00" fill="#000000">cassert</text>
</g>
<!-- Node5&#45;&gt;Node6 -->
<g id="edge6" class="edge">
<title>Node5&#45;&gt;Node6</title>
<path fill="none" stroke="#191970" d="M210.277,-56.3733C187.8263,-47.2629 153.9261,-33.5062 128.8745,-23.3404"/>
<polygon fill="#191970" stroke="#191970" points="129.9957,-20.0182 119.4135,-19.5011 127.3635,-26.5045 129.9957,-20.0182"/>
</g>
<!-- Node7 -->
<g id="node8" class="node">
<title>Node7</title>
<polygon fill="#ffffff" stroke="#bfbfbf" points="140,-.5 140,-19.5 186,-19.5 186,-.5 140,-.5"/>
<text text-anchor="middle" x="163" y="-7.5" font-family="Helvetica,sans-Serif" font-size="10.00" fill="#000000">cstdio</text>
</g>
<!-- Node5&#45;&gt;Node7 -->
<g id="edge7" class="edge">
<title>Node5&#45;&gt;Node7</title>
<path fill="none" stroke="#191970" d="M221.6327,-56.2455C211.0446,-47.8943 195.5936,-35.7076 183.2107,-25.9408"/>
<polygon fill="#191970" stroke="#191970" points="185.2447,-23.0875 175.2255,-19.6427 180.9097,-28.5837 185.2447,-23.0875"/>
</g>
<!-- Node8 -->
<g id="node9" class="node">
<title>Node8</title>
<polygon fill="#ffffff" stroke="#bfbfbf" points="204,-.5 204,-19.5 264,-19.5 264,-.5 204,-.5"/>
<text text-anchor="middle" x="234" y="-7.5" font-family="Helvetica,sans-Serif" font-size="10.00" fill="#000000">iostream</text>
</g>
<!-- Node5&#45;&gt;Node8 -->
<g id="edge8" class="edge">
<title>Node5&#45;&gt;Node8</title>
<path fill="none" stroke="#191970" d="M234,-56.2455C234,-48.9382 234,-38.6944 234,-29.7046"/>
<polygon fill="#191970" stroke="#191970" points="237.5001,-29.6426 234,-19.6427 230.5001,-29.6427 237.5001,-29.6426"/>
</g>
<!-- Node9 -->
<g id="node10" class="node">
<title>Node9</title>
<polygon fill="#ffffff" stroke="#bfbfbf" points="282,-.5 282,-19.5 338,-19.5 338,-.5 282,-.5"/>
<text text-anchor="middle" x="310" y="-7.5" font-family="Helvetica,sans-Serif" font-size="10.00" fill="#000000">sstream</text>
</g>
<!-- Node5&#45;&gt;Node9 -->
<g id="edge9" class="edge">
<title>Node5&#45;&gt;Node9</title>
<path fill="none" stroke="#191970" d="M247.2382,-56.2455C258.681,-47.814 275.4296,-35.4729 288.7475,-25.6598"/>
<polygon fill="#191970" stroke="#191970" points="290.9391,-28.3924 296.9135,-19.6427 286.7867,-22.757 290.9391,-28.3924"/>
</g>
<!-- Node10 -->
<g id="node11" class="node">
<title>Node10</title>
<polygon fill="#ffffff" stroke="#bfbfbf" points="356,-.5 356,-19.5 404,-19.5 404,-.5 356,-.5"/>
<text text-anchor="middle" x="380" y="-7.5" font-family="Helvetica,sans-Serif" font-size="10.00" fill="#000000">thread</text>
</g>
<!-- Node5&#45;&gt;Node10 -->
<g id="edge10" class="edge">
<title>Node5&#45;&gt;Node10</title>
<path fill="none" stroke="#191970" d="M259.0983,-56.3733C283.1001,-47.1671 319.4713,-33.2165 346.0524,-23.021"/>
<polygon fill="#191970" stroke="#191970" points="347.631,-26.1642 355.7144,-19.315 345.1242,-19.6285 347.631,-26.1642"/>
</g>
</g>
</svg>
