<?xml version="1.0" encoding="UTF-8" standalone="no"?>
<!DOCTYPE svg PUBLIC "-//W3C//DTD SVG 1.1//EN"
 "http://www.w3.org/Graphics/SVG/1.1/DTD/svg11.dtd">
<!-- Generated by graphviz version 2.40.1 (20161225.0304)
 -->
<!-- Title: src/Engine/Managers/SignalManager/SignalManager.hpp Pages: 1 -->
<svg width="1058pt" height="117pt"
 viewBox="0.00 0.00 1057.50 117.00" xmlns="http://www.w3.org/2000/svg" xmlns:xlink="http://www.w3.org/1999/xlink">
<g id="graph0" class="graph" transform="scale(1 1) rotate(0) translate(4 113)">
<title>src/Engine/Managers/SignalManager/SignalManager.hpp</title>
<polygon fill="#ffffff" stroke="transparent" points="-4,4 -4,-113 1053.5,-113 1053.5,4 -4,4"/>
<!-- Node18 -->
<g id="node1" class="node">
<title>Node18</title>
<polygon fill="#bfbfbf" stroke="#000000" points="410.5,-78.5 410.5,-108.5 597.5,-108.5 597.5,-78.5 410.5,-78.5"/>
<text text-anchor="start" x="418.5" y="-96.5" font-family="Helvetica,sans-Serif" font-size="10.00" fill="#000000">src/Engine/Managers</text>
<text text-anchor="middle" x="504" y="-85.5" font-family="Helvetica,sans-Serif" font-size="10.00" fill="#000000">/SignalManager/SignalManager.hpp</text>
</g>
<!-- Node19 -->
<g id="node2" class="node">
<title>Node19</title>
<g id="a_node2"><a xlink:href="Component_8cpp.html" target="_top" xlink:title="src/Engine/Component\l/Component.cpp">
<polygon fill="#ffffff" stroke="#000000" points="0,-6 0,-36 126,-36 126,-6 0,-6"/>
<text text-anchor="start" x="8" y="-24" font-family="Helvetica,sans-Serif" font-size="10.00" fill="#000000">src/Engine/Component</text>
<text text-anchor="middle" x="63" y="-13" font-family="Helvetica,sans-Serif" font-size="10.00" fill="#000000">/Component.cpp</text>
</a>
</g>
</g>
<!-- Node18&#45;&gt;Node19 -->
<g id="edge1" class="edge">
<title>Node18&#45;&gt;Node19</title>
<path fill="none" stroke="#191970" d="M400.1605,-83.0841C325.8306,-74.6395 223.6438,-61.008 135,-42 127.2338,-40.3347 119.0807,-38.2707 111.166,-36.0925"/>
<polygon fill="#191970" stroke="#191970" points="400.1313,-86.6028 410.4596,-84.2413 400.9129,-79.6466 400.1313,-86.6028"/>
</g>
<!-- Node20 -->
<g id="node3" class="node">
<title>Node20</title>
<g id="a_node3"><a xlink:href="Entity_8cpp.html" target="_top" xlink:title="src/Engine/Entity/Entity.cpp">
<polygon fill="#ffffff" stroke="#000000" points="144.5,-11.5 144.5,-30.5 293.5,-30.5 293.5,-11.5 144.5,-11.5"/>
<text text-anchor="middle" x="219" y="-18.5" font-family="Helvetica,sans-Serif" font-size="10.00" fill="#000000">src/Engine/Entity/Entity.cpp</text>
</a>
</g>
</g>
<!-- Node18&#45;&gt;Node20 -->
<g id="edge2" class="edge">
<title>Node18&#45;&gt;Node20</title>
<path fill="none" stroke="#191970" d="M435.0849,-75.969C379.0075,-61.7037 301.9777,-42.1084 256.6459,-30.5766"/>
<polygon fill="#191970" stroke="#191970" points="434.3936,-79.4045 444.9478,-78.478 436.1194,-72.6206 434.3936,-79.4045"/>
</g>
<!-- Node21 -->
<g id="node4" class="node">
<title>Node21</title>
<g id="a_node4"><a xlink:href="EntityManager_8cpp.html" target="_top" xlink:title="src/Engine/Managers\l/EntityManager/EntityManager.cpp">
<polygon fill="#ffffff" stroke="#000000" points="311.5,-6 311.5,-36 494.5,-36 494.5,-6 311.5,-6"/>
<text text-anchor="start" x="319.5" y="-24" font-family="Helvetica,sans-Serif" font-size="10.00" fill="#000000">src/Engine/Managers</text>
<text text-anchor="middle" x="403" y="-13" font-family="Helvetica,sans-Serif" font-size="10.00" fill="#000000">/EntityManager/EntityManager.cpp</text>
</a>
</g>
</g>
<!-- Node18&#45;&gt;Node21 -->
<g id="edge3" class="edge">
<title>Node18&#45;&gt;Node21</title>
<path fill="none" stroke="#191970" d="M474.9262,-72.6302C458.6201,-60.9253 438.6552,-46.5941 423.9005,-36.0028"/>
<polygon fill="#191970" stroke="#191970" points="472.908,-75.4898 483.0727,-78.478 476.99,-69.8032 472.908,-75.4898"/>
</g>
<!-- Node22 -->
<g id="node5" class="node">
<title>Node22</title>
<g id="a_node5"><a xlink:href="SignalManager_8cpp.html" target="_top" xlink:title="src/Engine/Managers\l/SignalManager/SignalManager.cpp">
<polygon fill="#ffffff" stroke="#000000" points="513,-6 513,-36 699,-36 699,-6 513,-6"/>
<text text-anchor="start" x="521" y="-24" font-family="Helvetica,sans-Serif" font-size="10.00" fill="#000000">src/Engine/Managers</text>
<text text-anchor="middle" x="606" y="-13" font-family="Helvetica,sans-Serif" font-size="10.00" fill="#000000">/SignalManager/SignalManager.cpp</text>
</a>
</g>
</g>
<!-- Node18&#45;&gt;Node22 -->
<g id="edge4" class="edge">
<title>Node18&#45;&gt;Node22</title>
<path fill="none" stroke="#191970" d="M533.3617,-72.6302C549.8292,-60.9253 569.9918,-46.5941 584.8926,-36.0028"/>
<polygon fill="#191970" stroke="#191970" points="531.2576,-69.8317 525.1345,-78.478 535.313,-75.5372 531.2576,-69.8317"/>
</g>
<!-- Node23 -->
<g id="node6" class="node">
<title>Node23</title>
<g id="a_node6"><a xlink:href="RadiumEngine_8cpp.html" target="_top" xlink:title="src/Engine/RadiumEngine.cpp">
<polygon fill="#ffffff" stroke="#000000" points="717.5,-11.5 717.5,-30.5 878.5,-30.5 878.5,-11.5 717.5,-11.5"/>
<text text-anchor="middle" x="798" y="-18.5" font-family="Helvetica,sans-Serif" font-size="10.00" fill="#000000">src/Engine/RadiumEngine.cpp</text>
</a>
</g>
</g>
<!-- Node18&#45;&gt;Node23 -->
<g id="edge5" class="edge">
<title>Node18&#45;&gt;Node23</title>
<path fill="none" stroke="#191970" d="M574.7323,-76.0575C632.6104,-61.7848 712.3051,-42.1322 759.1653,-30.5766"/>
<polygon fill="#191970" stroke="#191970" points="573.7881,-72.6854 564.917,-78.478 575.4642,-79.4818 573.7881,-72.6854"/>
</g>
<!-- Node24 -->
<g id="node7" class="node">
<title>Node24</title>
<g id="a_node7"><a xlink:href="RenderObjectManager_8cpp.html" target="_top" xlink:title="src/Engine/Renderer\l/RenderObject/RenderObject\lManager.cpp">
<polygon fill="#ffffff" stroke="#000000" points="896.5,-.5 896.5,-41.5 1049.5,-41.5 1049.5,-.5 896.5,-.5"/>
<text text-anchor="start" x="904.5" y="-29.5" font-family="Helvetica,sans-Serif" font-size="10.00" fill="#000000">src/Engine/Renderer</text>
<text text-anchor="start" x="904.5" y="-18.5" font-family="Helvetica,sans-Serif" font-size="10.00" fill="#000000">/RenderObject/RenderObject</text>
<text text-anchor="middle" x="973" y="-7.5" font-family="Helvetica,sans-Serif" font-size="10.00" fill="#000000">Manager.cpp</text>
</a>
</g>
</g>
<!-- Node18&#45;&gt;Node24 -->
<g id="edge6" class="edge">
<title>Node18&#45;&gt;Node24</title>
<path fill="none" stroke="#191970" d="M607.8253,-82.6757C685.3709,-73.8412 793.7696,-59.904 888,-42 890.688,-41.4893 893.4183,-40.9465 896.1715,-40.3788"/>
<polygon fill="#191970" stroke="#191970" points="607.1147,-79.2337 597.5711,-83.8347 607.9009,-86.1894 607.1147,-79.2337"/>
</g>
</g>
</svg>
