<?xml version="1.0" encoding="UTF-8" standalone="no"?>
<!DOCTYPE svg PUBLIC "-//W3C//DTD SVG 1.1//EN"
 "http://www.w3.org/Graphics/SVG/1.1/DTD/svg11.dtd">
<!-- Generated by graphviz version 2.40.1 (20161225.0304)
 -->
<!-- Title: src/Engine/Renderer/Light/SpotLight.hpp Pages: 1 -->
<!--zoomable 397 -->
<svg id="main" version="1.1" xmlns="http://www.w3.org/2000/svg" xmlns:xlink="http://www.w3.org/1999/xlink" xml:space="preserve" onload="init(evt)">
<style type="text/css"><![CDATA[
.edge:hover path { stroke: red; }
.edge:hover polygon { stroke: red; fill: red; }
]]></style>
<script type="text/javascript"><![CDATA[
var edges = document.getElementsByTagName('g');
if (edges && edges.length) {
  for (var i=0;i<edges.length;i++) {
    if (edges[i].id.substr(0,4)=='edge') {
      edges[i].setAttribute('class','edge');
    }
  }
}
]]></script>
        <defs>
                <circle id="rim" cx="0" cy="0" r="7"/>
                <circle id="rim2" cx="0" cy="0" r="3.5"/>
                <g id="zoomPlus">
                        <use xlink:href="#rim" fill="#404040">
                                <set attributeName="fill" to="#808080" begin="zoomplus.mouseover" end="zoomplus.mouseout"/>
                        </use>
                        <path d="M-4,0h8M0,-4v8" fill="none" stroke="white" stroke-width="1.5" pointer-events="none"/>
                </g>
                <g id="zoomMin">
                        <use xlink:href="#rim" fill="#404040">
                                <set attributeName="fill" to="#808080" begin="zoomminus.mouseover" end="zoomminus.mouseout"/>
                        </use>
                        <path d="M-4,0h8" fill="none" stroke="white" stroke-width="1.5" pointer-events="none"/>
                </g>
                <g id="dirArrow">
                        <path fill="none" stroke="white" stroke-width="1.5" d="M0,-3.0v7 M-2.5,-0.5L0,-3.0L2.5,-0.5"/>
                </g>
               <g id="resetDef">
                       <use xlink:href="#rim2" fill="#404040">
                               <set attributeName="fill" to="#808080" begin="reset.mouseover" end="reset.mouseout"/>
                       </use>
               </g>
        </defs>

<script type="text/javascript">
var viewWidth = 1138;
var viewHeight = 397;
var sectionId = 'dynsection-0';
</script>
<script xlink:href="svgpan.js"/>
<svg id="graph" class="graph">
<g id="viewport">
<title>src/Engine/Renderer/Light/SpotLight.hpp</title>
<polygon fill="#ffffff" stroke="transparent" points="-4,4 -4,-393 1134,-393 1134,4 -4,4"/>
<!-- Node0 -->
<g id="node1" class="node">
<title>Node0</title>
<polygon fill="#bfbfbf" stroke="#000000" points="691,-358.5 691,-388.5 804,-388.5 804,-358.5 691,-358.5"/>
<text text-anchor="start" x="699" y="-376.5" font-family="Helvetica,sans-Serif" font-size="10.00" fill="#000000">src/Engine/Renderer</text>
<text text-anchor="middle" x="747.5" y="-365.5" font-family="Helvetica,sans-Serif" font-size="10.00" fill="#000000">/Light/SpotLight.hpp</text>
</g>
<!-- Node1 -->
<g id="node2" class="node">
<title>Node1</title>
<g id="a_node2"><a xlink:href="RaEngine_8hpp.html" target="_top" xlink:title="Engine/RaEngine.hpp">
<polygon fill="#ffffff" stroke="#000000" points="0,-168.5 0,-187.5 119,-187.5 119,-168.5 0,-168.5"/>
<text text-anchor="middle" x="59.5" y="-175.5" font-family="Helvetica,sans-Serif" font-size="10.00" fill="#000000">Engine/RaEngine.hpp</text>
</a>
</g>
</g>
<!-- Node0&#45;&gt;Node1 -->
<g id="edge1" class="edge">
<title>Node0&#45;&gt;Node1</title>
<path fill="none" stroke="#191970" d="M690.7686,-364.2165C594.6835,-347.6684 394.4753,-309.6108 231.5,-255 178.7016,-237.3079 120.082,-209.1057 86.7191,-192.1885"/>
<polygon fill="#191970" stroke="#191970" points="88.1044,-188.9659 77.6073,-187.5296 84.9176,-195.1984 88.1044,-188.9659"/>
</g>
<!-- Node8 -->
<g id="node9" class="node">
<title>Node8</title>
<g id="a_node9"><a xlink:href="Math_8hpp.html" target="_top" xlink:title="Core/Math/Math.hpp">
<polygon fill="#ffffff" stroke="#000000" points="909.5,-168.5 909.5,-187.5 1023.5,-187.5 1023.5,-168.5 909.5,-168.5"/>
<text text-anchor="middle" x="966.5" y="-175.5" font-family="Helvetica,sans-Serif" font-size="10.00" fill="#000000">Core/Math/Math.hpp</text>
</a>
</g>
</g>
<!-- Node0&#45;&gt;Node8 -->
<g id="edge8" class="edge">
<title>Node0&#45;&gt;Node8</title>
<path fill="none" stroke="#191970" d="M764.3209,-358.4841C804.5099,-322.6076 905.8801,-232.115 947.8542,-194.645"/>
<polygon fill="#191970" stroke="#191970" points="950.2922,-197.1603 955.4214,-187.8898 945.6305,-191.9383 950.2922,-197.1603"/>
</g>
<!-- Node13 -->
<g id="node14" class="node">
<title>Node13</title>
<g id="a_node14"><a xlink:href="Light_8hpp.html" target="_top" xlink:title="Engine/Renderer/Light\l/Light.hpp">
<polygon fill="#ffffff" stroke="#000000" points="576,-291.5 576,-321.5 699,-321.5 699,-291.5 576,-291.5"/>
<text text-anchor="start" x="584" y="-309.5" font-family="Helvetica,sans-Serif" font-size="10.00" fill="#000000">Engine/Renderer/Light</text>
<text text-anchor="middle" x="637.5" y="-298.5" font-family="Helvetica,sans-Serif" font-size="10.00" fill="#000000">/Light.hpp</text>
</a>
</g>
</g>
<!-- Node0&#45;&gt;Node13 -->
<g id="edge15" class="edge">
<title>Node0&#45;&gt;Node13</title>
<path fill="none" stroke="#191970" d="M722.8139,-358.4639C707.6353,-349.2188 687.9772,-337.2452 671.3573,-327.1222"/>
<polygon fill="#191970" stroke="#191970" points="672.8455,-323.9305 662.4843,-321.7177 669.2041,-329.9089 672.8455,-323.9305"/>
</g>
<!-- Node27 -->
<g id="node28" class="node">
<title>Node27</title>
<g id="a_node28"><a xlink:href="SpotLight_8inl.html" target="_top" xlink:title="Engine/Renderer/Light\l/SpotLight.inl">
<polygon fill="#ffffff" stroke="#000000" points="887,-291.5 887,-321.5 1010,-321.5 1010,-291.5 887,-291.5"/>
<text text-anchor="start" x="895" y="-309.5" font-family="Helvetica,sans-Serif" font-size="10.00" fill="#000000">Engine/Renderer/Light</text>
<text text-anchor="middle" x="948.5" y="-298.5" font-family="Helvetica,sans-Serif" font-size="10.00" fill="#000000">/SpotLight.inl</text>
</a>
</g>
</g>
<!-- Node0&#45;&gt;Node27 -->
<g id="edge41" class="edge">
<title>Node0&#45;&gt;Node27</title>
<path fill="none" stroke="#191970" d="M792.6083,-358.4639C822.5031,-348.499 861.9073,-335.3642 893.6193,-324.7936"/>
<polygon fill="#191970" stroke="#191970" points="894.8149,-328.0844 903.1949,-321.6017 892.6013,-321.4436 894.8149,-328.0844"/>
</g>
<!-- Node2 -->
<g id="node3" class="node">
<title>Node2</title>
<g id="a_node3"><a xlink:href="CoreMacros_8hpp.html" target="_top" xlink:title="Core/CoreMacros.hpp">
<polygon fill="#ffffff" stroke="#000000" points="558.5,-56.5 558.5,-75.5 678.5,-75.5 678.5,-56.5 558.5,-56.5"/>
<text text-anchor="middle" x="618.5" y="-63.5" font-family="Helvetica,sans-Serif" font-size="10.00" fill="#000000">Core/CoreMacros.hpp</text>
</a>
</g>
</g>
<!-- Node1&#45;&gt;Node2 -->
<g id="edge2" class="edge">
<title>Node1&#45;&gt;Node2</title>
<path fill="none" stroke="#191970" d="M59.1417,-168.0971C59.2027,-153.3226 61.7319,-125.7757 78.5,-112 114.0076,-82.8291 409.7992,-71.3917 547.9357,-67.61"/>
<polygon fill="#191970" stroke="#191970" points="548.1009,-71.1069 558.0036,-67.3403 547.9134,-64.1095 548.1009,-71.1069"/>
</g>
<!-- Node3 -->
<g id="node4" class="node">
<title>Node3</title>
<polygon fill="#ffffff" stroke="#bfbfbf" points="454.5,-.5 454.5,-19.5 506.5,-19.5 506.5,-.5 454.5,-.5"/>
<text text-anchor="middle" x="480.5" y="-7.5" font-family="Helvetica,sans-Serif" font-size="10.00" fill="#000000">cassert</text>
</g>
<!-- Node2&#45;&gt;Node3 -->
<g id="edge3" class="edge">
<title>Node2&#45;&gt;Node3</title>
<path fill="none" stroke="#191970" d="M594.777,-56.3733C572.3263,-47.2629 538.4261,-33.5062 513.3745,-23.3404"/>
<polygon fill="#191970" stroke="#191970" points="514.4957,-20.0182 503.9135,-19.5011 511.8635,-26.5045 514.4957,-20.0182"/>
</g>
<!-- Node4 -->
<g id="node5" class="node">
<title>Node4</title>
<polygon fill="#ffffff" stroke="#bfbfbf" points="524.5,-.5 524.5,-19.5 570.5,-19.5 570.5,-.5 524.5,-.5"/>
<text text-anchor="middle" x="547.5" y="-7.5" font-family="Helvetica,sans-Serif" font-size="10.00" fill="#000000">cstdio</text>
</g>
<!-- Node2&#45;&gt;Node4 -->
<g id="edge4" class="edge">
<title>Node2&#45;&gt;Node4</title>
<path fill="none" stroke="#191970" d="M606.1327,-56.2455C595.5446,-47.8943 580.0936,-35.7076 567.7107,-25.9408"/>
<polygon fill="#191970" stroke="#191970" points="569.7447,-23.0875 559.7255,-19.6427 565.4097,-28.5837 569.7447,-23.0875"/>
</g>
<!-- Node5 -->
<g id="node6" class="node">
<title>Node5</title>
<polygon fill="#ffffff" stroke="#bfbfbf" points="588.5,-.5 588.5,-19.5 648.5,-19.5 648.5,-.5 588.5,-.5"/>
<text text-anchor="middle" x="618.5" y="-7.5" font-family="Helvetica,sans-Serif" font-size="10.00" fill="#000000">iostream</text>
</g>
<!-- Node2&#45;&gt;Node5 -->
<g id="edge5" class="edge">
<title>Node2&#45;&gt;Node5</title>
<path fill="none" stroke="#191970" d="M618.5,-56.2455C618.5,-48.9382 618.5,-38.6944 618.5,-29.7046"/>
<polygon fill="#191970" stroke="#191970" points="622.0001,-29.6426 618.5,-19.6427 615.0001,-29.6427 622.0001,-29.6426"/>
</g>
<!-- Node6 -->
<g id="node7" class="node">
<title>Node6</title>
<polygon fill="#ffffff" stroke="#bfbfbf" points="666.5,-.5 666.5,-19.5 722.5,-19.5 722.5,-.5 666.5,-.5"/>
<text text-anchor="middle" x="694.5" y="-7.5" font-family="Helvetica,sans-Serif" font-size="10.00" fill="#000000">sstream</text>
</g>
<!-- Node2&#45;&gt;Node6 -->
<g id="edge6" class="edge">
<title>Node2&#45;&gt;Node6</title>
<path fill="none" stroke="#191970" d="M631.7382,-56.2455C643.181,-47.814 659.9296,-35.4729 673.2475,-25.6598"/>
<polygon fill="#191970" stroke="#191970" points="675.4391,-28.3924 681.4135,-19.6427 671.2867,-22.757 675.4391,-28.3924"/>
</g>
<!-- Node7 -->
<g id="node8" class="node">
<title>Node7</title>
<polygon fill="#ffffff" stroke="#bfbfbf" points="740.5,-.5 740.5,-19.5 788.5,-19.5 788.5,-.5 740.5,-.5"/>
<text text-anchor="middle" x="764.5" y="-7.5" font-family="Helvetica,sans-Serif" font-size="10.00" fill="#000000">thread</text>
</g>
<!-- Node2&#45;&gt;Node7 -->
<g id="edge7" class="edge">
<title>Node2&#45;&gt;Node7</title>
<path fill="none" stroke="#191970" d="M643.5983,-56.3733C667.6001,-47.1671 703.9713,-33.2165 730.5524,-23.021"/>
<polygon fill="#191970" stroke="#191970" points="732.131,-26.1642 740.2144,-19.315 729.6242,-19.6285 732.131,-26.1642"/>
</g>
<!-- Node9 -->
<g id="node10" class="node">
<title>Node9</title>
<g id="a_node10"><a xlink:href="RaCore_8hpp.html" target="_top" xlink:title="Core/RaCore.hpp">
<polygon fill="#ffffff" stroke="#000000" points="569.5,-112.5 569.5,-131.5 667.5,-131.5 667.5,-112.5 569.5,-112.5"/>
<text text-anchor="middle" x="618.5" y="-119.5" font-family="Helvetica,sans-Serif" font-size="10.00" fill="#000000">Core/RaCore.hpp</text>
</a>
</g>
</g>
<!-- Node8&#45;&gt;Node9 -->
<g id="edge9" class="edge">
<title>Node8&#45;&gt;Node9</title>
<path fill="none" stroke="#191970" d="M909.4443,-169.0917C853.2944,-160.2856 764.83,-146.3073 677.8029,-132.0364"/>
<polygon fill="#191970" stroke="#191970" points="678.1843,-128.5522 667.7492,-130.3854 677.0499,-135.4597 678.1843,-128.5522"/>
</g>
<!-- Node10 -->
<g id="node11" class="node">
<title>Node10</title>
<polygon fill="#ffffff" stroke="#bfbfbf" points="1000.5,-112.5 1000.5,-131.5 1064.5,-131.5 1064.5,-112.5 1000.5,-112.5"/>
<text text-anchor="middle" x="1032.5" y="-119.5" font-family="Helvetica,sans-Serif" font-size="10.00" fill="#000000">algorithm</text>
</g>
<!-- Node8&#45;&gt;Node10 -->
<g id="edge11" class="edge">
<title>Node8&#45;&gt;Node10</title>
<path fill="none" stroke="#191970" d="M977.9963,-168.2455C987.7442,-159.9746 1001.9259,-147.9416 1013.3798,-138.2232"/>
<polygon fill="#191970" stroke="#191970" points="1015.7747,-140.7813 1021.1354,-131.6427 1011.2459,-135.4437 1015.7747,-140.7813"/>
</g>
<!-- Node11 -->
<g id="node12" class="node">
<title>Node11</title>
<polygon fill="#ffffff" stroke="#bfbfbf" points="1083,-112.5 1083,-131.5 1130,-131.5 1130,-112.5 1083,-112.5"/>
<text text-anchor="middle" x="1106.5" y="-119.5" font-family="Helvetica,sans-Serif" font-size="10.00" fill="#000000">cmath</text>
</g>
<!-- Node8&#45;&gt;Node11 -->
<g id="edge12" class="edge">
<title>Node8&#45;&gt;Node11</title>
<path fill="none" stroke="#191970" d="M990.5669,-168.3733C1013.3428,-159.2629 1047.7344,-145.5062 1073.149,-135.3404"/>
<polygon fill="#191970" stroke="#191970" points="1074.7623,-138.4648 1082.7472,-131.5011 1072.1625,-131.9654 1074.7623,-138.4648"/>
</g>
<!-- Node12 -->
<g id="node13" class="node">
<title>Node12</title>
<g id="a_node13"><a xlink:href="Math_8inl.html" target="_top" xlink:title="Core/Math/Math.inl">
<polygon fill="#ffffff" stroke="#000000" points="874.5,-112.5 874.5,-131.5 982.5,-131.5 982.5,-112.5 874.5,-112.5"/>
<text text-anchor="middle" x="928.5" y="-119.5" font-family="Helvetica,sans-Serif" font-size="10.00" fill="#000000">Core/Math/Math.inl</text>
</a>
</g>
</g>
<!-- Node8&#45;&gt;Node12 -->
<g id="edge13" class="edge">
<title>Node8&#45;&gt;Node12</title>
<path fill="none" stroke="#191970" d="M954.6141,-168.2455C947.9645,-160.617 940.2405,-149.7881 934.6775,-140.5267"/>
<polygon fill="#191970" stroke="#191970" points="937.6799,-138.7228 929.7981,-131.6427 931.5444,-142.0926 937.6799,-138.7228"/>
</g>
<!-- Node9&#45;&gt;Node2 -->
<g id="edge10" class="edge">
<title>Node9&#45;&gt;Node2</title>
<path fill="none" stroke="#191970" d="M618.5,-112.2455C618.5,-104.9382 618.5,-94.6944 618.5,-85.7046"/>
<polygon fill="#191970" stroke="#191970" points="622.0001,-85.6426 618.5,-75.6427 615.0001,-85.6427 622.0001,-85.6426"/>
</g>
<!-- Node12&#45;&gt;Node8 -->
<g id="edge14" class="edge">
<title>Node12&#45;&gt;Node8</title>
<path fill="none" stroke="#191970" d="M940.2884,-131.6427C946.9273,-139.2398 954.6565,-150.0605 960.2406,-159.3372"/>
<polygon fill="#191970" stroke="#191970" points="957.2572,-161.1752 965.1478,-168.2455 963.3885,-157.7978 957.2572,-161.1752"/>
</g>
<!-- Node13&#45;&gt;Node1 -->
<g id="edge39" class="edge">
<title>Node13&#45;&gt;Node1</title>
<path fill="none" stroke="#191970" d="M575.926,-296.2634C519.6346,-286.6181 434.1788,-271.2543 360.5,-255 268.574,-234.7202 162.0952,-206.3052 103.628,-190.272"/>
<polygon fill="#191970" stroke="#191970" points="104.1996,-186.7993 93.6294,-187.5224 102.3434,-193.5488 104.1996,-186.7993"/>
</g>
<!-- Node14 -->
<g id="node15" class="node">
<title>Node14</title>
<g id="a_node15"><a xlink:href="Color_8hpp.html" target="_top" xlink:title="Core/Utils/Color.hpp">
<polygon fill="#ffffff" stroke="#000000" points="717,-230 717,-249 830,-249 830,-230 717,-230"/>
<text text-anchor="middle" x="773.5" y="-237" font-family="Helvetica,sans-Serif" font-size="10.00" fill="#000000">Core/Utils/Color.hpp</text>
</a>
</g>
</g>
<!-- Node13&#45;&gt;Node14 -->
<g id="edge16" class="edge">
<title>Node13&#45;&gt;Node14</title>
<path fill="none" stroke="#191970" d="M668.0211,-291.4639C691.0457,-280.1209 722.4072,-264.6707 744.9394,-253.5703"/>
<polygon fill="#191970" stroke="#191970" points="746.5817,-256.6629 754.0055,-249.1039 743.4882,-250.3836 746.5817,-256.6629"/>
</g>
<!-- Node18 -->
<g id="node19" class="node">
<title>Node18</title>
<g id="a_node19"><a xlink:href="Component_8hpp.html" target="_top" xlink:title="Engine/Component/Component.hpp">
<polygon fill="#ffffff" stroke="#000000" points="369,-230 369,-249 558,-249 558,-230 369,-230"/>
<text text-anchor="middle" x="463.5" y="-237" font-family="Helvetica,sans-Serif" font-size="10.00" fill="#000000">Engine/Component/Component.hpp</text>
</a>
</g>
</g>
<!-- Node13&#45;&gt;Node18 -->
<g id="edge22" class="edge">
<title>Node13&#45;&gt;Node18</title>
<path fill="none" stroke="#191970" d="M598.451,-291.4639C568.2458,-279.8332 526.8264,-263.8843 497.8693,-252.7342"/>
<polygon fill="#191970" stroke="#191970" points="498.7752,-249.3325 488.1854,-249.0053 496.2597,-255.865 498.7752,-249.3325"/>
</g>
<!-- Node26 -->
<g id="node27" class="node">
<title>Node26</title>
<g id="a_node27"><a xlink:href="Light_8inl.html" target="_top" xlink:title="Engine/Renderer/Light\l/Light.inl">
<polygon fill="#ffffff" stroke="#000000" points="576,-224.5 576,-254.5 699,-254.5 699,-224.5 576,-224.5"/>
<text text-anchor="start" x="584" y="-242.5" font-family="Helvetica,sans-Serif" font-size="10.00" fill="#000000">Engine/Renderer/Light</text>
<text text-anchor="middle" x="637.5" y="-231.5" font-family="Helvetica,sans-Serif" font-size="10.00" fill="#000000">/Light.inl</text>
</a>
</g>
</g>
<!-- Node13&#45;&gt;Node26 -->
<g id="edge40" class="edge">
<title>Node13&#45;&gt;Node26</title>
<path fill="none" stroke="#191970" d="M637.5,-291.2967C637.5,-283.5013 637.5,-273.7991 637.5,-264.9064"/>
<polygon fill="#191970" stroke="#191970" points="641.0001,-264.6431 637.5,-254.6432 634.0001,-264.6432 641.0001,-264.6431"/>
</g>
<!-- Node14&#45;&gt;Node2 -->
<g id="edge17" class="edge">
<title>Node14&#45;&gt;Node2</title>
<path fill="none" stroke="#191970" d="M778.9339,-229.9918C791.2407,-207.0609 818.1052,-147.9582 790.5,-112 777.7791,-95.4299 730.543,-83.534 688.7849,-75.9957"/>
<polygon fill="#191970" stroke="#191970" points="689.3206,-72.5364 678.868,-74.2665 688.1182,-79.4323 689.3206,-72.5364"/>
</g>
<!-- Node14&#45;&gt;Node8 -->
<g id="edge18" class="edge">
<title>Node14&#45;&gt;Node8</title>
<path fill="none" stroke="#191970" d="M803.6563,-229.8906C836.7985,-219.3298 890.1762,-202.3208 926.7242,-190.6747"/>
<polygon fill="#191970" stroke="#191970" points="928.0902,-193.9129 936.5555,-187.5419 925.9649,-187.2433 928.0902,-193.9129"/>
</g>
<!-- Node15 -->
<g id="node16" class="node">
<title>Node15</title>
<polygon fill="#ffffff" stroke="#bfbfbf" points="384,-112.5 384,-131.5 453,-131.5 453,-112.5 384,-112.5"/>
<text text-anchor="middle" x="418.5" y="-119.5" font-family="Helvetica,sans-Serif" font-size="10.00" fill="#000000">Eigen/Core</text>
</g>
<!-- Node14&#45;&gt;Node15 -->
<g id="edge19" class="edge">
<title>Node14&#45;&gt;Node15</title>
<path fill="none" stroke="#191970" d="M763.7448,-229.7923C747.2985,-214.0496 712.3269,-183.1868 676.5,-168 590.5627,-131.5717 559.1499,-149.4444 462.8846,-131.9186"/>
<polygon fill="#191970" stroke="#191970" points="463.5257,-128.4778 453.0477,-130.0467 462.2171,-135.3544 463.5257,-128.4778"/>
</g>
<!-- Node16 -->
<g id="node17" class="node">
<title>Node16</title>
<polygon fill="#ffffff" stroke="#bfbfbf" points="686,-112.5 686,-131.5 781,-131.5 781,-112.5 686,-112.5"/>
<text text-anchor="middle" x="733.5" y="-119.5" font-family="Helvetica,sans-Serif" font-size="10.00" fill="#000000">Eigen/Geometry</text>
</g>
<!-- Node14&#45;&gt;Node16 -->
<g id="edge20" class="edge">
<title>Node14&#45;&gt;Node16</title>
<path fill="none" stroke="#191970" d="M770.2266,-229.8845C763.6635,-210.6053 748.7838,-166.8963 740.1125,-141.4241"/>
<polygon fill="#191970" stroke="#191970" points="743.3546,-140.0869 736.8186,-131.7484 736.728,-142.3428 743.3546,-140.0869"/>
</g>
<!-- Node17 -->
<g id="node18" class="node">
<title>Node17</title>
<polygon fill="#ffffff" stroke="#bfbfbf" points="837.5,-168.5 837.5,-187.5 891.5,-187.5 891.5,-168.5 837.5,-168.5"/>
<text text-anchor="middle" x="864.5" y="-175.5" font-family="Helvetica,sans-Serif" font-size="10.00" fill="#000000">random</text>
</g>
<!-- Node14&#45;&gt;Node17 -->
<g id="edge21" class="edge">
<title>Node14&#45;&gt;Node17</title>
<path fill="none" stroke="#191970" d="M787.7188,-229.8906C802.1434,-220.1421 824.6976,-204.8994 841.636,-193.4521"/>
<polygon fill="#191970" stroke="#191970" points="844.0556,-196.0412 850.3811,-187.5419 840.1359,-190.2415 844.0556,-196.0412"/>
</g>
<!-- Node18&#45;&gt;Node1 -->
<g id="edge30" class="edge">
<title>Node18&#45;&gt;Node1</title>
<path fill="none" stroke="#191970" d="M400.8183,-229.9581C327.2162,-218.7538 205.5005,-200.2253 129.0497,-188.5874"/>
<polygon fill="#191970" stroke="#191970" points="129.4473,-185.1077 119.0344,-187.0628 128.3937,-192.0279 129.4473,-185.1077"/>
</g>
<!-- Node18&#45;&gt;Node15 -->
<g id="edge28" class="edge">
<title>Node18&#45;&gt;Node15</title>
<path fill="none" stroke="#191970" d="M411.9862,-229.9594C369.7296,-220.9619 314.7847,-206.1631 301.5,-188 279.1306,-157.4162 332.2832,-139.0685 374.1056,-129.7444"/>
<polygon fill="#191970" stroke="#191970" points="374.8408,-133.1665 383.901,-127.6743 373.3934,-126.3177 374.8408,-133.1665"/>
</g>
<!-- Node18&#45;&gt;Node16 -->
<g id="edge29" class="edge">
<title>Node18&#45;&gt;Node16</title>
<path fill="none" stroke="#191970" d="M519.4291,-229.9852C573.3307,-220.1073 650.4372,-203.9017 676.5,-188 695.9794,-176.115 712.2794,-155.3475 722.3917,-140.2761"/>
<polygon fill="#191970" stroke="#191970" points="725.403,-142.0642 727.8616,-131.7585 719.513,-138.2817 725.403,-142.0642"/>
</g>
<!-- Node19 -->
<g id="node20" class="node">
<title>Node19</title>
<g id="a_node20"><a xlink:href="Index_8hpp.html" target="_top" xlink:title="Core/Utils/Index.hpp">
<polygon fill="#ffffff" stroke="#000000" points="137.5,-168.5 137.5,-187.5 253.5,-187.5 253.5,-168.5 137.5,-168.5"/>
<text text-anchor="middle" x="195.5" y="-175.5" font-family="Helvetica,sans-Serif" font-size="10.00" fill="#000000">Core/Utils/Index.hpp</text>
</a>
</g>
</g>
<!-- Node18&#45;&gt;Node19 -->
<g id="edge23" class="edge">
<title>Node18&#45;&gt;Node19</title>
<path fill="none" stroke="#191970" d="M421.919,-229.9581C374.7795,-219.1406 297.8887,-201.4959 246.9943,-189.8168"/>
<polygon fill="#191970" stroke="#191970" points="247.708,-186.3897 237.1785,-187.5643 246.1423,-193.2123 247.708,-186.3897"/>
</g>
<!-- Node22 -->
<g id="node23" class="node">
<title>Node22</title>
<polygon fill="#ffffff" stroke="#bfbfbf" points="310,-168.5 310,-187.5 357,-187.5 357,-168.5 310,-168.5"/>
<text text-anchor="middle" x="333.5" y="-175.5" font-family="Helvetica,sans-Serif" font-size="10.00" fill="#000000">vector</text>
</g>
<!-- Node18&#45;&gt;Node22 -->
<g id="edge31" class="edge">
<title>Node18&#45;&gt;Node22</title>
<path fill="none" stroke="#191970" d="M443.1875,-229.8906C421.6269,-219.6908 387.3522,-203.4763 362.8556,-191.8875"/>
<polygon fill="#191970" stroke="#191970" points="364.2061,-188.6545 353.6699,-187.5419 361.2126,-194.9822 364.2061,-188.6545"/>
</g>
<!-- Node23 -->
<g id="node24" class="node">
<title>Node23</title>
<g id="a_node24"><a xlink:href="Types_8hpp.html" target="_top" xlink:title="Core/Types.hpp">
<polygon fill="#ffffff" stroke="#000000" points="576,-168.5 576,-187.5 667,-187.5 667,-168.5 576,-168.5"/>
<text text-anchor="middle" x="621.5" y="-175.5" font-family="Helvetica,sans-Serif" font-size="10.00" fill="#000000">Core/Types.hpp</text>
</a>
</g>
</g>
<!-- Node18&#45;&gt;Node23 -->
<g id="edge32" class="edge">
<title>Node18&#45;&gt;Node23</title>
<path fill="none" stroke="#191970" d="M488.1875,-229.8906C514.8557,-219.5103 557.5282,-202.9004 587.3911,-191.2766"/>
<polygon fill="#191970" stroke="#191970" points="588.9365,-194.4309 596.9859,-187.5419 586.3973,-187.9076 588.9365,-194.4309"/>
</g>
<!-- Node25 -->
<g id="node26" class="node">
<title>Node25</title>
<g id="a_node26"><a xlink:href="Component_8inl.html" target="_top" xlink:title="Engine/Component/Component.inl">
<polygon fill="#ffffff" stroke="#000000" points="375,-168.5 375,-187.5 558,-187.5 558,-168.5 375,-168.5"/>
<text text-anchor="middle" x="466.5" y="-175.5" font-family="Helvetica,sans-Serif" font-size="10.00" fill="#000000">Engine/Component/Component.inl</text>
</a>
</g>
</g>
<!-- Node18&#45;&gt;Node25 -->
<g id="edge37" class="edge">
<title>Node18&#45;&gt;Node25</title>
<path fill="none" stroke="#191970" d="M458.9063,-229.8906C457.6587,-221.3657 457.8458,-208.6392 459.1646,-197.9235"/>
<polygon fill="#191970" stroke="#191970" points="462.6696,-198.1969 460.9359,-187.7449 455.7732,-196.9967 462.6696,-198.1969"/>
</g>
<!-- Node19&#45;&gt;Node9 -->
<g id="edge24" class="edge">
<title>Node19&#45;&gt;Node9</title>
<path fill="none" stroke="#191970" d="M253.7701,-171.4822C323.8673,-163.4567 445.353,-148.9611 559.5155,-132.0938"/>
<polygon fill="#191970" stroke="#191970" points="560.1008,-135.5454 569.4775,-130.613 559.0715,-128.6214 560.1008,-135.5454"/>
</g>
<!-- Node20 -->
<g id="node21" class="node">
<title>Node20</title>
<polygon fill="#ffffff" stroke="#bfbfbf" points="87.5,-112.5 87.5,-131.5 131.5,-131.5 131.5,-112.5 87.5,-112.5"/>
<text text-anchor="middle" x="109.5" y="-119.5" font-family="Helvetica,sans-Serif" font-size="10.00" fill="#000000">limits</text>
</g>
<!-- Node19&#45;&gt;Node20 -->
<g id="edge25" class="edge">
<title>Node19&#45;&gt;Node20</title>
<path fill="none" stroke="#191970" d="M180.5199,-168.2455C167.3249,-159.6534 147.8949,-147.0014 132.6921,-137.1018"/>
<polygon fill="#191970" stroke="#191970" points="134.5983,-134.1665 124.3084,-131.6427 130.7785,-140.0325 134.5983,-134.1665"/>
</g>
<!-- Node21 -->
<g id="node22" class="node">
<title>Node21</title>
<g id="a_node22"><a xlink:href="Index_8inl.html" target="_top" xlink:title="Core/Utils/Index.inl">
<polygon fill="#ffffff" stroke="#000000" points="149.5,-112.5 149.5,-131.5 259.5,-131.5 259.5,-112.5 149.5,-112.5"/>
<text text-anchor="middle" x="204.5" y="-119.5" font-family="Helvetica,sans-Serif" font-size="10.00" fill="#000000">Core/Utils/Index.inl</text>
</a>
</g>
</g>
<!-- Node19&#45;&gt;Node21 -->
<g id="edge26" class="edge">
<title>Node19&#45;&gt;Node21</title>
<path fill="none" stroke="#191970" d="M191.8008,-168.2455C191.5616,-160.8579 192.8338,-150.4689 194.9215,-141.4087"/>
<polygon fill="#191970" stroke="#191970" points="198.3298,-142.2191 197.7051,-131.6427 191.598,-140.3002 198.3298,-142.2191"/>
</g>
<!-- Node21&#45;&gt;Node19 -->
<g id="edge27" class="edge">
<title>Node21&#45;&gt;Node19</title>
<path fill="none" stroke="#191970" d="M208.1954,-131.6427C208.45,-138.9998 207.1895,-149.3803 205.1101,-158.4538"/>
<polygon fill="#191970" stroke="#191970" points="201.6945,-157.6701 202.3345,-168.2455 208.4291,-159.5791 201.6945,-157.6701"/>
</g>
<!-- Node23&#45;&gt;Node9 -->
<g id="edge33" class="edge">
<title>Node23&#45;&gt;Node9</title>
<path fill="none" stroke="#191970" d="M620.9774,-168.2455C620.586,-160.9382 620.0372,-150.6944 619.5556,-141.7046"/>
<polygon fill="#191970" stroke="#191970" points="623.0466,-141.4411 619.0166,-131.6427 616.0566,-141.8156 623.0466,-141.4411"/>
</g>
<!-- Node23&#45;&gt;Node15 -->
<g id="edge34" class="edge">
<title>Node23&#45;&gt;Node15</title>
<path fill="none" stroke="#191970" d="M586.6031,-168.3733C552.4089,-158.9404 500.1585,-144.5265 462.9958,-134.2747"/>
<polygon fill="#191970" stroke="#191970" points="463.5123,-130.7865 452.9416,-131.5011 461.6507,-137.5345 463.5123,-130.7865"/>
</g>
<!-- Node23&#45;&gt;Node16 -->
<g id="edge35" class="edge">
<title>Node23&#45;&gt;Node16</title>
<path fill="none" stroke="#191970" d="M640.7535,-168.3733C658.5712,-159.4644 685.2747,-146.1127 705.4594,-136.0203"/>
<polygon fill="#191970" stroke="#191970" points="707.1187,-139.1038 714.4978,-131.5011 703.9882,-132.8428 707.1187,-139.1038"/>
</g>
<!-- Node24 -->
<g id="node25" class="node">
<title>Node24</title>
<polygon fill="#ffffff" stroke="#bfbfbf" points="471.5,-112.5 471.5,-131.5 551.5,-131.5 551.5,-112.5 471.5,-112.5"/>
<text text-anchor="middle" x="511.5" y="-119.5" font-family="Helvetica,sans-Serif" font-size="10.00" fill="#000000">Eigen/Sparse</text>
</g>
<!-- Node23&#45;&gt;Node24 -->
<g id="edge36" class="edge">
<title>Node23&#45;&gt;Node24</title>
<path fill="none" stroke="#191970" d="M602.3395,-168.2455C584.9889,-159.4125 559.2099,-146.2887 539.5417,-136.2758"/>
<polygon fill="#191970" stroke="#191970" points="540.9405,-133.0605 530.441,-131.6427 537.7647,-139.2986 540.9405,-133.0605"/>
</g>
<!-- Node25&#45;&gt;Node18 -->
<g id="edge38" class="edge">
<title>Node25&#45;&gt;Node18</title>
<path fill="none" stroke="#191970" d="M471.1134,-187.7449C472.3458,-196.314 472.1451,-209.0519 470.8144,-219.7462"/>
<polygon fill="#191970" stroke="#191970" points="467.3154,-219.4357 469.0313,-229.8906 474.2097,-220.6476 467.3154,-219.4357"/>
</g>
</g>
</svg>
        <g id="navigator" transform="translate(0 0)" fill="#404254">
                <rect fill="#f2f5e9" fill-opacity="0.5" stroke="#606060" stroke-width=".5" x="0" y="0" width="60" height="60"/>
                <use id="zoomplus" xlink:href="#zoomPlus" x="17" y="9" onmousedown="handleZoom(evt,'in')"/>
                <use id="zoomminus" xlink:href="#zoomMin" x="42" y="9" onmousedown="handleZoom(evt,'out')"/>
                <use id="reset" xlink:href="#resetDef" x="30" y="36" onmousedown="handleReset()"/>
                <g id="arrowUp" xlink:href="#dirArrow" transform="translate(30 24)" onmousedown="handlePan(0,-1)">
                  <use xlink:href="#rim" fill="#404040">
                        <set attributeName="fill" to="#808080" begin="arrowUp.mouseover" end="arrowUp.mouseout"/>
                  </use>
                  <path fill="none" stroke="white" stroke-width="1.5" d="M0,-3.0v7 M-2.5,-0.5L0,-3.0L2.5,-0.5"/>
                </g>
                <g id="arrowRight" xlink:href="#dirArrow" transform="rotate(90) translate(36 -43)" onmousedown="handlePan(1,0)">
                  <use xlink:href="#rim" fill="#404040">
                        <set attributeName="fill" to="#808080" begin="arrowRight.mouseover" end="arrowRight.mouseout"/>
                  </use>
                  <path fill="none" stroke="white" stroke-width="1.5" d="M0,-3.0v7 M-2.5,-0.5L0,-3.0L2.5,-0.5"/>
                </g>
                <g id="arrowDown" xlink:href="#dirArrow" transform="rotate(180) translate(-30 -48)" onmousedown="handlePan(0,1)">
                  <use xlink:href="#rim" fill="#404040">
                        <set attributeName="fill" to="#808080" begin="arrowDown.mouseover" end="arrowDown.mouseout"/>
                  </use>
                  <path fill="none" stroke="white" stroke-width="1.5" d="M0,-3.0v7 M-2.5,-0.5L0,-3.0L2.5,-0.5"/>
                </g>
                <g id="arrowLeft" xlink:href="#dirArrow" transform="rotate(270) translate(-36 17)" onmousedown="handlePan(-1,0)">
                  <use xlink:href="#rim" fill="#404040">
                        <set attributeName="fill" to="#808080" begin="arrowLeft.mouseover" end="arrowLeft.mouseout"/>
                  </use>
                  <path fill="none" stroke="white" stroke-width="1.5" d="M0,-3.0v7 M-2.5,-0.5L0,-3.0L2.5,-0.5"/>
                </g>
        </g>
        <svg viewBox="0 0 15 15" width="100%" height="30px" preserveAspectRatio="xMaxYMin meet">
         <g id="arrow_out" transform="scale(0.3 0.3)">
          <a xlink:href="SpotLight_8hpp__incl_org.svg" target="_base">
           <rect id="button" ry="5" rx="5" y="6" x="6" height="38" width="38"
                fill="#f2f5e9" fill-opacity="0.5" stroke="#606060" stroke-width="1.0"/>
           <path id="arrow"
             d="M 11.500037,31.436501 C 11.940474,20.09759 22.043105,11.32322 32.158766,21.979434 L 37.068811,17.246167 C 37.068811,17.246167 37.088388,32 37.088388,32 L 22.160133,31.978069 C 22.160133,31.978069 26.997745,27.140456 26.997745,27.140456 C 18.528582,18.264221 13.291696,25.230495 11.500037,31.436501 z"
             style="fill:#404040;"/>
          </a>
         </g>
        </svg>
</svg>
