<?xml version="1.0" encoding="UTF-8" standalone="no"?>
<!DOCTYPE svg PUBLIC "-//W3C//DTD SVG 1.1//EN"
 "http://www.w3.org/Graphics/SVG/1.1/DTD/svg11.dtd">
<!-- Generated by graphviz version 2.40.1 (20161225.0304)
 -->
<!-- Title: src/Core/Utils/StdOptional.hpp Pages: 1 -->
<svg width="4552pt" height="251pt"
 viewBox="0.00 0.00 4551.50 251.00" xmlns="http://www.w3.org/2000/svg" xmlns:xlink="http://www.w3.org/1999/xlink">
<g id="graph0" class="graph" transform="scale(1 1) rotate(0) translate(4 247)">
<title>src/Core/Utils/StdOptional.hpp</title>
<polygon fill="#ffffff" stroke="transparent" points="-4,4 -4,-247 4547.5,-247 4547.5,4 -4,4"/>
<!-- Node1 -->
<g id="node1" class="node">
<title>Node1</title>
<polygon fill="#bfbfbf" stroke="#000000" points="1889,-223.5 1889,-242.5 2052,-242.5 2052,-223.5 1889,-223.5"/>
<text text-anchor="middle" x="1970.5" y="-230.5" font-family="Helvetica,sans-Serif" font-size="10.00" fill="#000000">src/Core/Utils/StdOptional.hpp</text>
</g>
<!-- Node2 -->
<g id="node2" class="node">
<title>Node2</title>
<g id="a_node2"><a xlink:href="MeshPrimitives_8hpp.html" target="_top" xlink:title="src/Core/Geometry/MeshPrimitives.hpp">
<polygon fill="#ffffff" stroke="#000000" points="1183,-156.5 1183,-175.5 1390,-175.5 1390,-156.5 1183,-156.5"/>
<text text-anchor="middle" x="1286.5" y="-163.5" font-family="Helvetica,sans-Serif" font-size="10.00" fill="#000000">src/Core/Geometry/MeshPrimitives.hpp</text>
</a>
</g>
</g>
<!-- Node1&#45;&gt;Node2 -->
<g id="edge1" class="edge">
<title>Node1&#45;&gt;Node2</title>
<path fill="none" stroke="#191970" d="M1878.4137,-223.9799C1749.2486,-211.3277 1515.3519,-188.4168 1383.5592,-175.5073"/>
<polygon fill="#191970" stroke="#191970" points="1878.3794,-227.4932 1888.673,-224.9848 1879.0619,-220.5265 1878.3794,-227.4932"/>
</g>
<!-- Node12 -->
<g id="node12" class="node">
<title>Node12</title>
<g id="a_node12"><a xlink:href="Volume_8hpp.html" target="_top" xlink:title="src/Core/Geometry/Volume.hpp">
<polygon fill="#ffffff" stroke="#000000" points="341,-156.5 341,-175.5 510,-175.5 510,-156.5 341,-156.5"/>
<text text-anchor="middle" x="425.5" y="-163.5" font-family="Helvetica,sans-Serif" font-size="10.00" fill="#000000">src/Core/Geometry/Volume.hpp</text>
</a>
</g>
</g>
<!-- Node1&#45;&gt;Node12 -->
<g id="edge12" class="edge">
<title>Node1&#45;&gt;Node12</title>
<path fill="none" stroke="#191970" d="M1878.7865,-229.0228C1601.954,-217.0177 777.4165,-181.2611 510.1486,-169.6708"/>
<polygon fill="#191970" stroke="#191970" points="1878.6544,-232.5202 1888.7966,-229.4569 1878.9577,-225.5268 1878.6544,-232.5202"/>
</g>
<!-- Node17 -->
<g id="node17" class="node">
<title>Node17</title>
<g id="a_node17"><a xlink:href="ShaderConfigFactory_8hpp.html" target="_top" xlink:title="src/Engine/Renderer\l/RenderTechnique/ShaderConfig\lFactory.hpp">
<polygon fill="#ffffff" stroke="#000000" points="3339.5,-145.5 3339.5,-186.5 3509.5,-186.5 3509.5,-145.5 3339.5,-145.5"/>
<text text-anchor="start" x="3347.5" y="-174.5" font-family="Helvetica,sans-Serif" font-size="10.00" fill="#000000">src/Engine/Renderer</text>
<text text-anchor="start" x="3347.5" y="-163.5" font-family="Helvetica,sans-Serif" font-size="10.00" fill="#000000">/RenderTechnique/ShaderConfig</text>
<text text-anchor="middle" x="3424.5" y="-152.5" font-family="Helvetica,sans-Serif" font-size="10.00" fill="#000000">Factory.hpp</text>
</a>
</g>
</g>
<!-- Node1&#45;&gt;Node17 -->
<g id="edge18" class="edge">
<title>Node1&#45;&gt;Node17</title>
<path fill="none" stroke="#191970" d="M2062.3606,-228.7671C2326.2475,-216.6072 3083.9408,-181.6929 3339.3042,-169.9258"/>
<polygon fill="#191970" stroke="#191970" points="2061.8792,-225.2855 2052.051,-229.2421 2062.2015,-232.278 2061.8792,-225.2855"/>
</g>
<!-- Node28 -->
<g id="node28" class="node">
<title>Node28</title>
<g id="a_node28"><a xlink:href="ShaderProgramManager_8hpp.html" target="_top" xlink:title="src/Engine/Renderer\l/RenderTechnique/ShaderProgram\lManager.hpp">
<polygon fill="#ffffff" stroke="#000000" points="2564.5,-145.5 2564.5,-186.5 2744.5,-186.5 2744.5,-145.5 2564.5,-145.5"/>
<text text-anchor="start" x="2572.5" y="-174.5" font-family="Helvetica,sans-Serif" font-size="10.00" fill="#000000">src/Engine/Renderer</text>
<text text-anchor="start" x="2572.5" y="-163.5" font-family="Helvetica,sans-Serif" font-size="10.00" fill="#000000">/RenderTechnique/ShaderProgram</text>
<text text-anchor="middle" x="2654.5" y="-152.5" font-family="Helvetica,sans-Serif" font-size="10.00" fill="#000000">Manager.hpp</text>
</a>
</g>
</g>
<!-- Node1&#45;&gt;Node28 -->
<g id="edge31" class="edge">
<title>Node1&#45;&gt;Node28</title>
<path fill="none" stroke="#191970" d="M2062.3745,-224.0006C2193.8144,-211.1256 2434.0175,-187.597 2564.445,-174.8212"/>
<polygon fill="#191970" stroke="#191970" points="2061.9381,-220.5265 2052.327,-224.9848 2062.6206,-227.4932 2061.9381,-220.5265"/>
</g>
<!-- Node3 -->
<g id="node3" class="node">
<title>Node3</title>
<g id="a_node3"><a xlink:href="MeshPrimitives_8cpp.html" target="_top" xlink:title="src/Core/Geometry/MeshPrimitives.cpp">
<polygon fill="#ffffff" stroke="#000000" points="621.5,-78.5 621.5,-97.5 827.5,-97.5 827.5,-78.5 621.5,-78.5"/>
<text text-anchor="middle" x="724.5" y="-85.5" font-family="Helvetica,sans-Serif" font-size="10.00" fill="#000000">src/Core/Geometry/MeshPrimitives.cpp</text>
</a>
</g>
</g>
<!-- Node2&#45;&gt;Node3 -->
<g id="edge2" class="edge">
<title>Node2&#45;&gt;Node3</title>
<path fill="none" stroke="#191970" d="M1189.1166,-155.3544C1097.8127,-144.9736 957.6023,-128.006 836.5,-109 815.197,-105.6567 791.7304,-101.3533 771.8046,-97.5136"/>
<polygon fill="#191970" stroke="#191970" points="1188.8447,-158.8459 1199.1751,-156.4938 1189.6326,-151.8904 1188.8447,-158.8459"/>
</g>
<!-- Node4 -->
<g id="node4" class="node">
<title>Node4</title>
<g id="a_node4"><a xlink:href="MeshPrimitives_8inl.html" target="_top" xlink:title="src/Core/Geometry/MeshPrimitives.inl">
<polygon fill="#ffffff" stroke="#000000" points="846,-78.5 846,-97.5 1047,-97.5 1047,-78.5 846,-78.5"/>
<text text-anchor="middle" x="946.5" y="-85.5" font-family="Helvetica,sans-Serif" font-size="10.00" fill="#000000">src/Core/Geometry/MeshPrimitives.inl</text>
</a>
</g>
</g>
<!-- Node2&#45;&gt;Node4 -->
<g id="edge3" class="edge">
<title>Node2&#45;&gt;Node4</title>
<path fill="none" stroke="#191970" d="M1230.2244,-154.2359C1160.2337,-138.744 1042.9238,-111.8019 983.3934,-97.5204"/>
<polygon fill="#191970" stroke="#191970" points="1229.6758,-157.699 1240.1951,-156.4357 1231.184,-150.8634 1229.6758,-157.699"/>
</g>
<!-- Node5 -->
<g id="node5" class="node">
<title>Node5</title>
<g id="a_node5"><a xlink:href="VolumeObject_8cpp.html" target="_top" xlink:title="src/Engine/Renderer\l/Displayable/VolumeObject.cpp">
<polygon fill="#ffffff" stroke="#000000" points="434,-73 434,-103 603,-103 603,-73 434,-73"/>
<text text-anchor="start" x="442" y="-91" font-family="Helvetica,sans-Serif" font-size="10.00" fill="#000000">src/Engine/Renderer</text>
<text text-anchor="middle" x="518.5" y="-80" font-family="Helvetica,sans-Serif" font-size="10.00" fill="#000000">/Displayable/VolumeObject.cpp</text>
</a>
</g>
</g>
<!-- Node2&#45;&gt;Node5 -->
<g id="edge5" class="edge">
<title>Node2&#45;&gt;Node5</title>
<path fill="none" stroke="#191970" d="M1172.6203,-161.0794C1038.1616,-154.1836 808.0716,-138.9744 612.5,-109 602.0043,-107.3914 590.9318,-105.2887 580.2146,-103.036"/>
<polygon fill="#191970" stroke="#191970" points="1172.7678,-164.5913 1182.9321,-161.6015 1173.1219,-157.6002 1172.7678,-164.5913"/>
</g>
<!-- Node6 -->
<g id="node6" class="node">
<title>Node6</title>
<g id="a_node6"><a xlink:href="Renderer_8cpp.html" target="_top" xlink:title="src/Engine/Renderer\l/Renderer.cpp">
<polygon fill="#ffffff" stroke="#000000" points="2282,-73 2282,-103 2395,-103 2395,-73 2282,-73"/>
<text text-anchor="start" x="2290" y="-91" font-family="Helvetica,sans-Serif" font-size="10.00" fill="#000000">src/Engine/Renderer</text>
<text text-anchor="middle" x="2338.5" y="-80" font-family="Helvetica,sans-Serif" font-size="10.00" fill="#000000">/Renderer.cpp</text>
</a>
</g>
</g>
<!-- Node2&#45;&gt;Node6 -->
<g id="edge6" class="edge">
<title>Node2&#45;&gt;Node6</title>
<path fill="none" stroke="#191970" d="M1400.3065,-163.0675C1623.037,-156.7285 2109.111,-139.7789 2273.5,-109 2281.3099,-107.5377 2289.484,-105.4025 2297.2969,-103.0466"/>
<polygon fill="#191970" stroke="#191970" points="1400.1227,-159.5712 1390.2256,-163.3523 1400.3205,-166.5684 1400.1227,-159.5712"/>
</g>
<!-- Node7 -->
<g id="node7" class="node">
<title>Node7</title>
<g id="a_node7"><a xlink:href="DebugRender_8cpp.html" target="_top" xlink:title="src/Engine/Renderer\l/Renderers/DebugRender.cpp">
<polygon fill="#ffffff" stroke="#000000" points="1538.5,-73 1538.5,-103 1694.5,-103 1694.5,-73 1538.5,-73"/>
<text text-anchor="start" x="1546.5" y="-91" font-family="Helvetica,sans-Serif" font-size="10.00" fill="#000000">src/Engine/Renderer</text>
<text text-anchor="middle" x="1616.5" y="-80" font-family="Helvetica,sans-Serif" font-size="10.00" fill="#000000">/Renderers/DebugRender.cpp</text>
</a>
</g>
</g>
<!-- Node2&#45;&gt;Node7 -->
<g id="edge7" class="edge">
<title>Node2&#45;&gt;Node7</title>
<path fill="none" stroke="#191970" d="M1337.1219,-154.2259C1386.2925,-142.7657 1463.0464,-124.814 1529.5,-109 1537.5114,-107.0935 1545.9346,-105.0763 1554.2556,-103.076"/>
<polygon fill="#191970" stroke="#191970" points="1336.3094,-150.8214 1327.3644,-156.4992 1337.8978,-157.6388 1336.3094,-150.8214"/>
</g>
<!-- Node8 -->
<g id="node8" class="node">
<title>Node8</title>
<g id="a_node8"><a xlink:href="DrawPrimitives_8cpp.html" target="_top" xlink:title="src/Engine/Renderer\l/RenderObject/Primitives\l/DrawPrimitives.cpp">
<polygon fill="#ffffff" stroke="#000000" points="2413,-67.5 2413,-108.5 2550,-108.5 2550,-67.5 2413,-67.5"/>
<text text-anchor="start" x="2421" y="-96.5" font-family="Helvetica,sans-Serif" font-size="10.00" fill="#000000">src/Engine/Renderer</text>
<text text-anchor="start" x="2421" y="-85.5" font-family="Helvetica,sans-Serif" font-size="10.00" fill="#000000">/RenderObject/Primitives</text>
<text text-anchor="middle" x="2481.5" y="-74.5" font-family="Helvetica,sans-Serif" font-size="10.00" fill="#000000">/DrawPrimitives.cpp</text>
</a>
</g>
</g>
<!-- Node2&#45;&gt;Node8 -->
<g id="edge8" class="edge">
<title>Node2&#45;&gt;Node8</title>
<path fill="none" stroke="#191970" d="M1400.5441,-163.3013C1645.2174,-157.0026 2213.77,-139.5052 2404.5,-109 2407.2365,-108.5623 2410.0154,-108.0649 2412.8133,-107.5196"/>
<polygon fill="#191970" stroke="#191970" points="1400.1107,-159.8111 1390.2035,-163.5658 1400.2897,-166.8089 1400.1107,-159.8111"/>
</g>
<!-- Node9 -->
<g id="node9" class="node">
<title>Node9</title>
<g id="a_node9"><a xlink:href="RotateGizmo_8cpp.html" target="_top" xlink:title="src/GuiBase/Viewer\l/Gizmo/RotateGizmo.cpp">
<polygon fill="#ffffff" stroke="#000000" points="1065,-73 1065,-103 1202,-103 1202,-73 1065,-73"/>
<text text-anchor="start" x="1073" y="-91" font-family="Helvetica,sans-Serif" font-size="10.00" fill="#000000">src/GuiBase/Viewer</text>
<text text-anchor="middle" x="1133.5" y="-80" font-family="Helvetica,sans-Serif" font-size="10.00" fill="#000000">/Gizmo/RotateGizmo.cpp</text>
</a>
</g>
</g>
<!-- Node2&#45;&gt;Node9 -->
<g id="edge9" class="edge">
<title>Node2&#45;&gt;Node9</title>
<path fill="none" stroke="#191970" d="M1258.8127,-151.8849C1231.8068,-138.1172 1190.8638,-117.2443 1163.1927,-103.1375"/>
<polygon fill="#191970" stroke="#191970" points="1257.2404,-155.0119 1267.7392,-156.4357 1260.4198,-148.7756 1257.2404,-155.0119"/>
</g>
<!-- Node10 -->
<g id="node10" class="node">
<title>Node10</title>
<g id="a_node10"><a xlink:href="ScaleGizmo_8cpp.html" target="_top" xlink:title="src/GuiBase/Viewer\l/Gizmo/ScaleGizmo.cpp">
<polygon fill="#ffffff" stroke="#000000" points="1220.5,-73 1220.5,-103 1352.5,-103 1352.5,-73 1220.5,-73"/>
<text text-anchor="start" x="1228.5" y="-91" font-family="Helvetica,sans-Serif" font-size="10.00" fill="#000000">src/GuiBase/Viewer</text>
<text text-anchor="middle" x="1286.5" y="-80" font-family="Helvetica,sans-Serif" font-size="10.00" fill="#000000">/Gizmo/ScaleGizmo.cpp</text>
</a>
</g>
</g>
<!-- Node2&#45;&gt;Node10 -->
<g id="edge10" class="edge">
<title>Node2&#45;&gt;Node10</title>
<path fill="none" stroke="#191970" d="M1286.5,-146.3751C1286.5,-133.0215 1286.5,-115.6052 1286.5,-103.2824"/>
<polygon fill="#191970" stroke="#191970" points="1283.0001,-146.4356 1286.5,-156.4357 1290.0001,-146.4357 1283.0001,-146.4356"/>
</g>
<!-- Node11 -->
<g id="node11" class="node">
<title>Node11</title>
<g id="a_node11"><a xlink:href="TranslateGizmo_8cpp.html" target="_top" xlink:title="src/GuiBase/Viewer\l/Gizmo/TranslateGizmo.cpp">
<polygon fill="#ffffff" stroke="#000000" points="1370.5,-73 1370.5,-103 1520.5,-103 1520.5,-73 1370.5,-73"/>
<text text-anchor="start" x="1378.5" y="-91" font-family="Helvetica,sans-Serif" font-size="10.00" fill="#000000">src/GuiBase/Viewer</text>
<text text-anchor="middle" x="1445.5" y="-80" font-family="Helvetica,sans-Serif" font-size="10.00" fill="#000000">/Gizmo/TranslateGizmo.cpp</text>
</a>
</g>
</g>
<!-- Node2&#45;&gt;Node11 -->
<g id="edge11" class="edge">
<title>Node2&#45;&gt;Node11</title>
<path fill="none" stroke="#191970" d="M1315.2731,-151.8849C1343.338,-138.1172 1385.8866,-117.2443 1414.6429,-103.1375"/>
<polygon fill="#191970" stroke="#191970" points="1313.4329,-148.8891 1305.9965,-156.4357 1316.5159,-155.1736 1313.4329,-148.8891"/>
</g>
<!-- Node4&#45;&gt;Node2 -->
<g id="edge4" class="edge">
<title>Node4&#45;&gt;Node2</title>
<path fill="none" stroke="#191970" d="M1002.5608,-99.7165C1072.4545,-115.185 1189.7751,-142.1283 1249.4236,-156.4357"/>
<polygon fill="#191970" stroke="#191970" points="1003.1244,-96.2568 992.6052,-97.5204 1001.6165,-103.0925 1003.1244,-96.2568"/>
</g>
<!-- Node12&#45;&gt;Node5 -->
<g id="edge17" class="edge">
<title>Node12&#45;&gt;Node5</title>
<path fill="none" stroke="#191970" d="M444.7257,-149.8752C461.0335,-136.1977 484.2637,-116.7143 500.2787,-103.2824"/>
<polygon fill="#191970" stroke="#191970" points="442.3164,-147.3278 436.9036,-156.4357 446.8147,-152.6912 442.3164,-147.3278"/>
</g>
<!-- Node13 -->
<g id="node13" class="node">
<title>Node13</title>
<g id="a_node13"><a xlink:href="Volume_8cpp.html" target="_top" xlink:title="src/Core/Geometry/Volume.cpp">
<polygon fill="#ffffff" stroke="#000000" points="248.5,-78.5 248.5,-97.5 416.5,-97.5 416.5,-78.5 248.5,-78.5"/>
<text text-anchor="middle" x="332.5" y="-85.5" font-family="Helvetica,sans-Serif" font-size="10.00" fill="#000000">src/Core/Geometry/Volume.cpp</text>
</a>
</g>
</g>
<!-- Node12&#45;&gt;Node13 -->
<g id="edge13" class="edge">
<title>Node12&#45;&gt;Node13</title>
<path fill="none" stroke="#191970" d="M406.1889,-149.8036C387.4145,-134.0574 359.5252,-110.6663 343.9969,-97.6426"/>
<polygon fill="#191970" stroke="#191970" points="404.1853,-152.6912 414.0964,-156.4357 408.6836,-147.3278 404.1853,-152.6912"/>
</g>
<!-- Node14 -->
<g id="node14" class="node">
<title>Node14</title>
<g id="a_node14"><a xlink:href="GeometryComponent_8hpp.html" target="_top" xlink:title="src/Engine/Component\l/GeometryComponent.hpp">
<polygon fill="#ffffff" stroke="#000000" points="84.5,-73 84.5,-103 230.5,-103 230.5,-73 84.5,-73"/>
<text text-anchor="start" x="92.5" y="-91" font-family="Helvetica,sans-Serif" font-size="10.00" fill="#000000">src/Engine/Component</text>
<text text-anchor="middle" x="157.5" y="-80" font-family="Helvetica,sans-Serif" font-size="10.00" fill="#000000">/GeometryComponent.hpp</text>
</a>
</g>
</g>
<!-- Node12&#45;&gt;Node14 -->
<g id="edge14" class="edge">
<title>Node12&#45;&gt;Node14</title>
<path fill="none" stroke="#191970" d="M382.7598,-153.5607C335.6879,-139.8607 259.9912,-117.8295 209.5107,-103.1375"/>
<polygon fill="#191970" stroke="#191970" points="382.0582,-157.0017 392.6379,-156.4357 384.0144,-150.2805 382.0582,-157.0017"/>
</g>
<!-- Node15 -->
<g id="node15" class="node">
<title>Node15</title>
<g id="a_node15"><a xlink:href="GeometryComponent_8cpp.html" target="_top" xlink:title="src/Engine/Component\l/GeometryComponent.cpp">
<polygon fill="#ffffff" stroke="#000000" points="0,-.5 0,-30.5 145,-30.5 145,-.5 0,-.5"/>
<text text-anchor="start" x="8" y="-18.5" font-family="Helvetica,sans-Serif" font-size="10.00" fill="#000000">src/Engine/Component</text>
<text text-anchor="middle" x="72.5" y="-7.5" font-family="Helvetica,sans-Serif" font-size="10.00" fill="#000000">/GeometryComponent.cpp</text>
</a>
</g>
</g>
<!-- Node14&#45;&gt;Node15 -->
<g id="edge15" class="edge">
<title>Node14&#45;&gt;Node15</title>
<path fill="none" stroke="#191970" d="M132.2735,-66.4833C118.6939,-54.9007 102.279,-40.8998 90.0895,-30.5028"/>
<polygon fill="#191970" stroke="#191970" points="130.0083,-69.1514 139.8879,-72.978 134.5509,-63.8255 130.0083,-69.1514"/>
</g>
<!-- Node16 -->
<g id="node16" class="node">
<title>Node16</title>
<g id="a_node16"><a xlink:href="GeometrySystem_8cpp.html" target="_top" xlink:title="src/Engine/System/Geometry\lSystem.cpp">
<polygon fill="#ffffff" stroke="#000000" points="163.5,-.5 163.5,-30.5 321.5,-30.5 321.5,-.5 163.5,-.5"/>
<text text-anchor="start" x="171.5" y="-18.5" font-family="Helvetica,sans-Serif" font-size="10.00" fill="#000000">src/Engine/System/Geometry</text>
<text text-anchor="middle" x="242.5" y="-7.5" font-family="Helvetica,sans-Serif" font-size="10.00" fill="#000000">System.cpp</text>
</a>
</g>
</g>
<!-- Node14&#45;&gt;Node16 -->
<g id="edge16" class="edge">
<title>Node14&#45;&gt;Node16</title>
<path fill="none" stroke="#191970" d="M182.7265,-66.4833C196.3061,-54.9007 212.721,-40.8998 224.9105,-30.5028"/>
<polygon fill="#191970" stroke="#191970" points="180.4491,-63.8255 175.1121,-72.978 184.9917,-69.1514 180.4491,-63.8255"/>
</g>
<!-- Node17&#45;&gt;Node6 -->
<g id="edge25" class="edge">
<title>Node17&#45;&gt;Node6</title>
<path fill="none" stroke="#191970" d="M3329.1569,-163.7397C3110.8782,-158.068 2580.1775,-141.3199 2404.5,-109 2396.5766,-107.5423 2388.2799,-105.4092 2380.3479,-103.0541"/>
<polygon fill="#191970" stroke="#191970" points="3329.2254,-167.2426 3339.3123,-164.0015 3329.4059,-160.2449 3329.2254,-167.2426"/>
</g>
<!-- Node17&#45;&gt;Node8 -->
<g id="edge26" class="edge">
<title>Node17&#45;&gt;Node8</title>
<path fill="none" stroke="#191970" d="M3329.2714,-162.0981C3136.3371,-153.8029 2705.2691,-133.1824 2559.5,-109 2556.4563,-108.4951 2553.3598,-107.9218 2550.2419,-107.2958"/>
<polygon fill="#191970" stroke="#191970" points="3329.2555,-165.6006 3339.396,-162.5315 3329.5549,-158.607 3329.2555,-165.6006"/>
</g>
<!-- Node18 -->
<g id="node18" class="node">
<title>Node18</title>
<g id="a_node18"><a xlink:href="RadiumEngine_8cpp.html" target="_top" xlink:title="src/Engine/RadiumEngine.cpp">
<polygon fill="#ffffff" stroke="#000000" points="3344,-78.5 3344,-97.5 3505,-97.5 3505,-78.5 3344,-78.5"/>
<text text-anchor="middle" x="3424.5" y="-85.5" font-family="Helvetica,sans-Serif" font-size="10.00" fill="#000000">src/Engine/RadiumEngine.cpp</text>
</a>
</g>
</g>
<!-- Node17&#45;&gt;Node18 -->
<g id="edge19" class="edge">
<title>Node17&#45;&gt;Node18</title>
<path fill="none" stroke="#191970" d="M3424.5,-134.8707C3424.5,-121.6273 3424.5,-107.1205 3424.5,-97.8072"/>
<polygon fill="#191970" stroke="#191970" points="3421.0001,-135.0974 3424.5,-145.0974 3428.0001,-135.0975 3421.0001,-135.0974"/>
</g>
<!-- Node19 -->
<g id="node19" class="node">
<title>Node19</title>
<g id="a_node19"><a xlink:href="Camera_8cpp.html" target="_top" xlink:title="src/Engine/Renderer\l/Camera/Camera.cpp">
<polygon fill="#ffffff" stroke="#000000" points="4042,-73 4042,-103 4161,-103 4161,-73 4042,-73"/>
<text text-anchor="start" x="4050" y="-91" font-family="Helvetica,sans-Serif" font-size="10.00" fill="#000000">src/Engine/Renderer</text>
<text text-anchor="middle" x="4101.5" y="-80" font-family="Helvetica,sans-Serif" font-size="10.00" fill="#000000">/Camera/Camera.cpp</text>
</a>
</g>
</g>
<!-- Node17&#45;&gt;Node19 -->
<g id="edge20" class="edge">
<title>Node17&#45;&gt;Node19</title>
<path fill="none" stroke="#191970" d="M3519.8314,-163.1505C3640.4581,-158.1602 3854.1236,-144.6948 4033.5,-109 4041.3768,-107.4326 4049.6375,-105.3073 4057.5793,-103.0084"/>
<polygon fill="#191970" stroke="#191970" points="3519.3754,-159.6659 3509.5244,-163.5656 3519.6572,-166.6603 3519.3754,-159.6659"/>
</g>
<!-- Node20 -->
<g id="node20" class="node">
<title>Node20</title>
<g id="a_node20"><a xlink:href="BlinnPhongMaterial_8cpp.html" target="_top" xlink:title="src/Engine/Renderer\l/Material/BlinnPhongMaterial.cpp">
<polygon fill="#ffffff" stroke="#000000" points="3523,-73 3523,-103 3700,-103 3700,-73 3523,-73"/>
<text text-anchor="start" x="3531" y="-91" font-family="Helvetica,sans-Serif" font-size="10.00" fill="#000000">src/Engine/Renderer</text>
<text text-anchor="middle" x="3611.5" y="-80" font-family="Helvetica,sans-Serif" font-size="10.00" fill="#000000">/Material/BlinnPhongMaterial.cpp</text>
</a>
</g>
</g>
<!-- Node17&#45;&gt;Node20 -->
<g id="edge21" class="edge">
<title>Node17&#45;&gt;Node20</title>
<path fill="none" stroke="#191970" d="M3483.673,-141.3182C3513.7456,-128.7746 3549.3196,-113.9362 3575.2939,-103.102"/>
<polygon fill="#191970" stroke="#191970" points="3482.0035,-138.2222 3474.1216,-145.3022 3484.6983,-144.6828 3482.0035,-138.2222"/>
</g>
<!-- Node21 -->
<g id="node21" class="node">
<title>Node21</title>
<g id="a_node21"><a xlink:href="LambertianMaterial_8cpp.html" target="_top" xlink:title="src/Engine/Renderer\l/Material/LambertianMaterial.cpp">
<polygon fill="#ffffff" stroke="#000000" points="3717.5,-73 3717.5,-103 3895.5,-103 3895.5,-73 3717.5,-73"/>
<text text-anchor="start" x="3725.5" y="-91" font-family="Helvetica,sans-Serif" font-size="10.00" fill="#000000">src/Engine/Renderer</text>
<text text-anchor="middle" x="3806.5" y="-80" font-family="Helvetica,sans-Serif" font-size="10.00" fill="#000000">/Material/LambertianMaterial.cpp</text>
</a>
</g>
</g>
<!-- Node17&#45;&gt;Node21 -->
<g id="edge22" class="edge">
<title>Node17&#45;&gt;Node21</title>
<path fill="none" stroke="#191970" d="M3519.4973,-147.3908C3574.9508,-136.4305 3646.2386,-122.1732 3709.5,-109 3718.609,-107.1032 3728.1912,-105.0722 3737.6415,-103.0481"/>
<polygon fill="#191970" stroke="#191970" points="3518.8176,-143.9574 3509.6852,-149.3285 3520.1738,-150.8248 3518.8176,-143.9574"/>
</g>
<!-- Node22 -->
<g id="node22" class="node">
<title>Node22</title>
<g id="a_node22"><a xlink:href="PlainMaterial_8cpp.html" target="_top" xlink:title="src/Engine/Renderer\l/Material/PlainMaterial.cpp">
<polygon fill="#ffffff" stroke="#000000" points="2759.5,-73 2759.5,-103 2905.5,-103 2905.5,-73 2759.5,-73"/>
<text text-anchor="start" x="2767.5" y="-91" font-family="Helvetica,sans-Serif" font-size="10.00" fill="#000000">src/Engine/Renderer</text>
<text text-anchor="middle" x="2832.5" y="-80" font-family="Helvetica,sans-Serif" font-size="10.00" fill="#000000">/Material/PlainMaterial.cpp</text>
</a>
</g>
</g>
<!-- Node17&#45;&gt;Node22 -->
<g id="edge23" class="edge">
<title>Node17&#45;&gt;Node22</title>
<path fill="none" stroke="#191970" d="M3329.2894,-159.2364C3226.6045,-151.0358 3058.5917,-134.9889 2915.5,-109 2906.4328,-107.3532 2896.8892,-105.2723 2887.6317,-103.0642"/>
<polygon fill="#191970" stroke="#191970" points="3329.0822,-162.7308 3339.3269,-160.0296 3329.6337,-155.7526 3329.0822,-162.7308"/>
</g>
<!-- Node23 -->
<g id="node23" class="node">
<title>Node23</title>
<g id="a_node23"><a xlink:href="VolumetricMaterial_8cpp.html" target="_top" xlink:title="src/Engine/Renderer\l/Material/VolumetricMaterial.cpp">
<polygon fill="#ffffff" stroke="#000000" points="2924,-73 2924,-103 3099,-103 3099,-73 2924,-73"/>
<text text-anchor="start" x="2932" y="-91" font-family="Helvetica,sans-Serif" font-size="10.00" fill="#000000">src/Engine/Renderer</text>
<text text-anchor="middle" x="3011.5" y="-80" font-family="Helvetica,sans-Serif" font-size="10.00" fill="#000000">/Material/VolumetricMaterial.cpp</text>
</a>
</g>
</g>
<!-- Node17&#45;&gt;Node23 -->
<g id="edge24" class="edge">
<title>Node17&#45;&gt;Node23</title>
<path fill="none" stroke="#191970" d="M3329.2901,-149.7142C3266.4867,-138.7531 3182.4634,-123.6725 3108.5,-109 3099.1199,-107.1392 3089.2479,-105.0982 3079.5381,-103.0427"/>
<polygon fill="#191970" stroke="#191970" points="3328.7303,-153.1693 3339.1826,-151.4374 3329.9316,-146.2732 3328.7303,-153.1693"/>
</g>
<!-- Node24 -->
<g id="node24" class="node">
<title>Node24</title>
<g id="a_node24"><a xlink:href="RenderTechnique_8cpp.html" target="_top" xlink:title="src/Engine/Renderer\l/RenderTechnique/RenderTechnique.cpp">
<polygon fill="#ffffff" stroke="#000000" points="3117.5,-73 3117.5,-103 3325.5,-103 3325.5,-73 3117.5,-73"/>
<text text-anchor="start" x="3125.5" y="-91" font-family="Helvetica,sans-Serif" font-size="10.00" fill="#000000">src/Engine/Renderer</text>
<text text-anchor="middle" x="3221.5" y="-80" font-family="Helvetica,sans-Serif" font-size="10.00" fill="#000000">/RenderTechnique/RenderTechnique.cpp</text>
</a>
</g>
</g>
<!-- Node17&#45;&gt;Node24 -->
<g id="edge27" class="edge">
<title>Node17&#45;&gt;Node24</title>
<path fill="none" stroke="#191970" d="M3361.341,-141.732C3328.3874,-129.07 3289.1128,-113.9793 3260.5874,-103.0188"/>
<polygon fill="#191970" stroke="#191970" points="3360.3086,-145.0847 3370.8986,-145.4044 3362.8193,-138.5505 3360.3086,-145.0847"/>
</g>
<!-- Node25 -->
<g id="node25" class="node">
<title>Node25</title>
<g id="a_node25"><a xlink:href="ShaderConfigFactory_8cpp.html" target="_top" xlink:title="src/Engine/Renderer\l/RenderTechnique/ShaderConfig\lFactory.cpp">
<polygon fill="#ffffff" stroke="#000000" points="4179.5,-67.5 4179.5,-108.5 4349.5,-108.5 4349.5,-67.5 4179.5,-67.5"/>
<text text-anchor="start" x="4187.5" y="-96.5" font-family="Helvetica,sans-Serif" font-size="10.00" fill="#000000">src/Engine/Renderer</text>
<text text-anchor="start" x="4187.5" y="-85.5" font-family="Helvetica,sans-Serif" font-size="10.00" fill="#000000">/RenderTechnique/ShaderConfig</text>
<text text-anchor="middle" x="4264.5" y="-74.5" font-family="Helvetica,sans-Serif" font-size="10.00" fill="#000000">Factory.cpp</text>
</a>
</g>
</g>
<!-- Node17&#45;&gt;Node25 -->
<g id="edge28" class="edge">
<title>Node17&#45;&gt;Node25</title>
<path fill="none" stroke="#191970" d="M3519.7008,-163.0992C3661.984,-157.7777 3938.2424,-143.6338 4170.5,-109 4173.3943,-108.5684 4176.3322,-108.0977 4179.2941,-107.5952"/>
<polygon fill="#191970" stroke="#191970" points="3519.555,-159.6021 3509.6904,-163.4672 3519.8123,-166.5974 3519.555,-159.6021"/>
</g>
<!-- Node26 -->
<g id="node26" class="node">
<title>Node26</title>
<g id="a_node26"><a xlink:href="BaseApplication_8cpp.html" target="_top" xlink:title="src/GuiBase/BaseApplication.cpp">
<polygon fill="#ffffff" stroke="#000000" points="4367.5,-78.5 4367.5,-97.5 4543.5,-97.5 4543.5,-78.5 4367.5,-78.5"/>
<text text-anchor="middle" x="4455.5" y="-85.5" font-family="Helvetica,sans-Serif" font-size="10.00" fill="#000000">src/GuiBase/BaseApplication.cpp</text>
</a>
</g>
</g>
<!-- Node17&#45;&gt;Node26 -->
<g id="edge29" class="edge">
<title>Node17&#45;&gt;Node26</title>
<path fill="none" stroke="#191970" d="M3519.7426,-164.9644C3689.2096,-162.0604 4053.9249,-151.0141 4358.5,-109 4378.2998,-106.2687 4400.0723,-101.7009 4417.9644,-97.5217"/>
<polygon fill="#191970" stroke="#191970" points="3519.544,-161.4671 3509.6034,-165.1323 3519.66,-168.4661 3519.544,-161.4671"/>
</g>
<!-- Node27 -->
<g id="node27" class="node">
<title>Node27</title>
<g id="a_node27"><a xlink:href="Gizmo_8cpp.html" target="_top" xlink:title="src/GuiBase/Viewer\l/Gizmo/Gizmo.cpp">
<polygon fill="#ffffff" stroke="#000000" points="3913,-73 3913,-103 4024,-103 4024,-73 3913,-73"/>
<text text-anchor="start" x="3921" y="-91" font-family="Helvetica,sans-Serif" font-size="10.00" fill="#000000">src/GuiBase/Viewer</text>
<text text-anchor="middle" x="3968.5" y="-80" font-family="Helvetica,sans-Serif" font-size="10.00" fill="#000000">/Gizmo/Gizmo.cpp</text>
</a>
</g>
</g>
<!-- Node17&#45;&gt;Node27 -->
<g id="edge30" class="edge">
<title>Node17&#45;&gt;Node27</title>
<path fill="none" stroke="#191970" d="M3520.0292,-160.2714C3617.5746,-153.1149 3772.9318,-138.0934 3904.5,-109 3911.6934,-107.4093 3919.2223,-105.3298 3926.4859,-103.0983"/>
<polygon fill="#191970" stroke="#191970" points="3519.6163,-156.792 3509.8939,-161.002 3520.1196,-163.7739 3519.6163,-156.792"/>
</g>
<!-- Node28&#45;&gt;Node6 -->
<g id="edge37" class="edge">
<title>Node28&#45;&gt;Node6</title>
<path fill="none" stroke="#191970" d="M2554.4202,-145.195C2508.5151,-135.1372 2453.5167,-122.3607 2404.5,-109 2397.8874,-107.1976 2390.9474,-105.1567 2384.1537,-103.0729"/>
<polygon fill="#191970" stroke="#191970" points="2553.8563,-148.6542 2564.3723,-147.3642 2555.3471,-141.8148 2553.8563,-148.6542"/>
</g>
<!-- Node28&#45;&gt;Node7 -->
<g id="edge38" class="edge">
<title>Node28&#45;&gt;Node7</title>
<path fill="none" stroke="#191970" d="M2554.3535,-162.2457C2344.6181,-154.0148 1865.2525,-133.1747 1703.5,-109 1693.3576,-107.4842 1682.6622,-105.3541 1672.3731,-103.0273"/>
<polygon fill="#191970" stroke="#191970" points="2554.3094,-165.7465 2564.4386,-162.6399 2554.5829,-158.7519 2554.3094,-165.7465"/>
</g>
<!-- Node28&#45;&gt;Node18 -->
<g id="edge32" class="edge">
<title>Node28&#45;&gt;Node18</title>
<path fill="none" stroke="#191970" d="M2754.8319,-162.1608C2887.9769,-156.0246 3130.0622,-141.2436 3334.5,-109 3352.5676,-106.1504 3372.3911,-101.6744 3388.8237,-97.5855"/>
<polygon fill="#191970" stroke="#191970" points="2754.4812,-158.6731 2744.6502,-162.623 2754.7986,-165.6659 2754.4812,-158.6731"/>
</g>
<!-- Node28&#45;&gt;Node20 -->
<g id="edge33" class="edge">
<title>Node28&#45;&gt;Node20</title>
<path fill="none" stroke="#191970" d="M2755.0774,-164.1209C2916.1347,-160.0386 3241.5524,-147.3789 3514.5,-109 3525.5907,-107.4405 3537.3028,-105.3192 3548.6058,-103.0218"/>
<polygon fill="#191970" stroke="#191970" points="2754.6191,-160.631 2744.7088,-164.3775 2754.7924,-167.6289 2754.6191,-160.631"/>
</g>
<!-- Node28&#45;&gt;Node21 -->
<g id="edge34" class="edge">
<title>Node28&#45;&gt;Node21</title>
<path fill="none" stroke="#191970" d="M2755.0795,-162.6124C2981.7655,-154.6447 3526.9903,-133.5276 3709.5,-109 3720.7707,-107.4853 3732.6773,-105.3558 3744.1428,-103.0292"/>
<polygon fill="#191970" stroke="#191970" points="2754.727,-159.1225 2744.8557,-162.9705 2754.9721,-166.1182 2754.727,-159.1225"/>
</g>
<!-- Node28&#45;&gt;Node22 -->
<g id="edge35" class="edge">
<title>Node28&#45;&gt;Node22</title>
<path fill="none" stroke="#191970" d="M2711.1971,-141.1552C2739.7433,-128.6462 2773.4193,-113.8893 2798.0364,-103.102"/>
<polygon fill="#191970" stroke="#191970" points="2709.4879,-138.0828 2701.7334,-145.3022 2712.2974,-144.4943 2709.4879,-138.0828"/>
</g>
<!-- Node28&#45;&gt;Node23 -->
<g id="edge36" class="edge">
<title>Node28&#45;&gt;Node23</title>
<path fill="none" stroke="#191970" d="M2754.4578,-144.1605C2814.4252,-131.0584 2889.1653,-114.7286 2942.5677,-103.0608"/>
<polygon fill="#191970" stroke="#191970" points="2753.6086,-140.7634 2744.5862,-146.3173 2755.1028,-147.602 2753.6086,-140.7634"/>
</g>
<!-- Node28&#45;&gt;Node24 -->
<g id="edge40" class="edge">
<title>Node28&#45;&gt;Node24</title>
<path fill="none" stroke="#191970" d="M2754.8926,-155.1127C2847.0461,-144.7118 2987.2581,-127.8601 3108.5,-109 3120.0343,-107.2057 3132.1979,-105.1349 3144.1008,-103.0076"/>
<polygon fill="#191970" stroke="#191970" points="2754.2811,-151.6593 2744.7349,-156.255 2755.0635,-158.6155 2754.2811,-151.6593"/>
</g>
<!-- Node29 -->
<g id="node29" class="node">
<title>Node29</title>
<g id="a_node29"><a xlink:href="ForwardRenderer_8cpp.html" target="_top" xlink:title="src/Engine/Renderer\l/Renderers/ForwardRenderer.cpp">
<polygon fill="#ffffff" stroke="#000000" points="2568,-73 2568,-103 2741,-103 2741,-73 2568,-73"/>
<text text-anchor="start" x="2576" y="-91" font-family="Helvetica,sans-Serif" font-size="10.00" fill="#000000">src/Engine/Renderer</text>
<text text-anchor="middle" x="2654.5" y="-80" font-family="Helvetica,sans-Serif" font-size="10.00" fill="#000000">/Renderers/ForwardRenderer.cpp</text>
</a>
</g>
</g>
<!-- Node28&#45;&gt;Node29 -->
<g id="edge39" class="edge">
<title>Node28&#45;&gt;Node29</title>
<path fill="none" stroke="#191970" d="M2654.5,-135.0187C2654.5,-124.1033 2654.5,-112.3119 2654.5,-103.2679"/>
<polygon fill="#191970" stroke="#191970" points="2651.0001,-135.0974 2654.5,-145.0974 2658.0001,-135.0975 2651.0001,-135.0974"/>
</g>
<!-- Node30 -->
<g id="node30" class="node">
<title>Node30</title>
<g id="a_node30"><a xlink:href="ShaderConfiguration_8cpp.html" target="_top" xlink:title="src/Engine/Renderer\l/RenderTechnique/ShaderConfiguration.cpp">
<polygon fill="#ffffff" stroke="#000000" points="1712.5,-73 1712.5,-103 1936.5,-103 1936.5,-73 1712.5,-73"/>
<text text-anchor="start" x="1720.5" y="-91" font-family="Helvetica,sans-Serif" font-size="10.00" fill="#000000">src/Engine/Renderer</text>
<text text-anchor="middle" x="1824.5" y="-80" font-family="Helvetica,sans-Serif" font-size="10.00" fill="#000000">/RenderTechnique/ShaderConfiguration.cpp</text>
</a>
</g>
</g>
<!-- Node28&#45;&gt;Node30 -->
<g id="edge41" class="edge">
<title>Node28&#45;&gt;Node30</title>
<path fill="none" stroke="#191970" d="M2554.3037,-160.844C2416.6988,-153.1029 2161.6765,-136.3904 1945.5,-109 1932.3858,-107.3384 1918.5266,-105.2499 1905.0525,-103.0387"/>
<polygon fill="#191970" stroke="#191970" points="2554.2317,-164.3454 2564.4113,-161.4084 2554.622,-157.3563 2554.2317,-164.3454"/>
</g>
<!-- Node31 -->
<g id="node31" class="node">
<title>Node31</title>
<g id="a_node31"><a xlink:href="ShaderProgramManager_8cpp.html" target="_top" xlink:title="src/Engine/Renderer\l/RenderTechnique/ShaderProgram\lManager.cpp">
<polygon fill="#ffffff" stroke="#000000" points="1954.5,-67.5 1954.5,-108.5 2134.5,-108.5 2134.5,-67.5 1954.5,-67.5"/>
<text text-anchor="start" x="1962.5" y="-96.5" font-family="Helvetica,sans-Serif" font-size="10.00" fill="#000000">src/Engine/Renderer</text>
<text text-anchor="start" x="1962.5" y="-85.5" font-family="Helvetica,sans-Serif" font-size="10.00" fill="#000000">/RenderTechnique/ShaderProgram</text>
<text text-anchor="middle" x="2044.5" y="-74.5" font-family="Helvetica,sans-Serif" font-size="10.00" fill="#000000">Manager.cpp</text>
</a>
</g>
</g>
<!-- Node28&#45;&gt;Node31 -->
<g id="edge42" class="edge">
<title>Node28&#45;&gt;Node31</title>
<path fill="none" stroke="#191970" d="M2554.2321,-157.65C2451.1096,-148.3938 2286.0323,-131.7166 2144.5,-109 2141.2596,-108.4799 2137.9653,-107.9253 2134.6419,-107.3439"/>
<polygon fill="#191970" stroke="#191970" points="2554.0533,-161.1478 2564.3247,-158.5499 2554.6751,-154.1755 2554.0533,-161.1478"/>
</g>
<!-- Node32 -->
<g id="node32" class="node">
<title>Node32</title>
<g id="a_node32"><a xlink:href="Viewer_8cpp.html" target="_top" xlink:title="src/GuiBase/Viewer\l/Viewer.cpp">
<polygon fill="#ffffff" stroke="#000000" points="2153,-73 2153,-103 2264,-103 2264,-73 2153,-73"/>
<text text-anchor="start" x="2161" y="-91" font-family="Helvetica,sans-Serif" font-size="10.00" fill="#000000">src/GuiBase/Viewer</text>
<text text-anchor="middle" x="2208.5" y="-80" font-family="Helvetica,sans-Serif" font-size="10.00" fill="#000000">/Viewer.cpp</text>
</a>
</g>
</g>
<!-- Node28&#45;&gt;Node32 -->
<g id="edge43" class="edge">
<title>Node28&#45;&gt;Node32</title>
<path fill="none" stroke="#191970" d="M2554.1958,-155.548C2476.867,-146.3965 2367.5961,-131.0814 2273.5,-109 2266.3418,-107.3202 2258.8384,-105.2223 2251.5767,-103.0074"/>
<polygon fill="#191970" stroke="#191970" points="2554.0751,-159.0577 2564.4141,-156.7435 2554.8885,-152.1051 2554.0751,-159.0577"/>
</g>
</g>
</svg>
