<?xml version="1.0" encoding="UTF-8" standalone="no"?>
<!DOCTYPE svg PUBLIC "-//W3C//DTD SVG 1.1//EN"
 "http://www.w3.org/Graphics/SVG/1.1/DTD/svg11.dtd">
<!-- Generated by graphviz version 2.40.1 (20161225.0304)
 -->
<!-- Title: Ra::Engine::FrameInfo Pages: 1 -->
<svg width="164pt" height="171pt"
 viewBox="0.00 0.00 163.50 171.00" xmlns="http://www.w3.org/2000/svg" xmlns:xlink="http://www.w3.org/1999/xlink">
<g id="graph0" class="graph" transform="scale(1 1) rotate(0) translate(4 167)">
<title>Ra::Engine::FrameInfo</title>
<polygon fill="#ffffff" stroke="transparent" points="-4,4 -4,-167 159.5,-167 159.5,4 -4,4"/>
<!-- Node1 -->
<g id="node1" class="node">
<title>Node1</title>
<polygon fill="#bfbfbf" stroke="#000000" points="0,-.5 0,-57.5 123,-57.5 123,-.5 0,-.5"/>
<text text-anchor="middle" x="61.5" y="-45.5" font-family="Helvetica,sans-Serif" font-size="10.00" fill="#000000">Ra::Engine::FrameInfo</text>
<polyline fill="none" stroke="#000000" points="0,-38.5 123,-38.5 "/>
<text text-anchor="middle" x="61.5" y="-26.5" font-family="Helvetica,sans-Serif" font-size="10.00" fill="#000000"> </text>
<polyline fill="none" stroke="#000000" points="0,-19.5 123,-19.5 "/>
<text text-anchor="middle" x="61.5" y="-7.5" font-family="Helvetica,sans-Serif" font-size="10.00" fill="#000000"> </text>
</g>
<!-- Node2 -->
<g id="node2" class="node">
<title>Node2</title>
<polygon fill="#ffffff" stroke="#bfbfbf" points="12.5,-105.5 12.5,-162.5 50.5,-162.5 50.5,-105.5 12.5,-105.5"/>
<text text-anchor="middle" x="31.5" y="-150.5" font-family="Helvetica,sans-Serif" font-size="10.00" fill="#000000">float</text>
<polyline fill="none" stroke="#bfbfbf" points="12.5,-143.5 50.5,-143.5 "/>
<text text-anchor="middle" x="31.5" y="-131.5" font-family="Helvetica,sans-Serif" font-size="10.00" fill="#000000"> </text>
<polyline fill="none" stroke="#bfbfbf" points="12.5,-124.5 50.5,-124.5 "/>
<text text-anchor="middle" x="31.5" y="-112.5" font-family="Helvetica,sans-Serif" font-size="10.00" fill="#000000"> </text>
</g>
<!-- Node2&#45;&gt;Node1 -->
<g id="edge1" class="edge">
<title>Node2&#45;&gt;Node1</title>
<path fill="none" stroke="#404040" d="M28.9977,-105.2242C28.9611,-95.7537 29.7814,-85.278 32.5,-76 33.2162,-73.556 34.0959,-71.1131 35.0976,-68.6975"/>
<polygon fill="none" stroke="#404040" points="35.2165,-68.4559 34.2785,-61.3061 40.5176,-57.6903 41.4556,-64.8402 35.2165,-68.4559"/>
<text text-anchor="middle" x="51" y="-79" font-family="Helvetica,sans-Serif" font-size="10.00" fill="#000000"> +m_dt</text>
</g>
<!-- Node3 -->
<g id="node3" class="node">
<title>Node3</title>
<g id="a_node3"><a xlink:href="classint.html" target="_top" xlink:title="{int\n||}">
<polygon fill="#ffffff" stroke="#000000" points="77,-105.5 77,-162.5 106,-162.5 106,-105.5 77,-105.5"/>
<text text-anchor="middle" x="91.5" y="-150.5" font-family="Helvetica,sans-Serif" font-size="10.00" fill="#000000">int</text>
<polyline fill="none" stroke="#000000" points="77,-143.5 106,-143.5 "/>
<text text-anchor="middle" x="91.5" y="-131.5" font-family="Helvetica,sans-Serif" font-size="10.00" fill="#000000"> </text>
<polyline fill="none" stroke="#000000" points="77,-124.5 106,-124.5 "/>
<text text-anchor="middle" x="91.5" y="-112.5" font-family="Helvetica,sans-Serif" font-size="10.00" fill="#000000"> </text>
</a>
</g>
</g>
<!-- Node3&#45;&gt;Node1 -->
<g id="edge2" class="edge">
<title>Node3&#45;&gt;Node1</title>
<path fill="none" stroke="#404040" d="M83.3024,-105.3083C80.1276,-94.1966 76.437,-81.2796 73.0049,-69.2673"/>
<polygon fill="none" stroke="#404040" points="72.9844,-69.1953 67.49,-64.5251 69.6877,-57.657 75.1822,-62.3273 72.9844,-69.1953"/>
<text text-anchor="middle" x="116" y="-79" font-family="Helvetica,sans-Serif" font-size="10.00" fill="#000000"> +m_numFrame</text>
</g>
</g>
</svg>
