<?xml version="1.0" encoding="UTF-8" standalone="no"?>
<!DOCTYPE svg PUBLIC "-//W3C//DTD SVG 1.1//EN"
 "http://www.w3.org/Graphics/SVG/1.1/DTD/svg11.dtd">
<!-- Generated by graphviz version 2.40.1 (20161225.0304)
 -->
<!-- Title: src/Engine/Managers/SystemDisplay/SystemDisplay.hpp Pages: 1 -->
<!--zoomable 453 -->
<svg id="main" version="1.1" xmlns="http://www.w3.org/2000/svg" xmlns:xlink="http://www.w3.org/1999/xlink" xml:space="preserve" onload="init(evt)">
<style type="text/css"><![CDATA[
.edge:hover path { stroke: red; }
.edge:hover polygon { stroke: red; fill: red; }
]]></style>
<script type="text/javascript"><![CDATA[
var edges = document.getElementsByTagName('g');
if (edges && edges.length) {
  for (var i=0;i<edges.length;i++) {
    if (edges[i].id.substr(0,4)=='edge') {
      edges[i].setAttribute('class','edge');
    }
  }
}
]]></script>
        <defs>
                <circle id="rim" cx="0" cy="0" r="7"/>
                <circle id="rim2" cx="0" cy="0" r="3.5"/>
                <g id="zoomPlus">
                        <use xlink:href="#rim" fill="#404040">
                                <set attributeName="fill" to="#808080" begin="zoomplus.mouseover" end="zoomplus.mouseout"/>
                        </use>
                        <path d="M-4,0h8M0,-4v8" fill="none" stroke="white" stroke-width="1.5" pointer-events="none"/>
                </g>
                <g id="zoomMin">
                        <use xlink:href="#rim" fill="#404040">
                                <set attributeName="fill" to="#808080" begin="zoomminus.mouseover" end="zoomminus.mouseout"/>
                        </use>
                        <path d="M-4,0h8" fill="none" stroke="white" stroke-width="1.5" pointer-events="none"/>
                </g>
                <g id="dirArrow">
                        <path fill="none" stroke="white" stroke-width="1.5" d="M0,-3.0v7 M-2.5,-0.5L0,-3.0L2.5,-0.5"/>
                </g>
               <g id="resetDef">
                       <use xlink:href="#rim2" fill="#404040">
                               <set attributeName="fill" to="#808080" begin="reset.mouseover" end="reset.mouseout"/>
                       </use>
               </g>
        </defs>

<script type="text/javascript">
var viewWidth = 1907;
var viewHeight = 453;
var sectionId = 'dynsection-0';
</script>
<script xlink:href="svgpan.js"/>
<svg id="graph" class="graph">
<g id="viewport">
<title>src/Engine/Managers/SystemDisplay/SystemDisplay.hpp</title>
<polygon fill="#ffffff" stroke="transparent" points="-4,4 -4,-449 1903.3122,-449 1903.3122,4 -4,4"/>
<!-- Node0 -->
<g id="node1" class="node">
<title>Node0</title>
<polygon fill="#bfbfbf" stroke="#000000" points="778.5,-414.5 778.5,-444.5 967.5,-444.5 967.5,-414.5 778.5,-414.5"/>
<text text-anchor="start" x="786.5" y="-432.5" font-family="Helvetica,sans-Serif" font-size="10.00" fill="#000000">src/Engine/Managers</text>
<text text-anchor="middle" x="873" y="-421.5" font-family="Helvetica,sans-Serif" font-size="10.00" fill="#000000">/SystemDisplay/SystemDisplay.hpp</text>
</g>
<!-- Node1 -->
<g id="node2" class="node">
<title>Node1</title>
<g id="a_node2"><a xlink:href="RaEngine_8hpp.html" target="_top" xlink:title="Engine/RaEngine.hpp">
<polygon fill="#ffffff" stroke="#000000" points="1264.5,-235.5 1264.5,-254.5 1383.5,-254.5 1383.5,-235.5 1264.5,-235.5"/>
<text text-anchor="middle" x="1324" y="-242.5" font-family="Helvetica,sans-Serif" font-size="10.00" fill="#000000">Engine/RaEngine.hpp</text>
</a>
</g>
</g>
<!-- Node0&#45;&gt;Node1 -->
<g id="edge1" class="edge">
<title>Node0&#45;&gt;Node1</title>
<path fill="none" stroke="#191970" d="M909.9072,-414.4016C996.1273,-379.1298 1209.6443,-291.7819 1291.4184,-258.3288"/>
<polygon fill="#191970" stroke="#191970" points="1292.7901,-261.5493 1300.7204,-254.5235 1290.1396,-255.0705 1292.7901,-261.5493"/>
</g>
<!-- Node8 -->
<g id="node9" class="node">
<title>Node8</title>
<g id="a_node9"><a xlink:href="Color_8hpp.html" target="_top" xlink:title="Core/Utils/Color.hpp">
<polygon fill="#ffffff" stroke="#000000" points="517.5,-235.5 517.5,-254.5 630.5,-254.5 630.5,-235.5 517.5,-235.5"/>
<text text-anchor="middle" x="574" y="-242.5" font-family="Helvetica,sans-Serif" font-size="10.00" fill="#000000">Core/Utils/Color.hpp</text>
</a>
</g>
</g>
<!-- Node0&#45;&gt;Node8 -->
<g id="edge8" class="edge">
<title>Node0&#45;&gt;Node8</title>
<path fill="none" stroke="#191970" d="M780.2224,-414.3825C749.8837,-406.651 717.0574,-395.1127 690,-378 642.3077,-347.8365 603.1971,-292.2331 585.0061,-263.4083"/>
<polygon fill="#191970" stroke="#191970" points="587.8852,-261.4091 579.6568,-254.735 581.9273,-265.0837 587.8852,-261.4091"/>
</g>
<!-- Node17 -->
<g id="node18" class="node">
<title>Node17</title>
<g id="a_node18"><a xlink:href="Singleton_8hpp.html" target="_top" xlink:title="Core/Utils/Singleton.hpp">
<polygon fill="#ffffff" stroke="#000000" points="256,-353 256,-372 390,-372 390,-353 256,-353"/>
<text text-anchor="middle" x="323" y="-360" font-family="Helvetica,sans-Serif" font-size="10.00" fill="#000000">Core/Utils/Singleton.hpp</text>
</a>
</g>
</g>
<!-- Node0&#45;&gt;Node17 -->
<g id="edge20" class="edge">
<title>Node0&#45;&gt;Node17</title>
<path fill="none" stroke="#191970" d="M778.4516,-417.9823C671.5543,-404.9602 499.5261,-384.0041 400.3134,-371.9182"/>
<polygon fill="#191970" stroke="#191970" points="400.7046,-368.44 390.3548,-370.705 399.8581,-375.3887 400.7046,-368.44"/>
</g>
<!-- Node18 -->
<g id="node19" class="node">
<title>Node18</title>
<g id="a_node19"><a xlink:href="Component_8hpp.html" target="_top" xlink:title="Engine/Component/Component.hpp">
<polygon fill="#ffffff" stroke="#000000" points="874.5,-291.5 874.5,-310.5 1063.5,-310.5 1063.5,-291.5 874.5,-291.5"/>
<text text-anchor="middle" x="969" y="-298.5" font-family="Helvetica,sans-Serif" font-size="10.00" fill="#000000">Engine/Component/Component.hpp</text>
</a>
</g>
</g>
<!-- Node0&#45;&gt;Node18 -->
<g id="edge22" class="edge">
<title>Node0&#45;&gt;Node18</title>
<path fill="none" stroke="#191970" d="M884.3894,-414.2548C902.2497,-390.3481 936.7594,-344.1554 955.7209,-318.7747"/>
<polygon fill="#191970" stroke="#191970" points="958.5454,-320.8418 961.7266,-310.7358 952.9376,-316.6522 958.5454,-320.8418"/>
</g>
<!-- Node26 -->
<g id="node27" class="node">
<title>Node26</title>
<g id="a_node27"><a xlink:href="Entity_8hpp.html" target="_top" xlink:title="Engine/Entity/Entity.hpp">
<polygon fill="#ffffff" stroke="#000000" points="1548,-291.5 1548,-310.5 1680,-310.5 1680,-291.5 1548,-291.5"/>
<text text-anchor="middle" x="1614" y="-298.5" font-family="Helvetica,sans-Serif" font-size="10.00" fill="#000000">Engine/Entity/Entity.hpp</text>
</a>
</g>
</g>
<!-- Node0&#45;&gt;Node26 -->
<g id="edge39" class="edge">
<title>Node0&#45;&gt;Node26</title>
<path fill="none" stroke="#191970" d="M967.6178,-420.7671C1052.2251,-412.251 1179.4138,-397.704 1289,-378 1390.0938,-359.823 1506.8917,-329.9341 1569.2579,-313.2443"/>
<polygon fill="#191970" stroke="#191970" points="1570.4069,-316.5598 1579.1556,-310.584 1568.5898,-309.7998 1570.4069,-316.5598"/>
</g>
<!-- Node31 -->
<g id="node32" class="node">
<title>Node31</title>
<g id="a_node32"><a xlink:href="DrawPrimitives_8hpp.html" target="_top" xlink:title="Engine/Renderer/RenderObject\l/Primitives/DrawPrimitives.hpp">
<polygon fill="#ffffff" stroke="#000000" points="699,-347.5 699,-377.5 867,-377.5 867,-347.5 699,-347.5"/>
<text text-anchor="start" x="707" y="-365.5" font-family="Helvetica,sans-Serif" font-size="10.00" fill="#000000">Engine/Renderer/RenderObject</text>
<text text-anchor="middle" x="783" y="-354.5" font-family="Helvetica,sans-Serif" font-size="10.00" fill="#000000">/Primitives/DrawPrimitives.hpp</text>
</a>
</g>
</g>
<!-- Node0&#45;&gt;Node31 -->
<g id="edge51" class="edge">
<title>Node0&#45;&gt;Node31</title>
<path fill="none" stroke="#191970" d="M852.5776,-414.2967C840.4952,-405.302 825.0028,-393.7687 811.7052,-383.8694"/>
<polygon fill="#191970" stroke="#191970" points="813.4529,-380.8072 803.3416,-377.6432 809.2729,-386.4221 813.4529,-380.8072"/>
</g>
<!-- Node2 -->
<g id="node3" class="node">
<title>Node2</title>
<g id="a_node3"><a xlink:href="CoreMacros_8hpp.html" target="_top" xlink:title="Core/CoreMacros.hpp">
<polygon fill="#ffffff" stroke="#000000" points="928,-56.5 928,-75.5 1048,-75.5 1048,-56.5 928,-56.5"/>
<text text-anchor="middle" x="988" y="-63.5" font-family="Helvetica,sans-Serif" font-size="10.00" fill="#000000">Core/CoreMacros.hpp</text>
</a>
</g>
</g>
<!-- Node1&#45;&gt;Node2 -->
<g id="edge2" class="edge">
<title>Node1&#45;&gt;Node2</title>
<path fill="none" stroke="#191970" d="M1311.7015,-235.4766C1291.5657,-220.1338 1249.9957,-189.493 1212,-168 1147.1669,-131.3259 1066.7675,-97.3033 1022.0609,-79.3255"/>
<polygon fill="#191970" stroke="#191970" points="1023.137,-75.9865 1012.5521,-75.5276 1020.5406,-82.4872 1023.137,-75.9865"/>
</g>
<!-- Node3 -->
<g id="node4" class="node">
<title>Node3</title>
<polygon fill="#ffffff" stroke="#bfbfbf" points="860,-.5 860,-19.5 912,-19.5 912,-.5 860,-.5"/>
<text text-anchor="middle" x="886" y="-7.5" font-family="Helvetica,sans-Serif" font-size="10.00" fill="#000000">cassert</text>
</g>
<!-- Node2&#45;&gt;Node3 -->
<g id="edge3" class="edge">
<title>Node2&#45;&gt;Node3</title>
<path fill="none" stroke="#191970" d="M970.233,-56.2455C954.2905,-47.4928 930.6741,-34.527 912.5011,-24.5496"/>
<polygon fill="#191970" stroke="#191970" points="914.0137,-21.3873 903.5634,-19.6427 910.6448,-27.5233 914.0137,-21.3873"/>
</g>
<!-- Node4 -->
<g id="node5" class="node">
<title>Node4</title>
<polygon fill="#ffffff" stroke="#bfbfbf" points="930,-.5 930,-19.5 976,-19.5 976,-.5 930,-.5"/>
<text text-anchor="middle" x="953" y="-7.5" font-family="Helvetica,sans-Serif" font-size="10.00" fill="#000000">cstdio</text>
</g>
<!-- Node2&#45;&gt;Node4 -->
<g id="edge4" class="edge">
<title>Node2&#45;&gt;Node4</title>
<path fill="none" stroke="#191970" d="M981.9035,-56.2455C977.0855,-48.5367 970.2249,-37.5598 964.3968,-28.2348"/>
<polygon fill="#191970" stroke="#191970" points="967.2947,-26.2677 959.0267,-19.6427 961.3587,-29.9777 967.2947,-26.2677"/>
</g>
<!-- Node5 -->
<g id="node6" class="node">
<title>Node5</title>
<polygon fill="#ffffff" stroke="#bfbfbf" points="994,-.5 994,-19.5 1054,-19.5 1054,-.5 994,-.5"/>
<text text-anchor="middle" x="1024" y="-7.5" font-family="Helvetica,sans-Serif" font-size="10.00" fill="#000000">iostream</text>
</g>
<!-- Node2&#45;&gt;Node5 -->
<g id="edge5" class="edge">
<title>Node2&#45;&gt;Node5</title>
<path fill="none" stroke="#191970" d="M994.2707,-56.2455C999.2264,-48.5367 1006.283,-37.5598 1012.2776,-28.2348"/>
<polygon fill="#191970" stroke="#191970" points="1015.3376,-29.9471 1017.8011,-19.6427 1009.4494,-26.1618 1015.3376,-29.9471"/>
</g>
<!-- Node6 -->
<g id="node7" class="node">
<title>Node6</title>
<polygon fill="#ffffff" stroke="#bfbfbf" points="1072,-.5 1072,-19.5 1128,-19.5 1128,-.5 1072,-.5"/>
<text text-anchor="middle" x="1100" y="-7.5" font-family="Helvetica,sans-Serif" font-size="10.00" fill="#000000">sstream</text>
</g>
<!-- Node2&#45;&gt;Node6 -->
<g id="edge6" class="edge">
<title>Node2&#45;&gt;Node6</title>
<path fill="none" stroke="#191970" d="M1007.2535,-56.3733C1025.0712,-47.4644 1051.7747,-34.1127 1071.9594,-24.0203"/>
<polygon fill="#191970" stroke="#191970" points="1073.6187,-27.1038 1080.9978,-19.5011 1070.4882,-20.8428 1073.6187,-27.1038"/>
</g>
<!-- Node7 -->
<g id="node8" class="node">
<title>Node7</title>
<polygon fill="#ffffff" stroke="#bfbfbf" points="1511,-.5 1511,-19.5 1559,-19.5 1559,-.5 1511,-.5"/>
<text text-anchor="middle" x="1535" y="-7.5" font-family="Helvetica,sans-Serif" font-size="10.00" fill="#000000">thread</text>
</g>
<!-- Node2&#45;&gt;Node7 -->
<g id="edge7" class="edge">
<title>Node2&#45;&gt;Node7</title>
<path fill="none" stroke="#191970" d="M1048.1033,-59.8468C1163.0299,-48.081 1410.5566,-22.7401 1501.0108,-13.4797"/>
<polygon fill="#191970" stroke="#191970" points="1501.4069,-16.9575 1510.9984,-12.4572 1500.6939,-9.9939 1501.4069,-16.9575"/>
</g>
<!-- Node8&#45;&gt;Node2 -->
<g id="edge9" class="edge">
<title>Node8&#45;&gt;Node2</title>
<path fill="none" stroke="#191970" d="M588.0691,-235.2532C611.1007,-219.5969 658.6357,-188.5251 702,-168 785.1565,-128.6406 887.8514,-95.5414 944.7982,-78.4592"/>
<polygon fill="#191970" stroke="#191970" points="945.9608,-81.7649 954.5468,-75.5576 943.9639,-75.0558 945.9608,-81.7649"/>
</g>
<!-- Node9 -->
<g id="node10" class="node">
<title>Node9</title>
<g id="a_node10"><a xlink:href="Math_8hpp.html" target="_top" xlink:title="Core/Math/Math.hpp">
<polygon fill="#ffffff" stroke="#000000" points="79,-174 79,-193 193,-193 193,-174 79,-174"/>
<text text-anchor="middle" x="136" y="-181" font-family="Helvetica,sans-Serif" font-size="10.00" fill="#000000">Core/Math/Math.hpp</text>
</a>
</g>
</g>
<!-- Node8&#45;&gt;Node9 -->
<g id="edge10" class="edge">
<title>Node8&#45;&gt;Node9</title>
<path fill="none" stroke="#191970" d="M517.2396,-237.3777C450.7636,-228.4056 337.3408,-212.9564 240,-199 228.1414,-197.2998 215.5284,-195.4526 203.3271,-193.6457"/>
<polygon fill="#191970" stroke="#191970" points="203.6061,-190.1488 193.2003,-192.1414 202.5775,-197.0729 203.6061,-190.1488"/>
</g>
<!-- Node14 -->
<g id="node15" class="node">
<title>Node14</title>
<polygon fill="#ffffff" stroke="#bfbfbf" points="711.5,-174 711.5,-193 780.5,-193 780.5,-174 711.5,-174"/>
<text text-anchor="middle" x="746" y="-181" font-family="Helvetica,sans-Serif" font-size="10.00" fill="#000000">Eigen/Core</text>
</g>
<!-- Node8&#45;&gt;Node14 -->
<g id="edge17" class="edge">
<title>Node8&#45;&gt;Node14</title>
<path fill="none" stroke="#191970" d="M600.875,-235.3906C630.1586,-224.92 677.169,-208.1111 709.7137,-196.4745"/>
<polygon fill="#191970" stroke="#191970" points="711.0759,-199.7045 719.3137,-193.0419 708.7191,-193.1131 711.0759,-199.7045"/>
</g>
<!-- Node15 -->
<g id="node16" class="node">
<title>Node15</title>
<polygon fill="#ffffff" stroke="#bfbfbf" points="800.5,-174 800.5,-193 895.5,-193 895.5,-174 800.5,-174"/>
<text text-anchor="middle" x="848" y="-181" font-family="Helvetica,sans-Serif" font-size="10.00" fill="#000000">Eigen/Geometry</text>
</g>
<!-- Node8&#45;&gt;Node15 -->
<g id="edge18" class="edge">
<title>Node8&#45;&gt;Node15</title>
<path fill="none" stroke="#191970" d="M621.5378,-235.4851C665.1982,-226.5908 731.6306,-212.6653 789,-199 793.5878,-197.9072 798.3647,-196.7256 803.1262,-195.5191"/>
<polygon fill="#191970" stroke="#191970" points="803.9994,-198.9085 812.8126,-193.0282 802.2559,-192.1291 803.9994,-198.9085"/>
</g>
<!-- Node16 -->
<g id="node17" class="node">
<title>Node16</title>
<polygon fill="#ffffff" stroke="#bfbfbf" points="547,-174 547,-193 601,-193 601,-174 547,-174"/>
<text text-anchor="middle" x="574" y="-181" font-family="Helvetica,sans-Serif" font-size="10.00" fill="#000000">random</text>
</g>
<!-- Node8&#45;&gt;Node16 -->
<g id="edge19" class="edge">
<title>Node8&#45;&gt;Node16</title>
<path fill="none" stroke="#191970" d="M574,-235.3906C574,-226.8657 574,-214.1392 574,-203.4235"/>
<polygon fill="#191970" stroke="#191970" points="577.5001,-203.2448 574,-193.2449 570.5001,-203.2449 577.5001,-203.2448"/>
</g>
<!-- Node10 -->
<g id="node11" class="node">
<title>Node10</title>
<g id="a_node11"><a xlink:href="RaCore_8hpp.html" target="_top" xlink:title="Core/RaCore.hpp">
<polygon fill="#ffffff" stroke="#000000" points="433,-112.5 433,-131.5 531,-131.5 531,-112.5 433,-112.5"/>
<text text-anchor="middle" x="482" y="-119.5" font-family="Helvetica,sans-Serif" font-size="10.00" fill="#000000">Core/RaCore.hpp</text>
</a>
</g>
</g>
<!-- Node9&#45;&gt;Node10 -->
<g id="edge11" class="edge">
<title>Node9&#45;&gt;Node10</title>
<path fill="none" stroke="#191970" d="M177.978,-173.9777C187.5018,-171.9172 197.5845,-169.8141 207,-168 281.1683,-153.71 367.0897,-139.7503 422.8817,-131.0273"/>
<polygon fill="#191970" stroke="#191970" points="423.5969,-134.4581 432.939,-129.4605 422.5194,-127.5416 423.5969,-134.4581"/>
</g>
<!-- Node11 -->
<g id="node12" class="node">
<title>Node11</title>
<polygon fill="#ffffff" stroke="#bfbfbf" points="0,-112.5 0,-131.5 64,-131.5 64,-112.5 0,-112.5"/>
<text text-anchor="middle" x="32" y="-119.5" font-family="Helvetica,sans-Serif" font-size="10.00" fill="#000000">algorithm</text>
</g>
<!-- Node9&#45;&gt;Node11 -->
<g id="edge13" class="edge">
<title>Node9&#45;&gt;Node11</title>
<path fill="none" stroke="#191970" d="M119.75,-173.8906C102.8831,-163.9165 76.2901,-148.1908 56.7965,-136.6633"/>
<polygon fill="#191970" stroke="#191970" points="58.5251,-133.6194 48.1359,-131.5419 54.962,-139.6447 58.5251,-133.6194"/>
</g>
<!-- Node12 -->
<g id="node13" class="node">
<title>Node12</title>
<polygon fill="#ffffff" stroke="#bfbfbf" points="208.5,-112.5 208.5,-131.5 255.5,-131.5 255.5,-112.5 208.5,-112.5"/>
<text text-anchor="middle" x="232" y="-119.5" font-family="Helvetica,sans-Serif" font-size="10.00" fill="#000000">cmath</text>
</g>
<!-- Node9&#45;&gt;Node12 -->
<g id="edge14" class="edge">
<title>Node9&#45;&gt;Node12</title>
<path fill="none" stroke="#191970" d="M151,-173.8906C166.3581,-164.0519 190.4521,-148.6167 208.3745,-137.1351"/>
<polygon fill="#191970" stroke="#191970" points="210.573,-139.8833 217.1053,-131.5419 206.797,-133.9891 210.573,-139.8833"/>
</g>
<!-- Node13 -->
<g id="node14" class="node">
<title>Node13</title>
<g id="a_node14"><a xlink:href="Math_8inl.html" target="_top" xlink:title="Core/Math/Math.inl">
<polygon fill="#ffffff" stroke="#000000" points="82,-112.5 82,-131.5 190,-131.5 190,-112.5 82,-112.5"/>
<text text-anchor="middle" x="136" y="-119.5" font-family="Helvetica,sans-Serif" font-size="10.00" fill="#000000">Core/Math/Math.inl</text>
</a>
</g>
</g>
<!-- Node9&#45;&gt;Node13 -->
<g id="edge15" class="edge">
<title>Node9&#45;&gt;Node13</title>
<path fill="none" stroke="#191970" d="M130.9375,-173.8906C129.2741,-165.3657 128.8404,-152.6392 129.6365,-141.9235"/>
<polygon fill="#191970" stroke="#191970" points="133.1414,-142.1023 130.9112,-131.7449 126.1956,-141.2324 133.1414,-142.1023"/>
</g>
<!-- Node10&#45;&gt;Node2 -->
<g id="edge12" class="edge">
<title>Node10&#45;&gt;Node2</title>
<path fill="none" stroke="#191970" d="M531.4387,-116.5285C621.8077,-106.5272 813.8947,-85.2686 917.7836,-73.771"/>
<polygon fill="#191970" stroke="#191970" points="918.3073,-77.2345 927.8616,-72.6556 917.5373,-70.277 918.3073,-77.2345"/>
</g>
<!-- Node13&#45;&gt;Node9 -->
<g id="edge16" class="edge">
<title>Node13&#45;&gt;Node9</title>
<path fill="none" stroke="#191970" d="M141.0888,-131.7449C142.7392,-140.314 143.1598,-153.0519 142.3508,-163.7462"/>
<polygon fill="#191970" stroke="#191970" points="138.8503,-163.5293 141.0625,-173.8906 145.7945,-164.4113 138.8503,-163.5293"/>
</g>
<!-- Node17&#45;&gt;Node10 -->
<g id="edge21" class="edge">
<title>Node17&#45;&gt;Node10</title>
<path fill="none" stroke="#191970" d="M312.5408,-352.9794C280.7071,-322.8837 190.134,-228.2375 240,-168 251.6079,-153.9778 354.8188,-138.2602 422.6521,-129.3048"/>
<polygon fill="#191970" stroke="#191970" points="423.3388,-132.7449 432.8018,-127.9802 422.4329,-125.8038 423.3388,-132.7449"/>
</g>
<!-- Node18&#45;&gt;Node1 -->
<g id="edge30" class="edge">
<title>Node18&#45;&gt;Node1</title>
<path fill="none" stroke="#191970" d="M1029.6233,-291.4369C1091.8432,-281.6219 1188.5541,-266.3661 1253.9947,-256.0431"/>
<polygon fill="#191970" stroke="#191970" points="1254.8864,-259.4458 1264.2189,-254.4303 1253.7956,-252.5313 1254.8864,-259.4458"/>
</g>
<!-- Node18&#45;&gt;Node14 -->
<g id="edge28" class="edge">
<title>Node18&#45;&gt;Node14</title>
<path fill="none" stroke="#191970" d="M940.1255,-291.4712C916.1897,-283.1228 881.5829,-270.0009 853,-255 821.4954,-238.4658 787.781,-214.834 766.7975,-199.3333"/>
<polygon fill="#191970" stroke="#191970" points="768.7342,-196.4114 758.6276,-193.2323 764.5458,-202.0201 768.7342,-196.4114"/>
</g>
<!-- Node18&#45;&gt;Node15 -->
<g id="edge29" class="edge">
<title>Node18&#45;&gt;Node15</title>
<path fill="none" stroke="#191970" d="M928.779,-291.4807C907.9162,-284.5996 883.6015,-273.2217 868,-255 855.5876,-240.5031 850.8429,-218.8578 849.0484,-203.1823"/>
<polygon fill="#191970" stroke="#191970" points="852.519,-202.6834 848.1958,-193.0107 845.5434,-203.2682 852.519,-202.6834"/>
</g>
<!-- Node19 -->
<g id="node20" class="node">
<title>Node19</title>
<g id="a_node20"><a xlink:href="Index_8hpp.html" target="_top" xlink:title="Core/Utils/Index.hpp">
<polygon fill="#ffffff" stroke="#000000" points="1520,-174 1520,-193 1636,-193 1636,-174 1520,-174"/>
<text text-anchor="middle" x="1578" y="-181" font-family="Helvetica,sans-Serif" font-size="10.00" fill="#000000">Core/Utils/Index.hpp</text>
</a>
</g>
</g>
<!-- Node18&#45;&gt;Node19 -->
<g id="edge23" class="edge">
<title>Node18&#45;&gt;Node19</title>
<path fill="none" stroke="#191970" d="M1045.4627,-291.4983C1093.9336,-284.264 1157.5353,-272.5198 1212,-255 1232.0646,-248.5457 1234.844,-241.1629 1255,-235 1340.5655,-208.8375 1443.1673,-195.3707 1509.4168,-188.8826"/>
<polygon fill="#191970" stroke="#191970" points="1510.1061,-192.3329 1519.7292,-187.9004 1509.4423,-185.3644 1510.1061,-192.3329"/>
</g>
<!-- Node22 -->
<g id="node23" class="node">
<title>Node22</title>
<polygon fill="#ffffff" stroke="#bfbfbf" points="584.5,-112.5 584.5,-131.5 631.5,-131.5 631.5,-112.5 584.5,-112.5"/>
<text text-anchor="middle" x="608" y="-119.5" font-family="Helvetica,sans-Serif" font-size="10.00" fill="#000000">vector</text>
</g>
<!-- Node18&#45;&gt;Node22 -->
<g id="edge31" class="edge">
<title>Node18&#45;&gt;Node22</title>
<path fill="none" stroke="#191970" d="M1030.3842,-291.4676C1088.6311,-281.7974 1168.6455,-266.6373 1178,-255 1191.1029,-238.6996 1209.6886,-204.937 1173,-168 1135.5053,-130.2515 758.1964,-123.4534 641.9255,-122.2524"/>
<polygon fill="#191970" stroke="#191970" points="641.8507,-118.7516 631.8176,-122.1555 641.7835,-125.7513 641.8507,-118.7516"/>
</g>
<!-- Node23 -->
<g id="node24" class="node">
<title>Node23</title>
<g id="a_node24"><a xlink:href="Types_8hpp.html" target="_top" xlink:title="Core/Types.hpp">
<polygon fill="#ffffff" stroke="#000000" points="1078.5,-235.5 1078.5,-254.5 1169.5,-254.5 1169.5,-235.5 1078.5,-235.5"/>
<text text-anchor="middle" x="1124" y="-242.5" font-family="Helvetica,sans-Serif" font-size="10.00" fill="#000000">Core/Types.hpp</text>
</a>
</g>
</g>
<!-- Node18&#45;&gt;Node23 -->
<g id="edge32" class="edge">
<title>Node18&#45;&gt;Node23</title>
<path fill="none" stroke="#191970" d="M995.6454,-291.3733C1021.1964,-282.1419 1059.9512,-268.1402 1088.1909,-257.9375"/>
<polygon fill="#191970" stroke="#191970" points="1089.4865,-261.1909 1097.7022,-254.5011 1087.1079,-254.6074 1089.4865,-261.1909"/>
</g>
<!-- Node25 -->
<g id="node26" class="node">
<title>Node25</title>
<g id="a_node26"><a xlink:href="Component_8inl.html" target="_top" xlink:title="Engine/Component/Component.inl">
<polygon fill="#ffffff" stroke="#000000" points="877.5,-235.5 877.5,-254.5 1060.5,-254.5 1060.5,-235.5 877.5,-235.5"/>
<text text-anchor="middle" x="969" y="-242.5" font-family="Helvetica,sans-Serif" font-size="10.00" fill="#000000">Engine/Component/Component.inl</text>
</a>
</g>
</g>
<!-- Node18&#45;&gt;Node25 -->
<g id="edge37" class="edge">
<title>Node18&#45;&gt;Node25</title>
<path fill="none" stroke="#191970" d="M963.7332,-291.2455C962.3221,-283.9382 961.9179,-273.6944 962.5205,-264.7046"/>
<polygon fill="#191970" stroke="#191970" points="966.0111,-264.9945 963.7549,-254.6427 959.0632,-264.1421 966.0111,-264.9945"/>
</g>
<!-- Node19&#45;&gt;Node10 -->
<g id="edge24" class="edge">
<title>Node19&#45;&gt;Node10</title>
<path fill="none" stroke="#191970" d="M1519.9741,-180.6105C1313.2153,-170.3028 622.2559,-135.7509 575,-132 564.0933,-131.1343 552.4859,-130.0316 541.302,-128.8767"/>
<polygon fill="#191970" stroke="#191970" points="541.495,-125.3776 531.1824,-127.8066 540.7588,-132.3388 541.495,-125.3776"/>
</g>
<!-- Node20 -->
<g id="node21" class="node">
<title>Node20</title>
<polygon fill="#ffffff" stroke="#bfbfbf" points="1461,-112.5 1461,-131.5 1505,-131.5 1505,-112.5 1461,-112.5"/>
<text text-anchor="middle" x="1483" y="-119.5" font-family="Helvetica,sans-Serif" font-size="10.00" fill="#000000">limits</text>
</g>
<!-- Node19&#45;&gt;Node20 -->
<g id="edge25" class="edge">
<title>Node19&#45;&gt;Node20</title>
<path fill="none" stroke="#191970" d="M1563.1563,-173.8906C1547.9582,-164.0519 1524.1152,-148.6167 1506.3794,-137.1351"/>
<polygon fill="#191970" stroke="#191970" points="1508.0361,-134.0382 1497.7395,-131.5419 1504.232,-139.9144 1508.0361,-134.0382"/>
</g>
<!-- Node21 -->
<g id="node22" class="node">
<title>Node21</title>
<g id="a_node22"><a xlink:href="Index_8inl.html" target="_top" xlink:title="Core/Utils/Index.inl">
<polygon fill="#ffffff" stroke="#000000" points="1523,-112.5 1523,-131.5 1633,-131.5 1633,-112.5 1523,-112.5"/>
<text text-anchor="middle" x="1578" y="-119.5" font-family="Helvetica,sans-Serif" font-size="10.00" fill="#000000">Core/Utils/Index.inl</text>
</a>
</g>
</g>
<!-- Node19&#45;&gt;Node21 -->
<g id="edge26" class="edge">
<title>Node19&#45;&gt;Node21</title>
<path fill="none" stroke="#191970" d="M1572.9375,-173.8906C1571.2741,-165.3657 1570.8404,-152.6392 1571.6365,-141.9235"/>
<polygon fill="#191970" stroke="#191970" points="1575.1414,-142.1023 1572.9112,-131.7449 1568.1956,-141.2324 1575.1414,-142.1023"/>
</g>
<!-- Node21&#45;&gt;Node19 -->
<g id="edge27" class="edge">
<title>Node21&#45;&gt;Node19</title>
<path fill="none" stroke="#191970" d="M1583.0888,-131.7449C1584.7392,-140.314 1585.1598,-153.0519 1584.3508,-163.7462"/>
<polygon fill="#191970" stroke="#191970" points="1580.8503,-163.5293 1583.0625,-173.8906 1587.7945,-164.4113 1580.8503,-163.5293"/>
</g>
<!-- Node23&#45;&gt;Node10 -->
<g id="edge33" class="edge">
<title>Node23&#45;&gt;Node10</title>
<path fill="none" stroke="#191970" d="M1102.0083,-235.408C1062.9582,-218.8085 978.5938,-184.8864 904,-168 899.6119,-167.0066 656.1802,-140.7424 541.0893,-128.3543"/>
<polygon fill="#191970" stroke="#191970" points="541.3465,-124.8619 531.0294,-127.2716 540.5974,-131.8217 541.3465,-124.8619"/>
</g>
<!-- Node23&#45;&gt;Node14 -->
<g id="edge34" class="edge">
<title>Node23&#45;&gt;Node14</title>
<path fill="none" stroke="#191970" d="M1078.4118,-236.5261C1075.2297,-235.9916 1072.0687,-235.4774 1069,-235 945.8933,-215.8503 912.2993,-227.4332 791,-199 787.5985,-198.2027 784.0931,-197.2459 780.6109,-196.2041"/>
<polygon fill="#191970" stroke="#191970" points="781.5554,-192.8314 770.9641,-193.1048 779.4141,-199.4959 781.5554,-192.8314"/>
</g>
<!-- Node23&#45;&gt;Node15 -->
<g id="edge35" class="edge">
<title>Node23&#45;&gt;Node15</title>
<path fill="none" stroke="#191970" d="M1081.1778,-235.4581C1032.53,-224.6181 953.115,-206.9224 900.7042,-195.2439"/>
<polygon fill="#191970" stroke="#191970" points="901.4445,-191.8231 890.9226,-193.0643 899.922,-198.6555 901.4445,-191.8231"/>
</g>
<!-- Node24 -->
<g id="node25" class="node">
<title>Node24</title>
<polygon fill="#ffffff" stroke="#bfbfbf" points="1084,-174 1084,-193 1164,-193 1164,-174 1084,-174"/>
<text text-anchor="middle" x="1124" y="-181" font-family="Helvetica,sans-Serif" font-size="10.00" fill="#000000">Eigen/Sparse</text>
</g>
<!-- Node23&#45;&gt;Node24 -->
<g id="edge36" class="edge">
<title>Node23&#45;&gt;Node24</title>
<path fill="none" stroke="#191970" d="M1124,-235.3906C1124,-226.8657 1124,-214.1392 1124,-203.4235"/>
<polygon fill="#191970" stroke="#191970" points="1127.5001,-203.2448 1124,-193.2449 1120.5001,-203.2449 1127.5001,-203.2448"/>
</g>
<!-- Node25&#45;&gt;Node18 -->
<g id="edge38" class="edge">
<title>Node25&#45;&gt;Node18</title>
<path fill="none" stroke="#191970" d="M974.2451,-254.6427C975.6665,-261.9199 976.081,-272.155 975.4887,-281.1575"/>
<polygon fill="#191970" stroke="#191970" points="971.9947,-280.8972 974.2668,-291.2455 978.9439,-281.739 971.9947,-280.8972"/>
</g>
<!-- Node26&#45;&gt;Node1 -->
<g id="edge40" class="edge">
<title>Node26&#45;&gt;Node1</title>
<path fill="none" stroke="#191970" d="M1564.4767,-291.4369C1514.3241,-281.7522 1436.739,-266.7703 1383.3303,-256.4569"/>
<polygon fill="#191970" stroke="#191970" points="1383.8013,-252.9832 1373.319,-254.5237 1382.474,-259.8563 1383.8013,-252.9832"/>
</g>
<!-- Node26&#45;&gt;Node7 -->
<g id="edge43" class="edge">
<title>Node26&#45;&gt;Node7</title>
<path fill="none" stroke="#191970" d="M1680.1926,-297.5349C1749.0243,-292.5711 1850.633,-280.9781 1879,-255 1903.2487,-232.7934 1898,-216.3806 1898,-183.5 1898,-183.5 1898,-183.5 1898,-122 1898,-53.5636 1659.4382,-22.4808 1569.1071,-13.1644"/>
<polygon fill="#191970" stroke="#191970" points="1569.3983,-9.6761 1559.0986,-12.1591 1568.6987,-16.641 1569.3983,-9.6761"/>
</g>
<!-- Node26&#45;&gt;Node22 -->
<g id="edge44" class="edge">
<title>Node26&#45;&gt;Node22</title>
<path fill="none" stroke="#191970" d="M1610.1405,-291.1795C1603.8455,-276.5127 1589.9316,-249.1045 1569,-235 1452.4636,-156.4734 1399.1106,-187.8846 1260,-168 1024.7724,-134.3763 738.1266,-124.9815 641.5642,-122.6754"/>
<polygon fill="#191970" stroke="#191970" points="641.5964,-119.1753 631.5187,-122.445 641.4358,-126.1734 641.5964,-119.1753"/>
</g>
<!-- Node26&#45;&gt;Node23 -->
<g id="edge45" class="edge">
<title>Node26&#45;&gt;Node23</title>
<path fill="none" stroke="#191970" d="M1547.9164,-293.4476C1450.6983,-282.337 1270.8382,-261.7815 1179.8402,-251.3817"/>
<polygon fill="#191970" stroke="#191970" points="1180.0577,-247.8839 1169.7249,-250.2257 1179.2628,-254.8386 1180.0577,-247.8839"/>
</g>
<!-- Node27 -->
<g id="node28" class="node">
<title>Node27</title>
<polygon fill="#ffffff" stroke="#bfbfbf" points="1616,-235.5 1616,-254.5 1664,-254.5 1664,-235.5 1616,-235.5"/>
<text text-anchor="middle" x="1640" y="-242.5" font-family="Helvetica,sans-Serif" font-size="10.00" fill="#000000">mutex</text>
</g>
<!-- Node26&#45;&gt;Node27 -->
<g id="edge41" class="edge">
<title>Node26&#45;&gt;Node27</title>
<path fill="none" stroke="#191970" d="M1618.5289,-291.2455C1622.0334,-283.6973 1626.9927,-273.0158 1631.2623,-263.8197"/>
<polygon fill="#191970" stroke="#191970" points="1634.4864,-265.1867 1635.523,-254.6427 1628.1373,-262.2389 1634.4864,-265.1867"/>
</g>
<!-- Node28 -->
<g id="node29" class="node">
<title>Node28</title>
<polygon fill="#ffffff" stroke="#bfbfbf" points="1682,-235.5 1682,-254.5 1726,-254.5 1726,-235.5 1682,-235.5"/>
<text text-anchor="middle" x="1704" y="-242.5" font-family="Helvetica,sans-Serif" font-size="10.00" fill="#000000">string</text>
</g>
<!-- Node26&#45;&gt;Node28 -->
<g id="edge42" class="edge">
<title>Node26&#45;&gt;Node28</title>
<path fill="none" stroke="#191970" d="M1629.6768,-291.2455C1643.4856,-282.6534 1663.8193,-270.0014 1679.7292,-260.1018"/>
<polygon fill="#191970" stroke="#191970" points="1681.8613,-262.8974 1688.5028,-254.6427 1678.1632,-256.954 1681.8613,-262.8974"/>
</g>
<!-- Node29 -->
<g id="node30" class="node">
<title>Node29</title>
<g id="a_node30"><a xlink:href="IndexedObject_8hpp.html" target="_top" xlink:title="Core/Utils/IndexedObject.hpp">
<polygon fill="#ffffff" stroke="#000000" points="1401.5,-235.5 1401.5,-254.5 1560.5,-254.5 1560.5,-235.5 1401.5,-235.5"/>
<text text-anchor="middle" x="1481" y="-242.5" font-family="Helvetica,sans-Serif" font-size="10.00" fill="#000000">Core/Utils/IndexedObject.hpp</text>
</a>
</g>
</g>
<!-- Node26&#45;&gt;Node29 -->
<g id="edge46" class="edge">
<title>Node26&#45;&gt;Node29</title>
<path fill="none" stroke="#191970" d="M1591.1365,-291.3733C1569.595,-282.3032 1537.1162,-268.6279 1513.0044,-258.4755"/>
<polygon fill="#191970" stroke="#191970" points="1514.1397,-255.156 1503.5652,-254.5011 1511.4233,-261.6075 1514.1397,-255.156"/>
</g>
<!-- Node30 -->
<g id="node31" class="node">
<title>Node30</title>
<g id="a_node31"><a xlink:href="Entity_8inl.html" target="_top" xlink:title="Engine/Entity/Entity.inl">
<polygon fill="#ffffff" stroke="#000000" points="1744,-235.5 1744,-254.5 1870,-254.5 1870,-235.5 1744,-235.5"/>
<text text-anchor="middle" x="1807" y="-242.5" font-family="Helvetica,sans-Serif" font-size="10.00" fill="#000000">Engine/Entity/Entity.inl</text>
</a>
</g>
</g>
<!-- Node26&#45;&gt;Node30 -->
<g id="edge49" class="edge">
<title>Node26&#45;&gt;Node30</title>
<path fill="none" stroke="#191970" d="M1641.9359,-291.3733C1672.6003,-281.9404 1722.125,-267.5265 1758.999,-257.2747"/>
<polygon fill="#191970" stroke="#191970" points="1760.331,-260.5379 1769.0378,-254.5011 1758.4668,-253.7907 1760.331,-260.5379"/>
</g>
<!-- Node29&#45;&gt;Node10 -->
<g id="edge47" class="edge">
<title>Node29&#45;&gt;Node10</title>
<path fill="none" stroke="#191970" d="M1450.7797,-235.4583C1396.0306,-218.6206 1276.5078,-183.9141 1173,-168 909.8333,-127.5387 840.3286,-154.2391 575,-132 564.0973,-131.0862 552.4917,-129.9607 541.3084,-128.7983"/>
<polygon fill="#191970" stroke="#191970" points="541.5023,-125.2993 531.189,-127.7254 540.7642,-132.2603 541.5023,-125.2993"/>
</g>
<!-- Node29&#45;&gt;Node19 -->
<g id="edge48" class="edge">
<title>Node29&#45;&gt;Node19</title>
<path fill="none" stroke="#191970" d="M1496.1563,-235.3906C1511.6743,-225.5519 1536.0193,-210.1167 1554.1284,-198.6351"/>
<polygon fill="#191970" stroke="#191970" points="1556.3787,-201.3526 1562.9502,-193.0419 1552.6304,-195.4407 1556.3787,-201.3526"/>
</g>
<!-- Node30&#45;&gt;Node26 -->
<g id="edge50" class="edge">
<title>Node30&#45;&gt;Node26</title>
<path fill="none" stroke="#191970" d="M1779.4723,-254.5011C1748.9764,-263.8895 1699.48,-278.2996 1662.4939,-288.5882"/>
<polygon fill="#191970" stroke="#191970" points="1661.1257,-285.3351 1652.4199,-291.3733 1662.991,-292.082 1661.1257,-285.3351"/>
</g>
<!-- Node31&#45;&gt;Node1 -->
<g id="edge52" class="edge">
<title>Node31&#45;&gt;Node1</title>
<path fill="none" stroke="#191970" d="M867.1318,-349.3284C924.9791,-339.8271 1003.4322,-326.0634 1072,-311 1145.9721,-294.7494 1231.0008,-271.5171 1280.9669,-257.3912"/>
<polygon fill="#191970" stroke="#191970" points="1282.1149,-260.7037 1290.7795,-254.6066 1280.2039,-253.9696 1282.1149,-260.7037"/>
</g>
<!-- Node31&#45;&gt;Node8 -->
<g id="edge71" class="edge">
<title>Node31&#45;&gt;Node8</title>
<path fill="none" stroke="#191970" d="M756.1048,-347.3795C715.6864,-324.6562 639.7839,-281.9838 599.9357,-259.5811"/>
<polygon fill="#191970" stroke="#191970" points="601.5161,-256.4544 591.0839,-254.6046 598.0856,-262.5562 601.5161,-256.4544"/>
</g>
<!-- Node31&#45;&gt;Node23 -->
<g id="edge70" class="edge">
<title>Node31&#45;&gt;Node23</title>
<path fill="none" stroke="#191970" d="M795.7895,-347.2159C810.631,-330.5711 836.7115,-304.5216 865,-291 945.2269,-252.6522 976.2415,-269.9414 1068.3693,-255.0214"/>
<polygon fill="#191970" stroke="#191970" points="1069.116,-258.4447 1078.3848,-253.3125 1067.9385,-251.5444 1069.116,-258.4447"/>
</g>
<!-- Node32 -->
<g id="node33" class="node">
<title>Node32</title>
<g id="a_node33"><a xlink:href="Obb_8hpp.html" target="_top" xlink:title="Core/Geometry/Obb.hpp">
<polygon fill="#ffffff" stroke="#000000" points="649,-235.5 649,-254.5 783,-254.5 783,-235.5 649,-235.5"/>
<text text-anchor="middle" x="716" y="-242.5" font-family="Helvetica,sans-Serif" font-size="10.00" fill="#000000">Core/Geometry/Obb.hpp</text>
</a>
</g>
</g>
<!-- Node31&#45;&gt;Node32 -->
<g id="edge53" class="edge">
<title>Node31&#45;&gt;Node32</title>
<path fill="none" stroke="#191970" d="M770.4182,-347.3384C762.5225,-337.3916 752.4607,-323.8853 745,-311 736.2907,-295.9583 728.4964,-277.8135 723.1873,-264.3588"/>
<polygon fill="#191970" stroke="#191970" points="726.3408,-262.8068 719.4924,-254.7228 719.8048,-265.3131 726.3408,-262.8068"/>
</g>
<!-- Node33 -->
<g id="node34" class="node">
<title>Node33</title>
<g id="a_node34"><a xlink:href="Spline_8hpp.html" target="_top" xlink:title="Core/Geometry/Spline.hpp">
<polygon fill="#ffffff" stroke="#000000" points="320.5,-291.5 320.5,-310.5 465.5,-310.5 465.5,-291.5 320.5,-291.5"/>
<text text-anchor="middle" x="393" y="-298.5" font-family="Helvetica,sans-Serif" font-size="10.00" fill="#000000">Core/Geometry/Spline.hpp</text>
</a>
</g>
</g>
<!-- Node31&#45;&gt;Node33 -->
<g id="edge57" class="edge">
<title>Node31&#45;&gt;Node33</title>
<path fill="none" stroke="#191970" d="M698.856,-349.2311C628.5691,-338.1474 529.5086,-322.5264 463.3713,-312.097"/>
<polygon fill="#191970" stroke="#191970" points="463.8777,-308.6337 453.4545,-310.5332 462.7872,-315.5482 463.8777,-308.6337"/>
</g>
<!-- Node38 -->
<g id="node39" class="node">
<title>Node38</title>
<polygon fill="#ffffff" stroke="#bfbfbf" points="754,-291.5 754,-310.5 812,-310.5 812,-291.5 754,-291.5"/>
<text text-anchor="middle" x="783" y="-298.5" font-family="Helvetica,sans-Serif" font-size="10.00" fill="#000000">memory</text>
</g>
<!-- Node31&#45;&gt;Node38 -->
<g id="edge72" class="edge">
<title>Node31&#45;&gt;Node38</title>
<path fill="none" stroke="#191970" d="M783,-347.2977C783,-339.3834 783,-329.6043 783,-321.0759"/>
<polygon fill="#191970" stroke="#191970" points="786.5001,-320.8469 783,-310.8469 779.5001,-320.847 786.5001,-320.8469"/>
</g>
<!-- Node32&#45;&gt;Node10 -->
<g id="edge54" class="edge">
<title>Node32&#45;&gt;Node10</title>
<path fill="none" stroke="#191970" d="M704.946,-235.3147C686.4076,-219.4674 647.396,-187.7844 610,-168 583.4657,-153.962 551.7204,-142.5227 526.4825,-134.5629"/>
<polygon fill="#191970" stroke="#191970" points="527.3908,-131.1804 516.8035,-131.579 525.3286,-137.8698 527.3908,-131.1804"/>
</g>
<!-- Node32&#45;&gt;Node14 -->
<g id="edge55" class="edge">
<title>Node32&#45;&gt;Node14</title>
<path fill="none" stroke="#191970" d="M720.6875,-235.3906C724.9773,-226.5965 731.4482,-213.3312 736.7734,-202.4145"/>
<polygon fill="#191970" stroke="#191970" points="740.0078,-203.7671 741.2464,-193.2449 733.7164,-200.6981 740.0078,-203.7671"/>
</g>
<!-- Node32&#45;&gt;Node15 -->
<g id="edge56" class="edge">
<title>Node32&#45;&gt;Node15</title>
<path fill="none" stroke="#191970" d="M736.625,-235.3906C758.5173,-225.1908 793.3193,-208.9763 818.1927,-197.3875"/>
<polygon fill="#191970" stroke="#191970" points="819.9335,-200.4377 827.5198,-193.0419 816.9772,-194.0926 819.9335,-200.4377"/>
</g>
<!-- Node33&#45;&gt;Node10 -->
<g id="edge64" class="edge">
<title>Node33&#45;&gt;Node10</title>
<path fill="none" stroke="#191970" d="M403.0869,-291.1858C411.6984,-282.3641 423.9353,-268.7198 432,-255 454.1934,-217.2443 469.652,-167.8891 477.043,-141.1822"/>
<polygon fill="#191970" stroke="#191970" points="480.4236,-142.0881 479.635,-131.5226 473.6628,-140.2738 480.4236,-142.0881"/>
</g>
<!-- Node33&#45;&gt;Node22 -->
<g id="edge65" class="edge">
<title>Node33&#45;&gt;Node22</title>
<path fill="none" stroke="#191970" d="M406.5157,-291.2407C418.7367,-282.2364 437.051,-268.2895 452,-255 492.6343,-218.8766 495.9392,-202.452 538,-168 551.9849,-156.545 568.894,-145.368 582.5897,-136.9002"/>
<polygon fill="#191970" stroke="#191970" points="584.7513,-139.6824 591.4825,-131.5006 581.1182,-133.699 584.7513,-139.6824"/>
</g>
<!-- Node34 -->
<g id="node35" class="node">
<title>Node34</title>
<g id="a_node35"><a xlink:href="VectorArray_8hpp.html" target="_top" xlink:title="Core/Containers/VectorArray.hpp">
<polygon fill="#ffffff" stroke="#000000" points="249,-235.5 249,-254.5 423,-254.5 423,-235.5 249,-235.5"/>
<text text-anchor="middle" x="336" y="-242.5" font-family="Helvetica,sans-Serif" font-size="10.00" fill="#000000">Core/Containers/VectorArray.hpp</text>
</a>
</g>
</g>
<!-- Node33&#45;&gt;Node34 -->
<g id="edge58" class="edge">
<title>Node33&#45;&gt;Node34</title>
<path fill="none" stroke="#191970" d="M383.0714,-291.2455C374.8162,-283.1352 362.8791,-271.4075 353.0918,-261.7919"/>
<polygon fill="#191970" stroke="#191970" points="355.4011,-259.1542 345.8149,-254.6427 350.4954,-264.1476 355.4011,-259.1542"/>
</g>
<!-- Node37 -->
<g id="node38" class="node">
<title>Node37</title>
<g id="a_node38"><a xlink:href="Spline_8inl.html" target="_top" xlink:title="Core/Geometry/Spline.inl">
<polygon fill="#ffffff" stroke="#000000" points="53.5,-235.5 53.5,-254.5 192.5,-254.5 192.5,-235.5 53.5,-235.5"/>
<text text-anchor="middle" x="123" y="-242.5" font-family="Helvetica,sans-Serif" font-size="10.00" fill="#000000">Core/Geometry/Spline.inl</text>
</a>
</g>
</g>
<!-- Node33&#45;&gt;Node37 -->
<g id="edge66" class="edge">
<title>Node33&#45;&gt;Node37</title>
<path fill="none" stroke="#191970" d="M341.6626,-291.4369C293.3649,-281.8127 221.6157,-266.957 173.5713,-256.6504"/>
<polygon fill="#191970" stroke="#191970" points="174.2087,-253.2075 163.6959,-254.5237 172.7349,-260.0506 174.2087,-253.2075"/>
</g>
<!-- Node34&#45;&gt;Node10 -->
<g id="edge63" class="edge">
<title>Node34&#45;&gt;Node10</title>
<path fill="none" stroke="#191970" d="M353.362,-235.472C368.4524,-226.8337 390.5665,-213.2977 408,-199 430.4627,-180.5777 453.1501,-155.8609 467.3722,-139.4562"/>
<polygon fill="#191970" stroke="#191970" points="470.1543,-141.5881 473.9917,-131.7126 464.8334,-137.0396 470.1543,-141.5881"/>
</g>
<!-- Node35 -->
<g id="node36" class="node">
<title>Node35</title>
<g id="a_node36"><a xlink:href="AlignedStdVector_8hpp.html" target="_top" xlink:title="Core/Containers/AlignedStd\lVector.hpp">
<polygon fill="#ffffff" stroke="#000000" points="249,-168.5 249,-198.5 399,-198.5 399,-168.5 249,-168.5"/>
<text text-anchor="start" x="257" y="-186.5" font-family="Helvetica,sans-Serif" font-size="10.00" fill="#000000">Core/Containers/AlignedStd</text>
<text text-anchor="middle" x="324" y="-175.5" font-family="Helvetica,sans-Serif" font-size="10.00" fill="#000000">Vector.hpp</text>
</a>
</g>
</g>
<!-- Node34&#45;&gt;Node35 -->
<g id="edge59" class="edge">
<title>Node34&#45;&gt;Node35</title>
<path fill="none" stroke="#191970" d="M334.125,-235.3906C332.7115,-228.1463 330.7059,-217.8679 328.8522,-208.3676"/>
<polygon fill="#191970" stroke="#191970" points="332.2859,-207.6892 326.9355,-198.5446 325.4155,-209.0298 332.2859,-207.6892"/>
</g>
<!-- Node35&#45;&gt;Node10 -->
<g id="edge60" class="edge">
<title>Node35&#45;&gt;Node10</title>
<path fill="none" stroke="#191970" d="M362.6511,-168.4554C388.7826,-158.284 422.9653,-144.9787 448.0481,-135.2155"/>
<polygon fill="#191970" stroke="#191970" points="449.4662,-138.4193 457.5156,-131.5303 446.9271,-131.8961 449.4662,-138.4193"/>
</g>
<!-- Node35&#45;&gt;Node22 -->
<g id="edge62" class="edge">
<title>Node35&#45;&gt;Node22</title>
<path fill="none" stroke="#191970" d="M393.4742,-168.4554C450.9403,-156.0112 530.0684,-138.876 574.4016,-129.2757"/>
<polygon fill="#191970" stroke="#191970" points="575.3313,-132.6556 584.364,-127.1184 573.8498,-125.8142 575.3313,-132.6556"/>
</g>
<!-- Node36 -->
<g id="node37" class="node">
<title>Node36</title>
<polygon fill="#ffffff" stroke="#bfbfbf" points="277.5,-112.5 277.5,-131.5 370.5,-131.5 370.5,-112.5 277.5,-112.5"/>
<text text-anchor="middle" x="324" y="-119.5" font-family="Helvetica,sans-Serif" font-size="10.00" fill="#000000">Eigen/StdVector</text>
</g>
<!-- Node35&#45;&gt;Node36 -->
<g id="edge61" class="edge">
<title>Node35&#45;&gt;Node36</title>
<path fill="none" stroke="#191970" d="M324,-168.2977C324,-160.3834 324,-150.6043 324,-142.0759"/>
<polygon fill="#191970" stroke="#191970" points="327.5001,-141.8469 324,-131.8469 320.5001,-141.847 327.5001,-141.8469"/>
</g>
<!-- Node37&#45;&gt;Node9 -->
<g id="edge68" class="edge">
<title>Node37&#45;&gt;Node9</title>
<path fill="none" stroke="#191970" d="M125.0313,-235.3906C126.8522,-226.776 129.5802,-213.8708 131.8599,-203.0858"/>
<polygon fill="#191970" stroke="#191970" points="135.2962,-203.7525 133.9401,-193.2449 128.4476,-202.3048 135.2962,-203.7525"/>
</g>
<!-- Node37&#45;&gt;Node11 -->
<g id="edge69" class="edge">
<title>Node37&#45;&gt;Node11</title>
<path fill="none" stroke="#191970" d="M109.0073,-235.3132C97.442,-226.7748 81.1648,-213.4688 70,-199 56.254,-181.1862 45.5074,-157.6111 39.0018,-141.261"/>
<polygon fill="#191970" stroke="#191970" points="42.1859,-139.7878 35.3503,-131.6931 35.646,-142.2838 42.1859,-139.7878"/>
</g>
<!-- Node37&#45;&gt;Node33 -->
<g id="edge67" class="edge">
<title>Node37&#45;&gt;Node33</title>
<path fill="none" stroke="#191970" d="M174.1395,-254.5237C222.3729,-264.1336 294.1224,-278.9883 342.2315,-289.3073"/>
<polygon fill="#191970" stroke="#191970" points="341.6089,-292.7534 352.1217,-291.4369 343.0825,-285.9102 341.6089,-292.7534"/>
</g>
</g>
</svg>
        <g id="navigator" transform="translate(0 0)" fill="#404254">
                <rect fill="#f2f5e9" fill-opacity="0.5" stroke="#606060" stroke-width=".5" x="0" y="0" width="60" height="60"/>
                <use id="zoomplus" xlink:href="#zoomPlus" x="17" y="9" onmousedown="handleZoom(evt,'in')"/>
                <use id="zoomminus" xlink:href="#zoomMin" x="42" y="9" onmousedown="handleZoom(evt,'out')"/>
                <use id="reset" xlink:href="#resetDef" x="30" y="36" onmousedown="handleReset()"/>
                <g id="arrowUp" xlink:href="#dirArrow" transform="translate(30 24)" onmousedown="handlePan(0,-1)">
                  <use xlink:href="#rim" fill="#404040">
                        <set attributeName="fill" to="#808080" begin="arrowUp.mouseover" end="arrowUp.mouseout"/>
                  </use>
                  <path fill="none" stroke="white" stroke-width="1.5" d="M0,-3.0v7 M-2.5,-0.5L0,-3.0L2.5,-0.5"/>
                </g>
                <g id="arrowRight" xlink:href="#dirArrow" transform="rotate(90) translate(36 -43)" onmousedown="handlePan(1,0)">
                  <use xlink:href="#rim" fill="#404040">
                        <set attributeName="fill" to="#808080" begin="arrowRight.mouseover" end="arrowRight.mouseout"/>
                  </use>
                  <path fill="none" stroke="white" stroke-width="1.5" d="M0,-3.0v7 M-2.5,-0.5L0,-3.0L2.5,-0.5"/>
                </g>
                <g id="arrowDown" xlink:href="#dirArrow" transform="rotate(180) translate(-30 -48)" onmousedown="handlePan(0,1)">
                  <use xlink:href="#rim" fill="#404040">
                        <set attributeName="fill" to="#808080" begin="arrowDown.mouseover" end="arrowDown.mouseout"/>
                  </use>
                  <path fill="none" stroke="white" stroke-width="1.5" d="M0,-3.0v7 M-2.5,-0.5L0,-3.0L2.5,-0.5"/>
                </g>
                <g id="arrowLeft" xlink:href="#dirArrow" transform="rotate(270) translate(-36 17)" onmousedown="handlePan(-1,0)">
                  <use xlink:href="#rim" fill="#404040">
                        <set attributeName="fill" to="#808080" begin="arrowLeft.mouseover" end="arrowLeft.mouseout"/>
                  </use>
                  <path fill="none" stroke="white" stroke-width="1.5" d="M0,-3.0v7 M-2.5,-0.5L0,-3.0L2.5,-0.5"/>
                </g>
        </g>
        <svg viewBox="0 0 15 15" width="100%" height="30px" preserveAspectRatio="xMaxYMin meet">
         <g id="arrow_out" transform="scale(0.3 0.3)">
          <a xlink:href="SystemDisplay_8hpp__incl_org.svg" target="_base">
           <rect id="button" ry="5" rx="5" y="6" x="6" height="38" width="38"
                fill="#f2f5e9" fill-opacity="0.5" stroke="#606060" stroke-width="1.0"/>
           <path id="arrow"
             d="M 11.500037,31.436501 C 11.940474,20.09759 22.043105,11.32322 32.158766,21.979434 L 37.068811,17.246167 C 37.068811,17.246167 37.088388,32 37.088388,32 L 22.160133,31.978069 C 22.160133,31.978069 26.997745,27.140456 26.997745,27.140456 C 18.528582,18.264221 13.291696,25.230495 11.500037,31.436501 z"
             style="fill:#404040;"/>
          </a>
         </g>
        </svg>
</svg>
