<?xml version="1.0" encoding="UTF-8" standalone="no"?>
<!DOCTYPE svg PUBLIC "-//W3C//DTD SVG 1.1//EN"
 "http://www.w3.org/Graphics/SVG/1.1/DTD/svg11.dtd">
<!-- Generated by graphviz version 2.40.1 (20161225.0304)
 -->
<!-- Title: src/Engine/System/System.cpp Pages: 1 -->
<!--zoomable 364 -->
<svg id="main" version="1.1" xmlns="http://www.w3.org/2000/svg" xmlns:xlink="http://www.w3.org/1999/xlink" xml:space="preserve" onload="init(evt)">
<style type="text/css"><![CDATA[
.edge:hover path { stroke: red; }
.edge:hover polygon { stroke: red; fill: red; }
]]></style>
<script type="text/javascript"><![CDATA[
var edges = document.getElementsByTagName('g');
if (edges && edges.length) {
  for (var i=0;i<edges.length;i++) {
    if (edges[i].id.substr(0,4)=='edge') {
      edges[i].setAttribute('class','edge');
    }
  }
}
]]></script>
        <defs>
                <circle id="rim" cx="0" cy="0" r="7"/>
                <circle id="rim2" cx="0" cy="0" r="3.5"/>
                <g id="zoomPlus">
                        <use xlink:href="#rim" fill="#404040">
                                <set attributeName="fill" to="#808080" begin="zoomplus.mouseover" end="zoomplus.mouseout"/>
                        </use>
                        <path d="M-4,0h8M0,-4v8" fill="none" stroke="white" stroke-width="1.5" pointer-events="none"/>
                </g>
                <g id="zoomMin">
                        <use xlink:href="#rim" fill="#404040">
                                <set attributeName="fill" to="#808080" begin="zoomminus.mouseover" end="zoomminus.mouseout"/>
                        </use>
                        <path d="M-4,0h8" fill="none" stroke="white" stroke-width="1.5" pointer-events="none"/>
                </g>
                <g id="dirArrow">
                        <path fill="none" stroke="white" stroke-width="1.5" d="M0,-3.0v7 M-2.5,-0.5L0,-3.0L2.5,-0.5"/>
                </g>
               <g id="resetDef">
                       <use xlink:href="#rim2" fill="#404040">
                               <set attributeName="fill" to="#808080" begin="reset.mouseover" end="reset.mouseout"/>
                       </use>
               </g>
        </defs>

<script type="text/javascript">
var viewWidth = 1171;
var viewHeight = 364;
var sectionId = 'dynsection-0';
</script>
<script xlink:href="svgpan.js"/>
<svg id="graph" class="graph">
<g id="viewport">
<title>src/Engine/System/System.cpp</title>
<polygon fill="#ffffff" stroke="transparent" points="-4,4 -4,-360 1167.4817,-360 1167.4817,4 -4,4"/>
<!-- Node0 -->
<g id="node1" class="node">
<title>Node0</title>
<polygon fill="#bfbfbf" stroke="#000000" points="478,-336.5 478,-355.5 645,-355.5 645,-336.5 478,-336.5"/>
<text text-anchor="middle" x="561.5" y="-343.5" font-family="Helvetica,sans-Serif" font-size="10.00" fill="#000000">src/Engine/System/System.cpp</text>
</g>
<!-- Node1 -->
<g id="node2" class="node">
<title>Node1</title>
<g id="a_node2"><a xlink:href="System_8hpp.html" target="_top" xlink:title="Engine/System/System.hpp">
<polygon fill="#ffffff" stroke="#000000" points="486.5,-280.5 486.5,-299.5 636.5,-299.5 636.5,-280.5 486.5,-280.5"/>
<text text-anchor="middle" x="561.5" y="-287.5" font-family="Helvetica,sans-Serif" font-size="10.00" fill="#000000">Engine/System/System.hpp</text>
</a>
</g>
</g>
<!-- Node0&#45;&gt;Node1 -->
<g id="edge1" class="edge">
<title>Node0&#45;&gt;Node1</title>
<path fill="none" stroke="#191970" d="M561.5,-336.2455C561.5,-328.9382 561.5,-318.6944 561.5,-309.7046"/>
<polygon fill="#191970" stroke="#191970" points="565.0001,-309.6426 561.5,-299.6427 558.0001,-309.6427 565.0001,-309.6426"/>
</g>
<!-- Node11 -->
<g id="node12" class="node">
<title>Node11</title>
<g id="a_node12"><a xlink:href="Component_8hpp.html" target="_top" xlink:title="Engine/Component/Component.hpp">
<polygon fill="#ffffff" stroke="#000000" points="229,-280.5 229,-299.5 418,-299.5 418,-280.5 229,-280.5"/>
<text text-anchor="middle" x="323.5" y="-287.5" font-family="Helvetica,sans-Serif" font-size="10.00" fill="#000000">Engine/Component/Component.hpp</text>
</a>
</g>
</g>
<!-- Node0&#45;&gt;Node11 -->
<g id="edge11" class="edge">
<title>Node0&#45;&gt;Node11</title>
<path fill="none" stroke="#191970" d="M520.8568,-336.4369C480.2105,-326.8731 417.6087,-312.1432 373.8413,-301.845"/>
<polygon fill="#191970" stroke="#191970" points="374.5114,-298.4072 363.9756,-299.5237 372.9081,-305.2211 374.5114,-298.4072"/>
</g>
<!-- Node21 -->
<g id="node22" class="node">
<title>Node21</title>
<g id="a_node22"><a xlink:href="Entity_8hpp.html" target="_top" xlink:title="Engine/Entity/Entity.hpp">
<polygon fill="#ffffff" stroke="#000000" points="776.5,-280.5 776.5,-299.5 908.5,-299.5 908.5,-280.5 776.5,-280.5"/>
<text text-anchor="middle" x="842.5" y="-287.5" font-family="Helvetica,sans-Serif" font-size="10.00" fill="#000000">Engine/Entity/Entity.hpp</text>
</a>
</g>
</g>
<!-- Node0&#45;&gt;Node21 -->
<g id="edge29" class="edge">
<title>Node0&#45;&gt;Node21</title>
<path fill="none" stroke="#191970" d="M609.4863,-336.4369C657.9814,-326.7724 732.9473,-311.8326 784.6879,-301.5213"/>
<polygon fill="#191970" stroke="#191970" points="785.5885,-304.9107 794.7116,-299.5237 784.2203,-298.0457 785.5885,-304.9107"/>
</g>
<!-- Node2 -->
<g id="node3" class="node">
<title>Node2</title>
<g id="a_node3"><a xlink:href="RaEngine_8hpp.html" target="_top" xlink:title="Engine/RaEngine.hpp">
<polygon fill="#ffffff" stroke="#000000" points="502,-224.5 502,-243.5 621,-243.5 621,-224.5 502,-224.5"/>
<text text-anchor="middle" x="561.5" y="-231.5" font-family="Helvetica,sans-Serif" font-size="10.00" fill="#000000">Engine/RaEngine.hpp</text>
</a>
</g>
</g>
<!-- Node1&#45;&gt;Node2 -->
<g id="edge2" class="edge">
<title>Node1&#45;&gt;Node2</title>
<path fill="none" stroke="#191970" d="M561.5,-280.2455C561.5,-272.9382 561.5,-262.6944 561.5,-253.7046"/>
<polygon fill="#191970" stroke="#191970" points="565.0001,-253.6426 561.5,-243.6427 558.0001,-253.6427 565.0001,-253.6426"/>
</g>
<!-- Node9 -->
<g id="node10" class="node">
<title>Node9</title>
<polygon fill="#ffffff" stroke="#bfbfbf" points="425.5,-224.5 425.5,-243.5 483.5,-243.5 483.5,-224.5 425.5,-224.5"/>
<text text-anchor="middle" x="454.5" y="-231.5" font-family="Helvetica,sans-Serif" font-size="10.00" fill="#000000">memory</text>
</g>
<!-- Node1&#45;&gt;Node9 -->
<g id="edge9" class="edge">
<title>Node1&#45;&gt;Node9</title>
<path fill="none" stroke="#191970" d="M542.862,-280.2455C526.0614,-271.4527 501.1366,-258.4079 482.0382,-248.4125"/>
<polygon fill="#191970" stroke="#191970" points="483.4073,-245.1787 472.9244,-243.6427 480.1614,-251.3807 483.4073,-245.1787"/>
</g>
<!-- Node10 -->
<g id="node11" class="node">
<title>Node10</title>
<polygon fill="#ffffff" stroke="#bfbfbf" points="639,-224.5 639,-243.5 686,-243.5 686,-224.5 639,-224.5"/>
<text text-anchor="middle" x="662.5" y="-231.5" font-family="Helvetica,sans-Serif" font-size="10.00" fill="#000000">vector</text>
</g>
<!-- Node1&#45;&gt;Node10 -->
<g id="edge10" class="edge">
<title>Node1&#45;&gt;Node10</title>
<path fill="none" stroke="#191970" d="M579.0929,-280.2455C594.879,-271.4928 618.2639,-258.527 636.2587,-248.5496"/>
<polygon fill="#191970" stroke="#191970" points="638.0603,-251.5528 645.1087,-243.6427 634.6659,-245.4308 638.0603,-251.5528"/>
</g>
<!-- Node3 -->
<g id="node4" class="node">
<title>Node3</title>
<g id="a_node4"><a xlink:href="CoreMacros_8hpp.html" target="_top" xlink:title="Core/CoreMacros.hpp">
<polygon fill="#ffffff" stroke="#000000" points="791.5,-56.5 791.5,-75.5 911.5,-75.5 911.5,-56.5 791.5,-56.5"/>
<text text-anchor="middle" x="851.5" y="-63.5" font-family="Helvetica,sans-Serif" font-size="10.00" fill="#000000">Core/CoreMacros.hpp</text>
</a>
</g>
</g>
<!-- Node2&#45;&gt;Node3 -->
<g id="edge3" class="edge">
<title>Node2&#45;&gt;Node3</title>
<path fill="none" stroke="#191970" d="M619.4282,-224.4915C689.5063,-212.7871 799.1008,-193.7527 806.5,-188 838.4552,-163.1553 847.7228,-113.2673 850.4076,-85.6027"/>
<polygon fill="#191970" stroke="#191970" points="853.9029,-85.7973 851.1846,-75.5572 846.9238,-85.2575 853.9029,-85.7973"/>
</g>
<!-- Node4 -->
<g id="node5" class="node">
<title>Node4</title>
<polygon fill="#ffffff" stroke="#bfbfbf" points="935.5,-.5 935.5,-19.5 987.5,-19.5 987.5,-.5 935.5,-.5"/>
<text text-anchor="middle" x="961.5" y="-7.5" font-family="Helvetica,sans-Serif" font-size="10.00" fill="#000000">cassert</text>
</g>
<!-- Node3&#45;&gt;Node4 -->
<g id="edge4" class="edge">
<title>Node3&#45;&gt;Node4</title>
<path fill="none" stroke="#191970" d="M870.6605,-56.2455C888.0111,-47.4125 913.7901,-34.2887 933.4583,-24.2758"/>
<polygon fill="#191970" stroke="#191970" points="935.2353,-27.2986 942.559,-19.6427 932.0595,-21.0605 935.2353,-27.2986"/>
</g>
<!-- Node5 -->
<g id="node6" class="node">
<title>Node5</title>
<polygon fill="#ffffff" stroke="#bfbfbf" points="719.5,-.5 719.5,-19.5 765.5,-19.5 765.5,-.5 719.5,-.5"/>
<text text-anchor="middle" x="742.5" y="-7.5" font-family="Helvetica,sans-Serif" font-size="10.00" fill="#000000">cstdio</text>
</g>
<!-- Node3&#45;&gt;Node5 -->
<g id="edge5" class="edge">
<title>Node3&#45;&gt;Node5</title>
<path fill="none" stroke="#191970" d="M832.5136,-56.2455C815.3208,-47.4125 789.7762,-34.2887 770.2868,-24.2758"/>
<polygon fill="#191970" stroke="#191970" points="771.763,-21.0993 761.2688,-19.6427 768.5641,-27.3257 771.763,-21.0993"/>
</g>
<!-- Node6 -->
<g id="node7" class="node">
<title>Node6</title>
<polygon fill="#ffffff" stroke="#bfbfbf" points="783.5,-.5 783.5,-19.5 843.5,-19.5 843.5,-.5 783.5,-.5"/>
<text text-anchor="middle" x="813.5" y="-7.5" font-family="Helvetica,sans-Serif" font-size="10.00" fill="#000000">iostream</text>
</g>
<!-- Node3&#45;&gt;Node6 -->
<g id="edge6" class="edge">
<title>Node3&#45;&gt;Node6</title>
<path fill="none" stroke="#191970" d="M844.8809,-56.2455C839.5954,-48.4564 832.0459,-37.3308 825.6762,-27.9439"/>
<polygon fill="#191970" stroke="#191970" points="828.5545,-25.9522 820.0432,-19.6427 822.7621,-29.8827 828.5545,-25.9522"/>
</g>
<!-- Node7 -->
<g id="node8" class="node">
<title>Node7</title>
<polygon fill="#ffffff" stroke="#bfbfbf" points="861.5,-.5 861.5,-19.5 917.5,-19.5 917.5,-.5 861.5,-.5"/>
<text text-anchor="middle" x="889.5" y="-7.5" font-family="Helvetica,sans-Serif" font-size="10.00" fill="#000000">sstream</text>
</g>
<!-- Node3&#45;&gt;Node7 -->
<g id="edge7" class="edge">
<title>Node3&#45;&gt;Node7</title>
<path fill="none" stroke="#191970" d="M858.1191,-56.2455C863.4046,-48.4564 870.9541,-37.3308 877.3238,-27.9439"/>
<polygon fill="#191970" stroke="#191970" points="880.2379,-29.8827 882.9568,-19.6427 874.4455,-25.9522 880.2379,-29.8827"/>
</g>
<!-- Node8 -->
<g id="node9" class="node">
<title>Node8</title>
<polygon fill="#ffffff" stroke="#bfbfbf" points="1072.5,-.5 1072.5,-19.5 1120.5,-19.5 1120.5,-.5 1072.5,-.5"/>
<text text-anchor="middle" x="1096.5" y="-7.5" font-family="Helvetica,sans-Serif" font-size="10.00" fill="#000000">thread</text>
</g>
<!-- Node3&#45;&gt;Node8 -->
<g id="edge8" class="edge">
<title>Node3&#45;&gt;Node8</title>
<path fill="none" stroke="#191970" d="M893.3386,-56.4369C941.039,-45.5339 1018.113,-27.917 1062.3481,-17.8061"/>
<polygon fill="#191970" stroke="#191970" points="1063.353,-21.1668 1072.3217,-15.5265 1061.7932,-14.3428 1063.353,-21.1668"/>
</g>
<!-- Node11&#45;&gt;Node2 -->
<g id="edge20" class="edge">
<title>Node11&#45;&gt;Node2</title>
<path fill="none" stroke="#191970" d="M364.1432,-280.4369C404.7895,-270.8731 467.3913,-256.1432 511.1587,-245.845"/>
<polygon fill="#191970" stroke="#191970" points="512.0919,-249.2211 521.0244,-243.5237 510.4886,-242.4072 512.0919,-249.2211"/>
</g>
<!-- Node11&#45;&gt;Node10 -->
<g id="edge21" class="edge">
<title>Node11&#45;&gt;Node10</title>
<path fill="none" stroke="#191970" d="M409.1947,-280.4947C468.3577,-273.1477 548.9366,-261.5946 628.6016,-243.9264"/>
<polygon fill="#191970" stroke="#191970" points="629.8301,-247.2375 638.8167,-241.6257 628.292,-240.4085 629.8301,-247.2375"/>
</g>
<!-- Node12 -->
<g id="node13" class="node">
<title>Node12</title>
<g id="a_node13"><a xlink:href="Index_8hpp.html" target="_top" xlink:title="Core/Utils/Index.hpp">
<polygon fill="#ffffff" stroke="#000000" points="681.5,-168.5 681.5,-187.5 797.5,-187.5 797.5,-168.5 681.5,-168.5"/>
<text text-anchor="middle" x="739.5" y="-175.5" font-family="Helvetica,sans-Serif" font-size="10.00" fill="#000000">Core/Utils/Index.hpp</text>
</a>
</g>
</g>
<!-- Node11&#45;&gt;Node12 -->
<g id="edge12" class="edge">
<title>Node11&#45;&gt;Node12</title>
<path fill="none" stroke="#191970" d="M333.401,-280.4757C349.4212,-265.6836 382.6603,-237.4896 416.5,-224 461.4704,-206.0733 590.3986,-191.5773 671.1116,-183.9233"/>
<polygon fill="#191970" stroke="#191970" points="671.5629,-187.3964 681.1929,-182.979 670.9101,-180.4269 671.5629,-187.3964"/>
</g>
<!-- Node16 -->
<g id="node17" class="node">
<title>Node16</title>
<polygon fill="#ffffff" stroke="#bfbfbf" points="177,-168.5 177,-187.5 246,-187.5 246,-168.5 177,-168.5"/>
<text text-anchor="middle" x="211.5" y="-175.5" font-family="Helvetica,sans-Serif" font-size="10.00" fill="#000000">Eigen/Core</text>
</g>
<!-- Node11&#45;&gt;Node16 -->
<g id="edge18" class="edge">
<title>Node11&#45;&gt;Node16</title>
<path fill="none" stroke="#191970" d="M308.5775,-280.4097C295.6559,-271.7315 276.8398,-258.172 262.5,-244 247.6044,-229.2787 233.262,-210.1263 223.6018,-196.2478"/>
<polygon fill="#191970" stroke="#191970" points="226.2349,-193.8962 217.7127,-187.6015 220.4494,-197.8368 226.2349,-193.8962"/>
</g>
<!-- Node17 -->
<g id="node18" class="node">
<title>Node17</title>
<polygon fill="#ffffff" stroke="#bfbfbf" points="264,-168.5 264,-187.5 359,-187.5 359,-168.5 264,-168.5"/>
<text text-anchor="middle" x="311.5" y="-175.5" font-family="Helvetica,sans-Serif" font-size="10.00" fill="#000000">Eigen/Geometry</text>
</g>
<!-- Node11&#45;&gt;Node17 -->
<g id="edge19" class="edge">
<title>Node11&#45;&gt;Node17</title>
<path fill="none" stroke="#191970" d="M305.2167,-280.4509C292.3142,-272.5902 276.0359,-260.1269 268.5,-244 260.0491,-225.9149 275.2155,-206.996 289.814,-194.0739"/>
<polygon fill="#191970" stroke="#191970" points="292.2276,-196.62 297.7122,-187.5553 287.7718,-191.2212 292.2276,-196.62"/>
</g>
<!-- Node18 -->
<g id="node19" class="node">
<title>Node18</title>
<g id="a_node19"><a xlink:href="Types_8hpp.html" target="_top" xlink:title="Core/Types.hpp">
<polygon fill="#ffffff" stroke="#000000" points="278,-224.5 278,-243.5 369,-243.5 369,-224.5 278,-224.5"/>
<text text-anchor="middle" x="323.5" y="-231.5" font-family="Helvetica,sans-Serif" font-size="10.00" fill="#000000">Core/Types.hpp</text>
</a>
</g>
</g>
<!-- Node11&#45;&gt;Node18 -->
<g id="edge22" class="edge">
<title>Node11&#45;&gt;Node18</title>
<path fill="none" stroke="#191970" d="M323.5,-280.2455C323.5,-272.9382 323.5,-262.6944 323.5,-253.7046"/>
<polygon fill="#191970" stroke="#191970" points="327.0001,-253.6426 323.5,-243.6427 320.0001,-253.6427 327.0001,-253.6426"/>
</g>
<!-- Node20 -->
<g id="node21" class="node">
<title>Node20</title>
<g id="a_node21"><a xlink:href="Component_8inl.html" target="_top" xlink:title="Engine/Component/Component.inl">
<polygon fill="#ffffff" stroke="#000000" points="0,-224.5 0,-243.5 183,-243.5 183,-224.5 0,-224.5"/>
<text text-anchor="middle" x="91.5" y="-231.5" font-family="Helvetica,sans-Serif" font-size="10.00" fill="#000000">Engine/Component/Component.inl</text>
</a>
</g>
</g>
<!-- Node11&#45;&gt;Node20 -->
<g id="edge27" class="edge">
<title>Node11&#45;&gt;Node20</title>
<path fill="none" stroke="#191970" d="M278.6519,-280.4369C237.3218,-270.9133 176.5043,-256.2672 135.4606,-245.9753"/>
<polygon fill="#191970" stroke="#191970" points="136.2856,-242.5739 125.7335,-243.5237 134.5748,-249.3616 136.2856,-242.5739"/>
</g>
<!-- Node13 -->
<g id="node14" class="node">
<title>Node13</title>
<g id="a_node14"><a xlink:href="RaCore_8hpp.html" target="_top" xlink:title="Core/RaCore.hpp">
<polygon fill="#ffffff" stroke="#000000" points="535.5,-112.5 535.5,-131.5 633.5,-131.5 633.5,-112.5 535.5,-112.5"/>
<text text-anchor="middle" x="584.5" y="-119.5" font-family="Helvetica,sans-Serif" font-size="10.00" fill="#000000">Core/RaCore.hpp</text>
</a>
</g>
</g>
<!-- Node12&#45;&gt;Node13 -->
<g id="edge13" class="edge">
<title>Node12&#45;&gt;Node13</title>
<path fill="none" stroke="#191970" d="M712.8546,-168.3733C687.3036,-159.1419 648.5488,-145.1402 620.3091,-134.9375"/>
<polygon fill="#191970" stroke="#191970" points="621.3921,-131.6074 610.7978,-131.5011 619.0135,-138.1909 621.3921,-131.6074"/>
</g>
<!-- Node14 -->
<g id="node15" class="node">
<title>Node14</title>
<polygon fill="#ffffff" stroke="#bfbfbf" points="651.5,-112.5 651.5,-131.5 695.5,-131.5 695.5,-112.5 651.5,-112.5"/>
<text text-anchor="middle" x="673.5" y="-119.5" font-family="Helvetica,sans-Serif" font-size="10.00" fill="#000000">limits</text>
</g>
<!-- Node12&#45;&gt;Node14 -->
<g id="edge15" class="edge">
<title>Node12&#45;&gt;Node14</title>
<path fill="none" stroke="#191970" d="M728.0037,-168.2455C718.2558,-159.9746 704.0741,-147.9416 692.6202,-138.2232"/>
<polygon fill="#191970" stroke="#191970" points="694.7541,-135.4437 684.8646,-131.6427 690.2253,-140.7813 694.7541,-135.4437"/>
</g>
<!-- Node15 -->
<g id="node16" class="node">
<title>Node15</title>
<g id="a_node16"><a xlink:href="Index_8inl.html" target="_top" xlink:title="Core/Utils/Index.inl">
<polygon fill="#ffffff" stroke="#000000" points="713.5,-112.5 713.5,-131.5 823.5,-131.5 823.5,-112.5 713.5,-112.5"/>
<text text-anchor="middle" x="768.5" y="-119.5" font-family="Helvetica,sans-Serif" font-size="10.00" fill="#000000">Core/Utils/Index.inl</text>
</a>
</g>
</g>
<!-- Node12&#45;&gt;Node15 -->
<g id="edge16" class="edge">
<title>Node12&#45;&gt;Node15</title>
<path fill="none" stroke="#191970" d="M739.2846,-168.2455C741.7881,-160.5367 747.1045,-149.5598 752.6859,-140.2348"/>
<polygon fill="#191970" stroke="#191970" points="755.7539,-141.9365 758.2613,-131.6427 749.8819,-138.1261 755.7539,-141.9365"/>
</g>
<!-- Node13&#45;&gt;Node3 -->
<g id="edge14" class="edge">
<title>Node13&#45;&gt;Node3</title>
<path fill="none" stroke="#191970" d="M630.0956,-112.4369C676.0785,-102.7925 747.1088,-87.8948 796.2606,-77.5858"/>
<polygon fill="#191970" stroke="#191970" points="797.0239,-81.0019 806.0925,-75.5237 795.587,-74.151 797.0239,-81.0019"/>
</g>
<!-- Node15&#45;&gt;Node12 -->
<g id="edge17" class="edge">
<title>Node15&#45;&gt;Node12</title>
<path fill="none" stroke="#191970" d="M768.7516,-131.6427C766.2754,-139.3197 760.974,-150.2887 755.3952,-159.6296"/>
<polygon fill="#191970" stroke="#191970" points="752.3139,-157.9488 749.8183,-168.2455 758.1903,-161.7525 752.3139,-157.9488"/>
</g>
<!-- Node18&#45;&gt;Node13 -->
<g id="edge23" class="edge">
<title>Node18&#45;&gt;Node13</title>
<path fill="none" stroke="#191970" d="M332.779,-224.3903C347.212,-209.9989 376.5114,-182.9455 406.5,-168 443.8105,-149.4055 489.3819,-137.811 525.0735,-130.9138"/>
<polygon fill="#191970" stroke="#191970" points="526.1448,-134.2747 535.3369,-129.0064 524.8657,-127.3926 526.1448,-134.2747"/>
</g>
<!-- Node18&#45;&gt;Node16 -->
<g id="edge24" class="edge">
<title>Node18&#45;&gt;Node16</title>
<path fill="none" stroke="#191970" d="M304.2465,-224.3733C286.4288,-215.4644 259.7253,-202.1127 239.5406,-192.0203"/>
<polygon fill="#191970" stroke="#191970" points="241.0118,-188.8428 230.5022,-187.5011 237.8813,-195.1038 241.0118,-188.8428"/>
</g>
<!-- Node18&#45;&gt;Node17 -->
<g id="edge25" class="edge">
<title>Node18&#45;&gt;Node17</title>
<path fill="none" stroke="#191970" d="M321.4098,-224.2455C319.8439,-216.9382 317.6488,-206.6944 315.7224,-197.7046"/>
<polygon fill="#191970" stroke="#191970" points="319.084,-196.6873 313.5663,-187.6427 312.2393,-198.1541 319.084,-196.6873"/>
</g>
<!-- Node19 -->
<g id="node20" class="node">
<title>Node19</title>
<polygon fill="#ffffff" stroke="#bfbfbf" points="415.5,-168.5 415.5,-187.5 495.5,-187.5 495.5,-168.5 415.5,-168.5"/>
<text text-anchor="middle" x="455.5" y="-175.5" font-family="Helvetica,sans-Serif" font-size="10.00" fill="#000000">Eigen/Sparse</text>
</g>
<!-- Node18&#45;&gt;Node19 -->
<g id="edge26" class="edge">
<title>Node18&#45;&gt;Node19</title>
<path fill="none" stroke="#191970" d="M346.1916,-224.3733C367.5711,-215.3032 399.8057,-201.6279 423.7362,-191.4755"/>
<polygon fill="#191970" stroke="#191970" points="425.2656,-194.6287 433.1045,-187.5011 422.5317,-188.1846 425.2656,-194.6287"/>
</g>
<!-- Node20&#45;&gt;Node11 -->
<g id="edge28" class="edge">
<title>Node20&#45;&gt;Node11</title>
<path fill="none" stroke="#191970" d="M136.177,-243.5237C177.4531,-253.0331 238.2709,-267.6781 279.3692,-277.982"/>
<polygon fill="#191970" stroke="#191970" points="278.5588,-281.3871 289.1109,-280.4369 280.2693,-274.5993 278.5588,-281.3871"/>
</g>
<!-- Node21&#45;&gt;Node2 -->
<g id="edge30" class="edge">
<title>Node21&#45;&gt;Node2</title>
<path fill="none" stroke="#191970" d="M794.5137,-280.4369C746.0186,-270.7724 671.0527,-255.8326 619.3121,-245.5213"/>
<polygon fill="#191970" stroke="#191970" points="619.7797,-242.0457 609.2884,-243.5237 618.4115,-248.9107 619.7797,-242.0457"/>
</g>
<!-- Node21&#45;&gt;Node8 -->
<g id="edge33" class="edge">
<title>Node21&#45;&gt;Node8</title>
<path fill="none" stroke="#191970" d="M908.7871,-288.0228C986.6553,-284.3398 1109.5516,-273.8396 1143.5,-244 1166.427,-223.8479 1162.5,-208.5246 1162.5,-178 1162.5,-178 1162.5,-178 1162.5,-122 1162.5,-83.944 1133.8669,-47.4306 1114.3198,-26.9377"/>
<polygon fill="#191970" stroke="#191970" points="1116.6295,-24.2961 1107.104,-19.6575 1111.6578,-29.2238 1116.6295,-24.2961"/>
</g>
<!-- Node21&#45;&gt;Node10 -->
<g id="edge34" class="edge">
<title>Node21&#45;&gt;Node10</title>
<path fill="none" stroke="#191970" d="M811.5569,-280.3733C779.3098,-270.3408 728.9525,-254.6741 695.8408,-244.3727"/>
<polygon fill="#191970" stroke="#191970" points="696.7459,-240.9889 686.1576,-241.3601 694.6664,-247.6729 696.7459,-240.9889"/>
</g>
<!-- Node21&#45;&gt;Node18 -->
<g id="edge35" class="edge">
<title>Node21&#45;&gt;Node18</title>
<path fill="none" stroke="#191970" d="M776.2411,-282.8507C673.0159,-271.7127 475.6763,-250.4198 379.2765,-240.0183"/>
<polygon fill="#191970" stroke="#191970" points="379.4682,-236.5187 369.1504,-238.9257 378.7172,-243.4783 379.4682,-236.5187"/>
</g>
<!-- Node22 -->
<g id="node23" class="node">
<title>Node22</title>
<polygon fill="#ffffff" stroke="#bfbfbf" points="1086.5,-224.5 1086.5,-243.5 1134.5,-243.5 1134.5,-224.5 1086.5,-224.5"/>
<text text-anchor="middle" x="1110.5" y="-231.5" font-family="Helvetica,sans-Serif" font-size="10.00" fill="#000000">mutex</text>
</g>
<!-- Node21&#45;&gt;Node22 -->
<g id="edge31" class="edge">
<title>Node21&#45;&gt;Node22</title>
<path fill="none" stroke="#191970" d="M899.839,-280.445C945.4005,-272.4729 1010.8972,-260.1712 1076.7164,-244.0131"/>
<polygon fill="#191970" stroke="#191970" points="1077.566,-247.4085 1086.4274,-241.6012 1075.8786,-240.6149 1077.566,-247.4085"/>
</g>
<!-- Node23 -->
<g id="node24" class="node">
<title>Node23</title>
<polygon fill="#ffffff" stroke="#bfbfbf" points="880.5,-224.5 880.5,-243.5 924.5,-243.5 924.5,-224.5 880.5,-224.5"/>
<text text-anchor="middle" x="902.5" y="-231.5" font-family="Helvetica,sans-Serif" font-size="10.00" fill="#000000">string</text>
</g>
<!-- Node21&#45;&gt;Node23 -->
<g id="edge32" class="edge">
<title>Node21&#45;&gt;Node23</title>
<path fill="none" stroke="#191970" d="M852.9512,-280.2455C861.7269,-272.0549 874.4554,-260.1749 884.814,-250.5069"/>
<polygon fill="#191970" stroke="#191970" points="887.2461,-253.0246 892.1686,-243.6427 882.4699,-247.9072 887.2461,-253.0246"/>
</g>
<!-- Node24 -->
<g id="node25" class="node">
<title>Node24</title>
<g id="a_node25"><a xlink:href="IndexedObject_8hpp.html" target="_top" xlink:title="Core/Utils/IndexedObject.hpp">
<polygon fill="#ffffff" stroke="#000000" points="704,-224.5 704,-243.5 863,-243.5 863,-224.5 704,-224.5"/>
<text text-anchor="middle" x="783.5" y="-231.5" font-family="Helvetica,sans-Serif" font-size="10.00" fill="#000000">Core/Utils/IndexedObject.hpp</text>
</a>
</g>
</g>
<!-- Node21&#45;&gt;Node24 -->
<g id="edge36" class="edge">
<title>Node21&#45;&gt;Node24</title>
<path fill="none" stroke="#191970" d="M832.223,-280.2455C823.6782,-272.1352 811.3222,-260.4075 801.1915,-250.7919"/>
<polygon fill="#191970" stroke="#191970" points="803.3218,-247.9884 793.6592,-243.6427 798.5028,-253.0655 803.3218,-247.9884"/>
</g>
<!-- Node25 -->
<g id="node26" class="node">
<title>Node25</title>
<g id="a_node26"><a xlink:href="Entity_8inl.html" target="_top" xlink:title="Engine/Entity/Entity.inl">
<polygon fill="#ffffff" stroke="#000000" points="942.5,-224.5 942.5,-243.5 1068.5,-243.5 1068.5,-224.5 942.5,-224.5"/>
<text text-anchor="middle" x="1005.5" y="-231.5" font-family="Helvetica,sans-Serif" font-size="10.00" fill="#000000">Engine/Entity/Entity.inl</text>
</a>
</g>
</g>
<!-- Node21&#45;&gt;Node25 -->
<g id="edge39" class="edge">
<title>Node21&#45;&gt;Node25</title>
<path fill="none" stroke="#191970" d="M865.2787,-280.3733C890.5614,-271.0613 931.6235,-256.8953 962.8627,-246.671"/>
<polygon fill="#191970" stroke="#191970" points="964.1969,-249.9178 972.6277,-243.5011 962.0356,-243.2598 964.1969,-249.9178"/>
</g>
<!-- Node24&#45;&gt;Node12 -->
<g id="edge38" class="edge">
<title>Node24&#45;&gt;Node12</title>
<path fill="none" stroke="#191970" d="M775.8358,-224.2455C769.6527,-216.3761 760.7937,-205.101 753.3711,-195.6542"/>
<polygon fill="#191970" stroke="#191970" points="756.0068,-193.3435 747.0764,-187.6427 750.5025,-197.6683 756.0068,-193.3435"/>
</g>
<!-- Node24&#45;&gt;Node13 -->
<g id="edge37" class="edge">
<title>Node24&#45;&gt;Node13</title>
<path fill="none" stroke="#191970" d="M754.7546,-224.3439C731.7842,-216.1011 699.1387,-203.1882 672.5,-188 646.9797,-173.4495 620.3551,-152.5549 603.1679,-138.1942"/>
<polygon fill="#191970" stroke="#191970" points="605.4267,-135.5206 595.5349,-131.7257 600.9011,-140.861 605.4267,-135.5206"/>
</g>
<!-- Node25&#45;&gt;Node21 -->
<g id="edge40" class="edge">
<title>Node25&#45;&gt;Node21</title>
<path fill="none" stroke="#191970" d="M983.0622,-243.5011C957.9223,-252.7691 916.8875,-266.9309 885.5603,-277.1905"/>
<polygon fill="#191970" stroke="#191970" points="884.1921,-273.9548 875.7627,-280.3733 886.3549,-280.6124 884.1921,-273.9548"/>
</g>
</g>
</svg>
        <g id="navigator" transform="translate(0 0)" fill="#404254">
                <rect fill="#f2f5e9" fill-opacity="0.5" stroke="#606060" stroke-width=".5" x="0" y="0" width="60" height="60"/>
                <use id="zoomplus" xlink:href="#zoomPlus" x="17" y="9" onmousedown="handleZoom(evt,'in')"/>
                <use id="zoomminus" xlink:href="#zoomMin" x="42" y="9" onmousedown="handleZoom(evt,'out')"/>
                <use id="reset" xlink:href="#resetDef" x="30" y="36" onmousedown="handleReset()"/>
                <g id="arrowUp" xlink:href="#dirArrow" transform="translate(30 24)" onmousedown="handlePan(0,-1)">
                  <use xlink:href="#rim" fill="#404040">
                        <set attributeName="fill" to="#808080" begin="arrowUp.mouseover" end="arrowUp.mouseout"/>
                  </use>
                  <path fill="none" stroke="white" stroke-width="1.5" d="M0,-3.0v7 M-2.5,-0.5L0,-3.0L2.5,-0.5"/>
                </g>
                <g id="arrowRight" xlink:href="#dirArrow" transform="rotate(90) translate(36 -43)" onmousedown="handlePan(1,0)">
                  <use xlink:href="#rim" fill="#404040">
                        <set attributeName="fill" to="#808080" begin="arrowRight.mouseover" end="arrowRight.mouseout"/>
                  </use>
                  <path fill="none" stroke="white" stroke-width="1.5" d="M0,-3.0v7 M-2.5,-0.5L0,-3.0L2.5,-0.5"/>
                </g>
                <g id="arrowDown" xlink:href="#dirArrow" transform="rotate(180) translate(-30 -48)" onmousedown="handlePan(0,1)">
                  <use xlink:href="#rim" fill="#404040">
                        <set attributeName="fill" to="#808080" begin="arrowDown.mouseover" end="arrowDown.mouseout"/>
                  </use>
                  <path fill="none" stroke="white" stroke-width="1.5" d="M0,-3.0v7 M-2.5,-0.5L0,-3.0L2.5,-0.5"/>
                </g>
                <g id="arrowLeft" xlink:href="#dirArrow" transform="rotate(270) translate(-36 17)" onmousedown="handlePan(-1,0)">
                  <use xlink:href="#rim" fill="#404040">
                        <set attributeName="fill" to="#808080" begin="arrowLeft.mouseover" end="arrowLeft.mouseout"/>
                  </use>
                  <path fill="none" stroke="white" stroke-width="1.5" d="M0,-3.0v7 M-2.5,-0.5L0,-3.0L2.5,-0.5"/>
                </g>
        </g>
        <svg viewBox="0 0 15 15" width="100%" height="30px" preserveAspectRatio="xMaxYMin meet">
         <g id="arrow_out" transform="scale(0.3 0.3)">
          <a xlink:href="System_8cpp__incl_org.svg" target="_base">
           <rect id="button" ry="5" rx="5" y="6" x="6" height="38" width="38"
                fill="#f2f5e9" fill-opacity="0.5" stroke="#606060" stroke-width="1.0"/>
           <path id="arrow"
             d="M 11.500037,31.436501 C 11.940474,20.09759 22.043105,11.32322 32.158766,21.979434 L 37.068811,17.246167 C 37.068811,17.246167 37.088388,32 37.088388,32 L 22.160133,31.978069 C 22.160133,31.978069 26.997745,27.140456 26.997745,27.140456 C 18.528582,18.264221 13.291696,25.230495 11.500037,31.436501 z"
             style="fill:#404040;"/>
          </a>
         </g>
        </svg>
</svg>
