<?xml version="1.0" encoding="UTF-8" standalone="no"?>
<!DOCTYPE svg PUBLIC "-//W3C//DTD SVG 1.1//EN"
 "http://www.w3.org/Graphics/SVG/1.1/DTD/svg11.dtd">
<!-- Generated by graphviz version 2.40.1 (20161225.0304)
 -->
<!-- Title: src/Engine/System/System.hpp Pages: 1 -->
<!--zoomable 251 -->
<svg id="main" version="1.1" xmlns="http://www.w3.org/2000/svg" xmlns:xlink="http://www.w3.org/1999/xlink" xml:space="preserve" onload="init(evt)">
<style type="text/css"><![CDATA[
.edge:hover path { stroke: red; }
.edge:hover polygon { stroke: red; fill: red; }
]]></style>
<script type="text/javascript"><![CDATA[
var edges = document.getElementsByTagName('g');
if (edges && edges.length) {
  for (var i=0;i<edges.length;i++) {
    if (edges[i].id.substr(0,4)=='edge') {
      edges[i].setAttribute('class','edge');
    }
  }
}
]]></script>
        <defs>
                <circle id="rim" cx="0" cy="0" r="7"/>
                <circle id="rim2" cx="0" cy="0" r="3.5"/>
                <g id="zoomPlus">
                        <use xlink:href="#rim" fill="#404040">
                                <set attributeName="fill" to="#808080" begin="zoomplus.mouseover" end="zoomplus.mouseout"/>
                        </use>
                        <path d="M-4,0h8M0,-4v8" fill="none" stroke="white" stroke-width="1.5" pointer-events="none"/>
                </g>
                <g id="zoomMin">
                        <use xlink:href="#rim" fill="#404040">
                                <set attributeName="fill" to="#808080" begin="zoomminus.mouseover" end="zoomminus.mouseout"/>
                        </use>
                        <path d="M-4,0h8" fill="none" stroke="white" stroke-width="1.5" pointer-events="none"/>
                </g>
                <g id="dirArrow">
                        <path fill="none" stroke="white" stroke-width="1.5" d="M0,-3.0v7 M-2.5,-0.5L0,-3.0L2.5,-0.5"/>
                </g>
               <g id="resetDef">
                       <use xlink:href="#rim2" fill="#404040">
                               <set attributeName="fill" to="#808080" begin="reset.mouseover" end="reset.mouseout"/>
                       </use>
               </g>
        </defs>

<script type="text/javascript">
var viewWidth = 1484;
var viewHeight = 251;
var sectionId = 'dynsection-1';
</script>
<script xlink:href="svgpan.js"/>
<svg id="graph" class="graph">
<g id="viewport">
<title>src/Engine/System/System.hpp</title>
<polygon fill="#ffffff" stroke="transparent" points="-4,4 -4,-247 1479.5,-247 1479.5,4 -4,4"/>
<!-- Node10 -->
<g id="node1" class="node">
<title>Node10</title>
<polygon fill="#bfbfbf" stroke="#000000" points="754,-223.5 754,-242.5 921,-242.5 921,-223.5 754,-223.5"/>
<text text-anchor="middle" x="837.5" y="-230.5" font-family="Helvetica,sans-Serif" font-size="10.00" fill="#000000">src/Engine/System/System.hpp</text>
</g>
<!-- Node11 -->
<g id="node2" class="node">
<title>Node11</title>
<g id="a_node2"><a xlink:href="Component_8cpp.html" target="_top" xlink:title="src/Engine/Component\l/Component.cpp">
<polygon fill="#ffffff" stroke="#000000" points="127.5,-156.5 127.5,-186.5 253.5,-186.5 253.5,-156.5 127.5,-156.5"/>
<text text-anchor="start" x="135.5" y="-174.5" font-family="Helvetica,sans-Serif" font-size="10.00" fill="#000000">src/Engine/Component</text>
<text text-anchor="middle" x="190.5" y="-163.5" font-family="Helvetica,sans-Serif" font-size="10.00" fill="#000000">/Component.cpp</text>
</a>
</g>
</g>
<!-- Node10&#45;&gt;Node11 -->
<g id="edge1" class="edge">
<title>Node10&#45;&gt;Node11</title>
<path fill="none" stroke="#191970" d="M743.6852,-229.3068C629.5018,-223.9352 431.052,-211.7739 262.5,-187 259.5904,-186.5723 256.6224,-186.0964 253.6301,-185.5843"/>
<polygon fill="#191970" stroke="#191970" points="743.639,-232.8083 753.7903,-229.7748 743.9629,-225.8158 743.639,-232.8083"/>
</g>
<!-- Node12 -->
<g id="node3" class="node">
<title>Node12</title>
<g id="a_node3"><a xlink:href="CameraManager_8hpp.html" target="_top" xlink:title="src/Engine/Managers\l/CameraManager/CameraManager.hpp">
<polygon fill="#ffffff" stroke="#000000" points="272,-156.5 272,-186.5 475,-186.5 475,-156.5 272,-156.5"/>
<text text-anchor="start" x="280" y="-174.5" font-family="Helvetica,sans-Serif" font-size="10.00" fill="#000000">src/Engine/Managers</text>
<text text-anchor="middle" x="373.5" y="-163.5" font-family="Helvetica,sans-Serif" font-size="10.00" fill="#000000">/CameraManager/CameraManager.hpp</text>
</a>
</g>
</g>
<!-- Node10&#45;&gt;Node12 -->
<g id="edge2" class="edge">
<title>Node10&#45;&gt;Node12</title>
<path fill="none" stroke="#191970" d="M755.475,-222.1282C677.2566,-211.7608 559.2349,-196.1179 475.0993,-184.9663"/>
<polygon fill="#191970" stroke="#191970" points="755.3899,-225.6474 765.7632,-223.4918 756.3098,-218.7081 755.3899,-225.6474"/>
</g>
<!-- Node17 -->
<g id="node8" class="node">
<title>Node17</title>
<g id="a_node8"><a xlink:href="LightManager_8hpp.html" target="_top" xlink:title="src/Engine/Managers\l/LightManager/LightManager.hpp">
<polygon fill="#ffffff" stroke="#000000" points="564,-156.5 564,-186.5 739,-186.5 739,-156.5 564,-156.5"/>
<text text-anchor="start" x="572" y="-174.5" font-family="Helvetica,sans-Serif" font-size="10.00" fill="#000000">src/Engine/Managers</text>
<text text-anchor="middle" x="651.5" y="-163.5" font-family="Helvetica,sans-Serif" font-size="10.00" fill="#000000">/LightManager/LightManager.hpp</text>
</a>
</g>
</g>
<!-- Node10&#45;&gt;Node17 -->
<g id="edge7" class="edge">
<title>Node10&#45;&gt;Node17</title>
<path fill="none" stroke="#191970" d="M798.8513,-220.221C769.2115,-210.4207 728.224,-196.8684 697.0007,-186.5446"/>
<polygon fill="#191970" stroke="#191970" points="797.8443,-223.5743 808.4375,-223.3906 800.0418,-216.9282 797.8443,-223.5743"/>
</g>
<!-- Node22 -->
<g id="node13" class="node">
<title>Node22</title>
<g id="a_node13"><a xlink:href="RadiumEngine_8cpp.html" target="_top" xlink:title="src/Engine/RadiumEngine.cpp">
<polygon fill="#ffffff" stroke="#000000" points="757,-162 757,-181 918,-181 918,-162 757,-162"/>
<text text-anchor="middle" x="837.5" y="-169" font-family="Helvetica,sans-Serif" font-size="10.00" fill="#000000">src/Engine/RadiumEngine.cpp</text>
</a>
</g>
</g>
<!-- Node10&#45;&gt;Node22 -->
<g id="edge13" class="edge">
<title>Node10&#45;&gt;Node22</title>
<path fill="none" stroke="#191970" d="M837.5,-213.2462C837.5,-202.5519 837.5,-189.814 837.5,-181.2449"/>
<polygon fill="#191970" stroke="#191970" points="834.0001,-213.3906 837.5,-223.3906 841.0001,-213.3907 834.0001,-213.3906"/>
</g>
<!-- Node23 -->
<g id="node14" class="node">
<title>Node23</title>
<g id="a_node14"><a xlink:href="CouplingSystem_8hpp.html" target="_top" xlink:title="src/Engine/System/Coupling\lSystem.hpp">
<polygon fill="#ffffff" stroke="#000000" points="936.5,-156.5 936.5,-186.5 1088.5,-186.5 1088.5,-156.5 936.5,-156.5"/>
<text text-anchor="start" x="944.5" y="-174.5" font-family="Helvetica,sans-Serif" font-size="10.00" fill="#000000">src/Engine/System/Coupling</text>
<text text-anchor="middle" x="1012.5" y="-163.5" font-family="Helvetica,sans-Serif" font-size="10.00" fill="#000000">System.hpp</text>
</a>
</g>
</g>
<!-- Node10&#45;&gt;Node23 -->
<g id="edge14" class="edge">
<title>Node10&#45;&gt;Node23</title>
<path fill="none" stroke="#191970" d="M874.5929,-219.9645C902.4199,-210.1853 940.5689,-196.7786 969.6902,-186.5446"/>
<polygon fill="#191970" stroke="#191970" points="873.1177,-216.773 864.8438,-223.3906 875.4386,-223.3771 873.1177,-216.773"/>
</g>
<!-- Node26 -->
<g id="node17" class="node">
<title>Node26</title>
<g id="a_node17"><a xlink:href="GeometrySystem_8hpp.html" target="_top" xlink:title="src/Engine/System/Geometry\lSystem.hpp">
<polygon fill="#ffffff" stroke="#000000" points="1117.5,-156.5 1117.5,-186.5 1275.5,-186.5 1275.5,-156.5 1117.5,-156.5"/>
<text text-anchor="start" x="1125.5" y="-174.5" font-family="Helvetica,sans-Serif" font-size="10.00" fill="#000000">src/Engine/System/Geometry</text>
<text text-anchor="middle" x="1196.5" y="-163.5" font-family="Helvetica,sans-Serif" font-size="10.00" fill="#000000">System.hpp</text>
</a>
</g>
</g>
<!-- Node10&#45;&gt;Node26 -->
<g id="edge17" class="edge">
<title>Node10&#45;&gt;Node26</title>
<path fill="none" stroke="#191970" d="M903.3679,-221.7162C963.6985,-211.381 1053.1147,-196.0632 1117.3141,-185.0653"/>
<polygon fill="#191970" stroke="#191970" points="902.4653,-218.3198 893.1999,-223.4581 903.6473,-225.2193 902.4653,-218.3198"/>
</g>
<!-- Node29 -->
<g id="node20" class="node">
<title>Node29</title>
<g id="a_node20"><a xlink:href="System_8cpp.html" target="_top" xlink:title="src/Engine/System/System.cpp">
<polygon fill="#ffffff" stroke="#000000" points="1293,-162 1293,-181 1460,-181 1460,-162 1293,-162"/>
<text text-anchor="middle" x="1376.5" y="-169" font-family="Helvetica,sans-Serif" font-size="10.00" fill="#000000">src/Engine/System/System.cpp</text>
</a>
</g>
</g>
<!-- Node10&#45;&gt;Node29 -->
<g id="edge20" class="edge">
<title>Node10&#45;&gt;Node29</title>
<path fill="none" stroke="#191970" d="M931.2829,-225.1178C1021.874,-217.0866 1162.8564,-203.4888 1284.5,-187 1297.1799,-185.2812 1310.7951,-183.1472 1323.5609,-181.0179"/>
<polygon fill="#191970" stroke="#191970" points="930.9647,-221.6322 921.311,-225.9974 931.5799,-228.6051 930.9647,-221.6322"/>
</g>
<!-- Node13 -->
<g id="node4" class="node">
<title>Node13</title>
<g id="a_node4"><a xlink:href="CameraManager_8cpp.html" target="_top" xlink:title="src/Engine/Managers\l/CameraManager/CameraManager.cpp">
<polygon fill="#ffffff" stroke="#000000" points="0,-84 0,-114 203,-114 203,-84 0,-84"/>
<text text-anchor="start" x="8" y="-102" font-family="Helvetica,sans-Serif" font-size="10.00" fill="#000000">src/Engine/Managers</text>
<text text-anchor="middle" x="101.5" y="-91" font-family="Helvetica,sans-Serif" font-size="10.00" fill="#000000">/CameraManager/CameraManager.cpp</text>
</a>
</g>
</g>
<!-- Node12&#45;&gt;Node13 -->
<g id="edge3" class="edge">
<title>Node12&#45;&gt;Node13</title>
<path fill="none" stroke="#191970" d="M307.3094,-153.8573C261.525,-141.6537 201.2586,-125.5901 157.7864,-114.0028"/>
<polygon fill="#191970" stroke="#191970" points="306.5773,-157.2843 317.1414,-156.478 308.3802,-150.5204 306.5773,-157.2843"/>
</g>
<!-- Node14 -->
<g id="node5" class="node">
<title>Node14</title>
<g id="a_node5"><a xlink:href="DefaultCameraManager_8hpp.html" target="_top" xlink:title="src/Engine/Managers\l/CameraManager/DefaultCamera\lManager.hpp">
<polygon fill="#ffffff" stroke="#000000" points="221,-78.5 221,-119.5 398,-119.5 398,-78.5 221,-78.5"/>
<text text-anchor="start" x="229" y="-107.5" font-family="Helvetica,sans-Serif" font-size="10.00" fill="#000000">src/Engine/Managers</text>
<text text-anchor="start" x="229" y="-96.5" font-family="Helvetica,sans-Serif" font-size="10.00" fill="#000000">/CameraManager/DefaultCamera</text>
<text text-anchor="middle" x="309.5" y="-85.5" font-family="Helvetica,sans-Serif" font-size="10.00" fill="#000000">Manager.hpp</text>
</a>
</g>
</g>
<!-- Node12&#45;&gt;Node14 -->
<g id="edge4" class="edge">
<title>Node12&#45;&gt;Node14</title>
<path fill="none" stroke="#191970" d="M353.6178,-148.9772C345.3046,-139.5599 335.7112,-128.6924 327.5979,-119.5015"/>
<polygon fill="#191970" stroke="#191970" points="350.9973,-151.2973 360.2392,-156.478 356.2451,-146.6648 350.9973,-151.2973"/>
</g>
<!-- Node15 -->
<g id="node6" class="node">
<title>Node15</title>
<g id="a_node6"><a xlink:href="DefaultCameraManager_8cpp.html" target="_top" xlink:title="src/Engine/Managers\l/CameraManager/DefaultCamera\lManager.cpp">
<polygon fill="#ffffff" stroke="#000000" points="120,-.5 120,-41.5 297,-41.5 297,-.5 120,-.5"/>
<text text-anchor="start" x="128" y="-29.5" font-family="Helvetica,sans-Serif" font-size="10.00" fill="#000000">src/Engine/Managers</text>
<text text-anchor="start" x="128" y="-18.5" font-family="Helvetica,sans-Serif" font-size="10.00" fill="#000000">/CameraManager/DefaultCamera</text>
<text text-anchor="middle" x="208.5" y="-7.5" font-family="Helvetica,sans-Serif" font-size="10.00" fill="#000000">Manager.cpp</text>
</a>
</g>
</g>
<!-- Node14&#45;&gt;Node15 -->
<g id="edge5" class="edge">
<title>Node14&#45;&gt;Node15</title>
<path fill="none" stroke="#191970" d="M274.4639,-71.9424C261.543,-61.9639 247.1273,-50.831 235.0758,-41.5239"/>
<polygon fill="#191970" stroke="#191970" points="272.6451,-74.96 282.699,-78.3022 276.9237,-69.4198 272.6451,-74.96"/>
</g>
<!-- Node16 -->
<g id="node7" class="node">
<title>Node16</title>
<g id="a_node7"><a xlink:href="ForwardRenderer_8cpp.html" target="_top" xlink:title="src/Engine/Renderer\l/Renderers/ForwardRenderer.cpp">
<polygon fill="#ffffff" stroke="#000000" points="315,-6 315,-36 488,-36 488,-6 315,-6"/>
<text text-anchor="start" x="323" y="-24" font-family="Helvetica,sans-Serif" font-size="10.00" fill="#000000">src/Engine/Renderer</text>
<text text-anchor="middle" x="401.5" y="-13" font-family="Helvetica,sans-Serif" font-size="10.00" fill="#000000">/Renderers/ForwardRenderer.cpp</text>
</a>
</g>
</g>
<!-- Node14&#45;&gt;Node16 -->
<g id="edge6" class="edge">
<title>Node14&#45;&gt;Node16</title>
<path fill="none" stroke="#191970" d="M342.1539,-71.3152C356.1709,-59.4312 371.9979,-46.0126 383.7802,-36.0233"/>
<polygon fill="#191970" stroke="#191970" points="339.5185,-68.9609 334.1543,-78.0974 344.0453,-74.3002 339.5185,-68.9609"/>
</g>
<!-- Node18 -->
<g id="node9" class="node">
<title>Node18</title>
<g id="a_node9"><a xlink:href="DefaultLightManager_8hpp.html" target="_top" xlink:title="src/Engine/Managers\l/LightManager/DefaultLight\lManager.hpp">
<polygon fill="#ffffff" stroke="#000000" points="416,-78.5 416,-119.5 565,-119.5 565,-78.5 416,-78.5"/>
<text text-anchor="start" x="424" y="-107.5" font-family="Helvetica,sans-Serif" font-size="10.00" fill="#000000">src/Engine/Managers</text>
<text text-anchor="start" x="424" y="-96.5" font-family="Helvetica,sans-Serif" font-size="10.00" fill="#000000">/LightManager/DefaultLight</text>
<text text-anchor="middle" x="490.5" y="-85.5" font-family="Helvetica,sans-Serif" font-size="10.00" fill="#000000">Manager.hpp</text>
</a>
</g>
</g>
<!-- Node17&#45;&gt;Node18 -->
<g id="edge8" class="edge">
<title>Node17&#45;&gt;Node18</title>
<path fill="none" stroke="#191970" d="M608.8613,-152.2993C586.4166,-142.1923 558.8868,-129.7953 536.0275,-119.5015"/>
<polygon fill="#191970" stroke="#191970" points="607.5854,-155.5633 618.1407,-156.478 610.4597,-149.1805 607.5854,-155.5633"/>
</g>
<!-- Node20 -->
<g id="node11" class="node">
<title>Node20</title>
<g id="a_node11"><a xlink:href="LightManager_8cpp.html" target="_top" xlink:title="src/Engine/Managers\l/LightManager/LightManager.cpp">
<polygon fill="#ffffff" stroke="#000000" points="583.5,-84 583.5,-114 757.5,-114 757.5,-84 583.5,-84"/>
<text text-anchor="start" x="591.5" y="-102" font-family="Helvetica,sans-Serif" font-size="10.00" fill="#000000">src/Engine/Managers</text>
<text text-anchor="middle" x="670.5" y="-91" font-family="Helvetica,sans-Serif" font-size="10.00" fill="#000000">/LightManager/LightManager.cpp</text>
</a>
</g>
</g>
<!-- Node17&#45;&gt;Node20 -->
<g id="edge11" class="edge">
<title>Node17&#45;&gt;Node20</title>
<path fill="none" stroke="#191970" d="M658.0052,-146.6774C660.8519,-135.8151 664.0982,-123.4281 666.5682,-114.0028"/>
<polygon fill="#191970" stroke="#191970" points="654.5863,-145.9173 655.4368,-156.478 661.3576,-147.6919 654.5863,-145.9173"/>
</g>
<!-- Node21 -->
<g id="node12" class="node">
<title>Node21</title>
<g id="a_node12"><a xlink:href="Renderer_8cpp.html" target="_top" xlink:title="src/Engine/Renderer\l/Renderer.cpp">
<polygon fill="#ffffff" stroke="#000000" points="776,-84 776,-114 889,-114 889,-84 776,-84"/>
<text text-anchor="start" x="784" y="-102" font-family="Helvetica,sans-Serif" font-size="10.00" fill="#000000">src/Engine/Renderer</text>
<text text-anchor="middle" x="832.5" y="-91" font-family="Helvetica,sans-Serif" font-size="10.00" fill="#000000">/Renderer.cpp</text>
</a>
</g>
</g>
<!-- Node17&#45;&gt;Node21 -->
<g id="edge12" class="edge">
<title>Node17&#45;&gt;Node21</title>
<path fill="none" stroke="#191970" d="M698.4481,-152.6948C728.524,-140.6478 767.0262,-125.2257 795.0447,-114.0028"/>
<polygon fill="#191970" stroke="#191970" points="696.9849,-149.5105 689.0033,-156.478 699.5878,-156.0086 696.9849,-149.5105"/>
</g>
<!-- Node18&#45;&gt;Node16 -->
<g id="edge10" class="edge">
<title>Node18&#45;&gt;Node16</title>
<path fill="none" stroke="#191970" d="M458.9109,-71.3152C445.351,-59.4312 430.04,-46.0126 418.642,-36.0233"/>
<polygon fill="#191970" stroke="#191970" points="456.8222,-74.1386 466.6496,-78.0974 461.4359,-68.8742 456.8222,-74.1386"/>
</g>
<!-- Node19 -->
<g id="node10" class="node">
<title>Node19</title>
<g id="a_node10"><a xlink:href="DefaultLightManager_8cpp.html" target="_top" xlink:title="src/Engine/Managers\l/LightManager/DefaultLight\lManager.cpp">
<polygon fill="#ffffff" stroke="#000000" points="506,-.5 506,-41.5 655,-41.5 655,-.5 506,-.5"/>
<text text-anchor="start" x="514" y="-29.5" font-family="Helvetica,sans-Serif" font-size="10.00" fill="#000000">src/Engine/Managers</text>
<text text-anchor="start" x="514" y="-18.5" font-family="Helvetica,sans-Serif" font-size="10.00" fill="#000000">/LightManager/DefaultLight</text>
<text text-anchor="middle" x="580.5" y="-7.5" font-family="Helvetica,sans-Serif" font-size="10.00" fill="#000000">Manager.cpp</text>
</a>
</g>
</g>
<!-- Node18&#45;&gt;Node19 -->
<g id="edge9" class="edge">
<title>Node18&#45;&gt;Node19</title>
<path fill="none" stroke="#191970" d="M522.2167,-71.5122C533.5335,-61.7043 546.0816,-50.8293 556.6272,-41.6898"/>
<polygon fill="#191970" stroke="#191970" points="519.883,-68.9032 514.6183,-78.0974 524.4675,-74.193 519.883,-68.9032"/>
</g>
<!-- Node24 -->
<g id="node15" class="node">
<title>Node24</title>
<g id="a_node15"><a xlink:href="TimedSystem_8hpp.html" target="_top" xlink:title="src/Engine/System/TimedSystem.hpp">
<polygon fill="#ffffff" stroke="#000000" points="907.5,-89.5 907.5,-108.5 1105.5,-108.5 1105.5,-89.5 907.5,-89.5"/>
<text text-anchor="middle" x="1006.5" y="-96.5" font-family="Helvetica,sans-Serif" font-size="10.00" fill="#000000">src/Engine/System/TimedSystem.hpp</text>
</a>
</g>
</g>
<!-- Node23&#45;&gt;Node24 -->
<g id="edge15" class="edge">
<title>Node23&#45;&gt;Node24</title>
<path fill="none" stroke="#191970" d="M1010.4149,-146.305C1009.3489,-133.424 1008.1124,-118.4836 1007.319,-108.8957"/>
<polygon fill="#191970" stroke="#191970" points="1006.9439,-146.8007 1011.2568,-156.478 1013.92,-146.2233 1006.9439,-146.8007"/>
</g>
<!-- Node25 -->
<g id="node16" class="node">
<title>Node25</title>
<g id="a_node16"><a xlink:href="TimedSystem_8cpp.html" target="_top" xlink:title="src/Engine/System/TimedSystem.cpp">
<polygon fill="#ffffff" stroke="#000000" points="908,-11.5 908,-30.5 1105,-30.5 1105,-11.5 908,-11.5"/>
<text text-anchor="middle" x="1006.5" y="-18.5" font-family="Helvetica,sans-Serif" font-size="10.00" fill="#000000">src/Engine/System/TimedSystem.cpp</text>
</a>
</g>
</g>
<!-- Node24&#45;&gt;Node25 -->
<g id="edge16" class="edge">
<title>Node24&#45;&gt;Node25</title>
<path fill="none" stroke="#191970" d="M1006.5,-79.2866C1006.5,-63.7395 1006.5,-42.7276 1006.5,-30.6426"/>
<polygon fill="#191970" stroke="#191970" points="1003.0001,-79.4356 1006.5,-89.4357 1010.0001,-79.4357 1003.0001,-79.4356"/>
</g>
<!-- Node27 -->
<g id="node18" class="node">
<title>Node27</title>
<g id="a_node18"><a xlink:href="GeometrySystem_8cpp.html" target="_top" xlink:title="src/Engine/System/Geometry\lSystem.cpp">
<polygon fill="#ffffff" stroke="#000000" points="1123.5,-84 1123.5,-114 1281.5,-114 1281.5,-84 1123.5,-84"/>
<text text-anchor="start" x="1131.5" y="-102" font-family="Helvetica,sans-Serif" font-size="10.00" fill="#000000">src/Engine/System/Geometry</text>
<text text-anchor="middle" x="1202.5" y="-91" font-family="Helvetica,sans-Serif" font-size="10.00" fill="#000000">System.cpp</text>
</a>
</g>
</g>
<!-- Node26&#45;&gt;Node27 -->
<g id="edge18" class="edge">
<title>Node26&#45;&gt;Node27</title>
<path fill="none" stroke="#191970" d="M1198.5821,-146.3409C1199.4743,-135.5601 1200.4864,-123.3309 1201.2584,-114.0028"/>
<polygon fill="#191970" stroke="#191970" points="1195.08,-146.2233 1197.7432,-156.478 1202.0561,-146.8007 1195.08,-146.2233"/>
</g>
<!-- Node28 -->
<g id="node19" class="node">
<title>Node28</title>
<g id="a_node19"><a xlink:href="BaseApplication_8cpp.html" target="_top" xlink:title="src/GuiBase/BaseApplication.cpp">
<polygon fill="#ffffff" stroke="#000000" points="1299.5,-89.5 1299.5,-108.5 1475.5,-108.5 1475.5,-89.5 1299.5,-89.5"/>
<text text-anchor="middle" x="1387.5" y="-96.5" font-family="Helvetica,sans-Serif" font-size="10.00" fill="#000000">src/GuiBase/BaseApplication.cpp</text>
</a>
</g>
</g>
<!-- Node26&#45;&gt;Node28 -->
<g id="edge19" class="edge">
<title>Node26&#45;&gt;Node28</title>
<path fill="none" stroke="#191970" d="M1245.7496,-152.8058C1283.0304,-138.6547 1332.708,-119.798 1362.2706,-108.5766"/>
<polygon fill="#191970" stroke="#191970" points="1244.1824,-149.6569 1236.0753,-156.478 1246.6666,-156.2013 1244.1824,-149.6569"/>
</g>
</g>
</svg>
        <g id="navigator" transform="translate(0 0)" fill="#404254">
                <rect fill="#f2f5e9" fill-opacity="0.5" stroke="#606060" stroke-width=".5" x="0" y="0" width="60" height="60"/>
                <use id="zoomplus" xlink:href="#zoomPlus" x="17" y="9" onmousedown="handleZoom(evt,'in')"/>
                <use id="zoomminus" xlink:href="#zoomMin" x="42" y="9" onmousedown="handleZoom(evt,'out')"/>
                <use id="reset" xlink:href="#resetDef" x="30" y="36" onmousedown="handleReset()"/>
                <g id="arrowUp" xlink:href="#dirArrow" transform="translate(30 24)" onmousedown="handlePan(0,-1)">
                  <use xlink:href="#rim" fill="#404040">
                        <set attributeName="fill" to="#808080" begin="arrowUp.mouseover" end="arrowUp.mouseout"/>
                  </use>
                  <path fill="none" stroke="white" stroke-width="1.5" d="M0,-3.0v7 M-2.5,-0.5L0,-3.0L2.5,-0.5"/>
                </g>
                <g id="arrowRight" xlink:href="#dirArrow" transform="rotate(90) translate(36 -43)" onmousedown="handlePan(1,0)">
                  <use xlink:href="#rim" fill="#404040">
                        <set attributeName="fill" to="#808080" begin="arrowRight.mouseover" end="arrowRight.mouseout"/>
                  </use>
                  <path fill="none" stroke="white" stroke-width="1.5" d="M0,-3.0v7 M-2.5,-0.5L0,-3.0L2.5,-0.5"/>
                </g>
                <g id="arrowDown" xlink:href="#dirArrow" transform="rotate(180) translate(-30 -48)" onmousedown="handlePan(0,1)">
                  <use xlink:href="#rim" fill="#404040">
                        <set attributeName="fill" to="#808080" begin="arrowDown.mouseover" end="arrowDown.mouseout"/>
                  </use>
                  <path fill="none" stroke="white" stroke-width="1.5" d="M0,-3.0v7 M-2.5,-0.5L0,-3.0L2.5,-0.5"/>
                </g>
                <g id="arrowLeft" xlink:href="#dirArrow" transform="rotate(270) translate(-36 17)" onmousedown="handlePan(-1,0)">
                  <use xlink:href="#rim" fill="#404040">
                        <set attributeName="fill" to="#808080" begin="arrowLeft.mouseover" end="arrowLeft.mouseout"/>
                  </use>
                  <path fill="none" stroke="white" stroke-width="1.5" d="M0,-3.0v7 M-2.5,-0.5L0,-3.0L2.5,-0.5"/>
                </g>
        </g>
        <svg viewBox="0 0 15 15" width="100%" height="30px" preserveAspectRatio="xMaxYMin meet">
         <g id="arrow_out" transform="scale(0.3 0.3)">
          <a xlink:href="System_8hpp__dep__incl_org.svg" target="_base">
           <rect id="button" ry="5" rx="5" y="6" x="6" height="38" width="38"
                fill="#f2f5e9" fill-opacity="0.5" stroke="#606060" stroke-width="1.0"/>
           <path id="arrow"
             d="M 11.500037,31.436501 C 11.940474,20.09759 22.043105,11.32322 32.158766,21.979434 L 37.068811,17.246167 C 37.068811,17.246167 37.088388,32 37.088388,32 L 22.160133,31.978069 C 22.160133,31.978069 26.997745,27.140456 26.997745,27.140456 C 18.528582,18.264221 13.291696,25.230495 11.500037,31.436501 z"
             style="fill:#404040;"/>
          </a>
         </g>
        </svg>
</svg>
