<?xml version="1.0" encoding="UTF-8" standalone="no"?>
<!DOCTYPE svg PUBLIC "-//W3C//DTD SVG 1.1//EN"
 "http://www.w3.org/Graphics/SVG/1.1/DTD/svg11.dtd">
<!-- Generated by graphviz version 2.40.1 (20161225.0304)
 -->
<!-- Title: src/Core/Tasks/TaskQueue.hpp Pages: 1 -->
<svg width="938pt" height="218pt"
 viewBox="0.00 0.00 937.60 218.00" xmlns="http://www.w3.org/2000/svg" xmlns:xlink="http://www.w3.org/1999/xlink">
<g id="graph0" class="graph" transform="scale(1 1) rotate(0) translate(4 214)">
<title>src/Core/Tasks/TaskQueue.hpp</title>
<polygon fill="#ffffff" stroke="transparent" points="-4,4 -4,-214 933.6001,-214 933.6001,4 -4,4"/>
<!-- Node19 -->
<g id="node1" class="node">
<title>Node19</title>
<polygon fill="#bfbfbf" stroke="#000000" points="499.5,-190.5 499.5,-209.5 663.5,-209.5 663.5,-190.5 499.5,-190.5"/>
<text text-anchor="middle" x="581.5" y="-197.5" font-family="Helvetica,sans-Serif" font-size="10.00" fill="#000000">src/Core/Tasks/TaskQueue.hpp</text>
</g>
<!-- Node20 -->
<g id="node2" class="node">
<title>Node20</title>
<g id="a_node2"><a xlink:href="TaskQueue_8cpp.html" target="_top" xlink:title="src/Core/Tasks/TaskQueue.cpp">
<polygon fill="#ffffff" stroke="#000000" points="0,-129 0,-148 163,-148 163,-129 0,-129"/>
<text text-anchor="middle" x="81.5" y="-136" font-family="Helvetica,sans-Serif" font-size="10.00" fill="#000000">src/Core/Tasks/TaskQueue.cpp</text>
</a>
</g>
</g>
<!-- Node19&#45;&gt;Node20 -->
<g id="edge1" class="edge">
<title>Node19&#45;&gt;Node20</title>
<path fill="none" stroke="#191970" d="M489.0636,-191.1968C405.8369,-182.898 280.2507,-169.4517 171.5,-154 159.256,-152.2603 146.1182,-150.1419 133.7677,-148.0369"/>
<polygon fill="#191970" stroke="#191970" points="488.9553,-194.7031 499.2521,-192.2081 489.6468,-187.7374 488.9553,-194.7031"/>
</g>
<!-- Node21 -->
<g id="node3" class="node">
<title>Node21</title>
<g id="a_node3"><a xlink:href="CameraManager_8cpp.html" target="_top" xlink:title="src/Engine/Managers\l/CameraManager/CameraManager.cpp">
<polygon fill="#ffffff" stroke="#000000" points="181,-123.5 181,-153.5 384,-153.5 384,-123.5 181,-123.5"/>
<text text-anchor="start" x="189" y="-141.5" font-family="Helvetica,sans-Serif" font-size="10.00" fill="#000000">src/Engine/Managers</text>
<text text-anchor="middle" x="282.5" y="-130.5" font-family="Helvetica,sans-Serif" font-size="10.00" fill="#000000">/CameraManager/CameraManager.cpp</text>
</a>
</g>
</g>
<!-- Node19&#45;&gt;Node21 -->
<g id="edge2" class="edge">
<title>Node19&#45;&gt;Node21</title>
<path fill="none" stroke="#191970" d="M525.1994,-188.4198C477.1757,-178.542 407.8076,-164.274 355.5207,-153.5193"/>
<polygon fill="#191970" stroke="#191970" points="524.6092,-191.8716 535.1093,-190.4581 526.0195,-185.0151 524.6092,-191.8716"/>
</g>
<!-- Node22 -->
<g id="node4" class="node">
<title>Node22</title>
<g id="a_node4"><a xlink:href="LightManager_8cpp.html" target="_top" xlink:title="src/Engine/Managers\l/LightManager/LightManager.cpp">
<polygon fill="#ffffff" stroke="#000000" points="402.5,-123.5 402.5,-153.5 576.5,-153.5 576.5,-123.5 402.5,-123.5"/>
<text text-anchor="start" x="410.5" y="-141.5" font-family="Helvetica,sans-Serif" font-size="10.00" fill="#000000">src/Engine/Managers</text>
<text text-anchor="middle" x="489.5" y="-130.5" font-family="Helvetica,sans-Serif" font-size="10.00" fill="#000000">/LightManager/LightManager.cpp</text>
</a>
</g>
</g>
<!-- Node19&#45;&gt;Node22 -->
<g id="edge3" class="edge">
<title>Node19&#45;&gt;Node22</title>
<path fill="none" stroke="#191970" d="M558.4385,-184.5839C544.2336,-175.0882 526.1066,-162.9707 512.0057,-153.5446"/>
<polygon fill="#191970" stroke="#191970" points="556.8663,-187.7429 567.125,-190.3906 560.7566,-181.9234 556.8663,-187.7429"/>
</g>
<!-- Node23 -->
<g id="node5" class="node">
<title>Node23</title>
<g id="a_node5"><a xlink:href="GeometrySystem_8cpp.html" target="_top" xlink:title="src/Engine/System/Geometry\lSystem.cpp">
<polygon fill="#ffffff" stroke="#000000" points="594.5,-123.5 594.5,-153.5 752.5,-153.5 752.5,-123.5 594.5,-123.5"/>
<text text-anchor="start" x="602.5" y="-141.5" font-family="Helvetica,sans-Serif" font-size="10.00" fill="#000000">src/Engine/System/Geometry</text>
<text text-anchor="middle" x="673.5" y="-130.5" font-family="Helvetica,sans-Serif" font-size="10.00" fill="#000000">System.cpp</text>
</a>
</g>
</g>
<!-- Node19&#45;&gt;Node23 -->
<g id="edge4" class="edge">
<title>Node19&#45;&gt;Node23</title>
<path fill="none" stroke="#191970" d="M604.5615,-184.5839C618.7664,-175.0882 636.8934,-162.9707 650.9943,-153.5446"/>
<polygon fill="#191970" stroke="#191970" points="602.2434,-181.9234 595.875,-190.3906 606.1337,-187.7429 602.2434,-181.9234"/>
</g>
<!-- Node24 -->
<g id="node6" class="node">
<title>Node24</title>
<g id="a_node6"><a xlink:href="FrameTimerData_8hpp.html" target="_top" xlink:title="src/GuiBase/TimerData\l/FrameTimerData.hpp">
<polygon fill="#ffffff" stroke="#000000" points="771,-123.5 771,-153.5 900,-153.5 900,-123.5 771,-123.5"/>
<text text-anchor="start" x="779" y="-141.5" font-family="Helvetica,sans-Serif" font-size="10.00" fill="#000000">src/GuiBase/TimerData</text>
<text text-anchor="middle" x="835.5" y="-130.5" font-family="Helvetica,sans-Serif" font-size="10.00" fill="#000000">/FrameTimerData.hpp</text>
</a>
</g>
</g>
<!-- Node19&#45;&gt;Node24 -->
<g id="edge5" class="edge">
<title>Node19&#45;&gt;Node24</title>
<path fill="none" stroke="#191970" d="M630.8543,-188.05C671.508,-178.2067 729.3875,-164.1926 773.2249,-153.5784"/>
<polygon fill="#191970" stroke="#191970" points="629.8043,-184.7031 620.9088,-190.4581 631.4516,-191.5065 629.8043,-184.7031"/>
</g>
<!-- Node26 -->
<g id="node8" class="node">
<title>Node26</title>
<g id="a_node8"><a xlink:href="BaseApplication_8cpp.html" target="_top" xlink:title="src/GuiBase/BaseApplication.cpp">
<polygon fill="#ffffff" stroke="#000000" points="708.5,-.5 708.5,-19.5 884.5,-19.5 884.5,-.5 708.5,-.5"/>
<text text-anchor="middle" x="796.5" y="-7.5" font-family="Helvetica,sans-Serif" font-size="10.00" fill="#000000">src/GuiBase/BaseApplication.cpp</text>
</a>
</g>
</g>
<!-- Node19&#45;&gt;Node26 -->
<g id="edge9" class="edge">
<title>Node19&#45;&gt;Node26</title>
<path fill="none" stroke="#191970" d="M674.0028,-193.1841C765.5223,-185.478 894.1347,-171.6705 909.5,-154 938.0798,-121.1324 933.8086,-92.1411 909.5,-56 896.9102,-37.282 875.2387,-26.1768 854.2207,-19.5898"/>
<polygon fill="#191970" stroke="#191970" points="673.5508,-189.7095 663.8746,-194.0249 674.1299,-196.6855 673.5508,-189.7095"/>
</g>
<!-- Node25 -->
<g id="node7" class="node">
<title>Node25</title>
<g id="a_node7"><a xlink:href="BaseApplication_8hpp.html" target="_top" xlink:title="src/GuiBase/BaseApplication.hpp">
<polygon fill="#ffffff" stroke="#000000" points="576,-62 576,-81 753,-81 753,-62 576,-62"/>
<text text-anchor="middle" x="664.5" y="-69" font-family="Helvetica,sans-Serif" font-size="10.00" fill="#000000">src/GuiBase/BaseApplication.hpp</text>
</a>
</g>
</g>
<!-- Node24&#45;&gt;Node25 -->
<g id="edge6" class="edge">
<title>Node24&#45;&gt;Node25</title>
<path fill="none" stroke="#191970" d="M787.4844,-119.6869C755.4306,-107.1278 714.6128,-91.1349 689.0115,-81.1039"/>
<polygon fill="#191970" stroke="#191970" points="786.5366,-123.0745 797.1243,-123.4639 789.0903,-116.5569 786.5366,-123.0745"/>
</g>
<!-- Node27 -->
<g id="node9" class="node">
<title>Node27</title>
<g id="a_node9"><a xlink:href="FrameTimerData_8cpp.html" target="_top" xlink:title="src/GuiBase/TimerData\l/FrameTimerData.cpp">
<polygon fill="#ffffff" stroke="#000000" points="771,-56.5 771,-86.5 900,-86.5 900,-56.5 771,-56.5"/>
<text text-anchor="start" x="779" y="-74.5" font-family="Helvetica,sans-Serif" font-size="10.00" fill="#000000">src/GuiBase/TimerData</text>
<text text-anchor="middle" x="835.5" y="-63.5" font-family="Helvetica,sans-Serif" font-size="10.00" fill="#000000">/FrameTimerData.cpp</text>
</a>
</g>
</g>
<!-- Node24&#45;&gt;Node27 -->
<g id="edge8" class="edge">
<title>Node24&#45;&gt;Node27</title>
<path fill="none" stroke="#191970" d="M835.5,-113.0249C835.5,-104.128 835.5,-94.4287 835.5,-86.6432"/>
<polygon fill="#191970" stroke="#191970" points="832.0001,-113.2966 835.5,-123.2967 839.0001,-113.2967 832.0001,-113.2966"/>
</g>
<!-- Node25&#45;&gt;Node26 -->
<g id="edge7" class="edge">
<title>Node25&#45;&gt;Node26</title>
<path fill="none" stroke="#191970" d="M694.4722,-57.5357C719.3894,-45.9265 754.1847,-29.7151 776.0198,-19.5419"/>
<polygon fill="#191970" stroke="#191970" points="692.7113,-54.4948 685.125,-61.8906 695.6676,-60.8399 692.7113,-54.4948"/>
</g>
</g>
</svg>
