<?xml version="1.0" encoding="UTF-8" standalone="no"?>
<!DOCTYPE svg PUBLIC "-//W3C//DTD SVG 1.1//EN"
 "http://www.w3.org/Graphics/SVG/1.1/DTD/svg11.dtd">
<!-- Generated by graphviz version 2.40.1 (20161225.0304)
 -->
<!-- Title: src/Engine/Renderer/Texture/Texture.hpp Pages: 1 -->
<svg width="970pt" height="341pt"
 viewBox="0.00 0.00 969.77 341.00" xmlns="http://www.w3.org/2000/svg" xmlns:xlink="http://www.w3.org/1999/xlink">
<g id="graph0" class="graph" transform="scale(1 1) rotate(0) translate(4 337)">
<title>src/Engine/Renderer/Texture/Texture.hpp</title>
<polygon fill="#ffffff" stroke="transparent" points="-4,4 -4,-337 965.7667,-337 965.7667,4 -4,4"/>
<!-- Node0 -->
<g id="node1" class="node">
<title>Node0</title>
<polygon fill="#bfbfbf" stroke="#000000" points="67.7667,-302.5 67.7667,-332.5 183.7667,-332.5 183.7667,-302.5 67.7667,-302.5"/>
<text text-anchor="start" x="75.7667" y="-320.5" font-family="Helvetica,sans-Serif" font-size="10.00" fill="#000000">src/Engine/Renderer</text>
<text text-anchor="middle" x="125.7667" y="-309.5" font-family="Helvetica,sans-Serif" font-size="10.00" fill="#000000">/Texture/Texture.hpp</text>
</g>
<!-- Node1 -->
<g id="node2" class="node">
<title>Node1</title>
<g id="a_node2"><a xlink:href="RaEngine_8hpp.html" target="_top" xlink:title="Engine/RaEngine.hpp">
<polygon fill="#ffffff" stroke="#000000" points="124.2667,-112.5 124.2667,-131.5 243.2667,-131.5 243.2667,-112.5 124.2667,-112.5"/>
<text text-anchor="middle" x="183.7667" y="-119.5" font-family="Helvetica,sans-Serif" font-size="10.00" fill="#000000">Engine/RaEngine.hpp</text>
</a>
</g>
</g>
<!-- Node0&#45;&gt;Node1 -->
<g id="edge1" class="edge">
<title>Node0&#45;&gt;Node1</title>
<path fill="none" stroke="#191970" d="M67.4943,-302.9966C48.6511,-295.2481 29.7919,-283.5422 18.7667,-266 -4.4102,-229.123 -7.5737,-202.6882 18.7667,-168 30.7038,-152.2798 74.6291,-140.4938 114.1575,-132.789"/>
<polygon fill="#191970" stroke="#191970" points="114.9109,-136.2087 124.0903,-130.9181 113.6152,-129.3297 114.9109,-136.2087"/>
</g>
<!-- Node8 -->
<g id="node9" class="node">
<title>Node8</title>
<polygon fill="#ffffff" stroke="#bfbfbf" points="27.7667,-241 27.7667,-260 85.7667,-260 85.7667,-241 27.7667,-241"/>
<text text-anchor="middle" x="56.7667" y="-248" font-family="Helvetica,sans-Serif" font-size="10.00" fill="#000000">memory</text>
</g>
<!-- Node0&#45;&gt;Node8 -->
<g id="edge8" class="edge">
<title>Node0&#45;&gt;Node8</title>
<path fill="none" stroke="#191970" d="M110.1095,-302.2967C99.359,-291.8578 85.0873,-277.9997 74.0112,-267.2446"/>
<polygon fill="#191970" stroke="#191970" points="76.2194,-264.5103 66.6069,-260.055 71.343,-269.5323 76.2194,-264.5103"/>
</g>
<!-- Node9 -->
<g id="node10" class="node">
<title>Node9</title>
<polygon fill="#ffffff" stroke="#bfbfbf" points="103.7667,-241 103.7667,-260 147.7667,-260 147.7667,-241 103.7667,-241"/>
<text text-anchor="middle" x="125.7667" y="-248" font-family="Helvetica,sans-Serif" font-size="10.00" fill="#000000">string</text>
</g>
<!-- Node0&#45;&gt;Node9 -->
<g id="edge9" class="edge">
<title>Node0&#45;&gt;Node9</title>
<path fill="none" stroke="#191970" d="M125.7667,-302.2967C125.7667,-292.7699 125.7667,-280.3954 125.7667,-270.1306"/>
<polygon fill="#191970" stroke="#191970" points="129.2668,-270.0549 125.7667,-260.055 122.2668,-270.055 129.2668,-270.0549"/>
</g>
<!-- Node10 -->
<g id="node11" class="node">
<title>Node10</title>
<g id="a_node11"><a xlink:href="OpenGL_8hpp.html" target="_top" xlink:title="Engine/Renderer/OpenGL\l/OpenGL.hpp">
<polygon fill="#ffffff" stroke="#000000" points="166.2667,-235.5 166.2667,-265.5 303.2667,-265.5 303.2667,-235.5 166.2667,-235.5"/>
<text text-anchor="start" x="174.2667" y="-253.5" font-family="Helvetica,sans-Serif" font-size="10.00" fill="#000000">Engine/Renderer/OpenGL</text>
<text text-anchor="middle" x="234.7667" y="-242.5" font-family="Helvetica,sans-Serif" font-size="10.00" fill="#000000">/OpenGL.hpp</text>
</a>
</g>
</g>
<!-- Node0&#45;&gt;Node10 -->
<g id="edge10" class="edge">
<title>Node0&#45;&gt;Node10</title>
<path fill="none" stroke="#191970" d="M150.2284,-302.4639C165.269,-293.2188 184.7484,-281.2452 201.2172,-271.1222"/>
<polygon fill="#191970" stroke="#191970" points="203.323,-273.9361 210.0095,-265.7177 199.6574,-267.9726 203.323,-273.9361"/>
</g>
<!-- Node14 -->
<g id="node15" class="node">
<title>Node14</title>
<g id="a_node15"><a xlink:href="Color_8hpp.html" target="_top" xlink:title="Core/Utils/Color.hpp">
<polygon fill="#ffffff" stroke="#000000" points="630.2667,-241 630.2667,-260 743.2667,-260 743.2667,-241 630.2667,-241"/>
<text text-anchor="middle" x="686.7667" y="-248" font-family="Helvetica,sans-Serif" font-size="10.00" fill="#000000">Core/Utils/Color.hpp</text>
</a>
</g>
</g>
<!-- Node0&#45;&gt;Node14 -->
<g id="edge14" class="edge">
<title>Node0&#45;&gt;Node14</title>
<path fill="none" stroke="#191970" d="M183.953,-310.5508C288.8712,-298.0205 509.1266,-271.7155 620.0001,-258.4739"/>
<polygon fill="#191970" stroke="#191970" points="620.5431,-261.934 630.0574,-257.2728 619.7129,-254.9834 620.5431,-261.934"/>
</g>
<!-- Node2 -->
<g id="node3" class="node">
<title>Node2</title>
<g id="a_node3"><a xlink:href="CoreMacros_8hpp.html" target="_top" xlink:title="Core/CoreMacros.hpp">
<polygon fill="#ffffff" stroke="#000000" points="395.7667,-56.5 395.7667,-75.5 515.7667,-75.5 515.7667,-56.5 395.7667,-56.5"/>
<text text-anchor="middle" x="455.7667" y="-63.5" font-family="Helvetica,sans-Serif" font-size="10.00" fill="#000000">Core/CoreMacros.hpp</text>
</a>
</g>
</g>
<!-- Node1&#45;&gt;Node2 -->
<g id="edge2" class="edge">
<title>Node1&#45;&gt;Node2</title>
<path fill="none" stroke="#191970" d="M230.2161,-112.4369C277.0602,-102.7925 349.4206,-87.8948 399.4929,-77.5858"/>
<polygon fill="#191970" stroke="#191970" points="400.4201,-80.9684 409.5089,-75.5237 399.0085,-74.1122 400.4201,-80.9684"/>
</g>
<!-- Node3 -->
<g id="node4" class="node">
<title>Node3</title>
<polygon fill="#ffffff" stroke="#bfbfbf" points="291.7667,-.5 291.7667,-19.5 343.7667,-19.5 343.7667,-.5 291.7667,-.5"/>
<text text-anchor="middle" x="317.7667" y="-7.5" font-family="Helvetica,sans-Serif" font-size="10.00" fill="#000000">cassert</text>
</g>
<!-- Node2&#45;&gt;Node3 -->
<g id="edge3" class="edge">
<title>Node2&#45;&gt;Node3</title>
<path fill="none" stroke="#191970" d="M432.0437,-56.3733C409.593,-47.2629 375.6928,-33.5062 350.6412,-23.3404"/>
<polygon fill="#191970" stroke="#191970" points="351.7624,-20.0182 341.1802,-19.5011 349.1302,-26.5045 351.7624,-20.0182"/>
</g>
<!-- Node4 -->
<g id="node5" class="node">
<title>Node4</title>
<polygon fill="#ffffff" stroke="#bfbfbf" points="361.7667,-.5 361.7667,-19.5 407.7667,-19.5 407.7667,-.5 361.7667,-.5"/>
<text text-anchor="middle" x="384.7667" y="-7.5" font-family="Helvetica,sans-Serif" font-size="10.00" fill="#000000">cstdio</text>
</g>
<!-- Node2&#45;&gt;Node4 -->
<g id="edge4" class="edge">
<title>Node2&#45;&gt;Node4</title>
<path fill="none" stroke="#191970" d="M443.3994,-56.2455C432.8113,-47.8943 417.3603,-35.7076 404.9774,-25.9408"/>
<polygon fill="#191970" stroke="#191970" points="407.0114,-23.0875 396.9922,-19.6427 402.6764,-28.5837 407.0114,-23.0875"/>
</g>
<!-- Node5 -->
<g id="node6" class="node">
<title>Node5</title>
<polygon fill="#ffffff" stroke="#bfbfbf" points="425.7667,-.5 425.7667,-19.5 485.7667,-19.5 485.7667,-.5 425.7667,-.5"/>
<text text-anchor="middle" x="455.7667" y="-7.5" font-family="Helvetica,sans-Serif" font-size="10.00" fill="#000000">iostream</text>
</g>
<!-- Node2&#45;&gt;Node5 -->
<g id="edge5" class="edge">
<title>Node2&#45;&gt;Node5</title>
<path fill="none" stroke="#191970" d="M455.7667,-56.2455C455.7667,-48.9382 455.7667,-38.6944 455.7667,-29.7046"/>
<polygon fill="#191970" stroke="#191970" points="459.2668,-29.6426 455.7667,-19.6427 452.2668,-29.6427 459.2668,-29.6426"/>
</g>
<!-- Node6 -->
<g id="node7" class="node">
<title>Node6</title>
<polygon fill="#ffffff" stroke="#bfbfbf" points="503.7667,-.5 503.7667,-19.5 559.7667,-19.5 559.7667,-.5 503.7667,-.5"/>
<text text-anchor="middle" x="531.7667" y="-7.5" font-family="Helvetica,sans-Serif" font-size="10.00" fill="#000000">sstream</text>
</g>
<!-- Node2&#45;&gt;Node6 -->
<g id="edge6" class="edge">
<title>Node2&#45;&gt;Node6</title>
<path fill="none" stroke="#191970" d="M469.0049,-56.2455C480.4477,-47.814 497.1963,-35.4729 510.5142,-25.6598"/>
<polygon fill="#191970" stroke="#191970" points="512.7058,-28.3924 518.6802,-19.6427 508.5534,-22.757 512.7058,-28.3924"/>
</g>
<!-- Node7 -->
<g id="node8" class="node">
<title>Node7</title>
<polygon fill="#ffffff" stroke="#bfbfbf" points="577.7667,-.5 577.7667,-19.5 625.7667,-19.5 625.7667,-.5 577.7667,-.5"/>
<text text-anchor="middle" x="601.7667" y="-7.5" font-family="Helvetica,sans-Serif" font-size="10.00" fill="#000000">thread</text>
</g>
<!-- Node2&#45;&gt;Node7 -->
<g id="edge7" class="edge">
<title>Node2&#45;&gt;Node7</title>
<path fill="none" stroke="#191970" d="M480.865,-56.3733C504.8668,-47.1671 541.238,-33.2165 567.8191,-23.021"/>
<polygon fill="#191970" stroke="#191970" points="569.3978,-26.1642 577.4811,-19.315 566.8909,-19.6285 569.3978,-26.1642"/>
</g>
<!-- Node11 -->
<g id="node12" class="node">
<title>Node11</title>
<polygon fill="#ffffff" stroke="#bfbfbf" points="27.7667,-174 27.7667,-193 155.7667,-193 155.7667,-174 27.7667,-174"/>
<text text-anchor="middle" x="91.7667" y="-181" font-family="Helvetica,sans-Serif" font-size="10.00" fill="#000000">glbinding/gl45core/gl.h</text>
</g>
<!-- Node10&#45;&gt;Node11 -->
<g id="edge11" class="edge">
<title>Node10&#45;&gt;Node11</title>
<path fill="none" stroke="#191970" d="M202.6747,-235.4639C178.3569,-224.0702 145.1946,-208.5327 121.4805,-197.4219"/>
<polygon fill="#191970" stroke="#191970" points="122.805,-194.1773 112.2646,-193.1039 119.835,-200.5161 122.805,-194.1773"/>
</g>
<!-- Node12 -->
<g id="node13" class="node">
<title>Node12</title>
<polygon fill="#ffffff" stroke="#bfbfbf" points="173.7667,-174 173.7667,-193 295.7667,-193 295.7667,-174 173.7667,-174"/>
<text text-anchor="middle" x="234.7667" y="-181" font-family="Helvetica,sans-Serif" font-size="10.00" fill="#000000">glbinding/gl45ext/gl.h</text>
</g>
<!-- Node10&#45;&gt;Node12 -->
<g id="edge12" class="edge">
<title>Node10&#45;&gt;Node12</title>
<path fill="none" stroke="#191970" d="M234.7667,-235.2967C234.7667,-225.7699 234.7667,-213.3954 234.7667,-203.1306"/>
<polygon fill="#191970" stroke="#191970" points="238.2668,-203.0549 234.7667,-193.055 231.2668,-203.055 238.2668,-203.0549"/>
</g>
<!-- Node13 -->
<g id="node14" class="node">
<title>Node13</title>
<polygon fill="#ffffff" stroke="#bfbfbf" points="314.2667,-168.5 314.2667,-198.5 427.2667,-198.5 427.2667,-168.5 314.2667,-168.5"/>
<text text-anchor="start" x="322.2667" y="-186.5" font-family="Helvetica,sans-Serif" font-size="10.00" fill="#000000">glbinding&#45;aux/types</text>
<text text-anchor="middle" x="370.7667" y="-175.5" font-family="Helvetica,sans-Serif" font-size="10.00" fill="#000000">_to_string.h</text>
</g>
<!-- Node10&#45;&gt;Node13 -->
<g id="edge13" class="edge">
<title>Node10&#45;&gt;Node13</title>
<path fill="none" stroke="#191970" d="M265.2878,-235.4639C284.6622,-225.9191 309.9397,-213.4663 330.8924,-203.144"/>
<polygon fill="#191970" stroke="#191970" points="332.4532,-206.2768 339.877,-198.7177 329.3597,-199.9974 332.4532,-206.2768"/>
</g>
<!-- Node14&#45;&gt;Node2 -->
<g id="edge15" class="edge">
<title>Node14&#45;&gt;Node2</title>
<path fill="none" stroke="#191970" d="M650.4329,-240.9838C601.952,-226.2618 517.2918,-193.075 474.7667,-132 465.1972,-118.2562 460.409,-99.7266 458.0362,-85.7996"/>
<polygon fill="#191970" stroke="#191970" points="461.4862,-85.2004 456.6058,-75.7966 454.5567,-86.1914 461.4862,-85.2004"/>
</g>
<!-- Node15 -->
<g id="node16" class="node">
<title>Node15</title>
<g id="a_node16"><a xlink:href="Math_8hpp.html" target="_top" xlink:title="Core/Math/Math.hpp">
<polygon fill="#ffffff" stroke="#000000" points="574.7667,-174 574.7667,-193 688.7667,-193 688.7667,-174 574.7667,-174"/>
<text text-anchor="middle" x="631.7667" y="-181" font-family="Helvetica,sans-Serif" font-size="10.00" fill="#000000">Core/Math/Math.hpp</text>
</a>
</g>
</g>
<!-- Node14&#45;&gt;Node15 -->
<g id="edge16" class="edge">
<title>Node14&#45;&gt;Node15</title>
<path fill="none" stroke="#191970" d="M678.8865,-240.9005C670.3915,-230.552 656.6843,-213.8542 646.2387,-201.1295"/>
<polygon fill="#191970" stroke="#191970" points="648.6825,-198.5902 639.6322,-193.0817 643.272,-203.0317 648.6825,-198.5902"/>
</g>
<!-- Node20 -->
<g id="node21" class="node">
<title>Node20</title>
<polygon fill="#ffffff" stroke="#bfbfbf" points="707.2667,-174 707.2667,-193 776.2667,-193 776.2667,-174 707.2667,-174"/>
<text text-anchor="middle" x="741.7667" y="-181" font-family="Helvetica,sans-Serif" font-size="10.00" fill="#000000">Eigen/Core</text>
</g>
<!-- Node14&#45;&gt;Node20 -->
<g id="edge23" class="edge">
<title>Node14&#45;&gt;Node20</title>
<path fill="none" stroke="#191970" d="M694.6469,-240.9005C703.1419,-230.552 716.8491,-213.8542 727.2948,-201.1295"/>
<polygon fill="#191970" stroke="#191970" points="730.2614,-203.0317 733.9012,-193.0817 724.8509,-198.5902 730.2614,-203.0317"/>
</g>
<!-- Node21 -->
<g id="node22" class="node">
<title>Node21</title>
<polygon fill="#ffffff" stroke="#bfbfbf" points="794.2667,-174 794.2667,-193 889.2667,-193 889.2667,-174 794.2667,-174"/>
<text text-anchor="middle" x="841.7667" y="-181" font-family="Helvetica,sans-Serif" font-size="10.00" fill="#000000">Eigen/Geometry</text>
</g>
<!-- Node14&#45;&gt;Node21 -->
<g id="edge24" class="edge">
<title>Node14&#45;&gt;Node21</title>
<path fill="none" stroke="#191970" d="M708.9744,-240.9005C735.5624,-229.4077 780.267,-210.0838 810.3781,-197.068"/>
<polygon fill="#191970" stroke="#191970" points="811.8098,-200.2622 819.6002,-193.0817 809.0323,-193.8368 811.8098,-200.2622"/>
</g>
<!-- Node22 -->
<g id="node23" class="node">
<title>Node22</title>
<polygon fill="#ffffff" stroke="#bfbfbf" points="907.7667,-174 907.7667,-193 961.7667,-193 961.7667,-174 907.7667,-174"/>
<text text-anchor="middle" x="934.7667" y="-181" font-family="Helvetica,sans-Serif" font-size="10.00" fill="#000000">random</text>
</g>
<!-- Node14&#45;&gt;Node22 -->
<g id="edge25" class="edge">
<title>Node14&#45;&gt;Node22</title>
<path fill="none" stroke="#191970" d="M736.2679,-240.9399C779.6622,-231.9784 844.1621,-217.2432 898.7667,-199 900.6545,-198.3693 902.5809,-197.6804 904.5124,-196.9547"/>
<polygon fill="#191970" stroke="#191970" points="906.0828,-200.0958 914.0577,-193.1207 903.4737,-193.6002 906.0828,-200.0958"/>
</g>
<!-- Node16 -->
<g id="node17" class="node">
<title>Node16</title>
<g id="a_node17"><a xlink:href="RaCore_8hpp.html" target="_top" xlink:title="Core/RaCore.hpp">
<polygon fill="#ffffff" stroke="#000000" points="483.7667,-112.5 483.7667,-131.5 581.7667,-131.5 581.7667,-112.5 483.7667,-112.5"/>
<text text-anchor="middle" x="532.7667" y="-119.5" font-family="Helvetica,sans-Serif" font-size="10.00" fill="#000000">Core/RaCore.hpp</text>
</a>
</g>
</g>
<!-- Node15&#45;&gt;Node16 -->
<g id="edge17" class="edge">
<title>Node15&#45;&gt;Node16</title>
<path fill="none" stroke="#191970" d="M616.298,-173.8906C600.3146,-163.9616 575.1564,-148.333 556.6234,-136.8201"/>
<polygon fill="#191970" stroke="#191970" points="558.4682,-133.8457 548.1268,-131.5419 554.7743,-139.7918 558.4682,-133.8457"/>
</g>
<!-- Node17 -->
<g id="node18" class="node">
<title>Node17</title>
<polygon fill="#ffffff" stroke="#bfbfbf" points="599.7667,-112.5 599.7667,-131.5 663.7667,-131.5 663.7667,-112.5 599.7667,-112.5"/>
<text text-anchor="middle" x="631.7667" y="-119.5" font-family="Helvetica,sans-Serif" font-size="10.00" fill="#000000">algorithm</text>
</g>
<!-- Node15&#45;&gt;Node17 -->
<g id="edge19" class="edge">
<title>Node15&#45;&gt;Node17</title>
<path fill="none" stroke="#191970" d="M631.7667,-173.8906C631.7667,-165.3657 631.7667,-152.6392 631.7667,-141.9235"/>
<polygon fill="#191970" stroke="#191970" points="635.2668,-141.7448 631.7667,-131.7449 628.2668,-141.7449 635.2668,-141.7448"/>
</g>
<!-- Node18 -->
<g id="node19" class="node">
<title>Node18</title>
<polygon fill="#ffffff" stroke="#bfbfbf" points="682.2667,-112.5 682.2667,-131.5 729.2667,-131.5 729.2667,-112.5 682.2667,-112.5"/>
<text text-anchor="middle" x="705.7667" y="-119.5" font-family="Helvetica,sans-Serif" font-size="10.00" fill="#000000">cmath</text>
</g>
<!-- Node15&#45;&gt;Node18 -->
<g id="edge20" class="edge">
<title>Node15&#45;&gt;Node18</title>
<path fill="none" stroke="#191970" d="M643.3292,-173.8906C654.7746,-164.3786 672.514,-149.6357 686.1637,-138.2917"/>
<polygon fill="#191970" stroke="#191970" points="688.5875,-140.8283 694.0412,-131.7449 684.1134,-135.4447 688.5875,-140.8283"/>
</g>
<!-- Node19 -->
<g id="node20" class="node">
<title>Node19</title>
<g id="a_node20"><a xlink:href="Math_8inl.html" target="_top" xlink:title="Core/Math/Math.inl">
<polygon fill="#ffffff" stroke="#000000" points="747.7667,-112.5 747.7667,-131.5 855.7667,-131.5 855.7667,-112.5 747.7667,-112.5"/>
<text text-anchor="middle" x="801.7667" y="-119.5" font-family="Helvetica,sans-Serif" font-size="10.00" fill="#000000">Core/Math/Math.inl</text>
</a>
</g>
</g>
<!-- Node15&#45;&gt;Node19 -->
<g id="edge21" class="edge">
<title>Node15&#45;&gt;Node19</title>
<path fill="none" stroke="#191970" d="M653.2667,-173.8906C680.2827,-163.3749 726.8419,-146.466 760.7129,-134.8243"/>
<polygon fill="#191970" stroke="#191970" points="762.0057,-138.0814 770.3414,-131.5419 759.7469,-131.4558 762.0057,-138.0814"/>
</g>
<!-- Node16&#45;&gt;Node2 -->
<g id="edge18" class="edge">
<title>Node16&#45;&gt;Node2</title>
<path fill="none" stroke="#191970" d="M519.3543,-112.2455C507.761,-103.814 490.792,-91.4729 477.2989,-81.6598"/>
<polygon fill="#191970" stroke="#191970" points="479.1714,-78.6938 469.0254,-75.6427 475.0541,-84.355 479.1714,-78.6938"/>
</g>
<!-- Node19&#45;&gt;Node15 -->
<g id="edge22" class="edge">
<title>Node19&#45;&gt;Node15</title>
<path fill="none" stroke="#191970" d="M780.44,-131.5419C753.5078,-142.0302 706.9635,-158.9366 673.0383,-170.6009"/>
<polygon fill="#191970" stroke="#191970" points="671.7267,-167.3501 663.3917,-173.8906 673.9862,-173.9755 671.7267,-167.3501"/>
</g>
</g>
</svg>
