<?xml version="1.0" encoding="UTF-8" standalone="no"?>
<!DOCTYPE svg PUBLIC "-//W3C//DTD SVG 1.1//EN"
 "http://www.w3.org/Graphics/SVG/1.1/DTD/svg11.dtd">
<!-- Generated by graphviz version 2.40.1 (20161225.0304)
 -->
<!-- Title: src/Engine/Renderer/Texture/Texture.hpp Pages: 1 -->
<!--zoomable 251 -->
<svg id="main" version="1.1" xmlns="http://www.w3.org/2000/svg" xmlns:xlink="http://www.w3.org/1999/xlink" xml:space="preserve" onload="init(evt)">
<style type="text/css"><![CDATA[
.edge:hover path { stroke: red; }
.edge:hover polygon { stroke: red; fill: red; }
]]></style>
<script type="text/javascript"><![CDATA[
var edges = document.getElementsByTagName('g');
if (edges && edges.length) {
  for (var i=0;i<edges.length;i++) {
    if (edges[i].id.substr(0,4)=='edge') {
      edges[i].setAttribute('class','edge');
    }
  }
}
]]></script>
        <defs>
                <circle id="rim" cx="0" cy="0" r="7"/>
                <circle id="rim2" cx="0" cy="0" r="3.5"/>
                <g id="zoomPlus">
                        <use xlink:href="#rim" fill="#404040">
                                <set attributeName="fill" to="#808080" begin="zoomplus.mouseover" end="zoomplus.mouseout"/>
                        </use>
                        <path d="M-4,0h8M0,-4v8" fill="none" stroke="white" stroke-width="1.5" pointer-events="none"/>
                </g>
                <g id="zoomMin">
                        <use xlink:href="#rim" fill="#404040">
                                <set attributeName="fill" to="#808080" begin="zoomminus.mouseover" end="zoomminus.mouseout"/>
                        </use>
                        <path d="M-4,0h8" fill="none" stroke="white" stroke-width="1.5" pointer-events="none"/>
                </g>
                <g id="dirArrow">
                        <path fill="none" stroke="white" stroke-width="1.5" d="M0,-3.0v7 M-2.5,-0.5L0,-3.0L2.5,-0.5"/>
                </g>
               <g id="resetDef">
                       <use xlink:href="#rim2" fill="#404040">
                               <set attributeName="fill" to="#808080" begin="reset.mouseover" end="reset.mouseout"/>
                       </use>
               </g>
        </defs>

<script type="text/javascript">
var viewWidth = 2559;
var viewHeight = 251;
var sectionId = 'dynsection-1';
</script>
<script xlink:href="svgpan.js"/>
<svg id="graph" class="graph">
<g id="viewport">
<title>src/Engine/Renderer/Texture/Texture.hpp</title>
<polygon fill="#ffffff" stroke="transparent" points="-4,4 -4,-247 2554.5,-247 2554.5,4 -4,4"/>
<!-- Node23 -->
<g id="node1" class="node">
<title>Node23</title>
<polygon fill="#bfbfbf" stroke="#000000" points="1706,-212.5 1706,-242.5 1822,-242.5 1822,-212.5 1706,-212.5"/>
<text text-anchor="start" x="1714" y="-230.5" font-family="Helvetica,sans-Serif" font-size="10.00" fill="#000000">src/Engine/Renderer</text>
<text text-anchor="middle" x="1764" y="-219.5" font-family="Helvetica,sans-Serif" font-size="10.00" fill="#000000">/Texture/Texture.hpp</text>
</g>
<!-- Node24 -->
<g id="node2" class="node">
<title>Node24</title>
<g id="a_node2"><a xlink:href="VolumeObject_8hpp.html" target="_top" xlink:title="src/Engine/Renderer\l/Displayable/VolumeObject.hpp">
<polygon fill="#ffffff" stroke="#000000" points="182,-145.5 182,-175.5 352,-175.5 352,-145.5 182,-145.5"/>
<text text-anchor="start" x="190" y="-163.5" font-family="Helvetica,sans-Serif" font-size="10.00" fill="#000000">src/Engine/Renderer</text>
<text text-anchor="middle" x="267" y="-152.5" font-family="Helvetica,sans-Serif" font-size="10.00" fill="#000000">/Displayable/VolumeObject.hpp</text>
</a>
</g>
</g>
<!-- Node23&#45;&gt;Node24 -->
<g id="edge1" class="edge">
<title>Node23&#45;&gt;Node24</title>
<path fill="none" stroke="#191970" d="M1695.7255,-224.6956C1513.8447,-217.1907 1002.4669,-195.8663 577,-176 500.9679,-172.4498 414.463,-168.0986 352.1892,-164.911"/>
<polygon fill="#191970" stroke="#191970" points="1695.8065,-228.2018 1705.9423,-225.117 1696.095,-221.2078 1695.8065,-228.2018"/>
</g>
<!-- Node28 -->
<g id="node6" class="node">
<title>Node28</title>
<g id="a_node6"><a xlink:href="BlinnPhongMaterial_8hpp.html" target="_top" xlink:title="src/Engine/Renderer\l/Material/BlinnPhongMaterial.hpp">
<polygon fill="#ffffff" stroke="#000000" points="586,-145.5 586,-175.5 764,-175.5 764,-145.5 586,-145.5"/>
<text text-anchor="start" x="594" y="-163.5" font-family="Helvetica,sans-Serif" font-size="10.00" fill="#000000">src/Engine/Renderer</text>
<text text-anchor="middle" x="675" y="-152.5" font-family="Helvetica,sans-Serif" font-size="10.00" fill="#000000">/Material/BlinnPhongMaterial.hpp</text>
</a>
</g>
</g>
<!-- Node23&#45;&gt;Node28 -->
<g id="edge6" class="edge">
<title>Node23&#45;&gt;Node28</title>
<path fill="none" stroke="#191970" d="M1695.7521,-223.3011C1506.7119,-211.6705 976.3008,-179.0373 764.2482,-165.9909"/>
<polygon fill="#191970" stroke="#191970" points="1695.6395,-226.8007 1705.8356,-223.9215 1696.0695,-219.8139 1695.6395,-226.8007"/>
</g>
<!-- Node30 -->
<g id="node8" class="node">
<title>Node30</title>
<g id="a_node8"><a xlink:href="BlinnPhongMaterial_8cpp.html" target="_top" xlink:title="src/Engine/Renderer\l/Material/BlinnPhongMaterial.cpp">
<polygon fill="#ffffff" stroke="#000000" points="797.5,-78.5 797.5,-108.5 974.5,-108.5 974.5,-78.5 797.5,-78.5"/>
<text text-anchor="start" x="805.5" y="-96.5" font-family="Helvetica,sans-Serif" font-size="10.00" fill="#000000">src/Engine/Renderer</text>
<text text-anchor="middle" x="886" y="-85.5" font-family="Helvetica,sans-Serif" font-size="10.00" fill="#000000">/Material/BlinnPhongMaterial.cpp</text>
</a>
</g>
</g>
<!-- Node23&#45;&gt;Node30 -->
<g id="edge28" class="edge">
<title>Node23&#45;&gt;Node30</title>
<path fill="none" stroke="#191970" d="M1695.8027,-227.0027C1536.2876,-225.1641 1142.9092,-216.5307 1018,-176 973.0161,-161.4036 927.85,-128.2109 903.7718,-108.6675"/>
<polygon fill="#191970" stroke="#191970" points="1695.9283,-230.5042 1705.9662,-227.1142 1696.0052,-223.5046 1695.9283,-230.5042"/>
</g>
<!-- Node32 -->
<g id="node10" class="node">
<title>Node32</title>
<g id="a_node10"><a xlink:href="VolumetricMaterial_8hpp.html" target="_top" xlink:title="src/Engine/Renderer\l/Material/VolumetricMaterial.hpp">
<polygon fill="#ffffff" stroke="#000000" points="1027,-145.5 1027,-175.5 1203,-175.5 1203,-145.5 1027,-145.5"/>
<text text-anchor="start" x="1035" y="-163.5" font-family="Helvetica,sans-Serif" font-size="10.00" fill="#000000">src/Engine/Renderer</text>
<text text-anchor="middle" x="1115" y="-152.5" font-family="Helvetica,sans-Serif" font-size="10.00" fill="#000000">/Material/VolumetricMaterial.hpp</text>
</a>
</g>
</g>
<!-- Node23&#45;&gt;Node32 -->
<g id="edge11" class="edge">
<title>Node23&#45;&gt;Node32</title>
<path fill="none" stroke="#191970" d="M1695.8096,-220.4603C1577.4486,-208.2412 1334.1185,-183.1209 1203.1229,-169.5974"/>
<polygon fill="#191970" stroke="#191970" points="1695.5278,-223.9497 1705.8344,-221.4952 1696.2467,-216.9867 1695.5278,-223.9497"/>
</g>
<!-- Node34 -->
<g id="node12" class="node">
<title>Node34</title>
<g id="a_node12"><a xlink:href="VolumetricMaterial_8cpp.html" target="_top" xlink:title="src/Engine/Renderer\l/Material/VolumetricMaterial.cpp">
<polygon fill="#ffffff" stroke="#000000" points="1218.5,-78.5 1218.5,-108.5 1393.5,-108.5 1393.5,-78.5 1218.5,-78.5"/>
<text text-anchor="start" x="1226.5" y="-96.5" font-family="Helvetica,sans-Serif" font-size="10.00" fill="#000000">src/Engine/Renderer</text>
<text text-anchor="middle" x="1306" y="-85.5" font-family="Helvetica,sans-Serif" font-size="10.00" fill="#000000">/Material/VolumetricMaterial.cpp</text>
</a>
</g>
</g>
<!-- Node23&#45;&gt;Node34 -->
<g id="edge37" class="edge">
<title>Node23&#45;&gt;Node34</title>
<path fill="none" stroke="#191970" d="M1702.7225,-209.5716C1611.7076,-182.9428 1442.4304,-133.4163 1357.4594,-108.5558"/>
<polygon fill="#191970" stroke="#191970" points="1701.7714,-212.94 1712.3519,-212.389 1703.7371,-206.2217 1701.7714,-212.94"/>
</g>
<!-- Node35 -->
<g id="node13" class="node">
<title>Node35</title>
<g id="a_node13"><a xlink:href="SimpleMaterial_8hpp.html" target="_top" xlink:title="src/Engine/Renderer\l/Material/SimpleMaterial.hpp">
<polygon fill="#ffffff" stroke="#000000" points="1598.5,-145.5 1598.5,-175.5 1755.5,-175.5 1755.5,-145.5 1598.5,-145.5"/>
<text text-anchor="start" x="1606.5" y="-163.5" font-family="Helvetica,sans-Serif" font-size="10.00" fill="#000000">src/Engine/Renderer</text>
<text text-anchor="middle" x="1677" y="-152.5" font-family="Helvetica,sans-Serif" font-size="10.00" fill="#000000">/Material/SimpleMaterial.hpp</text>
</a>
</g>
</g>
<!-- Node23&#45;&gt;Node35 -->
<g id="edge17" class="edge">
<title>Node23&#45;&gt;Node35</title>
<path fill="none" stroke="#191970" d="M1736.1656,-206.0643C1723.3018,-196.1577 1708.3285,-184.6265 1696.6635,-175.6432"/>
<polygon fill="#191970" stroke="#191970" points="1734.1999,-208.9681 1744.2584,-212.2967 1738.471,-203.4221 1734.1999,-208.9681"/>
</g>
<!-- Node44 -->
<g id="node22" class="node">
<title>Node44</title>
<g id="a_node22"><a xlink:href="TextureManager_8hpp.html" target="_top" xlink:title="src/Engine/Renderer\l/Texture/TextureManager.hpp">
<polygon fill="#ffffff" stroke="#000000" points="1773.5,-145.5 1773.5,-175.5 1930.5,-175.5 1930.5,-145.5 1773.5,-145.5"/>
<text text-anchor="start" x="1781.5" y="-163.5" font-family="Helvetica,sans-Serif" font-size="10.00" fill="#000000">src/Engine/Renderer</text>
<text text-anchor="middle" x="1852" y="-152.5" font-family="Helvetica,sans-Serif" font-size="10.00" fill="#000000">/Texture/TextureManager.hpp</text>
</a>
</g>
</g>
<!-- Node23&#45;&gt;Node44 -->
<g id="edge29" class="edge">
<title>Node23&#45;&gt;Node44</title>
<path fill="none" stroke="#191970" d="M1792.1543,-206.0643C1805.166,-196.1577 1820.3114,-184.6265 1832.1105,-175.6432"/>
<polygon fill="#191970" stroke="#191970" points="1789.8048,-203.4542 1783.9686,-212.2967 1794.0452,-209.0237 1789.8048,-203.4542"/>
</g>
<!-- Node45 -->
<g id="node23" class="node">
<title>Node45</title>
<g id="a_node23"><a xlink:href="Renderer_8cpp.html" target="_top" xlink:title="src/Engine/Renderer\l/Renderer.cpp">
<polygon fill="#ffffff" stroke="#000000" points="2024.5,-78.5 2024.5,-108.5 2137.5,-108.5 2137.5,-78.5 2024.5,-78.5"/>
<text text-anchor="start" x="2032.5" y="-96.5" font-family="Helvetica,sans-Serif" font-size="10.00" fill="#000000">src/Engine/Renderer</text>
<text text-anchor="middle" x="2081" y="-85.5" font-family="Helvetica,sans-Serif" font-size="10.00" fill="#000000">/Renderer.cpp</text>
</a>
</g>
</g>
<!-- Node23&#45;&gt;Node45 -->
<g id="edge38" class="edge">
<title>Node23&#45;&gt;Node45</title>
<path fill="none" stroke="#191970" d="M1832.1738,-212.9657C1865.36,-204.5214 1905.2736,-192.2912 1939,-176 1960.5403,-165.5951 1962.5913,-157.4792 1983,-145 2004.8088,-131.6646 2030.4083,-118.285 2049.9733,-108.5066"/>
<polygon fill="#191970" stroke="#191970" points="1830.9672,-209.659 1822.105,-215.4652 1832.6537,-216.4528 1830.9672,-209.659"/>
</g>
<!-- Node46 -->
<g id="node24" class="node">
<title>Node46</title>
<g id="a_node24"><a xlink:href="TextureManager_8cpp.html" target="_top" xlink:title="src/Engine/Renderer\l/Texture/TextureManager.cpp">
<polygon fill="#ffffff" stroke="#000000" points="2156,-78.5 2156,-108.5 2312,-108.5 2312,-78.5 2156,-78.5"/>
<text text-anchor="start" x="2164" y="-96.5" font-family="Helvetica,sans-Serif" font-size="10.00" fill="#000000">src/Engine/Renderer</text>
<text text-anchor="middle" x="2234" y="-85.5" font-family="Helvetica,sans-Serif" font-size="10.00" fill="#000000">/Texture/TextureManager.cpp</text>
</a>
</g>
</g>
<!-- Node23&#45;&gt;Node46 -->
<g id="edge42" class="edge">
<title>Node23&#45;&gt;Node46</title>
<path fill="none" stroke="#191970" d="M1832.0069,-217.9508C1874.5229,-210.2937 1929.6267,-197.2289 1975,-176 1996.0143,-166.168 1995.9544,-154.765 2017,-145 2041.6303,-133.5718 2104.4038,-119.2082 2156.1342,-108.5557"/>
<polygon fill="#191970" stroke="#191970" points="1831.2859,-214.5236 1822.0358,-219.6895 1832.4884,-221.4196 1831.2859,-214.5236"/>
</g>
<!-- Node47 -->
<g id="node25" class="node">
<title>Node47</title>
<g id="a_node25"><a xlink:href="ForwardRenderer_8cpp.html" target="_top" xlink:title="src/Engine/Renderer\l/Renderers/ForwardRenderer.cpp">
<polygon fill="#ffffff" stroke="#000000" points="2025.5,-145.5 2025.5,-175.5 2198.5,-175.5 2198.5,-145.5 2025.5,-145.5"/>
<text text-anchor="start" x="2033.5" y="-163.5" font-family="Helvetica,sans-Serif" font-size="10.00" fill="#000000">src/Engine/Renderer</text>
<text text-anchor="middle" x="2112" y="-152.5" font-family="Helvetica,sans-Serif" font-size="10.00" fill="#000000">/Renderers/ForwardRenderer.cpp</text>
</a>
</g>
</g>
<!-- Node23&#45;&gt;Node47 -->
<g id="edge39" class="edge">
<title>Node23&#45;&gt;Node47</title>
<path fill="none" stroke="#191970" d="M1832.4033,-214.3304C1890.3521,-203.1736 1973.4308,-187.1786 2033.963,-175.5244"/>
<polygon fill="#191970" stroke="#191970" points="1831.4053,-210.9582 1822.2474,-216.2857 1832.7288,-217.8319 1831.4053,-210.9582"/>
</g>
<!-- Node48 -->
<g id="node26" class="node">
<title>Node48</title>
<g id="a_node26"><a xlink:href="ShaderProgram_8cpp.html" target="_top" xlink:title="src/Engine/Renderer\l/RenderTechnique/ShaderProgram.cpp">
<polygon fill="#ffffff" stroke="#000000" points="2217,-145.5 2217,-175.5 2417,-175.5 2417,-145.5 2217,-145.5"/>
<text text-anchor="start" x="2225" y="-163.5" font-family="Helvetica,sans-Serif" font-size="10.00" fill="#000000">src/Engine/Renderer</text>
<text text-anchor="middle" x="2317" y="-152.5" font-family="Helvetica,sans-Serif" font-size="10.00" fill="#000000">/RenderTechnique/ShaderProgram.cpp</text>
</a>
</g>
</g>
<!-- Node23&#45;&gt;Node48 -->
<g id="edge40" class="edge">
<title>Node23&#45;&gt;Node48</title>
<path fill="none" stroke="#191970" d="M1832.2746,-220.1335C1919.5051,-210.5948 2075.1152,-193.1521 2208,-176 2210.9383,-175.6207 2213.9204,-175.2306 2216.9301,-174.8322"/>
<polygon fill="#191970" stroke="#191970" points="1831.8016,-216.6642 1822.2405,-221.2288 1832.5613,-223.6229 1831.8016,-216.6642"/>
</g>
<!-- Node49 -->
<g id="node27" class="node">
<title>Node49</title>
<g id="a_node27"><a xlink:href="Texture_8cpp.html" target="_top" xlink:title="src/Engine/Renderer\l/Texture/Texture.cpp">
<polygon fill="#ffffff" stroke="#000000" points="2435.5,-145.5 2435.5,-175.5 2550.5,-175.5 2550.5,-145.5 2435.5,-145.5"/>
<text text-anchor="start" x="2443.5" y="-163.5" font-family="Helvetica,sans-Serif" font-size="10.00" fill="#000000">src/Engine/Renderer</text>
<text text-anchor="middle" x="2493" y="-152.5" font-family="Helvetica,sans-Serif" font-size="10.00" fill="#000000">/Texture/Texture.cpp</text>
</a>
</g>
</g>
<!-- Node23&#45;&gt;Node49 -->
<g id="edge41" class="edge">
<title>Node23&#45;&gt;Node49</title>
<path fill="none" stroke="#191970" d="M1832.5285,-225.5478C1953.1366,-221.3612 2210.9395,-209.0514 2426,-176 2429.0682,-175.5285 2432.2042,-174.9928 2435.3627,-174.411"/>
<polygon fill="#191970" stroke="#191970" points="1832.2125,-222.0564 1822.3369,-225.8935 1832.4499,-229.0524 1832.2125,-222.0564"/>
</g>
<!-- Node25 -->
<g id="node3" class="node">
<title>Node25</title>
<g id="a_node3"><a xlink:href="GeometryComponent_8cpp.html" target="_top" xlink:title="src/Engine/Component\l/GeometryComponent.cpp">
<polygon fill="#ffffff" stroke="#000000" points="369.5,-78.5 369.5,-108.5 514.5,-108.5 514.5,-78.5 369.5,-78.5"/>
<text text-anchor="start" x="377.5" y="-96.5" font-family="Helvetica,sans-Serif" font-size="10.00" fill="#000000">src/Engine/Component</text>
<text text-anchor="middle" x="442" y="-85.5" font-family="Helvetica,sans-Serif" font-size="10.00" fill="#000000">/GeometryComponent.cpp</text>
</a>
</g>
</g>
<!-- Node24&#45;&gt;Node25 -->
<g id="edge2" class="edge">
<title>Node24&#45;&gt;Node25</title>
<path fill="none" stroke="#191970" d="M315.6735,-141.865C343.0667,-131.3773 376.8283,-118.4515 402.5553,-108.6017"/>
<polygon fill="#191970" stroke="#191970" points="314.3609,-138.6197 306.2734,-145.4639 316.8638,-145.157 314.3609,-138.6197"/>
</g>
<!-- Node26 -->
<g id="node4" class="node">
<title>Node26</title>
<g id="a_node4"><a xlink:href="VolumeObject_8inl.html" target="_top" xlink:title="src/Engine/Renderer\l/Displayable/VolumeObject.inl">
<polygon fill="#ffffff" stroke="#000000" points="0,-78.5 0,-108.5 164,-108.5 164,-78.5 0,-78.5"/>
<text text-anchor="start" x="8" y="-96.5" font-family="Helvetica,sans-Serif" font-size="10.00" fill="#000000">src/Engine/Renderer</text>
<text text-anchor="middle" x="82" y="-85.5" font-family="Helvetica,sans-Serif" font-size="10.00" fill="#000000">/Displayable/VolumeObject.inl</text>
</a>
</g>
</g>
<!-- Node24&#45;&gt;Node26 -->
<g id="edge3" class="edge">
<title>Node24&#45;&gt;Node26</title>
<path fill="none" stroke="#191970" d="M210.2066,-142.1392C180.1392,-131.6033 144.1775,-118.5375 117.9502,-108.6017"/>
<polygon fill="#191970" stroke="#191970" points="209.147,-145.4764 219.7419,-145.4639 211.4517,-138.8666 209.147,-145.4764"/>
</g>
<!-- Node27 -->
<g id="node5" class="node">
<title>Node27</title>
<g id="a_node5"><a xlink:href="VolumeObject_8cpp.html" target="_top" xlink:title="src/Engine/Renderer\l/Displayable/VolumeObject.cpp">
<polygon fill="#ffffff" stroke="#000000" points="182.5,-78.5 182.5,-108.5 351.5,-108.5 351.5,-78.5 182.5,-78.5"/>
<text text-anchor="start" x="190.5" y="-96.5" font-family="Helvetica,sans-Serif" font-size="10.00" fill="#000000">src/Engine/Renderer</text>
<text text-anchor="middle" x="267" y="-85.5" font-family="Helvetica,sans-Serif" font-size="10.00" fill="#000000">/Displayable/VolumeObject.cpp</text>
</a>
</g>
</g>
<!-- Node24&#45;&gt;Node27 -->
<g id="edge5" class="edge">
<title>Node24&#45;&gt;Node27</title>
<path fill="none" stroke="#191970" d="M267,-135.0249C267,-126.128 267,-116.4287 267,-108.6432"/>
<polygon fill="#191970" stroke="#191970" points="263.5001,-135.2966 267,-145.2967 270.5001,-135.2967 263.5001,-135.2966"/>
</g>
<!-- Node26&#45;&gt;Node24 -->
<g id="edge4" class="edge">
<title>Node26&#45;&gt;Node24</title>
<path fill="none" stroke="#191970" d="M138.9921,-111.9304C169.0854,-122.4774 205.0385,-135.5419 231.2229,-145.4639"/>
<polygon fill="#191970" stroke="#191970" points="140.042,-108.5899 129.4472,-108.6017 137.7369,-115.1995 140.042,-108.5899"/>
</g>
<!-- Node28&#45;&gt;Node25 -->
<g id="edge7" class="edge">
<title>Node28&#45;&gt;Node25</title>
<path fill="none" stroke="#191970" d="M613.0437,-142.6842C576.0855,-132.0568 529.6689,-118.7095 494.5178,-108.6017"/>
<polygon fill="#191970" stroke="#191970" points="612.1324,-146.064 622.7103,-145.4639 614.067,-139.3366 612.1324,-146.064"/>
</g>
<!-- Node29 -->
<g id="node7" class="node">
<title>Node29</title>
<g id="a_node7"><a xlink:href="RadiumEngine_8cpp.html" target="_top" xlink:title="src/Engine/RadiumEngine.cpp">
<polygon fill="#ffffff" stroke="#000000" points="1011.5,-11.5 1011.5,-30.5 1172.5,-30.5 1172.5,-11.5 1011.5,-11.5"/>
<text text-anchor="middle" x="1092" y="-18.5" font-family="Helvetica,sans-Serif" font-size="10.00" fill="#000000">src/Engine/RadiumEngine.cpp</text>
</a>
</g>
</g>
<!-- Node28&#45;&gt;Node29 -->
<g id="edge8" class="edge">
<title>Node28&#45;&gt;Node29</title>
<path fill="none" stroke="#191970" d="M615.4675,-141.8277C577.2016,-126.8132 538.6571,-103.988 562,-78 591.4519,-45.2108 870.5561,-29.6577 1011.4509,-23.8454"/>
<polygon fill="#191970" stroke="#191970" points="614.5603,-145.2259 625.1523,-145.4738 617.0267,-138.6748 614.5603,-145.2259"/>
</g>
<!-- Node28&#45;&gt;Node30 -->
<g id="edge9" class="edge">
<title>Node28&#45;&gt;Node30</title>
<path fill="none" stroke="#191970" d="M731.9627,-142.4123C765.2897,-131.8298 806.8797,-118.6235 838.441,-108.6017"/>
<polygon fill="#191970" stroke="#191970" points="730.8243,-139.1015 722.3525,-145.4639 732.9428,-145.7732 730.8243,-139.1015"/>
</g>
<!-- Node31 -->
<g id="node9" class="node">
<title>Node31</title>
<g id="a_node9"><a xlink:href="RenderTechnique_8cpp.html" target="_top" xlink:title="src/Engine/Renderer\l/RenderTechnique/RenderTechnique.cpp">
<polygon fill="#ffffff" stroke="#000000" points="571,-78.5 571,-108.5 779,-108.5 779,-78.5 571,-78.5"/>
<text text-anchor="start" x="579" y="-96.5" font-family="Helvetica,sans-Serif" font-size="10.00" fill="#000000">src/Engine/Renderer</text>
<text text-anchor="middle" x="675" y="-85.5" font-family="Helvetica,sans-Serif" font-size="10.00" fill="#000000">/RenderTechnique/RenderTechnique.cpp</text>
</a>
</g>
</g>
<!-- Node28&#45;&gt;Node31 -->
<g id="edge10" class="edge">
<title>Node28&#45;&gt;Node31</title>
<path fill="none" stroke="#191970" d="M675,-135.0249C675,-126.128 675,-116.4287 675,-108.6432"/>
<polygon fill="#191970" stroke="#191970" points="671.5001,-135.2966 675,-145.2967 678.5001,-135.2967 671.5001,-135.2966"/>
</g>
<!-- Node32&#45;&gt;Node25 -->
<g id="edge12" class="edge">
<title>Node32&#45;&gt;Node25</title>
<path fill="none" stroke="#191970" d="M1016.6438,-152.4041C905.9806,-143.0477 720.9128,-126.6571 562,-109 546.6547,-107.295 530.2292,-105.2913 514.6086,-103.301"/>
<polygon fill="#191970" stroke="#191970" points="1016.5286,-155.9067 1026.7874,-153.2596 1017.117,-148.9314 1016.5286,-155.9067"/>
</g>
<!-- Node32&#45;&gt;Node29 -->
<g id="edge15" class="edge">
<title>Node32&#45;&gt;Node29</title>
<path fill="none" stroke="#191970" d="M1056.5526,-140.7814C1042.4817,-133.1303 1029.1688,-122.7899 1021,-109 1002.591,-77.9235 1047.3237,-46.0585 1073.942,-30.5927"/>
<polygon fill="#191970" stroke="#191970" points="1055.3519,-144.0939 1065.8621,-145.4302 1058.4792,-137.8313 1055.3519,-144.0939"/>
</g>
<!-- Node33 -->
<g id="node11" class="node">
<title>Node33</title>
<g id="a_node11"><a xlink:href="VolumetricMaterial_8inl.html" target="_top" xlink:title="src/Engine/Renderer\l/Material/VolumetricMaterial.inl">
<polygon fill="#ffffff" stroke="#000000" points="1030,-78.5 1030,-108.5 1200,-108.5 1200,-78.5 1030,-78.5"/>
<text text-anchor="start" x="1038" y="-96.5" font-family="Helvetica,sans-Serif" font-size="10.00" fill="#000000">src/Engine/Renderer</text>
<text text-anchor="middle" x="1115" y="-85.5" font-family="Helvetica,sans-Serif" font-size="10.00" fill="#000000">/Material/VolumetricMaterial.inl</text>
</a>
</g>
</g>
<!-- Node32&#45;&gt;Node33 -->
<g id="edge13" class="edge">
<title>Node32&#45;&gt;Node33</title>
<path fill="none" stroke="#191970" d="M1108.4384,-135.3179C1108.0239,-126.3414 1108.2933,-116.5143 1109.2464,-108.6432"/>
<polygon fill="#191970" stroke="#191970" points="1104.9504,-135.6087 1109.2392,-145.2967 1111.928,-135.0487 1104.9504,-135.6087"/>
</g>
<!-- Node32&#45;&gt;Node34 -->
<g id="edge16" class="edge">
<title>Node32&#45;&gt;Node34</title>
<path fill="none" stroke="#191970" d="M1167.3419,-142.1392C1197.3771,-131.6033 1234.6245,-118.5375 1262.9489,-108.6017"/>
<polygon fill="#191970" stroke="#191970" points="1166.1418,-138.851 1157.8641,-145.4639 1168.459,-145.4564 1166.1418,-138.851"/>
</g>
<!-- Node33&#45;&gt;Node32 -->
<g id="edge14" class="edge">
<title>Node33&#45;&gt;Node32</title>
<path fill="none" stroke="#191970" d="M1121.5584,-118.6135C1121.9764,-127.5857 1121.7105,-137.4156 1120.7608,-145.2967"/>
<polygon fill="#191970" stroke="#191970" points="1125.0469,-118.3291 1120.7536,-108.6432 1118.0696,-118.8924 1125.0469,-118.3291"/>
</g>
<!-- Node36 -->
<g id="node14" class="node">
<title>Node36</title>
<g id="a_node14"><a xlink:href="LambertianMaterial_8hpp.html" target="_top" xlink:title="src/Engine/Renderer\l/Material/LambertianMaterial.hpp">
<polygon fill="#ffffff" stroke="#000000" points="1411.5,-78.5 1411.5,-108.5 1590.5,-108.5 1590.5,-78.5 1411.5,-78.5"/>
<text text-anchor="start" x="1419.5" y="-96.5" font-family="Helvetica,sans-Serif" font-size="10.00" fill="#000000">src/Engine/Renderer</text>
<text text-anchor="middle" x="1501" y="-85.5" font-family="Helvetica,sans-Serif" font-size="10.00" fill="#000000">/Material/LambertianMaterial.hpp</text>
</a>
</g>
</g>
<!-- Node35&#45;&gt;Node36 -->
<g id="edge18" class="edge">
<title>Node35&#45;&gt;Node36</title>
<path fill="none" stroke="#191970" d="M1628.0484,-141.865C1600.4986,-131.3773 1566.5441,-118.4515 1540.6701,-108.6017"/>
<polygon fill="#191970" stroke="#191970" points="1626.9112,-145.1771 1637.5022,-145.4639 1629.4017,-138.6351 1626.9112,-145.1771"/>
</g>
<!-- Node38 -->
<g id="node16" class="node">
<title>Node38</title>
<g id="a_node16"><a xlink:href="PlainMaterial_8hpp.html" target="_top" xlink:title="src/Engine/Renderer\l/Material/PlainMaterial.hpp">
<polygon fill="#ffffff" stroke="#000000" points="1608.5,-78.5 1608.5,-108.5 1755.5,-108.5 1755.5,-78.5 1608.5,-78.5"/>
<text text-anchor="start" x="1616.5" y="-96.5" font-family="Helvetica,sans-Serif" font-size="10.00" fill="#000000">src/Engine/Renderer</text>
<text text-anchor="middle" x="1682" y="-85.5" font-family="Helvetica,sans-Serif" font-size="10.00" fill="#000000">/Material/PlainMaterial.hpp</text>
</a>
</g>
</g>
<!-- Node35&#45;&gt;Node38 -->
<g id="edge21" class="edge">
<title>Node35&#45;&gt;Node38</title>
<path fill="none" stroke="#191970" d="M1678.8793,-135.3179C1679.5491,-126.3414 1680.2825,-116.5143 1680.8699,-108.6432"/>
<polygon fill="#191970" stroke="#191970" points="1675.3886,-135.0639 1678.1346,-145.2967 1682.3692,-135.5849 1675.3886,-135.0639"/>
</g>
<!-- Node43 -->
<g id="node21" class="node">
<title>Node43</title>
<g id="a_node21"><a xlink:href="SimpleMaterial_8cpp.html" target="_top" xlink:title="src/Engine/Renderer\l/Material/SimpleMaterial.cpp">
<polygon fill="#ffffff" stroke="#000000" points="1774,-78.5 1774,-108.5 1930,-108.5 1930,-78.5 1774,-78.5"/>
<text text-anchor="start" x="1782" y="-96.5" font-family="Helvetica,sans-Serif" font-size="10.00" fill="#000000">src/Engine/Renderer</text>
<text text-anchor="middle" x="1852" y="-85.5" font-family="Helvetica,sans-Serif" font-size="10.00" fill="#000000">/Material/SimpleMaterial.cpp</text>
</a>
</g>
</g>
<!-- Node35&#45;&gt;Node43 -->
<g id="edge27" class="edge">
<title>Node35&#45;&gt;Node43</title>
<path fill="none" stroke="#191970" d="M1725.6735,-141.865C1753.0667,-131.3773 1786.8283,-118.4515 1812.5553,-108.6017"/>
<polygon fill="#191970" stroke="#191970" points="1724.3609,-138.6197 1716.2734,-145.4639 1726.8638,-145.157 1724.3609,-138.6197"/>
</g>
<!-- Node36&#45;&gt;Node29 -->
<g id="edge19" class="edge">
<title>Node36&#45;&gt;Node29</title>
<path fill="none" stroke="#191970" d="M1406.0596,-76.6707C1325.1639,-62.331 1211.8137,-42.2384 1145.7274,-30.5238"/>
<polygon fill="#191970" stroke="#191970" points="1405.7975,-80.1787 1416.2549,-78.478 1407.0194,-73.2862 1405.7975,-80.1787"/>
</g>
<!-- Node37 -->
<g id="node15" class="node">
<title>Node37</title>
<g id="a_node15"><a xlink:href="LambertianMaterial_8cpp.html" target="_top" xlink:title="src/Engine/Renderer\l/Material/LambertianMaterial.cpp">
<polygon fill="#ffffff" stroke="#000000" points="1417,-6 1417,-36 1595,-36 1595,-6 1417,-6"/>
<text text-anchor="start" x="1425" y="-24" font-family="Helvetica,sans-Serif" font-size="10.00" fill="#000000">src/Engine/Renderer</text>
<text text-anchor="middle" x="1506" y="-13" font-family="Helvetica,sans-Serif" font-size="10.00" fill="#000000">/Material/LambertianMaterial.cpp</text>
</a>
</g>
</g>
<!-- Node36&#45;&gt;Node37 -->
<g id="edge20" class="edge">
<title>Node36&#45;&gt;Node37</title>
<path fill="none" stroke="#191970" d="M1502.7351,-68.3409C1503.4786,-57.5601 1504.322,-45.3309 1504.9653,-36.0028"/>
<polygon fill="#191970" stroke="#191970" points="1499.2324,-68.2608 1502.036,-78.478 1506.2158,-68.7425 1499.2324,-68.2608"/>
</g>
<!-- Node38&#45;&gt;Node29 -->
<g id="edge22" class="edge">
<title>Node38&#45;&gt;Node29</title>
<path fill="none" stroke="#191970" d="M1598.027,-77.9251C1451.7552,-56.5697 1412.8706,-58.2441 1270,-42 1237.8454,-38.3441 1202.4394,-34.1928 1171.7306,-30.552"/>
<polygon fill="#191970" stroke="#191970" points="1597.8793,-81.441 1608.2823,-79.4341 1598.8984,-74.5156 1597.8793,-81.441"/>
</g>
<!-- Node39 -->
<g id="node17" class="node">
<title>Node39</title>
<g id="a_node17"><a xlink:href="Camera_8cpp.html" target="_top" xlink:title="src/Engine/Renderer\l/Camera/Camera.cpp">
<polygon fill="#ffffff" stroke="#000000" points="1279.5,-6 1279.5,-36 1398.5,-36 1398.5,-6 1279.5,-6"/>
<text text-anchor="start" x="1287.5" y="-24" font-family="Helvetica,sans-Serif" font-size="10.00" fill="#000000">src/Engine/Renderer</text>
<text text-anchor="middle" x="1339" y="-13" font-family="Helvetica,sans-Serif" font-size="10.00" fill="#000000">/Camera/Camera.cpp</text>
</a>
</g>
</g>
<!-- Node38&#45;&gt;Node39 -->
<g id="edge23" class="edge">
<title>Node38&#45;&gt;Node39</title>
<path fill="none" stroke="#191970" d="M1598.3015,-77.8242C1518.5965,-62.8879 1410.3702,-42.5816 1408,-42 1400.825,-40.2395 1393.2923,-38.175 1385.9478,-36.0402"/>
<polygon fill="#191970" stroke="#191970" points="1597.8878,-81.3075 1608.3614,-79.7092 1599.1771,-74.4272 1597.8878,-81.3075"/>
</g>
<!-- Node40 -->
<g id="node18" class="node">
<title>Node40</title>
<g id="a_node18"><a xlink:href="PlainMaterial_8cpp.html" target="_top" xlink:title="src/Engine/Renderer\l/Material/PlainMaterial.cpp">
<polygon fill="#ffffff" stroke="#000000" points="1910,-6 1910,-36 2056,-36 2056,-6 1910,-6"/>
<text text-anchor="start" x="1918" y="-24" font-family="Helvetica,sans-Serif" font-size="10.00" fill="#000000">src/Engine/Renderer</text>
<text text-anchor="middle" x="1983" y="-13" font-family="Helvetica,sans-Serif" font-size="10.00" fill="#000000">/Material/PlainMaterial.cpp</text>
</a>
</g>
</g>
<!-- Node38&#45;&gt;Node40 -->
<g id="edge24" class="edge">
<title>Node38&#45;&gt;Node40</title>
<path fill="none" stroke="#191970" d="M1754.2937,-76.0871C1805.0739,-63.8559 1872.3028,-47.6629 1920.7125,-36.0028"/>
<polygon fill="#191970" stroke="#191970" points="1753.2698,-72.7335 1744.3674,-78.478 1754.909,-79.5389 1753.2698,-72.7335"/>
</g>
<!-- Node41 -->
<g id="node19" class="node">
<title>Node41</title>
<g id="a_node19"><a xlink:href="DrawPrimitives_8cpp.html" target="_top" xlink:title="src/Engine/Renderer\l/RenderObject/Primitives\l/DrawPrimitives.cpp">
<polygon fill="#ffffff" stroke="#000000" points="1613.5,-.5 1613.5,-41.5 1750.5,-41.5 1750.5,-.5 1613.5,-.5"/>
<text text-anchor="start" x="1621.5" y="-29.5" font-family="Helvetica,sans-Serif" font-size="10.00" fill="#000000">src/Engine/Renderer</text>
<text text-anchor="start" x="1621.5" y="-18.5" font-family="Helvetica,sans-Serif" font-size="10.00" fill="#000000">/RenderObject/Primitives</text>
<text text-anchor="middle" x="1682" y="-7.5" font-family="Helvetica,sans-Serif" font-size="10.00" fill="#000000">/DrawPrimitives.cpp</text>
</a>
</g>
</g>
<!-- Node38&#45;&gt;Node41 -->
<g id="edge25" class="edge">
<title>Node38&#45;&gt;Node41</title>
<path fill="none" stroke="#191970" d="M1682,-68.4016C1682,-59.6173 1682,-49.8652 1682,-41.5015"/>
<polygon fill="#191970" stroke="#191970" points="1678.5001,-68.4779 1682,-78.478 1685.5001,-68.478 1678.5001,-68.4779"/>
</g>
<!-- Node42 -->
<g id="node20" class="node">
<title>Node42</title>
<g id="a_node20"><a xlink:href="Gizmo_8cpp.html" target="_top" xlink:title="src/GuiBase/Viewer\l/Gizmo/Gizmo.cpp">
<polygon fill="#ffffff" stroke="#000000" points="1768.5,-6 1768.5,-36 1879.5,-36 1879.5,-6 1768.5,-6"/>
<text text-anchor="start" x="1776.5" y="-24" font-family="Helvetica,sans-Serif" font-size="10.00" fill="#000000">src/GuiBase/Viewer</text>
<text text-anchor="middle" x="1824" y="-13" font-family="Helvetica,sans-Serif" font-size="10.00" fill="#000000">/Gizmo/Gizmo.cpp</text>
</a>
</g>
</g>
<!-- Node38&#45;&gt;Node42 -->
<g id="edge26" class="edge">
<title>Node38&#45;&gt;Node42</title>
<path fill="none" stroke="#191970" d="M1720.3736,-73.9079C1743.7314,-61.9822 1773.1096,-46.9828 1794.6152,-36.0028"/>
<polygon fill="#191970" stroke="#191970" points="1718.7373,-70.8134 1711.4225,-78.478 1721.9204,-77.0479 1718.7373,-70.8134"/>
</g>
<!-- Node44&#45;&gt;Node30 -->
<g id="edge30" class="edge">
<title>Node44&#45;&gt;Node30</title>
<path fill="none" stroke="#191970" d="M1763.072,-145.0031C1433.6717,-108.813 1347.137,-135.5946 1021,-109 1005.9514,-107.7729 989.9896,-106.1906 974.5117,-104.5073"/>
<polygon fill="#191970" stroke="#191970" points="1763.0635,-148.5235 1773.3886,-146.1483 1763.8359,-141.5663 1763.0635,-148.5235"/>
</g>
<!-- Node44&#45;&gt;Node34 -->
<g id="edge34" class="edge">
<title>Node44&#45;&gt;Node34</title>
<path fill="none" stroke="#191970" d="M1763.0927,-144.9462C1602.0745,-123.2339 1559.0387,-129.4668 1402,-109 1399.2377,-108.64 1396.4328,-108.262 1393.602,-107.8699"/>
<polygon fill="#191970" stroke="#191970" points="1762.9825,-148.4635 1773.3638,-146.3473 1763.9286,-141.5278 1762.9825,-148.4635"/>
</g>
<!-- Node44&#45;&gt;Node37 -->
<g id="edge31" class="edge">
<title>Node44&#45;&gt;Node37</title>
<path fill="none" stroke="#191970" d="M1896.7275,-140.8939C1927.5338,-124.731 1959.5099,-100.8321 1939,-78 1888.9651,-22.3001 1677.9278,-53.8601 1604,-42 1593.434,-40.3049 1582.2888,-38.2123 1571.4525,-36.011"/>
<polygon fill="#191970" stroke="#191970" points="1895.047,-137.8214 1887.6904,-145.4457 1898.1959,-144.0731 1895.047,-137.8214"/>
</g>
<!-- Node44&#45;&gt;Node40 -->
<g id="edge32" class="edge">
<title>Node44&#45;&gt;Node40</title>
<path fill="none" stroke="#191970" d="M1928.6121,-141.5413C1945.2292,-133.9999 1961.0767,-123.5227 1972,-109 1988.0111,-87.713 1987.4057,-55.0089 1985.33,-36.0399"/>
<polygon fill="#191970" stroke="#191970" points="1927.1952,-138.3401 1919.3276,-145.4359 1929.903,-144.7952 1927.1952,-138.3401"/>
</g>
<!-- Node44&#45;&gt;Node43 -->
<g id="edge33" class="edge">
<title>Node44&#45;&gt;Node43</title>
<path fill="none" stroke="#191970" d="M1852,-135.0249C1852,-126.128 1852,-116.4287 1852,-108.6432"/>
<polygon fill="#191970" stroke="#191970" points="1848.5001,-135.2966 1852,-145.2967 1855.5001,-135.2967 1848.5001,-135.2966"/>
</g>
<!-- Node44&#45;&gt;Node45 -->
<g id="edge35" class="edge">
<title>Node44&#45;&gt;Node45</title>
<path fill="none" stroke="#191970" d="M1913.3569,-142.5484C1949.6045,-131.9432 1994.9831,-118.6665 2029.3838,-108.6017"/>
<polygon fill="#191970" stroke="#191970" points="1912.0069,-139.2966 1903.3921,-145.4639 1913.9726,-146.015 1912.0069,-139.2966"/>
</g>
<!-- Node44&#45;&gt;Node46 -->
<g id="edge36" class="edge">
<title>Node44&#45;&gt;Node46</title>
<path fill="none" stroke="#191970" d="M1940.5471,-145.1245C1999.1411,-134.9297 2077.6675,-121.228 2147,-109 2149.8707,-108.4937 2152.7945,-107.9772 2155.7477,-107.4547"/>
<polygon fill="#191970" stroke="#191970" points="1939.8359,-141.6955 1930.5837,-146.8576 1941.0356,-148.592 1939.8359,-141.6955"/>
</g>
</g>
</svg>
        <g id="navigator" transform="translate(0 0)" fill="#404254">
                <rect fill="#f2f5e9" fill-opacity="0.5" stroke="#606060" stroke-width=".5" x="0" y="0" width="60" height="60"/>
                <use id="zoomplus" xlink:href="#zoomPlus" x="17" y="9" onmousedown="handleZoom(evt,'in')"/>
                <use id="zoomminus" xlink:href="#zoomMin" x="42" y="9" onmousedown="handleZoom(evt,'out')"/>
                <use id="reset" xlink:href="#resetDef" x="30" y="36" onmousedown="handleReset()"/>
                <g id="arrowUp" xlink:href="#dirArrow" transform="translate(30 24)" onmousedown="handlePan(0,-1)">
                  <use xlink:href="#rim" fill="#404040">
                        <set attributeName="fill" to="#808080" begin="arrowUp.mouseover" end="arrowUp.mouseout"/>
                  </use>
                  <path fill="none" stroke="white" stroke-width="1.5" d="M0,-3.0v7 M-2.5,-0.5L0,-3.0L2.5,-0.5"/>
                </g>
                <g id="arrowRight" xlink:href="#dirArrow" transform="rotate(90) translate(36 -43)" onmousedown="handlePan(1,0)">
                  <use xlink:href="#rim" fill="#404040">
                        <set attributeName="fill" to="#808080" begin="arrowRight.mouseover" end="arrowRight.mouseout"/>
                  </use>
                  <path fill="none" stroke="white" stroke-width="1.5" d="M0,-3.0v7 M-2.5,-0.5L0,-3.0L2.5,-0.5"/>
                </g>
                <g id="arrowDown" xlink:href="#dirArrow" transform="rotate(180) translate(-30 -48)" onmousedown="handlePan(0,1)">
                  <use xlink:href="#rim" fill="#404040">
                        <set attributeName="fill" to="#808080" begin="arrowDown.mouseover" end="arrowDown.mouseout"/>
                  </use>
                  <path fill="none" stroke="white" stroke-width="1.5" d="M0,-3.0v7 M-2.5,-0.5L0,-3.0L2.5,-0.5"/>
                </g>
                <g id="arrowLeft" xlink:href="#dirArrow" transform="rotate(270) translate(-36 17)" onmousedown="handlePan(-1,0)">
                  <use xlink:href="#rim" fill="#404040">
                        <set attributeName="fill" to="#808080" begin="arrowLeft.mouseover" end="arrowLeft.mouseout"/>
                  </use>
                  <path fill="none" stroke="white" stroke-width="1.5" d="M0,-3.0v7 M-2.5,-0.5L0,-3.0L2.5,-0.5"/>
                </g>
        </g>
        <svg viewBox="0 0 15 15" width="100%" height="30px" preserveAspectRatio="xMaxYMin meet">
         <g id="arrow_out" transform="scale(0.3 0.3)">
          <a xlink:href="Texture_8hpp__dep__incl_org.svg" target="_base">
           <rect id="button" ry="5" rx="5" y="6" x="6" height="38" width="38"
                fill="#f2f5e9" fill-opacity="0.5" stroke="#606060" stroke-width="1.0"/>
           <path id="arrow"
             d="M 11.500037,31.436501 C 11.940474,20.09759 22.043105,11.32322 32.158766,21.979434 L 37.068811,17.246167 C 37.068811,17.246167 37.088388,32 37.088388,32 L 22.160133,31.978069 C 22.160133,31.978069 26.997745,27.140456 26.997745,27.140456 C 18.528582,18.264221 13.291696,25.230495 11.500037,31.436501 z"
             style="fill:#404040;"/>
          </a>
         </g>
        </svg>
</svg>
