<?xml version="1.0" encoding="UTF-8" standalone="no"?>
<!DOCTYPE svg PUBLIC "-//W3C//DTD SVG 1.1//EN"
 "http://www.w3.org/Graphics/SVG/1.1/DTD/svg11.dtd">
<!-- Generated by graphviz version 2.40.1 (20161225.0304)
 -->
<!-- Title: src/Engine/Renderer/Texture/TextureManager.cpp Pages: 1 -->
<svg width="1138pt" height="475pt"
 viewBox="0.00 0.00 1137.50 475.00" xmlns="http://www.w3.org/2000/svg" xmlns:xlink="http://www.w3.org/1999/xlink">
<g id="graph0" class="graph" transform="scale(1 1) rotate(0) translate(4 471)">
<title>src/Engine/Renderer/Texture/TextureManager.cpp</title>
<polygon fill="#ffffff" stroke="transparent" points="-4,4 -4,-471 1133.5,-471 1133.5,4 -4,4"/>
<!-- Node0 -->
<g id="node1" class="node">
<title>Node0</title>
<polygon fill="#bfbfbf" stroke="#000000" points="736.5,-436.5 736.5,-466.5 892.5,-466.5 892.5,-436.5 736.5,-436.5"/>
<text text-anchor="start" x="744.5" y="-454.5" font-family="Helvetica,sans-Serif" font-size="10.00" fill="#000000">src/Engine/Renderer</text>
<text text-anchor="middle" x="814.5" y="-443.5" font-family="Helvetica,sans-Serif" font-size="10.00" fill="#000000">/Texture/TextureManager.cpp</text>
</g>
<!-- Node1 -->
<g id="node2" class="node">
<title>Node1</title>
<g id="a_node2"><a xlink:href="Texture_8hpp.html" target="_top" xlink:title="Engine/Renderer/Texture\l/Texture.hpp">
<polygon fill="#ffffff" stroke="#000000" points="546,-302.5 546,-332.5 681,-332.5 681,-302.5 546,-302.5"/>
<text text-anchor="start" x="554" y="-320.5" font-family="Helvetica,sans-Serif" font-size="10.00" fill="#000000">Engine/Renderer/Texture</text>
<text text-anchor="middle" x="613.5" y="-309.5" font-family="Helvetica,sans-Serif" font-size="10.00" fill="#000000">/Texture.hpp</text>
</a>
</g>
</g>
<!-- Node0&#45;&gt;Node1 -->
<g id="edge1" class="edge">
<title>Node0&#45;&gt;Node1</title>
<path fill="none" stroke="#191970" d="M772.5679,-436.4543C741.9731,-425.0637 703.5094,-409.7622 689.5,-400 666.1578,-383.7344 644.7062,-359.1656 630.5892,-341.0677"/>
<polygon fill="#191970" stroke="#191970" points="633.1137,-338.6055 624.2722,-332.7679 627.5435,-342.845 633.1137,-338.6055"/>
</g>
<!-- Node24 -->
<g id="node25" class="node">
<title>Node24</title>
<g id="a_node25"><a xlink:href="TextureManager_8hpp.html" target="_top" xlink:title="Engine/Renderer/Texture\l/TextureManager.hpp">
<polygon fill="#ffffff" stroke="#000000" points="699,-369.5 699,-399.5 834,-399.5 834,-369.5 699,-369.5"/>
<text text-anchor="start" x="707" y="-387.5" font-family="Helvetica,sans-Serif" font-size="10.00" fill="#000000">Engine/Renderer/Texture</text>
<text text-anchor="middle" x="766.5" y="-376.5" font-family="Helvetica,sans-Serif" font-size="10.00" fill="#000000">/TextureManager.hpp</text>
</a>
</g>
</g>
<!-- Node0&#45;&gt;Node24 -->
<g id="edge27" class="edge">
<title>Node0&#45;&gt;Node24</title>
<path fill="none" stroke="#191970" d="M803.6081,-436.2967C797.5937,-427.9016 789.9951,-417.2952 783.2426,-407.8698"/>
<polygon fill="#191970" stroke="#191970" points="786.0179,-405.734 777.3488,-399.6432 780.3275,-409.8107 786.0179,-405.734"/>
</g>
<!-- Node27 -->
<g id="node28" class="node">
<title>Node27</title>
<g id="a_node28"><a xlink:href="Log_8hpp.html" target="_top" xlink:title="Core/Utils/Log.hpp">
<polygon fill="#ffffff" stroke="#000000" points="1021.5,-308 1021.5,-327 1127.5,-327 1127.5,-308 1021.5,-308"/>
<text text-anchor="middle" x="1074.5" y="-315" font-family="Helvetica,sans-Serif" font-size="10.00" fill="#000000">Core/Utils/Log.hpp</text>
</a>
</g>
</g>
<!-- Node0&#45;&gt;Node27 -->
<g id="edge35" class="edge">
<title>Node0&#45;&gt;Node27</title>
<path fill="none" stroke="#191970" d="M822.8031,-436.2542C833.7744,-417.5636 854.8627,-386.2522 881.5,-369 887.6997,-364.9846 971.1508,-343.4986 1026.269,-329.5779"/>
<polygon fill="#191970" stroke="#191970" points="1027.3651,-332.9111 1036.206,-327.0726 1025.6538,-326.1235 1027.3651,-332.9111"/>
</g>
<!-- Node30 -->
<g id="node31" class="node">
<title>Node30</title>
<polygon fill="#ffffff" stroke="#bfbfbf" points="891,-375 891,-394 986,-394 986,-375 891,-375"/>
<text text-anchor="middle" x="938.5" y="-382" font-family="Helvetica,sans-Serif" font-size="10.00" fill="#000000">stb/stb_image.h</text>
</g>
<!-- Node0&#45;&gt;Node30 -->
<g id="edge41" class="edge">
<title>Node0&#45;&gt;Node30</title>
<path fill="none" stroke="#191970" d="M842.328,-436.4639C863.1336,-425.2222 891.4054,-409.9463 911.9073,-398.8686"/>
<polygon fill="#191970" stroke="#191970" points="913.5915,-401.9369 920.7256,-394.1039 910.2639,-395.7784 913.5915,-401.9369"/>
</g>
<!-- Node2 -->
<g id="node3" class="node">
<title>Node2</title>
<g id="a_node3"><a xlink:href="RaEngine_8hpp.html" target="_top" xlink:title="Engine/RaEngine.hpp">
<polygon fill="#ffffff" stroke="#000000" points="699,-241 699,-260 818,-260 818,-241 699,-241"/>
<text text-anchor="middle" x="758.5" y="-248" font-family="Helvetica,sans-Serif" font-size="10.00" fill="#000000">Engine/RaEngine.hpp</text>
</a>
</g>
</g>
<!-- Node1&#45;&gt;Node2 -->
<g id="edge2" class="edge">
<title>Node1&#45;&gt;Node2</title>
<path fill="none" stroke="#191970" d="M646.0408,-302.4639C670.6987,-291.0702 704.3248,-275.5327 728.3706,-264.4219"/>
<polygon fill="#191970" stroke="#191970" points="730.1057,-267.4757 737.7154,-260.1039 727.1695,-261.1213 730.1057,-267.4757"/>
</g>
<!-- Node9 -->
<g id="node10" class="node">
<title>Node9</title>
<polygon fill="#ffffff" stroke="#bfbfbf" points="147.5,-241 147.5,-260 205.5,-260 205.5,-241 147.5,-241"/>
<text text-anchor="middle" x="176.5" y="-248" font-family="Helvetica,sans-Serif" font-size="10.00" fill="#000000">memory</text>
</g>
<!-- Node1&#45;&gt;Node9 -->
<g id="edge9" class="edge">
<title>Node1&#45;&gt;Node9</title>
<path fill="none" stroke="#191970" d="M545.7656,-314.104C465.5581,-308.8631 328.4683,-296.0532 214.5,-266 211.8777,-265.3085 209.1952,-264.48 206.5282,-263.5705"/>
<polygon fill="#191970" stroke="#191970" points="207.666,-260.2592 197.0738,-260.022 205.2062,-266.8128 207.666,-260.2592"/>
</g>
<!-- Node10 -->
<g id="node11" class="node">
<title>Node10</title>
<polygon fill="#ffffff" stroke="#bfbfbf" points="836.5,-241 836.5,-260 880.5,-260 880.5,-241 836.5,-241"/>
<text text-anchor="middle" x="858.5" y="-248" font-family="Helvetica,sans-Serif" font-size="10.00" fill="#000000">string</text>
</g>
<!-- Node1&#45;&gt;Node10 -->
<g id="edge10" class="edge">
<title>Node1&#45;&gt;Node10</title>
<path fill="none" stroke="#191970" d="M681.2545,-304.9822C723.655,-296.2062 779.0466,-283.0079 826.5,-266 828.098,-265.4272 829.722,-264.7987 831.3479,-264.1329"/>
<polygon fill="#191970" stroke="#191970" points="832.8082,-267.314 840.5137,-260.0424 829.9554,-260.9216 832.8082,-267.314"/>
</g>
<!-- Node11 -->
<g id="node12" class="node">
<title>Node11</title>
<g id="a_node12"><a xlink:href="OpenGL_8hpp.html" target="_top" xlink:title="Engine/Renderer/OpenGL\l/OpenGL.hpp">
<polygon fill="#ffffff" stroke="#000000" points="544,-235.5 544,-265.5 681,-265.5 681,-235.5 544,-235.5"/>
<text text-anchor="start" x="552" y="-253.5" font-family="Helvetica,sans-Serif" font-size="10.00" fill="#000000">Engine/Renderer/OpenGL</text>
<text text-anchor="middle" x="612.5" y="-242.5" font-family="Helvetica,sans-Serif" font-size="10.00" fill="#000000">/OpenGL.hpp</text>
</a>
</g>
</g>
<!-- Node1&#45;&gt;Node11 -->
<g id="edge11" class="edge">
<title>Node1&#45;&gt;Node11</title>
<path fill="none" stroke="#191970" d="M613.2731,-302.2967C613.1567,-294.5013 613.0119,-284.7991 612.8792,-275.9064"/>
<polygon fill="#191970" stroke="#191970" points="616.375,-275.5898 612.726,-265.6432 609.3757,-275.6943 616.375,-275.5898"/>
</g>
<!-- Node15 -->
<g id="node16" class="node">
<title>Node15</title>
<g id="a_node16"><a xlink:href="Color_8hpp.html" target="_top" xlink:title="Core/Utils/Color.hpp">
<polygon fill="#ffffff" stroke="#000000" points="224,-241 224,-260 337,-260 337,-241 224,-241"/>
<text text-anchor="middle" x="280.5" y="-248" font-family="Helvetica,sans-Serif" font-size="10.00" fill="#000000">Core/Utils/Color.hpp</text>
</a>
</g>
</g>
<!-- Node1&#45;&gt;Node15 -->
<g id="edge15" class="edge">
<title>Node1&#45;&gt;Node15</title>
<path fill="none" stroke="#191970" d="M545.7111,-303.8608C484.5379,-291.5527 395.5416,-273.6465 337.8325,-262.0354"/>
<polygon fill="#191970" stroke="#191970" points="338.2828,-258.5559 327.7889,-260.0146 336.902,-265.4184 338.2828,-258.5559"/>
</g>
<!-- Node3 -->
<g id="node4" class="node">
<title>Node3</title>
<g id="a_node4"><a xlink:href="CoreMacros_8hpp.html" target="_top" xlink:title="Core/CoreMacros.hpp">
<polygon fill="#ffffff" stroke="#000000" points="824.5,-56.5 824.5,-75.5 944.5,-75.5 944.5,-56.5 824.5,-56.5"/>
<text text-anchor="middle" x="884.5" y="-63.5" font-family="Helvetica,sans-Serif" font-size="10.00" fill="#000000">Core/CoreMacros.hpp</text>
</a>
</g>
</g>
<!-- Node2&#45;&gt;Node3 -->
<g id="edge3" class="edge">
<title>Node2&#45;&gt;Node3</title>
<path fill="none" stroke="#191970" d="M788.7958,-240.9908C809.4381,-232.9847 835.7778,-219.5048 851.5,-199 877.3276,-165.3157 883.1835,-113.9812 884.3608,-85.9605"/>
<polygon fill="#191970" stroke="#191970" points="887.8634,-85.8999 884.621,-75.8134 880.8657,-85.7204 887.8634,-85.8999"/>
</g>
<!-- Node4 -->
<g id="node5" class="node">
<title>Node4</title>
<polygon fill="#ffffff" stroke="#bfbfbf" points="835.5,-.5 835.5,-19.5 887.5,-19.5 887.5,-.5 835.5,-.5"/>
<text text-anchor="middle" x="861.5" y="-7.5" font-family="Helvetica,sans-Serif" font-size="10.00" fill="#000000">cassert</text>
</g>
<!-- Node3&#45;&gt;Node4 -->
<g id="edge4" class="edge">
<title>Node3&#45;&gt;Node4</title>
<path fill="none" stroke="#191970" d="M880.4937,-56.2455C877.4265,-48.7776 873.0997,-38.2427 869.3503,-29.1137"/>
<polygon fill="#191970" stroke="#191970" points="872.4972,-27.5631 865.4604,-19.6427 866.0221,-30.2226 872.4972,-27.5631"/>
</g>
<!-- Node5 -->
<g id="node6" class="node">
<title>Node5</title>
<polygon fill="#ffffff" stroke="#bfbfbf" points="905.5,-.5 905.5,-19.5 951.5,-19.5 951.5,-.5 905.5,-.5"/>
<text text-anchor="middle" x="928.5" y="-7.5" font-family="Helvetica,sans-Serif" font-size="10.00" fill="#000000">cstdio</text>
</g>
<!-- Node3&#45;&gt;Node5 -->
<g id="edge5" class="edge">
<title>Node3&#45;&gt;Node5</title>
<path fill="none" stroke="#191970" d="M892.1642,-56.2455C898.3473,-48.3761 907.2063,-37.101 914.6289,-27.6542"/>
<polygon fill="#191970" stroke="#191970" points="917.4975,-29.6683 920.9236,-19.6427 911.9932,-25.3435 917.4975,-29.6683"/>
</g>
<!-- Node6 -->
<g id="node7" class="node">
<title>Node6</title>
<polygon fill="#ffffff" stroke="#bfbfbf" points="969.5,-.5 969.5,-19.5 1029.5,-19.5 1029.5,-.5 969.5,-.5"/>
<text text-anchor="middle" x="999.5" y="-7.5" font-family="Helvetica,sans-Serif" font-size="10.00" fill="#000000">iostream</text>
</g>
<!-- Node3&#45;&gt;Node6 -->
<g id="edge6" class="edge">
<title>Node3&#45;&gt;Node6</title>
<path fill="none" stroke="#191970" d="M904.2692,-56.3733C922.6469,-47.4241 950.2312,-33.9917 970.9893,-23.8835"/>
<polygon fill="#191970" stroke="#191970" points="972.5304,-27.026 979.9888,-19.5011 969.4657,-20.7325 972.5304,-27.026"/>
</g>
<!-- Node7 -->
<g id="node8" class="node">
<title>Node7</title>
<polygon fill="#ffffff" stroke="#bfbfbf" points="1073.5,-.5 1073.5,-19.5 1129.5,-19.5 1129.5,-.5 1073.5,-.5"/>
<text text-anchor="middle" x="1101.5" y="-7.5" font-family="Helvetica,sans-Serif" font-size="10.00" fill="#000000">sstream</text>
</g>
<!-- Node3&#45;&gt;Node7 -->
<g id="edge7" class="edge">
<title>Node3&#45;&gt;Node7</title>
<path fill="none" stroke="#191970" d="M921.8036,-56.3733C961.3772,-46.1607 1023.5747,-30.1098 1063.4354,-19.8231"/>
<polygon fill="#191970" stroke="#191970" points="1064.4993,-23.1633 1073.3075,-17.2755 1062.7501,-16.3854 1064.4993,-23.1633"/>
</g>
<!-- Node8 -->
<g id="node9" class="node">
<title>Node8</title>
<polygon fill="#ffffff" stroke="#bfbfbf" points="769.5,-.5 769.5,-19.5 817.5,-19.5 817.5,-.5 769.5,-.5"/>
<text text-anchor="middle" x="793.5" y="-7.5" font-family="Helvetica,sans-Serif" font-size="10.00" fill="#000000">thread</text>
</g>
<!-- Node3&#45;&gt;Node8 -->
<g id="edge8" class="edge">
<title>Node3&#45;&gt;Node8</title>
<path fill="none" stroke="#191970" d="M868.649,-56.2455C854.6868,-47.6534 834.1272,-35.0014 818.0404,-25.1018"/>
<polygon fill="#191970" stroke="#191970" points="819.5203,-21.9029 809.1693,-19.6427 815.8516,-27.8645 819.5203,-21.9029"/>
</g>
<!-- Node12 -->
<g id="node13" class="node">
<title>Node12</title>
<polygon fill="#ffffff" stroke="#bfbfbf" points="574.5,-174 574.5,-193 702.5,-193 702.5,-174 574.5,-174"/>
<text text-anchor="middle" x="638.5" y="-181" font-family="Helvetica,sans-Serif" font-size="10.00" fill="#000000">glbinding/gl45core/gl.h</text>
</g>
<!-- Node11&#45;&gt;Node12 -->
<g id="edge12" class="edge">
<title>Node11&#45;&gt;Node12</title>
<path fill="none" stroke="#191970" d="M618.3998,-235.2967C622.1754,-225.5672 627.1037,-212.8675 631.1353,-202.4784"/>
<polygon fill="#191970" stroke="#191970" points="634.4372,-203.6439 634.7921,-193.055 627.9114,-201.1114 634.4372,-203.6439"/>
</g>
<!-- Node13 -->
<g id="node14" class="node">
<title>Node13</title>
<polygon fill="#ffffff" stroke="#bfbfbf" points="720.5,-174 720.5,-193 842.5,-193 842.5,-174 720.5,-174"/>
<text text-anchor="middle" x="781.5" y="-181" font-family="Helvetica,sans-Serif" font-size="10.00" fill="#000000">glbinding/gl45ext/gl.h</text>
</g>
<!-- Node11&#45;&gt;Node13 -->
<g id="edge13" class="edge">
<title>Node11&#45;&gt;Node13</title>
<path fill="none" stroke="#191970" d="M650.4269,-235.4639C679.677,-223.8677 719.7547,-207.9789 747.8676,-196.8335"/>
<polygon fill="#191970" stroke="#191970" points="749.269,-200.0431 757.2752,-193.1039 746.6892,-193.5358 749.269,-200.0431"/>
</g>
<!-- Node14 -->
<g id="node15" class="node">
<title>Node14</title>
<polygon fill="#ffffff" stroke="#bfbfbf" points="443,-168.5 443,-198.5 556,-198.5 556,-168.5 443,-168.5"/>
<text text-anchor="start" x="451" y="-186.5" font-family="Helvetica,sans-Serif" font-size="10.00" fill="#000000">glbinding&#45;aux/types</text>
<text text-anchor="middle" x="499.5" y="-175.5" font-family="Helvetica,sans-Serif" font-size="10.00" fill="#000000">_to_string.h</text>
</g>
<!-- Node11&#45;&gt;Node14 -->
<g id="edge14" class="edge">
<title>Node11&#45;&gt;Node14</title>
<path fill="none" stroke="#191970" d="M587.1406,-235.4639C571.4037,-226.1332 550.9795,-214.0232 533.8072,-203.8415"/>
<polygon fill="#191970" stroke="#191970" points="535.5525,-200.8073 525.1657,-198.7177 531.9824,-206.8285 535.5525,-200.8073"/>
</g>
<!-- Node15&#45;&gt;Node3 -->
<g id="edge16" class="edge">
<title>Node15&#45;&gt;Node3</title>
<path fill="none" stroke="#191970" d="M259.8906,-240.8834C244.2425,-232.3307 223.8716,-218.1997 214.5,-199 197.539,-164.2518 188.1115,-140.2623 214.5,-112 234.7397,-90.3231 646.1329,-74.0429 814.0506,-68.2761"/>
<polygon fill="#191970" stroke="#191970" points="814.3968,-71.7665 824.2718,-67.9278 814.1583,-64.7705 814.3968,-71.7665"/>
</g>
<!-- Node16 -->
<g id="node17" class="node">
<title>Node16</title>
<g id="a_node17"><a xlink:href="Math_8hpp.html" target="_top" xlink:title="Core/Math/Math.hpp">
<polygon fill="#ffffff" stroke="#000000" points="223.5,-174 223.5,-193 337.5,-193 337.5,-174 223.5,-174"/>
<text text-anchor="middle" x="280.5" y="-181" font-family="Helvetica,sans-Serif" font-size="10.00" fill="#000000">Core/Math/Math.hpp</text>
</a>
</g>
</g>
<!-- Node15&#45;&gt;Node16 -->
<g id="edge17" class="edge">
<title>Node15&#45;&gt;Node16</title>
<path fill="none" stroke="#191970" d="M280.5,-240.9005C280.5,-231.149 280.5,-215.7597 280.5,-203.3695"/>
<polygon fill="#191970" stroke="#191970" points="284.0001,-203.0816 280.5,-193.0817 277.0001,-203.0817 284.0001,-203.0816"/>
</g>
<!-- Node21 -->
<g id="node22" class="node">
<title>Node21</title>
<polygon fill="#ffffff" stroke="#bfbfbf" points="356,-174 356,-193 425,-193 425,-174 356,-174"/>
<text text-anchor="middle" x="390.5" y="-181" font-family="Helvetica,sans-Serif" font-size="10.00" fill="#000000">Eigen/Core</text>
</g>
<!-- Node15&#45;&gt;Node21 -->
<g id="edge24" class="edge">
<title>Node15&#45;&gt;Node21</title>
<path fill="none" stroke="#191970" d="M296.2603,-240.9005C314.4757,-229.8057 344.673,-211.4128 365.9677,-198.4424"/>
<polygon fill="#191970" stroke="#191970" points="368.0491,-201.2728 374.7689,-193.0817 364.4077,-195.2945 368.0491,-201.2728"/>
</g>
<!-- Node22 -->
<g id="node23" class="node">
<title>Node22</title>
<polygon fill="#ffffff" stroke="#bfbfbf" points="0,-174 0,-193 95,-193 95,-174 0,-174"/>
<text text-anchor="middle" x="47.5" y="-181" font-family="Helvetica,sans-Serif" font-size="10.00" fill="#000000">Eigen/Geometry</text>
</g>
<!-- Node15&#45;&gt;Node22 -->
<g id="edge25" class="edge">
<title>Node15&#45;&gt;Node22</title>
<path fill="none" stroke="#191970" d="M247.1168,-240.9005C205.9379,-229.0594 135.8502,-208.9054 90.6311,-195.9025"/>
<polygon fill="#191970" stroke="#191970" points="91.3991,-192.4816 80.8213,-193.0817 89.4646,-199.209 91.3991,-192.4816"/>
</g>
<!-- Node23 -->
<g id="node24" class="node">
<title>Node23</title>
<polygon fill="#ffffff" stroke="#bfbfbf" points="113.5,-174 113.5,-193 167.5,-193 167.5,-174 113.5,-174"/>
<text text-anchor="middle" x="140.5" y="-181" font-family="Helvetica,sans-Serif" font-size="10.00" fill="#000000">random</text>
</g>
<!-- Node15&#45;&gt;Node23 -->
<g id="edge26" class="edge">
<title>Node15&#45;&gt;Node23</title>
<path fill="none" stroke="#191970" d="M260.4414,-240.9005C236.6344,-229.5072 196.7461,-210.4178 169.5604,-197.4075"/>
<polygon fill="#191970" stroke="#191970" points="171.0526,-194.2415 160.5214,-193.0817 168.0307,-200.5556 171.0526,-194.2415"/>
</g>
<!-- Node17 -->
<g id="node18" class="node">
<title>Node17</title>
<g id="a_node18"><a xlink:href="RaCore_8hpp.html" target="_top" xlink:title="Core/RaCore.hpp">
<polygon fill="#ffffff" stroke="#000000" points="898.5,-112.5 898.5,-131.5 996.5,-131.5 996.5,-112.5 898.5,-112.5"/>
<text text-anchor="middle" x="947.5" y="-119.5" font-family="Helvetica,sans-Serif" font-size="10.00" fill="#000000">Core/RaCore.hpp</text>
</a>
</g>
</g>
<!-- Node16&#45;&gt;Node17 -->
<g id="edge18" class="edge">
<title>Node16&#45;&gt;Node17</title>
<path fill="none" stroke="#191970" d="M316.6136,-173.9589C326.2648,-171.7005 336.7294,-169.512 346.5,-168 543.3593,-137.5366 779.7626,-126.9432 888.0518,-123.5135"/>
<polygon fill="#191970" stroke="#191970" points="888.2382,-127.0095 898.1258,-123.2035 888.0228,-120.0128 888.2382,-127.0095"/>
</g>
<!-- Node18 -->
<g id="node19" class="node">
<title>Node18</title>
<polygon fill="#ffffff" stroke="#bfbfbf" points="223.5,-112.5 223.5,-131.5 287.5,-131.5 287.5,-112.5 223.5,-112.5"/>
<text text-anchor="middle" x="255.5" y="-119.5" font-family="Helvetica,sans-Serif" font-size="10.00" fill="#000000">algorithm</text>
</g>
<!-- Node16&#45;&gt;Node18 -->
<g id="edge20" class="edge">
<title>Node16&#45;&gt;Node18</title>
<path fill="none" stroke="#191970" d="M276.5938,-173.8906C273.0554,-165.1862 267.7364,-152.1015 263.325,-141.2494"/>
<polygon fill="#191970" stroke="#191970" points="266.4695,-139.6907 259.4613,-131.7449 259.9848,-142.3268 266.4695,-139.6907"/>
</g>
<!-- Node19 -->
<g id="node20" class="node">
<title>Node19</title>
<polygon fill="#ffffff" stroke="#bfbfbf" points="306,-112.5 306,-131.5 353,-131.5 353,-112.5 306,-112.5"/>
<text text-anchor="middle" x="329.5" y="-119.5" font-family="Helvetica,sans-Serif" font-size="10.00" fill="#000000">cmath</text>
</g>
<!-- Node16&#45;&gt;Node19 -->
<g id="edge21" class="edge">
<title>Node16&#45;&gt;Node19</title>
<path fill="none" stroke="#191970" d="M288.1563,-173.8906C295.4489,-164.7376 306.6007,-150.7409 315.4852,-139.59"/>
<polygon fill="#191970" stroke="#191970" points="318.2417,-141.747 321.7358,-131.7449 312.767,-137.3849 318.2417,-141.747"/>
</g>
<!-- Node20 -->
<g id="node21" class="node">
<title>Node20</title>
<g id="a_node21"><a xlink:href="Math_8inl.html" target="_top" xlink:title="Core/Math/Math.inl">
<polygon fill="#ffffff" stroke="#000000" points="371.5,-112.5 371.5,-131.5 479.5,-131.5 479.5,-112.5 371.5,-112.5"/>
<text text-anchor="middle" x="425.5" y="-119.5" font-family="Helvetica,sans-Serif" font-size="10.00" fill="#000000">Core/Math/Math.inl</text>
</a>
</g>
</g>
<!-- Node16&#45;&gt;Node20 -->
<g id="edge22" class="edge">
<title>Node16&#45;&gt;Node20</title>
<path fill="none" stroke="#191970" d="M298.0938,-173.8906C320.5423,-163.5103 359.5016,-146.9004 388.5286,-135.2766"/>
<polygon fill="#191970" stroke="#191970" points="389.9462,-138.4797 397.9536,-131.5419 387.3674,-131.9719 389.9462,-138.4797"/>
</g>
<!-- Node17&#45;&gt;Node3 -->
<g id="edge19" class="edge">
<title>Node17&#45;&gt;Node3</title>
<path fill="none" stroke="#191970" d="M936.5262,-112.2455C927.3118,-104.0549 913.9468,-92.1749 903.0703,-82.5069"/>
<polygon fill="#191970" stroke="#191970" points="905.1474,-79.6704 895.348,-75.6427 900.4968,-84.9023 905.1474,-79.6704"/>
</g>
<!-- Node20&#45;&gt;Node16 -->
<g id="edge23" class="edge">
<title>Node20&#45;&gt;Node16</title>
<path fill="none" stroke="#191970" d="M408.0521,-131.5419C385.6754,-141.8952 346.7304,-158.5023 317.6605,-170.1477"/>
<polygon fill="#191970" stroke="#191970" points="316.2251,-166.9517 308.2188,-173.8906 318.8048,-173.459 316.2251,-166.9517"/>
</g>
<!-- Node24&#45;&gt;Node1 -->
<g id="edge34" class="edge">
<title>Node24&#45;&gt;Node1</title>
<path fill="none" stroke="#191970" d="M732.1638,-369.4639C709.9966,-359.7567 680.9604,-347.0415 657.1592,-336.6188"/>
<polygon fill="#191970" stroke="#191970" points="658.5501,-333.407 647.9859,-332.6017 655.7422,-339.8191 658.5501,-333.407"/>
</g>
<!-- Node24&#45;&gt;Node2 -->
<g id="edge28" class="edge">
<title>Node24&#45;&gt;Node2</title>
<path fill="none" stroke="#191970" d="M765.5978,-369.389C764.1462,-345.0735 761.2919,-297.2644 759.6803,-270.2698"/>
<polygon fill="#191970" stroke="#191970" points="763.1632,-269.8778 759.0734,-260.1042 756.1756,-270.295 763.1632,-269.8778"/>
</g>
<!-- Node24&#45;&gt;Node10 -->
<g id="edge30" class="edge">
<title>Node24&#45;&gt;Node10</title>
<path fill="none" stroke="#191970" d="M771.5341,-369.2887C777.6844,-352.007 789.1908,-323.4276 804.5,-302 813.9822,-288.7282 827.1992,-276.0538 838.1838,-266.5996"/>
<polygon fill="#191970" stroke="#191970" points="840.6106,-269.1331 846.0497,-260.041 836.1278,-263.7568 840.6106,-269.1331"/>
</g>
<!-- Node24&#45;&gt;Node11 -->
<g id="edge33" class="edge">
<title>Node24&#45;&gt;Node11</title>
<path fill="none" stroke="#191970" d="M754.0891,-369.2043C739.5987,-351.8452 714.4257,-323.195 689.5,-302 676.334,-290.8046 660.6535,-279.9336 646.8894,-271.0872"/>
<polygon fill="#191970" stroke="#191970" points="648.4918,-267.9598 638.1669,-265.5833 644.7562,-273.8798 648.4918,-267.9598"/>
</g>
<!-- Node25 -->
<g id="node26" class="node">
<title>Node25</title>
<polygon fill="#ffffff" stroke="#bfbfbf" points="965.5,-308 965.5,-327 1003.5,-327 1003.5,-308 965.5,-308"/>
<text text-anchor="middle" x="984.5" y="-315" font-family="Helvetica,sans-Serif" font-size="10.00" fill="#000000">map</text>
</g>
<!-- Node24&#45;&gt;Node25 -->
<g id="edge29" class="edge">
<title>Node24&#45;&gt;Node25</title>
<path fill="none" stroke="#191970" d="M834.1815,-370.3477C871.0512,-361.6029 917.0673,-348.9853 956.5,-333 957.5298,-332.5825 958.5697,-332.1357 959.6116,-331.6666"/>
<polygon fill="#191970" stroke="#191970" points="961.4679,-334.6511 968.8353,-327.0371 958.3278,-328.3949 961.4679,-334.6511"/>
</g>
<!-- Node26 -->
<g id="node27" class="node">
<title>Node26</title>
<g id="a_node27"><a xlink:href="Singleton_8hpp.html" target="_top" xlink:title="Core/Utils/Singleton.hpp">
<polygon fill="#ffffff" stroke="#000000" points="813.5,-308 813.5,-327 947.5,-327 947.5,-308 813.5,-308"/>
<text text-anchor="middle" x="880.5" y="-315" font-family="Helvetica,sans-Serif" font-size="10.00" fill="#000000">Core/Utils/Singleton.hpp</text>
</a>
</g>
</g>
<!-- Node24&#45;&gt;Node26 -->
<g id="edge31" class="edge">
<title>Node24&#45;&gt;Node26</title>
<path fill="none" stroke="#191970" d="M792.0838,-369.4639C810.9531,-358.3741 836.5021,-343.3584 855.2839,-332.32"/>
<polygon fill="#191970" stroke="#191970" points="857.3111,-335.1883 864.159,-327.1039 853.7643,-329.1534 857.3111,-335.1883"/>
</g>
<!-- Node26&#45;&gt;Node17 -->
<g id="edge32" class="edge">
<title>Node26&#45;&gt;Node17</title>
<path fill="none" stroke="#191970" d="M883.8225,-307.8051C894.2937,-277.2513 926.7448,-182.5619 940.8456,-141.417"/>
<polygon fill="#191970" stroke="#191970" points="944.2263,-142.348 944.1574,-131.7534 937.6044,-140.0786 944.2263,-142.348"/>
</g>
<!-- Node27&#45;&gt;Node7 -->
<g id="edge38" class="edge">
<title>Node27&#45;&gt;Node7</title>
<path fill="none" stroke="#191970" d="M1079.566,-307.7144C1090.3295,-285.986 1114.5,-231.8137 1114.5,-183.5 1114.5,-183.5 1114.5,-183.5 1114.5,-122 1114.5,-89.3457 1108.98,-51.6911 1105.1339,-29.4184"/>
<polygon fill="#191970" stroke="#191970" points="1108.5735,-28.7698 1103.3626,-19.545 1101.6835,-30.0059 1108.5735,-28.7698"/>
</g>
<!-- Node27&#45;&gt;Node10 -->
<g id="edge40" class="edge">
<title>Node27&#45;&gt;Node10</title>
<path fill="none" stroke="#191970" d="M1043.5525,-307.9005C1002.7953,-295.2583 931.4896,-273.1403 890.3077,-260.3663"/>
<polygon fill="#191970" stroke="#191970" points="891.1118,-256.9512 880.5238,-257.3314 889.0379,-263.637 891.1118,-256.9512"/>
</g>
<!-- Node27&#45;&gt;Node17 -->
<g id="edge36" class="edge">
<title>Node27&#45;&gt;Node17</title>
<path fill="none" stroke="#191970" d="M1074.2403,-307.7584C1073.4431,-291.6929 1070.2431,-259.0306 1057.5,-235 1035.8147,-194.1064 994.7957,-157.9415 969.4375,-138.0952"/>
<polygon fill="#191970" stroke="#191970" points="971.247,-135.0727 961.1785,-131.7749 966.9929,-140.6318 971.247,-135.0727"/>
</g>
<!-- Node28 -->
<g id="node29" class="node">
<title>Node28</title>
<polygon fill="#ffffff" stroke="#bfbfbf" points="936.5,-241 936.5,-260 980.5,-260 980.5,-241 936.5,-241"/>
<text text-anchor="middle" x="958.5" y="-248" font-family="Helvetica,sans-Serif" font-size="10.00" fill="#000000">ctime</text>
</g>
<!-- Node27&#45;&gt;Node28 -->
<g id="edge37" class="edge">
<title>Node27&#45;&gt;Node28</title>
<path fill="none" stroke="#191970" d="M1057.88,-307.9005C1038.4988,-296.7062 1006.2545,-278.0823 983.7685,-265.0947"/>
<polygon fill="#191970" stroke="#191970" points="985.4991,-262.0525 975.0891,-260.0817 981.998,-268.114 985.4991,-262.0525"/>
</g>
<!-- Node29 -->
<g id="node30" class="node">
<title>Node29</title>
<polygon fill="#ffffff" stroke="#bfbfbf" points="998.5,-241 998.5,-260 1048.5,-260 1048.5,-241 998.5,-241"/>
<text text-anchor="middle" x="1023.5" y="-248" font-family="Helvetica,sans-Serif" font-size="10.00" fill="#000000">stdio.h</text>
</g>
<!-- Node27&#45;&gt;Node29 -->
<g id="edge39" class="edge">
<title>Node27&#45;&gt;Node29</title>
<path fill="none" stroke="#191970" d="M1067.1929,-307.9005C1059.3157,-297.552 1046.6054,-280.8542 1036.9194,-268.1295"/>
<polygon fill="#191970" stroke="#191970" points="1039.6354,-265.9188 1030.7935,-260.0817 1034.0654,-270.1586 1039.6354,-265.9188"/>
</g>
</g>
</svg>
