<?xml version="1.0" encoding="UTF-8" standalone="no"?>
<!DOCTYPE svg PUBLIC "-//W3C//DTD SVG 1.1//EN"
 "http://www.w3.org/Graphics/SVG/1.1/DTD/svg11.dtd">
<!-- Generated by graphviz version 2.40.1 (20161225.0304)
 -->
<!-- Title: src/Engine/Renderer/Texture/TextureManager.hpp Pages: 1 -->
<!--zoomable 408 -->
<svg id="main" version="1.1" xmlns="http://www.w3.org/2000/svg" xmlns:xlink="http://www.w3.org/1999/xlink" xml:space="preserve" onload="init(evt)">
<style type="text/css"><![CDATA[
.edge:hover path { stroke: red; }
.edge:hover polygon { stroke: red; fill: red; }
]]></style>
<script type="text/javascript"><![CDATA[
var edges = document.getElementsByTagName('g');
if (edges && edges.length) {
  for (var i=0;i<edges.length;i++) {
    if (edges[i].id.substr(0,4)=='edge') {
      edges[i].setAttribute('class','edge');
    }
  }
}
]]></script>
        <defs>
                <circle id="rim" cx="0" cy="0" r="7"/>
                <circle id="rim2" cx="0" cy="0" r="3.5"/>
                <g id="zoomPlus">
                        <use xlink:href="#rim" fill="#404040">
                                <set attributeName="fill" to="#808080" begin="zoomplus.mouseover" end="zoomplus.mouseout"/>
                        </use>
                        <path d="M-4,0h8M0,-4v8" fill="none" stroke="white" stroke-width="1.5" pointer-events="none"/>
                </g>
                <g id="zoomMin">
                        <use xlink:href="#rim" fill="#404040">
                                <set attributeName="fill" to="#808080" begin="zoomminus.mouseover" end="zoomminus.mouseout"/>
                        </use>
                        <path d="M-4,0h8" fill="none" stroke="white" stroke-width="1.5" pointer-events="none"/>
                </g>
                <g id="dirArrow">
                        <path fill="none" stroke="white" stroke-width="1.5" d="M0,-3.0v7 M-2.5,-0.5L0,-3.0L2.5,-0.5"/>
                </g>
               <g id="resetDef">
                       <use xlink:href="#rim2" fill="#404040">
                               <set attributeName="fill" to="#808080" begin="reset.mouseover" end="reset.mouseout"/>
                       </use>
               </g>
        </defs>

<script type="text/javascript">
var viewWidth = 1082;
var viewHeight = 408;
var sectionId = 'dynsection-0';
</script>
<script xlink:href="svgpan.js"/>
<svg id="graph" class="graph">
<g id="viewport">
<title>src/Engine/Renderer/Texture/TextureManager.hpp</title>
<polygon fill="#ffffff" stroke="transparent" points="-4,4 -4,-404 1077.5,-404 1077.5,4 -4,4"/>
<!-- Node0 -->
<g id="node1" class="node">
<title>Node0</title>
<polygon fill="#bfbfbf" stroke="#000000" points="463.5,-369.5 463.5,-399.5 620.5,-399.5 620.5,-369.5 463.5,-369.5"/>
<text text-anchor="start" x="471.5" y="-387.5" font-family="Helvetica,sans-Serif" font-size="10.00" fill="#000000">src/Engine/Renderer</text>
<text text-anchor="middle" x="542" y="-376.5" font-family="Helvetica,sans-Serif" font-size="10.00" fill="#000000">/Texture/TextureManager.hpp</text>
</g>
<!-- Node1 -->
<g id="node2" class="node">
<title>Node1</title>
<g id="a_node2"><a xlink:href="RaEngine_8hpp.html" target="_top" xlink:title="Engine/RaEngine.hpp">
<polygon fill="#ffffff" stroke="#000000" points="55.5,-241 55.5,-260 174.5,-260 174.5,-241 55.5,-241"/>
<text text-anchor="middle" x="115" y="-248" font-family="Helvetica,sans-Serif" font-size="10.00" fill="#000000">Engine/RaEngine.hpp</text>
</a>
</g>
</g>
<!-- Node0&#45;&gt;Node1 -->
<g id="edge1" class="edge">
<title>Node0&#45;&gt;Node1</title>
<path fill="none" stroke="#191970" d="M463.1418,-375.8035C384.4061,-366.3663 269.3367,-350.3115 228,-333 190.0239,-317.0959 152.7985,-286.0852 131.978,-266.9446"/>
<polygon fill="#191970" stroke="#191970" points="134.2779,-264.303 124.5905,-260.0128 129.4881,-269.4077 134.2779,-264.303"/>
</g>
<!-- Node8 -->
<g id="node9" class="node">
<title>Node8</title>
<polygon fill="#ffffff" stroke="#bfbfbf" points="656,-308 656,-327 694,-327 694,-308 656,-308"/>
<text text-anchor="middle" x="675" y="-315" font-family="Helvetica,sans-Serif" font-size="10.00" fill="#000000">map</text>
</g>
<!-- Node0&#45;&gt;Node8 -->
<g id="edge8" class="edge">
<title>Node0&#45;&gt;Node8</title>
<path fill="none" stroke="#191970" d="M571.8478,-369.4639C594.264,-358.1715 624.7606,-342.8086 646.7738,-331.7192"/>
<polygon fill="#191970" stroke="#191970" points="648.5793,-334.7287 655.9355,-327.1039 645.43,-328.4772 648.5793,-334.7287"/>
</g>
<!-- Node9 -->
<g id="node10" class="node">
<title>Node9</title>
<polygon fill="#ffffff" stroke="#bfbfbf" points="568,-241 568,-260 612,-260 612,-241 568,-241"/>
<text text-anchor="middle" x="590" y="-248" font-family="Helvetica,sans-Serif" font-size="10.00" fill="#000000">string</text>
</g>
<!-- Node0&#45;&gt;Node9 -->
<g id="edge9" class="edge">
<title>Node0&#45;&gt;Node9</title>
<path fill="none" stroke="#191970" d="M551.6745,-369.2289C557.6534,-359.2385 565.0952,-345.7246 570,-333 578.0007,-312.2438 583.5196,-287.284 586.7019,-270.2929"/>
<polygon fill="#191970" stroke="#191970" points="590.1558,-270.8603 588.4583,-260.4023 583.2636,-269.6363 590.1558,-270.8603"/>
</g>
<!-- Node10 -->
<g id="node11" class="node">
<title>Node10</title>
<g id="a_node11"><a xlink:href="Singleton_8hpp.html" target="_top" xlink:title="Core/Utils/Singleton.hpp">
<polygon fill="#ffffff" stroke="#000000" points="237,-308 237,-327 371,-327 371,-308 237,-308"/>
<text text-anchor="middle" x="304" y="-315" font-family="Helvetica,sans-Serif" font-size="10.00" fill="#000000">Core/Utils/Singleton.hpp</text>
</a>
</g>
</g>
<!-- Node0&#45;&gt;Node10 -->
<g id="edge10" class="edge">
<title>Node0&#45;&gt;Node10</title>
<path fill="none" stroke="#191970" d="M488.5882,-369.4639C446.0101,-357.4776 387.1409,-340.9052 347.4274,-329.7254"/>
<polygon fill="#191970" stroke="#191970" points="348.3394,-326.3461 337.765,-327.0053 346.4424,-333.0842 348.3394,-326.3461"/>
</g>
<!-- Node12 -->
<g id="node13" class="node">
<title>Node12</title>
<g id="a_node13"><a xlink:href="OpenGL_8hpp.html" target="_top" xlink:title="Engine/Renderer/OpenGL\l/OpenGL.hpp">
<polygon fill="#ffffff" stroke="#000000" points="669.5,-235.5 669.5,-265.5 806.5,-265.5 806.5,-235.5 669.5,-235.5"/>
<text text-anchor="start" x="677.5" y="-253.5" font-family="Helvetica,sans-Serif" font-size="10.00" fill="#000000">Engine/Renderer/OpenGL</text>
<text text-anchor="middle" x="738" y="-242.5" font-family="Helvetica,sans-Serif" font-size="10.00" fill="#000000">/OpenGL.hpp</text>
</a>
</g>
</g>
<!-- Node0&#45;&gt;Node12 -->
<g id="edge13" class="edge">
<title>Node0&#45;&gt;Node12</title>
<path fill="none" stroke="#191970" d="M559.5873,-369.335C579.9558,-352.0957 614.8401,-323.5553 647,-302 663.7946,-290.7434 683.2,-279.5336 699.7658,-270.4605"/>
<polygon fill="#191970" stroke="#191970" points="701.5159,-273.4931 708.6422,-265.6531 698.1822,-267.3379 701.5159,-273.4931"/>
</g>
<!-- Node16 -->
<g id="node17" class="node">
<title>Node16</title>
<g id="a_node17"><a xlink:href="Texture_8hpp.html" target="_top" xlink:title="Engine/Renderer/Texture\l/Texture.hpp">
<polygon fill="#ffffff" stroke="#000000" points="426.5,-302.5 426.5,-332.5 561.5,-332.5 561.5,-302.5 426.5,-302.5"/>
<text text-anchor="start" x="434.5" y="-320.5" font-family="Helvetica,sans-Serif" font-size="10.00" fill="#000000">Engine/Renderer/Texture</text>
<text text-anchor="middle" x="494" y="-309.5" font-family="Helvetica,sans-Serif" font-size="10.00" fill="#000000">/Texture.hpp</text>
</a>
</g>
</g>
<!-- Node0&#45;&gt;Node16 -->
<g id="edge17" class="edge">
<title>Node0&#45;&gt;Node16</title>
<path fill="none" stroke="#191970" d="M531.1081,-369.2967C525.0937,-360.9016 517.4951,-350.2952 510.7426,-340.8698"/>
<polygon fill="#191970" stroke="#191970" points="513.5179,-338.734 504.8488,-332.6432 507.8275,-342.8107 513.5179,-338.734"/>
</g>
<!-- Node2 -->
<g id="node3" class="node">
<title>Node2</title>
<g id="a_node3"><a xlink:href="CoreMacros_8hpp.html" target="_top" xlink:title="Core/CoreMacros.hpp">
<polygon fill="#ffffff" stroke="#000000" points="104,-56.5 104,-75.5 224,-75.5 224,-56.5 104,-56.5"/>
<text text-anchor="middle" x="164" y="-63.5" font-family="Helvetica,sans-Serif" font-size="10.00" fill="#000000">Core/CoreMacros.hpp</text>
</a>
</g>
</g>
<!-- Node1&#45;&gt;Node2 -->
<g id="edge2" class="edge">
<title>Node1&#45;&gt;Node2</title>
<path fill="none" stroke="#191970" d="M111.2659,-240.8121C102.847,-217.3249 84.7178,-156.0421 106,-112 112.2828,-98.9981 124.2235,-88.5481 135.6451,-80.9145"/>
<polygon fill="#191970" stroke="#191970" points="137.5177,-83.8718 144.1759,-75.6305 133.8316,-77.9209 137.5177,-83.8718"/>
</g>
<!-- Node3 -->
<g id="node4" class="node">
<title>Node3</title>
<polygon fill="#ffffff" stroke="#bfbfbf" points="0,-.5 0,-19.5 52,-19.5 52,-.5 0,-.5"/>
<text text-anchor="middle" x="26" y="-7.5" font-family="Helvetica,sans-Serif" font-size="10.00" fill="#000000">cassert</text>
</g>
<!-- Node2&#45;&gt;Node3 -->
<g id="edge3" class="edge">
<title>Node2&#45;&gt;Node3</title>
<path fill="none" stroke="#191970" d="M140.277,-56.3733C117.8263,-47.2629 83.9261,-33.5062 58.8745,-23.3404"/>
<polygon fill="#191970" stroke="#191970" points="59.9957,-20.0182 49.4135,-19.5011 57.3635,-26.5045 59.9957,-20.0182"/>
</g>
<!-- Node4 -->
<g id="node5" class="node">
<title>Node4</title>
<polygon fill="#ffffff" stroke="#bfbfbf" points="70,-.5 70,-19.5 116,-19.5 116,-.5 70,-.5"/>
<text text-anchor="middle" x="93" y="-7.5" font-family="Helvetica,sans-Serif" font-size="10.00" fill="#000000">cstdio</text>
</g>
<!-- Node2&#45;&gt;Node4 -->
<g id="edge4" class="edge">
<title>Node2&#45;&gt;Node4</title>
<path fill="none" stroke="#191970" d="M151.6327,-56.2455C141.0446,-47.8943 125.5936,-35.7076 113.2107,-25.9408"/>
<polygon fill="#191970" stroke="#191970" points="115.2447,-23.0875 105.2255,-19.6427 110.9097,-28.5837 115.2447,-23.0875"/>
</g>
<!-- Node5 -->
<g id="node6" class="node">
<title>Node5</title>
<polygon fill="#ffffff" stroke="#bfbfbf" points="134,-.5 134,-19.5 194,-19.5 194,-.5 134,-.5"/>
<text text-anchor="middle" x="164" y="-7.5" font-family="Helvetica,sans-Serif" font-size="10.00" fill="#000000">iostream</text>
</g>
<!-- Node2&#45;&gt;Node5 -->
<g id="edge5" class="edge">
<title>Node2&#45;&gt;Node5</title>
<path fill="none" stroke="#191970" d="M164,-56.2455C164,-48.9382 164,-38.6944 164,-29.7046"/>
<polygon fill="#191970" stroke="#191970" points="167.5001,-29.6426 164,-19.6427 160.5001,-29.6427 167.5001,-29.6426"/>
</g>
<!-- Node6 -->
<g id="node7" class="node">
<title>Node6</title>
<polygon fill="#ffffff" stroke="#bfbfbf" points="212,-.5 212,-19.5 268,-19.5 268,-.5 212,-.5"/>
<text text-anchor="middle" x="240" y="-7.5" font-family="Helvetica,sans-Serif" font-size="10.00" fill="#000000">sstream</text>
</g>
<!-- Node2&#45;&gt;Node6 -->
<g id="edge6" class="edge">
<title>Node2&#45;&gt;Node6</title>
<path fill="none" stroke="#191970" d="M177.2382,-56.2455C188.681,-47.814 205.4296,-35.4729 218.7475,-25.6598"/>
<polygon fill="#191970" stroke="#191970" points="220.9391,-28.3924 226.9135,-19.6427 216.7867,-22.757 220.9391,-28.3924"/>
</g>
<!-- Node7 -->
<g id="node8" class="node">
<title>Node7</title>
<polygon fill="#ffffff" stroke="#bfbfbf" points="286,-.5 286,-19.5 334,-19.5 334,-.5 286,-.5"/>
<text text-anchor="middle" x="310" y="-7.5" font-family="Helvetica,sans-Serif" font-size="10.00" fill="#000000">thread</text>
</g>
<!-- Node2&#45;&gt;Node7 -->
<g id="edge7" class="edge">
<title>Node2&#45;&gt;Node7</title>
<path fill="none" stroke="#191970" d="M189.0983,-56.3733C213.1001,-47.1671 249.4713,-33.2165 276.0524,-23.021"/>
<polygon fill="#191970" stroke="#191970" points="277.631,-26.1642 285.7144,-19.315 275.1242,-19.6285 277.631,-26.1642"/>
</g>
<!-- Node11 -->
<g id="node12" class="node">
<title>Node11</title>
<g id="a_node12"><a xlink:href="RaCore_8hpp.html" target="_top" xlink:title="Core/RaCore.hpp">
<polygon fill="#ffffff" stroke="#000000" points="115,-112.5 115,-131.5 213,-131.5 213,-112.5 115,-112.5"/>
<text text-anchor="middle" x="164" y="-119.5" font-family="Helvetica,sans-Serif" font-size="10.00" fill="#000000">Core/RaCore.hpp</text>
</a>
</g>
</g>
<!-- Node10&#45;&gt;Node11 -->
<g id="edge11" class="edge">
<title>Node10&#45;&gt;Node11</title>
<path fill="none" stroke="#191970" d="M297.0574,-307.8051C274.9447,-276.9263 205.9212,-180.54 176.9775,-140.1222"/>
<polygon fill="#191970" stroke="#191970" points="179.6524,-137.8459 170.9845,-131.7534 173.9612,-141.9215 179.6524,-137.8459"/>
</g>
<!-- Node11&#45;&gt;Node2 -->
<g id="edge12" class="edge">
<title>Node11&#45;&gt;Node2</title>
<path fill="none" stroke="#191970" d="M164,-112.2455C164,-104.9382 164,-94.6944 164,-85.7046"/>
<polygon fill="#191970" stroke="#191970" points="167.5001,-85.6426 164,-75.6427 160.5001,-85.6427 167.5001,-85.6426"/>
</g>
<!-- Node13 -->
<g id="node14" class="node">
<title>Node13</title>
<polygon fill="#ffffff" stroke="#bfbfbf" points="674,-174 674,-193 802,-193 802,-174 674,-174"/>
<text text-anchor="middle" x="738" y="-181" font-family="Helvetica,sans-Serif" font-size="10.00" fill="#000000">glbinding/gl45core/gl.h</text>
</g>
<!-- Node12&#45;&gt;Node13 -->
<g id="edge14" class="edge">
<title>Node12&#45;&gt;Node13</title>
<path fill="none" stroke="#191970" d="M738,-235.2967C738,-225.7699 738,-213.3954 738,-203.1306"/>
<polygon fill="#191970" stroke="#191970" points="741.5001,-203.0549 738,-193.055 734.5001,-203.055 741.5001,-203.0549"/>
</g>
<!-- Node14 -->
<g id="node15" class="node">
<title>Node14</title>
<polygon fill="#ffffff" stroke="#bfbfbf" points="820,-174 820,-193 942,-193 942,-174 820,-174"/>
<text text-anchor="middle" x="881" y="-181" font-family="Helvetica,sans-Serif" font-size="10.00" fill="#000000">glbinding/gl45ext/gl.h</text>
</g>
<!-- Node12&#45;&gt;Node14 -->
<g id="edge15" class="edge">
<title>Node12&#45;&gt;Node14</title>
<path fill="none" stroke="#191970" d="M770.092,-235.4639C794.4098,-224.0702 827.5721,-208.5327 851.2862,-197.4219"/>
<polygon fill="#191970" stroke="#191970" points="852.9317,-200.5161 860.5021,-193.1039 849.9618,-194.1773 852.9317,-200.5161"/>
</g>
<!-- Node15 -->
<g id="node16" class="node">
<title>Node15</title>
<polygon fill="#ffffff" stroke="#bfbfbf" points="960.5,-168.5 960.5,-198.5 1073.5,-198.5 1073.5,-168.5 960.5,-168.5"/>
<text text-anchor="start" x="968.5" y="-186.5" font-family="Helvetica,sans-Serif" font-size="10.00" fill="#000000">glbinding&#45;aux/types</text>
<text text-anchor="middle" x="1017" y="-175.5" font-family="Helvetica,sans-Serif" font-size="10.00" fill="#000000">_to_string.h</text>
</g>
<!-- Node12&#45;&gt;Node15 -->
<g id="edge16" class="edge">
<title>Node12&#45;&gt;Node15</title>
<path fill="none" stroke="#191970" d="M800.613,-235.4639C845.2172,-224.7525 905.0726,-210.3786 950.5246,-199.4636"/>
<polygon fill="#191970" stroke="#191970" points="951.3791,-202.858 960.2854,-197.1196 949.7446,-196.0515 951.3791,-202.858"/>
</g>
<!-- Node16&#45;&gt;Node1 -->
<g id="edge18" class="edge">
<title>Node16&#45;&gt;Node1</title>
<path fill="none" stroke="#191970" d="M426.2424,-305.5217C356.2713,-293.1522 247.8978,-273.9938 179.246,-261.8575"/>
<polygon fill="#191970" stroke="#191970" points="179.4545,-258.3401 168.9979,-260.0458 178.2359,-265.2333 179.4545,-258.3401"/>
</g>
<!-- Node16&#45;&gt;Node9 -->
<g id="edge20" class="edge">
<title>Node16&#45;&gt;Node9</title>
<path fill="none" stroke="#191970" d="M515.7839,-302.2967C531.322,-291.4524 552.1471,-276.9182 567.7824,-266.006"/>
<polygon fill="#191970" stroke="#191970" points="570.1121,-268.6483 576.3093,-260.055 566.1058,-262.908 570.1121,-268.6483"/>
</g>
<!-- Node16&#45;&gt;Node12 -->
<g id="edge21" class="edge">
<title>Node16&#45;&gt;Node12</title>
<path fill="none" stroke="#191970" d="M548.7584,-302.4639C585.5178,-292.3701 634.1215,-279.024 672.8673,-268.3848"/>
<polygon fill="#191970" stroke="#191970" points="674.2865,-271.6247 683.0028,-265.6017 672.433,-264.8746 674.2865,-271.6247"/>
</g>
<!-- Node17 -->
<g id="node18" class="node">
<title>Node17</title>
<polygon fill="#ffffff" stroke="#bfbfbf" points="492,-241 492,-260 550,-260 550,-241 492,-241"/>
<text text-anchor="middle" x="521" y="-248" font-family="Helvetica,sans-Serif" font-size="10.00" fill="#000000">memory</text>
</g>
<!-- Node16&#45;&gt;Node17 -->
<g id="edge19" class="edge">
<title>Node16&#45;&gt;Node17</title>
<path fill="none" stroke="#191970" d="M500.1267,-302.2967C504.0475,-292.5672 509.1653,-279.8675 513.352,-269.4784"/>
<polygon fill="#191970" stroke="#191970" points="516.658,-270.6384 517.1495,-260.055 510.1653,-268.0219 516.658,-270.6384"/>
</g>
<!-- Node18 -->
<g id="node19" class="node">
<title>Node18</title>
<g id="a_node19"><a xlink:href="Color_8hpp.html" target="_top" xlink:title="Core/Utils/Color.hpp">
<polygon fill="#ffffff" stroke="#000000" points="360.5,-241 360.5,-260 473.5,-260 473.5,-241 360.5,-241"/>
<text text-anchor="middle" x="417" y="-248" font-family="Helvetica,sans-Serif" font-size="10.00" fill="#000000">Core/Utils/Color.hpp</text>
</a>
</g>
</g>
<!-- Node16&#45;&gt;Node18 -->
<g id="edge22" class="edge">
<title>Node16&#45;&gt;Node18</title>
<path fill="none" stroke="#191970" d="M476.5275,-302.2967C464.2976,-291.6551 447.9841,-277.4602 435.5279,-266.6217"/>
<polygon fill="#191970" stroke="#191970" points="437.8225,-263.9788 427.9811,-260.055 433.2276,-269.2596 437.8225,-263.9788"/>
</g>
<!-- Node18&#45;&gt;Node2 -->
<g id="edge23" class="edge">
<title>Node18&#45;&gt;Node2</title>
<path fill="none" stroke="#191970" d="M360.3903,-243.5872C327.6446,-236.9781 287.5895,-224.0896 260,-199 228.7835,-170.6121 247.7378,-145.4352 222,-112 212.7543,-99.9892 199.7177,-89.282 188.3453,-81.2265"/>
<polygon fill="#191970" stroke="#191970" points="190.3033,-78.3254 180.0635,-75.6056 186.3722,-84.1174 190.3033,-78.3254"/>
</g>
<!-- Node19 -->
<g id="node20" class="node">
<title>Node19</title>
<g id="a_node20"><a xlink:href="Math_8hpp.html" target="_top" xlink:title="Core/Math/Math.hpp">
<polygon fill="#ffffff" stroke="#000000" points="269,-174 269,-193 383,-193 383,-174 269,-174"/>
<text text-anchor="middle" x="326" y="-181" font-family="Helvetica,sans-Serif" font-size="10.00" fill="#000000">Core/Math/Math.hpp</text>
</a>
</g>
</g>
<!-- Node18&#45;&gt;Node19 -->
<g id="edge24" class="edge">
<title>Node18&#45;&gt;Node19</title>
<path fill="none" stroke="#191970" d="M403.9619,-240.9005C389.2307,-230.0544 365.0267,-212.2339 347.4908,-199.3229"/>
<polygon fill="#191970" stroke="#191970" points="349.1418,-196.1922 339.0139,-193.0817 344.9915,-201.8291 349.1418,-196.1922"/>
</g>
<!-- Node23 -->
<g id="node24" class="node">
<title>Node23</title>
<polygon fill="#ffffff" stroke="#bfbfbf" points="401.5,-174 401.5,-193 470.5,-193 470.5,-174 401.5,-174"/>
<text text-anchor="middle" x="436" y="-181" font-family="Helvetica,sans-Serif" font-size="10.00" fill="#000000">Eigen/Core</text>
</g>
<!-- Node18&#45;&gt;Node23 -->
<g id="edge30" class="edge">
<title>Node18&#45;&gt;Node23</title>
<path fill="none" stroke="#191970" d="M419.7222,-240.9005C422.5158,-231.0495 426.941,-215.4451 430.4727,-202.9912"/>
<polygon fill="#191970" stroke="#191970" points="433.9217,-203.6572 433.2828,-193.0817 427.1873,-201.7474 433.9217,-203.6572"/>
</g>
<!-- Node24 -->
<g id="node25" class="node">
<title>Node24</title>
<polygon fill="#ffffff" stroke="#bfbfbf" points="488.5,-174 488.5,-193 583.5,-193 583.5,-174 488.5,-174"/>
<text text-anchor="middle" x="536" y="-181" font-family="Helvetica,sans-Serif" font-size="10.00" fill="#000000">Eigen/Geometry</text>
</g>
<!-- Node18&#45;&gt;Node24 -->
<g id="edge31" class="edge">
<title>Node18&#45;&gt;Node24</title>
<path fill="none" stroke="#191970" d="M434.0498,-240.9005C453.9323,-229.7062 487.0105,-211.0823 510.078,-198.0947"/>
<polygon fill="#191970" stroke="#191970" points="511.9852,-201.0376 518.9818,-193.0817 508.5509,-194.938 511.9852,-201.0376"/>
</g>
<!-- Node25 -->
<g id="node26" class="node">
<title>Node25</title>
<polygon fill="#ffffff" stroke="#bfbfbf" points="602,-174 602,-193 656,-193 656,-174 602,-174"/>
<text text-anchor="middle" x="629" y="-181" font-family="Helvetica,sans-Serif" font-size="10.00" fill="#000000">random</text>
</g>
<!-- Node18&#45;&gt;Node25 -->
<g id="edge32" class="edge">
<title>Node18&#45;&gt;Node25</title>
<path fill="none" stroke="#191970" d="M453.9119,-240.9126C489.5915,-231.347 544.9991,-215.7031 592,-199 593.8703,-198.3353 595.7827,-197.6266 597.7047,-196.8917"/>
<polygon fill="#191970" stroke="#191970" points="599.254,-200.0419 607.2439,-193.0841 596.6589,-193.5407 599.254,-200.0419"/>
</g>
<!-- Node19&#45;&gt;Node11 -->
<g id="edge25" class="edge">
<title>Node19&#45;&gt;Node11</title>
<path fill="none" stroke="#191970" d="M300.6875,-173.8906C273.2253,-163.4652 229.2105,-146.7559 198.5737,-135.1252"/>
<polygon fill="#191970" stroke="#191970" points="199.726,-131.819 189.1348,-131.5419 197.2415,-138.3633 199.726,-131.819"/>
</g>
<!-- Node20 -->
<g id="node21" class="node">
<title>Node20</title>
<polygon fill="#ffffff" stroke="#bfbfbf" points="269,-112.5 269,-131.5 333,-131.5 333,-112.5 269,-112.5"/>
<text text-anchor="middle" x="301" y="-119.5" font-family="Helvetica,sans-Serif" font-size="10.00" fill="#000000">algorithm</text>
</g>
<!-- Node19&#45;&gt;Node20 -->
<g id="edge26" class="edge">
<title>Node19&#45;&gt;Node20</title>
<path fill="none" stroke="#191970" d="M322.0938,-173.8906C318.5554,-165.1862 313.2364,-152.1015 308.825,-141.2494"/>
<polygon fill="#191970" stroke="#191970" points="311.9695,-139.6907 304.9613,-131.7449 305.4848,-142.3268 311.9695,-139.6907"/>
</g>
<!-- Node21 -->
<g id="node22" class="node">
<title>Node21</title>
<polygon fill="#ffffff" stroke="#bfbfbf" points="351.5,-112.5 351.5,-131.5 398.5,-131.5 398.5,-112.5 351.5,-112.5"/>
<text text-anchor="middle" x="375" y="-119.5" font-family="Helvetica,sans-Serif" font-size="10.00" fill="#000000">cmath</text>
</g>
<!-- Node19&#45;&gt;Node21 -->
<g id="edge27" class="edge">
<title>Node19&#45;&gt;Node21</title>
<path fill="none" stroke="#191970" d="M333.6563,-173.8906C340.9489,-164.7376 352.1007,-150.7409 360.9852,-139.59"/>
<polygon fill="#191970" stroke="#191970" points="363.7417,-141.747 367.2358,-131.7449 358.267,-137.3849 363.7417,-141.747"/>
</g>
<!-- Node22 -->
<g id="node23" class="node">
<title>Node22</title>
<g id="a_node23"><a xlink:href="Math_8inl.html" target="_top" xlink:title="Core/Math/Math.inl">
<polygon fill="#ffffff" stroke="#000000" points="417,-112.5 417,-131.5 525,-131.5 525,-112.5 417,-112.5"/>
<text text-anchor="middle" x="471" y="-119.5" font-family="Helvetica,sans-Serif" font-size="10.00" fill="#000000">Core/Math/Math.inl</text>
</a>
</g>
</g>
<!-- Node19&#45;&gt;Node22 -->
<g id="edge28" class="edge">
<title>Node19&#45;&gt;Node22</title>
<path fill="none" stroke="#191970" d="M343.5938,-173.8906C366.0423,-163.5103 405.0016,-146.9004 434.0286,-135.2766"/>
<polygon fill="#191970" stroke="#191970" points="435.4462,-138.4797 443.4536,-131.5419 432.8674,-131.9719 435.4462,-138.4797"/>
</g>
<!-- Node22&#45;&gt;Node19 -->
<g id="edge29" class="edge">
<title>Node22&#45;&gt;Node19</title>
<path fill="none" stroke="#191970" d="M453.5521,-131.5419C431.1754,-141.8952 392.2304,-158.5023 363.1605,-170.1477"/>
<polygon fill="#191970" stroke="#191970" points="361.7251,-166.9517 353.7188,-173.8906 364.3048,-173.459 361.7251,-166.9517"/>
</g>
</g>
</svg>
        <g id="navigator" transform="translate(0 0)" fill="#404254">
                <rect fill="#f2f5e9" fill-opacity="0.5" stroke="#606060" stroke-width=".5" x="0" y="0" width="60" height="60"/>
                <use id="zoomplus" xlink:href="#zoomPlus" x="17" y="9" onmousedown="handleZoom(evt,'in')"/>
                <use id="zoomminus" xlink:href="#zoomMin" x="42" y="9" onmousedown="handleZoom(evt,'out')"/>
                <use id="reset" xlink:href="#resetDef" x="30" y="36" onmousedown="handleReset()"/>
                <g id="arrowUp" xlink:href="#dirArrow" transform="translate(30 24)" onmousedown="handlePan(0,-1)">
                  <use xlink:href="#rim" fill="#404040">
                        <set attributeName="fill" to="#808080" begin="arrowUp.mouseover" end="arrowUp.mouseout"/>
                  </use>
                  <path fill="none" stroke="white" stroke-width="1.5" d="M0,-3.0v7 M-2.5,-0.5L0,-3.0L2.5,-0.5"/>
                </g>
                <g id="arrowRight" xlink:href="#dirArrow" transform="rotate(90) translate(36 -43)" onmousedown="handlePan(1,0)">
                  <use xlink:href="#rim" fill="#404040">
                        <set attributeName="fill" to="#808080" begin="arrowRight.mouseover" end="arrowRight.mouseout"/>
                  </use>
                  <path fill="none" stroke="white" stroke-width="1.5" d="M0,-3.0v7 M-2.5,-0.5L0,-3.0L2.5,-0.5"/>
                </g>
                <g id="arrowDown" xlink:href="#dirArrow" transform="rotate(180) translate(-30 -48)" onmousedown="handlePan(0,1)">
                  <use xlink:href="#rim" fill="#404040">
                        <set attributeName="fill" to="#808080" begin="arrowDown.mouseover" end="arrowDown.mouseout"/>
                  </use>
                  <path fill="none" stroke="white" stroke-width="1.5" d="M0,-3.0v7 M-2.5,-0.5L0,-3.0L2.5,-0.5"/>
                </g>
                <g id="arrowLeft" xlink:href="#dirArrow" transform="rotate(270) translate(-36 17)" onmousedown="handlePan(-1,0)">
                  <use xlink:href="#rim" fill="#404040">
                        <set attributeName="fill" to="#808080" begin="arrowLeft.mouseover" end="arrowLeft.mouseout"/>
                  </use>
                  <path fill="none" stroke="white" stroke-width="1.5" d="M0,-3.0v7 M-2.5,-0.5L0,-3.0L2.5,-0.5"/>
                </g>
        </g>
        <svg viewBox="0 0 15 15" width="100%" height="30px" preserveAspectRatio="xMaxYMin meet">
         <g id="arrow_out" transform="scale(0.3 0.3)">
          <a xlink:href="TextureManager_8hpp__incl_org.svg" target="_base">
           <rect id="button" ry="5" rx="5" y="6" x="6" height="38" width="38"
                fill="#f2f5e9" fill-opacity="0.5" stroke="#606060" stroke-width="1.0"/>
           <path id="arrow"
             d="M 11.500037,31.436501 C 11.940474,20.09759 22.043105,11.32322 32.158766,21.979434 L 37.068811,17.246167 C 37.068811,17.246167 37.088388,32 37.088388,32 L 22.160133,31.978069 C 22.160133,31.978069 26.997745,27.140456 26.997745,27.140456 C 18.528582,18.264221 13.291696,25.230495 11.500037,31.436501 z"
             style="fill:#404040;"/>
          </a>
         </g>
        </svg>
</svg>
