<?xml version="1.0" encoding="UTF-8" standalone="no"?>
<!DOCTYPE svg PUBLIC "-//W3C//DTD SVG 1.1//EN"
 "http://www.w3.org/Graphics/SVG/1.1/DTD/svg11.dtd">
<!-- Generated by graphviz version 2.40.1 (20161225.0304)
 -->
<!-- Title: src/Core/Utils/Timer.hpp Pages: 1 -->
<svg width="1633pt" height="285pt"
 viewBox="0.00 0.00 1633.00 285.00" xmlns="http://www.w3.org/2000/svg" xmlns:xlink="http://www.w3.org/1999/xlink">
<g id="graph0" class="graph" transform="scale(1 1) rotate(0) translate(4 281)">
<title>src/Core/Utils/Timer.hpp</title>
<polygon fill="#ffffff" stroke="transparent" points="-4,4 -4,-281 1629,-281 1629,4 -4,4"/>
<!-- Node9 -->
<g id="node1" class="node">
<title>Node9</title>
<polygon fill="#bfbfbf" stroke="#000000" points="875.5,-257.5 875.5,-276.5 1009.5,-276.5 1009.5,-257.5 875.5,-257.5"/>
<text text-anchor="middle" x="942.5" y="-264.5" font-family="Helvetica,sans-Serif" font-size="10.00" fill="#000000">src/Core/Utils/Timer.hpp</text>
</g>
<!-- Node10 -->
<g id="node2" class="node">
<title>Node10</title>
<g id="a_node2"><a xlink:href="Normal_8cpp.html" target="_top" xlink:title="src/Core/Geometry/Normal.cpp">
<polygon fill="#ffffff" stroke="#000000" points="387,-196 387,-215 554,-215 554,-196 387,-196"/>
<text text-anchor="middle" x="470.5" y="-203" font-family="Helvetica,sans-Serif" font-size="10.00" fill="#000000">src/Core/Geometry/Normal.cpp</text>
</a>
</g>
</g>
<!-- Node9&#45;&gt;Node10 -->
<g id="edge1" class="edge">
<title>Node9&#45;&gt;Node10</title>
<path fill="none" stroke="#191970" d="M865.232,-258.638C788.5493,-250.1002 667.7253,-236.0029 563.5,-221 551.0248,-219.2042 537.6406,-217.0865 525.0228,-215.0028"/>
<polygon fill="#191970" stroke="#191970" points="864.9632,-262.1296 875.2882,-259.754 865.7353,-255.1723 864.9632,-262.1296"/>
</g>
<!-- Node11 -->
<g id="node3" class="node">
<title>Node11</title>
<g id="a_node3"><a xlink:href="TaskQueue_8hpp.html" target="_top" xlink:title="src/Core/Tasks/TaskQueue.hpp">
<polygon fill="#ffffff" stroke="#000000" points="572.5,-196 572.5,-215 736.5,-215 736.5,-196 572.5,-196"/>
<text text-anchor="middle" x="654.5" y="-203" font-family="Helvetica,sans-Serif" font-size="10.00" fill="#000000">src/Core/Tasks/TaskQueue.hpp</text>
</a>
</g>
</g>
<!-- Node9&#45;&gt;Node11 -->
<g id="edge2" class="edge">
<title>Node9&#45;&gt;Node11</title>
<path fill="none" stroke="#191970" d="M887.9577,-255.3529C833.3111,-243.6836 750.2015,-225.9363 699.2888,-215.0643"/>
<polygon fill="#191970" stroke="#191970" points="887.3055,-258.7925 897.816,-257.4581 888.7674,-251.9469 887.3055,-258.7925"/>
</g>
<!-- Node16 -->
<g id="node8" class="node">
<title>Node16</title>
<g id="a_node8"><a xlink:href="FrameTimerData_8hpp.html" target="_top" xlink:title="src/GuiBase/TimerData\l/FrameTimerData.hpp">
<polygon fill="#ffffff" stroke="#000000" points="809,-123.5 809,-153.5 938,-153.5 938,-123.5 809,-123.5"/>
<text text-anchor="start" x="817" y="-141.5" font-family="Helvetica,sans-Serif" font-size="10.00" fill="#000000">src/GuiBase/TimerData</text>
<text text-anchor="middle" x="873.5" y="-130.5" font-family="Helvetica,sans-Serif" font-size="10.00" fill="#000000">/FrameTimerData.hpp</text>
</a>
</g>
</g>
<!-- Node9&#45;&gt;Node16 -->
<g id="edge28" class="edge">
<title>Node9&#45;&gt;Node16</title>
<path fill="none" stroke="#191970" d="M932.4592,-248.3009C918.7239,-222.7213 894.3388,-177.3086 881.6627,-153.7016"/>
<polygon fill="#191970" stroke="#191970" points="929.4994,-250.1872 937.3138,-257.3416 935.6665,-246.8756 929.4994,-250.1872"/>
</g>
<!-- Node17 -->
<g id="node9" class="node">
<title>Node17</title>
<g id="a_node9"><a xlink:href="BaseApplication_8hpp.html" target="_top" xlink:title="src/GuiBase/BaseApplication.hpp">
<polygon fill="#ffffff" stroke="#000000" points="780,-62 780,-81 957,-81 957,-62 780,-62"/>
<text text-anchor="middle" x="868.5" y="-69" font-family="Helvetica,sans-Serif" font-size="10.00" fill="#000000">src/GuiBase/BaseApplication.hpp</text>
</a>
</g>
</g>
<!-- Node9&#45;&gt;Node17 -->
<g id="edge27" class="edge">
<title>Node9&#45;&gt;Node17</title>
<path fill="none" stroke="#191970" d="M949.1055,-247.3609C957.6528,-218.2433 969.0566,-162.7853 947.5,-123 936.5026,-102.703 913.6541,-89.1414 895.3454,-81.053"/>
<polygon fill="#191970" stroke="#191970" points="945.6906,-246.5543 946.0442,-257.1432 952.3711,-248.6449 945.6906,-246.5543"/>
</g>
<!-- Node20 -->
<g id="node12" class="node">
<title>Node20</title>
<g id="a_node12"><a xlink:href="Chronometer_8hpp.html" target="_top" xlink:title="src/Core/Utils/Chronometer.hpp">
<polygon fill="#ffffff" stroke="#000000" points="1213,-196 1213,-215 1382,-215 1382,-196 1213,-196"/>
<text text-anchor="middle" x="1297.5" y="-203" font-family="Helvetica,sans-Serif" font-size="10.00" fill="#000000">src/Core/Utils/Chronometer.hpp</text>
</a>
</g>
</g>
<!-- Node9&#45;&gt;Node20 -->
<g id="edge12" class="edge">
<title>Node9&#45;&gt;Node20</title>
<path fill="none" stroke="#191970" d="M1007.6613,-255.7115C1075.0799,-244.0319 1179.2078,-225.9929 1242.5836,-215.0137"/>
<polygon fill="#191970" stroke="#191970" points="1006.835,-252.3024 997.5792,-257.4581 1008.0299,-259.1997 1006.835,-252.3024"/>
</g>
<!-- Node21 -->
<g id="node13" class="node">
<title>Node21</title>
<g id="a_node13"><a xlink:href="Renderer_8hpp.html" target="_top" xlink:title="src/Engine/Renderer\l/Renderer.hpp">
<polygon fill="#ffffff" stroke="#000000" points="1082,-190.5 1082,-220.5 1195,-220.5 1195,-190.5 1082,-190.5"/>
<text text-anchor="start" x="1090" y="-208.5" font-family="Helvetica,sans-Serif" font-size="10.00" fill="#000000">src/Engine/Renderer</text>
<text text-anchor="middle" x="1138.5" y="-197.5" font-family="Helvetica,sans-Serif" font-size="10.00" fill="#000000">/Renderer.hpp</text>
</a>
</g>
</g>
<!-- Node9&#45;&gt;Node21 -->
<g id="edge13" class="edge">
<title>Node9&#45;&gt;Node21</title>
<path fill="none" stroke="#191970" d="M982.8199,-254.3486C1014.0841,-244.5386 1057.508,-230.9133 1090.553,-220.5446"/>
<polygon fill="#191970" stroke="#191970" points="981.6185,-251.0573 973.125,-257.3906 983.7142,-257.7362 981.6185,-251.0573"/>
</g>
<!-- Node12 -->
<g id="node4" class="node">
<title>Node12</title>
<g id="a_node4"><a xlink:href="TaskQueue_8cpp.html" target="_top" xlink:title="src/Core/Tasks/TaskQueue.cpp">
<polygon fill="#ffffff" stroke="#000000" points="628,-129 628,-148 791,-148 791,-129 628,-129"/>
<text text-anchor="middle" x="709.5" y="-136" font-family="Helvetica,sans-Serif" font-size="10.00" fill="#000000">src/Core/Tasks/TaskQueue.cpp</text>
</a>
</g>
</g>
<!-- Node11&#45;&gt;Node12 -->
<g id="edge3" class="edge">
<title>Node11&#45;&gt;Node12</title>
<path fill="none" stroke="#191970" d="M668.9899,-187.8486C679.4393,-175.1194 693.1454,-158.4229 701.6345,-148.0817"/>
<polygon fill="#191970" stroke="#191970" points="666.0199,-185.9505 662.3802,-195.9005 671.4304,-190.392 666.0199,-185.9505"/>
</g>
<!-- Node13 -->
<g id="node5" class="node">
<title>Node13</title>
<g id="a_node5"><a xlink:href="CameraManager_8cpp.html" target="_top" xlink:title="src/Engine/Managers\l/CameraManager/CameraManager.cpp">
<polygon fill="#ffffff" stroke="#000000" points="0,-123.5 0,-153.5 203,-153.5 203,-123.5 0,-123.5"/>
<text text-anchor="start" x="8" y="-141.5" font-family="Helvetica,sans-Serif" font-size="10.00" fill="#000000">src/Engine/Managers</text>
<text text-anchor="middle" x="101.5" y="-130.5" font-family="Helvetica,sans-Serif" font-size="10.00" fill="#000000">/CameraManager/CameraManager.cpp</text>
</a>
</g>
</g>
<!-- Node11&#45;&gt;Node13 -->
<g id="edge4" class="edge">
<title>Node11&#45;&gt;Node13</title>
<path fill="none" stroke="#191970" d="M591.5486,-194.3411C581.837,-192.7797 571.9109,-191.2754 562.5,-190 407.5403,-168.9992 367.7401,-172.8163 212.5,-154 209.4094,-153.6254 206.2715,-153.2371 203.1043,-152.8382"/>
<polygon fill="#191970" stroke="#191970" points="591.1265,-197.8185 601.5609,-195.9817 592.2585,-190.9106 591.1265,-197.8185"/>
</g>
<!-- Node14 -->
<g id="node6" class="node">
<title>Node14</title>
<g id="a_node6"><a xlink:href="LightManager_8cpp.html" target="_top" xlink:title="src/Engine/Managers\l/LightManager/LightManager.cpp">
<polygon fill="#ffffff" stroke="#000000" points="221.5,-123.5 221.5,-153.5 395.5,-153.5 395.5,-123.5 221.5,-123.5"/>
<text text-anchor="start" x="229.5" y="-141.5" font-family="Helvetica,sans-Serif" font-size="10.00" fill="#000000">src/Engine/Managers</text>
<text text-anchor="middle" x="308.5" y="-130.5" font-family="Helvetica,sans-Serif" font-size="10.00" fill="#000000">/LightManager/LightManager.cpp</text>
</a>
</g>
</g>
<!-- Node11&#45;&gt;Node14 -->
<g id="edge5" class="edge">
<title>Node11&#45;&gt;Node14</title>
<path fill="none" stroke="#191970" d="M595.2415,-194.0251C537.5463,-182.8529 449.5409,-165.8114 386.2485,-153.5553"/>
<polygon fill="#191970" stroke="#191970" points="594.811,-197.5067 605.2941,-195.9717 596.1419,-190.6343 594.811,-197.5067"/>
</g>
<!-- Node15 -->
<g id="node7" class="node">
<title>Node15</title>
<g id="a_node7"><a xlink:href="GeometrySystem_8cpp.html" target="_top" xlink:title="src/Engine/System/Geometry\lSystem.cpp">
<polygon fill="#ffffff" stroke="#000000" points="413.5,-123.5 413.5,-153.5 571.5,-153.5 571.5,-123.5 413.5,-123.5"/>
<text text-anchor="start" x="421.5" y="-141.5" font-family="Helvetica,sans-Serif" font-size="10.00" fill="#000000">src/Engine/System/Geometry</text>
<text text-anchor="middle" x="492.5" y="-130.5" font-family="Helvetica,sans-Serif" font-size="10.00" fill="#000000">System.cpp</text>
</a>
</g>
</g>
<!-- Node11&#45;&gt;Node15 -->
<g id="edge6" class="edge">
<title>Node11&#45;&gt;Node15</title>
<path fill="none" stroke="#191970" d="M621.9142,-192.0231C594.9725,-180.8806 556.743,-165.0696 528.8213,-153.5218"/>
<polygon fill="#191970" stroke="#191970" points="620.7108,-195.3129 631.2893,-195.9005 623.3861,-188.8443 620.7108,-195.3129"/>
</g>
<!-- Node11&#45;&gt;Node16 -->
<g id="edge7" class="edge">
<title>Node11&#45;&gt;Node16</title>
<path fill="none" stroke="#191970" d="M695.7081,-192.893C732.2427,-181.7157 785.6597,-165.3735 824.399,-153.5218"/>
<polygon fill="#191970" stroke="#191970" points="694.4159,-189.6281 685.8774,-195.9005 696.4638,-196.3218 694.4159,-189.6281"/>
</g>
<!-- Node18 -->
<g id="node10" class="node">
<title>Node18</title>
<g id="a_node10"><a xlink:href="BaseApplication_8cpp.html" target="_top" xlink:title="src/GuiBase/BaseApplication.cpp">
<polygon fill="#ffffff" stroke="#000000" points="780.5,-.5 780.5,-19.5 956.5,-19.5 956.5,-.5 780.5,-.5"/>
<text text-anchor="middle" x="868.5" y="-7.5" font-family="Helvetica,sans-Serif" font-size="10.00" fill="#000000">src/GuiBase/BaseApplication.cpp</text>
</a>
</g>
</g>
<!-- Node11&#45;&gt;Node18 -->
<g id="edge11" class="edge">
<title>Node11&#45;&gt;Node18</title>
<path fill="none" stroke="#191970" d="M638.3263,-188.1364C630.7193,-178.7779 622.4632,-166.5871 618.5,-154 612.0714,-133.5829 617.2593,-62.9757 623.5,-56 644.2401,-32.8174 718.9387,-21.1657 780.4583,-15.4049"/>
<polygon fill="#191970" stroke="#191970" points="635.8079,-190.5755 644.988,-195.8647 641.11,-186.0051 635.8079,-190.5755"/>
</g>
<!-- Node16&#45;&gt;Node17 -->
<g id="edge8" class="edge">
<title>Node16&#45;&gt;Node17</title>
<path fill="none" stroke="#191970" d="M871.606,-113.1199C870.7692,-101.9072 869.8361,-89.4031 869.2131,-81.055"/>
<polygon fill="#191970" stroke="#191970" points="868.1308,-113.5849 872.3654,-123.2967 875.1114,-113.0639 868.1308,-113.5849"/>
</g>
<!-- Node19 -->
<g id="node11" class="node">
<title>Node19</title>
<g id="a_node11"><a xlink:href="FrameTimerData_8cpp.html" target="_top" xlink:title="src/GuiBase/TimerData\l/FrameTimerData.cpp">
<polygon fill="#ffffff" stroke="#000000" points="633,-56.5 633,-86.5 762,-86.5 762,-56.5 633,-56.5"/>
<text text-anchor="start" x="641" y="-74.5" font-family="Helvetica,sans-Serif" font-size="10.00" fill="#000000">src/GuiBase/TimerData</text>
<text text-anchor="middle" x="697.5" y="-63.5" font-family="Helvetica,sans-Serif" font-size="10.00" fill="#000000">/FrameTimerData.cpp</text>
</a>
</g>
</g>
<!-- Node16&#45;&gt;Node19 -->
<g id="edge10" class="edge">
<title>Node16&#45;&gt;Node19</title>
<path fill="none" stroke="#191970" d="M824.5484,-119.865C796.9986,-109.3773 763.0441,-96.4515 737.1701,-86.6017"/>
<polygon fill="#191970" stroke="#191970" points="823.4112,-123.1771 834.0022,-123.4639 825.9017,-116.6351 823.4112,-123.1771"/>
</g>
<!-- Node17&#45;&gt;Node18 -->
<g id="edge9" class="edge">
<title>Node17&#45;&gt;Node18</title>
<path fill="none" stroke="#191970" d="M868.5,-51.7462C868.5,-41.0519 868.5,-28.314 868.5,-19.7449"/>
<polygon fill="#191970" stroke="#191970" points="865.0001,-51.8906 868.5,-61.8906 872.0001,-51.8907 865.0001,-51.8906"/>
</g>
<!-- Node21&#45;&gt;Node16 -->
<g id="edge18" class="edge">
<title>Node21&#45;&gt;Node16</title>
<path fill="none" stroke="#191970" d="M1072.2354,-188.7463C1029.5383,-177.9512 974.4876,-164.0327 933.157,-153.5831"/>
<polygon fill="#191970" stroke="#191970" points="1071.423,-192.151 1081.9759,-191.209 1073.1389,-185.3645 1071.423,-192.151"/>
</g>
<!-- Node22 -->
<g id="node14" class="node">
<title>Node22</title>
<g id="a_node14"><a xlink:href="Renderer_8cpp.html" target="_top" xlink:title="src/Engine/Renderer\l/Renderer.cpp">
<polygon fill="#ffffff" stroke="#000000" points="1510,-123.5 1510,-153.5 1623,-153.5 1623,-123.5 1510,-123.5"/>
<text text-anchor="start" x="1518" y="-141.5" font-family="Helvetica,sans-Serif" font-size="10.00" fill="#000000">src/Engine/Renderer</text>
<text text-anchor="middle" x="1566.5" y="-130.5" font-family="Helvetica,sans-Serif" font-size="10.00" fill="#000000">/Renderer.cpp</text>
</a>
</g>
</g>
<!-- Node21&#45;&gt;Node22 -->
<g id="edge14" class="edge">
<title>Node21&#45;&gt;Node22</title>
<path fill="none" stroke="#191970" d="M1205.3775,-189.9755C1337.1961,-167.2667 1373.8149,-176.8863 1501.5,-154 1504.2406,-153.5088 1507.0386,-152.9734 1509.8592,-152.4065"/>
<polygon fill="#191970" stroke="#191970" points="1204.5449,-186.568 1195.2994,-191.7421 1205.7536,-193.4629 1204.5449,-186.568"/>
</g>
<!-- Node23 -->
<g id="node15" class="node">
<title>Node23</title>
<g id="a_node15"><a xlink:href="ForwardRenderer_8hpp.html" target="_top" xlink:title="src/Engine/Renderer\l/Renderers/ForwardRenderer.hpp">
<polygon fill="#ffffff" stroke="#000000" points="994.5,-123.5 994.5,-153.5 1168.5,-153.5 1168.5,-123.5 994.5,-123.5"/>
<text text-anchor="start" x="1002.5" y="-141.5" font-family="Helvetica,sans-Serif" font-size="10.00" fill="#000000">src/Engine/Renderer</text>
<text text-anchor="middle" x="1081.5" y="-130.5" font-family="Helvetica,sans-Serif" font-size="10.00" fill="#000000">/Renderers/ForwardRenderer.hpp</text>
</a>
</g>
</g>
<!-- Node21&#45;&gt;Node23 -->
<g id="edge15" class="edge">
<title>Node21&#45;&gt;Node23</title>
<path fill="none" stroke="#191970" d="M1119.0506,-182.6385C1110.9063,-173.0653 1101.6616,-162.1987 1094.383,-153.6432"/>
<polygon fill="#191970" stroke="#191970" points="1116.4202,-184.948 1125.5658,-190.2967 1121.7518,-180.4121 1116.4202,-184.948"/>
</g>
<!-- Node25 -->
<g id="node17" class="node">
<title>Node25</title>
<g id="a_node17"><a xlink:href="Viewer_8cpp.html" target="_top" xlink:title="src/GuiBase/Viewer\l/Viewer.cpp">
<polygon fill="#ffffff" stroke="#000000" points="1166,-56.5 1166,-86.5 1277,-86.5 1277,-56.5 1166,-56.5"/>
<text text-anchor="start" x="1174" y="-74.5" font-family="Helvetica,sans-Serif" font-size="10.00" fill="#000000">src/GuiBase/Viewer</text>
<text text-anchor="middle" x="1221.5" y="-63.5" font-family="Helvetica,sans-Serif" font-size="10.00" fill="#000000">/Viewer.cpp</text>
</a>
</g>
</g>
<!-- Node21&#45;&gt;Node25 -->
<g id="edge26" class="edge">
<title>Node21&#45;&gt;Node25</title>
<path fill="none" stroke="#191970" d="M1157.4649,-182.0895C1164.1111,-173.4723 1171.4266,-163.4952 1177.5,-154 1192.0195,-131.3002 1206.2097,-103.3503 1214.3927,-86.5037"/>
<polygon fill="#191970" stroke="#191970" points="1154.5321,-180.1573 1151.1125,-190.1851 1160.0392,-184.4785 1154.5321,-180.1573"/>
</g>
<!-- Node26 -->
<g id="node18" class="node">
<title>Node26</title>
<g id="a_node18"><a xlink:href="Viewer_8hpp.html" target="_top" xlink:title="src/GuiBase/Viewer\l/Viewer.hpp">
<polygon fill="#ffffff" stroke="#000000" points="1381,-123.5 1381,-153.5 1492,-153.5 1492,-123.5 1381,-123.5"/>
<text text-anchor="start" x="1389" y="-141.5" font-family="Helvetica,sans-Serif" font-size="10.00" fill="#000000">src/GuiBase/Viewer</text>
<text text-anchor="middle" x="1436.5" y="-130.5" font-family="Helvetica,sans-Serif" font-size="10.00" fill="#000000">/Viewer.hpp</text>
</a>
</g>
</g>
<!-- Node21&#45;&gt;Node26 -->
<g id="edge19" class="edge">
<title>Node21&#45;&gt;Node26</title>
<path fill="none" stroke="#191970" d="M1204.9739,-189.9193C1280.2142,-173.0896 1300.4933,-170.1176 1371.5,-154 1374.5546,-153.3066 1377.6879,-152.5871 1380.8494,-151.8547"/>
<polygon fill="#191970" stroke="#191970" points="1204.0001,-186.5507 1195.01,-192.1568 1205.5339,-193.3806 1204.0001,-186.5507"/>
</g>
<!-- Node28 -->
<g id="node20" class="node">
<title>Node28</title>
<g id="a_node20"><a xlink:href="PickingManager_8hpp.html" target="_top" xlink:title="src/GuiBase/Utils/Picking\lManager.hpp">
<polygon fill="#ffffff" stroke="#000000" points="1224.5,-123.5 1224.5,-153.5 1362.5,-153.5 1362.5,-123.5 1224.5,-123.5"/>
<text text-anchor="start" x="1232.5" y="-141.5" font-family="Helvetica,sans-Serif" font-size="10.00" fill="#000000">src/GuiBase/Utils/Picking</text>
<text text-anchor="middle" x="1293.5" y="-130.5" font-family="Helvetica,sans-Serif" font-size="10.00" fill="#000000">Manager.hpp</text>
</a>
</g>
</g>
<!-- Node21&#45;&gt;Node28 -->
<g id="edge23" class="edge">
<title>Node21&#45;&gt;Node28</title>
<path fill="none" stroke="#191970" d="M1182.5672,-186.4516C1206.6556,-176.0392 1236.075,-163.3224 1258.5633,-153.6017"/>
<polygon fill="#191970" stroke="#191970" points="1181.0754,-183.2834 1173.285,-190.4639 1183.8529,-189.7088 1181.0754,-183.2834"/>
</g>
<!-- Node24 -->
<g id="node16" class="node">
<title>Node24</title>
<g id="a_node16"><a xlink:href="ForwardRenderer_8cpp.html" target="_top" xlink:title="src/Engine/Renderer\l/Renderers/ForwardRenderer.cpp">
<polygon fill="#ffffff" stroke="#000000" points="975,-56.5 975,-86.5 1148,-86.5 1148,-56.5 975,-56.5"/>
<text text-anchor="start" x="983" y="-74.5" font-family="Helvetica,sans-Serif" font-size="10.00" fill="#000000">src/Engine/Renderer</text>
<text text-anchor="middle" x="1061.5" y="-63.5" font-family="Helvetica,sans-Serif" font-size="10.00" fill="#000000">/Renderers/ForwardRenderer.cpp</text>
</a>
</g>
</g>
<!-- Node23&#45;&gt;Node24 -->
<g id="edge16" class="edge">
<title>Node23&#45;&gt;Node24</title>
<path fill="none" stroke="#191970" d="M1074.0702,-113.6103C1071.3672,-104.5553 1068.3955,-94.5998 1066.0203,-86.6432"/>
<polygon fill="#191970" stroke="#191970" points="1070.7475,-114.7156 1076.9617,-123.2967 1077.455,-112.7133 1070.7475,-114.7156"/>
</g>
<!-- Node23&#45;&gt;Node25 -->
<g id="edge17" class="edge">
<title>Node23&#45;&gt;Node25</title>
<path fill="none" stroke="#191970" d="M1122.138,-119.0518C1143.6502,-108.7567 1169.681,-96.2991 1189.7017,-86.7177"/>
<polygon fill="#191970" stroke="#191970" points="1120.4281,-115.9899 1112.9187,-123.4639 1123.4499,-122.3041 1120.4281,-115.9899"/>
</g>
<!-- Node26&#45;&gt;Node18 -->
<g id="edge20" class="edge">
<title>Node26&#45;&gt;Node18</title>
<path fill="none" stroke="#191970" d="M1446.9602,-113.7766C1452.8603,-95.4941 1456.5538,-71.2251 1442.5,-56 1426.2789,-38.4269 1113.5339,-21.4208 956.668,-13.9546"/>
<polygon fill="#191970" stroke="#191970" points="1443.6539,-112.6278 1443.554,-123.2222 1450.2388,-115.0024 1443.6539,-112.6278"/>
</g>
<!-- Node26&#45;&gt;Node25 -->
<g id="edge22" class="edge">
<title>Node26&#45;&gt;Node25</title>
<path fill="none" stroke="#191970" d="M1378.4574,-120.4123C1344.4987,-109.8298 1302.1202,-96.6235 1269.9606,-86.6017"/>
<polygon fill="#191970" stroke="#191970" points="1377.6613,-123.8302 1388.2498,-123.4639 1379.744,-117.1471 1377.6613,-123.8302"/>
</g>
<!-- Node27 -->
<g id="node19" class="node">
<title>Node27</title>
<g id="a_node19"><a xlink:href="CameraManipulator_8cpp.html" target="_top" xlink:title="src/GuiBase/Viewer\l/CameraManipulator.cpp">
<polygon fill="#ffffff" stroke="#000000" points="1490,-56.5 1490,-86.5 1625,-86.5 1625,-56.5 1490,-56.5"/>
<text text-anchor="start" x="1498" y="-74.5" font-family="Helvetica,sans-Serif" font-size="10.00" fill="#000000">src/GuiBase/Viewer</text>
<text text-anchor="middle" x="1557.5" y="-63.5" font-family="Helvetica,sans-Serif" font-size="10.00" fill="#000000">/CameraManipulator.cpp</text>
</a>
</g>
</g>
<!-- Node26&#45;&gt;Node27 -->
<g id="edge21" class="edge">
<title>Node26&#45;&gt;Node27</title>
<path fill="none" stroke="#191970" d="M1472.6271,-118.4958C1491.0209,-108.3107 1513.0239,-96.1272 1530.0172,-86.7177"/>
<polygon fill="#191970" stroke="#191970" points="1470.7077,-115.5578 1463.6548,-123.4639 1474.0986,-121.6816 1470.7077,-115.5578"/>
</g>
<!-- Node28&#45;&gt;Node25 -->
<g id="edge25" class="edge">
<title>Node28&#45;&gt;Node25</title>
<path fill="none" stroke="#191970" d="M1269.548,-116.2113C1259.1129,-106.5009 1247.1512,-95.3698 1237.7733,-86.6432"/>
<polygon fill="#191970" stroke="#191970" points="1267.4571,-119.0466 1277.1621,-123.2967 1272.2257,-113.9221 1267.4571,-119.0466"/>
</g>
<!-- Node29 -->
<g id="node21" class="node">
<title>Node29</title>
<g id="a_node21"><a xlink:href="PickingManager_8cpp.html" target="_top" xlink:title="src/GuiBase/Utils/Picking\lManager.cpp">
<polygon fill="#ffffff" stroke="#000000" points="1295.5,-56.5 1295.5,-86.5 1433.5,-86.5 1433.5,-56.5 1295.5,-56.5"/>
<text text-anchor="start" x="1303.5" y="-74.5" font-family="Helvetica,sans-Serif" font-size="10.00" fill="#000000">src/GuiBase/Utils/Picking</text>
<text text-anchor="middle" x="1364.5" y="-63.5" font-family="Helvetica,sans-Serif" font-size="10.00" fill="#000000">Manager.cpp</text>
</a>
</g>
</g>
<!-- Node28&#45;&gt;Node29 -->
<g id="edge24" class="edge">
<title>Node28&#45;&gt;Node29</title>
<path fill="none" stroke="#191970" d="M1317.1194,-116.2113C1327.4095,-106.5009 1339.2051,-95.3698 1348.4528,-86.6432"/>
<polygon fill="#191970" stroke="#191970" points="1314.4819,-113.8879 1309.611,-123.2967 1319.2861,-118.979 1314.4819,-113.8879"/>
</g>
</g>
</svg>
