<?xml version="1.0" encoding="UTF-8" standalone="no"?>
<!DOCTYPE svg PUBLIC "-//W3C//DTD SVG 1.1//EN"
 "http://www.w3.org/Graphics/SVG/1.1/DTD/svg11.dtd">
<!-- Generated by graphviz version 2.40.1 (20161225.0304)
 -->
<!-- Title: src/GuiBase/Viewer/TrackballCameraManipulator.hpp Pages: 1 -->
<svg width="1565pt" height="442pt"
 viewBox="0.00 0.00 1564.50 442.00" xmlns="http://www.w3.org/2000/svg" xmlns:xlink="http://www.w3.org/1999/xlink">
<g id="graph0" class="graph" transform="scale(1 1) rotate(0) translate(4 438)">
<title>src/GuiBase/Viewer/TrackballCameraManipulator.hpp</title>
<polygon fill="#ffffff" stroke="transparent" points="-4,4 -4,-438 1560.5,-438 1560.5,4 -4,4"/>
<!-- Node0 -->
<g id="node1" class="node">
<title>Node0</title>
<polygon fill="#bfbfbf" stroke="#000000" points="837,-403.5 837,-433.5 1016,-433.5 1016,-403.5 837,-403.5"/>
<text text-anchor="start" x="845" y="-421.5" font-family="Helvetica,sans-Serif" font-size="10.00" fill="#000000">src/GuiBase/Viewer</text>
<text text-anchor="middle" x="926.5" y="-410.5" font-family="Helvetica,sans-Serif" font-size="10.00" fill="#000000">/TrackballCameraManipulator.hpp</text>
</g>
<!-- Node1 -->
<g id="node2" class="node">
<title>Node1</title>
<g id="a_node2"><a xlink:href="RaGuiBase_8hpp.html" target="_top" xlink:title="GuiBase/RaGuiBase.hpp">
<polygon fill="#ffffff" stroke="#000000" points="1422.5,-224.5 1422.5,-243.5 1556.5,-243.5 1556.5,-224.5 1422.5,-224.5"/>
<text text-anchor="middle" x="1489.5" y="-231.5" font-family="Helvetica,sans-Serif" font-size="10.00" fill="#000000">GuiBase/RaGuiBase.hpp</text>
</a>
</g>
</g>
<!-- Node0&#45;&gt;Node1 -->
<g id="edge1" class="edge">
<title>Node0&#45;&gt;Node1</title>
<path fill="none" stroke="#191970" d="M972.5727,-403.4016C1080.8606,-367.9147 1350.002,-279.7147 1450.6761,-246.7229"/>
<polygon fill="#191970" stroke="#191970" points="1452.0264,-249.9637 1460.4392,-243.5235 1449.8464,-243.3117 1452.0264,-249.9637"/>
</g>
<!-- Node8 -->
<g id="node9" class="node">
<title>Node8</title>
<g id="a_node9"><a xlink:href="CameraManipulator_8hpp.html" target="_top" xlink:title="GuiBase/Viewer/CameraManipulator.hpp">
<polygon fill="#ffffff" stroke="#000000" points="672,-347.5 672,-366.5 885,-366.5 885,-347.5 672,-347.5"/>
<text text-anchor="middle" x="778.5" y="-354.5" font-family="Helvetica,sans-Serif" font-size="10.00" fill="#000000">GuiBase/Viewer/CameraManipulator.hpp</text>
</a>
</g>
</g>
<!-- Node0&#45;&gt;Node8 -->
<g id="edge8" class="edge">
<title>Node0&#45;&gt;Node8</title>
<path fill="none" stroke="#191970" d="M890.2951,-403.4554C866.0342,-393.374 834.3644,-380.2139 810.9288,-370.4755"/>
<polygon fill="#191970" stroke="#191970" points="812.0123,-367.1356 801.4347,-366.5303 809.3261,-373.5997 812.0123,-367.1356"/>
</g>
<!-- Node2 -->
<g id="node3" class="node">
<title>Node2</title>
<g id="a_node3"><a xlink:href="CoreMacros_8hpp.html" target="_top" xlink:title="Core/CoreMacros.hpp">
<polygon fill="#ffffff" stroke="#000000" points="619.5,-56.5 619.5,-75.5 739.5,-75.5 739.5,-56.5 619.5,-56.5"/>
<text text-anchor="middle" x="679.5" y="-63.5" font-family="Helvetica,sans-Serif" font-size="10.00" fill="#000000">Core/CoreMacros.hpp</text>
</a>
</g>
</g>
<!-- Node1&#45;&gt;Node2 -->
<g id="edge2" class="edge">
<title>Node1&#45;&gt;Node2</title>
<path fill="none" stroke="#191970" d="M1454.1684,-224.4801C1371.5887,-202.4646 1159.2991,-147.2274 979.5,-112 901.2903,-96.6766 810.7757,-83.4028 749.7968,-75.1056"/>
<polygon fill="#191970" stroke="#191970" points="749.8971,-71.5874 739.5184,-73.7162 748.9593,-78.5243 749.8971,-71.5874"/>
</g>
<!-- Node3 -->
<g id="node4" class="node">
<title>Node3</title>
<polygon fill="#ffffff" stroke="#bfbfbf" points="757.5,-.5 757.5,-19.5 809.5,-19.5 809.5,-.5 757.5,-.5"/>
<text text-anchor="middle" x="783.5" y="-7.5" font-family="Helvetica,sans-Serif" font-size="10.00" fill="#000000">cassert</text>
</g>
<!-- Node2&#45;&gt;Node3 -->
<g id="edge3" class="edge">
<title>Node2&#45;&gt;Node3</title>
<path fill="none" stroke="#191970" d="M697.6154,-56.2455C713.945,-47.4527 738.171,-34.4079 756.7339,-24.4125"/>
<polygon fill="#191970" stroke="#191970" points="758.4468,-27.4654 765.5922,-19.6427 755.1281,-21.3021 758.4468,-27.4654"/>
</g>
<!-- Node4 -->
<g id="node5" class="node">
<title>Node4</title>
<polygon fill="#ffffff" stroke="#bfbfbf" points="549.5,-.5 549.5,-19.5 595.5,-19.5 595.5,-.5 549.5,-.5"/>
<text text-anchor="middle" x="572.5" y="-7.5" font-family="Helvetica,sans-Serif" font-size="10.00" fill="#000000">cstdio</text>
</g>
<!-- Node2&#45;&gt;Node4 -->
<g id="edge4" class="edge">
<title>Node2&#45;&gt;Node4</title>
<path fill="none" stroke="#191970" d="M660.862,-56.2455C644.0614,-47.4527 619.1366,-34.4079 600.0382,-24.4125"/>
<polygon fill="#191970" stroke="#191970" points="601.4073,-21.1787 590.9244,-19.6427 598.1614,-27.3807 601.4073,-21.1787"/>
</g>
<!-- Node5 -->
<g id="node6" class="node">
<title>Node5</title>
<polygon fill="#ffffff" stroke="#bfbfbf" points="613.5,-.5 613.5,-19.5 673.5,-19.5 673.5,-.5 613.5,-.5"/>
<text text-anchor="middle" x="643.5" y="-7.5" font-family="Helvetica,sans-Serif" font-size="10.00" fill="#000000">iostream</text>
</g>
<!-- Node2&#45;&gt;Node5 -->
<g id="edge5" class="edge">
<title>Node2&#45;&gt;Node5</title>
<path fill="none" stroke="#191970" d="M673.2293,-56.2455C668.2736,-48.5367 661.217,-37.5598 655.2224,-28.2348"/>
<polygon fill="#191970" stroke="#191970" points="658.0506,-26.1618 649.6989,-19.6427 652.1624,-29.9471 658.0506,-26.1618"/>
</g>
<!-- Node6 -->
<g id="node7" class="node">
<title>Node6</title>
<polygon fill="#ffffff" stroke="#bfbfbf" points="899.5,-.5 899.5,-19.5 955.5,-19.5 955.5,-.5 899.5,-.5"/>
<text text-anchor="middle" x="927.5" y="-7.5" font-family="Helvetica,sans-Serif" font-size="10.00" fill="#000000">sstream</text>
</g>
<!-- Node2&#45;&gt;Node6 -->
<g id="edge6" class="edge">
<title>Node2&#45;&gt;Node6</title>
<path fill="none" stroke="#191970" d="M721.8509,-56.4369C768.8255,-45.8297 843.9418,-28.868 889.2134,-18.6454"/>
<polygon fill="#191970" stroke="#191970" points="890.2386,-22.0021 899.222,-16.3853 888.6967,-15.174 890.2386,-22.0021"/>
</g>
<!-- Node7 -->
<g id="node8" class="node">
<title>Node7</title>
<polygon fill="#ffffff" stroke="#bfbfbf" points="691.5,-.5 691.5,-19.5 739.5,-19.5 739.5,-.5 691.5,-.5"/>
<text text-anchor="middle" x="715.5" y="-7.5" font-family="Helvetica,sans-Serif" font-size="10.00" fill="#000000">thread</text>
</g>
<!-- Node2&#45;&gt;Node7 -->
<g id="edge7" class="edge">
<title>Node2&#45;&gt;Node7</title>
<path fill="none" stroke="#191970" d="M685.7707,-56.2455C690.7264,-48.5367 697.783,-37.5598 703.7776,-28.2348"/>
<polygon fill="#191970" stroke="#191970" points="706.8376,-29.9471 709.3011,-19.6427 700.9494,-26.1618 706.8376,-29.9471"/>
</g>
<!-- Node8&#45;&gt;Node1 -->
<g id="edge9" class="edge">
<title>Node8&#45;&gt;Node1</title>
<path fill="none" stroke="#191970" d="M842.0878,-347.4604C901.2909,-338.4654 991.9613,-324.4006 1070.5,-311 1198.798,-289.1093 1348.6963,-260.9302 1429.8763,-245.4516"/>
<polygon fill="#191970" stroke="#191970" points="1430.7419,-248.8496 1439.9083,-243.5367 1429.4294,-241.9738 1430.7419,-248.8496"/>
</g>
<!-- Node8&#45;&gt;Node2 -->
<g id="edge14" class="edge">
<title>Node8&#45;&gt;Node2</title>
<path fill="none" stroke="#191970" d="M671.9606,-347.8216C544.3292,-333.8173 347.5,-301.3089 347.5,-234 347.5,-234 347.5,-234 347.5,-178 347.5,-123.2145 511.8647,-90.0765 609.2951,-75.2459"/>
<polygon fill="#191970" stroke="#191970" points="610.0041,-78.6789 619.3773,-73.74 608.97,-71.7557 610.0041,-78.6789"/>
</g>
<!-- Node9 -->
<g id="node10" class="node">
<title>Node9</title>
<polygon fill="#ffffff" stroke="#bfbfbf" points="528.5,-286 528.5,-305 586.5,-305 586.5,-286 528.5,-286"/>
<text text-anchor="middle" x="557.5" y="-293" font-family="Helvetica,sans-Serif" font-size="10.00" fill="#000000">memory</text>
</g>
<!-- Node8&#45;&gt;Node9 -->
<g id="edge10" class="edge">
<title>Node8&#45;&gt;Node9</title>
<path fill="none" stroke="#191970" d="M733.2477,-347.4947C695.9011,-339.2056 641.7269,-326.154 595.5,-311 593.3546,-310.2967 591.1581,-309.53 588.9561,-308.7265"/>
<polygon fill="#191970" stroke="#191970" points="589.997,-305.3768 579.4072,-305.0492 587.4813,-311.9092 589.997,-305.3768"/>
</g>
<!-- Node10 -->
<g id="node11" class="node">
<title>Node10</title>
<polygon fill="#ffffff" stroke="#bfbfbf" points="604.5,-286 604.5,-305 674.5,-305 674.5,-286 604.5,-286"/>
<text text-anchor="middle" x="639.5" y="-293" font-family="Helvetica,sans-Serif" font-size="10.00" fill="#000000">QKeyEvent</text>
</g>
<!-- Node8&#45;&gt;Node10 -->
<g id="edge11" class="edge">
<title>Node8&#45;&gt;Node10</title>
<path fill="none" stroke="#191970" d="M756.7813,-347.3906C733.626,-337.1457 696.7559,-320.8326 670.5409,-309.2339"/>
<polygon fill="#191970" stroke="#191970" points="671.6273,-305.8874 661.0662,-305.0419 668.795,-312.2888 671.6273,-305.8874"/>
</g>
<!-- Node11 -->
<g id="node12" class="node">
<title>Node11</title>
<polygon fill="#ffffff" stroke="#bfbfbf" points="693,-286 693,-305 776,-305 776,-286 693,-286"/>
<text text-anchor="middle" x="734.5" y="-293" font-family="Helvetica,sans-Serif" font-size="10.00" fill="#000000">QMouseEvent</text>
</g>
<!-- Node8&#45;&gt;Node11 -->
<g id="edge12" class="edge">
<title>Node8&#45;&gt;Node11</title>
<path fill="none" stroke="#191970" d="M771.625,-347.3906C765.1407,-338.3273 755.2586,-324.5149 747.3199,-313.4188"/>
<polygon fill="#191970" stroke="#191970" points="750.1371,-311.3412 741.4719,-305.2449 744.4441,-315.4143 750.1371,-311.3412"/>
</g>
<!-- Node12 -->
<g id="node13" class="node">
<title>Node12</title>
<polygon fill="#ffffff" stroke="#bfbfbf" points="794.5,-286 794.5,-305 850.5,-305 850.5,-286 794.5,-286"/>
<text text-anchor="middle" x="822.5" y="-293" font-family="Helvetica,sans-Serif" font-size="10.00" fill="#000000">QObject</text>
</g>
<!-- Node8&#45;&gt;Node12 -->
<g id="edge13" class="edge">
<title>Node8&#45;&gt;Node12</title>
<path fill="none" stroke="#191970" d="M785.375,-347.3906C791.8593,-338.3273 801.7414,-324.5149 809.6801,-313.4188"/>
<polygon fill="#191970" stroke="#191970" points="812.5559,-315.4143 815.5281,-305.2449 806.8629,-311.3412 812.5559,-315.4143"/>
</g>
<!-- Node13 -->
<g id="node14" class="node">
<title>Node13</title>
<g id="a_node14"><a xlink:href="Types_8hpp.html" target="_top" xlink:title="Core/Types.hpp">
<polygon fill="#ffffff" stroke="#000000" points="201,-286 201,-305 292,-305 292,-286 201,-286"/>
<text text-anchor="middle" x="246.5" y="-293" font-family="Helvetica,sans-Serif" font-size="10.00" fill="#000000">Core/Types.hpp</text>
</a>
</g>
</g>
<!-- Node8&#45;&gt;Node13 -->
<g id="edge15" class="edge">
<title>Node8&#45;&gt;Node13</title>
<path fill="none" stroke="#191970" d="M671.6855,-348.1728C581.3751,-340.1798 448.6763,-327.1907 333.5,-311 323.2533,-309.5596 312.367,-307.8023 301.8895,-305.9951"/>
<polygon fill="#191970" stroke="#191970" points="302.4586,-302.5415 292.0034,-304.2558 301.2457,-309.4356 302.4586,-302.5415"/>
</g>
<!-- Node18 -->
<g id="node19" class="node">
<title>Node18</title>
<g id="a_node19"><a xlink:href="Log_8hpp.html" target="_top" xlink:title="Core/Utils/Log.hpp">
<polygon fill="#ffffff" stroke="#000000" points="895.5,-168.5 895.5,-187.5 1001.5,-187.5 1001.5,-168.5 895.5,-168.5"/>
<text text-anchor="middle" x="948.5" y="-175.5" font-family="Helvetica,sans-Serif" font-size="10.00" fill="#000000">Core/Utils/Log.hpp</text>
</a>
</g>
</g>
<!-- Node8&#45;&gt;Node18 -->
<g id="edge21" class="edge">
<title>Node8&#45;&gt;Node18</title>
<path fill="none" stroke="#191970" d="M801.6503,-347.393C818.9447,-339.4259 842.4412,-326.8528 859.5,-311 896.2956,-276.8057 925.509,-224.5733 939.4973,-196.8364"/>
<polygon fill="#191970" stroke="#191970" points="942.6672,-198.3218 943.9478,-187.8046 936.3881,-195.2276 942.6672,-198.3218"/>
</g>
<!-- Node22 -->
<g id="node23" class="node">
<title>Node22</title>
<g id="a_node23"><a xlink:href="KeyMappingManager_8hpp.html" target="_top" xlink:title="GuiBase/Utils/KeyMapping\lManager.hpp">
<polygon fill="#ffffff" stroke="#000000" points="916,-280.5 916,-310.5 1061,-310.5 1061,-280.5 916,-280.5"/>
<text text-anchor="start" x="924" y="-298.5" font-family="Helvetica,sans-Serif" font-size="10.00" fill="#000000">GuiBase/Utils/KeyMapping</text>
<text text-anchor="middle" x="988.5" y="-287.5" font-family="Helvetica,sans-Serif" font-size="10.00" fill="#000000">Manager.hpp</text>
</a>
</g>
</g>
<!-- Node8&#45;&gt;Node22 -->
<g id="edge27" class="edge">
<title>Node8&#45;&gt;Node22</title>
<path fill="none" stroke="#191970" d="M811.3125,-347.3906C842.2334,-338.3352 889.3424,-324.539 927.2147,-313.4479"/>
<polygon fill="#191970" stroke="#191970" points="928.515,-316.7141 937.1282,-310.5446 926.5476,-309.9963 928.515,-316.7141"/>
</g>
<!-- Node14 -->
<g id="node15" class="node">
<title>Node14</title>
<g id="a_node15"><a xlink:href="RaCore_8hpp.html" target="_top" xlink:title="Core/RaCore.hpp">
<polygon fill="#ffffff" stroke="#000000" points="488.5,-112.5 488.5,-131.5 586.5,-131.5 586.5,-112.5 488.5,-112.5"/>
<text text-anchor="middle" x="537.5" y="-119.5" font-family="Helvetica,sans-Serif" font-size="10.00" fill="#000000">Core/RaCore.hpp</text>
</a>
</g>
</g>
<!-- Node13&#45;&gt;Node14 -->
<g id="edge16" class="edge">
<title>Node13&#45;&gt;Node14</title>
<path fill="none" stroke="#191970" d="M254.3929,-285.8346C276.509,-258.9704 339.2422,-184.3109 366.5,-168 400.5947,-147.5979 443.8476,-136.0716 478.3217,-129.6592"/>
<polygon fill="#191970" stroke="#191970" points="479.0172,-133.0906 488.2569,-127.9061 477.8008,-126.1971 479.0172,-133.0906"/>
</g>
<!-- Node15 -->
<g id="node16" class="node">
<title>Node15</title>
<polygon fill="#ffffff" stroke="#bfbfbf" points="212,-224.5 212,-243.5 281,-243.5 281,-224.5 212,-224.5"/>
<text text-anchor="middle" x="246.5" y="-231.5" font-family="Helvetica,sans-Serif" font-size="10.00" fill="#000000">Eigen/Core</text>
</g>
<!-- Node13&#45;&gt;Node15 -->
<g id="edge18" class="edge">
<title>Node13&#45;&gt;Node15</title>
<path fill="none" stroke="#191970" d="M246.5,-285.8906C246.5,-277.3657 246.5,-264.6392 246.5,-253.9235"/>
<polygon fill="#191970" stroke="#191970" points="250.0001,-253.7448 246.5,-243.7449 243.0001,-253.7449 250.0001,-253.7448"/>
</g>
<!-- Node16 -->
<g id="node17" class="node">
<title>Node16</title>
<polygon fill="#ffffff" stroke="#bfbfbf" points="0,-224.5 0,-243.5 95,-243.5 95,-224.5 0,-224.5"/>
<text text-anchor="middle" x="47.5" y="-231.5" font-family="Helvetica,sans-Serif" font-size="10.00" fill="#000000">Eigen/Geometry</text>
</g>
<!-- Node13&#45;&gt;Node16 -->
<g id="edge19" class="edge">
<title>Node13&#45;&gt;Node16</title>
<path fill="none" stroke="#191970" d="M215.4063,-285.8906C181.0876,-275.2846 125.7257,-258.1753 88.0302,-246.5257"/>
<polygon fill="#191970" stroke="#191970" points="88.963,-243.1507 78.3754,-243.5419 86.8961,-249.8386 88.963,-243.1507"/>
</g>
<!-- Node17 -->
<g id="node18" class="node">
<title>Node17</title>
<polygon fill="#ffffff" stroke="#bfbfbf" points="113.5,-224.5 113.5,-243.5 193.5,-243.5 193.5,-224.5 113.5,-224.5"/>
<text text-anchor="middle" x="153.5" y="-231.5" font-family="Helvetica,sans-Serif" font-size="10.00" fill="#000000">Eigen/Sparse</text>
</g>
<!-- Node13&#45;&gt;Node17 -->
<g id="edge20" class="edge">
<title>Node13&#45;&gt;Node17</title>
<path fill="none" stroke="#191970" d="M231.9688,-285.8906C217.0906,-276.0519 193.7496,-260.6167 176.3872,-249.1351"/>
<polygon fill="#191970" stroke="#191970" points="178.201,-246.1385 167.9292,-243.5419 174.3398,-251.9773 178.201,-246.1385"/>
</g>
<!-- Node14&#45;&gt;Node2 -->
<g id="edge17" class="edge">
<title>Node14&#45;&gt;Node2</title>
<path fill="none" stroke="#191970" d="M561.9107,-112.3733C585.1142,-103.2226 620.2038,-89.3844 646.0142,-79.2057"/>
<polygon fill="#191970" stroke="#191970" points="647.3892,-82.4258 655.4079,-75.5011 644.8211,-75.9139 647.3892,-82.4258"/>
</g>
<!-- Node18&#45;&gt;Node6 -->
<g id="edge24" class="edge">
<title>Node18&#45;&gt;Node6</title>
<path fill="none" stroke="#191970" d="M957.5741,-168.3243C965.0963,-159.5913 975.2231,-145.9994 979.5,-132 982.0971,-123.499 981.576,-120.6431 979.5,-112 971.92,-80.4425 952.8552,-47.6461 940.0395,-28.0292"/>
<polygon fill="#191970" stroke="#191970" points="942.8076,-25.8729 934.328,-19.5209 936.9956,-29.7744 942.8076,-25.8729"/>
</g>
<!-- Node18&#45;&gt;Node14 -->
<g id="edge22" class="edge">
<title>Node18&#45;&gt;Node14</title>
<path fill="none" stroke="#191970" d="M895.4157,-169.3347C892.4007,-168.8747 889.4127,-168.4268 886.5,-168 784.984,-153.1262 666.5236,-137.9779 597.0006,-129.3116"/>
<polygon fill="#191970" stroke="#191970" points="597.0451,-125.7903 586.6895,-128.0292 596.181,-132.7368 597.0451,-125.7903"/>
</g>
<!-- Node19 -->
<g id="node20" class="node">
<title>Node19</title>
<polygon fill="#ffffff" stroke="#bfbfbf" points="926.5,-112.5 926.5,-131.5 970.5,-131.5 970.5,-112.5 926.5,-112.5"/>
<text text-anchor="middle" x="948.5" y="-119.5" font-family="Helvetica,sans-Serif" font-size="10.00" fill="#000000">ctime</text>
</g>
<!-- Node18&#45;&gt;Node19 -->
<g id="edge23" class="edge">
<title>Node18&#45;&gt;Node19</title>
<path fill="none" stroke="#191970" d="M948.5,-168.2455C948.5,-160.9382 948.5,-150.6944 948.5,-141.7046"/>
<polygon fill="#191970" stroke="#191970" points="952.0001,-141.6426 948.5,-131.6427 945.0001,-141.6427 952.0001,-141.6426"/>
</g>
<!-- Node20 -->
<g id="node21" class="node">
<title>Node20</title>
<polygon fill="#ffffff" stroke="#bfbfbf" points="796.5,-112.5 796.5,-131.5 846.5,-131.5 846.5,-112.5 796.5,-112.5"/>
<text text-anchor="middle" x="821.5" y="-119.5" font-family="Helvetica,sans-Serif" font-size="10.00" fill="#000000">stdio.h</text>
</g>
<!-- Node18&#45;&gt;Node20 -->
<g id="edge25" class="edge">
<title>Node18&#45;&gt;Node20</title>
<path fill="none" stroke="#191970" d="M926.6679,-168.3733C906.1897,-159.3435 875.3601,-145.7494 852.3681,-135.6111"/>
<polygon fill="#191970" stroke="#191970" points="853.6093,-132.3333 843.0472,-131.5011 850.785,-138.7383 853.6093,-132.3333"/>
</g>
<!-- Node21 -->
<g id="node22" class="node">
<title>Node21</title>
<polygon fill="#ffffff" stroke="#bfbfbf" points="864.5,-112.5 864.5,-131.5 908.5,-131.5 908.5,-112.5 864.5,-112.5"/>
<text text-anchor="middle" x="886.5" y="-119.5" font-family="Helvetica,sans-Serif" font-size="10.00" fill="#000000">string</text>
</g>
<!-- Node18&#45;&gt;Node21 -->
<g id="edge26" class="edge">
<title>Node18&#45;&gt;Node21</title>
<path fill="none" stroke="#191970" d="M937.7004,-168.2455C928.6322,-160.0549 915.4794,-148.1749 904.7755,-138.5069"/>
<polygon fill="#191970" stroke="#191970" points="906.9429,-135.7482 897.1758,-131.6427 902.2509,-140.9429 906.9429,-135.7482"/>
</g>
<!-- Node22&#45;&gt;Node1 -->
<g id="edge32" class="edge">
<title>Node22&#45;&gt;Node1</title>
<path fill="none" stroke="#191970" d="M1061.0967,-286.9322C1143.581,-277.1457 1282.5266,-260.5037 1412.2494,-244.1486"/>
<polygon fill="#191970" stroke="#191970" points="1412.8853,-247.5962 1422.3681,-242.871 1412.0084,-240.6513 1412.8853,-247.5962"/>
</g>
<!-- Node22&#45;&gt;Node18 -->
<g id="edge38" class="edge">
<title>Node22&#45;&gt;Node18</title>
<path fill="none" stroke="#191970" d="M965.9732,-280.4495C954.5259,-271.397 941.7434,-258.7722 935.5,-244 929.1236,-228.9131 933.6356,-210.5476 939.0195,-197.0241"/>
<polygon fill="#191970" stroke="#191970" points="942.2736,-198.3203 943.1406,-187.761 935.8779,-195.4749 942.2736,-198.3203"/>
</g>
<!-- Node23 -->
<g id="node24" class="node">
<title>Node23</title>
<polygon fill="#ffffff" stroke="#bfbfbf" points="944.5,-224.5 944.5,-243.5 1052.5,-243.5 1052.5,-224.5 944.5,-224.5"/>
<text text-anchor="middle" x="998.5" y="-231.5" font-family="Helvetica,sans-Serif" font-size="10.00" fill="#000000">QXmlStreamWriter</text>
</g>
<!-- Node22&#45;&gt;Node23 -->
<g id="edge28" class="edge">
<title>Node22&#45;&gt;Node23</title>
<path fill="none" stroke="#191970" d="M990.9719,-280.2977C992.2733,-272.2945 993.8847,-262.3843 995.2823,-253.7889"/>
<polygon fill="#191970" stroke="#191970" points="998.7485,-254.2791 996.8989,-243.8469 991.8392,-253.1555 998.7485,-254.2791"/>
</g>
<!-- Node24 -->
<g id="node25" class="node">
<title>Node24</title>
<polygon fill="#ffffff" stroke="#bfbfbf" points="1071,-224.5 1071,-243.5 1172,-243.5 1172,-224.5 1071,-224.5"/>
<text text-anchor="middle" x="1121.5" y="-231.5" font-family="Helvetica,sans-Serif" font-size="10.00" fill="#000000">QtGui/QKeyEvent</text>
</g>
<!-- Node22&#45;&gt;Node24 -->
<g id="edge29" class="edge">
<title>Node22&#45;&gt;Node24</title>
<path fill="none" stroke="#191970" d="M1021.0355,-280.4554C1042.6429,-270.464 1070.7898,-257.4487 1091.792,-247.7372"/>
<polygon fill="#191970" stroke="#191970" points="1093.2821,-250.9043 1100.8897,-243.5303 1090.3441,-244.5506 1093.2821,-250.9043"/>
</g>
<!-- Node25 -->
<g id="node26" class="node">
<title>Node25</title>
<polygon fill="#ffffff" stroke="#bfbfbf" points="1190.5,-224.5 1190.5,-243.5 1304.5,-243.5 1304.5,-224.5 1190.5,-224.5"/>
<text text-anchor="middle" x="1247.5" y="-231.5" font-family="Helvetica,sans-Serif" font-size="10.00" fill="#000000">QtGui/QMouseEvent</text>
</g>
<!-- Node22&#45;&gt;Node25 -->
<g id="edge30" class="edge">
<title>Node22&#45;&gt;Node25</title>
<path fill="none" stroke="#191970" d="M1051.8585,-280.4554C1096.6844,-269.8114 1155.9631,-255.7356 1197.4761,-245.8783"/>
<polygon fill="#191970" stroke="#191970" points="1198.4433,-249.246 1207.3642,-243.5303 1196.8261,-242.4354 1198.4433,-249.246"/>
</g>
<!-- Node26 -->
<g id="node27" class="node">
<title>Node26</title>
<polygon fill="#ffffff" stroke="#bfbfbf" points="1323,-224.5 1323,-243.5 1404,-243.5 1404,-224.5 1323,-224.5"/>
<text text-anchor="middle" x="1363.5" y="-231.5" font-family="Helvetica,sans-Serif" font-size="10.00" fill="#000000">QtXml/QtXml</text>
</g>
<!-- Node22&#45;&gt;Node26 -->
<g id="edge31" class="edge">
<title>Node22&#45;&gt;Node26</title>
<path fill="none" stroke="#191970" d="M1061.2479,-284.8285C1124.8881,-275.2968 1220.065,-260.5695 1312.7472,-244.0783"/>
<polygon fill="#191970" stroke="#191970" points="1313.6391,-247.4744 1322.8669,-242.2688 1312.4069,-240.5837 1313.6391,-247.4744"/>
</g>
<!-- Node27 -->
<g id="node28" class="node">
<title>Node27</title>
<g id="a_node28"><a xlink:href="Index_8hpp.html" target="_top" xlink:title="Core/Utils/Index.hpp">
<polygon fill="#ffffff" stroke="#000000" points="562.5,-224.5 562.5,-243.5 678.5,-243.5 678.5,-224.5 562.5,-224.5"/>
<text text-anchor="middle" x="620.5" y="-231.5" font-family="Helvetica,sans-Serif" font-size="10.00" fill="#000000">Core/Utils/Index.hpp</text>
</a>
</g>
</g>
<!-- Node22&#45;&gt;Node27 -->
<g id="edge33" class="edge">
<title>Node22&#45;&gt;Node27</title>
<path fill="none" stroke="#191970" d="M915.795,-283.3496C849.3862,-272.2514 751.9955,-255.9755 687.455,-245.1895"/>
<polygon fill="#191970" stroke="#191970" points="687.8286,-241.7035 677.3884,-243.5072 686.6747,-248.6077 687.8286,-241.7035"/>
</g>
<!-- Node30 -->
<g id="node31" class="node">
<title>Node30</title>
<g id="a_node31"><a xlink:href="Observable_8hpp.html" target="_top" xlink:title="Core/Utils/Observable.hpp">
<polygon fill="#ffffff" stroke="#000000" points="706.5,-224.5 706.5,-243.5 850.5,-243.5 850.5,-224.5 706.5,-224.5"/>
<text text-anchor="middle" x="778.5" y="-231.5" font-family="Helvetica,sans-Serif" font-size="10.00" fill="#000000">Core/Utils/Observable.hpp</text>
</a>
</g>
</g>
<!-- Node22&#45;&gt;Node30 -->
<g id="edge39" class="edge">
<title>Node22&#45;&gt;Node30</title>
<path fill="none" stroke="#191970" d="M937.1282,-280.4554C901.4745,-270.0139 854.5439,-256.27 820.9968,-246.4455"/>
<polygon fill="#191970" stroke="#191970" points="821.6232,-242.982 811.0425,-243.5303 819.6558,-249.6998 821.6232,-242.982"/>
</g>
<!-- Node33 -->
<g id="node34" class="node">
<title>Node33</title>
<g id="a_node34"><a xlink:href="Singleton_8hpp.html" target="_top" xlink:title="Core/Utils/Singleton.hpp">
<polygon fill="#ffffff" stroke="#000000" points="375.5,-168.5 375.5,-187.5 509.5,-187.5 509.5,-168.5 375.5,-168.5"/>
<text text-anchor="middle" x="442.5" y="-175.5" font-family="Helvetica,sans-Serif" font-size="10.00" fill="#000000">Core/Utils/Singleton.hpp</text>
</a>
</g>
</g>
<!-- Node22&#45;&gt;Node33 -->
<g id="edge43" class="edge">
<title>Node22&#45;&gt;Node33</title>
<path fill="none" stroke="#191970" d="M915.8448,-286.7382C897.4616,-284.5301 877.7553,-282.1706 859.5,-280 723.5199,-263.8318 683.1917,-287.9554 553.5,-244 519.3138,-232.4135 484.2244,-209.2962 462.8892,-193.7343"/>
<polygon fill="#191970" stroke="#191970" points="464.7411,-190.7495 454.6304,-187.5832 460.5598,-196.3635 464.7411,-190.7495"/>
</g>
<!-- Node27&#45;&gt;Node14 -->
<g id="edge34" class="edge">
<title>Node27&#45;&gt;Node14</title>
<path fill="none" stroke="#191970" d="M600.6883,-224.3732C586.4214,-216.4728 567.7727,-203.9939 556.5,-188 546.852,-174.3112 542.0714,-155.7762 539.7215,-141.8332"/>
<polygon fill="#191970" stroke="#191970" points="543.1712,-141.2305 538.3114,-131.816 536.2395,-142.2063 543.1712,-141.2305"/>
</g>
<!-- Node28 -->
<g id="node29" class="node">
<title>Node28</title>
<polygon fill="#ffffff" stroke="#bfbfbf" points="693.5,-168.5 693.5,-187.5 737.5,-187.5 737.5,-168.5 693.5,-168.5"/>
<text text-anchor="middle" x="715.5" y="-175.5" font-family="Helvetica,sans-Serif" font-size="10.00" fill="#000000">limits</text>
</g>
<!-- Node27&#45;&gt;Node28 -->
<g id="edge35" class="edge">
<title>Node27&#45;&gt;Node28</title>
<path fill="none" stroke="#191970" d="M637.0477,-224.2455C651.7599,-215.5731 673.4888,-202.7645 690.3505,-192.825"/>
<polygon fill="#191970" stroke="#191970" points="692.3046,-195.736 699.1419,-187.6427 688.7498,-189.7057 692.3046,-195.736"/>
</g>
<!-- Node29 -->
<g id="node30" class="node">
<title>Node29</title>
<g id="a_node30"><a xlink:href="Index_8inl.html" target="_top" xlink:title="Core/Utils/Index.inl">
<polygon fill="#ffffff" stroke="#000000" points="565.5,-168.5 565.5,-187.5 675.5,-187.5 675.5,-168.5 565.5,-168.5"/>
<text text-anchor="middle" x="620.5" y="-175.5" font-family="Helvetica,sans-Serif" font-size="10.00" fill="#000000">Core/Utils/Index.inl</text>
</a>
</g>
</g>
<!-- Node27&#45;&gt;Node29 -->
<g id="edge36" class="edge">
<title>Node27&#45;&gt;Node29</title>
<path fill="none" stroke="#191970" d="M615.2332,-224.2455C613.8221,-216.9382 613.4179,-206.6944 614.0205,-197.7046"/>
<polygon fill="#191970" stroke="#191970" points="617.5111,-197.9945 615.2549,-187.6427 610.5632,-197.1421 617.5111,-197.9945"/>
</g>
<!-- Node29&#45;&gt;Node27 -->
<g id="edge37" class="edge">
<title>Node29&#45;&gt;Node27</title>
<path fill="none" stroke="#191970" d="M625.7451,-187.6427C627.1665,-194.9199 627.581,-205.155 626.9887,-214.1575"/>
<polygon fill="#191970" stroke="#191970" points="623.4947,-213.8972 625.7668,-224.2455 630.4439,-214.739 623.4947,-213.8972"/>
</g>
<!-- Node30&#45;&gt;Node18 -->
<g id="edge40" class="edge">
<title>Node30&#45;&gt;Node18</title>
<path fill="none" stroke="#191970" d="M807.724,-224.3733C835.9925,-215.0613 878.9965,-200.8953 910.0344,-190.671"/>
<polygon fill="#191970" stroke="#191970" points="911.2544,-193.9542 919.6573,-187.5011 909.0643,-187.3056 911.2544,-193.9542"/>
</g>
<!-- Node31 -->
<g id="node32" class="node">
<title>Node31</title>
<polygon fill="#ffffff" stroke="#bfbfbf" points="756,-168.5 756,-187.5 821,-187.5 821,-168.5 756,-168.5"/>
<text text-anchor="middle" x="788.5" y="-175.5" font-family="Helvetica,sans-Serif" font-size="10.00" fill="#000000">functional</text>
</g>
<!-- Node30&#45;&gt;Node31 -->
<g id="edge41" class="edge">
<title>Node30&#45;&gt;Node31</title>
<path fill="none" stroke="#191970" d="M780.2419,-224.2455C781.5467,-216.9382 783.376,-206.6944 784.9813,-197.7046"/>
<polygon fill="#191970" stroke="#191970" points="788.4656,-198.1022 786.7781,-187.6427 781.5746,-196.8717 788.4656,-198.1022"/>
</g>
<!-- Node32 -->
<g id="node33" class="node">
<title>Node32</title>
<polygon fill="#ffffff" stroke="#bfbfbf" points="839.5,-168.5 839.5,-187.5 877.5,-187.5 877.5,-168.5 839.5,-168.5"/>
<text text-anchor="middle" x="858.5" y="-175.5" font-family="Helvetica,sans-Serif" font-size="10.00" fill="#000000">map</text>
</g>
<!-- Node30&#45;&gt;Node32 -->
<g id="edge42" class="edge">
<title>Node30&#45;&gt;Node32</title>
<path fill="none" stroke="#191970" d="M792.4349,-224.2455C804.5947,-215.7337 822.4464,-203.2375 836.5285,-193.3801"/>
<polygon fill="#191970" stroke="#191970" points="838.5395,-196.2447 844.7248,-187.6427 834.5253,-190.51 838.5395,-196.2447"/>
</g>
<!-- Node33&#45;&gt;Node14 -->
<g id="edge44" class="edge">
<title>Node33&#45;&gt;Node14</title>
<path fill="none" stroke="#191970" d="M459.0477,-168.2455C473.7599,-159.5731 495.4888,-146.7645 512.3505,-136.825"/>
<polygon fill="#191970" stroke="#191970" points="514.3046,-139.736 521.1419,-131.6427 510.7498,-133.7057 514.3046,-139.736"/>
</g>
</g>
</svg>
