<?xml version="1.0" encoding="UTF-8" standalone="no"?>
<!DOCTYPE svg PUBLIC "-//W3C//DTD SVG 1.1//EN"
 "http://www.w3.org/Graphics/SVG/1.1/DTD/svg11.dtd">
<!-- Generated by graphviz version 2.40.1 (20161225.0304)
 -->
<!-- Title: src/GuiBase/TransformEditor/TransformEditor.cpp Pages: 1 -->
<!--zoomable 386 -->
<svg id="main" version="1.1" xmlns="http://www.w3.org/2000/svg" xmlns:xlink="http://www.w3.org/1999/xlink" xml:space="preserve" onload="init(evt)">
<style type="text/css"><![CDATA[
.edge:hover path { stroke: red; }
.edge:hover polygon { stroke: red; fill: red; }
]]></style>
<script type="text/javascript"><![CDATA[
var edges = document.getElementsByTagName('g');
if (edges && edges.length) {
  for (var i=0;i<edges.length;i++) {
    if (edges[i].id.substr(0,4)=='edge') {
      edges[i].setAttribute('class','edge');
    }
  }
}
]]></script>
        <defs>
                <circle id="rim" cx="0" cy="0" r="7"/>
                <circle id="rim2" cx="0" cy="0" r="3.5"/>
                <g id="zoomPlus">
                        <use xlink:href="#rim" fill="#404040">
                                <set attributeName="fill" to="#808080" begin="zoomplus.mouseover" end="zoomplus.mouseout"/>
                        </use>
                        <path d="M-4,0h8M0,-4v8" fill="none" stroke="white" stroke-width="1.5" pointer-events="none"/>
                </g>
                <g id="zoomMin">
                        <use xlink:href="#rim" fill="#404040">
                                <set attributeName="fill" to="#808080" begin="zoomminus.mouseover" end="zoomminus.mouseout"/>
                        </use>
                        <path d="M-4,0h8" fill="none" stroke="white" stroke-width="1.5" pointer-events="none"/>
                </g>
                <g id="dirArrow">
                        <path fill="none" stroke="white" stroke-width="1.5" d="M0,-3.0v7 M-2.5,-0.5L0,-3.0L2.5,-0.5"/>
                </g>
               <g id="resetDef">
                       <use xlink:href="#rim2" fill="#404040">
                               <set attributeName="fill" to="#808080" begin="reset.mouseover" end="reset.mouseout"/>
                       </use>
               </g>
        </defs>

<script type="text/javascript">
var viewWidth = 1173;
var viewHeight = 386;
var sectionId = 'dynsection-0';
</script>
<script xlink:href="svgpan.js"/>
<svg id="graph" class="graph">
<g id="viewport">
<title>src/GuiBase/TransformEditor/TransformEditor.cpp</title>
<polygon fill="#ffffff" stroke="transparent" points="-4,4 -4,-382 1169.1772,-382 1169.1772,4 -4,4"/>
<!-- Node0 -->
<g id="node1" class="node">
<title>Node0</title>
<polygon fill="#bfbfbf" stroke="#000000" points="316.5,-347.5 316.5,-377.5 471.5,-377.5 471.5,-347.5 316.5,-347.5"/>
<text text-anchor="start" x="324.5" y="-365.5" font-family="Helvetica,sans-Serif" font-size="10.00" fill="#000000">src/GuiBase/TransformEditor</text>
<text text-anchor="middle" x="394" y="-354.5" font-family="Helvetica,sans-Serif" font-size="10.00" fill="#000000">/TransformEditor.cpp</text>
</g>
<!-- Node1 -->
<g id="node2" class="node">
<title>Node1</title>
<g id="a_node2"><a xlink:href="TransformEditor_8hpp.html" target="_top" xlink:title="GuiBase/TransformEditor\l/TransformEditor.hpp">
<polygon fill="#ffffff" stroke="#000000" points="325.5,-280.5 325.5,-310.5 462.5,-310.5 462.5,-280.5 325.5,-280.5"/>
<text text-anchor="start" x="333.5" y="-298.5" font-family="Helvetica,sans-Serif" font-size="10.00" fill="#000000">GuiBase/TransformEditor</text>
<text text-anchor="middle" x="394" y="-287.5" font-family="Helvetica,sans-Serif" font-size="10.00" fill="#000000">/TransformEditor.hpp</text>
</a>
</g>
</g>
<!-- Node0&#45;&gt;Node1 -->
<g id="edge1" class="edge">
<title>Node0&#45;&gt;Node1</title>
<path fill="none" stroke="#191970" d="M394,-347.2967C394,-339.5013 394,-329.7991 394,-320.9064"/>
<polygon fill="#191970" stroke="#191970" points="397.5001,-320.6431 394,-310.6432 390.5001,-320.6432 397.5001,-320.6431"/>
</g>
<!-- Node22 -->
<g id="node23" class="node">
<title>Node22</title>
<g id="a_node23"><a xlink:href="Component_8hpp.html" target="_top" xlink:title="Engine/Component/Component.hpp">
<polygon fill="#ffffff" stroke="#000000" points="176.5,-224.5 176.5,-243.5 365.5,-243.5 365.5,-224.5 176.5,-224.5"/>
<text text-anchor="middle" x="271" y="-231.5" font-family="Helvetica,sans-Serif" font-size="10.00" fill="#000000">Engine/Component/Component.hpp</text>
</a>
</g>
</g>
<!-- Node0&#45;&gt;Node22 -->
<g id="edge26" class="edge">
<title>Node0&#45;&gt;Node22</title>
<path fill="none" stroke="#191970" d="M364.5843,-347.4159C348.869,-338.3533 329.9455,-325.7295 316,-311 299.7794,-293.8675 286.9256,-269.8504 279.1774,-253.2141"/>
<polygon fill="#191970" stroke="#191970" points="282.3061,-251.6366 275.0283,-243.9369 275.916,-254.4945 282.3061,-251.6366"/>
</g>
<!-- Node24 -->
<g id="node25" class="node">
<title>Node24</title>
<g id="a_node25"><a xlink:href="Entity_8hpp.html" target="_top" xlink:title="Engine/Entity/Entity.hpp">
<polygon fill="#ffffff" stroke="#000000" points="740,-286 740,-305 872,-305 872,-286 740,-286"/>
<text text-anchor="middle" x="806" y="-293" font-family="Helvetica,sans-Serif" font-size="10.00" fill="#000000">Engine/Entity/Entity.hpp</text>
</a>
</g>
</g>
<!-- Node0&#45;&gt;Node24 -->
<g id="edge35" class="edge">
<title>Node0&#45;&gt;Node24</title>
<path fill="none" stroke="#191970" d="M471.9784,-349.819C548.5128,-337.3729 664.1073,-318.5748 737.2826,-306.6749"/>
<polygon fill="#191970" stroke="#191970" points="738.0094,-310.1028 747.3179,-305.043 736.8858,-303.1935 738.0094,-310.1028"/>
</g>
<!-- Node2 -->
<g id="node3" class="node">
<title>Node2</title>
<g id="a_node3"><a xlink:href="Types_8hpp.html" target="_top" xlink:title="Core/Types.hpp">
<polygon fill="#ffffff" stroke="#000000" points="325.5,-168.5 325.5,-187.5 416.5,-187.5 416.5,-168.5 325.5,-168.5"/>
<text text-anchor="middle" x="371" y="-175.5" font-family="Helvetica,sans-Serif" font-size="10.00" fill="#000000">Core/Types.hpp</text>
</a>
</g>
</g>
<!-- Node1&#45;&gt;Node2 -->
<g id="edge2" class="edge">
<title>Node1&#45;&gt;Node2</title>
<path fill="none" stroke="#191970" d="M390.9932,-280.1389C386.8493,-258.9692 379.3813,-220.8174 374.8388,-197.6112"/>
<polygon fill="#191970" stroke="#191970" points="378.2271,-196.7009 372.8712,-187.5595 371.3575,-198.0456 378.2271,-196.7009"/>
</g>
<!-- Node13 -->
<g id="node14" class="node">
<title>Node13</title>
<g id="a_node14"><a xlink:href="ItemEntry_8hpp.html" target="_top" xlink:title="Engine/ItemModel/ItemEntry.hpp">
<polygon fill="#ffffff" stroke="#000000" points="536.5,-224.5 536.5,-243.5 711.5,-243.5 711.5,-224.5 536.5,-224.5"/>
<text text-anchor="middle" x="624" y="-231.5" font-family="Helvetica,sans-Serif" font-size="10.00" fill="#000000">Engine/ItemModel/ItemEntry.hpp</text>
</a>
</g>
</g>
<!-- Node1&#45;&gt;Node13 -->
<g id="edge13" class="edge">
<title>Node1&#45;&gt;Node13</title>
<path fill="none" stroke="#191970" d="M450.2643,-280.4554C489.6503,-269.9239 541.601,-256.0328 578.4029,-246.1923"/>
<polygon fill="#191970" stroke="#191970" points="579.6017,-249.4948 588.3582,-243.5303 577.7934,-242.7323 579.6017,-249.4948"/>
</g>
<!-- Node21 -->
<g id="node22" class="node">
<title>Node21</title>
<g id="a_node22"><a xlink:href="RaGuiBase_8hpp.html" target="_top" xlink:title="GuiBase/RaGuiBase.hpp">
<polygon fill="#ffffff" stroke="#000000" points="0,-224.5 0,-243.5 134,-243.5 134,-224.5 0,-224.5"/>
<text text-anchor="middle" x="67" y="-231.5" font-family="Helvetica,sans-Serif" font-size="10.00" fill="#000000">GuiBase/RaGuiBase.hpp</text>
</a>
</g>
</g>
<!-- Node1&#45;&gt;Node21 -->
<g id="edge24" class="edge">
<title>Node1&#45;&gt;Node21</title>
<path fill="none" stroke="#191970" d="M325.4501,-282.6076C267.0047,-271.6156 183.7879,-255.9647 127.7107,-245.4181"/>
<polygon fill="#191970" stroke="#191970" points="128.0425,-241.9192 117.5678,-243.5105 126.7486,-248.7986 128.0425,-241.9192"/>
</g>
<!-- Node3 -->
<g id="node4" class="node">
<title>Node3</title>
<g id="a_node4"><a xlink:href="RaCore_8hpp.html" target="_top" xlink:title="Core/RaCore.hpp">
<polygon fill="#ffffff" stroke="#000000" points="954,-112.5 954,-131.5 1052,-131.5 1052,-112.5 954,-112.5"/>
<text text-anchor="middle" x="1003" y="-119.5" font-family="Helvetica,sans-Serif" font-size="10.00" fill="#000000">Core/RaCore.hpp</text>
</a>
</g>
</g>
<!-- Node2&#45;&gt;Node3 -->
<g id="edge3" class="edge">
<title>Node2&#45;&gt;Node3</title>
<path fill="none" stroke="#191970" d="M416.6079,-169.1763C419.4425,-168.7451 422.257,-168.3478 425,-168 651.5701,-139.2735 713.2615,-159.1358 943.6559,-132.0493"/>
<polygon fill="#191970" stroke="#191970" points="944.174,-135.5124 953.6891,-130.8527 943.345,-128.5616 944.174,-135.5124"/>
</g>
<!-- Node10 -->
<g id="node11" class="node">
<title>Node10</title>
<polygon fill="#ffffff" stroke="#bfbfbf" points="105.5,-112.5 105.5,-131.5 174.5,-131.5 174.5,-112.5 105.5,-112.5"/>
<text text-anchor="middle" x="140" y="-119.5" font-family="Helvetica,sans-Serif" font-size="10.00" fill="#000000">Eigen/Core</text>
</g>
<!-- Node2&#45;&gt;Node10 -->
<g id="edge10" class="edge">
<title>Node2&#45;&gt;Node10</title>
<path fill="none" stroke="#191970" d="M331.5522,-168.4369C290.7528,-158.5461 227.1621,-143.1302 184.5701,-132.8049"/>
<polygon fill="#191970" stroke="#191970" points="185.2971,-129.3798 174.7539,-130.4252 183.6478,-136.1827 185.2971,-129.3798"/>
</g>
<!-- Node11 -->
<g id="node12" class="node">
<title>Node11</title>
<polygon fill="#ffffff" stroke="#bfbfbf" points="249.5,-112.5 249.5,-131.5 344.5,-131.5 344.5,-112.5 249.5,-112.5"/>
<text text-anchor="middle" x="297" y="-119.5" font-family="Helvetica,sans-Serif" font-size="10.00" fill="#000000">Eigen/Geometry</text>
</g>
<!-- Node2&#45;&gt;Node11 -->
<g id="edge11" class="edge">
<title>Node2&#45;&gt;Node11</title>
<path fill="none" stroke="#191970" d="M358.1102,-168.2455C347.0746,-159.8943 330.9708,-147.7076 318.0647,-137.9408"/>
<polygon fill="#191970" stroke="#191970" points="319.8283,-134.8862 309.7421,-131.6427 315.6041,-140.4681 319.8283,-134.8862"/>
</g>
<!-- Node12 -->
<g id="node13" class="node">
<title>Node12</title>
<polygon fill="#ffffff" stroke="#bfbfbf" points="363,-112.5 363,-131.5 443,-131.5 443,-112.5 363,-112.5"/>
<text text-anchor="middle" x="403" y="-119.5" font-family="Helvetica,sans-Serif" font-size="10.00" fill="#000000">Eigen/Sparse</text>
</g>
<!-- Node2&#45;&gt;Node12 -->
<g id="edge12" class="edge">
<title>Node2&#45;&gt;Node12</title>
<path fill="none" stroke="#191970" d="M376.574,-168.2455C380.9331,-160.617 387.1211,-149.7881 392.4133,-140.5267"/>
<polygon fill="#191970" stroke="#191970" points="395.5673,-142.0616 397.4899,-131.6427 389.4896,-138.5886 395.5673,-142.0616"/>
</g>
<!-- Node4 -->
<g id="node5" class="node">
<title>Node4</title>
<g id="a_node5"><a xlink:href="CoreMacros_8hpp.html" target="_top" xlink:title="Core/CoreMacros.hpp">
<polygon fill="#ffffff" stroke="#000000" points="668,-56.5 668,-75.5 788,-75.5 788,-56.5 668,-56.5"/>
<text text-anchor="middle" x="728" y="-63.5" font-family="Helvetica,sans-Serif" font-size="10.00" fill="#000000">Core/CoreMacros.hpp</text>
</a>
</g>
</g>
<!-- Node3&#45;&gt;Node4 -->
<g id="edge4" class="edge">
<title>Node3&#45;&gt;Node4</title>
<path fill="none" stroke="#191970" d="M956.0383,-112.4369C908.5787,-102.7724 835.2134,-87.8326 784.5777,-77.5213"/>
<polygon fill="#191970" stroke="#191970" points="785.2653,-74.0895 774.768,-75.5237 783.8685,-80.9488 785.2653,-74.0895"/>
</g>
<!-- Node5 -->
<g id="node6" class="node">
<title>Node5</title>
<polygon fill="#ffffff" stroke="#bfbfbf" points="812,-.5 812,-19.5 864,-19.5 864,-.5 812,-.5"/>
<text text-anchor="middle" x="838" y="-7.5" font-family="Helvetica,sans-Serif" font-size="10.00" fill="#000000">cassert</text>
</g>
<!-- Node4&#45;&gt;Node5 -->
<g id="edge5" class="edge">
<title>Node4&#45;&gt;Node5</title>
<path fill="none" stroke="#191970" d="M747.1605,-56.2455C764.5111,-47.4125 790.2901,-34.2887 809.9583,-24.2758"/>
<polygon fill="#191970" stroke="#191970" points="811.7353,-27.2986 819.059,-19.6427 808.5595,-21.0605 811.7353,-27.2986"/>
</g>
<!-- Node6 -->
<g id="node7" class="node">
<title>Node6</title>
<polygon fill="#ffffff" stroke="#bfbfbf" points="596,-.5 596,-19.5 642,-19.5 642,-.5 596,-.5"/>
<text text-anchor="middle" x="619" y="-7.5" font-family="Helvetica,sans-Serif" font-size="10.00" fill="#000000">cstdio</text>
</g>
<!-- Node4&#45;&gt;Node6 -->
<g id="edge6" class="edge">
<title>Node4&#45;&gt;Node6</title>
<path fill="none" stroke="#191970" d="M709.0136,-56.2455C691.8208,-47.4125 666.2762,-34.2887 646.7868,-24.2758"/>
<polygon fill="#191970" stroke="#191970" points="648.263,-21.0993 637.7688,-19.6427 645.0641,-27.3257 648.263,-21.0993"/>
</g>
<!-- Node7 -->
<g id="node8" class="node">
<title>Node7</title>
<polygon fill="#ffffff" stroke="#bfbfbf" points="660,-.5 660,-19.5 720,-19.5 720,-.5 660,-.5"/>
<text text-anchor="middle" x="690" y="-7.5" font-family="Helvetica,sans-Serif" font-size="10.00" fill="#000000">iostream</text>
</g>
<!-- Node4&#45;&gt;Node7 -->
<g id="edge7" class="edge">
<title>Node4&#45;&gt;Node7</title>
<path fill="none" stroke="#191970" d="M721.3809,-56.2455C716.0954,-48.4564 708.5459,-37.3308 702.1762,-27.9439"/>
<polygon fill="#191970" stroke="#191970" points="705.0545,-25.9522 696.5432,-19.6427 699.2621,-29.8827 705.0545,-25.9522"/>
</g>
<!-- Node8 -->
<g id="node9" class="node">
<title>Node8</title>
<polygon fill="#ffffff" stroke="#bfbfbf" points="738,-.5 738,-19.5 794,-19.5 794,-.5 738,-.5"/>
<text text-anchor="middle" x="766" y="-7.5" font-family="Helvetica,sans-Serif" font-size="10.00" fill="#000000">sstream</text>
</g>
<!-- Node4&#45;&gt;Node8 -->
<g id="edge8" class="edge">
<title>Node4&#45;&gt;Node8</title>
<path fill="none" stroke="#191970" d="M734.6191,-56.2455C739.9046,-48.4564 747.4541,-37.3308 753.8238,-27.9439"/>
<polygon fill="#191970" stroke="#191970" points="756.7379,-29.8827 759.4568,-19.6427 750.9455,-25.9522 756.7379,-29.8827"/>
</g>
<!-- Node9 -->
<g id="node10" class="node">
<title>Node9</title>
<polygon fill="#ffffff" stroke="#bfbfbf" points="1011,-.5 1011,-19.5 1059,-19.5 1059,-.5 1011,-.5"/>
<text text-anchor="middle" x="1035" y="-7.5" font-family="Helvetica,sans-Serif" font-size="10.00" fill="#000000">thread</text>
</g>
<!-- Node4&#45;&gt;Node9 -->
<g id="edge9" class="edge">
<title>Node4&#45;&gt;Node9</title>
<path fill="none" stroke="#191970" d="M780.4264,-56.4369C843.3628,-44.9566 947.107,-26.0326 1000.6528,-16.2653"/>
<polygon fill="#191970" stroke="#191970" points="1001.4561,-19.6766 1010.6657,-14.4388 1000.1999,-12.7902 1001.4561,-19.6766"/>
</g>
<!-- Node14 -->
<g id="node15" class="node">
<title>Node14</title>
<g id="a_node15"><a xlink:href="RaEngine_8hpp.html" target="_top" xlink:title="Engine/RaEngine.hpp">
<polygon fill="#ffffff" stroke="#000000" points="434.5,-168.5 434.5,-187.5 553.5,-187.5 553.5,-168.5 434.5,-168.5"/>
<text text-anchor="middle" x="494" y="-175.5" font-family="Helvetica,sans-Serif" font-size="10.00" fill="#000000">Engine/RaEngine.hpp</text>
</a>
</g>
</g>
<!-- Node13&#45;&gt;Node14 -->
<g id="edge14" class="edge">
<title>Node13&#45;&gt;Node14</title>
<path fill="none" stroke="#191970" d="M601.6522,-224.3733C580.5967,-215.3032 548.8505,-201.6279 525.2825,-191.4755"/>
<polygon fill="#191970" stroke="#191970" points="526.625,-188.243 516.0562,-187.5011 523.8556,-194.6719 526.625,-188.243"/>
</g>
<!-- Node15 -->
<g id="node16" class="node">
<title>Node15</title>
<g id="a_node16"><a xlink:href="Index_8hpp.html" target="_top" xlink:title="Core/Utils/Index.hpp">
<polygon fill="#ffffff" stroke="#000000" points="823,-168.5 823,-187.5 939,-187.5 939,-168.5 823,-168.5"/>
<text text-anchor="middle" x="881" y="-175.5" font-family="Helvetica,sans-Serif" font-size="10.00" fill="#000000">Core/Utils/Index.hpp</text>
</a>
</g>
</g>
<!-- Node13&#45;&gt;Node15 -->
<g id="edge16" class="edge">
<title>Node13&#45;&gt;Node15</title>
<path fill="none" stroke="#191970" d="M667.8879,-224.4369C711.9638,-214.8328 779.9481,-200.0191 827.2358,-189.7152"/>
<polygon fill="#191970" stroke="#191970" points="828.2676,-193.0725 837.2932,-187.5237 826.7772,-186.233 828.2676,-193.0725"/>
</g>
<!-- Node18 -->
<g id="node19" class="node">
<title>Node18</title>
<polygon fill="#ffffff" stroke="#bfbfbf" points="957,-168.5 957,-187.5 1001,-187.5 1001,-168.5 957,-168.5"/>
<text text-anchor="middle" x="979" y="-175.5" font-family="Helvetica,sans-Serif" font-size="10.00" fill="#000000">string</text>
</g>
<!-- Node13&#45;&gt;Node18 -->
<g id="edge21" class="edge">
<title>Node13&#45;&gt;Node18</title>
<path fill="none" stroke="#191970" d="M702.2376,-224.4552C778.2061,-214.923 889.2153,-200.2307 946.9687,-187.871"/>
<polygon fill="#191970" stroke="#191970" points="947.7846,-191.2751 956.7764,-185.6716 946.2528,-184.4447 947.7846,-191.2751"/>
</g>
<!-- Node19 -->
<g id="node20" class="node">
<title>Node19</title>
<polygon fill="#ffffff" stroke="#bfbfbf" points="571.5,-168.5 571.5,-187.5 618.5,-187.5 618.5,-168.5 571.5,-168.5"/>
<text text-anchor="middle" x="595" y="-175.5" font-family="Helvetica,sans-Serif" font-size="10.00" fill="#000000">vector</text>
</g>
<!-- Node13&#45;&gt;Node19 -->
<g id="edge22" class="edge">
<title>Node13&#45;&gt;Node19</title>
<path fill="none" stroke="#191970" d="M618.9486,-224.2455C614.9981,-216.617 609.3903,-205.7881 604.5942,-196.5267"/>
<polygon fill="#191970" stroke="#191970" points="607.7001,-194.9131 599.9935,-187.6427 601.4841,-198.1321 607.7001,-194.9131"/>
</g>
<!-- Node20 -->
<g id="node21" class="node">
<title>Node20</title>
<g id="a_node21"><a xlink:href="ItemEntry_8inl.html" target="_top" xlink:title="Engine/ItemModel/ItemEntry.inl">
<polygon fill="#ffffff" stroke="#000000" points="636.5,-168.5 636.5,-187.5 805.5,-187.5 805.5,-168.5 636.5,-168.5"/>
<text text-anchor="middle" x="721" y="-175.5" font-family="Helvetica,sans-Serif" font-size="10.00" fill="#000000">Engine/ItemModel/ItemEntry.inl</text>
</a>
</g>
</g>
<!-- Node13&#45;&gt;Node20 -->
<g id="edge23" class="edge">
<title>Node13&#45;&gt;Node20</title>
<path fill="none" stroke="#191970" d="M640.8961,-224.2455C655.918,-215.5731 678.1043,-202.7645 695.321,-192.825"/>
<polygon fill="#191970" stroke="#191970" points="697.3871,-195.6737 704.2975,-187.6427 693.8872,-189.6114 697.3871,-195.6737"/>
</g>
<!-- Node14&#45;&gt;Node4 -->
<g id="edge15" class="edge">
<title>Node14&#45;&gt;Node4</title>
<path fill="none" stroke="#191970" d="M513.9507,-168.4509C555.3105,-148.6548 650.5579,-103.0663 698.8257,-79.9638"/>
<polygon fill="#191970" stroke="#191970" points="700.5908,-82.9992 708.0998,-75.5249 697.5687,-76.6852 700.5908,-82.9992"/>
</g>
<!-- Node15&#45;&gt;Node3 -->
<g id="edge17" class="edge">
<title>Node15&#45;&gt;Node3</title>
<path fill="none" stroke="#191970" d="M901.9725,-168.3733C921.5567,-159.3838 950.9961,-145.8706 973.051,-135.7471"/>
<polygon fill="#191970" stroke="#191970" points="974.6729,-138.8538 982.3011,-131.5011 971.7527,-132.4919 974.6729,-138.8538"/>
</g>
<!-- Node16 -->
<g id="node17" class="node">
<title>Node16</title>
<polygon fill="#ffffff" stroke="#bfbfbf" points="764,-112.5 764,-131.5 808,-131.5 808,-112.5 764,-112.5"/>
<text text-anchor="middle" x="786" y="-119.5" font-family="Helvetica,sans-Serif" font-size="10.00" fill="#000000">limits</text>
</g>
<!-- Node15&#45;&gt;Node16 -->
<g id="edge18" class="edge">
<title>Node15&#45;&gt;Node16</title>
<path fill="none" stroke="#191970" d="M864.4523,-168.2455C849.7401,-159.5731 828.0112,-146.7645 811.1495,-136.825"/>
<polygon fill="#191970" stroke="#191970" points="812.7502,-133.7057 802.3581,-131.6427 809.1954,-139.736 812.7502,-133.7057"/>
</g>
<!-- Node17 -->
<g id="node18" class="node">
<title>Node17</title>
<g id="a_node18"><a xlink:href="Index_8inl.html" target="_top" xlink:title="Core/Utils/Index.inl">
<polygon fill="#ffffff" stroke="#000000" points="826,-112.5 826,-131.5 936,-131.5 936,-112.5 826,-112.5"/>
<text text-anchor="middle" x="881" y="-119.5" font-family="Helvetica,sans-Serif" font-size="10.00" fill="#000000">Core/Utils/Index.inl</text>
</a>
</g>
</g>
<!-- Node15&#45;&gt;Node17 -->
<g id="edge19" class="edge">
<title>Node15&#45;&gt;Node17</title>
<path fill="none" stroke="#191970" d="M875.7332,-168.2455C874.3221,-160.9382 873.9179,-150.6944 874.5205,-141.7046"/>
<polygon fill="#191970" stroke="#191970" points="878.0111,-141.9945 875.7549,-131.6427 871.0632,-141.1421 878.0111,-141.9945"/>
</g>
<!-- Node17&#45;&gt;Node15 -->
<g id="edge20" class="edge">
<title>Node17&#45;&gt;Node15</title>
<path fill="none" stroke="#191970" d="M886.2451,-131.6427C887.6665,-138.9199 888.081,-149.155 887.4887,-158.1575"/>
<polygon fill="#191970" stroke="#191970" points="883.9947,-157.8972 886.2668,-168.2455 890.9439,-158.739 883.9947,-157.8972"/>
</g>
<!-- Node21&#45;&gt;Node4 -->
<g id="edge25" class="edge">
<title>Node21&#45;&gt;Node4</title>
<path fill="none" stroke="#191970" d="M65.5785,-224.3593C62.6268,-200.1245 58.9127,-136.8268 96,-112 141.7444,-81.378 502.2845,-70.5204 657.418,-67.2404"/>
<polygon fill="#191970" stroke="#191970" points="657.8544,-70.7323 667.7799,-67.0262 657.7096,-63.7338 657.8544,-70.7323"/>
</g>
<!-- Node22&#45;&gt;Node2 -->
<g id="edge32" class="edge">
<title>Node22&#45;&gt;Node2</title>
<path fill="none" stroke="#191970" d="M288.4187,-224.2455C304.0485,-215.4928 327.2019,-202.527 345.0185,-192.5496"/>
<polygon fill="#191970" stroke="#191970" points="346.766,-195.5825 353.7809,-187.6427 343.3457,-189.475 346.766,-195.5825"/>
</g>
<!-- Node22&#45;&gt;Node10 -->
<g id="edge28" class="edge">
<title>Node22&#45;&gt;Node10</title>
<path fill="none" stroke="#191970" d="M186.2476,-224.4635C140.2911,-217.3574 90.0593,-205.7617 76,-188 60.9582,-168.9971 86.2763,-149.3172 109.3682,-136.4489"/>
<polygon fill="#191970" stroke="#191970" points="111.1421,-139.4701 118.3467,-131.7019 107.8703,-133.2817 111.1421,-139.4701"/>
</g>
<!-- Node22&#45;&gt;Node11 -->
<g id="edge29" class="edge">
<title>Node22&#45;&gt;Node11</title>
<path fill="none" stroke="#191970" d="M273.2167,-224.4509C277.4765,-206.1013 286.8807,-165.5908 292.5035,-141.3693"/>
<polygon fill="#191970" stroke="#191970" points="295.9368,-142.0573 294.7889,-131.5249 289.1182,-140.4744 295.9368,-142.0573"/>
</g>
<!-- Node22&#45;&gt;Node14 -->
<g id="edge30" class="edge">
<title>Node22&#45;&gt;Node14</title>
<path fill="none" stroke="#191970" d="M309.0817,-224.4369C347.0059,-214.9133 405.3289,-200.2672 446.3126,-189.9753"/>
<polygon fill="#191970" stroke="#191970" points="447.229,-193.3539 456.0754,-187.5237 445.524,-186.5647 447.229,-193.3539"/>
</g>
<!-- Node22&#45;&gt;Node15 -->
<g id="edge27" class="edge">
<title>Node22&#45;&gt;Node15</title>
<path fill="none" stroke="#191970" d="M365.842,-227.8024C472.1341,-220.4392 649.8343,-206.8822 812.715,-188.0864"/>
<polygon fill="#191970" stroke="#191970" points="813.3968,-191.5308 822.9255,-186.8989 812.5881,-184.5776 813.3968,-191.5308"/>
</g>
<!-- Node22&#45;&gt;Node19 -->
<g id="edge31" class="edge">
<title>Node22&#45;&gt;Node19</title>
<path fill="none" stroke="#191970" d="M350.2992,-224.461C406.716,-216.9806 484.4,-205.2775 561.4329,-187.8689"/>
<polygon fill="#191970" stroke="#191970" points="562.3469,-191.2503 571.3117,-185.6038 560.7824,-184.4273 562.3469,-191.2503"/>
</g>
<!-- Node23 -->
<g id="node24" class="node">
<title>Node23</title>
<g id="a_node24"><a xlink:href="Component_8inl.html" target="_top" xlink:title="Engine/Component/Component.inl">
<polygon fill="#ffffff" stroke="#000000" points="85.5,-168.5 85.5,-187.5 268.5,-187.5 268.5,-168.5 85.5,-168.5"/>
<text text-anchor="middle" x="177" y="-175.5" font-family="Helvetica,sans-Serif" font-size="10.00" fill="#000000">Engine/Component/Component.inl</text>
</a>
</g>
</g>
<!-- Node22&#45;&gt;Node23 -->
<g id="edge33" class="edge">
<title>Node22&#45;&gt;Node23</title>
<path fill="none" stroke="#191970" d="M249.3596,-224.2455C233.4283,-215.7337 212.1749,-203.2375 196.7171,-193.3801"/>
<polygon fill="#191970" stroke="#191970" points="198.2261,-190.185 187.9408,-187.6427 194.3958,-196.0441 198.2261,-190.185"/>
</g>
<!-- Node23&#45;&gt;Node22 -->
<g id="edge34" class="edge">
<title>Node23&#45;&gt;Node22</title>
<path fill="none" stroke="#191970" d="M198.4311,-187.6427C214.4653,-196.1994 235.9722,-208.8456 251.5165,-218.769"/>
<polygon fill="#191970" stroke="#191970" points="249.6081,-221.7029 259.8933,-224.2455 253.4386,-215.8439 249.6081,-221.7029"/>
</g>
<!-- Node24&#45;&gt;Node2 -->
<g id="edge41" class="edge">
<title>Node24&#45;&gt;Node2</title>
<path fill="none" stroke="#191970" d="M739.7626,-290.1359C677.0285,-283.7059 580.8144,-270.3194 501,-244 461.9932,-231.1372 420.2044,-208.0632 394.8328,-192.891"/>
<polygon fill="#191970" stroke="#191970" points="396.3173,-189.6978 385.9528,-187.5008 392.6851,-195.6817 396.3173,-189.6978"/>
</g>
<!-- Node24&#45;&gt;Node9 -->
<g id="edge39" class="edge">
<title>Node24&#45;&gt;Node9</title>
<path fill="none" stroke="#191970" d="M872.2474,-293.836C959.5264,-290.2714 1106.5939,-279.0837 1146,-244 1168.7087,-223.7822 1164,-208.4047 1164,-178 1164,-178 1164,-178 1164,-122 1164,-71.4174 1106.7471,-38.523 1068.525,-22.1987"/>
<polygon fill="#191970" stroke="#191970" points="1069.8444,-18.957 1059.2639,-18.4048 1067.1907,-25.4345 1069.8444,-18.957"/>
</g>
<!-- Node24&#45;&gt;Node14 -->
<g id="edge36" class="edge">
<title>Node24&#45;&gt;Node14</title>
<path fill="none" stroke="#191970" d="M739.832,-291.114C665.7647,-284.9398 551.8079,-271.2507 519,-244 505.3301,-232.6456 499.1251,-212.9734 496.3143,-198.0522"/>
<polygon fill="#191970" stroke="#191970" points="499.7173,-197.1474 494.759,-187.7844 492.7962,-198.1958 499.7173,-197.1474"/>
</g>
<!-- Node24&#45;&gt;Node18 -->
<g id="edge38" class="edge">
<title>Node24&#45;&gt;Node18</title>
<path fill="none" stroke="#191970" d="M843.5444,-285.9585C869.9584,-277.9068 905.0786,-264.3851 931,-244 947.2877,-231.191 960.6313,-211.4768 969.0787,-196.9276"/>
<polygon fill="#191970" stroke="#191970" points="972.3352,-198.2719 974.1208,-187.8286 966.2124,-194.879 972.3352,-198.2719"/>
</g>
<!-- Node24&#45;&gt;Node19 -->
<g id="edge40" class="edge">
<title>Node24&#45;&gt;Node19</title>
<path fill="none" stroke="#191970" d="M739.8027,-292.742C666.0189,-288.1152 553.547,-275.8958 527,-244 510.9484,-224.7143 538.1583,-204.9823 562.7797,-192.181"/>
<polygon fill="#191970" stroke="#191970" points="564.5781,-195.1965 571.9937,-187.6295 561.4778,-188.9204 564.5781,-195.1965"/>
</g>
<!-- Node25 -->
<g id="node26" class="node">
<title>Node25</title>
<polygon fill="#ffffff" stroke="#bfbfbf" points="730,-224.5 730,-243.5 778,-243.5 778,-224.5 730,-224.5"/>
<text text-anchor="middle" x="754" y="-231.5" font-family="Helvetica,sans-Serif" font-size="10.00" fill="#000000">mutex</text>
</g>
<!-- Node24&#45;&gt;Node25 -->
<g id="edge37" class="edge">
<title>Node24&#45;&gt;Node25</title>
<path fill="none" stroke="#191970" d="M797.875,-285.8906C790.1358,-276.7376 778.3013,-262.7409 768.8728,-251.59"/>
<polygon fill="#191970" stroke="#191970" points="771.3689,-249.1213 762.2396,-243.7449 766.0235,-253.6409 771.3689,-249.1213"/>
</g>
<!-- Node26 -->
<g id="node27" class="node">
<title>Node26</title>
<g id="a_node27"><a xlink:href="IndexedObject_8hpp.html" target="_top" xlink:title="Core/Utils/IndexedObject.hpp">
<polygon fill="#ffffff" stroke="#000000" points="977.5,-224.5 977.5,-243.5 1136.5,-243.5 1136.5,-224.5 977.5,-224.5"/>
<text text-anchor="middle" x="1057" y="-231.5" font-family="Helvetica,sans-Serif" font-size="10.00" fill="#000000">Core/Utils/IndexedObject.hpp</text>
</a>
</g>
</g>
<!-- Node24&#45;&gt;Node26 -->
<g id="edge42" class="edge">
<title>Node24&#45;&gt;Node26</title>
<path fill="none" stroke="#191970" d="M844.9434,-285.9581C888.9087,-275.1857 960.5065,-257.6428 1008.1751,-245.9631"/>
<polygon fill="#191970" stroke="#191970" points="1009.0855,-249.3436 1017.9653,-243.5643 1007.4196,-242.5447 1009.0855,-249.3436"/>
</g>
<!-- Node27 -->
<g id="node28" class="node">
<title>Node27</title>
<g id="a_node28"><a xlink:href="Entity_8inl.html" target="_top" xlink:title="Engine/Entity/Entity.inl">
<polygon fill="#ffffff" stroke="#000000" points="796,-224.5 796,-243.5 922,-243.5 922,-224.5 796,-224.5"/>
<text text-anchor="middle" x="859" y="-231.5" font-family="Helvetica,sans-Serif" font-size="10.00" fill="#000000">Engine/Entity/Entity.inl</text>
</a>
</g>
</g>
<!-- Node24&#45;&gt;Node27 -->
<g id="edge45" class="edge">
<title>Node24&#45;&gt;Node27</title>
<path fill="none" stroke="#191970" d="M809.2188,-285.8906C815.4404,-276.5581 827.4753,-262.1902 838.2994,-250.9374"/>
<polygon fill="#191970" stroke="#191970" points="840.9029,-253.284 845.5132,-243.7449 835.9605,-248.327 840.9029,-253.284"/>
</g>
<!-- Node26&#45;&gt;Node3 -->
<g id="edge43" class="edge">
<title>Node26&#45;&gt;Node3</title>
<path fill="none" stroke="#191970" d="M1052.396,-224.4509C1043.4691,-205.936 1023.6642,-164.8591 1012.0251,-140.7187"/>
<polygon fill="#191970" stroke="#191970" points="1015.0881,-139.0125 1007.5924,-131.5249 1008.7827,-142.0527 1015.0881,-139.0125"/>
</g>
<!-- Node26&#45;&gt;Node15 -->
<g id="edge44" class="edge">
<title>Node26&#45;&gt;Node15</title>
<path fill="none" stroke="#191970" d="M1026.7445,-224.3733C997.3517,-215.021 952.5708,-200.7725 920.4066,-190.5385"/>
<polygon fill="#191970" stroke="#191970" points="921.4512,-187.198 910.8607,-187.5011 919.3287,-193.8685 921.4512,-187.198"/>
</g>
<!-- Node27&#45;&gt;Node24 -->
<g id="edge46" class="edge">
<title>Node27&#45;&gt;Node24</title>
<path fill="none" stroke="#191970" d="M855.6908,-243.7449C849.4131,-253.1258 837.3562,-267.5028 826.5439,-278.7253"/>
<polygon fill="#191970" stroke="#191970" points="823.9631,-276.3558 819.3438,-285.8906 828.9009,-281.3176 823.9631,-276.3558"/>
</g>
</g>
</svg>
        <g id="navigator" transform="translate(0 0)" fill="#404254">
                <rect fill="#f2f5e9" fill-opacity="0.5" stroke="#606060" stroke-width=".5" x="0" y="0" width="60" height="60"/>
                <use id="zoomplus" xlink:href="#zoomPlus" x="17" y="9" onmousedown="handleZoom(evt,'in')"/>
                <use id="zoomminus" xlink:href="#zoomMin" x="42" y="9" onmousedown="handleZoom(evt,'out')"/>
                <use id="reset" xlink:href="#resetDef" x="30" y="36" onmousedown="handleReset()"/>
                <g id="arrowUp" xlink:href="#dirArrow" transform="translate(30 24)" onmousedown="handlePan(0,-1)">
                  <use xlink:href="#rim" fill="#404040">
                        <set attributeName="fill" to="#808080" begin="arrowUp.mouseover" end="arrowUp.mouseout"/>
                  </use>
                  <path fill="none" stroke="white" stroke-width="1.5" d="M0,-3.0v7 M-2.5,-0.5L0,-3.0L2.5,-0.5"/>
                </g>
                <g id="arrowRight" xlink:href="#dirArrow" transform="rotate(90) translate(36 -43)" onmousedown="handlePan(1,0)">
                  <use xlink:href="#rim" fill="#404040">
                        <set attributeName="fill" to="#808080" begin="arrowRight.mouseover" end="arrowRight.mouseout"/>
                  </use>
                  <path fill="none" stroke="white" stroke-width="1.5" d="M0,-3.0v7 M-2.5,-0.5L0,-3.0L2.5,-0.5"/>
                </g>
                <g id="arrowDown" xlink:href="#dirArrow" transform="rotate(180) translate(-30 -48)" onmousedown="handlePan(0,1)">
                  <use xlink:href="#rim" fill="#404040">
                        <set attributeName="fill" to="#808080" begin="arrowDown.mouseover" end="arrowDown.mouseout"/>
                  </use>
                  <path fill="none" stroke="white" stroke-width="1.5" d="M0,-3.0v7 M-2.5,-0.5L0,-3.0L2.5,-0.5"/>
                </g>
                <g id="arrowLeft" xlink:href="#dirArrow" transform="rotate(270) translate(-36 17)" onmousedown="handlePan(-1,0)">
                  <use xlink:href="#rim" fill="#404040">
                        <set attributeName="fill" to="#808080" begin="arrowLeft.mouseover" end="arrowLeft.mouseout"/>
                  </use>
                  <path fill="none" stroke="white" stroke-width="1.5" d="M0,-3.0v7 M-2.5,-0.5L0,-3.0L2.5,-0.5"/>
                </g>
        </g>
        <svg viewBox="0 0 15 15" width="100%" height="30px" preserveAspectRatio="xMaxYMin meet">
         <g id="arrow_out" transform="scale(0.3 0.3)">
          <a xlink:href="TransformEditor_8cpp__incl_org.svg" target="_base">
           <rect id="button" ry="5" rx="5" y="6" x="6" height="38" width="38"
                fill="#f2f5e9" fill-opacity="0.5" stroke="#606060" stroke-width="1.0"/>
           <path id="arrow"
             d="M 11.500037,31.436501 C 11.940474,20.09759 22.043105,11.32322 32.158766,21.979434 L 37.068811,17.246167 C 37.068811,17.246167 37.088388,32 37.088388,32 L 22.160133,31.978069 C 22.160133,31.978069 26.997745,27.140456 26.997745,27.140456 C 18.528582,18.264221 13.291696,25.230495 11.500037,31.436501 z"
             style="fill:#404040;"/>
          </a>
         </g>
        </svg>
</svg>
