<?xml version="1.0" encoding="UTF-8" standalone="no"?>
<!DOCTYPE svg PUBLIC "-//W3C//DTD SVG 1.1//EN"
 "http://www.w3.org/Graphics/SVG/1.1/DTD/svg11.dtd">
<!-- Generated by graphviz version 2.40.1 (20161225.0304)
 -->
<!-- Title: src/GuiBase/TreeModel/TreeModel.cpp Pages: 1 -->
<svg width="877pt" height="263pt"
 viewBox="0.00 0.00 876.50 263.00" xmlns="http://www.w3.org/2000/svg" xmlns:xlink="http://www.w3.org/1999/xlink">
<g id="graph0" class="graph" transform="scale(1 1) rotate(0) translate(4 259)">
<title>src/GuiBase/TreeModel/TreeModel.cpp</title>
<polygon fill="#ffffff" stroke="transparent" points="-4,4 -4,-259 872.5,-259 872.5,4 -4,4"/>
<!-- Node0 -->
<g id="node1" class="node">
<title>Node0</title>
<polygon fill="#bfbfbf" stroke="#000000" points="639.5,-224.5 639.5,-254.5 766.5,-254.5 766.5,-224.5 639.5,-224.5"/>
<text text-anchor="start" x="647.5" y="-242.5" font-family="Helvetica,sans-Serif" font-size="10.00" fill="#000000">src/GuiBase/TreeModel</text>
<text text-anchor="middle" x="703" y="-231.5" font-family="Helvetica,sans-Serif" font-size="10.00" fill="#000000">/TreeModel.cpp</text>
</g>
<!-- Node1 -->
<g id="node2" class="node">
<title>Node1</title>
<g id="a_node2"><a xlink:href="TreeModel_8hpp.html" target="_top" xlink:title="GuiBase/TreeModel/TreeModel.hpp">
<polygon fill="#ffffff" stroke="#000000" points="210.5,-168.5 210.5,-187.5 393.5,-187.5 393.5,-168.5 210.5,-168.5"/>
<text text-anchor="middle" x="302" y="-175.5" font-family="Helvetica,sans-Serif" font-size="10.00" fill="#000000">GuiBase/TreeModel/TreeModel.hpp</text>
</a>
</g>
</g>
<!-- Node0&#45;&gt;Node1 -->
<g id="edge1" class="edge">
<title>Node0&#45;&gt;Node1</title>
<path fill="none" stroke="#191970" d="M639.4604,-229.7551C567.2834,-218.6856 449.7478,-200.6596 374.1712,-189.0687"/>
<polygon fill="#191970" stroke="#191970" points="374.6682,-185.604 364.2532,-187.5476 373.607,-192.5231 374.6682,-185.604"/>
</g>
<!-- Node13 -->
<g id="node14" class="node">
<title>Node13</title>
<g id="a_node14"><a xlink:href="Log_8hpp.html" target="_top" xlink:title="Core/Utils/Log.hpp">
<polygon fill="#ffffff" stroke="#000000" points="604,-168.5 604,-187.5 710,-187.5 710,-168.5 604,-168.5"/>
<text text-anchor="middle" x="657" y="-175.5" font-family="Helvetica,sans-Serif" font-size="10.00" fill="#000000">Core/Utils/Log.hpp</text>
</a>
</g>
</g>
<!-- Node0&#45;&gt;Node13 -->
<g id="edge13" class="edge">
<title>Node0&#45;&gt;Node13</title>
<path fill="none" stroke="#191970" d="M691.6292,-224.2977C685.2439,-215.7609 677.2359,-205.0545 670.5295,-196.0883"/>
<polygon fill="#191970" stroke="#191970" points="673.1575,-193.7584 664.3652,-187.8469 667.5521,-197.9511 673.1575,-193.7584"/>
</g>
<!-- Node18 -->
<g id="node19" class="node">
<title>Node18</title>
<polygon fill="#ffffff" stroke="#bfbfbf" points="728.5,-168.5 728.5,-187.5 771.5,-187.5 771.5,-168.5 728.5,-168.5"/>
<text text-anchor="middle" x="750" y="-175.5" font-family="Helvetica,sans-Serif" font-size="10.00" fill="#000000">stack</text>
</g>
<!-- Node0&#45;&gt;Node18 -->
<g id="edge20" class="edge">
<title>Node0&#45;&gt;Node18</title>
<path fill="none" stroke="#191970" d="M714.618,-224.2977C721.21,-215.672 729.4948,-204.8312 736.3901,-195.8087"/>
<polygon fill="#191970" stroke="#191970" points="739.1835,-197.9176 742.4747,-187.8469 733.6217,-193.6671 739.1835,-197.9176"/>
</g>
<!-- Node19 -->
<g id="node20" class="node">
<title>Node19</title>
<polygon fill="#ffffff" stroke="#bfbfbf" points="789.5,-168.5 789.5,-187.5 868.5,-187.5 868.5,-168.5 789.5,-168.5"/>
<text text-anchor="middle" x="829" y="-175.5" font-family="Helvetica,sans-Serif" font-size="10.00" fill="#000000">QApplication</text>
</g>
<!-- Node0&#45;&gt;Node19 -->
<g id="edge21" class="edge">
<title>Node0&#45;&gt;Node19</title>
<path fill="none" stroke="#191970" d="M733.8231,-224.4554C754.1088,-214.554 780.4788,-201.683 800.3162,-192.0004"/>
<polygon fill="#191970" stroke="#191970" points="802.023,-195.062 809.4745,-187.5303 798.9526,-188.7714 802.023,-195.062"/>
</g>
<!-- Node2 -->
<g id="node3" class="node">
<title>Node2</title>
<g id="a_node3"><a xlink:href="RaGuiBase_8hpp.html" target="_top" xlink:title="GuiBase/RaGuiBase.hpp">
<polygon fill="#ffffff" stroke="#000000" points="0,-112.5 0,-131.5 134,-131.5 134,-112.5 0,-112.5"/>
<text text-anchor="middle" x="67" y="-119.5" font-family="Helvetica,sans-Serif" font-size="10.00" fill="#000000">GuiBase/RaGuiBase.hpp</text>
</a>
</g>
</g>
<!-- Node1&#45;&gt;Node2 -->
<g id="edge2" class="edge">
<title>Node1&#45;&gt;Node2</title>
<path fill="none" stroke="#191970" d="M261.8691,-168.4369C221.7351,-158.8731 159.9225,-144.1432 116.7067,-133.845"/>
<polygon fill="#191970" stroke="#191970" points="117.5044,-130.4372 106.9654,-131.5237 115.8817,-137.2465 117.5044,-130.4372"/>
</g>
<!-- Node9 -->
<g id="node10" class="node">
<title>Node9</title>
<polygon fill="#ffffff" stroke="#bfbfbf" points="152,-112.5 152,-131.5 210,-131.5 210,-112.5 152,-112.5"/>
<text text-anchor="middle" x="181" y="-119.5" font-family="Helvetica,sans-Serif" font-size="10.00" fill="#000000">memory</text>
</g>
<!-- Node1&#45;&gt;Node9 -->
<g id="edge9" class="edge">
<title>Node1&#45;&gt;Node9</title>
<path fill="none" stroke="#191970" d="M281.1994,-168.3733C261.7757,-159.3838 232.5776,-145.8706 210.7036,-135.7471"/>
<polygon fill="#191970" stroke="#191970" points="212.0745,-132.5249 201.5292,-131.5011 209.1344,-138.8776 212.0745,-132.5249"/>
</g>
<!-- Node10 -->
<g id="node11" class="node">
<title>Node10</title>
<polygon fill="#ffffff" stroke="#bfbfbf" points="228.5,-112.5 228.5,-131.5 275.5,-131.5 275.5,-112.5 228.5,-112.5"/>
<text text-anchor="middle" x="252" y="-119.5" font-family="Helvetica,sans-Serif" font-size="10.00" fill="#000000">vector</text>
</g>
<!-- Node1&#45;&gt;Node10 -->
<g id="edge10" class="edge">
<title>Node1&#45;&gt;Node10</title>
<path fill="none" stroke="#191970" d="M293.2907,-168.2455C286.1927,-160.2958 275.9916,-148.8706 267.505,-139.3656"/>
<polygon fill="#191970" stroke="#191970" points="269.8805,-136.771 260.6095,-131.6427 264.6589,-141.4331 269.8805,-136.771"/>
</g>
<!-- Node11 -->
<g id="node12" class="node">
<title>Node11</title>
<polygon fill="#ffffff" stroke="#bfbfbf" points="294,-112.5 294,-131.5 410,-131.5 410,-112.5 294,-112.5"/>
<text text-anchor="middle" x="352" y="-119.5" font-family="Helvetica,sans-Serif" font-size="10.00" fill="#000000">QAbstractItemModel</text>
</g>
<!-- Node1&#45;&gt;Node11 -->
<g id="edge11" class="edge">
<title>Node1&#45;&gt;Node11</title>
<path fill="none" stroke="#191970" d="M310.7093,-168.2455C317.8073,-160.2958 328.0084,-148.8706 336.495,-139.3656"/>
<polygon fill="#191970" stroke="#191970" points="339.3411,-141.4331 343.3905,-131.6427 334.1195,-136.771 339.3411,-141.4331"/>
</g>
<!-- Node12 -->
<g id="node13" class="node">
<title>Node12</title>
<polygon fill="#ffffff" stroke="#bfbfbf" points="428.5,-112.5 428.5,-131.5 487.5,-131.5 487.5,-112.5 428.5,-112.5"/>
<text text-anchor="middle" x="458" y="-119.5" font-family="Helvetica,sans-Serif" font-size="10.00" fill="#000000">QVariant</text>
</g>
<!-- Node1&#45;&gt;Node12 -->
<g id="edge12" class="edge">
<title>Node1&#45;&gt;Node12</title>
<path fill="none" stroke="#191970" d="M328.8174,-168.3733C354.5332,-159.1419 393.538,-145.1402 421.9599,-134.9375"/>
<polygon fill="#191970" stroke="#191970" points="423.3032,-138.174 431.5326,-131.5011 420.9381,-131.5857 423.3032,-138.174"/>
</g>
<!-- Node3 -->
<g id="node4" class="node">
<title>Node3</title>
<g id="a_node4"><a xlink:href="CoreMacros_8hpp.html" target="_top" xlink:title="Core/CoreMacros.hpp">
<polygon fill="#ffffff" stroke="#000000" points="430,-56.5 430,-75.5 550,-75.5 550,-56.5 430,-56.5"/>
<text text-anchor="middle" x="490" y="-63.5" font-family="Helvetica,sans-Serif" font-size="10.00" fill="#000000">Core/CoreMacros.hpp</text>
</a>
</g>
</g>
<!-- Node2&#45;&gt;Node3 -->
<g id="edge3" class="edge">
<title>Node2&#45;&gt;Node3</title>
<path fill="none" stroke="#191970" d="M134.0256,-113.1266C211.946,-102.8109 339.9815,-85.8606 419.398,-75.3468"/>
<polygon fill="#191970" stroke="#191970" points="420.3378,-78.753 429.7919,-73.9708 419.4191,-71.8136 420.3378,-78.753"/>
</g>
<!-- Node4 -->
<g id="node5" class="node">
<title>Node4</title>
<polygon fill="#ffffff" stroke="#bfbfbf" points="326,-.5 326,-19.5 378,-19.5 378,-.5 326,-.5"/>
<text text-anchor="middle" x="352" y="-7.5" font-family="Helvetica,sans-Serif" font-size="10.00" fill="#000000">cassert</text>
</g>
<!-- Node3&#45;&gt;Node4 -->
<g id="edge4" class="edge">
<title>Node3&#45;&gt;Node4</title>
<path fill="none" stroke="#191970" d="M466.277,-56.3733C443.8263,-47.2629 409.9261,-33.5062 384.8745,-23.3404"/>
<polygon fill="#191970" stroke="#191970" points="385.9957,-20.0182 375.4135,-19.5011 383.3635,-26.5045 385.9957,-20.0182"/>
</g>
<!-- Node5 -->
<g id="node6" class="node">
<title>Node5</title>
<polygon fill="#ffffff" stroke="#bfbfbf" points="396,-.5 396,-19.5 442,-19.5 442,-.5 396,-.5"/>
<text text-anchor="middle" x="419" y="-7.5" font-family="Helvetica,sans-Serif" font-size="10.00" fill="#000000">cstdio</text>
</g>
<!-- Node3&#45;&gt;Node5 -->
<g id="edge5" class="edge">
<title>Node3&#45;&gt;Node5</title>
<path fill="none" stroke="#191970" d="M477.6327,-56.2455C467.0446,-47.8943 451.5936,-35.7076 439.2107,-25.9408"/>
<polygon fill="#191970" stroke="#191970" points="441.2447,-23.0875 431.2255,-19.6427 436.9097,-28.5837 441.2447,-23.0875"/>
</g>
<!-- Node6 -->
<g id="node7" class="node">
<title>Node6</title>
<polygon fill="#ffffff" stroke="#bfbfbf" points="460,-.5 460,-19.5 520,-19.5 520,-.5 460,-.5"/>
<text text-anchor="middle" x="490" y="-7.5" font-family="Helvetica,sans-Serif" font-size="10.00" fill="#000000">iostream</text>
</g>
<!-- Node3&#45;&gt;Node6 -->
<g id="edge6" class="edge">
<title>Node3&#45;&gt;Node6</title>
<path fill="none" stroke="#191970" d="M490,-56.2455C490,-48.9382 490,-38.6944 490,-29.7046"/>
<polygon fill="#191970" stroke="#191970" points="493.5001,-29.6426 490,-19.6427 486.5001,-29.6427 493.5001,-29.6426"/>
</g>
<!-- Node7 -->
<g id="node8" class="node">
<title>Node7</title>
<polygon fill="#ffffff" stroke="#bfbfbf" points="604,-.5 604,-19.5 660,-19.5 660,-.5 604,-.5"/>
<text text-anchor="middle" x="632" y="-7.5" font-family="Helvetica,sans-Serif" font-size="10.00" fill="#000000">sstream</text>
</g>
<!-- Node3&#45;&gt;Node7 -->
<g id="edge7" class="edge">
<title>Node3&#45;&gt;Node7</title>
<path fill="none" stroke="#191970" d="M514.4107,-56.3733C537.6142,-47.2226 572.7038,-33.3844 598.5142,-23.2057"/>
<polygon fill="#191970" stroke="#191970" points="599.8892,-26.4258 607.9079,-19.5011 597.3211,-19.9139 599.8892,-26.4258"/>
</g>
<!-- Node8 -->
<g id="node9" class="node">
<title>Node8</title>
<polygon fill="#ffffff" stroke="#bfbfbf" points="538,-.5 538,-19.5 586,-19.5 586,-.5 538,-.5"/>
<text text-anchor="middle" x="562" y="-7.5" font-family="Helvetica,sans-Serif" font-size="10.00" fill="#000000">thread</text>
</g>
<!-- Node3&#45;&gt;Node8 -->
<g id="edge8" class="edge">
<title>Node3&#45;&gt;Node8</title>
<path fill="none" stroke="#191970" d="M502.5414,-56.2455C513.2787,-47.8943 528.9473,-35.7076 541.5047,-25.9408"/>
<polygon fill="#191970" stroke="#191970" points="543.8575,-28.5449 549.6023,-19.6427 539.5599,-23.0194 543.8575,-28.5449"/>
</g>
<!-- Node13&#45;&gt;Node7 -->
<g id="edge17" class="edge">
<title>Node13&#45;&gt;Node7</title>
<path fill="none" stroke="#191970" d="M655.5843,-168.4862C651.6323,-141.9293 640.4174,-66.5651 635.0008,-30.1655"/>
<polygon fill="#191970" stroke="#191970" points="638.3963,-29.2038 633.4625,-19.8279 631.4726,-30.2342 638.3963,-29.2038"/>
</g>
<!-- Node14 -->
<g id="node15" class="node">
<title>Node14</title>
<g id="a_node15"><a xlink:href="RaCore_8hpp.html" target="_top" xlink:title="Core/RaCore.hpp">
<polygon fill="#ffffff" stroke="#000000" points="506,-112.5 506,-131.5 604,-131.5 604,-112.5 506,-112.5"/>
<text text-anchor="middle" x="555" y="-119.5" font-family="Helvetica,sans-Serif" font-size="10.00" fill="#000000">Core/RaCore.hpp</text>
</a>
</g>
</g>
<!-- Node13&#45;&gt;Node14 -->
<g id="edge14" class="edge">
<title>Node13&#45;&gt;Node14</title>
<path fill="none" stroke="#191970" d="M639.233,-168.2455C623.2905,-159.4928 599.6741,-146.527 581.5011,-136.5496"/>
<polygon fill="#191970" stroke="#191970" points="583.0137,-133.3873 572.5634,-131.6427 579.6448,-139.5233 583.0137,-133.3873"/>
</g>
<!-- Node15 -->
<g id="node16" class="node">
<title>Node15</title>
<polygon fill="#ffffff" stroke="#bfbfbf" points="660,-112.5 660,-131.5 704,-131.5 704,-112.5 660,-112.5"/>
<text text-anchor="middle" x="682" y="-119.5" font-family="Helvetica,sans-Serif" font-size="10.00" fill="#000000">ctime</text>
</g>
<!-- Node13&#45;&gt;Node15 -->
<g id="edge16" class="edge">
<title>Node13&#45;&gt;Node15</title>
<path fill="none" stroke="#191970" d="M661.3547,-168.2455C664.7244,-160.6973 669.493,-150.0158 673.5983,-140.8197"/>
<polygon fill="#191970" stroke="#191970" points="676.8147,-142.2009 677.6952,-131.6427 670.4227,-139.3473 676.8147,-142.2009"/>
</g>
<!-- Node16 -->
<g id="node17" class="node">
<title>Node16</title>
<polygon fill="#ffffff" stroke="#bfbfbf" points="722,-112.5 722,-131.5 772,-131.5 772,-112.5 722,-112.5"/>
<text text-anchor="middle" x="747" y="-119.5" font-family="Helvetica,sans-Serif" font-size="10.00" fill="#000000">stdio.h</text>
</g>
<!-- Node13&#45;&gt;Node16 -->
<g id="edge18" class="edge">
<title>Node13&#45;&gt;Node16</title>
<path fill="none" stroke="#191970" d="M672.6768,-168.2455C686.4856,-159.6534 706.8193,-147.0014 722.7292,-137.1018"/>
<polygon fill="#191970" stroke="#191970" points="724.8613,-139.8974 731.5028,-131.6427 721.1632,-133.954 724.8613,-139.8974"/>
</g>
<!-- Node17 -->
<g id="node18" class="node">
<title>Node17</title>
<polygon fill="#ffffff" stroke="#bfbfbf" points="790,-112.5 790,-131.5 834,-131.5 834,-112.5 790,-112.5"/>
<text text-anchor="middle" x="812" y="-119.5" font-family="Helvetica,sans-Serif" font-size="10.00" fill="#000000">string</text>
</g>
<!-- Node13&#45;&gt;Node17 -->
<g id="edge19" class="edge">
<title>Node13&#45;&gt;Node17</title>
<path fill="none" stroke="#191970" d="M683.6454,-168.3733C710.4353,-158.6944 751.7403,-143.7712 780.2217,-133.4812"/>
<polygon fill="#191970" stroke="#191970" points="781.5005,-136.7407 789.7162,-130.0509 779.1219,-130.1572 781.5005,-136.7407"/>
</g>
<!-- Node14&#45;&gt;Node3 -->
<g id="edge15" class="edge">
<title>Node14&#45;&gt;Node3</title>
<path fill="none" stroke="#191970" d="M543.6779,-112.2455C534.0777,-103.9746 520.1108,-91.9416 508.8305,-82.2232"/>
<polygon fill="#191970" stroke="#191970" points="511.053,-79.5182 501.1924,-75.6427 506.484,-84.8214 511.053,-79.5182"/>
</g>
</g>
</svg>
