<?xml version="1.0" encoding="UTF-8" standalone="no"?>
<!DOCTYPE svg PUBLIC "-//W3C//DTD SVG 1.1//EN"
 "http://www.w3.org/Graphics/SVG/1.1/DTD/svg11.dtd">
<!-- Generated by graphviz version 2.40.1 (20161225.0304)
 -->
<!-- Title: src/GuiBase/TreeModel/TreeModel.hpp Pages: 1 -->
<svg width="381pt" height="240pt"
 viewBox="0.00 0.00 380.50 240.00" xmlns="http://www.w3.org/2000/svg" xmlns:xlink="http://www.w3.org/1999/xlink">
<g id="graph0" class="graph" transform="scale(1 1) rotate(0) translate(4 236)">
<title>src/GuiBase/TreeModel/TreeModel.hpp</title>
<polygon fill="#ffffff" stroke="transparent" points="-4,4 -4,-236 376.5,-236 376.5,4 -4,4"/>
<!-- Node12 -->
<g id="node1" class="node">
<title>Node12</title>
<polygon fill="#bfbfbf" stroke="#000000" points="172.5,-201.5 172.5,-231.5 299.5,-231.5 299.5,-201.5 172.5,-201.5"/>
<text text-anchor="start" x="180.5" y="-219.5" font-family="Helvetica,sans-Serif" font-size="10.00" fill="#000000">src/GuiBase/TreeModel</text>
<text text-anchor="middle" x="236" y="-208.5" font-family="Helvetica,sans-Serif" font-size="10.00" fill="#000000">/TreeModel.hpp</text>
</g>
<!-- Node13 -->
<g id="node2" class="node">
<title>Node13</title>
<g id="a_node2"><a xlink:href="EntityTreeModel_8hpp.html" target="_top" xlink:title="src/GuiBase/TreeModel\l/EntityTreeModel.hpp">
<polygon fill="#ffffff" stroke="#000000" points="100.5,-134.5 100.5,-164.5 227.5,-164.5 227.5,-134.5 100.5,-134.5"/>
<text text-anchor="start" x="108.5" y="-152.5" font-family="Helvetica,sans-Serif" font-size="10.00" fill="#000000">src/GuiBase/TreeModel</text>
<text text-anchor="middle" x="164" y="-141.5" font-family="Helvetica,sans-Serif" font-size="10.00" fill="#000000">/EntityTreeModel.hpp</text>
</a>
</g>
</g>
<!-- Node12&#45;&gt;Node13 -->
<g id="edge1" class="edge">
<title>Node12&#45;&gt;Node13</title>
<path fill="none" stroke="#191970" d="M212.048,-194.2113C201.6129,-184.5009 189.6512,-173.3698 180.2733,-164.6432"/>
<polygon fill="#191970" stroke="#191970" points="209.9571,-197.0466 219.6621,-201.2967 214.7257,-191.9221 209.9571,-197.0466"/>
</g>
<!-- Node17 -->
<g id="node6" class="node">
<title>Node17</title>
<g id="a_node6"><a xlink:href="TreeModel_8cpp.html" target="_top" xlink:title="src/GuiBase/TreeModel\l/TreeModel.cpp">
<polygon fill="#ffffff" stroke="#000000" points="245.5,-134.5 245.5,-164.5 372.5,-164.5 372.5,-134.5 245.5,-134.5"/>
<text text-anchor="start" x="253.5" y="-152.5" font-family="Helvetica,sans-Serif" font-size="10.00" fill="#000000">src/GuiBase/TreeModel</text>
<text text-anchor="middle" x="309" y="-141.5" font-family="Helvetica,sans-Serif" font-size="10.00" fill="#000000">/TreeModel.cpp</text>
</a>
</g>
</g>
<!-- Node12&#45;&gt;Node17 -->
<g id="edge5" class="edge">
<title>Node12&#45;&gt;Node17</title>
<path fill="none" stroke="#191970" d="M259.974,-194.4965C270.6267,-184.7193 282.8993,-173.4554 292.5007,-164.6432"/>
<polygon fill="#191970" stroke="#191970" points="257.5656,-191.9562 252.5648,-201.2967 262.2989,-197.1134 257.5656,-191.9562"/>
</g>
<!-- Node14 -->
<g id="node3" class="node">
<title>Node14</title>
<g id="a_node3"><a xlink:href="SelectionManager_8hpp.html" target="_top" xlink:title="src/GuiBase/SelectionManager\l/SelectionManager.hpp">
<polygon fill="#ffffff" stroke="#000000" points="0,-67.5 0,-97.5 164,-97.5 164,-67.5 0,-67.5"/>
<text text-anchor="start" x="8" y="-85.5" font-family="Helvetica,sans-Serif" font-size="10.00" fill="#000000">src/GuiBase/SelectionManager</text>
<text text-anchor="middle" x="82" y="-74.5" font-family="Helvetica,sans-Serif" font-size="10.00" fill="#000000">/SelectionManager.hpp</text>
</a>
</g>
</g>
<!-- Node13&#45;&gt;Node14 -->
<g id="edge2" class="edge">
<title>Node13&#45;&gt;Node14</title>
<path fill="none" stroke="#191970" d="M137.4183,-127.7808C125.3722,-117.9383 111.4233,-106.541 100.5334,-97.6432"/>
<polygon fill="#191970" stroke="#191970" points="135.4346,-130.6797 145.3929,-134.2967 139.8637,-125.2591 135.4346,-130.6797"/>
</g>
<!-- Node16 -->
<g id="node5" class="node">
<title>Node16</title>
<g id="a_node5"><a xlink:href="EntityTreeModel_8cpp.html" target="_top" xlink:title="src/GuiBase/TreeModel\l/EntityTreeModel.cpp">
<polygon fill="#ffffff" stroke="#000000" points="182.5,-67.5 182.5,-97.5 309.5,-97.5 309.5,-67.5 182.5,-67.5"/>
<text text-anchor="start" x="190.5" y="-85.5" font-family="Helvetica,sans-Serif" font-size="10.00" fill="#000000">src/GuiBase/TreeModel</text>
<text text-anchor="middle" x="246" y="-74.5" font-family="Helvetica,sans-Serif" font-size="10.00" fill="#000000">/EntityTreeModel.cpp</text>
</a>
</g>
</g>
<!-- Node13&#45;&gt;Node16 -->
<g id="edge4" class="edge">
<title>Node13&#45;&gt;Node16</title>
<path fill="none" stroke="#191970" d="M190.5817,-127.7808C202.6278,-117.9383 216.5767,-106.541 227.4666,-97.6432"/>
<polygon fill="#191970" stroke="#191970" points="188.1363,-125.2591 182.6071,-134.2967 192.5654,-130.6797 188.1363,-125.2591"/>
</g>
<!-- Node15 -->
<g id="node4" class="node">
<title>Node15</title>
<g id="a_node4"><a xlink:href="SelectionManager_8cpp.html" target="_top" xlink:title="src/GuiBase/SelectionManager\l/SelectionManager.cpp">
<polygon fill="#ffffff" stroke="#000000" points="0,-.5 0,-30.5 164,-30.5 164,-.5 0,-.5"/>
<text text-anchor="start" x="8" y="-18.5" font-family="Helvetica,sans-Serif" font-size="10.00" fill="#000000">src/GuiBase/SelectionManager</text>
<text text-anchor="middle" x="82" y="-7.5" font-family="Helvetica,sans-Serif" font-size="10.00" fill="#000000">/SelectionManager.cpp</text>
</a>
</g>
</g>
<!-- Node14&#45;&gt;Node15 -->
<g id="edge3" class="edge">
<title>Node14&#45;&gt;Node15</title>
<path fill="none" stroke="#191970" d="M82,-57.0249C82,-48.128 82,-38.4287 82,-30.6432"/>
<polygon fill="#191970" stroke="#191970" points="78.5001,-57.2966 82,-67.2967 85.5001,-57.2967 78.5001,-57.2966"/>
</g>
</g>
</svg>
