<?xml version="1.0" encoding="UTF-8" standalone="no"?>
<!DOCTYPE svg PUBLIC "-//W3C//DTD SVG 1.1//EN"
 "http://www.w3.org/Graphics/SVG/1.1/DTD/svg11.dtd">
<!-- Generated by graphviz version 2.40.1 (20161225.0304)
 -->
<!-- Title: src/Core/Geometry/Volume.hpp Pages: 1 -->
<!--zoomable 162 -->
<svg id="main" version="1.1" xmlns="http://www.w3.org/2000/svg" xmlns:xlink="http://www.w3.org/1999/xlink" xml:space="preserve" onload="init(evt)">
<style type="text/css"><![CDATA[
.edge:hover path { stroke: red; }
.edge:hover polygon { stroke: red; fill: red; }
]]></style>
<script type="text/javascript"><![CDATA[
var edges = document.getElementsByTagName('g');
if (edges && edges.length) {
  for (var i=0;i<edges.length;i++) {
    if (edges[i].id.substr(0,4)=='edge') {
      edges[i].setAttribute('class','edge');
    }
  }
}
]]></script>
        <defs>
                <circle id="rim" cx="0" cy="0" r="7"/>
                <circle id="rim2" cx="0" cy="0" r="3.5"/>
                <g id="zoomPlus">
                        <use xlink:href="#rim" fill="#404040">
                                <set attributeName="fill" to="#808080" begin="zoomplus.mouseover" end="zoomplus.mouseout"/>
                        </use>
                        <path d="M-4,0h8M0,-4v8" fill="none" stroke="white" stroke-width="1.5" pointer-events="none"/>
                </g>
                <g id="zoomMin">
                        <use xlink:href="#rim" fill="#404040">
                                <set attributeName="fill" to="#808080" begin="zoomminus.mouseover" end="zoomminus.mouseout"/>
                        </use>
                        <path d="M-4,0h8" fill="none" stroke="white" stroke-width="1.5" pointer-events="none"/>
                </g>
                <g id="dirArrow">
                        <path fill="none" stroke="white" stroke-width="1.5" d="M0,-3.0v7 M-2.5,-0.5L0,-3.0L2.5,-0.5"/>
                </g>
               <g id="resetDef">
                       <use xlink:href="#rim2" fill="#404040">
                               <set attributeName="fill" to="#808080" begin="reset.mouseover" end="reset.mouseout"/>
                       </use>
               </g>
        </defs>

<script type="text/javascript">
var viewWidth = 528;
var viewHeight = 162;
var sectionId = 'dynsection-1';
</script>
<script xlink:href="svgpan.js"/>
<svg id="graph" class="graph">
<g id="viewport">
<title>src/Core/Geometry/Volume.hpp</title>
<polygon fill="#ffffff" stroke="transparent" points="-4,4 -4,-158 523.5,-158 523.5,4 -4,4"/>
<!-- Node15 -->
<g id="node1" class="node">
<title>Node15</title>
<polygon fill="#bfbfbf" stroke="#000000" points="174.5,-134.5 174.5,-153.5 343.5,-153.5 343.5,-134.5 174.5,-134.5"/>
<text text-anchor="middle" x="259" y="-141.5" font-family="Helvetica,sans-Serif" font-size="10.00" fill="#000000">src/Core/Geometry/Volume.hpp</text>
</g>
<!-- Node16 -->
<g id="node2" class="node">
<title>Node16</title>
<g id="a_node2"><a xlink:href="Volume_8cpp.html" target="_top" xlink:title="src/Core/Geometry/Volume.cpp">
<polygon fill="#ffffff" stroke="#000000" points="0,-73 0,-92 168,-92 168,-73 0,-73"/>
<text text-anchor="middle" x="84" y="-80" font-family="Helvetica,sans-Serif" font-size="10.00" fill="#000000">src/Core/Geometry/Volume.cpp</text>
</a>
</g>
</g>
<!-- Node15&#45;&gt;Node16 -->
<g id="edge1" class="edge">
<title>Node15&#45;&gt;Node16</title>
<path fill="none" stroke="#191970" d="M221.8669,-130.9504C188.6915,-119.2916 140.8684,-102.4852 111.1517,-92.0419"/>
<polygon fill="#191970" stroke="#191970" points="221.0614,-134.3771 231.6563,-134.3906 223.3823,-127.773 221.0614,-134.3771"/>
</g>
<!-- Node17 -->
<g id="node3" class="node">
<title>Node17</title>
<g id="a_node3"><a xlink:href="GeometryComponent_8hpp.html" target="_top" xlink:title="src/Engine/Component\l/GeometryComponent.hpp">
<polygon fill="#ffffff" stroke="#000000" points="186,-67.5 186,-97.5 332,-97.5 332,-67.5 186,-67.5"/>
<text text-anchor="start" x="194" y="-85.5" font-family="Helvetica,sans-Serif" font-size="10.00" fill="#000000">src/Engine/Component</text>
<text text-anchor="middle" x="259" y="-74.5" font-family="Helvetica,sans-Serif" font-size="10.00" fill="#000000">/GeometryComponent.hpp</text>
</a>
</g>
</g>
<!-- Node15&#45;&gt;Node17 -->
<g id="edge2" class="edge">
<title>Node15&#45;&gt;Node17</title>
<path fill="none" stroke="#191970" d="M259,-124.3693C259,-115.681 259,-105.6241 259,-97.5446"/>
<polygon fill="#191970" stroke="#191970" points="255.5001,-124.3906 259,-134.3906 262.5001,-124.3907 255.5001,-124.3906"/>
</g>
<!-- Node20 -->
<g id="node6" class="node">
<title>Node20</title>
<g id="a_node6"><a xlink:href="VolumeObject_8cpp.html" target="_top" xlink:title="src/Engine/Renderer\l/Displayable/VolumeObject.cpp">
<polygon fill="#ffffff" stroke="#000000" points="350.5,-67.5 350.5,-97.5 519.5,-97.5 519.5,-67.5 350.5,-67.5"/>
<text text-anchor="start" x="358.5" y="-85.5" font-family="Helvetica,sans-Serif" font-size="10.00" fill="#000000">src/Engine/Renderer</text>
<text text-anchor="middle" x="435" y="-74.5" font-family="Helvetica,sans-Serif" font-size="10.00" fill="#000000">/Displayable/VolumeObject.cpp</text>
</a>
</g>
</g>
<!-- Node15&#45;&gt;Node20 -->
<g id="edge5" class="edge">
<title>Node15&#45;&gt;Node20</title>
<path fill="none" stroke="#191970" d="M296.3049,-130.9645C324.2909,-121.1853 362.6579,-107.7786 391.9456,-97.5446"/>
<polygon fill="#191970" stroke="#191970" points="294.7857,-127.7877 286.5,-134.3906 297.0948,-134.3959 294.7857,-127.7877"/>
</g>
<!-- Node18 -->
<g id="node4" class="node">
<title>Node18</title>
<g id="a_node4"><a xlink:href="GeometryComponent_8cpp.html" target="_top" xlink:title="src/Engine/Component\l/GeometryComponent.cpp">
<polygon fill="#ffffff" stroke="#000000" points="101.5,-.5 101.5,-30.5 246.5,-30.5 246.5,-.5 101.5,-.5"/>
<text text-anchor="start" x="109.5" y="-18.5" font-family="Helvetica,sans-Serif" font-size="10.00" fill="#000000">src/Engine/Component</text>
<text text-anchor="middle" x="174" y="-7.5" font-family="Helvetica,sans-Serif" font-size="10.00" fill="#000000">/GeometryComponent.cpp</text>
</a>
</g>
</g>
<!-- Node17&#45;&gt;Node18 -->
<g id="edge3" class="edge">
<title>Node17&#45;&gt;Node18</title>
<path fill="none" stroke="#191970" d="M231.8055,-61.0643C219.2374,-51.1577 204.6083,-39.6265 193.2115,-30.6432"/>
<polygon fill="#191970" stroke="#191970" points="229.6919,-63.8549 239.7122,-67.2967 234.0253,-58.3574 229.6919,-63.8549"/>
</g>
<!-- Node19 -->
<g id="node5" class="node">
<title>Node19</title>
<g id="a_node5"><a xlink:href="GeometrySystem_8cpp.html" target="_top" xlink:title="src/Engine/System/Geometry\lSystem.cpp">
<polygon fill="#ffffff" stroke="#000000" points="265,-.5 265,-30.5 423,-30.5 423,-.5 265,-.5"/>
<text text-anchor="start" x="273" y="-18.5" font-family="Helvetica,sans-Serif" font-size="10.00" fill="#000000">src/Engine/System/Geometry</text>
<text text-anchor="middle" x="344" y="-7.5" font-family="Helvetica,sans-Serif" font-size="10.00" fill="#000000">System.cpp</text>
</a>
</g>
</g>
<!-- Node17&#45;&gt;Node19 -->
<g id="edge4" class="edge">
<title>Node17&#45;&gt;Node19</title>
<path fill="none" stroke="#191970" d="M286.1945,-61.0643C298.7626,-51.1577 313.3917,-39.6265 324.7885,-30.6432"/>
<polygon fill="#191970" stroke="#191970" points="283.9747,-58.3574 278.2878,-67.2967 288.3081,-63.8549 283.9747,-58.3574"/>
</g>
</g>
</svg>
        <g id="navigator" transform="translate(0 0)" fill="#404254">
                <rect fill="#f2f5e9" fill-opacity="0.5" stroke="#606060" stroke-width=".5" x="0" y="0" width="60" height="60"/>
                <use id="zoomplus" xlink:href="#zoomPlus" x="17" y="9" onmousedown="handleZoom(evt,'in')"/>
                <use id="zoomminus" xlink:href="#zoomMin" x="42" y="9" onmousedown="handleZoom(evt,'out')"/>
                <use id="reset" xlink:href="#resetDef" x="30" y="36" onmousedown="handleReset()"/>
                <g id="arrowUp" xlink:href="#dirArrow" transform="translate(30 24)" onmousedown="handlePan(0,-1)">
                  <use xlink:href="#rim" fill="#404040">
                        <set attributeName="fill" to="#808080" begin="arrowUp.mouseover" end="arrowUp.mouseout"/>
                  </use>
                  <path fill="none" stroke="white" stroke-width="1.5" d="M0,-3.0v7 M-2.5,-0.5L0,-3.0L2.5,-0.5"/>
                </g>
                <g id="arrowRight" xlink:href="#dirArrow" transform="rotate(90) translate(36 -43)" onmousedown="handlePan(1,0)">
                  <use xlink:href="#rim" fill="#404040">
                        <set attributeName="fill" to="#808080" begin="arrowRight.mouseover" end="arrowRight.mouseout"/>
                  </use>
                  <path fill="none" stroke="white" stroke-width="1.5" d="M0,-3.0v7 M-2.5,-0.5L0,-3.0L2.5,-0.5"/>
                </g>
                <g id="arrowDown" xlink:href="#dirArrow" transform="rotate(180) translate(-30 -48)" onmousedown="handlePan(0,1)">
                  <use xlink:href="#rim" fill="#404040">
                        <set attributeName="fill" to="#808080" begin="arrowDown.mouseover" end="arrowDown.mouseout"/>
                  </use>
                  <path fill="none" stroke="white" stroke-width="1.5" d="M0,-3.0v7 M-2.5,-0.5L0,-3.0L2.5,-0.5"/>
                </g>
                <g id="arrowLeft" xlink:href="#dirArrow" transform="rotate(270) translate(-36 17)" onmousedown="handlePan(-1,0)">
                  <use xlink:href="#rim" fill="#404040">
                        <set attributeName="fill" to="#808080" begin="arrowLeft.mouseover" end="arrowLeft.mouseout"/>
                  </use>
                  <path fill="none" stroke="white" stroke-width="1.5" d="M0,-3.0v7 M-2.5,-0.5L0,-3.0L2.5,-0.5"/>
                </g>
        </g>
        <svg viewBox="0 0 15 15" width="100%" height="30px" preserveAspectRatio="xMaxYMin meet">
         <g id="arrow_out" transform="scale(0.3 0.3)">
          <a xlink:href="Volume_8hpp__dep__incl_org.svg" target="_base">
           <rect id="button" ry="5" rx="5" y="6" x="6" height="38" width="38"
                fill="#f2f5e9" fill-opacity="0.5" stroke="#606060" stroke-width="1.0"/>
           <path id="arrow"
             d="M 11.500037,31.436501 C 11.940474,20.09759 22.043105,11.32322 32.158766,21.979434 L 37.068811,17.246167 C 37.068811,17.246167 37.088388,32 37.088388,32 L 22.160133,31.978069 C 22.160133,31.978069 26.997745,27.140456 26.997745,27.140456 C 18.528582,18.264221 13.291696,25.230495 11.500037,31.436501 z"
             style="fill:#404040;"/>
          </a>
         </g>
        </svg>
</svg>
