<?xml version="1.0" encoding="UTF-8" standalone="no"?>
<!DOCTYPE svg PUBLIC "-//W3C//DTD SVG 1.1//EN"
 "http://www.w3.org/Graphics/SVG/1.1/DTD/svg11.dtd">
<!-- Generated by graphviz version 2.40.1 (20161225.0304)
 -->
<!-- Title: src/GuiBase/Viewer/WindowQt.hpp Pages: 1 -->
<svg width="467pt" height="173pt"
 viewBox="0.00 0.00 466.50 173.00" xmlns="http://www.w3.org/2000/svg" xmlns:xlink="http://www.w3.org/1999/xlink">
<g id="graph0" class="graph" transform="scale(1 1) rotate(0) translate(4 169)">
<title>src/GuiBase/Viewer/WindowQt.hpp</title>
<polygon fill="#ffffff" stroke="transparent" points="-4,4 -4,-169 462.5,-169 462.5,4 -4,4"/>
<!-- Node12 -->
<g id="node1" class="node">
<title>Node12</title>
<polygon fill="#bfbfbf" stroke="#000000" points="270.5,-134.5 270.5,-164.5 381.5,-164.5 381.5,-134.5 270.5,-134.5"/>
<text text-anchor="start" x="278.5" y="-152.5" font-family="Helvetica,sans-Serif" font-size="10.00" fill="#000000">src/GuiBase/Viewer</text>
<text text-anchor="middle" x="326" y="-141.5" font-family="Helvetica,sans-Serif" font-size="10.00" fill="#000000">/WindowQt.hpp</text>
</g>
<!-- Node13 -->
<g id="node2" class="node">
<title>Node13</title>
<g id="a_node2"><a xlink:href="Viewer_8hpp.html" target="_top" xlink:title="src/GuiBase/Viewer\l/Viewer.hpp">
<polygon fill="#ffffff" stroke="#000000" points="206.5,-67.5 206.5,-97.5 317.5,-97.5 317.5,-67.5 206.5,-67.5"/>
<text text-anchor="start" x="214.5" y="-85.5" font-family="Helvetica,sans-Serif" font-size="10.00" fill="#000000">src/GuiBase/Viewer</text>
<text text-anchor="middle" x="262" y="-74.5" font-family="Helvetica,sans-Serif" font-size="10.00" fill="#000000">/Viewer.hpp</text>
</a>
</g>
</g>
<!-- Node12&#45;&gt;Node13 -->
<g id="edge1" class="edge">
<title>Node12&#45;&gt;Node13</title>
<path fill="none" stroke="#191970" d="M304.4361,-126.9253C295.2254,-117.2828 284.7193,-106.2843 276.4651,-97.6432"/>
<polygon fill="#191970" stroke="#191970" points="302.0392,-129.4831 311.4774,-134.2967 307.101,-124.648 302.0392,-129.4831"/>
</g>
<!-- Node17 -->
<g id="node6" class="node">
<title>Node17</title>
<g id="a_node6"><a xlink:href="WindowQt_8cpp.html" target="_top" xlink:title="src/GuiBase/Viewer\l/WindowQt.cpp">
<polygon fill="#ffffff" stroke="#000000" points="335.5,-67.5 335.5,-97.5 446.5,-97.5 446.5,-67.5 335.5,-67.5"/>
<text text-anchor="start" x="343.5" y="-85.5" font-family="Helvetica,sans-Serif" font-size="10.00" fill="#000000">src/GuiBase/Viewer</text>
<text text-anchor="middle" x="391" y="-74.5" font-family="Helvetica,sans-Serif" font-size="10.00" fill="#000000">/WindowQt.cpp</text>
</a>
</g>
</g>
<!-- Node12&#45;&gt;Node17 -->
<g id="edge5" class="edge">
<title>Node12&#45;&gt;Node17</title>
<path fill="none" stroke="#191970" d="M347.9008,-126.9253C357.2555,-117.2828 367.9257,-106.2843 376.3089,-97.6432"/>
<polygon fill="#191970" stroke="#191970" points="345.2006,-124.6821 340.7495,-134.2967 350.2248,-129.5564 345.2006,-124.6821"/>
</g>
<!-- Node14 -->
<g id="node3" class="node">
<title>Node14</title>
<g id="a_node3"><a xlink:href="BaseApplication_8cpp.html" target="_top" xlink:title="src/GuiBase/BaseApplication.cpp">
<polygon fill="#ffffff" stroke="#000000" points="0,-6 0,-25 176,-25 176,-6 0,-6"/>
<text text-anchor="middle" x="88" y="-13" font-family="Helvetica,sans-Serif" font-size="10.00" fill="#000000">src/GuiBase/BaseApplication.cpp</text>
</a>
</g>
</g>
<!-- Node13&#45;&gt;Node14 -->
<g id="edge2" class="edge">
<title>Node13&#45;&gt;Node14</title>
<path fill="none" stroke="#191970" d="M213.5345,-63.838C180.7527,-51.2151 138.8233,-35.0699 112.6854,-25.0053"/>
<polygon fill="#191970" stroke="#191970" points="212.3612,-67.1367 222.951,-67.4639 214.8766,-60.6042 212.3612,-67.1367"/>
</g>
<!-- Node15 -->
<g id="node4" class="node">
<title>Node15</title>
<g id="a_node4"><a xlink:href="CameraManipulator_8cpp.html" target="_top" xlink:title="src/GuiBase/Viewer\l/CameraManipulator.cpp">
<polygon fill="#ffffff" stroke="#000000" points="194.5,-.5 194.5,-30.5 329.5,-30.5 329.5,-.5 194.5,-.5"/>
<text text-anchor="start" x="202.5" y="-18.5" font-family="Helvetica,sans-Serif" font-size="10.00" fill="#000000">src/GuiBase/Viewer</text>
<text text-anchor="middle" x="262" y="-7.5" font-family="Helvetica,sans-Serif" font-size="10.00" fill="#000000">/CameraManipulator.cpp</text>
</a>
</g>
</g>
<!-- Node13&#45;&gt;Node15 -->
<g id="edge3" class="edge">
<title>Node13&#45;&gt;Node15</title>
<path fill="none" stroke="#191970" d="M262,-57.0249C262,-48.128 262,-38.4287 262,-30.6432"/>
<polygon fill="#191970" stroke="#191970" points="258.5001,-57.2966 262,-67.2967 265.5001,-57.2967 258.5001,-57.2966"/>
</g>
<!-- Node16 -->
<g id="node5" class="node">
<title>Node16</title>
<g id="a_node5"><a xlink:href="Viewer_8cpp.html" target="_top" xlink:title="src/GuiBase/Viewer\l/Viewer.cpp">
<polygon fill="#ffffff" stroke="#000000" points="347.5,-.5 347.5,-30.5 458.5,-30.5 458.5,-.5 347.5,-.5"/>
<text text-anchor="start" x="355.5" y="-18.5" font-family="Helvetica,sans-Serif" font-size="10.00" fill="#000000">src/GuiBase/Viewer</text>
<text text-anchor="middle" x="403" y="-7.5" font-family="Helvetica,sans-Serif" font-size="10.00" fill="#000000">/Viewer.cpp</text>
</a>
</g>
</g>
<!-- Node13&#45;&gt;Node16 -->
<g id="edge4" class="edge">
<title>Node13&#45;&gt;Node16</title>
<path fill="none" stroke="#191970" d="M302.9283,-63.0518C324.5941,-52.7567 350.8108,-40.2991 370.9746,-30.7177"/>
<polygon fill="#191970" stroke="#191970" points="301.1731,-60.0107 293.6432,-67.4639 304.1775,-66.3332 301.1731,-60.0107"/>
</g>
</g>
</svg>
