<?xml version="1.0" encoding="UTF-8" standalone="no"?>
<!DOCTYPE svg PUBLIC "-//W3C//DTD SVG 1.1//EN"
 "http://www.w3.org/Graphics/SVG/1.1/DTD/svg11.dtd">
<!-- Generated by graphviz version 2.40.1 (20161225.0304)
 -->
<!-- Title: src/GuiBase/Viewer/WindowQt.cpp Pages: 1 -->
<!--zoomable 263 -->
<svg id="main" version="1.1" xmlns="http://www.w3.org/2000/svg" xmlns:xlink="http://www.w3.org/1999/xlink" xml:space="preserve" onload="init(evt)">
<style type="text/css"><![CDATA[
.edge:hover path { stroke: red; }
.edge:hover polygon { stroke: red; fill: red; }
]]></style>
<script type="text/javascript"><![CDATA[
var edges = document.getElementsByTagName('g');
if (edges && edges.length) {
  for (var i=0;i<edges.length;i++) {
    if (edges[i].id.substr(0,4)=='edge') {
      edges[i].setAttribute('class','edge');
    }
  }
}
]]></script>
        <defs>
                <circle id="rim" cx="0" cy="0" r="7"/>
                <circle id="rim2" cx="0" cy="0" r="3.5"/>
                <g id="zoomPlus">
                        <use xlink:href="#rim" fill="#404040">
                                <set attributeName="fill" to="#808080" begin="zoomplus.mouseover" end="zoomplus.mouseout"/>
                        </use>
                        <path d="M-4,0h8M0,-4v8" fill="none" stroke="white" stroke-width="1.5" pointer-events="none"/>
                </g>
                <g id="zoomMin">
                        <use xlink:href="#rim" fill="#404040">
                                <set attributeName="fill" to="#808080" begin="zoomminus.mouseover" end="zoomminus.mouseout"/>
                        </use>
                        <path d="M-4,0h8" fill="none" stroke="white" stroke-width="1.5" pointer-events="none"/>
                </g>
                <g id="dirArrow">
                        <path fill="none" stroke="white" stroke-width="1.5" d="M0,-3.0v7 M-2.5,-0.5L0,-3.0L2.5,-0.5"/>
                </g>
               <g id="resetDef">
                       <use xlink:href="#rim2" fill="#404040">
                               <set attributeName="fill" to="#808080" begin="reset.mouseover" end="reset.mouseout"/>
                       </use>
               </g>
        </defs>

<script type="text/javascript">
var viewWidth = 1068;
var viewHeight = 263;
var sectionId = 'dynsection-0';
</script>
<script xlink:href="svgpan.js"/>
<svg id="graph" class="graph">
<g id="viewport">
<title>src/GuiBase/Viewer/WindowQt.cpp</title>
<polygon fill="#ffffff" stroke="transparent" points="-4,4 -4,-259 1064,-259 1064,4 -4,4"/>
<!-- Node0 -->
<g id="node1" class="node">
<title>Node0</title>
<polygon fill="#bfbfbf" stroke="#000000" points="529.5,-224.5 529.5,-254.5 640.5,-254.5 640.5,-224.5 529.5,-224.5"/>
<text text-anchor="start" x="537.5" y="-242.5" font-family="Helvetica,sans-Serif" font-size="10.00" fill="#000000">src/GuiBase/Viewer</text>
<text text-anchor="middle" x="585" y="-231.5" font-family="Helvetica,sans-Serif" font-size="10.00" fill="#000000">/WindowQt.cpp</text>
</g>
<!-- Node1 -->
<g id="node2" class="node">
<title>Node1</title>
<g id="a_node2"><a xlink:href="WindowQt_8hpp.html" target="_top" xlink:title="WindowQt.hpp">
<polygon fill="#ffffff" stroke="#000000" points="203,-168.5 203,-187.5 291,-187.5 291,-168.5 203,-168.5"/>
<text text-anchor="middle" x="247" y="-175.5" font-family="Helvetica,sans-Serif" font-size="10.00" fill="#000000">WindowQt.hpp</text>
</a>
</g>
</g>
<!-- Node0&#45;&gt;Node1 -->
<g id="edge1" class="edge">
<title>Node0&#45;&gt;Node1</title>
<path fill="none" stroke="#191970" d="M529.3344,-229.6772C473.87,-219.8446 385.9884,-204.1431 301.2912,-188.4142"/>
<polygon fill="#191970" stroke="#191970" points="301.7194,-184.9339 291.2479,-186.5461 300.4393,-191.8158 301.7194,-184.9339"/>
</g>
<!-- Node13 -->
<g id="node14" class="node">
<title>Node13</title>
<polygon fill="#ffffff" stroke="#bfbfbf" points="308.5,-168.5 308.5,-187.5 387.5,-187.5 387.5,-168.5 308.5,-168.5"/>
<text text-anchor="middle" x="348" y="-175.5" font-family="Helvetica,sans-Serif" font-size="10.00" fill="#000000">QApplication</text>
</g>
<!-- Node0&#45;&gt;Node13 -->
<g id="edge13" class="edge">
<title>Node0&#45;&gt;Node13</title>
<path fill="none" stroke="#191970" d="M529.434,-225.081C488.4906,-214.4564 433.4265,-200.1676 394.7357,-190.1276"/>
<polygon fill="#191970" stroke="#191970" points="395.3359,-186.6675 384.7773,-187.5435 393.5776,-193.4431 395.3359,-186.6675"/>
</g>
<!-- Node14 -->
<g id="node15" class="node">
<title>Node14</title>
<polygon fill="#ffffff" stroke="#bfbfbf" points="405,-168.5 405,-187.5 461,-187.5 461,-168.5 405,-168.5"/>
<text text-anchor="middle" x="433" y="-175.5" font-family="Helvetica,sans-Serif" font-size="10.00" fill="#000000">QDebug</text>
</g>
<!-- Node0&#45;&gt;Node14 -->
<g id="edge14" class="edge">
<title>Node0&#45;&gt;Node14</title>
<path fill="none" stroke="#191970" d="M547.8166,-224.4554C522.7887,-214.329 490.0837,-201.0964 465.9834,-191.3453"/>
<polygon fill="#191970" stroke="#191970" points="467.1373,-188.0366 456.5546,-187.5303 464.5118,-194.5256 467.1373,-188.0366"/>
</g>
<!-- Node15 -->
<g id="node16" class="node">
<title>Node15</title>
<polygon fill="#ffffff" stroke="#bfbfbf" points="479.5,-168.5 479.5,-187.5 580.5,-187.5 580.5,-168.5 479.5,-168.5"/>
<text text-anchor="middle" x="530" y="-175.5" font-family="Helvetica,sans-Serif" font-size="10.00" fill="#000000">QOpenGLContext</text>
</g>
<!-- Node0&#45;&gt;Node15 -->
<g id="edge15" class="edge">
<title>Node0&#45;&gt;Node15</title>
<path fill="none" stroke="#191970" d="M571.4045,-224.2977C563.6109,-215.5831 553.7953,-204.6075 545.6774,-195.5302"/>
<polygon fill="#191970" stroke="#191970" points="548.0813,-192.9678 538.8062,-187.8469 542.8635,-197.6341 548.0813,-192.9678"/>
</g>
<!-- Node16 -->
<g id="node17" class="node">
<title>Node16</title>
<polygon fill="#ffffff" stroke="#bfbfbf" points="598.5,-168.5 598.5,-187.5 681.5,-187.5 681.5,-168.5 598.5,-168.5"/>
<text text-anchor="middle" x="640" y="-175.5" font-family="Helvetica,sans-Serif" font-size="10.00" fill="#000000">QResizeEvent</text>
</g>
<!-- Node0&#45;&gt;Node16 -->
<g id="edge16" class="edge">
<title>Node0&#45;&gt;Node16</title>
<path fill="none" stroke="#191970" d="M598.5955,-224.2977C606.3891,-215.5831 616.2047,-204.6075 624.3226,-195.5302"/>
<polygon fill="#191970" stroke="#191970" points="627.1365,-197.6341 631.1938,-187.8469 621.9187,-192.9678 627.1365,-197.6341"/>
</g>
<!-- Node17 -->
<g id="node18" class="node">
<title>Node17</title>
<polygon fill="#ffffff" stroke="#bfbfbf" points="699.5,-168.5 699.5,-187.5 756.5,-187.5 756.5,-168.5 699.5,-168.5"/>
<text text-anchor="middle" x="728" y="-175.5" font-family="Helvetica,sans-Serif" font-size="10.00" fill="#000000">QScreen</text>
</g>
<!-- Node0&#45;&gt;Node17 -->
<g id="edge17" class="edge">
<title>Node0&#45;&gt;Node17</title>
<path fill="none" stroke="#191970" d="M619.9817,-224.4554C643.3184,-214.419 673.7498,-201.3314 696.363,-191.6061"/>
<polygon fill="#191970" stroke="#191970" points="698.0364,-194.6965 705.8401,-187.5303 695.2708,-188.2659 698.0364,-194.6965"/>
</g>
<!-- Node18 -->
<g id="node19" class="node">
<title>Node18</title>
<polygon fill="#ffffff" stroke="#bfbfbf" points="774.5,-168.5 774.5,-187.5 869.5,-187.5 869.5,-168.5 774.5,-168.5"/>
<text text-anchor="middle" x="822" y="-175.5" font-family="Helvetica,sans-Serif" font-size="10.00" fill="#000000">QSurfaceFormat</text>
</g>
<!-- Node0&#45;&gt;Node18 -->
<g id="edge18" class="edge">
<title>Node0&#45;&gt;Node18</title>
<path fill="none" stroke="#191970" d="M640.566,-225.081C681.5094,-214.4564 736.5735,-200.1676 775.2643,-190.1276"/>
<polygon fill="#191970" stroke="#191970" points="776.4224,-193.4431 785.2227,-187.5435 774.6641,-186.6675 776.4224,-193.4431"/>
</g>
<!-- Node19 -->
<g id="node20" class="node">
<title>Node19</title>
<g id="a_node20"><a xlink:href="Log_8hpp.html" target="_top" xlink:title="Core/Utils/Log.hpp">
<polygon fill="#ffffff" stroke="#000000" points="888,-168.5 888,-187.5 994,-187.5 994,-168.5 888,-168.5"/>
<text text-anchor="middle" x="941" y="-175.5" font-family="Helvetica,sans-Serif" font-size="10.00" fill="#000000">Core/Utils/Log.hpp</text>
</a>
</g>
</g>
<!-- Node0&#45;&gt;Node19 -->
<g id="edge19" class="edge">
<title>Node0&#45;&gt;Node19</title>
<path fill="none" stroke="#191970" d="M640.625,-229.8906C704.8908,-218.7885 810.4058,-200.5605 877.7419,-188.928"/>
<polygon fill="#191970" stroke="#191970" points="878.5412,-192.3419 887.7994,-187.1906 877.3495,-185.444 878.5412,-192.3419"/>
</g>
<!-- Node2 -->
<g id="node3" class="node">
<title>Node2</title>
<g id="a_node3"><a xlink:href="RaGuiBase_8hpp.html" target="_top" xlink:title="GuiBase/RaGuiBase.hpp">
<polygon fill="#ffffff" stroke="#000000" points="0,-112.5 0,-131.5 134,-131.5 134,-112.5 0,-112.5"/>
<text text-anchor="middle" x="67" y="-119.5" font-family="Helvetica,sans-Serif" font-size="10.00" fill="#000000">GuiBase/RaGuiBase.hpp</text>
</a>
</g>
</g>
<!-- Node1&#45;&gt;Node2 -->
<g id="edge2" class="edge">
<title>Node1&#45;&gt;Node2</title>
<path fill="none" stroke="#191970" d="M216.0569,-168.3733C185.9961,-159.021 140.1974,-144.7725 107.3022,-134.5385"/>
<polygon fill="#191970" stroke="#191970" points="108.1277,-131.1299 97.5393,-131.5011 106.0481,-137.8139 108.1277,-131.1299"/>
</g>
<!-- Node9 -->
<g id="node10" class="node">
<title>Node9</title>
<polygon fill="#ffffff" stroke="#bfbfbf" points="152,-112.5 152,-131.5 246,-131.5 246,-112.5 152,-112.5"/>
<text text-anchor="middle" x="199" y="-119.5" font-family="Helvetica,sans-Serif" font-size="10.00" fill="#000000">QScopedPointer</text>
</g>
<!-- Node1&#45;&gt;Node9 -->
<g id="edge9" class="edge">
<title>Node1&#45;&gt;Node9</title>
<path fill="none" stroke="#191970" d="M238.639,-168.2455C231.825,-160.2958 222.0319,-148.8706 213.8848,-139.3656"/>
<polygon fill="#191970" stroke="#191970" points="216.4305,-136.9575 207.2651,-131.6427 211.1157,-141.513 216.4305,-136.9575"/>
</g>
<!-- Node10 -->
<g id="node11" class="node">
<title>Node10</title>
<polygon fill="#ffffff" stroke="#bfbfbf" points="264.5,-112.5 264.5,-131.5 327.5,-131.5 327.5,-112.5 264.5,-112.5"/>
<text text-anchor="middle" x="296" y="-119.5" font-family="Helvetica,sans-Serif" font-size="10.00" fill="#000000">QWindow</text>
</g>
<!-- Node1&#45;&gt;Node10 -->
<g id="edge10" class="edge">
<title>Node1&#45;&gt;Node10</title>
<path fill="none" stroke="#191970" d="M255.5351,-168.2455C262.4912,-160.2958 272.4883,-148.8706 280.8051,-139.3656"/>
<polygon fill="#191970" stroke="#191970" points="283.6116,-141.4732 287.5627,-131.6427 278.3436,-136.8637 283.6116,-141.4732"/>
</g>
<!-- Node11 -->
<g id="node12" class="node">
<title>Node11</title>
<polygon fill="#ffffff" stroke="#bfbfbf" points="346,-112.5 346,-131.5 480,-131.5 480,-112.5 346,-112.5"/>
<text text-anchor="middle" x="413" y="-119.5" font-family="Helvetica,sans-Serif" font-size="10.00" fill="#000000">glbinding/ProcAddress.h</text>
</g>
<!-- Node1&#45;&gt;Node11 -->
<g id="edge11" class="edge">
<title>Node1&#45;&gt;Node11</title>
<path fill="none" stroke="#191970" d="M275.5364,-168.3733C303.0202,-159.1016 344.7686,-145.0178 375.0452,-134.804"/>
<polygon fill="#191970" stroke="#191970" points="376.4794,-138.0141 384.836,-131.5011 374.2418,-131.3813 376.4794,-138.0141"/>
</g>
<!-- Node12 -->
<g id="node13" class="node">
<title>Node12</title>
<polygon fill="#ffffff" stroke="#bfbfbf" points="498,-112.5 498,-131.5 548,-131.5 548,-112.5 498,-112.5"/>
<text text-anchor="middle" x="523" y="-119.5" font-family="Helvetica,sans-Serif" font-size="10.00" fill="#000000">atomic</text>
</g>
<!-- Node1&#45;&gt;Node12 -->
<g id="edge12" class="edge">
<title>Node1&#45;&gt;Node12</title>
<path fill="none" stroke="#191970" d="M291.2531,-169.4813C293.8741,-168.9794 296.4716,-168.4827 299,-168 380.3721,-152.4669 403.7754,-152.1524 488.0796,-132.0517"/>
<polygon fill="#191970" stroke="#191970" points="488.9207,-135.4493 497.8237,-129.7059 487.2822,-128.6437 488.9207,-135.4493"/>
</g>
<!-- Node3 -->
<g id="node4" class="node">
<title>Node3</title>
<g id="a_node4"><a xlink:href="CoreMacros_8hpp.html" target="_top" xlink:title="Core/CoreMacros.hpp">
<polygon fill="#ffffff" stroke="#000000" points="656,-56.5 656,-75.5 776,-75.5 776,-56.5 656,-56.5"/>
<text text-anchor="middle" x="716" y="-63.5" font-family="Helvetica,sans-Serif" font-size="10.00" fill="#000000">Core/CoreMacros.hpp</text>
</a>
</g>
</g>
<!-- Node2&#45;&gt;Node3 -->
<g id="edge3" class="edge">
<title>Node2&#45;&gt;Node3</title>
<path fill="none" stroke="#191970" d="M134.1148,-112.9814C137.1161,-112.6373 140.0885,-112.3082 143,-112 323.7494,-92.8658 537.3298,-77.6749 645.5455,-70.5009"/>
<polygon fill="#191970" stroke="#191970" points="645.9366,-73.9828 655.6844,-69.8318 645.4756,-66.998 645.9366,-73.9828"/>
</g>
<!-- Node4 -->
<g id="node5" class="node">
<title>Node4</title>
<polygon fill="#ffffff" stroke="#bfbfbf" points="552,-.5 552,-19.5 604,-19.5 604,-.5 552,-.5"/>
<text text-anchor="middle" x="578" y="-7.5" font-family="Helvetica,sans-Serif" font-size="10.00" fill="#000000">cassert</text>
</g>
<!-- Node3&#45;&gt;Node4 -->
<g id="edge4" class="edge">
<title>Node3&#45;&gt;Node4</title>
<path fill="none" stroke="#191970" d="M692.277,-56.3733C669.8263,-47.2629 635.9261,-33.5062 610.8745,-23.3404"/>
<polygon fill="#191970" stroke="#191970" points="611.9957,-20.0182 601.4135,-19.5011 609.3635,-26.5045 611.9957,-20.0182"/>
</g>
<!-- Node5 -->
<g id="node6" class="node">
<title>Node5</title>
<polygon fill="#ffffff" stroke="#bfbfbf" points="622,-.5 622,-19.5 668,-19.5 668,-.5 622,-.5"/>
<text text-anchor="middle" x="645" y="-7.5" font-family="Helvetica,sans-Serif" font-size="10.00" fill="#000000">cstdio</text>
</g>
<!-- Node3&#45;&gt;Node5 -->
<g id="edge5" class="edge">
<title>Node3&#45;&gt;Node5</title>
<path fill="none" stroke="#191970" d="M703.6327,-56.2455C693.0446,-47.8943 677.5936,-35.7076 665.2107,-25.9408"/>
<polygon fill="#191970" stroke="#191970" points="667.2447,-23.0875 657.2255,-19.6427 662.9097,-28.5837 667.2447,-23.0875"/>
</g>
<!-- Node6 -->
<g id="node7" class="node">
<title>Node6</title>
<polygon fill="#ffffff" stroke="#bfbfbf" points="686,-.5 686,-19.5 746,-19.5 746,-.5 686,-.5"/>
<text text-anchor="middle" x="716" y="-7.5" font-family="Helvetica,sans-Serif" font-size="10.00" fill="#000000">iostream</text>
</g>
<!-- Node3&#45;&gt;Node6 -->
<g id="edge6" class="edge">
<title>Node3&#45;&gt;Node6</title>
<path fill="none" stroke="#191970" d="M716,-56.2455C716,-48.9382 716,-38.6944 716,-29.7046"/>
<polygon fill="#191970" stroke="#191970" points="719.5001,-29.6426 716,-19.6427 712.5001,-29.6427 719.5001,-29.6426"/>
</g>
<!-- Node7 -->
<g id="node8" class="node">
<title>Node7</title>
<polygon fill="#ffffff" stroke="#bfbfbf" points="830,-.5 830,-19.5 886,-19.5 886,-.5 830,-.5"/>
<text text-anchor="middle" x="858" y="-7.5" font-family="Helvetica,sans-Serif" font-size="10.00" fill="#000000">sstream</text>
</g>
<!-- Node3&#45;&gt;Node7 -->
<g id="edge7" class="edge">
<title>Node3&#45;&gt;Node7</title>
<path fill="none" stroke="#191970" d="M740.4107,-56.3733C763.6142,-47.2226 798.7038,-33.3844 824.5142,-23.2057"/>
<polygon fill="#191970" stroke="#191970" points="825.8892,-26.4258 833.9079,-19.5011 823.3211,-19.9139 825.8892,-26.4258"/>
</g>
<!-- Node8 -->
<g id="node9" class="node">
<title>Node8</title>
<polygon fill="#ffffff" stroke="#bfbfbf" points="764,-.5 764,-19.5 812,-19.5 812,-.5 764,-.5"/>
<text text-anchor="middle" x="788" y="-7.5" font-family="Helvetica,sans-Serif" font-size="10.00" fill="#000000">thread</text>
</g>
<!-- Node3&#45;&gt;Node8 -->
<g id="edge8" class="edge">
<title>Node3&#45;&gt;Node8</title>
<path fill="none" stroke="#191970" d="M728.5414,-56.2455C739.2787,-47.8943 754.9473,-35.7076 767.5047,-25.9408"/>
<polygon fill="#191970" stroke="#191970" points="769.8575,-28.5449 775.6023,-19.6427 765.5599,-23.0194 769.8575,-28.5449"/>
</g>
<!-- Node19&#45;&gt;Node7 -->
<g id="edge23" class="edge">
<title>Node19&#45;&gt;Node7</title>
<path fill="none" stroke="#191970" d="M919.9737,-168.4431C905.4908,-160.7228 887.1017,-148.4377 877,-132 857.5344,-100.3253 855.7235,-55.5721 856.58,-29.9999"/>
<polygon fill="#191970" stroke="#191970" points="860.0906,-29.8823 857.1074,-19.7162 853.0997,-29.5237 860.0906,-29.8823"/>
</g>
<!-- Node20 -->
<g id="node21" class="node">
<title>Node20</title>
<g id="a_node21"><a xlink:href="RaCore_8hpp.html" target="_top" xlink:title="Core/RaCore.hpp">
<polygon fill="#ffffff" stroke="#000000" points="700,-112.5 700,-131.5 798,-131.5 798,-112.5 700,-112.5"/>
<text text-anchor="middle" x="749" y="-119.5" font-family="Helvetica,sans-Serif" font-size="10.00" fill="#000000">Core/RaCore.hpp</text>
</a>
</g>
</g>
<!-- Node19&#45;&gt;Node20 -->
<g id="edge20" class="edge">
<title>Node19&#45;&gt;Node20</title>
<path fill="none" stroke="#191970" d="M907.994,-168.3733C875.7909,-158.9807 826.6558,-144.6496 791.5361,-134.4064"/>
<polygon fill="#191970" stroke="#191970" points="792.1553,-130.9412 781.5753,-131.5011 790.1953,-137.6612 792.1553,-130.9412"/>
</g>
<!-- Node21 -->
<g id="node22" class="node">
<title>Node21</title>
<polygon fill="#ffffff" stroke="#bfbfbf" points="886,-112.5 886,-131.5 930,-131.5 930,-112.5 886,-112.5"/>
<text text-anchor="middle" x="908" y="-119.5" font-family="Helvetica,sans-Serif" font-size="10.00" fill="#000000">ctime</text>
</g>
<!-- Node19&#45;&gt;Node21 -->
<g id="edge22" class="edge">
<title>Node19&#45;&gt;Node21</title>
<path fill="none" stroke="#191970" d="M935.2518,-168.2455C930.7565,-160.617 924.3752,-149.7881 918.9175,-140.5267"/>
<polygon fill="#191970" stroke="#191970" points="921.7747,-138.4811 913.6823,-131.6427 915.7439,-142.035 921.7747,-138.4811"/>
</g>
<!-- Node22 -->
<g id="node23" class="node">
<title>Node22</title>
<polygon fill="#ffffff" stroke="#bfbfbf" points="948,-112.5 948,-131.5 998,-131.5 998,-112.5 948,-112.5"/>
<text text-anchor="middle" x="973" y="-119.5" font-family="Helvetica,sans-Serif" font-size="10.00" fill="#000000">stdio.h</text>
</g>
<!-- Node19&#45;&gt;Node22 -->
<g id="edge24" class="edge">
<title>Node19&#45;&gt;Node22</title>
<path fill="none" stroke="#191970" d="M946.574,-168.2455C950.9331,-160.617 957.1211,-149.7881 962.4133,-140.5267"/>
<polygon fill="#191970" stroke="#191970" points="965.5673,-142.0616 967.4899,-131.6427 959.4896,-138.5886 965.5673,-142.0616"/>
</g>
<!-- Node23 -->
<g id="node24" class="node">
<title>Node23</title>
<polygon fill="#ffffff" stroke="#bfbfbf" points="1016,-112.5 1016,-131.5 1060,-131.5 1060,-112.5 1016,-112.5"/>
<text text-anchor="middle" x="1038" y="-119.5" font-family="Helvetica,sans-Serif" font-size="10.00" fill="#000000">string</text>
</g>
<!-- Node19&#45;&gt;Node23 -->
<g id="edge25" class="edge">
<title>Node19&#45;&gt;Node23</title>
<path fill="none" stroke="#191970" d="M957.8961,-168.2455C972.918,-159.5731 995.1043,-146.7645 1012.321,-136.825"/>
<polygon fill="#191970" stroke="#191970" points="1014.3871,-139.6737 1021.2975,-131.6427 1010.8872,-133.6114 1014.3871,-139.6737"/>
</g>
<!-- Node20&#45;&gt;Node3 -->
<g id="edge21" class="edge">
<title>Node20&#45;&gt;Node3</title>
<path fill="none" stroke="#191970" d="M743.2518,-112.2455C738.7565,-104.617 732.3752,-93.7881 726.9175,-84.5267"/>
<polygon fill="#191970" stroke="#191970" points="729.7747,-82.4811 721.6823,-75.6427 723.7439,-86.035 729.7747,-82.4811"/>
</g>
</g>
</svg>
        <g id="navigator" transform="translate(0 0)" fill="#404254">
                <rect fill="#f2f5e9" fill-opacity="0.5" stroke="#606060" stroke-width=".5" x="0" y="0" width="60" height="60"/>
                <use id="zoomplus" xlink:href="#zoomPlus" x="17" y="9" onmousedown="handleZoom(evt,'in')"/>
                <use id="zoomminus" xlink:href="#zoomMin" x="42" y="9" onmousedown="handleZoom(evt,'out')"/>
                <use id="reset" xlink:href="#resetDef" x="30" y="36" onmousedown="handleReset()"/>
                <g id="arrowUp" xlink:href="#dirArrow" transform="translate(30 24)" onmousedown="handlePan(0,-1)">
                  <use xlink:href="#rim" fill="#404040">
                        <set attributeName="fill" to="#808080" begin="arrowUp.mouseover" end="arrowUp.mouseout"/>
                  </use>
                  <path fill="none" stroke="white" stroke-width="1.5" d="M0,-3.0v7 M-2.5,-0.5L0,-3.0L2.5,-0.5"/>
                </g>
                <g id="arrowRight" xlink:href="#dirArrow" transform="rotate(90) translate(36 -43)" onmousedown="handlePan(1,0)">
                  <use xlink:href="#rim" fill="#404040">
                        <set attributeName="fill" to="#808080" begin="arrowRight.mouseover" end="arrowRight.mouseout"/>
                  </use>
                  <path fill="none" stroke="white" stroke-width="1.5" d="M0,-3.0v7 M-2.5,-0.5L0,-3.0L2.5,-0.5"/>
                </g>
                <g id="arrowDown" xlink:href="#dirArrow" transform="rotate(180) translate(-30 -48)" onmousedown="handlePan(0,1)">
                  <use xlink:href="#rim" fill="#404040">
                        <set attributeName="fill" to="#808080" begin="arrowDown.mouseover" end="arrowDown.mouseout"/>
                  </use>
                  <path fill="none" stroke="white" stroke-width="1.5" d="M0,-3.0v7 M-2.5,-0.5L0,-3.0L2.5,-0.5"/>
                </g>
                <g id="arrowLeft" xlink:href="#dirArrow" transform="rotate(270) translate(-36 17)" onmousedown="handlePan(-1,0)">
                  <use xlink:href="#rim" fill="#404040">
                        <set attributeName="fill" to="#808080" begin="arrowLeft.mouseover" end="arrowLeft.mouseout"/>
                  </use>
                  <path fill="none" stroke="white" stroke-width="1.5" d="M0,-3.0v7 M-2.5,-0.5L0,-3.0L2.5,-0.5"/>
                </g>
        </g>
        <svg viewBox="0 0 15 15" width="100%" height="30px" preserveAspectRatio="xMaxYMin meet">
         <g id="arrow_out" transform="scale(0.3 0.3)">
          <a xlink:href="WindowQt_8cpp__incl_org.svg" target="_base">
           <rect id="button" ry="5" rx="5" y="6" x="6" height="38" width="38"
                fill="#f2f5e9" fill-opacity="0.5" stroke="#606060" stroke-width="1.0"/>
           <path id="arrow"
             d="M 11.500037,31.436501 C 11.940474,20.09759 22.043105,11.32322 32.158766,21.979434 L 37.068811,17.246167 C 37.068811,17.246167 37.088388,32 37.088388,32 L 22.160133,31.978069 C 22.160133,31.978069 26.997745,27.140456 26.997745,27.140456 C 18.528582,18.264221 13.291696,25.230495 11.500037,31.436501 z"
             style="fill:#404040;"/>
          </a>
         </g>
        </svg>
</svg>
